<?xml version="1.0" standalone="no"?>
<!DOCTYPE svg PUBLIC "-//W3C//DTD SVG 1.1//EN" "http://www.w3.org/Graphics/SVG/1.1/DTD/svg11.dtd" >
<svg xmlns="http://www.w3.org/2000/svg">
<metadata>
This is a custom SVG webfont generated by Font Squirrel.
Copyright   : Copyright C 1994 Basil K Malyshev All Rights Reserved012BaKoMa Fonts Collection LevelB
</metadata>
<defs>
<font id="cmb10Regular" horiz-adv-x="1024" >
<font-face units-per-em="2048" ascent="1638" descent="-410" />
<missing-glyph horiz-adv-x="682" />
<glyph unicode=" "  horiz-adv-x="682" />
<glyph unicode="&#x09;" horiz-adv-x="682" />
<glyph unicode="&#xa0;" horiz-adv-x="682" />
<glyph unicode="!" horiz-adv-x="625" d="M147 1296q0 42 24.5 76t62.5 53t79 19t79 -19t62.5 -53t24.5 -76q0 -6 -0.5 -9.5t-1.5 -8.5l-110 -782q-6 -21 -27 -27h-53q-23 6 -25 27l-112 782q0 3 -1 8.5t-2 9.5zM150 164q0 68 47 116t116 48q68 0 116 -48t48 -116t-49 -116t-115 -48q-67 0 -115 48t-48 116z" />
<glyph unicode="&#x22;" horiz-adv-x="1114" d="M68 1257q0 70 47 117t116 47q63 0 107 -38.5t65 -98.5t21 -119q0 -86 -26 -171.5t-74.5 -157.5t-118.5 -129q-9 -11 -23 -11q-15 0 -30 15t-15 30q0 16 13 25q82 67 136 167.5t54 199.5q-45 -39 -109 -39q-69 0 -116 47t-47 116zM565 1257q0 71 47.5 117.5t116.5 46.5 q93 0 143 -78.5t50 -177.5q0 -132 -58.5 -254.5t-161.5 -203.5q-9 -11 -22 -11q-17 0 -31 15t-14 30q0 16 12 25q79 64 135 166t56 201q-45 -39 -109 -39q-69 0 -116.5 46.5t-47.5 116.5z" />
<glyph unicode="#" horiz-adv-x="1706" d="M115 285q0 23 16.5 40.5t42.5 22.5h346l86 332h-432q-24 3 -41.5 20.5t-17.5 40.5q0 24 16.5 41.5t42.5 22.5h467l150 567q5 21 21 35t40 14q25 0 43 -18t18 -43v-12l-143 -543h320l149 567q5 22 21 35.5t40 13.5q25 0 43.5 -17.5t18.5 -43.5v-12l-143 -543h313 q25 -5 41 -21.5t16 -42.5q0 -25 -16.5 -41.5t-40.5 -19.5h-348l-86 -332h434q25 -5 41 -21.5t16 -41.5q0 -26 -16.5 -42.5t-40.5 -19.5h-469l-148 -571q-15 -49 -61 -49q-25 0 -44 18t-19 43q0 2 2 12l141 547h-320l-147 -571q-6 -21 -23.5 -35t-37.5 -14q-25 0 -44.5 17.5 t-19.5 43.5q0 2 2 12l141 547h-311q-24 3 -41.5 20.5t-17.5 41.5zM649 348h320l86 332h-320z" />
<glyph unicode="$" d="M115 387q0 59 38 97t95 38q36 0 66 -17t47.5 -48t17.5 -68q0 -57 -37 -94t-94 -37h-6q28 -67 85 -109t132 -53v502q-162 42 -253 148.5t-91 269.5q0 80 23 151.5t67.5 127t109 92t144.5 45.5v104h104v-104q62 0 133.5 -32t112.5 -75q50 -52 74 -119t24 -145 q0 -57 -37 -95t-94 -38t-95 38t-38 95q0 55 37 93t94 38q-29 59 -85 92t-126 41v-444q81 -21 145.5 -61t108.5 -97t67 -131t23 -158q0 -172 -89 -298t-255 -146v-105h-104v105q-56 0 -124 31t-112 75q-108 108 -108 291zM287 1114q0 -73 49 -131t123 -78v420 q-80 -13 -126 -70.5t-46 -140.5zM563 98q85 16 128.5 82t43.5 156q0 54 -21.5 102t-60.5 84t-90 49v-473z" />
<glyph unicode="%" horiz-adv-x="1706" d="M115 1124q0 105 32.5 198.5t103 153.5t177.5 60q73 0 141 -59q80 -73 179 -113.5t200 -40.5q126 0 230 61q36 24 54.5 41.5t46.5 51.5t38 45q14 14 41 14q26 0 43.5 -18.5t17.5 -42.5q0 -13 -8 -33l-1012 -1530q-20 -27 -51 -27q-26 0 -44.5 18.5t-18.5 43.5q0 15 10 33 l860 1304q-89 -41 -205 -41q-151 0 -291 74q23 -87 23 -193q0 -92 -23.5 -187.5t-80.5 -160.5t-150 -65q-157 0 -235 124t-78 289zM334 1120q0 -327 94 -327q85 0 117.5 108.5t32.5 222.5q0 66 -12.5 140.5t-45.5 132t-92 57.5q-94 0 -94 -328v-6zM1022 299 q0 105 32.5 198.5t103 153.5t177.5 60q136 0 195 -129t59 -283q0 -93 -23.5 -188.5t-80.5 -160.5t-150 -65q-157 0 -235 124t-78 290zM1241 295q0 -328 94 -328q84 0 117 109t33 223q0 113 -32.5 221.5t-117.5 108.5q-94 0 -94 -328v-6z" />
<glyph unicode="&#x26;" horiz-adv-x="1591" d="M86 287q0 112 84 196l203 195q-84 198 -84 403q0 95 46.5 179.5t127 134t176.5 49.5q69 0 115 -43t68 -108t22 -128q0 -62 -40.5 -132.5t-86 -122t-125.5 -134.5q30 -73 78.5 -153t111 -163.5t109.5 -140.5q85 101 205 308l92 161q0 17 -160 17v104h461v-104 q-170 0 -186 -19l-115 -200q-60 -102 -114.5 -184.5t-117.5 -157.5q59 -65 120 -113.5t120 -48.5q69 0 122.5 46t53.5 114h105q0 -75 -41 -136t-106 -95t-138 -34q-99 0 -192.5 33t-186.5 96q-84 -63 -174 -96t-184 -33q-92 0 -177 37.5t-138.5 107.5t-53.5 165zM356 362 q0 -280 119 -280q133 0 260 86q-71 63 -129.5 131t-107.5 143.5t-88 153.5q-54 -76 -54 -234zM508 1163q0 -153 51 -301q48 50 86 96.5t66 101t28 105.5q0 73 -21.5 135t-78.5 62q-45 0 -74.5 -32t-43 -77.5t-13.5 -89.5z" />
<glyph unicode="'" horiz-adv-x="567" d="M121 1257q0 71 47.5 117.5t116.5 46.5q61 0 105.5 -38.5t65.5 -98.5t21 -119q0 -86 -26 -171.5t-74.5 -157.5t-118.5 -129q-9 -11 -22 -11q-16 0 -31 15t-15 30t13 25q82 67 136 167.5t54 199.5q-45 -39 -108 -39q-69 0 -116.5 46.5t-47.5 116.5z" />
<glyph unicode="(" horiz-adv-x="795" d="M184 514q0 138 23.5 280t74 275.5t131 250t193.5 208.5q9 6 19 8h30q25 -7 25 -29q0 -12 -6 -18q-109 -123 -172.5 -283.5t-87 -329.5t-23.5 -362q0 -194 23.5 -363.5t87 -330t172.5 -283.5q6 -9 6 -18q0 -22 -25 -29h-30q-10 2 -19 8q-110 90 -191 206.5t-132.5 252.5 t-75 277.5t-23.5 279.5z" />
<glyph unicode=")" horiz-adv-x="795" d="M115 -481q0 13 8 18q85 98 140.5 213.5t85.5 238.5t42 254t12 271q0 298 -60.5 545t-219.5 430q-8 8 -8 18q0 22 26 29h31q4 -1 18 -8q144 -117 238.5 -281.5t138 -352t43.5 -380.5q0 -147 -24 -288t-74.5 -274.5t-131 -249.5t-190.5 -204q-14 -7 -18 -8h-31 q-26 6 -26 29z" />
<glyph unicode="*" d="M125 909q0 56 47 74l250 98l-250 99q-47 18 -47 73q0 39 29 72t69 33q29 0 47 -19l193 -172l-45 275q-2 4 -2 12q0 36 29.5 59t66.5 23q36 0 65 -23t29 -59v-12l-47 -275l193 172q18 19 47 19q40 0 69 -33t29 -72q0 -55 -47 -73l-250 -99l250 -98q47 -18 47 -74 q0 -38 -29 -71t-69 -33q-29 0 -47 18l-193 172l47 -274v-12q0 -35 -29 -58.5t-65 -23.5t-66 23.5t-30 58.5q0 8 2 12l45 274l-193 -172q-18 -18 -47 -18q-40 0 -69 33t-29 71z" />
<glyph unicode="+" horiz-adv-x="1591" d="M115 514q0 24 17 41t42 20h559v560q3 26 21.5 42.5t42.5 16.5q15 0 28.5 -8t22.5 -22t10 -29v-560h561q24 -3 41 -20t17 -41t-17 -42t-41 -21h-561v-560q-3 -25 -21 -42t-40 -17q-24 0 -42.5 17t-21.5 42v560h-559q-25 3 -42 21t-17 42z" />
<glyph unicode="," horiz-adv-x="567" d="M121 164q0 69 47.5 116.5t116.5 47.5q92 0 139 -79.5t47 -176.5q0 -134 -56 -255t-157 -206q-12 -8 -22 -8q-16 0 -31 14t-15 31q0 9 7 20q80 65 135 167t55 198q-42 -33 -102 -33q-45 0 -83 21.5t-59.5 59.5t-21.5 83z" />
<glyph unicode="-" horiz-adv-x="682" d="M23 352v207h542v-207h-542z" />
<glyph unicode="." horiz-adv-x="567" d="M121 164q0 66 48 115t116 49t116 -48t48 -116t-49 -116t-115 -48t-115 49t-49 115z" />
<glyph unicode="/" d="M115 -451q0 15 4 21l667 1923q15 43 60 43q26 0 43.5 -18.5t17.5 -42.5q0 -15 -2 -21l-667 -1923q-19 -43 -60 -43q-25 0 -44 19t-19 42z" />
<glyph unicode="0" d="M80 651q0 183 30 334t125.5 253.5t276.5 102.5q259 0 344.5 -195.5t85.5 -494.5q0 -182 -29.5 -328.5t-125 -246t-275.5 -99.5q-136 0 -224.5 59t-133.5 159t-59.5 212.5t-14.5 243.5zM350 686q0 -432 12 -483q17 -61 56 -102.5t94 -41.5q53 0 92.5 42.5t54.5 101.5 q13 51 13 483q0 395 -13 442q-17 55 -55.5 93.5t-91.5 38.5t-92 -38t-58 -94q-12 -47 -12 -442z" />
<glyph unicode="1" d="M141 1106v104q286 0 424 131h49q27 -6 33 -32v-1205h234v-104h-711v104h225v1035q-106 -33 -254 -33z" />
<glyph unicode="2" d="M102 0v80q1 5 9 16l313 393q59 75 104 147t73 151t28 161q0 68 -19 135.5t-62 110.5t-114 43q-86 0 -149 -57q55 -12 88 -53t33 -97q0 -65 -44 -108t-108 -43q-43 0 -77 19.5t-54.5 54.5t-20.5 77q0 95 55.5 166t143.5 108t182 37q116 0 216.5 -48t160.5 -138t60 -207 q0 -80 -33.5 -148t-83.5 -120.5t-143.5 -132.5t-110.5 -96l-195 -187h90q314 0 324 12q28 28 47 187h105l-64 -463h-754z" />
<glyph unicode="3" d="M86 293q0 67 46.5 113.5t115.5 46.5q44 0 81 -21t58 -58t21 -81q0 -59 -34 -101t-91 -57q79 -61 190 -61q93 0 117 86t24 211v6q0 124 -25 209.5t-120 85.5h-100q-22 5 -27 26v31q6 20 27 25l82 6q81 0 111 96t30 203q0 89 -22 141.5t-97 52.5q-99 0 -166 -67 q58 -8 92.5 -48.5t34.5 -97.5q0 -61 -42 -103t-103 -42q-63 0 -105.5 41.5t-42.5 103.5q0 129 99.5 215t232.5 86q73 0 144 -15t131 -48t96.5 -87.5t36.5 -133.5q0 -78 -35 -145.5t-94 -117t-134 -79.5q90 -19 162 -65t114 -116t42 -161q0 -128 -63.5 -217.5t-169 -134 t-230.5 -44.5q-69 0 -136.5 20t-125.5 61.5t-91.5 102t-33.5 132.5z" />
<glyph unicode="4" d="M57 317v105l631 895q12 18 37 18h51q17 0 27 -10t10 -27v-876h152v-105h-152v-213h152v-104h-615v104h199v213h-492zM168 422h403v571z" />
<glyph unicode="5" d="M102 328q0 59 41 100t101 41q39 0 71.5 -18.5t51 -51t18.5 -71.5q0 -59 -40 -101.5t-97 -42.5q34 -51 84.5 -80.5t109.5 -29.5q117 0 148 92t31 242v6q0 342 -117 342q-82 0 -127.5 -26.5t-80.5 -68.5t-48 -45h-35q-27 8 -33 33v660q6 26 33 32l8 -2q138 -63 289 -63 q150 0 291 63q8 2 10 2q22 0 29 -24v-31q-11 -44 -71.5 -104.5t-111.5 -91.5q-122 -74 -262 -74q-54 0 -98 8v-250q84 64 207 64q189 0 302.5 -117.5t113.5 -308.5q0 -136 -63.5 -234.5t-173 -149.5t-241.5 -51q-93 0 -171.5 48.5t-123.5 129t-45 173.5z" />
<glyph unicode="6" d="M86 662q0 178 58 332.5t179.5 250.5t301.5 96q118 0 189 -73.5t71 -190.5q0 -55 -39 -93t-92 -38q-55 0 -94 38t-39 93q0 51 33.5 89t82.5 42q-38 45 -112 45q-112 0 -167.5 -78.5t-70 -180t-14.5 -224.5q61 90 162 90q125 0 217 -56t138 -155t46 -227 q0 -199 -113.5 -322t-310.5 -123q-130 0 -217 64t-131 164t-61 218t-17 239zM375 418q0 -136 24 -240t113 -104q44 0 79 22.5t48 63.5q10 47 10 260v6q0 225 -8 266q-12 39 -44 62.5t-75 23.5q-93 0 -120 -99t-27 -226v-35z" />
<glyph unicode="7" d="M115 856l71 528h105v-4q0 -20 40.5 -33t103 -19t112.5 -7.5t92 -1.5h354v-72q-2 -9 -6 -16l-276 -373q-56 -81 -83 -209t-33.5 -254t-6.5 -284q0 -57 -38.5 -95.5t-92.5 -38.5q-56 0 -94.5 38.5t-38.5 95.5q0 105 19 207t57 204.5t90 197t116 179.5l115 156h-100 q-342 0 -355 -13q-28 -33 -47 -186h-104z" />
<glyph unicode="8" d="M86 336q0 107 57 189t160 143q-74 50 -118 132.5t-44 172.5q0 108 46.5 192t130.5 130t194 46q99 0 183 -34t135 -103.5t51 -169.5q0 -167 -172 -272q110 -69 168.5 -158t58.5 -211q0 -93 -30.5 -171t-86 -131.5t-135 -83.5t-172.5 -30q-117 0 -214 40t-154.5 120.5 t-57.5 198.5zM270 336q0 -114 64.5 -188t177.5 -74q102 0 171 53t69 152q0 48 -26.5 91.5t-70.5 71.5l-258 166q-62 -47 -94.5 -120t-32.5 -152zM303 1096q0 -36 21 -68t53 -51l241 -156q49 43 75 96.5t26 116.5q0 97 -56 158t-153 61q-85 0 -146 -38.5t-61 -118.5z" />
<glyph unicode="9" d="M86 899q0 135 53 234t151 153.5t232 54.5q167 0 259.5 -105t123.5 -256.5t31 -317.5q0 -129 -29 -249.5t-89.5 -218.5t-159 -157.5t-232.5 -59.5q-84 0 -149 31t-102.5 91t-37.5 143q0 54 38.5 93.5t94.5 39.5t93.5 -38.5t37.5 -94.5q0 -48 -28 -84t-76 -45 q39 -39 129 -39q145 0 184 140t39 339q-60 -92 -162 -92q-126 0 -217.5 56.5t-137.5 155.5t-46 226zM373 897q0 -225 8 -268q11 -39 43.5 -62.5t75.5 -23.5q67 0 99.5 57t41 125t8.5 149v29q0 80 -6.5 153.5t-35 135t-85.5 61.5q-69 0 -101.5 -56t-40 -127t-7.5 -167v-6z " />
<glyph unicode=":" horiz-adv-x="567" d="M121 164q0 66 48 115t116 49t116 -48t48 -116t-49 -116t-115 -48t-115 49t-49 115zM121 745q0 68 48 116t116 48t116 -47t48 -117q0 -69 -48 -116t-116 -47t-116 48t-48 115z" />
<glyph unicode=";" horiz-adv-x="567" d="M121 164q0 69 47.5 116.5t116.5 47.5q89 0 129.5 -80t40.5 -176q0 -131 -51 -250t-146 -211q-12 -8 -22 -8q-16 0 -31 14t-15 31q0 9 7 20q44 42 85 102.5t65 126t24 126.5q-37 -23 -86 -23q-45 0 -83 21.5t-59.5 59.5t-21.5 83zM121 745q0 68 48 116t116 48t116 -47 t48 -117q0 -69 -48 -116t-116 -47t-116 48t-48 115z" />
<glyph unicode="&#x3c;" horiz-adv-x="625" d="M147 -272l2 10q1 5 1 8l112 784q3 19 25 25h53q21 -6 27 -25l110 -784q1 -4 1.5 -8t0.5 -10q0 -62 -51 -105t-115 -43q-62 0 -114 43t-52 105zM150 860q0 68 47 116t116 48q68 0 116 -48t48 -116t-49 -116t-115 -48q-67 0 -115 48t-48 116z" />
<glyph unicode="=" horiz-adv-x="1591" d="M115 285q0 23 16.5 40.5t42.5 22.5h1245q25 -5 41.5 -22.5t16.5 -40.5q0 -24 -17.5 -41.5t-40.5 -20.5h-1245q-24 3 -41.5 20.5t-17.5 41.5zM115 741q0 24 16.5 41.5t42.5 22.5h1245q25 -5 41.5 -22.5t16.5 -41.5q0 -23 -17.5 -40.5t-40.5 -20.5h-1245q-24 3 -41.5 20.5 t-17.5 40.5z" />
<glyph unicode="&#x3e;" horiz-adv-x="967" d="M115 -143q0 62 16.5 101t49.5 70t77 72q68 68 106.5 156.5t38.5 183.5v90q4 19 25 25h53q22 -6 27 -25v-96q0 -111 -25.5 -219t-74.5 -213q-23 -47 -23 -149q0 -123 4 -148q16 -33 68 -33q131 0 217 58q-41 12 -64.5 47t-23.5 78q0 57 38 95t95 38q37 0 66.5 -17t47 -48 t17.5 -68q0 -136 -124.5 -200.5t-270.5 -64.5q-149 0 -244.5 62t-95.5 205zM291 860q0 66 48 115t116 49q69 0 116 -48t47 -116t-48 -116t-115 -48q-66 0 -115 49t-49 115z" />
<glyph unicode="?" horiz-adv-x="967" d="M115 1169q0 84 50.5 144t129.5 90.5t160 30.5q101 0 189.5 -21.5t147 -80.5t58.5 -163q0 -61 -28 -114.5t-77 -85.5q-68 -44 -121.5 -103t-84.5 -132t-31 -150v-88q-5 -21 -27 -27h-53q-21 6 -25 27v94q0 205 105 379q23 36 37.5 60.5t20.5 37.5t10 39t4 65 q0 69 -6 104.5t-33.5 56t-85.5 20.5q-45 0 -89.5 -14t-80.5 -42q28 -7 49.5 -25.5t33 -44.5t11.5 -57q0 -57 -38 -95t-93 -38t-94 38t-39 95zM291 164q0 66 48 115t116 49q69 0 116 -48t47 -116t-48 -116t-115 -48q-66 0 -115 49t-49 115z" />
<glyph unicode="@" horiz-adv-x="1591" d="M115 711q0 154 47 287.5t136 231.5t214 151t285 53q159 0 285.5 -53.5t214.5 -151.5t134 -231t46 -287q0 -178 -46.5 -314.5t-189.5 -136.5q-167 0 -240 78q-91 -78 -204 -78q-129 0 -221 60t-140.5 162.5t-48.5 228.5q0 124 48 227t140.5 163t221.5 60q88 0 162.5 -47.5 t117.5 -128.5h103q19 -5 24 -24v-521q0 -98 47 -98q121 0 121 367q0 178 -66 325.5t-196 232.5t-313 85t-314 -85t-197.5 -230.5t-66.5 -325.5q0 -131 37.5 -249.5t112.5 -206t183 -136.5t245 -49q275 0 524 120l8 3h123q25 -9 25 -29t-17 -27q-83 -39 -157.5 -64.5 t-165.5 -46t-170.5 -29.5t-169.5 -9q-160 0 -284.5 53t-214.5 152t-136.5 232t-46.5 286zM629 711q0 -74 13 -156t51 -147.5t104 -65.5q99 0 166 94v525q6 12 6 14q-27 46 -73.5 75t-98.5 29q-66 0 -104 -65.5t-51 -147t-13 -155.5z" />
<glyph unicode="A" horiz-adv-x="1546" d="M72 0v104q176 0 182 19l444 1270q15 37 52 37h47q16 0 30.5 -10.5t20.5 -26.5l450 -1289h177v-104h-650v104h168l-90 258h-442l-82 -241q0 -17 160 -17v-104h-467zM498 467h368l-184 526z" />
<glyph unicode="B" horiz-adv-x="1456" d="M70 0v104h192v1196h-192v105h772q115 0 216 -38.5t163.5 -119t62.5 -198.5q0 -125 -83.5 -205.5t-215.5 -108.5q154 -19 254 -110.5t100 -241.5q0 -183 -126.5 -283t-313.5 -100h-829zM539 104h303q66 0 108.5 43t61 107t18.5 129q0 60 -13 131t-49 123.5t-98 52.5h-331 v-586zM539 772h245q101 0 151 84.5t50 192.5q0 93 -32 172t-111 79h-303v-528z" />
<glyph unicode="C" horiz-adv-x="1479" d="M115 702q0 163 52.5 297t147.5 229t230 147t297 52q180 0 321 -124l131 116q8 5 19 8h24q20 -5 25 -24v-508q-5 -22 -25 -27h-65q-22 5 -27 27q0 57 -28 136.5t-62 131.5q-49 72 -120.5 116t-153.5 44q-114 0 -210.5 -49t-156.5 -144q-33 -55 -51 -127t-22.5 -136 t-4.5 -160v-7q0 -140 15 -241t63 -185q60 -94 157.5 -143t213.5 -49q107 0 191.5 56.5t132.5 150.5t48 198q7 20 27 25h53q25 -6 25 -31q0 -105 -41 -197t-115.5 -161.5t-168.5 -107.5t-195 -38q-162 0 -295.5 51.5t-230.5 148t-149 230t-52 295.5z" />
<glyph unicode="D" horiz-adv-x="1569" d="M70 0v104h192v1196h-192v105h759q152 0 270.5 -56.5t197 -155t118 -227.5t39.5 -276q0 -143 -40 -268.5t-121 -221t-198 -148t-266 -52.5h-759zM549 104h201q96 0 181.5 38.5t135.5 111.5q53 79 65.5 179.5t12.5 256.5q0 162 -12.5 267.5t-65.5 185.5q-33 50 -84 86 t-111.5 53.5t-121.5 17.5h-201v-1196z" />
<glyph unicode="E" horiz-adv-x="1341" d="M70 0v104h192v1196h-192v105h1093l64 -502h-105q-21 155 -52 234.5t-106.5 121t-222.5 41.5h-180v-518h39q121 0 154.5 55t33.5 185h105v-584h-105q0 89 -11.5 137.5t-52 75.5t-124.5 27h-39v-574h197q159 0 242 54.5t117 147.5t63 263h104l-94 -569h-1120z" />
<glyph unicode="F" horiz-adv-x="1284" d="M70 0v104h192v1196h-192v105h1065l63 -502h-104q-19 145 -48.5 227t-103.5 126t-215 44h-166v-544h33q83 0 122 28t49.5 76.5t10.5 134.5h105v-583h-105q0 86 -10.5 134.5t-49 76.5t-122.5 28h-33v-547h242v-104h-733z" />
<glyph unicode="G" horiz-adv-x="1610" d="M115 702q0 163 52.5 297t147.5 229t230 147t297 52q88 0 170.5 -32t152.5 -92l131 116q10 6 19 8h24q20 -5 25 -24v-508q-5 -22 -25 -27h-65q-22 5 -27 27q0 57 -28 136.5t-62 131.5q-49 72 -120.5 116t-153.5 44q-116 0 -212.5 -49t-156.5 -144q-50 -84 -64 -185.5 t-14 -242.5q0 -96 4.5 -160t22.5 -137t51 -129q32 -48 72 -84.5t90 -61t103.5 -36.5t111.5 -12q44 0 85 21.5t65 59t24 83.5v215h-256v104h696v-104h-141v-434q-6 -27 -29 -27q-2 0 -10 2q-33 15 -68 30t-65.5 31.5t-56.5 38.5q-46 -61 -126 -93t-167 -32 q-162 0 -295.5 51.5t-230.5 148t-149 230t-52 295.5z" />
<glyph unicode="H" horiz-adv-x="1604" d="M70 0v104h192v1196h-192v105h684v-105h-193v-518h479v518h-192v105h684v-105h-193v-1196h193v-104h-684v104h192v574h-479v-574h193v-104h-684z" />
<glyph unicode="I" horiz-adv-x="813" d="M53 0v104h203v1196h-203v105h705v-105h-203v-1196h203v-104h-705z" />
<glyph unicode="J" horiz-adv-x="1057" d="M-8 233q0 70 46 116t116 46q42 0 79.5 -21t58.5 -59t21 -82q0 -48 -24.5 -87t-69.5 -60q61 -27 131 -27q84 0 121 73t37 167v1001h-252v105h684v-105h-145v-1009q0 -108 -67.5 -179.5t-169.5 -103t-208 -31.5q-135 0 -246.5 64.5t-111.5 191.5z" />
<glyph unicode="K" horiz-adv-x="1604" d="M70 0v104h192v1196h-192v105h684v-105h-193v-608l594 592q0 5 -15.5 7.5t-23.5 2.5q-46 6 -94 6v105h467v-105q-166 0 -186 -18l-418 -416l469 -743q20 -19 164 -19v-104h-611v104q135 0 135 17l-350 553l-131 -131v-439h193v-104h-684z" />
<glyph unicode="L" horiz-adv-x="1229" d="M70 0v104h192v1196h-192v105h733v-105h-242v-1196h137q65 0 126 29t104 82q54 67 74 146.5t34 207.5h105l-64 -569h-1007z" />
<glyph unicode="M" horiz-adv-x="1946" d="M70 0v104q96 0 143 5q49 0 49 14v1177h-192v105h465q40 0 53 -37l385 -1028l385 1028q13 37 53 37h463v-105h-193v-1196h193v-104h-649v104h192v1178l-465 -1245q-13 -37 -53 -37h-14q-40 0 -54 37l-452 1212v-1126q0 -14 49 -14q47 -5 143 -5v-104h-501z" />
<glyph unicode="N" horiz-adv-x="1604" d="M70 0v104q96 0 143 5q49 0 49 14v1177h-192v105h469q18 -5 24 -12l660 -916v805q0 7 -19 10.5t-30 3.5q-48 4 -144 4v105h502v-105q-96 0 -143 -4q-11 0 -30.5 -3.5t-19.5 -10.5v-1249q-6 -27 -32 -33h-52q-18 5 -22 12l-854 1182v-1071q0 -14 49 -14q47 -5 143 -5v-104 h-501z" />
<glyph unicode="O" horiz-adv-x="1536" d="M115 694q0 203 75 371t222 265t356 97q208 0 354.5 -97t221.5 -265t75 -371t-76 -366t-224 -257t-351 -94q-154 0 -275 54t-207 153.5t-128.5 230.5t-42.5 279zM436 731q0 -111 4 -183.5t21 -154t51 -147.5q40 -76 108 -125t148 -49q53 0 102.5 23.5t88.5 63t63 87.5 q49 100 62.5 209t13.5 276q0 153 -13.5 253.5t-62.5 191.5q-26 48 -65.5 84t-89.5 56.5t-99 20.5q-80 0 -147.5 -44.5t-108.5 -116.5q-34 -60 -51 -135.5t-21 -142t-4 -167.5z" />
<glyph unicode="P" horiz-adv-x="1399" d="M70 0v104h192v1196h-192v105h731q130 0 239.5 -44.5t175.5 -135.5t66 -224q0 -130 -67 -218t-177 -130.5t-237 -42.5h-240v-506h193v-104h-684zM549 702h172q83 0 133 18.5t73 55.5t28.5 85.5t5.5 139.5q0 115 -13 175t-63.5 92t-163.5 32h-172v-598z" />
<glyph unicode="Q" horiz-adv-x="1536" d="M115 694q0 203 75 371t222 265t356 97q208 0 354.5 -97t221.5 -265t75 -371q0 -139 -38.5 -268t-119 -229.5t-206.5 -157.5q35 -54 70 -84.5t83 -30.5q56 0 103 18t47 62q7 33 37 33q15 0 26 -12.5t11 -28.5q0 -88 -22.5 -179t-77.5 -152.5t-146 -61.5q-98 0 -149.5 59.5 t-68.5 133t-34 200.5q-87 -19 -166 -19q-154 0 -275 54t-207 153.5t-128.5 230.5t-42.5 279zM424 694q0 -96 4 -162.5t19 -142t49 -142.5t88 -112v17q0 46 25.5 85.5t68 62t90.5 22.5q127 0 215 -154q44 48 70.5 112t39 130.5t15 130.5t2.5 153q0 108 -5 180t-21.5 146.5 t-53.5 144.5q-38 76 -108.5 124t-153.5 48q-85 0 -154 -47t-110 -125q-51 -96 -65.5 -205.5t-14.5 -265.5zM666 152q0 -43 29 -63.5t73 -20.5q78 0 143 41q-39 131 -143 131q-24 0 -48 -11t-39 -32t-15 -45z" />
<glyph unicode="R" horiz-adv-x="1554" d="M70 0v104h192v1196h-192v105h667q100 0 195 -19.5t178.5 -63.5t135.5 -119.5t52 -180.5q0 -84 -42 -150t-110 -111t-151 -69q81 -35 138 -101t67 -151l23 -178q12 -92 36 -147.5t89 -55.5q34 0 55.5 23.5t31 58t9.5 66.5q6 27 33 33h39q32 -6 32 -41q0 -55 -25.5 -106.5 t-71 -83.5t-101.5 -32q-185 0 -317 59t-132 218v178q0 88 -42.5 159t-125.5 71h-184v-558h192v-104h-671zM549 743h149q113 0 172.5 25t83 84t23.5 170q0 112 -22 171t-82.5 83t-174.5 24h-149v-557z" />
<glyph unicode="S" horiz-adv-x="1137" d="M115 4v438q5 20 26 25h54q19 -5 24 -25q0 -115 52.5 -197.5t145 -122.5t208.5 -40q94 0 142 68.5t48 166.5q0 49 -17 97t-52 84t-84 49l-246 61q-135 34 -218 149.5t-83 254.5q0 119 48.5 214t138 148t210.5 53q177 0 293 -102l94 94q8 6 19 8h24q20 -6 25 -24v-438 q-5 -21 -25 -27h-53q-22 5 -27 27q0 65 -34 149t-80 127q-46 47 -105.5 68.5t-130.5 21.5q-60 0 -102.5 -27.5t-65 -75t-22.5 -108.5q0 -71 40.5 -129.5t108.5 -77.5l246 -59q92 -23 161 -88.5t106.5 -157t37.5 -186.5q0 -123 -46 -224.5t-136 -161t-215 -59.5 q-210 0 -346 103l-97 -94q-8 -5 -18 -9h-23q-21 7 -26 27z" />
<glyph unicode="T" horiz-adv-x="1421" d="M74 903l43 502h1186l43 -502h-105q-11 126 -26 202t-52 116q-73 79 -205 79h-98v-1196h275v-104h-848v104h274v1196h-100q-132 0 -205 -79q-26 -31 -41.5 -82.5t-23.5 -113.5t-13 -122h-104z" />
<glyph unicode="U" horiz-adv-x="1575" d="M70 1300v105h684v-105h-193v-835q0 -82 10 -149t37.5 -120t82 -83.5t140.5 -30.5q118 0 200 48.5t122.5 136t40.5 206.5v809q0 7 -19 10.5t-30 3.5q-47 4 -144 4v105h502v-105q-96 0 -143 -4q-10 0 -29.5 -3.5t-19.5 -10.5v-817q0 -106 -34 -195.5t-97 -155.5 t-153 -101.5t-196 -35.5q-112 0 -214 30t-184 93.5t-126.5 155t-44.5 209.5v835h-192z" />
<glyph unicode="V" horiz-adv-x="1546" d="M45 1300v105h641v-105h-166l344 -909l338 893q0 5 -18 7.5t-27 2.5q-58 6 -115 6v105h459v-105q-54 0 -112 -3t-62 -15l-477 -1262q-13 -36 -53 -36h-47q-39 0 -54 36l-483 1280h-168z" />
<glyph unicode="W" horiz-adv-x="2116" d="M43 1300v105h629v-105h-170l293 -866l206 619l-83 247h-156v105h629v-105h-168l290 -866l285 850q-5 5 -51 10q-64 6 -131 6v105h455v-105q-50 0 -104 -3t-58 -15l-424 -1262q-13 -36 -51 -36h-33q-41 0 -51 36l-293 869l-293 -869q-10 -36 -51 -36h-33q-38 0 -51 36 l-430 1280h-156z" />
<glyph unicode="X" horiz-adv-x="1546" d="M59 0v104q215 0 232 19l352 551l-379 626h-178v105h647v-105h-145l221 -366l223 350q0 5 -21.5 7.5t-33.5 2.5q-58 6 -117 6v105h543v-105q-72 0 -147 -3t-87 -15l-292 -459l432 -719h180v-104h-649v104h147l-276 459l-281 -442q0 -3 21.5 -6.5t31.5 -3.5q55 -7 119 -7 v-104h-543z" />
<glyph unicode="Y" horiz-adv-x="1546" d="M33 1300v105h657v-105h-149l329 -581l322 565q0 7 -51 11.5t-88 4.5v105h460v-105q-172 0 -186 -18l-412 -721v-457h195v-104h-674v104h193v457l-418 739h-178z" />
<glyph unicode="Z" horiz-adv-x="1251" d="M115 37v39q0 11 6 20l682 1204h-180q-188 0 -282.5 -103t-94.5 -294h-105l25 502h932q15 0 26 -10t11 -27v-33q0 -12 -7 -20l-679 -1202h192q221 0 311 123t90 354h105l-37 -590h-958q-17 0 -27 10t-10 27z" />
<glyph unicode="[" horiz-adv-x="573" d="M219 -512v2048h307v-125h-182v-1798h182v-125h-307z" />
<glyph unicode="\" horiz-adv-x="1114" d="M190 952q0 133 58 255t162 204q10 10 22 10q17 0 31 -14t14 -31q0 -15 -12 -24q-81 -66 -136 -168t-55 -199q45 39 109 39q68 0 116 -48t48 -116q0 -69 -47.5 -116.5t-116.5 -47.5q-92 0 -142.5 79t-50.5 177zM688 952q0 86 26 171.5t74 158t119 129.5q10 10 23 10 q15 0 30 -14t15 -31q0 -15 -12 -24q-81 -66 -136 -168t-55 -199q45 39 109 39q69 0 116 -48t47 -116q0 -69 -46.5 -116.5t-116.5 -47.5q-92 0 -142.5 79t-50.5 177z" />
<glyph unicode="]" horiz-adv-x="573" d="M45 -387h182v1798h-182v125h307v-2048h-307v125z" />
<glyph unicode="^" d="M223 1161l289 260l287 -260l-66 -80l-221 164l-223 -164z" />
<glyph unicode="_" horiz-adv-x="567" d="M121 1260q0 67 48 115t116 48t116 -47t48 -116q0 -68 -48 -116t-116 -48t-116 49t-48 115z" />
<glyph unicode="`" horiz-adv-x="567" d="M92 952q0 86 26 171.5t74 158t119 129.5q10 10 23 10q15 0 30 -14t15 -31q0 -15 -12 -24q-81 -66 -136 -168t-55 -199q45 39 109 39q68 0 116 -48t48 -116q0 -69 -47.5 -116.5t-116.5 -47.5q-92 0 -142.5 79t-50.5 177z" />
<glyph unicode="a" horiz-adv-x="995" d="M57 229q0 117 93 188.5t220.5 100.5t245.5 29v76q0 90 -39 156.5t-124 66.5q-55 0 -117 -10q43 -40 43 -101q0 -57 -37 -95t-94 -38t-95 38t-38 95q0 78 54.5 121t130.5 57.5t155 14.5q99 0 191 -30.5t152 -98t60 -170.5v-484q9 -41 103 -41q26 -6 32 -32v-39 q-6 -27 -32 -33h-142q-62 0 -115 32t-53 91v16q-36 -69 -104 -110t-146 -41q-129 0 -236.5 61t-107.5 180zM305 229q0 -58 33.5 -108.5t87.5 -50.5q53 0 96.5 27.5t68.5 73t25 97.5v205q-73 0 -145 -28.5t-119 -84.5t-47 -131z" />
<glyph unicode="b" horiz-adv-x="1137" d="M29 1300v105l370 16v-581q111 82 248 82q133 0 228 -62t144.5 -168t49.5 -237q0 -135 -54.5 -241.5t-157 -166t-236.5 -59.5q-72 0 -135.5 28.5t-114.5 79.5l-97 -96h-104v1243q0 38 -40 47.5t-101 9.5zM412 186q74 -116 190 -116q89 0 133 60.5t54 139t10 183.5v6 q0 158 -30 269.5t-144 111.5q-63 0 -118 -30t-95 -83v-541z" />
<glyph unicode="c" horiz-adv-x="909" d="M68 455q0 101 30.5 187.5t87 150.5t140 99.5t184.5 35.5q120 0 218.5 -44t98.5 -149q0 -57 -37 -95t-94 -38t-95 39t-38 94q0 62 39 94q-37 9 -90 9q-62 0 -98 -39t-51.5 -97t-20 -116.5t-4.5 -128.5q0 -94 13.5 -176.5t60.5 -142.5t137 -60q75 0 127 49.5t72 124.5 q8 13 24 16h53q25 -7 25 -28q0 -2 -2 -11q-31 -113 -124.5 -177t-213.5 -64q-135 0 -235.5 60t-153.5 165.5t-53 241.5z" />
<glyph unicode="d" horiz-adv-x="1137" d="M68 455q0 134 54.5 240.5t155.5 166.5t236 60q125 0 223 -76v397q0 38 -40 47.5t-101 9.5v105l371 16v-1259q0 -36 40 -47t101 -11v-104l-383 -12v82q-100 -82 -233 -82q-132 0 -228 61.5t-146 169t-50 236.5zM338 453q0 -71 4 -130.5t20 -117.5t52.5 -96.5t97.5 -38.5 q67 0 122 34.5t91 92.5v538q-33 46 -84 75.5t-106 29.5q-89 0 -133 -60.5t-54 -138.5t-10 -182v-6z" />
<glyph unicode="e" horiz-adv-x="954" d="M57 461q0 133 55 239.5t157.5 167t236.5 60.5q135 0 222 -55.5t128 -155t41 -230.5q0 -30 -33 -41h-536q0 -101 14.5 -180.5t65.5 -133.5t149 -54q83 0 149.5 48t88.5 126q11 19 30 24h39q33 -7 33 -36q0 -2 -2 -13q-24 -75 -78 -128.5t-129 -82t-153 -28.5 q-104 0 -192 33.5t-152 96t-99 150t-35 193.5zM328 522h366q0 76 -15.5 148.5t-57.5 124t-115 51.5q-106 0 -142 -97t-36 -227z" />
<glyph unicode="f" horiz-adv-x="625" d="M51 0v104h142v701h-115v104h115v219q0 105 63.5 174.5t161 100.5t200.5 31q82 0 143.5 -52t61.5 -131q0 -55 -38 -93t-91 -38t-92 39t-39 92q0 63 45 101h-10q-92 0 -140 -67.5t-48 -162.5v-213h198v-104h-186v-701h178v-104h-549z" />
<glyph unicode="g" d="M49 -150q0 59 41 105.5t100 67.5q-79 68 -79 190q0 105 67 188q-45 39 -70.5 97t-25.5 120q0 98 52.5 167.5t137 103t183.5 33.5q146 0 243 -64q79 74 185 74q48 0 79 -37.5t31 -85.5q0 -39 -26.5 -65.5t-65.5 -26.5q-37 0 -64.5 26.5t-27.5 65.5q0 14 2 20q1 4 1.5 7 t0.5 4q-34 -10 -59 -27q73 -82 73 -195q0 -78 -31 -135t-82.5 -94t-119.5 -56.5t-139 -19.5q-131 0 -219 49q-19 -29 -19 -67q0 -50 33.5 -85.5t83.5 -35.5h180q212 0 335.5 -64t123.5 -260q0 -77 -45.5 -128t-115.5 -80t-149.5 -41.5t-150.5 -12.5q-102 0 -207 23 t-180.5 82t-75.5 157zM233 -150q0 -65 43 -105.5t106.5 -57.5t129.5 -17q105 0 190.5 43t85.5 137q0 77 -81 98t-193 21h-180q-49 0 -75 -33.5t-26 -85.5zM317 614q0 -69 6.5 -113t37.5 -75t94 -31q64 0 94 31t36.5 75t6.5 113v7q0 69 -6.5 113t-36.5 75t-94 31 q-62 0 -93.5 -30.5t-38 -74.5t-6.5 -114v-7z" />
<glyph unicode="h" horiz-adv-x="1137" d="M45 0v104h141v1139q0 38 -40 47.5t-101 9.5v105l371 16v-680q48 83 126 132t171 49q100 0 161.5 -31.5t91 -96t29.5 -165.5v-525h142v-104h-508v104h125v519v6q0 211 -66 211q-58 0 -106.5 -25.5t-83 -70t-52.5 -98t-18 -111.5v-431h141v-104h-524z" />
<glyph unicode="i" horiz-adv-x="567" d="M49 0v104h141v639q0 39 -37 48.5t-98 9.5v104l365 17v-818h129v-104h-500zM113 1260q0 69 47 116t116 47q70 0 117 -47t47 -116q0 -68 -47 -116t-117 -48q-69 0 -116 48t-47 116z" />
<glyph unicode="j" horiz-adv-x="625" d="M-135 -217q0 57 37 94t94 37q37 0 68 -17.5t48 -47.5t17 -66q0 -67 -47 -105q27 -6 61 -6q70 0 98.5 75.5t28.5 160.5v835q0 38 -45.5 48t-109.5 10v104l385 17v-1022q0 -91 -52.5 -162t-136 -109.5t-172.5 -38.5q-103 0 -188.5 48t-85.5 145zM172 1260q0 67 48 115 t116 48t116 -47t48 -116q0 -68 -48 -116t-116 -48t-116 49t-48 115z" />
<glyph unicode="k" horiz-adv-x="1079" d="M29 0v104h141v1139q0 38 -40 47.5t-101 9.5v105l370 16v-903l289 270q0 9 -35 13t-57 4v104h403v-104q-139 0 -159 -19l-230 -215l301 -448q21 -19 136 -19v-104h-459v104q76 0 76 17l-207 307l-68 -63v-261h139v-104h-499z" />
<glyph unicode="l" horiz-adv-x="567" d="M49 0v104h141v1139q0 38 -40 47.5t-101 9.5v105l371 16v-1317h141v-104h-512z" />
<glyph unicode="m" horiz-adv-x="1706" d="M45 0v104h141v639q0 58 -141 58v104l361 17v-199q46 90 127 144.5t180 54.5q227 0 270 -179q31 52 77 93t102 63.5t118 22.5q147 0 215 -71.5t68 -221.5v-525h141v-104h-508v104h125v519v6q0 211 -66 211q-77 0 -136.5 -44.5t-91.5 -115.5t-32 -145v-431h142v-104h-508 v104h125v519v6q0 211 -66 211q-58 0 -106.5 -25.5t-83 -70t-52.5 -98t-18 -111.5v-431h141v-104h-524z" />
<glyph unicode="n" horiz-adv-x="1137" d="M45 0v104h141v639q0 58 -141 58v104l361 17v-199q46 90 127 144.5t180 54.5q100 0 161.5 -31.5t91 -96t29.5 -165.5v-525h142v-104h-508v104h125v519v6q0 211 -66 211q-58 0 -106.5 -25.5t-83 -70t-52.5 -98t-18 -111.5v-431h141v-104h-524z" />
<glyph unicode="o" d="M57 446q0 102 30.5 191t89.5 154t145 101t190 36q105 0 190.5 -36t143.5 -101t88.5 -152t30.5 -193q0 -134 -56 -239t-159 -162t-238 -57q-137 0 -239.5 57t-159 162t-56.5 239zM328 473q0 -107 9 -187.5t50 -144t125 -63.5q83 0 123.5 63t49.5 144t9 188q0 77 -4 135.5 t-20.5 112.5t-54.5 89.5t-103 35.5q-84 0 -125 -59t-50 -134.5t-9 -179.5z" />
<glyph unicode="p" horiz-adv-x="1137" d="M29 -293h141v1059q0 35 -141 35v104l370 17v-84q113 84 256 84q102 0 179.5 -37t129 -100t78.5 -149t27 -181q0 -135 -54.5 -241.5t-157 -166t-236.5 -59.5q-120 0 -209 71v-352h141v-104h-524v104zM412 186q74 -116 190 -116q108 0 152.5 125t44.5 260 q0 129 -38.5 252.5t-135.5 123.5q-61 0 -117 -28.5t-96 -79.5v-537z" />
<glyph unicode="q" horiz-adv-x="1079" d="M68 455q0 131 53.5 238.5t155 168t235.5 60.5q76 0 145 -38.5t113 -101.5l104 140h93v-1215h141v-104h-524v104h141v367q-105 -86 -231 -86q-132 0 -228.5 61.5t-147 168.5t-50.5 237zM338 455q0 -131 38.5 -258t135.5 -127q75 0 133 46.5t92 119.5v395q-23 84 -74 142 t-128 58q-74 0 -119 -64t-61.5 -150.5t-16.5 -161.5z" />
<glyph unicode="r" horiz-adv-x="874" d="M29 0v104h141v639q0 58 -141 58v104l348 17v-168q29 76 82.5 122t128.5 46q54 0 107.5 -19t88.5 -58t35 -95q0 -53 -37 -91t-92 -38t-92 38t-37 91q0 54 33 90h-6q-112 0 -150.5 -120.5t-38.5 -266.5v-349h179v-104h-549z" />
<glyph unicode="s" horiz-adv-x="807" d="M68 14v285q5 19 26 25h53q20 -7 25 -25q53 -229 231 -229q181 0 181 149q0 37 -19 66.5t-50 49t-66 27.5l-123 25q-111 27 -184.5 95.5t-73.5 170.5q0 74 25.5 128t72 86.5t105.5 46.5t132 14q96 0 160 -35l66 33l8 2h25q19 -5 24 -25v-225q-5 -22 -24 -27h-54 q-21 5 -26 27q0 54 -22.5 93.5t-63.5 61t-97 21.5q-178 0 -178 -123q0 -45 38.5 -75.5t88.5 -43.5l125 -24q75 -19 134 -58.5t94.5 -101t35.5 -137.5q0 -154 -90 -228.5t-244 -74.5q-116 0 -192 57l-86 -55l-8 -2h-23q-21 5 -26 26z" />
<glyph unicode="t" horiz-adv-x="799" d="M39 805v82q94 0 153 65.5t84 162t25 185.5h105v-391h243v-104h-243v-559q0 -69 16.5 -118.5t69.5 -49.5q48 0 67 53t19 115v116h104v-122q0 -60 -25.5 -119t-73.5 -96t-112 -37q-136 0 -221.5 60.5t-85.5 191.5v565h-125z" />
<glyph unicode="u" horiz-adv-x="1137" d="M45 801v104l383 17v-676v-8q0 -73 6.5 -105t34 -47.5t92.5 -15.5q91 0 142 79.5t51 176.5v417q0 58 -142 58v104l383 17v-760q0 -37 40.5 -47.5t101.5 -10.5v-104l-371 -12v135q-83 -135 -223 -135q-105 0 -181.5 18.5t-126 73.5t-49.5 158v505q0 58 -141 58z" />
<glyph unicode="v" horiz-adv-x="1079" d="M45 805v104h490v-104h-113l184 -490l180 473q0 10 -36.5 13.5t-71.5 3.5v104h356v-104q-129 0 -137 -19l-287 -757q-13 -37 -53 -37h-35q-40 0 -53 37l-295 776h-129z" />
<glyph unicode="w" horiz-adv-x="1479" d="M43 805v104h440v-104h-75l161 -463l115 326l-49 137h-92v104h418v-104h-117l178 -514l174 497q0 10 -41.5 13.5t-83.5 3.5v104h363v-104q-121 0 -127 -19l-265 -757q-13 -37 -53 -37h-31q-40 0 -53 37l-166 481l-168 -481q-13 -37 -53 -37h-31q-40 0 -53 37l-270 776 h-121z" />
<glyph unicode="x" horiz-adv-x="1079" d="M35 0v104q166 0 182 19l225 309l-254 373h-143v104h469v-104h-88l139 -203l133 186q0 9 -35 13t-59 4v104h406v-104q-166 0 -183 -19l-200 -276l274 -406h146v-104h-472v104h89l-160 236l-158 -219q0 -7 36 -12t60 -5v-104h-407z" />
<glyph unicode="y" horiz-adv-x="1079" d="M39 -215q0 51 35 86t88 35q51 0 86 -35t35 -86q0 -81 -68 -111q4 -2 12 -2q69 0 119.5 50t77.5 120l59 158l-307 805h-131v104h490v-104h-113l184 -483l180 466q0 10 -36.5 13.5t-71.5 3.5v104h356v-104q-129 0 -137 -19l-362 -944q-41 -105 -122 -178.5t-186 -73.5 q-77 0 -132.5 58t-55.5 137z" />
<glyph unicode="z" horiz-adv-x="909" d="M57 37v22q0 12 6 21l476 747h-88q-148 0 -204.5 -66.5t-56.5 -217.5h-104l25 366h669q17 0 27 -10t10 -27v-18q0 -11 -6 -20l-473 -744h98q142 0 207 66q36 37 51 104.5t23 161.5h104l-37 -422h-690q-15 0 -26 10t-11 27z" />
<glyph unicode="{" d="M0 520v82h1022v-82h-1022z" />
<glyph unicode="|" horiz-adv-x="2048" d="M0 520v82h2046v-82h-2046z" />
<glyph unicode="}" d="M238 1102l43 250q8 48 37 78t75 30q55 0 98.5 -36.5t43.5 -88.5q0 -45 -37 -86l-166 -192zM580 1102l43 250q8 48 37 78t75 30q55 0 98.5 -36.5t43.5 -88.5q0 -45 -37 -86l-166 -192z" />
<glyph unicode="~" d="M170 1237l90 115q56 69 129 69q31 0 61.5 -9t81 -28t73 -25.5t54.5 -6.5q77 0 127 69l66 -51l-90 -115q-56 -69 -129 -69q-31 0 -51 6t-74.5 26t-83.5 28.5t-62 8.5q-76 0 -126 -69z" />
<glyph unicode="&#xa1;" horiz-adv-x="1229" d="M70 0v104h192v1196h-192v105h1007l64 -502h-105q-13 108 -28 173t-48.5 116.5t-96.5 79.5t-165 28h-137v-1196h242v-104h-733z" />
<glyph unicode="&#xa2;" horiz-adv-x="1706" d="M100 27q0 2 4 10l664 1356q20 37 59 37h50q39 0 59 -37l666 -1356q1 -3 1.5 -5t0.5 -5q0 -11 -8 -19t-19 -8h-1450q-11 0 -19 8t-8 19zM342 256h817l-409 834z" />
<glyph unicode="&#xa3;" horiz-adv-x="1591" d="M115 694q0 208 81 375.5t235.5 262.5t365.5 95t364.5 -95.5t234.5 -262.5t81 -375q0 -153 -45.5 -284.5t-134.5 -229t-216.5 -150.5t-283.5 -53q-157 0 -283.5 52.5t-217 151.5t-136 229t-45.5 284zM414 694q0 -93 5.5 -169t26.5 -153.5t58 -140.5q48 -77 126 -122.5 t167 -45.5q88 0 166 45.5t124 122.5q37 63 58 139t27 153.5t6 170.5q0 153 -17 267t-74 210q-45 78 -124 126.5t-166 48.5q-58 0 -114 -22t-102.5 -62t-76.5 -91q-38 -63 -58 -141t-26 -158.5t-6 -177.5zM530 508v395h105v-69h321v69h105v-395h-105v70h-321v-70h-105z" />
<glyph unicode="&#xa4;" horiz-adv-x="1434" d="M72 0v104q153 0 159 19l412 1270q4 15 18.5 26t30.5 11h47q16 0 30 -10t19 -27l418 -1289h154v-104h-639v104h170l-270 840l-267 -823q0 -10 47 -10q55 -7 117 -7v-104h-446z" />
<glyph unicode="&#xa5;" horiz-adv-x="1364" d="M86 436h104q2 -51 4.5 -82t7.5 -60.5t15 -39.5q16 -16 223 -16h484q57 0 101 1t78.5 4t43.5 11q13 13 19 65.5t8 116.5h104l-18 -436h-1156zM96 991l19 414h1134l19 -414h-105q-5 141 -26 162q-15 14 -217 14h-476q-202 0 -217 -14q-21 -21 -26 -162h-105zM285 518v426 h104v-94h586v94h104v-426h-104v94h-586v-94h-104z" />
<glyph unicode="&#xa6;" horiz-adv-x="1604" d="M70 0v104h192v1196h-192v105h1462v-105h-193v-1196h193v-104h-684v104h192v1196h-479v-1196h193v-104h-684z" />
<glyph unicode="&#xa7;" horiz-adv-x="1479" d="M115 37q0 16 10 24l522 521l-526 735q-4 7 -6 16v39q6 27 32 33h1151l64 -502h-105q-22 172 -78 256.5t-153.5 112.5t-275.5 28h-250l413 -577q7 -8 7 -21q0 -16 -9 -24l-538 -535h368q178 0 279.5 27t159.5 113.5t77 257.5h105l-64 -541h-1151q-32 7 -32 37z" />
<glyph unicode="&#xa8;" horiz-adv-x="1591" d="M115 1124q0 76 35.5 147t98.5 113.5t142 42.5q87 0 156 -36.5t118.5 -99t81.5 -138.5t50 -160q21 90 51 162t80.5 136t117 100t154.5 36q79 0 141.5 -42.5t99 -113t36.5 -147.5q0 -15 -11 -26t-26 -11h-43q-17 0 -27 11t-10 26q0 62 -160 62q-150 0 -202 -150t-52 -334 v-598h242v-104h-782v104h241v598q0 186 -53 335t-203 149q-160 0 -160 -62q0 -14 -10.5 -25.5t-25.5 -11.5h-43q-17 0 -27 11t-10 26z" />
<glyph unicode="&#xa9;" horiz-adv-x="1479" d="M115 702q0 115 71 196.5t180.5 126t223.5 56.5v219h-242v105h760v-105h-242v-217q192 -17 326 -100q76 -46 123 -120.5t47 -160.5q0 -85 -46.5 -158.5t-123.5 -121.5q-131 -83 -326 -100v-218h242v-104h-760v104h242v220q-114 12 -223.5 56.5t-180.5 125.5t-71 196z M424 702q0 -84 10.5 -136.5t46.5 -92t109 -59.5v577q-73 -20 -109 -59.5t-46.5 -92.5t-10.5 -137zM866 410q78 15 120 54t54.5 95.5t12.5 142.5q0 131 -35 200t-152 93v-585z" />
<glyph unicode="&#xaa;" horiz-adv-x="1591" d="M115 1067v16q6 27 32 33h211q79 0 100 -79t21 -189q0 -148 34.5 -259t133.5 -161v872h-241v105h759v-105h-241v-876q110 47 149 160.5t39 263.5q0 110 21 189t100 79h211q27 -6 33 -33v-16q-6 -27 -33 -33q-55 0 -55 -194q0 -223 -121.5 -356.5t-343.5 -159.5v-220h241 v-104h-759v104h241v220q-142 19 -242 85.5t-151 176t-51 254.5q0 194 -56 194q-26 6 -32 33z" />
<glyph unicode="&#xad;" horiz-adv-x="1479" d="M90 418h105q26 -160 45 -178q26 -21 125 -21h79q-35 86 -133.5 238.5t-147 252.5t-48.5 226q0 164 88.5 275t231.5 163.5t304 52.5q119 0 230 -29t200 -88.5t141 -154t52 -219.5q0 -122 -47 -221t-147 -252.5t-136 -243.5h80q98 0 125 21q19 19 45 178h104l-75 -418h-365 q-33 10 -33 41q0 101 14.5 190.5t47.5 248t49 258.5t16 200q0 114 -26 204t-93.5 147t-181.5 57q-115 0 -182.5 -57.5t-94 -147t-26.5 -203.5q1 -128 33 -288t63 -323t31 -286q0 -32 -33 -41h-364z" />
<glyph unicode="&#xae;" horiz-adv-x="1194" d="M29 0v104h141v701h-115v104h115v219q0 87 52 148.5t130 94.5t168.5 48t169.5 15q110 0 189 -68q115 68 282 68q83 0 145 -52t62 -131q0 -55 -38 -93t-91 -38q-55 0 -93 38t-38 93q0 65 45 101h-12q-93 0 -141 -67.5t-48 -162.5v-213h201v-104h-188v-701h178v-104h-549 v104h141v701h-336v-701h142v-104h-512zM387 909h348v211q-51 36 -51 105q0 75 61 112q-35 15 -86 15q-114 0 -193 -58.5t-79 -171.5v-213z" />
<glyph unicode="&#xaf;" horiz-adv-x="1137" d="M29 0v104h141v701h-115v104h115v219q0 115 86.5 183.5t206 95.5t235.5 27q66 0 126.5 -31.5t97 -88.5t36.5 -124q0 -57 -40 -97t-97 -40q-59 0 -99 40t-40 97q0 44 25 81.5t69 51.5q-53 29 -106 29q-119 0 -201 -58.5t-82 -171.5v-213h209v6l338 15h33v-826h141v-104 h-512v104h141v652q0 16 -6.5 32.5t-19.5 16.5h-312v-701h142v-104h-512z" />
<glyph unicode="&#xb0;" horiz-adv-x="1137" d="M29 0v104h141v701h-115v104h115v219q0 113 85.5 182t206 96.5t230.5 27.5q70 0 129 -23l146 10v-1317h141v-104h-512v104h141v701h-338v-701h142v-104h-512zM387 909h350v238q-51 38 -51 104q0 62 39 95q-30 6 -63 6q-72 0 -135.5 -25t-101.5 -78t-38 -127v-213z" />
<glyph unicode="&#xb1;" horiz-adv-x="1706" d="M29 0v104h141v701h-115v104h115v219q0 113 85.5 182t206 96.5t230.5 27.5q55 0 107 -22t86 -60q144 82 381 82q66 0 126.5 -32t97 -88.5t36.5 -123.5q0 -58 -39.5 -97.5t-97.5 -39.5q-59 0 -99.5 39.5t-40.5 97.5q0 44 25 81.5t69 51.5q-52 29 -106 29q-74 0 -139 -25 t-104.5 -77t-39.5 -128v-213h209v6l338 15h33v-826h141v-104h-512v104h142v652q0 13 -7 31t-20 18h-311v-701h141v-104h-512v104h141v701h-338v-701h142v-104h-512zM387 909h350v162q-67 39 -67 119q0 46 26.5 83.5t69.5 49.5q-45 29 -104 29q-117 0 -196 -58.5t-79 -171.5 v-213z" />
<glyph unicode="&#xb2;" horiz-adv-x="1706" d="M29 0v104h141v701h-115v104h115v219q0 113 85.5 182t206 96.5t230.5 27.5q57 0 111 -20.5t90 -57.5q137 78 367 78q70 0 129 -23l145 10v-1317h141v-104h-512v104h142v701h-338v-701h141v-104h-512v104h141v701h-338v-701h142v-104h-512zM387 909h350v211q-51 40 -51 105 q0 74 62 112q-37 15 -86 15q-117 0 -196 -58.5t-79 -171.5v-213zM954 909h351v238q-52 38 -52 104q0 60 39 95q-30 6 -63 6q-72 0 -135.5 -25t-101.5 -78t-38 -127v-213z" />
<glyph unicode="&#xb3;" horiz-adv-x="567" d="M49 0v104h141v639q0 39 -37 48.5t-98 9.5v104l365 17v-818h129v-104h-500z" />
<glyph unicode="&#xb4;" horiz-adv-x="625" d="M-135 -217q0 57 37 94t94 37q37 0 68 -17.5t48 -47.5t17 -66q0 -67 -47 -105q27 -6 61 -6q70 0 98.5 75.5t28.5 160.5v835q0 38 -45.5 48t-109.5 10v104l385 17v-1022q0 -91 -52.5 -162t-136 -109.5t-172.5 -38.5q-103 0 -188.5 48t-85.5 145z" />
<glyph unicode="&#xb5;" d="M201 1315q0 53 41 93t92 40q62 0 100 -64l168 -268l-74 -74l-266 175q-61 38 -61 98z" />
<glyph unicode="&#xb6;" d="M420 1116l168 268q38 64 100 64q34 0 64.5 -19t49.5 -50t19 -64q0 -60 -61 -98l-266 -175z" />
<glyph unicode="&#xb8;" d="M186 1421h82q0 -100 72 -176t172 -76q67 0 122.5 35.5t87.5 93.5t32 123h82q0 -96 -39.5 -185t-113.5 -145.5t-171 -56.5q-98 0 -172 56t-114 145t-40 186z" />
<glyph unicode="&#xb9;" d="M141 1128v115h740v-115h-740z" />
<glyph unicode="&#xba;" horiz-adv-x="1546" d="M551 1268q0 85 66 127.5t157 42.5q90 0 155.5 -43t65.5 -127q0 -85 -65.5 -128.5t-155.5 -43.5q-91 0 -157 43.5t-66 128.5zM655 1268q0 -42 13 -61t36 -24t70 -5q46 0 68.5 5t35.5 24t13 61q0 59 -25.5 73.5t-91.5 14.5q-68 0 -93.5 -14.5t-25.5 -73.5z" />
<glyph unicode="&#xbb;" horiz-adv-x="909" d="M219 -330q342 0 342 103q0 56 -54 80t-118 24v100h242v-38q172 -37 172 -166q0 -64 -65.5 -103t-163 -56.5t-182.5 -21.5t-173 -4v82z" />
<glyph unicode="&#xbc;" horiz-adv-x="1145" d="M29 0v104h141v701h-141v104h141v246q0 100 67 163t164.5 89.5t194.5 26.5q167 0 300.5 -67t133.5 -216q0 -101 -69 -177t-175 -112q98 -43 165.5 -118.5t101.5 -172.5t34 -206q0 -180 -123 -278.5t-305 -98.5q-79 0 -139.5 51.5t-60.5 130.5q0 44 31 75t75 31 q45 0 76 -31t31 -75q0 -60 -51 -92q24 -8 41 -8q106 0 141 85.5t35 209.5q0 191 -64 326.5t-233 135.5q-22 5 -27 27v31q5 19 27 24q239 0 239 242q0 201 -186 201q-195 0 -195 -203v-1149h-370z" />
<glyph unicode="&#xbd;" horiz-adv-x="1479" d="M57 217q0 110 95 176.5t223.5 92.5t242.5 26v111q0 90 -39.5 156.5t-123.5 66.5q-57 0 -119 -10q43 -40 43 -101q0 -57 -37 -95t-94 -38t-95 38t-38 95q0 78 54.5 121t130.5 57.5t155 14.5q203 0 315 -99q116 99 287 99q189 0 275.5 -122.5t86.5 -318.5q0 -30 -33 -41 h-526q0 -155 53 -261.5t195 -106.5q74 0 131.5 51t77.5 123q11 19 31 24h38q33 -7 33 -36q0 -2 -2 -13q-19 -70 -69.5 -125t-118.5 -84.5t-144 -29.5q-93 0 -179.5 30.5t-149.5 90.5q-64 -67 -158.5 -94t-200.5 -27q-128 0 -234 56t-106 173zM305 217q0 -57 33.5 -102 t89.5 -45q51 0 105 23.5t89 64.5t35 94q-39 97 -39 182q-48 0 -103 -13.5t-102 -39.5t-77.5 -68t-30.5 -96zM860 522h357q0 117 -33.5 220.5t-126.5 103.5q-75 0 -120 -51t-61 -122.5t-16 -150.5z" />
<glyph unicode="&#xbe;" horiz-adv-x="1591" d="M57 461q0 137 57 243.5t161.5 165t240.5 58.5q96 0 184.5 -32.5t149.5 -98.5q128 131 321 131q129 0 210 -58.5t117 -157t36 -225.5q0 -30 -33 -41h-528q0 -368 248 -368q73 0 132.5 51t78.5 123q11 19 30 24h39q33 -7 33 -36q0 -2 -2 -13q-19 -70 -69.5 -125 t-118.5 -84.5t-144 -29.5q-214 0 -346 135q-63 -68 -152 -101.5t-186 -33.5q-138 0 -242 59.5t-160.5 168t-56.5 245.5zM305 469q0 -170 37.5 -284.5t173.5 -114.5q97 0 144.5 63.5t59 144t11.5 191.5v6q0 164 -39.5 267.5t-175.5 103.5q-94 0 -140.5 -57t-58.5 -135.5 t-12 -178.5v-6zM973 522h358q0 121 -33.5 222.5t-126.5 101.5q-111 0 -154.5 -98t-43.5 -226z" />
<glyph unicode="&#xbf;" d="M57 446q0 102 30.5 191t89.5 154t145 101t190 36q95 0 176 -31l119 231l74 -36l-119 -232q102 -62 152.5 -173.5t50.5 -240.5q0 -134 -56 -239t-159 -162t-238 -57q-92 0 -178 28l-119 -233l-74 37l119 231q-66 39 -112.5 102.5t-68.5 138t-22 154.5zM299 446 q0 -93 5 -156t22 -108l315 619q-59 45 -129 45q-97 0 -144.5 -61.5t-58 -143t-10.5 -195.5zM381 111q56 -41 131 -41q97 0 143.5 56.5t57 132t10.5 187.5q0 100 -4.5 167t-24.5 114z" />
<glyph unicode="&#xc0;" horiz-adv-x="1853" d="M72 0v104q178 0 184 19l426 1177h-131v105h1124l64 -502h-105q-12 101 -29 172t-49.5 120t-97.5 77t-168 28h-153v-573h55q85 0 127.5 26.5t54.5 76t12 137.5h105v-584h-105q0 132 -35 186t-159 54h-55v-519h170q147 0 223 59t104.5 146.5t57.5 259.5h104l-94 -569h-989 v104h145v519h-297l-182 -502q0 -10 47 -10q52 -7 115 -7v-104h-469zM598 727h260v573h-53z" />
<glyph unicode="&#xc1;" horiz-adv-x="2081" d="M150 694q0 207 80.5 374.5t235 263t363.5 95.5q71 0 192 -11t169 -11h713l63 -502h-104q-14 113 -32 180.5t-53.5 116t-103 74.5t-174.5 26h-180v-518h96q98 0 145 22t64.5 72.5t17.5 145.5h105v-584h-105q0 96 -17.5 146t-65 72t-144.5 22h-96v-574h197q114 0 188 33.5 t115 95.5t60 137t40 199h104l-94 -569h-739q-60 0 -186 -11.5t-175 -11.5q-156 0 -283.5 53.5t-215.5 150.5t-134 228.5t-46 284.5zM459 731q0 -142 32 -296t115 -265t223 -111q66 0 115 15t74 59q19 35 27.5 87t11 110.5t2.5 138.5v467q0 123 -7 205.5t-34 130.5 q-42 74 -189 74q-105 0 -178 -59.5t-114 -152t-59.5 -201t-18.5 -202.5z" />
<glyph unicode="&#xc2;" horiz-adv-x="1591" d="M115 694q0 208 81 375.5t235.5 262.5t365.5 95q171 0 315 -69l94 170l78 -45l-94 -168q99 -66 162.5 -164.5t94 -216t30.5 -240.5q0 -153 -45.5 -284.5t-134.5 -229t-216.5 -150.5t-283.5 -53q-173 0 -318 68l-94 -168l-78 45l94 166q-142 95 -214 258.5t-72 347.5z M414 694q0 -161 11 -264.5t58 -191.5l564 1005q-103 103 -250 103q-61 0 -119.5 -20t-107 -59t-78.5 -91q-36 -60 -53 -137t-21 -155t-4 -190zM543 160q49 -49 115 -75t139 -26q58 0 116.5 19.5t107 57t79.5 89.5q53 87 65.5 195t12.5 274t-12 275.5t-60 195.5z" />
<glyph unicode="&#xc3;" horiz-adv-x="567" d="M12 672l561 151l27 -102l-561 -150z" />
<glyph unicode="&#xc4;" d="M160 1272q0 63 45 107t108 44q39 0 74.5 -20t56.5 -56t21 -75q0 -63 -45.5 -108.5t-106.5 -45.5q-62 0 -107.5 45.5t-45.5 108.5zM557 1272q0 62 45.5 106.5t108.5 44.5q39 0 74.5 -20.5t56 -56t20.5 -74.5q0 -63 -44.5 -108.5t-106.5 -45.5t-108 46t-46 108z" />
<glyph unicode="&#x2000;" horiz-adv-x="768" />
<glyph unicode="&#x2001;" horiz-adv-x="1536" />
<glyph unicode="&#x2002;" horiz-adv-x="768" />
<glyph unicode="&#x2003;" horiz-adv-x="1536" />
<glyph unicode="&#x2004;" horiz-adv-x="512" />
<glyph unicode="&#x2005;" horiz-adv-x="384" />
<glyph unicode="&#x2006;" horiz-adv-x="256" />
<glyph unicode="&#x2007;" horiz-adv-x="256" />
<glyph unicode="&#x2008;" horiz-adv-x="192" />
<glyph unicode="&#x2009;" horiz-adv-x="307" />
<glyph unicode="&#x200a;" horiz-adv-x="85" />
<glyph unicode="&#x2010;" horiz-adv-x="682" d="M23 352v207h542v-207h-542z" />
<glyph unicode="&#x2011;" horiz-adv-x="682" d="M23 352v207h542v-207h-542z" />
<glyph unicode="&#x2012;" horiz-adv-x="682" d="M23 352v207h542v-207h-542z" />
<glyph unicode="&#x2013;" horiz-adv-x="1164" d="M23 352v207h1024v-207h-1024z" />
<glyph unicode="&#x2014;" horiz-adv-x="2188" d="M23 352v207h2048v-207h-2048z" />
<glyph unicode="&#x202f;" horiz-adv-x="307" />
<glyph unicode="&#x205f;" horiz-adv-x="384" />
<glyph unicode="&#x2219;" d="M229 1249l54 90l229 -104l227 104l54 -90l-281 -190z" />
<glyph unicode="&#xe000;" horiz-adv-x="910" d="M0 910h910v-910h-910v910z" />
</font>
</defs>
</svg>
