<?xml version="1.0" standalone="no"?>
<!DOCTYPE svg PUBLIC "-//W3C//DTD SVG 1.1//EN" "http://www.w3.org/Graphics/SVG/1.1/DTD/svg11.dtd" >
<svg xmlns="http://www.w3.org/2000/svg">
<metadata>
This is a custom SVG webfont generated by Font Squirrel.
Copyright   : Copyright C 1994 Basil K Malyshev All Rights Reserved012BaKoMa Fonts Collection LevelB
</metadata>
<defs>
<font id="cmbsy8Regular" horiz-adv-x="1950" >
<font-face units-per-em="2048" ascent="1638" descent="-410" />
<missing-glyph horiz-adv-x="500" />
<glyph unicode=" "  horiz-adv-x="500" />
<glyph unicode="&#x09;" horiz-adv-x="500" />
<glyph unicode="&#xa0;" horiz-adv-x="500" />
<glyph unicode="!" horiz-adv-x="2509" d="M139 516q6 54 64 66h1751q-210 160 -275 430v12q0 26 16 42t42 19h24q38 -6 54 -43q46 -188 178.5 -314.5t324.5 -154.5q49 -15 49 -61q0 -23 -14 -38.5t-35 -20.5q-92 -13 -174 -52t-148.5 -101.5t-111 -139t-67.5 -170.5q-11 -45 -56 -51h-24q-26 3 -42 19t-16 42v12 q18 69 41.5 127t58 112t78.5 103t97 88h-1749q-66 12 -66 74z" />
<glyph unicode="&#x22;" horiz-adv-x="1253" d="M8 836v24q6 44 49 58q119 21 224.5 85.5t179.5 162t108 214.5q15 41 58 41t59 -41q35 -119 108.5 -215.5t178 -161t223.5 -85.5q43 -13 49 -58v-24q-3 -25 -19.5 -41.5t-41.5 -16.5q-4 0 -10 2q-145 26 -266 98.5t-212 186.5v-1399q-10 -57 -65 -63q-64 0 -74 65v1397 q-88 -112 -210 -185.5t-267 -99.5q-6 -2 -10 -2q-24 0 -41.5 17t-20.5 41z" />
<glyph unicode="#" horiz-adv-x="1253" d="M8 164v24q3 23 20.5 40.5t41.5 17.5q4 0 10 -2q142 -24 265.5 -98.5t211.5 -186.5v1399q10 57 66 63q30 0 49 -17.5t24 -47.5v-1397q91 114 214 187.5t264 97.5q6 2 10 2q25 0 41.5 -16.5t19.5 -41.5v-24q-6 -45 -49 -58q-119 -21 -223.5 -85.5t-178 -161t-108.5 -215.5 q-16 -41 -59 -41t-58 41q-34 117 -108 214.5t-179.5 162t-224.5 85.5q-43 14 -49 58z" />
<glyph unicode="$" horiz-adv-x="2509" d="M139 512q0 46 51 61q97 15 178.5 54.5t146 101t110.5 142.5t67 171q15 37 53 43h25q26 -3 41.5 -19.5t15.5 -41.5v-12q-65 -270 -274 -430h1401q-69 51 -123.5 119t-92 145.5t-59.5 165.5v12q0 26 16 42t42 19h24q45 -6 56 -51q28 -121 99.5 -219.5t175 -161t226.5 -80.5 q49 -15 49 -61q0 -23 -14 -38.5t-35 -20.5q-94 -13 -176 -53t-149 -103.5t-111.5 -143.5t-66.5 -171q-16 -37 -54 -43h-24q-26 3 -42 19t-16 42v12q18 69 41.5 127t58 112t78.5 103t97 88h-1401q104 -78 174 -190t100 -240v-12q0 -25 -15.5 -41.5t-41.5 -19.5h-25 q-46 7 -55 51q-28 121 -99 219.5t-175.5 162t-225.5 81.5q-22 5 -36.5 21t-14.5 38z" />
<glyph unicode="%" horiz-adv-x="2509" d="M139 -324q4 31 23 48l1825 1468h-17q-127 0 -244 41t-217 121q-26 19 -26 49q0 29 23.5 50.5t49.5 21.5q23 0 39 -13q80 -63 178 -98t197 -35q164 0 305 84q15 8 31 8q25 0 43 -18t18 -43t-16 -41q-76 -82 -118 -190t-42 -218q0 -139 64 -270q6 -9 6 -25q0 -27 -24 -49 t-52 -22q-32 0 -56.5 40.5t-42 108t-25 122.5t-7.5 91q0 83 21 178l-1819 -1464q-24 -18 -51 -18q-29 3 -47.5 24t-18.5 49z" />
<glyph unicode="&#x26;" horiz-adv-x="2509" d="M139 1356q10 65 74 65q20 -3 37 -14l1825 -1468q-21 83 -21 178q0 36 7.5 93t24.5 122.5t42 106t57 40.5q28 0 52 -22t24 -49q0 -16 -6 -25q-64 -131 -64 -270q0 -110 41.5 -216.5t118.5 -191.5q16 -16 16 -41t-18 -43t-43 -18q-16 0 -31 8q-141 84 -305 84 q-99 0 -197 -35t-178 -98q-16 -13 -39 -13q-26 0 -49.5 22.5t-23.5 49.5q0 29 26 49q97 79 215.5 120.5t245.5 41.5h17l-1825 1468q-23 20 -23 56z" />
<glyph unicode="'" d="M139 18q0 29 19 48t47 22h1540q29 -3 47 -22t18 -48q0 -28 -18 -47t-47 -22h-1540q-28 3 -47 22t-19 47zM139 610q0 122 52.5 228t149 170.5t216.5 64.5q110 0 204 -46.5t228 -140.5t217.5 -136.5t186.5 -42.5q68 0 134 28t113.5 79t65.5 118q2 6 6.5 49t15 67.5 t33.5 24.5q26 0 37.5 -31.5t11.5 -64.5q0 -123 -52 -229.5t-148 -171t-217 -64.5q-109 0 -201 45.5t-221.5 137.5t-219.5 138t-194 46q-68 0 -134 -28t-114 -80.5t-65 -117.5q-2 -6 -7 -50.5t-15.5 -67.5t-33.5 -23q-24 0 -36.5 34.5t-12.5 63.5z" />
<glyph unicode="(" horiz-adv-x="2509" d="M139 512q0 46 51 61q125 21 239 68t216 118.5t185.5 165t144.5 205.5q18 31 49 31h25q26 -3 41.5 -18.5t15.5 -42.5q0 -26 -33.5 -80.5t-78 -111.5t-66.5 -79h1374q29 -5 47 -23.5t18 -45.5q0 -29 -18 -48t-47 -22h-1524q-148 -116 -307 -178q156 -61 307 -176h1524 q29 -5 47 -23.5t18 -46.5q0 -29 -18.5 -47.5t-46.5 -21.5h-1374q24 -26 67.5 -82t77 -110.5t33.5 -80.5q0 -27 -16.5 -42.5t-40.5 -18.5h-25q-31 0 -49 31q-78 145 -199.5 262t-270 192.5t-315.5 104.5q-22 5 -36.5 21t-14.5 38z" />
<glyph unicode=")" horiz-adv-x="2509" d="M139 266q0 28 18.5 46.5t47.5 23.5h1524q151 115 307 176q-159 62 -307 178h-1524q-28 3 -47 22t-19 48q0 27 18.5 45.5t47.5 23.5h1374q-55 60 -116.5 146.5t-61.5 124.5q0 26 15 42t42 19h25q31 0 49 -31q61 -112 145.5 -205.5t186.5 -165t216 -118.5t238 -68 q49 -15 49 -61q0 -23 -14 -38.5t-35 -20.5q-167 -29 -316 -104.5t-270.5 -192.5t-199.5 -262q-18 -31 -49 -31h-25q-25 3 -41 19t-16 42q0 37 65.5 129t112.5 144h-1374q-27 3 -46.5 21.5t-19.5 47.5z" />
<glyph unicode="*" horiz-adv-x="1532" d="M39 666v24q6 39 45 55q200 79 367 238q86 88 149 185t111 216q16 37 55 37q43 0 59 -41q46 -122 119 -229q57 -86 133 -162q2 -1 3.5 -2.5t2.5 -3.5q163 -158 365 -238q39 -16 45 -55v-24q-11 -58 -61 -58q-45 0 -163.5 70t-185.5 123v-1133q-5 -29 -23.5 -47t-45.5 -18 q-29 0 -48 18t-22 47v1262q-101 110 -178 248q-73 -131 -176 -248v-1262q-5 -29 -23.5 -47t-46.5 -18q-29 0 -47.5 18.5t-21.5 46.5v1133q-75 -57 -190.5 -125t-160.5 -68q-50 0 -61 58z" />
<glyph unicode="+" horiz-adv-x="1532" d="M39 334v24q5 26 20.5 42t40.5 16q31 0 101 -36t146.5 -86t103.5 -71v1133q3 28 21.5 46.5t47.5 18.5q28 0 46.5 -18t23.5 -47v-1262q103 -117 176 -248q77 138 178 248v1262q3 29 22 47t48 18q27 0 45.5 -18t23.5 -47v-1133q58 48 179.5 120.5t169.5 72.5q25 0 40.5 -16 t20.5 -42v-24q-6 -39 -45 -55q-315 -126 -504 -406q-72 -104 -121 -233q-19 -37 -57 -37q-44 0 -57 41q-49 122 -119 229q-61 88 -135 162q-161 159 -371 244q-39 16 -45 55z" />
<glyph unicode="," horiz-adv-x="2509" d="M104 512q0 42 43 59q143 39 268 117t224.5 191t159.5 245q13 30 51 37h24q27 -3 42.5 -18.5t15.5 -42.5q0 -34 -57 -127t-99 -144h955q-44 56 -100 146.5t-56 124.5q0 26 15 42t42 19h25q38 -7 51 -37q48 -104 112.5 -189t151 -157.5t183.5 -124t206 -82.5q41 -16 41 -59 q0 -44 -41 -57q-124 -33 -239 -100.5t-211 -161.5q-128 -128 -203 -293q-13 -30 -51 -37h-25q-25 3 -41 19t-16 42q0 34 57.5 127.5t98.5 145.5h-955q40 -49 98 -144t58 -129q0 -27 -16.5 -42.5t-41.5 -18.5h-24q-38 7 -51 37q-42 94 -112.5 187t-152.5 162.5t-183 123 t-204 82.5q-43 13 -43 57zM377 512q70 -34 138.5 -79t127.5 -97h1221q54 47 128 96t138 80q-150 73 -266 178h-1221q-116 -105 -266 -178z" />
<glyph unicode="-" horiz-adv-x="2509" d="M139 1360q0 26 18.5 43.5t43.5 17.5q17 0 30 -8q142 -84 306 -84q101 0 198.5 35t175.5 98q18 13 39 13q27 0 50.5 -21.5t23.5 -50.5q0 -30 -27 -49q-97 -79 -215.5 -120.5t-244.5 -41.5h-17l1825 -1468q22 -21 22 -56q-3 -30 -23 -47.5t-50 -17.5q-20 3 -37 14 l-1825 1468q21 -88 21 -178q0 -50 -14.5 -137.5t-45 -156t-71.5 -68.5q-27 0 -51.5 22t-24.5 49q0 16 6 25q63 129 63 270q0 113 -41.5 219.5t-117.5 188.5q-17 15 -17 41z" />
<glyph unicode="." horiz-adv-x="2509" d="M139 -336q0 26 17 41q159 173 159 408q0 141 -63 270q-6 9 -6 25q0 27 24.5 49t51.5 22q41 0 71.5 -68.5t45 -156t14.5 -137.5q0 -89 -21 -178l1819 1464q24 18 51 18q29 -3 47 -23t18 -50q-4 -31 -22 -48l-1825 -1468h17q126 0 246 -42t214 -120q27 -19 27 -49 q0 -27 -23.5 -49.5t-50.5 -22.5q-21 0 -39 13q-78 63 -175.5 98t-198.5 35q-164 0 -306 -84q-13 -8 -30 -8q-25 0 -43.5 17.5t-18.5 43.5z" />
<glyph unicode="/" d="M139 455q0 126 62.5 235.5t170 173.5t234.5 64q178 0 312.5 -72t246.5 -217q49 66 107.5 118.5t126.5 90.5t143 59t156 21q49 0 112 -15v-131q-40 11 -71 11q-95 0 -184 -37t-162 -102.5t-125 -147.5l96 -127q77 -99 173.5 -161t205.5 -62q23 0 67 8v-168 q-66 -14 -118 -14q-119 0 -218.5 32t-182.5 96t-158 160q-96 -131 -236.5 -209.5t-296.5 -78.5q-126 0 -232 64.5t-167.5 173t-61.5 235.5zM262 455q0 -85 37.5 -163t105 -126.5t154.5 -48.5q95 0 184 37t160.5 100.5t126.5 148.5l-96 127q-49 63 -108.5 114t-129 80.5 t-141.5 29.5q-58 0 -112 -24t-94.5 -66t-63.5 -95.5t-23 -113.5z" />
<glyph unicode="0" horiz-adv-x="743" d="M74 141q0 6 2 11l309 882q46 117 154 117q45 0 86 -22t66.5 -61t25.5 -83q0 -36 -21 -76l-450 -833q-10 -17 -31 -17q-8 0 -12 2l-105 48q-24 10 -24 32z" />
<glyph unicode="1" horiz-adv-x="2509" d="M139 455q0 132 71 241t188.5 170.5t248.5 61.5q170 0 314.5 -56t257.5 -174l59 -65q117 136 269.5 215.5t318.5 79.5q100 0 191 -36t160 -100t109.5 -151t40.5 -186q0 -100 -41 -187.5t-113 -152t-164.5 -99t-188.5 -34.5q-168 0 -314.5 57t-257.5 172l-59 65 q-116 -134 -268.5 -214t-319.5 -80q-130 0 -246 61.5t-186 170t-70 241.5zM262 455q0 -89 47 -165.5t126 -120.5t167 -44q147 0 280 76.5t232 199.5l-104 113q-204 223 -414 223q-82 0 -160 -35t-126 -99.5t-48 -147.5zM1393 508l104 -113q94 -101 197 -162t217 -61 q82 0 160 35t126 100t48 148q0 89 -47 165t-126 120t-167 44q-146 0 -278.5 -75.5t-233.5 -200.5z" />
<glyph unicode="2" horiz-adv-x="1671" d="M209 512q0 201 104 372t280 270t378 99h426q30 -3 47.5 -21.5t17.5 -47.5t-18 -48t-47 -22h-418q-152 0 -290 -68t-229 -190.5t-108 -273.5h1045q29 -3 47 -22t18 -48t-18 -48t-47 -22h-1045q17 -150 108.5 -273t229 -191t289.5 -68h418q29 -3 47 -22t18 -48t-18.5 -47.5 t-46.5 -21.5h-426q-202 0 -378 99t-280 270t-104 372z" />
<glyph unicode="3" horiz-adv-x="1671" d="M209 -160q0 29 19 48t46 22h418q114 0 222 39t195.5 111t143 171.5t66.5 210.5h-1045q-27 3 -46 22t-19 48t19 48t46 22h1045q-13 116 -68.5 214t-142.5 169t-195 110t-221 39h-418q-27 3 -46 22t-19 48t18.5 47.5t46.5 21.5h426q155 0 293.5 -57.5t242.5 -158t165 -237 t61 -288.5q0 -151 -61 -288t-166.5 -238t-244.5 -158t-290 -57h-426q-26 3 -45.5 21.5t-19.5 47.5z" />
<glyph unicode="4" horiz-adv-x="2228" d="M147 70q0 20 11 34l901 1323q18 29 55 29q36 0 57 -29l897 -1316q13 -19 13 -41q0 -29 -19 -48t-47 -22h-1802q-28 3 -47 22t-19 48zM348 139h1532l-766 1125z" />
<glyph unicode="5" horiz-adv-x="2228" d="M147 954q0 29 19 48t47 22h1802q28 -3 47 -22t19 -48q0 -21 -8 -34l-902 -1323q-21 -29 -57 -29q-37 0 -55 29l-897 1316q-15 19 -15 41zM348 885l766 -1125l766 1125h-1532z" />
<glyph unicode="6" horiz-adv-x="0" d="M348 -362q0 21 10 34l1115 1749q20 35 59 35q28 0 49 -21t21 -49q0 -19 -9 -34l-1114 -1749q-23 -35 -61 -35q-28 0 -49 21t-21 49z" />
<glyph unicode="7" horiz-adv-x="0" d="M139 166v692q3 27 22.5 46.5t47.5 19.5t47.5 -19.5t22.5 -46.5v-276q27 0 48 -21t21 -49t-21 -49t-48 -21v-276q-3 -27 -22.5 -46.5t-47.5 -19.5t-47.5 19.5t-22.5 46.5z" />
<glyph unicode="8" horiz-adv-x="1393" d="M0 1352q0 29 20 49t50 20q38 0 61 -35l193 -407h745l191 401q20 41 63 41q30 0 50 -20t20 -49q0 -15 -7 -29l-626 -1317q-20 -41 -64 -41q-38 0 -59 35l-631 1323q-6 12 -6 29zM391 840l305 -643l305 643h-610z" />
<glyph unicode="9" horiz-adv-x="1393" d="M139 70q0 29 18.5 47.5t47.5 21.5h909v502h-874q-28 3 -47 22t-19 48t18.5 47.5t47.5 21.5h874v502h-909q-28 3 -47 22t-19 48t18.5 47.5t47.5 21.5h983q28 -3 45 -20t20 -45v-1290q-3 -28 -19.5 -45.5t-45.5 -20.5h-983q-28 3 -47 22t-19 48z" />
<glyph unicode=":" horiz-adv-x="1671" d="M139 692q0 29 19 48t47 22h1261q28 -3 45.5 -20t20.5 -46v-528q-3 -27 -22.5 -46.5t-47.5 -19.5t-47 20t-22 46v455h-1188q-27 3 -46.5 21.5t-19.5 47.5z" />
<glyph unicode=";" horiz-adv-x="1253" d="M98 700q0 341 109 548.5t420 207.5q98 0 180 -26l33 96q17 45 65 45q28 0 49 -21t21 -49q0 -6 -0.5 -10.5t-1.5 -9.5l-41 -113q95 -66 144 -175t64 -230t15 -263q0 -213 -41 -373t-157.5 -261t-329.5 -101q-99 0 -181 27l-32 -96q-19 -46 -66 -46q-29 0 -49 21t-20 49 q0 7 4 21l36 110q-93 64 -142 169.5t-64 223t-15 256.5zM348 739q0 -181 7 -303.5t32 -193.5l375 1061q-61 30 -135 30q-75 0 -140 -34.5t-96 -98.5q-28 -61 -35.5 -176t-7.5 -285zM494 123q58 -35 133 -35q77 0 141.5 39.5t93.5 105.5q20 50 29 129.5t11.5 167.5t2.5 209 q0 161 -6 271t-31 176z" />
<glyph unicode="&#x3c;" horiz-adv-x="1810" d="M86 201q0 19 10.5 25.5t44.5 17.5q-10 25 -10 32q0 16 8 21l43 43q8 8 23 8q16 0 25 -10.5t13 -25.5t9 -31h8q13 0 23 -7l43 -43q6 -9 6 -22q0 -26 -43 -39q38 -82 198 -82q34 0 51.5 83t22 177.5t4.5 171.5v391q0 158 -26.5 282t-120.5 124q-57 0 -99.5 -40.5 t-42.5 -96.5q0 -19 10.5 -34t29 -32t32.5 -29q139 -115 139 -247t-43.5 -236t-156.5 -104q-43 0 -76.5 24.5t-52.5 64t-19 79.5q0 15 9.5 27t23.5 12h57q33 -10 33 -35q0 -49 25 -49q57 0 57 202q0 41 -24.5 73.5t-76 83t-78 92.5t-26.5 95q0 76 38 137.5t102.5 98.5 t138.5 37q96 0 183.5 -37.5t148.5 -110.5q53 53 139 88t179 51t176 20.5t194 4.5q23 0 35 -16l319 -510q4 -12 4 -19q0 -20 -16 -30l-201 -127q-64 -39 -168 -62l31 -434q16 -103 94 -166l141 92q6 6 19 6q22 0 51 -19.5t29 -41.5q0 -24 -17 -31l-227 -129q-8 -4 -16 -4h-58 q-121 0 -213.5 83.5t-109.5 205.5l-29 424h-234v-162q0 -129 -38.5 -256t-125 -211t-221.5 -84q-112 0 -195.5 37.5t-115.5 130.5q-2 -1 -8 -3.5t-10 -2.5q-15 0 -23 8l-43 43q-6 9 -6 23zM815 1188q57 -120 57 -277v-110h377q145 0 234 41l-301 483q-93 0 -207.5 -38 t-159.5 -99z" />
<glyph unicode="=" horiz-adv-x="1810" d="M139 303v55q0 25 33 33h242q90 0 170 -35.5t197.5 -120t161 -113.5t124.5 -54q99 19 170.5 72t71.5 143q0 55 -41.5 83.5t-132 70t-136 84t-45.5 116.5q0 96 63.5 157t158 88t188.5 27q84 0 171 -20t146.5 -72t59.5 -137q0 -31 -33 -37h-78q-11 0 -22 10t-11 23 q0 66 -71 88t-160 22q-51 0 -77.5 -47.5t-26.5 -101.5t40.5 -83t129.5 -68.5t136.5 -83t47.5 -119.5q0 -106 -70 -173.5t-173.5 -97.5t-207.5 -30h-241q-94 0 -176 35.5t-202 107.5t-201.5 107.5t-172.5 35.5q-10 0 -21.5 11.5t-11.5 23.5zM139 1014q0 124 68 221.5t179 151 t232 53.5q90 0 175.5 -26t162.5 -66.5t153 -89t169 -107.5q60 -33 90 -33q229 0 229 31q3 33 33 41h78q16 0 24.5 -11.5t8.5 -27.5q0 -55 -38.5 -87t-99 -47.5t-116 -18.5t-123.5 -3q-213 0 -379 109q-38 26 -111.5 87t-131.5 93.5t-124 32.5q-84 0 -162.5 -39 t-125.5 -108.5t-47 -155.5q0 -100 63.5 -168.5t160 -101.5t193.5 -33q12 0 22.5 -11.5t10.5 -21.5v-55q0 -16 -12 -25.5t-27 -9.5q-132 0 -260.5 49t-211.5 146t-83 231z" />
<glyph unicode="&#x3e;" d="M139 1352q0 29 18.5 47.5t47.5 21.5h1540q30 -3 47.5 -21.5t17.5 -47.5t-18 -48t-47 -22h-701v-1216q-3 -29 -21.5 -47.5t-47.5 -18.5t-48 19t-22 47v1216h-700q-28 3 -47 22t-19 48z" />
<glyph unicode="?" d="M139 70q0 29 18.5 47.5t47.5 21.5h700v1217q3 29 22 47t48 18t47.5 -17.5t21.5 -47.5v-1217h701q30 -3 47.5 -21.5t17.5 -47.5t-18 -48t-47 -22h-1540q-28 3 -47 22t-19 48z" />
<glyph unicode="@" horiz-adv-x="1532" d="M139 35v55q0 10 11.5 21.5t21.5 11.5q170 0 170 37q0 34 -16.5 64t-51 77t-50 78t-15.5 74q0 69 22.5 137t59.5 131.5t82 124.5q-85 65 -125 99.5t-74.5 89.5t-34.5 122q0 63 4 102.5t21 81t51 74.5q6 6 21 6q14 0 25 -9t11 -23q0 -63 24.5 -120.5t74.5 -94.5l657 -500 q12 56 38 168t34 168q-54 18 -89.5 56.5t-35.5 90.5q0 63 4 102.5t21 81t51 74.5q6 6 20 6q30 0 37 -30q3 -15 50.5 -57t70.5 -56q16 -8 51 -20t56.5 -24.5t37.5 -35.5q19 -28 19 -59q0 -95 -13 -152t-63 -104q-6 -9 -21 -9q-13 0 -24.5 10.5t-11.5 24.5q0 33 -23 60 q-13 -69 -34 -160t-29.5 -131t-16.5 -100q116 -85 176 -152.5t60 -161.5t-13.5 -151.5t-62.5 -104.5q-5 -8 -21 -8q-13 0 -24.5 10.5t-11.5 24.5q0 62 -25 120.5t-74 92.5l-659 500q-43 -117 -43 -293q0 -36 22.5 -59.5t77.5 -66.5t83 -80t28 -89q0 -82 -73.5 -121 t-162.5 -39h-262q-33 8 -33 35z" />
<glyph unicode="A" horiz-adv-x="2009" d="M82 111q0 40 16.5 92.5t46.5 95t66 49.5h14q12 -7 30.5 -40.5t31.5 -50.5t43 -33.5t78 -16.5q69 0 163.5 101.5t219.5 256.5q78 100 140 184t129.5 182.5t128.5 197t120 202.5h67v35q0 41 38 77t92.5 62t95.5 31h32q28 -12 35 -35q0 -477 82 -1003q10 -77 27 -138 q20 -85 55 -170q12 -32 49 -38l82 41q55 25 98 30h33q33 -14 33 -39q0 -61 -127 -135l-107 -53q-104 -51 -180 -51h-33q-43 0 -80.5 26t-56.5 66q-53 132 -80 289h-639l-4 2q-80 -102 -159 -192.5t-173 -165t-170 -74.5h-16q-81 0 -151 66t-70 149zM969 520q6 0 14 4l10 2 q9 2 10.5 2t14.5 2h416q-13 109 -19 170.5t-13.5 152t-11.5 156.5t-8 144q-78 -135 -141.5 -236.5t-131 -200t-140.5 -196.5z" />
<glyph unicode="B" horiz-adv-x="1624" d="M86 4q0 5 2 10t4 13q33 64 56 106.5t40.5 79.5t40.5 100q17 52 62 244q26 119 43.5 216.5t33.5 206.5t25 198l-67 -35q-58 -26 -99 -31h-32q-35 15 -35 39q0 37 38.5 71.5t90.5 63.5l243 123q58 26 99 31h33q32 -16 32 -43q-6 -77 -26 -244q61 59 132 110t157.5 94 t170.5 66t164 23h33q69 0 130 -26t99.5 -74.5t38.5 -118.5q0 -117 -98 -204.5t-237 -158.5q81 -22 148 -66.5t106.5 -111t39.5 -151.5q0 -170 -126 -300.5t-314 -200t-352 -69.5h-33q-73 0 -202.5 32.5t-129.5 80.5q0 38 39.5 73.5t93 60.5t95.5 32h32q90 -40 147.5 -57 t135.5 -17q148 0 235 51t87 187q0 74 -35.5 126.5t-94.5 86t-127.5 48.5t-138.5 15q-31 0 -131 -14h-33q-34 15 -34 39q0 13 6 22q21 42 63.5 73t96 54t128 48t105.5 36q38 15 84 33t76 33t59 36q17 11 17 56q0 67 -56.5 104t-128.5 37q-141 0 -260 -124.5t-199.5 -297 t-115.5 -319.5q-33 -133 -109 -285q-56 -114 -114.5 -174.5t-165.5 -75.5h-33q-35 15 -35 39z" />
<glyph unicode="C" horiz-adv-x="1343" d="M47 469q0 256 152.5 482t396 357.5t498.5 131.5h32q77 0 122.5 -42t45.5 -118q0 -95 -108 -270q-33 -51 -92 -85.5t-123 -43.5h-33q-33 15 -33 39q0 16 31.5 72.5t48 92t16.5 70.5q0 80 -90 80q-132 0 -237.5 -48t-181.5 -151q-71 -92 -111.5 -207.5t-40.5 -232.5 t48.5 -216t140 -157.5t210.5 -58.5q83 0 138 26t124 82t105.5 79.5t99.5 31.5h33q33 -15 33 -39q0 -6 -4 -22q-30 -62 -119.5 -129.5t-185.5 -120.5q-204 -113 -400 -113h-33q-143 0 -253 67.5t-170 184t-60 258.5z" />
<glyph unicode="D" d="M43 954q0 4 2 15q54 214 352 348q217 88 502 88h252q142 0 274 -20t247.5 -71t190 -147t74.5 -243q0 -154 -69 -289.5t-184.5 -242t-253.5 -183.5q-99 -54 -203.5 -93t-212.5 -64t-218 -38.5t-225 -13.5h-311q-18 8 -26.5 15.5t-8.5 23.5q0 36 38.5 72t90 61.5t88.5 30.5 q66 155 116.5 324.5t81 346t30.5 324.5q-80 0 -183 -17.5t-131 -56.5q-16 -26 -23.5 -51t-19 -43t-45.5 -45q-72 -57 -157 -70h-33q-35 17 -35 39zM688 205h43q161 0 318.5 27.5t293 94.5t219 183.5t83.5 288.5q0 124 -66.5 204.5t-167.5 122t-217 58t-238 16.5 q0 -54 -11.5 -135.5t-28.5 -163t-33 -147.5q-32 -132 -82.5 -274.5t-112.5 -274.5z" />
<glyph unicode="E" horiz-adv-x="1323" d="M80 229q0 98 57.5 195t145 175.5t176.5 131.5q-65 32 -104.5 85t-39.5 120q0 111 73 205.5t185 160t240 102t234 36.5h32q117 0 193 -26t76 -120q0 -90 -78 -157.5t-172 -79.5h-33q-33 17 -33 39q0 11 11.5 35t11.5 36q0 44 -55 56t-128 12q-264 0 -264 -172 q0 -109 122 -149t261 -40q35 -15 35 -38q0 -56 -81 -106.5t-146 -59.5q-159 0 -279 -70q-61 -39 -104 -105.5t-43 -138.5q0 -99 106 -142.5t223 -43.5q107 0 152 24.5t152 101.5t180 87h33q32 -14 32 -39q0 -6 -4 -22q-30 -61 -138.5 -139t-197.5 -120q-100 -48 -193 -73 t-190 -25h-32q-156 0 -286 63t-130 201z" />
<glyph unicode="F" horiz-adv-x="1763" d="M35 78q0 54 81.5 105.5t143.5 60.5h33q20 -8 26 -17q35 -39 87 -62.5t104 -23.5q63 82 137.5 229t124.5 273q28 70 50.5 136t43.5 143.5t35 141t25 136.5h-68q-78 0 -143.5 -15t-98.5 -59q-14 -25 -22.5 -51t-19.5 -43t-42 -43q-82 -62 -163 -74h-33q-33 16 -33 39 q0 4 2 15q32 130 150 229t273 153t290 54h727q264 0 264 -74q0 -40 -40 -77t-95.5 -62.5t-91.5 -30.5h-33l-14 6q-3 2 -9.5 10t-9.5 13q-45 10 -196 10h-324q-19 -89 -34.5 -149.5t-35.5 -124.5t-49 -140h606q33 -14 33 -38q0 -76 -76.5 -131.5t-156.5 -65.5h-33l-14 6 q-5 0 -13 8q-1 2 -2 9.5t-4 7.5h-426q-65 -141 -121 -243.5t-135.5 -196t-184.5 -149.5t-239 -56q-74 0 -148 30t-120 86q-8 8 -8 25z" />
<glyph unicode="G" horiz-adv-x="1483" d="M109 590q0 184 90 342t239 271t331 175t359 62h33q121 0 205 -32t84 -132q0 -55 -32.5 -109t-86.5 -116q-103 -119 -225 -136h-33q-33 16 -33 39q0 22 11 38t44 52.5t47.5 58.5t14.5 48q0 23 -12.5 41t-34.5 22q-70 18 -160 21q-115 0 -218.5 -30.5t-174.5 -98.5 q-73 -76 -114.5 -181t-41.5 -208q0 -107 46 -191.5t129.5 -133t187.5 -48.5q70 0 132 27.5t111.5 78t79.5 111.5q12 24 25 60.5t25.5 59t40.5 46.5q80 67 168 78h32q35 -15 35 -39q0 -2 -2 -12q-51 -204 -105 -357.5t-139 -281.5q-67 -99 -155 -177t-195.5 -124.5 t-216.5 -46.5h-33q-191 0 -368 30q-33 17 -33 39q0 39 40 75.5t95 62t90 30.5h33q170 -30 346 -33q47 0 68 19q53 49 90 115t73 157q-221 -123 -413 -123h-33q-194 0 -320 128t-126 323z" />
<glyph unicode="H" horiz-adv-x="2169" d="M43 954q0 14 6 23q42 87 144.5 176.5t199.5 142.5q64 36 136.5 60.5t148 36.5t149.5 12h33q44 0 84.5 -22t64 -58.5t23.5 -81.5q0 -73 -12 -164t-31.5 -177t-42.5 -167h520q86 274 195 527q28 57 91 95.5t130 47.5h33q33 -15 33 -39q0 -5 -4 -23q-50 -116 -106.5 -268 t-104.5 -310.5t-78.5 -310.5t-30.5 -266q0 -35 24 -60.5t58 -25.5q38 0 94 9q34 53 91.5 87.5t121.5 43.5h33q16 -7 25.5 -15t9.5 -24q0 -13 -8 -33q-23 -69 -93 -125t-155 -92q-134 -55 -330 -55q-65 0 -114.5 47t-49.5 112q0 111 21 227.5t61 264.5q-36 -12 -74 -19h-454 q-72 -225 -176 -471q-30 -59 -92.5 -97t-129.5 -46h-32q-35 15 -35 39q0 5 2 10.5t4 11.5q117 273 201 553h-238q-20 11 -27.5 17.5t-7.5 21.5q0 39 39.5 74.5t96.5 61.5t92 30h102q55 222 55 377q0 39 -27.5 63.5t-66.5 24.5q-122 0 -186 -33.5t-120 -101.5t-97.5 -102.5 t-130.5 -47.5h-33q-35 17 -35 39z" />
<glyph unicode="I" horiz-adv-x="1415" d="M-31 39q0 55 80.5 106t145.5 60h225q18 0 28 5t19 18t20 28q26 44 43 76q65 132 111 321q24 96 41.5 160.5t42 133.5t57.5 133.5t76 119.5h-72q-141 0 -239 -4t-187 -22q-18 -56 -88.5 -100t-134.5 -52h-33q-34 15 -34 39q0 2 2 12q33 115 148.5 191.5t248.5 105.5 q99 21 208 28t269 7h635q33 -17 33 -39q0 -37 -39 -73t-94 -62t-92 -31h-302q-28 -40 -51 -93t-43 -117.5t-34.5 -123t-28.5 -112.5q-89 -370 -256 -549h422q41 0 59 2q38 44 90.5 71.5t108.5 34.5h32q33 -14 33 -39q0 -5 -2 -13.5t-4 -16.5q-37 -106 -192 -185 q-131 -59 -285 -59h-934q-33 15 -33 39z" />
<glyph unicode="J" horiz-adv-x="1700" d="M111 70q0 64 31.5 114t86 80t117.5 37h33q33 -16 33 -43q-9 -45 -9 -61q0 -113 109 -169.5t231 -56.5q79 0 147 32.5t115 92t66 133.5q41 167 73 285t79.5 247.5t113.5 242t154 196.5h-199q-261 0 -372 -127q-25 -30 -40 -66t-30 -68t-37 -54q-85 -75 -178 -86h-33 q-18 8 -26.5 15.5t-8.5 23.5q0 2 2 14q32 126 126 228.5t222 175t268.5 111t266.5 38.5h539q32 -16 32 -39q0 -38 -39.5 -74.5t-95 -61.5t-90.5 -30q-76 0 -104 -24q-81 -75 -145 -223t-99 -274t-90 -349q-29 -115 -110 -218t-196.5 -181.5t-242 -121t-244.5 -42.5h-32 q-100 0 -197 32.5t-162 100.5t-65 170z" />
<glyph unicode="K" horiz-adv-x="1894" d="M86 4q0 5 2 10t4 13q128 294 221 607.5t93 549.5l-80 -41q-58 -26 -99 -31h-32q-35 15 -35 39q0 37 38.5 71.5t90.5 63.5l243 123q64 27 99 31h33q24 -14 29 -32.5t5 -57.5q0 -146 -26.5 -303t-71.5 -314.5t-107 -326.5t-118 -297q-29 -58 -90.5 -96t-130.5 -48h-33 q-35 15 -35 39zM637 819v15q0 78 107.5 181t269.5 201t317 161t234 63h30q63 0 116.5 -27.5t53.5 -85.5v-14q0 -50 -54 -93.5t-107 -43.5h-31q-37 22 -37 43v14q1 3 1.5 5.5t0.5 6.5q-29 16 -78 19q-117 -24 -315 -138q-77 -46 -178 -116.5t-101 -96.5q-2 -2 -2 -10 q0 -60 54.5 -187t138 -261t170.5 -224t149 -90q63 0 127 15.5t80 50.5q55 127 164 127h31q37 -21 37 -41v-17q-29 -107 -117 -177.5t-204.5 -102t-231.5 -31.5h-31q-77 0 -179 98.5t-196 244t-156.5 290.5t-62.5 221z" />
<glyph unicode="L" horiz-adv-x="1714" d="M88 2q0 14 14 37q25 39 82 80q32 23 44.5 37.5t33.5 52.5q39 78 84 262q48 187 121 349.5t180 291.5q74 90 172 164.5t211 119t223 44.5h29q81 0 142 -57t61 -138q0 -60 -41 -111.5t-103 -82t-120 -35.5h-29q-29 13 -31 35q0 4 1.5 11t2.5 14.5t1.5 11.5t0.5 12 q0 53 -37.5 88t-91.5 35q-47 0 -79 -28t-70 -79q-47 -62 -96 -155q-82 -165 -136 -377q-29 -118 -53.5 -191.5t-64.5 -138.5h43q89 0 176.5 -9.5t198 -26.5t188 -26t160.5 -10q9 0 12.5 2.5t6 10t7.5 16.5q39 58 106.5 97.5t137.5 45.5h29q28 -14 30 -35 q-13 -93 -105.5 -175.5t-214.5 -130.5t-218 -48h-27q-88 0 -166 8.5t-180.5 24t-197.5 27t-179 12.5q-24 0 -85.5 -33t-113.5 -39h-26q-31 13 -33 37z" />
<glyph unicode="M" horiz-adv-x="3004" d="M82 39q0 40 16 93.5t45 95t66 48.5h16q67 -43 92 -56t76 -13q33 0 74.5 58t78 134.5t63 142.5t53.5 140q62 184 94 324q4 20 13 74t12.5 80t9.5 63t12 73q13 55 78.5 96t128.5 48h32q29 -11 33 -29q45 -155 112.5 -351t146 -373.5t155.5 -291.5q190 142 389 322 q61 54 166 149t212.5 195t166.5 156q21 20 74 72.5t85 82.5t66 58q20 10 25 10h16q33 -22 33 -74q0 -35 -17 -94q-22 -130 -41 -275.5t-31 -294.5t-12 -286q0 -64 9.5 -150t33.5 -104q10 -6 19 -8l76 39q54 25 98 30h33q32 -14 32 -39q0 -62 -126 -135l-107 -53 q-104 -49 -172 -49h-33q-41 0 -88 33q-67 52 -67 309q0 261 47 614q-194 -181 -289 -268.5t-201 -180.5t-215.5 -183.5t-243.5 -190.5q-15 -10 -24 -10h-35q-52 28 -132.5 153t-127.5 223q-55 120 -110 260t-99 265q-12 -54 -29 -107l-18 -63q-25 -85 -83 -242t-131 -305.5 t-160.5 -253t-170.5 -104.5h-16q-43 0 -92 17.5t-83 49.5t-34 76z" />
<glyph unicode="N" horiz-adv-x="2038" d="M-57 39q0 40 16 93.5t45 95t66 48.5h16q68 -43 95.5 -56t78.5 -13q36 0 63 37.5t44.5 88t29.5 85.5q53 148 101 330q26 114 41.5 192t30 179t14.5 167q1 0 6 23q6 14 16 28q36 44 84.5 70.5t100.5 32.5h34q25 -9 29 -21q104 -253 157 -374.5t129 -279t161 -304 t174 -262.5q90 359 229 817q68 214 101.5 305t92.5 176q38 51 87 91.5t108.5 69.5t122.5 43.5t127 14.5h16q33 -21 33 -74q0 -41 -16.5 -93.5t-46 -94.5t-66.5 -49q-90 0 -170 -28t-137 -85q-25 -24 -113 -319q-58 -189 -96 -322t-86.5 -317t-73.5 -287l-4 10 q-10 -61 -75.5 -104.5t-131.5 -50.5h-35q-16 8 -22 12q-93 102 -179.5 229.5t-167 277.5t-146.5 293.5t-124 276.5q-23 -124 -70.5 -307.5t-115 -361.5t-156.5 -302t-188 -124h-14q-73 0 -144 39t-71 104z" />
<glyph unicode="O" horiz-adv-x="1966" d="M137 545q0 281 223 547q94 109 260.5 221t284.5 127h33q35 -16 35 -39q0 -11 -6 -23q-25 -52 -63 -76t-132 -67q-100 -47 -188 -150q-154 -184 -154 -415q0 -146 70.5 -261t190.5 -177t265 -62q136 0 257.5 48.5t215.5 137t145.5 207t51.5 252.5q0 112 -44 208.5 t-127.5 154t-197.5 57.5q-52 0 -94 -25q-100 -66 -180 -223q-27 -58 -89.5 -98t-133.5 -49h-33q-16 10 -24.5 17.5t-8.5 21.5q0 10 4 22q69 140 184 264.5t258.5 199.5t293.5 75h32q138 0 241 -67.5t157.5 -182t54.5 -248.5q0 -199 -102.5 -379t-273 -315t-372 -209 t-391.5 -74h-32q-165 0 -306.5 73t-223 205.5t-81.5 301.5z" />
<glyph unicode="P" horiz-adv-x="1776" d="M43 954q0 4 2 15q54 214 352 348q217 88 502 88h320q144 0 281 -22.5t242 -94.5t105 -203q0 -107 -59 -204.5t-147 -173t-191 -134.5q-137 -75 -296 -113t-323 -38h-32l-8 4q-34 -100 -79 -214.5t-87 -205.5q-27 -58 -90.5 -95.5t-131.5 -47.5h-32q-33 14 -33 39 q0 6 4 22q155 337 233 660q34 134 64.5 314.5t30.5 299.5q-82 0 -184 -18t-130 -56q-16 -26 -23.5 -51t-19 -43t-45.5 -45q-72 -57 -157 -70h-33q-35 17 -35 39zM829 555q80 60 162 72q129 0 256.5 28t217 102.5t89.5 203.5q0 80 -60.5 128.5t-152 73t-179 31t-169.5 6.5 h-39q0 -79 -20.5 -198.5t-50 -242t-54.5 -204.5z" />
<glyph unicode="Q" horiz-adv-x="2048" d="M250 606q0 168 99 320t262 269.5t345 181t342 63.5h33q114 0 215.5 -38t179 -107t122 -167t44.5 -215q0 -161 -74.5 -303.5t-197.5 -256t-269.5 -198t-301.5 -141.5q44 -12 138.5 -38.5t150 -39t119.5 -21.5t136 -11q54 0 68 8.5t28.5 42t43.5 61.5q81 75 178 86h33 q32 -16 32 -39q0 -2 -2 -12q-28 -99 -119.5 -181t-210 -126.5t-223.5 -44.5h-32q-119 0 -230.5 23.5t-289.5 74.5t-293.5 76t-243.5 25q-35 15 -35 39q0 37 39.5 73.5t94 61.5t93.5 30q173 0 359 35.5t349.5 115t265 213t101.5 320.5q0 132 -64 234.5t-173.5 158.5 t-241.5 56q-142 0 -276 -64.5t-217.5 -179t-83.5 -258.5q0 -95 49 -167.5t130.5 -111t176.5 -38.5q58 0 100 5t110 16.5t105 17.5h33q33 -19 33 -39q0 -11 -4 -23q-55 -113 -242 -149q-160 -33 -315 -33h-33q-84 0 -162 27.5t-141.5 81.5t-98 126t-34.5 160z" />
<glyph unicode="R" horiz-adv-x="2171" d="M43 954q0 4 2 15q54 214 352 348q217 88 502 88h266q115 0 215 -5.5t207 -28.5t179.5 -77t72.5 -143q0 -92 -44.5 -175.5t-114 -148t-155.5 -114.5t-173 -82q8 -11 94.5 -154t152 -225t123.5 -82q57 0 101.5 17t95.5 50.5t88 52t80 23.5h33q34 -15 34 -39q0 -5 -1 -7.5 t-2 -5.5l-3 -9q-36 -72 -145.5 -138t-242.5 -107.5t-220 -41.5h-33q-87 0 -154.5 75t-153.5 222.5t-146 223t-133 75.5q-33 16 -33 39q0 38 39.5 74.5t95 61.5t90.5 30q111 0 206 18t161.5 75.5t66.5 164.5q0 84 -82 123q-52 23 -130.5 35t-161.5 15t-216 3q0 -122 -47 -332 t-98 -362q-70 -209 -160 -397q-29 -58 -90.5 -96t-130.5 -48h-33q-35 16 -35 39q0 6 2.5 11.5t4.5 11.5q63 133 117 279t96 301.5t65 305.5t23 285q-80 0 -183 -17.5t-131 -56.5q-16 -26 -23.5 -51t-19 -43t-45.5 -45q-72 -57 -157 -70h-33q-35 17 -35 39z" />
<glyph unicode="S" horiz-adv-x="1518" d="M59 260q0 79 57 157.5t141.5 127.5t160.5 49h33q34 -15 34 -39q0 -37 -41.5 -74t-87.5 -61q-4 -20 -4 -33q0 -70 74 -119.5t174 -73.5t170 -24q92 0 197.5 20t142.5 62q45 54 45 133q0 82 -63 138t-135.5 83t-188.5 58q-138 34 -236 105t-98 192q0 108 68 196.5 t176.5 151.5t232 97t226.5 34h32q166 0 280 -38t114 -165q0 -87 -71.5 -145.5t-162.5 -69.5h-33q-32 14 -32 39q0 6 1.5 15.5t3 18.5t1.5 15q0 33 -16.5 59t-45.5 33q-111 30 -245 33q-76 0 -154 -23q-82 -24 -82 -125q0 -151 266 -219q79 -19 156 -45.5t144 -67t111 -101.5 t44 -144q0 -90 -46.5 -170.5t-116.5 -140.5t-159 -109q-226 -125 -534 -125h-33q-93 0 -212.5 33t-203.5 100.5t-84 161.5z" />
<glyph unicode="T" horiz-adv-x="1421" d="M84 981q14 106 118.5 204.5t245.5 159t248 60.5h1135q82 60 172 70h29q28 -16 30 -35q0 -17 -4 -17q-21 -99 -194 -184q-65 -29 -131 -40t-150 -11h-364l-193 -766q-51 -199 -141 -375q-38 -77 -110.5 -128t-156.5 -60h-28q-18 10 -24 16.5t-7 20.5q1 4 1.5 8t0.5 8 q12 29 40 86t42 92q42 105 72 219l207 824q12 29 36 55h-460q-48 0 -64 -10.5t-27.5 -42t-19.5 -45.5q-37 -59 -105 -98.5t-139 -45.5h-28q-29 12 -31 35z" />
<glyph unicode="U" horiz-adv-x="1554" d="M-33 1169q0 59 88.5 114t203 88.5t181.5 33.5h33q31 0 54.5 -15t35.5 -41t12 -59q0 -66 -43 -180t-120.5 -292t-96.5 -232q-36 -115 -36 -195q0 -87 39 -154t120 -67q51 0 126.5 46.5t157 119t152.5 146.5t111 122q215 255 324 471q1 4 22.5 62.5t37 95t32.5 59.5 q80 98 203 113h32q33 -16 33 -39q0 -27 -28.5 -98.5t-49.5 -110.5q-254 -698 -254 -964q0 -4 6.5 -19.5t12.5 -15.5l65 35q60 26 99 30h32q35 -15 35 -39q0 -63 -129 -135l-104 -53q-92 -47 -160 -47h-33q-45 0 -81 34.5t-36 77.5q0 101 18 187t62 256q-75 -81 -183 -178.5 t-221.5 -177.5t-234 -131.5t-223.5 -51.5h-33q-118 0 -180.5 88.5t-62.5 212.5q0 101 45 234q11 32 70.5 172t91.5 214t61 157.5t29 121.5q0 35 -23 35q-46 0 -118 -32.5t-109 -37.5h-33q-33 16 -33 39z" />
<glyph unicode="V" horiz-adv-x="1620" d="M68 1251q7 40 40 73t79 54.5t89 26.5h33q164 0 269.5 -123t158 -305t70.5 -369.5t18 -353.5q79 52 191.5 139.5t220 186.5t184.5 195.5t99 174.5q0 47 -35 79.5t-87 48.5t-95 16q-33 20 -33 73q0 65 36 146t91 92h16q124 0 203.5 -82t79.5 -209q0 -126 -57 -260.5 t-148 -257.5t-193 -225q-73 -73 -152 -141.5t-178 -144.5t-189.5 -135.5t-168.5 -99.5q-6 -2 -10.5 -4t-7.5 -2h-17q-32 23 -32 74q2 21 4 67t2 144q0 153 -14.5 325.5t-58 345.5t-136 290.5t-238.5 117.5q-19 11 -26 18.5t-8 24.5z" />
<glyph unicode="W" horiz-adv-x="2562" d="M68 1251q7 40 40 73t79 54.5t89 26.5h33q142 0 232 -97t134 -241.5t58.5 -289.5t14.5 -290q0 -21 -1 -59.5t-2 -71.5q185 205 345.5 419t293.5 437q-13 33 -14 39q7 38 41 72t79 55.5t89 26.5h33q26 -13 30 -21q65 -127 122 -267.5t96.5 -267.5t73.5 -273t55 -287 q150 158 289 339t182 322q2 6 2 13q0 40 -22 70.5t-59 45.5t-77 15q-33 21 -33 73q0 66 37.5 146.5t91.5 91.5h15q106 0 164.5 -83t58.5 -196q0 -78 -23 -165.5t-60 -168t-84 -160.5t-99 -153q-40 -59 -111.5 -150t-153.5 -184.5t-158 -170t-134 -119.5q-15 -11 -25 -11h-16 q-8 0 -17.5 16t-11.5 25q-7 39 -15.5 133.5t-13.5 122.5q-27 198 -88 430q-64 241 -164 473q-119 -198 -263 -398.5t-297 -380.5t-322 -349l-52 -51q-21 -21 -38 -21h-17q-33 23 -33 74q0 13 7 55q22 214 22 400v2q0 133 -10.5 263t-47 261.5t-112.5 220t-199 88.5 q-19 11 -26 18.5t-8 24.5z" />
<glyph unicode="X" horiz-adv-x="1778" d="M119 125q0 74 92.5 162.5t228.5 173t239.5 139t262.5 133.5l-37 262q-28 205 -153 205h-41q-62 -44 -136 -53h-32q-35 15 -35 39q0 2 2 12q32 96 176 166q56 24 115.5 32.5t138.5 8.5h33q100 0 154.5 -81.5t70.5 -193.5l35 -247q23 12 129 70t146 81t98.5 63.5t58.5 55.5 q0 47 -82 47q-33 16 -33 39q0 39 39.5 74.5t95.5 61t91 30.5h32q58 0 104 -34.5t46 -90.5q0 -68 -76.5 -146.5t-199.5 -159.5t-249.5 -148t-179.5 -95l45 -321q30 -205 156 -205h39q69 45 137 53h33q33 -17 33 -39q0 -2 -2 -12q-32 -95 -176 -166q-61 -25 -122 -33t-130 -8 h-33q-101 0 -156 80.5t-71 193.5l-43 310q-46 -24 -119.5 -62.5t-183.5 -99t-179 -106.5t-69 -64q0 -47 82 -47q34 -15 34 -39q0 -56 -80 -106.5t-147 -59.5h-33q-57 0 -103 35.5t-46 89.5z" />
<glyph unicode="Y" horiz-adv-x="1645" d="M78 -59q0 58 31.5 121t80.5 71h17q22 -13 26 -27q27 -63 36 -79.5t42 -42.5q66 -45 162 -50q80 0 322 160q0 131 -25 314.5t-79.5 365t-152 307t-231.5 125.5q-76 -59 -153 -67h-33q-20 9 -27 16.5t-8 24.5q10 53 76 105.5t149.5 86t139.5 33.5h32q157 0 267.5 -111.5 t177.5 -277.5q35 -90 66.5 -220t51 -262t19.5 -229q78 69 152.5 146.5t134.5 154.5q29 38 82 119.5t89 155t36 114.5v15q0 59 -71 94t-138 35q-35 25 -35 73q0 57 31.5 121t80.5 72h17q81 0 144.5 -38.5t99.5 -105.5t36 -147q0 -107 -46 -232.5t-120 -247t-161.5 -231.5 t-175.5 -198q-92 -92 -249 -219t-315 -222.5t-251 -95.5h-17q-109 0 -201 72q-44 38 -77 95t-33 106z" />
<glyph unicode="Z" horiz-adv-x="1772" d="M96 37q6 47 80 106l111 78q138 100 301 222.5t295 230.5h-199q-18 12 -25.5 19.5t-11.5 23.5v14q15 49 63 84t97 35h289q80 70 125.5 111.5t104.5 96.5t122 118h-37q-91 0 -136 1.5t-181.5 6t-227.5 4.5q-55 0 -112 -17q-16 -6 -25 -30t-18 -51q-25 -36 -65.5 -68 t-88.5 -52t-92 -24h-27q-32 18 -32 37q13 87 83.5 166t171.5 136t210.5 88.5t201.5 31.5h27q91 0 136 -1.5t182 -6t229 -4.5q30 0 66 4.5t69 7.5h28q31 -14 31 -35q-3 -21 -12 -39q-15 -23 -42 -52.5t-55.5 -56.5t-43.5 -42q-72 -72 -167.5 -161t-187.5 -169 q71 0 118.5 -11.5t47.5 -58.5q-12 -47 -61 -82.5t-99 -35.5h-30l-6 4q-31 8 -179 8q-256 -210 -573 -445h39q131 0 263 -3t263.5 -6t263.5 -3q13 0 27.5 30t29 67t23.5 61q40 57 107 96t139 47h27q32 -14 32 -35q-16 -116 -115 -228.5t-232.5 -183.5t-241.5 -71h-27 q-67 0 -182.5 2t-198 4t-214.5 4t-200 2q-64 0 -198 -12h-27q-33 14 -33 37z" />
<glyph unicode="[" horiz-adv-x="1671" d="M139 410v768q3 27 22 46t48 19t48 -19t22 -46v-760q0 -91 55 -153.5t141.5 -97.5t183 -49t177.5 -14q120 0 247.5 27t218.5 97.5t91 189.5v760q3 26 21.5 45.5t47.5 19.5t48 -19t22 -46v-768q0 -123 -65.5 -210.5t-172.5 -139t-225 -73.5t-233 -22q-114 0 -233.5 22 t-226.5 74.5t-172 140t-65 208.5z" />
<glyph unicode="\" horiz-adv-x="1671" d="M139 31v768q0 122 66 209.5t169 138t226.5 73.5t235.5 23q154 0 315.5 -42t271 -142t109.5 -260v-768q-3 -28 -22 -47t-48 -19t-47.5 19.5t-21.5 46.5v760q0 172 -175.5 242.5t-381.5 70.5q-88 0 -181 -13.5t-179 -48.5t-141.5 -98t-55.5 -153v-760q-3 -28 -22 -47 t-48 -19t-48 19t-22 47z" />
<glyph unicode="]" horiz-adv-x="1671" d="M139 410v768q3 27 22 46t48 19t48 -19t22 -46v-760q0 -91 55 -153.5t141.5 -97.5t183 -49t177.5 -14q120 0 247.5 27t218.5 97.5t91 189.5v760q3 26 21.5 45.5t47.5 19.5t48 -19t22 -46v-768q0 -123 -65.5 -210.5t-172.5 -139t-225 -73.5t-233 -22q-114 0 -233.5 22 t-226.5 74.5t-172 140t-65 208.5zM418 639q0 29 18 48t47 22h283v282q3 27 22.5 46.5t47.5 19.5q27 0 46.5 -19.5t22.5 -46.5v-282h283q29 -3 47 -22t18 -48t-18 -48t-47 -22h-283v-282q-3 -28 -22 -47t-47 -19q-29 0 -48 19t-22 47v282h-283q-29 3 -47 22t-18 48z" />
<glyph unicode="^" horiz-adv-x="1671" d="M139 35q0 18 11 35l626 1138q20 35 60 35q38 0 61 -35l627 -1138q8 -22 8 -35q0 -28 -21 -49t-49 -21q-38 0 -59 35l-567 1028l-566 -1028q-24 -35 -61 -35q-28 0 -49 21t-21 49z" />
<glyph unicode="_" horiz-adv-x="1671" d="M139 1174q0 27 21 48t49 21q38 0 61 -35l566 -1028l567 1028q20 35 59 35q28 0 49 -21t21 -48q0 -15 -8 -35l-627 -1139q-24 -35 -61 -35q-39 0 -60 35l-626 1139q-11 16 -11 35z" />
<glyph unicode="`" horiz-adv-x="1532" d="M139 66v1290q3 29 22 47t48 18t48 -18t22 -47v-576h1048q29 -3 47.5 -21.5t18.5 -47.5t-19 -48t-47 -22h-1048v-575q-3 -28 -22 -47t-48 -19t-48 19t-22 47z" />
<glyph unicode="a" horiz-adv-x="1532" d="M139 711q0 29 18.5 47.5t47.5 21.5h1048v576q3 29 22 47t48 18t48 -18t22 -47v-1290q-3 -28 -22 -47t-48 -19t-48 19t-22 47v575h-1048q-28 3 -47 22t-19 48z" />
<glyph unicode="b" horiz-adv-x="1114" d="M418 -446v1916q3 28 22 47t47 19q29 0 48 -19t22 -47v-1843h457q30 -3 47.5 -21.5t17.5 -47.5t-18 -48t-47 -22h-531q-29 3 -45.5 20.5t-19.5 45.5z" />
<glyph unicode="c" horiz-adv-x="1114" d="M33 -442q0 29 17.5 47.5t47.5 21.5h457v1843q3 28 22 47t48 19t47.5 -18.5t21.5 -47.5v-1916q-3 -28 -19.5 -45.5t-45.5 -20.5h-531q-29 3 -47 22t-18 48z" />
<glyph unicode="d" horiz-adv-x="1114" d="M418 -446v1916q3 28 19.5 45.5t45.5 20.5h531q29 -3 47 -22t18 -48t-18.5 -47.5t-46.5 -21.5h-457v-1843q-3 -28 -22 -47t-48 -19q-28 0 -47 19t-22 47z" />
<glyph unicode="e" horiz-adv-x="1114" d="M33 1466q0 29 18 48t47 22h531q28 -3 45 -20.5t20 -45.5v-1916q-3 -29 -21.5 -47.5t-47.5 -18.5t-48 19t-22 47v1843h-457q-28 3 -46.5 21.5t-18.5 47.5z" />
<glyph unicode="f" horiz-adv-x="1253" d="M147 485v56q0 11 10.5 21.5t22.5 10.5q69 0 144.5 20.5t126.5 68t51 118.5v482q0 162 157.5 218t356.5 56h57q33 -8 33 -33v-55q0 -12 -10.5 -23.5t-22.5 -11.5q-122 0 -221.5 -31t-99.5 -125v-481q0 -99 -67.5 -165.5t-172.5 -98.5q64 -18 119.5 -54t88 -90t32.5 -120 v-481q0 -94 99.5 -125t221.5 -31q33 -8 33 -35v-55q0 -12 -10.5 -22.5t-22.5 -10.5h-57q-199 0 -356.5 56t-157.5 218v482q0 71 -51 118.5t-126.5 68t-144.5 20.5q-33 8 -33 34z" />
<glyph unicode="g" horiz-adv-x="1253" d="M147 -424q0 13 11 24t22 11q75 0 145 10.5t123.5 45t53.5 100.5v481q0 99 68.5 166.5t170.5 97.5q-105 32 -172 98.5t-67 165.5v481q0 66 -53.5 100.5t-123.5 45t-145 10.5q-33 8 -33 35v55q0 12 10.5 22.5t22.5 10.5h58q200 0 357 -56t157 -218v-482q0 -106 102 -156.5 t219 -50.5q33 -8 33 -32v-56q0 -11 -10.5 -22.5t-22.5 -11.5q-69 0 -144.5 -20.5t-126 -68t-50.5 -118.5v-482q0 -162 -157 -218t-357 -56h-58q-33 8 -33 33v55z" />
<glyph unicode="h" horiz-adv-x="975" d="M276 512q0 16 5 25l419 958q21 41 64 41q28 0 49 -21t21 -49q0 -16 -5 -22l-407 -932l405 -926q7 -14 7 -28q0 -28 -21 -49t-49 -21q-43 0 -64 41l-417 954q-7 16 -7 29z" />
<glyph unicode="i" horiz-adv-x="975" d="M139 -442q0 16 4 22l408 932l-406 926q-6 12 -6 28q0 28 21 49t49 21q43 0 63 -41l418 -954q6 -13 6 -29t-4 -23l-420 -960q-20 -41 -63 -41q-28 0 -49 21t-21 49z" />
<glyph unicode="j" horiz-adv-x="696" d="M279 -446v1916q3 27 21.5 46.5t47.5 19.5t48 -19t22 -47v-1916q-3 -28 -22 -47t-48 -19t-47.5 19.5t-21.5 46.5z" />
<glyph unicode="k" horiz-adv-x="1253" d="M311 -446v1916q3 28 22 47t48 19t48 -19t22 -47v-1916q-3 -28 -22 -47t-48 -19t-48 19t-22 47zM805 -446v1916q3 28 22 47t47 19q29 0 48 -19t22 -47v-1916q-3 -28 -22 -47t-48 -19q-28 0 -47 19t-22 47z" />
<glyph unicode="l" horiz-adv-x="1253" d="M8 14v25q3 24 19.5 40.5t42.5 16.5q4 0 10 -2q142 -24 266 -99t211 -185v1404q-88 -110 -210.5 -184t-266.5 -100q-6 -2 -10 -2q-24 0 -41.5 16.5t-20.5 40.5v25q6 45 49 57q119 21 224.5 85.5t179 161.5t108.5 216q15 41 58 41q42 0 59 -41q35 -121 108.5 -217 t178 -160.5t223.5 -85.5q43 -12 49 -57v-25q-3 -26 -19.5 -41.5t-41.5 -15.5q-4 0 -10 2q-143 26 -265 99t-213 185v-1404q44 55 95.5 100t114 83t128.5 63t140 38q6 2 10 2q27 0 42.5 -15.5t18.5 -41.5v-25q-6 -45 -49 -57q-119 -21 -223.5 -85.5t-178 -160.5t-108.5 -217 q-7 -18 -23.5 -29.5t-35.5 -11.5q-20 0 -35 11t-23 30q-35 119 -108.5 216t-179 161.5t-224.5 85.5q-43 12 -49 57z" />
<glyph unicode="m" horiz-adv-x="1532" d="M39 72v24q5 25 21.5 41.5t39.5 16.5q32 0 100 -30.5t135.5 -68t115.5 -69.5v1052q-48 -32 -115.5 -69.5t-135.5 -68t-100 -30.5q-23 0 -39.5 16.5t-21.5 41.5v24q6 40 43 56q132 43 252.5 120t217 183t161.5 229q20 31 53 31t53 -31q65 -123 161.5 -229t217 -183 t252.5 -120q37 -16 43 -56v-24q-5 -25 -21.5 -41.5t-39.5 -16.5q-48 0 -166 62t-183 106v-1052q62 44 181.5 106t167.5 62q23 0 39.5 -16.5t21.5 -41.5v-24q-6 -40 -43 -56q-132 -43 -252.5 -120t-217 -183t-161.5 -229q-20 -31 -53 -31t-53 31q-65 123 -161.5 229t-217 183 t-252.5 120q-37 16 -43 56zM590 -129q48 -43 92.5 -95.5t83.5 -111.5q78 116 178 207v1282q-100 91 -178 207q-76 -113 -176 -207v-1282z" />
<glyph unicode="n" horiz-adv-x="1253" d="M139 1466q0 28 21 49t49 21q43 0 63 -41l836 -1909q6 -12 6 -28q0 -28 -21 -49t-49 -21q-43 0 -63 41l-836 1909q-6 12 -6 28z" />
<glyph unicode="o" horiz-adv-x="696" d="M139 190v11q0 76 26 142t83.5 170.5t84.5 172.5t27 143q0 178 -96 252q-16 11 -51.5 18t-50 13.5t-23.5 28.5v10q18 43 99 43q101 0 173 -48.5t108 -131.5t36 -180v-11q0 -76 -27.5 -145.5t-83.5 -170.5t-83 -169t-27 -143q0 -178 96 -252q16 -11 51 -17t50 -13t24 -30 v-10q-17 -43 -96 -43q-101 0 -174 48.5t-109.5 131.5t-36.5 180z" />
<glyph unicode="p" horiz-adv-x="2089" d="M145 -1063q0 32 31 53l295 176q10 9 31 9q34 0 53 -31l440 -739l1037 1699q20 35 59 35q30 0 50 -20t20 -49q0 -22 -9 -35l-1163 -1911q-22 -32 -57 -35h-17q-28 0 -49 31l-499 842l-129 -78q-12 -8 -31 -8q-25 0 -43.5 17.5t-18.5 43.5z" />
<glyph unicode="q" horiz-adv-x="1954" d="M104 61q0 25 16 42t42 20q114 0 155 4v1151q-41 4 -155 4q-26 3 -42 20t-16 41q0 25 17.5 43.5t44.5 18.5h610q27 0 44.5 -18.5t17.5 -43.5q0 -24 -16 -41t-42 -20q-114 0 -155 -4v-1155h704v1155q-41 4 -155 4q-26 3 -42 20t-16 41q0 25 17.5 43.5t44.5 18.5h610 q27 0 44 -18t17 -44q0 -23 -15.5 -40.5t-41.5 -20.5q-115 0 -156 -4v-1151q41 -4 156 -4q26 -3 41.5 -20.5t15.5 -41.5q0 -23 -15.5 -40.5t-41.5 -20.5h-1630q-26 3 -42 20t-16 41z" />
<glyph unicode="r" horiz-adv-x="2089" d="M125 1376q0 12 8.5 20.5t20.5 8.5h1781q12 0 20.5 -7.5t8.5 -21.5q0 -6 -4 -14l-807 -1368q-25 -43 -76 -43h-65q-51 0 -76 43l-807 1368q-4 8 -4 14zM616 1141l523 -887l524 887h-1047z" />
<glyph unicode="s" horiz-adv-x="1235" d="M139 -131q0 58 40.5 98.5t99.5 40.5q37 0 69.5 -18.5t51 -50.5t18.5 -70q0 -57 -38.5 -98t-94.5 -41q14 -39 51 -39q64 0 110 38t72.5 94.5t36.5 121.5q7 48 17.5 132t20 166t17 132.5t23.5 146.5q34 195 129 588q23 96 82.5 174.5t145.5 125t186 46.5q70 0 114.5 -47 t63 -116t18.5 -138q0 -59 -40 -99t-99 -40t-99 40t-40 99q0 57 38.5 98t94.5 41q-14 39 -51 39q-92 0 -147 -76t-73 -178l-18 -144q-9 -72 -17.5 -144t-19.5 -152t-20 -135q-33 -179 -131 -590q-23 -96 -82.5 -174.5t-145.5 -125t-186 -46.5q-103 0 -150 93.5t-47 207.5z " />
<glyph unicode="t" horiz-adv-x="1671" d="M154 66v1112q3 26 21.5 45.5t47.5 19.5t48 -19t22 -46v-1039h1085v1039q3 27 22 46t48 19t48 -19t22 -46v-1112q-8 -60 -66 -66h-1233q-29 3 -45.5 20.5t-19.5 45.5z" />
<glyph unicode="u" horiz-adv-x="1671" d="M154 66v1112q7 59 65 65h1233q28 -3 45.5 -21t20.5 -44v-1112q-3 -28 -22 -47t-48 -19t-48 19t-22 47v1038h-1085v-1038q-3 -28 -22 -47t-48 -19t-47.5 19.5t-21.5 46.5z" />
<glyph unicode="v" d="M209 -408q0 29 19 48t46 22h1471q29 -3 47 -22t18 -48q0 -28 -18 -47t-47 -22h-1471q-27 3 -46 22t-19 47zM227 82v1352q3 28 20 45t46 20h1452q29 -3 47 -22t18 -47q0 -29 -18 -48t-47 -22h-1378v-1204h1378q29 -3 47 -22t18 -48t-18 -48t-47 -22h-1452q-60 6 -66 66z " />
<glyph unicode="w" d="M139 86q0 29 19 48t47 22h1378v1204h-1378q-28 3 -47 22t-19 48q0 28 19 47t47 22h1452q58 -6 65 -65v-1352q-3 -28 -19.5 -45.5t-45.5 -20.5h-1452q-28 3 -47 22t-19 48zM139 -408q0 29 19 48t47 22h1470q28 -3 47 -22t19 -48q0 -28 -19 -47t-47 -22h-1470q-28 3 -47 22 t-19 47z" />
<glyph unicode="x" horiz-adv-x="1147" d="M174 524q0 95 57 174t146 121q-203 114 -203 283q0 100 58 177.5t150.5 119t190.5 41.5q67 0 129.5 -17t115.5 -52.5t85.5 -87.5t32.5 -122q0 -52 -36.5 -88.5t-88.5 -36.5t-88.5 36.5t-36.5 88.5q0 74 62 111q-71 45 -175 45q-55 0 -95.5 -31.5t-62.5 -80.5t-22 -103 q0 -83 54 -147t139 -95q163 -56 274 -139t111 -221q0 -63 -26 -120.5t-72.5 -102.5t-104.5 -72q203 -115 203 -283q0 -100 -58 -177.5t-150.5 -119t-189.5 -41.5q-85 0 -170.5 32t-139.5 94.5t-54 152.5q0 52 36.5 88.5t88.5 36.5q34 0 62.5 -17t45.5 -45.5t17 -62.5 q0 -32 -16.5 -63t-45.5 -48q71 -45 174 -45q55 0 96 31.5t63 80.5t22 103q0 83 -55 148.5t-136 93.5q-170 59 -278.5 140.5t-108.5 219.5zM393 524q0 -80 51.5 -144t133.5 -95q52 0 91.5 32t61 81.5t21.5 101.5q0 82 -53 146.5t-132 92.5q-77 0 -125.5 -67.5t-48.5 -147.5z " />
<glyph unicode="y" horiz-adv-x="1114" d="M139 909q0 52 36.5 88.5t88.5 36.5q38 0 74.5 -12.5t88 -35.5t87.5 -32v4q-7 46 -35.5 138t-37.5 129t-9 90q0 52 36.5 88.5t88.5 36.5t88.5 -36.5t36.5 -88.5q0 -58 -13 -105t-38.5 -129t-30.5 -127q25 6 111.5 43t138.5 37q51 0 88 -37t37 -88q0 -52 -36.5 -88.5 t-88.5 -36.5q-39 0 -69 10t-91 36.5t-90 33.5q7 -48 36 -138.5t37.5 -123t8.5 -84.5q0 -473 -64 -917q-3 -27 -32 -33h-58q-11 0 -20.5 10.5t-11.5 22.5q-32 231 -48 456t-16 461q0 52 8.5 84.5t37.5 123t36 138.5q-22 -5 -109 -42.5t-141 -37.5q-34 0 -62.5 17t-45.5 45.5 t-17 62.5z" />
<glyph unicode="z" horiz-adv-x="1114" d="M139 47q0 52 36.5 88.5t88.5 36.5q42 0 78 -13t85 -35t85 -32q-7 36 -33 106.5t-36.5 107.5t-10.5 79q0 51 37 88t88 37t88 -37t37 -88q0 -42 -12 -85t-35.5 -104.5t-32.5 -103.5q36 10 85 32t85 35t78 13q51 0 88 -37t37 -88t-37 -88t-88 -37t-137.5 37t-110.5 43 q8 -39 32 -101.5t36 -105.5t12 -86q0 -52 -36.5 -88.5t-88.5 -36.5t-88.5 36.5t-36.5 88.5q0 43 10.5 80.5t36.5 108.5t33 104q-25 -6 -81.5 -30.5t-90.5 -37t-76 -12.5q-52 0 -88.5 36.5t-36.5 88.5zM139 977q0 52 36.5 88.5t88.5 36.5q55 0 143 -38t105 -42 q-7 38 -43.5 137t-36.5 156q0 52 36.5 88.5t88.5 36.5t88.5 -36.5t36.5 -88.5q0 -43 -11.5 -82t-36.5 -106t-32 -105q24 6 108.5 43t139.5 37q51 0 88 -37t37 -88q0 -52 -36.5 -88.5t-88.5 -36.5q-40 0 -72.5 10.5t-88.5 34.5t-87 33q7 -34 43.5 -133.5t36.5 -159.5 q0 -51 -37 -88t-88 -37t-88 37t-37 88q0 45 10.5 78.5t36.5 103.5t33 111q-31 -9 -87 -33t-88.5 -34.5t-72.5 -10.5q-53 0 -89 36t-36 89z" />
<glyph unicode="{" horiz-adv-x="1532" d="M139 932q0 153 92.5 263.5t236.5 168t294 57.5h635q30 -3 47.5 -21.5t17.5 -47.5t-18 -48t-47 -22h-144v-1614q-3 -30 -21.5 -47.5t-47.5 -17.5t-48 18t-22 47v1614h-176v-1614q-3 -29 -22 -47t-48 -18t-47.5 18.5t-21.5 46.5v776q-108 0 -224.5 31t-216 93t-159.5 154.5 t-60 209.5z" />
<glyph unicode="|" d="M70 360q0 75 26 146t73.5 127t112 88.5t142.5 32.5q56 0 110.5 -23t94.5 -63l65 102q-79 53 -125.5 135t-46.5 176q0 87 38.5 160.5t104.5 126.5t145 80t165 27q85 0 166 -27.5t145 -79t102.5 -125t38.5 -162.5q0 -94 -45.5 -176t-126.5 -135l66 -102q41 41 95 63.5 t112 22.5q78 0 142.5 -32.5t112 -90t72.5 -127t25 -144.5q0 -109 -55.5 -200t-151 -143t-203.5 -52q-121 0 -208.5 36.5t-87.5 141.5h-130q0 -150 68 -319q1 -5 1.5 -9.5t0.5 -11.5q0 -29 -19.5 -47.5t-45.5 -21.5h-148q-28 3 -46.5 21.5t-18.5 47.5q0 11 4 23 q65 162 65 317h-129q0 -106 -87.5 -142t-209.5 -36q-107 0 -202 52t-151 143t-56 200z" />
<glyph unicode="}" d="M139 578q0 34 29 57q444 314 747 805q23 35 60 35q36 0 61 -35q97 -157 213 -301.5t251.5 -272t281.5 -231.5q28 -22 28 -57q0 -36 -28 -56q-110 -78 -216 -172.5t-200 -196.5t-175 -210.5t-155 -227.5q-24 -34 -61 -34q-38 0 -60 34q-72 118 -155 228.5t-175 210 t-200 196t-217 172.5q-29 21 -29 56zM326 578q184 -141 350.5 -320.5t298.5 -378.5q132 199 298.5 378.5t350.5 320.5q-123 94 -239.5 205.5t-220 237t-189.5 255.5q-86 -130 -189.5 -255.5t-220 -237t-239.5 -205.5z" />
<glyph unicode="~" d="M139 993q0 98 27 182t82 148t132.5 98.5t176.5 34.5q80 0 159 -21t145.5 -64.5t113.5 -106.5q69 96 181 144t237 48q131 0 226 -61t143 -167t48 -235q0 -244 -241 -485q-70 -70 -136.5 -123t-205.5 -158q-116 -87 -189 -239q-20 -41 -63 -41q-38 0 -60 35 q-77 158 -190 245q-141 105 -205.5 156t-138.5 125q-242 242 -242 485zM279 995q0 -131 73 -238t196 -209t245.5 -201t177.5 -183h8q58 86 172.5 179.5t242.5 198.5t202.5 213.5t74.5 239.5q0 94 -30 166.5t-92.5 114t-155.5 41.5q-78 0 -153 -26.5t-128.5 -80t-67.5 -129.5 q-6 -25 -24.5 -41t-44.5 -16t-44.5 16.5t-23.5 40.5q-14 75 -68.5 129t-129 80.5t-152.5 26.5q-93 0 -156 -42t-92.5 -114t-29.5 -166z" />
<glyph unicode="&#xa1;" d="M209 512q0 29 19 48t46 22h1401q28 -3 47 -22t19 -48t-19 -48t-47 -22h-1401q-27 3 -46 22t-19 48z" />
<glyph unicode="&#xa2;" horiz-adv-x="696" d="M180 512q0 69 49.5 118.5t118.5 49.5q46 0 84.5 -22.5t61 -61t22.5 -84.5q0 -69 -49.5 -118.5t-118.5 -49.5q-70 0 -119 49t-49 119z" />
<glyph unicode="&#xa3;" d="M365 -29q0 29 18 47l494 494l-494 496q-18 15 -18 45q0 29 19 49t50 20q28 0 47 -16l494 -496l495 496q18 16 46 16q29 0 49 -20t20 -49t-16 -45l-496 -496l496 -494q16 -19 16 -47q0 -29 -21 -49t-48 -20q-28 0 -46 16l-495 496l-494 -496q-19 -16 -47 -16q-29 0 -49 20 t-20 49z" />
<glyph unicode="&#xa4;" horiz-adv-x="1253" d="M162 334q0 30 14.5 52.5t42.5 31.5l283 94l-283 94q-28 9 -42.5 32t-14.5 52q0 42 30.5 75.5t69.5 33.5q22 0 45 -15l264 -186l-43 270q-2 4 -2 13q0 37 31 61.5t70 24.5t69.5 -24.5t30.5 -61.5v-13l-45 -270l264 186q25 15 45 15q41 0 71 -33.5t30 -75.5 q0 -28 -15.5 -52t-42.5 -32l-282 -94l282 -94q27 -8 42.5 -31t15.5 -53q0 -42 -30 -75.5t-71 -33.5q-20 0 -45 15l-264 186l45 -268v-15q0 -37 -30.5 -61.5t-69.5 -24.5t-70 24.5t-31 61.5q0 9 2 15l43 268l-264 -186q-23 -15 -45 -15q-39 0 -69.5 33.5t-30.5 75.5z" />
<glyph unicode="&#xa5;" d="M139 512q0 29 19 48t47 22h1540q29 -3 47 -22t18 -48t-18 -48t-47 -22h-1540q-28 3 -47 22t-19 48zM774 -25q0 54 27 101t73.5 74.5t100.5 27.5t100.5 -27t74.5 -74t28 -102q0 -54 -28 -101t-74.5 -74t-100.5 -27t-100.5 27.5t-73.5 74.5t-27 100zM774 1049q0 53 27 100 t73.5 74.5t100.5 27.5t100.5 -27t74.5 -74t28 -101q0 -55 -28 -102t-74.5 -74t-100.5 -27t-100.5 27.5t-73.5 74.5t-27 101z" />
<glyph unicode="&#xa6;" horiz-adv-x="1253" d="M33 512q0 29 18 47l531 531q16 16 45 16q28 0 47 -16l530 -531q17 -20 17 -47q0 -28 -17 -45l-530 -533q-19 -16 -47 -16q-29 0 -45 16l-531 533q-18 15 -18 45zM201 512l426 -426l426 426l-426 426z" />
<glyph unicode="&#xa7;" d="M139 -45q0 29 19 48t47 22h700v626h-700q-28 3 -47 22t-19 48t19 48t47 22h700v700q3 29 22 47t48 18t47.5 -17.5t21.5 -47.5v-700h701q29 -3 47 -22t18 -48t-18 -48t-47 -22h-701v-626h701q29 -3 47 -22t18 -48t-18 -48t-47 -22h-1540q-28 3 -47 22t-19 48z" />
<glyph unicode="&#xa8;" d="M139 303q0 29 19 48t47 22h700v626h-700q-30 5 -48 23t-18 47t19 48t47 22h1540q29 -3 47 -22t18 -48t-17.5 -47t-47.5 -23h-701v-626h701q29 -3 47 -22t18 -48t-17.5 -47t-47.5 -23h-701v-700q-3 -30 -21.5 -47.5t-47.5 -17.5t-48 18t-22 47v700h-700q-30 5 -48 23 t-18 47z" />
<glyph unicode="&#xa9;" d="M139 512q0 185 60 340t171 266t265.5 170.5t339.5 59.5q186 0 339.5 -59t265.5 -171t171 -266.5t59 -339.5t-59 -339t-170.5 -265.5t-265.5 -171.5t-340 -60q-185 0 -339.5 60t-265.5 171t-171 265.5t-60 339.5zM264 451q0 -115 54 -244.5t139 -214.5q83 -83 211.5 -137 t244.5 -54v650h-649zM264 573h649v650q-77 0 -162.5 -25t-162 -68t-133.5 -100q-83 -83 -137 -211.5t-54 -245.5zM1036 -199q116 0 245.5 54.5t213.5 138.5q53 53 97 130.5t69 164t25 162.5h-650v-650zM1036 573h650q0 78 -25 163.5t-68 162t-100 133.5q-80 82 -209.5 136.5 t-247.5 54.5v-650z" />
<glyph unicode="&#xaa;" d="M139 512q0 185 60 340t171 266t265.5 170.5t339.5 59.5q186 0 339.5 -59t265.5 -171t171 -266.5t59 -339.5t-59 -339t-170.5 -265.5t-265.5 -171.5t-340 -60q-185 0 -339.5 60t-265.5 171t-171 265.5t-60 339.5zM264 451q0 -115 54 -244.5t139 -214.5q64 -64 149 -108 t177 -64.5t192 -20.5t192.5 20.5t176.5 64t151 110.5q53 53 97 130.5t69 164t25 162.5h-1422zM264 573h1422q0 78 -25 163.5t-68 162t-100 133.5q-97 97 -232.5 145t-285.5 48q-153 0 -288.5 -48.5t-231.5 -146.5q-83 -83 -137 -211.5t-54 -245.5z" />
<glyph unicode="&#xad;" d="M139 512q0 185 60 340t171 266t265.5 170.5t339.5 59.5q186 0 339.5 -59t265.5 -171t171 -266.5t59 -339.5t-59 -339t-170.5 -265.5t-265.5 -171.5t-340 -60q-185 0 -339.5 60t-265.5 171t-171 265.5t-60 339.5zM262 512q0 -132 37.5 -253t114.5 -220l475 473l-475 473 q-152 -186 -152 -473zM502 -49q186 -152 473 -152t473 152l-473 475zM502 1073l473 -473l473 473q-62 50 -140.5 84.5t-162 51t-170.5 16.5q-132 0 -253 -37t-220 -115zM1063 512l473 -473q52 64 86 142.5t50 161t16 169.5q0 133 -38 256t-114 217z" />
<glyph unicode="&#xae;" d="M139 512q0 185 60 340t171 266t265.5 170.5t339.5 59.5q186 0 339.5 -59t265.5 -171t171 -266.5t59 -339.5t-59 -339t-170.5 -265.5t-265.5 -171.5t-340 -60q-185 0 -339.5 60t-265.5 171t-171 265.5t-60 339.5zM262 512q0 -132 37.5 -253t114.5 -220l1034 1034 q-62 50 -140.5 84.5t-162 51t-170.5 16.5q-162 0 -293 -50t-225 -144t-144.5 -226.5t-50.5 -292.5zM502 -49q186 -152 473 -152q160 0 292 50t226 144t144.5 225.5t50.5 293.5q0 133 -38 256t-114 217z" />
<glyph unicode="&#xaf;" d="M139 512q0 185 60 340t171 266t265.5 170.5t339.5 59.5q186 0 339.5 -59t265.5 -171t171 -266.5t59 -339.5t-59 -339t-170.5 -265.5t-265.5 -171.5t-340 -60q-185 0 -339.5 60t-265.5 171t-171 265.5t-60 339.5zM262 512q0 -158 50 -291t144.5 -227.5t227.5 -144.5 t291 -50q160 0 292 50t226 144t144.5 225.5t50.5 293.5q0 163 -50.5 294t-144 224.5t-224 144t-294.5 50.5q-162 0 -293 -50t-225 -144t-144.5 -226.5t-50.5 -292.5zM756 512q0 58 30 108.5t80.5 80.5t108.5 30t108.5 -30t80.5 -80.5t30 -108.5t-30 -108.5t-80.5 -80.5 t-108.5 -30q-44 0 -84.5 18t-69.5 47t-47 69.5t-18 84.5z" />
<glyph unicode="&#xb0;" horiz-adv-x="2509" d="M139 512q0 232 89 411t245 297t357.5 177t422.5 59q222 0 424 -59t357 -177t244 -297t89 -411q0 -231 -89 -409.5t-245 -298t-356 -178t-424 -58.5q-223 0 -423 58.5t-356.5 178t-245.5 298t-89 409.5zM279 512q0 -201 78.5 -355t216 -253.5t311.5 -148t368 -48.5 q195 0 370 48.5t311 147t215 252t79 357.5q0 205 -79 358.5t-215 252t-311 146.5t-370 48q-194 0 -367.5 -47.5t-311.5 -147t-216.5 -254t-78.5 -356.5z" />
<glyph unicode="&#xb1;" horiz-adv-x="1253" d="M139 512q0 106 35 196t100.5 155.5t155.5 100.5t197 35q108 0 197.5 -35t154 -100t100 -153.5t35.5 -198.5q0 -142 -61 -252.5t-173 -172.5t-253 -62q-142 0 -254 62t-173 172.5t-61 252.5zM279 512q0 -158 95 -253t253 -95q106 0 184.5 42.5t121 121t42.5 184.5 q0 80 -24 144t-70 110t-109.5 70t-144.5 24q-106 0 -184.5 -42.5t-121 -121t-42.5 -184.5z" />
<glyph unicode="&#xb2;" horiz-adv-x="1253" d="M139 512q0 106 35 196t100.5 155.5t155.5 100.5t197 35q108 0 197.5 -35t154 -100t100 -153.5t35.5 -198.5q0 -142 -61 -252.5t-173 -172.5t-253 -62q-142 0 -254 62t-173 172.5t-61 252.5z" />
<glyph unicode="&#xb3;" d="M139 -49q0 29 25 53q123 107 249.5 183.5t270.5 122.5t291 46t291 -45.5t272.5 -123.5t249.5 -183q22 -25 22 -53q0 -30 -20 -50t-49 -20q-26 0 -45 17q-364 319 -721 319q-358 0 -719 -319q-22 -17 -47 -17q-28 0 -49 21t-21 49zM139 1073q0 28 21 49t49 21q25 0 47 -17 q361 -319 719 -319q357 0 721 319q19 17 45 17q29 0 49 -20t20 -50q0 -29 -22 -51q-117 -103 -247.5 -183t-274.5 -125.5t-291 -45.5q-108 0 -217.5 26.5t-213 74t-194.5 109.5t-186 144q-25 21 -25 51z" />
<glyph unicode="&#xb4;" d="M139 18q0 29 19 48t47 22h1540q29 -3 47 -22t18 -48q0 -28 -18 -47t-47 -22h-1540q-28 3 -47 22t-19 47zM139 512q0 29 19 48t47 22h1540q29 -3 47 -22t18 -48t-18 -48t-47 -22h-1540q-28 3 -47 22t-19 48zM139 1006q0 28 19 47t47 22h1540q29 -3 47 -22t18 -47 q0 -29 -18 -48t-47 -22h-1540q-28 3 -47 22t-19 48z" />
<glyph unicode="&#xb5;" d="M209 758q0 202 104 372.5t279.5 269.5t378.5 99h704q28 -3 47 -22t19 -47q0 -29 -19 -48t-47 -22h-696q-124 0 -239.5 -45.5t-203.5 -127.5t-138 -193.5t-50 -235.5q0 -123 50 -234.5t138.5 -193.5t203 -128t239.5 -46h696q28 -3 47 -22t19 -48t-19 -48t-47 -22h-704 q-149 0 -289 57t-246 159.5t-166.5 238.5t-60.5 287zM279 -408q0 29 18 48t47 22h1331q28 -3 47 -22t19 -48q0 -28 -19 -47t-47 -22h-1331q-29 3 -47 22t-18 47z" />
<glyph unicode="&#xb6;" d="M209 86q0 29 19 48t46 22h697q127 0 241 46t202 128t138 192t50 236q0 128 -50 238t-137.5 191.5t-203 127t-240.5 45.5h-697q-27 3 -46 22t-19 48q0 28 19 47t46 22h705q155 0 292.5 -57t242.5 -157.5t166 -237.5t61 -289q0 -151 -61 -288t-166 -238.5t-244.5 -158.5 t-290.5 -57h-705q-27 3 -46 22t-19 48zM209 -408q0 29 19 48t46 22h1332q27 -3 46 -22t19 -48q0 -28 -19 -47t-46 -22h-1332q-27 3 -46 22t-19 47z" />
<glyph unicode="&#xb8;" d="M209 86q0 43 41 64l1261 608l-1267 612q-35 20 -35 60q0 27 21 48t49 21q16 0 28 -6l1399 -674q35 -24 35 -61q0 -42 -41 -64l-1393 -671q-14 -7 -28 -7q-28 0 -49 21t-21 49zM209 -408q0 29 19 48t46 22h1401q28 -3 47 -22t19 -48q0 -28 -19 -47t-47 -22h-1401 q-27 3 -46 22t-19 47z" />
<glyph unicode="&#xb9;" d="M209 -408q0 29 19 48t46 22h1401q28 -3 47 -22t19 -48q0 -28 -19 -47t-47 -22h-1401q-27 3 -46 22t-19 47zM209 758q0 29 18.5 47.5t46.5 21.5q310 0 584 38.5t494 175.5t252 401q5 26 23 41.5t44 15.5q30 0 50 -22t20 -52q-23 -193 -123.5 -326.5t-252.5 -214 t-351 -126.5q143 -33 266.5 -86t221 -132.5t160.5 -192t79 -257.5q0 -30 -20 -52t-50 -22q-27 0 -44.5 16t-22.5 42q-32 264 -251.5 400.5t-494 175t-584.5 38.5q-27 3 -46 22t-19 48z" />
<glyph unicode="&#xba;" d="M209 90q17 146 80.5 258.5t161.5 192t219 131.5t266 86q-145 34 -266 86t-219 131.5t-161.5 192t-80.5 257.5q0 30 20 52t50 22q25 0 44 -16t25 -41q32 -265 251 -401.5t492.5 -175t583.5 -38.5q29 -3 47.5 -21.5t18.5 -47.5t-19 -48t-47 -22q-310 0 -584 -38.5 t-492.5 -174.5t-250.5 -401q-6 -25 -25 -41.5t-44 -16.5q-30 0 -50 22t-20 52zM209 -408q0 29 19 48t46 22h1401q28 -3 47 -22t19 -48q0 -28 -19 -47t-47 -22h-1401q-27 3 -46 22t-19 47z" />
<glyph unicode="&#xbb;" d="M139 295q0 125 48.5 249t143.5 203.5t226 79.5q118 0 214 -57.5t222 -167t208.5 -160.5t191.5 -51q88 0 161 47.5t115.5 126t42.5 166.5q0 29 11.5 62.5t37.5 33.5t37.5 -31.5t11.5 -64.5q0 -125 -48.5 -249.5t-143.5 -204.5t-225 -80q-116 0 -206.5 53.5t-215.5 162.5 t-215 164.5t-199 55.5q-88 0 -161 -47.5t-115.5 -126t-42.5 -164.5q0 -30 -12 -64t-38 -34q-25 0 -37 34t-12 64z" />
<glyph unicode="&#xbc;" d="M139 135q0 116 56 206.5t151 139.5t211 49q104 0 200 -38.5t225 -112t220 -111t191 -37.5q99 0 196 48.5t121 134.5q3 25 6.5 50.5t13.5 45.5t31 20q26 0 37.5 -31.5t11.5 -64.5q0 -87 -32 -161t-89 -126.5t-134.5 -81t-161.5 -28.5q-104 0 -197 37.5t-223 111.5 t-222.5 112t-193.5 38q-63 0 -130 -20t-119 -61t-68 -101q-1 -9 -3.5 -30.5t-7.5 -41.5t-14.5 -32.5t-26.5 -12.5q-25 0 -37 34t-12 64zM139 727q0 116 56 206.5t151 139.5t211 49q104 0 200 -38.5t225 -112t220 -111t191 -37.5q99 0 196 48.5t121 134.5q3 25 6.5 50.5 t13.5 45.5t31 20q26 0 37.5 -31.5t11.5 -64.5q0 -87 -32 -161t-89 -126.5t-134.5 -81t-161.5 -28.5q-104 0 -197 37.5t-223 111.5t-222.5 112t-193.5 38q-65 0 -131 -20.5t-118.5 -62t-67.5 -100.5q-1 -9 -3.5 -30t-7.5 -41t-14.5 -32.5t-26.5 -12.5q-25 0 -37 34t-12 64z " />
<glyph unicode="&#xbd;" d="M209 512q0 201 104 372t280 270t378 99h704q29 -3 47.5 -21.5t18.5 -47.5t-19 -48t-47 -22h-696q-124 0 -239.5 -45.5t-203.5 -127.5t-138 -193.5t-50 -235.5q0 -123 50 -234.5t138.5 -193.5t203 -128t239.5 -46h696q28 -3 47 -22t19 -48t-19.5 -47.5t-46.5 -21.5h-704 q-202 0 -378 99t-280 270t-104 372z" />
<glyph unicode="&#xbe;" d="M209 -160q0 29 19 48t46 22h697q127 0 241 46t202 128t138 192t50 236q0 128 -50 238t-137.5 191.5t-203 127t-240.5 45.5h-697q-27 3 -46 22t-19 48t18.5 47.5t46.5 21.5h705q155 0 293.5 -57.5t242.5 -158t165 -237t61 -288.5q0 -151 -61 -288t-166.5 -238t-244.5 -158 t-290 -57h-705q-26 3 -45.5 21.5t-19.5 47.5z" />
<glyph unicode="&#xbf;" horiz-adv-x="2509" d="M139 512q0 36 35 61l1325 740q20 8 35 8q28 0 49 -21t21 -49q0 -38 -35 -59l-1217 -680l1217 -680q35 -21 35 -59q0 -28 -21 -49t-49 -21q-15 0 -35 8l-1325 742q-35 21 -35 59zM903 512q0 36 35 61l1325 740q20 8 35 8q29 0 49 -20t20 -50q0 -39 -34 -59l-1217 -680 l1217 -680q34 -20 34 -59q0 -30 -20 -50t-49 -20q-15 0 -35 8l-1325 742q-35 21 -35 59z" />
<glyph unicode="&#xc0;" horiz-adv-x="2509" d="M139 -227q0 38 35 59l1217 680l-1217 680q-35 21 -35 59q0 28 21 49t49 21q13 0 35 -8l1325 -740q35 -24 35 -61q0 -38 -35 -59l-1325 -742q-22 -8 -35 -8q-28 0 -49 21t-21 49zM903 -227q0 38 35 59l1216 680l-1216 680q-35 21 -35 59q0 28 21 49t49 21q13 0 35 -8 l1325 -740q34 -24 34 -61q0 -39 -34 -59l-1325 -742q-22 -8 -35 -8q-28 0 -49 21t-21 49z" />
<glyph unicode="&#xc1;" d="M209 512q0 29 19 48t46 22q226 0 425.5 17.5t400.5 78.5t340.5 188t163.5 330q5 26 23 41.5t44 15.5q31 0 50.5 -21t19.5 -52q-16 -145 -79 -257.5t-160.5 -192t-221 -132.5t-266.5 -86q143 -33 266.5 -86t221 -132.5t160.5 -192t79 -257.5q0 -31 -20 -52t-50 -21 q-26 0 -44 15.5t-23 41.5q-32 264 -251 400.5t-494.5 175t-584.5 38.5q-27 3 -46 22t-19 48z" />
<glyph unicode="&#xc2;" d="M209 -156q17 146 80.5 258.5t161.5 192t219 131.5t266 86q-145 34 -266 86t-219 131.5t-161.5 192t-80.5 258.5q0 31 19.5 52t50.5 21q25 0 44 -16t25 -41q32 -265 250 -401t493 -174.5t584 -38.5q28 -3 47 -22t19 -48t-19 -48t-47 -22q-309 0 -584 -38.5t-493 -174.5 t-250 -401q-6 -25 -25 -41t-44 -16q-30 0 -50 21t-20 52z" />
<glyph unicode="&#xc3;" horiz-adv-x="2509" d="M139 512q0 46 51 61q93 13 175 52.5t147 99.5t111 140t67 169q9 44 55 51h25q26 -3 41.5 -19.5t15.5 -41.5v-12q-30 -128 -100 -240t-174 -190h1749q29 -4 47 -23.5t18 -50.5q-6 -55 -63 -66h-1751q104 -78 174 -190t100 -240v-12q0 -25 -15.5 -41.5t-41.5 -19.5h-25 q-38 6 -53 43q-31 125 -100 224t-173 163.5t-229 83.5q-22 5 -36.5 21t-14.5 38z" />
<glyph unicode="&#xc4;" d="M139 426q0 131 69 242.5t161 191.5t243 191q97 71 173 170.5t126 212.5q22 41 64 41t63 -41q113 -246 299 -383q151 -111 242.5 -191t161 -191.5t69.5 -242.5q0 -108 -32 -214t-103 -176.5t-182 -70.5q-83 0 -150.5 10.5t-118 50t-50.5 117.5h-130q0 -150 68 -319 q1 -5 1.5 -9.5t0.5 -11.5q0 -29 -19.5 -47.5t-45.5 -21.5h-148q-28 3 -46.5 21.5t-18.5 47.5q0 11 4 23q65 162 65 317h-129q0 -78 -50.5 -117.5t-117.5 -50t-149 -10.5q-112 0 -183.5 70.5t-104 176.5t-32.5 214z" />
<glyph unicode="&#x2000;" horiz-adv-x="858" />
<glyph unicode="&#x2001;" horiz-adv-x="1716" />
<glyph unicode="&#x2002;" horiz-adv-x="858" />
<glyph unicode="&#x2003;" horiz-adv-x="1716" />
<glyph unicode="&#x2004;" horiz-adv-x="572" />
<glyph unicode="&#x2005;" horiz-adv-x="429" />
<glyph unicode="&#x2006;" horiz-adv-x="286" />
<glyph unicode="&#x2007;" horiz-adv-x="286" />
<glyph unicode="&#x2008;" horiz-adv-x="214" />
<glyph unicode="&#x2009;" horiz-adv-x="343" />
<glyph unicode="&#x200a;" horiz-adv-x="95" />
<glyph unicode="&#x2010;" horiz-adv-x="2509" d="M139 1360q0 26 18.5 43.5t43.5 17.5q17 0 30 -8q142 -84 306 -84q101 0 198.5 35t175.5 98q18 13 39 13q27 0 50.5 -21.5t23.5 -50.5q0 -30 -27 -49q-97 -79 -215.5 -120.5t-244.5 -41.5h-17l1825 -1468q22 -21 22 -56q-3 -30 -23 -47.5t-50 -17.5q-20 3 -37 14 l-1825 1468q21 -88 21 -178q0 -50 -14.5 -137.5t-45 -156t-71.5 -68.5q-27 0 -51.5 22t-24.5 49q0 16 6 25q63 129 63 270q0 113 -41.5 219.5t-117.5 188.5q-17 15 -17 41z" />
<glyph unicode="&#x2011;" horiz-adv-x="2509" d="M139 1360q0 26 18.5 43.5t43.5 17.5q17 0 30 -8q142 -84 306 -84q101 0 198.5 35t175.5 98q18 13 39 13q27 0 50.5 -21.5t23.5 -50.5q0 -30 -27 -49q-97 -79 -215.5 -120.5t-244.5 -41.5h-17l1825 -1468q22 -21 22 -56q-3 -30 -23 -47.5t-50 -17.5q-20 3 -37 14 l-1825 1468q21 -88 21 -178q0 -50 -14.5 -137.5t-45 -156t-71.5 -68.5q-27 0 -51.5 22t-24.5 49q0 16 6 25q63 129 63 270q0 113 -41.5 219.5t-117.5 188.5q-17 15 -17 41z" />
<glyph unicode="&#x2012;" horiz-adv-x="2509" d="M139 1360q0 26 18.5 43.5t43.5 17.5q17 0 30 -8q142 -84 306 -84q101 0 198.5 35t175.5 98q18 13 39 13q27 0 50.5 -21.5t23.5 -50.5q0 -30 -27 -49q-97 -79 -215.5 -120.5t-244.5 -41.5h-17l1825 -1468q22 -21 22 -56q-3 -30 -23 -47.5t-50 -17.5q-20 3 -37 14 l-1825 1468q21 -88 21 -178q0 -50 -14.5 -137.5t-45 -156t-71.5 -68.5q-27 0 -51.5 22t-24.5 49q0 16 6 25q63 129 63 270q0 113 -41.5 219.5t-117.5 188.5q-17 15 -17 41z" />
<glyph unicode="&#x2013;" horiz-adv-x="1305" d="M139 1360q0 26 8.5 43.5t19.5 17.5q8 0 14 -8q66 -84 141 -84q46 0 91 35t81 98q8 13 18 13q12 0 23 -21.5t11 -50.5q0 -30 -13 -49q-44 -79 -98.5 -120.5t-112.5 -41.5h-8l839 -1468q10 -21 10 -56q-1 -30 -10.5 -47.5t-23.5 -17.5q-9 3 -17 14l-838 1468q9 -88 9 -178 q0 -50 -6.5 -137.5t-20.5 -156t-33 -68.5q-12 0 -23.5 22t-11.5 49q0 16 3 25q29 129 29 270q0 113 -19 219.5t-54 188.5q-8 15 -8 41z" />
<glyph unicode="&#x2014;" horiz-adv-x="2329" d="M139 1360q0 26 17 43.5t40 17.5q16 0 28 -8q130 -84 281 -84q93 0 182.5 35t161.5 98q16 13 35 13q25 0 47 -21.5t22 -50.5q0 -30 -25 -49q-89 -79 -198 -120.5t-225 -41.5h-16l1678 -1468q20 -21 20 -56q-3 -30 -21.5 -47.5t-45.5 -17.5q-18 3 -34 14l-1678 1468 q20 -88 20 -178q0 -50 -13.5 -137.5t-41.5 -156t-66 -68.5q-25 0 -47.5 22t-22.5 49q0 16 6 25q58 129 58 270q0 113 -38.5 219.5t-107.5 188.5q-16 15 -16 41z" />
<glyph unicode="&#x202f;" horiz-adv-x="343" />
<glyph unicode="&#x205f;" horiz-adv-x="429" />
<glyph unicode="&#x2219;" d="M209 -408q0 29 19 48t46 22h1401q28 -3 47 -22t19 -48q0 -28 -19 -47t-47 -22h-1401q-27 3 -46 22t-19 47zM209 758q0 43 41 63l1392 672q16 6 29 6q28 0 49 -21t21 -48q0 -43 -41 -64l-1262 -608l1268 -611q35 -24 35 -61q0 -28 -21 -49t-49 -21q-16 0 -29 7l-1398 675 q-35 22 -35 60z" />
<glyph unicode="&#xe000;" horiz-adv-x="1440" d="M0 1440h1440v-1440h-1440v1440z" />
</font>
</defs>
</svg>
