<?xml version="1.0" standalone="no"?>
<!DOCTYPE svg PUBLIC "-//W3C//DTD SVG 1.1//EN" "http://www.w3.org/Graphics/SVG/1.1/DTD/svg11.dtd" >
<svg xmlns="http://www.w3.org/2000/svg">
<metadata>
This is a custom SVG webfont generated by Font Squirrel.
Copyright   : Copyright C 1994 Basil K Malyshev All Rights Reserved012BaKoMa Fonts Collection LevelB
</metadata>
<defs>
<font id="cmbx9Regular" horiz-adv-x="1210" >
<font-face units-per-em="2048" ascent="1638" descent="-410" />
<missing-glyph horiz-adv-x="807" />
<glyph unicode=" "  horiz-adv-x="807" />
<glyph unicode="&#x09;" horiz-adv-x="807" />
<glyph unicode="&#xa0;" horiz-adv-x="807" />
<glyph unicode="!" horiz-adv-x="737" d="M201 1296q0 44 24.5 78t63.5 53t80 19t79 -19t62.5 -53t24.5 -78q0 -3 -1 -8l-2 -10l-108 -780q-2 -12 -10 -20.5t-19 -8.5h-55q-11 0 -19 9t-10 20l-108 780q0 6 -0.5 10t-1.5 8zM203 166q0 66 50 115t116 49q44 0 81 -22.5t59.5 -60t22.5 -81.5q0 -66 -48 -116 t-115 -50q-66 0 -116 50t-50 116z" />
<glyph unicode="&#x22;" horiz-adv-x="1264" d="M80 1257q0 71 48.5 117.5t117.5 46.5q62 0 106.5 -38t67 -98.5t22.5 -121.5q0 -138 -64 -260.5t-175 -202.5q-6 -6 -17 -6q-15 0 -32 17t-17 32q0 17 15 27q51 37 98 96.5t74.5 128t27.5 133.5q-45 -36 -106 -36q-69 0 -117.5 47.5t-48.5 117.5zM612 1257 q0 71 48.5 117.5t117.5 46.5q62 0 107.5 -39t67.5 -98.5t22 -120.5q0 -138 -63.5 -260t-176.5 -203q-6 -6 -16 -6q-17 0 -33 17t-16 32q0 16 14 27q84 59 142.5 159.5t58.5 198.5q-46 -36 -107 -36q-69 0 -117.5 47.5t-48.5 117.5z" />
<glyph unicode="#" horiz-adv-x="2019" d="M135 270v11q9 50 62 59h419l107 344h-526q-53 9 -62 61v11q9 50 62 59h571l176 557q14 40 60 49h10q50 -9 59 -59v-10l-2 -13l-166 -524h404l176 557q14 40 59 49h10q51 -9 60 -59v-10l-2 -13l-166 -524h377q50 -9 59 -59v-11q-9 -52 -59 -61h-422l-107 -344h529 q50 -9 59 -59v-11q-9 -52 -59 -61h-574l-176 -557q-14 -40 -57 -49h-10q-53 9 -62 59v10l2 13l166 524h-403l-177 -557q-14 -40 -57 -49h-10q-51 9 -62 59v10l3 13l165 524h-374q-53 9 -62 61zM754 340h403l107 344h-404z" />
<glyph unicode="$" d="M135 387v4q0 57 39 97t98 40q60 0 99 -40t39 -97q0 -56 -38.5 -96.5t-92.5 -40.5q37 -69 115.5 -112.5t156.5 -43.5v496q-97 20 -167.5 51t-129.5 90q-119 119 -119 277v2v4q0 79 29.5 156t85.5 131q52 53 138.5 90t162.5 37v104h108v-104q112 0 207 -45t152 -131 t57 -197q0 -56 -39.5 -96.5t-97.5 -40.5t-97.5 40.5t-39.5 96.5q0 53 36.5 95t88.5 42q-38 58 -115.5 92.5t-151.5 34.5v-440q90 -17 158.5 -47.5t128.5 -90.5q60 -59 94.5 -139t34.5 -168v-6q0 -89 -30.5 -172t-92.5 -143q-53 -53 -137 -90t-156 -37v-105h-108v105 q-114 0 -209 51t-151 142t-56 204zM313 1114q0 -156 238 -207v416q-58 0 -113 -26.5t-90 -75.5t-35 -107zM659 100q107 13 172.5 73.5t65.5 162.5q0 64 -33.5 113t-88.5 79.5t-116 42.5v-471z" />
<glyph unicode="%" horiz-adv-x="2019" d="M135 1124q0 112 42 206.5t124.5 150t198.5 55.5q89 0 162 -53q225 -166 477 -166q143 0 258 59q54 27 88 56q15 12 43 43t47 47q14 11 37 14h10q50 -9 59 -59v-11q-2 -16 -16 -39l-1214 -1521q-25 -16 -43 -21h-11q-52 9 -61 60v10q2 18 16 39l1018 1276 q-104 -39 -227 -39q-180 0 -365 82q29 -83 29 -189q0 -77 -17.5 -149.5t-54 -131.5t-96 -95.5t-139.5 -36.5q-171 0 -268 118t-97 295zM360 1120q0 -130 24.5 -225.5t115.5 -95.5q73 0 116 52t60.5 126t17.5 147q0 72 -17.5 146t-60.5 126t-116 52q-91 0 -115.5 -95.5 t-24.5 -226.5v-6zM1210 299q0 176 97 294t268 118q80 0 140 -37t96 -95.5t53.5 -131t17.5 -148.5q0 -77 -17.5 -149.5t-54 -132t-96 -96t-139.5 -36.5q-171 0 -268 119t-97 295zM1436 295q0 -130 25 -226t114 -96q73 0 116.5 52.5t60.5 127t17 146.5t-17 145.5t-60.5 126 t-116.5 52.5q-89 0 -114 -95.5t-25 -226.5v-6z" />
<glyph unicode="&#x26;" horiz-adv-x="1884" d="M100 291q0 115 103 201l241 196q-86 200 -86 391q0 103 54 186.5t144 132t192 48.5q72 0 126.5 -41.5t83.5 -108t29 -135.5q0 -93 -88 -189.5t-219 -205.5q26 -54 67.5 -117.5t90.5 -124t94 -110.5t112 -119q139 125 289 340l107 149q0 11 -37 11q-33 6 -103 6v108h461 v-108q-170 0 -188 -17l-148 -204q-156 -224 -305 -355q159 -141 293 -141q82 0 151.5 40.5t69.5 115.5h113q0 -84 -50.5 -144t-129 -90.5t-158.5 -30.5q-229 0 -453 125q-101 -61 -205 -93t-212 -32q-73 0 -149.5 18.5t-143 58t-106.5 100t-40 139.5zM381 358 q0 -100 44 -187t134 -87q157 0 301 80q-227 165 -377 442q-102 -85 -102 -248zM584 1161q0 -155 59 -311q231 196 231 313q0 71 -31 133t-95 62q-72 0 -118 -61t-46 -136z" />
<glyph unicode="'" horiz-adv-x="672" d="M172 1257q0 71 48.5 117.5t117.5 46.5q62 0 107.5 -39t67.5 -98.5t22 -120.5q0 -135 -63.5 -258.5t-176.5 -204.5q-6 -6 -16 -6q-16 0 -33 17t-17 32q0 16 15 27q51 37 98 96.5t74.5 128t27.5 133.5q-45 -36 -106 -36q-69 0 -117.5 47.5t-48.5 117.5z" />
<glyph unicode="(" horiz-adv-x="942" d="M223 512q0 147 33 294.5t97 281.5t158.5 247t219.5 197q8 4 14 4h31q13 0 21 -10t8 -21q0 -14 -8 -22q-97 -87 -168 -201.5t-113 -243t-60 -260.5t-18 -266q0 -132 18 -265.5t60 -261.5t113 -242.5t168 -201.5q8 -8 8 -22q0 -11 -8 -21t-21 -10h-31q-6 0 -14 4 q-125 85 -219 196.5t-159 247t-97.5 283t-32.5 293.5z" />
<glyph unicode=")" horiz-adv-x="942" d="M135 -481q0 15 10 22q98 88 167 199.5t112.5 241t61.5 258.5t18 272q0 144 -18 272t-61.5 258t-112.5 241.5t-167 199.5q-10 7 -10 22q0 11 8 21t21 10h31q6 0 14 -4q125 -84 220.5 -197t159.5 -247t96 -281.5t32 -294.5q0 -146 -32 -293.5t-97 -283t-159.5 -247 t-219.5 -196.5q-8 -4 -14 -4h-31q-13 0 -21 10t-8 21z" />
<glyph unicode="*" d="M156 903q0 27 13.5 50t39.5 32l285 96l-285 97q-53 18 -53 82q0 40 29 72t69 32q25 0 45 -14l256 -189l-47 279q0 4 -0.5 6.5t-1.5 5.5q0 37 30.5 60.5t69.5 23.5q38 0 68.5 -23.5t30.5 -60.5q0 -2 -1 -5.5t-2 -6.5l-47 -279l256 189q21 14 45 14q28 0 50 -15t35.5 -39.5 t13.5 -49.5q0 -28 -14 -50.5t-40 -31.5l-284 -97l284 -96q26 -9 40 -31.5t14 -50.5q0 -25 -13.5 -49.5t-35.5 -39.5t-50 -15q-24 0 -45 14l-256 188l47 -276l2 -8q1 -4 1 -6q0 -37 -30.5 -60.5t-68.5 -23.5q-39 0 -69.5 23.5t-30.5 60.5q1 3 1.5 6t0.5 8l47 276l-256 -188 q-20 -14 -45 -14q-40 0 -69 33t-29 71z" />
<glyph unicode="+" horiz-adv-x="1884" d="M135 508v10q9 49 62 60h680v682q9 50 61 59h10q49 -9 60 -59v-682h680q50 -11 59 -60v-10q-9 -51 -59 -62h-680v-682q-11 -50 -60 -59h-10q-52 9 -61 59v682h-680q-53 11 -62 62z" />
<glyph unicode="," horiz-adv-x="672" d="M172 166q0 69 48.5 116.5t117.5 47.5q62 0 105 -38.5t64 -97.5t21 -122q0 -90 -28 -177t-80.5 -160t-124.5 -128q-8 -4 -16 -4q-16 0 -33 16t-17 33q0 15 15 26q80 63 137 161t57 194q-40 -33 -100 -33q-70 0 -118 48t-48 118z" />
<glyph unicode="-" horiz-adv-x="807" d="M27 348v213h643v-213h-643z" />
<glyph unicode="." horiz-adv-x="672" d="M172 166q0 66 50 115t116 49q44 0 81.5 -22.5t60 -60t22.5 -81.5q0 -66 -49 -116t-115 -50t-116 50t-50 116z" />
<glyph unicode="/" d="M135 -442q1 11 6 20l809 1919q16 33 56 39h10q50 -9 59 -59v-11q-2 -13 -4 -20l-809 -1919q-17 -33 -55 -39h-10q-53 9 -62 59v11z" />
<glyph unicode="0" d="M94 651q0 202 41.5 353.5t155 245t315.5 93.5q293 0 401.5 -187.5t108.5 -504.5q0 -149 -21 -266.5t-77.5 -210.5t-157.5 -146t-254 -53q-154 0 -254.5 52.5t-157 145.5t-78.5 215t-22 263zM375 686q0 -182 4.5 -305.5t23.5 -175.5q24 -63 80.5 -102.5t122.5 -39.5 t122.5 40.5t78.5 101.5q20 51 24.5 175t4.5 306q0 367 -29 438q-23 60 -79.5 95.5t-121.5 35.5q-66 0 -122 -35t-81 -96q-28 -71 -28 -438z" />
<glyph unicode="1" d="M176 1104v108q149 0 270 27.5t213 103.5h54q14 0 25.5 -11.5t11.5 -24.5v-1198h292v-109h-839v109h289v1036q-125 -41 -316 -41z" />
<glyph unicode="2" d="M121 0v80q0 10 10 20l420 414q109 107 173 209.5t64 220.5q0 126 -75.5 208.5t-198.5 82.5q-103 0 -180 -51q32 -12 54.5 -34.5t34 -51t11.5 -62.5q0 -65 -44 -111t-111 -46q-68 0 -113 46t-45 111q0 155 141 231t309 76q97 0 189 -23.5t165.5 -72t119 -124t45.5 -177.5 q0 -89 -39.5 -158t-101 -123.5t-169 -130t-123.5 -88.5l-225 -176h103q380 0 391 13q33 35 51 186h113l-64 -469h-905z" />
<glyph unicode="3" d="M100 297q0 72 48 119t118 47q37 0 67 -12.5t52 -34.5t34.5 -52t12.5 -67q0 -53 -29.5 -95.5t-80.5 -60.5q101 -65 251 -65q122 0 164.5 80t42.5 215t-42.5 216t-166.5 81h-139q-9 0 -19 9t-10 19v31q0 9 10 19t19 10l113 8q65 0 110 47t66.5 114.5t21.5 133.5 q0 98 -36.5 146t-133.5 48q-135 0 -219 -69q52 -10 84.5 -52t32.5 -96q0 -65 -43 -108t-109 -43q-65 0 -108 43t-43 108q0 76 36 134t94.5 95.5t131.5 57.5t143 20q176 0 322.5 -66.5t146.5 -219.5q0 -84 -39 -151t-104 -114.5t-145 -76.5q144 -25 250 -114.5t106 -227.5 t-79 -227.5t-203 -130t-255 -40.5q-109 0 -218 32.5t-182 105.5t-73 184z" />
<glyph unicode="4" d="M68 317v109l731 891q17 20 43 20h59q18 0 29.5 -11t11.5 -30v-870h201v-109h-201v-208h201v-109h-707v109h236v208h-604zM195 426h501v612z" />
<glyph unicode="5" d="M121 326q0 62 41.5 104.5t105.5 42.5q63 0 104.5 -42.5t41.5 -104.5q0 -57 -35.5 -98t-89.5 -48q46 -50 112 -77t136 -27q152 0 199.5 84.5t47.5 247.5v6q0 95 -8.5 164t-47.5 121.5t-118 52.5q-80 0 -134.5 -18.5t-82 -40t-59 -51.5t-45.5 -32h-33q-13 0 -25 12t-12 27 v666q0 12 10.5 20t22.5 8h2q4 0 8 -2q167 -63 344 -63t346 63q4 2 13 2q12 0 21 -8t9 -20v-31q0 -6 -4 -14q-85 -121 -220 -190.5t-282 -69.5q-73 0 -141 12v-252q107 70 262 70q130 0 240.5 -50t175 -147.5t64.5 -230.5q0 -148 -79 -245.5t-205.5 -144.5t-268.5 -47 q-104 0 -200 43t-156 123.5t-60 184.5z" />
<glyph unicode="6" d="M100 662q0 146 43 269t126.5 217t202.5 144.5t267 50.5q84 0 155.5 -30.5t113 -91.5t41.5 -146q0 -58 -39.5 -97.5t-98.5 -39.5q-58 0 -97.5 39.5t-39.5 97.5q0 49 28.5 86.5t78.5 46.5q-48 45 -142 45q-89 0 -167 -45.5t-119 -124.5q-36 -74 -46 -161.5t-10 -202.5 q40 65 103.5 104t134.5 39q105 0 191 -28.5t150 -84.5t99 -139t35 -188q0 -144 -66 -245t-180.5 -151.5t-257.5 -50.5q-145 0 -245.5 57.5t-156.5 154.5t-80 216t-24 259zM399 451l2 -33q0 -91 13 -165t58.5 -125.5t133.5 -51.5q137 0 172 86.5t35 257.5v6q0 81 -4 135 t-21.5 103t-58.5 79.5t-111 30.5q-108 0 -163.5 -102.5t-55.5 -220.5z" />
<glyph unicode="7" d="M135 850l72 534h112v-6q0 -23 26.5 -35t53.5 -12q56 -1 186 -6.5t160 -5.5h433v-70q0 -18 -11 -24l-329 -373q-58 -70 -91 -156t-49 -185t-19 -186t-3 -212q0 -57 -39.5 -97.5t-97.5 -40.5q-57 0 -97.5 40.5t-40.5 97.5q0 142 41 284t114 269t173 241l125 142h-127 q-416 0 -426 -13q-35 -39 -53 -186h-113z" />
<glyph unicode="8" d="M100 332q0 220 256 342q-84 49 -136 130t-52 173q0 120 60.5 202.5t160.5 123t217 40.5q179 0 307.5 -71t128.5 -236q0 -175 -202 -278q125 -67 197.5 -155.5t72.5 -213.5q0 -206 -146 -310t-358 -104q-126 0 -241.5 33t-190 113t-74.5 211zM293 332q0 -84 43 -142 t115 -86t155 -28q127 0 219.5 44.5t92.5 155.5q0 49 -33.5 89.5t-81.5 64.5l-332 182q-80 -45 -129 -118t-49 -162zM336 1098q0 -66 88 -113l309 -168q65 38 103 94t38 125q0 73 -37.5 122.5t-99 72t-133.5 22.5q-268 0 -268 -155z" />
<glyph unicode="9" d="M100 901q0 216 148 329t370 113q188 0 297.5 -96.5t152 -248t42.5 -336.5q0 -188 -70 -345.5t-207 -249.5t-329 -92q-90 0 -167.5 27.5t-126 88.5t-48.5 153q0 57 40 97t97 40t97 -40t40 -97q0 -44 -24.5 -82.5t-67.5 -48.5q60 -37 160 -37q60 0 115.5 25t96.5 70t60 101 q24 69 30.5 144.5t6.5 187.5q-37 -64 -101.5 -104.5t-136.5 -40.5q-138 0 -245.5 51t-168.5 151t-61 240zM397 897q0 -82 4 -136t23 -104t59 -80t109 -30q75 0 125 51.5t72 127t22 151.5v28q0 152 -35 250t-158 98q-102 0 -151 -47.5t-59.5 -116.5t-10.5 -186v-6z" />
<glyph unicode=":" horiz-adv-x="672" d="M172 166q0 66 50 115t116 49q44 0 81.5 -22.5t60 -60t22.5 -81.5q0 -66 -49 -116t-115 -50t-116 50t-50 116zM172 745q0 68 50 116t116 48q44 0 81.5 -22.5t60 -59.5t22.5 -82q0 -67 -49 -116t-115 -49t-116 49t-50 116z" />
<glyph unicode=";" horiz-adv-x="672" d="M172 166q0 69 48.5 116.5t117.5 47.5q89 0 129.5 -80t40.5 -178q0 -87 -25 -171.5t-71 -157.5t-111 -132q-12 -8 -22 -8q-16 0 -33 16t-17 33q0 14 9 22q156 135 180 344q-40 -18 -80 -18q-70 0 -118 48t-48 118zM172 745q0 68 50 116t116 48q44 0 81.5 -22.5t60 -59.5 t22.5 -82q0 -67 -49 -116t-115 -49t-116 49t-50 116z" />
<glyph unicode="&#x3c;" horiz-adv-x="737" d="M201 -272q1 5 1.5 8.5t0.5 9.5l108 780q1 10 9.5 19.5t19.5 9.5h55q11 0 19 -8.5t10 -20.5l108 -780q1 -4 2 -9.5t1 -8.5q0 -63 -51 -106.5t-115 -43.5q-65 0 -116.5 43.5t-51.5 106.5zM203 860q0 66 50 115t116 49q44 0 81 -22.5t59.5 -60t22.5 -81.5q0 -66 -48 -116 t-115 -50q-66 0 -116 50t-50 116z" />
<glyph unicode="=" horiz-adv-x="1884" d="M135 270v11q9 50 62 59h1491q50 -9 59 -59v-11q-9 -52 -59 -61h-1491q-53 9 -62 61zM135 745v11q9 50 62 59h1491q50 -9 59 -59v-11q-9 -52 -59 -61h-1491q-53 9 -62 61z" />
<glyph unicode="&#x3e;" horiz-adv-x="1143" d="M135 -143q0 60 29.5 115t79.5 87q105 65 171 163.5t66 213.5v90q0 10 9.5 19.5t19.5 9.5h55q12 0 20.5 -8.5t8.5 -20.5v-96q0 -117 -38 -228t-107 -206q-33 -47 -33 -143q0 -68 6 -101.5t32 -53.5t85 -20q178 0 274 54q-37 15 -58.5 48.5t-21.5 76.5q0 57 39 97t98 40 q60 0 99 -40t39 -97q0 -153 -144.5 -210t-324.5 -57q-103 0 -194.5 22t-150.5 81t-59 164zM373 860q0 66 50 115t116 49q44 0 81 -22.5t59.5 -60t22.5 -81.5q0 -66 -48 -116t-115 -50q-66 0 -116 50t-50 116z" />
<glyph unicode="?" horiz-adv-x="1143" d="M135 1167q0 94 63 154t156 86.5t185 26.5q187 0 328 -54.5t141 -212.5q0 -61 -34 -115.5t-91 -86.5q-125 -66 -207 -161t-82 -216v-90q0 -11 -8.5 -20t-20.5 -9h-55q-10 0 -19.5 9.5t-9.5 19.5v96q0 127 64 258q51 98 123 168q32 32 45.5 66t13.5 83q0 78 -15.5 114.5 t-54.5 49.5t-118 13q-130 0 -211 -52q37 -14 59.5 -49.5t22.5 -77.5q0 -35 -18 -67t-50 -51t-70 -19q-37 0 -69 18.5t-50 51t-18 67.5zM373 166q0 66 50 115t116 49q44 0 81 -22.5t59.5 -60t22.5 -81.5q0 -66 -48 -116t-115 -50q-66 0 -116 50t-50 116z" />
<glyph unicode="@" horiz-adv-x="1884" d="M135 711q0 229 107 392.5t291.5 247t408.5 83.5q170 0 315 -47t255.5 -139.5t172.5 -228t62 -308.5q0 -76 -12.5 -151.5t-42.5 -143.5t-84.5 -112t-134.5 -44q-194 0 -267 90q-108 -90 -264 -90q-138 0 -247.5 53.5t-172.5 156.5t-63 241q0 139 63 241t172.5 155.5 t247.5 53.5q103 0 194 -45t146 -129h113q11 0 19.5 -8.5t8.5 -20.5v-516q0 -33 15.5 -63.5t44.5 -30.5q69 0 102 62t41 138t8 163q0 198 -90.5 342.5t-248 218.5t-353.5 74q-146 0 -272.5 -41.5t-222.5 -124.5t-147.5 -201t-51.5 -268t51.5 -268t148 -201.5t221.5 -124.5 t273 -41q332 0 645 121q2 1 4 1.5t4 0.5h123q13 0 21 -10t8 -21q0 -25 -21 -31q-103 -40 -188.5 -64.5t-195 -45.5t-203 -30t-197.5 -9q-224 0 -408.5 83.5t-291.5 247t-107 392.5zM707 711q0 -137 55.5 -250t179.5 -113q69 0 132 31t102 86v491q-40 56 -101.5 86.5 t-132.5 30.5q-124 0 -179.5 -113t-55.5 -249z" />
<glyph unicode="A" horiz-adv-x="1827" d="M88 0v109q195 0 209 18l530 1266q19 41 62 41h49q42 0 63 -41l537 -1284h201v-109h-709v109h189l-115 276h-559l-109 -260q0 -10 53 -10q64 -6 129 -6v-109h-530zM590 494h469l-234 559z" />
<glyph unicode="B" horiz-adv-x="1720" d="M86 0v109h221v1187h-221v109h897q92 0 182 -17.5t172 -58.5t131.5 -110.5t49.5 -169.5q0 -131 -105.5 -209t-249.5 -105q79 -8 153 -32.5t134.5 -67t97.5 -106.5t37 -146q0 -134 -79.5 -220.5t-202.5 -124.5t-252 -38h-965zM588 109h395q81 0 146.5 33.5t102 95.5 t36.5 145q0 81 -28 149.5t-84.5 111t-139.5 42.5h-428v-577zM588 774h327q84 0 151 33t106.5 95t39.5 147q0 107 -61.5 177t-167.5 70h-395v-522z" />
<glyph unicode="C" horiz-adv-x="1749" d="M135 702q0 179 67.5 317t188 230t273 136.5t323.5 44.5q110 0 215 -35t191 -103l147 129q9 9 19 9h26q9 0 19 -10t10 -19v-506q0 -9 -10 -19t-19 -10h-72q-9 0 -18 9.5t-10 19.5q-14 116 -76 213.5t-161 155t-214 57.5q-202 0 -328.5 -72.5t-183.5 -209.5t-57 -337 q0 -150 32 -263.5t102 -193.5t178 -120.5t261 -40.5q117 0 224.5 50t173 142t65.5 209q0 11 9 20t20 9h55q14 0 21.5 -10.5t7.5 -24.5q0 -117 -54.5 -212t-147 -160t-203 -98.5t-222.5 -33.5q-169 0 -323 45t-274.5 138t-187.5 229.5t-67 314.5z" />
<glyph unicode="D" horiz-adv-x="1855" d="M86 0v109h221v1187h-221v109h895q216 0 383.5 -87.5t261.5 -250t94 -377.5q0 -160 -55.5 -289.5t-155 -218.5t-235.5 -135.5t-293 -46.5h-895zM600 109h299q118 0 222.5 34t174.5 115q48 54 71.5 125t29.5 144t6 163q0 156 -19.5 263.5t-87.5 187.5q-34 41 -80 72 t-99.5 49.5t-104.5 26t-113 7.5h-299v-1187z" />
<glyph unicode="E" horiz-adv-x="1589" d="M86 0v109h221v1187h-221v109h1305l63 -506h-113q-21 166 -67.5 250.5t-136.5 115.5t-260 31h-265v-514h88q98 0 148.5 20t71 70t20.5 150h113v-588h-113q0 100 -20.5 150t-71 70t-148.5 20h-88v-565h283q141 0 230.5 24t143 75.5t86 141t54.5 223.5h113l-97 -573h-1339z " />
<glyph unicode="F" horiz-adv-x="1522" d="M86 0v109h221v1187h-221v109h1272l63 -506h-112q-15 123 -43 198.5t-75.5 118.5t-127 61.5t-203.5 18.5h-248v-538h82q96 0 146 20.5t69 71t19 147.5h112v-587h-112q0 97 -19 147.5t-69 71t-146 20.5h-82v-540h277v-109h-803z" />
<glyph unicode="G" horiz-adv-x="1903" d="M135 702q0 179 67.5 317t188 230t273 136.5t323.5 44.5q110 0 215 -35t191 -103l147 129q9 9 19 9h26q9 0 19 -10t10 -19v-506q0 -9 -10 -19t-19 -10h-72q-9 0 -18 9.5t-10 19.5q-14 116 -76 213.5t-161 155t-214 57.5q-202 0 -328.5 -72.5t-183.5 -209.5t-57 -337 q0 -149 34 -264.5t105.5 -194.5t184.5 -119t266 -40q56 0 114.5 15t99 51t40.5 94v215h-303v108h776v-108h-168v-430q0 -13 -10 -21t-21 -8q-22 0 -98.5 39.5t-100.5 58.5q-61 -70 -169 -96.5t-228 -26.5q-169 0 -323 45t-274.5 138t-187.5 229.5t-67 314.5z" />
<glyph unicode="H" horiz-adv-x="1892" d="M86 0v109h221v1187h-221v109h748v-109h-222v-512h666v512h-221v109h747v-109h-221v-1187h221v-109h-747v109h221v567h-666v-567h222v-109h-748z" />
<glyph unicode="I" horiz-adv-x="913" d="M72 0v109h231v1187h-231v109h768v-109h-232v-1187h232v-109h-768z" />
<glyph unicode="J" horiz-adv-x="1249" d="M39 233q0 71 48.5 118.5t117.5 47.5q71 0 118.5 -47.5t47.5 -118.5q0 -44 -20.5 -82.5t-59.5 -60.5q73 -27 158 -27q98 0 149 68t51 168v997h-287v109h746v-109h-166v-1003q0 -115 -77.5 -186.5t-191 -101.5t-222.5 -30q-94 0 -188.5 23.5t-159 81.5t-64.5 153z" />
<glyph unicode="K" horiz-adv-x="1894" d="M86 0v109h221v1187h-221v109h748v-109h-222v-630l756 614q0 5 -15.5 7.5t-23.5 2.5q-49 6 -98 6v109h528v-109q-67 0 -132 -3t-83 -15l-516 -420l578 -731q22 -18 188 -18v-109h-674v109q144 0 144 16l-445 563l-207 -168v-411h222v-109h-748z" />
<glyph unicode="L" horiz-adv-x="1454" d="M86 0v109h221v1187h-221v109h803v-109h-277v-1187h213q143 0 229.5 59t128 160.5t58.5 244.5h113l-64 -573h-1204z" />
<glyph unicode="M" horiz-adv-x="2296" d="M88 0v109q111 0 166 4q55 0 55 14v1169h-221v109h496q45 0 65 -41l500 -1083l500 1083q20 41 65 41h494v-109h-221v-1187h221v-109h-711v109h221v1187l-579 -1255q-20 -41 -68 -41q-50 0 -70 41l-567 1229v-1143q0 -14 55 -14q56 -4 166 -4v-109h-567z" />
<glyph unicode="N" horiz-adv-x="1892" d="M86 0v109q111 0 166 4q55 0 55 14v1169h-221v109h514q15 0 27 -12l831 -957v842q0 7 -21.5 10.5t-33.5 3.5q-55 4 -166 4v109h567v-109q-110 0 -166 -4q-11 0 -33 -3.5t-22 -10.5v-1239q0 -16 -11.5 -27.5t-25.5 -11.5h-49q-17 0 -29 14l-1036 1190v-1077q0 -14 55 -14 q56 -4 166 -4v-109h-567z" />
<glyph unicode="O" horiz-adv-x="1819" d="M135 694q0 226 99.5 393t275 255t399.5 88q225 0 400.5 -88.5t274.5 -255t99 -392.5q0 -221 -100.5 -385t-277 -249t-396.5 -85t-396.5 85.5t-277 248.5t-100.5 385zM465 731q0 -103 7.5 -182t31 -156.5t67.5 -142.5q57 -83 147.5 -128.5t190.5 -45.5q66 0 129.5 20.5 t118 60.5t90.5 93q44 65 67.5 143t31.5 156.5t8 181.5q0 124 -20 228.5t-70.5 190t-137.5 134.5t-217 49q-168 0 -267 -84t-138 -217.5t-39 -300.5z" />
<glyph unicode="P" horiz-adv-x="1655" d="M86 0v109h221v1187h-221v109h860q103 0 203.5 -21.5t183.5 -68.5t134 -127t51 -189q0 -140 -87.5 -229.5t-217 -127.5t-267.5 -38h-334v-495h222v-109h-748zM600 702h264q97 0 157.5 13t96.5 44t53 89.5t17 150.5q0 123 -30.5 186.5t-99.5 87t-194 23.5h-264v-594z" />
<glyph unicode="Q" horiz-adv-x="1819" d="M135 694q0 226 99.5 393t275 255t399.5 88q225 0 400.5 -88.5t274.5 -255t99 -392.5q0 -224 -111 -400t-315 -257q88 -105 173 -105q186 0 186 72q0 16 12 26.5t29 10.5q18 0 29.5 -13t11.5 -32q0 -91 -32 -183t-97.5 -151t-161.5 -59q-76 0 -126 34.5t-83.5 93.5 t-44.5 98t-45 165q-104 -19 -199 -19q-220 0 -396.5 85.5t-277 248.5t-100.5 385zM453 694q0 -123 18.5 -231.5t72 -198.5t156.5 -143l-2 10q-2 6 -2 21q0 80 65 127t148 47q139 0 262 -172q80 59 122.5 144t57.5 184.5t15 211.5q0 151 -23 265.5t-88 203.5q-55 80 -149 125 t-197 45q-102 0 -196 -44.5t-150 -125.5q-64 -89 -87 -206.5t-23 -262.5zM784 154q0 -82 125 -82q85 0 164 28q-56 138 -164 138q-45 0 -85 -21.5t-40 -62.5z" />
<glyph unicode="R" horiz-adv-x="1815" d="M86 0v109h221v1187h-221v109h774q142 0 291 -34t254.5 -120.5t105.5 -228.5q0 -124 -98.5 -206.5t-234.5 -119.5q54 -22 99 -56t76.5 -82t41.5 -103l26 -191q17 -92 47.5 -146.5t104.5 -54.5q56 0 89.5 45t33.5 101q0 15 12 27t27 12h37q36 -7 36 -45q0 -62 -32 -114 t-86 -83t-115 -31q-125 0 -230 19t-179 82t-74 182v178q0 93 -70 158t-166 65h-256v-550h221v-109h-735zM600 748h219q121 0 198 18t121 77.5t44 178.5q0 121 -43 180.5t-117.5 76.5t-202.5 17h-219v-548z" />
<glyph unicode="S" horiz-adv-x="1346" d="M135 4v434q0 11 9 20t20 9h55q11 0 20 -9t9 -20q0 -130 70.5 -209.5t180.5 -112t240 -32.5q71 0 130 27t93.5 80t34.5 126q0 57 -27.5 104t-74 79.5t-100.5 44.5l-299 63q-98 21 -180.5 78.5t-131.5 144t-49 183.5q0 131 62.5 225t170.5 142.5t236 48.5q225 0 359 -111 l104 102q9 9 18 9h27q9 0 19 -10t10 -19v-434q0 -11 -10 -20t-19 -9h-55q-10 0 -18.5 8.5t-10.5 20.5q-21 174 -133 268t-291 94q-68 0 -127 -22.5t-95 -69.5t-36 -117q0 -51 27.5 -93.5t71.5 -70t98 -38.5l299 -64q102 -21 185.5 -83.5t132 -154.5t48.5 -196 q0 -135 -60 -236t-168.5 -155t-240.5 -54q-266 0 -426 109l-104 -100q-9 -9 -19 -9h-26q-9 0 -19 10t-10 19z" />
<glyph unicode="T" horiz-adv-x="1686" d="M88 899l45 506h1417l45 -506h-112q-5 67 -13.5 124.5t-27 110.5t-47.5 83q-80 79 -250 79h-150v-1187h314v-109h-932v109h313v1187h-151q-171 0 -250 -79q-31 -32 -48 -81.5t-26 -109.5t-14 -127h-113z" />
<glyph unicode="U" horiz-adv-x="1860" d="M86 1296v109h748v-109h-222v-825q0 -130 35 -215t115 -128.5t213 -43.5q198 0 323 96.5t125 290.5v807q0 7 -21.5 10.5t-33.5 3.5q-55 4 -166 4v109h572v-109q-111 0 -166 -4q-11 0 -33.5 -3.5t-22.5 -10.5v-813q0 -156 -79.5 -268t-212.5 -167t-285 -55 q-121 0 -236.5 27t-215 86.5t-158 154t-58.5 222.5v831h-221z" />
<glyph unicode="V" horiz-adv-x="1827" d="M55 1296v109h703v-109h-189l435 -958l426 942q0 5 -21 7.5t-31 2.5q-64 6 -129 6v109h523v-109q-189 0 -201 -16l-567 -1257q-21 -41 -64 -41h-53q-43 0 -64 41l-575 1273h-193z" />
<glyph unicode="W" horiz-adv-x="2501" d="M53 1296v109h684v-109h-190l358 -915l285 721l-76 194h-178v109h684v-109h-190l358 -915l354 899q0 5 -24 7.5t-35 2.5q-73 6 -148 6v109h512v-109q-57 0 -116.5 -3t-67.5 -15l-496 -1255q-6 -19 -22.5 -30t-36.5 -11h-33q-20 0 -36.5 11t-24.5 30l-363 925l-364 -925 q-8 -19 -24.5 -30t-37.5 -11h-32q-47 0 -60 41l-502 1273h-178z" />
<glyph unicode="X" horiz-adv-x="1827" d="M76 0v109q237 0 260 18l432 559l-455 610h-204v109h716v-109h-161l282 -381l281 365q-4 7 -75.5 11.5t-107.5 4.5v109h605v-109q-238 0 -258 -18l-365 -469l520 -700h207v-109h-717v109h160l-348 469l-350 -453q4 -8 72.5 -12t109.5 -4v-109h-604z" />
<glyph unicode="Y" horiz-adv-x="1827" d="M45 1296v109h727v-109h-164l406 -575l393 559q0 5 -16.5 7.5t-24.5 2.5q-37 6 -111 6v109h527v-109q-66 0 -135.5 -3t-81.5 -15l-506 -717v-452h221v-109h-735v109h221v452l-516 735h-205z" />
<glyph unicode="Z" horiz-adv-x="1481" d="M135 41v37q0 11 10 28l836 1190h-240q-112 0 -194.5 -20t-145.5 -76q-57 -56 -88.5 -135.5t-31.5 -165.5h-113l27 506h1108q16 0 28 -12t12 -29v-31q0 -15 -10 -28l-833 -1188h256q117 0 210 22t160 86q41 41 67 101.5t36 119t16 148.5h113l-39 -594h-1143q-15 0 -28 12 t-13 29z" />
<glyph unicode="[" horiz-adv-x="672" d="M268 -512v2048h350v-131h-219v-1786h219v-131h-350z" />
<glyph unicode="\" horiz-adv-x="1264" d="M289 952q0 136 63 259.5t176 205.5q8 4 17 4q17 0 33 -16t16 -33q0 -15 -14 -26q-85 -61 -143 -163t-58 -196q46 37 108 37q70 0 117 -48t47 -116q0 -69 -46.5 -117.5t-117.5 -48.5q-93 0 -145.5 80.5t-52.5 177.5zM821 952q0 136 63.5 259.5t176.5 205.5q8 4 16 4 q19 0 34 -15t15 -34q0 -15 -14 -26q-83 -60 -142 -162t-59 -197q46 37 109 37q68 0 116 -48t48 -116q0 -69 -47.5 -117.5t-116.5 -48.5q-93 0 -146 80t-53 178z" />
<glyph unicode="]" horiz-adv-x="672" d="M53 -381h219v1786h-219v131h350v-2048h-350v131z" />
<glyph unicode="^" d="M270 1165l336 256l334 -256l-66 -92l-268 164l-270 -164z" />
<glyph unicode="_" horiz-adv-x="672" d="M172 1260q0 67 50 115t116 48q44 0 81.5 -22.5t60 -59.5t22.5 -81q0 -46 -22.5 -83t-60 -60t-81.5 -23q-66 0 -116 49t-50 117z" />
<glyph unicode="`" horiz-adv-x="672" d="M139 952q0 136 63.5 259.5t176.5 205.5q8 4 16 4q19 0 34 -15t15 -34q0 -15 -14 -26q-83 -60 -142 -162t-59 -197q46 37 109 37q68 0 116 -48t48 -116q0 -69 -47.5 -117.5t-116.5 -48.5q-93 0 -146 80t-53 178z" />
<glyph unicode="a" horiz-adv-x="1178" d="M68 233q0 124 117 194.5t273.5 96t289.5 25.5v72q0 62 -25.5 113t-74.5 78.5t-113 27.5q-97 0 -154 -11q39 -35 39 -100q0 -57 -39 -97t-98 -40q-58 0 -98 40t-40 97q0 124 115.5 161.5t276.5 37.5q79 0 157.5 -15.5t146.5 -50t111 -94t43 -141.5v-482q6 -36 144 -36 q13 0 25 -12t12 -25v-33q0 -15 -12 -27t-25 -12h-135q-87 0 -153.5 26t-66.5 99v14q-44 -74 -130.5 -112.5t-180.5 -38.5q-155 0 -280 56t-125 189zM324 233q0 -66 55 -111.5t125 -45.5q58 0 114.5 22.5t93 65.5t36.5 104v203q-84 0 -183 -22.5t-170 -76.5t-71 -139z" />
<glyph unicode="b" horiz-adv-x="1346" d="M80 1296v109l375 16v-594q134 95 311 95q142 0 255.5 -56.5t178 -162.5t64.5 -248q0 -222 -153 -344.5t-378 -122.5q-87 0 -167 33t-140 92l-94 -113h-113v1239q0 38 -39 47.5t-100 9.5zM467 217q44 -65 107.5 -103t138.5 -38q114 0 174 52t78 134t18 197 q0 174 -45 274.5t-199 100.5q-78 0 -151.5 -32.5t-120.5 -92.5v-492z" />
<glyph unicode="c" horiz-adv-x="1075" d="M80 455q0 148 69.5 255t188.5 162.5t266 55.5q377 0 377 -199q0 -56 -39.5 -96.5t-97.5 -40.5t-97.5 40.5t-39.5 96.5q0 54 34 94q-57 8 -135 8q-102 0 -156.5 -54.5t-72 -135.5t-17.5 -184q0 -373 293 -373q84 0 151 44t93 122q8 20 27 20h55q7 0 14 -4.5t11 -10.5 t4 -15t-2 -13q-43 -122 -153 -180.5t-249 -58.5q-144 0 -264 54t-190 159.5t-70 253.5z" />
<glyph unicode="d" horiz-adv-x="1346" d="M80 455q0 146 70.5 252.5t191 160.5t264.5 54q161 0 283 -88v405q0 38 -39 47.5t-100 9.5v109l374 16v-1255q0 -37 39 -47t101 -10v-109l-387 -12v98q-59 -47 -137 -72.5t-158 -25.5q-142 0 -256.5 56t-180 162t-65.5 249zM360 453q0 -81 7 -143.5t31.5 -116t74.5 -85.5 t131 -32q83 0 154.5 39.5t118.5 109.5v490q-43 55 -108 87t-138 32q-165 0 -218 -99t-53 -276v-6z" />
<glyph unicode="e" horiz-adv-x="1112" d="M68 461q0 146 69 252t188.5 160.5t262.5 54.5q217 0 335.5 -113.5t118.5 -329.5q0 -38 -36 -45h-658q0 -111 27.5 -188.5t94 -122.5t177.5 -45q60 0 118 18.5t103.5 57.5t65.5 94q8 25 35 25h37q15 0 25.5 -13t10.5 -28q0 -6 -0.5 -9t-1.5 -6q-28 -79 -94 -132.5 t-150.5 -78t-172.5 -24.5q-109 0 -209 29t-178 89t-123 150.5t-45 204.5zM348 522h486q0 84 -24.5 156.5t-79.5 117t-142 44.5q-127 0 -183.5 -90.5t-56.5 -227.5z" />
<glyph unicode="f" horiz-adv-x="739" d="M90 801v108h154v215q0 85 43.5 146t113.5 97t147 51.5t159 15.5q57 0 108 -22.5t84 -65.5t33 -99q0 -57 -39 -96t-94 -39q-57 0 -96 39t-39 96q0 64 38 96q-6 3 -20 3q-65 0 -115 -29.5t-75 -82t-25 -116.5v-209h252v-108h-240v-692h174v-109h-549v109h140v692h-154z" />
<glyph unicode="g" d="M68 -147q0 65 50 110.5t118 65.5q-82 74 -82 194q0 48 16.5 94t48.5 86q-47 40 -75.5 96t-28.5 117q0 106 63 175.5t161.5 100t199.5 30.5q169 0 278 -66q48 38 108.5 58t121.5 20q53 0 92 -39t39 -92q0 -38 -29 -67t-68 -29t-67.5 28.5t-28.5 67.5v18q2 6 3.5 12.5 t2.5 8.5q-47 -7 -108 -35q80 -80 80 -191q0 -105 -63.5 -174.5t-161.5 -100t-199 -30.5q-147 0 -254 51q-17 -28 -17 -59q0 -53 38 -89t91 -36h211q111 0 197 -9t164 -41t126 -99.5t48 -175.5q0 -81 -56 -134t-142 -81.5t-173 -39t-166 -10.5q-191 0 -364.5 58t-173.5 207z M258 -147q0 -68 59.5 -107.5t138.5 -54.5t150 -15q121 0 233.5 40t112.5 137q0 114 -344 114h-211q-59 0 -99 -28.5t-40 -85.5zM358 614q0 -111 36.5 -163t144.5 -52t144 52t36 163v7q0 110 -36 161.5t-144 51.5t-144.5 -51.5t-36.5 -161.5v-7z" />
<glyph unicode="h" horiz-adv-x="1346" d="M98 0v109h140v1130q0 38 -39 47.5t-101 9.5v109l375 16v-684q56 86 149.5 135.5t198.5 49.5q166 0 250 -67.5t84 -227.5v-518h139v-109h-526v109h139v512q0 95 -19 154t-93 59q-82 0 -153.5 -40.5t-114 -111.5t-42.5 -152v-421h140v-109h-527z" />
<glyph unicode="i" horiz-adv-x="672" d="M102 0v109h140v630q0 39 -36.5 48.5t-96.5 9.5v108l368 17v-813h125v-109h-500zM166 1260q0 67 50 115t116 48q44 0 81.5 -22.5t60 -59.5t22.5 -81q0 -46 -22.5 -83t-60 -60t-81.5 -23q-66 0 -116 49t-50 117z" />
<glyph unicode="j" horiz-adv-x="739" d="M-127 -213q0 57 40 97t97 40t97 -40t40 -97q0 -64 -43 -100q37 -9 76 -9q78 0 115 74t37 160v827q0 39 -44.5 48.5t-109.5 9.5v108l389 17v-1016q0 -96 -57.5 -168t-146.5 -110t-185 -38q-117 0 -211 46.5t-94 150.5zM238 1260q0 67 49 115t116 48q45 0 82.5 -22 t59.5 -59.5t22 -81.5q0 -46 -22 -83.5t-59.5 -60t-82.5 -22.5q-67 0 -116 49t-49 117z" />
<glyph unicode="k" horiz-adv-x="1278" d="M80 0v109h139v1130q0 38 -39 47.5t-100 9.5v109l375 16v-923l376 286q0 17 -59 17v108h412v-108q-142 0 -170 -19l-285 -217l367 -438q24 -18 143 -18v-109h-473v109q55 0 55 14v4l-260 309l-119 -90v-237h140v-109h-502z" />
<glyph unicode="l" horiz-adv-x="672" d="M102 0v109h140v1130q0 38 -39 47.5t-101 9.5v109l375 16v-1312h139v-109h-514z" />
<glyph unicode="m" horiz-adv-x="2019" d="M98 0v109h140v630q0 39 -39 48.5t-101 9.5v108l363 17v-207q53 95 150.5 151t209.5 56q125 0 211 -40t113 -147q38 60 92 101t122 63.5t134 22.5q111 0 184 -27.5t112.5 -92.5t39.5 -175v-518h139v-109h-526v109h139v512q0 95 -20 154t-95 59q-82 0 -153.5 -41 t-113.5 -111t-42 -152v-421h139v-109h-526v109h139v512q0 95 -19 154t-95 59q-81 0 -153 -40.5t-114.5 -111t-42.5 -152.5v-421h140v-109h-527z" />
<glyph unicode="n" horiz-adv-x="1346" d="M98 0v109h140v630q0 39 -39 48.5t-101 9.5v108l363 17v-207q34 63 91 110t128 72t141 25q166 0 250 -67.5t84 -227.5v-518h139v-109h-526v109h139v512q0 95 -19 154t-93 59q-82 0 -153.5 -40.5t-114 -111.5t-42.5 -152v-421h140v-109h-527z" />
<glyph unicode="o" d="M68 446q0 116 41.5 206t114.5 151t170.5 93t211.5 32q147 0 270.5 -56.5t195 -165.5t71.5 -260q0 -112 -44 -200.5t-117.5 -144t-170 -84.5t-205.5 -29t-205.5 29t-171 85.5t-118 144t-43.5 199.5zM348 473q0 -98 6.5 -160t30.5 -114.5t77 -83.5t144 -31 q119 0 174.5 52.5t68.5 129.5t13 207q0 122 -15 197t-71 122.5t-170 47.5q-115 0 -171.5 -47.5t-71.5 -122.5t-15 -197z" />
<glyph unicode="p" horiz-adv-x="1346" d="M80 -289h139v1039q0 47 -139 47v108l375 17v-95q137 95 321 95q139 0 250.5 -57t174.5 -163.5t63 -246.5q0 -114 -41.5 -202t-113.5 -145.5t-169 -88.5t-207 -31q-151 0 -266 88v-365h139v-108h-526v108zM467 215q44 -65 108 -102t138 -37q94 0 155 56.5t88 142.5t27 180 q0 142 -57.5 256t-186.5 114q-78 0 -150.5 -31t-121.5 -89v-490z" />
<glyph unicode="q" horiz-adv-x="1278" d="M80 455q0 146 70.5 252.5t191 160.5t264.5 54q59 0 119.5 -19t112.5 -55t88 -84l100 158h100v-1211h140v-108h-527v108h140v385q-128 -108 -295 -108q-217 0 -360.5 125t-143.5 342zM360 455q0 -144 58.5 -261.5t187.5 -117.5q90 0 166.5 53.5t118.5 136.5v338 q-27 93 -96.5 157t-161.5 64q-94 0 -155.5 -54.5t-89.5 -139.5t-28 -176z" />
<glyph unicode="r" horiz-adv-x="999" d="M80 0v109h139v630q0 39 -39 48.5t-100 9.5v108l350 17v-207q40 95 106.5 151t159.5 56q92 0 164 -46t72 -131q0 -55 -39 -95t-94 -40q-57 0 -96 40t-39 95q0 51 30 89q-126 0 -182.5 -123t-56.5 -265v-337h174v-109h-549z" />
<glyph unicode="s" horiz-adv-x="954" d="M80 16v277q0 9 9 19t20 10h55q17 0 29 -23q27 -108 101 -165.5t183 -57.5q240 0 240 145q0 57 -52.5 91.5t-121.5 47.5l-158 27q-76 13 -146 46t-114.5 88t-44.5 132q0 105 58 167t146.5 85t192.5 23q122 0 201 -37l72 35q3 1 5 1.5t3 0.5h26q11 0 20 -9t9 -20v-219 q0 -11 -9 -20t-20 -9h-55q-9 0 -19 10t-10 19q0 91 -65 129.5t-162 38.5q-235 0 -235 -119q0 -49 45 -73t118 -42l160 -26q128 -24 220.5 -100t92.5 -197q0 -85 -32 -144.5t-88.5 -94t-125 -49.5t-151.5 -15q-141 0 -235 61l-92 -57q-10 -4 -15 -4h-26q-11 0 -20 9t-9 19z " />
<glyph unicode="t" horiz-adv-x="942" d="M45 801v88q74 0 132 37t97 99t56.5 134t17.5 141h113v-391h305v-108h-305v-557q0 -71 24.5 -115.5t89.5 -44.5q56 0 86.5 50t30.5 110v116h113v-122q0 -68 -35.5 -125.5t-93 -91t-125.5 -33.5q-144 0 -241 57.5t-97 192.5v563h-168z" />
<glyph unicode="u" horiz-adv-x="1346" d="M98 797v108l387 17v-678q0 -81 11.5 -114t47 -43.5t115.5 -10.5q68 0 125 33t90 90t33 125v415q0 39 -39 48.5t-100 9.5v108l387 17v-756q0 -37 39 -47t100 -10v-109l-374 -12v145q-48 -69 -122 -107t-159 -38q-110 0 -196 16.5t-145.5 71.5t-59.5 162v501q0 39 -39 48.5 t-101 9.5z" />
<glyph unicode="v" horiz-adv-x="1278" d="M57 801v108h496v-108h-102l256 -537l249 520q0 10 -32.5 13.5t-63.5 3.5v108h361v-108q-125 0 -142 -17l-358 -753q-20 -41 -66 -41h-32q-46 0 -66 41l-367 770h-133z" />
<glyph unicode="w" horiz-adv-x="1749" d="M53 801v108h486v-108h-107l209 -504l172 416l-37 88h-121v108h447v-108h-109l230 -551l221 534q0 10 -39 13.5t-76 3.5v108h367v-108q-119 0 -129 -17l-314 -753q-8 -20 -24.5 -30.5t-36.5 -10.5h-33q-20 0 -36.5 11t-24.5 30l-224 536l-223 -536q-8 -19 -24.5 -30 t-36.5 -11h-33q-20 0 -36.5 11t-24.5 30l-320 770h-123z" />
<glyph unicode="x" horiz-adv-x="1278" d="M51 0v109q170 0 191 18l286 311l-315 363h-152v108h484v-108h-68l187 -215l180 198q0 9 -26 13t-44 4v108h412v-108q-170 0 -191 -19l-258 -280l342 -393h150v-109h-481v109h67l-213 243l-209 -227q0 -8 27 -12t43 -4v-109h-412z" />
<glyph unicode="y" horiz-adv-x="1278" d="M47 -211q0 54 36.5 90.5t90.5 36.5q36 0 65 -16.5t45.5 -45.5t16.5 -65q0 -73 -57 -108q8 -3 24 -3q74 0 137.5 48t96.5 118l73 156l-385 801h-133v108h498v-108h-102l254 -529l247 512q0 10 -32 13.5t-62 3.5v108h361v-108q-127 0 -142 -17l-452 -940 q-54 -111 -148.5 -182.5t-210.5 -71.5q-86 0 -153.5 57t-67.5 142z" />
<glyph unicode="z" horiz-adv-x="1075" d="M68 41v22q0 16 10 29l579 729h-125q-170 0 -244.5 -57.5t-74.5 -226.5h-113l27 372h799q17 0 29 -12t12 -29v-18q0 -14 -11 -27l-577 -727h139q89 0 152.5 13t109.5 59q44 44 59 103.5t23 156.5h113l-39 -428h-827q-17 0 -29 12t-12 29z" />
<glyph unicode="{" d="M0 518v88h1210v-88h-1210z" />
<glyph unicode="|" horiz-adv-x="2423" d="M0 518v88h2421v-88h-2421z" />
<glyph unicode="}" d="M289 1110l88 256q12 39 42.5 64.5t69.5 25.5q54 0 99 -38.5t45 -92.5q0 -47 -49 -96l-201 -180zM692 1110l88 256q14 40 44 65t69 25q54 0 98.5 -38.5t44.5 -92.5q0 -49 -49 -96l-201 -180z" />
<glyph unicode="~" d="M203 1227l104 112q82 82 164 82q55 0 156.5 -41t150.5 -41q87 0 166 82l64 -59l-105 -113q-82 -82 -164 -82q-42 0 -97.5 20.5t-110.5 41t-99 20.5q-87 0 -166 -82z" />
<glyph unicode="&#xa1;" horiz-adv-x="1454" d="M86 0v109h221v1187h-221v109h1204l64 -506h-113q-14 118 -37 191t-67 119t-117.5 66.5t-194.5 20.5h-213v-1187h277v-109h-803z" />
<glyph unicode="&#xa2;" horiz-adv-x="2019" d="M121 27q0 6 4 14l784 1352q29 41 72 41h55q45 0 72 -41l784 -1352q4 -8 4 -14q0 -11 -7 -19t-19 -8h-1723q-26 0 -26 27zM403 262h1008l-504 868z" />
<glyph unicode="&#xa3;" horiz-adv-x="1884" d="M135 694q0 230 105 396.5t289.5 253t412.5 86.5q227 0 411 -86t289 -253t105 -397q0 -172 -62.5 -308t-172.5 -226.5t-258 -137.5t-312 -47t-313 47t-259.5 139t-172.5 226.5t-62 306.5zM440 694q0 -179 47.5 -319t160.5 -223.5t294 -83.5q140 0 237 49.5t154 135t83 196 t26 245.5q0 182 -46.5 326t-158.5 232.5t-295 88.5q-184 0 -296 -88.5t-159 -232.5t-47 -326zM578 504v401h112v-69h502v69h113v-401h-113v69h-502v-69h-112z" />
<glyph unicode="&#xa4;" horiz-adv-x="1694" d="M86 0v109q174 0 184 16l490 1268q7 17 23.5 29t37.5 12h49q22 0 38.5 -11.5t23.5 -29.5l495 -1284h179v-109h-699v109h193l-348 901l-342 -885q0 -10 53 -10q64 -6 131 -6v-109h-508z" />
<glyph unicode="&#xa5;" horiz-adv-x="1614" d="M100 440h113q5 -154 31 -182q8 -8 50 -11t96 -4t124 -1h586q70 0 124 1t96 4t50 11q26 28 31 182h112l-18 -440h-1376zM115 987l18 418h1348l18 -418h-113q-2 63 -8 104t-22 58q-15 14 -262 14h-574q-248 0 -262 -14q-26 -28 -31 -162h-112zM336 520v422h113v-90h716v90 h113v-422h-113v90h-716v-90h-113z" />
<glyph unicode="&#xa6;" horiz-adv-x="1892" d="M86 0v109h221v1187h-221v109h1718v-109h-221v-1187h221v-109h-747v109h221v1187h-666v-1187h222v-109h-748z" />
<glyph unicode="&#xa7;" horiz-adv-x="1749" d="M135 41q0 17 10 29l605 526l-605 715q-10 10 -10 24v33q0 13 12 25t27 12h1376l64 -506h-113q-17 142 -67.5 224t-128.5 119t-168.5 45.5t-249.5 8.5h-330l481 -565q11 -15 11 -29q0 -19 -11 -26l-606 -529h453q203 0 319.5 20t196 107t100.5 271h113l-64 -545h-1376 q-17 0 -28 12t-11 29z" />
<glyph unicode="&#xa8;" horiz-adv-x="1884" d="M135 1124q0 84 46.5 155t122 111t161.5 40q95 0 175 -38.5t140.5 -105.5t100 -150t61.5 -175q29 125 92 231.5t160.5 172t222.5 65.5q86 0 161.5 -40t122 -111t46.5 -155q0 -17 -12 -29t-29 -12h-47q-17 0 -29 13t-12 28q0 58 -201 58q-113 0 -185 -74.5t-105 -185.5 t-33 -220v-593h276v-109h-858v109h276v593q0 81 -17.5 163.5t-56 155t-101.5 117t-148 44.5q-201 0 -201 -58q0 -17 -12 -29t-29 -12h-47q-15 0 -28 13t-13 28z" />
<glyph unicode="&#xa9;" horiz-adv-x="1749" d="M135 702q0 91 59 162t151.5 119t192 72t185.5 24v217h-277v109h834v-109h-276v-215q87 0 191 -22.5t200 -69.5t157.5 -120t61.5 -167q0 -93 -61.5 -166t-160.5 -120.5t-200 -69.5t-188 -22v-215h276v-109h-834v109h277v217q-79 0 -181.5 23.5t-195.5 71.5t-152 120 t-59 161zM453 702q0 -92 29.5 -151.5t90 -91.5t150.5 -43v573q-90 -10 -150.5 -42.5t-90 -92t-29.5 -152.5zM1004 412q127 14 206 67q86 60 86 223q0 164 -86 224q-75 53 -206 67v-581z" />
<glyph unicode="&#xaa;" horiz-adv-x="1884" d="M135 1067v12q0 14 11.5 25.5t27.5 11.5h205q89 0 127.5 -83.5t38.5 -186.5q0 -352 243 -420v870h-276v109h834v-109h-277v-872q75 18 129 59t83 94.5t42.5 120t13.5 148.5q0 103 39 186.5t129 83.5h205q15 0 26 -11t11 -26v-12q0 -16 -11.5 -27.5t-25.5 -11.5 q-54 0 -73 -60.5t-19 -127.5q0 -110 -40 -210t-118 -163q-71 -59 -184 -100t-207 -41v-217h277v-109h-834v109h276v217q-56 0 -125 18.5t-134.5 51t-106.5 67.5q-78 65 -118 165.5t-40 211.5q0 71 -18.5 129.5t-71.5 58.5q-15 0 -27 12t-12 27z" />
<glyph unicode="&#xad;" horiz-adv-x="1749" d="M109 422h112q11 -60 20.5 -106t23.5 -63.5t48 -23.5t109 -6h106q-43 91 -161 238t-175 247t-57 230q0 86 36 163t96 135t141 99q189 95 464 95h7q127 0 253.5 -26t236 -83t177.5 -153.5t68 -231.5q0 -104 -40 -192t-113.5 -182t-138 -177.5t-101.5 -161.5h106 q76 0 109.5 6t48 23.5t19.5 39.5t24 130h112l-77 -422h-437q-39 6 -39 45q0 95 24.5 199t64.5 221l22 65q40 119 63 217t23 189q0 99 -27 174.5t-79 127t-128.5 77.5t-175.5 26q-197 0 -303 -104t-106 -301q0 -91 20.5 -177.5t65.5 -228.5l22 -65q41 -119 65 -220.5 t24 -199.5q0 -38 -37 -45h-439z" />
<glyph unicode="&#xae;" horiz-adv-x="1413" d="M66 801v108h153v215q0 92 61 154.5t154.5 96t191 46.5t185.5 13q136 0 225 -72q127 72 316 72q58 0 109.5 -22.5t84.5 -65.5t33 -99q0 -57 -39 -96t-94 -39q-57 0 -96 39t-39 96q0 64 39 96q-7 3 -21 3q-101 0 -159 -63t-58 -165v-209h254v-108h-242v-692h174v-109h-548 v109h139v692h-434v-692h139v-109h-514v109h139v692h-153zM442 909h447v203q-53 38 -53 109q0 69 53 108q-52 17 -115 17q-78 0 -154.5 -22t-127 -73.5t-50.5 -132.5v-209z" />
<glyph unicode="&#xaf;" horiz-adv-x="1346" d="M66 801v108h153v215q0 91 62 154t157 96.5t194 46.5t185 13q74 0 143 -30t112.5 -86.5t43.5 -131.5q0 -59 -41.5 -100.5t-101.5 -41.5q-58 0 -100 42t-42 100q0 43 22 78.5t58 52.5q-57 29 -129 29q-80 0 -158 -22t-130 -73.5t-52 -132.5v-209h308v4v7l374 12v-823h140 v-109h-514v109h139v645q0 15 -6.5 31t-18.5 16h-409v-692h139v-109h-514v109h139v692h-153z" />
<glyph unicode="&#xb0;" horiz-adv-x="1346" d="M66 801v108h153v215q0 92 61 154.5t154.5 96t191 46.5t185.5 13q81 0 156 -23l157 10v-1312h140v-109h-514v109h139v692h-434v-692h139v-109h-514v109h139v692h-153zM442 909h447v228q-53 39 -53 110q0 54 32 92q-52 7 -94 7q-78 0 -154.5 -22t-127 -73.5t-50.5 -132.5 v-209z" />
<glyph unicode="&#xb1;" horiz-adv-x="2019" d="M66 801v108h153v215q0 92 62 154.5t154.5 96t191 46.5t184.5 13q64 0 127 -24.5t104 -68.5q93 52 204.5 72.5t244.5 20.5q73 0 142 -30t113 -86.5t44 -131.5q0 -59 -42.5 -100.5t-100.5 -41.5t-100 42t-42 100q0 43 22 78.5t58 52.5q-57 29 -131 29q-79 0 -157 -22 t-130.5 -73.5t-52.5 -132.5v-209h309v4v7l375 12v-823h139v-109h-514v109h140v645q0 13 -7 30t-18 17h-412v-692h140v-109h-514v109h139v692h-436v-692h139v-109h-514v109h139v692h-153zM442 909h449v154q-33 16 -51.5 50.5t-18.5 72.5q0 92 82 131q-57 29 -127 29 q-130 0 -232 -54.5t-102 -173.5v-209z" />
<glyph unicode="&#xb2;" horiz-adv-x="2019" d="M66 801v108h153v215q0 92 62 154.5t154.5 96t191 46.5t184.5 13q69 0 132.5 -20t109.5 -64q94 48 199 66t231 18q27 0 65.5 -6.5t50.5 -6.5q9 0 22.5 -5t16.5 -5l160 10v-1312h139v-109h-514v109h140v692h-437v-692h140v-109h-514v109h139v692h-436v-692h139v-109h-514 v109h139v692h-153zM442 909h449v203q-53 38 -53 109q0 70 51 108q-52 17 -113 17q-130 0 -232 -54.5t-102 -173.5v-209zM1114 909h449v228q-54 40 -54 110q0 53 33 92q-54 7 -94 7q-130 0 -232 -54.5t-102 -173.5v-209z" />
<glyph unicode="&#xb3;" horiz-adv-x="672" d="M102 0v109h140v630q0 39 -36.5 48.5t-96.5 9.5v108l368 17v-813h125v-109h-500z" />
<glyph unicode="&#xb4;" horiz-adv-x="739" d="M-127 -213q0 57 40 97t97 40t97 -40t40 -97q0 -64 -43 -100q37 -9 76 -9q78 0 115 74t37 160v827q0 39 -44.5 48.5t-109.5 9.5v108l389 17v-1016q0 -96 -57.5 -168t-146.5 -110t-185 -38q-117 0 -211 46.5t-94 150.5z" />
<glyph unicode="&#xb5;" d="M244 1305q0 53 39.5 95t91.5 42q45 0 92 -45l244 -273l-70 -88l-324 162q-73 41 -73 107z" />
<glyph unicode="&#xb6;" d="M500 1124l243 273q47 45 93 45q52 0 91.5 -42t39.5 -95q0 -65 -74 -107l-324 -162z" />
<glyph unicode="&#xb8;" d="M225 1421h88q0 -72 42.5 -128.5t110.5 -86.5t140 -30q71 0 138.5 30t110 86.5t42.5 128.5h88q0 -101 -50 -191t-139 -143t-190 -53t-190 53t-140 143t-51 191z" />
<glyph unicode="&#xb9;" d="M168 1130v121h874v-121h-874z" />
<glyph unicode="&#xba;" horiz-adv-x="1827" d="M655 1270q0 89 80.5 129.5t177.5 40.5q98 0 178 -40.5t80 -129.5t-80 -130.5t-178 -41.5q-97 0 -177.5 41.5t-80.5 130.5zM768 1270q0 -41 20.5 -59.5t49 -22.5t75.5 -4q72 0 109 14.5t37 71.5q0 56 -37 70t-109 14q-71 0 -108 -14t-37 -70z" />
<glyph unicode="&#xbb;" horiz-adv-x="1075" d="M279 -330q138 0 270.5 19t132.5 84q0 63 -61.5 82.5t-139.5 19.5v100h248v-26q201 -35 201 -176q0 -191 -651 -191v88z" />
<glyph unicode="&#xbc;" horiz-adv-x="1262" d="M80 0v109h139v692h-139v108h139v244q0 102 70.5 165t174.5 89.5t204 26.5q173 0 315.5 -66t142.5 -219q0 -101 -70 -177t-173 -112q151 -65 231 -197.5t80 -297.5q0 -122 -63.5 -208t-166.5 -127.5t-223 -41.5q-53 0 -104 23t-82 65t-31 98q0 47 32 79t79 32q46 0 78 -32 t32 -79q0 -59 -45 -90q2 -1 9.5 -3.5t9.5 -2.5q6 -2 22 -2q195 0 195 289q0 121 -27 222t-98 167.5t-193 66.5q-10 0 -19 10t-9 19v31q0 10 8 19t20 9q250 0 250 240q0 197 -200 197q-213 0 -213 -199v-1147h-375z" />
<glyph unicode="&#xbd;" horiz-adv-x="1749" d="M74 221q0 89 73 148t183 90t219.5 42t202.5 11v109q0 99 -58 159t-157 60t-156 -11q39 -35 39 -100q0 -57 -39 -97t-98 -40q-58 0 -98 40t-40 97q0 124 116.5 161.5t277.5 37.5q246 0 372 -113q70 58 161 85.5t190 27.5q137 0 231.5 -53t141 -152t46.5 -238 q0 -38 -36 -45h-646q0 -163 79 -259.5t239 -96.5q86 0 157.5 45t96.5 123q12 27 37 27h37q15 0 25.5 -13t10.5 -28q0 -5 -4 -17q-36 -112 -145 -172.5t-238 -60.5q-70 0 -140.5 13t-135.5 42t-115 72q-66 -74 -181.5 -100.5t-252.5 -26.5q-150 0 -272.5 52t-122.5 181z M330 221q0 -65 53.5 -105t122.5 -40q104 0 194.5 47t90.5 143q-6 23 -17 55.5t-16.5 55.5t-5.5 53q-75 0 -174.5 -19t-173.5 -66t-74 -124zM999 522h474q0 125 -48.5 221.5t-162.5 96.5q-88 0 -147.5 -43t-87.5 -115t-28 -160z" />
<glyph unicode="&#xbe;" horiz-adv-x="1884" d="M68 461q0 111 41.5 199t115 148t171.5 90t206 30q71 0 146 -15t140.5 -47t117.5 -84q72 73 175 109.5t214 36.5q137 0 231.5 -53t141.5 -152t47 -238q0 -38 -37 -45h-645q0 -163 78 -259.5t239 -96.5q86 0 157.5 45t96.5 123q12 27 37 27h37q15 0 26 -13t11 -28 q0 -2 -5 -17q-36 -112 -145 -172.5t-238 -60.5q-266 0 -417 151q-48 -51 -114.5 -85.5t-142.5 -50t-151 -15.5q-146 0 -268 54.5t-194 161.5t-72 257zM324 473q0 -113 20 -200.5t81 -142t177 -54.5q168 0 225.5 107t57.5 288q0 174 -59 271.5t-224 97.5q-110 0 -172 -47.5 t-84 -127.5t-22 -190v-2zM1133 522h473q0 125 -48.5 221.5t-162.5 96.5q-88 0 -147.5 -43t-87 -115t-27.5 -160z" />
<glyph unicode="&#xbf;" d="M68 446q0 116 41.5 206t114.5 151t170.5 93t211.5 32q124 0 223 -35l152 240l76 -46l-146 -231q111 -61 171.5 -170t60.5 -240q0 -112 -44 -200.5t-117.5 -144t-170 -84.5t-205.5 -29q-121 0 -223 32l-154 -241l-75 45l145 231q-107 56 -169 162t-62 229zM315 446 q0 -66 2.5 -109.5t15.5 -88.5t40 -80l397 633q-70 39 -164 39q-124 0 -188 -51t-83.5 -134t-19.5 -209zM440 113q67 -37 166 -37q121 0 185 46t84 125t20 199q0 66 -2.5 113t-15 96.5t-39.5 85.5z" />
<glyph unicode="&#xc0;" horiz-adv-x="2193" d="M88 0v109q197 0 211 18l504 1169h-146v109h1336l63 -506h-112q-14 120 -37.5 192.5t-68.5 118t-118 66t-194 20.5h-226v-565h101q99 0 150.5 19.5t72.5 71t21 149.5h112v-588h-112q0 98 -21 149.5t-72.5 71t-150.5 19.5h-101v-514h244q129 0 212 28t132 85.5t75 139.5 t48 211h113l-96 -573h-1180v109h166v514h-361l-215 -498q0 -10 51 -10q64 -6 132 -6v-109h-533zM700 731h314v565h-70z" />
<glyph unicode="&#xc1;" horiz-adv-x="2462" d="M174 694q0 230 105 396.5t289.5 253t412.5 86.5q76 0 205 -12.5t196 -12.5h879l63 -506h-112q-21 165 -62.5 247t-127 116t-250.5 34h-256v-514h149q106 0 164.5 16.5t87.5 67.5t29 156h112v-588h-112q0 104 -29 155.5t-87.5 68t-164.5 16.5h-149v-565h276 q177 0 272.5 46t140 142.5t74.5 275.5h113l-96 -573h-914q-77 0 -206 -12.5t-195 -12.5q-164 0 -313 47t-259.5 139t-172.5 226.5t-62 306.5zM492 731q0 -166 49.5 -318.5t159 -251t280.5 -98.5q77 0 132.5 13.5t86.5 60.5q33 47 41 128.5t8 203.5v467q0 123 -8 204t-41 128 q-30 48 -84 60.5t-135 12.5q-125 0 -217.5 -50t-153 -137.5t-89.5 -196t-29 -226.5z" />
<glyph unicode="&#xc2;" horiz-adv-x="1884" d="M135 694q0 230 105 396.5t289.5 253t412.5 86.5q103 0 207.5 -19.5t189.5 -58.5l127 182l80 -57l-121 -170q103 -64 176 -160.5t109.5 -212t36.5 -240.5q0 -172 -62.5 -308t-172.5 -226.5t-258 -137.5t-312 -47q-223 0 -399 76l-127 -180l-80 57l121 168 q-104 64 -176 157t-109 206t-37 235zM440 694q0 -154 19.5 -266t89.5 -201l715 1016q-66 50 -148 74t-174 24q-119 0 -223 -41.5t-170 -125.5q-70 -93 -89.5 -207.5t-19.5 -272.5zM618 160q130 -97 324 -97q116 0 220 40.5t171 123.5q49 62 72.5 136t30 154t6.5 177 q0 168 -19.5 280.5t-91.5 199.5z" />
<glyph unicode="&#xc3;" horiz-adv-x="672" d="M35 674l624 147l27 -104l-625 -150z" />
<glyph unicode="&#xc4;" d="M217 1272q0 62 45.5 106.5t108.5 44.5q39 0 74.5 -20.5t56 -56t20.5 -74.5q0 -63 -44.5 -108.5t-106.5 -45.5t-108 46t-46 108zM688 1272q0 62 45.5 106.5t108.5 44.5q39 0 74.5 -20.5t56 -56t20.5 -74.5q0 -63 -44.5 -108.5t-106.5 -45.5t-108 46t-46 108z" />
<glyph unicode="&#x2000;" horiz-adv-x="768" />
<glyph unicode="&#x2001;" horiz-adv-x="1536" />
<glyph unicode="&#x2002;" horiz-adv-x="768" />
<glyph unicode="&#x2003;" horiz-adv-x="1536" />
<glyph unicode="&#x2004;" horiz-adv-x="512" />
<glyph unicode="&#x2005;" horiz-adv-x="384" />
<glyph unicode="&#x2006;" horiz-adv-x="256" />
<glyph unicode="&#x2007;" horiz-adv-x="256" />
<glyph unicode="&#x2008;" horiz-adv-x="192" />
<glyph unicode="&#x2009;" horiz-adv-x="307" />
<glyph unicode="&#x200a;" horiz-adv-x="85" />
<glyph unicode="&#x2010;" horiz-adv-x="807" d="M27 348v213h643v-213h-643z" />
<glyph unicode="&#x2011;" horiz-adv-x="807" d="M27 348v213h643v-213h-643z" />
<glyph unicode="&#x2012;" horiz-adv-x="807" d="M27 348v213h643v-213h-643z" />
<glyph unicode="&#x2013;" horiz-adv-x="1188" d="M27 348v213h1024v-213h-1024z" />
<glyph unicode="&#x2014;" horiz-adv-x="2212" d="M27 348v213h2048v-213h-2048z" />
<glyph unicode="&#x202f;" horiz-adv-x="307" />
<glyph unicode="&#x205f;" horiz-adv-x="384" />
<glyph unicode="&#x2219;" d="M279 1243l49 103l278 -105l277 105l49 -103l-326 -186z" />
<glyph unicode="&#xe000;" horiz-adv-x="910" d="M0 910h910v-910h-910v910z" />
</font>
</defs>
</svg>
