<?xml version="1.0" standalone="no"?>
<!DOCTYPE svg PUBLIC "-//W3C//DTD SVG 1.1//EN" "http://www.w3.org/Graphics/SVG/1.1/DTD/svg11.dtd" >
<svg xmlns="http://www.w3.org/2000/svg">
<metadata>
This is a custom SVG webfont generated by Font Squirrel.
Copyright   : Copyright C 1994 Basil K Malyshev All Rights Reserved012BaKoMa Fonts Collection LevelB
</metadata>
<defs>
<font id="cmbx5Regular" horiz-adv-x="1552" >
<font-face units-per-em="2048" ascent="1638" descent="-410" />
<missing-glyph horiz-adv-x="1059" />
<glyph unicode=" "  horiz-adv-x="1059" />
<glyph unicode="&#x09;" horiz-adv-x="1059" />
<glyph unicode="&#xa0;" horiz-adv-x="1059" />
<glyph unicode="!" horiz-adv-x="973" d="M307 180q0 49 24.5 90t66.5 65.5t89 24.5q48 0 90 -24.5t66.5 -65.5t24.5 -90q0 -48 -24.5 -89.5t-66 -66t-90.5 -24.5q-48 0 -89.5 24.5t-66 66t-24.5 89.5zM307 1272v18q0 71 54 118.5t126 47.5q73 0 127 -47.5t54 -118.5v-18l-90 -735q-10 -35 -41 -41h-97 q-35 6 -41 41z" />
<glyph unicode="&#x22;" horiz-adv-x="1575" d="M133 1241q0 49 23.5 91t65.5 65.5t91 23.5q69 0 119.5 -40.5t76.5 -103t26 -130.5q0 -97 -32.5 -187t-94 -164.5t-142.5 -123.5q-16 -8 -24 -8q-22 0 -45 22t-23 45q0 26 21 39q87 52 143.5 134.5t69.5 180.5q-43 -24 -95 -24q-49 0 -91 23.5t-65.5 65.5t-23.5 91z M741 1241q0 49 24 91t65.5 65.5t91.5 23.5q69 0 119 -40.5t76 -103t26 -130.5q0 -97 -32.5 -187t-94 -164.5t-142.5 -123.5q-16 -8 -24 -8q-22 0 -45 22t-23 45q0 25 21 39q85 50 142.5 134t70.5 181q-43 -24 -94 -24q-50 0 -91.5 23.5t-65.5 65.5t-24 91z" />
<glyph unicode="#" horiz-adv-x="2542" d="M201 233v11q10 74 84 84h493l146 370h-639q-74 6 -84 82v11q9 73 84 83h710l195 490q18 51 78 57h10q34 -4 55.5 -25.5t26.5 -56.5v-10q0 -10 -4 -22l-172 -433h465l194 490q18 51 78 57h10q34 -4 55.5 -25.5t26.5 -56.5v-10q0 -10 -4 -22l-172 -433h424q73 -10 82 -83 v-11q-5 -35 -26 -57t-56 -25h-496l-145 -370h641q35 -5 56.5 -27t25.5 -57v-11q-5 -35 -26.5 -56.5t-55.5 -24.5h-713l-192 -492q-23 -51 -78 -57h-10q-36 5 -57.5 26.5t-26.5 55.5v10q0 10 4 22l172 435h-465l-193 -492q-21 -50 -77 -57h-11q-73 9 -84 82v10q0 12 5 22 l172 435h-422q-34 3 -56.5 24t-27.5 57zM967 328h465l145 370h-465z" />
<glyph unicode="$" d="M201 397q0 68 45 113t112 45q44 0 80.5 -21t57 -58t20.5 -79q0 -48 -25.5 -88t-68.5 -57q41 -54 123.5 -87.5t159.5 -33.5v455q-99 17 -183.5 46.5t-159 81t-118 125t-43.5 173.5q0 126 73.5 222.5t191 149t239.5 52.5v100h145v-100q93 0 183.5 -22t161.5 -67.5 t114 -118.5t43 -175q0 -66 -45 -112t-113 -46q-65 0 -111.5 46.5t-46.5 111.5q0 45 22.5 83t63.5 58q-40 45 -120.5 70.5t-151.5 25.5v-397q93 -15 185.5 -50.5t162 -89t112 -134t42.5 -183.5q0 -96 -43.5 -184.5t-118.5 -145.5q-66 -51 -161 -85.5t-179 -34.5v-101h-145 v101q-131 0 -246 45.5t-186.5 138.5t-71.5 227zM410 1104q0 -87 87.5 -126.5t207.5 -59.5v372q-59 0 -128.5 -21t-118 -63t-48.5 -102zM850 133q62 0 131 25.5t115.5 74t46.5 113.5q0 95 -88 145t-205 68v-426z" />
<glyph unicode="%" horiz-adv-x="2542" d="M201 1124q0 188 121.5 300t312.5 112q110 0 203 -51q300 -170 604 -170q79 0 148.5 11.5t127.5 35.5t117 63t119 93q17 14 51 18h10q34 -4 55.5 -25.5t26.5 -56.5v-10q-3 -32 -24 -58l-1475 -1474q-27 -24 -57 -27h-11q-73 9 -84 82v10q4 33 25 58l1182 1182 q-92 -23 -207 -23q-211 0 -445 84q23 -66 23 -154q0 -114 -47.5 -209.5t-136.5 -149.5t-205 -54q-190 0 -312 112.5t-122 300.5zM465 1120q0 -130 30.5 -208t139.5 -78q108 0 159.5 87.5t51.5 202.5q0 114 -51.5 201.5t-159.5 87.5q-109 0 -139.5 -78t-30.5 -207v-8z M1520 299q0 188 121.5 300t312.5 112q116 0 205 -54t136.5 -149t47.5 -209t-47.5 -209.5t-136.5 -150t-205 -54.5q-126 0 -224.5 50.5t-154 144t-55.5 219.5zM1784 295q0 -130 30.5 -208.5t139.5 -78.5q106 0 158.5 88t52.5 203q0 72 -21.5 137.5t-69 108.5t-120.5 43 q-109 0 -139.5 -78t-30.5 -207v-8z" />
<glyph unicode="&#x26;" horiz-adv-x="2378" d="M158 301q0 140 166 246l241 143q-82 185 -82 365q0 118 67 210t174 141.5t222 49.5q87 0 165 -40.5t125.5 -111.5t47.5 -159q0 -59 -44 -120.5t-106.5 -113.5t-125 -94t-142.5 -92q51 -84 115 -157.5t138.5 -139.5t162.5 -131q101 68 194.5 155t184.5 191l108 121h-122 v145h548v-145h-213l-172 -193q-189 -216 -395 -360q179 -100 352 -100q87 0 159.5 23t72.5 93h178q0 -71 -39 -122t-101.5 -82t-135.5 -44.5t-136 -13.5q-160 0 -309 26.5t-278 82.5q-244 -109 -484 -109q-125 0 -246.5 30.5t-205.5 106.5t-84 199zM473 356 q0 -69 36.5 -124.5t96.5 -88t129 -32.5q141 0 283 49q-81 55 -151 120t-130.5 141t-111.5 161q-74 -45 -113 -97t-39 -129zM739 1143q0 -151 70 -307q69 42 132.5 88.5t114 106.5t50.5 114q0 73 -45 130.5t-115 57.5q-53 0 -100.5 -24.5t-77 -68t-29.5 -97.5z" />
<glyph unicode="'" horiz-adv-x="893" d="M266 1241q0 49 23.5 91t65.5 65.5t91 23.5q69 0 119.5 -40.5t76.5 -103t26 -130.5q0 -97 -32.5 -187t-94 -164.5t-142.5 -123.5q-16 -8 -24 -8q-22 0 -45 22t-23 45q0 26 21 39q87 52 143.5 134.5t69.5 180.5q-43 -24 -95 -24q-49 0 -91 23.5t-65.5 65.5t-23.5 91z" />
<glyph unicode="(" horiz-adv-x="1223" d="M301 512q0 206 77 402.5t218.5 356.5t323.5 259q7 3 20 6h41q41 -7 41 -45q0 -19 -16 -35q-149 -108 -250 -256.5t-150 -323.5t-49 -364q0 -183 48 -358.5t149 -326.5t247 -257q21 -13 21 -37q0 -38 -41 -45h-41q-2 0 -20 6q-137 76 -251 185t-197 243t-127 284.5 t-44 305.5z" />
<glyph unicode=")" horiz-adv-x="1223" d="M201 -467q0 19 16 35q149 108 250.5 256t151 323.5t49.5 364.5q0 184 -49 359.5t-149.5 325.5t-248.5 257q-20 13 -20 37q0 38 41 45h41q2 0 20 -6q135 -72 251 -183t197.5 -242.5t126 -282t44.5 -310.5t-44.5 -310.5t-126 -282t-198 -241.5t-250.5 -184q-7 -3 -20 -6 h-41q-41 7 -41 45z" />
<glyph unicode="*" d="M231 903q0 34 19 61.5t51 36.5l291 80l-291 80q-32 10 -51 37.5t-19 61.5q0 48 33 84t78 36q23 0 47 -12l320 -190l-45 245q0 6 -0.5 9.5t-1.5 7.5q0 43 35.5 69.5t78.5 26.5q27 0 54 -12t44 -34t17 -50q0 -5 -0.5 -8.5t-1.5 -8.5l-45 -245l319 190q25 12 47 12 q47 0 79 -36t32 -84q0 -34 -19 -61.5t-51 -37.5l-290 -80l290 -80q32 -8 51 -36t19 -62q0 -48 -31.5 -84.5t-79.5 -36.5q-22 0 -47 13l-319 190l45 -246q1 -4 1.5 -7t0.5 -9q0 -42 -36 -69t-79 -27t-78.5 27.5t-35.5 68.5q1 4 1.5 7.5t0.5 8.5l45 246l-320 -190 q-23 -13 -47 -13q-46 0 -78.5 36.5t-32.5 84.5z" />
<glyph unicode="+" horiz-adv-x="2378" d="M201 508v10q5 35 26.5 56t57.5 26h817v819q5 35 26.5 56t57.5 26h10q34 -4 55.5 -25.5t26.5 -56.5v-819h817q34 -4 55.5 -25.5t26.5 -56.5v-10q-5 -36 -26 -57.5t-56 -26.5h-817v-819q-10 -72 -82 -82h-10q-36 5 -57.5 26.5t-26.5 55.5v819h-817q-74 10 -84 84z" />
<glyph unicode="," horiz-adv-x="893" d="M266 180q0 77 51.5 128.5t128.5 51.5q68 0 116.5 -41t72.5 -104.5t24 -128.5q0 -93 -31 -183.5t-89.5 -165.5t-139.5 -128q-6 -1 -12.5 -3.5t-11.5 -2.5q-22 0 -45 22t-23 45q0 26 21 39q80 50 134.5 132t69.5 177q-39 -18 -86 -18q-49 0 -91 23.5t-65.5 65.5t-23.5 91z " />
<glyph unicode="-" horiz-adv-x="1057" d="M68 328v254h790v-254h-790z" />
<glyph unicode="." horiz-adv-x="893" d="M266 180q0 49 24.5 90t66.5 65.5t89 24.5q48 0 90 -24.5t66.5 -65.5t24.5 -90q0 -48 -24.5 -89.5t-66 -66t-90.5 -24.5q-48 0 -89.5 24.5t-66 66t-24.5 89.5z" />
<glyph unicode="/" d="M201 -420q3 19 8 31l979 1880q20 39 72 45h10q34 -4 55.5 -25.5t26.5 -56.5v-10q-1 -6 -6 -31l-979 -1880q-24 -39 -72 -45h-10q-36 5 -57.5 26.5t-26.5 55.5v10z" />
<glyph unicode="0" d="M150 647q0 227 60 384t199.5 240t366.5 83q338 0 482.5 -180t144.5 -527q0 -168 -34 -293t-107.5 -212t-195 -132t-290.5 -45q-227 0 -365 78.5t-199.5 229t-61.5 374.5zM465 686q0 -113 2.5 -195t12.5 -157.5t30 -114.5q36 -67 109 -99t157 -32t157.5 31.5t108.5 99.5 q30 58 37.5 175t7.5 292t-15 283.5t-83 185t-213 76.5t-213 -76.5t-83 -185t-15 -283.5z" />
<glyph unicode="1" d="M274 1077v146q106 0 202.5 10t185.5 39t161 82h74q41 -6 47 -47v-1162h367v-145h-1020v145h371v981q-145 -49 -388 -49z" />
<glyph unicode="2" d="M182 0v104q6 24 21 35l534 387q142 106 220.5 193.5t78.5 208.5q0 96 -58 159t-146 92t-183 29q-99 0 -170 -32q49 -49 49 -123t-49 -124t-123 -50q-72 0 -123 50t-51 124q0 123 89 190.5t209.5 89t254.5 21.5q153 0 297.5 -40t241 -135t96.5 -251q0 -92 -46.5 -165 t-111 -119t-182.5 -110t-149 -83l-246 -152h39q456 0 465 8q38 44 53 133h178l-80 -440h-1108z" />
<glyph unicode="3" d="M158 313q0 77 52 129t130 52q49 0 91 -24t65.5 -65.5t23.5 -91.5q0 -94 -71 -147q113 -68 299 -68q145 0 215.5 66.5t70.5 210.5q0 96 -32.5 156.5t-96.5 90t-162 29.5h-172q-33 6 -41 41v41q8 35 41 41l152 8q69 0 129.5 37.5t96.5 99.5t36 132q0 102 -63.5 141 t-171.5 39q-149 0 -248 -68q38 -22 59 -61.5t21 -83.5q0 -72 -49 -121t-121 -49t-121 49t-49 121q0 90 47.5 156t123.5 105t164.5 57t170.5 18q122 0 248.5 -25.5t220.5 -93.5t94 -184q0 -82 -38 -148.5t-100 -111.5t-147 -76q64 -14 131 -43t119.5 -69.5t85.5 -99.5 t33 -128q0 -150 -101.5 -242t-248 -130t-297.5 -38q-137 0 -270 29t-226.5 107t-93.5 212z" />
<glyph unicode="4" d="M117 317v146l739 866q25 25 55 25h209q21 0 36 -14t15 -37v-840h265v-146h-265v-172h265v-145h-852v145h288v172h-755zM307 463h600v702z" />
<glyph unicode="5" d="M182 313q0 71 48.5 118.5t117.5 47.5q71 0 118.5 -47.5t47.5 -118.5q0 -43 -20.5 -81.5t-57.5 -59.5q102 -74 266 -74q117 0 192.5 29.5t111.5 99.5t36 187q0 103 -17.5 169.5t-72 105t-159.5 38.5q-115 0 -207.5 -30t-157.5 -105q-10 -17 -33 -17h-67q-41 8 -47 48v690 q11 41 45 41q4 0 14 -2q204 -64 428 -64q221 0 428 64q4 2 12 2q18 0 30 -12t15 -29v-41q-5 -20 -10 -25q-255 -258 -596 -258q-54 0 -166 8v-217q133 70 314 70q142 0 274.5 -46t216.5 -146t84 -248q0 -122 -61.5 -208t-160.5 -138t-217 -75.5t-229 -23.5 q-87 0 -176.5 18.5t-168 59.5t-127 108.5t-48.5 161.5z" />
<glyph unicode="6" d="M158 662q0 165 60.5 295t170.5 219.5t251.5 133.5t301.5 44q155 0 266 -70.5t111 -218.5q0 -66 -46 -112t-112 -46t-111.5 46.5t-45.5 111.5q0 41 17.5 76t51.5 57q-51 33 -133 33q-125 0 -211.5 -35t-140 -102t-77.5 -161t-24 -214q62 74 151 116t185 42q111 0 214 -26 t182.5 -80t127.5 -143t48 -206q0 -108 -44.5 -189.5t-131.5 -146.5q-93 -67 -200 -94t-241 -27q-162 0 -280 50t-194 143.5t-111 219.5t-35 284zM494 414q0 -316 284 -316q94 0 150.5 18t86 56t40 95.5t10.5 152.5v8q0 123 -17 189.5t-75 101.5t-178 35q-81 0 -150 -40.5 t-110 -109.5t-41 -149v-27v-14z" />
<glyph unicode="7" d="M201 879l88 487h178v-6q0 -20 18.5 -28.5t40.5 -8.5q16 0 37 6q55 12 111 12q57 0 156 -11t139 -11h508v-98q0 -20 -15 -31l-383 -348q-93 -84 -143 -201.5t-67 -243.5t-17 -278q0 -64 -46 -109t-112 -45q-64 0 -110.5 46.5t-46.5 111.5q0 152 46 295t130 270t196 227 l115 105h-84q-213 0 -356 -1.5t-150 -6.5q-41 -46 -55 -133h-178z" />
<glyph unicode="8" d="M158 336q0 129 78 213.5t206 134.5q-88 49 -144 125.5t-56 169.5q0 138 79 222t200 118.5t255 34.5q135 0 253 -23t200 -93.5t82 -203.5q0 -175 -224 -280q137 -62 222.5 -150.5t85.5 -216.5q0 -230 -183.5 -326t-435.5 -96q-108 0 -212 13t-198 52t-151 113.5t-57 192.5 zM403 336q0 -133 111.5 -185.5t261.5 -52.5q91 0 171.5 10.5t141 52.5t60.5 124q0 78 -129 139l-399 178q-218 -91 -218 -266zM455 1090q0 -11 2 -15q8 -30 27.5 -44t66.5 -40l375 -166q172 75 172 209q0 112 -95.5 154.5t-228.5 42.5q-131 0 -225 -24.5t-94 -116.5z" />
<glyph unicode="9" d="M158 901q0 109 45 188t137 146q99 69 207 94t244 25q161 0 276.5 -50t188 -142t106 -218t33.5 -282q0 -215 -96.5 -372.5t-264.5 -241t-381 -83.5q-174 0 -297 65.5t-123 223.5q0 66 46 112t112 46q42 0 79 -20.5t58 -57t21 -80.5q0 -80 -60 -125q64 -31 164 -31 q159 0 250 64t126.5 175.5t35.5 266.5q-40 -49 -94 -85.5t-117.5 -55.5t-124.5 -19q-151 0 -281 48t-210 151t-80 258zM487 897q0 -95 8 -150.5t34.5 -97t81 -62t147.5 -20.5q82 0 152 42t110.5 111t40.5 150q-2 9 -2 25v12q0 151 -62.5 237.5t-205.5 86.5q-93 0 -153.5 -18 t-92.5 -56t-45 -98.5t-13 -155.5v-6z" />
<glyph unicode=":" horiz-adv-x="893" d="M266 180q0 49 24.5 90t66.5 65.5t89 24.5q48 0 90 -24.5t66.5 -65.5t24.5 -90q0 -48 -24.5 -89.5t-66 -66t-90.5 -24.5q-48 0 -89.5 24.5t-66 66t-24.5 89.5zM266 729q0 48 24.5 89.5t66 66t89.5 24.5q49 0 90.5 -24.5t66 -66t24.5 -89.5t-24.5 -89.5t-66 -66 t-90.5 -24.5q-48 0 -89.5 24.5t-66 66t-24.5 89.5z" />
<glyph unicode=";" horiz-adv-x="893" d="M266 180q0 77 51.5 128.5t128.5 51.5q65 0 108 -42t62 -105t19 -127q0 -138 -61 -262.5t-171 -210.5q-13 -10 -28 -10q-22 0 -45 22t-23 45t17 35q73 56 121 135.5t61 167.5q-42 -8 -60 -8q-49 0 -91 23.5t-65.5 65.5t-23.5 91zM266 729q0 48 24.5 89.5t66 66t89.5 24.5 q49 0 90.5 -24.5t66 -66t24.5 -89.5t-24.5 -89.5t-66 -66t-90.5 -24.5q-48 0 -89.5 24.5t-66 66t-24.5 89.5z" />
<glyph unicode="&#x3c;" horiz-adv-x="973" d="M307 -248l92 735q6 35 41 41h97q30 -5 41 -41l90 -735v-18q0 -70 -54.5 -118t-126.5 -48q-71 0 -125.5 48t-54.5 118v18zM307 844q0 48 24.5 89.5t66 66t89.5 24.5q49 0 90.5 -24.5t66 -66t24.5 -89.5q0 -49 -24.5 -90t-66.5 -65.5t-90 -24.5q-47 0 -89 24.5t-66.5 65.5 t-24.5 90z" />
<glyph unicode="=" horiz-adv-x="2378" d="M201 233v11q10 74 84 84h1810q35 -5 56.5 -27t25.5 -57v-11q-5 -35 -26.5 -56.5t-55.5 -24.5h-1810q-34 3 -56.5 24t-27.5 57zM201 780v11q9 73 84 83h1810q73 -10 82 -83v-11q-5 -35 -26 -57t-56 -25h-1810q-74 6 -84 82z" />
<glyph unicode="&#x3e;" horiz-adv-x="1470" d="M201 -143q0 64 37 120.5t96 85.5q117 59 194.5 145t77.5 195v84q6 35 41 41h96q32 -6 41 -41v-92q0 -79 -29.5 -158t-80.5 -147q-21 -28 -45.5 -51.5t-55 -55.5t-44 -61t-13.5 -67q0 -64 8 -93q21 -53 170 -53q103 0 173 6t132 29q-45 43 -45 113q0 44 21 80t58 56.5 t79 20.5q41 0 78.5 -21t58.5 -58t21 -78q0 -95 -58 -152t-143.5 -81.5t-175 -31t-199.5 -6.5q-193 0 -343 55t-150 216zM514 844q0 48 24.5 89.5t66 66t89.5 24.5q49 0 90 -24.5t65.5 -66.5t24.5 -89q0 -48 -24.5 -89.5t-66 -66t-89.5 -24.5q-47 0 -89 24.5t-66.5 65.5 t-24.5 90z" />
<glyph unicode="?" horiz-adv-x="1470" d="M201 1167q0 111 79 171.5t188 80t226 19.5q576 0 576 -271q0 -89 -59 -138.5t-180.5 -112t-184 -125t-62.5 -170.5v-84q-8 -35 -41 -41h-96q-35 6 -41 41v92q0 85 39.5 166.5t106.5 148.5q60 63 147 117q55 38 55 106q0 58 -15 86t-62 43q-33 11 -76 15t-103 4 q-143 0 -227 -35q45 -45 45 -113q0 -65 -45 -111t-113 -46q-65 0 -111 46t-46 111zM514 180q0 49 24.5 90t66.5 65.5t89 24.5q48 0 89.5 -24.5t66 -66t24.5 -89.5q0 -47 -24.5 -89t-65.5 -66.5t-90 -24.5q-48 0 -89.5 24.5t-66 66t-24.5 89.5z" />
<glyph unicode="@" horiz-adv-x="2378" d="M201 709v6q0 79 19.5 153.5t57 143.5t87.5 127.5t114 105.5q144 103 324.5 148t382.5 45h8q130 0 253 -18.5t238 -61.5t213 -113q82 -62 146 -146.5t98.5 -182t34.5 -201.5v-4q0 -82 -22 -162.5t-67 -148.5t-113 -109t-154 -41q-91 0 -165.5 19t-119.5 73 q-135 -92 -346 -92q-154 0 -289 48.5t-220 152.5t-85 260t85 259.5t219.5 152t289.5 48.5q132 0 248 -41.5t192 -134.5h111q35 -6 41 -41v-505q0 -28 14.5 -52t42.5 -24q95 0 127.5 105.5t32.5 232.5q0 158 -71 276t-185 189t-259 105t-294 34t-294 -34t-260.5 -105.5 t-186 -189t-70.5 -275.5t69.5 -275t187.5 -190t261.5 -106.5t292.5 -33.5q281 0 563 56q21 4 65.5 15.5t99 25.5t81.5 20h137q41 -7 41 -45q0 -33 -31 -43q-467 -151 -956 -151h-4q-132 0 -255 18.5t-240.5 62.5t-211.5 111q-127 96 -202.5 237t-75.5 296zM877 711 q0 -98 36.5 -174t107.5 -120t169 -44q96 0 180 36.5t131 110.5v381q-31 50 -81.5 83.5t-109.5 49t-120 15.5q-99 0 -169.5 -44t-107 -120.5t-36.5 -173.5z" />
<glyph unicode="A" horiz-adv-x="2279" d="M147 0v145h211l596 1260q25 51 80 51h213q25 0 47.5 -14.5t32.5 -36.5l596 -1260h211v-145h-721v145h166l-133 283h-731l-133 -283h166v-145h-601zM782 573h594l-297 627z" />
<glyph unicode="B" horiz-adv-x="2163" d="M201 0v145h217v1115h-217v145h1022q138 0 289.5 -31.5t260.5 -112t109 -219.5q0 -91 -64 -154.5t-155 -100t-186 -52.5q185 -20 336 -103.5t151 -242.5q0 -111 -64 -188t-166 -120.5t-213.5 -62t-213.5 -18.5h-1106zM711 145h512q86 0 178 22.5t155.5 77t63.5 144.5 q0 94 -51.5 158t-132.5 93.5t-172 29.5h-553v-525zM711 793h430q95 0 188 22.5t160 78.5t67 148q0 116 -103 167t-230 51h-512v-467z" />
<glyph unicode="C" horiz-adv-x="2212" d="M201 700v7q0 129 51 246.5t140.5 208t209.5 151.5q96 47 196.5 74.5t208 40t214.5 12.5q142 0 278 -35t248 -109l160 134q15 10 24 10h41q35 -6 41 -41v-510q-6 -35 -41 -41h-119q-33 6 -41 41q-17 119 -94 212t-190.5 143t-235.5 50q-214 0 -377.5 -54.5t-258.5 -186.5 t-95 -351q0 -166 56 -281t157 -183.5t231.5 -97.5t292.5 -29q122 0 247.5 40.5t207.5 125.5t82 212q6 35 41 41h96q41 -9 41 -49q0 -137 -74.5 -237.5t-194.5 -162.5t-258 -89t-265 -27q-107 0 -214.5 12.5t-208 40t-196.5 74.5q-120 61 -209.5 151.5t-140.5 208.5t-51 248z " />
<glyph unicode="D" horiz-adv-x="2329" d="M193 0v145h217v1115h-217v145h1030q172 0 336 -42.5t290.5 -128t202.5 -224t76 -320.5q0 -178 -77 -311.5t-206.5 -216t-290.5 -122.5t-331 -40h-1030zM721 145h412q154 0 273 24.5t203.5 84.5t129.5 167.5t45 268.5q0 217 -75 342.5t-218.5 176.5t-357.5 51h-412v-1115z " />
<glyph unicode="E" horiz-adv-x="2001" d="M184 0v145h217v1115h-217v145h1538l80 -430h-178q-25 132 -107 194.5t-184 76.5t-264 14h-340v-459h131q69 0 111.5 3t86.5 19.5t69.5 52t25.5 95.5h178v-486h-178q0 113 -76.5 141.5t-216.5 28.5h-131v-510h367q141 0 228 7.5t163.5 38t133.5 99.5t87 187h178l-119 -477 h-1583z" />
<glyph unicode="F" horiz-adv-x="1919" d="M184 0v145h217v1115h-217v145h1497l80 -430h-178q-18 100 -69 161t-121 86.5t-146.5 31.5t-197.5 6h-320v-484h121q90 0 147 8.5t97.5 46t40.5 115.5h178v-485h-178q0 78 -40.5 115.5t-97.5 46t-147 8.5h-121v-486h270v-145h-815z" />
<glyph unicode="G" horiz-adv-x="2394" d="M201 698v4v5q0 129 51 246.5t140.5 208t209.5 151.5q258 127 617 127h4q141 0 276.5 -35t247.5 -109l160 134q15 10 24 10h41q35 -6 41 -41v-510q-6 -35 -41 -41h-119q-33 6 -41 41q-17 119 -94 212t-190.5 143t-235.5 50q-214 0 -377.5 -54.5t-258.5 -186.5t-95 -351 q0 -167 58 -283t160.5 -183.5t236 -96t295.5 -28.5q84 0 162 6t145.5 33.5t67.5 80.5v177h-371v145h905v-145h-207v-367q-7 -41 -45 -41q-16 0 -78 25t-84 36q-93 -63 -239.5 -79.5t-345.5 -16.5q-107 0 -214.5 12.5t-208 40t-196.5 74.5q-182 93 -291.5 252.5t-109.5 353.5 z" />
<glyph unicode="H" horiz-adv-x="2359" d="M184 0v145h217v1115h-217v145h762v-145h-217v-457h903v457h-217v145h762v-145h-217v-1115h217v-145h-762v145h217v512h-903v-512h217v-145h-762z" />
<glyph unicode="I" horiz-adv-x="1126" d="M172 0v145h227v1115h-227v145h782v-145h-227v-1115h227v-145h-782z" />
<glyph unicode="J" horiz-adv-x="1587" d="M127 233q0 50 24 92.5t66 66.5t92 24q78 0 129 -53t51 -130q0 -70 -43 -120q76 -25 183 -25q106 0 177 54.5t71 156.5v961h-281v145h754v-145h-162v-969q0 -92 -53.5 -156t-142 -102t-181 -53t-178.5 -15q-204 0 -355 53.5t-151 214.5z" />
<glyph unicode="K" horiz-adv-x="2363" d="M184 0v145h217v1115h-217v145h762v-145h-217v-578l879 578h-74v145h629v-145h-232l-641 -422l711 -693h203v-145h-697v145h97l-549 537l-326 -213v-324h217v-145h-762z" />
<glyph unicode="L" horiz-adv-x="1837" d="M184 0v145h217v1115h-217v145h815v-145h-270v-1115h277q136 0 235.5 27.5t169 101t90.5 203.5h178l-80 -477h-1415z" />
<glyph unicode="M" horiz-adv-x="2855" d="M209 0v145h217v1115h-217v145h516q27 0 50.5 -14t35.5 -37l616 -1118l617 1118q12 23 35.5 37t50.5 14h516v-145h-217v-1115h217v-145h-711v145h217v1112l-665 -1206q-12 -23 -35.5 -37t-50.5 -14h-45q-60 0 -86 51l-649 1178v-1084h217v-145h-629z" />
<glyph unicode="N" horiz-adv-x="2359" d="M184 0v145h217v1115h-217v145h525q18 0 32 -14l1024 -979v848h-217v145h629v-145h-217v-1213q-6 -41 -47 -47h-101q-19 0 -30 14l-1186 1131v-1000h217v-145h-629z" />
<glyph unicode="O" horiz-adv-x="2298" d="M201 690q0 193 79.5 336.5t214 234.5t303 135t351.5 44q184 0 353 -44.5t303 -135t213 -234t79 -336.5q0 -188 -80.5 -327.5t-216.5 -227t-305 -129t-346 -41.5q-176 0 -345 41.5t-305.5 129t-217 226.5t-80.5 328zM561 731q0 -299 145.5 -463t442.5 -164q151 0 262 42.5 t184 125t107.5 196t34.5 263.5q0 189 -67.5 317t-199 192.5t-321.5 64.5t-321.5 -64.5t-199 -192.5t-67.5 -317z" />
<glyph unicode="P" horiz-adv-x="2081" d="M193 0v145h217v1115h-217v145h989q113 0 231.5 -20t226.5 -68.5t175 -132t67 -203.5q0 -117 -69 -199t-178.5 -129t-226 -65.5t-226.5 -18.5h-445v-424h217v-145h-761zM721 702h371q111 0 178.5 6t125.5 31.5t92 83.5t34 158q0 130 -56.5 191t-141.5 74.5t-232 13.5h-371 v-558z" />
<glyph unicode="Q" horiz-adv-x="2298" d="M201 690q0 193 79.5 336.5t214 234.5t303 135t351.5 44q184 0 353 -44.5t303 -135t213 -234t79 -336.5q0 -114 -36 -218t-101 -187t-155.5 -146t-198.5 -102q84 -74 178 -74q74 0 150.5 7.5t76.5 33.5q3 19 17 33t34 14q24 0 38 -16.5t14 -38.5q0 -75 -26.5 -146.5 t-74.5 -127t-112.5 -87.5t-143.5 -32q-102 0 -169.5 55t-105.5 126t-93 198q-124 -17 -240 -17q-176 0 -345 41.5t-305.5 129t-217 226.5t-80.5 328zM545 690q0 -198 79.5 -342.5t256.5 -206.5v17q0 96 82 140t186 44q91 0 168 -47.5t158 -128.5q148 71 213 208t65 316 q0 298 -153 456.5t-451 158.5q-296 0 -450 -158.5t-154 -456.5zM1004 158q0 -58 145 -58q95 0 170 15q-36 51 -75.5 77.5t-94.5 26.5q-50 0 -97.5 -13t-47.5 -48z" />
<glyph unicode="R" horiz-adv-x="2257" d="M193 0v145h217v1115h-217v145h872q168 0 308.5 -22.5t264.5 -84.5q91 -44 153 -119t62 -167q0 -120 -102.5 -198.5t-241.5 -119.5q161 -74 201 -241l33 -174q33 -191 184 -191q50 0 80.5 40t30.5 91q6 38 47 47h84q47 -10 47 -55q0 -72 -42 -129t-109 -87t-136 -30 q-148 0 -262.5 17t-199.5 83t-85 199v174q0 72 -51 118.5t-125 65.5t-145 19h-340v-496h217v-145h-745zM721 764h299q136 0 231.5 12.5t168.5 67t73 168.5q0 113 -72.5 168t-168 67.5t-232.5 12.5h-299v-496z" />
<glyph unicode="S" horiz-adv-x="1716" d="M201 6v420q6 35 41 41h96q35 -6 41 -41q0 -137 87 -206t206.5 -89t267.5 -20q85 0 167.5 21t140 71.5t57.5 134.5q0 63 -41 108.5t-100 71.5t-126 39l-393 68q-113 21 -214 71t-165.5 133t-64.5 197q0 111 51 191t134 128.5t183.5 71.5t206.5 23q280 0 447 -107l106 97 q10 10 25 10h41q35 -6 41 -41v-420q-6 -35 -41 -41h-97q-33 6 -41 41q-13 91 -57 155.5t-108.5 101.5t-145.5 54t-170 17q-78 0 -160 -18t-142 -64t-60 -123q0 -85 76.5 -130.5t181.5 -66.5l391 -67q89 -16 169 -51t145 -88t103 -126t38 -165q0 -115 -48.5 -199t-133.5 -139 t-187 -80t-207 -25q-68 0 -142.5 4t-139.5 14t-130.5 31t-123.5 52l-99 -91q-10 -10 -24 -10h-41q-35 6 -41 41z" />
<glyph unicode="T" horiz-adv-x="2132" d="M141 975l56 430h1740l56 -430h-178q-16 127 -62 187.5t-123 79t-207 18.5h-192v-1115h305v-145h-938v145h305v1115h-192q-130 0 -207 -18.5t-123 -79t-62 -187.5h-178z" />
<glyph unicode="U" horiz-adv-x="2320" d="M184 1260v145h762v-145h-217v-787q0 -107 35 -178t98.5 -111.5t144.5 -56.5t185 -16q101 0 193.5 17t166.5 56.5t120 111.5t46 177v787h-217v145h635v-145h-217v-795q0 -131 -77.5 -239.5t-201.5 -170.5q-184 -90 -446 -90h-6q-302 0 -504 101q-125 62 -204 166t-79 233 v795h-217z" />
<glyph unicode="V" horiz-adv-x="2279" d="M109 1260v145h714v-145h-161l540 -1055l541 1055h-162v145h592v-145h-205l-637 -1244q-13 -24 -35 -37.5t-49 -13.5h-213q-55 0 -84 51l-637 1244h-204z" />
<glyph unicode="W" horiz-adv-x="3105" d="M102 1260v145h697v-145h-172l432 -1018l397 938l-33 80h-188v145h696v-145h-172l432 -1018l432 1018h-192v145h573v-145h-186l-528 -1244q-9 -23 -30 -37t-48 -14h-184q-54 0 -78 51l-396 936l-397 -936q-11 -23 -31.5 -37t-46.5 -14h-184q-58 0 -78 51l-528 1244h-187z " />
<glyph unicode="X" horiz-adv-x="2279" d="M145 0v145h256l547 568l-528 547h-234v145h748v-145h-107l326 -336l324 336h-129v145h665v-145h-258l-463 -482l611 -633h233v-145h-745v145h104l-408 422l-407 -422h129v-145h-664z" />
<glyph unicode="Y" horiz-adv-x="2279" d="M109 1260v145h763v-145h-108l450 -490l453 490h-108v145h614v-145h-231l-646 -699v-416h215v-145h-743v145h217v416l-645 699h-231z" />
<glyph unicode="Z" horiz-adv-x="1882" d="M201 51v53q0 19 14 37l1024 1119h-272q-143 0 -236.5 -11.5t-167.5 -56.5q-57 -34 -100 -94t-43 -123h-178l32 430h1356q21 0 36 -14t15 -37v-45q0 -19 -14 -37l-1020 -1114h293q159 0 263 13t173 62q60 42 103 118.5t43 148.5h178l-47 -500h-1401q-21 0 -36 15t-15 36z " />
<glyph unicode="[" horiz-adv-x="897" d="M356 -512v2048h443v-176h-267v-1696h267v-176h-443z" />
<glyph unicode="\" horiz-adv-x="1575" d="M432 938q0 143 72.5 272.5t195.5 204.5q6 2 9.5 3t6.5 2t9 1q15 0 31 -10.5t26.5 -26t10.5 -30.5q0 -25 -21 -39q-89 -53 -143.5 -134t-69.5 -182q43 25 94 25q50 0 91.5 -23.5t65.5 -65.5t24 -91q0 -77 -51.5 -128.5t-129.5 -51.5q-69 0 -119 40.5t-76 103t-26 130.5z M1040 938q0 97 32.5 186.5t94.5 166t142 124.5q6 2 9.5 3.5t6 2t8.5 0.5q15 0 31 -10.5t26.5 -26t10.5 -30.5q0 -26 -21 -39q-86 -51 -142 -133t-71 -183q43 25 95 25q49 0 91 -23.5t65.5 -65.5t23.5 -91q0 -50 -23.5 -91.5t-64 -65t-92.5 -23.5q-69 0 -119.5 40.5 t-76.5 103t-26 130.5z" />
<glyph unicode="]" horiz-adv-x="897" d="M100 -336h267v1696h-267v176h443v-2048h-443v176z" />
<glyph unicode="^" d="M362 1188l414 233l414 -233l-86 -156l-328 170l-327 -170z" />
<glyph unicode="_" horiz-adv-x="893" d="M266 1257q0 71 54 118.5t126 47.5q73 0 127 -47.5t54 -118.5q0 -72 -54 -119.5t-127 -47.5q-72 0 -126 47.5t-54 119.5z" />
<glyph unicode="`" horiz-adv-x="893" d="M225 938q0 97 32.5 186.5t94.5 166t142 124.5q6 2 9.5 3.5t6 2t8.5 0.5q15 0 31 -10.5t26.5 -26t10.5 -30.5q0 -26 -21 -39q-86 -51 -142 -133t-71 -183q43 25 94 25q50 0 91.5 -23.5t65.5 -65.5t24 -91q0 -77 -51.5 -128.5t-129.5 -51.5q-69 0 -119 40.5t-76 103 t-26 130.5z" />
<glyph unicode="a" horiz-adv-x="1511" d="M125 256q0 96 93.5 157t233.5 91t269.5 39.5t243.5 9.5v49q0 107 -80 158t-193 51q-123 0 -180 -12q27 -40 27 -92q0 -46 -21 -82t-56.5 -56t-80.5 -20q-65 0 -111.5 45.5t-46.5 112.5q0 104 76.5 154t173 61.5t221.5 11.5q120 0 246 -29.5t215.5 -102.5t89.5 -192v-444 q27 -21 185 -21q41 -6 47 -47v-51q-6 -41 -47 -47h-136q-71 0 -124 6t-97.5 31.5t-54.5 77.5q-62 -78 -177 -104.5t-251 -26.5q-104 0 -211 22t-180.5 83.5t-73.5 166.5zM406 256q0 -78 78.5 -114t168.5 -36q119 0 215.5 30.5t96.5 117.5v192q-89 0 -219 -15.5t-235 -58.5 t-105 -116z" />
<glyph unicode="b" horiz-adv-x="1716" d="M168 1260v145l412 16v-581q171 86 405 86q119 0 225 -28t190.5 -85.5t134.5 -146.5t50 -211q0 -123 -56 -214.5t-151.5 -148t-208 -82.5t-227.5 -26q-227 0 -393 122l-55 -106h-179v1202q0 58 -147 58zM596 268q51 -74 135.5 -118t177.5 -44q127 0 206 35.5t117 112 t38 201.5q0 120 -31 196.5t-103.5 114t-193.5 37.5q-64 0 -128 -13.5t-121.5 -43t-96.5 -72.5v-406z" />
<glyph unicode="c" horiz-adv-x="1386" d="M133 455q0 164 94.5 272.5t241 157.5t307.5 49q197 0 330 -40.5t133 -186.5q0 -44 -21 -80.5t-57 -57t-80 -20.5q-67 0 -112 45t-45 113q0 42 22 84q-53 8 -168 8q-114 0 -187 -38.5t-107.5 -114.5t-34.5 -191q0 -119 54 -195t145 -108.5t210 -32.5q178 0 244 131 q3 7 12.5 13.5t20.5 6.5h96q17 -3 29 -15t12 -30q0 -12 -2 -16q-66 -133 -192 -179t-302 -46q-114 0 -227.5 26t-208 82t-151 147t-56.5 216z" />
<glyph unicode="d" horiz-adv-x="1716" d="M133 455q0 162 94 268.5t239 154.5t302 48q102 0 196 -20.5t175 -61.5v358q0 58 -148 58v145l412 16v-1218q0 -37 42.5 -47.5t104.5 -10.5v-145l-428 -16v98q-164 -98 -383 -98q-153 0 -292.5 50t-226.5 156.5t-87 264.5zM449 455q0 -119 30.5 -196.5t103 -115 t193.5 -37.5q103 0 195.5 44t150.5 124v402q-54 64 -138.5 95.5t-174.5 31.5q-126 0 -205.5 -35t-117 -112t-37.5 -201z" />
<glyph unicode="e" horiz-adv-x="1417" d="M117 463q0 125 55 215t145.5 145.5t204 83t228.5 27.5q123 0 222 -27t172.5 -82.5t114.5 -147.5t41 -218q0 -48 -47 -56h-819q18 -161 133.5 -222.5t294.5 -61.5q86 0 159 30.5t105 98.5q18 28 43 28h84q47 -7 47 -51q0 -8 -8 -28q-44 -86 -123.5 -133t-173.5 -63.5 t-204 -16.5q-114 0 -232.5 25.5t-220 83t-161.5 150.5t-60 220zM434 516h651q0 65 -29 129t-75 100q-84 66 -231 66t-231.5 -75t-84.5 -220z" />
<glyph unicode="f" horiz-adv-x="975" d="M150 764v145h200v199q0 121 88 195t213 104.5t248 30.5q63 0 124 -24t99.5 -71t38.5 -112t-44.5 -110.5t-108.5 -45.5q-44 0 -79.5 20.5t-56 55.5t-20.5 80q0 48 25 88q-4 -1 -6.5 -1.5t-6.5 -2.5q-72 0 -132 -22.5t-97 -70.5t-37 -122v-191h322v-145h-306v-619h185v-145 h-596v145h147v619h-200z" />
<glyph unicode="g" d="M117 -143q0 71 60 116.5t138 63.5q-73 79 -73 192q0 99 59 170q-111 89 -111 211q0 168 157 242t347 74q201 0 326 -64q127 82 276 82q47 0 88.5 -21t67 -59t25.5 -84q0 -33 -16.5 -62t-44.5 -46t-62 -17q-53 0 -88 36t-35 89q0 13 4 37q-57 -6 -117 -24q35 -37 56.5 -86 t21.5 -97q0 -116 -79.5 -186.5t-193.5 -99.5t-229 -29q-80 0 -156.5 11.5t-142.5 39.5q-8 -16 -8 -37q0 -54 43 -86.5t96 -32.5h254q176 0 309.5 -17.5t240 -91.5t106.5 -224q0 -87 -72.5 -143t-180.5 -84t-215 -37t-192 -9t-192 9t-214.5 37.5t-180 84t-72.5 142.5z M340 -143q1 -4 1.5 -7.5t0.5 -7.5q23 -78 162.5 -106.5t271.5 -28.5q139 0 287.5 32.5t148.5 121.5l2 9v3q-1 1 -4.5 3.5t-7.5 4.5q-69 66 -422 66h-254q-65 0 -125.5 -20t-60.5 -70zM455 610q0 -112 60 -152t179 -40t178.5 40t59.5 152q0 113 -59.5 153t-178.5 40t-179 -40 t-60 -153z" />
<glyph unicode="h" horiz-adv-x="1716" d="M195 0v145h147v1057q0 58 -147 58v145l411 16v-680q50 62 119 103t147 61.5t162 20.5q193 0 302.5 -67.5t109.5 -248.5v-465h147v-145h-575v145h147v457q0 70 -13 113t-50.5 65.5t-108.5 22.5q-89 0 -174.5 -34t-140.5 -101.5t-55 -159.5v-363h147v-145h-575z" />
<glyph unicode="i" horiz-adv-x="893" d="M203 0v145h147v562q0 38 -39.5 47.5t-101.5 9.5v145l405 17v-781h134v-145h-545zM272 1247q0 74 53.5 125t127.5 51q73 0 126.5 -51t53.5 -125q0 -73 -54 -124.5t-126 -51.5q-73 0 -127 51.5t-54 124.5z" />
<glyph unicode="j" horiz-adv-x="975" d="M-90 -193q0 66 46 112t112 46q41 0 78 -21t58 -57.5t21 -79.5q0 -51 -26 -90q35 -8 80 -8q82 0 134 65.5t52 147.5v785q0 37 -48 47t-114 10v145l426 17v-1012q0 -111 -72 -185t-180.5 -108.5t-216.5 -34.5q-135 0 -242.5 51t-107.5 170zM369 1247q0 74 53.5 125 t126.5 51t126.5 -51t53.5 -125q0 -73 -54 -124.5t-126 -51.5t-126 51.5t-54 124.5z" />
<glyph unicode="k" horiz-adv-x="1634" d="M168 0v145h147v1057q0 58 -147 58v145l412 16v-911l389 254h-21v145h537v-145h-191l-338 -221l428 -398h166v-145h-524v145h21l-289 269l-197 -127v-142h148v-145h-541z" />
<glyph unicode="l" horiz-adv-x="893" d="M203 0v145h147v1057q0 58 -147 58v145l411 16v-1276h148v-145h-559z" />
<glyph unicode="m" horiz-adv-x="2542" d="M190 0v150h150v555q0 36 -42.5 45.5t-107.5 9.5v149l398 19v-205q48 66 120 112.5t156.5 69.5t171.5 23q70 0 125 -6t109 -26t96 -59t61 -96q73 91 191 139t244 48q192 0 301.5 -67t109.5 -251v-460h148v-150h-580v150h148v452q0 69 -13.5 112t-51.5 65t-107 22 q-88 0 -174 -34.5t-140.5 -102t-54.5 -156.5v-358h147v-150h-579v150h149v452q0 69 -13.5 111.5t-51 65t-107.5 22.5q-89 0 -174.5 -34t-140.5 -102t-55 -157v-358h149v-150h-582z" />
<glyph unicode="n" horiz-adv-x="1716" d="M195 0v145h147v562q0 37 -42.5 47t-104.5 10v145l393 17v-209q70 102 191.5 155.5t254.5 53.5q193 0 302.5 -67.5t109.5 -248.5v-465h147v-145h-575v145h147v457q0 70 -13 113t-50.5 65.5t-108.5 22.5q-89 0 -174.5 -34t-140.5 -101.5t-55 -159.5v-363h147v-145h-575z " />
<glyph unicode="o" d="M117 442q0 131 57.5 225.5t154 153.5t211.5 86t236 27q166 0 316 -50t247 -161t97 -281q0 -163 -99.5 -266t-250.5 -147.5t-310 -44.5q-115 0 -229 24t-213.5 79t-158 142.5t-58.5 212.5zM432 473q0 -135 29.5 -211t103.5 -109.5t211 -33.5q138 0 211.5 33t103 109.5 t29.5 211.5q0 100 -16.5 163.5t-56 102t-105.5 55.5t-166 17t-165 -17t-104.5 -55.5t-57 -102t-17.5 -163.5z" />
<glyph unicode="p" horiz-adv-x="1716" d="M168 -252h147v981q0 35 -147 35v145l412 17v-86q173 86 426 86q151 0 283.5 -51.5t214 -158t81.5 -261.5q0 -123 -56 -214.5t-151.5 -148t-208 -82.5t-227.5 -26q-195 0 -346 90v-326h147v-145h-575v145zM596 266q36 -49 86 -85.5t109 -55.5t118 -19q103 0 186.5 42.5 t129 122.5t45.5 184q0 73 -23 136t-66.5 108t-103 68.5t-135.5 23.5q-102 0 -194 -29.5t-152 -93.5v-402z" />
<glyph unicode="q" horiz-adv-x="1634" d="M133 455q0 125 54.5 214.5t145.5 146t203.5 83.5t227.5 27q77 0 150.5 -16t142 -49t123.5 -81l61 146h162v-1178h147v-145h-575v145h147v330q-165 -94 -383 -94q-153 0 -292.5 50t-226.5 156.5t-87 264.5zM449 455q0 -155 87.5 -252t239.5 -97q110 0 208 48t155 137v264 q-23 71 -72.5 124t-115.5 82.5t-142 29.5q-101 0 -184 -40t-129.5 -116t-46.5 -180z" />
<glyph unicode="r" horiz-adv-x="1274" d="M168 0v145h147v562q0 37 -42.5 47t-104.5 10v145l377 17v-236q54 107 144 171.5t202 64.5q62 0 124 -22t102 -66.5t40 -110.5q0 -43 -20.5 -78t-54.5 -55.5t-78 -20.5q-43 0 -78 20.5t-55.5 55t-20.5 78.5q0 39 18 74q-68 0 -122 -37t-91 -98t-56 -128.5t-19 -131.5v-261 h184v-145h-596z" />
<glyph unicode="s" horiz-adv-x="1239" d="M133 25v262q6 35 41 41h96q24 -5 39 -29q63 -193 312 -193q65 0 135 8.5t124 38t54 85.5q0 98 -221 124l-211 31q-369 52 -369 266q0 275 488 275q166 0 253 -29l62 27q3 1 5.5 1.5t6.5 0.5h41q35 -6 41 -41v-201q-6 -35 -41 -41h-96q-35 6 -41 41q0 80 -68.5 105.5 t-169.5 25.5q-66 0 -131.5 -6.5t-121.5 -30.5t-56 -71q0 -50 56.5 -68t150.5 -31l213 -30q97 -14 181.5 -47t142 -95.5t57.5 -154.5q0 -175 -144.5 -240t-340.5 -65q-178 0 -295 57l-90 -51l-12 -4q-4 -2 -9 -2h-41q-35 6 -41 41z" />
<glyph unicode="t" horiz-adv-x="1223" d="M90 764v123q101 0 173.5 62t109.5 158.5t37 192.5h178v-391h385v-145h-385v-514q0 -68 30 -99.5t97 -31.5q54 0 91.5 38.5t37.5 92.5v92h178v-100q0 -85 -53.5 -143t-134.5 -86.5t-164 -28.5q-94 0 -175.5 23t-134.5 80.5t-53 154.5v522h-217z" />
<glyph unicode="u" horiz-adv-x="1716" d="M195 764v145l428 17v-695q0 -37 5.5 -62t24.5 -38q60 -25 197 -25q114 0 214.5 48.5t100.5 152.5v400q0 37 -42.5 47t-104.5 10v145l428 17v-723q0 -37 42.5 -47.5t104.5 -10.5v-145l-411 -16v127q-68 -66 -167.5 -96.5t-209.5 -30.5q-78 0 -153.5 6t-148.5 29.5t-117 73 t-44 130.5v484q0 37 -42.5 47t-104.5 10z" />
<glyph unicode="v" horiz-adv-x="1634" d="M109 764v145h542v-145h-92l307 -592l308 592h-93v145h447v-145h-154l-379 -729q-11 -23 -34 -37t-50 -14h-186q-61 0 -84 51l-379 729h-153z" />
<glyph unicode="w" horiz-adv-x="2212" d="M102 764v145h529v-145h-105l240 -563l238 563h-125v145h473v-145h-105l266 -629l267 629h-119v145h450v-145h-139l-307 -729q-9 -23 -31 -37t-47 -14h-184q-55 0 -78 51l-217 518l-219 -518q-25 -51 -78 -51h-184q-58 0 -78 51l-307 729h-140z" />
<glyph unicode="x" horiz-adv-x="1634" d="M117 0v145h198l349 314l-340 305h-191v145h526v-145h-18l182 -164l181 164h-25v145h491v-145h-198l-316 -283l373 -336h191v-145h-527v145h19l-215 193l-213 -193h24v-145h-491z" />
<glyph unicode="y" horiz-adv-x="1634" d="M92 -188q0 64 43.5 106.5t106.5 42.5q42 0 76.5 -19t53.5 -53.5t19 -76.5q0 -63 -37 -103h11q106 0 197 36t134 118l72 137l-487 764h-162v145h553v-145h-80l317 -496l262 496h-92v145h447v-145h-154l-475 -901q-47 -92 -131 -154.5t-187.5 -92.5t-213.5 -30 q-66 0 -129.5 27.5t-103.5 79t-40 119.5z" />
<glyph unicode="z" horiz-adv-x="1386" d="M117 51v39q0 23 14 37l688 659h-114q-112 0 -182 -10t-123.5 -54.5t-63.5 -137.5h-178l32 325h981q23 0 37.5 -15t14.5 -36v-31q0 -22 -15 -36l-684 -656h129q128 0 202 11.5t129 63.5t69 163h178l-47 -373h-1016q-21 0 -36 15t-15 36z" />
<glyph unicode="{" d="M35 500v123h1483v-123h-1483z" />
<glyph unicode="|" horiz-adv-x="3105" d="M70 500v123h2967v-123h-2967z" />
<glyph unicode="}" d="M389 1190l154 199q45 59 110 59q39 0 74 -22t56.5 -58t21.5 -74q0 -77 -80 -120l-219 -119zM885 1190l153 199q47 59 111 59q60 0 105.5 -47t45.5 -107q0 -78 -79 -120l-220 -119z" />
<glyph unicode="~" d="M283 1176l139 122q138 123 235 123q48 0 98 -30.5t99 -61.5t98 -31q98 0 236 123l82 -92l-140 -123q-139 -123 -235 -123q-48 0 -97.5 31t-99.5 61.5t-98 30.5q-100 0 -235 -123z" />
<glyph unicode="&#xa1;" horiz-adv-x="1837" d="M184 0v145h217v1115h-217v145h1415l80 -430h-178q-25 134 -93 196t-156.5 75.5t-243.5 13.5h-279v-1115h270v-145h-815z" />
<glyph unicode="&#xa2;" horiz-adv-x="2542" d="M186 33q0 10 7 18l874 1354q33 51 94 51h221q60 0 95 -51l874 -1354q6 -9 6 -18q0 -15 -10 -24t-23 -9h-2105q-12 0 -22.5 9.5t-10.5 23.5zM584 287h1224l-612 946z" />
<glyph unicode="&#xa3;" horiz-adv-x="2378" d="M201 690q0 106 31.5 206.5t93 188t145.5 150.5q144 110 326 157.5t393 47.5q210 0 393 -48t324 -157q84 -63 145.5 -150.5t93 -188t31.5 -206.5q0 -157 -71 -295t-199 -231q-268 -199 -717 -199q-101 0 -197 10.5t-187.5 33.5t-175.5 61.5t-159 93.5q-82 58 -144 143 t-94 183t-32 200zM526 690q0 -201 82 -334.5t231.5 -197.5t350.5 -64q199 0 348 63.5t231 197.5t82 335q0 206 -79.5 347.5t-229 210.5t-352.5 69q-205 0 -355 -69.5t-229.5 -210.5t-79.5 -347zM694 494v426h178v-70h633v70h178v-426h-178v69h-633v-69h-178z" />
<glyph unicode="&#xa4;" horiz-adv-x="2116" d="M143 0v145h189l542 1260q25 51 78 51h211q55 0 78 -51l543 -1260h188v-145h-717v145h172l-438 1016l-438 -1016h170v-145h-578z" />
<glyph unicode="&#xa5;" horiz-adv-x="2048" d="M158 403h178q4 -94 35 -131q6 -5 94 -7.5t219 -2.5h680q131 0 218.5 2.5t94.5 7.5q31 37 35 131h178l-24 -403h-1684zM174 1016l25 389h1650l25 -389h-178q-4 84 -35 117h-1274q-31 -33 -35 -117h-178zM446 498v467h179v-103h798v103h179v-467h-179v102h-798v-102h-179z " />
<glyph unicode="&#xa6;" horiz-adv-x="2359" d="M184 0v145h217v1115h-217v145h1993v-145h-217v-1115h217v-145h-762v145h217v1115h-903v-1115h217v-145h-762z" />
<glyph unicode="&#xa7;" horiz-adv-x="2212" d="M201 51q0 26 14 37l696 545l-694 641q-16 16 -16 33v51q6 41 47 47h1685l80 -430h-178q-20 101 -100 161t-186 85.5t-210.5 32t-238.5 6.5h-385l565 -521q14 -11 14 -37t-14 -34l-621 -488h474q178 0 312.5 14t249.5 77t140 194h178l-80 -465h-1685q-19 3 -33 17t-14 34z " />
<glyph unicode="&#xa8;" horiz-adv-x="2378" d="M201 1124q0 79 40.5 140.5t105 99.5t143 57t151.5 19q105 0 194.5 -39t158 -106.5t120 -158.5t76.5 -186q28 100 77.5 188t118.5 156t158.5 107t194.5 39q102 0 203 -34.5t168 -106t67 -175.5q0 -21 -15 -36t-36 -15h-98q-20 0 -36 15t-16 36q0 45 -237 45 q-89 0 -161.5 -40.5t-121.5 -107.5t-75.5 -151t-26.5 -168v-557h270v-145h-868v145h270v557q0 112 -46.5 221.5t-134.5 177.5t-204 68q-78 0 -159 -8t-81 -37q0 -22 -15 -36.5t-36 -14.5h-98q-21 0 -36 15t-15 36z" />
<glyph unicode="&#xa9;" horiz-adv-x="2212" d="M201 702q0 120 133 197t307 111t303 34v216h-270v145h833v-145h-270v-213q94 0 222 -17t256 -56.5t213 -107t85 -164.5q0 -96 -86.5 -164t-217 -107.5t-260 -56t-212.5 -16.5v-213h270v-145h-833v145h270v215q-122 0 -298 33.5t-310.5 110.5t-134.5 198zM545 702 q0 -88 65.5 -137t153.5 -66.5t180 -17.5v443q-92 0 -180 -17.5t-153.5 -67t-65.5 -137.5zM1237 481q432 0 432 221q0 133 -132 177.5t-300 44.5v-443z" />
<glyph unicode="&#xaa;" horiz-adv-x="2378" d="M201 1020v29q6 41 47 47h198q62 0 115.5 -35.5t84 -93t30.5 -119.5q0 -162 92 -250.5t258 -110.5v773h-270v145h833v-145h-270v-775q176 21 279.5 108t103.5 255q0 62 30.5 119.5t84 93t114.5 35.5h199q41 -6 47 -47v-29q-6 -41 -47 -47q-58 0 -96.5 -38.5t-38.5 -94.5 q0 -124 -61.5 -216.5t-163.5 -151.5t-220 -86.5t-231 -27.5v-213h270v-145h-833v145h270v215q-152 0 -301.5 52t-245.5 160.5t-96 267.5q0 56 -38.5 94.5t-96.5 38.5q-41 6 -47 47z" />
<glyph unicode="&#xad;" horiz-adv-x="2212" d="M166 393h178q23 -76 40.5 -102t52.5 -32.5t130 -6.5h111q-45 67 -118.5 138.5t-169.5 167t-142.5 184t-46.5 196.5q0 143 100.5 249t245.5 163q223 90 557 90h8q332 0 555 -90q93 -37 171 -95t126.5 -138t48.5 -177v-4q0 -107 -47.5 -196.5t-135.5 -177.5t-168 -164.5 t-126 -145.5h111q95 0 130 6.5t52.5 32.5t40.5 102h178l-96 -393h-557q-21 3 -34 18.5t-13 36.5q0 112 38.5 211.5t114.5 239t114 234t38 196.5q0 142 -80 227t-201.5 119.5t-263.5 34.5q-143 0 -265 -34.5t-202 -119.5t-80 -227q0 -102 36.5 -193t113 -231t116 -242.5 t39.5 -214.5q0 -23 -13.5 -37.5t-33.5 -17.5h-557z" />
<glyph unicode="&#xae;" horiz-adv-x="1868" d="M115 764v145h200v199q0 103 82.5 169.5t208.5 101.5t248 47t227 12q191 0 293 -80q149 80 381 80q63 0 124.5 -24t100.5 -71t39 -112t-44.5 -110.5t-108.5 -45.5q-44 0 -79.5 20.5t-56 55.5t-20.5 80q0 43 23 84h-17q-111 0 -186.5 -54.5t-75.5 -160.5v-191h324v-145 h-308v-619h185v-145h-596v145h147v619h-626v-619h147v-145h-559v145h147v619h-200zM563 909h643v164q-67 43 -67 131q0 54 28 94q-61 17 -151 17q-91 0 -194 -17.5t-181 -65.5t-78 -132v-191z" />
<glyph unicode="&#xaf;" horiz-adv-x="1786" d="M115 764v145h200v199q0 133 138 207t314.5 98.5t324.5 24.5q66 0 131.5 -15.5t118.5 -47t87.5 -83t34.5 -121.5q0 -68 -45.5 -114.5t-113.5 -46.5q-69 0 -115.5 46.5t-46.5 114.5t47 115q-70 29 -164 29q-91 0 -196.5 -17.5t-186 -65t-80.5 -132.5v-191h496v4l411 19 v-787h148v-145h-559v145h147v568q0 43 -37 51h-589v-619h147v-145h-559v145h147v619h-200z" />
<glyph unicode="&#xb0;" horiz-adv-x="1786" d="M115 764v145h200v199q0 103 82.5 169.5t208.5 101.5t248 47t227 12q134 0 213 -27l176 10v-1276h148v-145h-559v145h147v619h-626v-619h147v-145h-559v145h147v619h-200zM563 909h643v191q-67 42 -67 131q0 38 18 76q-60 8 -139 8q-158 0 -306.5 -46.5t-148.5 -168.5 v-191z" />
<glyph unicode="&#xb1;" horiz-adv-x="2679" d="M115 764v145h200v199q0 103 82.5 169.5t208.5 101.5t248 47t227 12q58 0 112 -11t102.5 -34.5t86.5 -61.5q128 63 276 85t327 22q66 0 131.5 -15.5t118.5 -47t87.5 -83t34.5 -121.5q0 -68 -45.5 -114.5t-113.5 -46.5q-69 0 -115.5 46.5t-46.5 114.5t47 115 q-70 29 -164 29q-91 0 -196.5 -17.5t-186 -65t-80.5 -132.5v-191h496v4l411 19v-787h148v-145h-559v145h147v568q0 43 -37 51h-589v-619h147v-145h-559v145h147v619h-628v-619h147v-145h-559v145h147v619h-200zM563 909h645v121q-37 20 -58.5 58.5t-21.5 82.5q0 69 48 117 q-74 27 -158 27q-93 0 -195 -17t-181 -66t-79 -132v-191z" />
<glyph unicode="&#xb2;" horiz-adv-x="2679" d="M115 764v145h200v199q0 103 82.5 169.5t208.5 101.5t248 47t227 12q215 0 314 -99q80 39 176.5 61.5t191 30t211.5 7.5q134 0 213 -27l176 10v-1276h148v-145h-559v145h147v619h-626v-619h147v-145h-559v145h147v619h-628v-619h147v-145h-559v145h147v619h-200zM563 909 h645v164q-67 43 -67 131q0 58 28 94q-56 17 -151 17q-158 0 -306.5 -46.5t-148.5 -168.5v-191zM1456 909h643v191q-67 42 -67 131q0 38 18 76q-60 8 -139 8q-158 0 -306.5 -46.5t-148.5 -168.5v-191z" />
<glyph unicode="&#xb3;" horiz-adv-x="893" d="M203 0v145h147v562q0 38 -39.5 47.5t-101.5 9.5v145l405 17v-781h134v-145h-545z" />
<glyph unicode="&#xb4;" horiz-adv-x="975" d="M-90 -193q0 66 46 112t112 46q41 0 78 -21t58 -57.5t21 -79.5q0 -51 -26 -90q35 -8 80 -8q82 0 134 65.5t52 147.5v785q0 37 -48 47t-114 10v145l426 17v-1012q0 -111 -72 -185t-180.5 -108.5t-216.5 -34.5q-135 0 -242.5 51t-107.5 170z" />
<glyph unicode="&#xb5;" d="M344 1282q0 57 40 104.5t99 47.5q37 0 78 -25l342 -205l-72 -164l-382 113q-46 12 -75.5 46.5t-29.5 82.5z" />
<glyph unicode="&#xb6;" d="M649 1204l342 205q42 25 78 25q59 0 99 -47t40 -105q0 -48 -28.5 -82.5t-75.5 -46.5l-383 -113z" />
<glyph unicode="&#xb8;" d="M303 1421h123q0 -110 110 -154t240 -44t240 44t110 154h123q0 -87 -42 -158.5t-110.5 -119t-152.5 -72t-168 -24.5q-113 0 -222 43.5t-180 128.5t-71 202z" />
<glyph unicode="&#xb9;" d="M242 1143v153h1069v-153h-1069z" />
<glyph unicode="&#xba;" horiz-adv-x="2279" d="M811 1286q0 66 56 104t131 52t143 14q67 0 142 -14t131 -52t56 -104q0 -95 -106.5 -133.5t-222.5 -38.5q-117 0 -223.5 38.5t-106.5 133.5zM977 1286q0 -56 43 -71t121 -15t121 15t43 71q0 55 -43 69.5t-121 14.5t-121 -14.5t-43 -69.5z" />
<glyph unicode="&#xbb;" horiz-adv-x="1386" d="M389 -322q160 0 328 16.5t168 76.5q0 94 -248 94v123q92 0 174.5 -5.5t161.5 -24t135.5 -65t56.5 -122.5q0 -75 -89.5 -119.5t-219.5 -65t-244 -25.5t-223 -5v122z" />
<glyph unicode="&#xbc;" horiz-adv-x="1561" d="M168 0v145h147v619h-147v145h147v238q0 84 52 141.5t131 89.5t165.5 46t167.5 14q111 0 233.5 -26t209 -92t86.5 -177q0 -68 -31.5 -126.5t-83.5 -101.5t-117 -71q75 -34 132.5 -81.5t99 -109.5t63 -133.5t21.5 -154.5q0 -134 -79 -219.5t-199 -123.5t-248 -38 q-98 0 -176 57t-78 154q0 55 37 92t94 37q36 0 65 -17.5t46.5 -46t17.5 -65.5q0 -52 -29 -84q0 -1 12 -3t13 -2q82 0 133.5 31t75.5 88.5t24 139.5q0 194 -88.5 307.5t-278.5 113.5q-33 8 -41 41v41q8 35 41 41q283 0 283 234q0 172 -238 172q-251 0 -251 -176v-1139h-412z " />
<glyph unicode="&#xbd;" horiz-adv-x="2212" d="M141 242q0 71 54 116t121.5 66t156.5 39q183 37 494 41v98q0 107 -81 158t-194 51q-60 0 -101 -2t-79 -10q27 -40 27 -92q0 -44 -21 -80.5t-57 -57t-80 -20.5q-66 0 -112 45t-46 113q0 104 76.5 154t173 61.5t221.5 11.5q306 0 451 -125q181 125 448 125q155 0 269 -52.5 t174.5 -158.5t60.5 -264q0 -48 -47 -56h-799q22 -157 145.5 -220.5t301.5 -63.5q76 0 136 32.5t91 98.5q5 12 16.5 19t24.5 7h84q47 -7 47 -51q0 -10 -4 -22q-105 -219 -459 -219q-91 0 -172.5 12t-159.5 40t-143 73q-40 -43 -107.5 -69t-150 -38t-154.5 -15t-163 -3 q-76 0 -150 10.5t-141.5 38.5t-109.5 79t-42 130zM422 240q0 -71 75.5 -102.5t157.5 -31.5q351 0 351 144q0 31 -15.5 80t-17.5 61q-160 0 -355.5 -34.5t-195.5 -116.5zM1249 516h633q0 87 -34.5 155t-100 104t-154.5 36q-94 0 -173.5 -31.5t-125 -98t-45.5 -165.5z" />
<glyph unicode="&#xbe;" horiz-adv-x="2378" d="M117 463q0 163 96 269.5t245.5 154t305.5 47.5q333 0 504 -158q92 85 218.5 121.5t270.5 36.5q239 0 371.5 -120t132.5 -355q0 -48 -47 -56h-799q22 -157 145.5 -220.5t301.5 -63.5q76 0 136 32.5t91 98.5q5 12 16.5 19t24.5 7h84q47 -7 47 -51q0 -10 -4 -22 q-105 -219 -459 -219q-345 0 -526 163q-171 -163 -508 -163q-161 0 -308.5 48.5t-243 157.5t-95.5 273zM397 473q0 -189 89 -278t278 -89t277.5 88.5t88.5 278.5q0 180 -91.5 259t-274.5 79q-184 0 -275.5 -79t-91.5 -259zM1413 516h633q0 88 -34.5 155t-100 103.5 t-154.5 36.5q-94 0 -173.5 -31.5t-125 -98t-45.5 -165.5z" />
<glyph unicode="&#xbf;" d="M117 442q0 131 57.5 225.5t154 153.5t211.5 86t236 27q152 0 275 -35l196 250l96 -78l-174 -217q125 -64 196 -171t71 -241q0 -163 -99.5 -266t-250.5 -147.5t-310 -44.5q-153 0 -270 30l-201 -252l-96 78l174 219q-119 56 -192.5 156.5t-73.5 226.5zM397 442 q0 -54 5.5 -99.5t24 -88t54.5 -72.5l482 606q-73 23 -187 23q-141 0 -223 -34.5t-119 -114t-37 -220.5zM592 125q70 -19 184 -19q101 0 171.5 15.5t115.5 51.5t68.5 102.5t23.5 166.5q0 99 -15.5 168.5t-68.5 116.5z" />
<glyph unicode="&#xc0;" horiz-adv-x="2740" d="M145 0v145h211l516 1115h-90v145h1680l80 -430h-179q-25 134 -93.5 196t-158 75.5t-245.5 13.5h-287v-510h139q92 0 152 8.5t102.5 46t42.5 115.5h178v-486h-178q0 113 -78 141.5t-219 28.5h-139v-459h315q174 0 271 18.5t170 90t112 223.5h179l-119 -477h-1403v145h162 v459h-475l-213 -459h167v-145h-600zM858 750h408v510h-172z" />
<glyph unicode="&#xc1;" horiz-adv-x="3072" d="M236 690q0 106 31.5 206.5t93 188t145.5 150.5q73 56 160 96.5t176.5 64t184.5 34t196 10.5q80 0 245 -17.5t236 -17.5h1087l80 -430h-178q-25 133 -99 195.5t-169 76t-254 13.5h-320v-459h195q151 0 246.5 30t95.5 140h178v-486h-178q0 112 -95.5 141t-246.5 29h-195 v-510h349q126 0 212.5 8t158.5 39.5t125 100.5t81 184h178l-119 -477h-1132q-61 0 -121 -5t-120 -12t-122.5 -12.5t-117.5 -5.5q-449 0 -717 199q-82 58 -144 143t-94 183t-32 200zM580 731q0 -143 45 -261.5t131.5 -205t205 -131.5t261.5 -45q154 0 223.5 34t88.5 108.5 t19 238.5v467q0 164 -19 238.5t-88.5 108.5t-223.5 34q-134 0 -252.5 -39t-205 -113t-136 -184.5t-49.5 -249.5z" />
<glyph unicode="&#xc2;" horiz-adv-x="2378" d="M201 690q0 106 31.5 206.5t93 188t145.5 150.5q144 110 326 157.5t393 47.5q276 0 485 -78l164 188l103 -90l-138 -157q114 -63 198.5 -156.5t129.5 -210t45 -246.5q0 -157 -71 -295t-199 -231q-268 -199 -717 -199q-277 0 -490 76l-161 -186l-103 90l135 153 q-170 94 -270 248.5t-100 343.5zM528 690q0 -319 160 -457l885 1012q-153 72 -383 72q-224 0 -369.5 -63.5t-219 -202.5t-73.5 -361zM803 158q80 -38 179.5 -54t207.5 -16q161 0 283 32t206.5 104t127 186.5t42.5 279.5q0 155 -35 277.5t-128 201.5z" />
<glyph unicode="&#xc3;" horiz-adv-x="893" d="M98 690l742 127l24 -143l-741 -127z" />
<glyph unicode="&#xc4;" d="M326 1262q0 67 47 114t116 47q36 0 64.5 -13t50 -34.5t34.5 -50t13 -63.5q0 -68 -47 -116t-115 -48q-69 0 -116 48t-47 116zM901 1262q0 65 48 113t116 48q34 0 63.5 -13t51 -34.5t34.5 -50t13 -63.5q0 -68 -47 -116t-115 -48t-116 49t-48 115z" />
<glyph unicode="&#x2000;" horiz-adv-x="775" />
<glyph unicode="&#x2001;" horiz-adv-x="1550" />
<glyph unicode="&#x2002;" horiz-adv-x="775" />
<glyph unicode="&#x2003;" horiz-adv-x="1550" />
<glyph unicode="&#x2004;" horiz-adv-x="516" />
<glyph unicode="&#x2005;" horiz-adv-x="387" />
<glyph unicode="&#x2006;" horiz-adv-x="258" />
<glyph unicode="&#x2007;" horiz-adv-x="258" />
<glyph unicode="&#x2008;" horiz-adv-x="193" />
<glyph unicode="&#x2009;" horiz-adv-x="310" />
<glyph unicode="&#x200a;" horiz-adv-x="86" />
<glyph unicode="&#x2010;" horiz-adv-x="1057" d="M68 328v254h790v-254h-790z" />
<glyph unicode="&#x2011;" horiz-adv-x="1057" d="M68 328v254h790v-254h-790z" />
<glyph unicode="&#x2012;" horiz-adv-x="1057" d="M68 328v254h790v-254h-790z" />
<glyph unicode="&#x2013;" horiz-adv-x="1291" d="M68 328v254h1024v-254h-1024z" />
<glyph unicode="&#x2014;" horiz-adv-x="2315" d="M68 328v254h2048v-254h-2048z" />
<glyph unicode="&#x202f;" horiz-adv-x="310" />
<glyph unicode="&#x205f;" horiz-adv-x="387" />
<glyph unicode="&#x2219;" d="M375 1210l61 168l340 -112l340 112l62 -168l-402 -163z" />
<glyph unicode="&#xe000;" horiz-adv-x="910" d="M0 910h910v-910h-910v910z" />
</font>
</defs>
</svg>
