<?xml version="1.0" standalone="no"?>
<!DOCTYPE svg PUBLIC "-//W3C//DTD SVG 1.1//EN" "http://www.w3.org/Graphics/SVG/1.1/DTD/svg11.dtd" >
<svg xmlns="http://www.w3.org/2000/svg">
<metadata>
This is a custom SVG webfont generated by Font Squirrel.
Copyright   : Copyright C 1994 Basil K Malyshev All Rights Reserved012BaKoMa Fonts Collection LevelB
</metadata>
<defs>
<font id="cmbxti10Regular" horiz-adv-x="1210" >
<font-face units-per-em="2048" ascent="1638" descent="-410" />
<missing-glyph horiz-adv-x="848" />
<glyph unicode=" "  horiz-adv-x="848" />
<glyph unicode="&#x09;" horiz-adv-x="848" />
<glyph unicode="&#xa0;" horiz-adv-x="848" />
<glyph unicode="!" horiz-adv-x="791" d="M276 127q0 72 58 127t131 55q55 0 92 -35.5t37 -91.5q0 -47 -27 -89t-70 -67.5t-91 -25.5q-54 0 -92 36t-38 91zM457 487l110 818q10 65 66 108t121 43q53 0 91 -32t38 -85q0 -27 -9 -49l-296 -817q-7 -14 -25 -18h-72q-24 7 -24 32z" />
<glyph unicode="&#x22;" horiz-adv-x="1270" d="M383 760q0 15 12 24q97 63 172 156.5t109 202.5q-46 -31 -101 -31q-54 0 -90 33.5t-36 87.5q0 48 26 92t69.5 70t94.5 26q47 0 78 -24t46 -63t15 -85q0 -143 -102.5 -292.5t-235.5 -235.5q-6 -6 -16 -6q-15 0 -28 15t-13 30zM872 760q0 14 13 24q97 63 171.5 157 t108.5 202q-44 -31 -100 -31q-55 0 -91 33.5t-36 87.5q0 48 26 92t69.5 70t94.5 26q46 0 77.5 -23.5t47 -63t15.5 -85.5q0 -143 -102.5 -292.5t-235.5 -235.5q-6 -6 -17 -6q-13 0 -27 15t-14 30z" />
<glyph unicode="#" horiz-adv-x="1933" d="M256 285q0 23 16.5 40.5t40.5 22.5h385l174 332h-444q-25 3 -41 20t-16 41q0 25 15.5 42t41.5 22h514l309 588q23 28 54 28q26 0 44.5 -17.5t18.5 -43.5q0 -16 -10 -33l-275 -522h338l310 588q21 28 53 28q25 0 44 -18t19 -43q0 -16 -10 -33l-274 -522h313q25 -4 42 -21 t17 -43q0 -25 -17.5 -41.5t-41.5 -19.5h-383l-174 -332h442q27 -5 43.5 -22t16.5 -41q0 -25 -17 -42t-43 -20h-510l-313 -592q-21 -28 -53 -28q-25 0 -44.5 17.5t-19.5 43.5q0 16 10 33l279 526h-338l-313 -592q-23 -28 -53 -28q-25 0 -44.5 17.5t-19.5 43.5q0 16 10 33 l279 526h-318q-23 3 -40 20t-17 42zM840 348h338l174 332h-338z" />
<glyph unicode="$" horiz-adv-x="1778" d="M207 82q0 66 50 111.5t122 68.5t135 23q51 0 104 -11q14 45 23 84l76 301h-123q-25 9 -25 33l13 56q4 11 24 16h137l78 313q28 114 102.5 198t180 129.5t219.5 45.5q126 0 205.5 -83t79.5 -210q0 -88 -38 -151.5t-122 -63.5q-43 0 -74 28t-31 68q0 57 42.5 104.5 t99.5 47.5q0 75 -47.5 126.5t-120.5 51.5q-85 0 -139.5 -45t-83.5 -110t-52 -158l-71 -291h182q27 -8 27 -31l-15 -55q-2 -11 -22 -19h-199l-80 -315q-14 -61 -55 -129q129 -49 189.5 -67.5t138.5 -18.5q54 0 111.5 18.5t99.5 56.5t57 93q2 11 22 16h72q27 -8 27 -28 q0 -2 -2 -11q-23 -91 -97 -157t-171.5 -99.5t-190.5 -33.5q-59 0 -121 14t-118 34t-136 52q-129 -100 -321 -100q-63 0 -112.5 22.5t-49.5 75.5zM348 86q0 -20 27 -20q44 0 86.5 16.5t75.5 48.5q-41 8 -95 8q-31 0 -62.5 -13t-31.5 -40z" />
<glyph unicode="%" horiz-adv-x="1933" d="M352 -53q0 26 15 41l1230 1286q-96 -31 -200 -31q-168 0 -310 82q1 -11 2 -23.5t1 -19.5q0 -82 -26.5 -181.5t-78 -188t-126.5 -145t-167 -56.5q-115 0 -180.5 76.5t-65.5 193.5q0 94 31 191.5t87.5 179.5t138.5 133t182 51q50 0 84.5 -19.5t84.5 -62.5t70 -55 q127 -76 275 -76q104 0 204 38t177 103l47 49q18 23 47 23q26 0 44.5 -18.5t18.5 -42.5q0 -27 -14 -41l-1460 -1526q-23 -23 -49 -23q-27 0 -44.5 18.5t-17.5 43.5zM631 887q0 -35 17 -64.5t50 -29.5q78 0 140.5 91t97.5 213t35 199q0 41 -10 78q-21 80 -82 80 q-59 0 -101 -60t-62 -123t-44 -159q-39 -150 -41 -225zM1202 156q0 93 30.5 190.5t87.5 180.5t138.5 133.5t181.5 50.5q102 0 153.5 -73.5t51.5 -180.5q0 -115 -47.5 -250t-138.5 -228.5t-211 -93.5q-115 0 -180.5 76.5t-65.5 194.5zM1389 61q0 -37 15.5 -65.5t49.5 -28.5 q79 0 141.5 92t96.5 213.5t34 198.5q0 62 -20 110t-72 48q-59 0 -100.5 -59t-62 -123t-44.5 -160q-15 -60 -26.5 -122t-11.5 -104z" />
<glyph unicode="&#x26;" horiz-adv-x="1812" d="M289 371q0 106 55 228.5t131 203.5q-16 47 -16 110q0 135 63 261.5t173.5 204t246.5 77.5q70 0 131 -28.5t97 -80.5t36 -122q0 -76 -41 -129.5t-114 -53.5q-44 0 -73.5 27t-29.5 70q0 54 36 95.5t89 51.5q-16 43 -53.5 65.5t-83.5 22.5q-78 0 -132 -75t-79 -160.5 t-49 -202.5q85 29 164 29q65 0 107 -35t42 -99q0 -60 -30 -108t-81.5 -76.5t-109.5 -28.5q-88 0 -162 35q-74 -215 -74 -338q0 -102 54.5 -161.5t140 -83t186.5 -23.5q86 0 169.5 11t162.5 40.5t139 77.5q58 49 104 121t70.5 151t24.5 154q0 134 -98 270q-109 -56 -167 -98 t-58 -108q45 69 126 69q45 0 75 -27t30 -73q0 -40 -21 -75t-57.5 -56t-75.5 -21q-80 0 -140 47.5t-60 126.5q0 60 30.5 110t75 87t109.5 76q51 30 98 59t77.5 50.5t63 53t60.5 72.5l4 9q-35 8 -56.5 34t-21.5 60q0 41 21.5 76.5t58.5 56t76 20.5q43 0 73.5 -27.5t30.5 -70.5 q0 -59 -37.5 -132.5t-93.5 -140.5t-111 -108q113 -160 113 -328q0 -93 -29 -183t-83 -169.5t-126 -136.5q-198 -160 -563 -160q-148 0 -289 35.5t-235 127t-94 243.5zM668 780q10 -36 39.5 -58t66.5 -22q35 0 56.5 25.5t31.5 60.5t10 66t-38 31q-87 0 -166 -103z" />
<glyph unicode="'" horiz-adv-x="727" d="M459 760q0 15 12 24q97 63 172 156.5t109 202.5q-46 -31 -101 -31q-54 0 -90.5 33.5t-36.5 87.5q0 77 56.5 132.5t134.5 55.5q47 0 78 -24t46 -63t15 -85q0 -143 -102.5 -292.5t-235.5 -235.5q-6 -6 -16 -6q-15 0 -28 15t-13 30z" />
<glyph unicode="(" horiz-adv-x="969" d="M340 147q0 197 52.5 396.5t153 386.5t241 342.5t305.5 259.5q3 2 14 4h31q24 -7 24 -29q0 -12 -6 -18q-97 -79 -180 -176t-148 -205q-67 -112 -123 -245t-97.5 -279t-64 -286.5t-22.5 -268.5q0 -292 137 -492q7 -8 7 -18q0 -22 -25 -29h-31q-10 2 -18 8 q-250 239 -250 649z" />
<glyph unicode=")" horiz-adv-x="969" d="M63 -481q0 12 9 18q96 78 175.5 171.5t149.5 209.5q65 107 122.5 242t98 275t64 287t23.5 275q0 295 -136 492q-8 8 -8 18q0 23 27 29h30q12 -3 19 -8q248 -240 248 -649q0 -196 -54 -399.5t-152.5 -386.5t-238.5 -338.5t-307 -260.5q-2 -2 -12 -4h-31q-27 8 -27 29z" />
<glyph unicode="*" d="M424 881q0 30 18.5 57.5t46.5 36.5l297 106l-243 107q-31 12 -31 49q0 43 37 81t82 38q24 0 39 -15l180 -182l29 289q0 37 36 62.5t74 25.5q29 0 50.5 -17.5t21.5 -43.5q0 -19 -4 -27l-117 -289l270 182q23 15 47 15q32 0 52 -21.5t20 -52.5t-19 -58t-48 -36l-297 -107 l243 -106q31 -12 31 -49q0 -28 -17 -56.5t-45.5 -45.5t-56.5 -17q-24 0 -39 14l-180 183l-29 -287q0 -24 -18 -45.5t-43.5 -33t-48.5 -11.5q-28 0 -50 16.5t-22 44.5q0 19 4 29l117 287l-270 -183q-24 -14 -47 -14q-31 0 -50.5 21t-19.5 53z" />
<glyph unicode="+" horiz-adv-x="1812" d="M313 514q0 26 16 42t42 19h616l154 611q6 20 22.5 34.5t38.5 14.5q26 0 44 -18t18 -43v-13l-148 -586h584q25 -3 42 -19t17 -42t-17 -43t-42 -20h-615l-151 -611q-6 -20 -23 -34.5t-39 -14.5q-27 0 -45 18t-18 44q0 2 2 12l145 586h-585q-26 3 -42 20t-16 43z" />
<glyph unicode="," horiz-adv-x="727" d="M180 -352q0 15 13 24q95 64 167 156.5t107 196.5q-43 -25 -94 -25q-55 0 -91 33.5t-36 87.5q0 76 57 132t133 56q65 0 99 -49.5t34 -118.5q0 -95 -47.5 -198.5t-123.5 -190.5t-160 -145q-10 -4 -17 -4q-13 0 -27 15t-14 30z" />
<glyph unicode="-" horiz-adv-x="848" d="M186 397l33 133q11 20 31 25h510q33 -9 33 -41l-33 -133q-13 -23 -31 -25h-510q-33 6 -33 41z" />
<glyph unicode="." horiz-adv-x="727" d="M246 125q0 48 27.5 90.5t71.5 68t91 25.5q54 0 90.5 -35.5t36.5 -89.5q0 -48 -27.5 -90.5t-71.5 -68t-91 -25.5q-53 0 -90 36t-37 89z" />
<glyph unicode="/" d="M72 -451q0 16 10 33l1196 1925q20 29 53 29q28 0 46 -18t18 -43q0 -17 -11 -33l-1196 -1925q-20 -29 -53 -29q-25 0 -44 19t-19 42z" />
<glyph unicode="0" d="M231 328q0 91 23 213.5t64 245t95 226t119 171.5q84 84 189 127t223 43q363 0 363 -367q0 -91 -21.5 -211.5t-62 -243t-96 -228.5t-119.5 -173q-80 -81 -187.5 -123.5t-224.5 -42.5q-181 0 -273 90.5t-92 272.5zM451 217q0 -72 47.5 -121t117.5 -49t136 42.5t104 103.5 q24 40 51.5 121.5t51 167t53.5 204.5q11 45 34 142.5t35.5 170.5t12.5 111q0 74 -48 118t-122 44q-71 0 -134.5 -38t-101.5 -97q-34 -54 -68.5 -168.5t-76.5 -282.5q-45 -182 -68.5 -291t-23.5 -178z" />
<glyph unicode="1" d="M254 41l10 39q8 18 31 24q76 0 127.5 1.5t101.5 5.5l234 931q-131 -57 -248 -57q-19 0 -30 11t-11 30l10 39q11 19 31 25q136 0 261.5 69.5t215.5 181.5q5 8 25 13h20q33 -9 33 -41l-301 -1204q72 -5 217 -5q33 -10 33 -41l-10 -38q-12 -20 -31 -25h-686 q-16 0 -24.5 13.5t-8.5 27.5z" />
<glyph unicode="2" d="M180 -6q0 2 2 12q41 164 164.5 298t288.5 218q205 107 307 254q41 63 66.5 157t25.5 171t-43 122.5t-121 45.5q-93 0 -189 -67.5t-156 -168t-60 -192.5q0 -53 31 -53q47 0 94 39t76.5 93t29.5 97q0 19 -16 49t-16 37q0 6 8 18q25 27 43 27q17 0 31.5 -22.5t23 -54 t8.5 -48.5q0 -48 -25 -106t-66 -105.5t-93 -76.5t-105 -29q-63 0 -104 45t-41 110q0 79 49.5 169t114.5 155q77 77 170.5 121.5t195.5 44.5q172 0 282 -86t110 -254q0 -117 -48 -202t-143 -161q-35 -28 -82 -59t-105 -63.5t-102 -55.5t-94 -49q-162 -86 -266 -207 q53 0 122.5 -5.5t116.5 -10t114.5 -9t105.5 -4.5q51 0 99.5 21.5t83 59.5t46.5 87q7 14 25 19h71q25 -7 25 -29q0 -2 -2 -12q-34 -142 -143 -255.5t-246 -113.5q-59 0 -108 21.5t-113.5 63t-112 63.5t-102.5 22q-70 0 -107 -153q-8 -15 -22 -17h-72q-27 8 -27 29z" />
<glyph unicode="3" d="M221 236q0 79 40.5 135.5t115.5 56.5q44 0 74 -27.5t30 -70.5q0 -55 -37.5 -97t-91.5 -53q20 -62 75 -97.5t122 -35.5q77 0 143.5 33t108.5 98q22 39 41.5 100t33 130t13.5 110q0 56 -32.5 85.5t-88.5 29.5h-121q-26 7 -26 33l14 55q8 13 24 16h121q67 0 124.5 29.5 t92.5 85.5q27 48 52.5 141.5t25.5 151.5q0 43 -19 72t-51.5 42t-74.5 13q-61 0 -125 -21.5t-121.5 -62t-92 -95.5t-34.5 -116q0 -51 33 -51q25 0 50.5 14t40.5 36.5t15 47.5q0 19 -16 46t-16 36q0 6 8 18q25 27 43 27q27 0 46 -43.5t19 -77.5q0 -75 -60.5 -130.5 t-135.5 -55.5q-62 0 -105 42t-43 105q0 42 16 81.5t44.5 76.5t65 69.5t67.5 51.5q143 84 307 84q93 0 172 -28t128.5 -90t49.5 -157q0 -89 -40 -171t-110.5 -144.5t-154.5 -93.5q67 -35 103 -100.5t36 -143.5q0 -112 -49.5 -200.5t-132.5 -145.5t-185 -86t-210 -29 q-83 0 -157 32t-119.5 93.5t-45.5 145.5z" />
<glyph unicode="4" d="M111 61q0 23 28 43.5t54 28.5q175 127 307 305.5t220 382t146 432.5q12 44 49.5 72.5t81.5 28.5q40 0 67.5 -25t27.5 -65q0 -56 -41.5 -166t-92.5 -214.5t-88 -166.5q-24 -47 -55 -88q-172 -262 -426 -471h39q59 0 120.5 -15t149.5 -45l70 285q11 44 49.5 72t83.5 28 q40 0 67 -24.5t27 -63.5q0 -10 -4 -26l-78 -316q81 0 142 23q10 2 12 2q15 0 20 -8q33 -40 33 -54q0 -29 -86 -48t-135 -19h-12l-62 -246q-7 -28 -26.5 -51t-47.5 -36t-57 -13q-39 0 -66.5 25t-27.5 63q0 18 2 26l70 277q-74 26 -134.5 42.5t-125.5 16.5q-125 0 -183 -16 q-8 -6 -22 -15.5t-25.5 -15.5t-17.5 -6q-15 0 -23 10q0 1 -15 21t-15 30z" />
<glyph unicode="5" d="M244 248q0 88 42.5 150.5t127.5 62.5q48 0 80 -29.5t32 -75.5q0 -37 -20.5 -75.5t-55 -63t-75.5 -24.5q15 -60 62 -96t110 -36q71 0 132 36t97 96q22 38 52.5 131.5t51.5 191t21 148.5q0 44 -26 74t-70 30q-173 0 -293 -139q-7 -10 -25 -13h-41q-32 11 -32 41l168 672 q11 25 30 25l9 -2q137 -64 297 -64q165 0 327 64q10 2 12 2q12 0 20.5 -8.5t8.5 -22.5l-8 -33q-22 -34 -78.5 -79t-101.5 -72q-75 -45 -161.5 -71t-174.5 -26q-70 0 -115 11l-65 -265q104 62 227 62q157 0 252.5 -81t95.5 -234q0 -166 -85 -296t-228 -202t-305 -72 q-126 0 -210.5 79t-84.5 204z" />
<glyph unicode="6" d="M270 346q0 158 56 348t143 322q104 153 258 245.5t328 92.5q101 0 165 -48t64 -143q0 -78 -40 -133t-116 -55q-44 0 -74 27t-30 69q0 53 36.5 95.5t88.5 52.5q-25 47 -100 47q-61 0 -119 -24.5t-104.5 -65t-84.5 -95.5q-44 -66 -71 -139t-60 -192q45 54 106 88t126 34 q75 0 136.5 -19.5t108 -59.5t72 -98t25.5 -134q0 -75 -21 -153t-60 -149.5t-89 -121.5q-85 -85 -187.5 -128.5t-220.5 -43.5q-167 0 -251.5 103.5t-84.5 277.5zM492 199q0 -55 34 -96.5t88 -41.5q120 0 193 103q24 40 56.5 147.5t56.5 220.5t24 154q0 35 -17 59t-43 35 t-61 11q-112 0 -209 -150q-28 -46 -57 -131.5t-47 -171t-18 -139.5z" />
<glyph unicode="7" d="M289 909q0 2 2 13l217 415q5 14 22 17h72q27 -8 27 -29q0 -2 -2 -10l-25 -45q64 41 133 62.5t142 21.5q47 0 72.5 -28t47 -82t33 -71.5t37.5 -17.5q73 0 139 55t127 136q2 2 19 8h71q27 -7 27 -29q0 -10 -8 -18q-98 -125 -187.5 -275.5t-158.5 -305t-121.5 -311 t-95.5 -329.5q-13 -52 -58 -86.5t-98 -34.5q-46 0 -77.5 30t-31.5 75q0 21 7 39q70 281 262 602q116 196 250 370q-33 -8 -72 -8q-37 0 -75.5 14.5t-77.5 28.5t-74 14q-130 0 -249 -61.5t-175 -169.5q-9 -15 -23 -18h-72q-26 6 -26 28z" />
<glyph unicode="8" d="M225 242q0 100 45.5 184t120.5 145t172 105q-112 90 -112 229q0 126 68.5 229t181 161.5t235.5 58.5q137 0 233.5 -57.5t96.5 -182.5q0 -226 -271 -360q88 -62 128 -125.5t40 -161.5q0 -109 -46.5 -201.5t-126 -159.5t-180.5 -104t-206 -37q-154 0 -266.5 66.5 t-112.5 210.5zM410 240q0 -86 57.5 -132.5t146.5 -46.5q79 0 156 31t126.5 91.5t49.5 142.5q0 75 -65 123l-232 165q-101 -58 -170 -160t-69 -214zM647 1061q0 -52 45 -90l219 -156q85 51 139 130t54 169q0 77 -49 114.5t-127 37.5q-104 0 -192.5 -54t-88.5 -151z" />
<glyph unicode="9" d="M256 160q0 77 42 131.5t114 54.5q44 0 74 -27.5t30 -70.5q0 -50 -32.5 -91t-80.5 -55q37 -41 119 -41q119 0 201 80t125 184t82 246q-103 -122 -232 -122q-99 0 -175.5 35t-120.5 105t-44 171q0 124 45.5 233.5t125.5 190.5t187.5 125.5t231.5 44.5q164 0 244 -103 t80 -272q0 -96 -23.5 -214.5t-65.5 -234t-91 -196.5q-63 -106 -152 -189t-197.5 -131.5t-228.5 -48.5q-108 0 -183 46.5t-75 148.5zM596 635q0 -53 34.5 -79t88.5 -26q116 0 205 146q27 45 58.5 134t51 178.5t19.5 141.5q0 32 -13.5 65t-39 52t-60.5 19q-101 0 -158 -54 t-79.5 -119.5t-57.5 -203.5q-49 -200 -49 -254z" />
<glyph unicode=":" horiz-adv-x="727" d="M246 125q0 48 27.5 90.5t71.5 68t91 25.5q54 0 90.5 -35.5t36.5 -89.5q0 -48 -27.5 -90.5t-71.5 -68t-91 -25.5q-53 0 -90 36t-37 89zM395 725q0 48 27.5 90.5t72 68t91.5 25.5q53 0 90 -35.5t37 -89.5q0 -48 -27.5 -90.5t-72 -68t-91.5 -25.5q-52 0 -89.5 36.5 t-37.5 88.5z" />
<glyph unicode=";" horiz-adv-x="727" d="M180 -352q0 11 6 20q57 44 107.5 99t88.5 117t62 130q-31 -14 -71 -14q-55 0 -91 33.5t-36 87.5q0 76 57 132t133 56q62 0 90.5 -44t28.5 -107q0 -74 -26 -153t-69.5 -149t-100.5 -134t-121 -115q-10 -4 -17 -4q-13 0 -27 15t-14 30zM395 725q0 48 27.5 90.5t72 68 t91.5 25.5q53 0 90 -35.5t37 -89.5q0 -48 -27.5 -90.5t-72 -68t-91.5 -25.5q-52 0 -89.5 36.5t-37.5 88.5z" />
<glyph unicode="&#x3c;" horiz-adv-x="791" d="M166 -315q0 26 8 49l297 817q6 15 25 18h71q25 -7 25 -32l-111 -818q-9 -64 -64.5 -107.5t-121.5 -43.5q-53 0 -91 32.5t-38 84.5zM455 842q0 72 57.5 127t130.5 55q55 0 92 -35.5t37 -91.5q0 -47 -27 -89t-70 -67.5t-91 -25.5q-54 0 -91.5 35.5t-37.5 91.5z" />
<glyph unicode="=" horiz-adv-x="1812" d="M256 285q0 23 16.5 40.5t40.5 22.5h1329q27 -5 43.5 -22t16.5 -41q0 -25 -17 -42t-43 -20h-1329q-23 3 -40 20t-17 42zM371 741q0 24 15.5 41.5t41.5 22.5h1329q27 -5 43.5 -22t16.5 -42q0 -24 -17 -41t-43 -20h-1329q-25 3 -41 20t-16 41z" />
<glyph unicode="&#x3e;" d="M209 -178q0 105 57 197.5t150 152.5l291 186q25 17 38 43.5t13 55.5q0 30 -25 30q-52 0 -97.5 -35.5t-57.5 -86.5q-9 -16 -25 -19h-72q-24 7 -24 29q0 2 2 12q20 84 104.5 133t175.5 49q67 0 106.5 -42t39.5 -107q0 -74 -36 -141t-97 -107l-293 -186q-54 -35 -88.5 -88.5 t-34.5 -112.5q0 -70 51 -102.5t123 -32.5q95 0 195 66.5t143 152.5q-33 9 -54.5 34.5t-21.5 59.5q0 39 21 74.5t56.5 56.5t74.5 21q43 0 73.5 -27.5t30.5 -71.5q0 -74 -63.5 -170.5t-133.5 -154.5q-157 -123 -325 -123q-128 0 -212.5 65t-84.5 189zM664 842q0 72 57.5 127 t130.5 55q55 0 92 -35.5t37 -91.5q0 -47 -27 -89t-70 -67.5t-91 -25.5q-54 0 -91.5 35.5t-37.5 91.5z" />
<glyph unicode="?" d="M438 1008q0 73 65.5 172.5t131.5 152.5q157 123 326 123q81 0 148.5 -27.5t107.5 -85.5t40 -141q0 -105 -56 -197.5t-150 -152.5l-291 -186q-51 -32 -51 -99q0 -30 24 -30q53 0 98.5 36.5t57.5 88.5q8 13 24 16h72q25 -7 25 -29q0 -2 -2 -10q-15 -59 -58.5 -100 t-103.5 -62.5t-119 -21.5q-66 0 -104.5 41.5t-38.5 107.5q0 76 35 142.5t96 105.5l293 186q54 37 88 89.5t34 111.5q0 70 -50.5 102.5t-123.5 32.5q-96 0 -195 -66.5t-143 -152.5q35 -9 55.5 -33.5t20.5 -60.5q0 -39 -20 -74.5t-56 -56.5t-75 -21q-42 0 -73.5 27.5 t-31.5 71.5zM485 127q0 72 58 127t131 55q55 0 92 -35.5t37 -91.5q0 -71 -58 -126.5t-131 -55.5q-55 0 -92 36t-37 91z" />
<glyph unicode="@" horiz-adv-x="1812" d="M336 504q0 187 70.5 357.5t199 301t296.5 203t358 72.5q122 0 228.5 -33t183.5 -98t120 -162.5t43 -226.5q0 -119 -43.5 -275.5t-131.5 -270.5t-210 -114q-158 0 -211 86q-123 -86 -260 -86q-156 0 -251 85t-95 239q0 151 73.5 285.5t201.5 215t284 80.5q93 0 169 -45.5 t105 -130.5h88q27 -7 27 -33l-131 -520q-6 -27 -6 -53q0 -41 22 -41q76 0 131 110t85 252.5t30 219.5q0 139 -56.5 237t-161 147.5t-241.5 49.5q-166 0 -313 -70t-255.5 -192t-168 -276t-59.5 -318q0 -208 124.5 -321t336.5 -113q300 0 606 122l8 2h113q26 -7 26 -28 q0 -20 -18 -27q-371 -151 -742 -151q-165 0 -296.5 59t-205 175t-73.5 286zM850 535q0 -77 32 -136t103 -59t137 39t113 100l119 477q-12 38 -35.5 66.5t-57 43.5t-75.5 15q-77 0 -139 -56.5t-106 -145t-67.5 -183.5t-23.5 -161z" />
<glyph unicode="A" horiz-adv-x="1772" d="M147 41l11 39q11 19 30 24q164 0 193 35q9 9 12 15l764 1265q25 37 62 37h63q19 0 30.5 -9.5t12.5 -27.5l135 -1310q33 -5 158 -5q33 -9 33 -41l-9 -38q-10 -19 -30 -25h-623q-14 0 -23.5 13.5t-9.5 27.5l11 39q8 18 30 24q115 0 172 9l-28 270h-467l-158 -260 q53 -19 143 -19q33 -9 33 -41l-10 -38q-8 -20 -31 -25h-471q-13 0 -23 13.5t-10 27.5zM737 487h393l-57 555z" />
<glyph unicode="B" horiz-adv-x="1671" d="M131 41l10 39q8 18 31 24q137 0 199 7l297 1185q-39 4 -179 4q-32 11 -32 41l10 39q8 20 31 25h807q98 0 189 -26t149.5 -88.5t58.5 -164.5q0 -154 -122 -257.5t-288 -133.5q130 -15 216.5 -82.5t86.5 -189.5q0 -105 -60 -202t-151 -157q-154 -104 -370 -104h-850 q-33 9 -33 41zM635 106q20 -2 67 -2h277q99 0 175.5 59t116.5 152.5t40 188.5q0 80 -39 133t-117 53h-373zM803 772h282q95 0 172 52t121.5 138t44.5 179q0 72 -37.5 115.5t-107.5 43.5h-258q-66 0 -86 -4z" />
<glyph unicode="C" horiz-adv-x="1692" d="M334 502q0 121 34.5 242t99 230t148.5 193q87 87 197.5 149t231.5 93t251 31q97 0 183 -35t147 -102l168 133q2 2 4 2h6q2 0 4 2h29q25 -8 25 -31l-129 -522q-12 -17 -25 -19h-82q-24 7 -24 33q6 46 6 90q0 144 -71.5 244t-209.5 100q-167 0 -308.5 -79t-227.5 -220 q-43 -74 -84.5 -190.5t-65 -231.5t-23.5 -200q0 -171 103.5 -257.5t277.5 -86.5q116 0 224 59t183.5 157t102.5 210q9 13 25 16h72q24 -7 24 -29q0 -2 -2 -10q-26 -107 -94.5 -201.5t-163 -163t-204 -106t-222.5 -37.5q-269 0 -439.5 136t-170.5 401z" />
<glyph unicode="D" horiz-adv-x="1792" d="M131 41l10 39q8 18 31 24q137 0 199 7l297 1185q-39 4 -179 4q-32 11 -32 41l10 39q8 20 31 25h800q154 0 270.5 -57t180 -168.5t63.5 -264.5q0 -179 -64 -344.5t-182 -295t-277 -202.5t-343 -73h-782q-33 9 -33 41zM645 106q21 -2 68 -2h184q241 0 395 154 q82 82 121.5 181.5t77.5 250.5q21 84 36 159t15 142q0 155 -94 232t-252 77h-166q-65 0 -86 -4z" />
<glyph unicode="E" horiz-adv-x="1548" d="M131 41l10 39q8 18 31 24q137 0 199 7l297 1185q-39 4 -179 4q-32 11 -32 41l10 39q8 20 31 25h1120q33 -10 33 -41l-49 -428q-11 -28 -33 -33h-58q-32 9 -32 41q10 118 10 143q0 96 -38.5 142.5t-100 58.5t-162.5 12h-150q-61 0 -82 -4l-129 -514h66q86 0 133 19.5 t70 61.5t47 134q11 20 31 25h57q33 -9 33 -41l-129 -518q-10 -20 -31 -25h-57q-33 9 -33 41q20 78 20 121q0 52 -40.5 65t-108.5 13h-84l-144 -572q19 -2 64 -2h4h162q179 0 286 61.5t147.5 130t80.5 167.5t69 106h58q33 -7 33 -37q0 -2 -2 -12l-209 -495q-12 -19 -31 -25 h-1155q-33 9 -33 41z" />
<glyph unicode="F" horiz-adv-x="1489" d="M131 41l10 39q8 18 31 24q137 0 199 7l297 1185q-39 4 -179 4q-32 11 -32 41l10 39q8 20 31 25h1089q33 -9 33 -41l-49 -428q-9 -28 -33 -33h-57q-33 9 -33 41q9 72 12 148q0 133 -71 170.5t-218 37.5h-133q-61 0 -82 -4l-135 -540h58q87 0 131.5 20t67 63.5t44.5 131.5 q8 18 31 24h57q33 -9 33 -41l-129 -518q-11 -19 -31 -24h-57q-33 9 -33 41q21 78 21 122q0 49 -39 62.5t-105 13.5h-75l-136 -542q48 -5 234 -5q33 -10 33 -41l-11 -38q-11 -20 -30 -25h-721q-16 0 -24.5 13.5t-8.5 27.5z" />
<glyph unicode="G" horiz-adv-x="1833" d="M334 502q0 121 34.5 242t99 230t148.5 193q87 87 197 149t231 93t250 31q97 0 183 -35t147 -102l168 133l4 2h6l4 2h29q25 -8 25 -31l-129 -522q-12 -17 -25 -19h-82q-25 7 -25 33q7 43 7 90q0 144 -71.5 244t-207.5 100q-168 0 -310 -79.5t-226 -219.5q-42 -71 -84 -188 t-65.5 -230.5t-23.5 -199.5q0 -174 108.5 -261t285.5 -87q87 0 167 48t103 128l51 211q-36 0 -112 2t-115 2q-33 9 -33 41l10 39q12 19 31 24h643q17 0 25 -12t8 -29l-10 -39q-8 -18 -31 -24q-86 0 -127 -4l-57 -228l-52 -211q-12 -18 -26 -18q-4 0 -12 2q-26 14 -53.5 28.5 t-54 32.5t-40.5 31q-70 -66 -173 -97.5t-212 -31.5q-127 0 -239.5 33.5t-194.5 100t-128 167.5t-46 236z" />
<glyph unicode="H" horiz-adv-x="1835" d="M131 41l10 39q8 18 31 24q137 0 199 7l297 1185q-39 4 -179 4q-32 11 -32 41l10 39q8 20 31 25h665q14 0 22.5 -12.5t8.5 -28.5l-8 -39q-10 -17 -31 -25q-139 0 -201 -6l-127 -512h572l129 514q-39 4 -178 4q-33 11 -33 41l10 39q8 20 31 25h665q14 0 22.5 -12.5 t8.5 -28.5l-8 -39q-10 -18 -31 -25q-139 0 -200 -6l-295 -1185q39 -5 178 -5q33 -10 33 -41l-11 -38q-11 -20 -30 -25h-666q-16 0 -24.5 13.5t-8.5 27.5l10 39q9 19 31 24q65 0 109 1.5t90 5.5l141 567h-571l-142 -569q39 -5 179 -5q32 -10 32 -41l-10 -38q-11 -20 -31 -25 h-665q-16 0 -24.5 13.5t-8.5 27.5z" />
<glyph unicode="I" horiz-adv-x="965" d="M117 41l10 39q8 19 31 24q145 0 209 7l297 1185q-41 4 -189 4q-33 10 -33 41l9 39q11 20 30 25h688q15 0 24 -13t9 -28l-10 -39q-8 -18 -31 -25q-147 0 -211 -6l-295 -1185q39 -5 189 -5q33 -10 33 -41l-11 -38q-8 -19 -30 -25h-689q-13 0 -21.5 13.5t-8.5 27.5z" />
<glyph unicode="J" horiz-adv-x="1249" d="M139 188q0 81 54 141t135 60q55 0 93 -34t38 -87q0 -62 -38 -112t-97 -68q54 -41 139 -41q94 0 158 79.5t88 180.5l247 989q-39 0 -121 2t-124 2q-33 11 -33 41l10 39q11 20 31 25h665q14 0 22.5 -12.5t8.5 -28.5l-8 -39q-10 -18 -31 -25q-104 0 -143 -4l-254 -1013 q-39 -156 -189.5 -237t-326.5 -81q-122 0 -223 55.5t-101 167.5z" />
<glyph unicode="K" horiz-adv-x="1833" d="M131 41l10 39q8 18 31 24q137 0 199 7l297 1185q-39 4 -179 4q-32 11 -32 41l10 39q8 20 31 25h665q14 0 22.5 -12.5t8.5 -28.5l-8 -39q-10 -17 -31 -25q-139 0 -201 -6l-149 -606l782 598q-43 14 -117 14q-32 11 -32 41l10 39q8 20 31 25h481q15 0 23 -14t8 -27l-11 -39 q-8 -18 -30 -25q-76 0 -128 -8.5t-91 -38.5q-1 -1 -7 -2.5t-10 -3.5l-508 -389l322 -741q22 -13 135 -13q33 -9 33 -41l-8 -38q-12 -19 -31 -25h-582q-13 0 -23 13t-10 28l11 39q11 19 30 24q95 0 140 13l-248 565l-213 -162l-103 -411q39 -5 179 -5q32 -10 32 -41l-10 -38 q-11 -20 -31 -25h-665q-16 0 -24.5 13.5t-8.5 27.5z" />
<glyph unicode="L" horiz-adv-x="1427" d="M131 41l10 39q8 18 31 24q137 0 199 7l297 1185q-39 4 -179 4q-32 11 -32 41l10 39q8 20 31 25h721q14 0 22 -12.5t8 -28.5l-8 -39q-10 -18 -31 -25q-184 0 -256 -6l-297 -1188q19 -2 64 -2h4h100q96 0 171 37t128.5 98t90.5 135.5t73 170.5q8 18 31 24h57q33 -7 33 -37 q0 -2 -2 -12l-180 -495q-10 -19 -31 -25h-1032q-33 9 -33 41z" />
<glyph unicode="M" horiz-adv-x="2195" d="M131 41l10 39q8 18 31 24q199 0 205 31l291 1161q-39 4 -179 4q-32 11 -32 41l10 39q8 20 31 25h467q19 0 31.5 -10t13.5 -27l166 -1069l698 1069q9 17 26 27t37 10h447q33 -9 33 -41l-9 -39q-10 -18 -30 -25q-140 0 -201 -6l-295 -1185q39 -5 178 -5q33 -9 33 -41 l-10 -38q-11 -20 -31 -25h-631q-15 0 -23.5 13.5t-8.5 27.5l10 39q8 19 31 24q137 0 198 7l289 1155l-803 -1229q-25 -37 -63 -37h-33q-16 0 -29 10t-16 27l-185 1198l-278 -1112q55 -19 176 -19q33 -9 33 -41l-10 -38q-12 -20 -31 -25h-514q-16 0 -24.5 13.5t-8.5 27.5z " />
<glyph unicode="N" horiz-adv-x="1835" d="M131 41l10 39q8 18 31 24q199 0 205 31l291 1163q-50 2 -179 2q-32 11 -32 41l10 39q8 20 31 25h454q20 -4 27 -16l485 -953l211 846q-53 18 -174 18q-33 12 -33 41l11 39q8 19 30 25h514q14 0 22.5 -12.5t8.5 -28.5l-8 -39q-10 -18 -31 -25q-64 0 -132 -6t-73 -24 l-311 -1245q-10 -20 -31 -25h-69q-22 4 -27 16l-596 1168l-266 -1061q55 -19 176 -19q33 -9 33 -41l-10 -38q-12 -20 -31 -25h-514q-16 0 -24.5 13.5t-8.5 27.5z" />
<glyph unicode="O" horiz-adv-x="1751" d="M328 469q0 187 68 361t191.5 312.5t290 218t357.5 79.5q160 0 282 -59t188.5 -174.5t66.5 -276.5q0 -187 -67.5 -361.5t-190 -311t-290 -214.5t-358.5 -78q-243 0 -390.5 131t-147.5 373zM616 395q0 -145 67.5 -240.5t207.5 -95.5q95 0 185 49.5t155 129.5 q52 64 99.5 161.5t84 211t57.5 222t21 195.5q0 144 -71 233t-210 89q-96 0 -182.5 -44.5t-152.5 -121.5q-53 -58 -102 -159t-84 -212t-55 -223.5t-20 -194.5z" />
<glyph unicode="P" horiz-adv-x="1612" d="M131 41l10 39q8 18 31 24q137 0 199 7l297 1185q-39 4 -179 4q-32 11 -32 41l10 39q8 20 31 25h770q109 0 204.5 -30t156.5 -100t61 -179q0 -154 -92 -264t-236.5 -166t-292.5 -56h-285l-125 -501q39 -5 179 -5q32 -10 32 -41l-10 -38q-11 -20 -31 -25h-665 q-16 0 -24.5 13.5t-8.5 27.5zM795 702h221q181 0 266 84q32 32 58 100.5t43.5 145.5t17.5 125q0 85 -66.5 114t-169.5 29h-135q-65 0 -86 -4z" />
<glyph unicode="Q" horiz-adv-x="1751" d="M328 469q0 187 68 361t191.5 312.5t290 218t357.5 79.5q160 0 282 -59t188.5 -174.5t66.5 -276.5q0 -142 -41 -281.5t-119.5 -262.5t-187 -216t-242.5 -145q20 -57 47.5 -88t77.5 -31q68 0 127.5 26t72.5 80q15 25 35 25q17 0 27 -11t10 -26q0 -2 -2 -12 q-36 -147 -126.5 -266t-219.5 -119q-103 0 -145 65t-42 172q0 25 4.5 69t4.5 77q-90 -21 -187 -21q-243 0 -390.5 131t-147.5 373zM600 389q0 -198 117 -280v6q0 56 34 104t87 75.5t108 27.5q80 0 126 -48t73 -131q85 60 143 146.5t94.5 182.5t67.5 222q49 194 49 318 q0 95 -30.5 172t-94.5 121.5t-162 44.5q-95 0 -187.5 -48t-160.5 -126q-53 -62 -102.5 -163t-84.5 -210.5t-56 -219t-21 -194.5zM799 117q0 -37 25 -49.5t65 -12.5q83 0 166 37q0 68 -23.5 108t-87.5 40q-51 0 -98 -36.5t-47 -86.5z" />
<glyph unicode="R" horiz-adv-x="1759" d="M131 41l10 39q8 18 31 24q137 0 199 7l297 1185q-39 4 -179 4q-32 11 -32 41l10 39q8 20 31 25h692q197 0 348.5 -69t151.5 -240q0 -103 -59.5 -185.5t-152 -136.5t-194.5 -80q73 -34 115.5 -90t42.5 -131q0 -13 -4 -41l-27 -178q-10 -55 -10 -96q0 -52 17 -81.5 t65 -29.5q50 0 85 53t52 115q8 20 31 25h57q33 -7 33 -37q0 -2 -2 -13q-15 -56 -52.5 -109t-91 -84.5t-114.5 -31.5q-96 0 -179.5 17.5t-143.5 68.5t-60 144q0 30 10 67l43 178q6 22 10 66q0 69 -41 112.5t-110 43.5h-226l-137 -553q39 -5 178 -5q33 -9 33 -41l-10 -38 q-11 -20 -31 -25h-653q-16 0 -24.5 13.5t-8.5 27.5zM805 743h182q212 0 305 91q43 43 75 145.5t32 169.5q0 66 -43 99.5t-101 42.5t-129 9h-96q-65 0 -86 -4z" />
<glyph unicode="S" horiz-adv-x="1331" d="M182 -4l115 455q8 14 22 16h72q27 -7 27 -31q-17 -66 -17 -108q0 -134 96.5 -196t237.5 -62q81 0 150.5 45t110 119t40.5 155q0 60 -31.5 106.5t-91.5 61.5l-249 61q-70 18 -123.5 63.5t-83 111t-29.5 137.5q0 103 43 196.5t116.5 163.5t170 110t200.5 40q191 0 293 -111 l117 103q8 6 18 8h29q25 -8 25 -31l-113 -453q-8 -15 -22 -18h-72q-27 7 -27 33q8 66 8 96q0 131 -67 203.5t-199 72.5q-75 0 -143 -38t-109 -102.5t-41 -141.5q0 -55 34 -98t89 -58l248 -61q111 -27 174.5 -118.5t63.5 -207.5q0 -142 -73 -271t-197.5 -205.5t-268.5 -76.5 q-231 0 -350 111l-119 -103q-8 -6 -18 -8h-29q-27 8 -27 31z" />
<glyph unicode="T" horiz-adv-x="1630" d="M367 41l10 39q11 19 31 24q219 0 290 9l297 1185q-18 2 -61 2h-6h-49q-123 0 -193.5 -46t-103.5 -113.5t-84 -212.5q-12 -20 -31 -25h-57q-33 7 -33 37q0 2 2 12l145 428q11 20 31 25h1204q33 -9 33 -41l-68 -428q-9 -28 -32 -33h-58q-32 9 -32 41q20 124 20 195 q0 95 -49.5 128t-151.5 33h-55q-61 0 -82 -4l-297 -1185q29 0 81.5 -1.5t105 -3.5t81.5 -2q33 -9 33 -41l-8 -38q-10 -20 -31 -25h-850q-14 0 -23 13t-9 28z" />
<glyph unicode="U" horiz-adv-x="1802" d="M446 354q0 60 15 119l207 823q-39 4 -179 4q-32 11 -32 41l10 39q8 20 31 25h665q14 0 22.5 -12.5t8.5 -28.5l-8 -39q-10 -17 -31 -25q-139 0 -201 -6l-206 -829q-31 -120 -31 -195q0 -101 63 -150.5t168 -49.5q191 0 320.5 110t177.5 301l201 801q-54 18 -174 18 q-33 11 -33 41l10 39q8 20 31 25h512q14 0 22 -12.5t8 -28.5l-8 -39q-10 -18 -30 -25q-65 0 -133 -6t-72 -24l-205 -813q-27 -110 -87 -201t-144.5 -156t-186.5 -100t-215 -35q-134 0 -245.5 39.5t-181 126t-69.5 223.5z" />
<glyph unicode="V" horiz-adv-x="1772" d="M444 1341l11 39q8 19 30 25h613q15 0 23.5 -12.5t8.5 -28.5l-10 -39q-8 -18 -30 -25q-113 0 -168 -8l129 -944l594 934q-52 18 -140 18q-32 10 -32 41l8 39q10 19 30 25h463q15 0 23 -13t8 -28l-10 -39q-8 -18 -31 -25q-147 0 -182 -34l-15 -15l-794 -1249 q-28 -37 -64 -37h-63q-38 0 -45 37l-174 1294q-31 4 -150 4q-33 12 -33 41z" />
<glyph unicode="W" horiz-adv-x="2376" d="M442 1341l11 39q8 19 30 25h598q16 0 24.5 -12.5t8.5 -28.5l-10 -39q-8 -18 -31 -25q-115 0 -172 -8l82 -899l414 703l-19 200q-28 4 -133 4q-33 10 -33 41l9 39q10 19 30 25h600q15 0 24 -13t9 -28l-10 -39q-11 -19 -31 -25q-117 0 -172 -8l2 -30l78 -869l524 887 q-59 20 -166 20q-32 11 -32 41l10 39q8 20 31 25h460q15 0 23 -13t8 -28l-10 -39q-8 -18 -31 -25q-131 0 -166 -32q-3 -2 -6.5 -6.5t-7.5 -8.5l-737 -1251q-9 -14 -26 -25.5t-36 -11.5h-51q-16 0 -29.5 11t-13.5 26l-80 903l-534 -903q-24 -37 -60 -37h-53q-15 0 -28 10.5 t-13 26.5l-117 1294q-30 4 -135 4q-33 12 -33 41z" />
<glyph unicode="X" horiz-adv-x="1772" d="M135 41l10 39q9 19 31 24q201 0 244 41q5 5 16 13l490 532l-242 604q-51 6 -162 6q-33 10 -33 41l11 39q8 19 30 25h623q15 0 24 -13t9 -28l-10 -39q-12 -19 -31 -25q-64 0 -144 -10l144 -360l323 350q-59 20 -143 20q-33 12 -33 41l11 39q11 20 30 25h535q14 0 22 -12.5 t8 -28.5l-8 -39q-10 -18 -30 -25q-201 0 -246 -40q-8 -9 -17 -13l-403 -440l276 -696q40 -4 74.5 -5.5t87.5 -1.5q33 -9 33 -41l-8 -38q-10 -19 -31 -25h-625q-14 0 -23 13t-9 28l10 39q11 19 31 24q57 0 143 11l-180 452l-406 -442q59 -21 142 -21q32 -10 32 -41l-10 -38 q-8 -20 -31 -25h-534q-14 0 -22.5 13.5t-8.5 27.5z" />
<glyph unicode="Y" horiz-adv-x="1772" d="M432 1341l10 39q9 20 31 25h633q14 0 23.5 -13.5t9.5 -27.5l-11 -39q-8 -18 -30 -25q-101 0 -148 -6l203 -565l477 557q-37 14 -119 14q-32 10 -32 41l8 39q10 20 31 25h467q16 0 24 -13t8 -28l-10 -39q-8 -18 -31 -25q-164 0 -204 -38q-3 -3 -9 -7t-8 -6l-590 -688 l-112 -452q37 -5 178 -5q33 -10 33 -41l-11 -38q-8 -19 -30 -25h-654q-15 0 -23.5 13.5t-8.5 27.5l10 39q8 19 31 24q143 0 200 7l113 450l-264 733q-54 6 -162 6q-33 11 -33 41z" />
<glyph unicode="Z" horiz-adv-x="1450" d="M193 29q0 42 22 67l1049 1204h-205q-133 0 -228 -40t-158.5 -123t-101.5 -209q-11 -20 -30 -25h-58q-32 7 -32 37q0 2 2 12l129 428q11 20 30 25h971q10 0 19.5 -8.5t9.5 -20.5q0 -35 -21 -61l-1048 -1202h221q163 0 263 49.5t159 143.5t112 259q9 20 31 25h57 q33 -8 33 -37q0 -2 -2 -12l-164 -516q-10 -19 -30 -25h-1002q-12 0 -20 8t-8 21z" />
<glyph unicode="[" horiz-adv-x="729" d="M182 -471l496 1982q11 20 31 25h252q32 -10 32 -41l-14 -59q-11 -20 -31 -25h-168l-450 -1798h149q33 -9 33 -41l-14 -59q-8 -19 -31 -25h-252q-33 10 -33 41z" />
<glyph unicode="\" horiz-adv-x="1270" d="M539 887q0 98 48 198t126 187t164 145q8 4 16 4q15 0 28 -15t13 -30t-12 -24q-209 -136 -283 -359q46 31 102 31q55 0 91 -33.5t36 -87.5q0 -50 -26.5 -93t-70 -69t-93.5 -26q-70 0 -104.5 49.5t-34.5 122.5zM1028 887q0 98 48 198t126 187t164 145q8 4 16 4 q16 0 28.5 -15t12.5 -30t-12 -24q-63 -41 -119.5 -97.5t-97 -121t-66.5 -140.5q46 31 103 31q55 0 91 -33.5t36 -87.5q0 -50 -26.5 -93t-70 -69t-94.5 -26q-70 0 -104.5 49.5t-34.5 122.5z" />
<glyph unicode="]" horiz-adv-x="729" d="M-8 -471l14 59q11 20 31 25h168l450 1798h-149q-33 9 -33 41l14 59q12 20 31 25h252q33 -9 33 -41l-496 -1982q-8 -20 -31 -25h-251q-33 9 -33 41z" />
<glyph unicode="^" d="M567 1143q0 19 13 28l352 244q9 6 20 6q17 0 25 -8l227 -246q10 -10 10 -24q0 -17 -10 -25l-43 -41h-49l-188 168l-279 -172q-6 -2 -10.5 -4t-9.5 -2q-21 0 -31 16q-5 9 -11 19.5t-11 20t-5 20.5z" />
<glyph unicode="_" horiz-adv-x="727" d="M524 1241q0 72 57.5 127t131.5 55q55 0 92 -35.5t37 -91.5q0 -71 -58 -126.5t-131 -55.5q-55 0 -92 36t-37 91z" />
<glyph unicode="`" horiz-adv-x="727" d="M412 887q0 98 48 198t126 187t164 145q8 4 16 4q15 0 28 -15t13 -30t-12 -24q-209 -136 -283 -359q46 31 102 31q55 0 91 -33.5t36 -87.5q0 -50 -26.5 -93t-70 -69t-93.5 -26q-70 0 -104.5 49.5t-34.5 122.5z" />
<glyph unicode="a" d="M213 311q0 113 41.5 226t116.5 200t178 138t221 51t195 -76q41 41 96 41q40 0 68 -24t28 -64q0 -11 -4 -27l-137 -551q-15 -64 -17 -100q0 -59 37 -59q47 0 72.5 66.5t52.5 172.5q5 22 27 27h72q19 -5 24 -25q0 -6 -0.5 -9t-1.5 -7q-30 -120 -92 -213.5t-160 -93.5 q-152 0 -219 102q-124 -102 -262 -102q-102 0 -177.5 39t-117 113.5t-41.5 174.5zM440 203q0 -57 29 -97t86 -40q65 0 126 40.5t105 100.5q0 7 5 24l120 488q-14 55 -52.5 90t-94.5 35q-85 0 -140.5 -64.5t-82 -138.5t-58.5 -197q-43 -170 -43 -241z" />
<glyph unicode="b" horiz-adv-x="1090" d="M225 307q0 29 10.5 81.5t10.5 70.5l205 825q2 4 2 12q-29 4 -109 4q-33 12 -33 41l11 39q11 20 30 25l310 16q18 0 29 -11t11 -30l-127 -508q95 54 193 54q76 0 137.5 -21.5t107 -65t68.5 -103.5t23 -138q0 -117 -41 -227t-117 -197.5t-178.5 -138.5t-220.5 -51 q-98 0 -171 39.5t-112 113.5t-39 170zM430 217q0 -64 30.5 -107.5t92.5 -43.5q122 0 180 113t103 288q41 178 41 240q0 58 -28.5 97.5t-86.5 39.5q-66 0 -124 -38.5t-103 -98.5l-66 -265q-11 -23 -25 -109.5t-14 -115.5z" />
<glyph unicode="c" horiz-adv-x="1090" d="M217 328q0 165 83 303t225 216.5t304 78.5q60 0 119.5 -20.5t98 -63t38.5 -105.5q0 -66 -44 -115t-109 -49q-44 0 -74.5 27.5t-30.5 69.5q0 46 27.5 85t71.5 56q-36 33 -103 33q-77 0 -143.5 -43.5t-110.5 -112.5q-42 -73 -82.5 -221.5t-40.5 -228.5q0 -78 44.5 -125 t123.5 -47q113 0 217.5 42.5t176.5 124.5h43l39 -43q8 -8 8 -20q0 -6 -8 -18q-147 -168 -482 -168q-111 0 -200 38.5t-140 115t-51 190.5z" />
<glyph unicode="d" d="M213 311q0 113 41.5 226t116.5 200t178 138t221 51q98 0 178 -62l105 420q2 4 2 12q-29 4 -109 4q-33 12 -33 41l11 39q11 20 30 25l310 16q18 0 29.5 -10.5t11.5 -30.5l-291 -1165q-12 -45 -15 -90q0 -59 37 -59q47 0 72.5 66.5t52.5 172.5q6 22 27 27h72q19 -5 24 -25 q0 -6 -0.5 -9t-1.5 -7q-30 -120 -92 -213.5t-160 -93.5q-152 0 -219 102q-124 -102 -262 -102q-102 0 -177.5 39t-117 113.5t-41.5 174.5zM440 203q0 -57 29 -97t86 -40q65 0 126 40.5t105 100.5q0 4 2.5 11t2.5 13l120 490q-14 55 -53 89t-94 34q-85 0 -140.5 -64.5 t-82 -138.5t-58.5 -197q-43 -170 -43 -241z" />
<glyph unicode="e" horiz-adv-x="1090" d="M221 342q0 128 47.5 236t131 185.5t194.5 120t235 42.5q104 0 184.5 -50.5t80.5 -148.5q0 -99 -60.5 -159t-155 -87t-184.5 -33t-202 -6h-9q-32 -130 -32 -196q0 -79 42 -129.5t121 -50.5q113 0 217.5 42.5t176.5 124.5h43l39 -43q8 -8 8 -20q0 -6 -8 -18 q-147 -168 -482 -168q-115 0 -202 41t-136 122t-49 195zM504 524q111 0 203 10.5t167.5 56t75.5 138.5q0 51 -37 83t-90 32q-235 0 -319 -320z" />
<glyph unicode="f" horiz-adv-x="819" d="M-37 -248q0 64 44 111t108 47q43 0 73.5 -26.5t30.5 -69.5q0 -41 -23.5 -77.5t-58.5 -55.5q27 -13 58 -13q56 0 92 135q9 40 26.5 124.5t45 228t30.5 161.5l88 488h-213q-33 10 -33 41l11 39q8 18 30 24h226l22 125q20 102 40 165.5t57.5 118.5t97.5 87.5t151 32.5 q55 0 109 -16.5t89.5 -53.5t35.5 -96q0 -64 -44.5 -111t-107.5 -47q-41 0 -72.5 27.5t-31.5 68.5q0 85 80 133q-27 13 -62 13q-20 0 -39 -19t-24 -39q-14 -57 -51 -258l-23 -131h250q33 -10 33 -41l-11 -39q-11 -19 -30 -24h-262l-89 -483q-39 -212 -68.5 -333.5 t-82.5 -211.5q-49 -80 -121.5 -135.5t-153.5 -55.5q-89 0 -158 41.5t-69 124.5z" />
<glyph unicode="g" horiz-adv-x="1090" d="M117 -266q0 62 44.5 108.5t108.5 46.5q43 0 73 -26.5t30 -69.5q0 -33 -14.5 -64t-39.5 -51q51 -10 136 -10q57 0 108 29.5t88.5 79t50.5 102.5l43 174q-89 -53 -192 -53q-100 0 -176.5 38.5t-118 112t-41.5 173.5q0 153 73 293t200.5 224.5t279.5 84.5q118 0 195 -76 q39 41 96 41q40 0 68 -24t28 -64q0 -11 -4 -27l-229 -919q-35 -136 -177.5 -203.5t-297.5 -67.5q-82 0 -150.5 7.5t-125 40t-56.5 100.5zM442 217q0 -58 30.5 -96.5t86.5 -38.5q65 0 125 38t102 97l127 506q-16 54 -55 87.5t-94 33.5q-65 0 -113 -38t-78 -95t-47 -110 t-41 -148q-41 -159 -43 -236z" />
<glyph unicode="h" d="M152 76q0 8 4 24l295 1184q2 4 2 12q-29 4 -109 4q-33 12 -33 41l11 39q11 20 30 25l310 16q18 0 29 -10t11 -31l-139 -555q124 101 266 101q82 0 147.5 -22t104.5 -73.5t39 -136.5q0 -84 -39.5 -207t-97.5 -270q-29 -81 -29 -119q0 -32 23 -32q71 0 116.5 76.5 t69.5 172.5q2 12 25 17h72q24 -7 24 -29q0 -2 -2 -10q-29 -120 -115 -214.5t-198 -94.5q-89 0 -155 48.5t-66 133.5q0 30 14 74q28 72 49 128t43 124.5t35.5 133t13.5 107.5q0 111 -80 111q-184 0 -309 -219l-135 -541q-10 -42 -48.5 -71t-80.5 -29q-41 0 -69.5 25.5 t-28.5 66.5z" />
<glyph unicode="i" horiz-adv-x="727" d="M154 606q0 2 2 12q17 72 62 145t110.5 118t140.5 45q88 0 154.5 -49t66.5 -134q0 -32 -14 -71l-174 -455q-29 -75 -29 -119q0 -32 23 -32q71 0 117 78.5t69 170.5q8 14 25 17h71q25 -7 25 -29q0 -2 -2 -10q-29 -120 -115 -214.5t-199 -94.5q-88 0 -154.5 48.5 t-66.5 133.5q0 32 15 74l174 454q28 74 28 117q0 33 -22 33q-121 0 -187 -248q-8 -15 -22 -18h-72q-26 6 -26 28zM512 1274q0 58 46.5 102.5t103.5 44.5q28 0 51.5 -13t37 -36t13.5 -51q0 -38 -21 -71.5t-57 -54.5t-72 -21q-43 0 -72.5 28.5t-29.5 71.5z" />
<glyph unicode="j" horiz-adv-x="727" d="M-59 -266q0 42 20.5 77.5t56 56.5t76.5 21q43 0 73 -26.5t30 -69.5q0 -34 -18.5 -68.5t-47.5 -56.5q55 0 100.5 37.5t75.5 95.5t41 107l195 778q13 54 16 98q0 60 -37 60q-83 0 -145.5 -75.5t-102.5 -172.5q-8 -15 -22 -18h-72q-26 6 -26 28q0 2 2 12q30 78 85 148.5 t129.5 115t157.5 44.5q63 0 119.5 -23t91.5 -68t35 -108q0 -26 -6 -47l-199 -795q-23 -89 -92.5 -158t-163 -105t-186.5 -36q-72 0 -129 39.5t-57 108.5zM596 1274q0 57 46 102t103 45q28 0 52 -13t37.5 -36t13.5 -51q0 -38 -21 -71.5t-57 -54.5t-72 -21q-43 0 -72.5 28.5 t-29.5 71.5z" />
<glyph unicode="k" horiz-adv-x="1090" d="M152 76q0 8 4 24l295 1184q2 4 2 12q-29 4 -109 4q-33 12 -33 41l11 39q11 20 30 25l310 16q18 0 29 -10t11 -31l-202 -813q57 37 160.5 144t179 161t170.5 54q67 0 103 -47.5t36 -118.5q0 -51 -17.5 -94t-53 -70t-85.5 -27q-43 0 -73.5 27.5t-30.5 69.5q0 55 42 103 t99 48q-1 5 -3 12.5t-7 10.5q-4 4 -19 4q-69 0 -139.5 -50.5t-169 -149.5t-137.5 -128q87 -10 154 -31t116 -67.5t49 -122.5q0 -28 -6 -55q-15 -58 -18 -111q0 -63 41 -63q61 0 92.5 70t58.5 179q2 12 25 17h72q24 -7 24 -29q0 -2 -2 -10q-19 -75 -55.5 -144.5t-93 -117 t-127.5 -47.5q-100 0 -175 56t-75 153q0 28 8 53q4 28 4 41q0 63 -53 98t-129 49l-86 -350q-10 -42 -48.5 -71t-80.5 -29q-41 0 -69.5 25.5t-28.5 66.5z" />
<glyph unicode="l" horiz-adv-x="606" d="M182 182q0 1 3 19t3 30l263 1053q2 4 2 12q-29 4 -109 4q-33 12 -33 41l11 39q11 20 30 25l310 16q18 0 29 -11t11 -30l-290 -1165q-15 -25 -15 -90q0 -59 37 -59q47 0 72.5 66.5t52.5 172.5q6 22 27 27h71q25 -7 25 -29q0 -2 -2 -12q-30 -120 -92 -213.5t-160 -93.5 q-63 0 -119.5 23t-91.5 67.5t-35 107.5z" />
<glyph unicode="m" horiz-adv-x="1933" d="M154 606q0 2 2 12q30 121 91.5 214.5t160.5 93.5q80 0 146.5 -35t88.5 -103q67 66 144.5 102t162.5 36q238 0 281 -154q41 46 93.5 81.5t110.5 54t117 18.5q82 0 147.5 -22t104.5 -73.5t39 -136.5q0 -84 -39.5 -207t-97.5 -270q-29 -81 -29 -119q0 -32 23 -32 q71 0 116.5 76.5t69.5 172.5q2 12 25 17h71q25 -7 25 -29q0 -2 -2 -10q-29 -120 -115 -214.5t-198 -94.5q-89 0 -155.5 48.5t-66.5 133.5q0 27 15 74q28 72 49 128t43 124.5t35.5 133t13.5 107.5q0 111 -80 111q-68 0 -126.5 -30t-103.5 -79.5t-81 -113.5q-3 -13 -5 -19 l-3 -14l-125 -502q-11 -44 -48.5 -73t-82.5 -29q-41 0 -69 24t-28 64q0 3 5 28l122 494q23 83 23 139q0 111 -80 111q-101 0 -177.5 -60.5t-131.5 -158.5l-135 -539q-11 -44 -48.5 -73t-82.5 -29q-40 0 -68.5 24.5t-28.5 63.5q0 8 4 28l146 586q13 54 16 98q0 60 -37 60 q-25 0 -46 -28t-35.5 -66.5t-26 -80.5t-17.5 -65q-6 -21 -24 -26h-72q-26 6 -26 28z" />
<glyph unicode="n" horiz-adv-x="1331" d="M154 606q0 2 2 12q30 121 91.5 214.5t160.5 93.5q80 0 146.5 -35t88.5 -103q67 66 144.5 102t162.5 36q82 0 147.5 -22t104.5 -73.5t39 -136.5q0 -84 -39.5 -207t-97.5 -270q-29 -81 -29 -119q0 -32 23 -32q71 0 116.5 76.5t69.5 172.5q2 13 25 17h71q25 -7 25 -29 q0 -2 -2 -10q-29 -120 -115 -214.5t-198 -94.5q-89 0 -155.5 48.5t-66.5 133.5q0 32 15 74q28 72 49 128t43 124.5t35.5 133t13.5 107.5q0 111 -80 111q-101 0 -177.5 -60.5t-131.5 -158.5l-135 -539q-11 -44 -48.5 -73t-82.5 -29q-40 0 -68.5 24.5t-28.5 63.5q0 8 4 28 l146 586q13 54 16 98q0 60 -37 60q-25 0 -46 -28t-35.5 -66.5t-26 -80.5t-17.5 -65q-6 -21 -24 -26h-72q-26 6 -26 28z" />
<glyph unicode="o" d="M217 328q0 165 83 303t225 216.5t304 78.5q112 0 201 -38t141 -115.5t52 -190.5q0 -126 -47 -234t-134 -190.5t-198 -128t-236 -45.5q-111 0 -200 38.5t-140 115t-51 190.5zM446 238q0 -78 44.5 -125t123.5 -47q77 0 144.5 43t109.5 112q28 47 57 134t47.5 174.5 t18.5 142.5q0 79 -44 125.5t-124 46.5q-77 0 -143.5 -43.5t-110.5 -112.5q-42 -73 -82.5 -221.5t-40.5 -228.5z" />
<glyph unicode="p" d="M47 -356l10 39q8 18 31 24q68 0 90 4l246 983q10 39 14 90q0 60 -37 60q-25 0 -46 -28t-35.5 -66.5t-26 -80.5t-17.5 -65q-6 -21 -24 -26h-72q-21 5 -26 26q1 4 1.5 7t0.5 7q30 121 91.5 214.5t160.5 93.5q67 0 126.5 -25.5t92.5 -77.5q59 49 125.5 76t136.5 27 q76 0 137.5 -21.5t107 -65t68.5 -103.5t23 -138q0 -117 -41 -227t-117 -197.5t-178.5 -138.5t-220.5 -51q-99 0 -179 61l-83 -336q28 -2 110 -2q33 -9 33 -41l-10 -39q-9 -19 -31 -24h-430q-14 0 -22.5 13.5t-8.5 27.5zM526 188q16 -54 54.5 -88t93.5 -34q85 0 141 64.5 t84 143t57 191.5q41 173 41 242q0 59 -28 98t-86 39q-65 0 -124.5 -39t-107.5 -103q0 -4 -2 -12t-2 -12z" />
<glyph unicode="q" horiz-adv-x="1090" d="M213 311q0 113 41.5 226t116.5 200t178 138t221 51q114 0 193 -74q19 19 85.5 46.5t96.5 27.5q15 0 26 -12.5t11 -28.5l-295 -1176q28 -2 110 -2q33 -9 33 -41l-10 -39q-8 -19 -31 -24h-467q-14 0 -23.5 13t-9.5 28l11 39q8 18 30 24q88 0 129 4l82 326q-92 -53 -192 -53 q-102 0 -177.5 39t-117 113.5t-41.5 174.5zM440 203q0 -57 29 -97t86 -40q67 0 126.5 40t100.5 97l129 518q-14 55 -53 89t-94 34q-85 0 -140.5 -64.5t-82 -138.5t-58.5 -197q-43 -170 -43 -241z" />
<glyph unicode="r" horiz-adv-x="1026" d="M154 606q0 2 2 12q30 121 91.5 214.5t160.5 93.5q68 0 127.5 -26t93.5 -79q107 105 252 105q102 0 184 -48t82 -143q0 -67 -43 -116.5t-109 -49.5q-43 0 -73.5 27.5t-30.5 69.5q0 47 27.5 86.5t70.5 54.5q-42 37 -115 37q-71 0 -128 -47t-99 -121l-147 -590 q-11 -44 -48.5 -73t-82.5 -29q-40 0 -68.5 24.5t-28.5 63.5q0 8 4 28l146 586q13 54 16 98q0 60 -37 60q-25 0 -46 -28t-35.5 -66.5t-26 -80.5t-17.5 -65q-6 -21 -24 -26h-72q-26 6 -26 28z" />
<glyph unicode="s" horiz-adv-x="995" d="M174 184q0 68 43.5 118t110.5 50q42 0 72 -27.5t30 -70.5q0 -45 -27 -84t-67 -55q57 -49 172 -49q120 0 192 43q37 22 62.5 62.5t25.5 82.5q0 30 -18.5 54.5t-49 39.5t-58.5 21l-123 24q-88 20 -142.5 75.5t-54.5 139.5q0 67 34.5 133.5t88.5 108.5q102 76 256 76 q61 0 125.5 -17.5t106.5 -57.5t42 -103q0 -60 -37.5 -104t-95.5 -44q-37 0 -64.5 24.5t-27.5 61.5q0 77 74 117q-41 41 -127 41q-85 0 -148 -38t-63 -116q0 -34 25.5 -57t58.5 -31l131 -27q99 -22 165 -82t66 -157q0 -50 -21 -105.5t-57 -100.5t-79 -73q-117 -73 -291 -73 q-78 0 -152 18t-126 63t-52 119z" />
<glyph unicode="t" horiz-adv-x="788" d="M184 846l11 39q8 18 30 24h195l76 308q10 43 48.5 71.5t82.5 28.5q40 0 68 -24t28 -64q0 -11 -4 -27l-74 -293h176q33 -9 33 -41l-10 -39q-11 -19 -31 -24h-192l-146 -580q-13 -58 -16 -100q0 -59 37 -59q82 0 146.5 78t98.5 171q5 13 25 17h72q24 -7 24 -29q0 -2 -2 -10 q-46 -124 -147 -216.5t-224 -92.5q-62 0 -118.5 23t-91.5 67.5t-35 107.5q0 25 6 49l143 574h-176q-33 9 -33 41z" />
<glyph unicode="u" horiz-adv-x="1270" d="M154 606q0 2 2 12q17 72 62 145t110.5 118t140.5 45q88 0 154.5 -49t66.5 -134q0 -32 -14 -71q-29 -73 -61 -159.5t-52 -165t-20 -146.5q0 -135 102 -135q113 0 201 131q0 16 6 34l143 578q12 44 50 72t83 28q40 0 67.5 -24.5t27.5 -63.5q0 -10 -4 -26l-142 -570 q-13 -58 -16 -100q0 -59 37 -59q45 0 72 69.5t53 169.5q5 22 26 27h72q18 -5 25 -25q0 -3 -1 -7.5t-2 -8.5q-18 -73 -49 -142t-83 -117t-119 -48q-155 0 -218 102q-109 -102 -235 -102q-141 0 -226 61t-85 197q0 93 29.5 185t97.5 267q28 74 28 117q0 33 -22 33 q-121 0 -187 -248q-8 -15 -22 -18h-72q-26 6 -26 28z" />
<glyph unicode="v" horiz-adv-x="1090" d="M154 606q0 2 2 12q17 72 62 145t110.5 118t140.5 45q88 0 154.5 -49t66.5 -134q0 -32 -14 -71q-7 -20 -40 -106t-50 -141t-28 -108t-11 -104q0 -147 127 -147q99 0 180 131q34 56 79.5 182t45.5 180q0 42 -17.5 67.5t-52.5 54.5t-48 45t-13 48q0 39 22.5 74.5t57.5 57.5 t73 22q69 0 102.5 -55t33.5 -128q0 -90 -33 -219.5t-94.5 -254t-148.5 -206t-191 -81.5q-342 0 -342 266q0 48 11 99.5t26.5 101t42 118.5t47.5 125q28 74 28 117q0 33 -22 33q-121 0 -187 -248q-2 -13 -22 -18h-72q-26 6 -26 28z" />
<glyph unicode="w" horiz-adv-x="1571" d="M154 606q0 2 2 12q17 72 62 145t110.5 118t140.5 45q88 0 154.5 -49t66.5 -134q0 -32 -14 -71q-8 -23 -42.5 -112t-49.5 -137.5t-26 -100.5t-11 -101q0 -73 37 -114t108 -41q87 0 152 135q-4 32 -4 49q0 61 16 123l109 436q10 43 48.5 71.5t84.5 28.5q39 0 66.5 -24.5 t27.5 -63.5q0 -10 -4 -26l-107 -428q-22 -95 -22 -154q0 -147 129 -147q59 0 105 48t78.5 124t45.5 125t41 161q4 26 4 35q0 42 -17.5 67.5t-52.5 54.5t-48 45t-13 48q0 60 48 107t106 47q68 0 101.5 -55t33.5 -128q0 -108 -55.5 -292.5t-114.5 -284.5q-46 -80 -114.5 -132 t-153.5 -52q-208 0 -291 102q-85 -102 -205 -102q-156 0 -256 61.5t-100 210.5q0 47 11.5 100.5t31 113.5t41 116t41.5 108q28 74 28 117q0 33 -22 33q-121 0 -187 -248q-8 -15 -22 -18h-72q-26 6 -26 28z" />
<glyph unicode="x" horiz-adv-x="1147" d="M143 172q0 68 43.5 118t110.5 50q42 0 72 -27t30 -69q0 -50 -30.5 -90.5t-75.5 -55.5q29 -32 80 -32q55 0 93.5 54.5t53.5 119.5l94 378q23 92 23 136q0 45 -26.5 67.5t-73.5 22.5q-92 0 -165 -76t-98 -172q-8 -15 -22 -18h-72q-26 6 -26 28q0 2 2 12q20 82 78.5 153 t140 113t168.5 42q186 0 260 -105q41 47 94 76t111 29q89 0 157 -51t68 -138q0 -69 -43 -118.5t-109 -49.5q-43 0 -73.5 27.5t-30.5 69.5q0 49 30 90t76 55q-29 33 -82 33q-36 0 -66 -27t-51.5 -69t-29.5 -76l-92 -371q-25 -98 -25 -143q0 -92 103 -92q92 0 165.5 76.5 t96.5 172.5q8 14 24 17h72q25 -7 25 -29q0 -2 -2 -10q-20 -81 -79 -153t-140.5 -114t-167.5 -42q-56 0 -103 9.5t-89.5 32t-70.5 62.5q-39 -45 -92.5 -74.5t-109.5 -29.5q-92 0 -159 50.5t-67 137.5z" />
<glyph unicode="y" horiz-adv-x="1149" d="M154 606q0 2 2 12q17 72 62 145t110.5 118t140.5 45q88 0 154.5 -49t66.5 -134q0 -32 -14 -71q-29 -73 -61 -159.5t-52 -165t-20 -146.5q0 -135 102 -135q109 0 197 122l153 621q12 44 50 72t83 28q40 0 67.5 -24.5t27.5 -63.5q0 -10 -4 -26l-201 -807 q-27 -111 -110 -204t-198 -145.5t-231 -52.5q-99 0 -181.5 43.5t-82.5 134.5q0 63 45 111.5t109 48.5q28 0 51 -12t37 -33.5t14 -50.5q0 -42 -24.5 -80t-61.5 -55q46 -25 100 -25q122 0 203 113.5t113 249.5q-74 -47 -162 -47q-141 0 -226 61t-85 197q0 93 29.5 185 t97.5 267q28 74 28 117q0 33 -22 33q-121 0 -187 -248q-2 -13 -22 -18h-72q-26 6 -26 28z" />
<glyph unicode="z" horiz-adv-x="1004" d="M127 12q0 11 4 17q75 122 173 217.5t267.5 236t253.5 226.5q-46 -1 -137 -5t-137 -4q-90 0 -125 -14q-7 -4 -13 -17.5t-22 -17.5h-72q-26 7 -26 29q0 2 2 12q17 63 61.5 117t107 85.5t126.5 31.5q45 0 80.5 -17.5t85.5 -54t75 -50t60 -13.5q12 0 27.5 17.5t33.5 46 t33 48.5t25 23h71q27 -7 27 -29q0 -7 -6 -16q-58 -94 -139 -180.5t-181.5 -172.5t-202.5 -170.5t-173 -156.5q56 0 169 4t168 4q74 0 138.5 26t79.5 87q3 13 22 18h72q26 -7 26 -29q0 -2 -2 -12q-21 -83 -76.5 -155t-135 -116t-162.5 -44q-41 0 -74.5 15.5t-81 50.5t-78 52 t-70.5 17q-42 0 -72 -25t-62 -65.5t-44 -44.5h-71q-25 7 -25 28z" />
<glyph unicode="{" d="M203 561q9 34 35 41h1017q33 -9 33 -41q-9 -34 -35 -41h-1017q-33 9 -33 41z" />
<glyph unicode="|" horiz-adv-x="2421" d="M266 561q9 34 35 41h2101q33 -9 33 -41q-9 -34 -35 -41h-2101q-33 10 -33 41z" />
<glyph unicode="}" d="M580 1092q0 11 6 20l145 254q19 34 49 53t64 19q42 0 73 -28.5t31 -70.5q0 -47 -39 -86l-231 -213q-8 -8 -25 -8q-20 0 -46.5 20t-26.5 40zM942 1092q0 11 6 20l146 254q39 72 112 72q42 0 73.5 -28t31.5 -71q0 -45 -39 -86l-232 -213q-8 -8 -24 -8q-21 0 -47.5 19.5 t-26.5 40.5z" />
<glyph unicode="~" d="M547 1214q0 15 10 25l57 53q59 55 117 92t117 37q38 0 65.5 -17t60 -49t48.5 -43.5t39 -11.5q36 0 69 22t79.5 60.5t60.5 38.5q15 0 28 -13t13 -30q0 -16 -8 -24l-58 -54q-66 -59 -121.5 -94t-111.5 -35q-34 0 -61.5 15t-57 44.5t-49.5 45.5t-45 16q-36 0 -69 -22 t-79.5 -60.5t-60.5 -38.5q-17 0 -30 13t-13 30z" />
<glyph unicode="&#xa1;" horiz-adv-x="1427" d="M131 41l10 39q8 18 31 24q137 0 199 7l297 1185q-39 4 -179 4q-32 11 -32 41l10 39q8 20 31 25h1030q33 -10 33 -41l-50 -428q-9 -28 -32 -33h-58q-32 9 -32 41q12 102 12 156q0 86 -30.5 129.5t-84.5 57t-143 13.5h-105q-61 0 -82 -4l-297 -1187q48 -5 234 -5 q33 -10 33 -41l-11 -38q-11 -20 -30 -25h-721q-16 0 -24.5 13.5t-8.5 27.5z" />
<glyph unicode="&#xa2;" horiz-adv-x="1933" d="M176 18q0 10 6 19l1047 1382q28 37 67 37h68q18 0 32.5 -9.5t18.5 -27.5l354 -1382q1 -1 2 -3t1 -3q0 -13 -11 -22t-22 -9h-1544q-19 0 -19 18zM489 246h906l-230 893z" />
<glyph unicode="&#xa3;" horiz-adv-x="1812" d="M330 477q0 123 36 252t103 243.5t156 203.5q85 85 188 144t218.5 89.5t236.5 30.5q165 0 293 -59t200 -176t72 -285q0 -254 -124 -475t-339 -350.5t-471 -129.5q-122 0 -226 32t-182 97.5t-119.5 160.5t-41.5 222zM594 406q0 -105 36.5 -185t109.5 -125t180 -45 q104 0 202 46.5t174 125.5q61 64 110.5 157t87 206t56.5 218.5t19 192.5q0 162 -82 261.5t-240 99.5q-107 0 -203 -47t-176 -131q-77 -84 -140 -221.5t-98.5 -288.5t-35.5 -264zM725 553l80 319q11 20 31 25h57q33 -10 33 -41l-6 -29h391l10 45q11 20 31 25h57q33 -9 33 -41 l-80 -319q-8 -20 -31 -25h-57q-33 9 -33 41l8 29h-391l-12 -45q-8 -19 -31 -25h-57q-33 9 -33 41z" />
<glyph unicode="&#xa4;" horiz-adv-x="1651" d="M147 41l11 39q8 18 30 24q131 0 166 33q4 4 6.5 7.5t6.5 7.5l733 1267q21 37 59 37h64q16 0 28.5 -10t12.5 -27l102 -1310q29 -5 133 -5q33 -9 33 -41l-10 -38q-8 -19 -31 -25h-610q-14 0 -22.5 13.5t-8.5 27.5l8 39q11 19 31 24q117 0 174 9l-68 882l-506 -872 q34 -11 71.5 -15t74.5 -4q33 -9 33 -41l-11 -38q-8 -19 -30 -25h-449q-14 0 -22.5 14t-8.5 27z" />
<glyph unicode="&#xa5;" horiz-adv-x="1571" d="M180 41l72 352q6 28 33 33h57q33 -10 33 -41q-14 -65 -18.5 -88.5t-4.5 -60.5q45 0 110 -4.5t99 -4.5h8h529q86 0 146 2.5t89 8.5q16 21 26.5 47.5t19 54.5t18.5 61q8 19 30 25h58q33 -8 33 -37q0 -2 -2 -12l-105 -352q-10 -20 -31 -25h-1167q-33 9 -33 41zM426 1038 q0 2 2 13l98 329q12 20 31 25h1143q33 -10 33 -41l-66 -330q-9 -27 -33 -33h-57q-33 10 -33 41q19 97 19 129q-21 0 -61.5 2t-81 3.5t-62.5 1.5h-8h-519q-184 0 -229 -9q-8 -10 -16.5 -27t-15.5 -38.5t-10.5 -34t-12.5 -43.5q-11 -19 -31 -25h-57q-33 9 -33 37zM502 553 l92 371q11 19 31 24h57q33 -6 33 -41l-15 -63h596l19 80q11 19 31 24h57q33 -6 33 -41l-93 -370q-11 -20 -30 -25h-58q-32 6 -32 41l16 63h-596l-20 -79q-12 -20 -31 -25h-57q-33 6 -33 41z" />
<glyph unicode="&#xa6;" horiz-adv-x="1835" d="M131 41l10 39q8 18 31 24q137 0 199 7l297 1185q-39 4 -179 4q-32 11 -32 41l10 39q8 20 31 25h1523q33 -9 33 -41l-8 -39q-10 -18 -31 -25q-139 0 -200 -6l-295 -1185q39 -5 178 -5q33 -10 33 -41l-11 -38q-11 -20 -30 -25h-666q-16 0 -24.5 13.5t-8.5 27.5l10 39 q9 19 31 24q65 0 109 1.5t90 5.5l297 1189h-572l-297 -1191q39 -5 179 -5q32 -10 32 -41l-10 -38q-11 -20 -31 -25h-665q-16 0 -24.5 13.5t-8.5 27.5z" />
<glyph unicode="&#xa7;" horiz-adv-x="1692" d="M195 37q0 15 12 29l678 542l-361 709q-6 12 -6 24l10 39q12 20 31 25h1202q33 -9 33 -41l-49 -428q-9 -28 -33 -33h-57q-33 9 -33 41q6 49 6 96q0 94 -35 148.5t-93 77.5t-125 28.5t-175 5.5h-317l295 -577q6 -18 6 -21q0 -17 -13 -26l-669 -537h366q141 0 236 11t169 47 t133.5 112t106.5 203q12 19 31 25h58q32 -9 32 -37q0 -2 -2 -13l-172 -462q-10 -19 -30 -25h-1203q-32 7 -32 37z" />
<glyph unicode="&#xa8;" horiz-adv-x="1812" d="M465 1114q0 39 38 102.5t75 102.5q56 56 127 88.5t143 32.5q164 0 235.5 -119.5t71.5 -296.5q0 -25 -2 -37q44 93 93 167.5t116.5 140.5t150 105.5t173.5 39.5q103 0 169 -66t66 -170q0 -117 -55 -117h-60q-28 0 -28 27v10q2 6 2 19q0 69 -150 69q-158 0 -255.5 -155.5 t-147.5 -356.5l-148 -591q47 -5 234 -5q33 -10 33 -41l-11 -38q-11 -20 -30 -25h-777q-15 0 -23.5 13.5t-8.5 27.5l10 39q8 19 31 24q184 0 254 7l151 606q35 140 35 241q0 109 -42.5 181.5t-143.5 72.5q-170 0 -193 -88q-3 -15 -16.5 -26t-28.5 -11h-59q-29 0 -29 27z" />
<glyph unicode="&#xa9;" horiz-adv-x="1692" d="M352 635q0 74 36 140.5t94 119t128 88.5q163 84 365 100l53 213q-49 4 -233 4q-33 10 -33 41l10 39q8 20 31 25h753q14 0 22.5 -12.5t8.5 -28.5l-8 -39q-10 -18 -31 -25q-184 0 -256 -6l-51 -209q71 0 150 -20t148.5 -59.5t112 -98.5t42.5 -137q0 -102 -63 -185.5 t-165 -143.5t-213.5 -91t-201.5 -31l-54 -210q47 -5 234 -5q33 -10 33 -41l-11 -38q-11 -20 -30 -25h-754q-16 0 -24.5 13.5t-8.5 27.5l10 39q9 19 31 24q185 0 254 7l53 211q-92 0 -194 37t-170 108t-68 168zM633 580q0 -140 172 -172l147 589q-128 -21 -204 -94 q-51 -51 -83 -147.5t-32 -175.5zM1071 403q152 25 225 99q52 52 84.5 146.5t32.5 176.5q0 55 -25.5 91.5t-68 56t-98.5 28.5z" />
<glyph unicode="&#xaa;" horiz-adv-x="1812" d="M453 1075q4 17 10.5 27t23.5 14h199q53 0 79 -37.5t26 -93.5q0 -55 -23 -145q-16 -68 -23.5 -115.5t-7.5 -85.5q0 -174 129 -221l221 878q-49 4 -233 4q-33 10 -33 41l10 39q9 20 31 25h754q14 0 22.5 -13.5t8.5 -27.5l-9 -39q-10 -18 -30 -25q-185 0 -256 -6l-217 -874 q95 30 160.5 95t106 149t68.5 192q30 112 73.5 186t125.5 74h199q33 -10 33 -41q-11 -34 -35 -41q-55 0 -84.5 -60.5t-50.5 -142.5q-28 -111 -88.5 -209.5t-145.5 -160.5q-77 -57 -188.5 -98t-198.5 -41l-53 -213q47 -5 233 -5q33 -9 33 -41l-10 -38q-11 -20 -31 -25h-754 q-15 0 -23.5 13.5t-8.5 27.5l10 39q8 19 31 24q184 0 254 7l53 213q-109 14 -190 57.5t-126 121.5t-45 185q0 67 21 160q20 86 20 127q0 30 -7 44.5t-32 14.5q-32 9 -32 41z" />
<glyph unicode="&#xad;" horiz-adv-x="1692" d="M238 41l16 336q6 28 33 33h57q33 -11 33 -41q-4 -58 -4 -97t2 -53q35 -8 112 -8h9h108q-11 75 -38 140.5t-71 159.5t-66.5 166.5t-22.5 151.5q0 129 67 248t176 201q108 83 249.5 122.5t295.5 39.5h4q142 0 268.5 -38t208.5 -127.5t82 -236.5q0 -117 -55.5 -224.5 t-166.5 -228t-196.5 -209.5t-136.5 -165h84q119 0 137 14q13 15 28 42.5t30.5 61.5t25.5 56q8 19 31 25h57q33 -8 33 -37q0 -2 -2 -13l-151 -335q-12 -19 -31 -25h-375q-33 7 -33 37q0 2 2 12q28 113 71.5 200t153.5 289t156.5 326t46.5 248q0 123 -72 184.5t-198 61.5 q-177 0 -290 -100.5t-163.5 -256.5t-50.5 -329q0 -40 7.5 -173.5t7.5 -197.5q0 -140 -29 -268q-9 -28 -33 -33h-375q-32 9 -32 41z" />
<glyph unicode="&#xae;" horiz-adv-x="1546" d="M-37 -248q0 64 44 111t108 47q43 0 73.5 -26.5t30.5 -69.5q0 -44 -22.5 -79t-59.5 -54q27 -13 58 -13q54 0 92 133q32 133 100 516l90 488h-213q-33 9 -33 41l9 39q11 18 30 24h228l22 125q27 145 76.5 233t139.5 129.5t235 41.5q102 0 185 -38.5t83 -127.5 q0 -64 -44 -111t-108 -47q-41 0 -72.5 27.5t-31.5 68.5q0 84 74 129q-38 17 -92 17q-87 0 -124 -31.5t-59 -116.5q-19 -75 -34 -168l-25 -131h479l23 125q18 93 40.5 162.5t61 123.5t100.5 86t154 32q93 0 170.5 -40t77.5 -126q0 -64 -44.5 -111t-107.5 -47 q-41 0 -72.5 27.5t-31.5 68.5q0 88 78 131q-31 15 -74 15q-26 0 -46.5 -20.5t-27.5 -47.5q-24 -97 -49 -248l-24 -131h249q33 -9 33 -41l-10 -39q-8 -19 -31 -24h-260l-90 -483q-20 -112 -31.5 -170t-25.5 -114.5t-36.5 -119.5t-53.5 -115q-59 -93 -158 -155t-205 -62 q-53 0 -111 16t-96.5 53.5t-38.5 96.5q0 64 44 111t108 47q43 0 73.5 -26.5t30.5 -69.5q0 -41 -22 -76.5t-56 -54.5q31 -15 72 -15q53 0 109 56q36 36 53 73.5t31 98.5q28 116 86 421l90 488h-479l-89 -483q-15 -88 -28.5 -155t-30.5 -136.5t-41 -137t-53 -116.5 q-46 -78 -119 -134.5t-154 -56.5q-89 0 -158 41.5t-69 124.5z" />
<glyph unicode="&#xaf;" horiz-adv-x="1380" d="M-37 -250q0 63 44.5 111.5t107.5 48.5q43 0 73.5 -26.5t30.5 -69.5t-23.5 -79.5t-62.5 -56.5q28 -10 47 -10q29 0 48 31.5t28 69.5q26 111 57.5 273t51.5 275l90 488h-215q-33 9 -33 41l10 39q8 19 31 24h225l23 125q30 165 102.5 253.5t184 119.5t278.5 31 q87 0 169.5 -10t146 -49t63.5 -117q0 -67 -44.5 -115.5t-109.5 -48.5q-41 0 -72.5 27.5t-31.5 68.5q0 85 78 131q-68 31 -207 31q-103 0 -159 -14.5t-88 -50t-45.5 -83.5t-37.5 -168l-23 -131h623q27 -8 27 -30l-164 -654q-15 -64 -17 -100q0 -59 37 -59q47 0 72.5 66.5 t52.5 172.5q6 22 27 27h72q24 -7 24 -29q0 -2 -2 -12q-30 -120 -92 -213.5t-160 -93.5q-63 0 -119.5 23t-91.5 67.5t-35 107.5q0 27 7 49l143 574h-424l-88 -483q-31 -177 -65.5 -318t-88.5 -231q-47 -79 -114.5 -133t-147.5 -54q-82 0 -147.5 43t-65.5 121z" />
<glyph unicode="&#xb0;" horiz-adv-x="1440" d="M-37 -250q0 63 44.5 111.5t107.5 48.5q43 0 73.5 -26.5t30.5 -69.5q0 -42 -23.5 -78.5t-62.5 -57.5q28 -10 47 -10q29 0 48 31.5t28 69.5q40 166 109 548l90 488h-215q-33 9 -33 41l10 39q11 19 31 24h225l25 125q21 114 56.5 191t93 123.5t138.5 68t193 21.5 q113 0 206 -36t93 -130v-17l37 150q2 12 24 16h174q25 -8 25 -30l-291 -1166q-13 -58 -16 -100q0 -59 37 -59q45 0 72 69.5t53 169.5q6 22 26 27h72q25 -7 25 -29q0 -2 -3 -12q-18 -73 -49 -142t-83 -117t-119 -48q-63 0 -119.5 23t-91.5 67.5t-35 107.5q0 25 6 49l143 574 h-483l-90 -483q-33 -192 -65 -324.5t-87 -224.5q-46 -77 -115 -132t-147 -55q-84 0 -149.5 43t-65.5 121zM700 909h492l74 299q-17 -41 -57 -67.5t-83 -26.5q-41 0 -72.5 27.5t-31.5 68.5q0 39 19 72.5t51 54.5q-47 19 -119 19q-27 0 -67 -6.5t-72.5 -20.5t-42.5 -37 q-13 -25 -23.5 -56.5t-17 -60t-13 -64t-12.5 -71.5z" />
<glyph unicode="&#xb1;" horiz-adv-x="2138" d="M-37 -250q0 63 44.5 111.5t107.5 48.5q43 0 73.5 -26.5t30.5 -69.5q0 -42 -23.5 -78.5t-62.5 -57.5q28 -10 47 -10q29 0 48 31.5t28 69.5q17 73 32 148t28 145l28 140q13 70 21 115l90 488h-215q-33 9 -33 41l10 39q8 19 31 24h225l23 125q27 149 83 237.5t152 127.5 t246 39q111 0 204 -36t93 -130q0 -64 -44.5 -111t-107.5 -47q-41 0 -72.5 27.5t-31.5 68.5q0 38 20 73t49 54q-46 19 -116 19q-58 0 -107.5 -14t-72.5 -50q-26 -47 -38 -98t-30 -154l-23 -131h502l25 125q23 127 72.5 208t120 122.5t163 57.5t223.5 16q160 0 277 -31 t117 -145q0 -66 -44 -115t-110 -49q-41 0 -72.5 27.5t-31.5 68.5t20.5 75.5t56.5 55.5q-41 20 -93.5 25.5t-127.5 5.5q-136 0 -200 -25.5t-90 -85.5t-54 -205l-24 -131h653q26 -7 26 -30l-163 -654q-14 -55 -17 -100q0 -59 37 -59q47 0 72.5 66.5t52.5 172.5q6 22 27 27h71 q25 -7 25 -29q0 -2 -2 -12q-19 -74 -50 -142.5t-83 -116.5t-119 -48q-63 0 -119.5 23t-91.5 67.5t-35 107.5q0 25 6 49l144 574h-453l-90 -483q-31 -179 -60.5 -301t-86.5 -216q-61 -97 -162.5 -158t-210.5 -61q-99 0 -178.5 39t-79.5 127q0 65 43.5 111.5t107.5 46.5 q43 0 74 -26.5t31 -69.5q0 -39 -20 -74t-56 -57q34 -15 82 -15q59 0 121 62q37 37 52.5 72.5t33.5 103.5q41 179 82 411l90 488h-504l-88 -483q-26 -142 -42.5 -221.5t-44.5 -171.5t-67 -156q-47 -79 -114.5 -133t-147.5 -54q-82 0 -147.5 43t-65.5 121z" />
<glyph unicode="&#xb2;" horiz-adv-x="2169" d="M-37 -250q0 63 44.5 111.5t107.5 48.5q43 0 73.5 -26.5t30.5 -69.5t-23.5 -79.5t-62.5 -56.5q23 -10 47 -10q28 0 47.5 34t28.5 69q46 207 106 546l91 488h-213q-33 9 -33 41l8 39q11 19 31 24h227l23 125q26 144 75.5 232t139.5 130t235 42q103 0 185.5 -38.5 t82.5 -127.5q0 -64 -44 -111t-107 -47q-43 0 -74 28t-31 68q0 84 74 129q-37 17 -92 17q-87 0 -124.5 -32t-57.5 -116q-20 -72 -35 -168l-25 -131h504l23 125q27 149 83.5 237.5t152.5 127.5t247 39q112 0 204.5 -35.5t92.5 -130.5v-17l37 150q2 12 24 16h175q24 -8 24 -30 l-291 -1166q-13 -58 -16 -100q0 -59 37 -59q45 0 72 69.5t53 169.5q6 22 26 27h72q25 -7 25 -29q0 -2 -2 -12q-19 -74 -50 -142.5t-83 -116.5t-119 -48q-63 0 -119.5 23t-91.5 67.5t-35 107.5q0 25 6 49l143 574h-483l-88 -483q-31 -178 -62.5 -302.5t-84.5 -214.5 q-61 -96 -163 -157.5t-212 -61.5q-99 0 -178.5 39t-79.5 127q0 65 43.5 111.5t107.5 46.5q43 0 74 -26.5t31 -69.5q0 -39 -20.5 -74t-55.5 -55q35 -17 82 -17q61 0 123 62q38 38 53 75t31 103q25 100 84 409l90 488h-504l-88 -483q-26 -142 -42.5 -221.5t-44.5 -171.5 t-67 -156q-47 -79 -114.5 -133t-147.5 -54q-83 0 -148 42.5t-65 121.5zM1430 909h489l74 299q-17 -41 -57 -67.5t-83 -26.5q-41 0 -72.5 27.5t-31.5 68.5q0 39 19 72.5t51 54.5q-47 19 -117 19q-26 0 -66 -6.5t-73 -20.5t-43 -37q-26 -47 -38 -98t-30 -154z" />
<glyph unicode="&#xb3;" horiz-adv-x="727" d="M154 606q0 2 2 12q17 72 62 145t110.5 118t140.5 45q88 0 154.5 -49t66.5 -134q0 -32 -14 -71l-174 -455q-29 -75 -29 -119q0 -32 23 -32q71 0 117 78.5t69 170.5q8 14 25 17h71q25 -7 25 -29q0 -2 -2 -10q-29 -120 -115 -214.5t-199 -94.5q-88 0 -154.5 48.5 t-66.5 133.5q0 32 15 74l174 454q28 74 28 117q0 33 -22 33q-121 0 -187 -248q-8 -15 -22 -18h-72q-26 6 -26 28z" />
<glyph unicode="&#xb4;" horiz-adv-x="788" d="M-59 -264q0 39 20.5 75t56.5 57t76 21q43 0 73 -26.5t30 -69.5q0 -79 -64 -123q6 -2 21 -2q72 0 122 76.5t70 163.5l195 778q13 54 16 98q0 60 -37 60q-84 0 -146 -75t-100 -173q-8 -15 -22 -18h-72q-26 6 -26 28q0 2 2 12q29 76 84 147.5t128.5 116t157.5 44.5 q63 0 119.5 -23t91.5 -68t35 -108q0 -26 -6 -47l-199 -795q-22 -86 -87 -155t-154 -106.5t-179 -37.5q-79 0 -142.5 37.5t-63.5 112.5z" />
<glyph unicode="&#xb5;" d="M621 1298q0 34 20.5 65t53 50t65.5 19q26 0 48.5 -13t33.5 -35l147 -266q6 -9 6 -20q0 -21 -28.5 -47.5t-48.5 -26.5q-4 0 -9.5 2t-11.5 4l-242 195q-34 34 -34 73z" />
<glyph unicode="&#xb6;" d="M764 1098q0 16 8 24l287 271q39 39 90 39q42 0 70 -30t28 -71q0 -69 -69 -108l-332 -193q-6 -2 -11 -4t-10 -2q-21 0 -41 27t-20 47z" />
<glyph unicode="&#xb8;" d="M602 1313q0 98 41 108h16q33 -9 33 -41q-6 -24 -6 -47q0 -74 63 -113.5t142 -39.5q68 0 136 26t118.5 76t66.5 115q12 19 31 24h17q32 -7 32 -37q0 -2 -2 -12q-22 -88 -85 -162t-151 -116.5t-177 -42.5q-116 0 -195.5 74t-79.5 188z" />
<glyph unicode="&#xb9;" d="M510 1182l10 45q11 19 31 24h715q32 -9 32 -41l-10 -45q-11 -19 -31 -24h-714q-33 9 -33 41z" />
<glyph unicode="&#xba;" horiz-adv-x="1942" d="M1049 1249q0 100 90 153.5t196 53.5q84 0 143.5 -30.5t59.5 -104.5q0 -67 -44.5 -114t-111 -70t-131.5 -23q-80 0 -141 31t-61 104zM1165 1243q0 -30 31 -38.5t76 -8.5q84 0 112 27q35 31 35 104q0 30 -29.5 38.5t-74.5 8.5q-84 0 -113 -26q-16 -15 -26.5 -46t-10.5 -59z " />
<glyph unicode="&#xbb;" horiz-adv-x="1090" d="M223 -346q9 34 35 41q363 0 363 108q0 35 -38.5 48.5t-82.5 13.5q-33 9 -33 41l29 108q8 19 30 25h160q33 -9 33 -41l-17 -61q62 -11 104 -41.5t42 -85.5q0 -197 -584 -197q-17 0 -29 11t-12 30z" />
<glyph unicode="&#xbc;" horiz-adv-x="1362" d="M-25 -252q0 67 43.5 114.5t108.5 47.5q43 0 73.5 -26.5t30.5 -69.5q0 -47 -25 -84t-69 -56q15 -6 31 -6q48 0 78.5 53t46.5 115q18 69 46.5 216t49.5 265l88 488h-213q-33 10 -33 41l11 39q8 18 30 24h226l22 125q30 159 93 247t166.5 122.5t262.5 34.5q81 0 167.5 -19.5 t146 -70t59.5 -136.5q0 -38 -13.5 -66.5t-43.5 -78.5q-27 -40 -88 -124.5t-88 -119.5q-70 -93 -70 -123q0 -13 10.5 -31t24.5 -36t37 -42t30 -32q103 -105 103 -219q0 -98 -62 -180.5t-159 -129t-193 -46.5q-91 0 -162 46t-71 130q0 56 33.5 96.5t87.5 40.5q34 0 58.5 -21.5 t24.5 -56.5q0 -34 -18.5 -63.5t-48.5 -42.5q34 -47 102 -47q39 0 75 46t57.5 107.5t21.5 99.5q0 33 -16 60.5t-43 56.5q-64 65 -64 178q0 63 16 110t46 86.5t79 90.5q21 23 48 89t44 129.5t17 97.5q0 63 -46 101t-110 38q-91 0 -142.5 -19t-77.5 -57t-33 -70t-33 -170 l-132 -718q-14 -77 -27 -147t-31.5 -143t-41 -135t-51.5 -112q-31 -51 -78 -97t-105.5 -74t-117.5 -28q-75 0 -132 44t-57 118z" />
<glyph unicode="&#xbd;" horiz-adv-x="1692" d="M178 219q0 120 97.5 237t220.5 191q97 58 203 100.5t257 90.5q11 39 44 63.5t73 24.5q30 0 54.5 -18t27.5 -48q126 66 279 66q103 0 183.5 -50.5t80.5 -148.5t-64 -158.5t-163.5 -87.5t-193 -33t-208.5 -6h-8q-27 -114 -27 -174q0 -89 48 -145.5t137 -56.5q93 0 180.5 46 t152.5 124h43l41 -43q6 -10 6 -21q0 -9 -6 -18q-75 -88 -187 -129t-237 -41q-150 0 -247 77q-14 -34 -45.5 -55.5t-67.5 -21.5q-33 0 -59.5 19.5t-26.5 51.5q-106 -71 -217 -71q-86 0 -171 20.5t-142.5 73t-57.5 141.5zM418 156q0 -90 137 -90q76 0 139.5 45t108.5 114 l129 516q-99 -41 -183.5 -93.5t-152.5 -121.5q-50 -52 -88.5 -110.5t-64 -127.5t-25.5 -132zM1081 524q84 0 157 5t145 23.5t121.5 61.5t49.5 115q0 51 -37.5 83t-89.5 32q-72 0 -128.5 -24.5t-97.5 -67.5t-71 -101.5t-49 -126.5z" />
<glyph unicode="&#xbe;" horiz-adv-x="1692" d="M213 303q0 158 72 305t200.5 238.5t288.5 91.5q54 0 108.5 -15.5t98 -47t70.5 -78.5q50 41 114.5 71t133 44t135.5 14q103 0 183.5 -50.5t80.5 -148.5q0 -99 -62.5 -159t-159.5 -87t-189 -33t-206 -6h-8q-28 -108 -31 -184q0 -85 45.5 -138.5t131.5 -53.5q93 0 180.5 46 t152.5 124h43l41 -43q6 -10 6 -21q0 -9 -6 -18q-75 -88 -187 -129t-237 -41q-94 0 -179.5 34t-133.5 105q-73 -71 -164 -111.5t-188 -40.5q-153 0 -243.5 89.5t-90.5 242.5zM438 195q0 -57 29.5 -99.5t85.5 -42.5q130 0 193.5 123.5t107.5 304.5q37 152 37 219 q0 66 -29.5 111t-93.5 45q-86 0 -143 -67.5t-82 -140t-60 -204.5q-45 -172 -45 -249zM1094 524q113 0 209 11t173.5 55.5t77.5 138.5q0 51 -37.5 83t-89.5 32q-247 0 -333 -320z" />
<glyph unicode="&#xbf;" d="M154 -197q0 4 2 9.5t4 11.5l182 227q-115 95 -115 266q0 123 46 236.5t129.5 200t195 135.5t236.5 49q109 0 190 -37l188 236q13 12 29 12t29.5 -12.5t13.5 -28.5q0 -10 -6 -21l-184 -229q58 -45 87 -115t29 -151q0 -166 -80 -309t-219 -227.5t-305 -84.5q-107 0 -194 37 l-187 -233q-10 -13 -28 -13q-15 0 -29 13t-14 28zM434 242q0 -37 8 -68l510 637q-44 45 -125 45q-57 0 -107 -22t-91.5 -60t-73.5 -88q-44 -77 -82.5 -218t-38.5 -226zM485 98q49 -45 127 -45q82 0 152.5 47.5t118.5 122.5q43 74 82 217.5t39 227.5q0 37 -9 67z" />
<glyph unicode="&#xc0;" horiz-adv-x="2093" d="M150 41l10 39q8 18 30 24q164 0 193 35l7 7q4 4 7 8l711 1146h-107q-32 11 -32 41l10 39q8 20 31 25h1153q32 -10 32 -41l-49 -428q-9 -28 -32 -33h-58q-33 9 -33 41q13 91 13 154q0 86 -32 130.5t-86.5 58t-145.5 13.5h-117q-62 0 -82 -4l-318 -1271q-10 -19 -30 -25 h-205q-33 9 -33 41l334 1339q11 20 31 25h204q33 -9 33 -41l-159 -637h77q91 0 138 18.5t72.5 64t47.5 132.5q10 20 31 25h57q33 -9 33 -41l-131 -518q-8 -20 -31 -25h-57q-33 10 -33 41q20 73 23 119q0 53 -43 66.5t-113 13.5h-96l-131 -517q18 -2 63 -2h4h132 q160 0 257.5 61.5t132.5 123t79.5 167.5t72.5 113h58q32 -7 32 -37q0 -2 -2 -12l-209 -495q-10 -19 -30 -25h-1012q-33 9 -33 41l10 39q12 19 31 24q103 0 144 5l129 514h-304l-309 -500q50 -19 139 -19q33 -9 33 -41l-8 -38q-11 -20 -31 -25h-473q-13 0 -21.5 14t-8.5 27z M895 727h262l143 567q-8 0 -25 2t-26 2z" />
<glyph unicode="&#xc1;" horiz-adv-x="2335" d="M369 477q0 123 36 252t103 243.5t156 203.5q85 85 188 144t218.5 89.5t236.5 30.5q61 0 182.5 -17.5t177.5 -17.5h737q33 -9 33 -41l-49 -428q-9 -28 -33 -33h-57q-33 9 -33 41q9 73 12 150q0 92 -34.5 136t-94 57t-153.5 13h-146q-61 0 -82 -4l-129 -514h121q73 0 120 8 t79.5 30.5t54 65.5t37.5 111q11 20 31 25h57q33 -9 33 -41l-129 -518q-8 -20 -31 -25h-57q-33 9 -33 41q18 83 18 109q0 60 -49.5 75t-130.5 15h-147l-144 -572q19 -2 64 -2h4h158q171 0 272 61t142.5 132t80.5 168t68 104h57q33 -7 33 -37q0 -2 -2 -12l-209 -495 q-10 -20 -31 -25h-784q-64 0 -197 -17.5t-186 -17.5q-122 0 -226 32t-182 97.5t-119.5 160.5t-41.5 222zM655 440q0 -163 74 -278t229 -115q80 0 135 21t87.5 60.5t54.5 96t43 135.5l170 684q25 111 25 177q0 84 -47.5 110.5t-139.5 26.5q-148 0 -267.5 -89t-200 -231.5 t-122 -303.5t-41.5 -294z" />
<glyph unicode="&#xc2;" horiz-adv-x="1812" d="M330 477q0 123 36 252t103 243.5t156 203.5q85 85 188 144t218.5 89.5t236.5 30.5q94 0 179 -19.5t152 -58.5l148 172q12 12 29 12t33 -14t16 -31q0 -14 -10 -24l-144 -164q83 -69 122.5 -172t39.5 -221q0 -254 -124 -475t-339 -350.5t-471 -129.5q-189 0 -334 76 l-147 -170q-9 -12 -27 -12q-16 0 -32.5 13.5t-16.5 31.5q0 16 8 24l142 162q-82 69 -122 171t-40 216zM590 371q0 -80 22 -142l891 1024q-44 52 -113 78.5t-143 26.5q-73 0 -143 -20.5t-132 -60t-112 -93.5q-87 -97 -129.5 -206t-85.5 -284q-31 -130 -43 -192.5t-12 -130.5z M659 150q92 -103 261 -103q108 0 209.5 45.5t175.5 124.5q58 62 97 138t65 159t51 180q33 146 45 206.5t12 127.5q0 78 -25 146z" />
<glyph unicode="&#xc3;" horiz-adv-x="606" d="M164 602v29q0 27 24 39l600 151q11 2 13 2q30 0 37 -32v-29q0 -26 -25 -39l-600 -152q-10 -2 -12 -2q-30 0 -37 33z" />
<glyph unicode="&#xc4;" d="M569 1253q0 68 53 119t119 51q50 0 85.5 -33t35.5 -83q0 -67 -53.5 -118.5t-120.5 -51.5q-48 0 -83.5 34.5t-35.5 81.5zM989 1253q0 68 53 119t119 51q50 0 85.5 -33t35.5 -83q0 -67 -53.5 -118.5t-120.5 -51.5q-50 0 -84.5 33.5t-34.5 82.5z" />
<glyph unicode="&#x2000;" horiz-adv-x="773" />
<glyph unicode="&#x2001;" horiz-adv-x="1546" />
<glyph unicode="&#x2002;" horiz-adv-x="773" />
<glyph unicode="&#x2003;" horiz-adv-x="1546" />
<glyph unicode="&#x2004;" horiz-adv-x="515" />
<glyph unicode="&#x2005;" horiz-adv-x="386" />
<glyph unicode="&#x2006;" horiz-adv-x="257" />
<glyph unicode="&#x2007;" horiz-adv-x="257" />
<glyph unicode="&#x2008;" horiz-adv-x="193" />
<glyph unicode="&#x2009;" horiz-adv-x="309" />
<glyph unicode="&#x200a;" horiz-adv-x="85" />
<glyph unicode="&#x2010;" horiz-adv-x="848" d="M186 397l33 133q11 20 31 25h510q33 -9 33 -41l-33 -133q-13 -23 -31 -25h-510q-33 6 -33 41z" />
<glyph unicode="&#x2011;" horiz-adv-x="848" d="M186 397l33 133q11 20 31 25h510q33 -9 33 -41l-33 -133q-13 -23 -31 -25h-510q-33 6 -33 41z" />
<glyph unicode="&#x2012;" horiz-adv-x="848" d="M186 397l33 133q11 20 31 25h510q33 -9 33 -41l-33 -133q-13 -23 -31 -25h-510q-33 6 -33 41z" />
<glyph unicode="&#x2013;" horiz-adv-x="1265" d="M186 397l56 133q18 20 52 25h860q56 -9 56 -41l-56 -133q-22 -23 -52 -25h-860q-56 6 -56 41z" />
<glyph unicode="&#x2014;" horiz-adv-x="2289" d="M186 397l111 133q37 20 105 25h1721q111 -9 111 -41l-111 -133q-44 -23 -105 -25h-1721q-111 6 -111 41z" />
<glyph unicode="&#x202f;" horiz-adv-x="309" />
<glyph unicode="&#x205f;" horiz-adv-x="386" />
<glyph unicode="&#x2219;" d="M594 1237q0 8 6 20l37 46q12 12 29 12q11 0 20 -6l209 -115l276 119q11 2 13 2q23 0 35 -25q2 -4 5.5 -13.5t7 -23t3.5 -16.5q0 -25 -16 -31l-328 -176h-41l-240 176q-16 10 -16 31z" />
<glyph unicode="&#xe000;" horiz-adv-x="925" d="M0 925h925v-925h-925v925z" />
</font>
</defs>
</svg>
