<?xml version="1.0" standalone="no"?>
<!DOCTYPE svg PUBLIC "-//W3C//DTD SVG 1.1//EN" "http://www.w3.org/Graphics/SVG/1.1/DTD/svg11.dtd" >
<svg xmlns="http://www.w3.org/2000/svg">
<metadata>
This is a custom SVG webfont generated by Font Squirrel.
Copyright   : Copyright C 1994 Basil K Malyshev All Rights Reserved012BaKoMa Fonts Collection LevelB
</metadata>
<defs>
<font id="cmex7Regular" horiz-adv-x="1575" >
<font-face units-per-em="2048" ascent="1638" descent="-410" />
<missing-glyph horiz-adv-x="500" />
<glyph unicode=" "  horiz-adv-x="500" />
<glyph unicode="&#x09;" horiz-adv-x="500" />
<glyph unicode="&#xa0;" horiz-adv-x="500" />
<glyph unicode="!" horiz-adv-x="1860" d="M104 76q0 8 7 16t16 8h66q8 0 14 -6q302 -285 512.5 -642.5t335 -754t179 -810.5t54.5 -859q0 -443 -54.5 -857t-179.5 -810.5t-334.5 -752.5t-512.5 -643q-6 -7 -14 -7h-66q-10 0 -16.5 8.5t-6.5 16.5q0 10 7 16q275 289 465 647.5t297 749t151.5 795t44.5 837.5 q0 435 -45 840.5t-151.5 796t-296.5 748.5t-465 646q-7 6 -7 17z" />
<glyph unicode="&#x22;" horiz-adv-x="1386" d="M649 100h686v-153h-532v-5835h532v-154h-686v6142z" />
<glyph unicode="#" horiz-adv-x="1386" d="M51 -53v153h686v-6142h-686v154h533v5835h-533z" />
<glyph unicode="$" horiz-adv-x="1513" d="M649 100h154v-5988h657v-154h-811v6142z" />
<glyph unicode="%" horiz-adv-x="1513" d="M51 -5888h658v5988h153v-6142h-811v154z" />
<glyph unicode="&#x26;" horiz-adv-x="1513" d="M649 100h811v-153h-657v-5989h-154v6142z" />
<glyph unicode="'" horiz-adv-x="1513" d="M51 -53v153h811v-6142h-153v5989h-658z" />
<glyph unicode="(" horiz-adv-x="1890" d="M354 -2939q0 14 13 21q133 70 241.5 184.5t168 256t59.5 294.5v1507q0 132 48 251t132.5 218.5t193 176.5t228.5 128q2 1 4 1.5t6 0.5h65q7 0 15 -7t8 -15v-66q0 -12 -12 -20q-97 -46 -182.5 -114.5t-150.5 -156.5t-100.5 -189t-35.5 -212v-1507q0 -129 -42.5 -245.5 t-121 -220t-177 -182t-216.5 -137.5q112 -53 214.5 -134t180 -183t120 -219t42.5 -246v-1507q0 -216 131 -394.5t338 -279.5q12 -4 12 -19v-65q0 -8 -7.5 -15.5t-15.5 -7.5h-65q-3 1 -5 1.5t-5 0.5q-120 52 -228.5 129.5t-193 177t-132.5 218t-48 250.5v1507 q0 117 -34.5 226t-97 204.5t-151 175t-186.5 129.5q-13 7 -13 19v65z" />
<glyph unicode=")" horiz-adv-x="1890" d="M354 12v66q0 9 7.5 15.5t15.5 6.5h65q4 0 6.5 -0.5t4.5 -1.5q118 -49 228 -127.5t193.5 -177t132 -218t48.5 -251.5v-1507q0 -117 34 -224.5t98 -205.5t149.5 -174.5t187.5 -130.5q12 -8 12 -21v-65q0 -11 -12 -19q-98 -50 -186 -129t-151 -175.5t-97.5 -205 t-34.5 -225.5v-1507q0 -132 -48.5 -251t-132 -218t-194 -177t-227.5 -129q-3 0 -5.5 -0.5t-5.5 -1.5h-65q-9 0 -16 7t-7 16v65q0 15 13 19q207 101 338 279.5t131 394.5v1507q0 129 44 248t120.5 219t179.5 181t213 134q-117 59 -215.5 137.5t-176 180t-121.5 220t-44 247.5 v1507q0 109 -35.5 211.5t-98.5 188.5t-150 156t-185 116q-13 7 -13 20z" />
<glyph unicode="*" horiz-adv-x="1890" d="M348 -2972q0 9 4 25l1118 2994q18 47 74 53q33 -3 53 -23t23 -52q0 -9 -4 -25l-1110 -2972l1110 -2969q4 -16 4 -25q-3 -31 -23 -52t-53 -24q-55 6 -74 54l-1118 2994q-4 16 -4 22z" />
<glyph unicode="+" horiz-adv-x="1890" d="M270 25q6 69 78 75q55 -7 72 -53l1118 -2994q4 -16 4 -25q0 -6 -4 -22l-1118 -2994q-17 -47 -72 -54q-34 3 -54.5 23.5t-23.5 52.5q0 9 4 25l1110 2969l-1110 2972q-4 16 -4 25z" />
<glyph unicode="," horiz-adv-x="2896" d="M127 -5968q2 12 6 21l2505 6004q21 43 63 43q26 0 45 -18.5t23 -44.5v-10q-2 -15 -4 -21l-2505 -6005q-25 -43 -63 -43q-28 0 -46.5 18.5t-23.5 45.5v10z" />
<glyph unicode="-" horiz-adv-x="2896" d="M127 27v10q4 26 23.5 44.5t46.5 18.5q39 0 63 -43l2505 -6004q2 -6 4 -21v-10q-5 -26 -23 -45t-45 -19q-41 0 -63 43l-2505 6005q-4 8 -4 9t-2 12z" />
<glyph unicode="." horiz-adv-x="1839" d="M127 -3527q0 13 6 25l1469 3570q4 12 17.5 22t27.5 10h12q51 -11 51 -57q0 -7 -4 -25l-1468 -3569q-6 -13 -20.5 -23t-27.5 -10h-12q-51 11 -51 57z" />
<glyph unicode="/" horiz-adv-x="1839" d="M127 43q0 46 51 57h12q30 0 48 -32l1468 -3570q4 -16 4 -25q0 -46 -51 -57h-12q-14 0 -27 10t-18 23l-1469 3569q-6 13 -6 25z" />
<glyph unicode="0" horiz-adv-x="2048" d="M694 -3584q0 526 53.5 1015.5t181.5 963.5t353 908t555 787q8 8 16 8h70q9 0 16 -8t7 -16q0 -11 -7 -17q-300 -365 -499.5 -799t-308 -902t-151 -949t-42.5 -995q0 -8 -7.5 -15.5t-15.5 -7.5h-198q-23 0 -23 27z" />
<glyph unicode="1" horiz-adv-x="2048" d="M102 74q0 8 7 16t16 8h70q8 0 16 -8q330 -352 556 -787.5t353 -907t180.5 -964.5t53.5 -1015q0 -27 -23 -27h-198q-8 0 -15.5 7.5t-7.5 15.5q0 529 -42 1002t-151 941.5t-308 902.5t-500 799q-7 6 -7 17z" />
<glyph unicode="2" d="M766 98h766v-170h-596v-3514h-170v3684z" />
<glyph unicode="3" d="M43 -72v170h766v-3684h-170v3514h-596z" />
<glyph unicode="4" d="M766 100h170v-3514h596v-170h-766v3684z" />
<glyph unicode="5" d="M43 -3414h596v3514h170v-3684h-766v170z" />
<glyph unicode="6" d="M766 2h170v-1233h-170v1233z" />
<glyph unicode="7" d="M639 2h170v-1233h-170v1233z" />
<glyph unicode="8" horiz-adv-x="2079" d="M891 -934q0 152 52.5 295t143 261t215 214.5t259.5 157.5q4 4 10 4h69q7 0 15 -8t8 -15v-69q0 -13 -12 -21q-105 -62 -191 -151t-146 -198t-92 -229.5t-32 -244.5v-907q0 -8 -7.5 -15.5t-15.5 -7.5h-254q-7 0 -14.5 7.5t-7.5 15.5v911z" />
<glyph unicode="9" horiz-adv-x="2079" d="M416 -25q0 7 8 15t14 8h70q6 0 10 -4q136 -61 259.5 -156t216.5 -216t144.5 -261.5t51.5 -294.5v-911q0 -8 -7.5 -15.5t-15.5 -7.5h-254q-7 0 -14.5 7.5t-7.5 15.5v907q0 124 -31 244.5t-91.5 228.5t-147 198t-193.5 152q-12 8 -12 21v69z" />
<glyph unicode=":" horiz-adv-x="2079" d="M891 2q0 8 7.5 15.5t14.5 7.5h254q8 0 15.5 -7.5t7.5 -15.5v-909q0 -165 55 -322t160.5 -287.5t245.5 -214.5q12 -4 12 -18v-70q0 -6 -8 -14t-15 -8h-69q-2 1 -4.5 1.5t-5.5 0.5q-289 134 -479.5 381t-190.5 547v913z" />
<glyph unicode=";" horiz-adv-x="2079" d="M416 -1749q0 14 12 18q103 62 182 144q134 137 207.5 314t73.5 366v909q0 8 7.5 15.5t14.5 7.5h254q8 0 15.5 -7.5t7.5 -15.5v-913q0 -153 -51.5 -292.5t-144.5 -261t-216 -216.5t-260 -158q-2 0 -4.5 -0.5t-5.5 -1.5h-70q-6 0 -14 8t-8 14v70z" />
<glyph unicode="&#x3c;" horiz-adv-x="2079" d="M416 -1808q0 10 12 18q111 73 197 171.5t145.5 217t90 249.5t30.5 265v889q0 8 7.5 15.5t14.5 7.5h254q8 0 15.5 -7.5t7.5 -15.5v-893q0 -201 -81.5 -383.5t-225.5 -328.5t-322 -240q179 -94 323 -241t225 -329t81 -383v-892q0 -7 -8 -15t-15 -8h-254q-6 0 -14 8t-8 15 v888q0 135 -31 267t-89.5 248.5t-146 217t-196.5 169.5q-12 12 -12 20v70z" />
<glyph unicode="=" horiz-adv-x="2079" d="M891 2q0 8 7.5 15.5t14.5 7.5h254q8 0 15.5 -7.5t7.5 -15.5v-889q0 -133 30.5 -264t89.5 -249.5t145.5 -217.5t195.5 -172q12 -8 12 -18v-70q0 -8 -12 -20q-147 -95 -251 -238.5t-157 -315.5t-53 -348v-888q0 -7 -8 -15t-15 -8h-254q-6 0 -14 8t-8 15v892q0 151 47 294 t132.5 266.5t199 222.5t248.5 170q-179 94 -321.5 239.5t-224 329t-81.5 383.5v893z" />
<glyph unicode="&#x3e;" horiz-adv-x="2079" d="M891 2q0 8 7.5 15.5t14.5 7.5h254q8 0 15.5 -7.5t7.5 -15.5v-618q0 -7 -8 -15t-15 -8h-254q-6 0 -14 8t-8 15v618z" />
<glyph unicode="?" d="M735 2h105v-1233h-105v1233z" />
<glyph unicode="@" horiz-adv-x="2048" d="M694 98q0 27 23 27h198q7 0 15 -8t8 -15q0 -512 42.5 -993.5t151 -949t308 -902t499.5 -800.5q7 -6 7 -16t-6.5 -17.5t-16.5 -7.5h-70q-8 0 -16 8q-330 355 -554.5 787.5t-353 908t-182 964t-53.5 1014.5z" />
<glyph unicode="A" horiz-adv-x="2048" d="M102 -3559q0 10 7 16q301 366 500 800.5t308 902.5t151 941t42 1001q0 7 8 15t15 8h198q23 0 23 -27q0 -522 -53 -1014t-180.5 -965t-353 -907t-556.5 -788q-8 -8 -16 -8h-70q-10 0 -16.5 7.5t-6.5 17.5z" />
<glyph unicode="B" horiz-adv-x="2048" d="M694 2q0 9 7 16t16 7h198q8 0 15.5 -7.5t7.5 -15.5v-1233q0 -6 -8 -14t-15 -8h-198q-8 0 -15.5 7.5t-7.5 14.5v1233z" />
<glyph unicode="C" horiz-adv-x="2048" d="M1110 2q0 8 7.5 15.5t15.5 7.5h198q9 0 16 -7t7 -16v-1233q0 -7 -7.5 -14.5t-15.5 -7.5h-198q-7 0 -15 8t-8 14v1233z" />
<glyph unicode="D" horiz-adv-x="1450" d="M287 -1743q4 22 6 25l815 1786q17 29 53 32q54 -6 60 -59q-4 -19 -7 -25l-802 -1759l802 -1759q2 -4 7 -25q-6 -53 -60 -59q-36 3 -53 33l-815 1784q-1 3 -2.5 10.5t-3.5 15.5z" />
<glyph unicode="E" horiz-adv-x="1450" d="M227 41q6 53 60 59q36 -3 53 -32l815 -1786q2 -5 3.5 -12t2.5 -13q-4 -22 -6 -26l-815 -1784q-17 -30 -53 -33q-54 6 -60 59q4 20 6 25l803 1759l-803 1759q-2 5 -3 11t-3 14z" />
<glyph unicode="F" horiz-adv-x="1954" d="M160 -80q9 71 80 80h10q33 -4 54.5 -26t25.5 -54v-1798h1292v858v940q9 71 80 80h10q33 -4 54.5 -26t25.5 -54v-1888q-9 -71 -80 -80h-1472q-70 9 -80 80v1888z" />
<glyph unicode="G" horiz-adv-x="2583" d="M160 -92q4 38 28.5 62.5t63.5 29.5h10q38 -4 63 -29t29 -63v-1348v-1233h1874v1243v1338q4 38 28.5 62.5t63.5 29.5h11q38 -4 63 -29t29 -63v-1348v-1335q-5 -39 -29.5 -63.5t-62.5 -28.5h-2079q-39 5 -63 29t-29 63v1345v1338z" />
<glyph unicode="H" horiz-adv-x="1135" d="M160 -2064q0 40 29 69t69 29t68 -29t28 -69q0 -35 -20.5 -61.5t-54.5 -33.5q51 -51 133 -51q153 0 206 264q15 73 30.5 205t15.5 199q-84 28 -150.5 89t-103.5 143t-37 171q0 108 50.5 201.5t138 153t194.5 71.5q10 66 33 210t63.5 252.5t116 179.5t194.5 71 q60 0 119 -26t96 -75t37 -112q0 -38 -28 -67t-68 -29t-69 29t-29 67q0 36 21 63t54 33q-50 51 -131 51q-80 0 -119 -60.5t-61 -160.5q-14 -86 -24 -190q-11 -102 -14 -137t-11 -119q85 -28 151.5 -89.5t103 -143.5t36.5 -173q0 -110 -50.5 -201.5t-138 -150.5t-194.5 -72 q-7 -47 -19.5 -142.5t-26.5 -159.5t-40 -130q-48 -120 -137.5 -200t-208.5 -80q-46 0 -90.5 14.5t-81 43t-58.5 67.5t-22 86zM473 -1139q0 -96 55 -178t144 -121q9 103 30 301q29 242 39 320q-75 -15 -136.5 -60.5t-96.5 -116t-35 -145.5zM858 -1458q74 13 136 59.5 t97 115.5t35 144q0 65 -25 125t-69 105t-104 71q-6 -60 -8 -84t-10 -97t-13 -122q-12 -106 -39 -317z" />
<glyph unicode="I" horiz-adv-x="1323" d="M160 -4321q0 46 32 78t78 32q45 0 77 -32t32 -78q0 -43 -27.5 -74t-70.5 -35q50 -55 129 -55q78 0 144 102.5t117 255t79 269t55 243.5q27 120 73.5 349.5t84.5 422.5q-111 47 -196.5 134.5t-132 199.5t-46.5 234q0 165 83 307.5t225.5 225.5t307.5 83h19q77 330 186 737 q15 56 62.5 230.5t111 330t149 258.5t187.5 103q64 0 122.5 -30t94 -84t35.5 -117q0 -45 -32 -77t-77 -32q-46 0 -78 32t-32 77q0 44 27.5 74.5t70.5 35.5q-52 55 -129 55q-62 0 -135 -200.5t-143.5 -496t-116.5 -528.5t-82 -417q170 -72 273.5 -228t103.5 -339 q0 -165 -83.5 -307.5t-226 -226t-307.5 -83.5h-20q-81 -341 -187 -737q-68 -260 -126 -434t-175 -331t-284 -157q-64 0 -122.5 30t-94 84t-35.5 116zM688 -2275q0 -149 80.5 -274.5t214.5 -190.5q42 207 99 467.5t116 513.5q-136 0 -254 -70.5t-187 -189.5t-69 -256z M1208 -2791q103 0 197 41t164 111.5t110.5 164.5t40.5 199q0 97 -36 188.5t-102.5 163t-156.5 115.5q-85 -418 -217 -983z" />
<glyph unicode="J" horiz-adv-x="2583" d="M160 -1020q0 218 93 406t253.5 326t364 213t415.5 75h10q213 0 416.5 -75t363.5 -212t253.5 -326t93.5 -407v-10q0 -217 -93.5 -406t-253.5 -325.5t-363.5 -211.5t-416.5 -75h-10q-212 0 -415.5 75t-364 213t-253.5 325.5t-93 404.5v10zM330 -1024q0 -186 79.5 -344 t218.5 -272.5t312 -176t352 -61.5t351.5 61.5t311 175.5t218.5 273t80 344q0 186 -80.5 345t-218 273t-309 175t-353.5 61t-354 -61t-310 -175t-218 -272.5t-80 -345.5zM1145 -1024q0 59 43 102t104 43t103.5 -42.5t42.5 -102.5q0 -59 -43 -102t-103 -43t-103.5 43.5 t-43.5 101.5z" />
<glyph unicode="K" horiz-adv-x="3490" d="M160 -1430q0 306 130.5 571t356.5 458.5t509 297t585 103.5h10q301 0 585 -104t509.5 -297t355 -456.5t129.5 -572.5v-10q0 -307 -130 -570.5t-355.5 -455.5t-510.5 -296.5t-583 -104.5h-10q-299 0 -583 104t-510.5 296.5t-357 457.5t-130.5 569v10zM354 -1434 q0 -270 115 -498.5t315 -395.5t449 -256t512 -89q264 0 512.5 89t448.5 256t314.5 396.5t114.5 497.5q0 269 -115.5 500t-313 396t-448 254t-513.5 89q-261 0 -512.5 -89t-449 -254t-313.5 -395t-116 -501zM1575 -1434q0 69 50.5 119.5t119.5 50.5q47 0 85.5 -23.5t61.5 -63 t23 -83.5q0 -69 -50.5 -119.5t-119.5 -50.5q-68 0 -119 51t-51 119z" />
<glyph unicode="L" horiz-adv-x="2583" d="M160 -1020q0 218 93 406t253.5 326t364 213t415.5 75h10q213 0 416.5 -75t363.5 -212t253.5 -326t93.5 -407v-10q0 -217 -93.5 -406t-253.5 -325.5t-363.5 -211.5t-416.5 -75h-10q-212 0 -415.5 75t-364 213t-253.5 325.5t-93 404.5v10zM334 -940h872v766 q-84 0 -188 -29.5t-201 -79t-170 -108.5q-62 -49 -114.5 -109.5t-94 -130.5t-68.5 -149.5t-36 -159.5zM334 -1110q12 -104 54 -205.5t108.5 -187.5t150.5 -154q110 -88 269.5 -152.5t289.5 -64.5v764h-872zM1376 -174v-766h873q-12 106 -55 207.5t-109 187.5t-150 154 q-73 59 -170 108.5t-201 79t-188 29.5zM1376 -1110v-764q130 0 291.5 65.5t267.5 151.5q84 67 150.5 153.5t109 187.5t54.5 206h-873z" />
<glyph unicode="M" horiz-adv-x="3490" d="M160 -1430q0 306 130.5 571t356.5 458.5t509 297t585 103.5h10q301 0 585 -104t509.5 -297t355 -456.5t129.5 -572.5v-10q0 -307 -130 -570.5t-355.5 -455.5t-510.5 -296.5t-583 -104.5h-10q-299 0 -583 104t-510.5 296.5t-357 457.5t-130.5 569v10zM358 -1337h1291v1138 q-141 0 -298.5 -44.5t-301.5 -119.5t-256 -167q-97 -82 -179 -185t-139 -215q-28 -56 -54.5 -128t-44.5 -148t-18 -131zM358 -1532q0 -56 18 -130.5t43.5 -144.5t55.5 -130q113 -223 316 -398q171 -141 409.5 -237.5t448.5 -96.5v1137h-1291zM1843 -199v-1138h1288 q0 55 -18.5 132t-47 154t-50.5 121q-57 113 -137.5 214t-178.5 184q-78 66 -184.5 128.5t-222.5 108.5t-228.5 71t-220.5 25zM1843 -1532v-1137q207 0 445.5 95t408.5 237q202 171 318 400q44 85 80 205t36 200h-1288z" />
<glyph unicode="N" horiz-adv-x="2583" d="M160 -1020q0 218 93 406t253.5 326t364 213t415.5 75h10q213 0 416.5 -75t363.5 -212t253.5 -326t93.5 -407v-10q0 -217 -93.5 -406t-253.5 -325.5t-363.5 -211.5t-416.5 -75h-10q-212 0 -415.5 75t-364 213t-253.5 325.5t-93 404.5v10zM330 -1024q0 -103 27 -200 t77 -184t119 -163l610 547l-610 547q-69 -76 -119 -163t-77 -184t-27 -200zM682 -362l610 -547l609 547q-59 43 -136 81t-152 62t-157 36.5t-164 12.5q-167 0 -322.5 -49t-287.5 -143zM682 -1686q66 -46 139.5 -82.5t149 -60t158 -36.5t163.5 -13t163.5 13t157.5 36.5 t148.5 59.5t139.5 83l-609 547zM1419 -1024l611 -547q69 76 119 163t77 184t27 200q0 152 -59.5 293.5t-163.5 253.5z" />
<glyph unicode="O" horiz-adv-x="3490" d="M160 -1430q0 306 130.5 571t356.5 458.5t509 297t585 103.5h10q301 0 585 -104t509.5 -297t355 -456.5t129.5 -572.5v-10q0 -307 -130 -570.5t-355.5 -455.5t-510.5 -296.5t-583 -104.5h-10q-299 0 -583 104t-510.5 296.5t-357 457.5t-130.5 569v10zM354 -1434 q0 -151 41 -296.5t116.5 -274.5t182.5 -242l905 813l-905 813q-77 -80 -140.5 -176.5t-107.5 -198.5t-68 -212.5t-24 -225.5zM842 -492l903 -811l903 811q-91 71 -203 129t-226 94.5t-231 55t-243 18.5q-162 0 -320.5 -33t-305 -99t-277.5 -165zM842 -2376 q131 -99 275.5 -164t304.5 -99t323 -34q161 0 321 34t305.5 99t276.5 164l-903 811zM1890 -1434l906 -813q107 113 182.5 243t116 274.5t40.5 295.5q0 115 -23.5 225.5t-67 211.5t-107.5 198.5t-141 177.5z" />
<glyph unicode="P" horiz-adv-x="2458" d="M160 -27q5 22 26 27h1915l195 -498h-78q-55 140 -172.5 224.5t-264.5 121t-284.5 44.5t-327.5 8h-743l739 -906q6 -9 6 -18q0 -11 -6 -20l-786 -871h809q187 0 327.5 9t283 45.5t256 120t163.5 222.5h78l-195 -530h-1915q-26 6 -26 29q0 13 8 18l817 909l-817 1000 q-7 10 -8 16v49z" />
<glyph unicode="Q" horiz-adv-x="2206" d="M160 0h1884v-100q-211 0 -211 -138v-1572q0 -138 211 -138v-100h-641v100q211 0 211 138v1710h-1024v-1710q0 -138 211 -138v-100h-641v100q211 0 211 138v1572q0 138 -211 138v100z" />
<glyph unicode="R" horiz-adv-x="1135" d="M160 -2064q0 40 29 69t69 29t68 -29t28 -69q0 -35 -20.5 -61.5t-54.5 -33.5q51 -51 133 -51q119 0 164.5 121t62.5 291q8 69 21 217.5t19.5 223.5t22.5 220q16 129 23.5 193.5t20 157t25 175t20.5 138.5q11 81 38.5 164t72 153t110.5 113t151 43q60 0 119 -26t96 -75 t37 -112q0 -38 -28 -67t-68 -29t-69 29t-29 67q0 36 21 63t54 33q-50 51 -131 51q-62 0 -101 -42t-59.5 -108t-27.5 -115.5t-16 -145.5q-6 -69 -14 -153.5t-14 -156t-13.5 -148.5t-22.5 -206q-19 -173 -40.5 -332.5t-47.5 -328.5q-17 -115 -65 -223t-132 -179t-200 -71 q-46 0 -90.5 14.5t-81 43t-58.5 67.5t-22 86z" />
<glyph unicode="S" horiz-adv-x="1954" d="M160 -80q4 32 25 53.5t55 26.5h10q33 -4 54.5 -25.5t25.5 -54.5v-1251q0 -163 94 -289t242.5 -192t310.5 -66q161 0 309.5 66.5t242 192t93.5 288.5v1251q4 32 25 53.5t55 26.5h10q33 -4 54.5 -25.5t25.5 -54.5v-1261q0 -155 -68.5 -287t-185.5 -225.5t-261 -144 t-296 -50.5h-10q-151 0 -295.5 50.5t-261.5 144.5t-185.5 225.5t-68.5 286.5v1261z" />
<glyph unicode="T" horiz-adv-x="1954" d="M160 -707q0 156 68.5 287.5t185.5 226t261.5 144t295.5 49.5h10q152 0 296 -49.5t261 -143.5t185.5 -226t68.5 -288v-1261q-10 -71 -80 -80h-10q-71 9 -80 80v1251q0 163 -93.5 288.5t-242 192t-309.5 66.5q-162 0 -310.5 -66t-242.5 -192t-94 -289v-1251 q-10 -71 -80 -80h-10q-71 9 -80 80v1261z" />
<glyph unicode="U" horiz-adv-x="1954" d="M160 -80q4 32 25 53.5t55 26.5h10q33 -4 54.5 -25.5t25.5 -54.5v-1251q0 -163 94 -289t242.5 -192t310.5 -66q161 0 309.5 66.5t242 192t93.5 288.5v1251q4 32 25 53.5t55 26.5h10q33 -4 54.5 -25.5t25.5 -54.5v-1261q0 -155 -68.5 -287t-185.5 -225.5t-261 -144 t-296 -50.5h-10q-151 0 -295.5 50.5t-261.5 144.5t-185.5 225.5t-68.5 286.5v1261zM500 -963q9 71 80 80h311v312q9 70 80 79h10q33 -4 54.5 -25.5t25.5 -53.5v-312h311q33 -4 54.5 -26t25.5 -54v-10q-9 -71 -80 -80h-311v-311q-9 -71 -80 -80h-10q-70 9 -80 80v311h-311 q-70 9 -80 80v10z" />
<glyph unicode="V" horiz-adv-x="1954" d="M160 -1958q3 15 6 27l733 1882q24 43 72 49h10q54 -7 74 -53l731 -1878q3 -12 6 -27v-10q-9 -71 -80 -80h-10q-55 7 -74 53l-651 1676l-655 -1682q-26 -41 -72 -47h-10q-70 9 -80 80v10z" />
<glyph unicode="W" horiz-adv-x="1954" d="M160 -80q9 71 80 80h10q54 -7 74 -53l653 -1676l653 1680q25 43 72 49h10q33 -4 54.5 -26t25.5 -54v-10q-3 -15 -6 -27l-733 -1884q-26 -41 -72 -47h-10q-55 7 -74 53l-731 1878q-3 12 -6 27v10z" />
<glyph unicode="X" horiz-adv-x="3340" d="M160 -27q5 22 26 27h2718l274 -590h-77q-79 167 -253 268.5t-384 144.5t-407 53.5t-447 10.5h-1057l1059 -1302q6 -9 6 -19q0 -11 -6 -20l-1143 -1225h1169q245 0 438.5 10t407 55t380 145.5t237.5 266.5h77l-274 -665h-2718q-26 6 -26 28q0 14 8 19l1180 1268 l-1180 1448q-7 10 -8 16v61z" />
<glyph unicode="Y" horiz-adv-x="2961" d="M160 0h2640v-125q-139 0 -238.5 -43t-99.5 -162v-2207q0 -205 338 -205v-125h-994v125q338 0 338 205v2412h-1329v-2412q0 -205 338 -205v-125h-993v125q338 0 338 205v2207q0 120 -99.5 162.5t-238.5 42.5v125z" />
<glyph unicode="Z" horiz-adv-x="1323" d="M160 -4321q0 46 32 78t78 32q45 0 77 -32t32 -78q0 -43 -27.5 -74t-70.5 -35q50 -55 129 -55q78 0 144 102.5t117 255t79 269t55 243.5q43 194 66 310.5t64.5 324t75.5 376t72 335.5q88 393 128 562.5t91.5 375t106.5 409.5q15 56 62.5 230.5t111 330t149 258.5 t187.5 103q64 0 122.5 -30t94 -84t35.5 -117q0 -45 -32 -77t-77 -32q-46 0 -78 32t-32 77q0 44 27.5 74.5t70.5 35.5q-52 55 -129 55q-153 0 -401 -1255q-32 -160 -45.5 -230.5t-42.5 -218.5t-59 -291t-48 -223q-73 -321 -121.5 -525.5t-100 -410t-106.5 -409.5 q-68 -260 -126 -434t-175 -331t-284 -157q-64 0 -122.5 30t-94 84t-35.5 116z" />
<glyph unicode="[" horiz-adv-x="2583" d="M160 -92q4 38 28.5 62.5t63.5 29.5h10q38 -4 63 -29t29 -63v-1782q0 -182 79 -329t215 -253t304.5 -161.5t339.5 -55.5q172 0 340 55t303 160.5t214 254.5t79 329v1782q4 38 28.5 62.5t63.5 29.5h11q38 -4 63 -29t29 -63v-1792q0 -216 -94 -398.5t-256.5 -313.5 t-365 -201t-411.5 -70h-10q-208 0 -410.5 70t-365 201t-256.5 313.5t-94 398.5v1792z" />
<glyph unicode="\" horiz-adv-x="2583" d="M160 -983q0 216 95 399.5t255 313t364 200t412 70.5h10q209 0 413 -70.5t364 -200t255 -313t95 -399.5v-1792q-5 -39 -29.5 -63.5t-62.5 -28.5h-11q-39 5 -63 29t-29 63v1782q0 180 -79.5 329.5t-214 254t-302.5 159.5t-340 55t-340.5 -55.5t-304.5 -160.5t-214.5 -253.5 t-78.5 -328.5v-1782q-5 -39 -29.5 -63.5t-62.5 -28.5h-10q-39 5 -63 29t-29 63v1792z" />
<glyph unicode="]" horiz-adv-x="2583" d="M160 -92q4 38 28.5 62.5t63.5 29.5h10q38 -4 63 -29t29 -63v-1782q0 -182 79 -329t215 -253t304.5 -161.5t339.5 -55.5q172 0 340 55t303 160.5t214 254.5t79 329v1782q4 38 28.5 62.5t63.5 29.5h11q38 -4 63 -29t29 -63v-1792q0 -216 -94 -398.5t-256.5 -313.5 t-365 -201t-411.5 -70h-10q-208 0 -410.5 70t-365 201t-256.5 313.5t-94 398.5v1792zM549 -1348q9 82 92 93h553v553q4 38 28.5 62.5t63.5 29.5h10q40 -5 64.5 -30t28.5 -62v-553h553q37 -4 62 -28.5t30 -64.5v-10q-5 -38 -29.5 -63.5t-62.5 -28.5h-553v-553 q-4 -37 -28.5 -63t-64.5 -29h-10q-38 3 -62.5 28.5t-29.5 63.5v553h-553q-38 3 -62.5 28.5t-29.5 63.5v10z" />
<glyph unicode="^" horiz-adv-x="2583" d="M160 -2765q3 19 8 31l1034 2673q26 55 84 61h10q58 -6 86 -61l1035 -2673q5 -25 6 -31v-10q-5 -39 -29.5 -63.5t-62.5 -28.5h-11q-58 6 -84 59l-944 2441l-944 -2441q-27 -53 -86 -59h-10q-39 5 -63 29t-29 63v10z" />
<glyph unicode="_" horiz-adv-x="2583" d="M160 -92q4 38 28.5 62.5t63.5 29.5h10q58 -6 86 -61l944 -2440l944 2440q26 55 84 61h11q38 -4 63 -29t29 -63v-10q-2 -12 -3.5 -19.5t-2.5 -13.5l-1035 -2673q-27 -53 -86 -59h-10q-58 6 -84 59l-1034 2673q-5 16 -8 33v10z" />
<glyph unicode="`" horiz-adv-x="2206" d="M160 0h641v-100q-211 0 -211 -138v-1710h1024v1710q0 138 -211 138v100h641v-100q-211 0 -211 -138v-1572q0 -138 211 -138v-100h-1884v100q211 0 211 138v1572q0 138 -211 138v100z" />
<glyph unicode="a" horiz-adv-x="2961" d="M160 0h993v-125q-338 0 -338 -205v-2412h1329v2412q0 205 -338 205v125h994v-125q-139 0 -238.5 -43t-99.5 -162v-2207q0 -205 338 -205v-125h-2640v125q338 0 338 205v2207q0 120 -99.5 162.5t-238.5 42.5v125z" />
<glyph unicode="b" horiz-adv-x="1323" d="M16 1200l646 320l645 -320l-33 -70l-612 246l-613 -246z" />
<glyph unicode="c" horiz-adv-x="2331" d="M23 1231l1142 346l1143 -346l-20 -74l-1123 277l-1122 -277z" />
<glyph unicode="d" horiz-adv-x="3340" d="M25 1233l1644 344l1645 -344l-17 -78l-1628 279l-1628 -279z" />
<glyph unicode="e" horiz-adv-x="1323" d="M33 1280l86 63q97 74 177 105t153 31t154.5 -34t162.5 -68t156 -34q71 0 152.5 32.5t176.5 103.5l39 -54l-86 -63q-96 -73 -176.5 -104t-153.5 -31t-154.5 34t-162.5 67.5t-156 33.5q-69 0 -149 -31t-180 -104z" />
<glyph unicode="f" horiz-adv-x="2331" d="M33 1317l98 45q209 93 372 133.5t294 40.5q137 0 271 -44l266 -86q134 -44 272 -44q130 0 291 40t374 134l27 -59l-98 -45q-142 -64 -263 -103t-220 -55.5t-183 -16.5q-138 0 -271 44t-266.5 87.5t-271.5 43.5q-131 0 -291.5 -40t-374.5 -135z" />
<glyph unicode="g" horiz-adv-x="3340" d="M33 1319l102 31q325 99 572.5 142.5t435.5 43.5q195 0 381 -46l374 -94q186 -46 381 -46q188 0 431.5 43t576.5 143l18 -63l-102 -31q-155 -46 -307.5 -84.5t-283.5 -61.5t-227 -32t-190 -9q-195 0 -381.5 47t-373 93.5t-381.5 46.5q-188 0 -431.5 -43t-576.5 -144z" />
<glyph unicode="h" horiz-adv-x="1135" d="M541 100h526v-118h-408v-3447h408v-119h-526v3684z" />
<glyph unicode="i" horiz-adv-x="1135" d="M68 -18v118h526v-3684h-526v119h407v3447h-407z" />
<glyph unicode="j" horiz-adv-x="1262" d="M541 100h118v-3565h533v-119h-651v3684z" />
<glyph unicode="k" horiz-adv-x="1262" d="M68 -3465h532v3565h119v-3684h-651v119z" />
<glyph unicode="l" horiz-adv-x="1262" d="M541 100h651v-118h-533v-3566h-118v3684z" />
<glyph unicode="m" horiz-adv-x="1262" d="M68 -18v118h651v-3684h-119v3566h-532z" />
<glyph unicode="n" d="M299 -1714q0 16 18 20q77 30 141.5 69.5t119 93.5t86.5 120.5t32 144.5v895q0 95 47.5 175t128.5 141q58 44 158 93t168 62h55q7 0 15 -7t8 -15v-55q0 -17 -16 -21q-99 -34 -183 -83t-141 -123.5t-57 -170.5v-895q0 -167 -123.5 -284t-306.5 -189q116 -45 211 -108.5 t157 -155.5t62 -207v-895q0 -96 56.5 -170t143 -124.5t181.5 -82.5q16 -4 16 -20v-55q0 -7 -8 -15t-15 -8h-55q-62 12 -166.5 63t-159.5 93q-81 61 -128.5 141t-47.5 174v895q0 152 -111 258.5t-274 169.5q-12 8 -12 21v55z" />
<glyph unicode="o" d="M299 23v55q0 8 8 15t15 7h55q71 -14 170.5 -63t154.5 -92q81 -61 129 -141t48 -175v-895q0 -103 54.5 -187t138.5 -141.5t192 -101.5q4 -1 8 -6.5t4 -11.5v-55q0 -15 -16 -23q-162 -62 -271.5 -169t-109.5 -257v-895q0 -94 -48 -174t-129 -141q-53 -41 -156.5 -92 t-168.5 -64h-55q-7 0 -15 8t-8 15v55q0 16 18 20q158 55 268.5 147t110.5 230v895q0 115 62 207t157 155.5t211 108.5q-114 46 -210 110t-158 156t-62 207v895q0 95 -56 169.5t-141 124.5t-182 83q-18 4 -18 21z" />
<glyph unicode="p" horiz-adv-x="2300" d="M283 -1352l321 224l473 -1002l1180 2208q13 22 43 22q21 0 35 -14t14 -35q0 -7 -0.5 -10.5t-1.5 -7.5l-1266 -2368q-11 -22 -39 -22h-53l-504 1067l-155 -109z" />
<glyph unicode="q" horiz-adv-x="2300" d="M283 -2083l321 340l477 -1519l1172 3332q17 30 47 30q21 0 35 -14t14 -35q0 -7 -0.5 -10.5t-1.5 -7.5l-1260 -3588q-18 -31 -45 -31h-53l-508 1618l-151 -162z" />
<glyph unicode="r" horiz-adv-x="2300" d="M283 -2814l321 457l481 -2036l1168 4463q17 30 47 30q21 0 35 -14t14 -35q0 -7 -0.5 -10.5t-1.5 -7.5l-1260 -4817q-18 -31 -45 -31h-53l-510 2167l-149 -213z" />
<glyph unicode="s" horiz-adv-x="2300" d="M283 -3545l321 573l481 -2554l1166 5587q7 39 49 39q21 0 35 -14t14 -35v-10l-1259 -6046q-10 -32 -48 -39h-53l-512 2716l-147 -264z" />
<glyph unicode="t" horiz-adv-x="2425" d="M285 -938l321 576l1012 -2788v3154q8 47 51 47q21 0 33.5 -13.5t15.5 -33.5v-3641q-6 -40 -49 -49h-51l-1102 3033l-184 -332z" />
<glyph unicode="u" horiz-adv-x="2425" d="M1618 4q8 47 51 47q21 0 33.5 -13.5t15.5 -33.5v-1237q-3 -20 -16.5 -33.5t-32.5 -13.5q-43 0 -51 47v1237z" />
<glyph unicode="v" horiz-adv-x="2425" d="M1618 53q6 41 47 47h764q47 -7 47 -49q0 -20 -14 -34t-33 -17h-711v-1133q-3 -20 -16.5 -33.5t-32.5 -13.5q-43 0 -51 47v1186z" />
<glyph unicode="w" horiz-adv-x="1827" d="M608 2h105v-1233h-105v1233zM1114 2h105v-1233h-105v1233z" />
<glyph unicode="x" d="M283 -365q152 48 282.5 143t222.5 222q93 -129 222.5 -223t281.5 -142v-96q-251 78 -452 262v-1030h-105v1030q-201 -184 -452 -262v96z" />
<glyph unicode="y" d="M283 -768q92 -30 169 -67.5t148 -86.5t135 -108v1030h105v-1030q64 59 135 108t148 86.5t169 67.5v-96q-98 -31 -190.5 -83.5t-172.5 -125t-141 -156.5q-61 85 -141.5 157t-173 124.5t-190.5 83.5v96z" />
<glyph unicode="z" horiz-adv-x="985" d="M-25 -383q1 3 1.5 5t0.5 5q69 142 171.5 266t226.5 213.5t270.5 141t306.5 51.5q27 0 27 -23v-253q0 -7 -8 -15t-15 -8q-276 0 -512.5 -117t-355.5 -346q-8 -12 -20 -12h-70q-8 0 -15.5 7.5t-7.5 14.5v70z" />
<glyph unicode="{" horiz-adv-x="985" d="M8 23v253q0 23 27 23q160 0 308 -52t271 -141t225.5 -213t170.5 -266q1 -2 1.5 -4.5t0.5 -5.5v-70q0 -7 -7.5 -14.5t-15.5 -7.5h-69q-15 0 -19 12q-61 116 -155 205t-208.5 145t-244.5 84.5t-262 28.5q-7 0 -15 8t-8 15z" />
<glyph unicode="|" horiz-adv-x="985" d="M-25 682v70q0 9 7.5 15.5t15.5 6.5h70q12 0 20 -12q119 -229 356 -346t512 -117q7 0 15 -8t8 -15v-253q0 -23 -27 -23q-155 0 -302 50.5t-273.5 142t-228 215t-171.5 264.5q0 3 -0.5 5.5t-1.5 4.5z" />
<glyph unicode="}" horiz-adv-x="985" d="M8 23v253q0 7 8 15t15 8q132 0 261 28.5t245 85t209.5 145t154.5 204.5q4 12 19 12h69q8 0 15.5 -6.5t7.5 -15.5v-70q0 -3 -0.5 -5t-1.5 -5q-92 -189 -241 -343t-338.5 -241.5t-395.5 -87.5q-27 0 -27 23z" />
<glyph unicode="~" horiz-adv-x="1827" d="M156 -631q119 42 229 104.5t205 141t178.5 177.5t144.5 208q64 -111 144.5 -207t179 -177t207 -143t227.5 -104v-104q-249 86 -452 243v-737h-105v826q-103 91 -201 221q-92 -125 -200 -221v-826h-105v737q-202 -156 -452 -243v104z" />
<glyph unicode="&#xa1;" horiz-adv-x="1104" d="M379 -1128q0 176 32 348.5t96 331.5t167 299.5t237 242.5q6 6 15 6h32q9 0 16 -7t7 -17q0 -14 -8 -19q-117 -109 -198.5 -245t-132 -293t-72 -316t-21.5 -331q0 -171 21.5 -329t72 -316t131.5 -293t199 -246q8 -5 8 -19q0 -10 -6.5 -17t-16.5 -7h-32q-9 0 -15 6 q-180 138 -299.5 334.5t-176 422.5t-56.5 464z" />
<glyph unicode="&#xa2;" horiz-adv-x="1104" d="M121 76q0 24 22 24h33q8 0 14 -6q135 -102 238 -242.5t167.5 -298.5t96 -333t31.5 -348q0 -172 -32 -348t-96 -333t-167 -296.5t-238 -243.5q-6 -6 -14 -6h-33q-22 0 -22 24q0 14 8 19q153 142 248.5 336t135.5 407.5t40 440.5q0 172 -22 333.5t-71 314t-131.5 290.5 t-199.5 247q-8 5 -8 19z" />
<glyph unicode="&#xa3;" horiz-adv-x="1010" d="M485 100h445v-100h-344v-2255h344v-100h-445v2455z" />
<glyph unicode="&#xa4;" horiz-adv-x="1010" d="M78 0v100h444v-2455h-444v100h344v2255h-344z" />
<glyph unicode="&#xa5;" horiz-adv-x="1135" d="M485 100h101v-2355h471v-100h-572v2455z" />
<glyph unicode="&#xa6;" horiz-adv-x="1135" d="M78 -2255h471v2355h100v-2455h-571v100z" />
<glyph unicode="&#xa7;" horiz-adv-x="1135" d="M485 100h572v-100h-471v-2355h-101v2455z" />
<glyph unicode="&#xa8;" horiz-adv-x="1135" d="M78 0v100h571v-2455h-100v2355h-471z" />
<glyph unicode="&#xa9;" horiz-adv-x="1386" d="M276 -1112q0 18 19 22q313 95 313 277v594q0 234 447 319h32q7 0 15 -7t8 -15v-33q0 -16 -16 -20q-131 -34 -223.5 -90.5t-92.5 -157.5v-594q0 -126 -98 -195t-254 -116q148 -41 250 -113t102 -197v-594q0 -101 93 -157t223 -90q16 -4 16 -21v-33q0 -6 -8 -14t-15 -8h-32 q-97 21 -160 40t-132 56t-112 93.5t-43 129.5v594q0 182 -313 277q-19 4 -19 20v33z" />
<glyph unicode="&#xaa;" horiz-adv-x="1386" d="M276 45v33q0 9 7.5 15.5t15.5 6.5h33q446 -85 446 -319v-594q0 -107 90.5 -171.5t225.5 -105.5q16 -4 16 -22v-33q0 -16 -16 -20q-129 -38 -222.5 -103t-93.5 -174v-594q0 -97 -70.5 -162.5t-166 -100t-209.5 -56.5h-33q-8 0 -15.5 7.5t-7.5 14.5v33q0 17 19 21 q54 14 109 34.5t99.5 48t74.5 69.5t30 95v594q0 125 102.5 197t250.5 113q-156 47 -254.5 116t-98.5 195v594q0 71 -49 120t-115 77t-149 51q-19 4 -19 20z" />
<glyph unicode="&#xad;" horiz-adv-x="1135" d="M254 -1128q0 6 4 18l578 1180q17 30 47 30q20 0 34.5 -14.5t14.5 -34.5q0 -7 -0.5 -10.5t-1.5 -7.5l-570 -1161l570 -1160q1 -4 1.5 -7.5t0.5 -10.5q0 -20 -15.5 -34.5t-33.5 -14.5q-31 0 -47 31l-578 1177q-4 16 -4 19z" />
<glyph unicode="&#xae;" horiz-adv-x="1135" d="M203 51q0 20 14.5 34.5t36.5 14.5q27 0 47 -30l578 -1180q1 -4 1.5 -7.5t0.5 -10.5q0 -6 -0.5 -10t-1.5 -9l-578 -1177q-20 -31 -47 -31q-20 0 -35.5 14.5t-15.5 34.5q0 6 4 18l567 1160l-567 1161q-4 12 -4 18z" />
<glyph unicode="&#xaf;" horiz-adv-x="819" d="M358 8q6 35 45 45h15q39 -10 45 -45v-1245q-6 -35 -45 -45h-15q-39 10 -45 45v1245z" />
<glyph unicode="&#xb0;" horiz-adv-x="1323" d="M358 8q6 35 45 45h15q39 -10 45 -45v-1245q-6 -35 -45 -45h-15q-39 10 -45 45v1245zM860 8q6 35 45 45h15q39 -10 45 -45v-1245q-6 -35 -45 -45h-15q-39 10 -45 45v1245z" />
<glyph unicode="&#xb1;" horiz-adv-x="1309" d="M127 -2296q0 2 2 8t2 7l950 2351q5 13 17 21.5t24 8.5h15q39 -6 45 -45v-14q0 -2 -2 -7t-2 -7l-951 -2351q-5 -12 -17 -21.5t-24 -9.5h-14q-39 6 -45 45v14z" />
<glyph unicode="&#xb2;" horiz-adv-x="1309" d="M127 41v14q6 39 45 45h14q12 0 24 -9t17 -21l951 -2351q0 -1 2 -7t2 -8v-14q-6 -39 -45 -45h-15q-12 0 -24 9.5t-17 21.5l-950 2351q0 2 -2 7t-2 7z" />
<glyph unicode="&#xb3;" horiz-adv-x="1419" d="M442 -1743q0 265 44.5 521.5t139 498t243 450.5t348.5 367q6 6 14 6h55q9 0 16 -8t7 -16q0 -14 -9 -19q-186 -165 -315.5 -371.5t-209 -442.5t-115 -484.5t-35.5 -501.5q0 -254 36.5 -502t115.5 -483t209 -441.5t314 -371.5q9 -5 9 -18q0 -10 -6.5 -17.5t-16.5 -7.5h-55 q-8 0 -14 6q-201 160 -348.5 367.5t-242.5 451t-139.5 498t-44.5 518.5z" />
<glyph unicode="&#xb4;" horiz-adv-x="1419" d="M109 76q0 24 22 24h55q9 0 15 -6q201 -158 349.5 -368t242.5 -449.5t138 -498.5t44 -521q0 -261 -44 -518t-138.5 -498.5t-241.5 -450t-350 -368.5q-6 -6 -15 -6h-55q-9 0 -15.5 7.5t-6.5 17.5q0 13 8 18q187 166 317 374t208 438t114.5 478t36.5 510t-36 508t-115.5 479 t-210 441t-314.5 370q-8 5 -8 19z" />
<glyph unicode="&#xb5;" horiz-adv-x="1733" d="M506 -2357q0 355 58 695.5t182.5 662t321 601.5t462.5 492q6 6 14 6h60q9 0 15.5 -7t6.5 -17q0 -11 -51 -59t-68 -62q-220 -221 -375.5 -491t-250.5 -570t-138 -614.5t-43 -634.5q0 -321 43 -634t138 -614t250.5 -571t375.5 -493q119 -108 119 -121q0 -11 -6 -18t-16 -7 h-60q-8 0 -14 6q-268 215 -463.5 493.5t-320.5 601t-182.5 662t-57.5 693.5z" />
<glyph unicode="&#xb6;" horiz-adv-x="1733" d="M106 76q0 8 7 16t16 8h59q9 0 15 -6q266 -211 463.5 -492.5t320.5 -600.5t181.5 -662.5t58.5 -695.5q0 -351 -58 -693t-181.5 -662.5t-319.5 -600t-465 -494.5q-6 -6 -15 -6h-59q-10 0 -16.5 7.5t-6.5 17.5q0 5 24 30t53.5 53t39.5 38q1 0 1 1l1 1q219 219 375 489 t250.5 566.5t138 614t43.5 636.5v2q0 321 -43.5 639.5t-138 614t-252 569t-373.5 489.5q-119 107 -119 121z" />
<glyph unicode="&#xb8;" horiz-adv-x="1262" d="M59 -35v135h605v-4913h-605v135h469v4643h-469z" />
<glyph unicode="&#xb9;" horiz-adv-x="1386" d="M596 100h135v-4778h596v-135h-731v4913z" />
<glyph unicode="&#xba;" horiz-adv-x="1386" d="M59 -4678h596v4778h136v-4913h-732v135z" />
<glyph unicode="&#xbb;" horiz-adv-x="1386" d="M596 100h731v-135h-596v-4778h-135v4913z" />
<glyph unicode="&#xbc;" horiz-adv-x="1386" d="M59 -35v135h732v-4913h-136v4778h-596z" />
<glyph unicode="&#xbd;" horiz-adv-x="1765" d="M328 -2327q0 15 12 19q125 56 224.5 141t159.5 198.5t60 242.5v1202q0 151 80 272.5t204.5 206t281.5 145.5h4h59q8 0 15.5 -6.5t7.5 -15.5v-60q0 -13 -15 -20q-89 -35 -165 -83.5t-141 -117t-100.5 -150.5t-35.5 -175v-1203q0 -141 -71 -264t-187 -213.5t-248 -148.5 q216 -94 361 -255t145 -372v-1202q0 -180 128 -315t314 -209q15 -7 15 -21v-59q0 -8 -7.5 -15.5t-15.5 -7.5h-59h-4q-115 46 -213 103t-178.5 134.5t-127.5 175t-47 210.5v1202q0 99 -34 187.5t-96 163.5t-145 135t-169 96q-12 8 -12 20v59z" />
<glyph unicode="&#xbe;" horiz-adv-x="1765" d="M328 18v60q0 8 8 15t14 7h60h6q154 -61 278.5 -145.5t204.5 -206t80 -272.5v-1202q0 -129 60 -242.5t159.5 -198.5t224.5 -141q13 -4 13 -19v-59q0 -13 -13 -20q-190 -83 -317 -235.5t-127 -346.5v-1202q0 -116 -48 -213.5t-127.5 -174.5t-177 -133t-210.5 -102h-6h-60 q-6 0 -14 8t-8 15v59q0 14 14 21q120 48 219 122t161 176t62 226v1202q0 211 146 372.5t360 254.5q-215 95 -360.5 256t-145.5 370v1203q0 93 -36.5 176.5t-98.5 149t-139.5 115.5t-167.5 85q-14 7 -14 20z" />
<glyph unicode="&#xbf;" horiz-adv-x="1765" d="M317 -2351q2 8 3.5 12t3.5 10l1060 2390q22 39 62 39q53 0 67 -59v-14q-1 -6 -2.5 -10.5t-3.5 -12.5l-1048 -2361l1048 -2362q2 -6 6 -22v-14q-15 -60 -67 -60q-39 0 -62 39l-1060 2390q-2 5 -2.5 7t-1.5 5l-3 9v14z" />
<glyph unicode="&#xc0;" horiz-adv-x="1765" d="M250 27v14q14 59 67 59q42 0 62 -39l1061 -2390q2 -6 6 -22v-14q-1 -5 -2.5 -9t-3.5 -12l-1061 -2390q-21 -39 -62 -39q-26 0 -43.5 17.5t-23.5 42.5v14q2 8 3.5 12.5t2.5 9.5l1049 2362l-1049 2361q-2 6 -6 23z" />
<glyph unicode="&#xc1;" horiz-adv-x="2367" d="M127 -4751q0 15 6 24l1987 4790q18 37 57 37q25 0 43 -18t18 -43q0 -13 -4 -25l-1986 -4790q-22 -37 -58 -37q-27 0 -45 18t-18 44z" />
<glyph unicode="&#xc2;" horiz-adv-x="2367" d="M127 39q0 26 18.5 43.5t44.5 17.5q37 0 58 -37l1986 -4790q4 -12 4 -24q0 -25 -17.5 -43.5t-43.5 -18.5q-38 0 -57 37l-1987 4790q-6 9 -6 25z" />
<glyph unicode="&#xc3;" horiz-adv-x="1860" d="M569 -2972q0 434 55.5 854t180.5 817t336 755.5t510 639.5q6 6 14 6h66q9 0 15.5 -7t6.5 -17q0 -11 -6 -17q-277 -291 -465.5 -646.5t-296 -747t-152.5 -797t-45 -840.5q0 -433 44.5 -837.5t152.5 -796.5t296.5 -747.5t465.5 -647.5q6 -6 6 -16q0 -9 -6 -17t-16 -8h-66 q-8 0 -14 7q-299 283 -510 640t-336 754t-180.5 817t-55.5 852z" />
<glyph unicode="&#xc4;" horiz-adv-x="1827" d="M156 -494q250 -87 452 -243v737h105v-825q109 -98 200 -222q97 129 201 222v825h105v-737q203 157 452 243v-104q-119 -41 -228 -102.5t-206 -142.5t-179 -178t-145 -208q-61 109 -145 209t-178.5 178.5t-204.5 141t-229 102.5v104z" />
<glyph unicode="&#x2000;" horiz-adv-x="788" />
<glyph unicode="&#x2001;" horiz-adv-x="1577" />
<glyph unicode="&#x2002;" horiz-adv-x="788" />
<glyph unicode="&#x2003;" horiz-adv-x="1577" />
<glyph unicode="&#x2004;" horiz-adv-x="525" />
<glyph unicode="&#x2005;" horiz-adv-x="394" />
<glyph unicode="&#x2006;" horiz-adv-x="262" />
<glyph unicode="&#x2007;" horiz-adv-x="262" />
<glyph unicode="&#x2008;" horiz-adv-x="197" />
<glyph unicode="&#x2009;" horiz-adv-x="315" />
<glyph unicode="&#x200a;" horiz-adv-x="87" />
<glyph unicode="&#x2010;" horiz-adv-x="2896" d="M127 27v10q4 26 23.5 44.5t46.5 18.5q39 0 63 -43l2505 -6004q2 -6 4 -21v-10q-5 -26 -23 -45t-45 -19q-41 0 -63 43l-2505 6005q-4 8 -4 9t-2 12z" />
<glyph unicode="&#x2011;" horiz-adv-x="2896" d="M127 27v10q4 26 23.5 44.5t46.5 18.5q39 0 63 -43l2505 -6004q2 -6 4 -21v-10q-5 -26 -23 -45t-45 -19q-41 0 -63 43l-2505 6005q-4 8 -4 9t-2 12z" />
<glyph unicode="&#x2012;" horiz-adv-x="2896" d="M127 27v10q4 26 23.5 44.5t46.5 18.5q39 0 63 -43l2505 -6004q2 -6 4 -21v-10q-5 -26 -23 -45t-45 -19q-41 0 -63 43l-2505 6005q-4 8 -4 9t-2 12z" />
<glyph unicode="&#x2013;" horiz-adv-x="1278" d="M127 27v10q2 26 9.5 44.5t17.5 18.5q15 0 25 -43l970 -6004q1 -6 2 -21v-10q-2 -26 -9 -45t-17 -19q-16 0 -25 43l-971 6005q-1 8 -1 9t-1 12z" />
<glyph unicode="&#x2014;" horiz-adv-x="2302" d="M127 27v10q3 26 18 44.5t36 18.5q30 0 49 -43l1942 -6004q1 -6 3 -21v-10q-4 -26 -18 -45t-35 -19q-31 0 -49 43l-1941 6005q-3 8 -3 9t-2 12z" />
<glyph unicode="&#x202f;" horiz-adv-x="315" />
<glyph unicode="&#x205f;" horiz-adv-x="394" />
<glyph unicode="&#x2219;" horiz-adv-x="1262" d="M596 100h604v-135h-469v-4643h469v-135h-604v4913z" />
<glyph unicode="&#xe000;" horiz-adv-x="500" d="M0 0v0v0v0v0z" />
</font>
</defs>
</svg>
