<?xml version="1.0" standalone="no"?>
<!DOCTYPE svg PUBLIC "-//W3C//DTD SVG 1.1//EN" "http://www.w3.org/Graphics/SVG/1.1/DTD/svg11.dtd" >
<svg xmlns="http://www.w3.org/2000/svg">
<metadata>
This is a custom SVG webfont generated by Font Squirrel.
Copyright   : Copyright C 1994 Basil K Malyshev All Rights Reserved012BaKoMa Fonts Collection LevelB
</metadata>
<defs>
<font id="cmex8Regular" horiz-adv-x="1450" >
<font-face units-per-em="2048" ascent="1638" descent="-410" />
<missing-glyph horiz-adv-x="500" />
<glyph unicode=" "  horiz-adv-x="500" />
<glyph unicode="&#x09;" horiz-adv-x="500" />
<glyph unicode="&#xa0;" horiz-adv-x="500" />
<glyph unicode="!" horiz-adv-x="1722" d="M68 68q0 24 22 24h60q8 0 14 -6q292 -287 497 -647t324 -755t170 -808.5t51 -855.5q0 -441 -51 -854t-170 -807.5t-323.5 -753.5t-497.5 -649q-6 -6 -14 -6h-60q-9 0 -15.5 7.5t-6.5 17.5t6 16q269 296 449.5 652.5t283 748t143.5 794t41 834.5q0 434 -41 836.5 t-143.5 794t-284 749.5t-448.5 651q-6 6 -6 17z" />
<glyph unicode="&#x22;" horiz-adv-x="1268" d="M592 92h659v-147h-512v-5847h512v-148h-659v6142z" />
<glyph unicode="#" horiz-adv-x="1268" d="M16 -55v147h660v-6142h-660v148h512v5847h-512z" />
<glyph unicode="$" horiz-adv-x="1389" d="M592 92h147v-5994h633v-148h-780v6142z" />
<glyph unicode="%" horiz-adv-x="1389" d="M16 -5902h633v5994h148v-6142h-781v148z" />
<glyph unicode="&#x26;" horiz-adv-x="1389" d="M592 92h780v-147h-633v-5995h-147v6142z" />
<glyph unicode="'" horiz-adv-x="1389" d="M16 -55v147h781v-6142h-148v5995h-633z" />
<glyph unicode="(" horiz-adv-x="1751" d="M311 -2949q0 14 13 18q132 74 232.5 188t156 256t55.5 292v1509q0 169 78.5 322t211.5 269t290 185q2 1 4 1.5t6 0.5h59q8 0 15.5 -6.5t7.5 -15.5v-60q0 -13 -13 -20q-98 -49 -178 -119t-140 -159.5t-93 -192.5t-33 -209v-1510q0 -125 -41 -242t-115 -219t-169 -181.5 t-209 -137.5q148 -74 270.5 -193t193 -269t70.5 -318v-1510q0 -141 56.5 -272.5t157.5 -236.5t230 -170q13 -4 13 -19v-59q0 -8 -7.5 -15.5t-15.5 -7.5h-59q-3 1 -5 1.5t-5 0.5q-157 69 -290 185t-211.5 268t-78.5 321v1510q0 149 -55.5 292t-156.5 257.5t-232 185.5 q-13 7 -13 20v60z" />
<glyph unicode=")" horiz-adv-x="1751" d="M311 10v60q0 9 7.5 15.5t15.5 6.5h59q4 0 6 -0.5t4 -1.5q157 -69 290 -185t211.5 -269t78.5 -322v-1509q0 -150 55.5 -292t156 -256t232.5 -188q13 -4 13 -18v-60q0 -13 -13 -20q-131 -71 -232 -185.5t-156.5 -257.5t-55.5 -292v-1510q0 -169 -78.5 -321t-211.5 -268 t-290 -185q-2 0 -4.5 -0.5t-5.5 -1.5h-59q-8 0 -15.5 7.5t-7.5 15.5v59q0 15 13 19q129 65 230 170t157.5 236.5t56.5 272.5v1510q0 168 70.5 318t192.5 268.5t272 193.5q-149 77 -271.5 196t-193 270t-70.5 314v1510q0 106 -33.5 211t-91 190.5t-139.5 157.5t-180 121 q-13 7 -13 20z" />
<glyph unicode="*" horiz-adv-x="1751" d="M303 -2980q2 11 4 19l1073 3006q15 40 68 47q31 -3 51 -23t23 -51q-1 -7 -1 -10t-1 -10l-1065 -2978l1063 -2974q4 -16 4 -24q-6 -68 -74 -74q-49 6 -68 47l-1071 2999q-6 15 -6 26z" />
<glyph unicode="+" horiz-adv-x="1751" d="M229 18q6 68 74 74q49 -6 70 -47l1071 -3000q4 -16 4 -25q-1 -7 -1 -10t-1 -10l-1073 -3005q-19 -40 -70 -47q-68 6 -74 74q2 11 4 18l1063 2980l-1060 2972q-7 14 -7 26z" />
<glyph unicode="," horiz-adv-x="2779" d="M121 -5978q2 11 6 20l2406 6011q19 34 54 39h14q48 -9 57 -57v-15q-2 -14 -4 -20l-2406 -6011q-23 -34 -53 -39h-15q-50 9 -59 58v14z" />
<glyph unicode="-" horiz-adv-x="2779" d="M121 20v15q9 48 59 57h15q36 -6 53 -39l2406 -6011q2 -6 4 -20v-14q-9 -49 -57 -58h-14q-37 6 -54 39l-2406 6011l-5 9q0 1 -1 11z" />
<glyph unicode="." horiz-adv-x="1763" d="M121 -3533l2 8l1415 3584q4 13 17.5 23t27.5 10h12q41 -6 47 -47v-12v-8l-1417 -3584q-5 -14 -17.5 -23.5t-25.5 -9.5h-12q-42 6 -49 47v12z" />
<glyph unicode="/" horiz-adv-x="1763" d="M121 33v12q7 41 49 47h12q13 0 25.5 -9.5t17.5 -23.5l1413 -3575q4 -14 4 -17v-12q-6 -41 -47 -47h-12q-14 0 -27 10t-18 23l-1413 3575q-4 14 -4 17z" />
<glyph unicode="0" horiz-adv-x="1903" d="M635 -3592q0 522 50 1011t172 961.5t340 909t538 792.5q8 8 16 8h64q9 0 15.5 -7t6.5 -17q0 -11 -6 -17q-291 -369 -482.5 -807t-294.5 -903t-141.5 -934.5t-38.5 -1000.5q0 -7 -7 -15t-15 -8h-195q-22 0 -22 27z" />
<glyph unicode="1" horiz-adv-x="1903" d="M66 66q0 24 22 24h64q8 0 16 -8q320 -355 539.5 -793t339.5 -905t170.5 -960.5t50.5 -1015.5q0 -27 -23 -27h-194q-7 0 -15 8t-8 15q0 531 -38.5 1000.5t-141 936.5t-293 903t-483.5 805q-6 6 -6 17z" />
<glyph unicode="2" d="M705 90h735v-164h-572v-3520h-163v3684z" />
<glyph unicode="3" d="M8 -74v164h735v-3684h-163v3520h-572z" />
<glyph unicode="4" d="M705 92h163v-3520h572v-164h-735v3684z" />
<glyph unicode="5" d="M8 -3428h572v3520h163v-3684h-735v164z" />
<glyph unicode="6" d="M705 2h163v-1233h-163v1233z" />
<glyph unicode="7" d="M580 2h163v-1233h-163v1233z" />
<glyph unicode="8" horiz-adv-x="1933" d="M827 -934q0 199 84 380t229.5 321t325.5 227q4 4 11 4h63q8 0 15.5 -7.5t7.5 -15.5v-63q0 -10 -13 -21q-103 -63 -186 -153t-141 -200.5t-87.5 -229.5t-29.5 -246v-907q0 -8 -7.5 -15.5t-15.5 -7.5h-233q-9 0 -16 7t-7 16v911z" />
<glyph unicode="9" horiz-adv-x="1933" d="M369 -25q0 7 8 15t14 8h64q6 0 10 -4q180 -86 326.5 -227t230.5 -321.5t84 -379.5v-911q0 -8 -7.5 -15.5t-15.5 -7.5h-233q-9 0 -16 7t-7 16v907q0 254 -118 477.5t-328 351.5q-12 10 -12 21v63z" />
<glyph unicode=":" horiz-adv-x="1933" d="M827 2q0 9 7 16t16 7h233q8 0 15.5 -7.5t7.5 -15.5v-909q0 -124 29.5 -243.5t87 -230t140.5 -201t187 -155.5q13 -4 13 -18v-64q0 -7 -7.5 -14.5t-15.5 -7.5h-63q-3 1 -5.5 1.5t-5.5 0.5q-134 66 -248.5 160t-205 218.5t-138 262.5t-47.5 287v913z" />
<glyph unicode=";" horiz-adv-x="1933" d="M369 -1755q0 14 12 18q210 129 328 353.5t118 476.5v909q0 9 7 16t16 7h233q8 0 15.5 -7.5t7.5 -15.5v-913q0 -149 -48.5 -289t-137 -261.5t-204.5 -216.5t-251 -161q-3 0 -5 -0.5t-5 -1.5h-64q-6 0 -14 8t-8 14v64z" />
<glyph unicode="&#x3c;" horiz-adv-x="1933" d="M369 -1812q0 12 12 20q109 72 192.5 172.5t141 220.5t85 247t27.5 261v893q0 9 7 16t16 7h233q8 0 15.5 -7.5t7.5 -15.5v-897q0 -146 -45 -288t-124 -262.5t-189.5 -222.5t-241.5 -175q131 -72 241.5 -175t189 -222.5t124 -262t45.5 -290.5v-895q0 -7 -8 -15t-15 -8h-233 q-8 0 -15.5 7.5t-7.5 15.5v890q0 135 -28 264.5t-85 248.5t-140.5 219.5t-192.5 171.5q-12 8 -12 18v64z" />
<glyph unicode="=" horiz-adv-x="1933" d="M827 2q0 9 7 16t16 7h233q8 0 15.5 -7.5t7.5 -15.5v-893q0 -134 27.5 -260t85.5 -247.5t140.5 -220.5t190.5 -173q13 -9 13 -20v-64q0 -9 -13 -18q-67 -45 -137 -115q-102 -102 -171 -230t-102.5 -270.5t-33.5 -288.5v-890q0 -7 -8 -15t-15 -8h-233q-8 0 -15.5 7.5 t-7.5 15.5v895q0 195 77 378t212 329.5t309 242.5q-174 96 -309 242t-212 329t-77 377v897z" />
<glyph unicode="&#x3e;" horiz-adv-x="1933" d="M827 2q0 9 7 16t16 7h233q8 0 15.5 -7.5t7.5 -15.5v-618q0 -7 -8 -15t-15 -8h-233q-8 0 -15.5 7.5t-7.5 15.5v618z" />
<glyph unicode="?" d="M676 2h98v-1233h-98v1233z" />
<glyph unicode="@" horiz-adv-x="1903" d="M635 90q0 27 22 27h195q9 0 15.5 -7.5t6.5 -15.5q0 -530 38.5 -999.5t142 -936t294.5 -903t482 -806.5q6 -6 6 -17q0 -10 -6 -17t-16 -7h-64q-8 0 -16 8q-320 358 -538 793.5t-340 909t-172 961.5t-50 1010z" />
<glyph unicode="A" horiz-adv-x="1903" d="M66 -3568q0 11 6 17q293 370 483 804.5t293 903t141.5 938t38.5 999.5q0 8 7.5 15.5t15.5 7.5h194q23 0 23 -27q0 -522 -50.5 -1014.5t-171 -960.5t-339 -905t-539.5 -794q-8 -8 -16 -8h-64q-22 0 -22 24z" />
<glyph unicode="B" horiz-adv-x="1903" d="M635 2q0 8 7.5 15.5t14.5 7.5h195q9 0 15.5 -7.5t6.5 -15.5v-1233q0 -6 -7 -14t-15 -8h-195q-6 0 -14 8t-8 14v1233z" />
<glyph unicode="C" horiz-adv-x="1903" d="M1028 2q0 8 7.5 15.5t15.5 7.5h194q9 0 16 -7t7 -16v-1233q0 -7 -7.5 -14.5t-15.5 -7.5h-194q-7 0 -15 8t-8 14v1233z" />
<glyph unicode="D" horiz-adv-x="1329" d="M242 -1751q0 8 4 20l788 1792q19 28 51 31q24 -3 40 -18.5t16 -36.5q0 -7 -4 -21l-779 -1767l777 -1761q6 -9 6 -25q0 -21 -16 -36.5t-40 -18.5q-32 3 -51 31l-786 1785q-6 13 -6 25z" />
<glyph unicode="E" horiz-adv-x="1329" d="M186 37q0 21 17 36.5t41 18.5q31 -3 49 -31l786 -1787q6 -10 6 -25q0 -6 -4 -18l-788 -1792q-18 -28 -49 -31q-24 3 -41 18.5t-17 36.5q0 7 4 21l779 1765l-776 1763q-7 8 -7 25z" />
<glyph unicode="F" horiz-adv-x="1812" d="M121 -76q6 35 27.5 55.5t54.5 20.5q34 0 55 -21t27 -55v-1808h1241v866v942q6 35 27.5 55.5t54.5 20.5q34 0 55 -21t27 -55v-1898q-15 -68 -78 -74h-1413q-65 6 -78 74v1898z" />
<glyph unicode="G" horiz-adv-x="2417" d="M121 -90q5 38 29 61.5t61 28.5h10q38 -5 61.5 -28.5t28.5 -61.5v-1350v-1237h1794v1247v1340q5 38 29 61.5t61 28.5h11q38 -5 61.5 -28.5t28.5 -61.5v-1350v-1337q-5 -37 -28.5 -61t-61.5 -29h-1995q-37 5 -61 29t-29 61v1347v1340z" />
<glyph unicode="H" horiz-adv-x="1026" d="M121 -2068q0 42 28 69t68 27t67 -27t27 -69q0 -37 -20.5 -61t-57.5 -32q54 -49 129 -49q152 0 199 250q16 72 31.5 213.5t15.5 222.5q-122 42 -200 150t-78 237q0 75 27 144.5t77 125.5t117.5 92.5t140.5 45.5q12 90 31.5 221t59.5 245.5t114.5 188.5t189.5 74 q59 0 115.5 -26.5t91.5 -74.5t35 -108q0 -40 -27 -67t-67 -27t-68 27t-28 67q0 36 21 62t57 32q-52 49 -130 49q-126 0 -167 -210q-15 -62 -27 -201q-8 -73 -23 -273q82 -27 145 -85.5t98.5 -137.5t35.5 -164q0 -101 -48 -190t-132.5 -147t-184.5 -70q-21 -163 -38.5 -265 t-58 -210.5t-121 -182t-204.5 -73.5q-58 0 -114.5 25.5t-91.5 74t-35 107.5zM424 -1137q0 -60 24 -118t67.5 -102t98.5 -68q6 58 9.5 91.5t6.5 70t13 126.5q10 98 37 310q-109 -21 -182.5 -109.5t-73.5 -200.5zM797 -1446q110 21 184 109t74 200q0 94 -53.5 175t-139.5 116 q-20 -218 -28 -295q-19 -167 -37 -305z" />
<glyph unicode="I" horiz-adv-x="1208" d="M121 -4325q0 46 32 77t76 31q45 0 76 -31t31 -77q0 -43 -28 -75t-72 -32q48 -53 126 -53q76 0 140.5 103.5t111 250.5t80.5 302t47 214q42 189 154 795q-108 47 -189.5 129.5t-126 191t-44.5 224.5q0 160 79.5 295t216 214.5t295.5 79.5h9q51 219 95.5 402t90.5 362 q60 232 83.5 319.5t83.5 241t142 257.5t178 104q62 0 119 -30t91 -82t34 -115q0 -45 -31 -76t-75 -31q-45 0 -77 31t-32 76q0 44 29 76t71 32q-48 53 -127 53q-58 0 -127.5 -201.5t-132.5 -481.5t-115.5 -559.5t-78.5 -422.5q79 -33 146.5 -89t114.5 -126.5t73 -155.5 t26 -173q0 -161 -79.5 -296t-215 -214.5t-295.5 -79.5h-10q-87 -377 -186 -764q-47 -186 -82 -308.5t-101.5 -270.5t-161.5 -245.5t-220 -97.5q-62 0 -119 30t-91 82t-34 114zM629 -2275q0 -95 35 -183t98.5 -156.5t150.5 -109.5q52 267 97 477t104 467q-131 0 -242.5 -68 t-177 -182.5t-65.5 -244.5zM1137 -2771q96 0 184.5 39t158 110.5t106 159.5t36.5 187q0 95 -35.5 183t-99 156t-150.5 109q-15 -78 -47 -236t-53.5 -256.5t-40.5 -187.5t-59 -264z" />
<glyph unicode="J" horiz-adv-x="2417" d="M121 -1018q0 213 88 401.5t242 327.5t351 214t406 75q210 0 408.5 -75.5t350.5 -212.5t240.5 -325.5t88.5 -404.5v-14q0 -215 -88 -401.5t-241 -324.5t-350.5 -214t-408.5 -76q-210 0 -406 75.5t-351 215t-242.5 326.5t-87.5 399v14zM285 -1024q0 -182 75 -341 t206 -275.5t298 -180t344 -63.5q178 0 346.5 64t298.5 179.5t204.5 274t74.5 342.5t-74.5 342.5t-205 275t-296.5 179.5t-348 63q-181 0 -345.5 -62.5t-296 -180t-206.5 -276.5t-75 -341zM1063 -1024q0 57 44 101t101 44q59 0 102.5 -43.5t43.5 -101.5t-43.5 -101.5 t-102.5 -43.5q-57 0 -101 44t-44 101z" />
<glyph unicode="K" horiz-adv-x="3287" d="M121 -1430q0 301 123 564.5t335.5 457t488.5 301t570 107.5h11q296 0 571 -107.5t488 -301.5t335.5 -456.5t122.5 -564.5v-10q0 -300 -122.5 -561.5t-336 -456t-488 -302t-570.5 -107.5h-11q-294 0 -569.5 107.5t-488.5 301.5t-336 456.5t-123 561.5v10zM311 -1434 q0 -262 107.5 -491t295.5 -398.5t431 -261.5t500 -92q258 0 499.5 92.5t428.5 260.5t295 398t108 492q0 263 -108 493.5t-294.5 398t-426.5 260t-502 92.5q-261 0 -502.5 -92.5t-429 -261t-295 -398t-107.5 -492.5zM1475 -1434q0 47 22.5 85.5t61 61.5t86.5 23q46 0 84 -23 t60.5 -61.5t22.5 -85.5q0 -68 -49 -119t-118 -51q-70 0 -120 51t-50 119z" />
<glyph unicode="L" horiz-adv-x="2417" d="M121 -1018q0 213 88 401.5t242 327.5t351 214t406 75q210 0 408.5 -75.5t350.5 -212.5t240.5 -325.5t88.5 -404.5v-14q0 -215 -88 -401.5t-241 -324.5t-350.5 -214t-408.5 -76q-210 0 -406 75.5t-351 215t-242.5 326.5t-87.5 399v14zM289 -942h837v774 q-73 0 -151.5 -20.5t-157 -56.5t-146 -80.5t-120.5 -94.5q-52 -50 -96.5 -110t-79.5 -128t-57 -139t-29 -145zM289 -1106q15 -146 82.5 -279t179.5 -243q55 -50 120 -93t149 -81.5t161.5 -58t144.5 -19.5v774h-837zM1290 -168v-774h838q-10 100 -45 193t-89 175t-128 154 q-73 68 -171.5 125.5t-204 92t-200.5 34.5zM1290 -1106v-774q95 0 200.5 34.5t204 92t171.5 125.5q110 107 178.5 241.5t83.5 280.5h-838z" />
<glyph unicode="M" horiz-adv-x="3287" d="M121 -1430q0 301 123 564.5t335.5 457t488.5 301t570 107.5h11q296 0 571 -107.5t488 -301.5t335.5 -456.5t122.5 -564.5v-10q0 -300 -122.5 -561.5t-336 -456t-488 -302t-570.5 -107.5h-11q-294 0 -569.5 107.5t-488.5 301.5t-336 456.5t-123 561.5v10zM315 -1339h1233 v1144q-97 0 -230.5 -34t-232.5 -76q-106 -46 -202.5 -108.5t-180.5 -139.5q-54 -51 -102.5 -108.5t-87 -116t-74.5 -129.5q-31 -64 -58 -137t-46 -152t-19 -143zM315 -1530q0 -63 19 -141t46 -151.5t58 -137.5q36 -71 74.5 -129.5t87 -116t102.5 -108.5q166 -154 383 -248 q62 -27 146 -53t167 -42t150 -16v1143h-1233zM1739 -195v-1144h1233q0 88 -39.5 216.5t-83.5 215.5q-49 99 -114.5 186.5t-149.5 167.5q-166 152 -383 248q-62 27 -145 52.5t-167 41.5t-151 16zM1739 -1530v-1143q67 0 149 16t165.5 41.5t148.5 53.5q109 47 202 106.5 t181 141.5q84 80 150 168.5t114 185.5q45 90 84 217.5t39 212.5h-1233z" />
<glyph unicode="N" horiz-adv-x="2417" d="M121 -1018q0 213 88 401.5t242 327.5t351 214t406 75q210 0 408.5 -75.5t350.5 -212.5t240.5 -325.5t88.5 -404.5v-14q0 -215 -88 -401.5t-241 -324.5t-350.5 -214t-408.5 -76q-210 0 -406 75.5t-351 215t-242.5 326.5t-87.5 399v14zM285 -1024q0 -100 25.5 -198t73 -187 t116.5 -166l587 551l-587 551q-102 -115 -158.5 -257t-56.5 -294zM621 -360l587 -551l588 551q-62 49 -130 85t-143.5 60.5t-153.5 37.5t-161 13q-108 0 -209.5 -22t-199.5 -67t-178 -107zM621 -1688q80 -62 178 -107t199.5 -67t209.5 -22t210 22t198.5 66t179.5 108 l-588 551zM1329 -1024l588 -551q50 56 91.5 123t68.5 135.5t41 142t14 150.5q0 100 -25.5 198t-73 187t-116.5 166z" />
<glyph unicode="O" horiz-adv-x="3287" d="M121 -1430q0 301 123 564.5t335.5 457t488.5 301t570 107.5h11q296 0 571 -107.5t488 -301.5t335.5 -456.5t122.5 -564.5v-10q0 -300 -122.5 -561.5t-336 -456t-488 -302t-570.5 -107.5h-11q-294 0 -569.5 107.5t-488.5 301.5t-336 456.5t-123 561.5v10zM311 -1434 q0 -225 85.5 -435t240.5 -378l866 813l-866 813q-155 -166 -240.5 -377t-85.5 -436zM776 -489l869 -814l866 814q-185 146 -407 222.5t-459 76.5q-238 0 -461 -76.5t-408 -222.5zM776 -2378q94 -73 194.5 -128t216 -94.5t231 -58t227.5 -18.5t227 19t227.5 57t218 96 t193.5 127l-866 813zM1784 -1434l866 -813q102 110 175 240.5t112 276t39 296.5t-39 296.5t-112 276t-175 240.5z" />
<glyph unicode="P" horiz-adv-x="2296" d="M121 -27q5 22 26 27h1842l186 -492h-72q-52 140 -164.5 224.5t-253 121t-273.5 44.5t-318 8h-717l710 -912q7 -8 7 -18q0 -12 -7 -20l-763 -875h784q183 0 320 9t273 45.5t244.5 120t157.5 222.5h72l-186 -526h-1842q-26 6 -26 29q0 13 8 18l786 905l-786 1010 q-7 10 -8 16v43z" />
<glyph unicode="Q" horiz-adv-x="2054" d="M121 0h1810v-94q-207 0 -207 -137v-1586q0 -137 207 -137v-94h-628v94q206 0 206 137v1723h-966v-1723q0 -137 207 -137v-94h-629v94q207 0 207 137v1586q0 137 -207 137v94z" />
<glyph unicode="R" horiz-adv-x="1026" d="M121 -2068q0 42 28 69t68 27t67 -27t27 -69q0 -37 -20.5 -61t-57.5 -32q54 -49 129 -49q113 0 166 137q21 49 38.5 134.5t17.5 140.5q11 117 20 228t16 199.5t23 233.5q13 103 21 177.5t21 171.5t22 157.5t22 157.5q16 112 56 219t115.5 180.5t184.5 73.5q95 0 169.5 -58 t74.5 -151q0 -40 -27 -67t-67 -27t-68 27t-28 67q0 36 21 62t57 32q-52 49 -130 49q-126 0 -167 -210q-15 -62 -27 -201q-6 -69 -12.5 -139t-15 -177.5t-14.5 -181t-17 -166.5q-10 -91 -21 -182.5t-22 -166t-23 -165.5t-20 -147q-12 -85 -39.5 -166.5t-74.5 -151.5 t-114.5 -112.5t-154.5 -42.5q-60 0 -116.5 25.5t-92 73.5t-35.5 108z" />
<glyph unicode="S" horiz-adv-x="1812" d="M121 -76q6 35 27.5 55.5t54.5 20.5q34 0 55 -21t27 -55v-1255q0 -160 88 -287.5t231 -196.5t301 -69q116 0 230 40t202 113.5t138.5 176t50.5 223.5v1255q6 35 27.5 55.5t54.5 20.5q34 0 55 -21t27 -55v-1270q0 -153 -65 -281.5t-177.5 -223.5t-254 -146t-288.5 -51 q-146 0 -286 50.5t-254.5 147t-179 226t-64.5 278.5v1270z" />
<glyph unicode="T" horiz-adv-x="1812" d="M121 -702q0 150 65 280.5t179 225.5t254 145.5t286 50.5q147 0 288.5 -51t253.5 -144.5t177.5 -223t65.5 -283.5v-1272q-6 -32 -27 -53t-55 -21q-68 0 -82 74v1257q0 160 -88 287.5t-231 196.5t-302 69q-158 0 -301 -69t-231 -196.5t-88 -287.5v-1257q-6 -32 -27 -53 t-55 -21q-68 0 -82 74v1272z" />
<glyph unicode="U" horiz-adv-x="1812" d="M121 -76q6 35 27.5 55.5t54.5 20.5q34 0 55 -21t27 -55v-1255q0 -160 88 -287.5t231 -196.5t301 -69q116 0 230 40t202 113.5t138.5 176t50.5 223.5v1255q6 35 27.5 55.5t54.5 20.5q34 0 55 -21t27 -55v-1270q0 -153 -65 -281.5t-177.5 -223.5t-254 -146t-288.5 -51 q-146 0 -286 50.5t-254.5 147t-179 226t-64.5 278.5v1270zM449 -961q12 67 77 76h297v299q6 34 28 55t54 21t54 -21t28 -55v-299h297q31 -4 51.5 -24.5t26.5 -51.5v-14q-13 -66 -78 -74h-297v-301q-7 -33 -28.5 -53t-53.5 -20t-53.5 20t-28.5 53v301h-297q-64 7 -77 74v14z " />
<glyph unicode="V" horiz-adv-x="1812" d="M121 -1960q1 12 6 23l702 1884q23 53 76 53t78 -53l703 -1889q2 -4 2.5 -8.5t1.5 -9.5v-14q-6 -32 -27 -53t-55 -21q-24 0 -45.5 15t-30.5 38l-627 1678l-624 -1678q-11 -23 -32.5 -38t-45.5 -15q-68 0 -82 74v14z" />
<glyph unicode="W" horiz-adv-x="1812" d="M121 -76q6 35 27.5 55.5t54.5 20.5q51 0 78 -53l624 -1678l627 1678q9 23 30.5 38t45.5 15q34 0 55 -21t27 -55v-14q-2 -13 -4 -21l-703 -1884q-25 -53 -78 -53t-76 53l-704 1886q-1 6 -1.5 10.5t-2.5 8.5v14z" />
<glyph unicode="X" horiz-adv-x="3142" d="M121 -27q5 22 26 27h2610l264 -584h-72q-77 168 -241.5 269.5t-366 144.5t-391 53.5t-434.5 10.5h-1014l1018 -1309q6 -9 6 -19q0 -11 -6 -20l-1108 -1229h1126q240 0 427.5 10t391.5 55t363.5 145t228.5 267h72l-264 -661h-2610q-26 6 -26 28q0 14 8 19l1135 1261 l-1135 1461q-7 10 -8 16v55z" />
<glyph unicode="Y" horiz-adv-x="2779" d="M121 0h2537v-119q-138 0 -233.5 -42.5t-95.5 -162.5v-2220q0 -119 97 -161.5t232 -42.5v-119h-972v119q135 0 232 42.5t97 161.5v2425h-1251v-2425q0 -119 97.5 -161.5t232.5 -42.5v-119h-973v119q330 0 330 204v2220q0 205 -330 205v119z" />
<glyph unicode="Z" horiz-adv-x="1208" d="M121 -4325q0 46 32 77t76 31q45 0 76 -31t31 -77q0 -43 -28 -75t-72 -32q48 -53 126 -53q82 0 154.5 131t126.5 319.5t75.5 294t65.5 336.5q38 190 65 332l54 284q27 142 46 236.5t59 282.5q69 322 113.5 520.5t93 399.5t106.5 427q60 232 83.5 319.5t83.5 241t142 257.5 t178 104q62 0 119 -30t91 -82t34 -115q0 -45 -31 -76t-75 -31q-45 0 -77 31t-32 76q0 44 29 76t71 32q-48 53 -127 53q-48 0 -101.5 -132.5t-103 -324.5t-88 -376t-51.5 -248q-25 -126 -70 -365.5t-80 -421.5t-71 -350q-80 -367 -156 -693.5t-159 -651.5 q-47 -186 -82 -308.5t-101.5 -270.5t-161.5 -245.5t-220 -97.5q-62 0 -119 30t-91 82t-34 114z" />
<glyph unicode="[" horiz-adv-x="2417" d="M121 -90q5 38 29 61.5t61 28.5h10q38 -5 61.5 -28.5t28.5 -61.5v-1784q0 -174 73.5 -322.5t202.5 -257t290 -166t331 -57.5q172 0 333 57.5t289.5 166t201.5 255.5t73 324v1784q5 38 29 61.5t61 28.5h11q38 -5 61.5 -28.5t28.5 -61.5v-1794q0 -212 -89 -392.5t-245 -314 t-349.5 -205t-398.5 -71.5h-10q-205 0 -399 71.5t-350 205t-245 315.5t-89 391v1794z" />
<glyph unicode="\" horiz-adv-x="2417" d="M121 -983q0 209 89.5 392.5t243.5 315t349.5 203.5t400.5 72h10q205 0 400 -72t349 -203.5t243.5 -313.5t89.5 -394v-1794q-5 -37 -28.5 -61t-61.5 -29h-11q-37 5 -61 29t-29 61v1784q0 179 -73.5 326.5t-201 254.5t-290 164.5t-332.5 57.5q-169 0 -331.5 -57.5 t-290 -164.5t-201.5 -256.5t-74 -324.5v-1784q-5 -37 -28.5 -61t-61.5 -29h-10q-37 5 -61 29t-29 61v1794z" />
<glyph unicode="]" horiz-adv-x="2417" d="M121 -90q5 38 29 61.5t61 28.5h10q38 -5 61.5 -28.5t28.5 -61.5v-1784q0 -174 73.5 -322.5t202.5 -257t290 -166t331 -57.5q172 0 333 57.5t289.5 166t201.5 255.5t73 324v1784q5 38 29 61.5t61 28.5h11q38 -5 61.5 -28.5t28.5 -61.5v-1794q0 -212 -89 -392.5t-245 -314 t-349.5 -205t-398.5 -71.5h-10q-205 0 -399 71.5t-350 205t-245 315.5t-89 391v1794zM502 -1348q4 37 29.5 62t60.5 29h522v520q3 37 28 62t62 28h10q36 -3 61.5 -28t29.5 -62v-520h520q36 -4 60.5 -28.5t29.5 -62.5v-10q-5 -39 -29 -63t-61 -27h-520v-522q-4 -35 -28.5 -60 t-62.5 -30h-10q-39 5 -63 30t-27 60v522h-522q-35 3 -60 27t-30 63v10z" />
<glyph unicode="^" horiz-adv-x="2417" d="M121 -2767q2 10 3 17t3 12l993 2677q23 55 84 61h10q60 -6 84 -61l992 -2677q2 -5 3 -10.5t1.5 -9.5t1.5 -9v-10q-5 -37 -28.5 -61t-61.5 -29h-11q-59 6 -84 61l-903 2437l-903 -2437q-24 -55 -84 -61h-10q-37 5 -61 29t-29 61v10z" />
<glyph unicode="_" horiz-adv-x="2417" d="M121 -90q5 38 29 61.5t61 28.5h10q60 -6 84 -61l903 -2438l903 2438q26 55 84 61h11q38 -5 61.5 -28.5t28.5 -61.5v-10q-5 -26 -6 -29l-992 -2677q-24 -54 -84 -61h-10q-62 6 -84 61l-993 2677q-1 3 -6 29v10z" />
<glyph unicode="`" horiz-adv-x="2054" d="M121 0h629v-94q-207 0 -207 -137v-1723h966v1723q0 137 -206 137v94h628v-94q-207 0 -207 -137v-1586q0 -137 207 -137v-94h-1810v94q207 0 207 137v1586q0 137 -207 137v94z" />
<glyph unicode="a" horiz-adv-x="2779" d="M121 0h973v-119q-330 0 -330 -205v-2424h1251v2424q0 120 -95.5 162.5t-233.5 42.5v119h972v-119q-138 0 -233.5 -42.5t-95.5 -162.5v-2220q0 -119 97 -161.5t232 -42.5v-119h-2537v119q330 0 330 204v2220q0 205 -330 205v119z" />
<glyph unicode="b" horiz-adv-x="1208" d="M-14 1200l618 322l617 -322l-29 -65l-588 245l-590 -245z" />
<glyph unicode="c" horiz-adv-x="2175" d="M-10 1231l1097 348l1098 -348l-20 -70l-1078 277l-1077 -277z" />
<glyph unicode="d" horiz-adv-x="3142" d="M-6 1231l1577 348l1577 -348l-13 -70l-1564 277l-1565 -277z" />
<glyph unicode="e" horiz-adv-x="1208" d="M0 1280l82 66q172 133 313 133q60 0 110.5 -17t124.5 -51.5t119 -49.5t103 -15q146 0 313 133l41 -52l-82 -65q-172 -133 -313 -133q-59 0 -103 14.5t-121 50t-125.5 52t-107.5 16.5q-144 0 -313 -133z" />
<glyph unicode="f" horiz-adv-x="2175" d="M0 1319l94 45q204 94 357 133t278 39q105 0 195.5 -23t208.5 -66t197.5 -63t182.5 -20q262 0 635 172l27 -59l-94 -45q-130 -60 -247 -99.5t-212.5 -56t-175.5 -16.5q-105 0 -183.5 20t-196.5 63t-208.5 66t-195.5 23q-262 0 -635 -172z" />
<glyph unicode="g" horiz-adv-x="3142" d="M0 1317l100 33q311 99 548 142.5t417 43.5q187 0 367 -46l358 -94q180 -46 367 -46q120 0 258.5 17.5t319.5 60.5t386 108l21 -61l-101 -33q-315 -99 -549.5 -143t-414.5 -44q-187 0 -366.5 47t-359 93.5t-366.5 46.5q-180 0 -413.5 -43t-551.5 -144z" />
<glyph unicode="h" horiz-adv-x="1026" d="M487 92h504v-112h-391v-3460h391v-112h-504v3684z" />
<glyph unicode="i" horiz-adv-x="1026" d="M35 -20v112h504v-3684h-504v112h391v3460h-391z" />
<glyph unicode="j" horiz-adv-x="1147" d="M487 92h113v-3572h512v-112h-625v3684z" />
<glyph unicode="k" horiz-adv-x="1147" d="M35 -3480h512v3572h112v-3684h-624v112z" />
<glyph unicode="l" horiz-adv-x="1147" d="M487 92h625v-112h-512v-3572h-113v3684z" />
<glyph unicode="m" horiz-adv-x="1147" d="M35 -20v112h624v-3684h-112v3572h-512z" />
<glyph unicode="n" d="M256 -1726q0 14 16 22q152 61 257.5 172t105.5 256v897q0 94 50.5 178.5t131.5 145.5q38 28 92.5 58.5t114.5 56t96 32.5h49q7 0 15 -7t8 -15v-50q0 -14 -16 -22q-151 -52 -258 -148t-107 -233v-897q0 -87 -35 -160.5t-95 -131.5t-130 -100.5t-156 -78.5 q112 -45 205 -109.5t152 -156.5t59 -203v-897q0 -137 105.5 -232t259.5 -151q16 -4 16 -21v-49q0 -6 -8 -14t-15 -8h-49q-59 11 -153.5 59t-149.5 88q-81 61 -131.5 145.5t-50.5 178.5v897q0 147 -105.5 257t-257.5 171q-16 8 -16 20v50z" />
<glyph unicode="o" d="M256 20v50q0 8 8 15t15 7h49q56 -11 154.5 -60.5t146.5 -86.5q84 -63 133 -145.5t49 -178.5v-897q0 -101 51.5 -184t133.5 -144t178 -100q18 -7 18 -22v-50q0 -13 -18 -20q-153 -62 -258 -171.5t-105 -256.5v-897q0 -96 -49 -178.5t-133 -145.5q-55 -40 -150 -88 t-151 -59h-49q-7 0 -15 8t-8 14v49q0 17 18 21q92 34 174.5 87t134.5 127.5t52 168.5v897q0 111 59.5 203t152.5 156.5t204 109.5q-109 44 -203.5 110.5t-153.5 158t-59 202.5v897q0 135 -107 232.5t-254 148.5q-18 7 -18 22z" />
<glyph unicode="p" horiz-adv-x="2175" d="M240 -1362l313 225l453 -1001l1130 2208q10 24 41 24q19 0 33 -14t14 -33q0 -8 -4 -20l-1210 -2368q-18 -24 -39 -24h-51l-484 1065l-149 -109z" />
<glyph unicode="q" horiz-adv-x="2175" d="M240 -2095l313 344l459 -1518l1122 3337q5 12 17 19t26 7q19 0 33 -14t14 -33q0 -6 -4 -18l-1210 -3597q-3 -10 -15 -18t-24 -8h-51l-488 1614l-145 -162z" />
<glyph unicode="r" horiz-adv-x="2175" d="M240 -2828l313 463l461 -2032l1118 4454q11 37 45 37q19 0 33 -14t14 -33v-10l-1210 -4823q-16 -37 -43 -37h-51l-492 2161l-141 -211z" />
<glyph unicode="s" horiz-adv-x="2175" d="M240 -3559l313 579l461 -2546l1118 5583q11 37 45 37q19 0 33 -14t14 -33v-10l-1210 -6052q-16 -37 -43 -37h-51l-492 2710l-141 -265z" />
<glyph unicode="t" horiz-adv-x="2296" d="M242 -944l311 579l971 -2777v3146q7 43 47 43q19 0 31.5 -12.5t15.5 -30.5v-3645q-6 -36 -45 -45h-49l-1059 3027l-176 -332z" />
<glyph unicode="u" horiz-adv-x="2296" d="M1524 4q7 43 47 43q19 0 31.5 -12.5t15.5 -30.5v-1237q-8 -43 -47 -43t-47 43v1237z" />
<glyph unicode="v" horiz-adv-x="2296" d="M1524 51q6 37 45 43h733q43 -8 43 -47t-43 -47h-684v-1141q-8 -43 -47 -43t-47 43v1192z" />
<glyph unicode="w" horiz-adv-x="1692" d="M555 2h98v-1233h-98v1233zM1038 2h99v-1233h-99v1233z" />
<glyph unicode="x" d="M242 -367q97 31 187 85.5t165 126t131 155.5q56 -84 131 -155.5t165 -126t187 -85.5v-90q-123 41 -231 106t-203 156v-1034h-98v1034q-91 -88 -201 -154.5t-233 -107.5v90z" />
<glyph unicode="y" d="M242 -772q122 -39 233 -106.5t201 -155.5v1034h98v-1034q94 91 203 157t231 105v-90q-97 -31 -187 -85.5t-165 -126t-131 -155.5q-86 129 -211.5 224t-271.5 143v90z" />
<glyph unicode="z" horiz-adv-x="922" d="M-55 -373q0 5 4 11q69 137 172 255.5t229 204.5t270.5 133.5t299.5 47.5q10 0 18 -6t8 -17v-233q0 -7 -7 -15t-15 -8q-135 0 -262 -26.5t-242.5 -81t-211 -139.5t-157.5 -199q-7 -13 -18 -13h-66q-7 0 -14.5 7.5t-7.5 15.5v63z" />
<glyph unicode="{" horiz-adv-x="922" d="M-25 23v233q0 10 8 16.5t19 6.5q155 0 300 -47.5t270.5 -133.5t228.5 -204.5t172 -255.5q4 -6 4 -11v-63q0 -8 -7.5 -15.5t-15.5 -7.5h-63q-14 0 -21 13q-63 116 -157.5 200t-210 138.5t-242.5 81t-262 26.5q-8 0 -15.5 7.5t-7.5 15.5z" />
<glyph unicode="|" horiz-adv-x="922" d="M-55 651v64q0 8 8 15t14 7h66q10 0 18 -12q123 -223 360 -334.5t513 -111.5q9 0 15.5 -7.5t6.5 -15.5v-233q0 -11 -7.5 -17t-18.5 -6q-204 0 -392 82.5t-337 228.5t-242 330q-4 4 -4 10z" />
<glyph unicode="}" horiz-adv-x="922" d="M-25 23v233q0 9 7 16t16 7q135 0 259 25.5t243 81t212.5 140t157.5 199.5q8 12 21 12h63q7 0 15 -7t8 -15v-64q0 -6 -4 -10q-93 -185 -242.5 -330.5t-337 -228t-391.5 -82.5q-27 0 -27 23z" />
<glyph unicode="~" horiz-adv-x="1692" d="M121 -633q155 56 292 148.5t247.5 215.5t185.5 269q75 -145 185 -268.5t248.5 -216.5t291.5 -148v-98q-80 29 -155 65.5t-147.5 83.5t-131.5 95v-742h-99v828q-108 101 -192 223q-90 -127 -193 -223v-828h-98v742q-97 -79 -203.5 -139t-230.5 -105v98z" />
<glyph unicode="&#xa1;" horiz-adv-x="997" d="M334 -1137q0 178 29 346.5t92 330t162.5 302t230.5 244.5q6 6 14 6h27q9 0 15.5 -7t6.5 -17q0 -11 -6 -17q-113 -111 -192 -248.5t-126.5 -291t-68 -317.5t-20.5 -331q0 -166 21 -329.5t67.5 -315t125.5 -289t193 -251.5q6 -7 6 -17t-6 -17t-16 -7h-27q-8 0 -14 6 q-131 105 -230.5 245.5t-162.5 301.5t-92 329t-29 344z" />
<glyph unicode="&#xa2;" horiz-adv-x="997" d="M84 68q0 24 22 24h27q8 0 14 -6q133 -104 232.5 -244.5t162 -301t91.5 -330t29 -347.5q0 -237 -53.5 -461t-169 -421t-292.5 -338q-6 -6 -14 -6h-27q-22 0 -22 24q0 9 6 17q115 113 195.5 254t125.5 289.5t66 312t21 329.5q0 167 -20.5 331t-66.5 314.5t-127 291.5 t-194 251q-6 6 -6 17z" />
<glyph unicode="&#xa3;" horiz-adv-x="905" d="M438 92h424v-94h-330v-2267h330v-94h-424v2455z" />
<glyph unicode="&#xa4;" horiz-adv-x="905" d="M43 -2v94h424v-2455h-424v94h330v2267h-330z" />
<glyph unicode="&#xa5;" horiz-adv-x="1026" d="M438 92h94v-2361h451v-94h-545v2455z" />
<glyph unicode="&#xa6;" horiz-adv-x="1026" d="M43 -2269h451v2361h94v-2455h-545v94z" />
<glyph unicode="&#xa7;" horiz-adv-x="1026" d="M438 92h545v-94h-451v-2361h-94v2455z" />
<glyph unicode="&#xa8;" horiz-adv-x="1026" d="M43 -2v94h545v-2455h-94v2361h-451z" />
<glyph unicode="&#xa9;" horiz-adv-x="1268" d="M236 -1122q0 16 18 20q124 41 211.5 107t87.5 170v596q0 95 68 161t162 102t200 58h27q8 0 15 -7t7 -15v-27q0 -16 -16 -20q-123 -37 -211 -97t-88 -159v-596q0 -122 -96 -192t-244 -116q340 -99 340 -307v-596q0 -98 85 -155.5t214 -98.5q16 -4 16 -20v-27q0 -6 -7 -14 t-15 -8h-27q-75 15 -143.5 37t-136 60.5t-109 94.5t-41.5 127v596q0 73 -44.5 127.5t-110 90t-144.5 59.5q-18 7 -18 22v27z" />
<glyph unicode="&#xaa;" horiz-adv-x="1268" d="M236 43v27q0 8 8 15t14 7h27q172 -33 302 -107t130 -214v-596q0 -182 299 -277q16 -4 16 -20v-27q0 -14 -16 -22q-122 -36 -210.5 -103.5t-88.5 -173.5v-596q0 -137 -130 -211.5t-302 -107.5h-27q-6 0 -14 8t-8 14v27q0 16 18 20q127 39 213 96.5t86 157.5v596 q0 123 98 195t240 112q-146 45 -242 116t-96 192v596q0 100 -89 160t-210 96q-18 4 -18 20z" />
<glyph unicode="&#xad;" horiz-adv-x="1026" d="M211 -1137q0 7 4 19l557 1184q16 26 43 26q19 0 33 -14t14 -33q0 -6 -4 -18l-549 -1164l549 -1163q4 -12 4 -18q0 -19 -14 -33t-33 -14q-12 0 -24 6.5t-17 17.5l-559 1184q-4 16 -4 20z" />
<glyph unicode="&#xae;" horiz-adv-x="1026" d="M164 45q0 19 14 33t33 14q29 0 43 -24l557 -1186q4 -12 4 -19q0 -4 -4 -20l-557 -1182q-16 -26 -43 -26q-19 0 -33 14t-14 33q0 6 4 18l549 1163l-549 1164q-4 12 -4 18z" />
<glyph unicode="&#xaf;" horiz-adv-x="725" d="M313 8q7 34 43 41h15q35 -7 41 -41v-1245q-7 -34 -41 -41h-15q-36 7 -43 41v1245z" />
<glyph unicode="&#xb0;" horiz-adv-x="1208" d="M313 8q7 34 43 41h15q35 -7 41 -41v-1245q-7 -34 -41 -41h-15q-36 7 -43 41v1245zM795 8q7 35 43 41h14q35 -7 41 -41v-1245q-7 -34 -41 -41h-14q-36 6 -43 41v1245z" />
<glyph unicode="&#xb1;" horiz-adv-x="1255" d="M121 -2308q0 8 4 12l915 2357q14 31 39 31h15q33 -7 41 -41v-14q0 -4 -0.5 -6.5t-1.5 -5.5l-916 -2358q-17 -30 -39 -30h-14q-36 6 -43 41v14z" />
<glyph unicode="&#xb2;" horiz-adv-x="1255" d="M121 37v14q7 35 43 41h14q22 0 39 -31l916 -2357q1 -2 1.5 -4.5t0.5 -7.5v-14q-8 -34 -41 -41h-15q-24 0 -39 30l-915 2358q-4 4 -4 12z" />
<glyph unicode="&#xb3;" horiz-adv-x="1298" d="M393 -1751q0 551 181 1036t565 801q6 6 14 6h49q9 0 16 -8t7 -16q0 -14 -8 -19q-180 -167 -306.5 -378t-201 -442.5t-107.5 -477.5t-33 -500t33 -500t108.5 -480t200.5 -442.5t306 -377.5q8 -5 8 -19q0 -9 -6.5 -16.5t-16.5 -7.5h-49q-8 0 -14 6q-384 316 -565 800 t-181 1035z" />
<glyph unicode="&#xb4;" horiz-adv-x="1298" d="M74 68q0 24 22 24h49q9 0 15 -6q196 -161 340 -373t232.5 -448t130.5 -495.5t42 -520.5q0 -260 -42 -519t-130.5 -494.5t-232.5 -448t-340 -373.5q-6 -6 -15 -6h-49q-22 0 -22 24q0 8 10.5 21t27 27.5t19.5 17.5q165 166 282 372t185.5 431.5t99.5 463.5t31 482v4 q0 264 -33.5 508.5t-108.5 475t-200.5 440t-304.5 374.5q-8 5 -8 19z" />
<glyph unicode="&#xb5;" horiz-adv-x="1602" d="M455 -2365q0 732 237.5 1380t745.5 1071q6 6 14 6h53q9 0 16 -7t7 -17q0 -14 -8 -19q-240 -219 -410 -498.5t-272.5 -594t-147.5 -644.5t-45 -675q0 -333 40.5 -647t136.5 -625t251 -582t379 -495q8 -8 28.5 -27.5t34 -34.5t13.5 -22q0 -11 -6.5 -18t-16.5 -7h-53 q-8 0 -14 6q-508 423 -745.5 1071t-237.5 1379z" />
<glyph unicode="&#xb6;" horiz-adv-x="1602" d="M72 68q0 24 22 24h53q9 0 15 -6q261 -216 450 -496.5t307.5 -603.5t172 -659.5t53.5 -691.5q0 -354 -53.5 -690.5t-172 -658.5t-307.5 -603.5t-450 -497.5q-6 -6 -15 -6h-53q-9 0 -15.5 7.5t-6.5 17.5q0 7 14 23t30.5 31.5t30.5 29.5q222 221 379 497.5t251.5 582.5 t135.5 620.5t41 646.5q0 333 -41.5 651.5t-134.5 621t-251.5 579.5t-379.5 497q-21 21 -48 47t-27 37z" />
<glyph unicode="&#xb8;" horiz-adv-x="1147" d="M27 -37v129h579v-4913h-579v129h450v4655h-450z" />
<glyph unicode="&#xb9;" horiz-adv-x="1268" d="M541 92h129v-4784h571v-129h-700v4913z" />
<glyph unicode="&#xba;" horiz-adv-x="1268" d="M27 -4692h571v4784h129v-4913h-700v129z" />
<glyph unicode="&#xbb;" horiz-adv-x="1268" d="M541 92h700v-129h-571v-4784h-129v4913z" />
<glyph unicode="&#xbc;" horiz-adv-x="1268" d="M27 -37v129h700v-4913h-129v4784h-571z" />
<glyph unicode="&#xbd;" horiz-adv-x="1630" d="M283 -2339q0 13 12 21q116 53 214.5 140.5t155 199.5t56.5 241v1205q0 110 47 211t129 184q43 43 111 92t140.5 88t123.5 49h53q8 0 15.5 -6.5t7.5 -15.5v-54q0 -11 -13 -20q-115 -49 -211 -126t-154.5 -182.5t-58.5 -224.5v-1204q0 -105 -41 -203t-108 -175.5 t-157 -140.5t-185 -105q93 -40 185.5 -104.5t158 -140t106.5 -174t41 -204.5v-1204q0 -119 58.5 -224.5t156 -184t209.5 -126.5q3 -1 8 -8t5 -10v-53q0 -8 -7.5 -15.5t-15.5 -7.5h-53q-71 14 -189.5 89t-185.5 140q-82 85 -129 186t-47 210v1204q0 98 -33.5 187.5t-91 162.5 t-134.5 132.5t-167 99.5q-12 4 -12 18v53z" />
<glyph unicode="&#xbe;" horiz-adv-x="1630" d="M283 16v54q0 8 8 15t14 7h53q75 -14 194.5 -90.5t180.5 -138.5q82 -79 130 -182.5t48 -212.5v-1205q0 -126 56 -239t154 -201t214 -141q13 -9 13 -21v-53q0 -9 -13 -18q-117 -55 -214.5 -142.5t-153.5 -200.5t-56 -239v-1204q0 -59 -12.5 -112t-35.5 -103t-54 -93 t-76 -88q-65 -65 -184.5 -140t-190.5 -89h-53q-6 0 -14 8t-8 15v53q0 3 4 10t8 8q181 77 303.5 216.5t122.5 318.5v1204q0 141 67 260.5t178 210.5t244 152q-210 97 -349.5 257.5t-139.5 366.5v1204q0 120 -58.5 225t-154 181.5t-213.5 126.5q-12 8 -12 20z" />
<glyph unicode="&#xbf;" horiz-adv-x="1630" d="M272 -2365q0 10 4 22l1022 2398q21 37 60 37q26 0 44.5 -18.5t18.5 -44.5q0 -11 -4 -23l-1009 -2371l1007 -2364q6 -12 6 -29q0 -26 -18.5 -44.5t-44.5 -18.5q-36 0 -58 35l-1021 2394q-7 11 -7 27z" />
<glyph unicode="&#xc0;" horiz-adv-x="1630" d="M209 29q0 27 19 45t46 18q33 0 58 -35l1020 -2394q6 -12 6 -28q0 -7 -4 -23l-1022 -2396q-21 -37 -58 -37q-27 0 -46 18t-19 45q0 11 4 23l1010 2370l-1008 2365q-6 12 -6 29z" />
<glyph unicode="&#xc1;" horiz-adv-x="2271" d="M121 -4758q0 11 4 15l1911 4796q11 33 51 39h10q22 -3 36 -17t17 -36v-10q0 -5 -0.5 -8t-1.5 -7l-1910 -4796q-16 -33 -52 -39h-10q-22 3 -37 18t-18 35v10z" />
<glyph unicode="&#xc2;" horiz-adv-x="2271" d="M121 29v10q6 47 55 53h10q35 -7 50 -35l1912 -4800q1 -3 1.5 -6t0.5 -9v-10q-7 -47 -53 -53h-10q-38 7 -49 35l-1913 4800q-4 4 -4 15z" />
<glyph unicode="&#xc3;" horiz-adv-x="1722" d="M514 -2980q0 442 51.5 856t170.5 808.5t322.5 752.5t497.5 649q7 6 15 6h59q9 0 16 -8t7 -16q0 -11 -6 -17q-267 -293 -447.5 -650t-283.5 -749t-145 -795t-42 -837q0 -432 42 -835t145 -795t282.5 -747.5t448.5 -651.5q6 -6 6 -16t-6.5 -17.5t-16.5 -7.5h-59q-7 0 -15 6 q-295 293 -497.5 650t-322 751.5t-171 808t-51.5 854.5z" />
<glyph unicode="&#xc4;" horiz-adv-x="1692" d="M121 -498q240 -87 434 -243v741h98v-827q104 -98 193 -224q46 65 89 115.5t103 108.5v827h99v-741q194 156 434 243v-98q-155 -56 -292 -148.5t-246.5 -215.5t-186.5 -269q-77 146 -186.5 269t-246.5 215.5t-292 148.5v98z" />
<glyph unicode="&#x2000;" horiz-adv-x="789" />
<glyph unicode="&#x2001;" horiz-adv-x="1579" />
<glyph unicode="&#x2002;" horiz-adv-x="789" />
<glyph unicode="&#x2003;" horiz-adv-x="1579" />
<glyph unicode="&#x2004;" horiz-adv-x="526" />
<glyph unicode="&#x2005;" horiz-adv-x="394" />
<glyph unicode="&#x2006;" horiz-adv-x="263" />
<glyph unicode="&#x2007;" horiz-adv-x="263" />
<glyph unicode="&#x2008;" horiz-adv-x="197" />
<glyph unicode="&#x2009;" horiz-adv-x="315" />
<glyph unicode="&#x200a;" horiz-adv-x="87" />
<glyph unicode="&#x2010;" horiz-adv-x="2779" d="M121 20v15q9 48 59 57h15q36 -6 53 -39l2406 -6011q2 -6 4 -20v-14q-9 -49 -57 -58h-14q-37 6 -54 39l-2406 6011l-5 9q0 1 -1 11z" />
<glyph unicode="&#x2011;" horiz-adv-x="2779" d="M121 20v15q9 48 59 57h15q36 -6 53 -39l2406 -6011q2 -6 4 -20v-14q-9 -49 -57 -58h-14q-37 6 -54 39l-2406 6011l-5 9q0 1 -1 11z" />
<glyph unicode="&#x2012;" horiz-adv-x="2779" d="M121 20v15q9 48 59 57h15q36 -6 53 -39l2406 -6011q2 -6 4 -20v-14q-9 -49 -57 -58h-14q-37 6 -54 39l-2406 6011l-5 9q0 1 -1 11z" />
<glyph unicode="&#x2013;" horiz-adv-x="1266" d="M121 20v15q4 48 24 57h6q14 -6 21 -39l971 -6011q1 -6 2 -20v-14q-4 -49 -23 -58h-6q-15 6 -21 39l-972 6011q-1 8 -1.5 9t-0.5 11z" />
<glyph unicode="&#x2014;" horiz-adv-x="2290" d="M121 20v15q7 48 48 57h12q29 -6 43 -39l1942 -6011q1 -6 3 -20v-14q-7 -49 -46 -58h-11q-30 6 -44 39l-1942 6011q-3 8 -3.5 9t-1.5 11z" />
<glyph unicode="&#x202f;" horiz-adv-x="315" />
<glyph unicode="&#x205f;" horiz-adv-x="394" />
<glyph unicode="&#x2219;" horiz-adv-x="1147" d="M541 92h579v-129h-450v-4655h450v-129h-579v4913z" />
<glyph unicode="&#xe000;" horiz-adv-x="500" d="M0 0v0v0v0v0z" />
</font>
</defs>
</svg>
