<?xml version="1.0" standalone="no"?>
<!DOCTYPE svg PUBLIC "-//W3C//DTD SVG 1.1//EN" "http://www.w3.org/Graphics/SVG/1.1/DTD/svg11.dtd" >
<svg xmlns="http://www.w3.org/2000/svg">
<metadata>
This is a custom SVG webfont generated by Font Squirrel.
Copyright   : Copyright C 1994 Basil K Malyshev All Rights Reserved012BaKoMa Fonts Collection LevelB
</metadata>
<defs>
<font id="cmitt10Regular" horiz-adv-x="1075" >
<font-face units-per-em="2048" ascent="1638" descent="-410" />
<missing-glyph horiz-adv-x="500" />
<glyph unicode=" " />
<glyph unicode="!" d="M457 96q0 45 36 81t82 36q39 0 68 -28t29 -68q0 -47 -37 -82t-82 -35q-38 0 -67 29t-29 67zM563 440q0 6 2 13l160 727q9 40 42 67t75 27q41 0 68.5 -27.5t27.5 -66.5q0 -15 -2 -23l-205 -731q-12 -39 -53 -45h-60q-23 3 -39 19t-16 40z" />
<glyph unicode="&#x22;" d="M473 733v10l84 445q7 37 35.5 61.5t66.5 24.5q37 0 63 -24.5t26 -61.5q0 -4 -5 -29l-141 -446q-11 -35 -53 -41h-19q-23 3 -40 19t-17 42zM836 733v10l84 445q7 37 35.5 61.5t66.5 24.5q37 0 62.5 -24.5t25.5 -61.5q0 -9 -4 -29l-141 -446q-13 -35 -54 -41h-18 q-25 3 -41 19t-16 42z" />
<glyph unicode="#" d="M174 406q0 29 19.5 48.5t48.5 22.5h141l113 299h-144q-30 3 -48.5 23.5t-18.5 48.5t19.5 48.5t47.5 23.5h199l108 290q25 41 66 41q30 0 51 -21t21 -50q0 -17 -6 -29l-86 -231h204l109 290q23 41 65 41q30 0 51 -21t21 -50q0 -17 -6 -29l-86 -231h86q28 -3 48 -24t20 -48 t-19 -48t-49 -24h-141l-113 -299h143q30 -3 49 -23t19 -48q0 -27 -19 -48t-49 -24h-198l-111 -291q-22 -43 -65 -43q-28 0 -50 22t-22 50q0 15 6 30l88 232h-205l-110 -291q-24 -43 -66 -43q-28 0 -50 22t-22 50q0 12 7 30l88 232h-86q-29 3 -48.5 23.5t-19.5 48.5zM537 477 h204l113 299h-205z" />
<glyph unicode="$" d="M104 92q0 67 60 112.5t129 45.5q45 0 78 -8q19 31 35 86l57 231h-74q-22 3 -38.5 19.5t-16.5 39.5q0 28 16 48.5t43 25.5h105l65 262q19 78 68 151t120.5 120t149.5 47q92 0 139 -66.5t47 -161.5q0 -200 -116 -200q-36 0 -62 25t-26 59q0 35 24 69q13 14 21.5 19.5t10 11 t1.5 29.5q0 80 -41 80q-65 0 -119.5 -70.5t-70.5 -142.5l-60 -232h113q25 -3 40 -19t15 -40q0 -29 -16 -49.5t-43 -24.5h-142l-65 -262q-12 -54 -43 -109q80 -36 113 -48.5t79 -12.5q44 0 78 44t47 95q13 37 54 43h39q24 -3 39.5 -19.5t15.5 -39.5q0 -5 -0.5 -8t-1.5 -6 q-17 -66 -59 -122t-100.5 -91t-125.5 -35q-47 0 -90 12t-95.5 35.5t-84.5 38.5q-99 -86 -201 -86q-45 0 -78 29.5t-33 74.5z" />
<glyph unicode="%" d="M156 -98q0 15 10 37l934 1447q23 35 61 35q30 0 51 -21t21 -50q0 -17 -10 -37l-934 -1448q-25 -35 -62 -35q-29 0 -50 22t-21 50zM346 1061q0 69 31 154.5t87.5 145.5t127.5 60q47 0 77.5 -27.5t45 -69.5t14.5 -89q0 -69 -31 -155t-87.5 -146t-125.5 -60t-104 57t-35 130 zM471 1069q0 -7 5 -34t11 -27q44 0 80.5 82t36.5 137q0 14 -4.5 37.5t-11.5 23.5q-43 0 -80 -83t-37 -136zM659 16q0 69 31 154t86.5 145t126.5 60q70 0 103.5 -56.5t33.5 -130.5q0 -69 -31 -154t-86 -144.5t-126 -59.5q-69 0 -103.5 56.5t-34.5 129.5zM782 25q0 -46 17 -62 q43 0 81 81t38 136q0 44 -17 62q-43 0 -81 -82.5t-38 -134.5z" />
<glyph unicode="&#x26;" d="M98 358q0 90 45 191t111 178q-12 46 -12 96q0 74 30.5 154t84 148.5t123.5 108.5t149 40q89 0 158 -45t69 -131q0 -50 -29 -87.5t-79 -37.5q-35 0 -60.5 24.5t-25.5 59.5q0 39 24 69q-25 15 -61 15q-56 0 -110.5 -50.5t-89 -121.5t-34.5 -129q76 45 156 45 q56 0 89.5 -40.5t33.5 -94.5q0 -74 -52 -138.5t-124 -64.5q-91 0 -158 55q-35 -52 -61.5 -119t-26.5 -123q0 -84 54 -140.5t135 -82.5t161 -26q151 0 265.5 60.5t178.5 173.5t64 261q0 83 -35 146q-19 -11 -40.5 -22.5t-40.5 -26t-31.5 -32t-12.5 -38.5q0 -32 33 -45 q-4 0 12.5 5t24.5 5q32 0 51.5 -21.5t19.5 -52.5q-3 -34 -25.5 -54.5t-55.5 -20.5q-83 0 -146 51.5t-63 134.5q0 49 20.5 87t56 69.5t72 54t86.5 53.5q138 94 191 293q16 59 80 59q31 -3 49 -22.5t18 -50.5q-10 -80 -61.5 -176.5t-112.5 -157.5q61 -99 61 -228 q0 -146 -48 -264t-136.5 -202t-211.5 -128.5t-265 -44.5q-121 0 -236 42.5t-188.5 129.5t-73.5 209zM432 705q23 -25 60 -25q15 13 22.5 32t7.5 38q-41 -9 -90 -45z" />
<glyph unicode="'" d="M537 680q0 32 32 53q98 45 168.5 126t91.5 181q-2 0 -5 -0.5t-7 -1.5q-42 0 -71 26t-29 69q0 47 36.5 82.5t84.5 35.5q65 0 98 -45.5t33 -111.5q0 -147 -99 -280t-239 -198q-12 -6 -27 -6q-25 0 -46 22t-21 48z" />
<glyph unicode="(" d="M481 414q0 204 86 399t236.5 351.5t333.5 250.5q9 6 22 6h23q25 -3 40 -19t15 -40q0 -34 -33 -53q-120 -64 -223 -159.5t-183.5 -218.5t-123.5 -256.5t-43 -268.5q0 -95 23 -180.5t71.5 -159t120.5 -127.5q24 -19 24 -48q0 -24 -16 -40t-39 -19h-22q-11 0 -31 10 q-137 97 -209 249.5t-72 322.5z" />
<glyph unicode=")" d="M154 -109q0 33 32 54q119 63 225.5 161t183.5 216.5t121 255.5t44 270q0 301 -215 467q-25 17 -25 47q0 24 15 40t40 19h23q11 0 31 -10q67 -46 122 -112.5t88.5 -137t51.5 -154.5t18 -167q0 -155 -49.5 -304t-140.5 -282.5t-209 -238t-256 -177.5q-9 -6 -23 -6h-22 q-23 3 -39 19t-16 40z" />
<glyph unicode="*" d="M248 424q0 25 16 47t39 31l258 125l-196 123q-25 12 -25 43q0 34 29.5 62t62.5 28q23 0 33 -11l190 -133l60 256q6 30 32.5 51t57.5 21q22 0 38.5 -15.5t16.5 -37.5q0 -13 -2 -19l-70 -256l259 133q15 11 36 11q25 0 41.5 -15t16.5 -41q0 -24 -16 -46t-40 -31l-258 -123 l197 -125q25 -12 25 -43q0 -35 -30 -62.5t-65 -27.5q-19 0 -32 10l-191 133l-57 -256q-8 -29 -33.5 -50.5t-56.5 -21.5q-22 0 -39 15.5t-17 38.5q0 12 2 18l70 256l-258 -133q-15 -10 -39 -10q-22 0 -38.5 15.5t-16.5 39.5z" />
<glyph unicode="+" d="M236 627q0 28 19 48t48 23h336l84 336q17 53 70 53q29 0 50 -21t21 -50q0 -12 -2 -17l-76 -301h301q29 -3 48.5 -23.5t19.5 -47.5t-19 -48t-49 -24h-335l-84 -334q-18 -55 -70 -55q-28 0 -50 22t-22 50q0 12 2 18l76 299h-301q-30 3 -48.5 23.5t-18.5 48.5z" />
<glyph unicode="," d="M311 -215q0 45 54 59q131 36 202 156h-14q-49 0 -83 32t-34 81q0 62 46.5 106.5t107.5 44.5q64 0 103.5 -47.5t39.5 -112.5q0 -86 -48.5 -166.5t-126.5 -139.5t-163 -81q-6 -2 -16 -2q-25 0 -46.5 21.5t-21.5 48.5z" />
<glyph unicode="-" d="M272 627q0 28 20 48t48 23h711q28 -3 47.5 -23.5t19.5 -47.5t-19 -48t-48 -24h-711q-29 3 -48.5 23.5t-19.5 48.5z" />
<glyph unicode="." d="M436 115q0 39 22 73.5t58 55t74 20.5q48 0 81.5 -32.5t33.5 -81.5q0 -60 -47 -105t-105 -45q-48 0 -82.5 32.5t-34.5 82.5z" />
<glyph unicode="/" d="M94 -98q0 25 15 43l1056 1448q23 28 58 28q29 0 50 -21t21 -50q0 -22 -14 -43l-1057 -1448q-21 -29 -57 -29q-28 0 -50 22t-22 50z" />
<glyph unicode="0" d="M231 397q0 119 32.5 244t93 237t145.5 205q174 191 354 191q103 0 171 -63.5t99 -160t31 -196.5q0 -119 -33.5 -245t-93.5 -237t-145 -204q-45 -52 -102 -95.5t-121 -69.5t-130 -26q-78 0 -136 37.5t-94.5 99.5t-53.5 136t-17 147zM385 420q0 -115 41.5 -212t138.5 -97 q117 0 240 157q57 72 104.5 170.5t74 203t26.5 204.5q0 64 -18 133t-60 115.5t-109 46.5q-120 0 -237 -144q-96 -116 -148.5 -270t-52.5 -307z" />
<glyph unicode="1" d="M240 61q0 28 16.5 47.5t44.5 24.5h223l207 825q-119 -73 -217 -73q-27 0 -46 17t-19 44q0 28 16.5 47.5t44.5 24.5q94 0 175.5 65.5t141.5 159.5q16 25 45 25h15q26 -3 41.5 -20.5t15.5 -41.5v-10l-266 -1063h194q26 -3 42 -20t16 -41q0 -27 -16 -47.5t-44 -24.5h-573 q-25 3 -41 21t-16 40z" />
<glyph unicode="2" d="M115 37q0 10 2 16q26 104 91 196t155.5 161.5t193.5 111.5q44 19 140.5 61t167.5 87.5t116 107t45 140.5q0 102 -71 162.5t-177 60.5q-79 0 -156 -36t-133 -99t-75 -138q-12 -39 -54 -45h-38q-22 3 -39 20t-17 40q0 10 2 16q28 107 106.5 192.5t187.5 134t220 48.5 q105 0 196 -44t144.5 -124.5t53.5 -187.5t-48.5 -188.5t-130 -142.5t-159 -98t-211.5 -94q-157 -67 -256 -178q45 0 91 -11.5t122.5 -36.5t118 -35.5t90.5 -10.5q81 0 146 71t87 156q11 39 53 45h39q26 -3 41 -19t15 -40q0 -10 -3 -17q-21 -86 -77.5 -165.5t-137.5 -128 t-172 -48.5q-71 0 -174 33q-57 20 -157 43t-152 23q-15 -9 -32.5 -41.5t-25.5 -43t-34 -14.5h-39q-55 9 -55 60z" />
<glyph unicode="3" d="M158 240q0 61 26 105t84 44q36 0 62 -24t26 -60q0 -51 -47 -88q12 -54 66.5 -80t116.5 -26q91 0 184 31t156 95.5t63 155.5q0 88 -56.5 139.5t-144.5 51.5h-119q-23 3 -39 19t-16 40q0 30 15.5 50.5t42.5 23.5h120q72 0 155.5 34t138.5 96t55 136q0 78 -63.5 118 t-145.5 40q-107 0 -205.5 -43t-120.5 -133q-12 -37 -53 -43h-39q-23 3 -39 19t-16 40q0 10 2 14q22 93 98.5 157t178 93t198.5 29q86 0 168.5 -33.5t134 -98.5t51.5 -159q0 -74 -36 -141t-94.5 -119t-129.5 -86q53 -42 80.5 -107.5t27.5 -136.5q0 -100 -50 -179 t-132.5 -131.5t-182 -79t-192.5 -26.5q-128 0 -228.5 70t-100.5 193z" />
<glyph unicode="4" d="M47 70q0 32 29 49q144 94 262.5 213t212.5 259.5t163 300.5t109 322q17 53 74 60q20 0 36 -8t26.5 -23.5t13.5 -34.5q0 -8 -4 -24q-37 -151 -94 -288t-135 -268.5t-174.5 -248.5t-207.5 -213q70 0 133.5 -16t174.5 -52l73 293q19 50 72 58q31 0 51.5 -17.5t24.5 -48.5 q0 -8 -2 -21l-74 -292q8 -2 27 -2q31 0 85 16t62 16q16 0 32.5 -10t26 -26.5t9.5 -32.5q0 -46 -76.5 -71.5t-140.5 -25.5q-39 0 -58 3l-84 -334q-16 -51 -71 -58q-30 0 -50.5 18.5t-25.5 47.5q0 8 2 20l84 338q-35 11 -79.5 24.5t-68 20t-62 13t-75.5 6.5q-127 0 -184 -13 q-28 -20 -49 -20q-25 0 -46.5 21.5t-21.5 48.5z" />
<glyph unicode="5" d="M174 242q0 61 26 105t85 44q37 0 62.5 -24.5t25.5 -61.5q0 -51 -47 -86q11 -55 71 -81.5t123 -26.5q96 0 192 49t156 133t60 184q0 81 -47.5 134t-128.5 53q-88 0 -167.5 -29t-138.5 -88q-21 -17 -38 -17h-27q-25 5 -41 22t-16 40q0 6 2 12l151 606q15 35 53 41h607 q25 -3 41 -19t16 -42q0 -27 -16 -47.5t-43 -24.5h-529l-92 -370q110 49 242 49q71 0 129.5 -24.5t100.5 -66t66.5 -101.5t24.5 -130q0 -137 -82.5 -252t-212.5 -180.5t-266 -65.5q-84 0 -163 29.5t-129 89.5t-50 146z" />
<glyph unicode="6" d="M221 362q0 160 57 328.5t154 292.5q103 128 241 209.5t285 81.5q63 0 118 -18t89.5 -58t34.5 -104q0 -55 -27 -95.5t-81 -40.5q-37 0 -62.5 24.5t-25.5 59.5q0 44 34 78q-22 21 -82 21q-161 0 -304.5 -131t-209.5 -297q148 100 310 100q93 0 168 -40.5t119 -113 t44 -165.5q0 -103 -44.5 -197.5t-120.5 -166.5t-173.5 -112.5t-197.5 -40.5q-109 0 -183 52t-108.5 139t-34.5 194zM371 362q0 -51 9 -94t29 -78.5t55.5 -57t86.5 -21.5q97 0 185.5 53t143 141.5t54.5 183.5q0 86 -57 137.5t-142 51.5q-77 0 -160.5 -37t-138.5 -102.5 t-55 -145.5q0 -7 -5 -19.5t-5 -11.5z" />
<glyph unicode="7" d="M207 883q0 14 6 26l176 332q17 27 49 33h39q23 -3 39 -19t16 -41q126 60 250 60q55 0 84 -25t64.5 -69.5t56.5 -44.5q74 0 123.5 27t95.5 68t64 44h39q23 -3 39 -19t16 -41q0 -17 -10 -34q-223 -277 -380 -561t-233 -582q-8 -27 -29.5 -43.5t-49.5 -16.5 q-31 5 -49.5 24.5t-18.5 49.5q1 5 1 9t1 8q33 127 79.5 252t99 232.5t118 220t149.5 233.5q-50 -5 -59 -5q-52 0 -80 21.5t-68.5 63.5t-60.5 42q-129 0 -245.5 -77.5t-178.5 -194.5q-18 -27 -49 -33h-39q-23 3 -39 20t-16 40z" />
<glyph unicode="8" d="M170 281q0 96 54.5 177t143 137.5t179.5 80.5q-83 25 -141 81.5t-58 135.5q0 106 81.5 194t201.5 137.5t225 49.5q85 0 164 -30t129.5 -90.5t50.5 -147.5q0 -83 -49.5 -151.5t-125 -113t-159.5 -65.5q92 -27 154.5 -95t62.5 -159q0 -90 -51 -172.5t-135.5 -144 t-180.5 -95t-184 -33.5q-91 0 -175 35.5t-135.5 104.5t-51.5 164zM324 309q0 -65 34.5 -109t89.5 -66.5t117 -22.5q82 0 168.5 39t142.5 108.5t56 151.5q0 93 -72 145.5t-170 52.5q-83 0 -168.5 -39t-141.5 -107.5t-56 -152.5zM500 905q0 -80 69 -122t154 -42q69 0 144.5 29 t127.5 83t52 124q0 55 -34 92t-85.5 54.5t-104.5 17.5q-69 0 -144 -29t-127 -83t-52 -124z" />
<glyph unicode="9" d="M188 158q0 56 28 96.5t81 40.5q37 0 62.5 -24.5t25.5 -61.5q0 -43 -33 -76q32 -22 109 -22q104 0 201 64t172 164.5t114 199.5q-147 -99 -311 -99q-92 0 -167.5 40t-120 112.5t-44.5 165.5q0 105 46.5 200t124 166t175.5 110.5t203 39.5q82 0 141 -30t97 -82.5 t56.5 -121.5t18.5 -147q0 -72 -12 -147.5t-34.5 -153t-54 -148t-71.5 -129.5q-95 -142 -238 -240t-298 -98q-111 0 -191 40.5t-80 140.5zM455 762q0 -86 56.5 -137.5t141.5 -51.5q77 0 161.5 37.5t139 103t54.5 146.5q0 4 5 17.5t5 21.5q0 103 -38 172.5t-132 69.5 q-74 0 -144.5 -30t-127.5 -84.5t-89 -122t-32 -142.5z" />
<glyph unicode=":" d="M436 115q0 39 22 73.5t58 55t74 20.5q48 0 81.5 -32.5t33.5 -81.5q0 -60 -47 -105t-105 -45q-48 0 -82.5 32.5t-34.5 82.5zM592 733q0 60 46 105t107 45q32 0 58.5 -15t41.5 -42t15 -58q0 -60 -47 -105t-104 -45q-47 0 -82 33.5t-35 81.5z" />
<glyph unicode=";" d="M311 -215q0 38 41 57q126 51 183 160q-44 6 -71.5 36t-27.5 75q0 62 46.5 106.5t107.5 44.5q56 0 85.5 -39t29.5 -96q0 -88 -41 -169t-110 -144.5t-146 -94.5q-16 -6 -29 -6q-25 0 -46.5 21.5t-21.5 48.5zM592 733q0 60 46 105t107 45q32 0 58.5 -15t41.5 -42t15 -58 q0 -60 -47 -105t-104 -45q-47 0 -82 33.5t-35 81.5z" />
<glyph unicode="&#x3c;" d="M272 627q0 35 35 63l813 440q20 11 35 11q32 0 52 -21t20 -51q0 -38 -35 -63l-717 -390l504 -372q29 -27 29 -58q0 -30 -21.5 -50.5t-50.5 -20.5q-26 0 -43 14l-592 440q-29 24 -29 58z" />
<glyph unicode="=" d="M197 473q0 29 18.5 48t48.5 24h785q29 -5 48 -24.5t19 -47.5t-18.5 -47.5t-48.5 -24.5h-785q-67 9 -67 72zM272 782q0 29 19 48t49 24h784q30 -5 49 -24.5t19 -47.5q0 -29 -19.5 -48.5t-48.5 -22.5h-784q-28 3 -48 22t-20 49z" />
<glyph unicode="&#x3e;" d="M162 186q0 37 35 62l716 389l-503 375q-29 20 -29 57q0 30 22 51t50 21q21 0 43 -15l594 -442q28 -24 28 -57q0 -36 -37 -62l-813 -442q-16 -8 -35 -8q-29 0 -50 21t-21 50z" />
<glyph unicode="?" d="M362 969q0 16 3 24q24 93 100 157.5t177 94t200 29.5q75 0 145.5 -27.5t116 -84t45.5 -134.5q0 -87 -53.5 -156t-139.5 -118l-280 -154q-16 -11 -20.5 -39.5t-4.5 -46.5q65 0 90 20t49.5 58t51.5 41h39q23 -3 39 -19t16 -41q0 -86 -96.5 -139t-192.5 -53 q-64 0 -107.5 45.5t-43.5 108.5q0 58 32.5 109t83.5 83l287 158q43 23 77 62t34 81q0 58 -54.5 85.5t-117.5 27.5q-84 0 -163.5 -26.5t-129.5 -84.5q0 -1 1.5 -4t5 -15.5t3.5 -23.5q0 -40 -31 -72t-73 -32q-38 0 -63.5 24.5t-25.5 61.5zM457 96q0 45 36 81t82 36 q39 0 68 -28t29 -68q0 -47 -37 -82t-82 -35q-38 0 -67 29t-29 67z" />
<glyph unicode="@" d="M225 457q0 181 97 371.5t259.5 313t346.5 122.5q137 0 201.5 -91.5t64.5 -232.5q0 -86 -24.5 -209.5t-59.5 -208.5q-29 -73 -82.5 -144t-123.5 -116t-146 -45q-111 0 -170.5 87.5t-59.5 201.5q0 109 52.5 233.5t145 209.5t204.5 85q77 0 137 -51q-17 147 -143 147 q-149 0 -282.5 -103t-213.5 -260t-80 -304q0 -140 78.5 -241t214.5 -101q75 0 118 20t140 80q6 6 23 6h51q24 -3 39.5 -19.5t15.5 -39.5q0 -30 -24 -47q-79 -62 -173.5 -97.5t-191.5 -35.5q-127 0 -221.5 65.5t-143.5 173.5t-49 230zM651 512q0 -61 26.5 -111.5t82.5 -50.5 q73 0 136 65t100.5 158.5t37.5 165.5q0 63 -26.5 112.5t-81.5 49.5q-74 0 -137 -65t-100.5 -158.5t-37.5 -165.5z" />
<glyph unicode="A" d="M72 61q0 28 16.5 47.5t44.5 24.5h80l518 1081q14 27 39 44.5t53 17.5h68q26 0 43.5 -17.5t17.5 -44.5l-22 -1081h49q25 -3 41 -20t16 -41q0 -29 -16.5 -48.5t-42.5 -23.5h-277q-24 3 -40.5 20.5t-16.5 40.5q0 27 16 47.5t43 24.5h74q2 60 2.5 101.5t1.5 91.5h-321 q-50 -104 -92 -193h43q23 -3 40 -21t17 -40q0 -28 -17.5 -48t-43.5 -24h-277q-25 3 -41 21t-16 40zM520 459h264q14 576 29 643q-11 -40 -88 -209.5t-205 -433.5z" />
<glyph unicode="B" d="M59 61q0 27 17 47.5t43 24.5h94l248 985h-66q-26 3 -41.5 20.5t-15.5 41.5q0 61 59 71h518q75 0 137.5 -30.5t99 -87t36.5 -129.5q0 -82 -42 -153t-109.5 -121t-145.5 -75q86 -20 140 -85t54 -152q0 -105 -65.5 -202.5t-168 -156.5t-206.5 -59h-528q-26 3 -42 20t-16 41z M367 133h268q75 0 144.5 37t112 101.5t42.5 138.5t-45 124t-119 50h-291zM512 717h225q70 0 138 34.5t113.5 94.5t45.5 129q0 64 -44.5 103.5t-108.5 39.5h-269z" />
<glyph unicode="C" d="M213 434q0 130 51.5 279.5t142.5 276.5t213.5 205.5t258.5 78.5q147 0 245 -98l60 79q14 19 41 19h16q23 -3 39 -19t16 -41v-10l-86 -342q-12 -39 -53 -45h-39q-23 3 -39 20t-16 40q0 10 2 29t2 30q0 85 -46.5 145t-131.5 60q-75 0 -147.5 -38.5t-133.5 -98t-104 -125.5 q-142 -213 -142 -441q0 -81 25.5 -155.5t80 -123t136.5 -48.5q71 0 141.5 34.5t121.5 95.5t69 132q12 37 53 43h39q22 -3 38.5 -18.5t16.5 -41.5q0 -5 -0.5 -8t-1.5 -6q-27 -105 -103 -188t-181.5 -130t-210.5 -47q-120 0 -204.5 66t-126.5 171t-42 220z" />
<glyph unicode="D" d="M51 61q0 27 17 47.5t43 24.5h84l247 985h-55q-25 3 -41 21t-16 41q0 61 59 71h481q81 0 140.5 -37.5t96 -98t54 -132.5t17.5 -149q0 -178 -71 -351t-196 -303q-176 -180 -354 -180h-448q-26 3 -42 20t-16 41zM348 133h205q71 0 137 38.5t129 102.5q63 68 110 155t71 180 t24 188q0 77 -22.5 150.5t-73.5 122t-129 48.5h-205z" />
<glyph unicode="E" d="M66 61q0 27 16 47.5t43 24.5h100l248 985h-72q-23 3 -40 21t-17 41q0 61 59 71h822q25 -3 41 -19t16 -42v-10l-53 -211q-15 -37 -53 -43h-35q-26 3 -42 19t-16 42v12l31 119h-489l-101 -403h258l21 76q12 34 53 40h35q26 -3 41.5 -19.5t15.5 -41.5v-10l-63 -252 q-16 -37 -56 -43h-34q-24 3 -41 21t-17 40q0 17 13 56h-258l-113 -449h532l47 184q17 35 54 41h35q25 -3 41 -19t16 -42v-10l-62 -244q-15 -37 -53 -43h-866q-26 3 -41.5 20.5t-15.5 40.5z" />
<glyph unicode="F" d="M70 61q0 27 16 47.5t43 24.5h107l247 985h-77q-24 3 -41 21t-17 41q0 28 16 47t44 24h837q26 -3 42 -19t16 -42v-10l-54 -211q-15 -37 -53 -43h-35q-26 3 -41.5 19.5t-15.5 41.5v12l31 119h-500l-107 -426h271l18 76q15 35 53 41h35q26 -3 42 -20t16 -41v-11l-64 -252 q-15 -37 -53 -43h-35q-26 3 -41.5 20.5t-15.5 41.5q0 9 4 26t6 29h-268l-107 -426h115q26 -3 41.5 -20.5t15.5 -40.5q0 -29 -16.5 -48.5t-42.5 -23.5h-375q-26 3 -41.5 20.5t-15.5 40.5z" />
<glyph unicode="G" d="M207 422q0 170 84 372.5t229.5 341t317.5 138.5q134 0 221 -92l53 73q14 19 41 19h16q24 -3 40 -19t16 -41v-10l-86 -342q-13 -39 -54 -45h-38q-22 3 -39 20t-17 40q0 8 1.5 21t3 26.5t1.5 21.5q0 48 -16 94t-49 73.5t-84 27.5q-102 0 -199 -83.5t-162 -191.5 q-131 -221 -131 -446q0 -118 48 -213.5t153 -95.5q107 0 188.5 95.5t124.5 217.5h-92q-26 3 -41.5 20.5t-15.5 40.5q0 27 16 47.5t43 24.5h303q26 -3 42 -20t16 -41q0 -27 -16 -47.5t-44 -24.5h-51l-96 -383q-15 -37 -55 -43h-35q-24 3 -41 21t-17 40v7q-114 -89 -243 -89 q-112 0 -188 66t-112 168t-36 211z" />
<glyph unicode="H" d="M55 61q0 27 17 47.5t43 24.5h90l248 985h-60q-26 3 -41.5 20.5t-15.5 41.5q0 61 59 71h303q24 -3 41 -20t17 -41q0 -28 -17.5 -48t-44.5 -24h-90l-100 -401h426l100 401h-59q-26 3 -42 20t-16 42q0 28 16 47t44 24h303q25 -3 41 -19t16 -42q0 -28 -16.5 -48t-44.5 -24 h-90l-246 -985h59q26 -3 42 -20t16 -41q0 -27 -16 -47.5t-44 -24.5h-303q-25 3 -41 21t-16 40q0 27 16 47.5t43 24.5h90l113 451h-424l-113 -451h60q26 -3 41.5 -20.5t15.5 -40.5q0 -29 -16.5 -48.5t-42.5 -23.5h-303q-24 3 -41 21t-17 40z" />
<glyph unicode="I" d="M174 61q0 27 16 47.5t43 24.5h261l247 985h-231q-25 3 -41 21t-16 41q0 28 16 47t45 24h643q26 -3 41.5 -19.5t15.5 -41.5q0 -29 -16.5 -48.5t-42.5 -23.5h-262l-246 -985h232q23 -3 40 -21t17 -40q0 -28 -17.5 -48t-44.5 -24h-643q-24 3 -40.5 20.5t-16.5 40.5z" />
<glyph unicode="J" d="M184 174q0 53 29.5 91t79.5 38q39 0 63.5 -24.5t24.5 -61.5q0 -40 -29 -72q50 -34 146 -34q52 0 107.5 21t96 60.5t54.5 90.5l209 835h-179q-23 3 -40 21t-17 41q0 28 16 47t43 24h433q25 -3 41 -19t16 -42q0 -27 -16 -47.5t-43 -24.5h-103l-217 -874q-14 -59 -55.5 -110 t-99.5 -86t-122 -53t-126 -18q-75 0 -145 18t-118.5 62t-48.5 117z" />
<glyph unicode="K" d="M66 61q0 27 16 47.5t43 24.5h84l248 985h-56q-23 3 -40 21t-17 41q0 61 59 71h267q25 -3 41 -19t16 -42q0 -29 -16.5 -48.5t-42.5 -23.5h-86l-131 -524l548 524q-26 0 -45.5 17.5t-19.5 44.5q0 28 16 47t45 24h240q26 -3 41.5 -19.5t15.5 -41.5q0 -29 -16.5 -48.5 t-42.5 -23.5h-76l-405 -387l188 -598h37q25 -3 41 -20t16 -41q0 -28 -16.5 -48t-44.5 -24h-213q-26 3 -42 20t-16 41q0 27 17 47.5t43 24.5h37l-156 496l-242 -232l-65 -264h55q24 -3 41 -21t17 -40q0 -28 -17.5 -48t-44.5 -24h-264q-26 3 -41.5 20.5t-15.5 40.5z" />
<glyph unicode="L" d="M76 61q0 27 17 47.5t42 24.5h115l248 985h-84q-26 3 -42 20t-16 42q0 28 16 47t44 24h391q25 -3 41 -19t16 -42q0 -29 -16.5 -48.5t-42.5 -23.5h-156l-246 -985h480l47 184q14 35 53 41h35q27 -3 42 -19t15 -42v-10l-61 -244q-15 -37 -53 -43h-828q-25 3 -41 21t-16 40z " />
<glyph unicode="M" d="M45 61q0 28 17.5 48t43.5 24h64l248 985h-35q-26 3 -41.5 20.5t-15.5 41.5q0 61 59 71h186q28 0 49 -17t21 -44q5 -54 10.5 -127.5t14 -192.5t11.5 -169.5t3 -100.5v-33q13 49 348 623q37 61 100 61h156q26 -3 41.5 -19.5t15.5 -41.5q0 -29 -16.5 -48.5t-42.5 -23.5h-65 l-246 -985h35q23 -3 40 -21t17 -40q0 -27 -16 -47.5t-43 -24.5h-228q-25 3 -41 21t-16 40q0 28 16.5 47.5t44.5 24.5h64l241 969q-7 -28 -117.5 -225t-228.5 -398q-15 -27 -41.5 -44t-54.5 -17q-25 0 -46.5 17.5t-21.5 43.5q-12 153 -25 333t-13 253q1 11 1.5 20t0.5 17 l-242 -969h35q23 -3 40 -21t17 -40q0 -29 -16.5 -48.5t-42.5 -23.5h-228q-23 3 -40 21t-17 40z" />
<glyph unicode="N" d="M68 61q0 27 16 47.5t43 24.5h90l248 985h-59q-26 3 -42 20t-16 42q0 28 16 47t44 24h210q29 0 49 -16.5t23 -44.5q36 -306 59 -509.5t38.5 -349t15.5 -175.5l-2 -6l243 968h-59q-26 3 -41.5 20.5t-15.5 41.5q0 61 59 71h277q23 -3 40 -20t17 -41q0 -28 -17.5 -48 t-43.5 -24h-91l-268 -1075q-16 -43 -57 -43h-17h-57q-28 0 -48.5 17.5t-23.5 43.5q-112 965 -112 1035v6l-242 -969h59q26 -3 42 -20t16 -41q0 -27 -16 -47.5t-44 -24.5h-276q-25 3 -41 21t-16 40z" />
<glyph unicode="O" d="M188 172q0 80 18 168t64 287q40 156 64.5 239.5t61 169.5t79.5 135q64 68 154 85.5t227 17.5q108 0 176.5 -9.5t118 -52.5t49.5 -133q0 -79 -23 -193.5t-61 -258.5q-48 -195 -94.5 -337t-108.5 -210q-65 -68 -154 -85.5t-227 -17.5q-164 0 -254 33.5t-90 161.5zM352 248 q0 -62 29.5 -92t71.5 -37.5t112 -7.5q85 0 149.5 17.5t102.5 68.5q26 35 46 83t39.5 109t35 119t35.5 143q37 155 52 226.5t15 130.5q0 89 -55 111t-162 22q-87 0 -148 -14t-102 -64q-42 -53 -68.5 -137t-78.5 -275q-14 -60 -33 -142t-30 -150t-11 -111z" />
<glyph unicode="P" d="M66 61q0 27 16 47.5t43 24.5h100l248 985h-72q-23 3 -40 21t-17 41q0 61 59 71h515q83 0 150.5 -36t106.5 -101.5t39 -148.5q0 -119 -70.5 -228.5t-184 -176t-230.5 -66.5h-260l-90 -361h72q23 -3 40 -21t17 -40q0 -28 -17.5 -48t-44.5 -24h-323q-26 3 -41.5 20.5 t-15.5 40.5zM502 627h223q80 0 158 40t128 109.5t50 151.5q0 87 -61.5 138.5t-151.5 51.5h-223z" />
<glyph unicode="Q" d="M188 172q0 80 18 168t64 287q40 156 64.5 239.5t61 169.5t79.5 135q64 68 154 85.5t227 17.5q108 0 176.5 -9.5t118 -52.5t49.5 -133q0 -79 -23 -193.5t-61 -258.5q-48 -195 -94.5 -337t-108.5 -210q-47 -48 -106 -70l65 -233v-10q0 -20 -16 -36t-37 -16h-74 q-35 0 -43 31l-63 234q-35 -3 -107 -3q-164 0 -254 33.5t-90 161.5zM350 246q0 -88 55.5 -111.5t159.5 -23.5h39l-47 178q-2 2 -2 10q0 20 17.5 35.5t37.5 15.5h82q16 0 23 -14l51 -186q40 24 72.5 81.5t57.5 132.5t41.5 141.5t29.5 121.5q10 40 29.5 121t30.5 149t11 109 q0 62 -29.5 91.5t-72.5 36.5t-113 7q-88 0 -149 -15t-103 -67q-21 -28 -41.5 -74.5t-41 -111t-37 -126t-31.5 -120.5q-70 -278 -70 -381z" />
<glyph unicode="R" d="M55 61q0 27 17 47.5t43 24.5h90l248 985h-60q-26 3 -41.5 20.5t-15.5 41.5q0 61 59 71h414q62 0 117.5 -17t101 -52.5t71 -86.5t25.5 -116q0 -74 -35.5 -145t-95.5 -127.5t-127 -90.5q34 -30 54 -75t20 -90q0 -34 -8 -62l-37 -151q-14 -51 -14 -93q0 -17 4 -25.5t18 -8.5 q22 0 32.5 17.5t26 56t30 57.5t38.5 22h35q25 -3 41 -19t16 -42q0 -49 -34 -102.5t-85.5 -88.5t-101.5 -35q-78 0 -123 50.5t-45 130.5q0 47 15 102l36 152q7 21 7 37q0 61 -35.5 80t-108.5 30h-182l-107 -426h60q26 -3 41.5 -20.5t15.5 -40.5q0 -29 -16.5 -48.5 t-42.5 -23.5h-303q-24 3 -41 21t-17 40zM498 692h153q70 0 145.5 33t125 91t49.5 132q0 56 -32 94t-80 57t-101 19h-154z" />
<glyph unicode="S" d="M117 37v12l82 324q12 37 53 43h39q22 -3 38.5 -19.5t16.5 -40.5q0 -12 -6 -39t-6 -41q0 -93 82 -129t188 -36q72 0 147.5 40.5t122 107t46.5 138.5q0 57 -33 97.5t-88 54.5l-246 61q-64 15 -113.5 53t-78.5 94.5t-29 119.5q0 107 68 199.5t175 145t213 52.5 q173 0 271 -94l41 69q13 25 45 25h16q24 -3 40 -19t16 -41v-10l-82 -323q-13 -39 -54 -45h-39q-25 3 -40 20.5t-15 42.5q4 19 4 55q0 187 -207 187q-66 0 -138.5 -33t-120.5 -91t-48 -128q0 -50 34 -86t85 -49l246 -60q66 -17 116 -58t77.5 -100t27.5 -124 q0 -114 -67.5 -215t-174.5 -160.5t-221 -59.5q-96 0 -180 21t-146 74l-41 -70q-18 -25 -45 -25h-16q-55 9 -55 60z" />
<glyph unicode="T" d="M289 61q0 27 16 47.5t43 24.5h146l247 985h-258l-37 -149q-15 -37 -53 -43h-35q-24 3 -40.5 19.5t-16.5 41.5v12l53 211q17 35 54 41h854q25 -3 41 -19t16 -42v-10l-53 -211q-16 -37 -54 -43h-34q-26 3 -42 19t-16 42v12l31 119h-258l-246 -985h115q26 -3 41.5 -20.5 t15.5 -40.5q0 -29 -16.5 -48.5t-42.5 -23.5h-414q-25 3 -41 21t-16 40z" />
<glyph unicode="U" d="M240 311q0 49 14 117l174 690h-72q-23 3 -40 21t-17 41q0 61 59 71h326q26 -3 41.5 -19.5t15.5 -41.5q0 -29 -16.5 -48.5t-42.5 -23.5h-102l-179 -712q-12 -62 -12 -97q0 -79 42 -138.5t120 -59.5q76 0 146.5 49t118.5 124t67 152l172 682h-72q-25 3 -41 21t-16 41 q0 61 59 71h326q25 -3 41 -19t16 -42q0 -29 -16.5 -48.5t-42.5 -23.5h-103l-180 -721q-26 -107 -96 -203.5t-171 -156.5t-212 -60q-92 0 -162 45.5t-107.5 122t-37.5 166.5z" />
<glyph unicode="V" d="M334 1180q0 61 59 71h271q23 -3 40 -20t17 -41q0 -28 -17.5 -48t-44.5 -24h-71v-217q0 -223 -1 -355t-4 -254.5t-8 -141.5q21 77 472 968h-41q-26 3 -42 20t-16 42q0 28 16 47t44 24h270q25 -3 41 -19t16 -42q0 -28 -16.5 -48t-44.5 -24h-74l-538 -1073 q-15 -28 -41 -44.5t-54 -16.5h-67q-26 0 -45 16.5t-19 44.5l-2 1073h-43q-26 3 -41.5 20.5t-15.5 41.5z" />
<glyph unicode="W" d="M260 37v8l121 1073q-27 0 -44.5 18.5t-17.5 43.5q0 28 16 47t44 24h221q25 -3 41 -19t16 -42q0 -29 -16.5 -48.5t-42.5 -23.5h-94q-15 -143 -28.5 -261t-34 -290.5t-35 -277t-23.5 -139.5q18 71 87 223.5t148 316.5q14 27 40 44.5t53 17.5h30q26 0 44 -16.5t18 -43.5 q0 -152 -7.5 -307t-27.5 -235q12 40 63.5 182.5t97 262.5t102.5 267.5t99 255.5h-63q-25 3 -41 21t-16 41q0 28 16 47t45 24h221q24 -3 41 -20t17 -41q0 -28 -17.5 -48t-44.5 -24h-35l-415 -1073q-9 -26 -35 -43.5t-51 -17.5h-27q-27 0 -44 17t-17 44q1 61 5 215t9 238.5 t10 103.5q-18 -63 -254 -557q-13 -27 -38.5 -44t-53.5 -17h-27q-22 0 -38.5 14.5t-16.5 38.5z" />
<glyph unicode="X" d="M72 61q0 28 16.5 47.5t44.5 24.5h88l397 535l-126 450h-60q-25 3 -41 21t-16 41q0 28 16 47t45 24h273q23 -3 40 -20t17 -41q0 -28 -17.5 -48t-43.5 -24h-46l78 -278l205 278h-20q-26 3 -42 20t-16 42q0 28 16 47t44 24h272q26 -3 41.5 -19.5t15.5 -41.5 q0 -29 -16.5 -48.5t-42.5 -23.5h-88l-338 -450l150 -535h57q26 -3 41.5 -20.5t15.5 -40.5q0 -29 -16.5 -48.5t-42.5 -23.5h-273q-23 3 -40 21t-17 40q0 27 16 47.5t43 24.5h50l-97 379l-272 -379h23q23 -3 40 -21t17 -40q0 -28 -17.5 -48t-44.5 -24h-272q-25 3 -41 21 t-16 40z" />
<glyph unicode="Y" d="M336 1180q0 61 59 71h273q23 -3 40 -20t17 -41q0 -28 -17.5 -48t-43.5 -24h-52q88 -379 88 -454v-13q13 44 322 467h-21q-24 3 -40.5 20.5t-16.5 41.5q0 28 16 47t44 24h272q25 -3 41 -19t16 -42q0 -28 -16.5 -48t-44.5 -24h-86l-449 -618l-92 -367h62q25 -3 41 -20 t16 -41q0 -27 -16 -47.5t-43 -24.5h-304q-23 3 -40 21t-17 40q0 27 16 47.5t43 24.5h93l92 367l-139 618h-56q-26 3 -41.5 20.5t-15.5 41.5z" />
<glyph unicode="Z" d="M113 47q0 45 28 78l922 993h-510l-37 -149q-15 -37 -53 -43h-35q-26 3 -41.5 19.5t-15.5 41.5v12l53 211q15 35 53 41h752q21 0 34 -12.5t13 -34.5q0 -47 -31 -78l-919 -993h542l50 191q12 33 53 41h35q24 -3 40.5 -19.5t16.5 -42.5v-10l-64 -250q-15 -37 -53 -43h-786 q-19 0 -33 13t-14 34z" />
<glyph unicode="[" d="M424 -98l371 1478q12 35 53 41h426q26 -3 41.5 -19.5t15.5 -41.5q0 -29 -16.5 -48.5t-42.5 -23.5h-348l-332 -1325h317q26 -3 42 -20t16 -41q0 -27 -16 -47.5t-44 -24.5h-426q-24 3 -40.5 20.5t-16.5 40.5v11z" />
<glyph unicode="\" d="M457 1350q0 29 21 50t50 21q53 0 70 -53l332 -1450q2 -4 2 -16q0 -28 -21 -50t-51 -22q-51 0 -69 53l-332 1450q-2 4 -2 17z" />
<glyph unicode="]" d="M57 -109q0 27 17 47.5t43 24.5h348l330 1325h-316q-26 3 -41.5 20.5t-15.5 41.5q0 26 16 46.5t43 24.5h426q26 -3 42 -19t16 -42v-10l-371 -1479q-15 -35 -53 -41h-426q-26 3 -42 20t-16 41z" />
<glyph unicode="^" d="M461 1042q0 33 31 54l319 151q12 4 25 4q17 0 30 -8l240 -147q31 -22 31 -54q0 -30 -26 -57t-56 -27q-16 0 -31 9l-199 133l-264 -133q-23 -9 -31 -9q-32 0 -50.5 26t-18.5 58z" />
<glyph unicode="_" d="M84 -123q0 30 19.5 49.5t48.5 22.5h710q30 -3 49 -23t19 -49q0 -27 -19 -47t-49 -25h-710q-29 5 -48.5 24.5t-19.5 47.5z" />
<glyph unicode="`" d="M610 911q0 97 46.5 192t125 170t166.5 116q12 6 27 6q25 0 46 -22t21 -48q0 -32 -32 -53q-95 -41 -167.5 -123.5t-92.5 -183.5q2 1 4.5 1.5t7.5 0.5q28 0 50 -12t36 -33.5t14 -49.5q0 -47 -36.5 -82.5t-84.5 -35.5q-64 0 -97.5 46t-33.5 111z" />
<glyph unicode="a" d="M254 303q0 90 32.5 193t92.5 195t141.5 148t175.5 56q50 0 95 -20.5t75 -59.5q18 42 70 49q31 0 51.5 -17.5t24.5 -47.5q0 -8 -2 -21l-144 -569q-4 -20 -4 -33q0 -55 41 -55q43 0 86 188q11 39 53 45h39q24 -3 40 -20t16 -39q0 -6 -0.5 -10t-1.5 -9q-19 -72 -46 -136 t-73.5 -108t-114.5 -44q-54 0 -100.5 28t-69.5 76q-115 -104 -231 -104q-119 0 -182.5 96t-63.5 219zM403 299q0 -64 23.5 -121t77.5 -57q37 0 75.5 25t69.5 61t56 76q88 149 88 301q0 64 -23.5 121t-77.5 57q-57 0 -109.5 -49t-90.5 -113q-41 -68 -65 -147.5t-24 -153.5z " />
<glyph unicode="b" d="M260 1180q0 61 59 71h250q26 -3 42 -19t16 -42v-10l-90 -357q107 72 211 72q86 0 148 -47t94 -121.5t32 -159.5q0 -127 -63 -262.5t-172 -226t-238 -90.5q-128 0 -201.5 98t-73.5 229q0 71 19 142l166 661h-142q-24 3 -40.5 20.5t-16.5 41.5zM424 313q0 -73 31.5 -132.5 t97.5 -59.5q87 0 160 74.5t116 181.5t43 192q0 75 -30.5 134t-98.5 59q-65 0 -123.5 -44t-102 -114.5t-68.5 -150t-25 -140.5z" />
<glyph unicode="c" d="M276 336q0 133 73.5 263.5t196 213t257.5 82.5q97 0 171.5 -50.5t74.5 -144.5q0 -53 -29.5 -91t-81.5 -38q-35 0 -60.5 25.5t-25.5 58.5q0 47 33 78q-26 29 -86 29q-71 0 -141 -40t-121.5 -103.5t-81 -139.5t-29.5 -145q0 -91 49 -152t137 -61q120 0 206 16t149 74 q21 14 41 14q15 0 34 -11.5t31 -31.5t12 -37q0 -25 -20 -43q-86 -74 -193.5 -94t-265.5 -20q-96 0 -171.5 46t-117 126.5t-41.5 175.5z" />
<glyph unicode="d" d="M254 303q0 90 32.5 193t92.5 195t141.5 148t175.5 56q50 0 94.5 -20.5t75.5 -57.5l76 301h-117q-24 3 -40.5 20.5t-16.5 41.5q0 61 59 71h226q25 -3 41 -19t16 -42v-10l-244 -971q-4 -20 -4 -33q0 -55 41 -55q43 0 86 188q11 39 53 45h39q24 -3 40 -20t16 -39 q0 -6 -0.5 -10t-1.5 -9q-19 -72 -46 -136t-73.5 -108t-114.5 -44q-54 0 -100.5 28t-69.5 76q-115 -104 -231 -104q-119 0 -182.5 96t-63.5 219zM403 299q0 -64 23.5 -121t77.5 -57q37 0 75.5 25t69.5 61t56 76q88 149 88 301q0 64 -23.5 121t-77.5 57q-57 0 -109.5 -49 t-90.5 -113q-41 -68 -65 -147.5t-24 -153.5z" />
<glyph unicode="e" d="M279 338q0 134 72.5 264.5t193.5 211.5t258 81q104 0 181 -58t77 -159q0 -104 -73.5 -172.5t-178.5 -93.5q-86 -20 -164.5 -24.5t-200.5 -4.5h-14q-2 -14 -2 -45q0 -93 49 -155t135 -62q120 0 206 16t149 74q21 14 41 14q15 0 34 -11.5t31 -31.5t12 -37q0 -25 -20 -43 q-86 -74 -193.5 -94t-265.5 -20q-96 0 -171.5 47t-115.5 127.5t-40 175.5zM469 516q169 0 304.5 29.5t135.5 132.5q0 42 -33 63t-77 21q-103 0 -192 -72.5t-138 -173.5z" />
<glyph unicode="f" d="M94 -315q0 48 29 83t78 35q38 0 63 -24t25 -62q0 -16 -4 -24l-2 -10l-4 -11q21 -6 49 -6q44 0 80 71.5t63 178.5t41 188.5t27 165.5l84 480h-150q-25 3 -41 20t-16 41q0 27 16 47.5t43 24.5h170l19 102q16 96 39 153t76 91.5t147 34.5q93 0 167 -33.5t74 -118.5 q0 -48 -29.5 -83.5t-76.5 -35.5q-35 0 -61.5 24.5t-26.5 61.5q0 9 4 25q6 18 6 20q-27 6 -61 6q-36 0 -56 -13.5t-29.5 -34.5t-14.5 -50t-11 -67l-14 -82h190q26 -3 41.5 -20.5t15.5 -41.5q0 -61 -59 -71h-211l-88 -500q-23 -137 -39 -222t-37 -171q-38 -144 -94 -213 q-86 -111 -188 -111q-92 0 -163 35.5t-71 116.5z" />
<glyph unicode="g" d="M135 -330q0 45 32 78t77 33q36 0 61 -25t25 -61v-8q0 -7 -0.5 -10.5t-1.5 -6.5q32 -4 108 -4q91 0 172 55.5t103 141.5l51 209q-104 -72 -209 -72q-127 0 -202 97t-75 229q0 125 63.5 258.5t173 222t235.5 88.5q56 0 108.5 -24t87.5 -66q19 59 82 59q31 -3 49.5 -23.5 t18.5 -49.5l-2 -11l-236 -948q-22 -88 -86.5 -155.5t-154 -105.5t-179.5 -38q-127 0 -214 23.5t-87 113.5zM426 324q0 -75 31.5 -133t99.5 -58q83 0 156.5 72.5t117 177t43.5 188.5q0 42 -13.5 88t-43.5 74.5t-74 28.5q-84 0 -157.5 -72.5t-116.5 -177.5t-43 -188z" />
<glyph unicode="h" d="M176 63l2 9l262 1046h-116q-26 3 -42 20t-16 42q0 28 16 47t44 24h225q26 -3 41.5 -19.5t15.5 -41.5v-10l-90 -363q101 78 230 78q67 0 117 -27t78 -78t28 -118q0 -61 -21.5 -140.5t-52.5 -164.5q-5 -15 -35.5 -99.5t-30.5 -109.5q0 -37 23 -37q50 0 85 62t50 126 q12 39 53 45h39q26 -3 41 -19t15 -40q0 -10 -2 -16q-13 -55 -37.5 -104.5t-61 -92t-83.5 -68.5t-103 -26q-71 0 -119.5 51t-48.5 123q0 29 10.5 65.5t27 81t32.5 88.5q34 101 51.5 163t17.5 114q0 88 -78 88q-93 0 -163.5 -75.5t-120 -193t-84 -251.5t-49.5 -195 q-7 -27 -29.5 -43t-50.5 -16q-70 10 -70 75z" />
<glyph unicode="i" d="M289 588q0 10 2 16q31 118 121 204.5t204 86.5q83 0 144 -49.5t61 -130.5q0 -26 -16 -80l-176 -440q-4 -18 -4 -25q0 -32 32 -45q7 -4 25 -4q43 0 80 29.5t61.5 72t36.5 86.5q11 39 53 45h39q24 -3 40 -20t16 -39q0 -10 -2 -16q-19 -74 -67 -141.5t-116 -108.5t-145 -41 q-82 0 -142.5 50t-60.5 130q0 38 17 80l174 440q6 12 6 25q0 30 -33 45q-6 4 -25 4q-63 0 -111.5 -59.5t-66.5 -129.5q-12 -39 -53 -45h-39q-24 3 -39.5 20.5t-15.5 39.5zM731 1149q0 42 32 73t73 31q37 0 62.5 -25.5t25.5 -60.5q0 -41 -31.5 -72.5t-73.5 -31.5 q-35 0 -61.5 25.5t-26.5 60.5z" />
<glyph unicode="j" d="M186 -330q0 44 32.5 77.5t76.5 33.5q36 0 61 -25t25 -61q0 -6 -1.5 -15t-2.5 -14h12q93 0 167 80.5t97 175.5l187 752q4 16 4 26q0 28 -21 45t-51 17q-73 0 -133 -57.5t-92 -137.5q-15 -32 -51 -39h-39q-23 3 -39.5 20.5t-16.5 39.5q0 14 5 22q48 119 149 202t221 83 q57 0 106.5 -23.5t80 -68t30.5 -103.5q0 -23 -6 -49l-188 -760q-24 -91 -84.5 -174t-146 -133.5t-181.5 -50.5q-79 0 -140 32.5t-61 104.5zM922 1149q0 42 32 73t72 31q37 0 62.5 -25.5t25.5 -60.5q0 -40 -31 -72t-73 -32q-35 0 -61.5 25.5t-26.5 60.5z" />
<glyph unicode="k" d="M195 63l2 9l262 1046h-142q-24 3 -40.5 20.5t-16.5 41.5q0 61 59 71h250q26 -3 42 -19t16 -42v-10l-158 -633q61 33 158.5 137t169.5 157.5t176 53.5q65 0 99 -46.5t34 -113.5q0 -75 -26 -132.5t-93 -57.5q-35 0 -61.5 24.5t-26.5 61.5q0 30 16.5 55t42.5 39q3 10 3 29v8 q-52 0 -112.5 -45t-143.5 -129.5t-99 -98.5q92 -24 150.5 -77t58.5 -140q0 -29 -6 -59q-4 -16 -4 -29q0 -27 18 -45t45 -18q71 0 121 188q12 39 53 45h39q26 -3 41 -19t15 -40q0 -10 -2 -16q-29 -114 -97.5 -202.5t-171.5 -88.5q-88 0 -149.5 54.5t-61.5 141.5q0 28 7 52 q4 20 4 32q0 39 -42 64.5t-99 37t-99 11.5l-84 -338q-19 -55 -78 -55q-69 10 -69 75z" />
<glyph unicode="l" d="M397 1180q0 28 16 47t44 24h321q26 -3 42 -19t16 -42v-10l-244 -971q0 -6 -0.5 -10.5t-1.5 -10.5q0 -35 38 -51t77 -16q79 0 133 186q12 41 53 47h39q25 -3 40 -19t15 -40q0 -6 -0.5 -10t-1.5 -9q-18 -71 -56.5 -137.5t-95.5 -108.5t-129 -42q-100 0 -181 51t-81 147 q0 17 4 45l224 887h-213q-26 3 -42 20t-16 42z" />
<glyph unicode="m" d="M102 49q0 31 48 197t69 225l92 369q12 37 54 43h12q22 -3 36 -17t17 -37q39 31 84 48.5t94 17.5q38 0 70.5 -14.5t56 -42t33.5 -64.5q47 55 108 88t125 33q84 0 128.5 -58.5t44.5 -144.5q0 -61 -18 -128.5t-53.5 -166t-48 -139t-12.5 -88.5q0 -37 19 -37q23 -3 39 -19 t16 -40q0 -32 -18.5 -53t-48.5 -21q-63 0 -97 46.5t-34 113.5q0 55 16.5 113.5t48 145.5t49 148t17.5 119q0 76 -52 76q-66 0 -126 -86t-104 -206.5t-77 -249t-47 -185.5q-14 -39 -53 -45h-39q-23 3 -39 19t-16 40q0 25 21.5 105t46.5 164t48 153l29 115q14 56 14 100 q0 76 -51 76q-66 0 -126 -86t-104 -206.5t-77 -249t-47 -185.5q-14 -39 -53 -45h-39q-22 3 -39 19t-17 40z" />
<glyph unicode="n" d="M160 588q0 50 42 145t79 123q47 39 104 39q54 0 98.5 -30t61.5 -79q111 109 248 109q94 0 148 -60t54 -157q0 -67 -22.5 -151t-61.5 -195q-3 -10 -20.5 -59t-25 -75t-7.5 -48q0 -29 6 -29q79 0 125 188q12 39 53 45h39q26 -3 41 -19t15 -40q0 -10 -2 -16 q-29 -114 -97.5 -202.5t-173.5 -88.5q-69 0 -112 49.5t-43 120.5q0 29 8.5 63t23 72.5t25.5 68.5q21 62 38 115t30.5 109t13.5 96q0 80 -60 80q-81 0 -146 -79t-111.5 -194.5t-66.5 -191.5t-63 -250q-19 -59 -82 -59q-30 3 -48.5 22.5t-18.5 50.5l2 11l149 602q7 17 7 41 q0 47 -29 47q-16 0 -39.5 -71t-34.5 -118q-13 -39 -53 -45h-39q-23 3 -39 20t-16 40z" />
<glyph unicode="o" d="M256 324q0 128 66.5 262t180.5 221.5t245 87.5q135 0 212.5 -99t77.5 -237q0 -127 -66 -261t-180 -222t-243 -88q-89 0 -156.5 46.5t-102 124.5t-34.5 165zM406 319q0 -50 15 -94.5t48 -74t84 -29.5q89 0 167 72t124.5 176t46.5 194q0 46 -16 93.5t-49 76.5t-83 29 q-67 0 -128.5 -42t-108.5 -110t-73.5 -145.5t-26.5 -145.5z" />
<glyph unicode="p" d="M20 -393q0 28 16 47t44 24h100l248 996q6 15 6 33q0 55 -43 55q-41 0 -84 -189q-12 -39 -53 -45h-39q-24 3 -39.5 20.5t-15.5 39.5q0 12 2 18q69 289 233 289q55 0 102 -27.5t68 -76.5q117 104 232 104q62 0 108 -26.5t77 -73.5t45.5 -102.5t14.5 -112.5 q0 -90 -32 -191.5t-93 -194.5t-143.5 -149.5t-173.5 -56.5q-106 0 -170 78l-96 -388h117q23 -3 40 -20t17 -41q0 -28 -17.5 -48t-44.5 -24h-368q-26 3 -42 20t-16 42zM504 299q0 -63 23 -120.5t77 -57.5q37 0 75.5 25t69.5 61t56 76q88 149 88 301q0 64 -22.5 121t-77.5 57 q-57 0 -108.5 -48t-92.5 -114q-88 -149 -88 -301z" />
<glyph unicode="q" d="M274 315q0 127 63 262.5t173.5 226.5t237.5 91q61 0 115.5 -27.5t90.5 -76.5q7 17 19 44t28.5 43.5t40.5 16.5q26 0 44 -18t18 -43q0 -7 -2 -11l-285 -1145h139q26 -3 42 -19t16 -42q0 -27 -16 -47.5t-44 -24.5h-465q-24 3 -40.5 20.5t-16.5 41.5q0 28 16 47t44 24h172 l94 381q-104 -71 -209 -71q-128 0 -201.5 98t-73.5 229zM424 313q0 -73 31.5 -132.5t97.5 -59.5q87 0 160 74.5t116 181.5t43 192q0 75 -30.5 134t-98.5 59q-65 0 -123.5 -44t-102 -114.5t-68.5 -150t-25 -140.5z" />
<glyph unicode="r" d="M188 588q0 10 2 16q32 121 89.5 206t158.5 85q62 0 115 -30t76 -85q110 115 258 115q114 0 205.5 -53.5t91.5 -161.5q0 -57 -28 -96t-83 -39q-35 0 -61.5 24.5t-26.5 61.5q0 47 39 80q-39 51 -141 51q-84 0 -151 -78t-114 -193.5t-81 -246.5t-50 -197q-15 -52 -73 -59 q-30 0 -50.5 17.5t-25.5 47.5q0 8 2 21l149 600q5 13 5 28q0 28 -16 44t-44 16q-35 0 -59 -59t-39 -130q-12 -38 -53 -45h-39q-23 3 -39.5 20.5t-16.5 39.5z" />
<glyph unicode="s" d="M203 186q0 52 29 90.5t79 38.5q36 0 62 -24t26 -60q0 -19 -8 -39t-22 -34q52 -37 184 -37q65 0 135 16.5t121 56t51 103.5q0 42 -45 65t-94 31l-139 25q-83 15 -145 68.5t-62 134.5q0 69 33 122t88.5 86.5t121.5 49.5t130 16q68 0 132.5 -15t110 -54t45.5 -107 q0 -49 -27.5 -85t-74.5 -36q-33 0 -58.5 24t-25.5 58q0 30 20 57q-46 25 -127 25q-181 0 -229 -109q0 -90 96 -104l138 -25q100 -19 172.5 -76t72.5 -151q0 -73 -42.5 -136t-106.5 -104q-115 -69 -293 -69q-80 0 -158 15t-134 59.5t-56 123.5z" />
<glyph unicode="t" d="M319 811q0 27 17 47.5t43 24.5h213l80 321q9 28 31 44t51 16q30 -3 47.5 -22.5t17.5 -51.5v-10l-74 -297h181q25 -3 41 -20t16 -42q0 -61 -59 -71h-213l-136 -541q-2 -8 -2 -27q0 -29 21 -45t49 -16q74 0 135.5 59t91.5 135q13 32 52 39h39q25 -3 40 -19t15 -40 q0 -5 -4 -23q-48 -117 -149.5 -200.5t-221.5 -83.5q-58 0 -108 24t-79.5 68t-29.5 102q0 33 4 49l131 519h-182q-26 3 -42 19t-16 42z" />
<glyph unicode="u" d="M160 588q0 10 2 16q18 72 55 138t93.5 109.5t127.5 43.5q46 0 83.5 -22.5t58 -61.5t20.5 -86q0 -39 -17 -96t-47.5 -137t-47.5 -142.5t-17 -118.5q0 -110 82 -110q99 0 156 119.5t94 277.5l78 307q16 51 71 58q20 0 36 -8t26.5 -23.5t13.5 -34.5q0 -8 -2 -20l-147 -588 q-5 -30 -5 -37q0 -51 35 -51q32 0 78 180q10 47 55 53h39q24 -3 40 -20t16 -39q0 -6 -0.5 -9t-1.5 -7q-29 -122 -81 -206.5t-149 -84.5q-104 0 -153 86q-89 -86 -203 -86q-107 0 -167 69t-60 179q0 46 9 91.5t22 88.5l26 86q4 14 25.5 72t34 96.5t12.5 58.5q0 33 -13 33 q-50 0 -81 -57t-50 -132q-12 -39 -53 -45h-39q-24 3 -39.5 20.5t-15.5 39.5z" />
<glyph unicode="v" d="M160 588q0 10 2 16q19 74 61 140t105.5 108.5t136.5 42.5q51 0 92 -23t66.5 -63.5t25.5 -89.5q0 -36 -17 -88.5t-48 -129.5t-47.5 -135t-16.5 -110q0 -135 146 -135q50 0 90.5 42t71.5 108t48 125t33 122q37 132 37 211q0 23 -7 53.5t-7 38.5q3 32 27 53t57 21 q82 -9 82 -162q0 -59 -15 -136t-40 -159.5t-48 -136.5q-52 -130 -133.5 -221.5t-197.5 -91.5q-85 0 -151.5 31t-103 91.5t-36.5 147.5q0 84 43 215q5 15 29.5 78.5t39.5 107t15 60.5q0 43 -39 43q-38 0 -69.5 -31.5t-52.5 -72.5t-32 -85q-13 -39 -53 -45h-39q-23 3 -39 20 t-16 40z" />
<glyph unicode="w" d="M193 244q0 60 13.5 111t43 128t44.5 123.5t15 85.5q0 58 -37 58q-23 3 -39 19t-16 40q0 32 18.5 53t49.5 21q71 0 110 -53t39 -128q0 -53 -14 -100t-45 -125.5t-44.5 -124.5t-13.5 -100q0 -131 129 -131q53 0 94.5 73t65 154.5t43.5 169.5l80 320q15 39 57 45 q26 0 43.5 -16t20.5 -42v-14l-115 -455q-14 -59 -14 -110q0 -125 115 -125q61 0 114 113t86 255t33 205q0 37 -11.5 68t-15.5 51q0 34 21.5 55.5t54.5 26.5q88 0 88 -143q0 -79 -35 -228.5t-69 -244.5q-40 -121 -102.5 -206t-163.5 -85q-142 0 -207 110q-75 -110 -185 -110 q-116 0 -183.5 69.5t-67.5 186.5z" />
<glyph unicode="x" d="M160 588q0 10 2 16q19 77 73 144.5t130.5 107t156.5 39.5q54 0 106 -22t85 -62q91 84 209 84q87 0 145.5 -59.5t58.5 -147.5q0 -57 -26.5 -100t-83.5 -43q-35 0 -61.5 24.5t-26.5 61.5q0 49 47 86q-14 45 -57 45q-47 0 -87.5 -34t-54.5 -81l-92 -364q-6 -25 -6 -52 q0 -46 28 -78t72 -32q74 0 133.5 57t77.5 131q11 39 53 45h39q24 -3 40 -20t16 -39q0 -10 -2 -16q-21 -79 -75.5 -146t-130 -106t-155.5 -39q-119 0 -190 84q-43 -40 -97 -62t-112 -22q-89 0 -147 59t-58 148q0 58 27 100.5t84 42.5q36 0 61 -25t25 -61q0 -48 -45 -86 q13 -45 57 -45q46 0 86.5 34t54.5 81l90 364q8 32 8 51q0 48 -27.5 79.5t-72.5 31.5q-73 0 -132.5 -57t-78.5 -132q-12 -39 -53 -45h-39q-24 3 -39.5 20.5t-15.5 39.5z" />
<glyph unicode="y" d="M160 588q0 10 2 16q29 114 107 202.5t186 88.5q50 0 89 -23t62 -63t23 -90q0 -37 -16.5 -88.5t-47.5 -131.5t-48 -141.5t-17 -115.5q0 -121 106 -121q108 0 175 125.5t102 271.5l78 307q16 52 71 58q20 0 36 -8t26.5 -23.5t13.5 -34.5q0 -8 -2 -20l-203 -813 q-28 -110 -94.5 -214t-162.5 -170.5t-210 -66.5q-88 0 -151.5 55.5t-63.5 143.5q0 37 11.5 67t35.5 49t62 19q36 0 62 -23.5t26 -60.5q0 -51 -41 -82q17 -35 63 -35q82 0 149 59t109.5 143t63.5 167q-76 -47 -160 -47q-117 0 -184.5 70t-67.5 188q0 90 51 237q6 18 26 72 t36 102.5t16 65.5q0 39 -28 39q-52 0 -88 -59t-56 -130q-12 -39 -53 -45h-39q-24 3 -39.5 20.5t-15.5 39.5z" />
<glyph unicode="z" d="M195 47q0 18 10 35q65 107 151 194.5t227.5 209.5t211.5 194q-13 5 -72 35t-96 30q-48 0 -87.5 -40.5t-52.5 -90.5q-12 -39 -53 -45h-39q-23 3 -39 20t-16 40q0 10 2 16q16 63 59.5 121.5t105 93.5t128.5 35q40 0 73 -13.5t76.5 -41t67.5 -37.5q29 0 42 10t27.5 32 t27.5 34.5t40 15.5h39q23 -3 39 -19t16 -40q0 -18 -10 -35q-60 -100 -147 -189.5t-222 -205.5t-206 -187q41 -6 118 -44t109 -38q74 0 135.5 66.5t81.5 144.5q12 39 53 45h39q25 -5 40.5 -20.5t15.5 -38.5q0 -2 -1 -7l-2 -10q-21 -81 -75 -158.5t-131 -124t-164 -46.5 q-40 0 -69 12t-67 36t-64.5 38t-53.5 14q-47 0 -70 -16t-53 -48t-51 -36h-39q-23 3 -39 19t-16 40z" />
<glyph unicode="{" d="M268 618q0 29 15.5 49t42.5 25q75 0 142.5 9.5t125.5 41t76 88.5l90 365q65 225 465 225h22q26 -3 41 -19t15 -40q0 -28 -15.5 -49t-42.5 -25q-128 0 -222.5 -22.5t-117.5 -100.5l-90 -364q-19 -62 -61.5 -108.5t-104.5 -74.5q78 -56 78 -143q0 -28 -6 -49l-92 -365 q0 -47 20 -61q48 -25 102 -31t132 -6q25 -3 40 -19t15 -40q0 -28 -14.5 -49t-42.5 -25h-23q-383 0 -383 205q0 25 6 49l92 365q5 20 5 24q0 37 -47 56.5t-100.5 24.5t-106.5 5q-22 3 -39 19t-17 40z" />
<glyph unicode="|" d="M442 -98q0 12 2 16l363 1450q17 53 70 53q29 0 50 -21t21 -50q0 -7 -0.5 -10t-1.5 -7l-362 -1450q-19 -53 -70 -53q-28 0 -50 22t-22 50z" />
<glyph unicode="}" d="M86 -111q0 29 14.5 49t42.5 25q124 0 220 22.5t120 102.5l90 365q37 123 166 180q-77 57 -77 143q0 27 6 51l92 365q0 24 -4 37t-19 22q-65 37 -231 37q-23 3 -39 20t-16 40q0 28 14.5 48t42.5 25h22q153 0 267 -41t114 -163q0 -18 -4 -48l-92 -364q-4 -20 -4 -27 q0 -52 83.5 -69t170.5 -17q25 -3 40 -19t15 -40q0 -28 -14.5 -49t-42.5 -25q-303 0 -344 -137l-90 -365q-66 -227 -465 -227h-23q-23 3 -39 19t-16 40z" />
<glyph unicode="~" d="M444 1067q0 31 56.5 74.5t129.5 76.5t109 33q52 0 92 -34q8 -5 37.5 -40.5t32.5 -35.5q2 0 3.5 -0.5t2.5 -1.5q33 0 58 15.5t83 56t78 40.5q27 0 46.5 -20.5t19.5 -48.5q0 -32 -55.5 -75.5t-128 -76.5t-109.5 -33q-48 0 -94 35q-7 5 -36 40.5t-32 35.5q-2 1 -4 1.5 t-4 0.5q-32 0 -57 -15.5t-82.5 -56.5t-77.5 -41q-27 0 -47.5 21.5t-20.5 48.5z" />
<glyph unicode="&#xa0;" />
<glyph unicode="&#xa1;" d="M76 61q0 27 17 47.5t42 24.5h115l248 985h-84q-26 3 -42 20t-16 42q0 28 16 47t44 24h825q26 -3 41.5 -19.5t15.5 -41.5v-10l-53 -211q-15 -37 -53 -43h-35q-26 3 -41.5 19.5t-15.5 41.5v12l30 119h-481l-246 -985h123q26 -3 42 -20t16 -41q0 -27 -16 -47.5t-44 -24.5 h-391q-25 3 -41 21t-16 40z" />
<glyph unicode="&#xa2;" d="M80 37q0 8 8 24l639 1153q17 27 43 44.5t55 17.5h62q27 0 47 -17.5t20 -44.5l64 -1153q0 -24 -18.5 -42.5t-43.5 -18.5h-837q-39 0 -39 37zM291 145h567q-6 115 -13.5 245t-14 266.5t-12 260t-5.5 160.5v25q-9 -35 -522 -957z" />
<glyph unicode="&#xa3;" d="M188 172q0 80 18 168t64 287q40 156 64.5 239.5t61 169.5t79.5 135q64 68 154 85.5t227 17.5q108 0 176.5 -9.5t118 -52.5t49.5 -133q0 -79 -23 -193.5t-61 -258.5q-48 -195 -94.5 -337t-108.5 -210q-65 -68 -154 -85.5t-227 -17.5q-164 0 -254 33.5t-90 161.5zM350 246 q0 -88 55.5 -111.5t159.5 -23.5q84 0 148 16t102 66q44 54 80 168.5t72 265.5q10 40 29.5 121t30.5 149t11 109q0 62 -29.5 91.5t-72.5 36.5t-113 7q-88 0 -149 -15t-103 -67q-21 -28 -41.5 -74.5t-41 -111t-37 -126t-31.5 -120.5q-70 -278 -70 -381zM481 551q0 6 2 12 l39 158q16 35 56 41h34q26 -3 42 -20t16 -44h84q16 57 61 64h35q25 -3 41 -20t16 -42q0 -6 -2 -10l-39 -158q-15 -36 -55 -43h-35q-26 5 -41.5 22t-15.5 42h-86q-13 -56 -60 -64h-34q-24 5 -41 22t-17 40z" />
<glyph unicode="&#xa4;" d="M76 61q0 27 16 47.5t43 24.5h76l518 1081q12 27 38.5 44.5t53.5 17.5h70q27 0 45 -17t18 -45l-22 -1081h43q26 -3 41.5 -20.5t15.5 -40.5q0 -29 -16.5 -48.5t-42.5 -23.5h-283q-25 3 -41 21t-16 40q0 27 16 47.5t43 24.5h86q2 127 8 380t13 405.5t14 183.5 q-5 -20 -55 -133t-116 -254t-132 -279.5t-145 -302.5h53q26 -3 41.5 -20.5t15.5 -40.5q0 -29 -16.5 -48.5t-42.5 -23.5h-283q-25 3 -41 21t-16 40z" />
<glyph unicode="&#xa5;" d="M84 61v13l27 108q15 35 55 41h35q23 -3 40 -20t17 -41q0 -11 -8 -35h639l12 55q15 35 55 41h35q24 -3 41 -20t17 -41q0 -6 -2 -10l-27 -109q-15 -37 -53 -43h-826q-24 3 -40.5 20.5t-16.5 40.5zM350 1100q0 6 2 12l25 98q15 35 53 41h809q26 -3 41.5 -19.5t15.5 -41.5 v-10l-24 -99q-15 -37 -55 -43h-35q-24 3 -41 21t-17 41q0 8 4 24h-620q-10 -46 -20.5 -62.5t-45.5 -23.5h-34q-24 3 -41 21t-17 41zM367 578q0 6 2 10l39 157q15 38 55 41h35q24 -3 40.5 -19.5t16.5 -41.5q0 -3 -0.5 -5.5t-1.5 -4.5h326q8 34 20 50.5t43 20.5h35 q26 -3 41.5 -18.5t15.5 -42.5q0 -6 -2 -10l-39 -158q-15 -38 -55 -41h-35q-24 3 -40.5 20.5t-16.5 41.5q1 3 1.5 5.5t0.5 4.5h-326q-10 -37 -21 -52.5t-42 -19.5h-35q-24 3 -40.5 20.5t-16.5 41.5z" />
<glyph unicode="&#xa6;" d="M55 61q0 27 17 47.5t43 24.5h90l248 985h-60q-26 3 -41.5 20.5t-15.5 41.5q0 61 59 71h881q25 -3 41 -19t16 -42q0 -28 -16.5 -48t-44.5 -24h-90l-246 -985h59q26 -3 42 -20t16 -41q0 -27 -16 -47.5t-44 -24.5h-303q-25 3 -41 21t-16 40q0 27 16 47.5t43 24.5h90l248 985 h-426l-246 -985h60q26 -3 41.5 -20.5t15.5 -40.5q0 -29 -16.5 -48.5t-42.5 -23.5h-303q-24 3 -41 21t-17 40z" />
<glyph unicode="&#xa7;" d="M98 61q0 25 13 37l450 541l-180 522q-4 12 -4 19q0 61 59 71h797q26 -3 41.5 -19.5t15.5 -41.5v-10l-53 -211q-15 -37 -53 -43h-35q-26 3 -41.5 19.5t-15.5 41.5v12l30 119h-567l166 -473q1 -4 1.5 -8t0.5 -10q0 -25 -12 -37l-377 -453h543l36 152q18 35 56 41h35 q23 -3 40 -21t17 -41q0 -6 -2 -10l-53 -215q-16 -37 -54 -43h-796q-26 3 -42 20t-16 41z" />
<glyph unicode="&#xa8;" d="M324 61q0 27 16 47.5t43 24.5h111l129 512q0 4 4 8q65 266 65 373q0 135 -84 135q-87 0 -131 -160q-6 -26 -27.5 -43.5t-48.5 -17.5h-26q-20 0 -34.5 13.5t-14.5 33.5q0 40 34.5 99t69.5 94q44 44 97 69t108 25q153 0 153 -205q0 -41 -6 -88q31 78 69.5 142t95.5 107.5 t130 43.5q84 0 132 -57.5t48 -141.5q0 -55 -18.5 -95t-67.5 -40h-26q-20 0 -34.5 13.5t-14.5 33.5q1 3 1.5 6t0.5 8q10 45 10 78q0 82 -59 82q-58 0 -105.5 -61t-79.5 -144t-59 -186.5t-37 -142.5v-13l-121 -481h82q25 -3 41 -20t16 -41q0 -28 -16.5 -48t-44.5 -24h-344 q-26 3 -41.5 20.5t-15.5 40.5z" />
<glyph unicode="&#xa9;" d="M231 575q0 96 75 173t183 122.5t203 55.5l49 192h-94q-25 3 -41 21t-16 41q0 28 16 47t45 24h369q26 -3 41.5 -19.5t15.5 -41.5q0 -29 -16.5 -48.5t-42.5 -23.5h-125l-47 -192q118 -12 213.5 -77t95.5 -173q0 -97 -74.5 -173.5t-183 -121.5t-201.5 -55l-49 -193h92 q26 -3 42 -20t16 -41q0 -27 -16 -47.5t-44 -24.5h-368q-26 3 -42 20t-16 41q0 27 17 47.5t43 24.5h123l49 193q-77 9 -147.5 39t-117.5 83.5t-47 126.5zM385 602q0 -60 59 -95.5t131 -47.5l84 334q-93 -14 -183.5 -63t-90.5 -128zM729 459q60 10 122 33t107.5 63.5 t45.5 93.5q0 60 -60.5 96t-130.5 48z" />
<glyph unicode="&#xaa;" d="M307 913q0 27 17 47.5t43 24.5h34q51 0 80 -37.5t29 -91.5q0 -47 -18.5 -117.5t-18.5 -124.5q0 -123 102 -153l166 657h-82q-23 3 -40 21t-17 41q0 28 16 47t44 24h346q25 -3 41 -19t16 -42q0 -27 -16 -47.5t-43 -24.5h-113l-162 -647q62 22 108 67t77 108t45 124 q54 215 176 215h34q24 -3 41 -21t17 -40q0 -28 -16.5 -48t-43.5 -24q-32 0 -65 -121q-39 -161 -145 -272.5t-263 -132.5l-49 -193h82q25 -3 41 -20t16 -41q0 -28 -16.5 -48t-44.5 -24h-344q-26 3 -41.5 20.5t-15.5 40.5q0 27 16 47.5t43 24.5h111l51 199q-109 25 -164 99 t-55 185q0 75 18 146q14 61 14 82q0 6 -2 8q-20 6 -34.5 22.5t-14.5 38.5z" />
<glyph unicode="&#xad;" d="M82 61v13l29 114q16 41 59 41q25 0 43 -18t18 -43q0 -11 -8 -35h119q2 23 2 64q0 68 -17.5 159.5t-35 182.5t-17.5 159q0 115 44.5 220.5t122.5 185t181.5 125t219.5 45.5q102 0 186.5 -44t134 -125t49.5 -183q0 -126 -61 -238.5t-182.5 -284t-163.5 -266.5h113l14 55 q16 41 59 41q25 0 43.5 -17.5t18.5 -43.5q0 -6 -2 -10l-29 -115q-15 -37 -53 -43h-267q-24 3 -40.5 20.5t-16.5 40.5q0 13 2 21q24 93 69.5 172t151 240t150.5 253t45 177q0 97 -63 157t-162 60q-116 0 -211.5 -64t-150 -168t-54.5 -221q0 -80 28.5 -236.5t28.5 -242.5 q0 -81 -18 -158q-9 -44 -55 -51h-267q-26 3 -41.5 20.5t-15.5 40.5z" />
<glyph unicode="&#xae;" d="M338 879q0 66 55 82q119 19 221 90t172 176q16 24 50 24q22 0 38.5 -14.5t22.5 -34.5q13 -96 76.5 -160t159.5 -81q22 -6 36.5 -23t14.5 -39q0 -31 -18 -56.5t-50 -25.5q-58 0 -137 44t-127 97l-227 -905q-20 -53 -74 -53q-31 3 -48.5 22.5t-17.5 51.5v8l215 856 q-64 -43 -154.5 -82t-146.5 -39q-24 0 -42.5 18.5t-18.5 43.5z" />
<glyph unicode="&#xaf;" d="M207 352q0 30 17.5 56t47.5 26q63 0 142.5 -44.5t124.5 -96.5l227 907q19 51 74 51q30 -3 47.5 -22t17.5 -51v-9l-215 -856q32 22 90 52t113.5 49.5t95.5 19.5q26 0 44 -18t18 -43q0 -68 -56 -82q-57 -9 -113 -32t-108.5 -60t-95 -81t-74.5 -93q-18 -25 -49 -25 q-46 0 -61 51q-13 94 -78 159t-160 81q-23 6 -36 22.5t-13 38.5z" />
<glyph unicode="&#xb0;" d="M653 733q0 4 2 10l82 445q11 39 38 62.5t67 23.5q37 0 62.5 -24.5t25.5 -61.5q0 -9 -4 -29l-142 -446q-14 -35 -55 -41h-18q-24 3 -41 19.5t-17 41.5z" />
<glyph unicode="&#xb1;" d="M338 -383q0 14 2 23l205 733q12 37 53 43h59q24 -3 40 -19t16 -41v-10l-162 -729q-9 -41 -42 -67.5t-75 -26.5q-39 0 -67.5 27.5t-28.5 66.5zM604 680q0 46 35.5 81.5t83.5 35.5q40 0 68 -29t28 -68q0 -45 -36.5 -80.5t-82.5 -35.5q-38 0 -67 29t-29 67z" />
<glyph unicode="&#xb2;" d="M125 -231q0 86 54 156.5t138 117.5l281 154q16 10 20.5 39.5t4.5 46.5q-64 0 -88 -19.5t-49 -58t-52 -41.5h-39q-23 3 -39 19t-16 40q0 86 96 139.5t191 53.5q65 0 108 -45t43 -109q0 -39 -15 -75t-40 -65t-61 -52l-287 -158q-46 -25 -78.5 -62.5t-32.5 -80.5 q0 -58 55 -85.5t117 -27.5q84 0 164 27t129 84q0 2 -5 18t-5 25q0 43 31.5 73.5t74.5 30.5q37 0 62.5 -24.5t25.5 -61.5q0 -7 -4 -25q-24 -94 -100 -157.5t-177 -93t-198 -29.5q-121 0 -215 66t-94 180zM604 680q0 46 35.5 81.5t83.5 35.5q40 0 68 -29t28 -68 q0 -45 -36.5 -80.5t-82.5 -35.5q-38 0 -67 29t-29 67z" />
<glyph unicode="&#xb3;" d="M289 588q0 10 2 16q31 118 121 204.5t204 86.5q83 0 144 -49.5t61 -130.5q0 -26 -16 -80l-176 -440q-4 -18 -4 -25q0 -32 32 -45q7 -4 25 -4q43 0 80 29.5t61.5 72t36.5 86.5q11 39 53 45h39q24 -3 40 -20t16 -39q0 -10 -2 -16q-19 -74 -67 -141.5t-116 -108.5t-145 -41 q-82 0 -142.5 50t-60.5 130q0 38 17 80l174 440q6 12 6 25q0 30 -33 45q-6 4 -25 4q-63 0 -111.5 -59.5t-66.5 -129.5q-12 -39 -53 -45h-39q-24 3 -39.5 20.5t-15.5 39.5z" />
<glyph unicode="&#xb4;" d="M186 -330q0 45 32 78t77 33q36 0 61 -25t25 -61v-17q-1 -3 -2 -5.5t-2 -4.5q10 -2 33 -2q85 0 152.5 81t90.5 175l187 752q4 16 4 26q0 28 -21 45t-51 17q-73 0 -133 -57.5t-92 -137.5q-15 -32 -51 -39h-39q-23 3 -39.5 20.5t-16.5 39.5q0 14 5 22q48 119 149 202t221 83 q57 0 106.5 -23.5t80 -68t30.5 -103.5q0 -23 -6 -49l-188 -760q-24 -92 -80.5 -174t-138.5 -133t-174 -51q-57 0 -105 11t-81.5 41t-33.5 85z" />
<glyph unicode="&#xb5;" d="M532 1178q6 34 28 53.5t56 19.5q13 0 25 -6l268 -121q37 -21 37 -57q0 -31 -24 -58.5t-54 -27.5q-12 0 -24 4l-269 123q-43 23 -43 70z" />
<glyph unicode="&#xb6;" d="M664 1067q0 37 36 57l334 123q20 4 29 4q67 -10 67 -75q-6 -48 -47 -68l-335 -125q-7 0 -10.5 -0.5t-8.5 -1.5q-34 0 -49.5 26t-15.5 60z" />
<glyph unicode="&#xb8;" d="M467 1176q0 29 15 49.5t44 25.5h19q26 -3 41.5 -19.5t15.5 -41.5q0 -23 209 -23h8q185 0 242 29q3 2 16.5 26t46.5 29h19q26 -3 41.5 -19.5t15.5 -41.5q0 -33 -33 -78q-54 -56 -142.5 -70t-213.5 -14q-142 0 -243 25.5t-101 122.5z" />
<glyph unicode="&#xb9;" d="M426 1106q0 29 16.5 50.5t44.5 25.5h662q25 -3 41 -20t16 -42q0 -65 -61 -76h-662q-24 4 -40.5 21t-16.5 41z" />
<glyph unicode="&#xba;" d="M666 1120q0 64 61 106t127 42q49 0 88 -26t39 -73q0 -65 -61 -106t-127 -41q-50 0 -88.5 26t-38.5 72zM745 1135q0 -24 20 -37t44 -13q32 0 62 20t30 50q0 24 -18.5 36.5t-42.5 12.5q-33 0 -64 -19.5t-31 -49.5z" />
<glyph unicode="&#xbb;" d="M238 -365q0 30 15.5 49.5t43.5 22.5q95 0 154.5 3t126.5 18q0 137 -9 137q-24 3 -40.5 20.5t-16.5 40.5v11l31 122q15 35 55 41h35q25 -3 41 -19t16 -42q0 -11 -12 -53q65 -16 109 -61t44 -109q0 -110 -87.5 -163.5t-196.5 -66t-244 -12.5q-26 0 -45.5 18.5t-19.5 42.5z " />
<glyph unicode="&#xbc;" d="M72 -324q0 51 30 89t78 38q58 0 80 -49q31 110 67.5 259t57.5 257l96 480h-100q-26 3 -41.5 19.5t-15.5 41.5q0 27 16 47.5t43 24.5h125l20 102q21 109 60.5 169.5t106.5 85t177 24.5q100 0 179 -40t79 -130q0 -42 -22.5 -119t-53 -146t-59.5 -98q-35 -32 -73.5 -69 t-38.5 -74t45 -98.5t65.5 -95t20.5 -99.5q0 -108 -79 -207.5t-183 -99.5q-73 0 -126 44t-53 115q0 47 26 81t71 34q33 0 57.5 -22.5t24.5 -57.5q0 -25 -19 -55q0 -6 21 -6q26 0 52 29.5t42 72t16 66.5q0 36 -45 97.5t-65.5 95t-20.5 100.5q0 38 8 67q16 44 37.5 69.5t63 65 t59.5 66.5q19 32 49.5 122.5t30.5 119.5q0 22 -39 30t-78 8q-73 0 -108 -13t-49.5 -43.5t-30.5 -108.5l-144 -715q-42 -221 -79 -371q-19 -80 -42 -147.5t-64 -122t-107 -72.5q-22 -4 -33 -4q-58 0 -96.5 42.5t-38.5 100.5z" />
<glyph unicode="&#xbd;" d="M117 227q0 69 30.5 146t78 145t100.5 121q58 56 118.5 101.5t128.5 83.5t142 67q15 6 28 6q29 0 48.5 -20.5t19.5 -47.5v-6q90 72 182 72q83 0 134 -58.5t51 -140.5q0 -113 -70 -183t-177 -100t-216 -30h-15q-8 -50 -8 -78q0 -65 26 -124.5t83 -59.5q66 0 124.5 22.5 t102.5 65.5q16 16 41 16t43 -18t18 -43q0 -24 -20 -47q-60 -59 -143.5 -94t-169.5 -35q-109 0 -174 98q-11 -45 -15.5 -59t-18.5 -26.5t-42 -12.5q-23 3 -40.5 19t-17.5 38q-69 -57 -143 -57q-67 0 -119 31t-81 86t-29 122zM266 223q0 -41 22 -71.5t60 -30.5q54 0 105 61.5 t87.5 143t51.5 139.5l63 252q-85 -47 -176 -127t-152 -177t-61 -190zM737 516q116 0 216 39.5t100 132.5q0 32 -16.5 53t-47.5 21q-76 0 -144.5 -77.5t-107.5 -168.5z" />
<glyph unicode="&#xbe;" d="M141 276q0 113 51.5 262.5t144.5 257t208 107.5q70 0 113.5 -47.5t62.5 -122.5q39 48 80 83t89.5 57t102.5 22q83 0 134 -58.5t51 -140.5q0 -113 -70 -183t-177 -100t-216 -30h-15q-8 -50 -8 -78q0 -65 26 -124.5t83 -59.5q66 0 124.5 22.5t102.5 65.5q16 16 41 16 t43 -18t18 -43q0 -24 -20 -47q-60 -59 -143.5 -94t-169.5 -35q-74 0 -126.5 47t-78.5 121q-122 -176 -248 -176q-105 0 -154 90.5t-49 205.5zM289 268q0 -49 12.5 -101t44.5 -52q19 0 29 4q65 28 119.5 114.5t85 191t30.5 181.5q0 56 -15 109t-54 53q-53 0 -107 -76.5 t-88 -156.5q-57 -145 -57 -267zM737 516q116 0 216 39.5t100 132.5q0 32 -16.5 53t-47.5 21q-76 0 -144.5 -77.5t-107.5 -168.5z" />
<glyph unicode="&#xbf;" d="M115 -225q0 19 8 30l205 295q-58 95 -58 213q0 126 64.5 266t173.5 232t240 92q65 0 120 -31l193 277q19 25 49 25q29 0 50.5 -19.5t21.5 -46.5q0 -15 -8 -31l-207 -295q59 -91 59 -213q0 -126 -64.5 -266t-175 -231.5t-239.5 -91.5q-65 0 -121 30l-193 -276 q-15 -25 -49 -25q-26 0 -47.5 19.5t-21.5 46.5zM393 322q0 -57 19 -105l379 545q-22 6 -46 6q-93 0 -174.5 -72t-129.5 -177.5t-48 -196.5zM504 121q24 -6 47 -6q92 0 173.5 71.5t130 177.5t48.5 197q0 55 -18 105z" />
<glyph unicode="&#xc0;" d="M63 61q0 27 17 47.5t43 24.5h57l447 985q-28 0 -47 17t-19 45t16 47t44 24h626q26 -3 42 -19t16 -42v-10l-54 -211q-16 -43 -57 -43q-26 0 -43.5 18.5t-17.5 42.5v12l30 119h-219l-100 -403h237q24 -3 41 -21t17 -41q0 -28 -16.5 -47.5t-43.5 -23.5h-268l-113 -449h234 l47 184q16 41 57 41q26 0 44 -18t18 -43v-10l-62 -244q-15 -37 -53 -43h-451q-24 3 -40.5 20.5t-16.5 40.5q0 27 17 47.5t43 24.5h36l60 234h-219l-107 -234h21q25 -3 41 -20t16 -41q0 -27 -16 -47.5t-43 -24.5h-203q-26 3 -42 20t-16 41zM473 500h191l155 618h-67z" />
<glyph unicode="&#xc1;" d="M129 152q0 83 18.5 173.5t67.5 301.5q59 227 99 351t96 193q51 65 131 84t196 19q32 0 92 -11.5t84 -11.5h342q26 -3 42 -19t16 -42v-10l-53 -211q-18 -43 -58 -43q-26 0 -43.5 18.5t-17.5 42.5v12l30 119h-229l-100 -403h250q23 -3 40 -21t17 -41q0 -28 -16.5 -47 t-42.5 -24h-281l-113 -449h242l47 184q16 41 57 41q26 0 44 -18t18 -43v-10l-62 -244q-15 -37 -53 -43h-377h-12q-30 0 -97 -11.5t-91 -11.5q-69 0 -114 4t-83 19.5t-62 52.5t-24 99zM266 233q0 -51 24 -78t61.5 -35.5t94.5 -8.5q80 0 112.5 56t59.5 161l82 327v-8l7 31 l-2 -4l63 250q20 85 20 141q0 76 -86 76q-159 0 -217 -78q-27 -37 -52 -106t-47 -148.5t-42 -157.5q-42 -175 -60 -261.5t-18 -156.5z" />
<glyph unicode="&#xc2;" d="M188 172q0 80 18 168t64 287q40 156 64.5 239.5t61 169.5t79.5 135q64 68 154 85.5t227 17.5q82 0 123 -2l72 127q21 31 53 31q16 0 33 -8.5t27 -23.5t10 -34q0 -16 -9 -31l-51 -90q86 -41 86 -164q0 -79 -23 -193.5t-61 -258.5q-48 -195 -94.5 -337t-108.5 -210 q-65 -68 -154 -85.5t-227 -17.5q-81 0 -122 3l-72 -127q-20 -31 -53 -31q-27 0 -48.5 18.5t-21.5 46.5q0 18 8 31l51 90q-48 24 -67 64t-19 100zM326 254q0 -68 30 -98l549 983q-26 2 -82 2q-100 0 -163.5 -14t-109 -68t-80 -160t-77.5 -272q-36 -154 -51.5 -233t-15.5 -140 zM483 113q27 -2 82 -2q95 0 162.5 15t110.5 67q44 52 81.5 167.5t73.5 266.5q70 266 70 370q0 68 -31 99z" />
<glyph unicode="&#xc3;" d="M33 -227l170 676q4 19 21 34t38 15q15 0 27 -9.5t12 -25.5q0 -4 -0.5 -7t-1.5 -7l-158 -627h703l157 627q7 21 23 35t37 14q15 0 27 -10t12 -25q0 -4 -0.5 -7t-1.5 -7l-170 -676q-5 -19 -23 -33t-37 -14h-798q-16 0 -26.5 9.5t-10.5 26.5v11z" />
<glyph unicode="&#xc4;" d="M508 1137q0 46 36 81t83 35q40 0 68 -28t28 -68q0 -47 -36 -82t-83 -35q-38 0 -67 29t-29 68zM926 1137q0 46 36 81t82 35q39 0 68 -28t29 -68q0 -47 -36.5 -82t-82.5 -35q-38 0 -67 29t-29 68z" />
<glyph unicode="&#x2000;" horiz-adv-x="715" />
<glyph unicode="&#x2001;" horiz-adv-x="1430" />
<glyph unicode="&#x2002;" horiz-adv-x="715" />
<glyph unicode="&#x2003;" horiz-adv-x="1430" />
<glyph unicode="&#x2004;" horiz-adv-x="476" />
<glyph unicode="&#x2005;" horiz-adv-x="357" />
<glyph unicode="&#x2006;" horiz-adv-x="238" />
<glyph unicode="&#x2007;" horiz-adv-x="238" />
<glyph unicode="&#x2008;" horiz-adv-x="178" />
<glyph unicode="&#x2009;" horiz-adv-x="286" />
<glyph unicode="&#x200a;" horiz-adv-x="79" />
<glyph unicode="&#x2010;" d="M272 627q0 28 20 48t48 23h711q28 -3 47.5 -23.5t19.5 -47.5t-19 -48t-48 -24h-711q-29 3 -48.5 23.5t-19.5 48.5z" />
<glyph unicode="&#x2011;" d="M272 627q0 28 20 48t48 23h711q28 -3 47.5 -23.5t19.5 -47.5t-19 -48t-48 -24h-711q-29 3 -48.5 23.5t-19.5 48.5z" />
<glyph unicode="&#x2012;" d="M272 627q0 28 20 48t48 23h711q28 -3 47.5 -23.5t19.5 -47.5t-19 -48t-48 -24h-711q-29 3 -48.5 23.5t-19.5 48.5z" />
<glyph unicode="&#x2013;" horiz-adv-x="1253" d="M272 627q0 28 24 48t58 23h861q34 -3 57.5 -23.5t23.5 -47.5t-23 -48t-58 -24h-861q-35 3 -58.5 23.5t-23.5 48.5z" />
<glyph unicode="&#x2014;" horiz-adv-x="2277" d="M272 627q0 28 48.5 48t116.5 23h1721q68 -3 115 -23.5t47 -47.5t-46 -48t-116 -24h-1721q-71 3 -118 23.5t-47 48.5z" />
<glyph unicode="&#x202f;" horiz-adv-x="286" />
<glyph unicode="&#x205f;" horiz-adv-x="357" />
<glyph unicode="&#x2219;" d="M473 1085q0 31 24 58.5t54 27.5q8 0 24 -4l216 -96l270 98q5 1 8.5 1.5t9.5 0.5q35 0 47.5 -21.5t18.5 -59.5q0 -46 -43 -64l-299 -98h-39l-254 100q-37 19 -37 57z" />
<glyph unicode="&#xe000;" horiz-adv-x="895" d="M0 895h895v-895h-895v895z" />
</font>
</defs>
</svg>
