<?xml version="1.0" standalone="no"?>
<!DOCTYPE svg PUBLIC "-//W3C//DTD SVG 1.1//EN" "http://www.w3.org/Graphics/SVG/1.1/DTD/svg11.dtd" >
<svg xmlns="http://www.w3.org/2000/svg">
<metadata>
This is a custom SVG webfont generated by Font Squirrel.
Copyright   : Copyright C 1994 Basil K Malyshev All Rights Reserved012BaKoMa Fonts Collection LevelB
</metadata>
<defs>
<font id="cmmi9Regular" horiz-adv-x="1051" >
<font-face units-per-em="2048" ascent="1638" descent="-410" />
<missing-glyph horiz-adv-x="500" />
<glyph unicode=" "  horiz-adv-x="500" />
<glyph unicode="&#x09;" horiz-adv-x="500" />
<glyph unicode="&#xa0;" horiz-adv-x="500" />
<glyph unicode="!" horiz-adv-x="1309" d="M31 281q0 154 55.5 302t157.5 285q10 15 26 15q33 0 33 -35q0 -7 -8 -17q-186 -249 -186 -462q0 -95 45 -163.5t135 -68.5q138 0 256 152q0 49 12.5 124t39.5 132t67 57q24 0 37.5 -18t13.5 -43q0 -86 -84 -265q25 -139 147 -139q72 0 143.5 40t127 105t88 142t32.5 147 q0 59 -17.5 91.5t-51 73.5t-33.5 63q0 41 34.5 74.5t74.5 33.5q52 0 74 -47t22 -106q0 -96 -38 -234t-81 -225q-41 -81 -100.5 -154t-137.5 -118.5t-165 -45.5q-79 0 -129.5 46t-67.5 124q-129 -170 -293 -170q-120 0 -174.5 88.5t-54.5 215.5z" />
<glyph unicode="&#x22;" horiz-adv-x="977" d="M57 217q0 81 49 153t127 122q-75 56 -75 139q0 94 79 161.5t189.5 101.5t204.5 34q37 0 101.5 -16t114.5 -44t50 -63q0 -22 -19.5 -43t-41.5 -21q-12 0 -53.5 22.5t-80 38t-88.5 15.5q-69 0 -161 -16.5t-161 -58.5t-69 -109q0 -65 74 -109q92 39 184 39q164 0 164 -61 q0 -47 -56 -60.5t-130 -13.5q-100 0 -164 29q-67 -34 -118.5 -96t-51.5 -130q0 -95 90.5 -130t200.5 -35q72 0 133 7t114.5 34.5t79.5 80.5q8 15 27 15q25 -6 25 -33q0 -6 -4 -14q-34 -68 -97 -113.5t-138.5 -66.5t-156.5 -21q-83 0 -161.5 29t-129.5 88t-51 145zM389 494 q35 -7 76 -7q76 0 108 11q-30 6 -94 6q-42 0 -90 -10z" />
<glyph unicode="#" horiz-adv-x="1247" d="M55 592q37 141 82.5 227t141.5 86q56 0 102 -24t73 -67t27 -99q0 -29 -6 -58l-78 -309q-24 -102 -24 -155q0 -156 155 -156q93 0 171.5 125t126 267t85.5 290q-73 26 -131 54.5t-107 70t-78.5 99t-29.5 124.5q0 83 42 172.5t114.5 147t159.5 57.5q71 0 119 -41.5 t73.5 -103t36 -131.5t10.5 -140q0 -139 -37 -293q1 0 37 -5.5t51 -13.5t15 -24q-5 -33 -27 -33l-50 10q-20 4 -40 9q-22 -87 -72 -206.5t-124 -235t-163 -187.5t-186 -72q-301 0 -301 238q0 68 21 141l78 310q12 45 12 90q0 90 -60 90q-65 0 -95.5 -73.5t-57.5 -188.5 q-4 -19 -21 -19h-24q-11 0 -16 9t-5 18zM631 1071q0 -195 295 -293q27 111 42 199.5t15 165.5q0 241 -106 241q-68 0 -125.5 -51t-89 -124t-31.5 -138z" />
<glyph unicode="$" horiz-adv-x="1745" d="M49 602q0 2 4 10q46 75 91 132.5t106 98t129 40.5h1288q25 0 41 -16t16 -40q0 -30 -24.5 -54.5t-54.5 -24.5h-76q18 -69 18 -140q0 -92 -37.5 -202.5t-103.5 -207t-156.5 -159t-189.5 -62.5q-120 0 -171.5 84t-51.5 211v29q-52 -91 -117 -162t-149 -116.5t-179 -45.5 q-98 0 -143 72t-45 178q0 268 202 521h-86q-57 0 -102.5 -23t-69.5 -46t-56 -60.5t-38 -38.5h-24q-8 0 -14.5 8.5t-6.5 13.5zM319 295q0 -45 13.5 -87.5t43.5 -68.5t79 -26q114 0 210 71.5t163 182.5t94 221q2 7 7.5 12.5t12.5 5.5h25q20 0 20 -26q-30 -131 -33 -230 q0 -100 38.5 -168.5t129.5 -68.5q107 0 200 79t146.5 195t53.5 221q0 64 -23 140h-975q-89 -104 -147 -221t-58 -232z" />
<glyph unicode="%" horiz-adv-x="1083" d="M152 -147q0 72 23 204.5t57 270t59 198.5q28 70 73 136.5t108.5 123t135 88t148.5 31.5q70 0 126.5 -26.5t95.5 -73.5t60 -109.5t21 -128.5q0 -98 -41.5 -204.5t-114.5 -194t-167 -139.5t-199 -52q-95 0 -165.5 54t-103.5 147q-38 -181 -41 -272q0 -86 66 -107.5 t182 -21.5q223 0 289 -23q49 -22 49 -84q0 -61 -27 -67h-24q-21 0 -21 26l1 3q1 1 1 3q-2 0 -2 5q-8 12 -77 12q-47 0 -121 -5t-90 -5q-142 0 -221.5 41t-79.5 170zM387 242q0 -83 38 -144t116 -61q88 0 161.5 75.5t112.5 170.5q32 76 58 185.5t26 182.5q0 78 -36 136.5 t-109 58.5q-112 0 -195.5 -104t-127.5 -248.5t-44 -251.5z" />
<glyph unicode="&#x26;" horiz-adv-x="766" d="M68 438q0 132 87 239.5t220 167.5t262 60q68 0 144.5 -15.5t76.5 -53.5q0 -18 -13.5 -31.5t-29.5 -13.5q-7 0 -49 18t-71 27.5t-62 9.5q-97 0 -201 -43t-174 -122t-70 -177q0 -57 32.5 -106t86.5 -79l295 -157q43 -22 68.5 -63t25.5 -91q0 -54 -29 -108t-79 -87.5 t-105 -33.5q-34 0 -86.5 13.5t-52.5 39.5q0 11 11 21t24 10q14 -3 44 -14t62 -11q36 0 59 32t23 69q0 57 -59 86l-275 147q-75 41 -120 112.5t-45 153.5z" />
<glyph unicode="'" horiz-adv-x="1374" d="M104 391q0 76 28 169t72.5 177t96.5 137q7 9 16 9h25q8 0 14 -7t6 -16q0 -8 -6 -14q-43 -45 -87 -124t-70.5 -162t-26.5 -146q0 -121 97 -192.5t235 -96.5l53 174q51 158 111 285.5t158 224t229 96.5q117 0 180 -84.5t63 -204.5q0 -121 -56 -238t-151 -207t-215 -142 t-241 -52q-17 1 -36.5 2t-31.5 1l-65 -351q-6 -31 -32 -53t-58 -22q-27 0 -46.5 17t-19.5 44q0 16 2 23l115 360q-100 23 -181.5 76.5t-129.5 134t-48 182.5zM592 115q20 -2 65 -2q124 0 258.5 60t223 166t88.5 232q0 87 -54 143t-141 56q-82 0 -151 -44t-122 -116.5 t-87.5 -157.5t-48.5 -161z" />
<glyph unicode="(" horiz-adv-x="2103" d="M117 492v22q0 12 14 21q147 79 260 207.5t176 289.5q8 17 23 17h41q5 0 10 -4t8.5 -10.5t3.5 -12.5t-2 -10q-45 -130 -130.5 -248.5t-198.5 -208.5h1624q16 0 28.5 -13.5t12.5 -29.5q0 -18 -12.5 -31.5t-28.5 -13.5h-1805q-10 0 -17 7t-7 18z" />
<glyph unicode=")" horiz-adv-x="2103" d="M117 510v22q0 8 7.5 15.5t16.5 7.5h1805q16 0 28.5 -13.5t12.5 -29.5q0 -18 -12.5 -31.5t-28.5 -13.5h-1624q110 -87 196.5 -205.5t132.5 -251.5q2 -4 2 -10q0 -10 -6.5 -18.5t-15.5 -8.5h-41q-14 0 -23 17q-39 100 -104 196t-150 172t-182 131q-14 5 -14 21z" />
<glyph unicode="*" horiz-adv-x="2103" d="M117 512q0 16 12.5 29.5t30.5 13.5h1622q-232 184 -330 457q-2 4 -2 10q0 9 7 18t16 9h40q14 0 23 -17q39 -100 104 -195.5t148.5 -171t185.5 -130.5q13 -11 13 -21v-22q0 -11 -7 -18t-16 -7h-1804q-18 0 -30.5 13.5t-12.5 31.5z" />
<glyph unicode="+" horiz-adv-x="2103" d="M117 512q0 16 12.5 29.5t30.5 13.5h1804q8 0 15.5 -7.5t7.5 -15.5v-22q0 -14 -13 -21q-100 -56 -185 -133t-149.5 -171.5t-103.5 -194.5q-8 -17 -23 -17h-40q-9 0 -16 9t-7 18q0 6 2 10q98 273 330 457h-1622q-18 0 -30.5 13.5t-12.5 31.5z" />
<glyph unicode="," horiz-adv-x="584" d="M117 719q0 57 26 104.5t70 80.5t97.5 50t107.5 17q20 0 33.5 -12t13.5 -31q0 -37 -39 -45q-49 0 -101 -18.5t-86 -55.5t-34 -90t34 -90t86 -55.5t101 -18.5q39 -8 39 -43q0 -21 -13.5 -33t-33.5 -12q-54 0 -107.5 17.5t-98 51t-70 80t-25.5 103.5z" />
<glyph unicode="-" horiz-adv-x="584" d="M117 512q0 15 11.5 27.5t29.5 15.5q49 0 100 18.5t85 55.5t34 90t-34 90t-85 55.5t-100 18.5q-41 7 -41 45q0 19 13.5 31t35.5 12q54 0 107.5 -17t97 -50t69 -80.5t25.5 -104.5q0 -76 -43.5 -133.5t-112.5 -88t-143 -30.5q-21 0 -35 12t-14 33z" />
<glyph unicode="." d="M55 16v992q3 17 16 28t29 11q9 0 23 -7l852 -491q20 -13 20 -37q0 -26 -20 -39l-852 -491q-11 -7 -23 -7q-16 0 -29 12t-16 29zM143 96l719 416l-719 414v-830z" />
<glyph unicode="/" d="M55 512q0 25 23 37l852 491q10 7 22 7q35 0 43 -39v-992q-3 -16 -15.5 -28.5t-27.5 -12.5q-14 0 -22 7l-852 491q-23 12 -23 39zM188 512l719 -416v830z" />
<glyph unicode="0" d="M82 434q0 114 25.5 204.5t79.5 155t138 99.5t201 35q118 0 202 -35t137 -99.5t78.5 -155t25.5 -204.5q0 -149 -47.5 -256.5t-147 -165t-248.5 -57.5q-224 0 -334 126t-110 353zM260 459q0 -105 5 -172t30.5 -132.5t81 -103t149.5 -37.5q123 0 181 63.5t71 152t13 229.5 q0 138 -13 219t-70.5 135.5t-181.5 54.5q-95 0 -150.5 -32.5t-80.5 -90t-30 -120t-5 -166.5z" />
<glyph unicode="1" d="M190 791v24q0 20 23 25q115 0 207 18.5t164 67.5q4 2 14 2q27 0 27 -23v-764q0 -47 28 -55q62 -14 211 -14q10 0 16.5 -7t6.5 -16v-24q0 -12 -8.5 -18.5t-16.5 -6.5h-635q-9 0 -16.5 6.5t-7.5 18.5v24q0 8 6.5 15.5t15.5 7.5q146 0 211 14q29 10 29 55v654 q-94 -27 -248 -27q-27 0 -27 23z" />
<glyph unicode="2" d="M94 25v28q0 5 8 15l375 249l60 39q102 68 160.5 129t58.5 148q0 76 -44 126t-112 73.5t-141 23.5t-139.5 -24t-104.5 -76q32 -6 51 -28.5t19 -55.5q0 -34 -24 -59t-60 -25q-34 0 -59 25t-25 59q0 130 118 193t261 63q106 0 209 -27t172 -93.5t69 -174.5q0 -71 -38.5 -125 t-94.5 -90.5t-140.5 -76t-125.5 -62.5l-213 -125h162q297 0 346 4q11 14 23 54t18.5 56t21.5 19h19q10 0 16 -7.5t6 -17.5v-8l-57 -236q-7 -18 -23 -18h-747q-11 0 -18 7t-7 18z" />
<glyph unicode="3" d="M88 -125q0 49 33 80t80 31q46 0 78 -31t32 -80q0 -48 -32.5 -80.5t-77.5 -32.5q-2 1 -4 1.5t-4 0.5q47 -71 137 -106t186 -35q121 0 178.5 95.5t57.5 224.5q0 57 -13.5 116t-40 103t-74.5 73t-110 29h-143q-6 0 -13.5 6.5t-7.5 12.5v22q0 7 7 13t14 6l121 8 q72 0 121.5 50.5t74.5 125t25 145.5q0 63 -22.5 111.5t-67 76t-107.5 27.5q-83 0 -155.5 -27t-116.5 -87q1 1 2.5 1.5t3.5 0.5q44 0 74 -31t30 -74t-29.5 -73.5t-74.5 -30.5t-75 30t-30 74q0 89 56 152t140.5 94t174.5 31q87 0 178 -31t151 -93t60 -151q0 -122 -80 -217.5 t-202 -136.5q65 -12 126 -43t109.5 -77.5t76.5 -106t28 -129.5q0 -113 -64 -200.5t-167.5 -136t-215.5 -48.5q-74 0 -148 19.5t-138.5 59t-103 99.5t-38.5 139z" />
<glyph unicode="4" d="M59 25v38q0 9 7 15l630 860q9 12 25 12h37q8 0 16 -8t8 -16v-854h187q9 0 15.5 -7.5t6.5 -15.5v-24q0 -10 -6.5 -17.5t-15.5 -7.5h-187v-256q0 -48 27 -59q49 -11 154 -11q8 0 16 -8t8 -16v-25q0 -9 -8.5 -15.5t-17.5 -6.5h-523q-26 0 -26 22v25q0 9 7.5 16.5t16.5 7.5 q103 0 142 9q25 4 31.5 18t6.5 43v256h-532q-9 0 -17 7t-8 18zM135 72h494v669z" />
<glyph unicode="5" d="M104 -76q0 43 30 73t73 30q20 0 39.5 -8t32 -21.5t20.5 -33.5t8 -40q0 -28 -13.5 -51t-37 -36t-49.5 -13h-19q33 -91 116.5 -146t180.5 -55q149 0 213 110t64 267q0 86 -15.5 172t-62.5 146.5t-135 60.5q-76 0 -128 -21.5t-82 -49t-53.5 -56.5t-33.5 -31h-19q-10 0 -17 7 t-7 18v663q0 6 8 12.5t14 6.5h9q147 -64 297 -64q151 0 299 64h6q7 0 14.5 -5.5t7.5 -13.5v-22q0 -1 -2 -5t-2 -5q-76 -90 -179.5 -137.5t-217.5 -47.5q-95 0 -182 25v-381q54 53 123 77.5t145 24.5q87 0 159.5 -36t127 -99.5t82.5 -141t28 -161.5q0 -122 -63 -224 t-170 -160t-228 -58q-99 0 -188 49t-141 133.5t-52 183.5z" />
<glyph unicode="6" d="M88 659q0 166 66.5 330.5t192.5 269.5t296 105q113 0 189.5 -58.5t76.5 -168.5q0 -39 -28 -68t-68 -29q-38 0 -67 29t-29 68q0 40 29 68t69 28q-27 38 -74 55t-98 17q-62 0 -120.5 -28t-102.5 -75t-72 -106q-72 -141 -72 -406q41 85 111.5 137t159.5 52q92 0 170.5 -38 t132.5 -102t83.5 -146.5t29.5 -174.5q0 -124 -55.5 -230t-155.5 -169.5t-226 -63.5q-167 0 -265 109.5t-135.5 267t-37.5 327.5zM281 410q0 -65 11 -129t40 -126t77 -98.5t117 -36.5q152 0 200 110.5t48 283.5v6q0 176 -44 287.5t-193 111.5q-123 0 -189.5 -111t-66.5 -245 q1 -10 1.5 -18.5t0.5 -22.5q0 -4 -0.5 -6.5t-1.5 -5.5z" />
<glyph unicode="7" d="M117 547l69 379q2 9 8.5 15.5t14.5 6.5h18q11 0 18 -7t7 -17v-9q0 -32 352 -32h395q8 0 15.5 -7.5t7.5 -15.5v-24q0 -7 -4 -15l-291 -381q-77 -104 -112.5 -231.5t-43.5 -251t-8 -303.5q0 -39 -27.5 -67.5t-68.5 -28.5q-39 0 -67.5 28.5t-28.5 67.5q0 217 78.5 427 t216.5 390l186 246h-256q-315 0 -369 -8q-11 -20 -19.5 -47t-15 -64.5t-10.5 -54.5q-4 -25 -22 -25h-19q-10 0 -17 9t-7 20z" />
<glyph unicode="8" d="M88 311q0 129 82.5 222t216.5 157l-90 55q-68 47 -110 122.5t-42 154.5q0 147 115 244.5t266 97.5q91 0 178.5 -36t144 -105.5t56.5 -165.5q0 -189 -248 -318l131 -84q53 -35 92.5 -84t61 -108t21.5 -119q0 -111 -62.5 -201t-163.5 -139t-211 -49q-106 0 -207.5 42.5 t-166 123t-64.5 190.5zM205 311q0 -61 26 -114.5t71.5 -93t105 -61.5t118.5 -22q76 0 150 30.5t122 89t48 136.5q0 61 -31.5 113t-83.5 86l-280 176q-105 -49 -175.5 -139.5t-70.5 -200.5zM248 1094q0 -96 94 -158l254 -160q207 113 207 281q0 72 -39.5 128.5t-104.5 88 t-135 31.5q-62 0 -127 -24t-107 -72.5t-42 -114.5z" />
<glyph unicode="9" d="M88 479q0 95 34 176t96 143t143.5 96t175.5 34q127 0 211.5 -64.5t131 -167t65 -216.5t18.5 -236q0 -157 -62 -317t-181.5 -264.5t-281.5 -104.5q-78 0 -145.5 22.5t-109.5 73.5t-42 129q0 40 29 68t68 28q40 0 68 -28t28 -68q0 -38 -26.5 -67t-65.5 -29q56 -64 194 -64 q64 0 120 31t99 82.5t68 111.5q51 130 51 367q-24 -50 -65.5 -93.5t-93.5 -67t-111 -23.5q-121 0 -216 61.5t-147.5 166t-52.5 220.5zM276 475q0 -77 7 -139.5t31 -119.5t73 -91.5t127 -34.5q82 0 140.5 53t87 134.5t28.5 160.5q0 25 -2 37q1 3 1.5 6t0.5 6q0 61 -11 127 t-36 123t-72 94t-114 37q-155 0 -208 -106t-53 -279v-8z" />
<glyph unicode=":" horiz-adv-x="584" d="M176 115q0 29 15.5 55.5t42 42.5t57.5 16q46 0 80.5 -33.5t34.5 -80.5t-34 -81t-81 -34q-48 0 -81.5 34.5t-33.5 80.5z" />
<glyph unicode=";" horiz-adv-x="584" d="M176 115q0 50 32 82t83 32q73 0 105 -68t32 -151q0 -116 -46.5 -219.5t-129.5 -183.5q-8 -4 -14 -4q-13 0 -23 10t-10 22q0 9 8 17q74 71 115 163.5t41 194.5v19q-32 -29 -78 -29q-33 0 -59 15t-41 40.5t-15 59.5z" />
<glyph unicode="&#x3c;" horiz-adv-x="1636" d="M176 512q0 27 29 41l1194 573q4 2 16 2q17 0 30 -13t13 -30q0 -28 -26 -41l-1110 -532l1116 -537q20 -10 20 -38q0 -17 -13 -30t-30 -13q-12 0 -16 2l-1200 577q-23 9 -23 39z" />
<glyph unicode="=" d="M117 -469q0 10 2 14l731 1964q10 27 41 27q17 0 30 -13t13 -30q0 -10 -2 -14l-729 -1964q-13 -27 -41 -27q-19 0 -32 13t-13 30z" />
<glyph unicode="&#x3e;" horiz-adv-x="1636" d="M176 -63q0 30 29 40l1108 535l-1114 535q-23 9 -23 38q0 17 14 30t31 13q10 0 17 -2l1200 -577q20 -10 20 -37q0 -30 -26 -41l-1194 -575q-7 -2 -17 -2q-17 0 -31 13t-14 30z" />
<glyph unicode="?" d="M16 621q0 11 9.5 18.5t19.5 7.5l404 -78l51 406q4 22 26 22q21 0 25 -22l51 -406l404 78q11 0 19.5 -7t8.5 -19q0 -16 -14 -23l-371 -174l197 -358q4 -10 4 -13q0 -24 -27 -24q-10 0 -20 10l-277 297l-278 -297q-10 -10 -21 -10q-26 0 -26 24q1 3 1.5 5.5t0.5 4.5 l198 361l-368 174q-17 7 -17 23z" />
<glyph unicode="@" horiz-adv-x="1112" d="M84 319q0 157 85.5 301.5t226 233t296.5 88.5q107 0 181 -61.5t98 -163.5q10 21 22.5 90.5t20.5 136.5t8 98q0 95 -32.5 179t-98.5 135t-166 51q-89 0 -165.5 -40t-121.5 -114h8q37 0 59.5 -21t22.5 -54q0 -46 -35.5 -81.5t-82.5 -35.5q-32 0 -56 21.5t-24 56.5 q0 41 25.5 92.5t63.5 96.5t75 69q101 69 235 69q143 0 247.5 -74t158 -196t53.5 -264q0 -147 -49.5 -316t-142 -320.5t-225.5 -246t-292 -94.5q-179 0 -274 98q-55 55 -88 124t-33 142zM256 246q0 -108 61 -167t168 -59q157 0 256 123t156 301q0 4 -0.5 6.5t-1.5 4.5 q30 86 33 166q0 70 -26.5 130.5t-77.5 96t-124 35.5t-138 -29.5t-117 -81.5t-89 -121q-31 -66 -65.5 -201.5t-34.5 -203.5z" />
<glyph unicode="A" horiz-adv-x="1577" d="M76 27q0 13 7 29t21 16q157 0 248 139l6 6l744 1225q14 24 43 24h20q28 0 31 -24l143 -1327q10 -27 53.5 -35t102.5 -8q10 0 17.5 -8.5t7.5 -16.5q0 -47 -37 -47h-508q-9 0 -16 9t-7 18q0 14 8 29.5t21 15.5q63 0 110.5 10t57.5 45l-37 338h-528l-164 -272 q-19 -28 -19 -56q0 -36 32 -50.5t73 -14.5q10 0 16 -7.5t6 -17.5q0 -47 -36 -47h-394q-22 0 -22 27zM629 537h475l-72 665z" />
<glyph unicode="B" horiz-adv-x="1591" d="M90 27q0 14 7.5 29.5t21.5 15.5q114 0 166 12q29 11 45 63l278 1119q4 20 4 30q0 15 -6 19q-39 12 -160 12q-24 0 -24 27q0 14 7.5 29.5t21.5 15.5h745q92 0 181.5 -31t147.5 -95.5t58 -158.5q0 -99 -67 -181t-166.5 -133t-198.5 -69q82 -8 156.5 -44t121 -99t46.5 -146 q0 -94 -52.5 -176t-140.5 -141.5t-187 -92t-190 -32.5h-790q-25 0 -25 27zM492 86q0 -14 65 -14h307q102 0 197.5 54t153 143.5t57.5 191.5q0 67 -27.5 121t-77 85t-116.5 31h-410l-141 -565q-8 -32 -8 -47zM655 758h322q95 0 191.5 48.5t157 131.5t60.5 182 q0 90 -58.5 148.5t-149.5 58.5h-293q-59 0 -76 -10.5t-31 -65.5z" />
<glyph unicode="C" horiz-adv-x="1501" d="M104 522q0 174 79.5 341.5t212 297t303.5 206.5t343 77q107 0 197.5 -46.5t146.5 -133.5l162 176q4 4 13 4h12q20 0 20 -27l-137 -545q-4 -18 -20 -18h-31q-21 0 -21 27q9 41 9 98q0 105 -37.5 195t-112.5 144t-182 54q-168 0 -308.5 -81.5t-241 -217t-154.5 -300 t-54 -324.5q0 -189 111 -305.5t301 -116.5q130 0 251.5 64t209 173.5t120.5 235.5q2 7 7.5 12.5t13.5 5.5h24q21 0 21 -26q-37 -145 -140 -269t-245.5 -196t-294.5 -72q-166 0 -297 72t-206 200.5t-75 294.5z" />
<glyph unicode="D" horiz-adv-x="1735" d="M88 27q0 14 7.5 29.5t21.5 15.5q114 0 166 12q27 10 45 63l278 1119q4 20 4 30q0 15 -6 19q-39 12 -160 12q-24 0 -24 27q0 14 7.5 29.5t21.5 15.5h747q145 0 257 -68.5t172.5 -188t60.5 -263.5q0 -158 -68.5 -317.5t-187.5 -286.5t-271 -201t-313 -74h-733q-25 0 -25 27 zM496 86q0 -14 65 -14h250q117 0 228.5 48.5t199.5 133.5q56 56 104.5 142t82.5 182.5t51.5 193.5t17.5 182q0 84 -25 153t-73.5 118t-116 75.5t-154.5 26.5h-237q-59 0 -76 -10.5t-31 -65.5l-278 -1118q-8 -32 -8 -47z" />
<glyph unicode="E" horiz-adv-x="1548" d="M84 27q0 14 7.5 29.5t21.5 15.5q114 0 166 12q27 10 45 63l278 1119q4 20 4 30q0 15 -6 19q-39 12 -160 12q-24 0 -24 27q0 14 7.5 29.5t20.5 15.5h1131q10 0 17 -8t7 -19l-47 -418q-4 -24 -24 -24h-19q-22 0 -22 28q10 120 10 146q0 80 -28.5 126.5t-76.5 66.5t-106 25 t-151 5h-244q-59 0 -76 -10.5t-31 -65.5l-122 -489h163q109 0 161.5 14t84 59t57.5 148q4 18 23 18h18q9 0 16 -7t7 -17v-8l-125 -500q-7 -18 -23 -18h-18q-10 0 -17.5 8.5t-7.5 17.5q0 12 10.5 54t10.5 69q0 60 -55.5 75t-145.5 15h-176l-139 -557q-8 -32 -8 -47 q0 -14 65 -14h258q148 0 242 22t154.5 71.5t106 127.5t110.5 229q10 15 22 15h19q10 0 16 -7.5t6 -17.5q0 -8 -2 -10l-209 -488q-7 -14 -20 -14h-1157q-25 0 -25 27z" />
<glyph unicode="F" horiz-adv-x="1343" d="M84 27q0 14 7.5 29.5t21.5 15.5q114 0 166 12q27 10 45 63l278 1119q4 20 4 30q0 15 -6 19q-39 12 -160 12q-24 0 -24 27q0 14 7.5 29.5t20.5 15.5h1102q11 0 18 -8t7 -19l-47 -418q-2 -10 -8.5 -17t-16.5 -7h-18q-23 0 -23 28q10 125 10 150q0 102 -45.5 150t-114 58.5 t-188.5 10.5h-229q-59 0 -76 -10.5t-31 -65.5l-129 -516h158q106 0 158.5 14.5t83.5 62.5t55 144q7 19 23 19h18q10 0 17.5 -7.5t7.5 -17.5q0 -4 -2 -8l-125 -500q-4 -18 -23 -18h-18q-23 0 -23 27q0 11 10.5 53t10.5 69q0 59 -54.5 75t-142.5 16h-172l-133 -537 q0 -4 -0.5 -7.5t-1.5 -8.5q0 -22 16 -27q57 -12 201 -12q11 0 17.5 -7.5t6.5 -17.5q0 -47 -36 -47h-601q-22 0 -22 27z" />
<glyph unicode="G" horiz-adv-x="1647" d="M104 522q0 174 79.5 341.5t212 297t303.5 206.5t343 77q107 0 197.5 -46.5t146.5 -133.5l162 176q4 4 13 4h12q20 0 20 -27l-137 -545q-4 -18 -20 -18h-31q-21 0 -21 27q9 41 9 98q0 105 -37.5 195t-112.5 144t-182 54q-168 0 -307.5 -81t-240 -217.5t-154.5 -299 t-54 -321.5q0 -127 51 -224t147.5 -149.5t223.5 -52.5q133 0 242 56t147 171l43 180q2 4 2 17q0 21 -14 26q-60 12 -205 12q-11 0 -17.5 8.5t-6.5 18.5q0 45 38 45h539q10 0 16.5 -8.5t6.5 -15.5q0 -16 -8 -32t-21 -16q-72 0 -102 -12t-46 -63l-43 -170l-55 -226 q-7 -18 -22 -18q-20 0 -50 43.5t-47 79.5q-48 -57 -122.5 -95.5t-156.5 -55.5t-163 -17q-166 0 -297 72t-206 200.5t-75 294.5z" />
<glyph unicode="H" horiz-adv-x="1741" d="M84 27q0 14 7.5 29.5t21.5 15.5q114 0 166 12q27 10 45 63l278 1119q4 20 4 30q0 15 -6 19q-39 12 -160 12q-24 0 -24 27q0 19 9 32t28 13h546q10 0 16.5 -8t6.5 -17q0 -18 -7 -32.5t-22 -14.5q-112 0 -164 -12q-32 -12 -45 -64l-120 -487h632l125 502q4 20 4 30 q0 15 -6 19q-39 12 -159 12q-25 0 -25 27q0 19 9 32t28 13h547q6 0 11 -4t8 -10t3 -11q0 -18 -7 -32.5t-22 -14.5q-112 0 -163 -12q-34 -12 -45 -64l-279 -1118q-4 -10 -4 -31q0 -14 6 -18q39 -12 160 -12q10 0 16 -7.5t6 -17.5q0 -47 -36 -47h-547q-9 0 -16 9t-7 18 q0 14 7.5 29.5t21.5 15.5q115 0 166 12q29 11 45 63l135 545h-633l-139 -559q-4 -10 -4 -31q0 -14 6 -18q39 -12 160 -12q10 0 16 -7.5t6 -17.5q0 -47 -37 -47h-547q-22 0 -22 27z" />
<glyph unicode="I" horiz-adv-x="920" d="M74 27q0 14 7.5 29.5t20.5 15.5q121 0 174 12q30 10 48 63l278 1119q4 20 4 28q0 18 -14 23q-51 10 -162 10q-24 0 -24 27q0 45 36 45h568q10 0 17 -8t7 -17q0 -15 -7.5 -31t-20.5 -16q-121 0 -177 -12q-27 -10 -45 -64l-278 -1118q-4 -10 -4 -29q0 -17 14 -22 q49 -10 162 -10q11 0 17.5 -7.5t6.5 -17.5q0 -47 -38 -47h-568q-22 0 -22 27z" />
<glyph unicode="J" horiz-adv-x="1159" d="M150 180q0 67 36.5 115.5t102.5 48.5q39 0 66.5 -24.5t27.5 -61.5q0 -55 -41 -96t-96 -41q-8 0 -13 2q22 -54 76.5 -81.5t118.5 -27.5q66 0 126 43.5t101.5 110t57.5 133.5l243 969v16q0 25 -12 27q-57 14 -215 14q-22 0 -22 27q0 45 36 45h551q9 0 16 -8t7 -17 q0 -16 -7.5 -31.5t-21.5 -15.5q-75 0 -108.5 -12.5t-49.5 -63.5l-241 -964q-23 -95 -95 -171t-171 -118.5t-197 -42.5q-70 0 -133.5 26t-103 76.5t-39.5 122.5z" />
<glyph unicode="K" horiz-adv-x="1782" d="M84 27q0 14 7.5 29.5t21.5 15.5q114 0 166 12q27 10 45 63l278 1119q4 20 4 30q0 15 -6 19q-39 12 -160 12q-24 0 -24 27q0 19 9 32t28 13h546q10 0 16.5 -8t6.5 -17q0 -18 -7 -32.5t-22 -14.5q-112 0 -164 -12q-32 -12 -45 -64l-163 -655l819 616q4 8 20 22.5t25.5 27 t9.5 30.5q0 35 -63 35q-23 0 -23 27q0 45 37 45h393q9 0 16 -9t7 -16q0 -16 -8 -31.5t-21 -15.5q-142 0 -334 -145q-3 -1 -5.5 -1.5t-6.5 -2.5l-428 -324l323 -719q27 -42 58.5 -52.5t93.5 -10.5q10 0 17.5 -8.5t7.5 -16.5q0 -47 -37 -47h-471q-9 0 -16 9t-7 18 q0 14 7.5 29.5t21.5 15.5q51 0 87 9.5t36 47.5q0 12 -2 16l-271 596l-309 -233l-92 -375q-4 -10 -4 -31q0 -14 6 -18q39 -12 160 -12q10 0 16 -7.5t6 -17.5q0 -47 -37 -47h-547q-22 0 -22 27z" />
<glyph unicode="L" horiz-adv-x="1432" d="M84 27q0 14 7.5 29.5t21.5 15.5q114 0 166 12q27 10 45 63l278 1119q4 20 4 30q0 15 -6 19q-39 12 -160 12q-24 0 -24 27q0 19 9 32t28 13h600q5 0 10 -3.5t8.5 -10t3.5 -11.5q0 -15 -7.5 -31t-20.5 -16q-148 0 -199 -10q-47 -11 -64 -66l-278 -1118q-8 -32 -8 -47 q0 -14 65 -14h201q166 0 266.5 62.5t146 138.5t81 168.5t53.5 95.5h18q9 0 16 -9t7 -18q0 -6 -2 -10l-179 -484q-4 -16 -20 -16h-1042q-25 0 -25 27z" />
<glyph unicode="M" horiz-adv-x="2032" d="M94 27q0 14 7.5 29.5t21.5 15.5q87 0 144.5 29t78.5 102l266 1063q4 20 4 30q0 15 -6 19q-39 12 -159 12q-25 0 -25 27q0 14 7.5 29.5t21.5 15.5h360q12 0 21 -6.5t10 -18.5l168 -1171l753 1171q18 25 45 25h347q10 0 16 -7.5t6 -17.5q0 -18 -7 -32.5t-22 -14.5 q-112 0 -163 -12q-34 -12 -45 -64l-279 -1118q-4 -10 -4 -31q0 -14 6 -18q39 -12 160 -12q10 0 16 -7.5t6 -17.5q0 -47 -37 -47h-528q-22 0 -22 27q0 14 7.5 29.5t20.5 15.5q115 0 166 12q29 11 45 63l293 1174l-833 -1294q-17 -27 -48 -27q-29 0 -32 27l-185 1280 l-280 -1119q-4 -20 -4 -32q0 -52 44 -68t109 -16q10 0 16.5 -7.5t6.5 -17.5q0 -47 -37 -47h-434q-9 0 -16 9t-7 18z" />
<glyph unicode="N" horiz-adv-x="1681" d="M84 27q0 14 7.5 29.5t21.5 15.5q87 0 144.5 29t78.5 102l278 1114q-55 10 -174 10q-24 0 -24 27q0 14 7.5 29.5t20.5 15.5h353q16 0 20 -15l477 -1079l228 912q2 8 2 26q0 53 -43.5 68.5t-108.5 15.5q-24 0 -24 27q0 19 9 32t27 13h435q6 0 11 -4t8 -10t3 -11 q0 -18 -7 -32.5t-22 -14.5q-84 0 -142 -28.5t-81 -102.5l-293 -1178q-7 -18 -22 -18h-25q-14 0 -22 16l-551 1250l-270 -1084q-2 -8 -2.5 -13t-2.5 -13q0 -52 44.5 -68t109.5 -16q10 0 16.5 -8.5t6.5 -16.5q0 -47 -37 -47h-435q-22 0 -22 27z" />
<glyph unicode="O" horiz-adv-x="1602" d="M102 504q0 170 75.5 339.5t205.5 305.5t295.5 215.5t335.5 79.5q118 0 218 -41t171.5 -116.5t110 -176t38.5 -221.5q0 -172 -74.5 -340t-203.5 -302t-293.5 -213t-337.5 -79q-116 0 -216 40t-173.5 115t-112.5 177t-39 217zM307 453q0 -112 38.5 -210t118 -158t195.5 -60 q152 0 282.5 90.5t224 237t143 309t49.5 303.5q0 115 -41 208t-123 149t-197 56q-74 0 -146 -24t-138 -66.5t-121 -97.5q-87 -87 -152 -211.5t-99 -262.5t-34 -263z" />
<glyph unicode="P" horiz-adv-x="1343" d="M88 27q0 14 7.5 29.5t21.5 15.5q114 0 166 12q27 10 45 63l278 1119q4 20 4 30q0 15 -6 19q-39 12 -160 12q-24 0 -24 27q0 14 7.5 29.5t21.5 15.5h718q98 0 192.5 -34.5t155 -105.5t60.5 -174q0 -131 -94.5 -234t-236 -159.5t-269.5 -56.5h-340l-125 -502q-4 -10 -4 -31 q0 -14 6 -18q39 -12 160 -12q10 0 16 -7.5t6 -17.5q0 -47 -37 -47h-546q-9 0 -16 9t-7 18zM645 700h295q91 0 175 26t138 83q54 52 87.5 148t33.5 180q0 105 -81 147.5t-197 42.5h-207q-59 0 -76 -10.5t-31 -65.5z" />
<glyph unicode="Q" horiz-adv-x="1659" d="M102 504q0 170 75.5 339.5t205.5 305.5t295.5 215.5t335.5 79.5q118 0 218 -41t171.5 -116.5t110 -176t38.5 -221.5q0 -142 -48 -277.5t-132 -250t-200 -206t-244 -143.5q11 -65 22.5 -102.5t41 -66.5t81.5 -29q81 0 152 58t92 136q4 19 24 19q11 0 18 -8t7 -19v-8 q-37 -147 -126.5 -268t-221.5 -121q-178 0 -178 237q0 15 2 44l2 58q2 29 2 44q-100 -31 -203 -31q-116 0 -216 40t-173.5 115t-112.5 177t-39 217zM297 444q0 -131 53.5 -239.5t163.5 -155.5q-4 12 -4 17l-2 4q-2 8 -2 26q0 55 31.5 104.5t82.5 79t105 29.5 q89 0 130.5 -58.5t59.5 -156.5q133 76 234.5 217t155 310.5t53.5 328.5q0 115 -40 213t-121 156.5t-200 58.5q-154 0 -284.5 -88.5t-223 -231.5t-142.5 -306.5t-50 -307.5zM565 98q0 -78 94 -78q90 0 191 41q0 89 -25 139t-102 50q-59 0 -108.5 -46.5t-49.5 -105.5z" />
<glyph unicode="R" horiz-adv-x="1591" d="M88 27q0 14 7.5 29.5t21.5 15.5q114 0 166 12q27 10 45 63l278 1119q4 20 4 30q0 15 -6 19q-39 12 -160 12q-24 0 -24 27q0 14 7.5 29.5t21.5 15.5h630q103 0 211.5 -32t183 -100.5t74.5 -176.5q0 -147 -137 -251t-303 -145q79 -29 129.5 -91.5t50.5 -145.5q0 -19 -2 -29 l-16 -180q-8 -82 -8 -115q0 -56 16 -87.5t68 -31.5q63 0 111.5 58t66.5 129q4 18 22 18h19q10 0 17 -7t7 -17q0 -2 -2 -9q-22 -91 -89.5 -161t-154.5 -70q-79 0 -145 22.5t-107.5 73t-41.5 127.5q0 35 10 80l45 178q6 28 6 53q0 86 -61 133.5t-148 47.5h-264l-133 -537 q-4 -10 -4 -31q0 -14 6 -18q39 -12 160 -12q10 0 16 -7.5t6 -17.5q0 -47 -37 -47h-540q-9 0 -16 9t-7 18zM651 729h234q189 0 309 80q69 47 109 137.5t40 181.5q0 199 -309 199h-145q-59 0 -76 -10.5t-31 -65.5z" />
<glyph unicode="S" horiz-adv-x="1284" d="M111 -18l116 464q4 19 21 19h24q21 0 21 -27q-17 -73 -17 -121q0 -150 105 -220t262 -70q90 0 174.5 53t135.5 139t51 176q0 75 -39.5 130t-108.5 73l-260 66q-102 26 -165.5 108.5t-63.5 188.5q0 92 43.5 180.5t118.5 157t167.5 107t184.5 38.5q210 0 301 -144l116 136 q10 8 17 8h12q21 0 21 -27l-117 -465q-4 -18 -21 -18h-24q-21 0 -21 27q9 54 9 106q0 98 -33.5 168t-99.5 106.5t-164 36.5q-66 0 -129 -27t-114.5 -73.5t-81.5 -107t-30 -123.5q0 -45 18.5 -84t52.5 -66t77 -39l258 -65q69 -18 121.5 -63.5t81 -111.5t28.5 -137 q0 -97 -43 -191.5t-118 -171t-168.5 -120t-192.5 -43.5q-112 0 -208 33t-155 110l-114 -135q-8 -8 -17 -8h-12q-20 0 -20 27z" />
<glyph unicode="T" horiz-adv-x="1227" d="M53 956q0 7 2 11l146 417q4 15 20 15h1237q11 0 18 -8t7 -19l-64 -418q-4 -24 -24 -24h-19q-8 0 -15 9t-7 19q20 160 20 201q0 74 -30 111.5t-79.5 47t-129.5 9.5h-125q-59 0 -76 -10.5t-31 -65.5l-280 -1120v-16q0 -24 16 -29q61 -14 233 -14q12 0 18.5 -7.5t6.5 -17.5 q0 -47 -37 -47h-721q-22 0 -22 27q0 14 7.5 29.5t20.5 15.5q172 0 232 10q49 11 65 65l279 1119q8 32 8 47q0 14 -65 14h-129q-140 0 -215.5 -41.5t-111 -110.5t-91.5 -229q-8 -16 -23 -16h-18q-23 0 -23 26z" />
<glyph unicode="U" horiz-adv-x="1432" d="M137 352q0 56 15 121l198 793q4 20 4 30q0 15 -6 19q-39 12 -160 12q-24 0 -24 27q0 19 9 32t28 13h547q6 0 11 -4t8 -10t3 -11q0 -18 -7 -32.5t-22 -14.5q-112 0 -163 -12q-33 -12 -46 -64l-198 -792q-23 -107 -23 -168q0 -78 30.5 -138t87.5 -93t136 -33q90 0 176 36.5 t156.5 100.5t117.5 143.5t68 165.5l185 737q4 11 4 33q0 53 -43.5 68.5t-108.5 15.5q-24 0 -24 27q0 19 9 32t28 13h434q6 0 11 -4t8 -10t3 -11q0 -47 -28 -47q-85 0 -143 -28.5t-81 -102.5l-184 -737q-32 -130 -120.5 -246.5t-214.5 -187t-259 -70.5q-116 0 -212.5 49.5 t-153 139.5t-56.5 208z" />
<glyph unicode="V" horiz-adv-x="1227" d="M117 1354q0 45 37 45h497q10 0 16.5 -8t6.5 -17q0 -18 -7 -32.5t-22 -14.5q-164 0 -164 -55l152 -1073l645 1007q2 10 11 29t9 31q0 34 -29.5 47.5t-70.5 13.5q-24 0 -24 27q0 45 36 45h385q9 0 16 -8t7 -17q0 -16 -7.5 -31.5t-21.5 -15.5q-151 0 -243 -139 q-3 -3 -4 -3.5t-3 -2.5l-770 -1202q-13 -25 -43 -25h-22q-11 0 -20 6.5t-11 18.5l-184 1306q-15 41 -148 41q-24 0 -24 27z" />
<glyph unicode="W" horiz-adv-x="1987" d="M115 1354q0 45 37 45h485q5 0 10 -3.5t8.5 -10t3.5 -11.5q0 -47 -28 -47q-154 0 -170 -57l84 -1032l524 901l-12 147q-13 41 -133 41q-25 0 -25 27q0 19 9 32t28 13h485q9 0 16 -8t7 -17q0 -18 -7 -32.5t-22 -14.5q-153 0 -170 -57l84 -1032l561 966q15 28 15 49 q0 28 -20 45t-47 23t-58 6q-25 0 -25 27q0 19 9 32t28 13h389q9 0 16 -9t7 -16q0 -16 -8 -31.5t-21 -15.5q-139 0 -221 -137q-4 -4 -6 -8l-699 -1202q-13 -25 -43 -25h-14q-9 0 -19 7t-10 18l-86 1056l-612 -1056q-17 -25 -43 -25h-14q-11 0 -20 7t-9 18l-107 1306 q-12 41 -133 41q-24 0 -24 27z" />
<glyph unicode="X" horiz-adv-x="1739" d="M59 27q0 13 7.5 29t21.5 16q92 0 175.5 38.5t150.5 106.5q2 2 3.5 2.5t2.5 1.5l454 477l-260 590q-21 25 -65 32t-105 7q-24 0 -24 27q0 45 37 45h508q5 0 10 -3.5t8.5 -10t3.5 -11.5q0 -18 -7 -32.5t-22 -14.5q-39 0 -76 -12.5t-53 -40.5l187 -426l344 362q3 8 16 25 t13 37q0 27 -24.5 41t-57.5 14q-23 0 -23 27q0 45 37 45h436q9 0 16 -9t7 -16q0 -16 -7.5 -31.5t-21.5 -15.5q-184 0 -326 -145l-3 -1q-3 -1 -3 -3l-375 -394l297 -673q24 -25 67 -32t105 -7q10 0 16.5 -7.5t6.5 -17.5q0 -47 -37 -47h-508q-22 0 -22 27q0 13 7 29t21 16 q39 0 76 12t53 41l-225 510l-424 -447q-3 -9 -14.5 -25.5t-11.5 -35.5q0 -27 26 -41t55 -14q10 0 16.5 -7.5t6.5 -17.5q0 -47 -37 -47h-436q-9 0 -16 9t-7 18z" />
<glyph unicode="Y" horiz-adv-x="1221" d="M74 1354q0 19 9 32t28 13h514q5 0 10 -3.5t8.5 -10t3.5 -11.5q0 -16 -7.5 -31.5t-21.5 -15.5q-141 0 -141 -45l248 -631l494 557q1 5 19.5 30t18.5 48q0 41 -77 41q-23 0 -23 27q0 45 37 45h387q8 0 14.5 -8t6.5 -17q0 -15 -7.5 -31t-21.5 -16q-160 0 -285 -139l-4 -4 q-4 -3 -6 -6l-551 -619l-104 -420q-1 -3 -2.5 -9t-3 -14t-1.5 -14q0 -13 9 -18q39 -12 159 -12q10 0 16.5 -7.5t6.5 -17.5q0 -47 -37 -47h-541q-22 0 -22 27q0 14 7.5 29.5t21.5 15.5q114 0 165 12q14 5 21 14t13 22l14 32l100 407l-285 727q-28 41 -166 41q-24 0 -24 27z " />
<glyph unicode="Z" horiz-adv-x="1432" d="M123 18q0 33 12 45l1147 1264h-303q-119 0 -201 -19t-142.5 -61t-106.5 -116t-80 -183q-5 -18 -23 -18h-18q-23 0 -23 26v7l127 417q7 19 23 19h956q20 0 20 -19q0 -24 -12 -41l-1145 -1261h318q137 0 230.5 24.5t154.5 77t103.5 136t86.5 221.5q7 18 23 18h18 q12 0 18.5 -7t6.5 -18q0 -4 -2 -8l-160 -504q-7 -18 -23 -18h-985q-20 0 -20 18z" />
<glyph unicode="[" horiz-adv-x="817" d="M117 -23v1536q0 8 7.5 15.5t16.5 7.5h19q8 0 15 -8t7 -15v-645q89 78 238 78q76 0 140 -39t102 -104.5t38 -140.5q0 -218 -143.5 -380.5t-386.5 -324.5q-4 0 -6 -0.5t-4 -1.5h-19q-9 0 -16.5 7.5t-7.5 14.5zM182 49q154 141 247 291.5t93 321.5q0 44 -12 89t-39.5 76 t-73.5 31q-79 0 -147 -32t-68 -103v-674z" />
<glyph unicode="\" horiz-adv-x="817" d="M154 -156v1624q0 13 12.5 21t28.5 8q9 0 16.5 -6.5t7.5 -15.5v-574l410 158q2 2 10 2q10 0 17.5 -6.5t7.5 -16.5v-1458q0 -10 -13.5 -19.5t-25.5 -9.5q-10 0 -18.5 7.5t-8.5 17.5v406l-408 -158q-4 -2 -10 -2q-26 0 -26 22zM219 18l379 146v700l-379 -145v-701z" />
<glyph unicode="]" horiz-adv-x="817" d="M117 -25q0 19 16 23l68 22v703l-51 -16q-5 -2 -7 -2q-26 0 -26 24v131q0 6 5 12.5t11 8.5l68 22v422q0 12 13.5 20.5t27.5 8.5q8 0 16 -7t8 -16v-405l285 94v424q0 13 13 19.5t28 6.5q9 0 16.5 -6.5t7.5 -15.5v-406l52 19h8q10 0 17 -7t7 -16v-131q0 -17 -14 -22l-70 -23 v-702l52 18h8q9 0 16.5 -6.5t7.5 -15.5v-131q0 -8 -4 -14.5t-10 -8.5l-70 -22v-281q0 -12 -12.5 -20.5t-25.5 -8.5q-27 0 -27 23v264l-285 -94v-283q0 -26 -39 -26q-26 0 -26 22v264l-51 -18h-7q-26 0 -26 22v131zM266 43l285 94v703l-285 -95v-702z" />
<glyph unicode="^" horiz-adv-x="2103" d="M117 733q0 13 11 23t24 10q18 -4 24 -12q142 -194 376.5 -286.5t500.5 -92.5t500 92.5t374 286.5q9 12 29 12q31 -4 31 -33q0 -12 -7 -20q-105 -143 -254 -243.5t-322 -151t-351 -50.5q-131 0 -262.5 28t-254.5 84.5t-229 142t-184 190.5q-6 9 -6 20z" />
<glyph unicode="_" horiz-adv-x="2103" d="M117 291q0 11 6 20q79 115 181 202t225 149t255.5 93t268.5 31q138 0 270.5 -31t249.5 -91q164 -84 280 -201q24 -22 79 -88t55 -82q0 -14 -10.5 -24.5t-24.5 -10.5q-19 4 -25 12q-93 138 -232.5 229.5t-305 136t-336.5 44.5t-337.5 -44.5t-306.5 -136t-233 -229.5 q-9 -12 -29 -12q-11 0 -20.5 10.5t-9.5 22.5z" />
<glyph unicode="`" horiz-adv-x="868" d="M16 184q0 7 24.5 32t61 60t63.5 60t28 26v29q0 68 11 152t27 151.5t37.5 134.5t55.5 154q36 91 93.5 197t132 185t155.5 79q65 0 94.5 -45t29.5 -117q0 -219 -144 -440t-355 -434q-8 -82 -8 -121q0 -256 118 -256q72 0 135.5 44.5t151.5 127.5q2 4 14 4q13 0 23 -12.5 t10 -24.5q0 -8 -8 -16q-38 -36 -78 -69.5t-77.5 -58.5t-81.5 -41t-93 -16q-109 0 -165.5 93.5t-71.5 218.5q-90 -86 -136 -127q-7 -7 -14 -7q-10 0 -21.5 13t-11.5 24zM346 516q77 80 151 173t134 190.5t97.5 203.5t37.5 207q0 94 -64 94q-56 0 -113 -101.5t-109 -260 t-78.5 -266t-55.5 -240.5z" />
<glyph unicode="a" horiz-adv-x="1114" d="M82 311q0 99 39.5 204t110.5 194t164.5 142.5t193.5 53.5q61 0 110.5 -31.5t79.5 -87.5q9 34 33.5 56t56.5 22q28 0 47 -16.5t19 -44.5q0 -12 -2 -19l-141 -567q-13 -45 -13 -90q0 -90 60 -90q65 0 95.5 73.5t57.5 188.5q2 7 7.5 12.5t13.5 5.5h24q11 0 16 -7.5t5 -18.5 q-26 -98 -46.5 -155.5t-64.5 -108t-112 -50.5q-70 0 -126.5 39t-72.5 105q-58 -65 -125.5 -104.5t-142.5 -39.5q-90 0 -155 46.5t-98.5 122.5t-33.5 165zM240 223q0 -74 31.5 -130t101.5 -56q75 0 145.5 55t118.5 127q2 2 2 6l113 447q-13 72 -56.5 123t-109.5 51 q-84 0 -152 -72.5t-106 -165.5q-31 -79 -59.5 -195t-28.5 -190z" />
<glyph unicode="b" horiz-adv-x="901" d="M92 305q0 92 19 144l200 796q8 34 8 51q0 31 -129 31q-22 0 -22 27q0 13 7 29t22 16l278 22q12 0 19.5 -6.5t7.5 -17.5v-8l-150 -594q119 110 238 110q88 0 154 -46.5t99.5 -122.5t33.5 -165q0 -133 -69 -271.5t-187.5 -230.5t-251.5 -92q-131 0 -204 98t-73 230z M231 236q0 -78 34.5 -138.5t107.5 -60.5q84 0 153 73.5t105 163.5q33 81 60.5 196.5t27.5 188.5q0 74 -33 130.5t-100 56.5q-137 0 -267 -182l-55 -226q-33 -142 -33 -202z" />
<glyph unicode="c" horiz-adv-x="909" d="M84 328q0 105 46 209t127 188t182 132t208 48q61 0 117.5 -18.5t94.5 -59t38 -100.5q0 -54 -34 -94.5t-87 -40.5q-32 0 -56 21.5t-24 54.5q0 46 33.5 81t79.5 35q-24 32 -70.5 47t-93.5 15q-122 0 -212.5 -97.5t-137.5 -238.5t-47 -258q0 -90 48.5 -152.5t135.5 -62.5 q124 0 239 53.5t187 149.5q5 8 19 8q13 0 23.5 -11.5t10.5 -23.5q0 -8 -6 -14q-79 -108 -207 -165t-270 -57q-98 0 -177.5 46t-123 127t-43.5 178z" />
<glyph unicode="d" horiz-adv-x="1090" d="M82 311q0 99 39.5 204t110.5 194t164.5 142.5t193.5 53.5q61 0 110.5 -31.5t79.5 -87.5l115 459q8 34 8 51q0 31 -129 31q-22 0 -22 27q0 13 7 29t21 16l279 22q12 0 19 -6.5t7 -17.5v-8l-292 -1172q0 -13 -6.5 -43t-6.5 -47q0 -90 60 -90q65 0 95.5 73.5t57.5 188.5 q2 7 7.5 12.5t13.5 5.5h24q11 0 16 -7.5t5 -18.5q-26 -98 -46.5 -155.5t-64.5 -108t-112 -50.5q-70 0 -126.5 39t-72.5 105q-58 -65 -125.5 -104.5t-142.5 -39.5q-90 0 -155 46.5t-98.5 122.5t-33.5 165zM240 223q0 -74 31.5 -130t101.5 -56q75 0 145.5 55t118.5 127 q2 2 2 8l113 445q-13 72 -56.5 123t-109.5 51q-84 0 -152 -72.5t-106 -165.5q-31 -79 -59.5 -195t-28.5 -190z" />
<glyph unicode="e" horiz-adv-x="977" d="M94 352q0 147 76 275.5t203.5 203t273.5 74.5q92 0 162 -46t70 -132q0 -91 -60.5 -145.5t-155.5 -80t-180.5 -31t-191.5 -5.5h-8q-29 -128 -29 -197q0 -94 44.5 -162.5t133.5 -68.5q124 0 239 53.5t187 149.5q5 8 19 8q13 0 23.5 -11.5t10.5 -23.5q0 -8 -6 -14 q-79 -108 -207 -165t-270 -57q-153 0 -243.5 109.5t-90.5 265.5zM299 524q196 0 346 35.5t150 165.5q0 57 -45.5 89t-104.5 32q-130 0 -219 -92.5t-127 -229.5z" />
<glyph unicode="f" horiz-adv-x="1020" d="M111 -274q0 52 34.5 90.5t85.5 38.5q33 0 56.5 -21t23.5 -55q0 -41 -28 -74.5t-70 -40.5q33 -24 86 -24q64 0 107 114q20 56 114 557l94 500h-180q-22 0 -22 27q0 13 7 29t21 16h187l24 135q12 60 21 101.5t25 90t30 76.5q36 69 97.5 113.5t131.5 44.5q77 0 135 -37.5 t58 -108.5q0 -52 -34.5 -90.5t-84.5 -38.5q-34 0 -58 21.5t-24 54.5q0 41 28.5 74t70.5 41q-33 24 -91 24q-46 0 -86 -61q-14 -38 -63 -307l-25 -133h215q12 0 18.5 -7.5t6.5 -17.5q0 -16 -7.5 -31.5t-21.5 -15.5h-223l-94 -502q-18 -107 -43.5 -224t-67.5 -231.5 t-109.5 -194t-158.5 -79.5q-47 0 -89 16.5t-69.5 49.5t-27.5 80z" />
<glyph unicode="g" horiz-adv-x="1004" d="M33 -291q0 50 34.5 87.5t84.5 37.5q32 0 55.5 -21t23.5 -55q0 -72 -67 -106q55 -12 170 -12q95 0 176 69t104 162l60 235q-119 -106 -236 -106q-89 0 -154.5 44.5t-101 121.5t-35.5 162q0 131 69.5 266t187 223t249.5 88q58 0 110.5 -32.5t80.5 -84.5q8 33 33 54.5 t57 21.5q29 0 47 -16.5t18 -44.5q0 -12 -2 -19l-229 -921q-23 -89 -91 -152.5t-160.5 -97t-182.5 -33.5q-121 0 -211 22.5t-90 106.5zM307 242q0 -72 33 -127.5t102 -55.5q76 0 143 51.5t120 127.5l110 440q-13 71 -55.5 119.5t-110.5 48.5q-83 0 -150.5 -70t-107.5 -164 q-29 -75 -56.5 -188.5t-27.5 -181.5z" />
<glyph unicode="h" horiz-adv-x="1212" d="M111 39q0 12 2 18l297 1188q8 34 8 51q0 31 -129 31q-23 0 -23 27q0 13 7 29t22 16l278 22h9q9 -4 13.5 -10.5t4.5 -13.5v-8l-160 -635q131 151 305 151q113 0 180.5 -57.5t67.5 -167.5q0 -85 -36.5 -197.5t-94.5 -265.5q-26 -67 -26 -119q0 -61 43 -61q80 0 135 84 t78 178q2 7 7.5 12.5t12.5 5.5h25q10 0 15 -7.5t5 -18.5q-29 -119 -102.5 -216.5t-177.5 -97.5q-76 0 -129.5 48.5t-53.5 124.5q0 42 15 75q59 151 98 274t39 212q0 58 -25 96.5t-80 38.5q-113 0 -197 -71.5t-145 -188.5l-135 -539q-10 -31 -33.5 -50.5t-54.5 -19.5 q-29 0 -47 17t-18 45z" />
<glyph unicode="i" horiz-adv-x="719" d="M55 592q20 78 56.5 147.5t93.5 117.5t131 48q75 0 127.5 -47t52.5 -125q0 -38 -12 -76l-170 -440q-24 -65 -27 -119q0 -23 10.5 -42t34.5 -19q80 0 133.5 81.5t77.5 180.5q2 7 7.5 12.5t13.5 5.5h24q11 0 16 -7.5t5 -18.5q-29 -119 -102.5 -216.5t-178.5 -97.5 q-75 0 -128.5 48.5t-53.5 124.5q0 33 14 75l170 441q25 68 25 118q0 62 -43 62q-80 0 -133.5 -82t-77.5 -180q-4 -19 -21 -19h-24q-11 0 -16 9t-5 18zM399 1239q0 45 37 80t82 35q34 0 57 -22t23 -56q0 -47 -36 -81t-81 -34q-34 0 -58 22t-24 56z" />
<glyph unicode="j" horiz-adv-x="860" d="M-29 -289q0 50 34.5 86.5t84.5 36.5q33 0 56.5 -21t23.5 -55t-20.5 -64t-55.5 -44q29 -10 66 -10q59 0 109 38t85 98t49 118l193 772q12 45 12 90q0 90 -59 90q-92 0 -160 -80t-113 -188q-4 -13 -16 -13h-24q-11 0 -16 9t-5 18q51 127 136 220t202 93q57 0 103 -24 t73 -67t27 -99q0 -29 -6 -58l-193 -772q-22 -84 -83 -154.5t-145 -110.5t-173 -40q-68 0 -126.5 33t-58.5 98zM633 1239q0 45 36 80t83 35q32 0 55.5 -22.5t23.5 -55.5q0 -47 -35 -81t-81 -34q-34 0 -58 22t-24 56z" />
<glyph unicode="k" horiz-adv-x="1096" d="M111 39q0 12 2 18l297 1188q8 34 8 51q0 31 -129 31q-23 0 -23 27q0 13 7 29t22 16l278 22h9q9 -4 13.5 -10.5t4.5 -13.5v-8l-211 -844q60 25 103 64t135 130t153.5 128.5t141.5 37.5q60 0 99.5 -40.5t39.5 -100.5q0 -55 -33.5 -96t-87.5 -41q-32 0 -56 21t-24 54 q0 46 35.5 81.5t81.5 35.5q-20 27 -59 27q-74 0 -144.5 -51.5t-169 -149t-149.5 -129.5q123 -14 213 -63t90 -154q0 -19 -8 -55q-14 -61 -17 -113q0 -94 64 -94q73 0 113.5 80.5t64.5 181.5q2 7 7.5 12.5t12.5 5.5h25q10 0 15 -7.5t5 -18.5q-32 -127 -89.5 -220.5 t-157.5 -93.5q-90 0 -147.5 59.5t-57.5 147.5q0 22 8 68q6 21 6 43q0 53 -36.5 89t-92 54t-104.5 23l-105 -414q-10 -31 -33.5 -50.5t-54.5 -19.5q-29 0 -47 17t-18 45z" />
<glyph unicode="l" horiz-adv-x="627" d="M88 168q0 29 6 59l256 1018q8 34 8 51q0 31 -129 31q-22 0 -22 27q0 13 7 29t22 16l278 22q12 0 19.5 -6.5t7.5 -17.5v-8l-293 -1172q0 -9 -6 -41t-6 -49q0 -90 59 -90q63 0 92.5 72t58.5 190q7 18 21 18h25q10 0 15 -7.5t5 -18.5q-34 -138 -79 -226t-142 -88 q-57 0 -103 24t-73 67.5t-27 99.5z" />
<glyph unicode="m" horiz-adv-x="1853" d="M55 592q37 141 82.5 227t141.5 86q50 0 96.5 -21.5t76 -61t29.5 -89.5q63 80 145.5 126t176.5 46q97 0 171.5 -50t74.5 -142q41 56 93.5 99.5t114 68t129.5 24.5q113 0 180.5 -57.5t67.5 -167.5q0 -85 -36.5 -197.5t-94.5 -265.5q-26 -67 -26 -119q0 -61 43 -61 q80 0 135 84t78 178q2 7 7.5 12.5t12.5 5.5h25q10 0 15 -7.5t5 -18.5q-29 -119 -102.5 -216.5t-177.5 -97.5q-76 0 -129.5 48.5t-53.5 124.5q0 42 15 75q59 151 98 274t39 212q0 58 -25 96.5t-80 38.5q-113 0 -197 -71.5t-145 -188.5q-1 -4 -1.5 -7.5t-2.5 -9.5l-129 -518 q-8 -32 -33.5 -53t-56.5 -21q-29 0 -47 17t-18 45q0 12 2 20l129 519q20 90 20 133q0 35 -9.5 66t-32.5 50t-62 19q-113 0 -197 -71t-145 -187l-133 -537q-7 -31 -33.5 -52.5t-57.5 -21.5q-27 0 -46 17t-19 45q0 12 2 20l152 607q12 45 12 90q0 90 -60 90q-65 0 -95.5 -73.5 t-57.5 -188.5q-4 -19 -21 -19h-24q-11 0 -16 9t-5 18z" />
<glyph unicode="n" horiz-adv-x="1270" d="M55 592q37 141 82.5 227t141.5 86q50 0 96.5 -21.5t76 -61t29.5 -89.5q63 80 145.5 126t176.5 46q113 0 180.5 -57.5t67.5 -167.5q0 -85 -36.5 -197.5t-94.5 -265.5q-27 -65 -27 -119q0 -61 43 -61q55 0 99.5 42.5t72 103t41.5 116.5q2 7 7.5 12.5t12.5 5.5h25 q10 0 15 -7.5t5 -18.5q-30 -121 -102.5 -217.5t-177.5 -96.5q-75 0 -128.5 48.5t-53.5 124.5q0 41 14 75q59 151 98 274t39 212q0 35 -9.5 66t-32.5 50t-62 19q-113 0 -197 -71t-145 -187l-133 -537q-7 -31 -33.5 -52.5t-57.5 -21.5q-27 0 -46 17t-19 45q0 12 2 20l152 607 q12 45 12 90q0 90 -60 90q-65 0 -95.5 -73.5t-57.5 -188.5q-4 -19 -21 -19h-24q-11 0 -16 9t-5 18z" />
<glyph unicode="o" horiz-adv-x="1018" d="M84 328q0 105 46 209t127 188t182 132t208 48q98 0 178 -46t123 -126.5t43 -177.5q0 -105 -46 -209.5t-127 -188.5t-181.5 -132t-208.5 -48q-98 0 -177.5 46t-123 127t-43.5 178zM248 252q0 -57 20.5 -107t61.5 -79t100 -29q122 0 212.5 97.5t137.5 238.5t47 258 q0 56 -20.5 106.5t-61 79.5t-100.5 29q-122 0 -212.5 -97.5t-137.5 -238.5t-47 -258z" />
<glyph unicode="p" horiz-adv-x="1055" d="M-66 -373q0 16 7.5 31.5t21.5 15.5q67 0 91 11.5t38 64.5l230 916q0 9 6 41t6 49q0 90 -60 90q-65 0 -95.5 -73.5t-57.5 -188.5q-4 -19 -21 -19h-24q-11 0 -16 9t-5 18q37 141 82.5 227t141.5 86q71 0 125.5 -38t70.5 -105q132 143 270 143q90 0 155 -46.5t98.5 -122.5 t33.5 -165q0 -97 -39.5 -202.5t-109.5 -194.5t-164 -143t-195 -54q-61 0 -110 32t-80 87l-90 -360q-2 -12 -4 -21.5t-2 -15.5q0 -25 131 -25q10 0 16 -7t6 -19q0 -45 -37 -45h-397q-8 0 -15.5 8.5t-7.5 15.5zM362 211q15 -73 56.5 -123.5t109.5 -50.5q84 0 153 73.5 t105 163.5q33 81 60.5 196.5t27.5 188.5q0 75 -32.5 131t-100.5 56q-136 0 -266 -182q0 -7 -2 -9z" />
<glyph unicode="q" horiz-adv-x="940" d="M82 311q0 99 39.5 204t110.5 194t164.5 142.5t193.5 53.5q63 0 116 -37t80 -96q21 33 71.5 83t74.5 50q10 0 17 -7t7 -17v-9l-284 -1136q-2 -12 -4 -21.5t-2 -15.5q0 -25 131 -25q10 0 16 -7t6 -19q0 -45 -37 -45h-440q-8 0 -15.5 8.5t-7.5 15.5q0 16 7.5 31.5t21.5 15.5 q82 0 117 7q19 4 29 13t15 20t11 36l84 338q-119 -111 -235 -111q-90 0 -155 46.5t-98.5 122.5t-33.5 165zM240 223q0 -74 31.5 -130t101.5 -56q76 0 145.5 54t118.5 128l115 453q-13 72 -56.5 123t-109.5 51q-84 0 -152 -72.5t-106 -165.5q-31 -79 -59.5 -195t-28.5 -190z " />
<glyph unicode="r" horiz-adv-x="948" d="M55 592q37 141 82.5 227t141.5 86q70 0 126 -39.5t72 -105.5q114 145 266 145q68 0 118 -40t50 -107q0 -53 -33.5 -92t-84.5 -39q-32 0 -56 21t-24 54q0 45 30.5 78.5t75.5 38.5q-31 27 -80 27q-154 0 -272 -215l-143 -580q-7 -31 -33.5 -52.5t-57.5 -21.5q-27 0 -46 17 t-19 45q0 12 2 20l152 607q12 45 12 90q0 90 -60 90q-65 0 -95.5 -73.5t-57.5 -188.5q-4 -19 -21 -19h-24q-11 0 -16 9t-5 18z" />
<glyph unicode="s" horiz-adv-x="979" d="M109 176q0 57 32.5 99t87.5 42q35 0 57.5 -21t22.5 -54q0 -48 -34.5 -82.5t-84.5 -34.5q50 -88 222 -88q68 0 135 23t111 71.5t44 118.5q0 52 -40.5 85.5t-96.5 45.5l-116 22q-49 9 -89 37t-64 70.5t-24 91.5q0 91 51 160.5t132.5 106t173.5 36.5q60 0 116.5 -18t95 -59 t38.5 -101q0 -47 -27.5 -83t-75.5 -36q-28 0 -47.5 18.5t-19.5 45.5q0 37 28 67.5t64 30.5q-20 41 -69.5 58.5t-106.5 17.5q-55 0 -106.5 -20t-84.5 -58.5t-33 -95.5q0 -40 30 -67t75 -38l115 -22q88 -18 149 -79.5t61 -148.5q0 -75 -43 -148t-106 -118q-114 -74 -272 -74 q-71 0 -139.5 19.5t-115 64.5t-46.5 115z" />
<glyph unicode="t" horiz-adv-x="760" d="M47 838q0 14 7.5 29.5t21.5 15.5h227l82 327q8 32 33.5 52t56.5 20q28 0 47 -17t19 -44q0 -13 -2 -19l-80 -319h211q11 0 17.5 -7.5t6.5 -17.5q0 -15 -7.5 -31t-20.5 -16h-224l-149 -594q-12 -46 -12 -90q0 -90 59 -90q64 0 116.5 41t91.5 103t62 122q2 6 7 10t12 4h24 q11 0 16 -7.5t5 -18.5q-32 -78 -80 -149.5t-113 -118t-145 -46.5q-57 0 -103 24t-73 67.5t-27 99.5q0 30 6 57l148 586h-215q-25 0 -25 27z" />
<glyph unicode="u" horiz-adv-x="1210" d="M55 592q20 78 56.5 147.5t93.5 117.5t131 48q77 0 129.5 -47.5t52.5 -124.5q0 -41 -14 -76q-7 -20 -41.5 -110t-50.5 -142.5t-26.5 -103.5t-10.5 -102q0 -68 29.5 -115t93.5 -47q135 0 233 162q0 6 4 26l146 586q8 32 34 52t58 20q26 0 44.5 -17.5t18.5 -44.5 q0 -12 -2 -18l-145 -586q-12 -46 -12 -90q0 -90 59 -90q65 0 96.5 76t57.5 186q2 7 7.5 12.5t12.5 5.5h25q10 0 15 -7.5t5 -18.5q-26 -98 -46.5 -155.5t-64.5 -108t-112 -50.5q-65 0 -118.5 34t-76.5 95q-48 -59 -109 -94t-132 -35q-83 0 -143 29t-93 85t-33 136 q0 65 17.5 137.5t43.5 141t62 160.5q27 65 27 118q0 27 -10.5 44.5t-34.5 17.5q-80 0 -133.5 -82t-77.5 -180q-4 -19 -21 -19h-24q-11 0 -16 9t-5 18z" />
<glyph unicode="v" horiz-adv-x="1022" d="M55 592q20 78 56.5 147.5t93.5 117.5t131 48q77 0 129.5 -47t52.5 -125q0 -41 -14 -76q-21 -56 -47.5 -125t-42.5 -120.5t-26.5 -101.5t-10.5 -99q0 -78 37.5 -126t113.5 -48q149 0 258 223q33 64 66 159t33 154q0 58 -18 90.5t-52.5 73.5t-34.5 62q0 41 33.5 74.5 t75.5 33.5q51 0 73.5 -47t22.5 -104q0 -96 -32 -227.5t-93 -259t-146.5 -210t-189.5 -82.5q-133 0 -214 65t-81 196q0 45 12 103.5t26 102.5t39 108.5t44 113.5q27 65 27 118q0 27 -10.5 44.5t-34.5 17.5q-80 0 -133.5 -82t-77.5 -180q-4 -19 -21 -19h-24q-11 0 -16 9t-5 18 z" />
<glyph unicode="w" horiz-adv-x="1507" d="M55 592q20 78 56.5 147.5t93.5 117.5t131 48q77 0 129.5 -47.5t52.5 -124.5q0 -41 -14 -76q-1 -4 -32.5 -86t-50 -138t-30.5 -111.5t-12 -104.5q0 -83 42.5 -131.5t123.5 -48.5q110 0 180 162v39q0 65 14 120l113 453q8 32 34 52t58 20q28 0 46 -17t18 -45q0 -12 -2 -18 l-113 -453q-21 -99 -21 -139q0 -76 38 -125t114 -49q87 0 146.5 67.5t99.5 167.5q31 80 56.5 165.5t25.5 135.5q0 58 -18 90.5t-52.5 73.5t-34.5 62q0 42 34 75t75 33q51 0 73.5 -47t22.5 -106q0 -62 -18.5 -152t-46 -181.5t-48.5 -141.5q-32 -80 -74.5 -147t-103.5 -111 t-141 -44q-98 0 -157 28t-111 106q-85 -134 -211 -134q-90 0 -160 27.5t-111 87t-41 150.5q0 62 18 131.5t47 145.5t56 147q27 65 27 118q0 27 -10.5 44.5t-34.5 17.5q-80 0 -133.5 -82t-77.5 -180q-4 -19 -21 -19h-24q-11 0 -16 9t-5 18z" />
<glyph unicode="x" horiz-adv-x="1192" d="M63 127q0 51 34 90t87 39q33 0 56.5 -21t23.5 -55q0 -40 -28 -73.5t-70 -40.5q40 -29 102 -29q66 0 114.5 58t66.5 130l92 367q20 86 20 129q0 51 -29 88t-79 37q-95 0 -170.5 -79.5t-102.5 -182.5q-4 -19 -20 -19h-25q-20 0 -20 27q30 123 126 218t216 95 q76 0 138.5 -39t88.5 -106q36 62 92 103.5t121 41.5q77 0 139 -38t62 -111q0 -52 -32.5 -90.5t-86.5 -38.5q-32 0 -56 21t-24 54q0 42 28 74.5t70 40.5q-41 29 -104 29q-66 0 -114 -58.5t-66 -130.5l-92 -366q-21 -82 -21 -127q0 -53 29.5 -90t81.5 -37q65 0 121.5 38.5 t96 100.5t54.5 123q2 7 7.5 12.5t13.5 5.5h24q9 0 15 -8.5t6 -17.5q-20 -79 -70 -151.5t-122 -117.5t-150 -45q-77 0 -139.5 38.5t-90.5 107.5q-34 -61 -90.5 -103.5t-120.5 -42.5q-78 0 -140.5 38t-62.5 112z" />
<glyph unicode="y" horiz-adv-x="1036" d="M55 592q20 78 56.5 147.5t93.5 117.5t131 48q77 0 129.5 -47t52.5 -125q0 -41 -14 -76q-7 -20 -41.5 -110t-50.5 -142.5t-26.5 -103.5t-10.5 -102q0 -68 29.5 -115t93.5 -47q131 0 229 158l154 616q8 32 34 52t58 20q26 0 44.5 -17.5t18.5 -44.5q0 -12 -2 -18l-200 -807 q-29 -111 -103 -206t-178 -152.5t-215 -57.5q-57 0 -109.5 20.5t-85 61.5t-32.5 98t33.5 97.5t86.5 40.5q33 0 56.5 -21t23.5 -55q0 -46 -34.5 -81.5t-81.5 -35.5q20 -35 59.5 -50t85.5 -15q74 0 134 40t101.5 101.5t71.5 136.5t47 143q-91 -84 -198 -84q-83 0 -143 29 t-93 85t-33 136q0 65 17.5 137.5t43.5 141t62 160.5q27 65 27 118q0 27 -10.5 44.5t-34.5 17.5q-80 0 -133.5 -82t-77.5 -180q-4 -19 -21 -19h-24q-11 0 -16 9t-5 18z" />
<glyph unicode="z" horiz-adv-x="979" d="M84 0q0 8 4 12q58 98 136.5 183t177.5 171.5t199.5 174.5t164.5 157q-29 0 -73.5 10.5t-79 20.5t-64.5 16.5t-64 6.5q-55 0 -106 -21.5t-64 -68.5q-4 -19 -20 -19h-25q-20 0 -20 27q14 55 53.5 111t94 90t116.5 34q41 0 73 -21t66 -56.5t58 -52.5t57 -17q38 0 64.5 26.5 t57.5 72.5t44 48h24q8 0 14.5 -6.5t6.5 -15.5q0 -7 -4 -11q-74 -124 -173.5 -223t-261.5 -237.5t-247 -231.5h4q24 4 35 4q40 0 89.5 -13t98.5 -26.5t90 -13.5q82 0 156 48t92 122q2 7 7.5 12.5t13.5 5.5h24q11 0 16 -7.5t5 -18.5q-18 -78 -67 -151t-121 -119t-152 -46 q-41 0 -70 18.5t-63 54.5t-60.5 55.5t-60.5 19.5q-50 0 -88.5 -30t-72.5 -73.5t-40 -44.5h-25q-9 0 -14.5 7t-5.5 16z" />
<glyph unicode="{" horiz-adv-x="684" d="M55 592q20 78 56.5 147.5t93.5 117.5t131 48q75 0 127.5 -47t52.5 -125q0 -38 -12 -76l-170 -440q-24 -65 -27 -119q0 -23 10.5 -42t34.5 -19q80 0 133.5 81.5t77.5 180.5q2 7 7.5 12.5t13.5 5.5h24q11 0 16 -7.5t5 -18.5q-29 -119 -102.5 -216.5t-178.5 -97.5 q-75 0 -128.5 48.5t-53.5 124.5q0 33 14 75l170 441q25 68 25 118q0 62 -43 62q-80 0 -133.5 -82t-77.5 -180q-4 -19 -21 -19h-24q-11 0 -16 9t-5 18z" />
<glyph unicode="|" horiz-adv-x="801" d="M-29 -289q0 50 34.5 86.5t84.5 36.5q33 0 56.5 -21t23.5 -55q0 -35 -19.5 -63.5t-52.5 -42.5q40 -12 80 -12q83 0 141.5 78.5t83.5 175.5l193 772q12 45 12 90q0 90 -59 90q-92 0 -160 -80t-113 -188q-4 -13 -16 -13h-24q-11 0 -16 9t-5 18q51 127 136 220t202 93 q57 0 103 -24t73 -67t27 -99q0 -29 -6 -58l-193 -772q-21 -81 -79 -152t-137.5 -112t-164.5 -41q-78 0 -141.5 31t-63.5 100z" />
<glyph unicode="}" horiz-adv-x="1337" d="M156 -254q0 180 90 416q-41 53 -58.5 99.5t-17.5 109.5q0 94 45 228.5t124.5 231.5t176.5 97q25 0 25 -27q-5 -33 -23 -33q-66 0 -120 -80t-85.5 -186t-31.5 -172q0 -76 34 -119q57 107 128 199t162 167.5t196.5 119t220.5 43.5q87 0 150 -42.5t97 -115t34 -158.5 q0 -92 -37.5 -189t-106.5 -179t-157.5 -130.5t-184.5 -48.5q-78 0 -133 50t-55 129q0 100 63 100q19 0 33 -12t14 -33q0 -19 -12.5 -36t-32.5 -21q0 -50 38 -83.5t89 -33.5q104 0 182.5 96t119 228.5t40.5 230.5q0 77 -36 132.5t-109 55.5q-142 0 -270 -74.5t-227 -194 t-163 -253.5l179 -219q43 -56 43 -135q0 -71 -36 -153t-99.5 -137.5t-139.5 -55.5q-77 0 -113 53t-36 135zM217 -262q0 -121 90 -121q65 0 112.5 77.5t47.5 147.5q0 46 -23 76l-149 186q-78 -227 -78 -366z" />
<glyph unicode="~" d="M375 1262q0 34 39 43h735q-20 25 -35.5 58.5t-15.5 57.5q0 18 12.5 31.5t30.5 13.5q13 0 25.5 -8t17.5 -22q23 -94 100 -138q23 -13 23 -36q0 -29 -23 -39q-114 -54 -188 -150q-16 -18 -35 -18t-32 13t-13 32q0 37 94 117h-696q-39 7 -39 45z" />
<glyph horiz-adv-x="1403" d="M113 43q0 36 39 63l256 164q31 41 76.5 126.5t77.5 169.5t32 130q0 33 -14 33q-26 0 -82 -6t-101 -19.5t-63 -37.5q-4 -8 -7 -14.5t-7 -10.5t-13 -4h-18q-12 0 -18.5 7.5t-6.5 17.5q0 4 2 8q30 101 129 157t211 56q64 0 64 -113q0 -63 -20.5 -138t-52.5 -148t-69 -138 l789 508q65 37 119 37q63 0 71 -51q0 -36 -37 -62l-256 -166q-30 -38 -76.5 -125t-78 -169t-31.5 -132q0 -32 14 -32q61 0 142 16t102 47q3 3 10 16t19 13h18q10 0 16.5 -7.5t6.5 -17.5v-8q-30 -101 -129.5 -157t-212.5 -56q-62 0 -62 113q0 63 20.5 139t52.5 150.5 t69 134.5l-789 -506q-59 -39 -119 -39q-62 0 -73 51z" />
<glyph unicode="&#xa1;" horiz-adv-x="1284" d="M84 27q0 14 7.5 29.5t21.5 15.5q114 0 166 12q27 10 45 63l278 1119q4 20 4 30q0 15 -6 19q-39 12 -160 12q-24 0 -24 27q0 14 7.5 29.5t20.5 15.5h1043q10 0 17 -8t7 -19l-47 -418q-4 -24 -24 -24h-19q-22 0 -22 28q2 26 4 46.5t4 48t4 61.5q0 99 -40.5 146t-103 57 t-175.5 10h-201q-59 0 -76 -10.5t-31 -65.5l-280 -1124q0 -4 -0.5 -7.5t-1.5 -8.5q0 -22 16 -27q57 -12 201 -12q11 0 17.5 -7.5t6.5 -17.5q0 -47 -36 -47h-601q-22 0 -22 27z" />
<glyph unicode="&#xa2;" horiz-adv-x="1753" d="M102 14q0 5 4 13l1076 1415q21 24 49 24h22q28 0 35 -24l369 -1417q0 -25 -23 -25h-1517q-15 0 -15 14zM289 160h1126l-287 1104z" />
<glyph unicode="&#xa3;" horiz-adv-x="1602" d="M102 504q0 170 75.5 339.5t205.5 305.5t295.5 215.5t335.5 79.5q118 0 218 -41t171.5 -116.5t110 -176t38.5 -221.5q0 -172 -74.5 -340t-203.5 -302t-293.5 -213t-337.5 -79q-116 0 -216 40t-173.5 115t-112.5 177t-39 217zM291 446q0 -181 95.5 -304.5t270.5 -123.5 q158 0 288.5 86.5t224.5 229t144 307t50 309.5q0 88 -23 166.5t-68.5 138t-114 94.5t-159.5 35q-154 0 -286.5 -89.5t-226.5 -232.5t-144.5 -306.5t-50.5 -309.5zM416 578v8l61 248q2 7 8 12.5t15 5.5h18q10 0 17.5 -9t7.5 -18q0 -10 -11 -43h633q3 15 5.5 30t9 26t20.5 14 h19q11 0 17.5 -8t6.5 -19q0 -2 -2 -6l-61 -248q-4 -18 -23 -18h-18q-10 0 -16.5 7.5t-6.5 17.5q0 7 3.5 20t6.5 25h-634q-4 -15 -6.5 -30.5t-9.5 -26.5t-19 -13h-19q-9 0 -15.5 7.5t-6.5 17.5z" />
<glyph unicode="&#xa4;" horiz-adv-x="1460" d="M76 27q0 13 7 29t21 16q71 0 127 37t93 100l4 4l4 4l712 1225q15 24 41 24h23q12 0 20.5 -7t8.5 -17l110 -1329q7 -27 44 -34t89 -7q10 0 16.5 -7.5t6.5 -17.5q0 -47 -37 -47h-492q-22 0 -22 27q0 14 7.5 29.5t21.5 15.5q153 0 170 57l-86 1045l-572 -979 q-16 -34 -16 -56q0 -67 106 -67q12 0 18.5 -7.5t6.5 -17.5q0 -47 -37 -47h-375q-20 0 -20 27z" />
<glyph unicode="&#xa5;" horiz-adv-x="1556" d="M113 29l57 299q4 18 23 18h18q10 0 16 -8t6 -19q-20 -118 -20 -147q0 -16 2 -16h1038q12 3 26 33t30 78.5t20 60.5q4 18 23 18h18q9 0 16 -8t7 -16v-9l-95 -297q-4 -16 -20 -16h-1141q-10 0 -17 9t-7 20zM375 1102q0 2 2 6l86 272q7 19 22 19h1117q8 0 16 -9t8 -18 l-51 -272q-4 -25 -23 -25h-18q-8 0 -16.5 9.5t-8.5 19.5q17 74 17 125q0 7 3 9.5t3 4.5q-16 8 -236 8h-4h-544q-197 0 -242 -8q-7 -1 -16 -18.5t-22 -51.5t-19 -51.5t-9 -27.5q-7 -19 -22 -19h-19q-24 0 -24 27zM436 575q0 3 2 7l76 305q4 18 23 18h18q10 0 16.5 -8.5 t6.5 -17.5v-7l-19 -71h682l23 86q4 18 22 18h19q10 0 16 -7.5t6 -18.5v-7l-76 -305q-7 -18 -22 -18h-19q-10 0 -17 9t-7 17q0 3 2 7l16 71h-682l-20 -86q-7 -18 -23 -18h-18q-11 0 -18 9t-7 17z" />
<glyph unicode="&#xa6;" horiz-adv-x="1741" d="M84 27q0 14 7.5 29.5t21.5 15.5q114 0 166 12q27 10 45 63l278 1119q4 20 4 30q0 15 -6 19q-39 12 -160 12q-24 0 -24 27q0 14 7.5 29.5t20.5 15.5h1375q10 0 16 -7.5t6 -17.5q0 -18 -7 -32.5t-22 -14.5q-112 0 -163 -12q-34 -12 -45 -64l-279 -1118q-4 -10 -4 -31 q0 -14 6 -18q39 -12 160 -12q10 0 16 -7.5t6 -17.5q0 -47 -36 -47h-547q-9 0 -16 9t-7 18q0 14 7.5 29.5t21.5 15.5q115 0 166 12q29 11 45 63l278 1119l17 61h-635l-297 -1194q-4 -10 -4 -31q0 -14 6 -18q39 -12 160 -12q10 0 16 -7.5t6 -17.5q0 -47 -37 -47h-547 q-22 0 -22 27z" />
<glyph unicode="&#xa7;" horiz-adv-x="1636" d="M123 27q0 10 10 20l660 574l-336 722q-2 3 -2 11q0 14 7.5 29.5t20.5 15.5h1180q9 0 17 -9t8 -18l-48 -418q-4 -24 -24 -24h-19q-22 0 -22 28q6 52 6 107q0 107 -36 165.5t-136 78.5q-90 18 -307 18h-418l287 -616q2 -4 2 -11q0 -13 -10 -20l-670 -586h471q174 0 265.5 8 t169 42.5t140 113.5t115.5 219q5 15 21 15h18q10 0 17.5 -8.5t7.5 -16.5q0 -6 -2 -8l-168 -443q-2 -6 -8.5 -11t-12.5 -5h-1180q-24 0 -24 27z" />
<glyph unicode="&#xa8;" horiz-adv-x="1227" d="M57 1112q0 40 43.5 112.5t81.5 110.5q109 109 234 109q111 0 178.5 -58t95 -150t27.5 -204q0 -63 -4 -96q86 209 224 358.5t327 149.5q65 0 112 -31.5t70.5 -84.5t23.5 -116q0 -118 -43 -118h-20q-21 0 -21 18q0 4 3 6q4 24 4 37q0 63 -51.5 97t-116.5 34 q-184 0 -302.5 -180t-177.5 -406v-8l-139 -559q-4 -16 -4 -22q0 -22 16 -27q58 -12 201 -12q12 0 18.5 -7.5t6.5 -17.5q0 -47 -37 -47h-651q-9 0 -16 9t-7 18q0 13 7 29t22 16q145 0 198 10q48 11 64 65l139 560q37 106 37 272q0 60 -10.5 113t-35 97t-69.5 70.5t-108 26.5 q-84 0 -155.5 -45t-90.5 -123q-3 -10 -12.5 -17t-20.5 -7h-20q-21 0 -21 18z" />
<glyph unicode="&#xa9;" horiz-adv-x="1403" d="M49 633q0 129 111.5 240.5t269 176t283.5 64.5l37 152q4 16 4 22q0 22 -17 27q-57 12 -202 12q-23 0 -23 27q0 45 37 45h639q5 0 10 -3.5t8.5 -10t3.5 -11.5q0 -15 -7.5 -31t-20.5 -16q-148 0 -199 -10q-47 -11 -63 -66l-35 -137q72 0 155 -24.5t152.5 -68.5 t114.5 -109.5t45 -145.5q0 -132 -112.5 -242.5t-274 -174.5t-287.5 -64l-37 -152q-4 -16 -4 -22q0 -22 16 -27q58 -12 201 -12q10 0 17.5 -8.5t7.5 -16.5q0 -47 -37 -47h-639q-9 0 -16 9t-7 18q0 13 7 29t22 16q145 0 199 10q47 11 63 65l33 138q-68 0 -148.5 25.5 t-150.5 72t-113 111t-43 139.5zM248 590q0 -212 272 -246l176 711q-128 -15 -230.5 -75t-160 -159.5t-57.5 -230.5zM692 344q75 0 173 41t155 96q42 41 71.5 94.5t44.5 113t15 120.5q0 78 -38 131t-99.5 80t-143.5 35z" />
<glyph unicode="&#xaa;" horiz-adv-x="1292" d="M53 1100q0 10 7.5 21.5t19.5 11.5h125q64 0 93.5 -47.5t29.5 -114.5q0 -43 -21 -140q-28 -114 -28 -202q0 -236 194 -281l229 918q5 13 5 22q0 21 -17 27q-57 12 -203 12q-22 0 -22 27q0 45 37 45h639q5 0 10 -3.5t8.5 -10t3.5 -11.5q0 -15 -7.5 -31t-20.5 -16 q-148 0 -199 -10q-47 -11 -64 -66l-225 -901q92 21 160.5 67.5t120 113t87 146.5t56.5 169q31 116 88.5 201.5t149.5 85.5h125q10 0 16 -7.5t6 -17.5q0 -12 -6.5 -23.5t-17.5 -11.5q-73 0 -119.5 -74t-71.5 -168q-20 -75 -46.5 -136.5t-64.5 -119.5t-88 -106 q-48 -48 -119 -90t-148.5 -68t-143.5 -26l-37 -152q-4 -16 -4 -22q0 -22 16 -27q58 -12 201 -12q11 0 17.5 -7.5t6.5 -17.5q0 -47 -36 -47h-639q-9 0 -16 9t-7 18q0 13 7 29t22 16q145 0 198 10q48 11 64 65l35 140q-163 20 -254.5 116.5t-91.5 260.5q0 79 24 182 q17 66 17 117q0 110 -76 110q-25 0 -25 27z" />
<glyph unicode="&#xad;" horiz-adv-x="1622" d="M170 29l2 284q0 7 8 15t15 8h18q8 0 16.5 -7.5t8.5 -15.5v-39q0 -122 12 -129q41 -8 133 -8h137q0 85 -23.5 160t-69.5 184.5t-68.5 183.5t-22.5 152q0 139 70 255.5t185.5 200t253 127.5t269.5 44q98 0 192.5 -26t170.5 -77t123 -132t47 -183q0 -117 -61.5 -228 t-164 -226.5t-204 -230t-148.5 -204.5h121q139 0 166 31q31 46 82 156q8 12 20 12h19q11 0 17.5 -7t6.5 -18q0 -8 -2 -10l-141 -287q-7 -14 -21 -14h-348q-24 0 -24 27q0 2 2 6q28 112 73 192.5t170 279.5t178.5 320t53.5 244q0 73 -24.5 131.5t-68 99.5t-103.5 62.5 t-134 21.5q-126 0 -232 -52.5t-183 -144t-117.5 -207t-40.5 -239.5q0 -88 24.5 -258.5t24.5 -265.5q0 -65 -9 -138.5t-36 -78.5h-348q-25 0 -25 29z" />
<glyph unicode="&#xae;" horiz-adv-x="1348" d="M84 328q0 105 46 209t127 188t182 132t208 48q81 0 148.5 -30.5t114.5 -84.5t72.5 -126t25.5 -150l2 -129q66 90 114.5 192.5t75.5 208.5q4 19 21 19h24q21 0 21 -27q-69 -275 -254 -491q0 -250 61 -250q41 0 64 21.5t41 53.5t26 33h25q20 0 20 -26q-15 -59 -67 -100.5 t-113 -41.5q-76 0 -126 47t-73 126q-100 -82 -213.5 -127.5t-230.5 -45.5q-98 0 -176.5 46t-122 127t-43.5 178zM248 252q0 -57 20.5 -107t61.5 -79t100 -29q220 0 428 178q-2 14 -2 45l-4 219q0 142 -44.5 254.5t-164.5 112.5q-121 0 -211 -97.5t-137 -238.5t-47 -258z" />
<glyph unicode="&#xaf;" horiz-adv-x="1186" d="M39 -371l315 1258q34 138 120.5 266.5t210 209.5t263.5 81q119 0 199 -75t80 -193q0 -72 -27.5 -138.5t-76 -123.5t-107.5 -95q66 -44 101.5 -120t35.5 -162q0 -141 -80 -273t-210.5 -213.5t-270.5 -81.5q-116 0 -209.5 59t-134.5 167l-144 -574q-4 -18 -20 -18h-25 q-20 0 -20 26zM293 324q0 -85 39.5 -152t108 -104t155.5 -37q122 0 211 95t135.5 232t46.5 252q0 104 -59 166q-70 -28 -144 -28q-66 0 -119 11t-53 48q0 76 195 76q68 0 125 -21q42 34 76.5 98.5t53.5 137.5t19 133q0 67 -36.5 110t-102.5 43q-125 0 -234.5 -75 t-184.5 -192t-105 -238l-115 -457q-12 -49 -12 -98zM688 813q31 -6 100 -6q29 0 64 10q-24 6 -49 6q-80 0 -115 -10z" />
<glyph unicode="&#xb0;" horiz-adv-x="1085" d="M33 537q23 93 83 178t147.5 137.5t182.5 52.5q191 0 287 -239q82 -204 82 -375q16 44 78.5 193t121.5 272t79 127h24q9 0 15 -7t6 -16q0 -4 -2 -10q-73 -141 -129.5 -263.5t-105 -246t-95.5 -266.5q-7 -66 -30 -188t-55 -222.5t-65 -105.5q-34 0 -34 45q0 46 21 133.5 t52.5 194.5t44.5 149q9 66 9 149q0 214 -72 365t-262 151q-106 0 -200 -59.5t-118 -157.5q-4 -18 -20 -18h-25q-20 0 -20 27z" />
<glyph unicode="&#xb1;" horiz-adv-x="932" d="M82 324q0 96 36.5 188.5t100 170.5t148.5 134t176 76q-61 108 -94 190t-33 166q0 94 63.5 153.5t161.5 59.5q40 0 143 -18t125 -29q35 -20 35 -53q0 -21 -12.5 -42.5t-32.5 -34.5t-43 -13q-25 0 -58.5 19.5t-66 41t-67 35.5t-72.5 14q-40 0 -73.5 -24.5t-33.5 -63.5 q0 -47 39.5 -115t83.5 -123.5t105 -127.5q62 -75 95.5 -163t33.5 -183q0 -88 -26.5 -195t-80.5 -203.5t-132.5 -155.5t-176.5 -59q-100 0 -178 46t-122 127.5t-44 181.5zM225 264q0 -100 53 -166.5t150 -66.5q80 0 137.5 80.5t87 191.5t29.5 189q0 150 -109 344 q-82 -23 -147 -83t-110 -142.5t-68 -174.5t-23 -172z" />
<glyph unicode="&#xb2;" horiz-adv-x="852" d="M96 371q0 106 45 201.5t121.5 164.5t175.5 107.5t203 38.5h121q13 0 22 -10.5t9 -22.5q0 -13 -12 -26t-27 -13h-117q-124 0 -211 -78t-125 -203h373q13 0 22 -9.5t9 -22.5t-12 -26t-27 -13h-383q-23 -99 -23 -162q0 -109 60 -184.5t169 -75.5q46 0 99 20t100 45l47 25 q16 0 27 -37q0 -29 -52.5 -54t-123 -42t-101.5 -17q-113 0 -201 50.5t-138 141t-50 202.5z" />
<glyph unicode="&#xb3;" horiz-adv-x="922" d="M94 338q0 161 75.5 338t200.5 323t267 220q-19 47 -19 96q0 117 48 117q13 0 21.5 -8t8.5 -23q0 -12 -6 -42t-6 -46q0 -39 12 -68q59 19 99 19q192 0 192 -62q0 -74 -215 -74q-61 0 -100 39q-118 -67 -220 -195.5t-164.5 -283t-62.5 -289.5q0 -225 205 -293l225 -73 q69 -22 114.5 -75t45.5 -126q0 -60 -29.5 -118t-83 -96t-114.5 -38q-47 0 -131 31t-84 67q0 10 11.5 20.5t23.5 10.5q13 -3 43.5 -23t62.5 -33t78 -13q42 0 70 39.5t28 82.5q0 46 -30 78.5t-76 46.5l-215 70q-136 45 -205.5 143.5t-69.5 237.5zM737 1196q20 -8 41 -8 q92 0 133 10q-39 6 -118 6q-18 0 -56 -8z" />
<glyph unicode="&#xb4;" d="M55 592q37 141 82.5 227t141.5 86q50 0 96.5 -21.5t76 -61t29.5 -89.5q63 80 145.5 126t176.5 46q113 0 180.5 -57.5t67.5 -167.5q0 -42 -15 -111l-235 -940q-8 -30 -33 -50.5t-57 -20.5q-27 0 -46.5 17t-19.5 44q1 5 1.5 8.5t0.5 10.5l236 940q20 90 20 133 q0 35 -9.5 66t-32.5 50t-62 19q-113 0 -197 -71t-145 -187l-133 -537q-7 -31 -33.5 -52.5t-57.5 -21.5q-27 0 -46 17t-19 45q0 12 2 20l152 607q12 45 12 90q0 90 -60 90q-65 0 -95.5 -73.5t-57.5 -188.5q-4 -19 -21 -19h-24q-11 0 -16 9t-5 18z" />
<glyph unicode="&#xb5;" horiz-adv-x="985" d="M84 408v4q0 153 41 311t113 303q48 96 117 190.5t158.5 161t182.5 66.5h2q97 0 155 -69t80.5 -166t22.5 -197q0 -102 -19.5 -209t-55 -213t-80.5 -195q-48 -96 -117 -190.5t-157.5 -161t-182.5 -66.5h-2q-140 0 -199 134t-59 297zM231 285q0 -248 115 -248q71 0 134 71 t111 173.5t81 205t55 189.5h-432q-22 -88 -34.5 -146.5t-21 -120t-8.5 -124.5zM313 748h432q64 254 64 389q0 247 -115 247q-132 0 -228.5 -208t-152.5 -428z" />
<glyph unicode="&#xb6;" horiz-adv-x="743" d="M111 150q0 41 14 75q34 90 58.5 167.5t43.5 144.5t39.5 143.5t38.5 153.5q8 31 33.5 51t56.5 20q28 0 47 -16.5t19 -44.5q0 -40 -36 -168t-79 -261t-67 -198q-27 -65 -27 -119q0 -61 45 -61q53 0 105.5 19.5t98.5 56.5t78 85.5t44 100.5q2 7 7.5 12.5t12.5 5.5h25 q10 0 15 -7.5t5 -18.5q-21 -86 -81 -158t-142.5 -114t-171.5 -42q-75 0 -128.5 48.5t-53.5 124.5z" />
<glyph unicode="&#xb8;" horiz-adv-x="1227" d="M106 39q0 32 27 59l588 561l-213 568q-21 58 -49.5 96.5t-79.5 38.5q-10 0 -18.5 8.5t-8.5 20.5q0 14 10.5 22t24.5 8q94 0 165.5 -25t102.5 -96l439 -1167q0 -1 12 -33t21 -49t20 -28q14 -16 14 -23q0 -8 -5.5 -15.5t-14.5 -7.5h-113q-46 11 -84 82l-196 527l-504 -578 q-37 -35 -70 -35q-27 0 -47.5 19.5t-20.5 46.5z" />
<glyph unicode="&#xb9;" horiz-adv-x="1268" d="M59 -381q1 5 1.5 8.5t0.5 10.5l299 1196q9 32 34.5 51.5t56.5 19.5q27 0 46 -16.5t19 -44.5q0 -13 -2 -19l-119 -475q-20 -94 -20 -139q0 -78 37.5 -126t113.5 -48q73 0 138 43q11 7 43.5 38.5t56 60.5t29.5 46l145 586q8 32 34 52t58 20q28 0 46 -17t18 -45 q0 -12 -2 -18l-146 -586q-12 -46 -12 -90q0 -90 59 -90q64 0 96 75.5t58 186.5q2 7 7.5 12.5t12.5 5.5h25q10 0 15 -7.5t5 -18.5q-18 -77 -42 -145t-68.5 -118.5t-112.5 -50.5t-124.5 39t-73.5 103q-121 -142 -269 -142q-127 0 -205 58l-102 -406q-8 -30 -33 -50.5 t-57 -20.5q-27 0 -46.5 17t-19.5 44z" />
<glyph unicode="&#xba;" horiz-adv-x="1036" d="M104 27q0 2 2 6l175 696q8 32 8 51q0 31 -129 31q-23 0 -23 27q0 13 7 29t22 16l278 22q27 0 27 -24v-9l-197 -788q125 42 232 115.5t195 173t151 218t94 243.5q8 31 33.5 51t56.5 20q28 0 47 -17t19 -46q0 -31 -24 -94t-59.5 -130.5t-55.5 -97.5q-71 -103 -148 -178 q-87 -87 -187 -154.5t-211.5 -114.5t-228.5 -71q-6 -2 -8 -2q2 0 -4 3t-10 3l-33 -6q-11 0 -20 8t-9 19z" />
<glyph unicode="&#xbb;" horiz-adv-x="922" d="M47 209q0 79 41.5 162t107.5 153t140 113q-59 37 -93 93.5t-34 121.5q0 139 108 244t252 145q-10 38 -10 74q0 117 47 117q13 0 22 -8t9 -23q0 -12 -6 -42t-6 -46q0 -24 8 -58q45 9 102 9q193 0 193 -62q0 -74 -215 -74q-67 0 -107 46q-97 -47 -159 -139.5t-62 -196.5 q0 -96 59 -152q78 25 154 25q193 0 193 -62q0 -74 -216 -74q-87 0 -167 27q-89 -48 -165.5 -145.5t-76.5 -188.5q0 -43 22.5 -77t56.5 -57t77 -40l374 -141q32 -12 56 -33t37.5 -51.5t13.5 -63.5q0 -88 -64.5 -156.5t-150.5 -68.5q-54 0 -149 30t-95 68q0 11 11 21t24 10 q3 -1 5.5 -1.5t6.5 -2.5q95 -65 201 -65q35 0 59.5 31t24.5 65q0 53 -55 71l-359 136q-93 36 -154 105.5t-61 160.5zM518 643q28 -8 62 -8q92 0 133 10q-37 6 -117 6q-45 0 -78 -8zM674 1198h178q-39 6 -119 6q-26 0 -53 -6h-6z" />
<glyph unicode="&#xbc;" horiz-adv-x="1204" d="M49 602q0 4 4 10q46 75 91 132.5t106 98t129 40.5h762q25 0 41 -16t16 -40q0 -31 -24 -55t-56 -24h-264q-32 -163 -35 -293q3 -183 58 -324q8 -16 12 -23.5t8 -19.5t4 -20q0 -37 -29.5 -64t-66.5 -27q-40 0 -62.5 49t-30 109t-7.5 111q0 115 18.5 219t60.5 283h-221 q-155 -615 -190 -701q-16 -39 -39 -53q-25 -17 -49 -17q-27 0 -47.5 17.5t-20.5 44.5q0 15 10 37q84 169 152 338t115 334h-134q-57 0 -102.5 -23t-69.5 -46t-56 -60.5t-38 -38.5h-24q-8 0 -14.5 8.5t-6.5 13.5z" />
<glyph unicode="&#xbd;" horiz-adv-x="1083" d="M59 -381q1 5 1.5 8.5t0.5 10.5l203 808q22 86 68 167t111.5 146.5t146 105.5t168.5 40q90 0 159.5 -46.5t105.5 -123.5t36 -168q0 -98 -41.5 -204.5t-114.5 -194t-167 -139.5t-199 -52q-61 0 -115.5 33.5t-87.5 91.5l-119 -473q-8 -30 -33 -50.5t-57 -20.5 q-27 0 -46.5 17t-19.5 44zM360 209q17 -76 62.5 -124t118.5 -48q89 0 162 75.5t112 170.5q32 76 58 185.5t26 182.5q0 78 -36 136.5t-109 58.5q-89 0 -158 -65t-112 -157.5t-66 -185.5z" />
<glyph unicode="&#xbe;" horiz-adv-x="1202" d="M78 305q0 98 43.5 202t118.5 189t171 136t199 51h529q24 0 40.5 -15.5t16.5 -40.5q0 -31 -24 -55t-56 -24h-250q58 -91 58 -211q0 -101 -42 -203t-116 -182t-170 -127.5t-199 -47.5q-140 0 -229.5 93.5t-89.5 234.5zM219 246q0 -88 48 -148.5t132 -60.5q113 0 199.5 84.5 t132 208t45.5 231.5q0 89 -49 138t-137 49q-119 0 -203 -77.5t-126 -194.5t-42 -230z" />
<glyph unicode="&#xbf;" horiz-adv-x="926" d="M49 602q0 2 4 10q46 75 91 132.5t106 98t129 40.5h645q25 0 41 -16t16 -40q0 -31 -24 -55t-56 -24h-378l-134 -697q-6 -33 -31.5 -55.5t-60.5 -22.5q-27 0 -46 18t-19 44q0 16 4 24l211 689h-187q-57 0 -102.5 -23t-69.5 -46t-56 -60.5t-38 -38.5h-24q-8 0 -14.5 8.5 t-6.5 13.5z" />
<glyph unicode="&#xc0;" horiz-adv-x="1139" d="M55 592q20 78 56.5 147.5t93.5 117.5t131 48q77 0 129.5 -47t52.5 -125q0 -41 -14 -76q-21 -53 -53.5 -138.5t-51 -156.5t-18.5 -131q0 -63 25 -107t71 -65.5t109 -21.5q99 0 196 92.5t158 221t61 222.5q0 61 -19.5 94t-52 71t-32.5 61q0 42 34 75t75 33q52 0 74 -46.5 t22 -104.5q0 -142 -66 -327.5t-184 -318.5t-268 -133q-154 0 -253.5 65t-99.5 210q0 60 18.5 130t46 142.5t54.5 141.5q27 65 27 118q0 27 -10.5 44.5t-34.5 17.5q-80 0 -133.5 -82t-77.5 -180q-4 -19 -21 -19h-24q-11 0 -16 9t-5 18z" />
<glyph unicode="&#xc1;" horiz-adv-x="1251" d="M98 348q0 111 57.5 213.5t151.5 180.5t209 123.5t221 45.5l123 492q2 7 7.5 12.5t13.5 5.5h24q21 0 21 -26l-121 -484q77 0 152 -28t131.5 -78.5t89 -119.5t32.5 -150q0 -111 -57.5 -213.5t-153.5 -182t-209.5 -124t-220.5 -44.5l-92 -372q-4 -19 -20 -19h-25 q-20 0 -20 27l92 364q-105 0 -199 49.5t-150.5 136t-56.5 191.5zM246 307q0 -118 76.5 -197t195.5 -79l205 821q-76 0 -164 -44.5t-151 -105.5q-76 -77 -119 -181.5t-43 -213.5zM586 31q71 0 161.5 45t153.5 104q76 79 119 183t43 212q0 80 -35 143t-97 98.5t-140 35.5z" />
<glyph unicode="&#xc2;" horiz-adv-x="1311" d="M61 -362q0 7 11 18l510 553q-62 206 -144.5 421.5t-152.5 215.5q-37 0 -61 -22t-42 -54.5t-26 -34.5h-25q-20 0 -20 27q13 60 66 101.5t116 41.5q99 0 154.5 -27t88 -78.5t70.5 -148.5q48 -122 103 -303l485 526q6 5 23 9q15 0 23.5 -10.5t8.5 -24.5q0 -9 -8 -19 l-510 -553q41 -134 83 -260t103.5 -251t108.5 -125q42 0 65 22t40.5 54t25.5 34h25q20 0 20 -26q-15 -60 -68 -102t-116 -42q-99 0 -154.5 27t-88 78.5t-70.5 148.5q-46 116 -103 303l-485 -526q-3 -2 -21 -8q-15 0 -25 11t-10 24z" />
<glyph unicode="&#xc3;" horiz-adv-x="1372" d="M55 592q20 78 56.5 147.5t93.5 117.5t131 48q77 0 129.5 -47.5t52.5 -124.5q0 -41 -14 -76q-22 -55 -51 -130.5t-48.5 -145.5t-19.5 -119q0 -100 63.5 -154t169.5 -67l340 1362q7 18 21 18h25q20 0 20 -26l-340 -1358h18q119 0 243.5 84.5t207 212t82.5 239.5 q0 58 -18 90.5t-52.5 73.5t-34.5 62q0 41 33.5 74.5t75.5 33.5q51 0 73.5 -47t22.5 -106q0 -111 -40.5 -244t-100.5 -223q-86 -128 -219.5 -219t-274.5 -91h-30l-95 -378q-8 -19 -20 -19h-25q-20 0 -20 27l92 375q-90 0 -175.5 33.5t-139.5 100t-54 160.5q0 52 19 119.5 t51 149.5t47 121q27 65 27 118q0 27 -10.5 44.5t-34.5 17.5q-80 0 -133.5 -82t-77.5 -180q-4 -19 -21 -19h-24q-11 0 -16 9t-5 18z" />
<glyph unicode="&#xc4;" horiz-adv-x="584" d="M539 1126q16 61 66.5 106.5t120 74.5t143.5 42t137 13q74 0 157 -20.5t143 -67t60 -121.5q0 -49 -25 -53h-24q-21 0 -21 26q2 7 2 21q0 71 -104.5 104t-196.5 33q-64 0 -151 -17t-157.5 -54.5t-84.5 -94.5q-4 -18 -20 -18h-25q-20 0 -20 26z" />
<glyph unicode="&#x2000;" horiz-adv-x="768" />
<glyph unicode="&#x2001;" horiz-adv-x="1536" />
<glyph unicode="&#x2002;" horiz-adv-x="768" />
<glyph unicode="&#x2003;" horiz-adv-x="1536" />
<glyph unicode="&#x2004;" horiz-adv-x="512" />
<glyph unicode="&#x2005;" horiz-adv-x="384" />
<glyph unicode="&#x2006;" horiz-adv-x="256" />
<glyph unicode="&#x2007;" horiz-adv-x="256" />
<glyph unicode="&#x2008;" horiz-adv-x="192" />
<glyph unicode="&#x2009;" horiz-adv-x="307" />
<glyph unicode="&#x200a;" horiz-adv-x="85" />
<glyph unicode="&#x2010;" horiz-adv-x="584" d="M117 512q0 15 11.5 27.5t29.5 15.5q49 0 100 18.5t85 55.5t34 90t-34 90t-85 55.5t-100 18.5q-41 7 -41 45q0 19 13.5 31t35.5 12q54 0 107.5 -17t97 -50t69 -80.5t25.5 -104.5q0 -76 -43.5 -133.5t-112.5 -88t-143 -30.5q-21 0 -35 12t-14 33z" />
<glyph unicode="&#x2011;" horiz-adv-x="584" d="M117 512q0 15 11.5 27.5t29.5 15.5q49 0 100 18.5t85 55.5t34 90t-34 90t-85 55.5t-100 18.5q-41 7 -41 45q0 19 13.5 31t35.5 12q54 0 107.5 -17t97 -50t69 -80.5t25.5 -104.5q0 -76 -43.5 -133.5t-112.5 -88t-143 -30.5q-21 0 -35 12t-14 33z" />
<glyph unicode="&#x2012;" horiz-adv-x="584" d="M117 512q0 15 11.5 27.5t29.5 15.5q49 0 100 18.5t85 55.5t34 90t-34 90t-85 55.5t-100 18.5q-41 7 -41 45q0 19 13.5 31t35.5 12q54 0 107.5 -17t97 -50t69 -80.5t25.5 -104.5q0 -76 -43.5 -133.5t-112.5 -88t-143 -30.5q-21 0 -35 12t-14 33z" />
<glyph unicode="&#x2013;" horiz-adv-x="1260" d="M117 512q0 15 34 27.5t87 15.5q144 0 294 18.5t250 55.5t100 90t-100 90t-250 55.5t-294 18.5q-121 7 -121 45q0 19 39.5 31t104.5 12q159 0 316.5 -17t285.5 -50t203 -80.5t75 -104.5q0 -76 -128 -133.5t-331 -88t-421 -30.5q-62 0 -103 12t-41 33z" />
<glyph unicode="&#x2014;" horiz-adv-x="2284" d="M117 512q0 15 67.5 27.5t173.5 15.5q289 0 589 18.5t500 55.5t200 90t-200 90t-500 55.5t-589 18.5q-241 7 -241 45q0 19 79.5 31t208.5 12q318 0 633 -17t571 -50t406 -80.5t150 -104.5q0 -76 -256 -133.5t-662 -88t-842 -30.5q-123 0 -205.5 12t-82.5 33z" />
<glyph unicode="&#x202f;" horiz-adv-x="307" />
<glyph unicode="&#x205f;" horiz-adv-x="384" />
<glyph unicode="&#x2219;" horiz-adv-x="1212" d="M111 39q0 12 2 20l192 775q8 31 33.5 51t56.5 20q28 0 47 -16.5t19 -44.5q0 -13 -2 -19l-72 -284q72 24 117 57.5t155 122t181.5 125.5t152.5 37q34 0 57 -21t23 -55q0 -46 -35.5 -81.5t-81.5 -35.5q-33 0 -56 22t-23 54q0 22 4 35q-69 -29 -117 -65.5t-133 -106.5 t-150 -107q86 0 174.5 -18.5t153.5 -67t65 -131.5q0 -34 -8 -61q-13 -64 -16 -113q0 -94 63 -94q74 0 114.5 80.5t64.5 181.5q2 7 7.5 12.5t12.5 5.5h25q10 0 15 -7.5t5 -18.5q-32 -127 -90 -220.5t-158 -93.5q-89 0 -146.5 59.5t-57.5 147.5q0 22 8 68q6 24 6 45 q0 66 -60 103.5t-141.5 51t-148.5 13.5l-103 -414q-8 -32 -33.5 -53t-56.5 -21q-29 0 -47 17t-18 45z" />
<glyph unicode="&#xe000;" horiz-adv-x="905" d="M0 905h905v-905h-905v905z" />
</font>
</defs>
</svg>
