<?xml version="1.0" standalone="no"?>
<!DOCTYPE svg PUBLIC "-//W3C//DTD SVG 1.1//EN" "http://www.w3.org/Graphics/SVG/1.1/DTD/svg11.dtd" >
<svg xmlns="http://www.w3.org/2000/svg">
<metadata>
This is a custom SVG webfont generated by Font Squirrel.
Copyright   : Copyright C 1994 Basil K Malyshev All Rights Reserved012BaKoMa Fonts Collection LevelB
</metadata>
<defs>
<font id="cmmi7Regular" horiz-adv-x="1198" >
<font-face units-per-em="2048" ascent="1638" descent="-410" />
<missing-glyph horiz-adv-x="500" />
<glyph unicode=" "  horiz-adv-x="500" />
<glyph unicode="&#x09;" horiz-adv-x="500" />
<glyph unicode="&#xa0;" horiz-adv-x="500" />
<glyph unicode="!" horiz-adv-x="1473" d="M72 307q0 283 219 561q8 15 31 15q9 0 17 -5t12.5 -12.5t4.5 -17.5q0 -12 -4 -19q-3 -7 -11.5 -17.5t-12.5 -16.5q-82 -107 -125 -215q-43 -110 -43 -197q0 -97 51 -165t145 -68q74 0 143 40t119 101q0 100 29 207.5t101 107.5q29 0 44 -22t15 -52q0 -49 -28 -125.5 t-58 -132.5q16 -56 56.5 -90t99.5 -34q96 0 191 63t155.5 159t60.5 191q0 60 -18.5 90.5t-55 71t-36.5 66.5q0 43 36.5 78.5t79.5 35.5q56 0 81.5 -51t25.5 -113q0 -82 -25 -184.5t-67.5 -200t-90.5 -159.5q-75 -98 -167 -157.5t-201 -59.5q-81 0 -134.5 43.5t-76.5 123.5 q-61 -76 -140 -121.5t-167 -45.5q-130 0 -193 94.5t-63 232.5z" />
<glyph unicode="&#x22;" horiz-adv-x="1104" d="M98 225q0 80 49.5 150t124.5 117q-75 56 -75 135q0 96 85 164t202 100.5t214 32.5q39 0 109.5 -15.5t124 -44.5t53.5 -67q0 -26 -20 -46t-45 -20q-20 0 -33 8q-100 66 -207 66q-47 0 -116 -8t-134 -26.5t-110.5 -53.5t-45.5 -86q0 -62 72 -103q100 39 201 39 q176 0 176 -65q0 -80 -201 -80q-110 0 -178 31q-66 -35 -117 -92t-51 -123t51.5 -101.5t122 -47t137.5 -11.5q84 0 145 6t118 31.5t86 79.5q10 16 28 16q29 -7 29 -35q-5 -15 -6 -16q-54 -104 -169.5 -152.5t-248.5 -48.5q-141 0 -256 68.5t-115 197.5zM455 494q34 -7 73 -7 q74 0 107 11q-29 4 -90 4q-53 0 -90 -8z" />
<glyph unicode="#" horiz-adv-x="1411" d="M92 588v8q33 127 86 217t150 90q56 0 109 -23t84.5 -66t31.5 -103q0 -18 -8 -56l-76 -309q-23 -90 -23 -143q0 -158 170 -158q99 0 179.5 119.5t133 269.5t85.5 279q-167 48 -275 129.5t-108 224.5q0 87 44.5 174.5t122 144t169.5 56.5q77 0 128.5 -40.5t82 -107 t43 -139.5t12.5 -147q0 -121 -35 -271q3 0 39 -5.5t56 -13t20 -22.5q0 -14 -8 -27.5t-23 -13.5q-39 8 -98 19q-27 -98 -80.5 -216.5t-126.5 -226.5t-168.5 -179.5t-196.5 -71.5q-327 0 -327 245q0 60 20 135l76 310q10 37 10 71q0 41 -15.5 69t-51.5 28q-65 0 -94.5 -66.5 t-61.5 -189.5q-3 -19 -21 -19h-32q-9 0 -16 9t-7 16zM709 1069q0 -115 89 -180.5t232 -110.5q21 87 36 178t15 168q0 252 -120 252q-70 0 -127 -47.5t-91 -120.5t-34 -139z" />
<glyph unicode="$" horiz-adv-x="1946" d="M86 602q0 4 4 12q175 269 350 269h1387q26 0 43.5 -16.5t17.5 -43.5q0 -33 -24.5 -59.5t-59.5 -26.5h-78q23 -69 23 -139q0 -126 -71.5 -273t-190.5 -246t-252 -99q-127 0 -186.5 93.5t-59.5 227.5q-84 -139 -205.5 -230t-263.5 -91q-107 0 -159 79t-52 191 q0 129 52.5 253t144.5 234h-86q-78 0 -133.5 -33.5t-97.5 -79t-48 -46.5h-32q-10 0 -16.5 7.5t-6.5 16.5zM395 309q0 -76 37.5 -130t110.5 -54q88 0 167.5 41t144 109.5t109 151t64.5 163.5q2 8 8.5 13t12.5 5h32q9 0 16 -7t7 -17v-9q-27 -100 -27 -196q0 -68 16 -124 t57 -93t107 -37q81 0 158 43.5t133.5 112.5t89.5 154.5t33 162.5q0 62 -24 139h-1047q-88 -97 -146.5 -208.5t-58.5 -219.5z" />
<glyph unicode="%" horiz-adv-x="1212" d="M195 -139q0 67 22.5 202t53 263t57.5 196q39 99 114 186.5t174 141t207 53.5q76 0 136 -26.5t103.5 -73.5t67 -110t23.5 -136q0 -103 -43.5 -206.5t-121.5 -187.5t-177.5 -133.5t-204.5 -49.5q-63 0 -120 22.5t-101 64.5t-68 101q-36 -164 -36 -252q0 -56 22 -81t78 -38 q49 -10 164 -10q276 0 327 -31q37 -27 37 -82q0 -65 -28 -71h-33q-23 0 -23 24v8q-4 17 -80 17q-50 0 -127.5 -5t-97.5 -5q-98 0 -167.5 13.5t-113.5 62t-44 143.5zM440 254q0 -85 43 -147t125 -62q98 0 176 76t119 176q31 76 53.5 176t22.5 168q0 52 -16.5 96.5t-53 72.5 t-90.5 28q-116 0 -202.5 -98t-131.5 -236.5t-45 -249.5z" />
<glyph unicode="&#x26;" horiz-adv-x="899" d="M104 440q0 137 93.5 243t235 163t274.5 57q73 0 155 -15.5t82 -58.5q0 -19 -15 -33t-32 -14q-6 0 -77 28t-118 28q-99 0 -208 -39t-183.5 -113t-74.5 -176q0 -59 36.5 -106.5t94.5 -73.5l319 -158q44 -22 71 -65t27 -93q0 -57 -30 -111t-81.5 -88t-109.5 -34 q-38 0 -93.5 14.5t-55.5 42.5q1 14 10.5 23.5t24.5 9.5q7 0 49.5 -12.5t68.5 -12.5q31 0 54.5 31t23.5 64q0 26 -16 47.5t-41 31.5l-301 150q-81 41 -132 113t-51 157z" />
<glyph unicode="'" horiz-adv-x="1538" d="M141 395q0 79 28.5 170.5t74.5 172.5t104 139q6 6 14 6h33q10 0 16.5 -7.5t6.5 -17.5q0 -12 -15 -22q-66 -69 -124 -199.5t-58 -220.5q0 -122 107 -189t250 -90l53 164q48 151 113.5 281.5t170.5 225.5t238 95q83 0 144.5 -40.5t93.5 -108.5t32 -150q0 -167 -104 -311.5 t-267 -228.5t-329 -84q-18 1 -33.5 1.5t-38.5 0.5l-63 -347q-6 -34 -33.5 -55.5t-62.5 -21.5q-28 0 -50 18t-22 47q0 9 4 29l111 346q-80 18 -149 50.5t-125 82.5t-88 116.5t-32 147.5zM678 127q22 -2 67 -2q93 0 197 30.5t195.5 88.5t147.5 139t56 180q0 88 -61 141.5 t-150 53.5q-109 0 -198 -71t-146 -177.5t-79 -216.5z" />
<glyph unicode="(" horiz-adv-x="2331" d="M160 487v27q3 16 18 25q154 77 275 205.5t192 289.5q9 15 23 17h49q12 -2 19 -9.5t7 -19.5q0 -2 -2 -10q-51 -130 -138 -245t-204 -206h1725q20 0 33.5 -14.5t13.5 -34.5t-13.5 -35.5t-33.5 -15.5h-1938q-21 5 -26 26z" />
<glyph unicode=")" horiz-adv-x="2331" d="M160 508v29q5 19 26 24h1938q20 0 33.5 -14.5t13.5 -34.5t-13.5 -35.5t-33.5 -15.5h-1725q55 -42 109.5 -97t96 -110t76.5 -117t60 -127q2 -8 2 -10q0 -12 -7 -19.5t-19 -9.5h-49q-18 3 -23 17q-47 107 -117 200t-158.5 169t-191.5 128q-14 5 -18 23z" />
<glyph unicode="*" horiz-adv-x="2331" d="M160 512q0 19 14 34t33 15h1724q-232 180 -342 451q-2 8 -2 10q0 25 27 29h49q16 -3 23 -17q71 -161 193.5 -290t274.5 -205q14 -9 17 -25v-27q-5 -21 -25 -26h-1939q-19 0 -33 15.5t-14 35.5z" />
<glyph unicode="+" horiz-adv-x="2331" d="M160 512q0 19 14 34t33 15h1939q20 -5 25 -24v-29q-4 -18 -17 -23q-74 -37 -144.5 -90t-130.5 -116.5t-108.5 -136.5t-84.5 -154q-9 -15 -23 -17h-49q-27 4 -27 29q0 2 2 10q110 271 342 451h-1724q-19 0 -33 15.5t-14 35.5z" />
<glyph unicode="," horiz-adv-x="694" d="M160 737q0 62 27 112.5t74.5 87.5t103.5 56t114 19q23 0 38 -14t15 -35q0 -45 -47 -52q-83 0 -154 -46.5t-71 -127.5q0 -54 34 -94.5t87 -61t104 -20.5q47 -7 47 -49q0 -23 -15 -37t-38 -14q-78 0 -152 34.5t-120.5 98t-46.5 143.5z" />
<glyph unicode="-" horiz-adv-x="694" d="M160 512q0 42 47 49q51 0 104 20.5t87 61t34 94.5q0 81 -71 127.5t-154 46.5q-47 7 -47 52q0 21 15 35t38 14q59 0 115.5 -19t103 -56t73.5 -87.5t27 -112.5q0 -80 -46 -143.5t-120.5 -98t-152.5 -34.5q-23 0 -38 14t-15 37z" />
<glyph unicode="." d="M94 -14v1050q3 19 17 33t34 14q13 0 25 -6l907 -522q11 -6 18 -17.5t7 -25.5q0 -32 -25 -45l-907 -522q-12 -6 -25 -6q-20 0 -34 14t-17 33zM195 76l755 436l-755 434v-870z" />
<glyph unicode="/" d="M94 512q0 30 27 43l907 522q9 6 25 6q42 0 49 -47v-1050q-7 -47 -49 -47q-16 0 -25 6l-907 522q-27 13 -27 45zM246 512l755 -436v870z" />
<glyph unicode="0" d="M121 434q0 158 53 267.5t159 166t265 56.5q160 0 266 -56.5t158.5 -166t52.5 -267.5q0 -154 -54 -260.5t-160.5 -160.5t-262.5 -54t-262.5 54t-160.5 160t-54 261zM311 459q0 -149 14.5 -235t76.5 -142.5t196 -56.5t196 56.5t76.5 142.5t14.5 235q0 140 -15 220 t-77.5 129.5t-194.5 49.5t-194.5 -49.5t-77.5 -129.5t-15 -220z" />
<glyph unicode="1" d="M238 778v31q5 19 26 27q80 0 146.5 6.5t129 25t115.5 52.5q4 2 13 4h12q18 -5 25 -25v-754q0 -37 20 -47q41 -16 238 -16q21 -6 24 -25v-30q-3 -27 -29 -27h-677q-26 0 -29 27v30q3 19 24 25q197 0 238 16q21 10 21 47v635q-58 -13 -128 -19.5t-137 -6.5q-23 0 -32 24z " />
<glyph unicode="2" d="M133 27v32q0 13 12 21l412 246q51 30 100 59.5t92.5 64.5t71 79.5t27.5 99.5q0 114 -102.5 163.5t-229.5 49.5q-171 0 -244 -82q29 -9 45.5 -31.5t16.5 -52.5q0 -35 -25.5 -61.5t-60.5 -26.5q-36 0 -62 26t-26 62q0 91 65 147.5t156.5 78.5t185.5 22q190 0 337 -64.5 t147 -230.5q0 -73 -41 -127.5t-103.5 -91t-155 -75.5t-118.5 -52l-223 -117h151q320 0 371 4q15 20 22.5 41.5t20.5 71.5q8 13 24 16h27q25 -7 25 -29q0 -2 -2 -10l-62 -242q-8 -15 -22 -18h-805q-22 5 -27 27z" />
<glyph unicode="3" d="M127 -129q0 50 33.5 82.5t83.5 32.5q48 0 81 -33t33 -82q0 -45 -31 -80t-77 -35q37 -45 93 -72.5t120 -38t127 -10.5q125 0 190.5 90.5t65.5 221.5q0 82 -28 154.5t-87.5 115.5t-142.5 43h-154q-6 0 -14 8t-8 15v20q0 8 7.5 15.5t14.5 7.5l131 8q71 0 125.5 48.5 t83.5 120.5t29 144q0 97 -58.5 153t-154.5 56q-84 0 -160.5 -24.5t-122.5 -77.5q43 0 71 -32.5t28 -74.5q0 -45 -31.5 -75.5t-75.5 -30.5q-47 0 -78 30t-31 76q0 139 124 208t276 69q88 0 185 -30t164 -92.5t67 -154.5q0 -124 -83.5 -216.5t-207.5 -133.5q89 -17 169.5 -64 t132.5 -122t52 -164q0 -117 -71.5 -204.5t-182 -134t-225.5 -46.5q-72 0 -154.5 16.5t-151.5 52.5t-113 96.5t-44 143.5z" />
<glyph unicode="4" d="M96 27v45q0 13 8 18l668 840q14 14 31 14h43q12 0 20 -8t8 -21v-833h201q20 -5 25 -25v-30q-5 -22 -25 -27h-201v-252q0 -41 19 -51q45 -12 176 -12q22 -6 27 -27v-31q-7 -24 -29 -24h-563q-22 0 -29 24v31q5 21 27 27q131 0 176 12q18 9 18 51v252h-573q-22 5 -27 27z M186 82h525v657z" />
<glyph unicode="5" d="M145 -78q0 46 30.5 76.5t74.5 30.5q45 0 74.5 -30.5t29.5 -76.5q0 -43 -29.5 -73.5t-74.5 -30.5h-4q40 -86 126 -134.5t183 -48.5q105 0 172 49.5t96 131t29 186.5q0 149 -48 258t-179 109q-93 0 -171.5 -35t-129.5 -109q-4 -5 -19 -10h-22q-22 5 -27 27v659 q0 10 7.5 16.5t17.5 6.5q4 0 8 -2q154 -62 321 -62q164 0 320 62q2 2 8 2q8 0 16.5 -6.5t8.5 -16.5v-20q0 -9 -7 -15q-80 -89 -192 -138.5t-232 -49.5q-99 0 -194 24v-364q57 48 131.5 72t155.5 24q116 0 214 -59t155 -159t57 -216q0 -125 -71.5 -226.5t-186 -156.5 t-238.5 -55q-101 0 -197 45t-154.5 128t-58.5 187z" />
<glyph unicode="6" d="M127 662q0 171 74 333.5t211.5 263.5t312.5 101q58 0 107.5 -12.5t90.5 -41t65 -73.5t24 -105q0 -41 -28.5 -69.5t-70.5 -28.5q-41 0 -70.5 28.5t-29.5 69.5q0 40 25.5 68t62.5 31q-55 65 -176 65q-92 0 -172 -47.5t-131 -128.5q-54 -83 -74 -191t-20 -241q45 86 123 138 t172 52q126 0 228.5 -61t160 -165t57.5 -228q0 -130 -63.5 -235.5t-172.5 -165.5t-235 -60q-134 0 -227 63t-146 166t-75.5 226t-22.5 248zM334 410q0 -92 25.5 -178t85 -142.5t153.5 -56.5q163 0 216.5 103.5t53.5 283.5q0 114 -16.5 196t-74 137.5t-167.5 55.5 q-85 0 -148 -51t-95.5 -132t-32.5 -163q0 -29 2 -41q0 -4 -0.5 -6.5t-1.5 -5.5z" />
<glyph unicode="7" d="M160 539l73 385q7 19 27 24h27q24 -6 24 -37q15 -28 373 -28h424q18 -5 25 -25v-31q-5 -14 -7 -16l-309 -375q-64 -77 -101 -169t-54 -193t-21 -191.5t-4 -224.5q0 -40 -29 -68t-69 -28q-42 0 -71.5 28.5t-29.5 69.5q0 144 38 290t109 279.5t165 245.5l188 230h-260 q-336 0 -393 -9q-24 -33 -47 -164q-6 -21 -25 -26h-27q-26 7 -26 33z" />
<glyph unicode="8" d="M127 315q0 89 42.5 159.5t111.5 123t157 92.5l-71 41q-81 48 -129 122t-48 163q0 103 60 181.5t154 120.5t194 42q94 0 189 -34t157 -104.5t62 -168.5q0 -74 -35.5 -133t-90 -101t-130.5 -80l118 -69q57 -33 103.5 -83t72 -110t25.5 -127q0 -119 -68.5 -208t-178.5 -136 t-224 -47q-113 0 -221 40t-179 121t-71 195zM256 315q0 -127 106 -204.5t236 -77.5q128 0 235 64.5t107 183.5q0 56 -37 108.5t-92 83.5l-297 174q-111 -50 -184.5 -136t-73.5 -196zM305 1092q0 -49 29.5 -88.5t75.5 -65.5l268 -158q93 49 153 116.5t60 156.5 q0 72 -43 126.5t-110 83.5t-140 29q-108 0 -200.5 -50.5t-92.5 -149.5z" />
<glyph unicode="9" d="M127 477q0 130 66.5 232t177.5 158.5t239 56.5q132 0 223 -61t142 -159.5t72.5 -215t21.5 -244.5q0 -165 -69.5 -323.5t-199 -258.5t-296.5 -100q-84 0 -155.5 21t-118 72t-46.5 134q0 41 29.5 69.5t71.5 28.5q40 0 69 -29t29 -69q0 -38 -22.5 -63.5t-59.5 -34.5 q63 -56 203 -56q70 0 131.5 31.5t107.5 84.5t76 124q29 73 39 154.5t10 191.5q-43 -85 -123 -136.5t-172 -51.5q-124 0 -225 58.5t-161 161t-60 224.5zM328 477q0 -109 17.5 -191t75 -135t165.5 -53q84 0 147.5 50.5t97 129t33.5 160.5q0 13 -0.5 20.5t-1.5 16.5 q1 3 1.5 5.5t0.5 6.5q0 86 -24.5 171.5t-82 141.5t-147.5 56q-141 0 -225 -104q-28 -40 -40 -83t-14.5 -85.5t-2.5 -106.5z" />
<glyph unicode=":" horiz-adv-x="694" d="M225 123q0 49 37 85t86 36t85 -36t36 -85q0 -51 -36 -87t-85 -36t-86 36t-37 87z" />
<glyph unicode=";" horiz-adv-x="694" d="M225 123q0 50 35.5 85.5t87.5 35.5q76 0 111 -70t35 -156q0 -118 -50 -226t-137 -183q-9 -6 -16 -6q-13 0 -25 12t-12 25q0 10 8 18q78 65 122 160.5t44 199.5v11q-30 -29 -80 -29q-52 0 -87.5 35.5t-35.5 87.5z" />
<glyph unicode="&#x3c;" horiz-adv-x="1827" d="M221 512q0 30 27 43l1284 619q18 6 24 6q21 0 35.5 -15.5t14.5 -36.5q0 -11 -7 -24t-18 -19l-1194 -573l1194 -575q9 -4 17 -18t8 -25q0 -19 -14.5 -35.5t-35.5 -16.5q-6 0 -24 6l-1284 619q-27 13 -27 45z" />
<glyph unicode="=" d="M160 -463q0 5 4 19l776 1949q16 31 47 31q20 0 34.5 -14.5t14.5 -34.5q0 -7 -0.5 -10.5t-1.5 -8.5l-776 -1949q-20 -31 -47 -31q-21 0 -36 15t-15 34z" />
<glyph unicode="&#x3e;" horiz-adv-x="1827" d="M221 -106q0 32 27 43l1192 575l-1192 573q-27 11 -27 43q0 21 14.5 36.5t36.5 15.5q1 0 25 -6l1284 -619q25 -14 25 -43q0 -31 -25 -45l-1284 -619q-8 -2 -14 -4t-11 -2q-22 0 -36.5 16.5t-14.5 35.5z" />
<glyph unicode="?" d="M84 623q0 11 9.5 19.5t21.5 8.5l401 -76l53 404q7 25 29 25t29 -25l53 -404l401 76q13 0 22 -8t9 -20q0 -21 -16 -27l-367 -174l197 -359q2 -10 2 -12q0 -11 -9.5 -19.5t-19.5 -8.5q-12 0 -22 10l-279 293l-279 -293q-10 -10 -22 -10q-10 0 -19.5 8.5t-9.5 19.5q0 2 2 12 l197 359l-367 174q-16 6 -16 27z" />
<glyph unicode="@" horiz-adv-x="1249" d="M123 332q0 161 92 301t240.5 222.5t308.5 82.5q111 0 195 -61t112 -168q49 185 49 311q0 105 -37.5 190t-112 135t-179.5 50q-89 0 -169 -37t-128 -111q33 0 56 -22t23 -56q0 -47 -36.5 -82.5t-83.5 -35.5q-33 0 -58.5 21.5t-25.5 55.5q0 58 46.5 132.5t98.5 113.5 q117 88 279 88q119 0 212.5 -43t158.5 -118t99.5 -176t34.5 -214q0 -161 -66.5 -352t-162.5 -319q-94 -125 -228 -203t-284 -78q-202 0 -315 113q-119 117 -119 260zM307 260q0 -112 71 -169.5t185 -57.5q87 0 157 34t124 94.5t91.5 134.5t61.5 150v5q0 9 14.5 64t14.5 91 q0 117 -69 191.5t-185 74.5q-98 0 -183.5 -44.5t-146.5 -125.5q-48 -65 -91.5 -210.5t-43.5 -231.5z" />
<glyph unicode="A" horiz-adv-x="1759" d="M117 33l8 33q8 14 22 16q164 0 250 129q1 2 5 5.5t6 6.5l774 1209q17 28 49 28h26q29 0 35 -28l183 -1311q16 -39 161 -39q25 -8 25 -31l-8 -33q-8 -15 -23 -18h-532q-10 0 -17.5 10.5t-7.5 22.5l8 33q13 14 25 16q145 0 164 47l-47 330h-578l-168 -262q-16 -35 -16 -56 q0 -59 100 -59q25 -8 25 -31l-8 -33q-9 -16 -23 -18h-414q-10 0 -17 10.5t-7 22.5zM698 541h512l-92 657z" />
<glyph unicode="B" horiz-adv-x="1767" d="M143 33l9 33q11 14 24 16q119 0 162 10q36 10 47 62l277 1106q2 5 3.5 13.5t2.5 14.5q0 16 -17 21q-39 8 -151 8q-27 7 -27 33l8 32q8 14 25 17h786q94 0 192.5 -30.5t164 -96t65.5 -164.5q0 -77 -43.5 -142.5t-112 -113t-147 -78t-151.5 -43.5q85 -8 165.5 -43.5 t131.5 -99.5t51 -148q0 -96 -57.5 -178.5t-149.5 -140.5t-198.5 -89.5t-196.5 -31.5h-836q-27 8 -27 33zM559 92q0 -10 68 -10h336q75 0 151.5 27.5t140.5 78t101 119.5t37 148q0 69 -32 124t-88.5 85t-125.5 30h-440l-140 -555q-2 -14 -4 -23.5t-4 -23.5zM723 760h346 q97 0 199 45t169.5 125.5t67.5 177.5t-68 153t-165 56h-324q-41 0 -58 -3.5t-27 -18.5t-19 -50z" />
<glyph unicode="C" horiz-adv-x="1677" d="M145 537q0 181 85.5 344.5t229.5 289.5t320 197.5t353 71.5q114 0 211.5 -46.5t162.5 -133.5l168 174q6 6 15 6h14q10 0 16 -7.5t6 -17.5q0 -2 -2 -6l-135 -541q-4 -18 -20 -18h-37q-23 0 -23 27q7 49 7 86q0 82 -24.5 153.5t-71 125.5t-112.5 85t-151 31 q-173 0 -319 -73t-254.5 -200t-167 -286.5t-58.5 -325.5q0 -135 58.5 -232.5t162.5 -148.5t238 -51q98 0 195.5 35t181.5 99t142.5 149.5t82.5 181.5q4 16 23 16h33q9 0 15.5 -7t6.5 -17q0 -2 -2 -6q-28 -113 -99.5 -212.5t-171.5 -170.5t-217.5 -110.5t-232.5 -39.5 q-127 0 -242 40t-201.5 115t-136 183.5t-49.5 239.5z" />
<glyph unicode="D" horiz-adv-x="1913" d="M139 33l8 33q13 14 25 16q119 0 162 10q36 10 47 62l276 1106q1 2 2.5 8t2.5 11t2 9q0 15 -17 21q-39 8 -151 8q-27 7 -27 33l8 32q8 14 25 17h790q154 0 275.5 -68t190.5 -191t69 -276q0 -166 -73.5 -321.5t-200.5 -278.5t-287 -193.5t-324 -70.5h-776q-27 8 -27 33z M561 92q0 -10 68 -10h278q128 0 254.5 51t216.5 141q74 74 129.5 187.5t86 238t30.5 234.5q0 121 -52 208t-145 131t-213 44h-264q-41 0 -58 -3.5t-27 -18.5t-19 -50l-277 -1106q-2 -14 -4 -23.5t-4 -23.5z" />
<glyph unicode="E" horiz-adv-x="1716" d="M135 33l8 33q13 14 25 16q119 0 162 10q36 10 47 62l276 1106q2 5 3.5 13.5t2.5 14.5q0 16 -16 21q-39 8 -151 8q-27 7 -27 33l8 32q8 14 25 17h1202q24 -7 24 -31l-43 -422q-5 -20 -26 -26h-27q-24 7 -24 32q8 86 8 133q0 108 -52 158.5t-128.5 62t-204.5 11.5h-273 q-41 0 -58 -3.5t-27 -18.5t-19 -50l-119 -477h174q84 0 133.5 6.5t83 26.5t58.5 65t45 125q9 15 22 17h27q12 -3 19 -11t7 -20l-129 -512q-7 -15 -22 -19h-27q-26 9 -26 33q17 64 20 115q0 60 -59.5 76t-151.5 16h-194l-138 -547q-2 -14 -4 -23.5t-4 -23.5q0 -10 68 -10h282 q159 0 254 20t159 66t116 130.5t117 231.5q8 14 24 17h27q24 -7 24 -29q0 -2 -2 -10l-213 -490q-10 -16 -24 -18h-1235q-27 7 -27 33z" />
<glyph unicode="F" horiz-adv-x="1483" d="M135 33l8 33q13 14 25 16q119 0 162 10q36 10 47 62l276 1106q2 5 3.5 13.5t2.5 14.5q0 16 -16 21q-39 8 -151 8q-27 7 -27 33l8 32q8 14 25 17h1171q25 -7 25 -31l-43 -422q-5 -20 -27 -26h-27q-24 7 -24 32q8 88 10 138q0 107 -50 156t-123 60t-198 11h-258 q-41 0 -58 -3.5t-27 -18.5t-19 -50l-125 -504h166q84 0 133.5 6.5t82.5 28t56 67t41 122.5q8 13 25 16h26q25 -8 25 -31l-127 -512q-8 -15 -25 -18h-26q-25 8 -25 33q21 82 21 116q0 42 -32.5 61.5t-75 24t-99.5 4.5h-186l-132 -520q-2 -8 -2 -22q0 -20 19 -25 q24 -5 76.5 -7.5t124.5 -2.5q24 -7 24 -31l-8 -33q-8 -16 -23 -18h-624q-10 0 -17.5 10.5t-7.5 22.5z" />
<glyph unicode="G" horiz-adv-x="1821" d="M145 537q0 179 86 343.5t230 290.5t320.5 197.5t353.5 71.5q72 0 141 -20t130 -61.5t103 -98.5l168 174q6 6 15 6h14q10 0 16.5 -8.5t6.5 -16.5q0 -2 -3 -6l-135 -541q-4 -18 -20 -18h-37q-23 0 -23 27q7 39 7 86q0 108 -43.5 198.5t-126.5 143.5t-191 53 q-170 0 -317 -73t-255.5 -199t-166.5 -284.5t-58 -322.5q0 -139 61 -238t169 -149.5t246 -50.5q132 0 254 52t149 161l43 172q1 5 1.5 9.5t0.5 10.5q0 21 -20 27q-52 10 -217 10q-27 7 -27 33l8 33q8 13 25 16h587q11 0 18 -9t7 -21l-8 -33q-8 -17 -23 -19q-74 0 -108 -11.5 t-47 -59.5l-99 -394q-6 -18 -24 -18t-53 42.5t-52 74.5q-146 -158 -475 -158q-128 0 -243 40t-202 116t-136.5 183.5t-49.5 238.5z" />
<glyph unicode="H" horiz-adv-x="1915" d="M135 33l8 33q5 12 25 16q119 0 162 10q36 10 47 62l276 1106q2 5 3.5 13.5t2.5 14.5q0 16 -16 21q-39 8 -151 8q-27 7 -27 33l8 32q2 13 25 17h569q9 0 17 -10.5t8 -20.5l-9 -33q-2 -13 -22 -18q-119 0 -162 -10q-35 -10 -49 -62l-119 -477h678l123 492q2 5 3.5 13.5 t2.5 14.5q0 16 -16 21q-39 8 -152 8q-27 8 -27 33l9 32q2 13 24 17h570q10 0 17 -9.5t7 -21.5l-8 -33q-2 -13 -23 -18q-118 0 -161 -10q-35 -10 -49 -62l-277 -1106q-4 -20 -4 -28q0 -16 16 -21q37 -8 152 -8q26 -7 26 -31l-8 -33q-5 -14 -24 -18h-572q-9 0 -16.5 10.5 t-7.5 22.5l8 33q5 12 25 16q118 0 161 10q36 10 47 62l134 532h-678l-138 -547q-4 -20 -4 -28q0 -16 17 -21q37 -8 151 -8q27 -7 27 -31l-8 -33q-5 -14 -25 -18h-571q-10 0 -17.5 10.5t-7.5 22.5z" />
<glyph unicode="I" horiz-adv-x="1036" d="M125 33l8 33q2 12 25 16q127 0 170 10q38 10 49 62l276 1106q4 10 4 28q0 15 -14 21q-41 8 -164 8q-24 8 -24 33l8 32q2 12 22 17h592q10 0 18.5 -10.5t8.5 -20.5l-8 -33q-4 -13 -25 -18q-127 0 -172 -10q-35 -11 -49 -62l-277 -1106q-1 -7 -1.5 -12.5t-2.5 -15.5 q0 -16 17 -21q41 -8 162 -8q26 -7 26 -31l-8 -33q-4 -18 -35 -18h-581q-11 0 -18 10.5t-7 22.5z" />
<glyph unicode="J" horiz-adv-x="1294" d="M199 182q0 69 39 117.5t106 48.5q40 0 68 -25.5t28 -64.5q0 -57 -42 -99t-99 -42q27 -48 83.5 -70t119.5 -22q68 0 130 42t105 106t60 132l237 955q4 12 4 20q0 21 -20 27q-49 10 -209 10q-27 8 -27 33l9 32q8 14 24 17h574q8 0 16 -10.5t8 -20.5l-8 -33q-11 -16 -25 -18 q-74 0 -108 -11.5t-49 -60.5l-240 -962q-25 -97 -101.5 -170.5t-180 -113.5t-201.5 -40q-73 0 -142 24t-114 74.5t-45 124.5z" />
<glyph unicode="K" horiz-adv-x="1964" d="M135 33l8 33q5 12 25 16q119 0 162 10q36 10 47 62l276 1106q2 5 3.5 13.5t2.5 14.5q0 16 -16 21q-39 8 -151 8q-27 7 -27 33l8 32q2 13 25 17h569q9 0 17 -10.5t8 -20.5l-9 -33q-2 -13 -22 -18q-119 0 -162 -10q-35 -10 -49 -62l-160 -641l862 608l4 7q28 23 42 37 t14 32q0 29 -56 29q-26 7 -26 33l8 32q2 13 25 17h417q11 0 18 -9.5t7 -21.5l-8 -33q-2 -13 -23 -18q-89 0 -173.5 -38t-176.5 -103q-3 -1 -5 -2t-7 -3l-453 -321l367 -711q29 -39 61 -48t94 -9q25 -7 25 -31l-8 -33q-2 -13 -23 -18h-495q-11 0 -18 10.5t-7 22.5l8 33 q2 11 25 16q115 0 115 49q0 2 -1 5.5t-2 6.5l-305 592l-329 -233l-93 -363q-4 -20 -4 -28q0 -16 17 -21q37 -8 151 -8q27 -7 27 -31l-8 -33q-5 -14 -25 -18h-571q-10 0 -17.5 10.5t-7.5 22.5z" />
<glyph unicode="L" horiz-adv-x="1604" d="M135 33l8 33q13 14 25 16q119 0 162 10q36 10 47 62l276 1106q2 5 3.5 13.5t2.5 14.5q0 16 -16 21q-39 8 -151 8q-27 7 -27 33l8 32q8 14 25 17h622q11 0 18 -9.5t7 -21.5l-8 -33q-9 -16 -23 -18q-160 0 -211 -12q-40 -12 -53 -60l-277 -1106q-2 -14 -4 -23.5t-4 -23.5 q0 -10 68 -10h219q159 0 262 50t166 144t123 252q7 13 24 19h27q25 -7 25 -29q0 -2 -2 -12l-183 -488q-10 -16 -24 -18h-1108q-27 7 -27 33z" />
<glyph unicode="M" horiz-adv-x="2230" d="M147 33l9 33q5 12 24 16q86 0 145.5 27t77.5 102l263 1049q2 5 3.5 13.5t2.5 14.5q0 16 -17 21q-39 8 -151 8q-27 7 -27 33l8 32q2 12 25 17h375q13 0 23.5 -8t11.5 -21l200 -1167l783 1167q22 29 51 29h358q25 -7 25 -31l-8 -33q-2 -13 -23 -18q-119 0 -162 -10 q-35 -10 -49 -62l-276 -1106q-4 -20 -4 -28q0 -16 16 -21q37 -8 151 -8q27 -7 27 -31l-8 -33q-5 -14 -25 -18h-549q-9 0 -16.5 10.5t-7.5 22.5l8 33q5 12 25 16q118 0 161 10q35 10 48 62l290 1161l-862 -1286q-18 -29 -53 -29t-41 29l-217 1265l-275 -1097q-4 -26 -4 -35 q0 -51 45 -65.5t109 -14.5q27 -8 27 -31l-9 -33q-5 -14 -24 -18h-459q-8 0 -16.5 10.5t-8.5 22.5z" />
<glyph unicode="N" horiz-adv-x="1851" d="M135 33l8 33q13 14 25 16q86 0 145.5 27t77.5 102l275 1098q-48 8 -174 8q-27 7 -27 33l8 32q8 14 25 17h364q17 -3 25 -17l522 -1069l221 889q6 18 6 35q0 51 -43.5 65.5t-109.5 14.5q-27 7 -27 33l8 32q8 14 25 17h457q10 0 17 -9.5t7 -21.5l-8 -33q-8 -16 -23 -18 q-190 0 -225 -129l-291 -1170q-10 -16 -24 -18h-35q-17 3 -23 18l-602 1229l-264 -1050q-4 -26 -4 -35q0 -51 45 -65.5t109 -14.5q26 -7 26 -31l-8 -33q-11 -16 -25 -18h-458q-10 0 -17.5 10.5t-7.5 22.5z" />
<glyph unicode="O" horiz-adv-x="1778" d="M143 520q0 174 82.5 342.5t222 297.5t312 204.5t346.5 75.5q124 0 233.5 -41t188.5 -115.5t123.5 -180t44.5 -231.5q0 -179 -82 -344t-220 -293.5t-311.5 -202t-347.5 -73.5q-123 0 -231.5 40t-189 113.5t-126 177.5t-45.5 230zM362 475q0 -121 45 -221.5t133.5 -159.5 t213.5 -59q155 0 291.5 83.5t234.5 218t152.5 296t54.5 311.5q0 122 -48 218t-139 150t-213 54q-214 0 -379 -133.5t-255.5 -342.5t-90.5 -415z" />
<glyph unicode="P" horiz-adv-x="1489" d="M139 33l8 33q6 12 25 16q119 0 162 10q36 10 47 62l276 1106q1 2 2.5 8t2.5 11t2 9q0 15 -17 21q-39 8 -151 8q-27 7 -27 33l8 32q2 12 25 17h758q104 0 206 -34t170 -107t68 -181q0 -103 -61 -187.5t-161 -144t-208 -89t-207 -29.5h-367l-120 -486q-7 -14 -7 -30 q0 -15 17 -21q37 -8 151 -8q27 -7 27 -31l-8 -33q-5 -14 -25 -18h-571q-8 0 -16.5 10.5t-8.5 22.5zM711 700h319q233 0 344 111q54 54 84.5 141.5t30.5 169.5q0 195 -305 195h-234q-41 0 -58 -3.5t-27 -18.5t-19 -50z" />
<glyph unicode="Q" horiz-adv-x="1841" d="M143 520q0 174 82.5 342.5t222 297.5t312 204.5t346.5 75.5q124 0 233.5 -41t188.5 -115.5t123.5 -180t44.5 -231.5q0 -139 -51.5 -272.5t-141.5 -247.5t-210 -200.5t-249 -135.5q14 -57 29.5 -97t46 -66.5t80.5 -26.5q57 0 110.5 23.5t93 67t52.5 95.5q9 17 27 17 q12 0 20 -8.5t8 -20.5q0 -2 -2 -12q-23 -92 -72.5 -180t-124.5 -146.5t-167 -58.5q-84 0 -127 44.5t-55.5 110.5t-12.5 150v80q-108 -29 -215 -29q-123 0 -231.5 40t-189 113.5t-126 177.5t-45.5 230zM350 467q0 -138 61 -248t181 -158l-4 13q-2 10 -2 30q0 58 33.5 105.5 t87.5 75.5t110 28q88 0 135.5 -57.5t71.5 -155.5q139 71 246 206t163 297t56 323q0 93 -26 174t-77 140t-127 92.5t-172 33.5q-208 0 -377.5 -137.5t-264.5 -348t-95 -413.5zM651 106q0 -73 103 -73q100 0 196 37q0 78 -31 128t-104 50q-59 0 -111.5 -42t-52.5 -100z" />
<glyph unicode="R" horiz-adv-x="1761" d="M139 33l8 33q6 12 25 16q119 0 162 10q36 10 47 62l276 1106q1 2 2.5 8t2.5 11t2 9q0 15 -17 21q-39 8 -151 8q-27 7 -27 33l8 32q2 12 25 17h663q77 0 165 -16t167 -53.5t129.5 -99t50.5 -147.5q0 -76 -41.5 -139.5t-111 -114t-146 -83t-151.5 -50.5q81 -30 134.5 -92 t53.5 -143q0 -11 -0.5 -18t-1.5 -15l-20 -178q-7 -58 -7 -92q0 -61 19.5 -97t73.5 -36q46 0 83.5 27.5t63 69t37.5 87.5q2 12 25 16h26q25 -7 25 -28q0 -2 -2 -11q-22 -90 -95 -158.5t-163 -68.5q-131 0 -225.5 53t-94.5 172q0 30 10 72l45 178q7 27 7 53q0 89 -70.5 135 t-167.5 46h-281l-133 -529q-4 -20 -4 -28q0 -16 17 -21q36 -8 151 -8q27 -7 27 -31l-8 -33q-5 -14 -25 -18h-563q-8 0 -16.5 10.5t-8.5 22.5zM719 733h252q97 0 180 17t152 61q73 45 114 129.5t41 173.5q0 203 -342 203h-166q-41 0 -58 -3.5t-27 -18.5t-19 -50z" />
<glyph unicode="S" horiz-adv-x="1436" d="M156 -16q0 2 2 6l112 459q4 16 23 16h33q10 0 16 -7t6 -18t-8 -51t-8 -63q0 -151 116.5 -218t280.5 -67q90 0 181 48.5t149.5 130.5t58.5 175q0 75 -47 131.5t-123 73.5l-284 68q-73 17 -130 59t-89.5 104.5t-32.5 137.5q0 97 47.5 183.5t127.5 151.5t177 100.5t188 35.5 q104 0 189.5 -34t140.5 -108l123 136q6 6 14 6h15q10 0 16 -7.5t6 -17.5q0 -2 -2 -6l-113 -457q-7 -18 -22 -18h-33q-22 0 -22 27q4 30 8 92q0 153 -85 233t-241 80q-65 0 -132 -23.5t-124.5 -67t-92 -103t-34.5 -125.5q0 -70 48.5 -122t119.5 -69l285 -68q73 -16 131.5 -62 t90.5 -112t32 -143q0 -134 -80.5 -252t-208.5 -189t-260 -71q-275 0 -393 141l-121 -135q-6 -6 -14 -6h-15q-9 0 -15.5 7.5t-6.5 17.5z" />
<glyph unicode="T" horiz-adv-x="1380" d="M90 948q0 2 2 13l148 421q8 14 24 17h1333q25 -7 25 -31l-61 -422q-6 -20 -27 -26h-27q-24 7 -24 32q18 135 18 191q0 116 -61 145t-195 29h-141q-57 0 -74 -10t-31 -62l-276 -1106q0 -6 -0.5 -9.5t-1.5 -8.5q0 -24 22 -27q52 -12 232 -12q24 -8 24 -31l-8 -33 q-8 -16 -22 -18h-746q-10 0 -17 10.5t-7 22.5l8 33q8 14 22 16q189 0 246 12q40 12 51 60l277 1106q7 24 10 47q0 10 -68 10h-141q-114 0 -183.5 -22t-112 -65t-71.5 -107t-71 -185q-8 -15 -25 -18h-26q-25 7 -25 28z" />
<glyph unicode="U" horiz-adv-x="1593" d="M184 362q0 56 13 107l196 791q2 5 3.5 13.5t2.5 14.5q0 16 -16 21q-39 8 -152 8q-26 7 -26 33l8 32q2 13 25 17h569q10 0 17 -9.5t7 -21.5l-8 -33q-2 -13 -22 -18q-119 0 -162 -10q-35 -10 -49 -62l-195 -782q-22 -83 -22 -158q0 -81 34.5 -141t99 -91.5t144.5 -31.5 q125 0 238 58.5t194 158.5t111 219l180 725q6 18 6 35q0 51 -43.5 65.5t-109.5 14.5q-27 7 -27 33l8 32q2 12 25 17h453q10 0 17 -9.5t7 -21.5l-8 -33q-2 -13 -23 -18q-190 0 -225 -129l-182 -733q-25 -101 -87 -192.5t-146 -158t-187.5 -106t-206.5 -39.5q-122 0 -228 48 t-169.5 139t-63.5 216z" />
<glyph unicode="V" horiz-adv-x="1380" d="M160 1350l8 32q2 12 22 17h523q10 0 17 -9.5t7 -21.5l-8 -33q-2 -13 -22 -18q-154 0 -160 -47l186 -1065l674 999q1 3 10.5 22.5t9.5 35.5q0 55 -96 55q-26 7 -26 33l8 32q2 13 24 17h404q10 0 17 -9.5t7 -21.5l-8 -33q-5 -14 -24 -18q-157 0 -248 -137l-4 -2l-4 -2 l-801 -1188q-17 -29 -49 -29h-29q-11 0 -22.5 8t-12.5 21l-225 1292q-19 37 -154 37q-24 8 -24 33z" />
<glyph unicode="W" horiz-adv-x="2200" d="M156 1350l8 32q11 15 24 17h508q11 0 18 -9.5t7 -21.5l-8 -33q-8 -15 -23 -18q-149 0 -168 -49l111 -1024l553 909l-15 129q-14 35 -137 35q-24 8 -24 33l8 32q8 14 22 17h510q11 0 18 -9.5t7 -21.5l-8 -33q-8 -15 -25 -18q-149 0 -166 -49l2 -13l107 -1011l583 958 q2 6 6 15.5t6.5 16.5t2.5 15q0 68 -125 68q-25 8 -25 33l9 32q8 15 22 17h410q10 0 17 -9.5t7 -21.5l-8 -33q-8 -15 -23 -18q-143 0 -227 -137l-6 -4l-721 -1188q-17 -29 -47 -29h-23q-11 0 -21.5 7.5t-10.5 21.5l-113 1050l-639 -1050q-14 -29 -47 -29h-23q-29 0 -32 29 l-140 1294q-12 35 -135 35q-26 7 -26 33z" />
<glyph unicode="X" horiz-adv-x="1917" d="M100 33l9 33q8 13 24 16q94 0 180 36t152 101q1 1 6 3.5t6 4.5l477 471l-290 582q-24 25 -69.5 31t-107.5 6q-26 7 -26 33l8 32q8 14 25 17h534q9 0 17 -10.5t8 -20.5l-9 -33q-8 -15 -24 -18q-36 0 -72.5 -11t-50.5 -34l211 -420l360 356q3 9 17 26t14 36 q0 24 -23.5 35.5t-54.5 11.5q-24 8 -24 33l8 32q8 14 22 17h459q10 0 18.5 -10.5t8.5 -20.5l-8 -33q-12 -16 -25 -18q-96 0 -180 -35t-152 -102q-2 -2 -6.5 -4t-5.5 -5l-393 -389l332 -663q25 -25 70.5 -31t107.5 -6q24 -8 24 -31l-8 -33q-8 -15 -22 -18h-537 q-8 0 -16.5 10.5t-8.5 22.5l9 33q8 13 24 16q32 0 72 11t51 34l-252 504l-444 -441q-1 -5 -16 -23t-15 -38q0 -24 25 -35.5t51 -11.5q26 -7 26 -31l-8 -33q-10 -16 -24 -18h-459q-9 0 -17 10.5t-8 22.5z" />
<glyph unicode="Y" horiz-adv-x="1374" d="M115 1350l8 32q8 14 24 17h539q9 0 17 -10.5t8 -20.5l-9 -33q-8 -16 -22 -18q-133 0 -133 -35l276 -620l518 546q2 7 21.5 30.5t19.5 43.5q0 35 -71 35q-27 7 -27 33l8 32q10 17 35 17h395q11 0 18 -9.5t7 -21.5l-8 -33q-8 -16 -23 -18q-160 0 -297 -137q-1 -1 -4.5 -3 t-7.5 -6l-580 -612l-104 -418q0 -5 -2 -15t-2 -15q0 -10 3 -14t11 -7q39 -8 154 -8q24 -8 24 -31l-8 -33q-8 -15 -22 -18h-566q-9 0 -16.5 10.5t-7.5 22.5l8 33q11 14 25 16q118 0 161 10q19 4 26.5 13.5t12 24t11.5 26.5l100 403l-322 721q-34 37 -172 37q-26 7 -26 33z " />
<glyph unicode="Z" horiz-adv-x="1593" d="M166 23q0 37 20 57l1190 1237h-315q-160 0 -264.5 -32t-175.5 -114t-117 -233q-5 -14 -25 -18h-26q-25 7 -25 28q0 2 2 13l129 421q5 13 25 17h1026q22 0 22 -23q0 -34 -20 -51l-1188 -1235h332q149 0 243.5 21.5t159 72.5t110.5 136t93 231q2 11 22 16h27q27 -8 27 -28 q0 -2 -2 -11l-164 -510q-5 -14 -25 -18h-1059q-22 0 -22 23z" />
<glyph unicode="[" horiz-adv-x="946" d="M160 -16v1527q5 20 26 25h27q18 -5 25 -25v-639q89 72 245 72q79 0 148 -37t111 -101.5t42 -143.5q0 -153 -81 -282t-199 -223t-279 -194q-4 -2 -12 -4h-27q-21 5 -26 25zM238 66q102 86 180 175.5t127 197.5t49 223q0 29 -9 63t-25.5 61t-41.5 43.5t-59 16.5 q-82 0 -151.5 -30t-69.5 -101v-649z" />
<glyph unicode="\" horiz-adv-x="946" d="M190 -166v1632q11 33 50 33q21 0 28 -26v-570l447 168q8 2 10 2q22 0 29 -24v-1463q-10 -32 -49 -32q-22 0 -29 26v400l-445 -168q-10 -2 -12 -2q-20 0 -29 24zM268 20l408 154v688l-408 -153v-689z" />
<glyph unicode="]" horiz-adv-x="946" d="M160 -27q4 20 18 25l68 22v691q0 -3 -22.5 -11t-35.5 -8q-22 0 -28 27v139q5 19 18 23l68 22v408q9 32 49 32q20 0 29 -26v-387l297 100v408q9 30 49 30q21 0 28 -24v-389q0 3 23.5 10.5t34.5 7.5q21 0 28 -24v-140q-4 -19 -16 -24l-70 -23v-690q0 3 23.5 10.5t34.5 7.5 q21 0 28 -24v-139q-4 -20 -16 -25l-70 -22v-267q-9 -32 -49 -32q-21 0 -28 26v246l-297 -100v-267q-10 -30 -50 -30q-21 0 -28 24v248q0 -1 -23.5 -9.5t-34.5 -8.5q-21 0 -28 24v139zM324 47l297 100v689l-297 -101v-688z" />
<glyph unicode="^" horiz-adv-x="2331" d="M160 733q0 15 11 27t28 12q19 0 30 -14q107 -135 258 -218.5t323 -120t357 -36.5q183 0 355 36.5t323 120t258 218.5q8 14 29 14q16 0 27.5 -12t11.5 -27q0 -12 -8 -24q-85 -109 -200 -193t-248 -140.5t-270 -83t-280 -26.5q-142 0 -279.5 27t-269 83t-246 140 t-200.5 193q-10 10 -10 24z" />
<glyph unicode="_" horiz-adv-x="2331" d="M160 291q0 11 6 20q114 155 273 263.5t343.5 163.5t382.5 55q151 0 292.5 -31t269 -91.5t238.5 -150t200 -209.5q6 -9 6 -20q0 -15 -12 -27t-27 -12q-20 0 -29 12q-110 145 -256.5 236.5t-317.5 133.5t-364 42q-182 0 -356.5 -42t-325 -135t-254.5 -233q-11 -14 -30 -14 q-15 0 -27 12t-12 27z" />
<glyph unicode="`" horiz-adv-x="979" d="M45 188q0 8 32 38.5t92.5 84t63.5 56.5q0 14 -0.5 23t-1.5 20q0 249 125 559q40 99 100.5 206t141.5 187t166 80q71 0 103 -50.5t32 -125.5q0 -113 -48.5 -235.5t-123 -231.5t-162 -205.5t-186.5 -192.5q-4 -64 -4 -94q0 -101 27 -185.5t106 -84.5q49 0 99.5 24.5 t88 52.5t80 63.5t49.5 35.5t12 -3t10.5 -9t8.5 -11l6 -10q2 -4 2 -12q0 -13 -8 -18q-91 -82 -175.5 -130.5t-176.5 -48.5q-79 0 -133.5 44.5t-84.5 113.5t-42 145q-10 -8 -48.5 -42.5t-71 -61.5t-40.5 -27q-9 0 -15 5.5t-10 11.5l-12 16q-2 2 -2 12zM397 522 q81 81 154.5 168t135 184.5t100 202t38.5 201.5q0 98 -65 98q-78 0 -154 -164.5t-128.5 -357t-80.5 -332.5z" />
<glyph unicode="a" horiz-adv-x="1268" d="M121 322q0 137 74 272.5t198 222t262 86.5q63 0 117.5 -30.5t89.5 -84.5q7 33 34.5 54.5t61.5 21.5q30 0 50 -18t20 -47q0 -17 -2 -25l-141 -561q-8 -46 -8 -72q0 -37 15 -66.5t50 -29.5q65 0 98 74t58 182q7 18 22 18h33q10 0 16.5 -8.5t6.5 -15.5q0 -4 -2 -8 q-77 -307 -236 -307q-73 0 -134 36t-81 103q-139 -139 -287 -139q-95 0 -166.5 46t-110 123.5t-38.5 172.5zM293 233q0 -75 37.5 -131.5t109.5 -56.5q80 0 153.5 54t129.5 132l108 433q-11 47 -34.5 87t-60.5 63.5t-85 23.5q-61 0 -115.5 -36.5t-95 -92.5t-65.5 -115 q-33 -86 -57.5 -187t-24.5 -174z" />
<glyph unicode="b" horiz-adv-x="1028" d="M133 317q0 64 17 127l192 775q14 51 14 71q0 27 -127 27q-24 8 -24 33l8 32q2 12 23 17l286 22q11 0 21 -8t10 -22l-147 -594q120 106 249 106q94 0 166 -45.5t110 -123.5t38 -173q0 -103 -42.5 -206t-116 -187.5t-171.5 -136t-203 -51.5q-93 0 -161 45.5t-105 122.5 t-37 169zM285 246q0 -81 39 -141t116 -60q61 0 116.5 37t95.5 92.5t65 114.5q31 77 55.5 184.5t24.5 175.5q0 45 -15 89.5t-48 72t-83 27.5q-81 0 -153 -53t-129 -134l-56 -217q-28 -122 -28 -188z" />
<glyph unicode="c" horiz-adv-x="1044" d="M123 338q0 110 50.5 213t138.5 183t192.5 124.5t214.5 44.5q59 0 122 -17.5t104.5 -57t41.5 -101.5q0 -55 -33.5 -96t-89.5 -41q-34 0 -58 21.5t-24 56.5q0 43 29 76t72 42q-55 52 -168 52q-98 0 -175.5 -54.5t-130.5 -141.5t-80.5 -188.5t-27.5 -189.5q0 -95 55 -157 t148 -62q132 0 252 48.5t198 146.5q5 8 19 8t27.5 -14.5t13.5 -28.5q0 -9 -6 -17q-85 -107 -220 -157.5t-288 -50.5q-103 0 -190 45t-137 127t-50 186z" />
<glyph unicode="d" horiz-adv-x="1217" d="M121 322q0 137 74 272.5t198 222t262 86.5q63 0 117.5 -30.5t89.5 -84.5l111 447q10 30 10 55q0 27 -127 27q-25 8 -25 33l9 32q8 14 22 17l287 22q11 0 21 -8t10 -22l-295 -1178q-8 -46 -8 -72q0 -37 15 -66.5t50 -29.5q65 0 98 74t58 182q7 18 22 18h33q10 0 16.5 -8.5 t6.5 -15.5q0 -4 -2 -8q-77 -307 -236 -307q-73 0 -134 36t-81 103q-139 -139 -287 -139q-95 0 -166.5 46t-110 123.5t-38.5 172.5zM293 233q0 -75 37.5 -131.5t109.5 -56.5q80 0 153.5 54t129.5 132l108 433q-11 47 -34.5 87t-60.5 63.5t-85 23.5q-61 0 -115.5 -36.5 t-95 -92.5t-65.5 -115q-33 -86 -57.5 -187t-24.5 -174z" />
<glyph unicode="e" horiz-adv-x="1110" d="M133 365q0 114 48 213t132 172t189.5 113t216.5 40q61 0 118.5 -19t96.5 -59.5t39 -101.5q0 -92 -67 -146.5t-170 -78.5t-195 -29.5t-201 -5.5h-6q-27 -108 -27 -180q0 -98 50.5 -168t146.5 -70q132 0 252 48.5t198 146.5q5 8 19 8t27.5 -14.5t13.5 -28.5q0 -9 -6 -17 q-85 -107 -220 -157.5t-288 -50.5q-106 0 -190.5 51t-130.5 138.5t-46 195.5zM350 528q85 0 163.5 4t163.5 22t142.5 59t57.5 108q0 56 -51 86.5t-113 30.5q-134 0 -227.5 -86.5t-135.5 -223.5z" />
<glyph unicode="f" horiz-adv-x="1141" d="M150 -270q0 52 34.5 91.5t87.5 39.5q34 0 58 -21.5t24 -56.5q0 -39 -22.5 -70t-61.5 -45q39 -20 86 -20q70 0 102 91.5t56 221.5q9 44 29.5 152t36.5 194l88 494h-195q-24 8 -24 33l8 32q2 12 22 17h203l25 133q16 90 24 129.5t27 90t49 89.5q38 52 97 84.5t122 32.5 q79 0 144 -36.5t65 -111.5q0 -52 -35.5 -91.5t-85.5 -39.5q-34 0 -59 21.5t-25 56.5q0 38 23.5 70.5t60.5 44.5q-41 20 -90 20q-40 0 -63.5 -28t-33 -64t-18.5 -82q-3 -15 -18.5 -96.5t-16.5 -85.5l-24 -137h233q25 -7 25 -31l-8 -33q-2 -13 -23 -18h-241l-88 -490 q-31 -171 -54 -274t-63 -201q-38 -97 -112.5 -175.5t-164.5 -78.5q-79 0 -141.5 38t-62.5 110z" />
<glyph unicode="g" horiz-adv-x="1141" d="M86 -289q0 52 35.5 90.5t87.5 38.5q36 0 60 -21.5t24 -56.5q0 -65 -60 -104q58 -10 177 -10q64 0 126 29.5t106.5 82t59.5 115.5l58 229q-120 -104 -248 -104q-70 0 -128.5 25.5t-101 72.5t-65 109t-22.5 129q0 135 74 267.5t197.5 216t258.5 83.5q62 0 117 -29.5 t90 -82.5q9 32 35.5 52.5t60.5 20.5q30 0 50 -18t20 -47q0 -15 -2 -21l-230 -917q-23 -90 -95.5 -153.5t-169.5 -94.5t-193 -31q-129 0 -225.5 22.5t-96.5 106.5zM367 252q0 -76 38.5 -131t110.5 -55q80 0 153.5 53t127.5 129l104 420q-17 75 -63.5 122.5t-116.5 47.5 q-89 0 -162.5 -71.5t-114.5 -168.5q-29 -78 -53 -179t-24 -167z" />
<glyph unicode="h" horiz-adv-x="1368" d="M154 47q0 12 2 19l290 1169q11 28 11 55t-127 27q-25 8 -25 33l8 32q2 12 23 17l287 22q13 0 21.5 -7.5t8.5 -22.5l-161 -652q66 77 149 120.5t176 43.5q122 0 196 -57.5t74 -173.5q0 -132 -133 -459q-22 -57 -22 -100q0 -68 49 -68q81 0 137.5 81t79.5 175q7 18 23 18 h32q10 0 16.5 -7.5t6.5 -16.5q0 -4 -2 -8q-18 -73 -59 -143.5t-102.5 -117t-135.5 -46.5q-83 0 -142 47.5t-59 126.5q0 36 15 73q60 152 98.5 270.5t38.5 202.5q0 61 -28 99.5t-87 38.5q-123 0 -215 -84t-156 -211l-123 -492q-9 -30 -36.5 -50.5t-57.5 -20.5q-29 0 -50 18.5 t-21 48.5z" />
<glyph unicode="i" horiz-adv-x="827" d="M92 588v8q20 76 61 145.5t102.5 115.5t135.5 46q53 0 98 -21t73 -61t28 -92q0 -43 -15 -74l-172 -442q-22 -49 -22 -100q0 -68 47 -68q81 0 137.5 81t79.5 175q7 18 23 18h32q10 0 16.5 -7.5t6.5 -16.5q0 -4 -2 -8q-18 -73 -59 -143.5t-102.5 -117t-135.5 -46.5 q-81 0 -140 47.5t-59 126.5q0 43 15 73l172 443q22 59 22 100q0 68 -47 68q-82 0 -137.5 -79.5t-81.5 -176.5q-3 -19 -21 -19h-32q-9 0 -16 9t-7 16zM463 1241q0 45 37.5 81t83.5 36q33 0 57.5 -23.5t24.5 -58.5q0 -46 -37.5 -81.5t-83.5 -35.5q-33 0 -57.5 23.5t-24.5 58.5 z" />
<glyph unicode="j" horiz-adv-x="967" d="M2 -287q0 52 35.5 89.5t85.5 37.5q36 0 60 -21.5t24 -56.5q0 -31 -19 -61.5t-47 -44.5q28 -8 64 -8q91 0 162 78.5t94 173.5l192 770q11 40 11 71q0 38 -15.5 67.5t-52.5 29.5q-88 0 -162 -77.5t-115 -174.5q-8 -23 -22 -23h-33q-8 0 -15 9t-7 16v8q51 125 144.5 216 t213.5 91q57 0 109 -22.5t84 -66t32 -103.5q0 -18 -8 -56l-192 -770q-22 -87 -87.5 -157t-154.5 -108t-180 -38q-75 0 -138 31.5t-63 99.5zM696 1241q0 46 37.5 81.5t83.5 35.5q33 0 57.5 -23.5t24.5 -58.5q0 -45 -37.5 -81t-83.5 -36q-33 0 -57.5 23.5t-24.5 58.5z" />
<glyph unicode="k" horiz-adv-x="1243" d="M154 47q0 12 2 19l290 1169q11 28 11 55t-127 27q-25 8 -25 33l8 32q2 12 23 17l287 22q13 0 21.5 -7.5t8.5 -22.5l-211 -842q62 26 105.5 62.5t142.5 125.5t169.5 127.5t146.5 38.5q64 0 107.5 -42.5t43.5 -106.5q0 -57 -34 -99.5t-89 -42.5q-34 0 -58 21.5t-24 56.5 q0 45 33 83t78 38q-24 27 -62 27q-76 0 -149 -49.5t-176 -143.5t-154 -125q322 -35 322 -219q0 -29 -10.5 -77t-10.5 -74q0 -105 70 -105q71 0 114 79.5t66 176.5q7 18 23 18h32q10 0 16.5 -7.5t6.5 -16.5q0 -4 -2 -8q-29 -117 -94 -212t-166 -95q-96 0 -160.5 58t-64.5 152 q0 17 6 52t6 53q0 78 -85 121t-171 43l-101 -408q-9 -30 -36.5 -50.5t-57.5 -20.5q-29 0 -50 18.5t-21 48.5z" />
<glyph unicode="l" horiz-adv-x="739" d="M125 172q0 27 6 51l252 1012q10 30 10 55q0 27 -127 27q-24 8 -24 33l8 32q2 12 22 17l287 22q11 0 21 -8t10 -22l-295 -1178q-8 -46 -8 -72q0 -37 15 -66.5t50 -29.5q36 0 63 27.5t42 64t29.5 88t19.5 76.5q7 18 22 18h33q10 0 16.5 -8.5t6.5 -15.5q0 -4 -2 -8 q-31 -125 -84.5 -216t-149.5 -91q-90 0 -156.5 53t-66.5 139z" />
<glyph unicode="m" horiz-adv-x="2075" d="M92 588v8q33 127 86 217t150 90q54 0 106.5 -22t85.5 -63t33 -97q43 54 96 95t115.5 64t130.5 23q107 0 188.5 -51t81.5 -152q67 92 159 147.5t200 55.5q120 0 195 -57.5t75 -173.5q0 -83 -37.5 -199.5t-95.5 -259.5q-23 -59 -23 -100q0 -68 50 -68q80 0 137 82t80 174 q7 18 22 18h33q10 0 16 -7.5t6 -16.5q0 -4 -2 -8q-18 -73 -59.5 -144t-103 -117t-134.5 -46q-82 0 -141 47.5t-59 126.5q0 34 14 73q60 152 98.5 270.5t38.5 202.5q0 62 -27.5 100t-86.5 38q-221 0 -375 -297l-121 -486q-7 -31 -34.5 -53t-61.5 -22q-29 0 -49.5 18t-20.5 47 q0 14 2 21l129 516q17 83 17 118q0 61 -28 99.5t-87 38.5q-221 0 -375 -297l-121 -486q-7 -31 -34.5 -53t-61.5 -22q-29 0 -49.5 18t-20.5 47q0 14 2 21l150 604q10 37 10 71q0 41 -15.5 69t-51.5 28q-65 0 -94.5 -66.5t-61.5 -189.5q-3 -19 -21 -19h-32q-9 0 -16 9t-7 16z " />
<glyph unicode="n" horiz-adv-x="1446" d="M92 588v8q33 127 86 217t150 90q54 0 106.5 -22t85.5 -63t33 -97q43 54 96 95t115.5 64t130.5 23q120 0 195 -57.5t75 -173.5q0 -83 -37.5 -199.5t-95.5 -259.5q-22 -57 -22 -100q0 -68 49 -68q81 0 137.5 81t79.5 175q7 18 22 18h33q10 0 16.5 -8.5t6.5 -15.5 q0 -4 -2 -8q-18 -73 -59.5 -144t-102.5 -117t-135 -46q-83 0 -142 47.5t-59 126.5q0 34 14 73q138 345 138 473q0 61 -28 99.5t-87 38.5q-221 0 -375 -297l-121 -486q-7 -31 -34.5 -53t-61.5 -22q-29 0 -49.5 18t-20.5 47q0 14 2 21l150 604q10 37 10 71q0 41 -15.5 69 t-51.5 28q-65 0 -94.5 -66.5t-61.5 -189.5q-3 -19 -21 -19h-32q-9 0 -16 9t-7 16z" />
<glyph unicode="o" horiz-adv-x="1153" d="M123 338q0 145 87 276.5t225 210t282 78.5q78 0 145.5 -24.5t119.5 -72.5t81 -114.5t29 -146.5q0 -145 -87 -276.5t-224.5 -210t-280.5 -78.5q-104 0 -191 45t-136.5 126.5t-49.5 186.5zM301 264q0 -94 55 -156.5t148 -62.5q95 0 173 54t131 141.5t80 189t27 188.5 q0 97 -53.5 158.5t-148.5 61.5q-97 0 -174.5 -54t-130 -142t-80 -189t-27.5 -189z" />
<glyph unicode="p" horiz-adv-x="1204" d="M-6 -367l10 33q8 17 23 19q66 0 89.5 11t37.5 60l227 914q10 37 10 71q0 41 -15.5 69t-51.5 28q-65 0 -94.5 -66.5t-61.5 -189.5q-3 -19 -21 -19h-32q-9 0 -16 9t-7 16v8q33 127 86 217t150 90q74 0 136.5 -37t80.5 -102q61 63 135 101t151 38q94 0 166 -45.5t110 -123.5 t38 -173q0 -103 -42.5 -206t-116 -187.5t-171.5 -136t-203 -51.5q-132 0 -206 114l-89 -352q-6 -18 -6 -37q0 -20 129 -20q25 -8 25 -33l-8 -33q-8 -14 -23 -16h-414q-9 0 -17.5 10.5t-8.5 19.5zM436 219q18 -73 64 -123.5t116 -50.5q61 0 116.5 37t95.5 92.5t65 114.5 q31 77 55.5 184.5t24.5 175.5q0 45 -15 89.5t-48 72t-83 27.5q-82 0 -153.5 -53.5t-128.5 -133.5z" />
<glyph unicode="q" horiz-adv-x="1071" d="M121 322q0 137 74 272.5t198 222t262 86.5q69 0 125.5 -35t89.5 -94q21 33 74.5 81t77.5 48q11 0 20 -10t9 -21l-283 -1130q-6 -18 -6 -37q0 -20 129 -20q24 -7 24 -33l-8 -33q-2 -11 -22 -16h-457q-9 0 -17 10.5t-8 19.5l9 33q2 14 22 19q101 0 137 12q13 6 19 19.5 t14 39.5l82 330q-126 -106 -250 -106q-95 0 -166.5 46t-110 123.5t-38.5 172.5zM293 233q0 -75 37.5 -131.5t109.5 -56.5q80 0 153.5 54t129.5 132l108 433q-11 47 -34.5 87t-60.5 63.5t-85 23.5q-61 0 -115.5 -36.5t-95 -92.5t-65.5 -115q-33 -86 -57.5 -187t-24.5 -174z " />
<glyph unicode="r" horiz-adv-x="1085" d="M92 588v8q33 127 86 217t150 90q75 0 137 -37.5t80 -103.5q120 141 286 141q84 0 150 -40t66 -118q0 -55 -35 -94t-88 -39q-34 0 -58 21.5t-24 56.5q0 41 26.5 74.5t65.5 42.5q-44 31 -107 31q-174 0 -290 -222l-142 -561q-7 -31 -34.5 -53t-61.5 -22q-29 0 -49.5 18 t-20.5 47q0 14 2 21l150 604q10 37 10 71q0 41 -15.5 69t-51.5 28q-65 0 -94.5 -66.5t-61.5 -189.5q-3 -19 -21 -19h-32q-9 0 -16 9t-7 16z" />
<glyph unicode="s" horiz-adv-x="1104" d="M145 178q0 57 34 99t91 42q35 0 58.5 -21t23.5 -56q0 -46 -31 -80t-77 -39q56 -78 233 -78q67 0 138.5 20.5t119 66t47.5 116.5q0 51 -44 82.5t-101 42.5l-133 24q-79 16 -134 71t-55 130q0 95 54.5 164.5t141.5 105t181 35.5q60 0 123 -17.5t104.5 -57t41.5 -101.5 q0 -49 -27.5 -86t-75.5 -37q-29 0 -50.5 19t-21.5 49q0 35 24.5 63.5t57.5 34.5q-46 68 -180 68q-87 0 -160 -42t-73 -124q0 -75 106 -99l135 -24q92 -18 159 -79t67 -151q0 -77 -45.5 -150.5t-114.5 -117.5q-115 -71 -287 -71q-125 0 -227.5 45.5t-102.5 152.5z" />
<glyph unicode="t" horiz-adv-x="883" d="M82 834l8 32q5 13 25 17h243l82 321q9 33 36 54.5t61 21.5q27 0 48 -18.5t21 -47.5q0 -14 -2 -20l-78 -311h228q24 -8 24 -31l-8 -33q-2 -13 -22 -18h-242l-148 -588q-8 -46 -8 -72q0 -37 15.5 -66.5t50.5 -29.5q90 0 164.5 78t113.5 176q10 20 23 20h33q10 0 16 -7.5 t6 -16.5q0 -4 -2 -8q-32 -80 -83.5 -149.5t-123 -113.5t-151.5 -44q-90 0 -157 52.5t-67 139.5q0 30 7 55l143 574h-229q-27 7 -27 33z" />
<glyph unicode="u" horiz-adv-x="1382" d="M92 588v8q20 76 61 145.5t102.5 115.5t135.5 46q53 0 98.5 -21t74 -60.5t28.5 -92.5q0 -34 -14 -74q-63 -155 -96 -255t-33 -191q0 -71 33.5 -117.5t103.5 -46.5q71 0 141 51q30 23 67 64t42 67l145 580q9 33 36 54.5t60 21.5q30 0 51 -18.5t21 -47.5q0 -8 -4 -24 l-146 -580q-8 -46 -8 -72q0 -37 15.5 -66.5t50.5 -29.5q36 0 62 27t42.5 64t31 88.5t19.5 76.5q9 18 23 18h33q10 0 16 -7.5t6 -16.5q0 -4 -2 -8q-75 -307 -235 -307q-70 0 -130.5 34t-82.5 97q-117 -131 -258 -131q-131 0 -212 65.5t-81 194.5q0 91 31.5 184.5t93.5 245.5 q22 59 22 100q0 29 -11.5 48.5t-37.5 19.5q-82 0 -137.5 -79.5t-81.5 -176.5q-3 -19 -21 -19h-32q-9 0 -16 9t-7 16z" />
<glyph unicode="v" horiz-adv-x="1169" d="M92 588v8q20 76 61 145.5t102.5 115.5t135.5 46q53 0 98.5 -21t74 -60.5t28.5 -92.5q0 -34 -14 -74q-67 -165 -97 -255t-30 -179q0 -81 43 -128.5t122 -47.5q113 0 207 127q35 46 72 119t61.5 149t24.5 127q0 60 -18 87.5t-55.5 68t-37.5 68.5q0 29 17 55t43.5 42.5 t56.5 16.5q56 0 81.5 -49.5t25.5 -112.5q0 -96 -33.5 -225.5t-97.5 -253.5t-153.5 -204t-195.5 -80q-143 0 -234 65t-91 203q0 62 18 130t50.5 150t56.5 142q22 59 22 100q0 29 -11.5 48.5t-37.5 19.5q-82 0 -137.5 -79.5t-81.5 -176.5q-3 -19 -21 -19h-32q-9 0 -16 9t-7 16 z" />
<glyph unicode="w" horiz-adv-x="1692" d="M92 588v8q20 76 61 145.5t102.5 115.5t135.5 46q53 0 98.5 -21t74 -60.5t28.5 -92.5q0 -34 -14 -74q-64 -159 -94.5 -249t-30.5 -179q0 -84 49 -133t135 -49q118 0 188 164q0 12 -0.5 20.5t-1.5 18.5q0 46 17 114l110 445q11 35 37 55.5t60 20.5q29 0 50 -18.5t21 -47.5 q0 -8 -4 -24l-110 -445q-19 -71 -19 -127q0 -81 43 -128.5t123 -47.5q65 0 115 38t86 96.5t61 121.5q72 181 72 266q0 60 -18 87.5t-55.5 68t-37.5 68.5q0 29 17 55t43.5 42.5t56.5 16.5q56 0 81 -50.5t25 -113.5q0 -80 -32.5 -210.5t-71.5 -229.5q-38 -90 -83.5 -159 t-111.5 -115.5t-149 -46.5q-97 0 -176.5 31t-118.5 104q-91 -135 -221 -135q-148 0 -245 65t-97 207q0 43 11.5 97t26.5 99t41 110.5t44 111.5q22 59 22 100q0 29 -11.5 48.5t-37.5 19.5q-82 0 -137.5 -79.5t-81.5 -176.5q-3 -19 -21 -19h-32q-9 0 -16 9t-7 16z" />
<glyph unicode="x" horiz-adv-x="1325" d="M102 137q0 53 35.5 93t87.5 40q35 0 58.5 -21t23.5 -56q0 -41 -25.5 -74.5t-66.5 -42.5q42 -31 109 -31q66 0 117 57.5t67 124.5l92 369q21 78 21 117q0 56 -32.5 90.5t-88.5 34.5q-67 0 -125 -36.5t-99.5 -96t-58.5 -123.5q-3 -19 -20 -19h-33q-9 0 -16 9t-7 16v8 q33 125 136.5 216t226.5 91q50 0 98 -15.5t87 -46t61 -75.5q41 60 100 98.5t123 38.5q85 0 152 -39.5t67 -118.5q0 -35 -15.5 -65.5t-44 -49t-63.5 -18.5q-34 0 -58 21.5t-24 56.5q0 41 26.5 74.5t65.5 42.5q-45 31 -110 31q-45 0 -83 -27.5t-64 -67.5t-40 -88l-92 -368 q-18 -83 -18 -117q0 -56 32.5 -90.5t88.5 -34.5q51 0 97.5 22t84.5 60t64 84t36 90q7 18 23 18h32q10 0 16.5 -7.5t6.5 -16.5q0 -4 -2 -8q-20 -82 -74 -152t-130 -112.5t-159 -42.5q-78 0 -145 35t-100 102q-38 -58 -97.5 -97.5t-126.5 -39.5q-82 0 -149.5 39.5t-67.5 117.5 z" />
<glyph unicode="y" horiz-adv-x="1186" d="M92 588v8q20 76 61 145.5t102.5 115.5t135.5 46q53 0 98.5 -21t74 -60.5t28.5 -92.5q0 -34 -14 -74q-63 -155 -96 -255t-33 -191q0 -71 33.5 -117.5t103.5 -46.5q141 0 248 174l147 588q9 33 36 54.5t60 21.5q30 0 51 -18.5t21 -47.5q0 -7 -0.5 -11t-1.5 -9l-201 -805 q-28 -112 -108.5 -206.5t-191.5 -149t-226 -54.5q-93 0 -168.5 46t-75.5 134q0 56 34 97t89 41q35 0 59.5 -22t24.5 -56q0 -45 -31 -79t-76 -40q47 -55 148 -55q143 0 258 151q42 56 68 119t47 150q-98 -88 -215 -88q-131 0 -212 65.5t-81 194.5q0 91 31.5 184.5t93.5 245.5 q22 59 22 100q0 29 -11.5 48.5t-37.5 19.5q-82 0 -137.5 -79.5t-81.5 -176.5q-3 -19 -21 -19h-32q-9 0 -16 9t-7 16z" />
<glyph unicode="z" horiz-adv-x="1116" d="M123 4q0 8 2 12q59 97 141 182t180 165.5t208.5 170.5t181.5 162q-51 0 -147 20.5t-150 20.5q-59 0 -94.5 -12.5t-50.5 -27t-29.5 -35.5t-22.5 -23h-33q-9 0 -15.5 7.5t-6.5 17.5q0 2 2 8q15 60 56 114t100.5 85.5t121.5 31.5q43 0 74.5 -17.5t73.5 -54.5t68.5 -53 t60.5 -16q37 0 65.5 26t59.5 69.5t43 45.5h32q23 0 23 -24q0 -9 -2 -13q-58 -94 -143.5 -182t-230 -206.5t-207 -169.5t-134.5 -124q12 2 39 2q38 0 75.5 -6t81.5 -15.5t81.5 -14.5t62.5 -5q50 0 106.5 18.5t97.5 54t54 87.5q2 8 8 13.5t13 5.5h32q10 0 16.5 -8t6.5 -17v-8 q-22 -82 -75 -153t-130 -114.5t-160 -43.5q-41 0 -71.5 17.5t-72.5 54t-69 53t-61 16.5q-53 0 -92.5 -28.5t-73 -69.5t-41.5 -43h-33q-22 0 -22 24z" />
<glyph unicode="{" horiz-adv-x="815" d="M92 588v8q20 76 61 145.5t102.5 115.5t135.5 46q53 0 98 -21t73 -61t28 -92q0 -43 -15 -74l-172 -442q-22 -49 -22 -100q0 -68 47 -68q81 0 137.5 81t79.5 175q7 18 23 18h32q10 0 16.5 -7.5t6.5 -16.5q0 -4 -2 -8q-18 -73 -59 -143.5t-102.5 -117t-135.5 -46.5 q-81 0 -140 47.5t-59 126.5q0 43 15 73l172 443q22 59 22 100q0 68 -47 68q-82 0 -137.5 -79.5t-81.5 -176.5q-3 -19 -21 -19h-32q-9 0 -16 9t-7 16z" />
<glyph unicode="|" horiz-adv-x="905" d="M2 -287q0 52 35.5 89.5t85.5 37.5q36 0 60 -21.5t24 -56.5q0 -32 -17 -60.5t-45 -43.5q34 -10 82 -10q84 0 147.5 79.5t86.5 172.5l192 770q11 40 11 71q0 38 -15.5 67.5t-52.5 29.5q-88 0 -162 -77.5t-115 -174.5q-8 -23 -22 -23h-33q-8 0 -15 9t-7 16v8 q51 125 144.5 216t213.5 91q57 0 109 -22.5t84 -66t32 -103.5q0 -18 -8 -56l-192 -770q-21 -85 -83 -154.5t-146 -109t-173 -39.5q-83 0 -152 29t-69 102z" />
<glyph unicode="}" horiz-adv-x="1495" d="M205 -223q0 171 84 387q-43 48 -62.5 98.5t-19.5 116.5q0 73 26.5 166.5t74.5 179.5t116.5 142.5t146.5 56.5q10 0 18.5 -7.5t8.5 -17.5q0 -12 -7.5 -26.5t-19.5 -14.5q-67 0 -123 -74.5t-88 -176t-32 -167.5q0 -78 37 -123q58 103 137 197t178.5 167.5t208 114 t227.5 40.5q88 0 159 -42.5t109.5 -117.5t38.5 -162q0 -96 -40 -190.5t-115 -174.5t-165.5 -124.5t-189.5 -44.5q-83 0 -144.5 49.5t-61.5 132.5q0 41 17 71.5t54 30.5q22 0 36.5 -13t14.5 -36q0 -19 -13 -36t-30 -23q0 -49 40.5 -80t91.5 -31q107 0 188 88.5t123.5 214 t42.5 232.5q0 79 -41 134.5t-119 55.5q-147 0 -280.5 -71.5t-238 -187.5t-177.5 -251l194 -217q49 -61 49 -141q0 -75 -39 -155.5t-105.5 -132.5t-143.5 -52q-87 0 -126.5 61.5t-39.5 153.5zM279 -238q0 -59 20.5 -97t75.5 -38q66 0 115 70t49 141q0 41 -25 74l-168 188 q-67 -188 -67 -338z" />
<glyph unicode="~" d="M412 1262q0 42 47 49h770q-20 26 -34.5 56.5t-14.5 53.5q0 21 14.5 36.5t34.5 15.5q30 0 43 -23q11 -21 27 -55t33.5 -52t56.5 -38q26 -15 26 -43q0 -32 -33 -48q-120 -51 -194 -147q-22 -18 -39 -18q-21 0 -36 15t-15 36q0 37 90 110h-729q-47 7 -47 52z" />
<glyph horiz-adv-x="1575" d="M152 61q5 33 41 60l274 160q29 36 75.5 118.5t78.5 163.5t32 125q0 25 -14 25q-69 0 -161.5 -15t-100.5 -47q-3 -14 -25 -18h-26q-25 7 -25 29q0 2 2 12q17 64 77 111t138.5 70.5t149.5 23.5q73 0 73 -123q0 -87 -41 -196t-96 -198l828 486q64 37 131 37q32 0 55.5 -15.5 t23.5 -48.5q-2 -30 -38 -59l-275 -160q-55 -71 -121.5 -205t-66.5 -202q0 -25 16 -25q67 0 160.5 14.5t101.5 46.5q3 14 23 19h26q27 -7 27 -29q0 -2 -2 -12q-24 -96 -139.5 -150.5t-225.5 -54.5q-73 0 -73 123q0 87 41 196.5t96 196.5l-827 -485q-63 -37 -134 -37 q-31 0 -55 16t-24 47z" />
<glyph unicode="&#xa1;" horiz-adv-x="1419" d="M135 33l8 33q13 14 25 16q119 0 162 10q36 10 47 62l276 1106q2 5 3.5 13.5t2.5 14.5q0 16 -16 21q-39 8 -151 8q-27 7 -27 33l8 32q8 14 25 17h1108q24 -7 24 -31l-43 -422q-5 -20 -26 -26h-27q-25 7 -25 32q4 36 7.5 78t3.5 66q0 103 -44.5 151.5t-111 59t-184.5 10.5 h-226q-41 0 -58 -3.5t-27 -18.5t-19 -50l-277 -1106q-2 -8 -2 -22q0 -20 19 -25q24 -5 76.5 -7.5t124.5 -2.5q24 -7 24 -31l-8 -33q-8 -16 -23 -18h-624q-10 0 -17.5 10.5t-7.5 22.5z" />
<glyph unicode="&#xa2;" horiz-adv-x="1954" d="M145 14q0 8 5 15l1122 1403q24 28 55 28h29q32 0 41 -28l420 -1403v-4q0 -11 -8 -18t-17 -7h-1632q-15 0 -15 14zM358 172h1188l-323 1081z" />
<glyph unicode="&#xa3;" horiz-adv-x="1778" d="M143 520q0 174 82.5 342.5t222 297.5t312 204.5t346.5 75.5q124 0 233.5 -41t188.5 -115.5t123.5 -180t44.5 -231.5q0 -179 -82 -344t-220 -293.5t-311.5 -202t-347.5 -73.5q-123 0 -231.5 40t-189 113.5t-126 177.5t-45.5 230zM344 467q0 -192 109.5 -315t300.5 -123 q160 0 298 80t236 211t152.5 291.5t54.5 316.5q0 92 -27 174.5t-77.5 143t-126.5 94.5t-174 34q-210 0 -381.5 -138.5t-268 -350t-96.5 -418.5zM473 578l66 262q2 9 24 18h27q24 -8 24 -33l-8 -37h674l12 52q2 9 25 18h26q25 -8 25 -33l-65 -262q-3 -11 -23 -16h-27 q-26 4 -26 31l10 38h-674l-14 -53q-2 -11 -23 -16h-26q-27 4 -27 31z" />
<glyph unicode="&#xa4;" horiz-adv-x="1632" d="M115 33l8 33q8 13 24 16q139 0 228 137l6 4l739 1209q17 28 47 28h27q13 0 23.5 -8t11.5 -20l147 -1315q13 -35 135 -35q27 -7 27 -31l-8 -33q-10 -18 -35 -18h-506q-10 0 -17 10.5t-7 22.5l8 33q8 13 24 16q148 0 166 49l-116 1038l-596 -972q-4 -12 -8 -20.5t-6.5 -16 t-2.5 -17.5q0 -34 33.5 -47.5t71.5 -13.5q24 -8 24 -31l-8 -33q-8 -16 -23 -18h-393q-10 0 -17 10.5t-7 22.5z" />
<glyph unicode="&#xa5;" horiz-adv-x="1729" d="M154 33l55 299q5 19 27 24h26q25 -8 25 -30q-19 -108 -21 -144q1 -4 1.5 -7.5t0.5 -8.5q47 -8 248 -8h6h594q223 0 268 10q23 25 36 61.5t34 110.5q8 13 25 16h26q25 -7 25 -28q0 -2 -2 -11l-92 -299q-12 -16 -25 -18h-1233q-24 7 -24 33zM414 1094q0 2 2 12l86 276 q8 14 24 17h1209q24 -7 24 -31l-49 -276q-5 -21 -27 -27h-26q-25 7 -25 33q15 93 15 119v18q-48 6 -246 6h-6h-580q-219 0 -264 -8q-9 -3 -31 -62t-31 -88q-10 -16 -24 -18h-27q-24 7 -24 29zM492 575l79 320q9 12 23 18h27q12 -3 19 -12t7 -20l-18 -74h721l22 88 q7 12 23 18h26q27 -7 27 -32l-80 -320q-8 -13 -25 -18h-26q-25 8 -25 32l19 74h-721l-23 -88q-7 -12 -24 -18h-27q-24 8 -24 32z" />
<glyph unicode="&#xa6;" horiz-adv-x="1915" d="M135 33l8 33q5 12 25 16q119 0 162 10q36 10 47 62l276 1106q2 5 3.5 13.5t2.5 14.5q0 16 -16 21q-39 8 -151 8q-27 7 -27 33l8 32q2 13 25 17h1448q24 -7 24 -31l-8 -33q-2 -13 -23 -18q-118 0 -161 -10q-35 -10 -49 -62l-277 -1106q-4 -20 -4 -28q0 -16 16 -21 q37 -8 152 -8q26 -7 26 -31l-8 -33q-5 -14 -24 -18h-572q-9 0 -16.5 10.5t-7.5 22.5l8 33q5 12 25 16q118 0 161 10q36 10 47 62l291 1163h-678l-295 -1178q-4 -20 -4 -28q0 -16 17 -21q37 -8 151 -8q27 -7 27 -31l-8 -33q-5 -14 -25 -18h-571q-10 0 -17.5 10.5t-7.5 22.5z " />
<glyph unicode="&#xa7;" horiz-adv-x="1815" d="M168 29q0 14 6 20l698 574l-374 712q0 3 -0.5 7t-1.5 8l8 32q5 13 24 17h1268q25 -7 25 -31l-43 -422q-5 -21 -27 -26h-27q-24 7 -24 32q4 58 4 88q0 103 -32.5 166.5t-123.5 85.5q-49 12 -102.5 17t-112.5 6.5t-139 1.5h-442l319 -606q2 -9 2 -11q0 -14 -6 -20 l-700 -576h489q229 0 346.5 18t213 99.5t167.5 263.5q5 14 23 17h26q27 -7 27 -29q0 -2 -2 -10l-172 -445q-5 -14 -25 -18h-1267q-25 7 -25 29z" />
<glyph unicode="&#xa8;" horiz-adv-x="1386" d="M96 1112q0 38 40 104t77 103q35 35 80 63.5t91 43t95 14.5q174 0 251 -127.5t77 -313.5q0 -47 -2 -71q41 98 97 186.5t129 163t162 118.5t191 44q68 0 121 -31t82 -85t29 -122q0 -112 -47 -112h-25q-22 0 -22 22q0 4 2 6q4 24 4 31q0 44 -29.5 71.5t-71.5 39.5t-86 12 q-128 0 -229.5 -90t-166.5 -219.5t-99 -264.5l-139 -559q-2 -8 -2 -22q0 -20 18 -25q24 -5 76.5 -7.5t124.5 -2.5q24 -7 24 -31l-8 -33q-2 -13 -22 -18h-676q-11 0 -18 10.5t-7 22.5l8 33q2 11 23 16q160 0 211 12q41 12 51 60l139 557q11 16 21 102.5t10 128.5 q0 140 -56.5 235t-187.5 95q-84 0 -160.5 -39.5t-95.5 -114.5q-3 -11 -14 -19.5t-23 -8.5h-24q-23 0 -23 22z" />
<glyph unicode="&#xa9;" horiz-adv-x="1575" d="M90 639q0 130 119 236.5t286 167.5t293 61l39 156q4 16 4 22q0 20 -18 25q-47 10 -201 10q-26 7 -26 33l8 32q5 13 24 17h662q9 0 17 -10.5t8 -20.5l-9 -33q-2 -13 -22 -18q-160 0 -211 -12q-40 -12 -53 -60l-35 -139q101 0 221.5 -42t204.5 -121t84 -183 q0 -100 -72.5 -186.5t-189 -150.5t-236.5 -97t-215 -33l-39 -154q-2 -8 -2 -22q0 -20 19 -25q24 -5 76.5 -7.5t123.5 -2.5q25 -7 25 -31l-8 -33q-2 -13 -23 -18h-661q-11 0 -18 10.5t-7 22.5l8 33q2 11 23 16q160 0 211 12q41 12 51 60l37 141q-70 0 -157 23.5t-165.5 69 t-127 110t-48.5 141.5zM301 608q0 -78 43.5 -134t113 -85t146.5 -29l168 678q-53 0 -120 -18.5t-129.5 -51.5t-100.5 -71q-56 -56 -88.5 -133.5t-32.5 -155.5zM788 360q121 0 234 54t182.5 153t69.5 224q0 81 -45.5 136.5t-118 83t-152.5 27.5z" />
<glyph unicode="&#xaa;" horiz-adv-x="1466" d="M90 1094q6 28 29 32h133q69 0 102 -51.5t33 -126.5q0 -54 -16 -112q-25 -107 -25 -187q0 -76 23.5 -134.5t73 -97.5t120.5 -52l223 895q5 20 5 22q0 20 -19 25q-47 10 -201 10q-26 7 -26 33l8 32q5 13 25 17h661q9 0 17 -10.5t8 -20.5l-9 -33q-2 -13 -22 -18 q-160 0 -211 -12q-40 -12 -53 -60l-219 -878q176 34 286 165.5t156 317.5q28 107 92.5 191.5t157.5 84.5h133q24 -8 24 -30q-6 -31 -26 -35q-53 0 -93.5 -36.5t-67.5 -91.5t-40 -106q-19 -78 -50.5 -144t-78.5 -127t-104 -107q-80 -61 -197 -107.5t-211 -46.5l-39 -156 q-2 -8 -2 -22q0 -20 19 -25q24 -5 76.5 -7.5t123.5 -2.5q25 -7 25 -31l-8 -33q-2 -13 -23 -18h-661q-11 0 -18 10.5t-7 22.5l8 33q2 11 23 16q160 0 211 12q41 12 51 60l37 141q-117 14 -202 60.5t-132 128.5t-47 198q0 75 20 160q15 48 15 100q0 119 -84 119q-27 7 -27 33z " />
<glyph unicode="&#xad;" horiz-adv-x="1802" d="M213 324q5 19 27 24h26q20 -5 25 -24q0 -123 8 -160q4 -14 141 -14h152q0 77 -26 146.5t-81.5 184t-80.5 186t-25 156.5q0 142 76 258t201 196.5t269.5 121.5t276.5 41q104 0 204.5 -24t187.5 -76.5t138.5 -132t51.5 -189.5q0 -118 -63 -226t-166.5 -217.5t-211.5 -223 t-157 -201.5h127q85 0 118 4.5t51.5 19.5t40.5 59.5t48 98.5q8 13 24 16h27q25 -7 25 -29q0 -2 -2 -10l-146 -291q-10 -16 -24 -18h-379q-25 7 -25 29q0 2 2 12q29 116 88 214t176 271.5t173.5 291.5t56.5 237q0 153 -104.5 236t-262.5 83q-125 0 -235 -46.5t-193.5 -131.5 t-129.5 -197t-46 -237q0 -68 6.5 -114.5t24.5 -144.5t27.5 -166.5t9.5 -137.5q0 -68 -8.5 -130t-37.5 -69h-378q-23 6 -25 27z" />
<glyph unicode="&#xae;" horiz-adv-x="1520" d="M123 338q0 145 87 276.5t225 210t282 78.5q83 0 155.5 -29t126.5 -81.5t84.5 -124.5t30.5 -154l4 -115q137 179 189 389q4 17 20 17h33q11 0 16.5 -7t5.5 -18v-6q-23 -90 -59.5 -173t-86 -160t-112.5 -148q0 -48 4 -99.5t20 -100t46 -48.5q41 0 65 19.5t42.5 50.5 t27.5 32h33q9 0 15.5 -7t6.5 -17q0 -38 -32 -70.5t-78.5 -52.5t-83.5 -20q-80 0 -136 47.5t-81 126.5q-106 -82 -226.5 -128t-248.5 -46q-104 0 -190 45t-135.5 126.5t-49.5 186.5zM301 264q0 -94 55 -156.5t148 -62.5q120 0 237 49.5t215 132.5q0 12 -0.5 19.5t-1.5 15.5 l-10 215q0 82 -22 165t-74 139.5t-135 56.5q-97 0 -174.5 -54t-130 -142t-80 -189t-27.5 -189z" />
<glyph unicode="&#xaf;" horiz-adv-x="1325" d="M70 -367l313 1258q37 142 132 269t229.5 204.5t279.5 77.5q126 0 215.5 -76.5t89.5 -202.5q0 -67 -28 -133.5t-77 -121.5t-108 -93q46 -33 78 -78t49 -99t17 -110q0 -109 -51 -210.5t-137.5 -180t-191.5 -122.5t-212 -44q-122 0 -228 55.5t-153 159.5l-142 -567 q-4 -16 -20 -16h-33q-22 0 -22 24v6zM334 334q0 -91 47 -159t125.5 -103t165.5 -35q96 0 174 53t131 139t79.5 184.5t26.5 186.5q0 108 -63 168q-79 -31 -160 -31q-73 0 -133.5 12.5t-60.5 53.5q0 80 219 80q76 0 137 -23q44 35 79.5 98.5t54 132t18.5 130.5 q0 70 -41.5 112.5t-112.5 42.5q-129 0 -247 -72t-200.5 -187t-113.5 -240l-113 -457q-12 -43 -12 -86zM758 809q33 -6 104 -6q31 0 66 10q-34 4 -49 4q-84 0 -121 -8z" />
<glyph unicode="&#xb0;" horiz-adv-x="1229" d="M63 535q0 2 3 6q24 94 89.5 178.5t158 134t190.5 49.5q217 0 334 -282q32 -85 53.5 -169t21.5 -151q25 63 63 152.5t62.5 143t57 117.5t80.5 156q7 13 20 13h33q10 0 16 -7.5t6 -17.5q0 -4 -4 -12q-55 -104 -101.5 -200t-89 -193t-81 -201t-66.5 -191 q-5 -47 -17.5 -122.5t-33.5 -163t-46.5 -147.5t-53.5 -66q-39 0 -39 51q0 43 19.5 126.5t44.5 171t48 159.5q7 63 7 131q0 140 -31 258.5t-112.5 196t-221.5 77.5q-70 0 -140.5 -23.5t-122.5 -69.5t-69 -114q-4 -16 -22 -16h-33q-10 0 -16.5 7.5t-6.5 17.5z" />
<glyph unicode="&#xb1;" horiz-adv-x="1063" d="M123 332q0 128 66 245.5t177 200.5t234 111q-66 110 -101.5 194.5t-35.5 165.5q0 66 30.5 114.5t83 74.5t117.5 26q18 0 91.5 -9t139 -22.5t76.5 -23.5q27 -19 27 -51q0 -34 -27.5 -63t-62.5 -29q-27 0 -50.5 12t-73.5 42t-88 45t-81 15q-41 0 -74.5 -23t-33.5 -63 q0 -36 26 -83.5t65.5 -98t95 -113.5t62.5 -71q146 -162 146 -359q0 -95 -29 -198.5t-84 -194t-138 -148t-183 -57.5q-78 0 -147 27t-120 75t-79.5 113.5t-28.5 145.5zM279 274q0 -105 60 -171t163 -66q81 0 140 75.5t89.5 179.5t30.5 183q0 149 -119 342l-3 6q-1 2 -3 4 q-111 -28 -193 -116t-123.5 -206t-41.5 -231z" />
<glyph unicode="&#xb2;" horiz-adv-x="975" d="M135 381q0 143 83 258t217 179.5t276 64.5h131q15 0 25 -11t10 -26q0 -18 -13.5 -31.5t-29.5 -13.5h-127q-129 0 -221.5 -70.5t-131.5 -193.5h400q15 0 24.5 -11t9.5 -26q0 -19 -13 -32t-30 -13h-413q-19 -89 -19 -144q0 -118 68.5 -192t183.5 -74q109 0 248 92q4 2 12 2 q16 0 24.5 -15t8.5 -34q0 -26 -57.5 -51.5t-133.5 -42t-104 -16.5q-117 0 -215.5 49.5t-155.5 141.5t-57 210z" />
<glyph unicode="&#xb3;" horiz-adv-x="1063" d="M135 348q0 121 45.5 251.5t125 250.5t183.5 215t209 147q-20 47 -20 101q0 123 53 123q16 0 26.5 -9.5t10.5 -25.5q0 -9 -6 -42t-6 -50q0 -40 10 -66q63 19 102 19q209 0 209 -66q0 -80 -233 -80q-66 0 -107 41q-87 -46 -172.5 -131t-151.5 -189.5t-102.5 -212.5 t-36.5 -210q0 -231 226 -301l241 -72q73 -21 119.5 -75.5t46.5 -129.5q0 -61 -30 -119.5t-83 -96.5t-114 -38q-53 0 -143.5 29.5t-90.5 69.5q5 32 37 32q9 0 17 -4q83 -61 184 -61q38 0 64 36.5t26 77.5q0 42 -30 73t-76 46l-234 70q-144 44 -221.5 145.5t-77.5 251.5z M813 1188q12 -4 14 -4q9 -2 23 -2q90 0 133 8q-31 6 -117 6q-32 0 -53 -8z" />
<glyph unicode="&#xb4;" horiz-adv-x="1204" d="M92 588v8q33 127 86 217t150 90q54 0 106.5 -22t85.5 -62t33 -96q66 82 154 131t186 49q120 0 195 -57.5t75 -173.5q0 -35 -12 -105l-233 -929q-8 -33 -35.5 -54.5t-61.5 -21.5q-29 0 -49 18t-20 47q0 15 2 21l233 934q17 83 17 118q0 61 -28 99.5t-87 38.5 q-123 0 -215 -84t-156 -211l-123 -488q-7 -31 -34.5 -53t-61.5 -22q-29 0 -49.5 18t-20.5 47q0 14 2 21l150 604q10 37 10 71q0 41 -15.5 69t-51.5 28q-65 0 -94.5 -66.5t-61.5 -189.5q-3 -19 -21 -19h-32q-9 0 -16 9t-7 16z" />
<glyph unicode="&#xb5;" horiz-adv-x="1114" d="M125 426v2q0 227 102 483q48 120 128 240.5t186.5 205.5t220.5 85h2q104 0 168 -70t91.5 -172t27.5 -205q0 -229 -103 -485q-47 -116 -128.5 -239t-186 -207t-219.5 -84h-2q-105 0 -169 69.5t-91 172.5t-27 204zM285 303q0 -94 27.5 -176t103.5 -82q95 0 177 111.5 t132.5 248t83.5 265.5h-465q-32 -135 -45.5 -211t-13.5 -156zM365 752h464q29 108 44.5 194.5t15.5 171.5q0 98 -26 178t-103 80q-138 0 -237 -200.5t-158 -423.5z" />
<glyph unicode="&#xb6;" horiz-adv-x="864" d="M150 154q0 34 14 73q55 140 96 280t86 320q7 33 34.5 54.5t61.5 21.5q29 0 49.5 -18t20.5 -47q0 -9 -0.5 -14t-1.5 -11q-17 -71 -37.5 -148.5t-41.5 -148.5t-47.5 -150.5t-55.5 -152.5q-23 -55 -23 -100q0 -68 49 -68q74 0 146 33.5t124.5 92.5t69.5 130q7 18 23 18h33 q10 0 16 -7.5t6 -16.5q0 -4 -2 -8q-22 -89 -86.5 -159t-154.5 -109t-179 -39q-82 0 -141 47.5t-59 126.5z" />
<glyph unicode="&#xb8;" horiz-adv-x="1386" d="M150 47q0 38 28 64l615 551l-234 552q-27 65 -59.5 103.5t-85.5 38.5q-12 0 -21.5 10.5t-9.5 22.5q6 32 39 32q109 0 186 -21.5t107 -94.5l489 -1162q6 -11 18 -39.5t24.5 -49.5t25.5 -31q10 -8 10 -19q0 -10 -6 -17t-16 -7h-121q-26 6 -52.5 27.5t-37.5 47.5l-222 525 l-534 -570q-33 -35 -72 -35q-29 0 -50 21t-21 51z" />
<glyph unicode="&#xb9;" horiz-adv-x="1421" d="M102 -373q0 15 2 21l295 1179q9 33 36 54.5t61 21.5q28 0 48.5 -18t20.5 -47q0 -15 -2 -21l-117 -469q-18 -74 -18 -127q0 -81 43 -128.5t123 -47.5q86 0 158.5 56t126.5 143l141 563q9 33 36 54.5t60 21.5q30 0 51 -18.5t21 -47.5q0 -7 -0.5 -11t-1.5 -9l-148 -584 q-8 -46 -8 -72q0 -96 66 -96q36 0 62 27t42.5 64t31 88.5t19.5 76.5q7 18 23 18h33q10 0 16 -7.5t6 -16.5q0 -4 -2 -8q-77 -307 -235 -307q-73 0 -135.5 37t-82.5 106q-127 -143 -284 -143q-141 0 -221 57l-101 -399q-7 -33 -34.5 -54.5t-61.5 -21.5q-29 0 -49.5 18 t-20.5 47z" />
<glyph unicode="&#xba;" horiz-adv-x="1171" d="M147 33l170 684q11 40 11 55q0 27 -127 27q-25 8 -25 32l8 33q9 15 23 17l285 22q12 0 22 -9t10 -22l-196 -782q125 38 239.5 109.5t209.5 170.5t161.5 215t97.5 242q9 34 36 55t61 21q28 0 48.5 -18.5t20.5 -48.5q0 -60 -55.5 -171.5t-104.5 -175.5q-99 -133 -239 -237 q-249 -188 -572 -252h-53q-11 0 -21 10t-10 23z" />
<glyph unicode="&#xbb;" horiz-adv-x="1063" d="M86 207q0 121 88 239t205 185q-60 37 -96.5 94.5t-36.5 122.5q0 98 55 178.5t140.5 133.5t183.5 79q-11 39 -11 74q0 123 54 123q14 0 25.5 -9.5t11.5 -25.5q0 -13 -6.5 -44t-6.5 -48q0 -27 6 -56q45 9 107 9q209 0 209 -66q0 -80 -234 -80q-71 0 -114 49 q-97 -44 -163.5 -134t-66.5 -193q0 -96 64 -154q89 27 168 27q206 0 206 -66q0 -80 -231 -80q-103 0 -182 29q-56 -30 -113 -82.5t-94 -116.5t-37 -125q0 -108 168 -172l401 -139q52 -18 82.5 -56.5t30.5 -92.5q0 -57 -30 -109.5t-80.5 -85.5t-108.5 -33q-61 0 -163.5 29 t-102.5 70q7 32 39 32q6 0 14 -4q97 -61 217 -61q32 0 54 28.5t22 61.5q0 44 -45 61l-393 138q-104 40 -170 106t-66 164zM588 637q30 -6 61 -6q90 0 133 8q-32 6 -116 6q-46 0 -78 -8zM743 1190h177h-177z" />
<glyph unicode="&#xbc;" horiz-adv-x="1368" d="M86 602q0 4 4 12q175 269 350 269h820q25 0 43 -17t18 -43q0 -33 -24.5 -59.5t-59.5 -26.5h-283q-28 -134 -28 -260q0 -214 84 -366q10 -18 10 -35q0 -37 -32 -66.5t-70 -29.5q-45 0 -71 54t-36 123t-10 119q0 73 9.5 145t26 149.5t37.5 166.5h-233 q-32 -128 -68.5 -268.5t-68.5 -254t-49 -155.5q-33 -79 -99 -79q-30 0 -51.5 19t-21.5 48q0 15 12 43q61 120 106.5 220t85.5 206.5t72 220.5h-139q-78 0 -133.5 -33.5t-97.5 -79t-48 -46.5h-32q-10 0 -16.5 7.5t-6.5 16.5z" />
<glyph unicode="&#xbd;" horiz-adv-x="1212" d="M102 -373q0 17 2 25l199 797q29 114 106.5 219t186.5 170t227 65q76 0 136 -26.5t103.5 -73.5t67 -110t23.5 -136q0 -103 -43.5 -206.5t-121.5 -187.5t-177.5 -133.5t-204.5 -49.5q-69 0 -126 32t-95 88l-117 -462q-7 -33 -34.5 -54.5t-61.5 -21.5q-29 0 -49.5 18 t-20.5 47zM414 217q17 -75 68.5 -123.5t125.5 -48.5q98 0 176 76t119 176q31 76 53.5 176t22.5 168q0 52 -16.5 96.5t-53 72.5t-90.5 28q-137 0 -223 -121.5t-129 -282.5z" />
<glyph unicode="&#xbe;" horiz-adv-x="1356" d="M117 313q0 101 47.5 205t128.5 186t182 130.5t203 48.5h569q26 0 44 -17t18 -43q0 -33 -24.5 -59.5t-59.5 -26.5h-260q57 -85 57 -209q0 -142 -77.5 -268.5t-206.5 -203t-271 -76.5q-97 0 -178 42t-126.5 118t-45.5 173zM272 256q0 -61 24 -109t69.5 -75t105.5 -27 q89 0 162.5 47.5t123 120.5t77.5 165t28 173q0 93 -54.5 139.5t-150.5 46.5q-182 0 -283.5 -146t-101.5 -335z" />
<glyph unicode="&#xbf;" horiz-adv-x="1077" d="M86 602q0 4 4 12q175 269 350 269h693q25 0 43 -17t18 -43q0 -33 -24.5 -59.5t-59.5 -26.5h-403l-129 -676q-8 -37 -35 -61.5t-64 -24.5q-29 0 -50 18.5t-21 47.5q0 7 4 29l206 667h-198q-78 0 -133.5 -33.5t-97.5 -79t-48 -46.5h-32q-10 0 -16.5 7.5t-6.5 16.5z" />
<glyph unicode="&#xc0;" horiz-adv-x="1294" d="M92 588v8q20 76 61 145.5t102.5 115.5t135.5 46q53 0 98.5 -21t74 -60.5t28.5 -92.5q0 -34 -14 -74q-43 -104 -63.5 -157t-40 -125t-19.5 -131q0 -99 61.5 -148t163.5 -49q100 0 199.5 89.5t163 214.5t63.5 218q0 60 -18 87.5t-55.5 68t-37.5 68.5q0 29 17 55t43.5 42.5 t56.5 16.5q56 0 81.5 -49.5t25.5 -112.5q0 -145 -70.5 -327.5t-195 -309t-277.5 -126.5q-163 0 -273 64.5t-110 217.5q0 58 18 124t49.5 146.5t53.5 137.5q22 59 22 100q0 29 -11.5 48.5t-37.5 19.5q-82 0 -137.5 -79.5t-81.5 -176.5q-3 -19 -21 -19h-32q-9 0 -16 9t-7 16z " />
<glyph unicode="&#xc1;" horiz-adv-x="1405" d="M139 356q0 114 62 216t164 177.5t221 118.5t225 43l125 494q4 16 20 16h33q9 0 16 -8t7 -16v-6l-121 -482q82 0 160.5 -27.5t140.5 -77.5t99.5 -122t37.5 -156q0 -113 -63 -215t-163.5 -177.5t-219.5 -119t-228 -43.5l-92 -372q-4 -17 -20 -17h-33q-23 0 -23 25v6l91 360 q-107 0 -209 48.5t-166 136t-64 198.5zM297 319q0 -81 40 -146t107.5 -99.5t149.5 -34.5l201 805q-52 0 -117.5 -22t-127.5 -59.5t-99 -76.5q-72 -72 -113 -170t-41 -197zM674 39q52 0 117 22t125.5 59t99.5 77q72 72 113.5 170t41.5 196q0 81 -40 146.5t-107.5 100 t-149.5 34.5z" />
<glyph unicode="&#xc2;" horiz-adv-x="1460" d="M100 -362q0 16 13 28l534 545q-15 48 -53.5 153.5t-87.5 215.5t-98 184t-91 74q-39 0 -72 -27.5t-42 -65.5q-4 -18 -21 -18h-32q-10 0 -16.5 7.5t-6.5 17.5q0 59 67 105t132 46q212 0 280 -123q37 -67 66.5 -132.5t58 -142t53.5 -153.5l508 518q12 13 31 13q15 0 25 -10 t10 -25q0 -16 -10 -29l-537 -545q35 -103 89.5 -243.5t122.5 -261.5t118 -121q39 0 72 27t42 65q2 8 8.5 13t12.5 5h33q11 0 16.5 -7t5.5 -17q0 -39 -32.5 -74t-80 -56.5t-85.5 -21.5q-212 0 -279 123q-37 64 -68 133t-59 143.5t-53 151.5l-508 -518q-12 -12 -29 -12 q-14 0 -25.5 10.5t-11.5 24.5z" />
<glyph unicode="&#xc3;" horiz-adv-x="1548" d="M92 588v8q20 76 61 145.5t102.5 115.5t135.5 46q53 0 98.5 -21t74 -60.5t28.5 -92.5q0 -34 -14 -74q-9 -21 -44 -109t-55 -157t-20 -117q0 -70 33.5 -116.5t89.5 -71.5t129 -35l338 1356q4 16 22 16h33q9 0 15.5 -7t6.5 -17q0 -2 -2 -6l-336 -1346h17q118 0 248.5 81 t217.5 203t87 238q0 60 -18 87.5t-55.5 68t-37.5 68.5q0 29 17 55t43.5 42.5t56.5 16.5q56 0 81 -50.5t25 -113.5q0 -113 -43 -246t-112 -227q-92 -123 -229.5 -205.5t-282.5 -82.5h-31l-94 -381q-4 -17 -23 -17h-32q-10 0 -16.5 7.5t-6.5 17.5q0 2 2 6l92 371 q-95 0 -187 33t-152 101t-60 167q0 37 11.5 85.5t35 113.5t34.5 92t38 94q22 59 22 100q0 29 -11.5 48.5t-37.5 19.5q-82 0 -137.5 -79.5t-81.5 -176.5q-3 -19 -21 -19h-32q-9 0 -16 9t-7 16z" />
<glyph unicode="&#xc4;" horiz-adv-x="694" d="M588 1122v6q21 81 115 134.5t209.5 76.5t209.5 23q78 0 179.5 -19.5t176 -66.5t74.5 -127q0 -47 -26 -51h-33q-10 0 -16.5 7.5t-6.5 16.5q1 6 2 12.5t1 10.5q0 47 -66.5 76.5t-155 42t-139.5 12.5q-123 0 -275 -39.5t-173 -122.5q-4 -16 -21 -16h-33q-22 0 -22 24z" />
<glyph unicode="&#x2000;" horiz-adv-x="768" />
<glyph unicode="&#x2001;" horiz-adv-x="1536" />
<glyph unicode="&#x2002;" horiz-adv-x="768" />
<glyph unicode="&#x2003;" horiz-adv-x="1536" />
<glyph unicode="&#x2004;" horiz-adv-x="512" />
<glyph unicode="&#x2005;" horiz-adv-x="384" />
<glyph unicode="&#x2006;" horiz-adv-x="256" />
<glyph unicode="&#x2007;" horiz-adv-x="256" />
<glyph unicode="&#x2008;" horiz-adv-x="192" />
<glyph unicode="&#x2009;" horiz-adv-x="307" />
<glyph unicode="&#x200a;" horiz-adv-x="85" />
<glyph unicode="&#x2010;" horiz-adv-x="694" d="M160 512q0 42 47 49q51 0 104 20.5t87 61t34 94.5q0 81 -71 127.5t-154 46.5q-47 7 -47 52q0 21 15 35t38 14q59 0 115.5 -19t103 -56t73.5 -87.5t27 -112.5q0 -80 -46 -143.5t-120.5 -98t-152.5 -34.5q-23 0 -38 14t-15 37z" />
<glyph unicode="&#x2011;" horiz-adv-x="694" d="M160 512q0 42 47 49q51 0 104 20.5t87 61t34 94.5q0 81 -71 127.5t-154 46.5q-47 7 -47 52q0 21 15 35t38 14q59 0 115.5 -19t103 -56t73.5 -87.5t27 -112.5q0 -80 -46 -143.5t-120.5 -98t-152.5 -34.5q-23 0 -38 14t-15 37z" />
<glyph unicode="&#x2012;" horiz-adv-x="694" d="M160 512q0 42 47 49q51 0 104 20.5t87 61t34 94.5q0 81 -71 127.5t-154 46.5q-47 7 -47 52q0 21 15 35t38 14q59 0 115.5 -19t103 -56t73.5 -87.5t27 -112.5q0 -80 -46 -143.5t-120.5 -98t-152.5 -34.5q-23 0 -38 14t-15 37z" />
<glyph unicode="&#x2013;" horiz-adv-x="1346" d="M160 512q0 42 129 49q141 0 287 20.5t239.5 61t93.5 94.5q0 81 -195.5 127.5t-424.5 46.5q-129 7 -129 52q0 21 41.5 35t104.5 14q162 0 317.5 -19t283.5 -56t202.5 -87.5t74.5 -112.5q0 -80 -126.5 -143.5t-331.5 -98t-420 -34.5q-63 0 -104.5 14t-41.5 37z" />
<glyph unicode="&#x2014;" horiz-adv-x="2370" d="M160 512q0 42 259 49q281 0 572.5 20.5t478.5 61t187 94.5q0 81 -390.5 127.5t-847.5 46.5q-259 7 -259 52q0 21 82.5 35t209.5 14q325 0 636 -19t567 -56t404.5 -87.5t148.5 -112.5q0 -80 -253 -143.5t-663.5 -98t-839.5 -34.5q-127 0 -209.5 14t-82.5 37z" />
<glyph unicode="&#x202f;" horiz-adv-x="307" />
<glyph unicode="&#x205f;" horiz-adv-x="384" />
<glyph unicode="&#x2219;" horiz-adv-x="1368" d="M154 45q0 14 2 21l190 761q7 33 34.5 54.5t61.5 21.5q29 0 49.5 -18t20.5 -47q0 -15 -2 -21l-68 -274q76 25 165 88t166.5 120.5t155 94.5t161.5 37q36 0 60 -21.5t24 -58.5q0 -49 -37 -84t-84 -35q-35 0 -59.5 22t-24.5 58q0 14 6 31q-55 -20 -107.5 -52.5t-97 -66 t-106.5 -79t-111 -73.5q92 0 186 -17t162 -65.5t68 -136.5q0 -30 -10.5 -80t-10.5 -75q0 -105 70 -105q71 0 114 79.5t66 176.5q7 18 23 18h32q10 0 16.5 -7.5t6.5 -16.5q0 -4 -2 -8q-29 -117 -94 -212t-166 -95q-96 0 -161 58t-65 152q0 13 7.5 52t7.5 57q0 99 -120 130.5 t-261 31.5l-103 -406q-7 -31 -34.5 -53t-61.5 -22q-29 0 -49 18t-20 47z" />
<glyph unicode="&#xe000;" horiz-adv-x="905" d="M0 905h905v-905h-905v905z" />
</font>
</defs>
</svg>
