<?xml version="1.0" standalone="no"?>
<!DOCTYPE svg PUBLIC "-//W3C//DTD SVG 1.1//EN" "http://www.w3.org/Graphics/SVG/1.1/DTD/svg11.dtd" >
<svg xmlns="http://www.w3.org/2000/svg">
<metadata>
This is a custom SVG webfont generated by Font Squirrel.
Copyright   : Copyright C 1994 Basil K Malyshev All Rights Reserved012BaKoMa Fonts Collection LevelB
</metadata>
<defs>
<font id="cmmib6Regular" horiz-adv-x="1458" >
<font-face units-per-em="2048" ascent="1638" descent="-410" />
<missing-glyph horiz-adv-x="500" />
<glyph unicode=" "  horiz-adv-x="500" />
<glyph unicode="&#x09;" horiz-adv-x="500" />
<glyph unicode="&#xa0;" horiz-adv-x="500" />
<glyph unicode="!" horiz-adv-x="1800" d="M100 350q0 135 66.5 268.5t173.5 258.5q32 32 66 32q30 0 50.5 -19.5t20.5 -49.5q0 -27 -20 -52q-72 -81 -134.5 -189.5t-62.5 -188.5q0 -83 73.5 -124.5t164.5 -41.5q129 0 237 67v27q0 64 17 131.5t57 114.5t104 47q50 0 78.5 -36t28.5 -87q0 -96 -72 -215 q57 -49 148 -49q84 0 179.5 30.5t161.5 91.5t66 146q0 45 -18.5 71.5t-58.5 59t-56 53t-16 58.5q0 66 54 121t120 55q81 0 123.5 -67.5t42.5 -153.5q0 -94 -24 -191.5t-71 -188t-110 -153.5q-90 -90 -202.5 -142t-231.5 -52q-80 0 -147.5 34.5t-110.5 98.5 q-161 -133 -342 -133q-157 0 -256 105t-99 263z" />
<glyph unicode="&#x22;" horiz-adv-x="1319" d="M123 238q0 68 37 129.5t92 101.5q-41 56 -41 125q0 89 62 161t151 115q160 78 395 78q37 0 101.5 -11.5t118 -30t93 -49.5t39.5 -73q0 -45 -36.5 -82.5t-81.5 -37.5q-24 0 -49 14q-101 63 -218 63q-143 0 -281 -25t-138 -108q0 -35 39 -61q106 35 245 35q91 0 153 -17 t62 -84q0 -61 -39.5 -89.5t-91 -36t-121.5 -7.5q-139 0 -229 33q-106 -54 -106 -121q0 -92 344 -92h6q76 0 138 4t124 23t90 59q21 25 49 25q30 0 48 -22t18 -52q0 -19 -13 -45q-65 -119 -192 -159t-295 -40q-181 0 -327 61t-146 216z" />
<glyph unicode="#" horiz-adv-x="1757" d="M113 606q1 4 1.5 7t0.5 8q32 120 111 213.5t186 93.5q121 0 219 -48.5t98 -156.5q0 -9 -2 -23t-4 -26l-80 -320q-14 -52 -14 -96q0 -78 54 -100.5t142 -22.5q109 0 187.5 87.5t121.5 198t80 251.5q-134 31 -234 74.5t-171.5 124t-71.5 198.5q0 112 56.5 196.5 t152.5 129.5t207 45q97 0 170 -35.5t123 -101t73 -147t23 -173.5q0 -99 -22 -209q60 -6 89 -13.5t29 -39.5v-10l-18 -72q-3 -11 -16 -20t-27 -9q-71 9 -94 13q-50 -161 -144 -308.5t-228.5 -240t-299.5 -92.5q-197 0 -321.5 52.5t-124.5 221.5q0 55 16 117l80 319q2 6 2 21 q0 28 -18.5 44.5t-49.5 16.5q-50 0 -80.5 -54t-50.5 -126q-3 -13 -14 -22t-23 -9h-73q-18 3 -29.5 14.5t-11.5 28.5zM893 1090q0 -186 360 -267q35 151 35 250q0 88 -35 150.5t-116 62.5q-67 0 -122 -21t-88.5 -65t-33.5 -110z" />
<glyph unicode="$" horiz-adv-x="2419" d="M109 621q0 15 8 26q63 75 127.5 131.5t143.5 93.5t161 37h1696q42 0 69 -27t27 -69q0 -54 -39.5 -95.5t-93.5 -41.5h-66q12 -52 12 -107q0 -143 -83.5 -280.5t-219 -222t-280.5 -84.5q-124 0 -211.5 71t-120.5 193q-68 -81 -147 -139t-173 -91.5t-192 -33.5 q-133 0 -221 87t-88 218q0 179 162 389h-62q-93 0 -157.5 -14.5t-108.5 -67.5q-16 -16 -31 -16h-74q-38 3 -38 43zM578 332q0 -60 59.5 -88.5t126.5 -28.5q102 0 203.5 44.5t175.5 124.5t100 181q12 33 39 33h74q18 -3 29.5 -14.5t11.5 -28.5q0 -11 -7.5 -49t-7.5 -51 q0 -105 61.5 -172.5t164.5 -67.5q102 0 192.5 44.5t145.5 125.5t55 184q0 58 -14 107h-1229q-64 -74 -122 -176t-58 -168z" />
<glyph unicode="%" horiz-adv-x="1487" d="M219 -109q0 112 53 358t99 337q79 161 242.5 251.5t351.5 90.5q125 0 227.5 -37.5t165.5 -120.5t63 -207q0 -129 -55 -236.5t-151.5 -185.5t-216 -118.5t-246.5 -40.5q-106 0 -196 28.5t-155 93.5q-14 -86 -14 -131q0 -36 8 -53q39 -45 310 -45q125 0 224 -5.5t161 -27.5 q59 -35 59 -112q0 -46 -11 -84t-42 -43h-74q-39 7 -39 43v6q-18 2 -59 2q-42 0 -127 -6t-129 -6q-136 0 -226 12t-156.5 67t-66.5 170zM563 295q0 -160 205 -160q100 0 176.5 42.5t118.5 125.5q30 59 55 158.5t25 163.5q0 80 -53 114.5t-140 34.5q-88 0 -164 -34.5 t-124 -102.5q-28 -43 -50 -103t-35.5 -125t-13.5 -114z" />
<glyph unicode="&#x26;" horiz-adv-x="1114" d="M123 453q0 121 80.5 220.5t197.5 157.5q98 48 210 72.5t225 24.5q46 0 114 -14t117 -45t49 -78q0 -39 -28.5 -69t-67.5 -30q-18 0 -67 30t-72 41t-62 11q-89 0 -198.5 -21t-190 -74.5t-80.5 -141.5q0 -46 36.5 -76.5t88.5 -50.5l395 -162q57 -24 91 -72t34 -113 q0 -68 -37 -133.5t-99.5 -106t-133.5 -40.5q-65 0 -142 22.5t-77 67.5q0 33 28.5 57.5t61.5 24.5q16 0 25 -2q51 -16 120 -16q6 0 12.5 10t6.5 16v8q0 17 -31 33l-367 150q-104 44 -171.5 120.5t-67.5 178.5z" />
<glyph unicode="'" horiz-adv-x="1855" d="M152 377q0 125 73.5 281t169.5 243q12 8 25 8h74q16 -3 27 -15t11 -28q0 -19 -16 -32q-51 -48 -98.5 -125.5t-79 -162t-31.5 -149.5q0 -71 69 -111t158.5 -53.5t172.5 -13.5l32 98q51 151 137.5 288.5t210 230t273.5 92.5q101 0 181.5 -46.5t125.5 -128t45 -182.5 q0 -147 -74.5 -259.5t-195.5 -184.5t-264 -108.5t-279 -36.5h-59l-47 -295q-12 -58 -54.5 -94.5t-101.5 -36.5q-47 0 -80 30t-33 76q0 15 8 47l99 291q-120 17 -227.5 58.5t-179.5 120t-72 198.5zM877 215h55q229 0 424.5 63.5t195.5 243.5q0 58 -34.5 96.5t-86.5 57 t-108 18.5q-80 0 -156 -37t-137 -96q-61 -61 -96 -135q-10 -16 -16 -35q-10 -22 -21 -59q-2 -10 -3 -16.5t-3 -14.5z" />
<glyph unicode="(" horiz-adv-x="2841" d="M193 504v14q6 43 43 64q120 52 224.5 123t194.5 163.5t164 202.5q19 25 55 31h19q30 -4 49 -24t23 -48v-10q-8 -52 -78.5 -137.5t-160.5 -169t-140 -119.5h1986q31 -4 51 -24t25 -52q0 -34 -20.5 -57.5t-55.5 -28.5h-2308q-61 9 -71 72z" />
<glyph unicode=")" horiz-adv-x="2841" d="M193 508v14q10 63 71 72h2308q31 -4 51 -24t25 -52q0 -34 -20.5 -57.5t-55.5 -28.5h-1986q50 -35 141.5 -120.5t160.5 -169.5t77 -136v-10q-11 -63 -72 -72h-19q-34 6 -55 31q-109 166 -255 288.5t-328 200.5q-37 21 -43 64z" />
<glyph unicode="*" horiz-adv-x="2841" d="M193 508q0 35 20.5 58t54.5 28h1987q-57 41 -144 122t-157.5 166.5t-77.5 137.5v10q10 62 72 72h18q36 -6 57 -31q60 -89 118.5 -155.5t134.5 -130.5t159 -114.5t172 -88.5q35 -21 41 -64v-14q-10 -62 -72 -72h-2308q-65 9 -75 76z" />
<glyph unicode="+" horiz-adv-x="2841" d="M193 508q0 35 20.5 58t54.5 28h2308q62 -10 72 -72v-14q-6 -43 -41 -64q-89 -38 -172 -88.5t-156 -111.5t-136.5 -133t-119.5 -156q-22 -25 -57 -31h-18q-62 10 -72 72v10q7 52 76.5 136.5t158 167.5t144.5 122h-1987q-65 9 -75 76z" />
<glyph unicode="," horiz-adv-x="844" d="M193 770v14q0 94 53.5 172t140.5 122t180 44q34 0 56 -19.5t28 -53.5v-15q-6 -32 -25 -51t-51 -22q-85 0 -153 -51t-68 -132q0 -54 32 -96.5t82.5 -65t106.5 -22.5q32 -3 51 -23t25 -51v-14q-6 -34 -28 -54t-56 -20q-93 0 -180 44t-140.5 122t-53.5 172z" />
<glyph unicode="-" horiz-adv-x="844" d="M193 506v14q13 68 77 74q56 0 105.5 22t81.5 65t32 97q0 82 -67.5 132.5t-151.5 50.5q-64 6 -77 73v15q13 73 86 73q92 0 179 -44.5t140 -122t53 -171.5v-14q0 -70 -31.5 -133.5t-85 -109t-121 -70.5t-134.5 -25q-73 0 -86 74z" />
<glyph unicode="." d="M117 -109v1244q6 33 28 53t54 20q10 0 34 -8l1072 -618q30 -23 36 -62v-14q-6 -39 -36 -62l-1063 -614q-22 -12 -43 -12q-32 0 -53.5 20t-28.5 53zM279 39l821 475l-821 473v-948z" />
<glyph unicode="/" d="M117 506v14q6 40 39 62l1063 614q18 12 43 12q30 0 51.5 -20.5t27.5 -52.5v-1244q-6 -32 -27.5 -52.5t-51.5 -20.5q-13 0 -37 8l-1069 618q-33 22 -39 62zM358 514l822 -475v948z" />
<glyph unicode="0" d="M145 444q0 186 70.5 298t199.5 159t314 47t314 -47t199.5 -159t70.5 -298q0 -268 -153 -375.5t-431 -107.5q-130 0 -237 23.5t-185.5 79t-120 149.5t-41.5 231zM438 473q0 -119 5.5 -177.5t33 -100.5t85.5 -61t167 -19q141 0 202.5 34.5t75 102t13.5 221.5 q0 109 -8 166.5t-35.5 92t-85.5 49t-162 14.5q-137 0 -197 -26.5t-77 -90t-17 -205.5z" />
<glyph unicode="1" d="M258 776v10q10 63 72 72h4q160 0 274.5 15.5t210.5 66.5q16 8 31 8h10q62 -10 72 -71v-11q-6 -44 -45 -65v-643q63 -4 268 -4q63 -11 72 -72v-10q-5 -29 -25.5 -50.5t-50.5 -21.5h-801q-30 0 -50.5 20.5t-27.5 51.5v10q11 61 72 72q211 0 274 4v561q-92 -14 -278 -14h-10 q-63 6 -72 71z" />
<glyph unicode="2" d="M162 72v43q0 21 24 35l566 262q94 40 156.5 83t62.5 111q0 85 -71.5 126.5t-159 52t-193.5 10.5q-61 0 -109 -9q-1 0 6 -14q1 -4 1.5 -8t0.5 -10q3 -6 3 -19q0 -37 -17 -66t-46 -46t-64 -17q-55 0 -92 37t-37 92q0 97 83.5 144.5t186 58t227.5 10.5q101 0 199 -12.5 t189 -49t147.5 -106t56.5 -174.5q0 -71 -39 -116.5t-94 -70t-137 -48.5t-121 -39l-150 -60q295 0 365 4q8 12 29 62q18 43 65 49h10q62 -10 72 -72v-10q0 -5 -0.5 -8.5t-1.5 -7.5l-76 -240q-21 -43 -67 -49h-904q-61 10 -71 72z" />
<glyph unicode="3" d="M154 -102q0 69 48 117t117 48q70 0 117 -48t47 -117q0 -87 -65 -134q102 -57 284 -57q134 0 198.5 64.5t64.5 197.5t-66.5 197.5t-200.5 64.5h-157q-17 0 -29 13t-12 28v74q0 14 12.5 26.5t28.5 12.5l139 8q65 0 120.5 36t88.5 95.5t33 122.5q0 96 -59 132t-161 36 q-144 0 -237 -57q34 -20 54 -56t20 -77q0 -44 -20.5 -78t-55.5 -54t-78 -20t-78 20t-55.5 54t-20.5 78q0 162 146.5 242.5t324.5 80.5q115 0 234.5 -26.5t205 -94.5t85.5 -180q0 -79 -34 -145.5t-90.5 -115t-131.5 -81.5q86 -23 162 -67t124 -112.5t48 -156.5 q0 -111 -56 -190.5t-144 -125.5t-194.5 -67.5t-208.5 -21.5q-90 0 -183.5 15.5t-176.5 52.5t-135.5 103t-52.5 163z" />
<glyph unicode="4" d="M115 72v53q0 31 20 51l692 770q23 21 50 21h176q13 0 24 -6t17 -16.5t6 -24.5v-766h172q28 -4 47.5 -23.5t23.5 -48.5v-10q-10 -63 -71 -72h-172v-242q16 -1 54 -1.5t64 -0.5h54q29 -4 48 -23t23 -48v-11q-5 -30 -26.5 -50.5t-50.5 -20.5h-641q-30 0 -50.5 20.5 t-25.5 50.5v11q10 62 72 71h63q29 0 72.5 0.5t60.5 1.5v242h-631q-61 9 -71 72zM322 154h526v585z" />
<glyph unicode="5" d="M176 -104q0 62 43.5 105.5t106.5 43.5t106 -43t43 -106q0 -40 -18 -74t-51 -53q94 -62 253 -62q115 0 182 29t98.5 94t31.5 176q0 95 -15.5 157t-65.5 97t-147 35q-217 0 -315 -137q-12 -17 -33 -17h-78q-39 6 -45 45v723q3 16 14 27.5t29 11.5q9 0 15 -2 q195 -63 393 -63q197 0 395 63q4 2 12 2q35 0 44 -39v-73q0 -14 -17 -31q-76 -67 -164.5 -113.5t-186 -71t-198.5 -24.5q-72 0 -157 10v-237q128 80 292 80q144 0 266.5 -49.5t197.5 -150t75 -245.5q0 -153 -94 -253t-236 -143.5t-293 -43.5q-180 0 -331.5 82.5 t-151.5 249.5z" />
<glyph unicode="6" d="M154 662q0 211 93.5 369t259 242.5t376.5 84.5q146 0 249 -66.5t103 -206.5q0 -39 -19 -71.5t-51 -51t-71 -18.5q-58 0 -100 41t-42 100q0 79 58 115q-51 25 -127 25q-230 0 -325 -130.5t-95 -367.5q60 81 150.5 126.5t191.5 45.5q145 0 259 -55t177.5 -162.5 t63.5 -253.5q0 -159 -80 -264t-211.5 -154t-284.5 -49q-158 0 -268.5 54t-178.5 149.5t-98 222t-30 275.5zM469 418q0 -143 61.5 -228.5t198.5 -85.5q117 0 175 34.5t74.5 99t16.5 186.5v6q0 122 -13.5 184.5t-67 96.5t-169.5 34q-75 0 -139 -40.5t-100.5 -106.5t-36.5 -143 v-25v-12z" />
<glyph unicode="7" d="M193 528v11q1 3 1.5 6t0.5 6l88 360q18 50 69 56h10q49 -7 66 -47q6 0 8 2q62 4 90 4q61 0 157 -8.5t146 -8.5h480q29 -4 48 -23t23 -48v-37q0 -19 -10 -29l-346 -334q-134 -131 -181.5 -318.5t-47.5 -418.5q0 -38 -19 -69.5t-52.5 -49.5t-70.5 -18q-59 0 -100 41 t-41 100q0 146 43 287.5t120 268t181 228.5l143 138h-186q-348 0 -434 -6q-12 -21 -24 -66t-28.5 -69t-52.5 -29h-10q-30 5 -48 23t-23 48z" />
<glyph unicode="8" d="M154 336q0 124 71 213t191 143q-83 52 -134 127.5t-51 163.5q0 193 147 284t351 91q205 0 351.5 -70.5t146.5 -253.5q0 -186 -199 -293q79 -38 140.5 -88.5t99 -119.5t37.5 -152q0 -151 -83.5 -245t-214.5 -134.5t-278 -40.5q-235 0 -405 82.5t-170 292.5zM377 336 q0 -128 105 -180t247 -52q89 0 163.5 11.5t131.5 53t57 122.5q0 76 -112 135l-361 172q-102 -37 -166.5 -101t-64.5 -161zM426 1085q0 -53 84 -96l336 -160q86 35 136 82t50 123q0 108 -90.5 149.5t-212.5 41.5q-127 0 -215 -24.5t-88 -115.5z" />
<glyph unicode="9" d="M154 492q0 223 196 356q86 56 181 78t212 22q203 0 328.5 -91t179.5 -245t54 -354q0 -154 -49.5 -282.5t-140.5 -220.5t-220 -141.5t-281 -49.5q-100 0 -187.5 24t-145.5 85t-58 163q0 59 41 100t101 41q39 0 71.5 -19t51 -51t18.5 -71q0 -64 -47 -108q61 -21 155 -21 q148 0 232.5 63t116.5 169t32 251q-59 -78 -151 -124t-191 -46q-144 0 -258.5 55.5t-177.5 162t-63 254.5zM463 485q0 -87 6.5 -143t30 -93t75 -56t138.5 -19q75 0 140 40t101.5 106t36.5 143q0 16 -2 22q1 3 1.5 6.5t0.5 6.5q0 143 -55 230t-193 87q-121 0 -181 -33.5 t-79.5 -99.5t-19.5 -190v-7z" />
<glyph unicode=":" horiz-adv-x="844" d="M248 176q0 45 24 85.5t65 64.5t87 24q45 0 85.5 -24t64.5 -64.5t24 -85.5q0 -46 -24 -87t-64.5 -65t-85.5 -24q-46 0 -87 24t-65 65t-24 87z" />
<glyph unicode=";" horiz-adv-x="844" d="M248 176q0 50 23 89t63 62t90 23q67 0 113.5 -42t69 -106.5t22.5 -129.5q0 -88 -28.5 -175.5t-81.5 -160.5t-122 -125h-53l-55 55q-10 10 -10 27q0 13 16 35q72 51 117 123t57 155q-6 -1 -24 -3.5t-21 -2.5q-76 0 -126 50t-50 126z" />
<glyph unicode="&#x3c;" horiz-adv-x="2226" d="M268 506v14q9 45 45 66l1528 719q24 8 37 8q33 0 53.5 -20.5t26.5 -53.5v-14q-9 -45 -45 -66l-1372 -645l1372 -647q36 -19 45 -66v-14q-7 -33 -27 -53.5t-53 -20.5q-13 0 -37 8l-1528 719q-36 21 -45 66z" />
<glyph unicode="=" d="M193 -424q3 16 8 29l911 1886q10 20 30 32.5t44 12.5q31 0 52.5 -21.5t27.5 -52.5v-14q-3 -16 -9 -29l-911 -1886q-11 -20 -31.5 -32.5t-40.5 -12.5q-34 0 -54 20.5t-27 53.5v14z" />
<glyph unicode="&#x3e;" horiz-adv-x="2226" d="M268 -199q9 47 45 66l1373 647l-1373 645q-36 21 -45 66v14q6 33 27.5 53.5t54.5 20.5q11 0 35 -8l1528 -719q36 -21 45 -66v-14q-9 -45 -45 -66l-1528 -719q-24 -8 -35 -8q-68 0 -82 74v14z" />
<glyph unicode="?" d="M172 631q0 21 15 34t34 13l391 -51l72 385q11 37 45 37q32 0 47 -37l70 -385l391 51q20 0 34.5 -12.5t14.5 -34.5q0 -27 -24 -41l-342 -187l167 -352q5 -13 5 -20q0 -19 -14 -33t-34 -14q-18 0 -30 12l-285 270l-285 -270q-12 -12 -30 -12t-32.5 14.5t-14.5 32.5 q0 4 4 20l168 352l-342 187q-25 13 -25 41z" />
<glyph unicode="@" horiz-adv-x="1538" d="M172 340v4v2q0 94 32.5 183.5t91 165t136.5 132.5q107 74 208.5 105t229.5 31q124 0 230 -54.5t155 -156.5q16 62 27.5 128t11.5 130q0 166 -104.5 241.5t-274.5 75.5q-48 0 -96 -9.5t-91.5 -31t-78.5 -53.5q58 -38 58 -98q0 -69 -50.5 -119.5t-119.5 -50.5q-51 0 -86 32 t-35 80v4q0 74 56 158.5t124 128.5q134 92 328 92h4q178 0 328 -60t237.5 -184.5t87.5 -310.5v-4q0 -142 -55 -307t-137 -289q-76 -113 -177 -189.5t-224.5 -115.5t-256.5 -39h-6q-114 0 -206 17t-169 67q-178 122 -178 295zM465 274q0 -103 78.5 -136.5t195.5 -33.5 q174 0 274.5 89.5t162.5 265.5q0 9 10 50t10 64q0 73 -38.5 127t-101 81.5t-134.5 27.5q-71 0 -136 -11.5t-119 -43t-92 -86.5q-24 -38 -49.5 -113.5t-43 -156t-17.5 -124.5z" />
<glyph unicode="A" horiz-adv-x="2144" d="M160 72v10q4 29 24 48.5t47 23.5q134 0 179 22q4 2 14 12t12 11l848 1216q33 47 84 47h139q24 0 41 -13t21 -34l248 -1259q36 -2 133 -2q65 -11 71 -72v-10q-6 -63 -71 -72h-584q-58 9 -70 72v10q11 61 72 72q82 0 123 2l-47 247h-670l-172 -245q27 -4 82 -4 q63 -11 72 -72v-10q-10 -63 -72 -72h-25q-88 6 -184 6q-2 2 -6 2h-51q-32 0 -95 -4t-96 -4q-57 9 -67 72zM881 557h532l-117 596z" />
<glyph unicode="B" horiz-adv-x="2124" d="M186 72v10q11 61 72 72q131 0 174 2l275 1093q-41 2 -136 2q-61 9 -71 72v10q10 63 71 72h930q116 0 237.5 -24t207.5 -90.5t86 -182.5q0 -149 -137.5 -243t-307.5 -128q85 -12 167.5 -45t136 -93.5t53.5 -147.5q0 -104 -72 -196.5t-174 -148.5q-109 -59 -226.5 -82.5 t-244.5 -23.5h-969q-61 9 -72 72zM717 154h471q163 0 297.5 74t134.5 225q0 105 -77.5 152.5t-190.5 47.5h-510zM879 807h395q65 0 144 16t147 49t111.5 86.5t43.5 126.5q0 92 -77 129t-181 37h-411h-62z" />
<glyph unicode="C" horiz-adv-x="2028" d="M166 547q0 135 51.5 264t143 239t204.5 185q105 71 229.5 118t256 69t264.5 22q81 0 161 -15.5t153.5 -48.5t133.5 -84l189 140q12 8 22 8h35q16 -3 27.5 -14t11.5 -29v-8l-131 -519q-3 -11 -15 -20.5t-22 -9.5h-98q-41 7 -41 47q4 32 4 51q0 104 -49 183.5t-133.5 122 t-188.5 42.5q-194 0 -362.5 -51.5t-288.5 -171.5q-66 -67 -118 -163t-79.5 -201t-27.5 -205q0 -383 563 -383q95 0 190 24.5t184.5 76.5t151 125t82.5 165q3 9 15.5 19t23.5 10h74q39 -10 39 -43q0 -9 -2 -13q-41 -168 -177 -285t-318 -175t-357 -58q-206 0 -387.5 55.5 t-297.5 187t-116 343.5z" />
<glyph unicode="D" horiz-adv-x="2277" d="M178 72v10q9 61 72 72q131 0 174 2l274 1093q-41 2 -135 2q-61 9 -71 72v10q10 63 71 72h938q140 0 261 -29.5t217 -92.5t152 -166t56 -249q0 -98 -27.5 -197t-77 -186t-118.5 -163t-154 -134q-71 -47 -153.5 -84.5t-165.5 -60t-168.5 -33t-173.5 -10.5h-899 q-62 10 -72 72zM725 154h379q172 0 315 39t244 141q60 60 109 162t75.5 214.5t26.5 204.5q0 134 -71 209t-179 101t-246 26h-319h-62z" />
<glyph unicode="E" horiz-adv-x="1980" d="M174 72v10q9 61 72 72q131 0 174 2l274 1093q-41 2 -135 2q-61 9 -72 72v10q11 63 72 72h1317q62 -9 72 -72v-10l-13 -342q-6 -63 -71 -72h-11q-61 10 -71 72v10l2 21q0 89 -28.5 144t-106.5 75q-93 20 -283 20h-297h-6h-55l-111 -446h133q135 0 202.5 24t94.5 125 q18 50 70 56h10q62 -10 72 -72v-10q0 -13 -4 -17l-103 -409q-14 -48 -67 -56h-11q-62 11 -71 72v10q1 10 4.5 29.5t3.5 36.5q0 22 -4 33q-15 24 -187 24h-10h-172l-123 -497h338q144 0 236 11t167 46.5t138 106.5t127 192q19 35 63 41h11q61 -10 71 -72v-10q0 -11 -8 -29 l-211 -397q-19 -37 -63 -43h-1358q-62 10 -72 72z" />
<glyph unicode="F" horiz-adv-x="1659" d="M174 72v10q9 61 72 72q131 0 174 2l274 1093q-41 2 -135 2q-61 9 -72 72v10q11 63 72 72h1278q62 -9 72 -72v-10l-13 -342q-6 -63 -71 -72h-10q-62 10 -72 72v10l2 23q0 109 -51 161.5t-128 64t-210 11.5h-293h-55l-117 -471h125q90 0 140.5 7.5t89.5 40t59 102.5 q18 49 69 55h10q62 -10 72 -72v-10q0 -12 -4 -16l-102 -410q-16 -49 -68 -55h-10q-62 9 -72 72v10q2 11 4 22.5t4 24t2 20.5q0 7 -0.5 11t-1.5 8q0 37 -192 37h-164l-117 -471q53 -2 191 -2q65 -11 71 -72v-10q-10 -63 -71 -72h-682q-60 9 -70 72z" />
<glyph unicode="G" horiz-adv-x="2165" d="M166 547q0 135 51.5 264t143 239t204.5 185q105 71 229.5 118t256 69t264.5 22q81 0 161 -15.5t153.5 -48.5t133.5 -84l189 140q12 8 22 8h35q16 -3 27.5 -14t11.5 -29v-8l-131 -519q-3 -11 -15 -20.5t-22 -9.5h-98q-41 7 -41 47q4 32 4 51q0 104 -49 183.5t-133.5 122 t-188.5 42.5q-194 0 -362.5 -51.5t-288.5 -171.5q-66 -67 -118 -163t-79.5 -201t-27.5 -205q0 -383 565 -383q84 0 161 6.5t145 35t77 85.5l39 161q-66 3 -252 3q-63 10 -72 71v10q10 62 72 72h711q25 -4 44 -24.5t23 -47.5v-10q-9 -61 -72 -71q-102 0 -139 -3l-45 -182 l-49 -190q-7 -31 -41 -31q-16 0 -68.5 26.5t-74.5 41.5q-63 -48 -157 -72t-184.5 -29.5t-213.5 -5.5q-206 0 -387.5 55.5t-297.5 187t-116 343.5z" />
<glyph unicode="H" horiz-adv-x="2374" d="M174 72v10q9 61 72 72q131 0 174 4l274 1091q-41 2 -135 2q-61 9 -72 72v10q11 63 72 72h627q27 -4 45.5 -24t21.5 -48v-10q-10 -63 -71 -72q-129 0 -174 -2l-111 -442h827l111 442q-41 2 -135 2q-62 10 -72 72v10q10 62 72 72h627q28 -4 46 -23.5t21 -48.5v-10 q-10 -63 -72 -72q-129 0 -174 -2l-272 -1093q41 -2 133 -2q30 -4 49.5 -23.5t22.5 -48.5v-10q-3 -29 -21.5 -48t-50.5 -24h-625q-27 4 -45.5 24.5t-23.5 47.5v10q4 29 24 48.5t47 23.5q132 0 175 4l125 495h-826l-125 -497q41 -2 133 -2q30 -4 49.5 -23.5t22.5 -48.5v-10 q-3 -29 -21.5 -48t-50.5 -24h-624q-60 9 -70 72z" />
<glyph unicode="I" horiz-adv-x="1225" d="M160 72v10q6 61 71 72q140 0 185 4l274 1091q-45 2 -147 2q-62 10 -72 72v10q10 62 72 72h649q27 -4 46.5 -24t23.5 -48v-10q-11 -63 -72 -72q-141 0 -186 -4l-273 -1091q43 -2 146 -2q27 -4 46.5 -23t24.5 -49v-10q-10 -63 -71 -72h-650q-60 9 -67 72z" />
<glyph unicode="J" horiz-adv-x="1544" d="M184 188q0 83 58 147t141 64q58 0 99.5 -36.5t41.5 -94.5q0 -79 -59 -141q56 -12 143 -12q98 0 179 49.5t104 140.5l235 944q-57 2 -202 2q-31 5 -50 24t-22 48v10q3 29 22 48t50 24h624q27 -4 45 -23.5t21 -48.5v-10q-3 -29 -21.5 -48t-50.5 -24q-82 0 -117 -2 l-239 -964q-23 -89 -85.5 -152t-146.5 -100.5t-178 -54.5t-182 -17q-96 0 -187 18t-157 68.5t-66 140.5z" />
<glyph unicode="K" horiz-adv-x="2357" d="M174 72v10q9 61 72 72q131 0 174 4l274 1091q-41 2 -135 2q-61 9 -72 72v10q11 63 72 72h627q27 -4 45.5 -24t21.5 -48v-10q-10 -63 -71 -72q-129 0 -174 -2l-144 -575l961 577q-64 10 -70 72v10q3 29 22 48t50 24h477h-10q57 -12 67 -72v-10q-10 -63 -71 -72 q-125 0 -195 -18l-76 -33q-3 -2 -7 -2h-8q-4 0 -7 -2l-584 -352l471 -684q37 -6 131 -6q28 -4 47.5 -23t24.5 -49v-10q-10 -63 -72 -72h-553q-60 12 -69 72v10q4 29 23 48t48 24h58l-367 534l-338 -203l-82 -329q41 -2 133 -2q30 -4 49.5 -23.5t22.5 -48.5v-10 q-3 -29 -21.5 -48t-50.5 -24h-624q-60 9 -70 72z" />
<glyph unicode="L" horiz-adv-x="1880" d="M174 72v10q9 61 72 72q131 0 174 2l274 1093q-41 2 -135 2q-61 9 -72 72v10q11 63 72 72h25q51 0 152 -4t153 -4h14q56 0 170 4t170 4q26 -4 45 -24.5t23 -47.5v-10q-10 -62 -72 -72q-180 0 -231 -4l-273 -1093h260q140 0 243.5 36t178 113t131.5 207q21 35 64 41h10 q29 -3 48 -21.5t24 -50.5v-10q0 -11 -8 -29l-175 -397q-19 -37 -63 -43h-1202q-62 10 -72 72z" />
<glyph unicode="M" horiz-adv-x="2757" d="M195 72v10q4 29 23 48t48 24q121 0 178 16l271 1079q-41 2 -135 2q-62 10 -72 72v10q10 62 72 72h456q23 0 41.5 -12.5t24.5 -34.5l297 -1116l856 1116q36 47 88 47h420q61 -9 71 -72v-10q-10 -63 -71 -72q-129 0 -174 -2l-273 -1093q41 -2 133 -2q30 -4 49.5 -23.5 t22.5 -48.5v-10q-3 -29 -21.5 -48t-50.5 -24h-581q-59 13 -68 72v10q9 61 72 72q131 0 174 4l278 1110l-935 -1221q-37 -47 -89 -47h-34q-54 0 -66 47l-317 1192l-271 -1079q45 -6 133 -6q30 -4 49.5 -23.5t22.5 -48.5v-10q-3 -29 -21.5 -48t-50.5 -24h-22q-38 0 -116 4 t-118 4q-37 0 -113 -4t-114 -4q-58 13 -67 72z" />
<glyph unicode="N" horiz-adv-x="2296" d="M174 72v10q9 61 72 72q121 0 178 16l270 1081h-135q-61 9 -72 72v10q11 63 72 72h455q19 0 33 -16l718 -988l211 844q-43 6 -133 6q-61 9 -71 72v10q10 63 71 72h484q61 -13 67 -72v-10q-10 -63 -72 -72q-120 0 -176 -16l-301 -1198q-12 -37 -43 -37h-80q-19 0 -32 16 l-844 1158l-254 -1014q45 -6 133 -6q30 -4 49.5 -23.5t22.5 -48.5v-10q-3 -29 -21.5 -48t-50.5 -24h-23q-37 0 -115 4t-118 4q-38 0 -114 -4t-113 -4q-59 13 -68 72z" />
<glyph unicode="O" horiz-adv-x="2062" d="M160 514q0 138 52 275t141.5 251.5t207.5 198.5q102 72 219.5 118t235 66.5t239.5 20.5q143 0 272 -30.5t229 -97t159 -175.5t59 -260q0 -211 -109 -404.5t-288 -316.5q-289 -199 -692 -199q-193 0 -357 54.5t-266 179t-102 319.5zM500 498q0 -128 54.5 -210 t150.5 -119.5t223 -37.5q139 0 265 47t216 137q70 71 125 178.5t85 226t30 216.5q0 186 -119 270t-313 84q-141 0 -268 -44.5t-222 -139.5q-103 -103 -165 -277t-62 -331z" />
<glyph unicode="P" horiz-adv-x="1757" d="M178 72v10q9 61 72 72q131 0 174 4l274 1091q-41 2 -135 2q-61 9 -71 72v10q10 63 71 72h899q131 0 257 -29.5t212 -107t86 -209.5q0 -119 -76 -224t-190 -169q-204 -117 -502 -117h-411l-99 -393q41 -2 133 -2q30 -4 49.5 -23.5t22.5 -48.5v-10q-3 -29 -21.5 -48 t-50.5 -24h-624q-60 9 -70 72zM862 702h340q76 0 129 3t108.5 17.5t100.5 41t78 83.5t50.5 124t17.5 121q0 72 -56 107t-128 43.5t-163 8.5h-280h-62z" />
<glyph unicode="Q" horiz-adv-x="2138" d="M160 514q0 138 52 275t141.5 251.5t207.5 198.5q102 72 219.5 118t235 66.5t239.5 20.5q143 0 272 -30.5t229 -97t159 -175.5t59 -260q0 -148 -50 -280.5t-142 -245t-211.5 -195.5t-257.5 -131q58 -86 147 -86q211 0 240 61q10 43 47 43q19 0 33 -14t14 -33v-10 q-25 -99 -85 -187.5t-147.5 -144t-187.5 -55.5q-99 0 -151 54.5t-69 119.5t-40 203q-108 -19 -223 -19h-6q-193 0 -357 54.5t-266 179t-102 319.5zM479 481q0 -72 19.5 -132t61.5 -108t104 -77q12 62 60.5 106.5t117 66t131.5 21.5q89 0 150 -49.5t108 -134.5 q103 46 184 126t134 180t80.5 212.5t27.5 222.5q0 132 -57 215t-155 121.5t-228 38.5q-90 0 -181.5 -20.5t-172.5 -63.5t-144 -106q-71 -72 -126 -178t-84.5 -220.5t-29.5 -220.5zM815 143q0 -28 109 -28q79 0 153 14q-37 76 -121 76q-48 0 -91 -13t-50 -49z" />
<glyph unicode="R" horiz-adv-x="2120" d="M178 72v10q9 61 72 72q131 0 174 4l274 1091q-41 2 -135 2q-61 9 -71 72v10q10 63 71 72h791q133 0 280.5 -25t256 -99t108.5 -204q0 -96 -60.5 -175t-152.5 -132.5t-187 -83.5q55 -37 86 -95t31 -126v-27l-16 -176v-24q0 -123 125 -123q48 0 89 27t58 71q13 40 45 45h66 q19 -3 32 -15t13 -32q0 -6 -2 -10q-18 -70 -66 -124t-114.5 -85t-135.5 -31q-118 0 -215 14.5t-170 68t-73 157.5q0 35 10 75l43 175q6 18 6 36q0 53 -40.5 84t-96 43.5t-107.5 12.5h-325l-117 -471q41 -2 133 -2q30 -4 49.5 -23.5t22.5 -48.5v-10q-3 -29 -21.5 -48 t-50.5 -24h-610q-61 12 -70 72zM881 780h274q125 0 209 9t154 42q67 32 105 106.5t38 154.5q0 72 -64 107t-144.5 43.5t-178.5 8.5h-215h-62z" />
<glyph unicode="S" horiz-adv-x="1710" d="M195 4v10l106 424q3 12 13.5 20.5t23.5 8.5h74q17 -3 29 -15t12 -28t-6.5 -44t-6.5 -44q0 -138 139.5 -179.5t319.5 -41.5q89 0 178 30.5t149 93t60 150.5q0 46 -26 80.5t-65 54.5t-87 31l-338 63q-137 28 -233.5 116t-96.5 220q0 107 62.5 208t156.5 165 q178 117 418 117q258 0 389 -111l131 103q14 8 23 8h35q39 -8 39 -43v-8l-107 -424q-3 -13 -15.5 -22t-23.5 -9h-73q-39 6 -39 47q2 16 2 49q0 102 -53 161t-137 82t-183 23q-82 0 -170 -26t-148.5 -80.5t-60.5 -136.5q0 -63 52 -99t124 -51l338 -63q93 -19 167.5 -66.5 t119.5 -121t45 -167.5q0 -77 -31.5 -156t-84.5 -143.5t-120 -109.5q-178 -119 -411 -119q-147 0 -263.5 21.5t-207.5 85.5l-123 -99q-12 -8 -23 -8h-35q-38 7 -38 43z" />
<glyph unicode="T" horiz-adv-x="1589" d="M121 981v10q0 5 6 23l139 350q21 35 64 41h1474q62 -9 72 -72v-10l-35 -342q-3 -29 -21.5 -48t-50.5 -24h-10q-61 9 -71 72v10q6 49 6 99q0 108 -65 134.5t-202 26.5h-161h-6h-56l-272 -1095q61 -2 227 -2q30 -4 49.5 -23.5t22.5 -48.5v-10q-3 -29 -21.5 -48t-50.5 -24 h-22q-66 0 -200 4t-200 4h-16q-63 0 -188 -4t-187 -4q-58 9 -70 72v10q11 61 72 72q215 0 270 4l273 1093h-184q-104 0 -168.5 -11.5t-111 -41.5t-82.5 -86.5t-75 -153.5q-18 -42 -67 -49h-10q-62 10 -72 72z" />
<glyph unicode="U" horiz-adv-x="1964" d="M193 1323v10q10 63 71 72h627q27 -4 45.5 -24t21.5 -48v-10q-10 -63 -71 -72q-129 0 -174 -2l-197 -790q-18 -74 -18 -125q0 -130 99.5 -174.5t248.5 -44.5q141 0 262.5 34.5t212 117t123.5 212.5l190 766q-43 6 -133 6q-61 9 -71 72v10q10 63 71 72h494q61 -12 67 -72 v-10q-10 -63 -71 -72q-121 0 -176 -16l-195 -776q-41 -165 -163.5 -278.5t-287 -166.5t-338.5 -53q-112 0 -222 20t-204 67t-152 128.5t-58 202.5q0 50 12 100l192 770q-41 2 -135 2q-61 9 -71 72z" />
<glyph unicode="V" horiz-adv-x="1683" d="M203 1323v10q3 29 21.5 48t49.5 24h576q27 -4 46.5 -24t23.5 -48v-10q-11 -63 -72 -72q-80 0 -119 -2l236 -997l733 995q-25 4 -76 4q-31 5 -50 24t-22 48v10q3 29 22 48t50 24h23q33 0 97 -4t97 -4h49q30 0 91 4t89 4q58 -13 68 -72v-10q-10 -62 -72 -72q-85 0 -139 -12 q-26 -5 -33 -10q-8 -8 -14.5 -13.5t-13.5 -11.5l-879 -1196q-36 -47 -88 -47h-141q-20 0 -39 13t-25 34l-293 1241q-34 2 -125 2q-65 9 -71 72z" />
<glyph unicode="W" horiz-adv-x="2681" d="M197 1323v10q10 63 71 72h561q26 -4 45 -24.5t23 -47.5v-10q-10 -62 -72 -72q-86 0 -127 -4l156 -954l573 864l-16 92q-33 2 -108 2q-62 10 -72 72v10q10 62 72 72h559q27 -4 45.5 -23.5t23.5 -48.5v-10q-10 -62 -71 -72q-86 0 -127 -4l155 -954l631 952q-35 6 -106 6 q-31 5 -50 24t-22 48v10q3 29 22 48t50 24h22q35 0 104 -4t103 -4h45q25 0 77 4t79 4q26 -4 43 -23.5t22 -48.5v-10q-10 -62 -72 -72q-131 0 -157 -30q-2 -2 -9.5 -7t-9.5 -8l-794 -1198q-34 -47 -82 -47h-113q-22 0 -38 13t-19 34l-154 946l-629 -946q-29 -47 -81 -47h-111 q-21 0 -38.5 13.5t-20.5 33.5l-203 1241q-33 2 -109 2q-61 9 -71 72z" />
<glyph unicode="X" horiz-adv-x="2300" d="M154 72v10q4 29 23 48t48 24q81 0 145 5.5t99 24.5q3 2 20 11.5t19 11.5l569 500l-340 542q-41 2 -162 2q-61 10 -71 72v10q10 62 71 72h603q27 -4 45.5 -24t21.5 -48v-10q-6 -62 -71 -72q-44 0 -64 -2l207 -329l375 329q-17 2 -50 2q-61 9 -71 72v10q10 63 71 72h25 q45 0 138 -4t139 -4q35 0 107 4t108 4q57 -12 67 -72v-10q-10 -63 -72 -72q-186 0 -243 -30q-3 -2 -20 -11.5t-19 -11.5l-469 -414l395 -626q41 -4 160 -4q28 -4 48 -24t24 -48v-10q-11 -63 -72 -72h-602q-58 9 -68 72v10q9 61 72 72q43 0 63 2l-262 417l-473 -417 q17 -2 51 -2q28 -4 47.5 -23t24.5 -49v-10q-10 -62 -72 -72h-24q-46 0 -139 4t-140 4q-35 0 -107 -4t-108 -4q-57 12 -67 72z" />
<glyph unicode="Y" horiz-adv-x="1675" d="M158 1323v10q10 63 71 72h617q27 -4 45.5 -24t21.5 -48v-10q-10 -63 -71 -72h-70l291 -497l541 497h-33q-62 10 -72 72v10q10 62 72 72h24q63 -4 193 -8h8h49q33 0 96 4t93 4q27 -4 45.5 -24t21.5 -48v-10q-10 -62 -71 -72q-156 0 -211 -30q-3 -1 -17 -10.5t-22 -12.5 l-695 -637l-100 -405q41 -2 135 -2q63 -11 72 -72v-10q-10 -63 -72 -72h-610q-60 9 -70 72v10q9 61 72 72q133 0 176 4l103 403l-404 688q-41 2 -158 2q-61 9 -71 72z" />
<glyph unicode="Z" horiz-adv-x="1903" d="M203 35q0 70 33 102l1232 1114h-266q-142 0 -250.5 -19.5t-196 -84t-128.5 -189.5q-20 -43 -68 -49h-10q-62 10 -72 72v10q0 9 4 17l117 348q18 43 66 49h1214q15 0 25 -9.5t10 -25.5q0 -66 -31 -96l-1227 -1110h281q175 0 288.5 23.5t199 101.5t141.5 235q18 42 67 49 h10q63 -10 72 -71v-10q0 -9 -4 -17l-151 -426q-19 -43 -68 -49h-1251q-16 0 -26.5 9.5t-10.5 25.5z" />
<glyph unicode="[" horiz-adv-x="1151" d="M193 33v1431q10 63 71 72h10q62 -10 72 -72v-551q103 50 234 50h10q88 0 172 -30.5t140 -93.5t56 -151v-10q0 -130 -58.5 -237.5t-151.5 -189t-194 -143t-249 -139.5q-20 -8 -31 -8h-10q-61 9 -71 72zM346 188q88 68 159 141.5t116 162t45 188.5q0 28 -13.5 51t-37 36 t-50.5 13q-79 0 -149 -20t-70 -76v-496z" />
<glyph unicode="\" horiz-adv-x="1151" d="M174 -221v1687q10 62 72 72h10q62 -10 72 -72v-514l538 242q16 8 29 8h10q62 -10 72 -72v-1495q-10 -61 -72 -71h-10q-62 10 -72 71v322l-536 -242q-22 -8 -31 -8h-10q-62 10 -72 72zM328 43l495 223v600l-495 -223v-600z" />
<glyph unicode="]" horiz-adv-x="1151" d="M193 -72q4 31 21.5 47t53.5 33v608q-30 0 -50.5 22t-24.5 50v150q4 31 21.5 47t53.5 33v249q5 32 24 50.5t48 21.5h10q29 -3 48 -21.5t24 -50.5v-176l307 148v250q10 61 72 71h10q62 -10 72 -71v-187q30 0 50 -20t25 -52v-149q-4 -31 -20.5 -46t-54.5 -34v-608 q30 0 50 -20t25 -52v-149q-4 -31 -22.5 -48t-52.5 -32v-135q-5 -31 -24 -50t-48 -22h-10q-29 3 -48 22t-24 50v61l-307 -147v-136q-10 -61 -72 -71h-10q-62 10 -72 71v72q-30 0 -50.5 22t-24.5 50v149zM422 82l307 147v598l-307 -145v-600z" />
<glyph unicode="^" horiz-adv-x="2841" d="M193 739q0 31 22.5 54.5t54.5 23.5q26 0 43 -14q3 -1 9 -7l12 -12q67 -67 139 -114q58 -38 111 -64q119 -61 262 -96q76 -18 145 -28.5t141 -17.5t144.5 -10t144.5 -3q160 0 300 13t274 46q143 35 262 96q64 33 110 64q72 46 140 114l12 12q6 6 8 7q18 14 43 14 q32 0 55 -23t23 -55q0 -25 -14 -43q-22 -34 -94.5 -91.5t-129.5 -94.5q-111 -78 -266 -139q-76 -31 -166.5 -56.5t-186 -42t-183.5 -23.5t-187 -7h-4q-127 0 -248.5 13.5t-243.5 42.5t-229 73q-152 60 -266 139q-62 42 -131 97.5t-92 88.5q-14 23 -14 43z" />
<glyph unicode="_" horiz-adv-x="2841" d="M193 285q0 30 16 49q110 129 250 226.5t298 160.5t326 93t338 30q171 0 340 -30.5t325.5 -92.5t296.5 -159.5t249 -227.5q16 -19 16 -49t-23 -53t-55 -23q-35 0 -59 29q-95 114 -221.5 191.5t-267.5 122t-290.5 64t-310.5 19.5q-397 0 -690 -115q-102 -40 -207 -108 q-84 -60 -141 -117q-6 -6 -32 -35t-38 -37q-17 -14 -43 -14q-31 0 -54 23t-23 53z" />
<glyph unicode="`" horiz-adv-x="1153" d="M23 201q0 17 16 35q68 52 103.5 78.5t105.5 80.5v13q0 172 77 421.5t217 430t320 180.5q90 0 139.5 -63.5t49.5 -155.5q0 -201 -170 -417.5t-387 -397.5q-5 -68 -5 -82q0 -90 35.5 -156t118.5 -66q72 0 151 31.5t147 71t73 39.5q16 0 33 -17q9 -10 19 -21.5t18 -25.5 t8 -26q0 -19 -17 -33q-229 -174 -450 -174q-87 0 -159.5 35t-123 99t-72.5 146q-6 -4 -55.5 -41.5t-77 -56t-37.5 -18.5q-19 0 -32 16q-6 7 -17.5 20.5t-19.5 28.5t-8 25zM541 643q83 80 162 173t135.5 197t56.5 193q0 80 -51 80q-57 0 -106 -74t-88.5 -183.5t-69 -228 t-39.5 -157.5z" />
<glyph unicode="a" horiz-adv-x="1604" d="M141 342q0 128 52.5 236t146 187.5t210 121t245.5 41.5q164 0 260 -84q50 47 112 47q47 0 80 -30t33 -77q0 -13 -4 -39l-133 -526q-2 -8 -2 -22q0 -28 19.5 -45t47.5 -17q49 0 82 58t49 122q3 12 13.5 21.5t25.5 9.5h74q16 -3 27.5 -14.5t11.5 -28.5q0 -10 -2 -14 q-20 -75 -60.5 -145t-101.5 -116t-135 -46q-206 0 -283 104q-72 -51 -156.5 -77.5t-172.5 -26.5q-86 0 -166 21t-142 65.5t-96.5 113t-34.5 160.5zM420 279q0 -76 48.5 -110t127.5 -34q84 0 160 32.5t131 94.5l100 402q-25 57 -82 83.5t-129 26.5q-91 0 -162 -41t-110 -121 q-27 -54 -55.5 -164.5t-28.5 -168.5z" />
<glyph unicode="b" horiz-adv-x="1294" d="M156 340q0 21 2.5 42.5t6 38t7.5 44.5l197 786h-70q-62 10 -72 72v10q10 62 72 72l276 16h46q19 -3 32 -15t13 -32q0 -6 -2 -10l-123 -496q118 60 254 60q117 0 216.5 -38t159.5 -120t60 -203q0 -127 -53 -235.5t-145.5 -187.5t-210.5 -120.5t-242 -41.5 q-184 0 -304 90.5t-120 267.5zM408 289q0 -154 188 -154q91 0 162.5 41.5t109.5 120.5q29 57 56.5 166.5t27.5 167.5q0 143 -176 143q-83 0 -159.5 -33t-131.5 -94l-51 -203q-26 -80 -26 -155z" />
<glyph unicode="c" horiz-adv-x="1300" d="M145 360q0 128 71.5 245.5t180.5 191.5q199 131 471 131q78 0 155.5 -17.5t131 -62t53.5 -121.5q0 -73 -49 -127.5t-121 -54.5q-49 0 -84.5 32.5t-35.5 81.5q0 61 40 109q-48 6 -104 6q-103 0 -191.5 -35t-142.5 -112q-40 -63 -67 -155t-27 -167q0 -98 70 -134t180 -36 q160 0 287 15.5t192 72.5q8 8 27 8q18 0 38 -20.5t35 -38.5q11 -13 11 -27q0 -13 -17 -34q-93 -85 -240.5 -107t-353.5 -22q-130 0 -246.5 37t-190 121.5t-73.5 219.5z" />
<glyph unicode="d" horiz-adv-x="1526" d="M141 342q0 128 52.5 236t146 187.5t210 121t245.5 41.5q146 0 241 -70l99 393h-70q-62 10 -72 72v10q10 62 72 72l276 16h45q20 -3 33 -15t13 -32q0 -6 -2 -10l-287 -1149q-2 -6 -2 -18q0 -28 19.5 -45t47.5 -17q49 0 82 58t49 122q3 12 13.5 21.5t25.5 9.5h74 q16 -3 27.5 -14.5t11.5 -28.5q0 -10 -2 -14q-20 -75 -60.5 -145t-101.5 -116t-135 -46q-206 0 -283 104q-72 -51 -156.5 -77.5t-172.5 -26.5q-86 0 -166 21t-142 65.5t-96.5 113t-34.5 160.5zM420 279q0 -76 48.5 -110t127.5 -34q84 0 159.5 32.5t131.5 94.5l100 402 q-25 57 -82 83.5t-129 26.5q-91 0 -162 -41t-110 -121q-27 -54 -55.5 -164.5t-28.5 -168.5z" />
<glyph unicode="e" horiz-adv-x="1382" d="M145 365q0 125 70 242t178 190q202 131 475 131q132 0 239 -54t107 -172q0 -109 -81.5 -176t-204 -96t-236 -36t-246.5 -7q-3 1 -5.5 1.5t-4.5 0.5q-8 -54 -8 -80q0 -100 69.5 -137t178.5 -37q160 0 287 15.5t192 72.5q8 8 27 8q18 0 38 -20.5t35 -38.5q11 -13 11 -27 q0 -13 -17 -34q-93 -85 -240.5 -107t-353.5 -22q-134 0 -248.5 37.5t-188 123.5t-73.5 222zM477 541q111 0 229.5 7.5t224 40.5t105.5 101q0 47 -60.5 65.5t-121.5 18.5q-290 0 -377 -233z" />
<glyph unicode="f" horiz-adv-x="1362" d="M186 -231q0 47 23 87.5t61.5 64.5t85.5 24q51 0 86 -32t35 -81t-28 -94h26q29 0 58 31.5t36 62.5q14 51 33.5 159t42.5 251l86 514h-252q-30 5 -48 23t-23 48v11q4 29 22.5 47.5t48.5 23.5h277l20 123q32 189 122 298.5t265 109.5q108 0 195.5 -44t87.5 -141 q0 -47 -23 -87.5t-61.5 -64.5t-85.5 -24q-51 0 -86 32t-35 81q0 51 29 92q-13 2 -37 2q-15 0 -38 -5t-24 -11q-8 -32 -36 -199l-27 -162h293q30 -4 49 -22t22 -49v-11q-3 -31 -22 -49t-49 -22h-318l-71 -432q-16 -100 -28 -164t-30.5 -138t-46.5 -143q-47 -115 -145.5 -205 t-212.5 -90q-107 0 -192 44.5t-85 140.5z" />
<glyph unicode="g" horiz-adv-x="1372" d="M88 -252q0 71 50 123.5t122 52.5q50 0 84.5 -31t34.5 -81q0 -35 -14 -70q47 -4 151 -4q102 0 191 32t108 111l43 176q-114 -57 -252 -57q-118 0 -217.5 37t-160 116.5t-60.5 202.5q0 127 53 233.5t145 181.5t210.5 116t240.5 41q73 0 143 -20t119 -64q49 47 111 47 q30 0 56 -13.5t41.5 -38.5t15.5 -55q0 -4 -5 -34l-223 -895q-19 -82 -82 -138t-145.5 -84t-169 -38.5t-176.5 -10.5q-165 0 -289.5 29t-124.5 135zM444 293q0 -139 179 -139q82 0 160 32.5t130 92.5l99 389q-25 56 -82.5 81t-130.5 25q-90 0 -161 -40t-112 -118 q-29 -57 -55.5 -159t-26.5 -164z" />
<glyph unicode="h" horiz-adv-x="1683" d="M162 90q0 11 4 35l283 1126h-70q-62 10 -72 72v10q10 62 72 72l276 16h45q20 -3 32.5 -15.5t12.5 -31.5q0 -6 -2 -10l-143 -573q76 64 167 100.5t183 36.5q159 0 267 -56.5t108 -201.5q0 -81 -42 -201.5t-101 -259.5q-6 -15 -6 -33q0 -41 36 -41q48 0 91.5 26t74.5 69 t41 87q3 11 14 20t25 9h74q39 -8 39 -43q0 -8 -2 -12q-22 -85 -78 -155.5t-134 -112t-161 -41.5q-107 0 -197 47.5t-90 144.5q0 23 8 50t21 55t25 55q47 121 73.5 200.5t26.5 139.5q0 100 -129 100q-85 0 -164 -42t-139 -108t-109 -151l-94 -369q-14 -54 -55 -88t-97 -34 q-47 0 -80.5 31t-33.5 77z" />
<glyph unicode="i" horiz-adv-x="1067" d="M113 606q0 8 2 15q21 81 76.5 151.5t134 113t161.5 42.5q64 0 130 -19t110.5 -62t44.5 -110q0 -35 -12 -65l-193 -463q-8 -20 -8 -33q0 -17 9.5 -29t27.5 -12q49 0 91.5 25.5t73 67.5t42.5 89q3 11 14 20t25 9h73q39 -7 39 -43q0 -8 -2 -12q-22 -84 -77.5 -154.5 t-133.5 -112.5t-161 -42q-105 0 -195 47t-90 143q0 34 12 66l193 462q8 22 8 33q0 41 -37 41q-73 0 -130.5 -53.5t-76.5 -126.5q-3 -13 -15 -22t-22 -9h-73q-18 3 -29.5 14.5t-11.5 28.5zM545 1257q0 44 24 82t62.5 61t83.5 23q48 0 83.5 -33t35.5 -83q0 -66 -52 -116 t-116 -50q-50 0 -85.5 33.5t-35.5 82.5z" />
<glyph unicode="j" horiz-adv-x="1145" d="M6 -248q0 69 50.5 120.5t119.5 51.5q49 0 84 -31.5t35 -80.5q0 -39 -16 -74q80 0 152.5 55.5t90.5 130.5l193 768q2 6 2 21q0 30 -20 45.5t-50 15.5q-89 0 -168 -51.5t-114 -134.5q-13 -25 -35 -25h-74q-19 3 -30 15t-11 28q0 5 4 19q36 88 105.5 156t158.5 107.5 t183 39.5q121 0 219 -48.5t98 -156.5q0 -21 -8 -53l-193 -772q-26 -106 -110.5 -176.5t-198 -104t-223.5 -33.5q-93 0 -168.5 41.5t-75.5 126.5zM766 1257q0 44 24 82t62.5 61t83.5 23q48 0 83.5 -33t35.5 -83q0 -66 -52 -116t-116 -50q-50 0 -85.5 33.5t-35.5 82.5z" />
<glyph unicode="k" horiz-adv-x="1530" d="M162 90q0 11 4 35l283 1126h-70q-62 10 -72 72v10q10 62 72 72l276 16h45q20 -3 32.5 -15.5t12.5 -31.5q0 -6 -2 -10l-194 -782q75 39 207.5 141t224.5 153.5t199 51.5q87 0 131.5 -63t44.5 -154q0 -60 -17 -117t-57.5 -93t-105.5 -36q-51 0 -86 32t-35 81q0 60 41 106.5 t100 60.5q0 2 -1.5 6.5t-2.5 6.5q-4 8 -8 10q-9 6 -23 6q-59 0 -115.5 -23t-109 -57.5t-125.5 -91.5t-94 -72q323 -37 323 -237q0 -16 -6 -47t-6 -45q0 -31 23 -48.5t53 -17.5q59 0 102 57t60 125q3 11 14 20t25 9h73q39 -7 39 -43q0 -8 -2 -12q-19 -78 -66 -149 t-115.5 -115.5t-146.5 -44.5q-124 0 -223.5 49.5t-99.5 158.5q0 9 5 38t5 48q0 65 -88.5 88t-185.5 23l-72 -283q-14 -54 -55 -88t-97 -34q-47 0 -80.5 31t-33.5 77z" />
<glyph unicode="l" horiz-adv-x="915" d="M111 186q0 26 6 52l254 1013h-70q-61 9 -72 72v10q11 63 72 72l277 16h45q19 -3 32 -15t13 -32q0 -6 -2 -10l-287 -1147q-2 -6 -2 -20q0 -28 19.5 -45t47.5 -17q49 0 81.5 58t47.5 122q9 31 39 31h74q39 -7 39 -43q0 -5 -0.5 -8t-1.5 -6q-30 -117 -108.5 -212t-186.5 -95 q-71 0 -144 19t-123 65t-50 120z" />
<glyph unicode="m" horiz-adv-x="2603" d="M113 606q1 4 1.5 7t0.5 8q32 120 111 213.5t186 93.5q108 0 199.5 -37.5t111.5 -126.5q178 164 381 164q317 0 364 -185q188 185 402 185q159 0 267 -56.5t108 -201.5q0 -60 -24 -142.5t-56 -162.5t-64 -156q-6 -15 -6 -33q0 -41 37 -41q48 0 91.5 26t73.5 67t42 89 q3 11 14 20t25 9h73q39 -7 39 -43q0 -8 -2 -12q-22 -85 -77.5 -155.5t-133.5 -112t-161 -41.5q-107 0 -197 47.5t-90 144.5q0 23 7 47.5t20.5 55t25.5 57.5q40 98 70 189t30 151q0 100 -129 100q-128 0 -232 -86t-181 -215l-92 -373q-12 -50 -56 -84t-96 -34 q-46 0 -80.5 30.5t-34.5 75.5q0 11 4 35l121 477q11 46 11 74q0 100 -132 100q-128 0 -232 -86t-181 -217l-92 -371q-12 -50 -56 -84t-96 -34q-46 0 -80.5 30.5t-34.5 75.5q0 11 4 35l144 569q2 6 2 21q0 28 -18.5 44.5t-49.5 16.5q-50 0 -80.5 -54t-50.5 -126 q-3 -13 -14 -22t-23 -9h-73q-18 3 -29.5 14.5t-11.5 28.5z" />
<glyph unicode="n" horiz-adv-x="1835" d="M113 606q1 4 1.5 7t0.5 8q32 120 111 213.5t186 93.5q62 0 128.5 -14.5t117.5 -51.5t65 -96q83 76 178 119t201 43q159 0 267 -56.5t108 -201.5q0 -60 -24 -142.5t-56 -162.5t-64 -156q-6 -15 -6 -33q0 -41 37 -41q48 0 91.5 26t73.5 67t42 89q3 11 14 20t25 9h73 q39 -7 39 -43q0 -8 -2 -12q-22 -85 -77.5 -155.5t-133.5 -112t-161 -41.5q-107 0 -197 47.5t-90 144.5q0 23 7 47.5t20.5 55t25.5 57.5q40 98 70 189t30 151q0 100 -129 100q-128 0 -232 -86t-181 -215l-92 -373q-12 -50 -56 -84t-96 -34q-46 0 -80.5 30.5t-34.5 75.5 q0 11 4 35l144 569q2 6 2 21q0 28 -18.5 44.5t-49.5 16.5q-50 0 -80.5 -54t-50.5 -126q-3 -13 -14 -22t-23 -9h-73q-18 3 -29.5 14.5t-11.5 28.5z" />
<glyph unicode="o" horiz-adv-x="1448" d="M145 358v2q0 128 71.5 245.5t180.5 191.5q199 131 471 131h2q99 0 189 -20t161.5 -63t115.5 -118t44 -178q0 -85 -32.5 -167.5t-88.5 -150.5t-131 -118q-68 -46 -145.5 -75t-157.5 -42.5t-166 -13.5h-4q-130 0 -246 36.5t-190 121t-74 218.5zM426 305q0 -67 35 -104.5 t89.5 -51.5t121.5 -14q103 0 192 36t142 112q39 58 66.5 152t27.5 169q0 170 -246 170q-103 0 -191.5 -35t-142.5 -112q-40 -63 -67 -155t-27 -167z" />
<glyph unicode="p" horiz-adv-x="1526" d="M88 -315q10 62 72 71q45 0 67 2l234 936q2 6 2 19q0 28 -18.5 44.5t-49.5 16.5q-50 0 -80.5 -54t-50.5 -126q-3 -13 -14 -22t-23 -9h-73q-19 3 -30 15t-11 28q1 4 1.5 7t0.5 8q32 120 111 213.5t186 93.5q206 0 282 -105q150 105 332 105q117 0 216.5 -38t159.5 -120 t60 -203q0 -127 -52.5 -235.5t-145 -187.5t-211.5 -120.5t-242 -41.5q-149 0 -244 69l-73 -295h69q63 -10 72 -71v-11q-9 -61 -72 -71h-24q-35 0 -107 4t-108 4q-29 0 -85 -4t-85 -4q-27 5 -45 24t-21 47v11zM616 246q27 -59 84 -85t127 -26q93 0 164 41t109 121 q29 57 56.5 166.5t27.5 167.5q0 143 -176 143q-54 0 -107.5 -15t-99.5 -43t-84 -69z" />
<glyph unicode="q" horiz-adv-x="1350" d="M141 342q0 128 52.5 236t146 187.5t210 121t245.5 41.5q163 0 262 -84q22 20 98.5 52t106.5 32q20 0 33.5 -13.5t13.5 -33.5q0 -7 -2 -11l-279 -1114h70q29 -4 48 -23t23 -48v-11q-5 -30 -23.5 -48.5t-47.5 -22.5h-25q-34 0 -106 4t-109 4q-35 0 -104 -4t-105 -4 q-57 12 -67 71v11q4 29 22.5 47.5t48.5 23.5q76 0 109 2l69 283q-116 -59 -251 -59q-86 0 -166 21t-142 65.5t-96.5 113t-34.5 160.5zM420 279q0 -76 48.5 -110t127.5 -34q84 0 159.5 32.5t131.5 94.5l100 402q-25 57 -82 83.5t-129 26.5q-91 0 -162 -41t-110 -121 q-27 -54 -55.5 -164.5t-28.5 -168.5z" />
<glyph unicode="r" horiz-adv-x="1343" d="M113 606q1 4 1.5 7t0.5 8q32 120 111 213.5t186 93.5q96 0 179 -29.5t120 -99.5q139 129 307 129q70 0 130.5 -32.5t95 -91t34.5 -130.5q0 -85 -45 -147t-129 -62q-51 0 -86 32t-35 81q0 52 31 95.5t80 63.5q-32 37 -95 37q-174 0 -307 -221l-112 -453q-12 -50 -56 -84 t-96 -34q-46 0 -80.5 30.5t-34.5 75.5q0 11 4 35l144 569q2 6 2 21q0 28 -18.5 44.5t-49.5 16.5q-50 0 -80.5 -54t-50.5 -126q-3 -13 -14 -22t-23 -9h-73q-18 3 -29.5 14.5t-11.5 28.5z" />
<glyph unicode="s" horiz-adv-x="1307" d="M166 184q0 47 22.5 90.5t62.5 69t87 25.5q50 0 85.5 -32.5t35.5 -80.5q0 -66 -45 -113q55 -8 184 -8q67 0 136 9.5t124 40t55 85.5t-149 78l-168 25q-99 17 -173.5 76.5t-74.5 154.5q0 73 42.5 141t105.5 111q118 72 303 72q58 0 116.5 -6t110 -24t86.5 -56t35 -97 q0 -64 -43.5 -112.5t-106.5 -48.5q-44 0 -76 29t-32 73q0 43 26 84q-41 4 -131 4q-82 0 -154.5 -23.5t-72.5 -88.5q6 -38 105 -56l167 -24q51 -8 103.5 -27.5t94.5 -49.5t67.5 -73t25.5 -100q0 -85 -53 -161.5t-131 -117.5q-76 -40 -163.5 -55.5t-186.5 -15.5 q-165 0 -292.5 38.5t-127.5 163.5z" />
<glyph unicode="t" horiz-adv-x="1110" d="M98 827v11q6 61 72 71h233l74 291q14 52 57 85.5t95 33.5q30 0 56.5 -13.5t42 -38.5t15.5 -55q0 -16 -6 -34l-65 -269h198q63 -10 72 -71v-11q-9 -61 -72 -71h-237l-135 -537q-2 -8 -2 -22q0 -30 19 -46t50 -16q60 0 116.5 23.5t101 65.5t67.5 98q12 24 37 24h74 q38 -8 38 -43q0 -6 -4 -18q-36 -88 -105.5 -156t-158.5 -107.5t-184 -39.5q-120 0 -219 49t-99 155q0 8 7 52l131 518h-197q-66 10 -72 71z" />
<glyph unicode="u" horiz-adv-x="1757" d="M113 606q0 8 2 15q21 82 76.5 152t134.5 112.5t163 42.5q64 0 130 -19t110.5 -62t44.5 -110q0 -32 -15 -75t-53.5 -134.5t-55.5 -148.5t-17 -111q0 -133 155 -133q143 0 263 154l125 502q12 50 55.5 84t95.5 34q47 0 81 -30t34 -76q0 -7 -2 -18.5t-4 -20.5l-138 -545 q-2 -8 -2 -22q0 -28 20.5 -45t47.5 -17q49 0 82 58t49 122q3 12 13.5 21.5t25.5 9.5h74q39 -8 39 -43q0 -10 -2 -14q-30 -118 -109.5 -212.5t-187.5 -94.5q-214 0 -289 110q-135 -110 -287 -110q-111 0 -200 25.5t-145 90t-56 176.5q0 61 19.5 133.5t44 132.5t67.5 160 q6 16 6 33q0 41 -37 41q-71 0 -129.5 -54.5t-77.5 -125.5q-3 -13 -15 -22t-22 -9h-73q-19 3 -30 15t-11 28z" />
<glyph unicode="v" horiz-adv-x="1454" d="M113 606q0 8 2 15q21 82 76.5 152t134.5 112.5t163 42.5q64 0 130 -19t110.5 -62t44.5 -110q0 -32 -19 -84t-51.5 -128t-50.5 -134.5t-18 -109.5q0 -82 53 -114t137 -32q127 0 240 166q31 47 66.5 126t35.5 122q0 52 -94 100q-32 17 -48.5 44.5t-16.5 60.5q0 66 54 121 t120 55q54 0 91.5 -32.5t56 -82.5t18.5 -102q0 -103 -40.5 -233t-112.5 -242t-171.5 -184t-212.5 -72q-189 0 -314.5 65.5t-125.5 235.5q0 59 19.5 128.5t54 152t57.5 136.5q6 16 6 33q0 41 -37 41q-71 0 -129.5 -54.5t-77.5 -125.5q-3 -13 -15 -22t-22 -9h-73 q-18 3 -29.5 14.5t-11.5 28.5z" />
<glyph unicode="w" horiz-adv-x="2087" d="M113 606q0 8 2 15q21 82 76.5 152t134.5 112.5t163 42.5q64 0 130 -19t110.5 -62t44.5 -110q0 -33 -18 -81t-51 -124.5t-51.5 -135.5t-18.5 -109q0 -61 30 -94.5t78 -45.5t107 -12q98 0 174 123q0 8 -0.5 13.5t-1.5 11.5q0 45 14 106l101 402q12 50 56 84t95 34 q47 0 81 -30t34 -76q0 -17 -6 -35l-99 -397q-12 -43 -12 -90q0 -82 53 -114t140 -32q102 0 190 127q33 49 73 145.5t40 141.5q0 51 -94 100q-66 34 -66 105q0 66 54 121t120 55q55 0 92.5 -32t55.5 -81t18 -104q0 -99 -35.5 -227t-101 -242.5t-160 -188t-203.5 -73.5 q-121 0 -219.5 24.5t-161.5 95.5q-113 -120 -247 -120q-122 0 -224.5 24.5t-169.5 93t-67 189.5q0 45 13 100.5t30.5 102.5t41.5 103t44 105q6 16 6 33q0 41 -37 41q-71 0 -129.5 -54.5t-77.5 -125.5q-3 -13 -15 -22t-22 -9h-73q-19 3 -30 15t-11 28z" />
<glyph unicode="x" horiz-adv-x="1614" d="M115 606q0 8 2 15q23 93 96.5 163.5t170.5 107t196 36.5q215 0 323 -105q49 49 116.5 77t137.5 28q75 0 137.5 -32t100 -90.5t37.5 -133.5q0 -86 -46.5 -146.5t-128.5 -60.5q-49 0 -84.5 32.5t-35.5 80.5q0 52 30 94.5t78 62.5q-35 39 -106 39q-53 0 -102 -28t-62 -76 l-92 -375q-15 -48 -15 -84q0 -48 43 -62t103 -14q97 0 186.5 48.5t110.5 133.5q3 11 14 20t25 9h73q16 -3 27.5 -14.5t11.5 -28.5q0 -8 -2 -12q-23 -93 -95.5 -164t-170 -108t-195.5 -37q-219 0 -325 104q-49 -49 -116.5 -76.5t-135.5 -27.5q-116 0 -196.5 71t-80.5 185 q0 84 46 145t128 61q50 0 85.5 -31.5t35.5 -80.5q0 -53 -29 -94.5t-79 -63.5q35 -39 106 -39q55 0 103 28.5t61 78.5l94 374q13 59 13 82q0 48 -41.5 62t-104.5 14q-62 0 -125.5 -20t-110.5 -62t-61 -98q-3 -13 -15 -22t-22 -9h-73q-19 3 -30 15t-11 28z" />
<glyph unicode="y" horiz-adv-x="1505" d="M113 606q0 8 2 15q21 82 76.5 152t134.5 112.5t163 42.5q64 0 130 -19t110.5 -62t44.5 -110q0 -32 -15 -75t-53.5 -134.5t-55.5 -148.5t-17 -111q0 -133 155 -133q143 0 263 154l125 502q12 50 55.5 84t95.5 34q47 0 81 -30t34 -76q0 -17 -6 -35l-195 -782 q-23 -96 -90.5 -173t-159 -128t-193.5 -76t-202 -25q-130 0 -232 38t-102 145q0 71 50 123.5t122 52.5q51 0 86 -32t35 -81q0 -53 -29 -90q29 -2 84 -2q139 0 242.5 85.5t136.5 219.5q-102 -61 -217 -61q-111 0 -200 25.5t-145 90t-56 176.5q0 61 19.5 133.5t44 132.5 t67.5 160q6 16 6 33q0 41 -37 41q-71 0 -129.5 -54.5t-77.5 -125.5q-3 -13 -15 -22t-22 -9h-73q-18 3 -29.5 14.5t-11.5 28.5z" />
<glyph unicode="z" horiz-adv-x="1401" d="M121 25q0 13 10 26q58 81 129.5 149.5t148.5 126.5t177 124l112 75q105 67 205 146q-50 -1 -100 -2.5t-108.5 -3.5t-92.5 -2q-115 0 -166 -13q-4 -1 -12 -10.5t-14 -13.5t-15 -4h-73q-18 3 -29.5 15.5t-11.5 27.5q1 4 1.5 7t0.5 7q19 74 75.5 130.5t132 87t154.5 30.5 q50 0 93 -13t108.5 -39.5t100 -37.5t79.5 -11q32 0 50 15.5t46.5 48.5t48.5 37h74q39 -7 39 -43q0 -11 -8 -27q-80 -112 -193 -206t-264 -193l-112 -76q-35 -23 -98 -66.5t-109 -80.5q48 2 87 3t95 3t95.5 3t101.5 1q99 0 174.5 16t91.5 76q3 13 13.5 22t23.5 9h73 q19 -3 30 -14t11 -29q0 -6 -0.5 -9t-1.5 -6q-23 -95 -93.5 -170t-168.5 -117t-194 -42q-50 0 -87.5 11.5t-98.5 36t-105.5 38.5t-91.5 14q-65 0 -104.5 -19.5t-72 -49.5t-42.5 -31h-74q-41 7 -41 43z" />
<glyph unicode="{" horiz-adv-x="1067" d="M113 606q0 8 2 15q21 81 76.5 151.5t134 113t161.5 42.5q64 0 130 -19t110.5 -62t44.5 -110q0 -35 -12 -65l-193 -463q-8 -20 -8 -33q0 -17 9.5 -29t27.5 -12q49 0 91.5 25.5t73 67.5t42.5 89q3 11 14 20t25 9h73q39 -7 39 -43q0 -8 -2 -12q-22 -84 -77.5 -154.5 t-133.5 -112.5t-161 -42q-105 0 -195 47t-90 143q0 34 12 66l193 462q8 22 8 33q0 41 -37 41q-73 0 -130.5 -53.5t-76.5 -126.5q-3 -13 -15 -22t-22 -9h-73q-18 3 -29.5 14.5t-11.5 28.5z" />
<glyph unicode="|" horiz-adv-x="1067" d="M6 -248q0 69 50.5 120.5t119.5 51.5q49 0 84 -31.5t35 -80.5q0 -39 -16 -74h12q79 0 147 55t86 131l193 768q2 6 2 21q0 30 -20 45.5t-50 15.5q-90 0 -169.5 -51.5t-114.5 -134.5q-13 -25 -35 -25h-74q-19 3 -30 15t-11 28q0 5 4 19q36 88 105.5 156t159.5 107.5 t184 39.5q121 0 219 -48.5t98 -156.5q0 -21 -8 -53l-193 -772q-25 -99 -106.5 -171.5t-189 -107.5t-212.5 -35q-102 0 -186 38.5t-84 129.5z" />
<glyph unicode="}" horiz-adv-x="1821" d="M215 -127q0 137 76 303q-64 82 -64 207q0 120 52.5 253t148.5 222.5t219 89.5q19 0 32 -12t13 -31v-8l-18 -72q-3 -10 -15.5 -20t-23.5 -10q-59 0 -105 -60.5t-71 -143t-25 -138.5q0 -11 4 -39q105 131 246 231.5t304.5 156.5t328.5 56q115 0 212 -34.5t156.5 -111.5 t59.5 -194q0 -159 -89.5 -281.5t-234 -188.5t-301.5 -66q-66 0 -125 26t-95 77t-36 118q0 60 28.5 102.5t86.5 42.5q35 0 60.5 -24t25.5 -58q0 -41 -37 -82q28 -49 109 -49q83 0 153 30.5t113 94.5q37 54 62.5 145.5t25.5 157.5q0 142 -191 142q-112 0 -222.5 -30.5 t-208 -84t-184 -128.5t-155.5 -167l220 -197q67 -70 67 -170q0 -92 -45 -176t-123.5 -136t-169.5 -52q-126 0 -195 91t-69 218zM371 -113q0 -70 29.5 -120t95.5 -50q49 0 80.5 44t31.5 94q0 28 -16 45l-184 168q-37 -102 -37 -181z" />
<glyph unicode="~" d="M432 1260v14q10 66 76 74h825q-21 31 -30 65v14q6 33 26.5 53.5t54.5 20.5q47 0 72 -43q23 -43 61.5 -69t98.5 -50q36 -21 45 -65v-14q-9 -45 -45 -66q-118 -45 -158 -64.5t-94 -72.5q-27 -25 -57 -25q-31 0 -52 20.5t-28 53.5v14q5 35 39 66h-758q-66 6 -76 74z" />
<glyph horiz-adv-x="1919" d="M127 106q0 72 86 109l291 123q66 60 116 131.5t82 153.5q-20 2 -63 2q-199 0 -297 -11q-3 -1 -16 -4.5t-15 -3.5h-10q-61 6 -72 72v10q11 78 85 123t167 61.5t183 16.5h10q83 0 146 -46t63 -126v-10q0 -47 -26 -113t-60 -131l895 381q107 43 206 43q105 0 121 -84 q0 -71 -86 -109l-291 -123q-132 -118 -198 -284q20 -2 63 -2q199 0 297 10l12 5q13 5 19 5h10q62 -10 72 -72v-10q-11 -78 -85 -124t-166.5 -62.5t-182.5 -16.5h-10q-82 0 -145.5 46t-63.5 127v10q0 47 26.5 115t59.5 128l-895 -380q-105 -43 -207 -43q-105 0 -121 83z" />
<glyph unicode="&#xa1;" horiz-adv-x="1581" d="M174 72v10q9 61 72 72q131 0 174 2l274 1093q-41 2 -135 2q-61 9 -72 72v10q11 63 72 72h1202q62 -9 72 -72v-10l-12 -342q-3 -29 -21.5 -48t-50.5 -24h-10q-62 10 -72 72v10l2 29q0 109 -43.5 159t-112 61t-194.5 11h-256h-55l-273 -1095q53 -2 191 -2q65 -11 71 -72 v-10q-10 -63 -71 -72h-682q-60 9 -70 72z" />
<glyph unicode="&#xa2;" horiz-adv-x="2380" d="M186 23q0 14 9 24l1191 1368q44 47 97 47h145q56 0 74 -47l506 -1368q2 -2 2 -8q0 -16 -12.5 -27.5t-26.5 -11.5h-1962q-23 0 -23 23zM600 272h1159l-346 934z" />
<glyph unicode="&#xa3;" horiz-adv-x="2136" d="M162 520q0 107 30.5 208t86.5 197t130 174.5t162 139.5q302 205 721 205q145 0 279 -29.5t242 -96.5t171.5 -178t63.5 -268q0 -139 -51.5 -273t-145 -248t-211.5 -191q-303 -199 -718 -199q-146 0 -278.5 28.5t-242 93.5t-174.5 174.5t-65 262.5zM467 504 q0 -205 139 -294t355 -89q162 0 307.5 48.5t249.5 154.5q53 53 94.5 120t70.5 140.5t44.5 155t15.5 157.5q0 109 -38.5 185.5t-105.5 122t-154 65.5t-192 20q-160 0 -304.5 -50.5t-248.5 -154.5q-65 -65 -120.5 -166.5t-84 -208.5t-28.5 -206zM618 571v11q1 3 2 8l1 4 l65 262q18 49 70 55h10q61 -9 72 -69h604q12 60 71 69h11q29 -4 48 -23t23 -48v-11q0 -3 -0.5 -6t-1.5 -6l-65 -262q-15 -48 -70 -55h-10q-64 10 -70 69h-604q-15 -60 -74 -69h-10q-61 9 -72 71z" />
<glyph unicode="&#xa4;" horiz-adv-x="1991" d="M158 72v10q4 29 23 48t48 24q62 0 95 4q10 2 15.5 3.5t12.5 2.5l17 4q0 2 4 2q1 1 4 2.5t4 1.5q-2 0 8 10l6 6q1 2 4.5 4t6.5 5l804 1216q30 47 82 47h138q24 0 40 -13t19 -34l203 -1259q32 -2 108 -2q28 -4 47.5 -23t24.5 -49v-10q-10 -62 -72 -72h-577q-58 9 -68 72v10 q9 61 72 72q86 0 127 4l-154 952l-629 -952q29 -4 86 -4q30 -4 49.5 -23.5t22.5 -48.5v-10q-3 -29 -21.5 -48t-50.5 -24h-22q-93 6 -184 6q-2 2 -9 2h-49q-28 0 -84 -4t-84 -4q-57 9 -67 72z" />
<glyph unicode="&#xa5;" horiz-adv-x="2066" d="M195 72v10l2 8l45 275q15 52 69 59h11q65 -10 71 -72v-10q-2 -20 -6 -44.5t-4 -39.5q68 -4 258 -4h10h705q104 0 184.5 1.5t114.5 4.5q16 23 31 67t31 68t52 29h11q31 -4 49.5 -22.5t21.5 -49.5v-10q0 -5 -0.5 -8.5t-1.5 -7.5l-92 -277q-18 -42 -67 -49h-1424 q-61 9 -71 72zM438 1071v10q0 9 4 17l88 258q20 43 66 49h1391q61 -9 71 -72v-10l-41 -258q-12 -54 -71 -66h-11q-62 11 -71 72v10q8 42 8 66q-66 4 -250 4h-10h-690q-228 0 -291 -6q-14 -19 -28.5 -59t-31 -61t-51.5 -26h-10q-63 11 -72 72zM569 582v10q0 10 2 12l72 293 q18 49 70 55h10q29 -4 48.5 -23.5t23.5 -47.5v-11q0 -7 -0.5 -9t-1.5 -3h763q13 49 26.5 69t51.5 25h11q62 -10 71 -71v-11q0 -3 -0.5 -6t-1.5 -6l-74 -293q-15 -49 -67 -55h-10q-31 5 -50 24t-22 48v10q1 5 1.5 8t0.5 4h-764q-11 -48 -24.5 -68t-53.5 -26h-10q-31 5 -50 24 t-22 48z" />
<glyph unicode="&#xa6;" horiz-adv-x="2374" d="M174 72v10q9 61 72 72q131 0 174 2l274 1093q-41 2 -135 2q-61 9 -72 72v10q11 63 72 72h1763q62 -9 72 -72v-10q-10 -63 -72 -72q-129 0 -174 -2l-272 -1093q41 -2 133 -2q30 -4 49.5 -23.5t22.5 -48.5v-10q-3 -29 -21.5 -48t-50.5 -24h-625q-27 4 -45.5 24.5 t-23.5 47.5v10q4 29 24 48.5t47 23.5q132 0 175 2l274 1095h-825l-275 -1095q41 -2 133 -2q30 -4 49.5 -23.5t22.5 -48.5v-10q-3 -29 -21.5 -48t-50.5 -24h-624q-60 9 -70 72z" />
<glyph unicode="&#xa7;" horiz-adv-x="2173" d="M205 47q0 14 7 24.5t16.5 17.5t25.5 17l14 21q8 12 23 18l55 25l678 463l-496 635q-10 13 -10 30v11q3 13 8.5 38.5t16 40t32.5 17.5h1491q62 -9 72 -72v-10l-12 -342q-3 -29 -21.5 -48t-50.5 -24h-10q-62 10 -72 72v20q0 56 -14 97t-42.5 68.5t-70 44.5t-92.5 24 q-72 11 -153.5 13.5t-200.5 2.5h-426l403 -518q13 -17 13 -31q0 -24 -21 -38l-700 -480h407q203 0 334.5 14.5t250.5 80t187 206.5q21 35 64 41h10q63 -10 72 -71v-11q0 -13 -6 -22l-170 -379q-21 -37 -64 -43h-1505q-43 7 -43 47z" />
<glyph unicode="&#xa8;" horiz-adv-x="1688" d="M113 1112q0 37 33.5 91t66.5 87q73 73 174.5 113.5t210.5 40.5q134 0 223.5 -68t131.5 -180t42 -242q64 128 160 240t218.5 181t260.5 69q78 0 155 -27.5t126 -85.5t49 -139q0 -115 -68 -115h-84q-15 0 -25.5 9.5t-10.5 25.5q1 3 1.5 5.5t0.5 6.5q2 4 2 11q0 55 -209 55 q-88 0 -168.5 -43.5t-144 -116t-106.5 -157t-65 -171.5l-1 -5l-1 -5l-133 -536q54 -2 191 -2q62 -11 71 -72v-10q-6 -63 -71 -72h-740q-27 4 -45.5 24.5t-23.5 47.5v10q9 61 72 72q180 0 231 4l139 555q21 58 21 151q0 85 -27.5 159.5t-87 120.5t-147.5 46q-224 0 -242 -66 q-5 -20 -21.5 -33.5t-38.5 -13.5h-83q-16 0 -26.5 9.5t-10.5 25.5z" />
<glyph unicode="&#xa9;" horiz-adv-x="1919" d="M111 657q0 128 139.5 214t324 125.5t312.5 39.5l53 213q-55 2 -192 2q-62 10 -72 72v10q10 62 72 72h710q26 -4 45 -24.5t23 -47.5v-10q-10 -63 -72 -72q-180 0 -231 -4l-54 -209q107 0 258.5 -27t267 -92.5t115.5 -170.5q0 -102 -86.5 -175.5t-220.5 -119t-271 -66 t-228 -20.5l-54 -211q54 -2 191 -2q62 -11 71 -72v-10q-6 -63 -71 -72h-709q-58 9 -70 72v10q11 61 72 72q180 0 232 4l53 211q-73 0 -174 15.5t-201.5 50t-166.5 90.5t-66 132zM438 668q0 -148 320 -148l90 365q-156 0 -283 -45.5t-127 -171.5zM1040 518q100 0 197.5 15 t171.5 63.5t74 140.5q0 98 -105 124t-245 26z" />
<glyph unicode="&#xaa;" horiz-adv-x="1817" d="M84 997v11q3 13 8.5 38.5t17 40t33.5 17.5h193q77 0 120.5 -57t43.5 -136q0 -48 -11 -77q-10 -52 -10 -91q0 -104 68 -153.5t182 -65.5l182 725q-55 2 -192 2q-62 10 -72 72v10q10 62 72 72h711q25 -4 44 -24.5t23 -47.5v-10q-10 -63 -72 -72q-180 0 -231 -4l-180 -721 q100 12 189 51.5t151.5 109.5t85.5 167q25 98 97 174t167 76h192q18 -3 30.5 -15.5t12.5 -31.5v-10l-9 -39q-6 -26 -17.5 -40.5t-32.5 -17.5q-38 0 -75 -19t-62 -50q-10 -13 -20 -39.5t-21.5 -60t-20.5 -50.5q-60 -120 -168 -201q-98 -75 -251.5 -119t-286.5 -44l-53 -211 q53 -2 190 -2q63 -11 72 -72v-10q-3 -29 -21.5 -48t-50.5 -24h-709q-27 4 -45.5 24.5t-23.5 47.5v10q9 61 72 72q180 0 231 4l53 211q-121 0 -233 41t-185 126t-73 209q0 56 12 109q4 16 4 25q0 34 -25 52.5t-63 18.5q-43 7 -43 47z" />
<glyph unicode="&#xad;" horiz-adv-x="2165" d="M246 332v10q10 62 71 72h11q38 -5 53.5 -30.5t22 -75.5t8.5 -60q37 -4 131 -4h10h111q-23 78 -86 184l-50 80q-56 95 -85 171t-29 161q0 78 28.5 151.5t75 132.5t109 108.5t131.5 84.5q257 127 626 127q172 0 337.5 -35.5t284 -131t118.5 -261.5q0 -112 -58.5 -215 t-127 -172.5t-206 -195t-190.5 -189.5h62q110 0 153 6q12 1 30 23.5t37.5 55.5t28.5 48q21 31 60 37h10q62 -9 72 -72v-10q0 -17 -8 -29l-156 -266q-19 -31 -62 -37h-448q-43 7 -43 47v10q30 114 91 213t181.5 268t179 281t58.5 217q0 148 -122.5 201t-295.5 53 q-172 0 -312.5 -51.5t-225 -165.5t-84.5 -287q0 -62 11 -126.5t33 -157.5t34 -162t12 -141q0 -82 -21 -162q-12 -37 -43 -37h-434q-62 10 -72 72z" />
<glyph unicode="&#xae;" horiz-adv-x="1911" d="M145 358v2q0 128 71.5 245.5t180.5 191.5q199 131 471 131q215 0 362 -99t183 -301q86 120 123 265q3 10 14 19t25 9h74q39 -8 39 -43q0 -8 -2 -12q-57 -233 -240 -426q3 -12 16 -69.5t27 -96.5t27 -39h4q59 0 86 6q10 19 32 19h74q16 -3 27.5 -14t11.5 -29 q0 -51 -41.5 -81.5t-98 -42t-112.5 -11.5q-88 0 -161.5 46t-116.5 126q-270 -172 -566 -172q-130 0 -246 36.5t-190 121t-74 218.5zM426 305q0 -67 35 -104.5t89.5 -51.5t121.5 -14q259 0 502 162l-31 170q-16 82 -51.5 151.5t-96 112.5t-143.5 43q-102 0 -190 -35 t-142 -112q-40 -63 -67 -155t-27 -167z" />
<glyph unicode="&#xaf;" horiz-adv-x="1624" d="M55 -346l318 1270q30 119 111 217t195.5 165t243 100.5t251.5 33.5q101 0 189 -31t143 -99t55 -171q0 -90 -41.5 -174.5t-112.5 -149.5q48 -34 79.5 -77.5t48.5 -98.5t17 -113q0 -88 -33 -171.5t-91.5 -154t-133.5 -120.5q-100 -67 -220 -100t-251 -33q-88 0 -180.5 16.5 t-173 54.5t-141.5 101l-121 -488q-3 -10 -15.5 -19t-23.5 -9h-74q-39 8 -39 43v8zM395 354q0 -93 72.5 -150t174 -79.5t198.5 -22.5q103 0 191.5 36t142.5 114q41 62 68.5 160.5t27.5 171.5q0 82 -53 125q-98 -33 -211 -33q-69 0 -130 5.5t-111 29.5t-50 73q0 81 99.5 103 t227.5 22q88 0 168 -14q37 36 67 133t30 156q0 102 -150 102q-130 0 -265 -44t-237 -132.5t-133 -212.5l-119 -477q-8 -31 -8 -66z" />
<glyph unicode="&#xb0;" horiz-adv-x="1477" d="M49 567q1 4 1.5 7.5t0.5 7.5q22 84 76 147.5t131 108.5t163 67.5t169 22.5q132 0 241 -69t181.5 -182t103.5 -243q108 234 240 453q15 22 35 22h73q18 -3 29.5 -14.5t11.5 -28.5q0 -11 -6 -20q-59 -99 -99.5 -170.5t-88.5 -165.5t-95 -198t-77 -183q0 -60 -22 -186 t-56 -232t-72 -131q-22 -16 -47 -16q-37 0 -55.5 27t-18.5 65q0 66 38.5 203t86.5 274v21q0 64 -8 130.5t-26 129t-50 112.5q-97 140 -366 140q-128 0 -225 -19.5t-117 -91.5q-3 -13 -15 -22t-22 -9h-74q-17 3 -29 15t-12 28z" />
<glyph unicode="&#xb1;" horiz-adv-x="1307" d="M137 334q0 104 40.5 197.5t114.5 170t168.5 128.5t190.5 73q-58 89 -83.5 134t-48.5 108t-23 119q0 74 44 128.5t113 84.5t142 30q47 0 108 -14q39 -9 103.5 -34t103.5 -36q11 -3 19 -4.5t22 -5.5q29 -12 45 -35.5t16 -54.5q0 -37 -19.5 -70t-52.5 -53t-67 -20 q-37 0 -67.5 16.5t-88 58.5t-97.5 62t-87 20q-23 0 -52.5 -15t-29.5 -38q0 -27 35.5 -72.5t78 -86t111.5 -99.5t87 -74q192 -157 192 -385q0 -144 -64.5 -288t-180.5 -238t-263 -94q-210 0 -360 94t-150 293zM393 293q0 -109 75.5 -150t195.5 -41q68 0 119 55t76.5 133.5 t25.5 145.5q0 87 -36 163.5t-101 166.5q-172 -29 -261 -156q-42 -66 -68 -154t-26 -163z" />
<glyph unicode="&#xb2;" horiz-adv-x="1225" d="M147 377q0 121 67.5 226.5t174.5 178.5q69 44 147.5 72.5t159 41.5t166.5 13h160q30 0 49 -20t19 -47q0 -33 -24.5 -59.5t-59.5 -26.5h-154q-89 0 -159.5 -19.5t-125 -65.5t-88.5 -126q2 0 -2 -4h453q27 0 47 -19t20 -49q0 -32 -25 -59t-59 -27h-475q-4 -36 -4 -53 q0 -118 90.5 -158.5t225.5 -40.5q139 0 270 64q6 4 18 4q29 0 45.5 -35t16.5 -66q0 -50 -141.5 -85t-225.5 -35q-143 0 -276.5 35.5t-221.5 124t-88 235.5z" />
<glyph unicode="&#xb3;" horiz-adv-x="1309" d="M152 348q0 170 87 335.5t228.5 297.5t298.5 207q-8 32 -8 78q0 190 100 190q27 0 48.5 -19.5t21.5 -47.5q0 -15 -7.5 -57.5t-7.5 -55.5q0 -25 2 -35q45 10 84 10q103 0 176.5 -18t73.5 -88q0 -57 -48 -85.5t-107.5 -35t-130.5 -6.5q-75 0 -121 39q-113 -57 -218.5 -156 t-171 -223t-65.5 -244q0 -110 68.5 -176.5t183.5 -95.5l295 -74q54 -14 98 -45t68 -75.5t24 -102.5q0 -69 -34 -133.5t-91.5 -106t-126.5 -41.5q-95 0 -229 23l-63 10q-43 9 -43 55q0 36 32 58t66 22q8 0 24 -4q34 -5 91.5 -7.5t134.5 -2.5q18 0 18 22q0 30 -23.5 47 t-56.5 25l-286 72q-178 46 -281.5 157t-103.5 287z" />
<glyph unicode="&#xb4;" horiz-adv-x="1536" d="M113 606q1 4 1.5 7t0.5 8q32 120 111 213.5t186 93.5q62 0 128.5 -14.5t117.5 -51.5t65 -96q83 76 178 119t201 43q159 0 267 -56.5t108 -201.5q0 -44 -11 -88l-225 -899q-12 -52 -56 -85.5t-95 -33.5q-47 0 -81 30t-34 76q0 11 4 35l225 895q10 42 10 74q0 100 -129 100 q-128 0 -232 -86t-181 -215l-92 -373q-12 -50 -56 -84t-96 -34q-46 0 -80.5 30.5t-34.5 75.5q0 11 4 35l144 569q2 6 2 21q0 28 -18.5 44.5t-49.5 16.5q-50 0 -80.5 -54t-50.5 -126q-3 -13 -14 -22t-23 -9h-73q-18 3 -29.5 14.5t-11.5 28.5z" />
<glyph unicode="&#xb5;" horiz-adv-x="1384" d="M145 451q0 156 52.5 332t152 324.5t241.5 240.5t312 92q134 0 227 -62t139 -168.5t46 -238.5q0 -161 -52.5 -334t-151 -321.5t-240.5 -241t-312 -92.5q-134 0 -227 62t-140 168t-47 239zM414 352q0 -91 38 -154t123 -63q156 0 248 150.5t144 349.5h-510 q-43 -172 -43 -283zM496 788h508q45 186 45 281q0 91 -38.5 154t-125.5 63q-154 0 -244 -147.5t-145 -350.5z" />
<glyph unicode="&#xb6;" horiz-adv-x="1069" d="M143 174q0 15 2.5 27t7.5 26.5t12.5 32t10.5 25.5q49 123 88 252t74 272q12 51 56.5 85t97.5 34q29 0 55 -13.5t41.5 -38.5t15.5 -55q0 -19 -6 -39q-75 -306 -164 -528q-24 -55 -24 -78q0 -41 36 -41q74 0 149 17t134 58t76 107q3 11 14 20t25 9h74q38 -8 38 -43 q0 -8 -2 -12q-19 -79 -72.5 -137.5t-129 -97t-161 -56.5t-161.5 -18q-107 0 -197 47.5t-90 144.5z" />
<glyph unicode="&#xb8;" horiz-adv-x="1688" d="M156 90q0 72 69 123l664 457l-287 522q-49 76 -178 76q-27 0 -47.5 19.5t-20.5 47.5q0 36 27 61t63 25q133 0 246.5 -14t149.5 -61l647 -1170q8 -14 23 -41t29.5 -48t29.5 -36q10 -10 10 -26q0 -17 -11.5 -28.5t-29.5 -14.5h-184q-41 5 -66 11t-43 30l-278 503l-600 -512 q-48 -39 -99 -39q-46 0 -80 35t-34 80z" />
<glyph unicode="&#xb9;" horiz-adv-x="1757" d="M131 -330q0 11 4 35l277 1104q12 51 56 85t97 34q28 0 55 -13.5t42.5 -38.5t15.5 -55q0 -9 -4 -35l-105 -415q-12 -43 -12 -90q0 -82 53 -114t140 -32q83 0 163.5 48.5t139.5 121.5l121 486q12 50 55.5 84t95.5 34q46 0 80.5 -29.5t34.5 -76.5q0 -17 -6 -35l-138 -549 q-2 -8 -2 -22q0 -28 20.5 -45t47.5 -17q49 0 82 58t49 122q3 12 13.5 21.5t25.5 9.5h74q39 -8 39 -43q0 -10 -3 -14q-30 -117 -109 -212t-187 -95q-223 0 -295 120q-152 -120 -318 -120q-155 0 -252 34l-84 -333q-12 -52 -56 -85.5t-95 -33.5q-47 0 -81 30t-34 76z" />
<glyph unicode="&#xba;" horiz-adv-x="1430" d="M150 47v10l174 699h-68q-62 9 -72 71v11q9 61 72 71l276 17h46q43 -7 43 -47v-11l-170 -680q167 45 318.5 129.5t263 210.5t149.5 281q12 51 56 85t97 34q28 0 55 -13.5t42.5 -39t15.5 -56.5q0 -53 -37.5 -134.5t-73.5 -133.5q-51 -78 -122 -144.5t-160 -127.5 q-299 -200 -772 -279q-7 0 -19 6t-14 6t-25.5 -6t-27.5 -6q-19 0 -33 14t-14 33z" />
<glyph unicode="&#xbb;" horiz-adv-x="1309" d="M100 188q0 114 75 220t183 178q-51 42 -78.5 95t-27.5 116q0 162 128.5 271.5t303.5 154.5q-2 14 -2 43q0 190 100 190q27 0 48.5 -19.5t21.5 -47.5q0 -20 -7 -60t-7 -53v-29q13 0 42 2t44 2q103 0 176.5 -18t73.5 -88q0 -57 -48.5 -85.5t-107.5 -35t-131 -6.5 q-82 0 -131 49q-55 -24 -103 -63t-77 -89t-29 -110q0 -72 51 -117q100 23 190 23q103 0 176.5 -19t73.5 -88q0 -57 -48 -85.5t-107.5 -35t-130.5 -6.5q-120 0 -222 27q-74 -33 -140 -101t-66 -137q0 -43 50 -68t126 -48l493 -142q57 -16 93 -61.5t36 -106.5 q0 -65 -34.5 -124t-93.5 -95.5t-122 -36.5q-126 0 -329 45q-43 10 -43 56q0 23 14.5 40.5t38.5 28t45 10.5q12 0 34 -5t32 -7q83 -14 221 -14q4 0 4 8q-1 4 -12 8l-476 137q-77 22 -145 61t-112 98.5t-44 137.5z" />
<glyph unicode="&#xbc;" horiz-adv-x="1729" d="M109 621q0 15 8 26q63 75 127.5 131.5t143.5 93.5t161 37h1003q42 0 69.5 -26.5t27.5 -69.5q0 -54 -39.5 -95.5t-93.5 -41.5h-314q-6 -49 -6 -98q0 -224 123 -373q24 -36 24 -72q0 -59 -49 -106t-110 -47q-94 0 -141.5 125.5t-47.5 242.5q0 127 45 328h-227 q-108 -435 -160 -570q-33 -83 -90 -108q-32 -16 -65 -16q-48 0 -82.5 31.5t-34.5 78.5q0 33 22 72q84 136 132 235q63 126 116 277h-133q-93 0 -157.5 -14.5t-108.5 -67.5q-16 -16 -31 -16h-74q-38 3 -38 43z" />
<glyph unicode="&#xbd;" horiz-adv-x="1487" d="M131 -330q0 11 4 35l193 764q36 144 130.5 247t227.5 157.5t281 54.5q193 0 323.5 -90.5t130.5 -274.5q0 -129 -55 -236.5t-151.5 -185.5t-216 -118.5t-246.5 -40.5q-158 0 -263 73l-92 -372q-12 -52 -56 -85.5t-95 -33.5q-47 0 -81 30t-34 76zM537 238q49 -103 231 -103 q100 0 176.5 42.5t118.5 125.5q30 59 55 158.5t25 163.5q0 80 -53 114.5t-140 34.5q-108 0 -180 -40.5t-114.5 -113.5t-67.5 -178z" />
<glyph unicode="&#xbe;" horiz-adv-x="1696" d="M137 334q0 124 70.5 246.5t177.5 199.5q94 63 202.5 96t221.5 33h713q42 0 69 -27t27 -69q0 -54 -39.5 -95.5t-93.5 -41.5h-240q25 -57 25 -137q0 -173 -96 -300t-249 -192t-323 -65q-84 0 -167 18t-151 61t-107.5 110.5t-39.5 162.5zM393 291q0 -156 225 -156 q81 0 151.5 21.5t123.5 72.5q34 36 59.5 89t40.5 114t15 111q0 87 -62.5 110t-169.5 23q-193 0 -276 -82q-49 -50 -78 -139t-29 -164z" />
<glyph unicode="&#xbf;" horiz-adv-x="1370" d="M109 621q0 15 8 26q63 75 127.5 131.5t143.5 93.5t161 37h850q42 0 69 -27t27 -69q0 -54 -39.5 -95.5t-93.5 -41.5h-465l-96 -572q-11 -55 -54.5 -93t-99.5 -38q-46 0 -80.5 30.5t-34.5 76.5q0 11 9 47l182 549h-205q-93 0 -157.5 -14.5t-108.5 -67.5q-16 -16 -31 -16 h-74q-38 3 -38 43z" />
<glyph unicode="&#xc0;" horiz-adv-x="1608" d="M113 606q0 8 2 15q21 82 76.5 152t134.5 112.5t163 42.5q64 0 130 -19t110.5 -62t44.5 -110q0 -34 -18.5 -83.5t-50 -121t-50 -130.5t-18.5 -103q0 -97 75.5 -130.5t190.5 -33.5q71 0 137.5 35.5t124.5 93.5q31 31 68 83.5t62.5 109t25.5 92.5q0 52 -94 100 q-66 34 -66 105q0 66 54 121t120 55q43 0 74 -18.5t52 -51t30.5 -70t9.5 -77.5q0 -118 -47.5 -249t-132.5 -241t-198 -175.5t-236 -65.5q-215 0 -364.5 65t-149.5 250q0 57 20 124.5t47.5 134t61.5 144.5q6 16 6 33q0 41 -37 41q-71 0 -129.5 -54.5t-77.5 -125.5 q-3 -13 -15 -22t-22 -9h-73q-18 3 -29.5 14.5t-11.5 28.5z" />
<glyph unicode="&#xc1;" horiz-adv-x="1755" d="M168 365q0 138 73 249t193.5 189t260.5 118t270 40l108 432q3 11 13.5 19.5t23.5 8.5h74q18 -3 29.5 -14.5t11.5 -28.5q0 -4 -2 -8l-103 -412q94 0 191 -25.5t177.5 -77t128.5 -130.5t48 -180q0 -137 -73 -248.5t-195.5 -190t-260.5 -118t-268 -39.5l-84 -336 q-3 -11 -15 -20t-21 -9h-74q-18 3 -29.5 14.5t-11.5 28.5q0 4 2 8l78 316q-96 0 -192 25.5t-176 77t-128.5 131t-48.5 180.5zM414 346q0 -129 99 -186.5t237 -57.5l176 703q-132 0 -250.5 -57.5t-190 -163t-71.5 -238.5zM907 104q99 0 192 33t165 94t113.5 145t41.5 187 q0 88 -49.5 143.5t-125 78t-161.5 22.5z" />
<glyph unicode="&#xc2;" horiz-adv-x="1778" d="M82 705q0 8 2 14q24 89 105 149t176 60q272 0 385 -129q107 -126 221 -379l553 469q27 20 55 20q29 0 49.5 -19.5t20.5 -49.5q0 -33 -33 -64l-586 -495q83 -189 154 -295q59 -84 135.5 -166t126.5 -82q41 0 58 18.5t38.5 54t40.5 39.5h74q16 -3 28.5 -15.5t12.5 -27.5 q0 -4 -0.5 -7t-1.5 -7q-14 -58 -57.5 -106t-103 -75.5t-120.5 -27.5q-275 0 -387 129q-65 79 -113 165.5t-106 213.5l-555 -469q-23 -20 -53 -20q-28 0 -49 20t-21 49q0 37 33 64l584 495q-86 192 -154 295q-31 47 -78 103.5t-98 100.5t-84 44q-41 0 -58.5 -18.5t-39 -54.5 t-39.5 -39h-74q-18 3 -29.5 15.5t-11.5 27.5z" />
<glyph unicode="&#xc3;" horiz-adv-x="1915" d="M113 606q0 8 2 15q21 82 76.5 152t134.5 112.5t163 42.5q64 0 130 -19t110.5 -62t44.5 -110q0 -33 -16.5 -77.5t-51 -124t-50 -125t-15.5 -86.5q0 -61 44 -102.5t108 -61t122 -19.5l312 1252q3 10 14 19t25 9h73q39 -7 39 -43v-8l-309 -1235q88 0 174.5 31t165.5 84 q78 54 148.5 140.5t70.5 158.5q0 52 -94 100q-66 34 -66 105q0 66 54 121t120 55q43 0 74 -18.5t52 -51t30.5 -70t9.5 -77.5q0 -91 -23.5 -179t-68.5 -166t-108 -141q-115 -113 -263.5 -179t-302.5 -66h-12l-90 -369q-3 -11 -15.5 -20t-23.5 -9h-74q-39 7 -39 43v8l89 351 q-186 0 -344 81t-158 248q0 51 20.5 118t48 131t58.5 136q6 16 6 33q0 41 -37 41q-71 0 -129.5 -54.5t-77.5 -125.5q-3 -13 -15 -22t-22 -9h-73q-18 3 -29.5 14.5t-11.5 28.5z" />
<glyph unicode="&#xc4;" horiz-adv-x="844" d="M631 1137q0 17 12 43q38 76 155 117t246.5 54t245.5 13q87 0 172 -5.5t176 -25t156.5 -63t65.5 -111.5q0 -57 -43 -65h-74q-39 7 -39 45q-52 30 -182.5 39.5t-257.5 9.5q-58 0 -167.5 -5.5t-205 -19t-109.5 -37.5q-12 -32 -39 -32h-73q-16 3 -27.5 15.5t-11.5 27.5z" />
<glyph unicode="&#x2000;" horiz-adv-x="769" />
<glyph unicode="&#x2001;" horiz-adv-x="1538" />
<glyph unicode="&#x2002;" horiz-adv-x="769" />
<glyph unicode="&#x2003;" horiz-adv-x="1538" />
<glyph unicode="&#x2004;" horiz-adv-x="512" />
<glyph unicode="&#x2005;" horiz-adv-x="384" />
<glyph unicode="&#x2006;" horiz-adv-x="256" />
<glyph unicode="&#x2007;" horiz-adv-x="256" />
<glyph unicode="&#x2008;" horiz-adv-x="192" />
<glyph unicode="&#x2009;" horiz-adv-x="307" />
<glyph unicode="&#x200a;" horiz-adv-x="85" />
<glyph unicode="&#x2010;" horiz-adv-x="844" d="M193 506v14q13 68 77 74q56 0 105.5 22t81.5 65t32 97q0 82 -67.5 132.5t-151.5 50.5q-64 6 -77 73v15q13 73 86 73q92 0 179 -44.5t140 -122t53 -171.5v-14q0 -70 -31.5 -133.5t-85 -109t-121 -70.5t-134.5 -25q-73 0 -86 74z" />
<glyph unicode="&#x2011;" horiz-adv-x="844" d="M193 506v14q13 68 77 74q56 0 105.5 22t81.5 65t32 97q0 82 -67.5 132.5t-151.5 50.5q-64 6 -77 73v15q13 73 86 73q92 0 179 -44.5t140 -122t53 -171.5v-14q0 -70 -31.5 -133.5t-85 -109t-121 -70.5t-134.5 -25q-73 0 -86 74z" />
<glyph unicode="&#x2012;" horiz-adv-x="844" d="M193 506v14q13 68 77 74q56 0 105.5 22t81.5 65t32 97q0 82 -67.5 132.5t-151.5 50.5q-64 6 -77 73v15q13 73 86 73q92 0 179 -44.5t140 -122t53 -171.5v-14q0 -70 -31.5 -133.5t-85 -109t-121 -70.5t-134.5 -25q-73 0 -86 74z" />
<glyph unicode="&#x2013;" horiz-adv-x="1410" d="M193 506v14q29 68 172 74q125 0 236 22t182.5 65t71.5 97q0 82 -151 132.5t-339 50.5q-143 6 -172 73v15q29 73 192 73q206 0 400.5 -44.5t313 -122t118.5 -171.5v-14q0 -70 -70.5 -133.5t-190 -109t-270.5 -70.5t-301 -25q-163 0 -192 74z" />
<glyph unicode="&#x2014;" horiz-adv-x="2434" d="M193 506v14q58 68 344 74q251 0 472 22t364.5 65t143.5 97q0 82 -302 132.5t-678 50.5q-286 6 -344 73v15q58 73 385 73q411 0 800 -44.5t626 -122t237 -171.5v-14q0 -70 -141 -133.5t-380 -109t-541 -70.5t-601 -25q-327 0 -385 74z" />
<glyph unicode="&#x202f;" horiz-adv-x="307" />
<glyph unicode="&#x205f;" horiz-adv-x="384" />
<glyph unicode="&#x2219;" horiz-adv-x="1683" d="M162 88q0 11 4 35l172 686q12 51 56.5 85t97.5 34q29 0 55 -13.5t41.5 -38.5t15.5 -55q0 -9 -4 -35l-53 -213q88 35 243 135.5t256.5 150.5t219.5 50q49 0 83.5 -32t34.5 -82q0 -68 -50 -118t-117 -50q-97 0 -119 98q-37 -13 -77 -34t-81.5 -46t-88.5 -56t-87 -57 q67 0 138.5 -12.5t137.5 -41.5t110 -77.5t44 -117.5q0 -14 -6 -42t-6 -40q0 -31 22.5 -48.5t52.5 -17.5q59 0 102 57.5t60 124.5q3 11 14 20t25 9h74q39 -8 39 -43q0 -8 -2 -12q-19 -78 -66 -149t-115.5 -115.5t-146.5 -44.5q-124 0 -223.5 49.5t-99.5 158.5q0 9 5 35t5 43 q0 76 -140 97.5t-288 21.5l-72 -287q-12 -51 -56 -84.5t-96 -33.5q-46 0 -80 30t-34 76z" />
<glyph unicode="&#xe000;" horiz-adv-x="930" d="M0 930h930v-930h-930v930z" />
</font>
</defs>
</svg>
