<?xml version="1.0" standalone="no"?>
<!DOCTYPE svg PUBLIC "-//W3C//DTD SVG 1.1//EN" "http://www.w3.org/Graphics/SVG/1.1/DTD/svg11.dtd" >
<svg xmlns="http://www.w3.org/2000/svg">
<metadata>
This is a custom SVG webfont generated by Font Squirrel.
Copyright   : Copyright C 1994 Basil K Malyshev All Rights Reserved012BaKoMa Fonts Collection LevelB
</metadata>
<defs>
<font id="cmmi6Regular" horiz-adv-x="1307" >
<font-face units-per-em="2048" ascent="1638" descent="-410" />
<missing-glyph horiz-adv-x="500" />
<glyph unicode=" "  horiz-adv-x="500" />
<glyph unicode="&#x09;" horiz-adv-x="500" />
<glyph unicode="&#xa0;" horiz-adv-x="500" />
<glyph unicode="!" horiz-adv-x="1595" d="M102 324q0 143 58.5 282.5t158.5 259.5q14 17 35 17q18 0 29.5 -10.5t11.5 -28.5q0 -1 -4 -15q0 -2 -48 -68.5t-50 -70.5q-98 -169 -98 -297q0 -100 56.5 -167.5t154.5 -67.5q76 0 146.5 37.5t125.5 101.5q0 107 28 210t105 103q32 0 49 -22.5t17 -57.5q0 -49 -28.5 -121 t-60.5 -130q22 -57 64.5 -89t99.5 -32q99 0 197.5 59.5t161.5 153t63 188.5q0 59 -17 85t-57 70.5t-40 71.5q0 31 17 58t45.5 44t55.5 17q59 0 87 -53.5t28 -118.5q0 -112 -45 -254.5t-107 -236.5q-75 -113 -184.5 -187.5t-232.5 -74.5q-82 0 -141 43.5t-85 123.5 q-65 -77 -147 -122t-174 -45q-137 0 -206 100t-69 244z" />
<glyph unicode="&#x22;" horiz-adv-x="1200" d="M125 229q0 80 49 147t127 116q-80 57 -80 137q0 98 90.5 165.5t214.5 99.5t222 32q39 0 115 -15.5t133 -44.5t57 -67q0 -28 -23 -51t-51 -23q1 0 -66 28.5t-88 32.5q-43 13 -96 13q-70 0 -168 -14t-176 -52t-78 -102q0 -30 21.5 -55.5t54.5 -43.5q98 39 211 39 q72 0 129 -12.5t57 -54.5q0 -55 -63.5 -70.5t-147.5 -15.5q-108 0 -190 31q-65 -32 -116.5 -88t-51.5 -119q0 -93 105 -125.5t225 -32.5q84 0 145.5 5.5t121 30t91.5 77.5q12 20 35 20q31 -8 31 -37q0 -4 -0.5 -7t-1.5 -7q-9 -33 -53.5 -75.5t-78.5 -61.5q-123 -72 -309 -72 q-91 0 -182.5 28.5t-153 90t-61.5 153.5z" />
<glyph unicode="#" horiz-adv-x="1536" d="M121 586q0 10 2 14q30 121 87.5 212t156.5 91q96 0 167.5 -51.5t71.5 -144.5q0 -22 -6 -48l-78 -309q-20 -78 -20 -139q0 -84 47 -121t133 -37q79 0 146 71.5t116.5 174t87.5 217.5t58 193q-178 45 -294 126.5t-116 229.5q0 92 47.5 180t128 142.5t174.5 54.5 q104 0 168 -70t91.5 -172t27.5 -205q0 -117 -31 -254q23 -4 44.5 -7t53.5 -9q25 -4 25 -31l-6 -24q-3 -19 -29 -19q-27 5 -50 9.5t-56 9.5q-28 -100 -82.5 -218t-130.5 -225.5t-173 -177t-202 -69.5q-155 0 -251.5 55t-96.5 198q0 57 16 123l78 310q8 29 8 65 q0 41 -17.5 69.5t-54.5 28.5q-64 0 -100 -76t-59 -175q-3 -15 -25 -19h-33q-19 5 -24 27zM764 1069q0 -117 97 -182t247 -107q46 191 49 328q0 98 -27.5 179t-103.5 81q-70 0 -130.5 -45t-96 -115.5t-35.5 -138.5z" />
<glyph unicode="$" horiz-adv-x="2091" d="M117 602q0 5 3.5 11t6.5 12q45 67 99 125t120.5 95.5t136.5 37.5h1465q26 0 43.5 -18.5t17.5 -45.5q0 -35 -26 -62.5t-60 -27.5h-80q23 -69 23 -137q0 -129 -75.5 -274t-200 -241.5t-257.5 -96.5q-128 0 -195 93.5t-67 227.5q-86 -139 -213 -230t-274 -91 q-76 0 -127.5 40t-75 103.5t-23.5 138.5q0 126 51 243.5t142 223.5h-84q-67 0 -116 -20.5t-78 -45t-58 -56t-39 -34.5h-33q-26 9 -26 29zM449 319q0 -78 41.5 -132t117.5 -54q118 0 222.5 67t177 173t100.5 221q8 13 25 18h32q25 -7 25 -28q0 -2 -2 -13q-23 -74 -23 -174 q0 -109 46 -186.5t147 -77.5q82 0 159 41t136.5 108t94 148t34.5 162q0 76 -27 137h-1100q-206 -218 -206 -410z" />
<glyph unicode="%" horiz-adv-x="1309" d="M223 -129q0 89 36 279t73 303q31 119 111.5 222t194.5 165.5t232 62.5q76 0 141 -25.5t113 -73.5t73.5 -112t25.5 -141q0 -107 -46 -209t-127.5 -184.5t-185.5 -130t-209 -47.5q-99 0 -181.5 49.5t-123.5 136.5q-33 -165 -33 -240q0 -51 19.5 -77.5t69.5 -38.5 q39 -10 80 -12.5t106 -2.5q282 0 340 -28q47 -27 47 -91t-31 -73h-33q-26 6 -26 30q0 7 2 9q-14 10 -84 10q-52 0 -134.5 -5t-103.5 -5q-76 0 -134 6.5t-107 28.5t-77 69.5t-28 124.5zM477 264q0 -88 47 -149.5t133 -61.5q90 0 162.5 58t120.5 147t73 189.5t25 181.5 q0 84 -43.5 142t-128.5 58q-118 0 -206.5 -91.5t-135.5 -225.5t-47 -248z" />
<glyph unicode="&#x26;" horiz-adv-x="997" d="M133 442q0 109 58.5 195.5t154.5 145.5t206.5 89.5t209.5 30.5q84 0 168 -15.5t84 -60.5q0 -21 -15 -37t-36 -16q-6 0 -81.5 27.5t-123.5 27.5q-97 0 -212 -35.5t-194.5 -108t-79.5 -173.5q0 -57 38 -102t98 -74l337 -158q50 -21 78.5 -63.5t28.5 -96.5 q0 -59 -30.5 -113.5t-83 -89t-111.5 -34.5q-47 0 -103.5 14.5t-56.5 46.5q7 35 39 35q10 0 55 -11t70 -11q30 0 52 29.5t22 60.5q0 23 -15 42.5t-39 30.5l-319 148q-88 43 -143.5 115t-55.5 161z" />
<glyph unicode="'" horiz-adv-x="1661" d="M168 397q0 76 28.5 167t77 173.5t103.5 136.5q6 5 18 9h33q27 -8 27 -29q0 -7 -9 -18q-48 -48 -92.5 -121.5t-72 -154t-27.5 -142.5q0 -127 114.5 -190t268.5 -85l51 162q33 104 81.5 206.5t114 191t154 144.5t193.5 56q85 0 152 -40.5t103 -111.5t36 -155 q0 -171 -111.5 -312.5t-282.5 -222.5t-340 -81q-18 1 -33.5 1.5t-39.5 0.5l-64 -344q-7 -34 -36 -58t-64 -24q-31 0 -53.5 19.5t-22.5 49.5q0 18 6 33l109 340q-176 36 -299 136t-123 263zM741 135q25 -2 72 -2q106 0 209.5 28t191.5 81q92 54 155 138t63 179 q0 61 -31.5 103.5t-82.5 65t-112 22.5q-109 0 -202 -69.5t-154 -175.5t-80 -214z" />
<glyph unicode="(" horiz-adv-x="2503" d="M190 485v31q0 14 17 23q333 164 495 499q9 17 25 17h49q13 0 21 -10t8 -21q0 -6 -2 -12q-37 -87 -90 -167.5t-122 -153.5t-140 -126h1808q22 0 36.5 -14.5t14.5 -38.5q0 -23 -14.5 -38t-36.5 -15h-2040q-9 0 -19 8t-10 18z" />
<glyph unicode=")" horiz-adv-x="2503" d="M190 508v31q0 11 10 18.5t19 7.5h2040q22 0 36.5 -14.5t14.5 -38.5q0 -23 -14.5 -38t-36.5 -15h-1808q51 -36 106 -90t98.5 -109t81 -117.5t66.5 -130.5q2 -6 2 -12q0 -11 -8 -21t-21 -10h-49q-12 0 -27 21q-78 164 -203.5 289.5t-289.5 205.5q-17 8 -17 23z" />
<glyph unicode="*" horiz-adv-x="2503" d="M190 512q0 22 15.5 37.5t36.5 15.5h1808q-63 48 -110.5 95t-96.5 110t-82.5 118.5t-62.5 123.5q-2 6 -2 12q0 11 8 21t20 10h50q13 0 26 -21q52 -108 126 -200.5t169.5 -168t200.5 -126.5q14 -9 14 -23v-31q0 -10 -9 -18t-20 -8h-2039q-21 0 -36.5 15.5t-15.5 37.5z" />
<glyph unicode="+" horiz-adv-x="2503" d="M190 512q0 22 15.5 37.5t36.5 15.5h2039q11 0 20 -7.5t9 -18.5v-31q0 -14 -14 -23q-82 -40 -155 -92t-136.5 -116t-115 -136.5t-91.5 -154.5q-8 -17 -24 -17h-50q-12 0 -20 10t-8 21q0 6 2 12q36 84 90 167t119.5 153t142.5 127h-1808q-21 0 -36.5 15.5t-15.5 37.5z" />
<glyph unicode="," horiz-adv-x="776" d="M190 748q0 84 49.5 150t127.5 101t161 35q24 0 41 -14.5t17 -38.5q0 -21 -14.5 -35.5t-34.5 -17.5q-91 0 -165.5 -47.5t-74.5 -132.5q0 -87 75 -135t165 -48q20 -3 34.5 -17.5t14.5 -35.5q0 -24 -17 -38.5t-41 -14.5q-83 0 -161.5 35.5t-127.5 101.5t-49 152z" />
<glyph unicode="-" horiz-adv-x="776" d="M190 512q0 21 14.5 35.5t35.5 17.5q90 0 164.5 48t74.5 135q0 56 -35.5 97.5t-91.5 62t-112 20.5q-21 3 -35.5 17.5t-14.5 35.5q0 24 17 38.5t41 14.5q83 0 161.5 -35t127.5 -101t49 -150q0 -86 -48.5 -152t-127.5 -101.5t-162 -35.5q-24 0 -41 14.5t-17 38.5z" />
<glyph unicode="." d="M123 -43v1110q3 21 17 35t36 14q15 0 27 -6l954 -551q27 -16 27 -47q0 -32 -27 -45l-954 -553q-12 -6 -27 -6q-20 0 -35 14t-18 35zM229 53l795 459l-795 459v-918z" />
<glyph unicode="/" d="M123 512q0 31 27 47l954 551q12 6 26 6q22 0 36.5 -13.5t17.5 -35.5v-1110q-3 -22 -18.5 -35.5t-35.5 -13.5q-14 0 -26 6l-954 553q-27 13 -27 45zM283 512l794 -459v918z" />
<glyph unicode="0" d="M150 434q0 244 129.5 368t373.5 124q161 0 274.5 -55t171.5 -165t58 -272q0 -159 -59.5 -266t-172.5 -159t-272 -52q-157 0 -270.5 52t-173 159t-59.5 266zM348 459q0 -118 7.5 -186.5t35 -123.5t91.5 -86.5t171 -31.5t171 31t92.5 87t35 124t6.5 186q0 108 -8 174.5 t-37.5 116t-91 76t-168.5 26.5q-106 0 -167.5 -26.5t-91.5 -76t-38 -116t-8 -174.5z" />
<glyph unicode="1" d="M276 776v35q0 9 9 17t20 10q82 0 150 6t135.5 24t124.5 54q4 4 18 4q12 0 22.5 -7t10.5 -20v-749q0 -45 47 -54q57 -8 223 -8q11 0 20 -8t9 -19v-34q0 -11 -10.5 -19t-20.5 -8h-715q-9 0 -19.5 8.5t-10.5 18.5v34q0 11 9 19t19 8q166 0 224 8q47 10 47 54v626 q-106 -26 -279 -26q-10 0 -21.5 8t-11.5 18z" />
<glyph unicode="2" d="M164 27v36q2 14 18 23l445 250q93 50 148.5 84t100 85.5t44.5 119.5q0 81 -55.5 128.5t-134.5 66t-161 18.5q-179 0 -256 -76q26 -10 41 -32.5t15 -51.5q0 -38 -25 -64t-63 -26q-39 0 -65 26t-26 64q0 141 132 194.5t299 53.5q118 0 233 -23.5t195.5 -90.5t80.5 -187 q0 -77 -42 -129.5t-102.5 -86.5t-163 -75t-122.5 -51l-219 -109h135q334 0 390 4q16 21 24 45t19 66q2 8 10 13t16 5h27q13 0 20.5 -10.5t7.5 -24.5l-65 -252q-1 -9 -9 -14.5t-18 -5.5h-845q-11 0 -20 8t-9 19z" />
<glyph unicode="3" d="M158 -131q0 49 34 83t84 34q32 0 59 -15.5t42.5 -42.5t15.5 -59q0 -45 -29 -78t-73 -39q55 -60 151 -85t201 -25q87 0 149.5 41t94 110.5t31.5 155.5q0 133 -73.5 220t-203.5 87h-160q-21 5 -26 27v22q6 20 26 25l140 8q71 0 129 46.5t90 118t32 142.5q0 98 -64.5 151.5 t-162.5 53.5q-203 0 -295 -96q41 -6 66.5 -36.5t25.5 -72.5q0 -44 -31 -76t-77 -32q-47 0 -79 32t-32 76q0 76 40 131t103 87.5t135 47.5t144 15q90 0 193 -30t174 -93.5t71 -157.5q0 -124 -82 -214t-208 -134q68 -14 131 -44.5t114 -75t81 -102.5t30 -126 q0 -92 -45.5 -165.5t-121 -124t-162 -75t-175.5 -24.5q-112 0 -223 29t-187.5 98.5t-76.5 181.5z" />
<glyph unicode="4" d="M123 27v51q0 9 6 18l702 838q13 12 31 12h51q13 0 22 -9t9 -22v-827h211q9 0 19 -8t10 -19v-34q0 -11 -10 -19t-19 -8h-211v-248q0 -42 19 -49q55 -12 184 -12q10 0 19.5 -8.5t9.5 -18.5v-35q0 -10 -10 -18t-21 -8h-588q-11 0 -21 8t-10 18v35q0 10 9.5 18.5t19.5 8.5 q129 0 184 12q19 7 19 49v248h-606q-11 0 -20 8t-9 19zM225 88h547v653z" />
<glyph unicode="5" d="M176 -80q0 45 31 76t76 31t75.5 -30.5t30.5 -76.5q0 -44 -29.5 -75t-74.5 -31q43 -82 134 -127t189 -45q106 0 177 45.5t105 125.5t34 187q0 152 -53 257t-189 105q-83 0 -142 -20.5t-96 -49t-63.5 -56t-36.5 -29.5h-22q-12 0 -20.5 8.5t-8.5 17.5v668q4 25 29 25 q2 0 10 -2q160 -62 332 -62q173 0 333 62q9 2 11 2q21 0 28 -25v-22q-1 -9 -6 -17q-61 -62 -130.5 -103.5t-151 -64t-160.5 -22.5q-105 0 -207 24v-358q118 98 301 98q89 0 171.5 -33t144 -92.5t97 -139.5t35.5 -171q0 -130 -76 -231t-197 -155t-249 -54q-107 0 -207 43.5 t-162.5 125.5t-62.5 191z" />
<glyph unicode="6" d="M158 662q0 131 46 258.5t128.5 226t200.5 157t253 58.5q126 0 215 -57t89 -177q0 -28 -14 -51t-37 -36t-50 -13q-43 0 -72.5 28.5t-29.5 71.5q0 39 22.5 66t59.5 35q-55 57 -183 57q-104 0 -191 -54t-144 -145q-84 -142 -84 -397q50 84 133 135.5t180 51.5q129 0 236 -60 t170 -164t63 -233q0 -134 -68 -240t-183 -164.5t-245 -58.5q-139 0 -236 61t-154.5 166t-81 228.5t-23.5 249.5zM373 408q0 -91 29.5 -176t93 -139t157.5 -54q158 0 238 121q33 50 41 108.5t8 147.5v6q0 110 -20.5 193t-80.5 135.5t-171 52.5q-66 0 -120 -28t-94 -77.5 t-60.5 -111t-20.5 -123.5q0 -27 2 -41q0 -7 -1 -7t-1 -7z" />
<glyph unicode="7" d="M190 532l76 390q7 26 29 26h27q28 0 28 -39q12 -26 400 -26h438q9 0 19 -8t10 -19v-35q0 -2 -2.5 -6t-4.5 -8l-321 -369q-66 -75 -106.5 -167.5t-60.5 -193t-26 -201.5t-6 -220q0 -38 -30 -67t-70 -29q-44 0 -73.5 29.5t-29.5 70.5q0 148 39.5 291.5t113 275.5t173.5 248 l193 221h-269q-354 0 -413 -8q-27 -45 -50 -164q-4 -26 -28 -26h-27q-12 0 -20.5 11t-8.5 23z" />
<glyph unicode="8" d="M158 315q0 241 319 375l-63 37q-86 50 -138.5 124t-52.5 165q0 108 63.5 186t163 119t203.5 41q99 0 199 -33.5t165.5 -103.5t65.5 -172q0 -192 -262 -316l113 -61q96 -56 155.5 -140t59.5 -186q0 -123 -73.5 -212t-188.5 -135t-234 -46q-117 0 -231 39t-189 120t-75 199 zM295 315q0 -86 54.5 -149.5t137 -95t166.5 -31.5q81 0 164.5 25.5t139 79.5t55.5 137q0 58 -38 107.5t-93 80.5l-316 174q-114 -48 -192 -132.5t-78 -195.5zM344 1090q0 -81 96 -142l297 -164q226 110 226 269q0 74 -47.5 127t-119 79.5t-143.5 26.5q-68 0 -138.5 -19 t-120.5 -63t-50 -114z" />
<glyph unicode="9" d="M158 477q0 131 71.5 234.5t189.5 159t247 55.5q137 0 232 -59.5t150 -159.5t78 -216t23 -247q0 -171 -74 -329t-210 -256.5t-312 -98.5q-138 0 -237 52t-99 177q0 44 29.5 72t72.5 28q27 0 50.5 -13t37 -36t13.5 -51q0 -36 -20.5 -62.5t-55.5 -35.5q58 -49 209 -49 q94 0 175.5 50.5t131.5 131.5q46 82 63 178.5t17 212.5q-51 -84 -133.5 -134t-179.5 -50q-92 0 -178 33t-152 94.5t-102.5 143t-36.5 175.5zM367 475q0 -173 55.5 -272t216.5 -99q85 0 153 47.5t105 125t37 161.5q0 25 -2 37q1 3 1.5 6t0.5 6q0 91 -27.5 173.5t-88 136 t-152.5 53.5q-150 0 -238 -105q-42 -51 -51.5 -111t-9.5 -155v-4z" />
<glyph unicode=":" horiz-adv-x="776" d="M262 127q0 35 17 64t46 46t64 17t64 -17t46 -46t17 -64t-17 -64t-46 -46t-64 -17t-64 17t-46 46t-17 64z" />
<glyph unicode=";" horiz-adv-x="776" d="M262 127q0 54 36.5 90.5t90.5 36.5q79 0 116.5 -71t37.5 -158q0 -78 -23 -154.5t-67 -143.5t-103 -116q-12 -8 -22 -8q-14 0 -26.5 12.5t-12.5 28.5q0 9 6 18q83 67 128.5 162.5t45.5 202.5q-33 -27 -80 -27q-53 0 -90 37t-37 90z" />
<glyph unicode="&#x3c;" horiz-adv-x="1972" d="M256 512q0 32 33 49l1351 641q14 4 21 4q23 0 38 -15t15 -38q0 -35 -33 -49l-1247 -592l1254 -594q13 -6 19.5 -18.5t6.5 -28.5q0 -23 -15 -38t-38 -15q-7 0 -21 4l-1357 645q-27 10 -27 45z" />
<glyph unicode="=" d="M190 -459q0 6 5 21l819 1941q17 33 49 33q23 0 38 -16t15 -37q0 -9 -4 -21l-819 -1941q-17 -33 -49 -33q-22 0 -38 16t-16 37z" />
<glyph unicode="&#x3e;" horiz-adv-x="1972" d="M256 -129q0 35 33 49l1247 592l-1253 594q-27 13 -27 47q0 23 16 38t37 15q9 0 21 -4l1358 -643q13 -6 19.5 -18.5t6.5 -28.5q0 -32 -33 -49l-1351 -641q-12 -4 -21 -4q-21 0 -37 15t-16 38z" />
<glyph unicode="?" d="M135 623q0 13 10 21.5t23 8.5l401 -71l54 399q4 27 30 27q27 0 31 -27l53 -399l396 71h8q13 0 21.5 -7.5t8.5 -22.5q0 -17 -16 -27l-367 -174l193 -354q4 -14 4 -17q0 -13 -10 -22t-21 -9t-24 13l-277 291l-276 -291q-13 -13 -25 -13q-10 0 -20 10t-10 21q0 6 2 12 l194 359l-362 172q-21 10 -21 29z" />
<glyph unicode="@" horiz-adv-x="1348" d="M152 336q0 123 57 234t152 194t215 129.5t239 46.5q74 0 142 -26t118 -77t72 -122q0 4 2 6q41 179 41 285q0 168 -92.5 275.5t-259.5 107.5q-59 0 -117 -15.5t-107.5 -47.5t-81.5 -77q32 -3 53 -25t21 -55q0 -32 -17 -59.5t-45 -44t-61 -16.5q-35 0 -60.5 22t-25.5 59 q0 54 45 127t93 111q121 96 305 96q160 0 283 -73.5t190 -201t67 -288.5q0 -142 -58 -315.5t-142 -298.5q-47 -72 -107.5 -131.5t-135 -105t-156.5 -69.5t-167 -24h-4q-192 0 -309 94q-67 54 -108 129t-41 156zM344 268q0 -115 77 -172t195 -57q171 0 281 113t172 292v7 q0 8 14.5 61t14.5 88q0 75 -35 137t-97.5 95.5t-140.5 33.5q-74 0 -142 -22.5t-124.5 -66.5t-101.5 -109q-40 -62 -76.5 -191.5t-36.5 -208.5z" />
<glyph unicode="A" horiz-adv-x="1892" d="M147 35q2 6 3.5 15t6 18t9.5 13.5t16 6.5q170 0 256 131q2 2 11 8l794 1205q10 15 24.5 22.5t28.5 7.5h29q14 0 25 -8t14 -22l209 -1307q16 -37 164 -37q13 0 20.5 -10.5t7.5 -24.5q-8 -34 -14 -43.5t-31 -9.5h-536q-27 0 -27 35q8 31 11.5 40.5t23.5 12.5q156 0 164 43 l-51 326h-611l-170 -260q-18 -29 -18 -54q0 -55 100 -55q29 0 29 -35q-6 -33 -12.5 -43t-32.5 -10h-416q-13 0 -20 11t-7 24zM752 545h538l-104 655z" />
<glyph unicode="B" horiz-adv-x="1896" d="M174 35q7 28 12.5 39t24.5 14q119 0 174 12q25 7 37 50l276 1107q4 22 4 27q0 14 -8 16q-25 6 -67 8.5t-97 2.5q-12 0 -20 11.5t-8 23.5q7 28 12.5 39t24.5 14h823q69 0 148 -16.5t147 -51t110.5 -91.5t42.5 -134q0 -100 -74 -180t-183.5 -129t-209.5 -66 q67 -7 129 -26.5t117 -57t88 -90t33 -119.5q0 -98 -66 -183t-163 -144q-184 -111 -404 -111h-874q-13 0 -21 11.5t-8 23.5zM606 94q19 -6 66 -6h362q101 0 208 45.5t176 128t69 187.5q0 74 -37 128.5t-99 83.5t-134 29h-465l-138 -549q-8 -32 -8 -47zM770 764h367 q95 0 203.5 42t181.5 119t73 177q0 67 -36.5 114t-96 71t-123.5 24h-346q-38 0 -54.5 -3t-28 -16t-19.5 -43z" />
<glyph unicode="C" horiz-adv-x="1808" d="M174 545q0 183 90.5 347.5t241 288t333 192.5t361.5 69q117 0 224 -46.5t175 -133.5l170 172q6 5 19 8h14q27 -7 27 -31l-137 -547q-8 -15 -25 -18h-37q-24 7 -24 33q4 24 4 75q0 113 -48.5 204.5t-136 143.5t-200.5 52q-174 0 -324 -68.5t-264.5 -191.5t-177 -279.5 t-62.5 -327.5q0 -142 63.5 -241.5t175 -150t249.5 -50.5q101 0 205 35t190 96t149.5 148t88.5 186q8 14 22 16h33q26 -7 26 -28q0 -2 -2 -11q-37 -154 -155.5 -275.5t-278.5 -188t-319 -66.5q-133 0 -254 39.5t-214.5 115.5t-147.5 186t-54 247z" />
<glyph unicode="D" horiz-adv-x="2044" d="M172 35q7 28 12.5 39t24.5 14q119 0 174 12q25 7 37 50l276 1107q4 22 4 27q0 14 -8 16q-25 6 -67 8.5t-97 2.5q-12 0 -20 11.5t-8 23.5q7 28 12.5 39t24.5 14h825q161 0 291 -67t205 -192t75 -284q0 -171 -78.5 -327t-212 -275t-298 -186.5t-332.5 -67.5h-811 q-13 0 -21 11.5t-8 23.5zM610 94q19 -6 66 -6h301q95 0 185 22.5t173 68t148 110.5q71 71 126 179t84 228.5t29 225.5q0 190 -122 289.5t-318 99.5h-285q-38 0 -54.5 -3t-28 -16t-19.5 -43l-277 -1108q-8 -32 -8 -47z" />
<glyph unicode="E" horiz-adv-x="1841" d="M168 35q7 28 12.5 39t24.5 14q119 0 174 12q25 7 37 50l276 1107q4 22 4 27q0 14 -8 16q-25 6 -67 8.5t-97 2.5q-12 0 -20 11.5t-8 23.5q7 28 12.5 39t23.5 14h1258q12 0 20.5 -11t8.5 -24l-43 -424q0 -10 -9.5 -18.5t-19.5 -8.5h-27q-12 0 -20 11.5t-8 23.5q8 82 8 121 q0 113 -55 165.5t-137 64.5t-220 12h-287q-38 0 -54.5 -3t-28.5 -18t-19 -41l-119 -479h183q91 0 137 4.5t83 24t63.5 63t45.5 121.5q4 27 29 27h27q12 0 20 -10t8 -25l-127 -506q-8 -27 -28 -27h-27q-12 0 -20.5 11t-8.5 24q19 78 19 111q0 43 -21 65q-39 29 -207 29h-198 l-135 -541q-9 -29 -9 -47q19 -6 66 -6h305q157 0 258.5 18.5t169.5 65t123 130.5t121 233q9 18 26 18h27q12 0 20.5 -9.5t8.5 -21.5q0 -6 -2 -10l-221 -496q-8 -16 -25 -16h-1294q-13 0 -21 11.5t-8 23.5z" />
<glyph unicode="F" horiz-adv-x="1587" d="M168 35q7 28 12.5 39t24.5 14q119 0 174 12q25 7 37 50l276 1107q4 22 4 27q0 14 -8 16q-25 6 -67 8.5t-97 2.5q-12 0 -20 11.5t-8 23.5q7 28 12.5 39t23.5 14h1225q13 0 21 -10t8 -25l-43 -424q0 -11 -8.5 -19t-20.5 -8h-26q-13 0 -21 11.5t-8 23.5q8 86 8 127 q0 111 -53 162t-131 62.5t-211 11.5h-271q-38 0 -54.5 -3t-28.5 -18t-19 -41l-127 -506h178q111 0 167 11.5t93 56t62 145.5q7 27 28 27h27q14 0 21.5 -10.5t7.5 -24.5l-125 -506q-7 -26 -29 -26h-26q-29 0 -29 35q18 81 18 112q0 40 -20 64q-39 28 -201 28h-192l-129 -514 l-5 -20q0 -18 11 -21q59 -12 215 -12q13 0 20.5 -10.5t7.5 -24.5q-8 -34 -14 -43.5t-31 -9.5h-630q-13 0 -21 11.5t-8 23.5z" />
<glyph unicode="G" horiz-adv-x="1950" d="M174 545q0 183 90.5 347.5t241 288t333 192.5t361.5 69q117 0 224 -46.5t175 -133.5l170 172q6 5 19 8h14q27 -7 27 -31l-137 -547q-8 -15 -25 -18h-37q-24 7 -24 33q4 24 4 75q0 113 -48.5 204.5t-136 143.5t-200.5 52q-170 0 -322 -68.5t-266.5 -191t-177 -278.5 t-62.5 -324q0 -145 67 -246t182 -151t257 -50q143 0 269 47t157 160l45 174q1 5 1.5 8.5t0.5 9.5q0 14 -7 18.5t-26 8.5q-55 8 -219 8q-12 0 -20 11.5t-8 23.5q8 32 14 42.5t31 10.5h606q12 0 20.5 -11.5t8.5 -23.5q-6 -24 -11.5 -37t-25.5 -16q-84 0 -125 -10 q-25 -10 -33 -51l-45 -174l-2 -8l-53 -218q-12 -18 -27 -18q-21 0 -56.5 41.5t-49.5 71.5q-54 -58 -139 -94t-176.5 -49t-188.5 -13q-133 0 -254 39.5t-214.5 115.5t-147.5 186t-54 247z" />
<glyph unicode="H" horiz-adv-x="2046" d="M168 35q7 28 12.5 39t24.5 14q119 0 174 12q25 7 37 50l276 1107q4 22 4 27q0 14 -8 16q-25 6 -67 8.5t-97 2.5q-12 0 -20 11.5t-8 23.5q8 32 13.5 42.5t31.5 10.5h577q27 0 27 -35q-5 -28 -10.5 -39t-24.5 -14q-121 0 -174 -13q-25 -7 -37 -49l-119 -477h717l121 485 q4 22 4 27q0 14 -8 16q-51 11 -164 11q-12 0 -20.5 11t-8.5 24q7 24 9.5 32.5t10 14.5t25.5 6h578q27 0 27 -35q-4 -25 -9.5 -37.5t-25.5 -15.5q-121 0 -174 -13q-25 -7 -37 -49l-277 -1108q-4 -20 -4 -26q0 -15 8 -17q52 -10 162 -10q29 0 29 -35q-6 -33 -12.5 -43 t-32.5 -10h-576q-12 0 -20 11.5t-8 23.5q7 28 12.5 39t23.5 14q119 0 175 12q24 7 36 50l134 534h-717l-135 -543q-5 -25 -5 -26q0 -15 9 -17q51 -10 161 -10q29 0 29 -35q-6 -33 -12.5 -43t-32.5 -10h-575q-13 0 -21 11.5t-8 23.5z" />
<glyph unicode="I" horiz-adv-x="1120" d="M156 35q7 28 12 39t22 14q129 0 187 12q26 8 35 47l278 1110q4 18 4 25q0 16 -8 18q-53 11 -174 11q-12 0 -20.5 11t-8.5 24q7 24 9.5 32.5t10 14.5t25.5 6h598q13 0 21 -10t8 -25q-7 -29 -12 -39.5t-23 -13.5q-129 0 -186 -13q-24 -7 -37 -47l-276 -1110q-5 -13 -5 -24 q0 -15 9 -19q27 -5 71 -7.5t103 -2.5q13 0 20.5 -10.5t7.5 -24.5q-8 -34 -14 -43.5t-31 -9.5h-600q-26 0 -26 35z" />
<glyph unicode="J" horiz-adv-x="1395" d="M238 184q0 69 39.5 117.5t107.5 48.5q41 0 69.5 -25.5t28.5 -66.5q0 -35 -18.5 -69t-49.5 -54t-67 -20q32 -45 88 -64.5t121 -19.5q70 0 132.5 38t106.5 100t62 128l240 960q2 7 2 19q0 17 -10 22q-62 13 -226 13q-12 0 -20 11.5t-8 23.5q8 32 13.5 42.5t31.5 10.5h581 q27 0 27 -35q-7 -29 -12 -39.5t-23 -13.5q-84 0 -123 -8q-22 -11 -35 -54l-241 -968q-22 -74 -72 -134.5t-121 -103t-150 -64.5t-157 -22q-74 0 -147.5 23.5t-121.5 74.5t-48 129z" />
<glyph unicode="K" horiz-adv-x="2099" d="M168 35q7 28 12.5 39t24.5 14q108 0 151 6q25 4 37.5 16t20.5 37l278 1110q4 22 4 27q0 17 -24 21q-41 6 -148 6q-12 0 -20 11.5t-8 23.5q8 32 13.5 42.5t31.5 10.5h577q27 0 27 -35q-5 -28 -10.5 -39t-24.5 -14q-109 0 -152 -6q-23 -4 -37.5 -17t-21.5 -37l-162 -645 l895 606q5 8 33.5 30t28.5 44q0 25 -54 25q-28 0 -28 35q6 30 13 41.5t32 11.5h424q13 0 19.5 -11t6.5 -24q-8 -31 -12.5 -40.5t-21.5 -12.5q-66 0 -128.5 -19.5t-119.5 -50.5t-115 -70q-4 -1 -7 -1.5t-5 -2.5l-469 -317l391 -707q30 -37 65.5 -46t98.5 -9q13 0 20.5 -10.5 t7.5 -24.5q-8 -34 -14 -43.5t-31 -9.5h-501q-13 0 -21 11.5t-8 23.5q7 28 12.5 39t24.5 14q112 0 112 45q0 6 -2 10l-325 590l-348 -235l-88 -357q-5 -25 -5 -26q0 -17 25 -21q41 -6 145 -6q29 0 29 -35q-6 -33 -12.5 -43t-32.5 -10h-575q-13 0 -21 11.5t-8 23.5z" />
<glyph unicode="L" horiz-adv-x="1733" d="M168 35q7 28 12.5 39t24.5 14q119 0 174 12q25 7 37 50l276 1107q4 22 4 27q0 14 -8 16q-25 6 -67 8.5t-97 2.5q-12 0 -20 11.5t-8 23.5q8 32 13.5 42.5t31.5 10.5h633q13 0 19.5 -10.5t6.5 -24.5q-7 -29 -12 -39.5t-23 -13.5q-149 0 -202 -8q-51 -11 -64 -54l-276 -1108 q-9 -29 -9 -47q19 -6 66 -6h238q185 0 296 62.5t161 142.5t84.5 168.5t56.5 91.5h26q13 0 21 -10t9 -21q0 -6 -3 -12l-187 -490q-7 -20 -26 -20h-1159q-13 0 -21 11.5t-8 23.5z" />
<glyph unicode="M" horiz-adv-x="2378" d="M178 35q7 28 12.5 39t24.5 14q83 0 143 24t80 91l264 1054q5 18 5 27q0 17 -25 21q-41 6 -147 6q-13 0 -21 11.5t-8 23.5q7 28 12.5 39t24.5 14h385q14 0 25 -8.5t14 -22.5l227 -1169l813 1169q21 31 55 31h369q13 0 21 -10t8 -25q-5 -28 -10.5 -39t-24.5 -14 q-109 0 -152 -6q-25 -4 -38.5 -17t-20.5 -37l-277 -1110q-4 -20 -4 -26q0 -17 25 -21q41 -6 145 -6q29 0 29 -35q-6 -33 -12.5 -43t-32.5 -10h-553q-12 0 -20.5 11t-8.5 24q7 28 12.5 39t24.5 14q51 0 91 1.5t61 4.5q25 4 37 15.5t20 37.5l293 1164l-891 -1280 q-18 -31 -57 -31q-40 0 -45 31l-246 1261l-273 -1095q-1 -4 -2.5 -12.5t-3.5 -18.5q0 -49 47 -63.5t111 -14.5q29 0 29 -35q-6 -33 -12.5 -43t-32.5 -10h-461q-13 0 -21 12t-8 23z" />
<glyph unicode="N" horiz-adv-x="1980" d="M168 35q7 28 12.5 39t24.5 14q193 0 225 117l272 1098q-57 8 -178 8q-12 0 -20 11.5t-8 23.5q7 28 12.5 39t23.5 14h377q18 0 25 -15l563 -1069l221 887q4 20 4 31q0 78 -157 78q-13 0 -21 11.5t-8 23.5q8 32 13.5 42.5t31.5 10.5h463q13 0 20 -11t7 -24 q-4 -25 -9.5 -37.5t-25.5 -15.5q-194 0 -226 -117l-290 -1167q-7 -27 -29 -27h-35q-18 0 -24 16l-650 1227l-260 -1046q-1 -4 -2.5 -12.5t-3.5 -18.5q0 -49 47 -63.5t111 -14.5q28 0 28 -35q-6 -33 -12.5 -43t-32.5 -10h-460q-13 0 -21 12t-8 23z" />
<glyph unicode="O" horiz-adv-x="1913" d="M170 528q0 180 87.5 346.5t235 295t326.5 200.5t355 72q131 0 243.5 -39t199.5 -114t136 -184t49 -241q0 -239 -148 -449t-382 -334t-469 -124q-129 0 -242.5 38.5t-202 113t-138.5 180.5t-50 239zM399 492q0 -130 50 -233t146 -160.5t228 -57.5q160 0 301 79 t243.5 208.5t160 289.5t57.5 312q0 127 -53 226t-151.5 152.5t-227.5 53.5q-215 0 -388.5 -126.5t-269.5 -328.5t-96 -415z" />
<glyph unicode="P" horiz-adv-x="1597" d="M172 35q7 28 12.5 39t24.5 14q108 0 151 6q44 8 58 53l278 1110q4 22 4 27q0 17 -24 21q-41 6 -148 6q-12 0 -20 11.5t-8 23.5q7 28 12.5 39t24.5 14h790q80 0 161 -18t152.5 -57t115.5 -102t44 -149q0 -139 -108 -241t-265.5 -156.5t-293.5 -54.5h-388l-118 -480 q-4 -20 -4 -26q0 -18 24 -21q41 -6 146 -6q28 0 28 -35q-6 -33 -12.5 -43t-32.5 -10h-575q-13 0 -21 11.5t-8 23.5zM758 700h338q96 0 175 17.5t148 62.5q50 32 85 87t53 121t18 124q0 199 -328 199h-250q-38 0 -54.5 -3t-28 -16t-19.5 -43z" />
<glyph unicode="Q" horiz-adv-x="1978" d="M170 528q0 180 87.5 346.5t235 295t326.5 200.5t355 72q131 0 243.5 -39t199.5 -114t136 -184t49 -241q0 -185 -92.5 -357t-246.5 -299t-333 -192q15 -55 33 -93t50.5 -63.5t82.5 -25.5q89 0 166.5 48.5t98.5 129.5q7 19 28 19q31 0 31 -35q-27 -100 -78.5 -188 t-128.5 -146.5t-174 -58.5t-143 59t-57 136t-11 188q-116 -29 -225 -29q-129 0 -242.5 38.5t-202 113t-138.5 180.5t-50 239zM387 481q0 -69 16 -133t47 -117t81.5 -95.5t115.5 -67.5l-2 4q-4 20 -4 32q0 60 35.5 108.5t93.5 76.5t115 28q64 0 106 -28.5t67.5 -72.5 t47.5 -112q109 53 199.5 140t152.5 194.5t95.5 229.5t33.5 245q0 101 -29.5 183t-86 141.5t-136 92t-182.5 32.5q-161 0 -303 -76.5t-245.5 -205.5t-160.5 -286t-57 -313zM715 109q0 -72 108 -72q95 0 199 33q-7 83 -36 128.5t-103 45.5q-37 0 -77 -17.5t-65.5 -48 t-25.5 -69.5z" />
<glyph unicode="R" horiz-adv-x="1888" d="M172 35q7 28 12.5 39t24.5 14q108 0 151 6q44 8 58 53l278 1110q4 22 4 27q0 17 -24 21q-41 6 -148 6q-12 0 -20 11.5t-8 23.5q7 28 12.5 39t24.5 14h692q112 0 236.5 -31t214 -104t89.5 -185q0 -142 -139.5 -241t-310.5 -142q85 -31 135.5 -90t50.5 -145q0 -10 -0.5 -17 t-1.5 -16l-20 -178q-3 -40 -6 -78q0 -64 22 -102.5t80 -38.5q67 0 118.5 54.5t69.5 123.5q10 20 27 20h27q13 0 20.5 -9.5t7.5 -24.5q-17 -62 -56 -117t-96.5 -88t-119.5 -33q-135 0 -234.5 52t-99.5 175q0 41 8 74l45 178q7 33 7 51q0 60 -38.5 100t-96 58.5t-117.5 18.5 h-301l-132 -523q-4 -20 -4 -26q0 -17 25 -21q41 -6 145 -6q29 0 29 -35q-6 -33 -12.5 -43t-32.5 -10h-567q-13 0 -21 11.5t-8 23.5zM768 737h266q67 0 122.5 5.5t114.5 22.5t111 48q75 42 117.5 124.5t42.5 168.5q0 88 -57 133t-136 58.5t-171 13.5h-181q-38 0 -54.5 -3 t-28 -16t-19.5 -43z" />
<glyph unicode="S" horiz-adv-x="1548" d="M186 -12l115 461q8 13 25 16h32q25 -8 25 -31q-14 -68 -14 -108q0 -106 63.5 -169t158 -87.5t200.5 -24.5q91 0 188.5 46.5t161 127.5t63.5 176q0 77 -51 133.5t-129 75.5l-315 70q-117 30 -191 109t-74 192q0 99 50.5 185.5t136.5 150.5t184 97.5t193 33.5 q105 0 198 -33.5t150 -108.5l123 134q5 5 18 8h14q27 -7 27 -31l-115 -459q-10 -16 -24 -18h-33q-25 7 -25 33q5 65 5 80q0 158 -93 235.5t-252 77.5q-86 0 -182.5 -40.5t-160.5 -112.5t-64 -163q0 -71 52.5 -123t125.5 -69l315 -70q120 -30 193.5 -114t73.5 -205 q0 -104 -49.5 -196.5t-133 -162.5t-186.5 -108.5t-203 -38.5q-287 0 -417 137l-119 -129q-5 -5 -19 -8h-14q-27 8 -27 31z" />
<glyph unicode="T" horiz-adv-x="1497" d="M117 944q0 4 2 12l151 424q7 19 27 19h1403q12 0 20.5 -11t8.5 -24l-62 -424q-4 -27 -29 -27h-26q-13 0 -21 11.5t-8 23.5q6 40 10 71.5t6.5 57.5t2.5 56q0 84 -35 122t-89 47t-149 9h-153q-39 0 -55.5 -3t-28.5 -18t-19 -41l-276 -1108q-1 -5 -1.5 -8.5t-2.5 -7.5 q0 -19 14 -25q65 -12 248 -12q13 0 20.5 -10.5t7.5 -24.5q-8 -34 -14 -43.5t-31 -9.5h-757q-13 0 -21 11.5t-8 23.5q7 28 11.5 39t23.5 14q176 0 237 10q51 7 66 52l276 1107q8 34 8 48q-20 6 -65 6h-156q-120 0 -191.5 -21t-115 -63.5t-71.5 -102.5t-76 -190 q-7 -21 -27 -21h-27q-12 0 -20 10t-8 21z" />
<glyph unicode="U" horiz-adv-x="1716" d="M219 369q0 49 12 102l197 786q4 22 4 27q0 17 -24 21q-41 6 -148 6q-12 0 -20.5 11t-8.5 24q7 24 9.5 32.5t10 14.5t25.5 6h578q27 0 27 -35q-4 -25 -9.5 -37.5t-25.5 -15.5q-109 0 -152 -6q-25 -4 -38.5 -17t-20.5 -37l-197 -788q-20 -85 -20 -150q0 -129 83 -198.5 t214 -69.5q124 0 242.5 55t202 152t116.5 219l182 731q4 20 4 31q0 78 -157 78q-13 0 -21 11.5t-8 23.5q8 32 13.5 42.5t31.5 10.5h459q13 0 19.5 -11t6.5 -24q-5 -28 -9.5 -39t-24.5 -14q-187 0 -226 -115l-182 -733q-28 -106 -92 -199t-154 -162t-195.5 -107t-213.5 -38 q-124 0 -238 48t-183 141.5t-69 222.5z" />
<glyph unicode="V" horiz-adv-x="1493" d="M193 1346q8 32 13.5 42.5t31.5 10.5h528q27 0 27 -35q-7 -29 -12 -39.5t-23 -13.5q-152 0 -160 -43l209 -1067l696 1001q21 35 21 55q0 54 -99 54q-12 0 -20 11.5t-8 23.5q8 32 13.5 42.5t31.5 10.5h407q11 0 19 -11t8 -24q-7 -29 -12.5 -39.5t-24.5 -13.5 q-158 0 -252 -131q-3 -3 -5 -4.5t-5 -4.5l-823 -1183q-21 -31 -56 -31h-28q-32 0 -39 31l-252 1288q-19 35 -158 35q-12 0 -20 11.5t-8 23.5z" />
<glyph unicode="W" horiz-adv-x="2355" d="M190 1346q8 32 14.5 42.5t31.5 10.5h512q12 0 20 -10t8 -25q-7 -29 -12.5 -39.5t-24.5 -13.5q-159 0 -168 -45l129 -1024l572 915l-15 121q-14 33 -141 33q-12 0 -20.5 11t-8.5 24q12 37 16.5 45t29.5 8h514q13 0 19.5 -10.5t6.5 -24.5q-5 -28 -10.5 -39t-24.5 -14 q-159 0 -168 -45l3 -11l124 -1013l601 958q14 23 14 45q0 39 -40 52.5t-85 13.5q-29 0 -29 35q6 30 12.5 41.5t32.5 11.5h412q13 0 20 -11t7 -24q-7 -26 -12.5 -38t-22.5 -15q-146 0 -230 -131q-7 -7 -8 -9l-739 -1183q-16 -31 -53 -31h-23q-34 0 -37 31l-131 1050 l-655 -1050q-16 -31 -51 -31h-25q-34 0 -37 31l-160 1290q-14 33 -139 33q-29 0 -29 35z" />
<glyph unicode="X" horiz-adv-x="2050" d="M131 35q7 28 11.5 39t23.5 14q99 0 188 35.5t158 101.5q1 2 4.5 3.5t5.5 2.5l492 469l-312 576q-34 35 -182 35q-12 0 -20 11.5t-8 23.5q8 32 13.5 42.5t31.5 10.5h542q13 0 21 -10t8 -25q-7 -29 -12 -39.5t-23 -13.5q-92 0 -123 -41l226 -416l370 352q2 9 16.5 25.5 t14.5 34.5q0 25 -23 35t-53 10q-12 0 -20 11.5t-8 23.5q8 32 13.5 42.5t31.5 10.5h464q27 0 27 -35q-7 -29 -12 -39.5t-23 -13.5q-65 0 -127 -15.5t-117 -46t-102 -75.5q-2 -3 -5 -4t-5 -3l-404 -385l357 -659q35 -35 182 -35q14 0 21.5 -10.5t7.5 -24.5q-8 -34 -14 -43.5 t-31 -9.5h-543q-12 0 -20.5 11t-8.5 24q7 28 12.5 39t22.5 14q89 0 123 41l-270 500l-459 -436q-3 -9 -17 -25.5t-14 -34.5q0 -25 24 -35t52 -10q13 0 21 -11t8 -24q-8 -32 -14.5 -42.5t-30.5 -10.5h-465q-27 0 -27 35z" />
<glyph unicode="Y" horiz-adv-x="1487" d="M147 1346q12 37 16.5 45t29.5 8h546q13 0 21 -10t8 -25q-7 -29 -12 -39.5t-23 -13.5q-129 0 -133 -31l299 -614l533 540q2 10 21.5 32.5t19.5 41.5q0 31 -72 31q-13 0 -21 11.5t-8 23.5q8 32 13.5 42.5t31.5 10.5h412q13 0 19.5 -11t6.5 -24q-8 -31 -12.5 -40.5 t-21.5 -12.5q-170 0 -305 -135q-3 -3 -7.5 -5t-5.5 -4l-600 -608l-104 -416q0 -4 -2 -13t-2 -15q0 -15 8 -17q51 -10 164 -10q13 0 20.5 -10.5t7.5 -24.5q-8 -34 -14 -43.5t-31 -9.5h-569q-13 0 -21 11.5t-8 23.5q7 28 12.5 39t24.5 14q119 0 174 12q17 6 25 24.5t14 35.5 l100 399l-348 717q-19 22 -68 28.5t-110 6.5q-29 0 -29 35z" />
<glyph unicode="Z" horiz-adv-x="1714" d="M197 23q0 39 20 59l1237 1229h-332q-120 0 -211 -15.5t-159 -55t-121 -114t-90 -192.5q-1 -8 -9 -14.5t-18 -6.5h-27q-12 0 -20 11.5t-8 23.5l135 432q7 19 27 19h1081q10 0 16 -6.5t6 -16.5q0 -37 -18 -55l-1233 -1227h346q149 0 248.5 20.5t168 70t118 136.5t96.5 232 q3 8 11 13t16 5h26q13 0 21 -9t8 -21q0 -4 -2 -11l-166 -510q-7 -20 -27 -20h-1116q-9 0 -16.5 6.5t-7.5 16.5z" />
<glyph unicode="[" horiz-adv-x="1042" d="M190 -16v1525q0 11 10 19t19 8h27q9 0 18.5 -8.5t9.5 -18.5v-632q99 71 258 71q62 0 119.5 -20.5t102 -59t70.5 -91.5t26 -115q0 -160 -86.5 -288.5t-213 -223.5t-290.5 -189q-8 -4 -14 -4h-27q-9 0 -19 8t-10 19zM274 68q170 135 273.5 278.5t103.5 315.5 q0 69 -39.5 124.5t-105.5 55.5q-52 0 -104 -10t-90 -39t-38 -78v-647z" />
<glyph unicode="\" horiz-adv-x="1042" d="M223 -172v1640q9 35 53 35q11 0 21 -7.5t10 -18.5v-572l469 174q2 2 10 2q11 0 21 -7.5t10 -18.5v-1469q-4 -16 -19 -25.5t-34 -9.5q-11 0 -21 8t-10 19v399l-467 -174q-4 -2 -12 -2q-11 0 -21 8t-10 19zM307 23l426 157v680l-426 -158v-679z" />
<glyph unicode="]" horiz-adv-x="1042" d="M190 -27q0 7 6.5 15t14.5 10l70 22v682l-52 -16q-4 -2 -8 -2q-11 0 -21 8t-10 19v145q0 8 7 16t14 9l70 22v404q5 17 19.5 25.5t33.5 8.5q11 0 21 -7.5t10 -18.5v-383l311 104v402q10 35 53 35q11 0 21 -8t10 -19v-383l51 18h8q11 0 21 -7.5t10 -18.5v-146q0 -7 -7 -15 t-12 -9l-71 -23v-682l51 19h8q11 0 21 -8t10 -19v-145q0 -8 -7 -16t-12 -9l-71 -22v-263q-9 -34 -53 -34q-11 0 -21 8t-10 18v242l-311 -105v-260q-11 -35 -54 -35q-10 0 -20 8t-10 19v242l-52 -19h-8q-11 0 -21 8t-10 19v145zM365 49l311 105v680l-311 -105v-680z" />
<glyph unicode="^" horiz-adv-x="2503" d="M190 735q0 17 12 29t31 12q20 0 31 -14q85 -103 199.5 -177t244.5 -117t268.5 -62t274.5 -19q196 0 374.5 35t337.5 118t273 222q13 14 31 14q19 0 31 -11t12 -30q0 -15 -10 -28q-126 -151 -294.5 -250t-362 -147t-394.5 -48q-428 0 -753 195q-81 48 -171 122.5 t-130 137.5q-5 4 -5 18z" />
<glyph unicode="_" horiz-adv-x="2503" d="M190 291q0 13 11 28q91 119 211 210t254 149.5t286 88.5t299 30q197 0 383 -48.5t342 -142.5q103 -68 138 -98q33 -25 110.5 -102t83.5 -101q2 -4 2 -14q0 -18 -13 -29.5t-30 -11.5q-21 0 -31 14q-82 109 -194 187.5t-244.5 128t-268.5 71t-278 21.5q-192 0 -374 -40.5 t-343 -133.5t-270 -234q-8 -14 -31 -14q-17 0 -30 12t-13 29z" />
<glyph unicode="`" horiz-adv-x="1061" d="M66 186q0 15 6 21q145 122 190 162v55q0 117 28 249.5t78 260t109 225.5q72 119 151 201t177 82q76 0 111.5 -54.5t35.5 -132.5q0 -146 -81.5 -302.5t-199 -292.5t-255.5 -263q-4 -48 -4 -73q0 -60 11 -123.5t44 -109.5t90 -46q64 0 130 35.5t130.5 85t71.5 49.5 q15 0 29 -16t14 -31q0 -13 -8 -18q-56 -48 -115.5 -89t-124.5 -65.5t-131 -24.5q-80 0 -137 42t-91 109.5t-51 149.5q-39 -35 -96.5 -84t-68.5 -49q-16 0 -29.5 16t-13.5 31zM434 526q109 103 206.5 223t163.5 254.5t66 262.5q0 102 -67 102q-64 0 -125.5 -101t-110 -243 t-79 -262.5t-54.5 -235.5z" />
<glyph unicode="a" horiz-adv-x="1380" d="M150 328q0 103 44.5 206t122 186.5t178 133t205.5 49.5q66 0 125.5 -31t96.5 -86q7 34 35.5 56t64.5 22q30 0 52 -19.5t22 -49.5q0 -15 -2 -21l-140 -557q-8 -29 -8 -65q0 -41 17.5 -70t54.5 -29q65 0 100.5 75.5t59.5 176.5q7 11 22 19h33q20 -6 27 -27q0 -1 -1 -5.5 t-2 -8.5q-76 -303 -243 -303q-48 0 -95.5 15t-85 46.5t-51.5 77.5q-61 -63 -138 -101t-159 -38q-97 0 -173.5 45.5t-119 125t-42.5 177.5zM332 246q0 -81 40.5 -137t116.5 -56q85 0 162.5 54t132.5 133l105 417q-16 74 -68 123t-125 49q-112 0 -195 -98.5t-126 -236.5 t-43 -248z" />
<glyph unicode="b" horiz-adv-x="1120" d="M162 324q0 17 7 60.5t7 59.5l197 787q8 35 10 53q0 27 -133 27q-13 0 -21 11.5t-8 23.5q8 31 11.5 40.5t23.5 12.5l299 22q33 0 33 -35l-148 -587q130 104 260 104q76 0 137 -26t106 -73t69 -110.5t24 -138.5q0 -139 -77.5 -273t-205 -218t-268.5 -84q-95 0 -169.5 46 t-114 124.5t-39.5 173.5zM322 258q0 -84 42.5 -144.5t122.5 -60.5q114 0 197.5 99t126.5 236.5t43 248.5q0 80 -40.5 136t-117.5 56q-83 0 -160.5 -53.5t-134.5 -130.5l-51 -207q-28 -103 -28 -180z" />
<glyph unicode="c" horiz-adv-x="1145" d="M152 344q0 148 91 277t235.5 205.5t289.5 76.5q64 0 129.5 -16t111.5 -55.5t46 -106.5q0 -54 -34 -95.5t-89 -41.5q-36 0 -61 23.5t-25 56.5q0 41 26.5 74.5t65.5 43.5q-60 43 -174 43q-97 0 -177.5 -50.5t-135 -132t-84 -181.5t-29.5 -189q0 -100 59 -161.5t158 -61.5 q318 0 469 187q8 8 23 8t30 -15t15 -30q0 -7 -9 -21q-166 -202 -532 -202q-108 0 -199.5 44.5t-145.5 127t-54 192.5z" />
<glyph unicode="d" horiz-adv-x="1315" d="M150 328q0 103 44.5 206t122 186.5t178 133t205.5 49.5q68 0 127 -30t95 -85l110 443q8 35 10 53q0 27 -133 27q-12 0 -20 11.5t-8 23.5q8 31 12 40.5t22 12.5l299 22q33 0 33 -35l-295 -1175q-6 -31 -6 -59q0 -41 17.5 -70t54.5 -29q65 0 100.5 75.5t59.5 176.5 q7 11 22 19h33q20 -6 27 -27q0 -1 -1 -5.5t-2 -8.5q-76 -303 -243 -303q-48 0 -95.5 15t-85 46.5t-51.5 77.5q-61 -63 -138 -101t-159 -38q-97 0 -173.5 45.5t-119 125t-42.5 177.5zM332 246q0 -81 40.5 -137t116.5 -56q85 0 161.5 53t133.5 132l105 419q-16 74 -68 123 t-125 49q-112 0 -195 -98.5t-126 -236.5t-43 -248z" />
<glyph unicode="e" horiz-adv-x="1206" d="M162 373q0 117 51 215t137.5 168t195.5 108.5t222 38.5q63 0 125 -18t104.5 -60t42.5 -106q0 -91 -71 -145.5t-180 -79t-204.5 -30t-207.5 -5.5h-8q-23 -86 -23 -164q0 -103 54.5 -172.5t154.5 -69.5q318 0 469 187q8 8 23 8t30 -15t15 -30q0 -7 -9 -21 q-166 -202 -532 -202q-113 0 -201 50.5t-138 141t-50 201.5zM387 532q120 0 235 9.5t214.5 51.5t99.5 124q0 58 -53 85t-119 27q-138 0 -236 -81t-141 -216z" />
<glyph unicode="f" horiz-adv-x="1229" d="M178 -266q0 51 36 91t89 40q35 0 59.5 -22.5t24.5 -57.5q0 -37 -20.5 -68t-53.5 -45q36 -16 86 -16q47 0 81 52t48 108q25 93 97 493l86 486h-201q-29 0 -29 34q4 24 10 37.5t25 16.5h209l25 133q17 102 32 162t49 118q41 66 106.5 106t139.5 40q54 0 105 -15t86 -49.5 t35 -87.5q0 -51 -36 -91t-87 -40q-36 0 -61 23.5t-25 56.5q0 78 71 113q-35 16 -90 16q-33 0 -61.5 -25.5t-38.5 -62.5q-28 -127 -49 -262l-25 -135h242q12 0 20 -10t8 -25q-7 -29 -11.5 -39.5t-24.5 -13.5h-250l-86 -484q-7 -42 -23 -131.5t-32 -157.5t-39.5 -138 t-55.5 -122q-45 -74 -111 -127t-141 -53q-83 0 -151 38t-68 114z" />
<glyph unicode="g" horiz-adv-x="1243" d="M125 -287q0 53 35 92t88 39q36 0 61 -22.5t25 -57.5q0 -58 -49 -98q27 -5 71 -7.5t107 -2.5q66 0 131.5 28.5t112.5 79.5t63 115l55 223q-126 -102 -260 -102q-147 0 -242.5 98t-95.5 246q0 103 45.5 204.5t123 181t177 126.5t203.5 47q67 0 126.5 -29.5t94.5 -82.5 q10 32 38.5 52.5t62.5 20.5q30 0 51.5 -19t21.5 -50q0 -15 -2 -21l-229 -917q-17 -69 -67 -123t-119.5 -87.5t-145.5 -49t-147 -15.5q-133 0 -234.5 23.5t-101.5 107.5zM410 262q0 -77 41 -132.5t118 -55.5q83 0 161.5 52.5t133.5 127.5l101 408q-10 44 -37 83t-67 61.5 t-89 22.5q-85 0 -152.5 -55.5t-114.5 -145.5t-71 -189.5t-24 -176.5z" />
<glyph unicode="h" horiz-adv-x="1485" d="M184 51q0 12 2 21l291 1159q8 35 10 53q0 27 -133 27q-12 0 -20 11.5t-8 23.5q8 31 12 40.5t22 12.5l299 22h9q24 -9 24 -35l-164 -655q69 78 157.5 125t184.5 47q81 0 146 -24t104 -78t39 -135t-37 -191t-98 -266q-18 -40 -18 -86q0 -70 49 -70q57 0 104 39.5t79 100 t44 112.5q3 15 23 19h32q27 -9 27 -29q0 -2 -2 -12q-29 -118 -114 -210.5t-197 -92.5q-86 0 -149.5 47.5t-63.5 130.5q0 38 16 73q59 150 97 265t38 196q0 63 -30 100t-93 37q-130 0 -227 -90t-166 -227l-113 -449q-9 -35 -36 -59t-64 -24q-31 0 -53.5 20t-22.5 51z" />
<glyph unicode="i" horiz-adv-x="911" d="M121 588q0 2 2 12q30 117 113.5 210t193.5 93q54 0 103.5 -20.5t79.5 -61t30 -96.5q0 -42 -14 -74l-176 -442q-19 -39 -19 -86q0 -70 49 -70q57 0 103.5 39.5t77.5 97.5t45 115q7 11 22 19h33q27 -10 27 -29q0 -2 -3 -12q-17 -72 -60.5 -142.5t-108.5 -115.5t-140 -45 q-84 0 -148.5 47.5t-64.5 130.5q0 39 17 73l176 443q18 47 18 86q0 69 -51 69q-56 0 -102.5 -39.5t-77 -98t-43.5 -113.5q-7 -13 -25 -19h-33q-24 7 -24 29zM508 1241q0 48 37.5 83.5t85.5 35.5q35 0 60.5 -24.5t25.5 -59.5q0 -48 -38 -83.5t-85 -35.5q-35 0 -60.5 25.5 t-25.5 58.5z" />
<glyph unicode="j" horiz-adv-x="1047" d="M25 -283q0 52 35.5 89.5t86.5 37.5q37 0 61.5 -22t24.5 -58q0 -64 -55 -102q31 -6 62 -6q49 0 94.5 22.5t79.5 58t58.5 80.5t35.5 91l190 758q9 28 9 65q0 38 -17.5 68t-54.5 30q-92 0 -170 -75.5t-119 -175.5q-7 -13 -24 -19h-33q-25 7 -25 29q0 2 2 12q22 55 62 113 t86 98.5t103.5 66t121.5 25.5q97 0 168.5 -51.5t71.5 -144.5q0 -24 -7 -48l-194 -774q-24 -92 -92.5 -160.5t-163 -105.5t-184.5 -37q-81 0 -147 31t-66 104zM745 1241q0 48 38 83.5t85 35.5q35 0 60.5 -24.5t25.5 -59.5q0 -48 -37.5 -83.5t-85.5 -35.5q-35 0 -60.5 25.5 t-25.5 58.5z" />
<glyph unicode="k" horiz-adv-x="1352" d="M184 51q0 12 2 21l291 1159q8 35 10 53q0 27 -133 27q-12 0 -20 11.5t-8 23.5q8 31 12 40.5t22 12.5l299 22h9q24 -9 24 -35l-209 -833q78 33 206.5 142t203 158.5t176.5 49.5q68 0 115 -45t47 -115q0 -36 -15 -69t-44 -53.5t-66 -20.5q-36 0 -61 23.5t-25 56.5 q0 46 31.5 81.5t76.5 41.5q-23 26 -63 26q-62 0 -123.5 -32t-133.5 -90.5t-127 -106t-103 -76.5q88 -10 157 -30t120.5 -68t51.5 -125q0 -30 -8 -57q-10 -45 -10 -82q0 -44 18 -76.5t56 -32.5q119 0 186 252q3 14 22 19h33q27 -9 27 -29q0 -2 -2 -12q-19 -73 -54.5 -141.5 t-90 -115t-126.5 -46.5q-61 0 -117 26t-89 75.5t-33 113.5q0 26 6 55q6 24 6 45q0 55 -45.5 90.5t-110.5 52.5t-116 17l-99 -392q-9 -35 -36 -59t-64 -24q-31 0 -53.5 20t-22.5 51z" />
<glyph unicode="l" horiz-adv-x="821" d="M154 176q0 1 3 19t3 30l252 1006q8 35 10 53q0 27 -133 27q-13 0 -21 11.5t-8 23.5q8 31 11.5 40.5t23.5 12.5l299 22q33 0 33 -35l-293 -1169q-8 -27 -8 -65q0 -99 71 -99q65 0 98 73.5t58 178.5q3 14 22 19h33q27 -9 27 -33q-33 -128 -87 -219.5t-155 -91.5 q-96 0 -167.5 52.5t-71.5 143.5z" />
<glyph unicode="m" horiz-adv-x="2238" d="M121 586q0 10 2 14q30 121 87.5 212t156.5 91q90 0 164.5 -50t74.5 -136q71 86 163 136t194 50q111 0 198.5 -52t87.5 -157q73 96 168 152.5t207 56.5q81 0 146 -24t104 -78t39 -135t-37 -191t-98 -266q-19 -39 -19 -86q0 -29 12 -49.5t37 -20.5q57 0 104 39.5t79 99.5 t45 113q3 14 22 19h33q27 -10 27 -29q0 -2 -2 -12q-29 -118 -115 -210.5t-197 -92.5q-84 0 -148.5 47.5t-64.5 130.5q0 39 17 73q59 150 97 264t38 197q0 62 -30.5 99.5t-92.5 37.5q-129 0 -227 -90t-168 -229l-115 -455q-7 -33 -35.5 -54t-62.5 -21q-31 0 -53.5 19.5 t-22.5 49.5q0 14 2 21l127 508q16 58 16 114q0 62 -30.5 99.5t-92.5 37.5q-129 0 -227 -90t-168 -229l-114 -455q-7 -33 -36.5 -54t-62.5 -21q-31 0 -53.5 19.5t-22.5 49.5q0 14 2 21l150 596q8 29 8 65q0 41 -17.5 69.5t-54.5 28.5q-64 0 -100 -76t-59 -175q-3 -15 -25 -19 h-33q-19 5 -24 27z" />
<glyph unicode="n" horiz-adv-x="1575" d="M121 586q0 10 2 14q30 121 87.5 212t156.5 91q91 0 165 -49.5t74 -136.5q70 86 160.5 136t194.5 50q82 0 146 -24t103 -78t39 -135t-37 -191t-98 -266q-18 -40 -18 -86q0 -70 49 -70q83 0 144 80t83 172q3 15 23 19h32q27 -9 27 -29q0 -2 -2 -12q-29 -118 -114 -210.5 t-197 -92.5q-86 0 -149.5 47.5t-63.5 130.5q0 38 16 73q59 150 97 265t38 196q0 63 -30 100t-93 37q-232 0 -393 -317l-114 -457q-7 -33 -36.5 -54t-62.5 -21q-31 0 -53.5 19.5t-22.5 49.5q0 14 2 21l150 596q8 29 8 65q0 41 -17.5 69.5t-54.5 28.5q-64 0 -100 -76t-59 -175 q-3 -15 -25 -19h-33q-19 5 -24 27z" />
<glyph unicode="o" horiz-adv-x="1253" d="M152 344q0 148 91 277t235.5 205.5t289.5 76.5q107 0 199 -44.5t146 -127.5t54 -192q0 -113 -53.5 -215t-143.5 -180t-200.5 -121t-218.5 -43t-199.5 44.5t-145.5 127t-54 192.5zM338 276q0 -100 59 -161.5t158 -61.5q130 0 227 85.5t148 215.5t51 252q0 100 -58 161.5 t-159 61.5q-97 0 -177.5 -50.5t-135 -132t-84 -181.5t-29.5 -189z" />
<glyph unicode="p" horiz-adv-x="1315" d="M33 -362q7 28 12.5 39t24.5 14q42 0 64 3t38 16t25 42l231 920q6 30 6 59q0 41 -17.5 69.5t-54.5 28.5q-64 0 -100 -76t-59 -175q-7 -13 -25 -19h-33q-18 5 -24 27q0 10 2 14q30 121 87.5 212t156.5 91q76 0 142.5 -35.5t86.5 -103.5q64 63 141.5 101t157.5 38 q76 0 137 -26t106 -73t69 -110.5t24 -138.5q0 -139 -77.5 -273t-205 -218t-268.5 -84q-66 0 -126.5 30.5t-94.5 83.5l-88 -350q-4 -24 -4 -33q0 -20 133 -20q28 0 28 -35q-3 -15 -6.5 -28t-12 -19t-26.5 -6h-424q-10 0 -18 12t-8 23zM492 225q16 -73 68 -122.5t122 -49.5 q114 0 197.5 99t126.5 236.5t43 248.5q0 80 -40.5 136t-117.5 56q-83 0 -160.5 -53.5t-134.5 -130.5z" />
<glyph unicode="q" horiz-adv-x="1167" d="M150 328q0 103 44.5 206t122 186.5t178 133t205.5 49.5q73 0 133 -34.5t97 -94.5q14 20 44.5 50t63.5 54.5t49 24.5q31 0 31 -35l-282 -1124q-5 -30 -5 -33q0 -20 134 -20q28 0 28 -35q-3 -15 -6.5 -28t-12 -19t-26.5 -6h-467q-12 0 -20 12t-8 23q7 28 12.5 39t23.5 14 q95 0 138 10q24 7 32 45l86 338q-132 -104 -260 -104q-97 0 -173.5 45.5t-119 125t-42.5 177.5zM332 246q0 -81 40.5 -137t116.5 -56q85 0 161.5 53t133.5 132l105 419q-16 74 -68 123t-125 49q-112 0 -195 -98.5t-126 -236.5t-43 -248z" />
<glyph unicode="r" horiz-adv-x="1186" d="M121 586q0 10 2 14q30 121 87.5 212t156.5 91q48 0 97 -16t85 -48.5t49 -78.5q126 143 295 143q60 0 117.5 -16.5t96 -54.5t38.5 -97q0 -54 -35.5 -94.5t-89.5 -40.5q-36 0 -61 23.5t-25 56.5q0 40 25.5 73.5t62.5 43.5q-48 32 -133 32q-183 0 -301 -219l-139 -555 q-7 -33 -36.5 -54t-62.5 -21q-31 0 -53.5 19.5t-22.5 49.5q0 14 2 21l150 596q8 29 8 65q0 41 -17.5 69.5t-54.5 28.5q-64 0 -100 -76t-59 -175q-3 -15 -25 -19h-33q-19 5 -24 27z" />
<glyph unicode="s" horiz-adv-x="1196" d="M172 178q0 58 34.5 101t90.5 43q36 0 61 -22.5t25 -57.5q0 -44 -29 -78t-73 -43q62 -68 245 -68q70 0 146.5 19t130 64.5t53.5 117.5q0 53 -48 82t-112 41l-137 22q-86 17 -149.5 71t-63.5 136q0 67 40 131.5t99 102.5q106 63 252 63q109 0 199 -41t90 -137 q0 -49 -29 -86t-77 -37q-30 0 -52 20t-22 50q0 36 21.5 63.5t56.5 36.5q-50 57 -189 57q-56 0 -115 -16t-99 -52t-40 -93q0 -40 35.5 -64.5t85.5 -34.5l135 -24q68 -12 124.5 -40.5t93 -77.5t36.5 -114q0 -76 -46 -147t-116 -113q-122 -73 -305 -73q-131 0 -241.5 44 t-110.5 154z" />
<glyph unicode="t" horiz-adv-x="975" d="M109 829q7 30 11.5 40.5t22.5 13.5h256l82 321q9 35 37.5 55.5t61.5 20.5q31 0 53 -19.5t22 -50.5q0 -7 -0.5 -11t-1.5 -9l-78 -307h238q12 0 20.5 -11t8.5 -24q-7 -29 -12 -39.5t-23 -13.5h-254l-143 -578q-9 -28 -9 -65q0 -41 17.5 -70t54.5 -29q65 0 122.5 38.5 t100 96t66.5 117.5q4 10 22 19h33q27 -10 27 -29q0 -2 -2 -12q-23 -57 -61.5 -113t-87 -98t-106.5 -67t-118 -25q-96 0 -168 52.5t-72 143.5q0 25 7 47l143 572h-242q-12 0 -20 11.5t-8 22.5z" />
<glyph unicode="u" horiz-adv-x="1509" d="M121 588q0 2 2 12q20 75 63.5 144.5t107.5 114t138 44.5q54 0 103.5 -20.5t79.5 -61t30 -96.5q0 -42 -14 -74q-22 -54 -48 -121t-40.5 -111t-26.5 -98.5t-12 -103.5q0 -74 36.5 -119t108.5 -45q148 0 260 180l144 574q9 34 38 55t62 21q32 0 53 -19.5t21 -50.5 q0 -14 -2 -20l-144 -576q-8 -29 -8 -65q0 -41 17.5 -70t54.5 -29q65 0 100.5 75.5t59.5 176.5q7 11 22 19h33q20 -6 26 -27q0 -4 -0.5 -7t-1.5 -7q-76 -303 -243 -303q-75 0 -139.5 33t-88.5 98q-54 -61 -123.5 -96t-144.5 -35q-139 0 -225 65.5t-86 200.5q0 48 11.5 100.5 t28 101.5t42.5 113.5t44.5 112t18.5 86.5q0 69 -51 69q-82 0 -142.5 -79.5t-82.5 -171.5q-7 -13 -25 -19h-33q-24 7 -24 29z" />
<glyph unicode="v" horiz-adv-x="1280" d="M121 588q0 2 2 12q20 75 63.5 144.5t107.5 114t138 44.5q54 0 103.5 -20.5t79.5 -61t30 -96.5q0 -42 -14 -74q-26 -64 -57.5 -143.5t-49.5 -147.5t-18 -131q0 -83 46.5 -129.5t129.5 -46.5q138 0 262 195q40 66 76.5 160t36.5 155q0 58 -18 84.5t-58.5 67.5t-40.5 71 q0 31 16.5 58t45 44t57.5 17q59 0 87 -52.5t28 -117.5q0 -99 -34.5 -226t-101 -250t-159.5 -201t-201 -78q-149 0 -245.5 65.5t-96.5 208.5q0 46 12 99.5t31 109.5t41.5 110.5t40.5 100.5q18 47 18 86q0 69 -51 69q-82 0 -142.5 -79.5t-82.5 -171.5q-3 -15 -25 -19h-33 q-24 7 -24 29z" />
<glyph unicode="w" horiz-adv-x="1829" d="M121 588q0 2 2 12q20 75 63.5 144.5t107.5 114t138 44.5q54 0 103.5 -20.5t79.5 -61t30 -96.5q0 -42 -14 -74q-25 -61 -48 -119.5t-38 -101t-26 -96t-11 -96.5q0 -91 52.5 -138t141.5 -47q67 0 115.5 46.5t81.5 115.5q-2 14 -2 39q0 58 14 106l111 447q9 34 38 55t62 21 q32 0 53 -19.5t21 -50.5q0 -14 -2 -20l-109 -439q-18 -74 -18 -125q0 -82 48 -129t130 -47q122 0 219 154q37 62 80 178t43 178q0 58 -18 84.5t-58.5 67.5t-40.5 71q0 31 17 58t46 44t56 17q59 0 87 -53t28 -119q0 -71 -24 -175.5t-61.5 -204t-74.5 -160.5 q-55 -93 -130.5 -153t-170.5 -60q-234 0 -313 139q-92 -139 -232 -139q-156 0 -259 66t-103 214q0 56 19 125.5t53 155.5t52.5 133t18.5 86q0 69 -51 69q-82 0 -142.5 -79.5t-82.5 -171.5q-7 -13 -25 -19h-33q-24 7 -24 29z" />
<glyph unicode="x" horiz-adv-x="1427" d="M131 145q0 57 35 97.5t90 40.5q35 0 59.5 -22.5t24.5 -57.5q0 -42 -25.5 -75.5t-64.5 -43.5q44 -31 115 -31q69 0 121.5 54.5t70.5 123.5l90 361q17 80 19 113q0 58 -36 91t-93 33q-69 0 -129 -35t-102.5 -92t-59.5 -124q-7 -13 -25 -19h-33q-24 7 -24 29q0 2 2 12 q21 81 77.5 151t135 111t162.5 41q53 0 102.5 -15t90 -45t67.5 -77q39 60 101.5 98.5t129.5 38.5q55 0 108.5 -17t88.5 -54.5t35 -94.5q0 -56 -35.5 -96.5t-89.5 -40.5q-36 0 -61 23.5t-25 56.5q0 41 25.5 74.5t64.5 44.5q-42 30 -113 30q-69 0 -122 -53.5t-70 -124.5 l-90 -360q-19 -64 -19 -113q0 -57 35.5 -91t93.5 -34q65 0 126.5 35t104.5 92.5t60 124.5q7 11 22 19h33q27 -9 27 -29q0 -2 -2 -12q-21 -81 -77.5 -151t-135 -111t-162.5 -41q-81 0 -151.5 35t-108.5 102q-38 -59 -100.5 -98t-131.5 -39q-56 0 -108.5 17t-87.5 54.5 t-35 93.5z" />
<glyph unicode="y" horiz-adv-x="1296" d="M121 588q0 2 2 12q20 75 63.5 144.5t107.5 114t138 44.5q54 0 103.5 -20.5t79.5 -61t30 -96.5q0 -42 -14 -74q-22 -54 -48 -121t-40.5 -111t-26.5 -98.5t-12 -103.5q0 -74 36.5 -119t108.5 -45q148 0 260 180l144 574q9 34 38 55t62 21q32 0 53 -19.5t21 -50.5 q0 -14 -2 -20l-201 -805q-30 -115 -113.5 -208t-198.5 -145.5t-233 -52.5q-61 0 -119.5 18.5t-97.5 58.5t-39 103q0 57 35 98.5t90 41.5q36 0 61 -22t25 -58q0 -41 -28 -74.5t-70 -44.5q47 -47 147 -47q62 0 122 30t110 78q64 65 95.5 134.5t57.5 171.5q-105 -90 -223 -90 q-139 0 -225 65.5t-86 200.5q0 48 11.5 100.5t28 101.5t42.5 113.5t44.5 112t18.5 86.5q0 69 -51 69q-82 0 -142.5 -79.5t-82.5 -171.5q-3 -15 -25 -19h-33q-24 7 -24 29z" />
<glyph unicode="z" horiz-adv-x="1221" d="M150 8q0 6 6 17q61 94 148 180.5t194 169.5t209 162t182 155q-54 0 -152.5 18.5t-158.5 18.5q-83 0 -121.5 -19t-57 -48t-28.5 -31h-33q-25 7 -25 28q0 3 2 13q15 63 59 115.5t106 84t128 31.5q46 0 82.5 -19t78 -53t70.5 -49.5t62 -15.5q42 0 71 26t61.5 67t43.5 44h33 q27 -8 27 -29q0 -5 -7 -16t-10 -16q-80 -119 -181 -209t-277.5 -224t-266.5 -221q13 2 35 2q53 0 159 -18t161 -18t111.5 17t99.5 53t57 89q3 14 22 19h33q27 -8 27 -29q0 -2 -2 -12q-21 -82 -77.5 -153.5t-137 -114.5t-164.5 -43q-41 0 -75.5 17t-76 50.5t-72.5 51.5 t-69 18q-58 0 -97 -27t-75.5 -67.5t-44.5 -42.5h-33q-26 6 -26 28z" />
<glyph unicode="{" horiz-adv-x="911" d="M121 588q0 2 2 12q30 117 113.5 210t193.5 93q54 0 103.5 -20.5t79.5 -61t30 -96.5q0 -42 -14 -74l-176 -442q-19 -39 -19 -86q0 -70 49 -70q57 0 103.5 39.5t77.5 97.5t45 115q7 11 22 19h33q27 -10 27 -29q0 -2 -3 -12q-17 -72 -60.5 -142.5t-108.5 -115.5t-140 -45 q-84 0 -148.5 47.5t-64.5 130.5q0 39 17 73l176 443q18 47 18 86q0 69 -51 69q-56 0 -102.5 -39.5t-77 -98t-43.5 -113.5q-7 -13 -25 -19h-33q-24 7 -24 29z" />
<glyph unicode="|" horiz-adv-x="981" d="M25 -283q0 52 35.5 89.5t86.5 37.5q37 0 61.5 -22t24.5 -58q0 -63 -53 -100q33 -8 82 -8q57 0 109 37.5t87.5 96.5t49.5 118l190 758q9 28 9 65q0 38 -17.5 68t-54.5 30q-92 0 -170 -75.5t-119 -175.5q-7 -13 -24 -19h-33q-25 7 -25 29q0 2 2 12q22 55 62 113t86 98.5 t103.5 66t121.5 25.5q97 0 168.5 -51.5t71.5 -144.5q0 -24 -7 -48l-194 -774q-22 -87 -87 -156.5t-155 -108t-178 -38.5q-89 0 -161 29.5t-72 105.5z" />
<glyph unicode="}" horiz-adv-x="1612" d="M236 385q0 105 48.5 233t134.5 218t191 90q14 0 23.5 -8.5t9.5 -22.5l-6 -25q-11 -16 -25 -18q-69 0 -127 -72t-90.5 -169t-32.5 -165q0 -80 41 -124q90 145 209.5 261t267 185.5t308.5 69.5q95 0 170 -42.5t117.5 -117t42.5 -170.5q0 -133 -75 -255.5t-198 -197.5 t-258 -75q-89 0 -154 49.5t-65 136.5q0 104 74 104q22 0 37.5 -14.5t15.5 -36.5q0 -42 -43 -63q6 -49 47.5 -76t91.5 -27q85 0 153 49.5t116 131t72 170.5t24 167q0 83 -45.5 138t-126.5 55q-149 0 -287.5 -70t-251 -186t-184.5 -248l205 -215q28 -26 40.5 -63.5t12.5 -83.5 q0 -58 -22.5 -117t-65 -110t-98 -81t-113.5 -30q-93 0 -135.5 66.5t-42.5 164.5q0 85 23 184.5t59 186.5q-88 89 -88 223zM324 -221q0 -38 7.5 -71.5t29.5 -54t61 -20.5q43 0 83.5 32t63.5 79t23 90q0 46 -27 76l-178 186q-63 -170 -63 -317z" />
<glyph unicode="~" d="M438 1260q0 21 13.5 35.5t35.5 17.5h809q-51 74 -51 108q0 22 16 38t37 16q36 0 52 -35q27 -85 116 -131q33 -19 33 -49q0 -31 -33 -50q-123 -45 -206 -147q-25 -19 -41 -19q-22 0 -38 16t-16 38q0 23 26.5 51.5t59.5 56.5h-764q-22 3 -35.5 17.5t-13.5 36.5z" />
<glyph horiz-adv-x="1706" d="M182 61q0 41 47 70l277 152q36 44 82 122.5t78 154t32 122.5q0 20 -18 20q-69 0 -160.5 -11.5t-107.5 -35.5q-5 -8 -12 -16t-17 -8h-27q-12 0 -20 11.5t-8 23.5q20 71 82 118.5t142.5 70t154.5 22.5q46 0 66 -39.5t20 -89.5q0 -86 -42.5 -193t-97.5 -190l881 483 q68 35 127 35q32 0 55 -16t27 -46q0 -41 -49 -69l-275 -152q-57 -70 -124.5 -201t-67.5 -198q0 -21 18 -21q59 0 155 11.5t113 35.5q4 8 7.5 13t9 8.5t10.5 3.5h27q28 0 28 -35q-20 -71 -81 -118.5t-141 -70t-154 -22.5q-46 0 -66 38.5t-20 90.5q0 86 41 191t98 192 l-881 -483q-65 -35 -127 -35q-30 0 -54 15t-28 46z" />
<glyph unicode="&#xa1;" horiz-adv-x="1520" d="M168 35q7 28 12.5 39t24.5 14q119 0 174 12q25 7 37 50l276 1107q4 22 4 27q0 14 -8 16q-25 6 -67 8.5t-97 2.5q-12 0 -20 11.5t-8 23.5q7 28 12.5 39t23.5 14h1158q12 0 20 -10t8 -25l-43 -424q0 -11 -8.5 -19t-19.5 -8h-27q-12 0 -20.5 11t-8.5 24q4 35 7.5 75t3.5 62 q0 105 -47.5 154.5t-119.5 60.5t-198 11h-236q-38 0 -54.5 -3t-28.5 -18t-19 -41l-276 -1108l-5 -20q0 -18 11 -21q59 -12 215 -12q13 0 20.5 -10.5t7.5 -24.5q-8 -34 -14 -43.5t-31 -9.5h-630q-13 0 -21 11.5t-8 23.5z" />
<glyph unicode="&#xa2;" horiz-adv-x="2103" d="M176 16q0 9 6 15l1159 1401q28 30 62 30h31q36 0 45 -30l456 -1401q2 -2 2 -6q0 -11 -8 -18t-18 -7h-1718q-17 0 -17 16zM408 180h1241l-353 1075z" />
<glyph unicode="&#xa3;" horiz-adv-x="1913" d="M170 528q0 180 87.5 346.5t235 295t326.5 200.5t355 72q131 0 243.5 -39t199.5 -114t136 -184t49 -241q0 -239 -148 -449t-382 -334t-469 -124q-129 0 -242.5 38.5t-202 113t-138.5 180.5t-50 239zM381 483q0 -132 54 -234.5t154 -158t232 -55.5q164 0 306 74.5 t247.5 204t162 286.5t56.5 313q0 203 -118 329t-320 126q-163 0 -305.5 -77t-247 -206t-163 -288.5t-58.5 -313.5zM514 578l64 258q9 26 28 26h27q13 0 21 -11t8 -24l-9 -34h715q3 14 6.5 30t11 26t21.5 13h27q28 0 28 -35l-63 -258q-7 -26 -29 -26h-27q-12 0 -20 11.5 t-8 23.5l8 34h-715q-3 -14 -6.5 -30.5t-11 -27t-21.5 -11.5h-26q-13 0 -21 11.5t-8 23.5z" />
<glyph unicode="&#xa4;" horiz-adv-x="1759" d="M145 35q4 16 7.5 26.5t9.5 18t18 8.5q145 0 232 131l4 3q3 2 4 5l758 1205q17 30 53 30h26q14 0 24.5 -7.5t12.5 -22.5l170 -1311q15 -33 142 -33q13 0 20.5 -10.5t7.5 -24.5q-8 -34 -14 -43.5t-31 -9.5h-522q-27 0 -27 35q4 16 7 26.5t9 18t19 8.5q152 0 168 45 l-135 1038l-612 -972q-17 -25 -17 -52q0 -59 105 -59q13 0 20.5 -10.5t7.5 -24.5q-8 -34 -14 -43.5t-31 -9.5h-395q-13 0 -20 11t-7 24z" />
<glyph unicode="&#xa5;" horiz-adv-x="1858" d="M184 35l58 303q4 27 28 27h27q12 0 20.5 -11t8.5 -24q-18 -88 -21 -140q1 -4 1.5 -7.5t0.5 -8.5h1166q12 1 26.5 33.5t29.5 79.5t19 59q4 19 27 19h27q12 0 20 -10t8 -21q0 -4 -2 -10l-94 -304q-7 -20 -27 -20h-1294q-12 0 -20.5 11t-8.5 24zM442 1087q0 5 2 13l88 280 q9 19 27 19h1270q12 0 20.5 -11t8.5 -24l-52 -281q-4 -26 -28 -26h-27q-12 0 -20.5 11t-8.5 24q15 77 15 116v19q-51 6 -262 6h-613q-221 0 -272 -8q-8 -2 -17.5 -20.5t-21 -48.5t-16.5 -45.5t-11 -33.5q-7 -20 -26 -20h-27q-11 0 -20 10t-9 20zM530 571l82 322q4 27 29 27 h27q12 0 20 -10t8 -25l-18 -74h756l20 82q4 27 29 27h26q13 0 21 -10t8 -25l-82 -322q-4 -26 -29 -26h-26q-13 0 -21 11.5t-8 22.5l19 74h-756l-21 -82q-4 -26 -28 -26h-27q-12 0 -20.5 11t-8.5 23z" />
<glyph unicode="&#xa6;" horiz-adv-x="2046" d="M168 35q7 28 12.5 39t24.5 14q119 0 174 12q25 7 37 50l276 1107q4 22 4 27q0 14 -8 16q-25 6 -67 8.5t-97 2.5q-12 0 -20 11.5t-8 23.5q7 28 12.5 39t23.5 14h1510q13 0 21 -10t8 -25q-4 -25 -9.5 -37.5t-25.5 -15.5q-121 0 -174 -13q-25 -7 -37 -49l-277 -1108 q-4 -20 -4 -26q0 -15 8 -17q52 -10 162 -10q29 0 29 -35q-6 -33 -12.5 -43t-32.5 -10h-576q-12 0 -20 11.5t-8 23.5q7 28 12.5 39t23.5 14q119 0 175 12q24 7 36 50l291 1161h-717l-292 -1170q-5 -25 -5 -26q0 -15 9 -17q51 -10 161 -10q29 0 29 -35q-6 -33 -12.5 -43 t-32.5 -10h-575q-13 0 -21 11.5t-8 23.5z" />
<glyph unicode="&#xa7;" horiz-adv-x="1948" d="M199 31q0 12 12 24l723 570l-404 702q-4 6 -4 19q8 31 11.5 40.5t23.5 12.5h1335q13 0 21 -10t8 -25l-43 -424q0 -11 -8.5 -19t-20.5 -8h-26q-13 0 -21 11.5t-8 23.5q4 27 4 78q0 122 -43.5 185t-159.5 83q-64 12 -144.5 14.5t-197.5 2.5h-458l342 -596q4 -8 4 -15 q0 -15 -12 -24l-715 -565h510q177 0 276.5 8t188 41.5t162 113t128.5 215.5q9 19 27 19h27q12 0 20 -10t8 -21q0 -4 -2 -10l-174 -447q-7 -20 -26 -20h-1336q-12 0 -20 10t-8 21z" />
<glyph unicode="&#xa8;" horiz-adv-x="1507" d="M123 1112q0 37 39 100.5t76 102.5q61 60 136 93.5t150 33.5q123 0 201 -64t112.5 -168t34.5 -227q0 -39 -2 -59q62 137 149 253t204.5 190.5t251.5 74.5q71 0 128 -31t89 -87.5t32 -125.5q0 -111 -49 -111h-26q-11 0 -18 8t-7 17q0 4 2 6q2 12 2 31q0 65 -61.5 92 t-134.5 27q-99 0 -185 -52t-151 -137.5t-109.5 -185.5t-68.5 -195l-138 -557q-4 -16 -4 -20q0 -21 31 -25q49 -8 194 -8q14 0 21.5 -10.5t7.5 -24.5q-8 -34 -14 -43.5t-31 -9.5h-686q-27 0 -27 35q4 16 7 26.5t9 18t19 8.5q148 0 203 8q50 10 63 54l138 555q4 4 4 8 q26 115 26 209q0 146 -62.5 246t-199.5 100q-56 0 -111.5 -15t-98.5 -48t-56 -87q-3 -12 -15.5 -21.5t-23.5 -9.5h-27q-10 0 -17 8t-7 17z" />
<glyph unicode="&#xa9;" horiz-adv-x="1706" d="M117 643q0 131 127.5 235t302.5 162t301 58l39 159q2 10 2.5 13.5t1.5 7.5q0 14 -9 19t-22 6q-51 8 -194 8q-29 0 -29 35q8 32 13.5 42.5t31.5 10.5h672q13 0 19.5 -10.5t6.5 -24.5q-8 -31 -12.5 -40.5t-21.5 -12.5q-150 0 -203 -8q-49 -10 -64 -54l-37 -149 q75 0 170 -22.5t179.5 -65t140 -108t55.5 -148.5q0 -134 -129 -238t-309.5 -161.5t-306.5 -57.5l-39 -158q-4 -16 -4 -20q0 -21 30 -25q50 -8 195 -8q13 0 21 -11t8 -24q-8 -32 -14.5 -42.5t-30.5 -10.5h-672q-27 0 -27 35q8 31 11.5 40.5t23.5 12.5q148 0 203 8 q50 10 63 54l37 151q-98 0 -225 41t-216 118.5t-89 182.5zM336 621q0 -82 49 -137.5t125.5 -82t155.5 -26.5l163 649q-87 0 -175 -27.5t-160 -80.5t-115 -129t-43 -166zM860 373q121 0 238.5 48t192.5 140.5t75 216.5q0 83 -50.5 139t-129 82.5t-162.5 26.5z" />
<glyph unicode="&#xaa;" horiz-adv-x="1599" d="M115 1085q9 39 32 39h136q73 0 109 -54t36 -132q0 -57 -14 -102q-23 -89 -23 -170q0 -245 240 -289l219 880q2 10 2.5 13.5t1.5 7.5q0 14 -9 19t-22 6q-51 8 -194 8q-29 0 -29 35q8 32 13.5 42.5t31.5 10.5h672q13 0 19.5 -10.5t6.5 -24.5q-8 -31 -12.5 -40.5 t-21.5 -12.5q-150 0 -203 -8q-49 -10 -64 -54l-217 -870q136 26 236 102.5t162 198.5q18 35 49.5 130.5t63 160t82 109t126.5 44.5h135q14 0 21.5 -9.5t7.5 -24.5q-3 -9 -7 -18.5t-9.5 -15t-16.5 -5.5q-71 0 -121.5 -62.5t-74.5 -142.5q-37 -137 -105 -240 q-86 -133 -247.5 -219t-321.5 -86l-39 -160q-4 -16 -4 -20q0 -21 31 -25q49 -8 194 -8q14 0 21.5 -10.5t7.5 -24.5q-8 -34 -14 -43.5t-31 -9.5h-672q-27 0 -27 35q4 16 7 26.5t9 18t19 8.5q148 0 203 8q50 10 63 54l37 151q-185 21 -296 117.5t-111 275.5q0 76 18 150 q12 42 12 84q0 51 -20.5 87t-69.5 36q-12 0 -20 11.5t-8 22.5z" />
<glyph unicode="&#xad;" horiz-adv-x="1937" d="M246 330q0 11 8.5 18.5t19.5 7.5h27q9 0 19 -7.5t10 -18.5q0 -118 10 -162q22 -5 61.5 -7.5t92.5 -2.5h149q0 71 -29.5 142.5t-87.5 178.5t-87 186.5t-29 161.5q0 147 81.5 262.5t211.5 193.5t281.5 118.5t287.5 40.5q105 0 212.5 -24.5t199.5 -75.5t149 -133t57 -195 q0 -148 -91.5 -270t-276.5 -304t-244 -282h129q149 0 170 14q19 21 35 49t32.5 60t30.5 61q7 14 25 14h26q13 0 21 -9t8 -21q0 -7 -4 -15l-152 -295q-6 -16 -24 -16h-397q-13 0 -21 11.5t-8 23.5q31 117 94 218.5t185 276t178.5 289.5t56.5 225q0 82 -32.5 143.5t-87 101 t-125.5 59.5t-150 20q-126 0 -240.5 -43.5t-202.5 -123t-138 -189.5t-50 -236q0 -87 21 -191l44 -208q21 -104 21 -191q0 -178 -47 -186h-397q-12 0 -20.5 8.5t-8.5 18.5z" />
<glyph unicode="&#xae;" horiz-adv-x="1647" d="M152 344q0 148 91 277t235.5 205.5t289.5 76.5q111 0 208 -49.5t156.5 -138.5t59.5 -199l8 -110q141 179 191 382q2 12 22 17h33q27 -8 27 -29q0 -2 -3 -10q-32 -130 -100.5 -252t-163.5 -221q0 -70 18 -155t60 -85q47 0 70 18.5t41.5 48.5t29.5 32h33q25 -3 25 -29 q0 -39 -33.5 -72t-83 -52t-86.5 -19q-81 0 -142 48t-87 126q-116 -83 -241.5 -128.5t-258.5 -45.5q-107 0 -199 44.5t-146 127.5t-54 192zM338 276q0 -100 59 -161.5t158 -61.5q246 0 477 183q-1 7 -1.5 12.5t-2.5 15.5l-12 211q0 81 -27 163.5t-83.5 136.5t-141.5 54 q-97 0 -177.5 -50.5t-135 -132t-84 -181.5t-29.5 -189z" />
<glyph unicode="&#xaf;" horiz-adv-x="1430" d="M100 -367l316 1262q36 144 135 269.5t239.5 201.5t286.5 76q133 0 228.5 -78t95.5 -207q0 -103 -61.5 -195.5t-153.5 -150.5q47 -32 81 -77.5t52 -99t18 -112.5q0 -111 -54 -213t-142.5 -177t-198 -118t-219.5 -43q-127 0 -236.5 53.5t-162.5 157.5l-142 -563 q-2 -11 -22 -16h-33q-27 8 -27 30zM373 338q0 -93 50.5 -159.5t132.5 -100t171 -33.5q98 0 177.5 49t135.5 132t83.5 176t27.5 188q0 109 -70 170q-81 -31 -168 -31q-78 0 -142 13t-64 57q0 84 229 84q83 0 147 -23q47 35 81.5 94.5t52.5 126t18 127.5q0 50 -20 86t-58 55 t-86 19q-129 0 -250 -70t-207.5 -186.5t-117.5 -239.5l-113 -448q-10 -39 -10 -86z" />
<glyph unicode="&#xb0;" horiz-adv-x="1335" d="M90 539q0 2 2 10q23 94 92.5 177t166.5 130t198 47q100 0 177.5 -52.5t131.5 -145.5q46 -74 87.5 -198t41.5 -202q42 105 81 193t87.5 184.5t97.5 183.5q9 14 25 17h33q24 -7 24 -29q0 -2 -2 -10q-73 -131 -134.5 -258.5t-117.5 -265.5t-96 -259q0 -43 -21 -151t-50 -210 t-52 -126q-17 -14 -33 -14q-19 0 -30 17t-11 38q0 104 113 457q6 55 6 112q0 105 -18.5 201t-61.5 172.5t-119 122t-190 45.5q-115 0 -218 -49.5t-128 -149.5q-11 -14 -25 -16h-32q-25 7 -25 29z" />
<glyph unicode="&#xb1;" horiz-adv-x="1159" d="M147 338q0 99 41 189.5t109 162t158.5 124t183.5 75.5q-43 68 -74 124t-52 118t-21 120q0 66 32 115.5t86.5 75.5t118.5 26q25 0 98 -10t142 -23.5t84 -23.5q34 -20 34 -55q0 -37 -28.5 -66.5t-65.5 -29.5q-27 0 -69.5 21.5t-78.5 42t-78 36.5t-87 16q-24 0 -48.5 -9.5 t-40.5 -28.5t-16 -44q0 -35 28.5 -85t75.5 -107.5t85 -97t74 -76.5q159 -167 159 -371q0 -96 -31.5 -200.5t-89 -190.5t-142 -140.5t-185.5 -54.5q-109 0 -201 45t-146.5 129t-54.5 193zM313 287q0 -109 65.5 -175.5t174.5 -66.5q80 0 141.5 71t93 170.5t31.5 178.5 q0 148 -129 342q-4 8 -8 12q-109 -23 -194 -106.5t-130 -198t-45 -227.5z" />
<glyph unicode="&#xb2;" horiz-adv-x="1071" d="M164 387q0 145 87 258.5t226.5 175.5t282.5 62h137q16 0 27.5 -11.5t11.5 -27.5q0 -20 -14 -34t-31 -15h-133q-130 0 -227 -66.5t-142 -189.5h424q16 0 26.5 -11.5t10.5 -27.5q0 -21 -13.5 -33.5t-31.5 -15.5h-438q-15 -59 -15 -127q0 -125 73 -198t196 -73q50 0 107 20 t110 46t57 26q18 0 27.5 -16.5t9.5 -34.5q0 -30 -63 -55.5t-143 -42t-110 -16.5q-119 0 -224 49.5t-166.5 141.5t-61.5 216z" />
<glyph unicode="&#xb3;" horiz-adv-x="1169" d="M162 354q0 122 46.5 250.5t129.5 247t185.5 208.5t217.5 148q-18 40 -18 103q0 125 55 125q17 0 28 -11t11 -28t-5 -48.5t-5 -39.5q0 -41 10 -70q63 18 107 18q219 0 219 -69q0 -84 -244 -84q-69 0 -113 41q-119 -61 -230 -181t-179 -264.5t-68 -277.5q0 -118 63 -194.5 t181 -110.5l258 -74q73 -20 120.5 -74.5t47.5 -130.5q0 -61 -30.5 -121t-84 -97.5t-114.5 -37.5t-156.5 29t-95.5 72q11 34 41 34q10 0 16 -4q96 -57 197 -57q37 0 61.5 34t24.5 72q0 83 -109 115l-248 72q-98 27 -170.5 82.5t-110.5 137t-38 185.5z" />
<glyph unicode="&#xb4;" horiz-adv-x="1319" d="M121 586q0 10 2 14q30 121 87.5 212t156.5 91q91 0 165 -49.5t74 -136.5q70 86 160.5 136t194.5 50q82 0 146 -24t103 -78t39 -135q0 -48 -12 -95l-233 -936q-9 -33 -38 -54t-63 -21q-31 0 -52.5 19t-21.5 50q0 15 2 21l232 928q16 61 16 114q0 63 -30 100t-93 37 q-232 0 -393 -317l-114 -457q-7 -33 -36.5 -54t-62.5 -21q-31 0 -53.5 19.5t-22.5 49.5q0 14 2 21l150 596q8 29 8 65q0 41 -17.5 69.5t-54.5 28.5q-64 0 -100 -76t-59 -175q-3 -15 -25 -19h-33q-19 5 -24 27z" />
<glyph unicode="&#xb5;" horiz-adv-x="1208" d="M154 438v2q0 103 22.5 216.5t64 221.5t95.5 197q87 146 211 256.5t262 110.5h2q107 0 176.5 -70t100 -175.5t30.5 -213.5q0 -104 -22 -217t-64 -222t-96 -198q-58 -94 -129 -175t-160.5 -136t-183.5 -55h-2q-110 0 -179 70.5t-98.5 175.5t-29.5 212zM324 319 q0 -96 30 -181t111 -85q99 0 182 107.5t136 243.5t87 264h-491q-16 -62 -28 -122t-19.5 -117.5t-7.5 -109.5zM401 756h492q53 212 53 346q0 101 -30 183.5t-109 82.5q-99 0 -183 -108.5t-139.5 -250t-83.5 -253.5z" />
<glyph unicode="&#xb6;" horiz-adv-x="954" d="M178 158q0 39 17 73q84 214 182 596q7 34 36 55t62 21t54.5 -20t21.5 -49q0 -58 -70.5 -283t-115.5 -342q-19 -39 -19 -86q0 -70 51 -70q118 0 222.5 71.5t132.5 180.5q3 14 22 19h33q27 -10 27 -29q0 -2 -3 -12q-16 -67 -59.5 -123t-105.5 -96.5t-133 -62t-142 -21.5 q-84 0 -148.5 47.5t-64.5 130.5z" />
<glyph unicode="&#xb8;" horiz-adv-x="1507" d="M180 51q0 39 35 72l633 541l-252 550q-61 134 -156 134q-14 0 -23 11t-9 25q1 18 12.5 27.5t30.5 9.5q119 0 198 -20t113 -96l528 -1160q9 -19 18.5 -39.5t19.5 -37.5t24 -31l10 -9q3 -4 5.5 -8t2.5 -12q0 -21 -27 -28h-122q-65 16 -97 75l-237 523l-557 -568 q-33 -35 -74 -35q-31 0 -53.5 22.5t-22.5 53.5z" />
<glyph unicode="&#xb9;" horiz-adv-x="1536" d="M129 -371q0 15 2 21l295 1177q7 34 36 55t62 21t54.5 -20t21.5 -49q0 -8 -0.5 -12t-1.5 -9l-115 -459q-18 -74 -18 -125q0 -55 20.5 -94.5t59.5 -60.5t96 -21q166 0 301 203l137 551q10 34 39 55t62 21q32 0 52.5 -19.5t20.5 -50.5q0 -14 -2 -20l-143 -576q-8 -29 -8 -65 q0 -99 71 -99q66 0 101 75.5t59 176.5q3 14 23 19h32q22 -6 27 -27q0 -4 -0.5 -7t-1.5 -7q-31 -123 -88.5 -213t-155.5 -90q-78 0 -144.5 36.5t-86.5 106.5q-136 -143 -297 -143q-147 0 -236 57l-100 -402q-9 -33 -37 -54t-63 -21q-31 0 -52.5 19t-21.5 50z" />
<glyph unicode="&#xba;" horiz-adv-x="1272" d="M178 35l170 678q8 36 8 53q0 27 -131 27q-28 0 -28 34q4 24 10 37.5t24 16.5l299 22q33 0 33 -35l-192 -770q172 52 322.5 157t258.5 254t150 318q7 34 36 55t62 21t54.5 -20t21.5 -52q0 -50 -45 -144.5t-82 -149.5q-49 -72 -103.5 -130t-127.5 -116q-69 -56 -141.5 -100 t-161 -83.5t-173.5 -65t-174 -42.5h-57q-15 0 -24 10.5t-9 24.5z" />
<glyph unicode="&#xbb;" horiz-adv-x="1169" d="M113 209q0 80 41.5 161t108 146t143.5 109q-134 84 -134 219q0 149 117 250t277 141q-11 31 -11 76q0 125 56 125q17 0 28 -11t11 -28q0 -12 -5.5 -46t-5.5 -42q0 -28 6 -54v-6q49 8 111 8q221 0 221 -69q0 -84 -246 -84q-74 0 -122 49q-64 -26 -119.5 -74.5t-88 -111 t-32.5 -129.5q0 -95 72 -154q96 27 178 27q221 0 221 -70q0 -84 -244 -84q-109 0 -196 29q-94 -47 -172 -137t-78 -179q0 -108 182 -168l426 -139q51 -16 82 -56.5t31 -94.5q0 -88 -67 -159t-154 -71q-68 0 -176.5 28.5t-108.5 72.5q8 34 39 34q12 0 18 -4q108 -57 230 -57 q30 0 51.5 27t21.5 57q0 41 -51 59l-412 133q-105 36 -177 107.5t-72 169.5z" />
<glyph unicode="&#xbc;" horiz-adv-x="1487" d="M117 602q0 2 2 10q71 111 164.5 191t199.5 80h869q26 0 43.5 -18.5t17.5 -45.5q0 -35 -26 -62.5t-60 -27.5h-297q-26 -130 -26 -237q0 -219 94 -377q10 -14 10 -35q0 -39 -33 -69.5t-74 -30.5q-47 0 -75.5 57t-40 132t-11.5 124q0 66 9 137.5t25.5 151t33.5 147.5h-244 l-48 -192q-33 -132 -57 -222t-57.5 -188t-54.5 -117q-33 -30 -71 -30q-31 0 -53.5 20t-22.5 51q0 20 10 43q182 340 266 635h-143q-67 0 -116 -20.5t-78 -45t-58 -56t-39 -34.5h-33q-26 9 -26 29z" />
<glyph unicode="&#xbd;" horiz-adv-x="1309" d="M129 -371q0 15 2 21l201 803q31 119 111.5 222t194.5 165.5t232 62.5q76 0 141 -25.5t113 -73.5t73.5 -112t25.5 -141q0 -107 -46 -209t-127.5 -184.5t-185.5 -130t-209 -47.5q-70 0 -133.5 32t-101.5 88l-117 -465q-9 -33 -37 -54t-63 -21q-31 0 -52.5 19t-21.5 50z M451 223q16 -73 73.5 -121.5t132.5 -48.5q90 0 162.5 58t120.5 147t73 189.5t25 181.5q0 84 -43.5 142t-128.5 58q-97 0 -171.5 -60t-122 -151t-70.5 -188z" />
<glyph unicode="&#xbe;" horiz-adv-x="1466" d="M145 319q0 105 50 207.5t134 182.5t188.5 127t209.5 47h602q27 0 44.5 -18.5t17.5 -45.5q0 -35 -26 -62.5t-60 -27.5h-269q60 -97 60 -209q0 -109 -48 -207t-132 -174t-186.5 -117.5t-211.5 -41.5q-157 0 -265 93t-108 246zM309 266q0 -96 58.5 -154.5t154.5 -58.5 q88 0 163.5 43t129 113.5t82.5 160t29 171.5q0 98 -59.5 143t-159.5 45q-94 0 -168 -36.5t-127 -104t-78 -151.5t-25 -171z" />
<glyph unicode="&#xbf;" horiz-adv-x="1192" d="M117 602q0 5 3.5 11t6.5 12q45 67 99 125t120.5 95.5t136.5 37.5h736q26 0 43.5 -18.5t17.5 -45.5q0 -35 -26 -62.5t-60 -27.5h-426l-127 -666q-10 -39 -37 -63.5t-65 -24.5q-31 0 -53.5 20t-22.5 50q0 7 4 29l205 655h-205q-67 0 -116 -20.5t-78 -45t-58 -56t-39 -34.5 h-33q-26 9 -26 29z" />
<glyph unicode="&#xc0;" horiz-adv-x="1411" d="M121 588q0 2 2 12q20 75 63.5 144.5t107.5 114t138 44.5q54 0 103.5 -20.5t79.5 -61t30 -96.5q0 -42 -14 -74q-21 -53 -52.5 -131.5t-50 -145.5t-18.5 -124q0 -104 65.5 -150.5t174.5 -46.5q100 0 202.5 85.5t170 207t67.5 217.5q0 58 -18 84.5t-58.5 67.5t-40.5 71 q0 31 16.5 58t45 44t57.5 17q59 0 87 -52.5t28 -117.5q0 -152 -73.5 -330.5t-203 -301.5t-285.5 -123q-104 0 -197 26t-151.5 91t-58.5 173q0 43 11 89.5t27 93t43 115.5t42 106q18 47 18 86q0 69 -51 69q-82 0 -142.5 -79.5t-82.5 -171.5q-3 -15 -25 -19h-33q-24 7 -24 29z " />
<glyph unicode="&#xc1;" horiz-adv-x="1520" d="M166 360q0 115 66.5 217.5t173 177t228.5 115.5t232 41l125 494q2 11 23 16h33q26 -7 26 -30l-121 -482q112 0 220.5 -48t177.5 -137t69 -202q0 -152 -111.5 -279t-276 -199.5t-314.5 -72.5l-92 -372q-2 -12 -23 -17h-33q-26 7 -26 31l90 360q-112 0 -220.5 48 t-177.5 137t-69 202zM334 330q0 -129 92.5 -206t224.5 -77l197 789q-55 0 -125 -22t-135 -60t-105 -80q-69 -69 -109 -160t-40 -184zM737 47q86 0 193 48.5t172 113.5q69 69 109 160t40 184q0 84 -43.5 149t-116.5 99.5t-157 34.5z" />
<glyph unicode="&#xc2;" horiz-adv-x="1571" d="M129 -358q0 16 14 30l555 541q-243 616 -356 616q-41 0 -74 -26t-45 -66q-3 -13 -22 -18h-33q-27 8 -27 29q0 61 71.5 108t137.5 47q69 0 124 -12t101 -43.5t78 -83.5q33 -53 68 -124t60 -131.5t61 -154.5l526 514q17 15 35 15q16 0 27.5 -11.5t11.5 -27.5q0 -19 -12 -31 l-556 -541q56 -144 107 -262.5t123 -236t127 -117.5q41 0 74.5 27.5t42.5 64.5q2 12 22 19h33q27 -10 27 -29q0 -40 -34 -76.5t-84.5 -58t-90.5 -21.5q-104 0 -179 30t-124 109q-50 84 -89.5 172.5t-99.5 237.5l-526 -514q-17 -14 -33 -14q-18 0 -29.5 11.5t-11.5 27.5z" />
<glyph unicode="&#xc3;" horiz-adv-x="1677" d="M121 588q0 2 2 12q20 75 63.5 144.5t107.5 114t138 44.5q54 0 103.5 -20.5t79.5 -61t30 -96.5q0 -42 -14 -74q-45 -110 -62.5 -154t-36 -107.5t-18.5 -108.5q0 -106 76 -158t192 -66l336 1348q8 13 23 16h33q26 -7 26 -30l-334 -1338h15q93 0 180 36t170 101 q85 70 155 174.5t70 198.5q0 58 -18 84.5t-58.5 67.5t-40.5 71q0 31 17 58t46 44t56 17q59 0 87 -53t28 -119q0 -52 -9.5 -99.5t-33.5 -141.5q-37 -153 -174 -293q-96 -96 -222 -157.5t-253 -61.5h-33l-96 -381q-9 -15 -23 -17h-33q-26 7 -26 31l92 371q-97 0 -195 34 t-162.5 104t-64.5 169q0 36 10.5 79.5t24 82.5t40.5 106.5t45.5 114.5t18.5 86q0 69 -51 69q-82 0 -142.5 -79.5t-82.5 -171.5q-7 -13 -25 -19h-33q-24 7 -24 29z" />
<glyph unicode="&#xc4;" horiz-adv-x="776" d="M627 1122q0 2 2 11q20 82 124.5 133.5t231 73.5t225.5 22q64 0 141.5 -9.5t156 -33t131.5 -66.5t53 -104q0 -48 -31 -55h-33q-24 8 -24 30q2 6 2 19q0 64 -148 94.5t-258 30.5q-78 0 -185.5 -14.5t-199.5 -50t-106 -93.5q-2 -11 -25 -16h-33q-24 7 -24 28z" />
<glyph unicode="&#x2000;" horiz-adv-x="768" />
<glyph unicode="&#x2001;" horiz-adv-x="1536" />
<glyph unicode="&#x2002;" horiz-adv-x="768" />
<glyph unicode="&#x2003;" horiz-adv-x="1536" />
<glyph unicode="&#x2004;" horiz-adv-x="512" />
<glyph unicode="&#x2005;" horiz-adv-x="384" />
<glyph unicode="&#x2006;" horiz-adv-x="256" />
<glyph unicode="&#x2007;" horiz-adv-x="256" />
<glyph unicode="&#x2008;" horiz-adv-x="192" />
<glyph unicode="&#x2009;" horiz-adv-x="307" />
<glyph unicode="&#x200a;" horiz-adv-x="85" />
<glyph unicode="&#x2010;" horiz-adv-x="776" d="M190 512q0 21 14.5 35.5t35.5 17.5q90 0 164.5 48t74.5 135q0 56 -35.5 97.5t-91.5 62t-112 20.5q-21 3 -35.5 17.5t-14.5 35.5q0 24 17 38.5t41 14.5q83 0 161.5 -35t127.5 -101t49 -150q0 -86 -48.5 -152t-127.5 -101.5t-162 -35.5q-24 0 -41 14.5t-17 38.5z" />
<glyph unicode="&#x2011;" horiz-adv-x="776" d="M190 512q0 21 14.5 35.5t35.5 17.5q90 0 164.5 48t74.5 135q0 56 -35.5 97.5t-91.5 62t-112 20.5q-21 3 -35.5 17.5t-14.5 35.5q0 24 17 38.5t41 14.5q83 0 161.5 -35t127.5 -101t49 -150q0 -86 -48.5 -152t-127.5 -101.5t-162 -35.5q-24 0 -41 14.5t-17 38.5z" />
<glyph unicode="&#x2012;" horiz-adv-x="776" d="M190 512q0 21 14.5 35.5t35.5 17.5q90 0 164.5 48t74.5 135q0 56 -35.5 97.5t-91.5 62t-112 20.5q-21 3 -35.5 17.5t-14.5 35.5q0 24 17 38.5t41 14.5q83 0 161.5 -35t127.5 -101t49 -150q0 -86 -48.5 -152t-127.5 -101.5t-162 -35.5q-24 0 -41 14.5t-17 38.5z" />
<glyph unicode="&#x2013;" horiz-adv-x="1404" d="M190 512q0 21 37.5 35.5t91.5 17.5q233 0 425.5 48t192.5 135q0 56 -91.5 97.5t-236.5 62t-290 20.5q-54 3 -91.5 17.5t-37.5 35.5q0 24 44 38.5t106 14.5q215 0 418 -35t329.5 -101t126.5 -150q0 -86 -125.5 -152t-329.5 -101.5t-419 -35.5q-62 0 -106 14.5t-44 38.5z " />
<glyph unicode="&#x2014;" horiz-adv-x="2428" d="M190 512q0 21 75 35.5t184 17.5q465 0 850.5 48t385.5 135q0 56 -184 97.5t-473.5 62t-578.5 20.5q-109 3 -184 17.5t-75 35.5q0 24 88 38.5t212 14.5q429 0 835 -35t659.5 -101t253.5 -150q0 -86 -251 -152t-659.5 -101.5t-837.5 -35.5q-124 0 -212 14.5t-88 38.5z" />
<glyph unicode="&#x202f;" horiz-adv-x="307" />
<glyph unicode="&#x205f;" horiz-adv-x="384" />
<glyph unicode="&#x2219;" horiz-adv-x="1485" d="M184 49q0 14 2 21l191 757q7 34 36 55t62 21t54.5 -20t21.5 -49q0 -8 -0.5 -12t-1.5 -9l-68 -266q89 28 246 135.5t241.5 154t194.5 46.5q36 0 61 -23t25 -59q0 -34 -17 -61t-45 -43.5t-61 -16.5q-36 0 -61 24t-25 60q0 4 4 24q-58 -21 -108 -50t-123 -79.5t-115 -79 t-84 -51.5q158 0 292 -48.5t134 -176.5q0 -32 -8 -59q-10 -45 -10 -82q0 -44 18 -76.5t56 -32.5q72 0 116.5 77.5t69.5 174.5q3 15 23 19h32q27 -9 27 -29q0 -2 -2 -12q-30 -117 -98.5 -210t-171.5 -93q-62 0 -118.5 26t-89 75.5t-32.5 113.5q0 26 6 55q8 36 8 51 q0 69 -72 104.5t-157 43.5t-178 8l-101 -402q-7 -33 -35.5 -54t-62.5 -21q-31 0 -53.5 19.5t-22.5 49.5z" />
<glyph unicode="&#xe000;" horiz-adv-x="905" d="M0 905h905v-905h-905v905z" />
</font>
</defs>
</svg>
