<?xml version="1.0" standalone="no"?>
<!DOCTYPE svg PUBLIC "-//W3C//DTD SVG 1.1//EN" "http://www.w3.org/Graphics/SVG/1.1/DTD/svg11.dtd" >
<svg xmlns="http://www.w3.org/2000/svg">
<metadata>
This is a custom SVG webfont generated by Font Squirrel.
Copyright   : Copyright C 1994 Basil K Malyshev All Rights Reserved012BaKoMa Fonts Collection LevelB
</metadata>
<defs>
<font id="cmmi10Regular" horiz-adv-x="1024" >
<font-face units-per-em="2048" ascent="1638" descent="-410" />
<missing-glyph horiz-adv-x="500" />
<glyph unicode=" "  horiz-adv-x="500" />
<glyph unicode="&#x09;" horiz-adv-x="500" />
<glyph unicode="&#xa0;" horiz-adv-x="500" />
<glyph unicode="!" horiz-adv-x="1274" d="M29 270q0 81 14.5 158.5t44 157t67.5 149t85 135.5q9 13 24 13q13 0 21 -8t8 -19t-6 -20q-187 -257 -187 -474q0 -94 43.5 -161.5t132.5 -67.5q77 0 142.5 45t113.5 115q0 36 12.5 112t39 135.5t63.5 59.5q47 0 47 -55q0 -32 -13.5 -80.5t-30 -90.5t-40.5 -95 q24 -146 146 -146q71 0 142.5 41t126.5 107.5t86.5 143.5t31.5 146q0 62 -19.5 96.5t-51.5 72.5t-32 61q0 40 34 73t73 33q50 0 71 -45.5t21 -103.5q0 -94 -37.5 -237t-85.5 -238q-66 -129 -165.5 -217.5t-223.5 -88.5q-79 0 -127.5 47.5t-62.5 129.5q-57 -81 -130 -129 t-159 -48q-116 0 -167.5 85t-51.5 208z" />
<glyph unicode="&#x22;" horiz-adv-x="954" d="M55 213q0 56 24.5 109t64 95t92.5 75q-78 54 -78 139q0 91 76 159.5t186 103t198 34.5q37 0 99.5 -16.5t109.5 -43.5t47 -59q0 -24 -18.5 -42.5t-40.5 -18.5q-9 0 -45.5 21.5t-77.5 38.5t-90 17q-74 0 -162.5 -17.5t-155.5 -61t-67 -113.5q0 -67 76 -113q86 39 176 39 q160 0 160 -57q0 -45 -54.5 -57.5t-125.5 -12.5q-96 0 -158 29q-68 -36 -121 -101t-53 -135q0 -66 44.5 -103t109.5 -51t130 -14q113 0 200 24.5t126 102.5q6 13 23 13q22 -7 22 -27q0 -2 -6 -20q-33 -65 -93.5 -109t-135 -65t-152.5 -21q-127 0 -228.5 68t-101.5 190z M371 492q36 -7 82 -7q90 0 112 13q-28 8 -98 8q-51 0 -96 -14z" />
<glyph unicode="#" horiz-adv-x="1210" d="M55 590q22 89 42.5 151t64 113t108.5 51q84 0 139.5 -53t55.5 -135q0 -29 -6 -58l-78 -309q-24 -92 -27 -162q0 -157 152 -157q92 0 170.5 126.5t128 276t84.5 289.5q-336 111 -336 344q0 83 40.5 171t111.5 147t155 59q70 0 116.5 -41t71.5 -104t34.5 -130t9.5 -135 q0 -127 -39 -301q19 -4 41 -8t39.5 -11t17.5 -20q-5 -32 -25 -32q-14 3 -36 7.5t-52 10.5q-35 -136 -112 -298.5t-187.5 -283.5t-234.5 -121q-130 0 -209.5 54.5t-79.5 179.5q0 67 21 143l77 310q15 57 15 100q0 88 -60 88q-64 0 -95 -76.5t-60 -193.5q0 -6 -6 -9.5 t-11 -3.5h-24q-7 0 -12 7.5t-5 13.5zM612 1071q0 -191 289 -297q60 235 60 379q0 238 -105 238q-68 0 -123.5 -52t-88 -127.5t-32.5 -140.5z" />
<glyph unicode="$" horiz-adv-x="1696" d="M49 602q0 4 4 12q67 114 143.5 191.5t172.5 77.5h1255q21 0 36 -14t15 -38q0 -30 -21.5 -52.5t-51.5 -22.5h-76q20 -78 20 -144q0 -90 -37.5 -202t-103.5 -211t-154 -160.5t-186 -61.5q-116 0 -165.5 81t-49.5 202v45q-76 -141 -188 -234.5t-250 -93.5q-95 0 -138 70 t-43 170q0 280 207 539h-86q-75 0 -140 -47t-108 -119q-4 -8 -12 -8h-24q-19 0 -19 20zM301 285q0 -74 32 -127.5t101 -53.5q114 0 209 73t160 184.5t94 224.5q4 16 18 16h25q7 0 11.5 -5t4.5 -13v-6q-34 -139 -34 -242q0 -232 163 -232q83 0 158 49t130 128t84.5 165 t29.5 166q0 75 -23 144h-954q-96 -115 -152.5 -232t-56.5 -239z" />
<glyph unicode="%" horiz-adv-x="1059" d="M150 -156q0 64 11 141t31 169.5t37.5 162t32.5 132.5q22 80 66 160t106.5 146.5t142 108t164.5 41.5q90 0 157 -46.5t100.5 -122t33.5 -165.5q0 -99 -40.5 -205t-112 -194t-164.5 -141.5t-195 -53.5q-93 0 -162.5 58.5t-97.5 150.5q-43 -215 -43 -288q0 -85 64 -107 t178 -22q215 0 280 -21q47 -23 47 -80q0 -59 -24 -65h-25q-6 0 -11 7t-5 13v10q-4 19 -80 19q-45 0 -116.5 -5t-88.5 -5q-134 0 -210 40t-76 162zM375 236q0 -52 15.5 -98.5t48.5 -76.5t85 -30q84 0 151 68t111.5 169.5t68.5 208t24 182.5q0 78 -34 135.5t-106 57.5 q-110 0 -192.5 -107.5t-127 -255.5t-44.5 -253z" />
<glyph unicode="&#x26;" horiz-adv-x="741" d="M66 436q0 131 84 238.5t213.5 169t257.5 61.5q65 0 139 -15.5t74 -51.5q0 -16 -11.5 -28.5t-27.5 -12.5q-4 0 -45 17.5t-72 27.5t-62 10q-97 0 -199 -45t-169.5 -125t-67.5 -180q0 -61 31.5 -110t87.5 -79l283 -157q41 -22 65.5 -64t24.5 -88q0 -56 -28.5 -107.5 t-77.5 -84.5t-105 -33q-32 0 -81.5 13.5t-49.5 37.5q8 27 28 27q8 0 45.5 -12.5t61.5 -12.5q37 0 60.5 33t23.5 72q0 58 -62 92l-266 147q-71 39 -113 109t-42 151z" />
<glyph unicode="'" horiz-adv-x="1339" d="M102 389q0 75 28 169t72 178.5t95 140.5q12 6 14 6h25q6 0 11 -6t5 -13q0 -8 -4 -12q-34 -37 -66.5 -90.5t-58 -112.5t-42.5 -124t-17 -113q0 -121 96.5 -195.5t228.5 -99.5l58 184q38 119 75.5 212.5t94 183t136.5 149t179 59.5q78 0 130.5 -39t78 -104t25.5 -139 q0 -122 -54 -238.5t-148 -209t-212 -145.5t-238 -53q-16 1 -34.5 2t-30.5 1l-68 -357q-6 -30 -30.5 -49.5t-55.5 -19.5q-25 0 -43 15.5t-18 41.5q0 8 4 24l115 361q-153 38 -252 141t-99 252zM571 106q23 -2 66 -2q127 0 258.5 62.5t218 171.5t86.5 237q0 58 -23.5 104 t-66 72.5t-98.5 26.5q-159 0 -266 -154t-140 -331z" />
<glyph unicode="(" horiz-adv-x="2048" d="M115 489v27q0 8 12 16q97 55 179 132t145 172t102 196q7 15 18 15h41q21 0 21 -27q-95 -281 -328 -467h1587q17 0 28 -13t11 -28t-11 -28t-28 -13h-1757q-5 0 -12.5 6.5t-7.5 11.5z" />
<glyph unicode=")" horiz-adv-x="2048" d="M115 508v27q0 7 6.5 12.5t13.5 5.5h1757q17 0 28 -13t11 -28t-11 -28t-28 -13h-1587q233 -186 328 -467q0 -27 -21 -27h-41q-10 0 -20 19q-60 157 -170 287t-254 211q-12 4 -12 14z" />
<glyph unicode="*" horiz-adv-x="2048" d="M115 512q0 15 11 28t28 13h1587q-233 186 -328 467q0 27 21 27h41q10 0 20 -19q61 -158 169.5 -285.5t256.5 -210.5q10 -10 10 -16v-27q0 -5 -7.5 -11.5t-12.5 -6.5h-1757q-17 0 -28 13t-11 28z" />
<glyph unicode="+" horiz-adv-x="2048" d="M115 512q0 15 11 28t28 13h1757q7 0 13.5 -5.5t6.5 -12.5v-27q0 -9 -10 -14q-99 -57 -181 -134t-145 -172t-102 -196q-7 -15 -18 -15h-41q-21 0 -21 27q95 281 328 467h-1587q-17 0 -28 13t-11 28z" />
<glyph unicode="," horiz-adv-x="567" d="M115 711q0 72 43.5 127t110.5 83.5t141 28.5q17 0 30 -11t13 -30q0 -15 -11 -28t-26 -13q-52 0 -102 -17.5t-83.5 -53.5t-33.5 -86q0 -75 69 -116.5t150 -41.5q15 0 26 -13t11 -28q0 -19 -13 -30t-30 -11q-112 0 -203.5 65.5t-91.5 174.5z" />
<glyph unicode="-" horiz-adv-x="567" d="M115 512q0 15 11 28t28 13q79 0 148 41.5t69 116.5q0 50 -33.5 86t-83 53.5t-100.5 17.5q-17 0 -28 13t-11 28q0 19 13 30t32 11q112 0 202.5 -65.5t90.5 -173.5q0 -74 -43 -128t-110.5 -83t-139.5 -29q-19 0 -32 11t-13 30z" />
<glyph unicode="." d="M55 31v964q0 16 13 26.5t28 10.5q11 0 23 -6l829 -479q19 -11 19 -35t-19 -35l-829 -479q-12 -6 -23 -6q-15 0 -28 11t-13 28zM137 104l707 408l-707 408v-816z" />
<glyph unicode="/" d="M55 512q0 25 21 35l829 479q9 6 21 6q15 0 28 -10.5t13 -26.5v-964q0 -17 -13 -28t-28 -11q-12 0 -21 6l-829 479q-21 10 -21 35zM178 512l707 -408v816z" />
<glyph unicode="0" d="M80 436q0 109 24.5 199.5t76 156t135 101t196.5 35.5t197 -36t134.5 -101t74.5 -153.5t24 -201.5q0 -146 -44.5 -254t-140 -167.5t-245.5 -59.5t-246.5 59.5t-141 167.5t-44.5 254zM254 459q0 -139 12.5 -229t69.5 -156t176 -66q118 0 174.5 65.5t69 156t12.5 229.5 q0 134 -12.5 217t-68.5 140.5t-175 57.5q-120 0 -176.5 -58t-69 -140.5t-12.5 -216.5z" />
<glyph unicode="1" d="M184 786v35q0 12 21 19q114 0 202.5 18.5t159.5 67.5q4 2 13 2q24 0 24 -19v-768q0 -45 27 -55q57 -14 209 -14q6 0 13 -6t7 -13v-35q0 -7 -7.5 -12.5t-14.5 -5.5h-619q-6 0 -14 6.5t-8 11.5v35q0 7 7 13t13 6q154 0 209 14q27 11 27 55v654q-92 -27 -244 -27 q-6 0 -15.5 5t-9.5 13z" />
<glyph unicode="2" d="M90 18v37q0 9 8 13l353 241q54 36 101 69.5t87.5 70t67 84.5t26.5 102q0 57 -26 99.5t-67 68.5t-95.5 39.5t-106.5 13.5q-68 0 -130.5 -25.5t-98.5 -78.5q30 -4 50 -27.5t20 -54.5q0 -33 -23.5 -57.5t-58.5 -24.5t-58.5 24.5t-23.5 57.5q0 89 57 147t142.5 84.5 t168.5 26.5q105 0 204 -27.5t166 -93t67 -172.5q0 -69 -34 -119.5t-86 -86t-124 -71.5l-78 -36q-69 -38 -78 -43l-217 -132h176q295 0 340 5q10 12 29 69t33 60h18q21 0 21 -27l-58 -236q-4 -18 -20 -18h-731q-6 0 -13.5 6.5t-7.5 11.5z" />
<glyph unicode="3" d="M86 -125q0 49 33 80t80 31q46 0 78 -31t32 -80q0 -48 -32.5 -80.5t-77.5 -32.5q-3 1 -5.5 1.5t-3.5 0.5q46 -70 131.5 -105.5t180.5 -35.5q119 0 173 96.5t54 225.5q0 80 -22.5 153t-74.5 120.5t-132 47.5h-140q-18 0 -18 19v18q0 16 18 16l117 9q104 0 159.5 105 t55.5 218q0 97 -48.5 157t-141.5 60q-81 0 -153.5 -28t-115.5 -86q4 1 6.5 1.5t6.5 0.5q29 0 52 -14t36.5 -38t13.5 -53t-13.5 -52.5t-37 -36.5t-51.5 -13q-44 0 -74.5 28.5t-30.5 73.5q0 87 54.5 150.5t137.5 95t169 31.5q65 0 131 -18t122.5 -52.5t91 -86t34.5 -118.5 q0 -125 -81.5 -221t-205.5 -135q65 -11 127.5 -41.5t110.5 -76.5t76 -105t28 -129q0 -112 -62 -200.5t-162.5 -137.5t-209.5 -49q-100 0 -195.5 35.5t-158 108t-62.5 173.5z" />
<glyph unicode="4" d="M57 18v45q0 9 6 15l619 862q10 10 23 10h32q10 0 16.5 -6t6.5 -16v-856h184q6 0 13.5 -6t7.5 -13v-35q0 -6 -8 -12t-13 -6h-184v-256q0 -31 10 -49q18 -21 168 -21q7 0 13.5 -5.5t6.5 -12.5v-35q0 -6 -7 -12t-15 -6h-510q-7 0 -15 6.5t-8 11.5v35q0 7 7 12.5t14 5.5 q149 0 168 21q10 12 10 49v256h-524q-4 0 -12.5 6.5t-8.5 11.5zM127 72h487v678z" />
<glyph unicode="5" d="M102 -74q0 43 29 72t72 29q27 0 50.5 -13t36.5 -36.5t13 -51.5q0 -27 -13 -50.5t-36.5 -36.5t-50.5 -13q-17 0 -25 2q33 -92 115 -148.5t178 -56.5q78 0 131 33t83.5 87.5t43 120t12.5 140.5q0 91 -14.5 174.5t-60 145t-131.5 61.5q-91 0 -149.5 -32.5t-97.5 -78.5 t-42 -47h-23q-5 0 -12.5 6.5t-7.5 12.5v665q0 6 6.5 11.5t13.5 5.5h6q145 -64 293 -64q149 0 293 64h6q7 0 13 -5t6 -12v-18q0 -10 -4 -10q-71 -88 -175 -137.5t-215 -49.5q-81 0 -172 25v-385q102 102 261 102q113 0 200.5 -62.5t136 -164.5t48.5 -209q0 -121 -60 -222.5 t-163.5 -161.5t-223.5 -60q-98 0 -184.5 50t-136.5 136t-50 182z" />
<glyph unicode="6" d="M86 662q0 162 63 325t185.5 270t290.5 107q73 0 132 -26t93.5 -77t34.5 -124q0 -41 -27 -68t-67 -27q-41 0 -69 27t-28 68t28.5 68.5t68.5 27.5q3 0 5 -0.5t3 -1.5q-25 37 -73.5 55.5t-100.5 18.5q-62 0 -116 -27t-98 -74t-71 -100q-42 -84 -56 -188.5t-14 -231.5 q38 87 105 141t155 54q91 0 166 -37t129 -102.5t82.5 -149.5t28.5 -170q0 -120 -53.5 -228.5t-150.5 -172.5t-220 -64q-127 0 -212 67.5t-131.5 175t-64.5 225.5t-18 239zM274 412q0 -88 20 -177.5t73.5 -152t144.5 -62.5q104 0 157.5 59.5t68 142.5t14.5 198 q0 110 -12.5 195t-64 147.5t-153.5 62.5q-85 0 -140.5 -55t-81.5 -138t-26 -167q0 -29 2 -43q0 -3 -0.5 -5t-1.5 -5z" />
<glyph unicode="7" d="M115 553l69 377q2 7 7.5 12.5t13.5 5.5h18q10 0 15.5 -6.5t5.5 -15.5v-6q4 -24 121 -30.5t223 -6.5h385q6 0 13 -6t7 -13v-35q0 -2 -1 -3l-1 -3l-282 -381q-75 -105 -109 -234t-41.5 -253t-7.5 -303q0 -40 -27 -67t-67 -27q-41 0 -69 27t-28 67q0 217 75.5 424.5 t211.5 394.5l189 254h-254q-312 0 -361 -8q-25 -45 -47 -172q-5 -19 -20 -19h-19q-20 0 -20 27z" />
<glyph unicode="8" d="M86 311q0 127 83 221.5t214 157.5l-86 53q-70 47 -113 121t-43 158q0 97 52 176t137.5 122.5t181.5 43.5q91 0 176 -37t139 -105.5t54 -162.5q0 -193 -248 -320l125 -80q82 -53 130 -137t48 -178q0 -109 -59.5 -199t-158 -140t-206.5 -50q-106 0 -204.5 43t-160 124.5 t-61.5 188.5zM195 311q0 -124 95.5 -207.5t221.5 -83.5q77 0 150 31.5t119 90.5t46 137q0 61 -34.5 114.5t-87.5 87.5l-269 172q-69 -33 -123 -84.5t-86 -118t-32 -139.5zM238 1094q0 -97 100 -164l242 -156q88 48 146 120.5t58 162.5q0 71 -39 128t-102 88.5t-133 31.5 q-101 0 -186.5 -57.5t-85.5 -153.5z" />
<glyph unicode="9" d="M86 477q0 124 57 227t156 163.5t223 60.5t206.5 -64.5t127.5 -168t62.5 -220t17.5 -231.5q0 -154 -59 -314t-175 -266t-276 -106q-120 0 -204.5 54.5t-84.5 168.5q0 40 28 67t68 27q41 0 68 -27t27 -67t-28 -68t-69 -28q57 -62 195 -62q85 0 152 53t108 136 q43 89 54.5 183t11.5 226q-36 -83 -105 -136.5t-158 -53.5q-117 0 -209.5 62t-143 165t-50.5 219zM270 477q0 -75 6 -140t28 -123.5t70 -94t126 -35.5q83 0 139.5 54t82.5 134.5t26 163.5q0 27 -3 39q1 3 2 5t1 3q0 88 -18.5 175t-68.5 148.5t-139 61.5q-83 0 -133.5 -33.5 t-77 -90.5t-34 -120t-7.5 -147z" />
<glyph unicode=":" horiz-adv-x="567" d="M172 113q0 46 34 79t79 33q28 0 55 -15t42 -42t15 -55q0 -45 -33 -79t-79 -34q-45 0 -79 34t-34 79z" />
<glyph unicode=";" horiz-adv-x="567" d="M172 113q0 48 33 80t80 32q73 0 104 -67.5t31 -149.5q0 -114 -45.5 -216.5t-128.5 -184.5q-8 -4 -13 -4q-10 0 -20 9t-10 19q0 9 8 17q74 71 115 164t41 196v25q-33 -33 -82 -33q-47 0 -80 33t-33 80z" />
<glyph unicode="&#x3c;" horiz-adv-x="1591" d="M170 512q0 26 27 39l1169 551q8 4 14 4q18 0 29.5 -12.5t11.5 -28.5q0 -25 -24 -39l-1090 -514l1096 -518q18 -6 18 -35q0 -16 -11.5 -28.5t-29.5 -12.5q-6 0 -14 4l-1176 555q-20 9 -20 35z" />
<glyph unicode="=" d="M115 -471q0 6 2 8l712 1974q4 12 14 18.5t23 6.5q18 0 29.5 -11t11.5 -30v-8l-712 -1974q-12 -25 -39 -25q-17 0 -29 12t-12 29z" />
<glyph unicode="&#x3e;" horiz-adv-x="1591" d="M170 -41q0 26 27 39l1087 514l-1094 518q-20 6 -20 35q0 14 11.5 27.5t29.5 13.5q4 0 16 -4l1176 -555q18 -9 18 -35q0 -27 -24 -37l-1170 -553q-12 -4 -16 -4q-18 0 -29.5 13.5t-11.5 27.5z" />
<glyph unicode="?" d="M6 623q0 10 7 16t18 6l407 -78l51 410q4 9 10 13.5t13 4.5t14 -5.5t9 -12.5l51 -410l407 78q11 0 18 -6t7 -16q0 -15 -12 -21l-373 -176l196 -360q5 -7 5 -11q0 -22 -23 -22q-12 0 -14 4l-285 303l-281 -299q-5 -8 -18 -8q-23 0 -23 22q0 4 3 8l198 363l-368 174 q-17 6 -17 23z" />
<glyph unicode="@" horiz-adv-x="1085" d="M82 319q0 114 48 226.5t131.5 201.5t192.5 142t226 53q106 0 176 -64t88 -169q24 88 39.5 172t15.5 168q0 94 -30.5 176t-95 132t-160.5 50q-88 0 -163.5 -40t-121.5 -116q4 1 7 1.5t7 0.5q35 0 57.5 -21t22.5 -54q0 -46 -34.5 -80.5t-81.5 -34.5q-34 0 -57 20.5 t-23 53.5t17 74.5t42 80t51 64.5q37 37 82 61.5t96 36.5t103 12q109 0 192 -44t138.5 -118t83.5 -168.5t28 -197.5q0 -143 -49 -316t-138.5 -323t-220 -247t-288.5 -97q-106 0 -192.5 45.5t-137.5 130t-51 188.5zM248 242q0 -105 58.5 -163.5t162.5 -58.5q108 0 187.5 63.5 t129 156.5t86.5 206v5q0 4 2 6q29 84 29 172q0 72 -24 131t-73.5 94t-119.5 35q-72 0 -136 -30t-114.5 -82t-81.5 -115q-35 -71 -70.5 -209.5t-35.5 -210.5z" />
<glyph unicode="A" horiz-adv-x="1536" d="M72 27q8 45 26 45q83 0 143.5 33t104.5 102l4 4l731 1233q16 22 39 22h27q6 0 12 -2.5t10.5 -8t4.5 -11.5l124 -1323q0 -9 9 -27q20 -22 153 -22q21 0 21 -27q-7 -27 -11.5 -36t-23.5 -9h-512q-19 0 -19 27q11 45 27 45q162 0 172 55l-31 338h-505l-164 -275 q-15 -22 -15 -51q0 -36 34.5 -51.5t76.5 -15.5q20 0 20 -27q-7 -29 -11 -37t-23 -8h-404q-20 0 -20 27zM618 537h457l-61 663z" />
<glyph unicode="B" horiz-adv-x="1552" d="M82 27q1 5 4 17t8 20t15 8q58 0 101 3t73 11q24 9 39 55l280 1125q4 20 4 28q0 22 -24 25q-39 8 -148 8q-20 0 -20 27q1 5 4 17.5t8.5 20t13.5 7.5h734q67 0 132.5 -16.5t121 -52.5t88 -89.5t32.5 -124.5q0 -77 -39.5 -143t-102 -115t-135 -80.5t-151.5 -46.5 q56 0 113.5 -22t102.5 -60t72.5 -91t27.5 -114q0 -123 -86 -225t-216.5 -160.5t-252.5 -58.5h-779q-20 0 -20 27zM479 88q0 -16 70 -16h293q100 0 192 55.5t147.5 147.5t55.5 192q0 61 -25.5 115.5t-73.5 86t-110 31.5h-399l-142 -567q-8 -28 -8 -45zM643 754h311 q98 0 190.5 50t151 136t58.5 182q0 89 -55.5 147t-143.5 58h-281q-55 0 -74 -10t-32 -60z" />
<glyph unicode="C" horiz-adv-x="1462" d="M104 516q0 172 77 340.5t207 300t296.5 209.5t337.5 78q68 0 130 -20.5t115 -62.5t87 -97l162 176q0 4 10 4h12q8 0 13 -7t5 -14l-139 -553q0 -14 -16 -14h-37q-16 0 -16 23q8 45 8 108q0 100 -34 188.5t-105.5 142.5t-174.5 54q-167 0 -306 -84t-235.5 -220.5t-149 -303 t-52.5 -322.5q0 -123 47.5 -216.5t138 -146t213.5 -52.5q129 0 248.5 66t204 176.5t115.5 234.5q4 12 16 12h25q8 0 13 -5.5t5 -12.5q0 -2 -2 -6q-35 -142 -135.5 -266.5t-240.5 -197.5t-288 -73q-160 0 -287 72t-197.5 200t-70.5 289z" />
<glyph unicode="D" horiz-adv-x="1694" d="M80 27q1 5 4 17.5t8.5 20t13.5 7.5q125 0 175 14q26 9 38 55l281 1125q4 20 4 28q0 22 -24 25q-39 8 -148 8q-20 0 -20 27q1 5 4 17.5t8.5 20t13.5 7.5h736q143 0 250 -69.5t164 -187t57 -259.5q0 -157 -65 -314t-182 -287t-267 -206t-308 -76h-723q-20 0 -20 27zM483 88 q0 -16 70 -16h238q114 0 220 47t189 129q77 77 136 202t91.5 261t32.5 250q0 83 -24.5 150t-69 115t-111.5 74.5t-151 26.5h-225q-56 0 -74 -9.5t-33 -60.5l-280 -1124q-9 -25 -9 -45z" />
<glyph unicode="E" horiz-adv-x="1511" d="M76 27q1 5 4 17.5t8.5 20t13.5 7.5q125 0 174 14q27 9 39 55l281 1125q4 20 4 28q0 22 -25 25q-38 8 -147 8q-20 0 -20 27q1 5 4 17.5t8.5 20t13.5 7.5h1110q21 0 21 -27l-49 -424q0 -5 -7.5 -11.5t-13.5 -6.5h-18q-21 0 -21 26q12 100 12 148q0 82 -28 127.5t-74.5 65.5 t-103 25t-148.5 5h-233q-56 0 -74 -9.5t-33 -60.5l-123 -495h160q104 0 157 14.5t84 60.5t56 146q2 7 7.5 12.5t12.5 5.5h19q20 0 20 -26l-127 -506q-4 -18 -20 -18h-19q-20 0 -20 26q20 82 20 121q0 60 -54 76t-144 16h-170l-139 -557q-9 -25 -9 -45q0 -16 70 -16h248 q148 0 240 23t152.5 73.5t104.5 128.5t107 227q4 13 18 13h19q8 0 14 -7t6 -16q0 -4 -2 -8l-211 -494q-4 -12 -16 -12h-1139q-20 0 -20 27z" />
<glyph unicode="F" horiz-adv-x="1317" d="M76 27q1 5 4 17.5t8.5 20t13.5 7.5q125 0 174 14q27 9 39 55l281 1125q4 20 4 28q0 22 -25 25q-38 8 -147 8q-20 0 -20 27q1 5 4 17.5t8.5 20t13.5 7.5h1082q20 0 20 -27l-49 -424q0 -6 -7 -12t-14 -6h-18q-21 0 -21 26q13 93 13 152q0 102 -44 150t-111 58.5t-185 10.5 h-219q-56 0 -74 -9.5t-33 -60.5l-131 -522h154q76 0 123 8t78 31t51.5 66.5t37.5 115.5q6 19 21 19h18q21 0 21 -27l-125 -506q-9 -18 -21 -18h-18q-20 0 -20 27q5 21 8 35t7.5 40.5t4.5 46.5q0 59 -52 75t-136 16h-168l-133 -531l-5 -20q0 -24 15 -27q53 -14 209 -14 q20 0 20 -27q-7 -29 -11 -37t-24 -8h-602q-20 0 -20 27z" />
<glyph unicode="G" horiz-adv-x="1610" d="M104 516q0 172 76.5 339.5t207.5 300t297.5 210.5t336.5 78q68 0 130.5 -21t116 -62.5t87.5 -96.5l162 176q0 4 10 4h12q8 0 13.5 -6.5t5.5 -14.5l-140 -553q0 -14 -16 -14h-37q-16 0 -16 23q8 45 8 106q0 101 -34 190t-106 143t-176 54q-165 0 -305 -83.5t-237 -220.5 t-149 -301t-52 -318q0 -127 50.5 -222.5t145.5 -147.5t220 -52q122 0 232 57.5t138 165.5l45 176q1 6 2 12.5t1 10.5q0 21 -13 24q-51 14 -205 14q-20 0 -20 27q6 25 11 35t24 10h528q21 0 21 -27q-1 -5 -4 -17t-8 -20t-15 -8q-68 0 -99.5 -11t-43.5 -58l-45 -176l-58 -228 q-3 -14 -18 -14q-17 0 -49 46t-45 77q-71 -84 -190 -126t-245 -42q-159 0 -286.5 72t-198 200t-70.5 289z" />
<glyph unicode="H" horiz-adv-x="1702" d="M76 27q1 5 4 17.5t8.5 20t13.5 7.5q125 0 174 14q27 9 39 55l281 1125q4 20 4 28q0 22 -25 25q-38 8 -147 8q-20 0 -20 27q7 26 11 35.5t23 9.5h551q21 0 21 -27q-1 -5 -4 -17t-8 -20t-15 -8q-125 0 -174 -14q-27 -10 -39 -56l-123 -493h615l125 502q4 20 4 28 q0 22 -25 25q-39 8 -147 8q-21 0 -21 27q7 26 11 35.5t24 9.5h551q20 0 20 -27q-1 -5 -4 -17.5t-8.5 -20t-13.5 -7.5q-125 0 -174 -14q-27 -9 -39 -56l-281 -1124q-4 -20 -4 -29q0 -21 25 -24q39 -8 147 -8q21 0 21 -27q-6 -24 -12 -34.5t-23 -10.5h-551q-21 0 -21 27 q4 15 6 22t7.5 15t13.5 8q125 0 174 14q27 9 39 55l137 551h-614l-139 -559q-5 -25 -5 -29q0 -21 25 -24q39 -8 148 -8q20 0 20 -27q-7 -27 -11.5 -36t-23.5 -9h-551q-20 0 -20 27z" />
<glyph unicode="I" horiz-adv-x="899" d="M66 27q8 45 26 45q121 0 164 8q47 11 59 61l281 1125q4 20 4 26q0 13 -6.5 18.5t-20.5 8.5q-41 8 -155 8q-21 0 -21 27q7 26 11 35.5t24 9.5h572q20 0 20 -27q-1 -5 -4 -17t-8 -20t-15 -8q-120 0 -166 -8q-45 -11 -57 -62l-280 -1124q-5 -25 -5 -27q0 -5 1.5 -9.5 t5.5 -8.5q6 -2 10 -4l10 -4q39 -8 156 -8q20 0 20 -27q-7 -29 -11 -37t-24 -8h-571q-20 0 -20 27z" />
<glyph unicode="J" horiz-adv-x="1135" d="M141 178q0 68 37 117t105 49q39 0 65.5 -24t26.5 -62q0 -55 -41 -96t-96 -41q-11 0 -15 2q20 -57 74 -86t117 -29q64 0 123.5 44.5t101 111.5t57.5 133l242 969q2 8 2.5 12t1.5 8q0 22 -16 27q-54 14 -219 14q-21 0 -21 27q4 16 6.5 25t9 14.5t19.5 5.5h555q20 0 20 -27 q-8 -45 -26 -45q-72 0 -109 -11t-51 -59l-242 -968q-23 -95 -93.5 -171.5t-167.5 -119.5t-195 -43q-108 0 -189.5 60t-81.5 163z" />
<glyph unicode="K" horiz-adv-x="1739" d="M76 27q1 5 4 17.5t8.5 20t13.5 7.5q125 0 174 14q27 9 39 55l281 1125q4 20 4 28q0 22 -25 25q-38 8 -147 8q-20 0 -20 27q7 26 11 35.5t23 9.5h551q21 0 21 -27q-1 -5 -4 -17t-8 -20t-15 -8q-125 0 -174 -14q-27 -10 -39 -56l-166 -663l803 620q2 4 25.5 27.5t23.5 46.5 q0 39 -69 39q-21 0 -21 27q4 16 6.5 25t9 14.5t19.5 5.5h397q11 0 16 -8t5 -19q-1 -5 -4.5 -18t-9 -20t-15.5 -7q-150 0 -328 -139q-1 -2 -3 -2h-4q-2 0 -3 -2l-422 -328l307 -719q28 -45 60 -55t98 -10q21 0 21 -27q-6 -24 -12 -34.5t-23 -10.5h-475q-19 0 -19 27 q3 21 7 33t20 12q52 0 88.5 10.5t36.5 48.5q0 14 -2 21l-254 591l-299 -231l-94 -379q-5 -25 -5 -29q0 -21 25 -24q39 -8 148 -8q20 0 20 -27q-7 -29 -11 -37t-24 -8h-551q-20 0 -20 27z" />
<glyph unicode="L" horiz-adv-x="1393" d="M76 27q1 5 4 17.5t8.5 20t13.5 7.5q125 0 174 14q27 9 39 55l281 1125q4 20 4 28q0 22 -25 25q-38 8 -147 8q-20 0 -20 27q7 26 11 35.5t23 9.5h605q18 0 18 -27q-3 -21 -7 -33t-20 -12q-151 0 -202 -10q-50 -9 -62 -60l-280 -1124q-9 -25 -9 -45q0 -16 70 -16h190 q161 0 261 64t148 144.5t80.5 167t47.5 89.5h18q21 0 21 -27l-182 -496q-3 -14 -19 -14h-1024q-20 0 -20 27z" />
<glyph unicode="M" horiz-adv-x="1987" d="M84 27q1 5 4 17t8 20t15 8q195 0 227 125l266 1069q4 20 4 28q0 22 -24 25q-39 8 -148 8q-20 0 -20 27q1 5 4 17.5t8.5 20t13.5 7.5h361q23 0 26 -23l160 -1173l746 1173q14 23 39 23h348q20 0 20 -27q-1 -5 -4 -17.5t-8.5 -20t-13.5 -7.5q-125 0 -174 -14 q-27 -9 -39 -56l-281 -1124q-4 -20 -4 -29q0 -8 2.5 -13.5t7 -7t14.5 -3.5q39 -8 148 -8q20 0 20 -27q-7 -29 -11 -37t-23 -8h-535q-20 0 -20 27q1 5 4 17.5t8.5 20t13.5 7.5q125 0 174 14q27 9 39 55l295 1186l-827 -1304q-12 -23 -41 -23q-26 0 -29 23l-174 1288 l-281 -1123q-2 -5 -3 -12.5t-3 -17.5q0 -53 46.5 -69.5t113.5 -16.5q21 0 21 -27q-7 -27 -11.5 -36t-23.5 -9h-439q-20 0 -20 27z" />
<glyph unicode="N" horiz-adv-x="1645" d="M76 27q1 5 4 17.5t8.5 20t13.5 7.5q196 0 228 125l278 1120q-57 10 -180 10q-20 0 -20 27q1 5 4 17.5t8.5 20t13.5 7.5h354q15 0 19 -13l455 -1083l227 907q4 22 4 31q0 86 -158 86q-20 0 -20 27q7 26 11 35.5t24 9.5h438q20 0 20 -27q-1 -5 -4 -17.5t-8.5 -20 t-13.5 -7.5q-196 0 -228 -125l-294 -1184q-7 -18 -21 -18h-25q-14 0 -18 14l-522 1239l-4 13q-4 4 -4 6l-271 -1084q-2 -5 -3 -12.5t-3 -17.5q0 -53 46 -69.5t114 -16.5q20 0 20 -27q-7 -28 -12 -36.5t-22 -8.5h-439q-20 0 -20 27z" />
<glyph unicode="O" horiz-adv-x="1561" d="M102 500q0 223 126.5 444t333.5 360.5t433 139.5q117 0 214 -42t164 -116.5t103.5 -174.5t36.5 -218q0 -169 -72 -336.5t-199.5 -305t-286.5 -217t-332 -79.5q-154 0 -273 70.5t-183.5 196t-64.5 278.5zM301 442q0 -174 85.5 -300t252.5 -126q149 0 278 94.5t220 244 t139.5 314t48.5 306.5q0 111 -38 203.5t-117 149t-189 56.5q-108 0 -210 -52t-185 -138q-85 -87 -151 -215.5t-100 -270t-34 -266.5z" />
<glyph unicode="P" horiz-adv-x="1315" d="M80 27q1 5 4 17.5t8.5 20t13.5 7.5q125 0 175 14q26 9 38 55l281 1125q4 20 4 28q0 22 -24 25q-39 8 -148 8q-20 0 -20 27q1 5 4 17.5t8.5 20t13.5 7.5h707q97 0 188 -34.5t149 -105.5t58 -172q0 -130 -91.5 -232t-228 -159t-264.5 -57h-333l-125 -506q-4 -20 -4 -29 q0 -8 2.5 -13.5t7 -7t14.5 -3.5q39 -8 148 -8q20 0 20 -27q-7 -29 -11 -37t-24 -8h-551q-20 0 -20 27zM633 700h287q199 0 303 107q53 53 86.5 153t33.5 181q0 101 -77 143.5t-191 42.5h-196q-56 0 -74 -9.5t-33 -60.5z" />
<glyph unicode="Q" horiz-adv-x="1618" d="M102 500q0 223 126.5 444t333.5 360.5t433 139.5q117 0 214 -42t164 -116.5t103.5 -174.5t36.5 -218q0 -136 -47 -273.5t-131 -256t-196 -208.5t-240 -143q13 -94 40 -148t103 -54q80 0 150.5 58t89.5 136q4 19 23 19q22 0 22 -27q-15 -66 -44.5 -133.5t-71 -126 t-98.5 -96t-126 -37.5q-172 0 -172 221q0 13 5 69.5t5 92.5q-99 -31 -202 -31q-154 0 -273 70.5t-183.5 196t-64.5 278.5zM291 434q0 -131 51 -238t160 -155q-8 21 -8 51q0 54 30 104t78 80.5t103 30.5q89 0 129.5 -60t54.5 -157q131 78 231 223t152.5 318.5t52.5 329.5 q0 113 -37.5 209t-115 155t-191.5 59q-110 0 -212 -54t-189 -144q-84 -87 -150.5 -215.5t-102.5 -268.5t-36 -268zM547 96q0 -82 90 -82q91 0 192 45v19q0 83 -26 129.5t-101 46.5q-37 0 -73.5 -22.5t-59 -59t-22.5 -76.5z" />
<glyph unicode="R" horiz-adv-x="1554" d="M80 27q1 5 4 17.5t8.5 20t13.5 7.5q125 0 175 14q26 9 38 55l281 1125q4 20 4 28q0 22 -24 25q-39 8 -148 8q-20 0 -20 27q1 5 4 17.5t8.5 20t13.5 7.5h621q74 0 154 -17t147 -53.5t110 -97t43 -141.5q0 -103 -68 -184t-172 -135.5t-202 -76.5q80 -29 131 -92.5 t51 -146.5q0 -11 -0.5 -16.5t-1.5 -12.5l-16 -182q-2 -40 -4 -68t-2 -45q0 -56 16.5 -89.5t65.5 -33.5q64 0 112.5 59.5t63.5 129.5q9 18 20 18h19q20 0 20 -27q-15 -59 -47.5 -112t-82 -87t-107.5 -34q-120 0 -204.5 53.5t-84.5 167.5q0 43 8 76l45 182q8 25 8 58 q0 85 -57.5 133.5t-144.5 48.5h-252l-135 -541q-5 -17 -5 -29q0 -21 25 -24q39 -8 147 -8q21 0 21 -27q-7 -29 -11 -37t-24 -8h-545q-20 0 -20 27zM639 727h227q223 0 336 113q52 52 82.5 132.5t30.5 160.5q0 76 -44.5 119t-110 59t-144.5 16h-137q-56 0 -74 -9.5t-33 -60.5 z" />
<glyph unicode="S" horiz-adv-x="1255" d="M109 -25l118 478q4 12 17 12h24q8 0 12.5 -6t4.5 -15q-17 -70 -17 -125q0 -148 102 -220t257 -72q67 0 132 33t113.5 86t77.5 118.5t29 132.5q0 72 -38 128.5t-105 72.5l-250 66q-101 27 -161 108.5t-60 183.5q0 123 73 237t190.5 182.5t239.5 68.5q94 0 172.5 -34.5 t120.5 -109.5l117 138q12 6 14 6h13q8 0 13 -7t5 -14l-119 -475q-3 -14 -16 -14h-25q-18 0 -18 22q10 65 10 113q0 95 -32.5 165.5t-98 107t-162.5 36.5q-82 0 -163 -47t-131 -125t-50 -162q0 -66 38.5 -117t102.5 -69l250 -65q68 -18 118.5 -63.5t76.5 -108t26 -136.5 q0 -97 -41 -191.5t-114.5 -172.5t-166.5 -122t-190 -44q-244 0 -350 143l-114 -137q-12 -6 -15 -6h-14q-6 0 -11 7t-5 13z" />
<glyph unicode="T" horiz-adv-x="1196" d="M49 956l146 424q4 19 20 19h1210q21 0 21 -27l-68 -424q0 -6 -7 -12t-13 -6h-19q-20 0 -20 26q22 145 22 205q0 72 -30 109t-78 47t-125 10h-121q-55 0 -74 -10t-32 -60l-281 -1124q-1 -4 -1.5 -8t-2.5 -10q0 -26 31 -33q53 -10 227 -10q20 0 20 -27q-7 -29 -11 -37 t-23 -8h-725q-21 0 -21 27q1 5 4.5 18t9 20t15.5 7q176 0 233 10q55 14 66 59l280 1125q9 25 9 45q0 16 -72 16h-119q-137 0 -211.5 -42t-109.5 -111t-90 -226q-7 -18 -21 -18h-18q-21 0 -21 26z" />
<glyph unicode="U" horiz-adv-x="1397" d="M135 348q0 67 15 123l198 795q4 20 4 28q0 22 -24 25q-39 8 -148 8q-20 0 -20 27q7 26 11 35.5t24 9.5h550q21 0 21 -27q-1 -5 -4 -17t-8 -20t-15 -8q-125 0 -174 -14q-27 -10 -39 -56l-198 -794q-27 -108 -27 -178q0 -75 29.5 -134t85.5 -91.5t131 -32.5q88 0 171.5 36 t150.5 100t114.5 146t67.5 162l184 739q4 22 4 31q0 86 -158 86q-20 0 -20 27q7 26 11 35.5t24 9.5h444q9 0 15 -9t6 -18q0 -1 -4 -15.5t-9.5 -22t-13.5 -7.5q-196 0 -227 -125l-185 -739q-23 -96 -77.5 -186.5t-134 -164t-175 -115.5t-194.5 -42q-113 0 -206.5 49.5 t-146.5 138.5t-53 205z" />
<glyph unicode="V" horiz-adv-x="1194" d="M113 1354q4 22 10 33.5t24 11.5h500q11 0 16 -8t5 -19q-8 -45 -27 -45q-160 0 -170 -55l135 -1071l631 1007q18 34 18 54q0 36 -32.5 50.5t-75.5 14.5q-21 0 -21 27q4 16 7 25t9 14.5t19 5.5h395q19 0 19 -27q-8 -45 -27 -45q-154 0 -241 -135q-4 -4 -7 -4l-755 -1211 q-15 -22 -39 -22h-29q-23 0 -26 22l-164 1305q-15 45 -154 45q-20 0 -20 27z" />
<glyph unicode="W" horiz-adv-x="1933" d="M111 1354q7 26 11 35.5t23 9.5h488q20 0 20 -27q-8 -45 -26 -45q-164 0 -174 -57l73 -1034l512 892l-10 154q-7 30 -45 37.5t-94 7.5q-21 0 -21 27q7 26 11 35.5t24 9.5h488q20 0 20 -27q-1 -5 -4 -17t-8 -20t-15 -8q-165 0 -174 -57v-15l74 -1019l557 972q12 22 12 43 q0 42 -41 59t-92 17q-20 0 -20 27q4 16 6.5 25t9 14.5t19.5 5.5h391q20 0 20 -27q-1 -5 -4 -17.5t-8.5 -20t-13.5 -7.5q-146 0 -222 -133l-6 -6l-694 -1211q-11 -22 -35 -22h-16q-25 0 -25 22l-78 1055l-602 -1055q-15 -22 -36 -22h-17q-24 0 -24 22l-95 1305 q-7 30 -45 37.5t-94 7.5q-20 0 -20 27z" />
<glyph unicode="X" horiz-adv-x="1696" d="M53 27q1 5 4.5 18t9 20t15.5 7q186 0 319 139q3 2 5 3l2 1l448 483l-244 588q-21 27 -68 34t-110 7q-20 0 -20 27q7 26 11 35.5t24 9.5h512q20 0 20 -27q-1 -5 -4.5 -18t-9 -20t-15.5 -7q-38 0 -78.5 -12.5t-56.5 -40.5l176 -424l336 360q3 7 14 24.5t11 33.5 q0 30 -26 44.5t-62 14.5q-21 0 -21 27q7 26 11 35.5t24 9.5h444q11 0 16 -8t5 -19q-1 -5 -4 -17t-8 -20t-15 -8q-95 0 -174.5 -34.5t-146.5 -104.5q-1 -1 -2.5 -1.5t-3.5 -2.5l-371 -400l280 -671q33 -41 179 -41q20 0 20 -27q-7 -27 -11.5 -36t-23.5 -9h-512q-20 0 -20 27 q1 5 4 17.5t8.5 20t13.5 7.5q40 0 81 12.5t57 40.5l-213 510l-414 -447q-3 -7 -14 -24t-11 -33q0 -30 28 -44.5t60 -14.5q21 0 21 -27q-7 -29 -11 -37t-24 -8h-444q-21 0 -21 27z" />
<glyph unicode="Y" horiz-adv-x="1188" d="M68 1354q6 25 11 35t23 10h516q19 0 19 -27q-8 -45 -27 -45q-145 0 -145 -45l231 -631l484 559q4 10 14 24.5t15 24.5t5 23q0 45 -84 45q-20 0 -20 27q4 16 6.5 25t9 14.5t19.5 5.5h397q9 0 15 -9t6 -18q-4 -15 -6 -21.5t-7 -15t-16 -8.5q-82 0 -155 -35.5t-128 -99.5 q-2 -2 -4.5 -3.5t-5.5 -4.5l-541 -625l-106 -424q0 -5 -2 -15t-2 -16q0 -8 2.5 -13.5t7 -7t14.5 -3.5q39 -8 148 -8q20 0 20 -27q-7 -29 -11 -37t-23 -8h-545q-21 0 -21 27q1 5 4 17t8 20t15 8q125 0 174 14q10 3 18.5 14t13.5 23t9 24l102 412l-264 727q-18 27 -65 34 t-109 7q-20 0 -20 27z" />
<glyph unicode="Z" horiz-adv-x="1397" d="M119 16q0 30 14 47l1127 1264h-302q-150 0 -248.5 -35.5t-163 -118t-108.5 -225.5q-4 -18 -20 -18h-19q-20 0 -20 26l129 424q4 19 20 19h934q17 0 17 -17q0 -30 -13 -43l-1122 -1261h311q181 0 284.5 44.5t164 140.5t117.5 274q2 7 7.5 12.5t12.5 5.5h19q20 0 20 -27 l-162 -510q-9 -18 -20 -18h-961q-18 0 -18 16z" />
<glyph unicode="[" horiz-adv-x="795" d="M115 -27v1545q0 7 6.5 12.5t13.5 5.5h19q7 0 13.5 -5.5t6.5 -12.5v-654q45 43 105 62.5t129 19.5q74 0 136.5 -39.5t99 -105.5t36.5 -139q0 -148 -73 -276.5t-182 -227t-259 -199.5q-8 -4 -12 -4h-19q-5 0 -12.5 6.5t-7.5 11.5zM174 41q94 89 167.5 185t119 208t45.5 228 q0 43 -11 89.5t-38 79.5t-72 33q-80 0 -145.5 -33.5t-65.5 -105.5v-684z" />
<glyph unicode="\" horiz-adv-x="795" d="M154 -156v1626q0 10 12.5 17.5t23.5 7.5q7 0 15 -5t8 -13v-578l399 158h6q7 0 15 -5.5t8 -13.5v-1462q0 -9 -14.5 -17t-22.5 -8q-6 0 -14 6t-8 13v414l-398 -158h-8q-6 0 -14 6.5t-8 11.5zM213 16l369 146v704l-369 -145v-705z" />
<glyph unicode="]" horiz-adv-x="795" d="M115 -18q0 12 16 16l68 25v704l-54 -16q-4 -2 -8 -2q-6 0 -14 6.5t-8 11.5v137q0 11 16 19l68 22v430q0 9 13 16t24 7q7 0 14.5 -5.5t7.5 -13.5v-415l279 94v430q0 11 12 16.5t24 5.5q7 0 15 -5t8 -13v-414l55 19h6q7 0 15 -5.5t8 -13.5v-137q0 -11 -14 -16l-70 -25v-704 l55 18h6q7 0 15 -5t8 -13v-138q0 -11 -14 -16l-70 -25v-288q0 -9 -13.5 -16t-23.5 -7q-6 0 -14 6.5t-8 12.5v274l-279 -94v-289q0 -9 -14 -15.5t-23 -6.5q-6 0 -14 6.5t-8 11.5v272l-54 -18h-8q-6 0 -14 6.5t-8 11.5v138zM258 41l279 94v707l-279 -94v-707z" />
<glyph unicode="^" horiz-adv-x="2048" d="M115 735q0 12 9.5 20.5t20.5 8.5q17 0 23 -12q138 -192 366.5 -285.5t489.5 -93.5q121 0 243.5 22t234.5 68t208 117t168 172q6 12 23 12q13 0 21.5 -7.5t8.5 -21.5q0 -12 -6 -18q-151 -213 -392.5 -329t-508.5 -116q-176 0 -345 51.5t-314 152.5t-244 241q-6 9 -6 18z " />
<glyph unicode="_" horiz-adv-x="2048" d="M115 291q0 12 6 18q98 148 242 255.5t312.5 163.5t348.5 56q178 0 346.5 -56t312 -163t242.5 -256q6 -9 6 -18q0 -13 -8.5 -21t-21.5 -8q-17 0 -23 12q-92 138 -228 229.5t-296 136t-330 44.5q-171 0 -331 -44.5t-296.5 -136t-228.5 -229.5q-6 -12 -23 -12 q-11 0 -20.5 8.5t-9.5 20.5z" />
<glyph unicode="`" horiz-adv-x="852" d="M20 184q0 17 170 172q0 9 -0.5 15t-1.5 12q0 88 14 179.5t38.5 182.5t61.5 190t75 173q66 135 144 235.5t173 100.5q65 0 93 -44.5t28 -111.5q0 -375 -498 -882q-8 -88 -8 -125q0 -256 117 -256q50 0 99.5 26.5t85 57.5t98.5 92q4 4 12 4q11 0 21 -12t10 -23q0 -7 -9 -14 q-91 -89 -164 -138t-157 -49q-108 0 -160.5 93t-66.5 221q-55 -55 -134 -127q-2 -4 -12 -4q-9 0 -19 11t-10 21zM334 504q109 116 204 244t158.5 269.5t63.5 276.5q0 97 -68 97q-73 0 -149 -174.5t-130 -377.5t-79 -335z" />
<glyph unicode="a" horiz-adv-x="1081" d="M78 305q0 131 68 272t183.5 234.5t248.5 93.5q61 0 109 -33t75 -90q23 82 90 82q26 0 43.5 -15.5t17.5 -41.5q0 -6 -0.5 -9t-1.5 -7l-143 -572q-14 -61 -14 -100q0 -88 59 -88q64 0 97.5 81.5t56.5 188.5q4 12 16 12h25q8 0 13 -7t5 -13q-36 -143 -78.5 -229.5 t-138.5 -86.5q-69 0 -122 40.5t-66 107.5q-132 -148 -265 -148q-129 0 -203.5 97.5t-74.5 230.5zM231 215q0 -71 30.5 -127.5t96.5 -56.5q74 0 143.5 55.5t119.5 130.5q2 2 2 6l110 445l2 6q-12 73 -52.5 125.5t-109.5 52.5t-128.5 -56.5t-100.5 -133.5q-40 -82 -76.5 -225 t-36.5 -222z" />
<glyph unicode="b" horiz-adv-x="879" d="M92 301q0 19 9.5 74.5t9.5 68.5l198 795q8 35 10 55q0 33 -133 33q-20 0 -20 27q1 5 4.5 18t9 20t15.5 7l276 22q25 0 25 -26l-152 -604q116 114 234 114q87 0 149.5 -46t93.5 -121t31 -160q0 -99 -38.5 -204.5t-106.5 -196t-159 -145.5t-194 -55q-124 0 -193 97t-69 227 zM221 229q0 -77 33.5 -137.5t103.5 -60.5t131 58.5t99 131.5q41 82 76.5 222.5t35.5 224.5q0 73 -30.5 128.5t-96.5 55.5q-74 0 -141.5 -54.5t-118.5 -129.5l-57 -232q-33 -129 -35 -207z" />
<glyph unicode="c" horiz-adv-x="885" d="M82 324q0 138 77 274t205 221.5t269 85.5q92 0 165.5 -44.5t73.5 -131.5q0 -56 -32.5 -95.5t-87.5 -39.5q-33 0 -55.5 20.5t-22.5 53.5q0 48 35 82t82 34h4q-24 35 -69.5 51.5t-94.5 16.5q-120 0 -210 -102.5t-135.5 -245t-45.5 -260.5q0 -89 45.5 -151t130.5 -62 q122 0 234.5 56t183.5 155q6 6 16 6t20.5 -11.5t10.5 -21.5q0 -8 -4 -12q-75 -105 -202 -165.5t-263 -60.5q-98 0 -173 46.5t-116 124.5t-41 176z" />
<glyph unicode="d" horiz-adv-x="1065" d="M78 305q0 131 68 272t183.5 234.5t248.5 93.5q60 0 108.5 -33.5t75.5 -89.5l115 457q8 35 10 55q0 33 -133 33q-21 0 -21 27q1 5 4.5 18t9 20t15.5 7l276 22q25 0 25 -26l-295 -1178q-14 -34 -14 -98q0 -88 59 -88q64 0 97.5 81.5t56.5 188.5q4 12 16 12h25q8 0 13 -7 t5 -13q-36 -143 -78.5 -229.5t-138.5 -86.5q-69 0 -122 40.5t-66 107.5q-132 -148 -265 -148q-129 0 -203.5 97.5t-74.5 230.5zM231 215q0 -71 30.5 -127.5t96.5 -56.5q74 0 143.5 55.5t119.5 130.5q2 2 2 8l112 451q-12 72 -53 124t-109 52q-69 0 -128.5 -56.5 t-100.5 -133.5q-40 -82 -76.5 -225t-36.5 -222z" />
<glyph unicode="e" horiz-adv-x="952" d="M90 348q0 146 73.5 274.5t199.5 205.5t270 77q88 0 153.5 -45.5t65.5 -130.5q0 -118 -94 -175.5t-212 -71t-261 -13.5h-6q-33 -122 -33 -209q0 -91 42 -160t128 -69q122 0 234.5 56t183.5 155q6 6 16 6t20.5 -11.5t10.5 -21.5q0 -8 -4 -12q-75 -105 -202 -165.5 t-263 -60.5q-98 0 -171.5 51t-112 137.5t-38.5 182.5zM291 522q119 0 220 11t183 55.5t82 138.5q0 38 -21 66.5t-54.5 43.5t-69.5 15q-87 0 -156.5 -47t-114.5 -122.5t-69 -160.5z" />
<glyph unicode="f" horiz-adv-x="1001" d="M109 -276q0 52 33.5 90.5t84.5 38.5q34 0 57 -20.5t23 -53.5q0 -44 -32.5 -80.5t-75.5 -36.5q38 -29 92 -29q73 0 119 162q19 78 104 514l94 502h-176q-20 0 -20 27q8 45 26 45h183l24 133q12 62 22 106.5t21.5 82.5t34.5 85q35 67 94.5 110.5t128.5 43.5 q45 0 87.5 -16.5t69.5 -49.5t27 -78q0 -52 -34.5 -90.5t-83.5 -38.5q-33 0 -56.5 20.5t-23.5 53.5q0 45 30.5 78.5t75.5 38.5q-38 29 -94 29q-31 0 -58.5 -29t-35.5 -62q-13 -52 -57 -282l-25 -135h211q20 0 20 -27q-1 -5 -4 -17.5t-8.5 -20t-13.5 -7.5h-219l-95 -500 q-18 -109 -41.5 -221.5t-66 -231t-108.5 -198.5t-156 -80q-69 0 -123.5 39.5t-54.5 104.5z" />
<glyph unicode="g" horiz-adv-x="977" d="M29 -293q0 50 34.5 87.5t83.5 37.5q33 0 55.5 -20.5t22.5 -53.5q0 -37 -21 -66.5t-54 -41.5q55 -17 172 -17q94 0 172 72.5t102 167.5l59 240q-111 -113 -231 -113q-88 0 -150.5 45t-95.5 120t-33 159q0 94 38.5 197t108 191t159.5 140.5t190 52.5q60 0 108 -33t76 -88 q20 80 88 80q26 0 44 -15.5t18 -41.5q0 -6 -0.5 -9t-1.5 -7l-234 -930q-16 -64 -59 -117t-101 -88.5t-127 -55.5t-133 -20q-117 0 -203.5 22.5t-86.5 104.5zM299 233q0 -70 32 -125t97 -55q131 0 258 180l113 447q-14 71 -56 121.5t-106 50.5q-68 0 -128.5 -55.5 t-100.5 -132.5q-38 -74 -73.5 -212.5t-35.5 -218.5z" />
<glyph unicode="h" horiz-adv-x="1180" d="M109 37q0 12 2 18l297 1184q8 35 10 55q0 33 -133 33q-21 0 -21 27q1 5 4.5 18t9 20t15.5 7l276 22h6q0 -2 7 -5.5t8 -4.5q4 -10 4 -16l-160 -639q126 149 299 149q72 0 124.5 -25t82 -75.5t29.5 -120.5q0 -84 -37.5 -203t-93.5 -266q-29 -67 -29 -123q0 -61 47 -61 q80 0 133.5 85.5t75.5 184.5q4 12 16 12h25q8 0 13 -5.5t5 -12.5q0 -2 -2 -6q-18 -74 -53.5 -145.5t-89.5 -119t-127 -47.5q-72 0 -123 49.5t-51 120.5q0 38 16 80q58 154 96.5 275t38.5 213q0 59 -23 98t-77 39q-110 0 -192 -67.5t-142 -178.5l-139 -559q-8 -31 -31 -50.5 t-53 -19.5q-26 0 -44.5 17.5t-18.5 42.5z" />
<glyph unicode="i" horiz-adv-x="705" d="M55 588v6q33 122 101 216.5t172 94.5q73 0 123.5 -48t50.5 -122q0 -38 -17 -80l-166 -440q-28 -68 -28 -123q0 -61 47 -61q80 0 133.5 85.5t75.5 184.5q4 12 16 12h25q8 0 13 -5.5t5 -12.5q0 -2 -2 -6q-28 -116 -97.5 -214t-172.5 -98q-72 0 -123 49.5t-51 120.5 q0 38 16 80l166 441q27 75 27 123q0 61 -45 61q-81 0 -133.5 -83.5t-77.5 -186.5q-4 -13 -17 -13h-24q-17 0 -17 19zM391 1241q0 43 36 78t79 35q35 0 57.5 -21.5t22.5 -54.5q0 -46 -36.5 -80.5t-80.5 -34.5q-33 0 -55.5 22.5t-22.5 55.5z" />
<glyph unicode="j" horiz-adv-x="842" d="M-27 -291q0 50 34.5 86.5t84.5 36.5q33 0 55.5 -20.5t22.5 -53.5q0 -39 -24.5 -70.5t-61.5 -41.5q36 -13 72 -13q87 0 151 80.5t90 180.5l193 770q14 59 14 100q0 88 -61 88q-90 0 -157.5 -81.5t-109.5 -188.5q-4 -13 -16 -13h-24q-17 0 -17 19v6q46 123 131 217t197 94 q85 0 139.5 -53t54.5 -135q0 -29 -6 -58l-194 -778q-21 -83 -80 -152t-141 -109t-168 -40q-69 0 -124 33t-55 96zM621 1241q0 45 35 79t79 34q35 0 57.5 -21.5t22.5 -54.5q0 -46 -36.5 -80.5t-80.5 -34.5q-33 0 -55 23t-22 55z" />
<glyph unicode="k" horiz-adv-x="1065" d="M109 37q0 12 2 18l297 1184q8 35 10 55q0 33 -133 33q-21 0 -21 27q1 5 4.5 18t9 20t15.5 7l276 22h6q0 -2 7 -5.5t8 -4.5q4 -10 4 -16l-215 -856q74 31 186.5 147.5t176 167.5t159.5 51q57 0 97 -39t40 -96q0 -36 -15 -66.5t-42 -49.5t-63 -19q-33 0 -55.5 20.5 t-22.5 53.5q0 49 34.5 82.5t83.5 33.5q-20 27 -61 27q-61 0 -117.5 -35t-122 -100.5t-119.5 -120t-100 -82.5q121 -14 210 -63.5t89 -151.5q0 -21 -8 -53q-18 -77 -18 -123q0 -92 63 -92q74 0 112.5 81t63.5 189q4 12 17 12h24q8 0 13.5 -5t5.5 -13q0 -2 -2 -6 q-77 -312 -238 -312q-58 0 -102.5 27t-68.5 73.5t-24 104.5q0 33 9 68q6 24 6 45q0 79 -70 120t-160 50l-104 -418q-8 -31 -31 -50.5t-53 -19.5q-26 0 -44.5 17.5t-18.5 42.5z" />
<glyph unicode="l" horiz-adv-x="610" d="M90 166q0 6 1.5 18t3 23.5t1.5 17.5l254 1014q8 35 10 55q0 33 -133 33q-20 0 -20 27q1 5 4.5 18t9 20t15.5 7l276 22q25 0 25 -26l-295 -1178q-15 -33 -15 -98q0 -88 60 -88q63 0 94.5 78.5t56.5 191.5q4 12 17 12h24q8 0 13.5 -6.5t5.5 -13.5q-24 -99 -43.5 -156.5 t-62.5 -108.5t-109 -51q-82 0 -137.5 53t-55.5 136z" />
<glyph unicode="m" horiz-adv-x="1798" d="M55 590q22 89 42.5 151t64 113t108.5 51q77 0 136 -48.5t59 -123.5q61 80 143 126t174 46q97 0 167.5 -49.5t70.5 -140.5q63 89 147.5 139.5t184.5 50.5q106 0 170.5 -57.5t64.5 -163.5q0 -84 -37.5 -203t-93.5 -266q-29 -71 -29 -123q0 -61 48 -61q80 0 133 86t75 184 q6 12 17 12h24q8 0 13.5 -5.5t5.5 -12.5q0 -2 -2 -6q-28 -116 -97.5 -214t-173.5 -98q-72 0 -123 49.5t-51 120.5q0 36 17 80q58 154 96.5 275t38.5 213q0 57 -23 97t-77 40q-112 0 -194 -68.5t-142 -181.5q-4 -20 -6 -31l-132 -526q-7 -28 -31.5 -48t-54.5 -20 q-24 0 -42.5 16t-18.5 42q0 12 2 18l131 522q21 84 21 140q0 57 -23.5 97t-79.5 40q-75 0 -138 -33t-110 -87.5t-86 -129.5l-139 -557q-7 -28 -31.5 -48t-54.5 -20q-25 0 -43 16t-18 42q0 12 2 18l153 611q15 57 15 100q0 88 -60 88q-64 0 -95 -76.5t-60 -193.5 q0 -6 -6 -9.5t-11 -3.5h-24q-7 0 -12 7.5t-5 13.5z" />
<glyph unicode="n" horiz-adv-x="1229" d="M55 590q22 89 42.5 151t64 113t108.5 51q77 0 136 -48.5t59 -123.5q61 80 143 126t174 46q73 0 126 -25t82.5 -75.5t29.5 -120.5q0 -84 -37.5 -203t-93.5 -266q-29 -67 -29 -123q0 -61 47 -61q80 0 133.5 86t75.5 184q4 12 17 12h24q8 0 13.5 -5t5.5 -13q0 -2 -2 -6 q-28 -116 -97.5 -214t-173.5 -98q-72 0 -123 49.5t-51 120.5q0 38 16 80q26 67 59.5 160t55 178t21.5 150q0 57 -23.5 97t-79.5 40q-75 0 -138 -33t-110 -87.5t-86 -129.5l-139 -557q-7 -28 -31.5 -48t-54.5 -20q-25 0 -43 16t-18 42q0 12 2 18l153 611q15 57 15 100 q0 88 -60 88q-64 0 -95 -76.5t-60 -193.5q0 -6 -6 -9.5t-11 -3.5h-24q-7 0 -12 7.5t-5 13.5z" />
<glyph unicode="o" horiz-adv-x="991" d="M82 324q0 139 77.5 275t206 221t269.5 85q76 0 135.5 -26t103.5 -73t67.5 -110t23.5 -137q0 -107 -45 -210.5t-123.5 -188t-179.5 -134t-205 -49.5q-97 0 -172.5 46t-116.5 124t-41 177zM240 244q0 -89 45.5 -151t130.5 -62q91 0 166.5 62t124 156.5t74.5 199.5t26 190 q0 89 -44.5 151t-131.5 62q-120 0 -210 -102.5t-135.5 -245t-45.5 -260.5z" />
<glyph unicode="p" horiz-adv-x="1030" d="M-70 -371q7 45 27 45q64 0 89.5 11.5t39.5 58.5l231 922q15 38 15 98q0 88 -60 88q-64 0 -95 -76.5t-60 -193.5q0 -13 -17 -13h-24q-5 0 -11 7.5t-6 13.5q22 89 42.5 151t64 113t108.5 51q70 0 123 -39.5t68 -107.5q56 65 124 106t140 41q86 0 149.5 -46t95.5 -120.5 t32 -160.5q0 -132 -67.5 -273t-183 -234.5t-247.5 -93.5q-60 0 -108.5 34t-75.5 89l-93 -364q-5 -30 -6 -35q0 -27 135 -27q21 0 21 -26q-7 -27 -11.5 -36t-23.5 -9h-397q-19 0 -19 26zM350 207q14 -73 54 -124.5t106 -51.5q71 0 132 58.5t99 131.5q28 55 52.5 134.5 t42.5 169.5t18 143q0 47 -12.5 88t-41 68.5t-75.5 27.5q-75 0 -141.5 -53.5t-120.5 -132.5v-7z" />
<glyph unicode="q" horiz-adv-x="913" d="M78 305q0 131 67.5 272t183 234.5t249.5 93.5q62 0 112 -37t76 -98q12 24 66.5 79.5t76.5 55.5q23 0 23 -26l-287 -1143q-5 -30 -6 -35q0 -27 135 -27q10 0 15.5 -8t5.5 -18q-7 -27 -11.5 -36t-23.5 -9h-438q-21 0 -21 26q7 45 27 45q74 0 116.5 12t55.5 58l88 348 q-117 -115 -234 -115q-129 0 -202.5 97.5t-73.5 230.5zM231 215q0 -71 30.5 -127.5t96.5 -56.5q72 0 140.5 54.5t119.5 129.5l115 461q-12 72 -52.5 124t-107.5 52q-69 0 -128.5 -56.5t-100.5 -133.5q-40 -82 -76.5 -225t-36.5 -222z" />
<glyph unicode="r" horiz-adv-x="924" d="M55 590q22 89 42.5 151t64 113t108.5 51q71 0 124.5 -41t66.5 -108q52 68 118.5 108.5t145.5 40.5q65 0 114.5 -38t49.5 -103q0 -52 -32.5 -90.5t-86.5 -38.5q-33 0 -55.5 20.5t-22.5 53.5q0 45 33 80.5t76 35.5q-33 27 -80 27q-88 0 -153 -62.5t-117 -158.5l-146 -586 q-7 -28 -31.5 -48t-54.5 -20q-25 0 -43 16t-18 42q0 12 2 18l153 611q15 57 15 100q0 88 -60 88q-64 0 -95 -76.5t-60 -193.5q0 -6 -6 -9.5t-11 -3.5h-24q-7 0 -12 7.5t-5 13.5z" />
<glyph unicode="s" horiz-adv-x="958" d="M106 176q0 56 32.5 97.5t88.5 41.5q33 0 55.5 -20t22.5 -53q0 -47 -35 -82t-82 -35h-10q55 -94 221 -94q72 0 137 24.5t107.5 73.5t42.5 119q0 53 -38 87t-93 46l-111 22q-76 19 -125 71t-49 126q0 91 49.5 161t130.5 107t168 37q93 0 166.5 -44.5t73.5 -131.5 q0 -47 -26.5 -83t-73.5 -36q-27 0 -46.5 17.5t-19.5 44.5q0 24 13.5 46.5t36 36t46.5 13.5q-18 44 -67.5 64t-106.5 20q-52 0 -104 -21t-83.5 -61.5t-31.5 -95.5q0 -37 26 -65t64 -40l119 -24q57 -12 104.5 -42.5t75 -77t27.5 -106.5q0 -76 -42.5 -150t-104.5 -118 q-109 -74 -267 -74q-109 0 -200 50t-91 149z" />
<glyph unicode="t" horiz-adv-x="739" d="M45 838q8 45 27 45h227l82 334q8 27 32 46t54 19q26 0 43.5 -15.5t17.5 -41.5q0 -6 -0.5 -9.5t-1.5 -7.5l-82 -325h211q21 0 21 -27q-1 -5 -4 -17t-8 -20t-15 -8h-223l-147 -592q-15 -58 -15 -100q0 -88 60 -88q90 0 159.5 84.5t106.5 185.5q8 12 16 12h25q8 0 13 -5.5 t5 -12.5q0 -4 -2 -6q-45 -124 -131 -218t-197 -94q-81 0 -136.5 53t-55.5 136q0 30 6 57l148 588h-215q-21 0 -21 27z" />
<glyph unicode="u" horiz-adv-x="1171" d="M55 588v6q33 122 101 216.5t172 94.5q73 0 123.5 -48t50.5 -122q0 -38 -17 -80q-9 -25 -41 -109t-49 -139t-28 -108t-11 -106q0 -68 29 -115t94 -47q131 0 230 162q2 8 3.5 15.5t2.5 14.5l147 594q7 27 32 46.5t54 19.5q25 0 43.5 -16t18.5 -42q0 -12 -2 -16l-148 -590 q-14 -61 -14 -100q0 -88 59 -88q66 0 98.5 81.5t55.5 188.5q4 12 16 12h25q8 0 13 -7t5 -13q-22 -88 -42.5 -151t-64.5 -114t-110 -51q-65 0 -116.5 35.5t-69.5 96.5q-47 -60 -109 -96t-131 -36q-118 0 -188 64.5t-70 181.5q0 67 18 137.5t50.5 157t56.5 150.5q27 75 27 123 q0 61 -45 61q-81 0 -133.5 -83.5t-77.5 -186.5q-4 -13 -17 -13h-24q-17 0 -17 19z" />
<glyph unicode="v" horiz-adv-x="991" d="M55 588v6q33 122 101 216.5t172 94.5q73 0 123.5 -48t50.5 -122q0 -38 -17 -80q-40 -104 -63 -166.5t-42.5 -140t-19.5 -143.5q0 -77 35.5 -125.5t110.5 -48.5q142 0 256 219q36 71 68 167t32 156q0 62 -20 96.5t-52 72t-32 59.5q0 40 33 73t73 33q49 0 70.5 -45 t21.5 -102q0 -68 -19.5 -162t-54 -195t-63.5 -159q-135 -267 -315 -267q-129 0 -207 64.5t-78 189.5q0 46 11 101t22 90.5t50 138.5t40 107q27 75 27 123q0 61 -45 61q-81 0 -133.5 -83.5t-77.5 -186.5q-4 -13 -17 -13h-24q-17 0 -17 19z" />
<glyph unicode="w" horiz-adv-x="1464" d="M55 588v6q33 122 101 216.5t172 94.5q73 0 123.5 -48t50.5 -122q0 -38 -17 -80q-24 -62 -56.5 -149t-50.5 -158t-18 -137q0 -80 42 -130t122 -50q109 0 181 166q-3 12 -3 34q0 55 17 125l115 461q7 27 32 46.5t54 19.5q24 0 42.5 -16t18.5 -42q0 -12 -2 -16l-115 -457 q-20 -82 -20 -147q0 -77 35.5 -125.5t111.5 -48.5q132 0 217 174q32 62 71.5 183t39.5 185q0 59 -19 93.5t-52.5 74.5t-33.5 60q0 39 33.5 72.5t73.5 33.5q49 0 70.5 -45t21.5 -102q0 -69 -23 -175.5t-58 -214t-66 -171.5q-112 -222 -279 -222q-86 0 -157 33t-105 105 q-33 -59 -86.5 -98.5t-118.5 -39.5q-135 0 -217 64.5t-82 196.5q0 43 11.5 99t25.5 99.5t47.5 133.5t36.5 98q27 75 27 123q0 61 -45 61q-81 0 -133.5 -83.5t-77.5 -186.5q-4 -13 -17 -13h-24q-17 0 -17 19z" />
<glyph unicode="x" horiz-adv-x="1169" d="M63 121q0 48 33.5 87.5t83.5 39.5q34 0 57 -20.5t23 -53.5q0 -43 -28.5 -75t-71.5 -40q36 -28 102 -28q64 0 113 61.5t67 134.5l93 363q22 99 22 135q0 51 -28.5 89t-79.5 38q-65 0 -122 -40.5t-96 -103t-55 -126.5q-4 -13 -16 -13h-25q-16 0 -16 19v6q20 76 68 148.5 t117.5 117.5t148.5 45q75 0 135.5 -40t85.5 -109q35 63 89.5 106t119.5 43q44 0 90 -15.5t75 -47.5t29 -80q0 -52 -33.5 -89.5t-85.5 -37.5q-33 0 -55 21t-22 53q0 43 29.5 75.5t70.5 38.5q-37 29 -102 29q-66 0 -114.5 -61t-68.5 -136l-90 -362q-22 -82 -22 -135 q0 -52 29.5 -89.5t78.5 -37.5q96 0 171.5 84.5t99.5 185.5q4 12 16 12h25q8 0 13 -5.5t5 -12.5q0 -2 -2 -6q-29 -122 -122 -217t-210 -95q-75 0 -135.5 40.5t-85.5 109.5q-32 -60 -88.5 -105t-120.5 -45q-44 0 -90.5 15.5t-75.5 47.5t-29 81z" />
<glyph unicode="y" horiz-adv-x="1004" d="M55 588v6q33 122 101 216.5t172 94.5q73 0 123.5 -48t50.5 -122q0 -38 -17 -80q-9 -25 -41 -109t-49 -139t-28 -108t-11 -106q0 -68 29 -115t92 -47q127 0 228 155l155 631q7 27 32 46.5t54 19.5q25 0 43.5 -16t18.5 -42q0 -12 -2 -16l-203 -815q-27 -105 -99 -201 t-173.5 -154.5t-211.5 -58.5q-53 0 -105 20.5t-84 61.5t-32 96q0 56 33 97t88 41q33 0 55.5 -20.5t22.5 -53.5q0 -47 -35 -82t-82 -35q-2 1 -4 1.5t-4 0.5q43 -74 150 -74q97 0 168 68t114.5 164.5t67.5 197.5q-91 -86 -197 -86q-81 0 -138 28t-88.5 83.5t-31.5 134.5 q0 67 18 137.5t50.5 157t56.5 150.5q27 75 27 123q0 61 -45 61q-81 0 -133.5 -83.5t-77.5 -186.5q-4 -13 -17 -13h-24q-17 0 -17 19z" />
<glyph unicode="z" horiz-adv-x="952" d="M84 -4q0 10 4 14q55 95 132.5 181.5t176 175t198 177.5t161.5 158h-8q-45 0 -132 29t-137 29q-54 0 -105 -23.5t-65 -72.5q-3 -15 -16 -15h-25q-16 0 -16 21v6q16 60 52.5 112t90 84.5t111.5 32.5q41 0 68 -18.5t63 -57.5t58.5 -56t56.5 -17q45 0 80.5 41t70.5 102 q6 6 15 6h24q7 0 11.5 -5t4.5 -13q0 -7 -4 -13q-55 -95 -128.5 -177.5t-192 -189t-200 -180t-152.5 -151.5q16 4 43 4q50 0 136.5 -28.5t133.5 -28.5q51 0 103 22t90 62t51 92q5 14 16 14h25q8 0 13 -6.5t5 -13.5q0 -2 -2 -6q-19 -78 -66 -148.5t-115.5 -116t-146.5 -45.5 q-39 0 -66 18t-63.5 57.5t-59.5 57t-56 17.5q-102 0 -183 -143q-7 -7 -14 -7h-25q-16 0 -16 19z" />
<glyph unicode="{" horiz-adv-x="659" d="M55 588v6q33 122 101 216.5t172 94.5q73 0 123.5 -48t50.5 -122q0 -38 -17 -80l-166 -440q-28 -68 -28 -123q0 -61 47 -61q80 0 133.5 85.5t75.5 184.5q4 12 16 12h25q8 0 13 -5.5t5 -12.5q0 -2 -2 -6q-28 -116 -97.5 -214t-172.5 -98q-72 0 -123 49.5t-51 120.5 q0 38 16 80l166 441q27 75 27 123q0 61 -45 61q-81 0 -133.5 -83.5t-77.5 -186.5q-4 -13 -17 -13h-24q-17 0 -17 19z" />
<glyph unicode="|" horiz-adv-x="786" d="M-27 -291q0 50 34.5 86.5t84.5 36.5q33 0 55.5 -20.5t22.5 -53.5q0 -36 -23.5 -68t-58.5 -42q43 -15 86 -15q83 0 140.5 81t82.5 180l193 770q14 59 14 100q0 88 -61 88q-90 0 -157.5 -81.5t-109.5 -188.5q-4 -13 -16 -13h-24q-17 0 -17 19v6q46 123 131 217t197 94 q85 0 139.5 -53t54.5 -135q0 -29 -6 -58l-194 -778q-21 -81 -76 -149.5t-133 -110t-162 -41.5q-73 0 -135 31.5t-62 97.5z" />
<glyph unicode="}" horiz-adv-x="1303" d="M152 -268q0 91 27.5 207t66.5 221q-27 34 -45 67.5t-25.5 65.5t-7.5 80q0 92 45 227.5t123.5 231.5t173.5 96q20 0 20 -21q-6 -33 -20 -33q-66 0 -121 -81t-87 -189t-32 -172q0 -75 39 -127q69 140 173 262t236.5 197.5t280.5 75.5q126 0 198.5 -91t72.5 -219 q0 -125 -65 -253.5t-175 -214t-235 -85.5q-77 0 -130 50t-53 125q0 98 62 98q19 0 31 -11.5t12 -29.5q0 -20 -12.5 -35t-32.5 -20q0 -53 36.5 -88t90.5 -35q102 0 179.5 98.5t118 235t40.5 233.5q0 77 -34.5 132.5t-107.5 55.5q-207 0 -375 -155t-272 -375l174 -223 q39 -50 39 -129q0 -72 -35 -153.5t-97 -137t-136 -55.5q-75 0 -108 49.5t-33 124.5zM207 -272q0 -117 88 -117q47 0 84 38.5t58.5 92.5t21.5 100t-23 76l-147 188q-34 -102 -58 -205t-24 -173z" />
<glyph unicode="~" d="M373 1260q0 15 10.5 27.5t26.5 12.5h725q-54 73 -54 121q0 18 12.5 29.5t28.5 11.5q34 0 41 -32q20 -88 97 -136q20 -13 20 -34q0 -25 -20 -35q-116 -58 -187 -154q-8 -14 -31 -14q-15 0 -28 12t-13 29q0 37 99 121h-690q-16 0 -26.5 12t-10.5 29z" />
<glyph horiz-adv-x="1364" d="M115 45q3 29 32 49l256 172q34 45 78.5 131.5t75.5 172.5t31 137q0 11 -2 20.5t-8 9.5q-70 0 -144 -16t-100 -53q-4 -8 -7 -14.5t-7 -10.5t-13 -4h-18q-21 0 -21 27q25 100 125 158.5t209 58.5q35 0 45 -28t10 -73q0 -97 -43 -219.5t-104 -224.5l772 516q62 41 119 41 q30 0 49.5 -14.5t19.5 -42.5q-5 -31 -32 -50l-256 -172q-33 -44 -78 -130.5t-76 -172.5t-31 -137q0 -31 11 -31q63 0 140.5 17t102.5 53q2 2 8.5 15.5t16.5 13.5h18q11 0 16 -8t5 -19q-17 -67 -69 -116t-122 -75t-141 -26q-57 0 -57 100q0 96 44 219t103 226l-770 -516 q-62 -41 -119 -41q-27 0 -48 14.5t-21 42.5z" />
<glyph unicode="&#xa1;" horiz-adv-x="1260" d="M76 27q1 5 4 17.5t8.5 20t13.5 7.5q125 0 174 14q27 9 39 55l281 1125q4 20 4 28q0 22 -25 25q-38 8 -147 8q-20 0 -20 27q1 5 4 17.5t8.5 20t13.5 7.5h1024q21 0 21 -27l-49 -424q0 -5 -7.5 -11.5t-13.5 -6.5h-18q-21 0 -21 26q12 104 12 160q0 100 -39 145.5t-100 55.5 t-172 10h-190q-56 0 -74 -9.5t-33 -60.5l-280 -1124l-5 -20q0 -24 15 -27q53 -14 209 -14q20 0 20 -27q-7 -29 -11 -37t-24 -8h-602q-20 0 -20 27z" />
<glyph unicode="&#xa2;" horiz-adv-x="1706" d="M98 12q0 1 4 11l1059 1421q24 22 43 22h29q11 0 20 -5.5t11 -16.5l350 -1424q0 -20 -21 -20h-1482q-13 0 -13 12zM281 154h1101l-274 1112z" />
<glyph unicode="&#xa3;" horiz-adv-x="1561" d="M102 500q0 223 126.5 444t333.5 360.5t433 139.5q117 0 214 -42t164 -116.5t103.5 -174.5t36.5 -218q0 -169 -72 -336.5t-199.5 -305t-286.5 -217t-332 -79.5q-154 0 -273 70.5t-183.5 196t-64.5 278.5zM285 434q0 -112 39 -209t118.5 -156t194.5 -59q111 0 213.5 53.5 t189.5 143.5q88 91 154 218t101.5 267t35.5 269q0 111 -38.5 210.5t-117.5 159.5t-194 60q-112 0 -214 -55.5t-192 -145.5q-87 -93 -152 -219t-101.5 -268.5t-36.5 -268.5zM408 582l63 247q4 19 21 19h18q20 0 20 -27l-12 -43h619l14 51q4 19 20 19h19q20 0 20 -27l-63 -248 q-4 -18 -21 -18h-18q-21 0 -21 27l13 43h-619l-14 -52q-4 -18 -21 -18h-18q-20 0 -20 27z" />
<glyph unicode="&#xa4;" horiz-adv-x="1421" d="M72 27q3 21 7 33t19 12q73 0 129.5 35.5t89.5 97.5q7 7 7 6l702 1233q11 22 37 22h27q10 0 18 -5.5t8 -16.5l90 -1325q8 -30 46 -38.5t94 -8.5q20 0 20 -27q-7 -29 -11 -37t-24 -8h-493q-21 0 -21 27q1 5 4 17t8 20t15 8q166 0 176 57l-74 1045l-557 -984 q-14 -21 -14 -47q0 -37 35.5 -54t76.5 -17q21 0 21 -27q-7 -29 -11 -37t-24 -8h-383q-18 0 -18 27z" />
<glyph unicode="&#xa5;" horiz-adv-x="1520" d="M109 27l57 295q2 7 7.5 12.5t12.5 5.5h19q20 0 20 -27q-19 -85 -22 -147q0 -16 4 -16h1016q13 3 26 31.5t29 78.5t20 62q2 7 7.5 12.5t13.5 5.5h18q21 0 21 -27l-90 -295q-9 -18 -21 -18h-1118q-20 0 -20 27zM373 1108l84 272q4 19 20 19h1098q20 0 20 -27l-51 -272 q-2 -7 -8 -13t-12 -6h-19q-20 0 -20 27q16 104 16 125v16h-1003q-8 -1 -19.5 -22t-18.5 -41t-16 -47.5t-12 -38.5q-9 -19 -20 -19h-19q-20 0 -20 27zM428 580l78 305q4 18 20 18h19q20 0 20 -26l-20 -78h674l22 86q4 18 21 18h18q20 0 20 -26l-77 -306q-4 -18 -21 -18h-18 q-21 0 -21 27l21 77h-674l-23 -86q-4 -18 -20 -18h-18q-21 0 -21 27z" />
<glyph unicode="&#xa6;" horiz-adv-x="1702" d="M76 27q1 5 4 17.5t8.5 20t13.5 7.5q125 0 174 14q27 9 39 55l281 1125q4 20 4 28q0 22 -25 25q-38 8 -147 8q-20 0 -20 27q1 5 4 17.5t8.5 20t13.5 7.5h1354q20 0 20 -27q-1 -5 -4 -17.5t-8.5 -20t-13.5 -7.5q-125 0 -174 -14q-27 -9 -39 -56l-281 -1124q-4 -20 -4 -29 q0 -21 25 -24q39 -8 147 -8q21 0 21 -27q-6 -24 -12 -34.5t-23 -10.5h-551q-21 0 -21 27q4 15 6 22t7.5 15t13.5 8q125 0 174 14q27 9 39 55l297 1186h-614l-299 -1194q-5 -25 -5 -29q0 -21 25 -24q39 -8 148 -8q20 0 20 -27q-7 -27 -11.5 -36t-23.5 -9h-551q-20 0 -20 27z " />
<glyph unicode="&#xa7;" horiz-adv-x="1595" d="M121 23q0 10 8 18l647 582l-321 718q-2 7 -2 13q8 45 26 45h1149q21 0 21 -27l-50 -424q0 -6 -7 -12t-13 -6h-18q-21 0 -21 26q8 74 8 111q0 107 -37.5 165.5t-136.5 78.5q-57 11 -124.5 13.5t-170.5 2.5h-407l276 -618q2 -7 2 -9q0 -13 -8 -18l-653 -590h459 q170 0 260.5 8.5t163.5 42.5t133 110.5t114 217.5q9 18 21 18h18q21 0 21 -26l-168 -445q-9 -18 -21 -18h-1149q-20 0 -20 23z" />
<glyph unicode="&#xa8;" horiz-adv-x="1194" d="M57 1114q0 41 45.5 115t81.5 110q49 49 107.5 77t118.5 28q107 0 172.5 -56.5t91.5 -146t26 -194.5q0 -51 -6 -107q55 131 127.5 242t177.5 186.5t232 75.5q63 0 109.5 -31.5t70 -84t23.5 -114.5q0 -118 -41 -118h-27q-18 0 -18 18q0 2 2 4q4 30 4 37q0 43 -23 72.5 t-61 45t-78 15.5q-125 0 -220.5 -93.5t-155.5 -228t-93 -268.5l-139 -565q-4 -16 -4 -20q0 -26 30 -33q47 -8 193 -8q20 0 20 -27q-4 -26 -10 -35.5t-25 -9.5h-655q-20 0 -20 27q1 5 4.5 18t9 20t14.5 7q152 0 203 10q48 9 62 59l139 564q18 47 30.5 139.5t12.5 148.5 q0 79 -19.5 145t-68.5 108t-129 42q-53 0 -103.5 -21.5t-87.5 -59.5t-49 -89q-7 -22 -29 -22h-26q-19 0 -19 18z" />
<glyph unicode="&#xa9;" horiz-adv-x="1364" d="M49 631q0 97 64.5 186t164 154.5t214 104t204.5 38.5l37 152q2 8 2.5 12t1.5 8q0 26 -30 33q-48 8 -195 8q-20 0 -20 27q6 25 11 35t23 10h645q19 0 19 -27q-3 -21 -7 -33t-20 -12q-151 0 -202 -10q-50 -9 -62 -60l-35 -141q96 0 202.5 -43.5t177.5 -123t71 -181.5 q0 -99 -66 -189.5t-168 -156t-218.5 -102.5t-207.5 -37l-37 -150q-4 -16 -4 -20q0 -26 31 -33q47 -8 193 -8q20 0 20 -27q-4 -26 -10 -35.5t-25 -9.5h-643q-20 0 -20 27q1 5 4.5 18t9 20t14.5 7q152 0 203 10q48 9 62 59l34 144q-94 0 -197 44.5t-172 123.5t-69 178z M244 584q0 -211 258 -244l180 719q-195 -23 -316.5 -151.5t-121.5 -323.5zM670 338q131 14 233.5 76t159.5 166.5t57 234.5q0 114 -74.5 173.5t-195.5 72.5z" />
<glyph unicode="&#xaa;" horiz-adv-x="1253" d="M53 1100q0 11 6.5 20.5t16.5 9.5h125q61 0 88.5 -44t27.5 -109q0 -66 -20 -141q-29 -128 -31 -213q0 -106 45 -180.5t144 -100.5l231 924q2 8 2.5 12t1.5 8q0 26 -31 33q-47 8 -194 8q-21 0 -21 27q4 16 7 25t9 14.5t19 5.5h645q19 0 19 -27q-3 -21 -7 -33t-20 -12 q-151 0 -203 -10q-49 -9 -61 -60l-227 -913q89 21 157.5 69t116.5 113t84 148t57 170q33 118 87.5 202t144.5 84h125q8 0 14 -7t6 -15q0 -12 -5 -21.5t-17 -9.5q-74 0 -118.5 -72t-70.5 -169q-36 -152 -117.5 -271t-203 -191.5t-277.5 -88.5l-37 -152q-4 -16 -4 -20 q0 -26 31 -33q47 -8 193 -8q20 0 20 -27q-4 -26 -10 -35.5t-25 -9.5h-643q-20 0 -20 27q1 5 4.5 18t9 20t14.5 7q152 0 203 10q48 9 62 59l34 146q-158 20 -246 115.5t-88 254.5q0 76 25 187q19 68 19 125q0 108 -76 108q-9 0 -15 8t-6 15z" />
<glyph unicode="&#xad;" horiz-adv-x="1581" d="M164 27l4 286q0 6 6.5 12.5t13.5 6.5h19q20 0 20 -27v-55q0 -84 6 -107q39 -10 138 -10h137v8q0 72 -20 142t-54 157l-26 66q-19 49 -37 103.5t-27.5 105.5t-9.5 98q0 138 67.5 254.5t180 201.5t246.5 130t266 45q98 0 189 -26.5t164.5 -78.5t117 -130.5t43.5 -180.5 q0 -119 -61 -230.5t-158.5 -223.5t-200 -229t-150.5 -212h123q57 0 102 5.5t62 25.5q28 42 82 158q10 10 18 10h19q8 0 14 -7t6 -16q0 -4 -2 -8l-141 -289q-4 -12 -16 -12h-342q-21 0 -21 27q28 116 78.5 207t167 282.5t168 313.5t51.5 247q0 94 -39.5 165.5t-111.5 110 t-164 38.5q-87 0 -170.5 -32t-155 -91t-119.5 -131q-59 -86 -88 -192.5t-29 -217.5q0 -43 6.5 -115.5t14.5 -144.5t13 -123.5t5 -114.5q0 -115 -22 -211q-4 -18 -21 -18h-342q-20 0 -20 27z" />
<glyph unicode="&#xae;" horiz-adv-x="1309" d="M82 324q0 139 77.5 275t206 221t269.5 85q104 0 183 -54.5t120 -145t41 -193.5l2 -137q70 97 118.5 201.5t74.5 216.5q4 12 16 12h24q19 0 19 -19q0 -2 -2 -6q-24 -94 -60 -180.5t-84.5 -167.5t-105.5 -147q0 -254 59 -254q38 0 62.5 22.5t43 55.5t23.5 34h25 q16 0 16 -20q0 -51 -58.5 -98.5t-115.5 -47.5q-74 0 -123 48t-67 125q-96 -82 -208 -127.5t-226 -45.5q-97 0 -172.5 46t-116.5 124t-41 177zM240 244q0 -89 45.5 -151t130.5 -62q219 0 420 180q-1 12 -3 29.5t-2 19.5v221q0 371 -200 371q-120 0 -210 -102.5t-135.5 -245 t-45.5 -260.5z" />
<glyph unicode="&#xaf;" horiz-adv-x="1157" d="M39 -377l315 1266q27 102 79 198t130.5 178.5t172.5 130.5t200 48q76 0 137.5 -33.5t97 -94t35.5 -136.5q0 -73 -28 -139.5t-78 -124t-107 -93.5q33 -21 59 -53.5t42 -68t25 -79t9 -81.5q0 -105 -45 -207t-122.5 -185t-177.5 -131.5t-205 -48.5q-115 0 -207 63t-127 171 l-148 -588q0 -12 -16 -12h-25q-6 0 -11 7t-5 13zM285 319q0 -128 84 -211t213 -83q92 0 166.5 60.5t123 152t74 194t25.5 186.5q0 104 -60 164q-70 -26 -137 -26q-162 0 -162 55q0 72 185 72q66 0 121 -21q44 34 80 100t54.5 138t18.5 135q0 67 -35.5 111.5t-103.5 44.5 q-125 0 -232.5 -77t-181.5 -194.5t-106 -242.5l-113 -453q-11 -47 -14 -105zM674 817q31 -8 102 -8q35 0 70 12q-2 2 -8 2q-22 6 -47 6q-93 0 -117 -12z" />
<glyph unicode="&#xb0;" horiz-adv-x="1059" d="M33 528v7q23 92 81.5 177.5t143 139t178.5 53.5q96 0 166 -65t112 -165t60.5 -202t18.5 -192q103 280 231 530l31 66q6 6 14 6h25q16 0 16 -19q0 -4 -4 -12l-31 -64q-89 -177 -163.5 -359t-127.5 -351q-8 -69 -30.5 -189t-54.5 -223.5t-64 -107.5q-31 0 -31 41 q0 46 20.5 134t50 187.5t50.5 163.5q8 102 8 154q0 132 -26 245.5t-98 190t-201 76.5q-68 0 -135.5 -29t-116 -81t-66.5 -118q-4 -12 -16 -12h-25q-16 0 -16 18z" />
<glyph unicode="&#xb1;" horiz-adv-x="909" d="M82 317q0 128 60.5 248.5t165 208.5t227.5 119q-60 111 -91.5 191.5t-31.5 164.5q0 62 29 109.5t80 74.5t114 27q61 0 242 -41q47 -11 47 -55q0 -34 -25 -62t-59 -28q-25 0 -45 11.5t-63 40.5t-77 44.5t-71 15.5q-42 0 -75.5 -25.5t-33.5 -66.5q0 -65 57.5 -149.5 t163.5 -216.5q121 -154 121 -340q0 -92 -26.5 -199t-77 -202t-129 -156.5t-174.5 -61.5q-71 0 -132 26.5t-106.5 76.5t-67.5 111.5t-22 133.5zM217 258q0 -98 51 -165.5t146 -67.5q80 0 137.5 83t87 197.5t29.5 192.5q0 153 -107 344q-108 -30 -186 -126t-118 -221t-40 -237 z" />
<glyph unicode="&#xb2;" horiz-adv-x="829" d="M92 365q0 106 43 201.5t119 166.5t172 110.5t201 39.5h116q31 0 31 -31q0 -17 -11.5 -29t-27.5 -12h-112q-82 0 -148.5 -36t-111.5 -100t-70 -145h362q14 0 22.5 -8.5t8.5 -21.5q0 -17 -11 -29t-28 -12h-373q-22 -106 -22 -170q0 -69 25 -128t75.5 -94.5t118.5 -35.5 q46 0 98 20t96.5 44t45.5 24q11 0 17.5 -12.5t6.5 -24.5q0 -11 -6 -14q-128 -91 -260 -91q-108 0 -195 50.5t-134.5 140.5t-47.5 197z" />
<glyph unicode="&#xb3;" horiz-adv-x="895" d="M94 336q0 117 42.5 250t117.5 258t173 224.5t204 154.5q-21 42 -21 98q0 111 43 111q11 0 19 -8t8 -19q0 -15 -5 -46.5t-5 -39.5q0 -37 12 -72q53 21 98 21q189 0 189 -58q0 -69 -209 -69q-62 0 -98 37q-88 -50 -169.5 -140t-144.5 -202t-98 -226t-35 -217 q0 -221 201 -291l219 -73q69 -21 112.5 -73.5t43.5 -125.5q0 -59 -30 -117.5t-81 -95.5t-113 -37q-49 0 -127 32.5t-78 68.5q5 24 29 24q4 0 35.5 -20.5t67 -36t77.5 -15.5q44 0 73.5 41t29.5 88t-31 80t-78 49l-209 70q-128 44 -195 140.5t-67 234.5zM719 1204q-2 0 18 -8 q9 0 14.5 -0.5t12.5 -1.5q98 0 141 12q-39 8 -125 8q-28 0 -61 -10z" />
<glyph unicode="&#xb4;" horiz-adv-x="1016" d="M55 590q22 89 42.5 151t64 113t108.5 51q76 0 135.5 -48t59.5 -124q60 80 141 126t176 46q107 0 171.5 -57.5t64.5 -163.5q0 -61 -14 -113l-238 -948q-6 -29 -30 -47t-54 -18q-25 0 -43 15.5t-18 41.5q0 12 2 16l235 944q21 84 21 140q0 57 -24 97t-77 40 q-201 0 -334 -248l-139 -559q-7 -28 -31.5 -48t-54.5 -20q-25 0 -43 16t-18 42q0 12 2 18l153 611q15 57 15 100q0 88 -60 88q-64 0 -95 -76.5t-60 -193.5q0 -6 -6 -9.5t-11 -3.5h-24q-7 0 -12 7.5t-5 13.5z" />
<glyph unicode="&#xb5;" horiz-adv-x="961" d="M82 399v2q0 102 19.5 212t56.5 219.5t80 195.5q30 60 77.5 134t106 138.5t126 104t136.5 39.5h2q74 0 123.5 -41t77 -105t38.5 -137t11 -139q0 -155 -42 -316.5t-116 -312.5q-28 -57 -77.5 -134t-105 -138t-124.5 -102.5t-139 -41.5h-2q-93 0 -149 68t-77.5 164 t-21.5 190zM223 270q0 -239 111 -239q68 0 130.5 72.5t109.5 176t82.5 212t52.5 184.5h-418q-32 -129 -50 -222.5t-18 -183.5zM307 748h420q22 90 35 150.5t22 127.5t9 125q0 240 -109 240q-130 0 -224.5 -209.5t-152.5 -433.5z" />
<glyph unicode="&#xb6;" horiz-adv-x="723" d="M111 147q0 38 16 80q82 219 180 613q8 29 32 47t54 18q27 0 44.5 -16t17.5 -43q0 -5 -4 -19q-21 -82 -53 -202t-61.5 -216t-66.5 -194q-28 -68 -28 -123q0 -61 47 -61q73 0 140 37.5t115 99t66 133.5q4 12 17 12h24q8 0 13.5 -5.5t5.5 -12.5q0 -2 -2 -6 q-21 -86 -78 -156.5t-138.5 -113t-166.5 -42.5q-73 0 -123.5 48.5t-50.5 121.5z" />
<glyph unicode="&#xb8;" horiz-adv-x="1194" d="M104 35q0 30 27 57l576 565l-203 570q-24 65 -50.5 103t-76.5 38q-23 0 -23 27q2 12 10 19t21 7q215 0 260 -127l416 -1161q27 -87 55 -117q10 -15 10 -20q0 -19 -16 -19h-111q-51 15 -81 89l-187 524l-495 -582q-37 -35 -66 -35q-26 0 -46 18t-20 44z" />
<glyph unicode="&#xb9;" horiz-adv-x="1233" d="M57 -385q0 12 2 16l301 1209q9 29 32.5 47t53.5 18q26 0 44 -15.5t18 -41.5q0 -6 -0.5 -9.5t-1.5 -7.5l-121 -479q-20 -85 -20 -147q0 -76 36 -125t109 -49q149 0 262 186l2 3v3l148 594q7 27 32 46.5t54 19.5q24 0 42.5 -16t18.5 -42q0 -12 -2 -16l-147 -590 q-15 -58 -15 -100q0 -88 60 -88q64 0 96.5 79t56.5 191q4 12 17 12h24q8 0 13.5 -6.5t5.5 -13.5q-36 -143 -78.5 -229.5t-138.5 -86.5q-68 0 -120.5 39t-68.5 105q-51 -64 -119.5 -104t-144.5 -40q-128 0 -201 60l-104 -414q-6 -29 -30 -47t-54 -18q-25 0 -43.5 15.5 t-18.5 41.5z" />
<glyph unicode="&#xba;" horiz-adv-x="1012" d="M104 27l175 696q8 35 10 55q0 33 -133 33q-21 0 -21 27q1 5 4.5 18t9 20t15.5 7l276 22q25 0 25 -26l-201 -803q162 54 298.5 169t231 271t136.5 324q8 29 32 47t54 18q27 0 44 -16t17 -43q0 -33 -27 -100.5t-53 -120.5q-81 -161 -215 -295q-84 -84 -180.5 -149 t-201.5 -110.5t-222 -70.5h-49q-25 0 -25 27z" />
<glyph unicode="&#xbb;" horiz-adv-x="895" d="M47 209q0 79 42 164.5t108 155t141 112.5q-60 36 -93.5 92.5t-33.5 124.5q0 72 29.5 134t80.5 113t114 86.5t128 53.5q-10 42 -10 76q0 111 43 111q11 0 19 -8t8 -19q0 -10 -5.5 -44t-5.5 -42q0 -35 9 -62q53 11 102 11q188 0 188 -58q0 -69 -209 -69q-64 0 -104 43 q-59 -30 -109 -85t-78 -122.5t-28 -136.5q0 -96 55 -154q73 25 146 25q188 0 188 -58q0 -69 -209 -69q-85 0 -160 26q-91 -49 -167 -149t-76 -193q0 -60 43.5 -105.5t107.5 -72.5l363 -141q47 -18 76.5 -57.5t29.5 -90.5q0 -84 -64.5 -152.5t-148.5 -68.5q-26 0 -85 14 t-103.5 37t-44.5 50q3 24 28 24q2 0 38.5 -20t80.5 -36t88 -16q38 0 64 32.5t26 70.5q0 54 -57 76l-348 135q-90 35 -148.5 104.5t-58.5 157.5zM500 647q27 -10 67 -10q99 0 142 12q-39 8 -127 8q-35 0 -82 -10zM657 1206q18 -12 50 -12q98 0 141 12h-191z" />
<glyph unicode="&#xbc;" horiz-adv-x="1167" d="M49 602q0 4 4 12q67 114 143.5 191.5t172.5 77.5h743q21 0 36 -14t15 -38q0 -30 -21.5 -52.5t-51.5 -22.5h-261q-33 -161 -36 -314q0 -197 69 -356q6 -12 6 -25q0 -22 -13 -41t-33.5 -31t-43.5 -12q-54 0 -74 88t-20 171q0 117 20 225.5t64 294.5h-223 q-162 -656 -195 -723q-29 -56 -80 -56q-25 0 -44 16.5t-19 41.5q0 11 8 33q57 119 106.5 233.5t89 223t72.5 231.5h-131q-75 0 -140 -47t-108 -119q-4 -8 -12 -8h-24q-19 0 -19 20z" />
<glyph unicode="&#xbd;" horiz-adv-x="1059" d="M57 -385q0 12 2 16l203 818q29 110 99.5 215.5t170.5 173t211 67.5q89 0 155.5 -46.5t100 -122t33.5 -165.5q0 -99 -40.5 -205t-112 -194t-164.5 -141.5t-195 -53.5q-60 0 -113 35.5t-83 93.5l-121 -483q-6 -29 -30 -47t-54 -18q-25 0 -43.5 15.5t-18.5 41.5zM350 207 q13 -74 58.5 -125t115.5 -51q109 0 189.5 111.5t123 262t42.5 254.5q0 78 -34 135.5t-106 57.5q-89 0 -157 -67.5t-109 -158.5t-67 -190z" />
<glyph unicode="&#xbe;" horiz-adv-x="1169" d="M74 301q0 95 43 200t117.5 192t168.5 138.5t193 51.5h516q21 0 36 -14t15 -38q0 -30 -21.5 -52.5t-51.5 -22.5h-250q59 -88 59 -213q0 -103 -40 -203t-111 -182.5t-165.5 -131.5t-199.5 -49q-91 0 -161.5 43.5t-109 117.5t-38.5 163zM209 242q0 -88 46.5 -149.5 t129.5 -61.5q112 0 198.5 87.5t132.5 214t46 234.5q0 88 -48.5 138.5t-135.5 50.5q-119 0 -202.5 -80t-125 -201t-41.5 -233z" />
<glyph unicode="&#xbf;" horiz-adv-x="895" d="M49 602q0 4 4 12q67 114 143.5 191.5t172.5 77.5h628q22 0 37 -15t15 -37q0 -30 -21.5 -52.5t-52.5 -22.5h-371l-137 -707q-8 -33 -30 -54.5t-56 -21.5q-26 0 -44 16.5t-18 41.5q0 14 3 22l215 703h-185q-75 0 -140 -47t-108 -119q-4 -8 -12 -8h-24q-19 0 -19 20z" />
<glyph unicode="&#xc0;" horiz-adv-x="1106" d="M55 588v6q33 122 101 216.5t172 94.5q73 0 123.5 -48t50.5 -122q0 -38 -17 -80q-7 -18 -46.5 -123t-58 -174.5t-18.5 -132.5q0 -92 53.5 -143t147.5 -51q100 0 196 93.5t157 225t61 223.5q0 59 -19 93.5t-52.5 74.5t-33.5 60q0 39 33.5 72.5t73.5 33.5q49 0 70.5 -45 t21.5 -102q0 -102 -36 -236t-103 -260.5t-163.5 -206.5t-207.5 -80q-148 0 -244 65t-96 206q0 44 11.5 96.5t27 100.5t42.5 117.5t40 105.5q27 75 27 123q0 61 -45 61q-81 0 -133.5 -83.5t-77.5 -186.5q-4 -13 -17 -13h-24q-17 0 -17 19z" />
<glyph unicode="&#xc1;" horiz-adv-x="1219" d="M96 344q0 111 55 212t150.5 183.5t205.5 127t218 44.5l123 498q4 12 16 12h25q8 0 13 -7t5 -13l-123 -490q77 0 149 -28t127.5 -78.5t86.5 -119t31 -146.5q0 -111 -55 -212t-148 -182t-207.5 -127.5t-218.5 -46.5l-94 -379q-4 -12 -17 -12h-24q-8 0 -12.5 7.5t-4.5 13.5 l92 370q-104 0 -194 48.5t-144.5 135.5t-54.5 189zM238 301q0 -77 33 -140t93 -99.5t138 -36.5l209 833q-52 0 -109 -21t-107.5 -53t-91.5 -73q-50 -50 -88 -118t-57.5 -143.5t-19.5 -148.5zM563 25q77 0 164 44t143 103q77 76 121.5 186.5t44.5 223.5q0 76 -33 139.5 t-93 100t-138 36.5z" />
<glyph unicode="&#xc2;" horiz-adv-x="1280" d="M59 -371q0 14 9 21l501 557q-34 124 -76.5 258.5t-102 260.5t-105.5 126q-40 0 -63 -22t-40.5 -54.5t-23.5 -34.5h-25q-6 0 -11 7t-5 14q0 33 28.5 66.5t70 55t77.5 21.5q81 0 147 -29t99 -94q29 -62 56 -133.5t51.5 -152.5t45.5 -154l475 528q10 13 25 13 q12 0 20.5 -7.5t8.5 -19.5q0 -13 -9 -20l-501 -557q24 -91 72 -242.5t106.5 -277.5t105.5 -126q38 0 62 22.5t42 54.5t23 34h25q16 0 16 -20q0 -51 -60.5 -97.5t-115.5 -46.5q-80 0 -146 29t-98 94q-76 162 -155 440l-475 -528q-10 -12 -25 -12q-10 0 -19.5 8.5t-9.5 17.5z " />
<glyph unicode="&#xc3;" horiz-adv-x="1333" d="M55 588v6q33 122 101 216.5t172 94.5q73 0 123.5 -48t50.5 -122q0 -38 -17 -80q-36 -93 -57 -148t-40 -124.5t-19 -124.5q0 -100 62.5 -155t164.5 -68l344 1374q4 12 16 12h25q16 0 16 -20l-342 -1370h23q86 0 181.5 51t174 134t124.5 178.5t46 178.5q0 62 -20 96.5 t-52 72t-32 59.5q0 40 33 73t73 33q49 0 70.5 -45t21.5 -102q0 -60 -12 -120t-33 -142q-47 -187 -196 -336q-51 -51 -112.5 -93.5t-130 -67t-138.5 -24.5h-33l-96 -385q-4 -12 -17 -12h-24q-8 0 -13.5 6.5t-5.5 14.5l97 381q-89 0 -172.5 33.5t-135 98.5t-51.5 158 q0 53 19 121t40.5 125t57.5 150q27 75 27 123q0 61 -45 61q-81 0 -133.5 -83.5t-77.5 -186.5q-4 -13 -17 -13h-24q-17 0 -17 19z" />
<glyph unicode="&#xc4;" horiz-adv-x="567" d="M535 1122v6q19 76 96.5 130t176 79t181.5 25q51 0 111.5 -11t113.5 -34t88 -64t35 -98q0 -53 -22 -53h-25q-6 0 -11 7.5t-5 14.5q2 10 2.5 14t1.5 9q0 53 -52 85t-121.5 45t-123.5 13q-64 0 -150.5 -18t-155 -57.5t-83.5 -98.5q0 -14 -17 -14h-24q-5 0 -10.5 6.5 t-5.5 13.5z" />
<glyph unicode="&#x2000;" horiz-adv-x="768" />
<glyph unicode="&#x2001;" horiz-adv-x="1536" />
<glyph unicode="&#x2002;" horiz-adv-x="768" />
<glyph unicode="&#x2003;" horiz-adv-x="1536" />
<glyph unicode="&#x2004;" horiz-adv-x="512" />
<glyph unicode="&#x2005;" horiz-adv-x="384" />
<glyph unicode="&#x2006;" horiz-adv-x="256" />
<glyph unicode="&#x2007;" horiz-adv-x="256" />
<glyph unicode="&#x2008;" horiz-adv-x="192" />
<glyph unicode="&#x2009;" horiz-adv-x="307" />
<glyph unicode="&#x200a;" horiz-adv-x="85" />
<glyph unicode="&#x2010;" horiz-adv-x="567" d="M115 512q0 15 11 28t28 13q79 0 148 41.5t69 116.5q0 50 -33.5 86t-83 53.5t-100.5 17.5q-17 0 -28 13t-11 28q0 19 13 30t32 11q112 0 202.5 -65.5t90.5 -173.5q0 -74 -43 -128t-110.5 -83t-139.5 -29q-19 0 -32 11t-13 30z" />
<glyph unicode="&#x2011;" horiz-adv-x="567" d="M115 512q0 15 11 28t28 13q79 0 148 41.5t69 116.5q0 50 -33.5 86t-83 53.5t-100.5 17.5q-17 0 -28 13t-11 28q0 19 13 30t32 11q112 0 202.5 -65.5t90.5 -173.5q0 -74 -43 -128t-110.5 -83t-139.5 -29q-19 0 -32 11t-13 30z" />
<glyph unicode="&#x2012;" horiz-adv-x="567" d="M115 512q0 15 11 28t28 13q79 0 148 41.5t69 116.5q0 50 -33.5 86t-83 53.5t-100.5 17.5q-17 0 -28 13t-11 28q0 19 13 30t32 11q112 0 202.5 -65.5t90.5 -173.5q0 -74 -43 -128t-110.5 -83t-139.5 -29q-19 0 -32 11t-13 30z" />
<glyph unicode="&#x2013;" horiz-adv-x="1253" d="M115 512q0 15 33.5 28t84.5 13q239 0 448.5 41.5t209.5 116.5q0 50 -101.5 86t-251.5 53.5t-305 17.5q-51 0 -84.5 13t-33.5 28q0 19 39.5 30t96.5 11q340 0 614 -65.5t274 -173.5q0 -74 -130.5 -128t-335 -83t-422.5 -29q-57 0 -96.5 11t-39.5 30z" />
<glyph unicode="&#x2014;" horiz-adv-x="2277" d="M115 512q0 15 66.5 28t169.5 13q479 0 897 41.5t418 116.5q0 50 -203 86t-503 53.5t-609 17.5q-103 0 -169.5 13t-66.5 28q0 19 79 30t194 11q678 0 1226.5 -65.5t548.5 -173.5q0 -74 -260.5 -128t-669.5 -83t-845 -29q-115 0 -194 11t-79 30z" />
<glyph unicode="&#x202f;" horiz-adv-x="307" />
<glyph unicode="&#x205f;" horiz-adv-x="384" />
<glyph unicode="&#x2219;" horiz-adv-x="1180" d="M109 35q0 12 2 18l196 787q8 29 32 47t54 18q26 0 44 -15.5t18 -41.5q0 -6 -0.5 -9.5t-1.5 -7.5l-74 -296q82 27 218 140.5t205.5 160.5t170.5 47q33 0 55.5 -20.5t22.5 -55.5q0 -48 -34.5 -81.5t-82.5 -33.5q-33 0 -55.5 21.5t-22.5 54.5q0 23 8 39q-49 -20 -100.5 -56 t-93.5 -72.5t-101 -85.5t-106 -75q84 0 172 -18t152.5 -66t64.5 -131q0 -33 -8 -57q-19 -82 -19 -123q0 -92 64 -92q73 0 112 81t64 189q4 12 16 12h25q8 0 13 -5.5t5 -12.5q0 -2 -2 -6q-75 -312 -237 -312q-58 0 -102.5 27t-68.5 73.5t-24 104.5q0 37 8 68q7 28 7 47 q0 66 -58.5 104t-138 52t-148.5 14l-104 -422q-7 -28 -31.5 -48t-54.5 -20q-25 0 -43 16t-18 42z" />
<glyph unicode="&#xe000;" horiz-adv-x="905" d="M0 905h905v-905h-905v905z" />
</font>
</defs>
</svg>
