<?xml version="1.0" standalone="no"?>
<!DOCTYPE svg PUBLIC "-//W3C//DTD SVG 1.1//EN" "http://www.w3.org/Graphics/SVG/1.1/DTD/svg11.dtd" >
<svg xmlns="http://www.w3.org/2000/svg">
<metadata>
This is a custom SVG webfont generated by Font Squirrel.
Copyright   : Copyright C 1994 Basil K Malyshev All Rights Reserved012BaKoMa Fonts Collection LevelB
</metadata>
<defs>
<font id="cmmi5Regular" horiz-adv-x="1507" >
<font-face units-per-em="2048" ascent="1638" descent="-410" />
<missing-glyph horiz-adv-x="500" />
<glyph unicode=" "  horiz-adv-x="500" />
<glyph unicode="&#x09;" horiz-adv-x="500" />
<glyph unicode="&#xa0;" horiz-adv-x="500" />
<glyph unicode="!" horiz-adv-x="1815" d="M168 336q0 274 223 528q15 19 39 19q19 0 32 -12t13 -31q0 -7 -4 -15q-1 -8 -31.5 -47.5t-60.5 -79.5q-5 -7 -11 -16t-10 -14q-88 -150 -88 -267q0 -104 62.5 -171.5t165.5 -67.5q78 0 153 38.5t131 98.5v16q0 105 29 200t109 95q35 0 54 -25t19 -61q0 -46 -27.5 -116 t-60.5 -127q23 -57 68.5 -88t107.5 -31q97 0 200 56.5t171 149t68 189.5q0 59 -18 85.5t-58.5 67.5t-40.5 72q0 48 37.5 86.5t85.5 38.5q61 0 91 -56t30 -124q0 -110 -42 -244t-104 -229q-81 -120 -199 -198.5t-251 -78.5q-83 0 -147.5 45.5t-94.5 124.5 q-70 -76 -159.5 -123t-182.5 -47q-73 0 -130.5 30t-95 81.5t-55.5 114.5t-18 133z" />
<glyph unicode="&#x22;" horiz-adv-x="1380" d="M186 233q0 78 51.5 145t127.5 111q-82 59 -82 138q0 102 98 170t232 99.5t233 31.5q41 0 122.5 -15t144.5 -44.5t63 -69.5q0 -31 -22.5 -54.5t-53.5 -23.5q-17 0 -29 6q-120 68 -246 68q-69 0 -176 -14t-189.5 -50.5t-82.5 -101.5q0 -54 78 -94q112 40 231 40 q78 0 139.5 -12.5t61.5 -58.5q0 -57 -68.5 -73.5t-156.5 -16.5q-122 0 -211 32q-65 -32 -116.5 -86t-51.5 -114q0 -95 113.5 -126.5t242.5 -31.5q91 0 158.5 6t130.5 31t98 78q8 14 31 14q33 -7 33 -35q0 -2 -1 -7t-2 -9q-15 -60 -99.5 -114t-160.5 -72q-88 -25 -209 -25 q-63 0 -137.5 14.5t-144 49t-110 88.5t-40.5 126zM598 494q58 -5 70 -5q75 0 104 7q-24 4 -88 4q-42 0 -86 -6z" />
<glyph unicode="#" horiz-adv-x="1751" d="M182 588q0 2 2 12q16 68 50.5 139.5t87.5 118.5t122 47q101 0 179.5 -51.5t78.5 -146.5q0 -25 -6 -48l-78 -309q-20 -90 -20 -133q0 -89 53 -126.5t148 -37.5q128 0 264 217q55 93 91.5 197.5t68.5 234.5q-112 25 -213 65.5t-168.5 113t-67.5 182.5q0 97 51 185 t137.5 142t184.5 54q109 0 179.5 -71t101 -176t30.5 -216t-26 -238q66 -12 104 -16q27 -8 27 -33l-9 -26q-2 -8 -11.5 -12.5t-16.5 -4.5q-34 6 -59 9.5t-54 7.5q-41 -148 -130 -307.5t-217.5 -271.5t-270.5 -112q-106 0 -188 20.5t-134.5 79t-52.5 163.5q0 61 14 116l78 310 q8 40 8 59q0 45 -19.5 74.5t-60.5 29.5q-67 0 -100.5 -69t-65.5 -182q-3 -15 -24 -19h-43q-25 7 -25 29zM868 1067q0 -86 58 -144.5t137.5 -89.5t177.5 -55q47 186 47 316q0 104 -31.5 189t-115.5 85q-74 0 -136 -43.5t-99.5 -113.5t-37.5 -144z" />
<glyph unicode="$" horiz-adv-x="2343" d="M176 602q0 5 8 19q48 68 107 126.5t131 97t147 38.5h1569q28 0 47 -19t19 -49q0 -37 -27.5 -65.5t-65.5 -28.5h-77q22 -68 22 -135q0 -100 -46.5 -209t-126.5 -199t-181.5 -145.5t-206.5 -55.5q-131 0 -209 95t-78 229q-60 -90 -140 -163.5t-176.5 -117t-199.5 -43.5 q-120 0 -185 87.5t-65 211.5q0 226 191 445h-84q-85 0 -161.5 -36t-123.5 -103q-4 -4 -18 -9h-43q-27 9 -27 29zM545 328q0 -81 47 -135t127 -54q119 0 228.5 64.5t186 169t105.5 221.5q8 13 25 18h43q24 -7 24 -28q0 -2 -2 -13q-18 -73 -18 -153q0 -117 51 -198t160 -81 q108 0 210 65.5t166 170.5t64 211q0 69 -29 135h-1183q-89 -90 -147 -192.5t-58 -200.5z" />
<glyph unicode="%" horiz-adv-x="1487" d="M287 -119q0 77 26 227t65.5 289.5t74.5 198.5q53 88 132.5 158t178.5 110.5t199 40.5q80 0 150.5 -26.5t121.5 -73.5t79.5 -113t28.5 -147q0 -110 -50 -212.5t-136 -183t-194 -126.5t-215 -46q-104 0 -192 47.5t-136 135.5q-29 -143 -29 -223q0 -38 8 -60t27 -35.5 t55 -23.5q42 -10 88 -12.5t119 -2.5q305 0 367 -30q49 -29 49 -97q0 -64 -31 -73h-43q-26 6 -26 30q0 7 2 9q0 12 -88 12q-41 0 -126 -6t-128 -6q-124 0 -198.5 12t-126.5 65t-52 162zM551 272q0 -95 53 -157t148 -62q124 0 215 91t137.5 225.5t46.5 253.5q0 60 -22 106 t-66 73t-105 27q-92 0 -169.5 -52t-130.5 -137.5t-80 -182t-27 -185.5z" />
<glyph unicode="&#x26;" horiz-adv-x="1184" d="M193 444q0 148 106.5 253t263.5 156.5t299 51.5q89 0 181 -15.5t92 -62.5q0 -21 -17 -38t-37 -17q-10 0 -89.5 28.5t-135.5 28.5q-74 0 -163 -17.5t-168.5 -54t-132 -97.5t-52.5 -142q0 -59 42 -103t105 -73l371 -158q51 -22 81 -64.5t30 -96.5q0 -59 -31.5 -116 t-85 -92.5t-115.5 -35.5q-50 0 -111 15.5t-61 47.5q7 35 41 35q14 0 62.5 -11t70.5 -11q31 0 52.5 29t21.5 59q0 46 -53 69l-348 150q-95 41 -157 114.5t-62 167.5z" />
<glyph unicode="'" horiz-adv-x="1880" d="M231 397q0 77 29.5 169.5t79 174t109.5 133.5q8 6 18 9h43q25 -7 25 -29q0 -7 -7 -18q-77 -69 -138.5 -195t-61.5 -223q0 -225 411 -268l49 155q48 147 125.5 282t192.5 226.5t254 91.5q90 0 162 -40t112.5 -113t40.5 -162q0 -135 -70 -249t-184.5 -194.5t-252.5 -125 t-265 -44.5q-19 1 -42 2t-36 1l-61 -338q-11 -40 -39.5 -64t-69.5 -24q-33 0 -56.5 19.5t-23.5 53.5q0 9 2.5 17.5t4.5 15.5l106 336q-115 20 -219 68.5t-171 132t-67 200.5zM854 141q25 -2 74 -2q116 0 233 29t209 84q87 53 147 132.5t60 170.5q0 61 -35 103.5t-92.5 63.5 t-116.5 21q-108 0 -206 -67t-163 -173t-83 -212z" />
<glyph unicode="(" horiz-adv-x="2787" d="M256 485v31q0 19 20 27q111 50 210.5 124t181.5 169.5t137 201.5q7 19 26 19h54q14 0 22 -10.5t8 -22.5q0 -10 -2 -14q-39 -80 -97.5 -164.5t-125.5 -152t-145 -124.5h1933q23 0 38 -16.5t15 -40.5t-15 -40.5t-38 -16.5h-2191q-11 0 -21 10t-10 20z" />
<glyph unicode=")" horiz-adv-x="2787" d="M256 510v29q0 12 10 21t21 9h2191q23 0 38 -16.5t15 -40.5t-15 -40.5t-38 -16.5h-1933q118 -84 211.5 -197t156.5 -244q2 -4 2 -14q0 -12 -8 -22.5t-22 -10.5h-54q-19 0 -26 19q-55 106 -137 201.5t-181.5 169.5t-210.5 124q-20 8 -20 29z" />
<glyph unicode="*" horiz-adv-x="2787" d="M256 512q0 22 15.5 39.5t39.5 17.5h1932q-68 51 -114 93.5t-96.5 102.5t-88 119t-70.5 126q-2 4 -2 14q0 12 8.5 22.5t22.5 10.5h53q19 0 26 -19q88 -165 225 -292.5t306 -202.5q8 -4 13 -11t5 -16v-31q0 -10 -9 -20t-21 -10h-2190q-24 0 -39.5 17.5t-15.5 39.5z" />
<glyph unicode="+" horiz-adv-x="2787" d="M256 512q0 22 15.5 39.5t39.5 17.5h2190q7 0 14 -4.5t11.5 -11.5t4.5 -14v-29q0 -20 -18 -29q-112 -49 -212 -124t-182 -170t-137 -201q-7 -19 -26 -19h-53q-13 0 -22 10.5t-9 22.5q0 10 2 14q63 131 157.5 244.5t211.5 196.5h-1932q-24 0 -39.5 17.5t-15.5 39.5z" />
<glyph unicode="," horiz-adv-x="938" d="M256 750v12q0 89 55 155.5t140.5 102t171.5 35.5q49 0 59 -51v-13q-10 -45 -53 -51q-60 0 -119.5 -20.5t-99 -61.5t-39.5 -102q0 -89 81 -138t177 -49q44 -6 53 -51v-12q-10 -51 -59 -51q-89 0 -173.5 35.5t-139 103t-54.5 156.5z" />
<glyph unicode="-" horiz-adv-x="938" d="M256 506v12q9 45 55 51q96 0 176 49t80 138q0 61 -39 102t-98 61.5t-119 20.5q-45 6 -55 51v13q5 24 21 37.5t40 13.5q66 0 130 -20t117 -58t85.5 -92t32.5 -123v-12q0 -89 -54.5 -156.5t-138.5 -103t-172 -35.5q-51 0 -61 51z" />
<glyph unicode="." d="M182 -88v1200q11 51 58 51q10 0 30 -8l1028 -594q20 -12 27 -43v-12q-7 -31 -27 -43l-1028 -594q-20 -8 -30 -8q-47 0 -58 51zM297 18l856 494l-856 494v-988z" />
<glyph unicode="/" d="M182 506v12q6 29 29 43l1028 594q16 8 29 8q46 0 57 -51v-1200q-11 -51 -57 -51q-13 0 -29 8l-1028 594q-23 14 -29 43zM354 512l856 -494v988z" />
<glyph unicode="0" d="M217 436q0 251 140.5 371.5t396.5 120.5t396 -120.5t140 -371.5q0 -166 -65 -273.5t-185.5 -157.5t-285.5 -50q-166 0 -286 49.5t-185.5 157.5t-65.5 274zM424 459q0 -155 19 -242t90 -136.5t221 -49.5q149 0 220 49.5t90 136.5t19 242q0 110 -10 180.5t-43 118t-99 71 t-177 23.5q-109 0 -175 -23.5t-100 -72.5t-44.5 -117t-10.5 -180z" />
<glyph unicode="1" d="M350 772v37q0 22 31 31q88 0 160.5 5.5t145.5 25t132 55.5q3 1 6 1.5t6 0.5h13q7 0 14 -5t11.5 -12t4.5 -14v-745q0 -33 37 -43q60 -11 252 -11q8 0 15 -4t11.5 -12t4.5 -14v-37q0 -12 -10.5 -21.5t-22.5 -9.5h-764q-11 0 -21.5 9.5t-10.5 21.5v37q0 11 9.5 20.5 t20.5 9.5q193 0 252 11q37 10 37 43v616q-115 -27 -297 -27q-14 0 -25.5 8.5t-11.5 22.5z" />
<glyph unicode="2" d="M229 31v43q3 14 19 22l483 246q52 25 101.5 49.5t99.5 59.5t80 77.5t30 96.5q0 204 -399 204q-170 0 -244 -57q52 -25 52 -86q0 -40 -29 -69t-68 -29q-40 0 -69 29t-29 69q0 78 46.5 128.5t117.5 74.5t144.5 31.5t154.5 7.5q134 0 252.5 -21.5t205.5 -89t87 -192.5 q0 -79 -44 -132.5t-110 -87t-164.5 -67.5t-132.5 -49l-235 -105h135q354 0 413 4q13 15 27.5 53.5t22 55t24.5 20.5h33q13 0 22 -10.5t9 -21.5v-9l-68 -249q-7 -27 -31 -27h-905q-11 0 -21 10t-10 21z" />
<glyph unicode="3" d="M221 -141q0 52 36.5 89.5t90.5 37.5q36 0 65 -17t45.5 -46t16.5 -64q0 -44 -26.5 -78.5t-69.5 -44.5q63 -50 160 -68t206 -18q137 0 218 83t81 220t-82 220t-219 83h-176q-21 5 -26 27v24q5 20 26 25l150 8q74 0 139 44t102 114.5t37 142.5q0 100 -73 150.5t-177 50.5 q-87 0 -172 -21t-135 -69q42 -10 67 -41t25 -74q0 -52 -34.5 -85.5t-83.5 -33.5q-51 0 -85 34t-34 85q0 152 141.5 221.5t313.5 69.5q96 0 203.5 -29.5t185 -95t77.5 -162.5q0 -86 -42 -154.5t-111 -115t-154 -72.5q92 -20 179 -65t143.5 -116.5t56.5 -164.5 q0 -95 -49.5 -169.5t-129 -124t-175 -75.5t-184.5 -26q-121 0 -240 24.5t-203 91t-84 185.5z" />
<glyph unicode="4" d="M186 31v55q0 12 11 23l743 827q17 14 35 14h57q13 0 23 -10t10 -22v-820h225q11 0 21 -9t10 -21v-37q0 -11 -10 -21t-21 -10h-225v-246q0 -28 14 -39q22 -8 81.5 -11t123.5 -3q11 0 21 -10t10 -21v-37q0 -11 -11.5 -20.5t-23.5 -9.5h-629q-11 0 -23 10t-12 20v37 q0 11 10 21t21 10q65 0 124.5 3t80.5 11q14 7 14 39v246h-649q-11 0 -21 10t-10 21zM299 98h584v650z" />
<glyph unicode="5" d="M244 -80q0 48 33.5 82.5t80.5 34.5q32 0 59 -15.5t42.5 -42.5t15.5 -59q0 -28 -14 -55t-38 -43.5t-52 -16.5q50 -78 140.5 -116.5t193.5 -38.5q165 0 252 93t87 259q0 154 -58.5 257t-203.5 103q-229 0 -340 -147q-7 -10 -22 -10h-25q-10 0 -20 10t-10 21v667q7 25 28 25 q2 0 10 -2q177 -62 361 -62q187 0 362 62q9 2 11 2q21 0 28 -25v-24q-1 -9 -6 -17q-61 -61 -139.5 -106t-164 -67.5t-173.5 -22.5q-106 0 -219 22v-348q122 98 321 98q120 0 232 -55.5t180 -155.5t68 -225q0 -136 -83 -237t-212.5 -154t-263.5 -53q-111 0 -217.5 41.5 t-175 124.5t-68.5 196z" />
<glyph unicode="6" d="M221 662q0 184 89 345.5t244 259t341 97.5q137 0 232.5 -57.5t95.5 -184.5q0 -44 -32 -76t-77 -32q-46 0 -78 32t-32 76q0 36 21.5 67t57.5 40q-59 49 -186 49q-110 0 -206 -51.5t-156 -141.5q-53 -84 -74 -186t-21 -217q39 63 91 106t118 68t135 25q100 0 190 -32.5 t160.5 -94t111 -147t40.5 -185.5q0 -138 -75 -245t-199 -164.5t-258 -57.5q-191 0 -310.5 100.5t-171 259.5t-51.5 347zM446 410q0 -153 80 -258t228 -105q160 0 250 103q41 49 52 111t11 157v6q0 96 -10.5 159t-48.5 113q-89 109 -240 109q-87 0 -161.5 -47t-117.5 -125.5 t-43 -167.5q1 -10 2 -22t1 -19q0 -8 -3 -14z" />
<glyph unicode="7" d="M256 522l82 402q2 9 11 16.5t20 7.5h32q11 0 21 -9t10 -21q0 -4 -0.5 -6t-1.5 -5q16 -13 169 -18.5t259 -5.5h469q7 0 14 -5t12 -12t5 -14v-37q0 -12 -8 -20l-344 -363q-89 -94 -136 -220t-62 -255.5t-15 -292.5q0 -45 -32.5 -75.5t-76.5 -30.5q-45 0 -78 32t-33 76 q0 150 44.5 295t123 275t185.5 243l194 205h-276q-379 0 -443 -8q-20 -27 -29.5 -64t-21.5 -100q-8 -27 -31 -27h-32q-12 0 -21.5 13t-9.5 24z" />
<glyph unicode="8" d="M221 317q0 134 95 226.5t241 146.5l-59 31q-92 48 -148.5 124.5t-56.5 168.5q0 112 68.5 191t174.5 119t218 40q104 0 211 -31.5t178 -102.5t71 -179q0 -111 -75 -185.5t-197 -126.5l113 -59q100 -51 165.5 -136.5t65.5 -191.5q0 -128 -80 -218.5t-204 -134.5t-248 -44 q-87 0 -180.5 20t-174 64t-129.5 113t-49 165zM369 317q0 -131 122.5 -200.5t262.5 -69.5q82 0 171.5 22.5t151.5 75.5t62 138q0 57 -39.5 102.5t-98.5 75.5l-348 180q-119 -47 -201.5 -129.5t-82.5 -194.5zM424 1090q0 -81 108 -142l316 -162q104 47 169.5 110t65.5 155 q0 76 -51.5 127.5t-128 75.5t-149.5 24q-70 0 -145.5 -16.5t-130 -58t-54.5 -113.5z" />
<glyph unicode="9" d="M221 475q0 104 46.5 190t125.5 145t176.5 88.5t198.5 29.5q185 0 301 -96.5t166.5 -251.5t50.5 -336q0 -177 -82.5 -335.5t-229.5 -254.5t-327 -96q-150 0 -256 50.5t-106 186.5q0 45 32 77t78 32q45 0 77 -32t32 -77q0 -34 -19.5 -64t-52.5 -40q63 -41 215 -41 q99 0 186.5 47t145.5 131q88 139 88 393q-58 -90 -147.5 -141t-196.5 -51q-130 0 -245.5 55t-186 157.5t-70.5 233.5zM440 473q0 -93 10 -153.5t50 -110.5q85 -105 239 -105q87 0 161.5 45.5t117.5 122.5t43 162q0 25 -2 39q0 6 1 6t1 6q0 96 -32 177.5t-98.5 130.5 t-162.5 49q-84 0 -144 -22t-116 -81q-44 -48 -56 -110.5t-12 -151.5v-4z" />
<glyph unicode=":" horiz-adv-x="938" d="M340 129q0 51 39 90t90 39q23 0 48.5 -10.5t42.5 -27.5t27.5 -42.5t10.5 -48.5q0 -51 -39 -90t-90 -39t-90 39t-39 90z" />
<glyph unicode=";" horiz-adv-x="938" d="M340 129q0 55 38 92t91 37q54 0 90 -35t52 -88.5t16 -107.5q0 -124 -55.5 -234.5t-151.5 -185.5q-8 -4 -17 -4q-12 0 -26.5 13.5t-14.5 27.5q0 6 9 20q84 67 132 161t48 202q-33 -27 -82 -27q-53 0 -91 37t-38 92z" />
<glyph unicode="&#x3c;" horiz-adv-x="2218" d="M328 506v12q6 33 37 47l1447 662q14 4 21 4q46 0 57 -51v-13q-6 -33 -35 -47l-1333 -608l1333 -608q29 -14 35 -47v-13q-11 -51 -57 -51q-7 0 -21 4l-1447 662q-31 14 -37 47z" />
<glyph unicode="=" d="M256 -449q0 7 4 15l881 1935q17 35 53 35q46 0 57 -51v-12q0 -7 -4 -15l-880 -1935q-18 -35 -54 -35q-46 0 -57 51v12z" />
<glyph unicode="&#x3e;" horiz-adv-x="2218" d="M328 -143q6 34 37 47l1331 608l-1331 608q-31 13 -37 47v13q11 51 57 51q5 0 23 -4l1447 -662q29 -14 35 -47v-12q-6 -33 -35 -47l-1447 -662q-18 -4 -23 -4q-46 0 -57 51v13z" />
<glyph unicode="?" d="M233 625q0 13 11.5 22.5t25.5 9.5l398 -71l53 395q4 31 35 31q13 0 21.5 -9t10.5 -22l54 -395l397 71q16 0 26.5 -9.5t10.5 -22.5q0 -24 -19 -31l-360 -174l190 -354q3 -5 3 -15q0 -14 -9.5 -24.5t-23.5 -10.5q-16 0 -25 11l-276 288l-279 -288q-9 -11 -24 -11t-24 11 t-9 24q0 10 2 15l190 354l-360 174q-19 8 -19 31z" />
<glyph unicode="@" horiz-adv-x="1534" d="M211 344q0 126 61 237t166 194t228.5 126t246.5 43q124 0 226.5 -61.5t138.5 -171.5q43 155 43 276q0 88 -27 161.5t-80.5 126t-124.5 79t-161 26.5q-99 0 -182 -31t-136 -98q34 -8 54 -30.5t20 -55.5q0 -54 -39.5 -92.5t-93.5 -38.5q-37 0 -64.5 25t-27.5 63 q0 48 26.5 100t69.5 98t86 73q63 37 136 55t155 18q129 0 237 -41.5t186 -117t122.5 -182.5t44.5 -236q0 -92 -26 -198t-72 -210t-97 -182q-68 -103 -163.5 -180.5t-209.5 -120.5t-237 -43h-6q-99 0 -185.5 22.5t-154.5 77.5q-160 128 -160 289zM416 281q0 -123 88.5 -178.5 t216.5 -55.5q124 0 217 50.5t157 139t107 209.5v7q0 7 14.5 57.5t14.5 83.5q0 83 -42 145.5t-111 95.5t-152 33q-124 0 -228 -51.5t-172 -152.5q-41 -67 -75.5 -187.5t-34.5 -195.5z" />
<glyph unicode="A" horiz-adv-x="2122" d="M213 35q0 55 37 63q176 0 270 129q3 3 4.5 4t3.5 2l824 1201q21 32 59 32h33q37 0 43 -32l244 -1305q16 -31 172 -31q14 0 22 -10.5t8 -21.5q0 -58 -37 -66h-573q-13 0 -22 10.5t-9 24.5q0 55 39 63q142 0 168 37l-59 318h-656l-172 -254q-18 -27 -18 -49q0 -52 106 -52 q13 0 22 -10t9 -22q0 -58 -39 -66h-450q-12 0 -20.5 11t-8.5 24zM852 551h569l-121 651z" />
<glyph unicode="B" horiz-adv-x="2124" d="M244 35q0 55 39 63q127 0 172 8q34 9 47 50l276 1108v14q0 10 -6 12q-51 10 -172 10q-13 0 -22 10.5t-9 24.5q0 56 39 64h873q103 0 216 -30t192 -97t79 -172q0 -102 -80 -180t-190.5 -124.5t-218.5 -64.5q78 0 173 -38t158.5 -106t63.5 -151q0 -68 -35 -129t-89 -110 t-118 -86q-195 -111 -430 -111h-928q-10 0 -20 12t-10 23zM694 102q23 -4 70 -4h393q102 0 215.5 40t190.5 118t77 186q0 79 -43 135t-112 84.5t-146 28.5h-499l-138 -551q-8 -24 -8 -37zM858 766h393q97 0 213 38.5t196.5 113.5t80.5 174q0 68 -43 115.5t-109.5 70 t-132.5 22.5h-375q-53 0 -73 -8.5t-31 -48.5z" />
<glyph unicode="C" horiz-adv-x="2040" d="M236 555q0 248 166.5 452t420 320.5t498.5 116.5q131 0 245 -46.5t191 -137.5l178 176q7 4 19 8h18q27 -7 27 -31l-137 -549q-9 -15 -25 -18h-47q-25 7 -25 33q4 44 4 65q0 88 -30.5 162.5t-86 128t-131.5 82.5t-163 29q-182 0 -350 -65t-289 -187q-76 -76 -132 -172.5 t-86 -204.5t-30 -209q0 -227 157 -341t394 -114q140 0 278.5 56.5t240 159.5t136.5 241q8 14 23 16h43q26 -7 26 -28q0 -2 -2 -11q-41 -161 -167.5 -282.5t-297 -185.5t-337.5 -64q-186 0 -353.5 68t-271.5 205t-104 327z" />
<glyph unicode="D" horiz-adv-x="2271" d="M240 35q0 55 39 63q127 0 172 8q32 9 47 50l276 1108v14q0 10 -6 12q-51 10 -172 10q-13 0 -22 10.5t-9 24.5q0 56 39 64h879q168 0 309.5 -66t227 -192t85.5 -297q0 -231 -146.5 -425.5t-374 -306.5t-451.5 -112h-863q-10 0 -20 12t-10 23zM698 102q23 -4 70 -4h328 q159 0 304.5 51.5t252 157.5t168 272t61.5 322q0 137 -64.5 227t-174 131t-246.5 41h-312q-53 0 -73 -8.5t-31 -48.5l-274 -1104q-9 -22 -9 -37z" />
<glyph unicode="E" horiz-adv-x="2062" d="M236 35q0 55 38 63q127 0 172 8q33 9 48 50l276 1108v14q0 10 -6 12q-51 10 -172 10q-12 0 -21.5 11t-9.5 24q0 56 39 64h1346q14 0 22 -12t8 -25l-41 -428q0 -12 -8.5 -21.5t-21.5 -9.5h-33q-13 0 -22 12.5t-9 24.5q6 52 6 102q0 89 -25 148t-96 82q-100 28 -317 28 h-319q-54 0 -74 -8.5t-31 -48.5l-117 -467h199q121 0 180 10.5t100.5 55.5t67.5 149q8 25 31 25h33q12 0 21 -10.5t9 -22.5q0 -4 -2 -8l-127 -510q-4 -27 -28 -27h-33q-12 0 -21.5 11t-9.5 24q0 11 8.5 48t8.5 61q0 46 -25 69q-26 17 -85.5 22t-129.5 5h-221l-133 -539 q-9 -27 -9 -37q23 -4 70 -4h330q165 0 268.5 15.5t178.5 61.5t134.5 132t128.5 238q11 18 29 18h33q13 0 22 -10.5t9 -22.5q0 -6 -4 -14l-226 -496q-12 -20 -28 -20h-1381q-10 0 -20 12t-10 23z" />
<glyph unicode="F" horiz-adv-x="1776" d="M236 35q0 55 38 63q127 0 172 8q33 9 48 50l276 1108v14q0 10 -6 12q-51 10 -172 10q-12 0 -21.5 11t-9.5 24q0 56 39 64h1309q14 0 22 -12t8 -25l-41 -428q0 -12 -8.5 -21.5t-21.5 -9.5h-33q-13 0 -22 12t-9 25q6 55 6 111q0 116 -56.5 170.5t-139 66.5t-223.5 12h-301 q-54 0 -74 -8.5t-31 -48.5l-123 -493h191q92 0 140 4.5t87.5 24.5t67.5 63.5t47 122.5q8 24 30 24h33q13 0 22 -10t9 -23q0 -4 -2 -8l-127 -510q-7 -26 -31 -26h-33q-10 0 -20 12t-10 22q0 7 9 46.5t9 64.5q0 48 -24 68q-43 26 -209 26h-213l-129 -514v-10q0 -15 18 -18 q34 -7 87 -9t130 -2q13 0 22 -10t9 -22q0 -58 -39 -66h-672q-11 0 -19.5 11t-8.5 24z" />
<glyph unicode="G" horiz-adv-x="2179" d="M236 555q0 248 166 452t419.5 320.5t499.5 116.5q129 0 243 -46.5t191 -137.5l178 176q5 3 19 8h18q27 -7 27 -31l-137 -549q-9 -15 -25 -18h-47q-25 7 -25 33q4 44 4 65q0 88 -30.5 162.5t-86 128t-131.5 82.5t-163 29q-180 0 -348 -65t-289 -187q-114 -114 -181 -269.5 t-67 -312.5q0 -156 79.5 -260t209 -151.5t284.5 -47.5q91 0 184 16.5t167.5 62t91.5 124.5l43 176q0 4 2 6q0 16 -25 23q-57 10 -247 10q-11 0 -21 12t-10 23q0 55 39 63h657q13 0 21 -10.5t8 -21.5q0 -58 -39 -66q-96 0 -139 -10q-19 -6 -29 -47l-45 -176l-53 -220 q-13 -18 -27 -18q-18 0 -52.5 35.5t-60.5 70.5q-90 -90 -231 -120.5t-315 -30.5q-185 0 -352.5 68t-271 205t-103.5 327z" />
<glyph unicode="H" horiz-adv-x="2273" d="M236 35q0 55 38 63q127 0 172 8q33 9 48 50l276 1108v14q0 10 -6 12q-51 10 -172 10q-12 0 -21.5 11t-9.5 24q0 56 39 64h612q12 0 21.5 -11t9.5 -22q0 -57 -39 -66q-127 0 -172 -8q-34 -8 -47 -49l-117 -467h772l123 488v14q0 10 -6 12q-51 10 -172 10q-13 0 -22 10.5 t-9 24.5q0 56 39 64h613q13 0 21.5 -11t8.5 -22q0 -56 -38 -66q-127 0 -173 -8q-32 -7 -47 -49l-276 -1108q0 -4 -0.5 -7t-1.5 -7q0 -10 6 -12q53 -11 174 -11q13 0 22 -10.5t9 -21.5q0 -58 -39 -66h-615q-11 0 -19.5 11t-8.5 24q0 55 39 63q127 0 172 8q34 9 47 50l129 522 h-772l-135 -543q0 -4 -0.5 -7t-1.5 -7q0 -10 6 -12q53 -11 174 -11q13 0 22 -10.5t9 -21.5q0 -58 -39 -66h-615q-11 0 -19.5 11t-8.5 24z" />
<glyph unicode="I" horiz-adv-x="1282" d="M223 35q0 55 39 63q135 0 182 8q35 9 50 50l274 1106q2 4 2 14q0 13 -14 16q-45 8 -176 8q-11 0 -21 12t-10 23q0 56 39 64h637q11 0 19.5 -11t8.5 -22q0 -57 -36 -66q-136 0 -185 -8q-34 -9 -47 -49l-276 -1106v-14q0 -13 14 -17q43 -8 176 -8q13 0 22 -10.5t9 -21.5 q0 -58 -39 -66h-637q-11 0 -21 12t-10 23z" />
<glyph unicode="J" horiz-adv-x="1581" d="M303 184q0 72 43.5 124t114.5 52q44 0 75 -27.5t31 -72.5q0 -59 -39 -102t-96 -52q65 -75 219 -75q108 0 200.5 81t119.5 189l239 961q2 2 2 8q0 16 -18 20q-53 10 -229 10q-11 0 -21 12t-10 23q0 56 39 64h618q12 0 20.5 -11t8.5 -22q0 -57 -39 -66q-88 0 -129 -8 q-19 -6 -33 -49l-239 -958q-26 -103 -110.5 -177.5t-198 -113.5t-222.5 -39q-81 0 -159.5 22.5t-132.5 74.5t-54 132z" />
<glyph unicode="K" horiz-adv-x="2331" d="M236 35q0 55 38 63q127 0 172 8q33 9 48 50l274 1104q2 6 2 18q0 10 -6 12q-51 10 -172 10q-12 0 -21.5 11t-9.5 24q0 56 39 64h612q12 0 21.5 -11t9.5 -22q0 -57 -39 -66q-127 0 -172 -8q-34 -8 -47 -49l-158 -633l940 602q4 6 26 22t30 24t8 24q0 18 -51 18 q-11 0 -21 12t-10 23q0 56 39 64h461q11 0 19.5 -11t8.5 -22q0 -57 -36 -66q-95 0 -188 -36t-193 -97q-1 -1 -17 -6l-489 -313l430 -698q33 -35 70.5 -43.5t103.5 -8.5q13 0 22 -10.5t9 -21.5q0 -58 -39 -66h-541q-10 0 -19.5 11t-9.5 24q0 55 37 63q113 0 113 37v8 l-363 586l-370 -237l-86 -353q-4 -12 -4 -18q0 -10 6 -12q53 -11 174 -11q13 0 22 -10.5t9 -21.5q0 -58 -39 -66h-615q-11 0 -19.5 11t-8.5 24z" />
<glyph unicode="L" horiz-adv-x="1956" d="M236 35q0 55 38 63q127 0 172 8q33 9 48 50l276 1108v14q0 10 -6 12q-51 10 -172 10q-12 0 -21.5 11t-9.5 24q0 56 39 64h670q12 0 21 -10.5t9 -22.5q0 -56 -38 -66q-170 0 -226 -10q-40 -10 -51 -47l-274 -1104q-9 -27 -9 -37q23 -4 70 -4h258q252 0 381.5 101.5 t222.5 343.5q8 20 29 20h33q13 0 21.5 -10.5t8.5 -24.5q0 -2 -4 -14l-190 -494q-8 -20 -29 -20h-1237q-10 0 -20 12t-10 23z" />
<glyph unicode="M" horiz-adv-x="2630" d="M248 35q0 55 39 63q88 0 150 23.5t81 91.5l262 1047q2 6 2 18q0 10 -6 12q-51 10 -172 10q-13 0 -22 10.5t-9 24.5q0 56 39 64h404q38 0 45 -33l262 -1169l846 1169q26 33 61 33h389q11 0 21 -10.5t10 -22.5q0 -57 -39 -66q-127 0 -172 -8q-34 -8 -47 -49l-274 -1104 q-4 -12 -4 -18q0 -10 6 -12q53 -11 174 -11q13 0 21.5 -10t8.5 -22q0 -58 -38 -66h-590q-12 0 -20.5 11t-8.5 24q0 55 39 63q127 0 172 8q34 9 47 50l287 1151l-922 -1272q-20 -35 -61 -35h-10q-39 0 -45 35l-281 1253l-275 -1091q0 -9 -0.5 -13.5t-1.5 -9.5q0 -50 49 -63 t117 -13q13 0 22 -10t9 -22q0 -58 -39 -66h-498q-11 0 -19.5 11t-8.5 24z" />
<glyph unicode="N" horiz-adv-x="2202" d="M236 35q0 55 38 63q88 0 150.5 23.5t81.5 91.5l270 1079q-51 8 -184 8q-12 0 -21.5 11t-9.5 24q0 56 39 64h399q18 0 25 -15l621 -1062l219 880q4 16 4 25q0 73 -166 73q-12 0 -21.5 11t-9.5 24q0 56 39 64h496q13 0 21.5 -11t8.5 -22q0 -56 -38 -66q-88 0 -150 -22 t-84 -92l-289 -1159q-7 -27 -30 -27h-41q-18 0 -25 14l-713 1221l-260 -1038q0 -9 -0.5 -13.5t-1.5 -9.5q0 -50 49 -63t117 -13q13 0 22 -10.5t9 -21.5q0 -58 -39 -66h-498q-11 0 -19.5 11t-8.5 24z" />
<glyph unicode="O" horiz-adv-x="2144" d="M233 539q0 184 94.5 350t253 291.5t345.5 194.5t368 69q179 0 337.5 -69.5t253.5 -203.5t95 -317q0 -187 -94.5 -352t-250.5 -287.5t-345 -191t-368 -68.5q-130 0 -255.5 38t-223.5 114t-154 184t-56 248zM473 508q0 -142 57.5 -248t163.5 -163.5t248 -57.5 q164 0 313 74.5t261 201.5t173.5 282.5t61.5 317.5q0 104 -35 188t-99 142t-151 87.5t-192 29.5q-167 0 -315.5 -70t-256.5 -190t-168.5 -274.5t-60.5 -319.5z" />
<glyph unicode="P" horiz-adv-x="1792" d="M240 35q0 55 39 63q127 0 172 8q32 9 47 50l274 1104q2 6 2 18q0 10 -6 12q-51 10 -172 10q-13 0 -22 10.5t-9 24.5q0 56 39 64h842q115 0 233 -34t199.5 -109.5t81.5 -190.5q0 -109 -71 -194t-180.5 -141.5t-234 -86t-225.5 -29.5h-418l-116 -475q-4 -12 -4 -18 q0 -10 6 -12q53 -11 174 -11q13 0 22 -10.5t9 -21.5q0 -58 -39 -66h-615q-11 0 -19.5 11t-8.5 24zM846 700h366q101 0 186.5 16t164.5 62q75 46 117 135.5t42 182.5q0 88 -55.5 132.5t-134.5 58t-170 13.5h-277q-53 0 -73 -8.5t-31 -48.5z" />
<glyph unicode="Q" horiz-adv-x="2216" d="M233 539q0 184 94.5 350t253 291.5t345.5 194.5t368 69q179 0 337.5 -69.5t253.5 -203.5t95 -317q0 -142 -58.5 -275t-157.5 -243t-224.5 -191t-261.5 -129q19 -50 40.5 -87.5t55 -61t82.5 -23.5q90 0 172.5 42.5t106.5 121.5q7 27 32 27q15 0 24 -10t9 -25v-8 q-25 -95 -82 -184.5t-141 -147t-180 -57.5q-135 0 -184.5 113t-49.5 268q-122 -29 -241 -29q-130 0 -255.5 38t-223.5 114t-154 184t-56 248zM461 496q0 -100 33 -186t97.5 -148.5t162.5 -95.5q-6 21 -6 40q0 61 39 109.5t98.5 75t118.5 26.5q94 0 149.5 -58t91.5 -157 q114 50 207.5 134t161.5 190.5t103.5 227t35.5 243.5q0 140 -60.5 246.5t-168.5 162.5t-250 56q-167 0 -316 -72t-260 -194.5t-174 -281t-63 -318.5zM823 109q0 -72 119 -72q111 0 211 33q-12 80 -45 126t-107 46q-61 0 -119.5 -38t-58.5 -95z" />
<glyph unicode="R" horiz-adv-x="2109" d="M240 35q0 55 39 63q127 0 172 8q32 9 47 50l274 1104q2 6 2 18q0 10 -6 12q-51 10 -172 10q-13 0 -22 10.5t-9 24.5q0 56 39 64h735q115 0 252.5 -31.5t236.5 -104.5t99 -190q0 -98 -75 -175.5t-181 -127t-209 -74.5q89 -28 143 -86t54 -145q0 -23 -2 -35l-23 -178 q-4 -50 -4 -74q0 -147 109 -147q47 0 87 25.5t69.5 68t39.5 84.5q3 9 12 16.5t17 7.5h33q14 0 22.5 -9.5t8.5 -22.5v-8q-24 -98 -107 -168t-182 -70q-87 0 -167.5 20.5t-134 72t-53.5 140.5q0 28 11 76l43 178q6 22 6 43q0 66 -45 105t-109.5 55.5t-128.5 16.5h-325 l-129 -523q-5 -15 -5 -18q0 -10 7 -12q53 -11 174 -11q13 0 21.5 -10t8.5 -22q0 -58 -39 -66h-606q-11 0 -19.5 11t-8.5 24zM856 737h289q112 0 204 15.5t171 58.5q51 28 88 71t58.5 98t21.5 112q0 93 -64 138.5t-150 57.5t-190 12h-199q-53 0 -73 -8.5t-31 -48.5z" />
<glyph unicode="S" horiz-adv-x="1753" d="M252 -14l115 463q8 13 24 16h43q25 -8 25 -31q-12 -55 -15 -102q0 -159 137.5 -219t319.5 -60q71 0 152.5 25t150 71.5t111.5 111.5t43 140q0 83 -60 138t-147 75l-340 70q-129 30 -214 106.5t-85 196.5q0 135 93 239t232.5 161t270.5 57q262 0 379 -144l127 136 q6 4 18 8h19q26 -7 26 -31l-114 -461q-12 -16 -25 -18h-43q-25 7 -25 33q5 40 5 69q0 109 -49 180.5t-132.5 103.5t-193.5 32q-93 0 -198.5 -38.5t-178 -110t-72.5 -165.5q0 -77 62 -127t143 -67l338 -72q84 -19 153.5 -61.5t109.5 -108t40 -153.5q0 -104 -53 -195 t-146.5 -160t-200 -104t-206.5 -35q-128 0 -242 27q-50 13 -82 26.5t-58.5 32.5t-70.5 53l-123 -131q-6 -4 -18 -8h-18q-27 7 -27 31z" />
<glyph unicode="T" horiz-adv-x="1704" d="M178 938q0 2 4 14l154 428q8 19 29 19h1507q13 0 22 -12.5t9 -24.5l-62 -428q-2 -13 -10 -22t-21 -9h-32q-12 0 -21.5 13t-9.5 24q18 128 18 176q0 86 -38 126t-94.5 49t-155.5 9h-174q-54 0 -74 -8.5t-31 -48.5l-276 -1106v-6q0 -13 8 -18q39 -15 264 -15q13 0 22 -10.5 t9 -21.5q0 -58 -39 -66h-801q-13 0 -22 10.5t-9 24.5q0 55 39 63q199 0 260 13q40 6 54 45l274 1104q6 18 6 36q-20 4 -69 4h-168q-165 0 -247.5 -33t-127 -105t-105.5 -238q-8 -21 -28 -21h-33q-11 0 -21 12t-10 23z" />
<glyph unicode="U" horiz-adv-x="1931" d="M289 375q0 30 12 100l197 785q2 6 2 18q0 10 -6 12q-52 10 -172 10q-12 0 -21.5 11t-9.5 24q0 56 39 64h612q12 0 21.5 -11t9.5 -22q0 -57 -39 -66q-127 0 -172 -8q-34 -7 -47 -49l-197 -784q-16 -69 -16 -133q0 -93 44 -154.5t116.5 -90t162.5 -28.5q130 0 254.5 52.5 t215 149t120.5 220.5l182 727q5 20 5 25q0 73 -166 73q-12 0 -21.5 11t-9.5 24q0 56 39 64h491q12 0 21.5 -11t9.5 -22q0 -57 -39 -66q-88 0 -150.5 -22.5t-82.5 -91.5l-183 -727q-26 -106 -95.5 -200t-167 -162.5t-209 -105t-222.5 -36.5q-209 0 -368.5 110.5t-159.5 309.5 z" />
<glyph unicode="V" horiz-adv-x="1694" d="M260 1335q0 56 39 64h563q11 0 21 -10.5t10 -22.5q0 -57 -39 -66q-54 0 -105.5 -5.5t-58.5 -28.5l240 -1065l725 999q6 8 12 24.5t6 26.5q0 28 -31 38.5t-69 10.5q-12 0 -21.5 11t-9.5 24q0 56 39 64h438q12 0 21.5 -11t9.5 -22q0 -57 -39 -66q-167 0 -260 -122l-7 -6 l-7 -7l-852 -1177q-26 -33 -62 -33h-35q-34 0 -45 33l-286 1282q-19 30 -166 30q-12 0 -21.5 11t-9.5 24z" />
<glyph unicode="W" horiz-adv-x="2619" d="M256 1335q0 56 39 64h549q11 0 19.5 -11t8.5 -22q0 -57 -38 -66q-144 0 -170 -38l151 -1022l596 921l-16 111q-15 28 -148 28q-10 0 -20 12t-10 23q0 56 38 64h549q12 0 20.5 -11t8.5 -22q0 -57 -37 -66q-143 0 -172 -38l2 -7l150 -1015l622 958q15 30 15 43 q0 32 -43.5 45.5t-88.5 13.5q-11 0 -20.5 11t-9.5 24q0 56 37 64h446q11 0 20 -10.5t9 -22.5q0 -57 -37 -66q-74 0 -135.5 -31t-102.5 -93l-6 -6q-3 -3 -4 -5l-764 -1177q-21 -33 -57 -33h-29q-37 0 -43 33l-153 1044l-678 -1044q-23 -33 -60 -33h-28q-35 0 -41 33 l-191 1284q-14 28 -147 28q-11 0 -21 12t-10 23z" />
<glyph unicode="X" horiz-adv-x="2277" d="M199 35q0 55 37 63q101 0 193 32.5t163 96.5q3 3 8.5 6t7.5 5l512 462l-336 568q-41 32 -194 32q-12 0 -21.5 11t-9.5 24q0 56 37 64h584q11 0 19.5 -11t8.5 -22q0 -57 -37 -66q-86 0 -120 -34l241 -408l383 348q1 4 16 23.5t15 32.5q0 38 -76 38q-11 0 -21 12t-10 23 q0 56 39 64h500q11 0 20 -10.5t9 -22.5q0 -57 -39 -66q-214 0 -356 -129q-5 -3 -8.5 -5t-6.5 -5l-420 -379l385 -651q29 -22 80 -27.5t117 -5.5q13 0 22 -10.5t9 -21.5q0 -58 -39 -66h-584q-10 0 -19.5 11t-9.5 24q0 55 37 63q86 0 121 35l-291 492l-477 -432 q-2 -6 -16.5 -24t-14.5 -32q0 -39 76 -39q14 0 22.5 -10.5t8.5 -21.5q0 -58 -39 -66h-498q-11 0 -19.5 11t-8.5 24z" />
<glyph unicode="Y" horiz-adv-x="1688" d="M213 1335q0 56 39 64h588q11 0 19.5 -11t8.5 -22q0 -57 -37 -66q-126 0 -133 -22l324 -602l551 528q3 9 23 31t20 39q0 26 -72 26q-11 0 -21 12t-10 23q0 56 39 64h445q12 0 21.5 -11.5t9.5 -21.5q0 -56 -39 -66q-185 0 -320 -129q-5 -3 -9 -5t-5 -5l-629 -602l-102 -412 q-4 -16 -4 -26t8 -12q34 -7 74.5 -9t97.5 -2q14 0 22 -10.5t8 -21.5q0 -58 -38 -66h-607q-11 0 -19.5 11t-8.5 24q0 55 39 63q127 0 172 8q29 9 43 41q2 5 3.5 10t2.5 7l98 395l-381 709q-39 32 -190 32q-12 0 -21.5 11t-9.5 24z" />
<glyph unicode="Z" horiz-adv-x="1931" d="M264 25q0 45 23 67l1292 1208h-346q-130 0 -221.5 -13.5t-165.5 -52.5t-131 -113.5t-97 -196.5q-8 -21 -28 -21h-33q-11 0 -21 12t-10 23q0 4 2 8l134 428q8 25 30 25h1159q27 0 27 -25q0 -41 -23 -63l-1290 -1207h363q157 0 258 18t173 64t127.5 134t104.5 233 q8 29 31 29h33q12 0 21.5 -11.5t9.5 -21.5q0 -6 -3 -8l-167 -514q-9 -27 -31 -27h-1194q-27 0 -27 25z" />
<glyph unicode="[" horiz-adv-x="1223" d="M256 -14v1519q0 11 10 21t21 10h32q11 0 21 -10t10 -21v-620q105 67 275 67q83 0 163 -35.5t129.5 -101.5t49.5 -153q0 -127 -57.5 -233.5t-147.5 -188t-190.5 -145t-239.5 -138.5q-3 0 -6 -0.5t-7 -1.5h-32q-11 0 -21 10t-10 21zM350 72q117 85 205.5 169.5t146.5 192 t58 228.5q0 43 -21.5 84t-58.5 65.5t-84 24.5q-92 0 -169 -25.5t-77 -95.5v-643z" />
<glyph unicode="\" horiz-adv-x="1223" d="M287 -176v1646q9 39 61 39q11 0 22 -8.5t11 -21.5v-574l508 182q3 1 7.5 2t6.5 1q12 0 22.5 -9t10.5 -22v-1471q-4 -18 -22 -29.5t-37 -11.5q-11 0 -23 10t-12 21v399l-506 -182q-5 0 -8 -0.5t-6 -1.5q-11 0 -23 10t-12 21zM381 23l461 165v672l-461 -164v-673z" />
<glyph unicode="]" horiz-adv-x="1223" d="M256 -31q0 22 27 29l69 25v671l-53 -16q-4 -2 -8 -2q-11 0 -23 10t-12 21v145q0 24 27 31l69 22v393q4 19 22 30t40 11q12 0 22 -8.5t10 -21.5v-375l330 106v396q4 19 22 29t40 10q12 0 22 -8.5t10 -22.5v-373l56 19h8q10 0 21.5 -9.5t11.5 -21.5v-146q0 -20 -25 -28 l-72 -25v-672l56 19h8q11 0 22 -10t11 -21v-145q0 -21 -25 -29l-72 -25v-251q-5 -20 -22.5 -30.5t-36.5 -10.5q-11 0 -23 10t-12 20v234l-330 -107v-254q-4 -19 -21 -29t-38 -10q-13 0 -24 9t-11 22v232l-53 -19h-8q-11 0 -23 10t-12 21v145zM446 51l330 107v673l-330 -106 v-674z" />
<glyph unicode="^" horiz-adv-x="2787" d="M256 733q0 18 14.5 32.5t32.5 14.5q21 0 35 -14q96 -106 219.5 -179.5t260 -115.5t281.5 -60t296 -18t295 18t279 59.5t258.5 114.5t221.5 181q19 14 35 14q18 0 32.5 -13.5t14.5 -33.5q0 -16 -12 -33q-202 -223 -498 -330.5t-628 -107.5q-78 0 -155 6t-154.5 18.5 t-151.5 30.5q-212 54 -385 156q-66 42 -173 127t-116 119q-2 4 -2 14z" />
<glyph unicode="_" horiz-adv-x="2787" d="M256 291q0 17 12 31q101 122 228.5 212t277.5 150t304.5 87.5t316.5 27.5q460 0 809 -209q29 -16 111.5 -77.5t144.5 -120t69 -87.5q2 -4 2 -14q0 -20 -14.5 -33.5t-32.5 -13.5q-21 0 -35 16q-93 113 -216.5 193t-259 126.5t-280.5 67.5t-298 21q-152 0 -298.5 -21 t-283 -68t-259.5 -126.5t-216 -192.5q-13 -16 -35 -16q-18 0 -32.5 14.5t-14.5 32.5z" />
<glyph unicode="`" horiz-adv-x="1223" d="M121 190q0 16 8 21q80 62 201 162q0 21 -0.5 35t-1.5 30q0 169 58 360t149 341q75 127 163 216t195 89q82 0 121 -58t39 -141q0 -367 -564 -854q0 -18 -0.5 -29.5t-1.5 -25.5q0 -107 37 -199t127 -92q83 0 163.5 47t172.5 123q12 4 17 4q17 0 22 -8q6 -8 12 -14.5 t10.5 -15t4.5 -17.5q0 -14 -13 -23q-94 -77 -192.5 -125.5t-200.5 -48.5q-119 0 -194.5 85.5t-108.5 215.5q-166 -133 -174 -133q-11 0 -23 10q-6 8 -11.5 15t-10 14.5t-4.5 15.5zM508 528q187 169 320 358t133 374q0 108 -70 108q-69 0 -133 -99t-116 -246t-82.5 -269 t-51.5 -226z" />
<glyph unicode="a" horiz-adv-x="1585" d="M213 334q0 109 48 211.5t133 185t187.5 128.5t211.5 46q71 0 135.5 -31t103.5 -86q12 34 40.5 55t64.5 21q33 0 55 -20t22 -53q0 -15 -2 -21l-137 -553q-8 -27 -8 -59q0 -43 20 -74t60 -31q65 0 102.5 74.5t63.5 177.5q7 11 22 19h43q27 -9 27 -29q0 -2 -2 -12 q-29 -118 -94 -212t-166 -94q-80 0 -151.5 35.5t-96.5 104.5q-44 -41 -96 -73t-110.5 -49.5t-113.5 -17.5q-102 0 -185 46t-130 127t-47 184zM403 252q0 -83 47 -141t130 -58q88 0 170.5 54t146.5 139l100 405q-18 79 -74 128.5t-135 49.5q-119 0 -206.5 -95t-133 -230.5 t-45.5 -251.5z" />
<glyph unicode="b" horiz-adv-x="1296" d="M223 332q0 31 15 119l194 778q8 28 8 45t-47 21.5t-96 4.5q-11 0 -21 12t-10 23q0 56 39 64l316 22q36 0 36 -32v-9l-145 -581q61 47 133.5 76.5t147.5 29.5q77 0 144 -26t116 -73.5t76.5 -113.5t27.5 -143q0 -144 -83.5 -277t-219 -214t-279.5 -81q-99 0 -180.5 46 t-126.5 126.5t-45 182.5zM395 264q0 -90 48 -150.5t137 -60.5q91 0 164.5 57t122 146.5t73.5 189.5t25 183q0 85 -46.5 142.5t-130.5 57.5q-61 0 -120 -26.5t-107 -68t-90 -97.5l-51 -203q-13 -44 -19 -85.5t-6 -84.5z" />
<glyph unicode="c" horiz-adv-x="1329" d="M215 350q0 115 57 217t153 178t212.5 118t226.5 42q121 0 217.5 -38.5t96.5 -139.5q0 -61 -37 -104t-97 -43q-38 0 -65 24t-27 62q0 43 25.5 78t62.5 47q-55 38 -180 38q-133 0 -236 -80.5t-157.5 -206t-54.5 -257.5q0 -109 65.5 -170.5t175.5 -61.5q342 0 494 187 q12 8 22 8q19 0 35.5 -17.5t16.5 -35.5q0 -8 -9 -19q-93 -114 -238 -156.5t-327 -42.5q-175 0 -303.5 100t-128.5 273z" />
<glyph unicode="d" horiz-adv-x="1513" d="M213 334q0 109 48 211.5t133 185t187.5 128.5t211.5 46q71 0 135.5 -31t103.5 -86l109 441q8 28 8 45q0 26 -143 26q-11 0 -21 12t-10 23q0 56 39 64l315 22q16 0 26.5 -8.5t10.5 -23.5v-9l-293 -1169q-6 -27 -6 -53q0 -43 20 -74t60 -31q65 0 102.5 74.5t63.5 177.5 q7 11 22 19h43q27 -9 27 -29q0 -2 -2 -12q-29 -118 -94 -212t-166 -94q-80 0 -151.5 35.5t-96.5 104.5q-44 -41 -96 -73t-110.5 -49.5t-113.5 -17.5q-102 0 -185 46t-130 127t-47 184zM403 252q0 -83 47 -141t130 -58q90 0 172 54t143 137l102 407q-18 79 -74 128.5 t-135 49.5q-119 0 -206.5 -95t-133 -230.5t-45.5 -251.5z" />
<glyph unicode="e" horiz-adv-x="1386" d="M225 379q0 121 55 218.5t150.5 167.5t208 105t225.5 35q69 0 136 -17t114 -58.5t47 -108.5q0 -92 -76.5 -147t-196 -80.5t-221.5 -31t-218 -5.5q-3 1 -5.5 1.5t-5.5 0.5q-18 -95 -18 -156q0 -72 27.5 -129t80 -89t125.5 -32q342 0 494 187q12 8 22 8q19 0 35.5 -17.5 t16.5 -35.5q0 -8 -9 -19q-93 -114 -238 -156.5t-327 -42.5q-116 0 -213.5 50t-153 142t-55.5 210zM459 532q125 0 248.5 9.5t231.5 51t108 124.5q0 59 -59 85.5t-128 26.5q-94 0 -174 -35.5t-138.5 -103.5t-88.5 -158z" />
<glyph unicode="f" horiz-adv-x="1401" d="M246 -260q0 57 39 99t96 42q38 0 65 -24.5t27 -61.5q0 -39 -22 -71.5t-58 -49.5q37 -18 90 -18q50 0 84.5 52.5t50.5 113.5q20 76 44 204.5t49 280.5l82 477h-218q-11 0 -20.5 11t-9.5 24q0 56 37 64h227l22 133q17 95 36 163.5t57.5 130.5t100.5 98t153 36 q92 0 165.5 -37.5t73.5 -122.5q0 -57 -39 -99t-94 -42q-39 0 -66.5 24.5t-27.5 61.5q0 38 22 71t56 50q-37 18 -94 18q-40 0 -69 -27.5t-38 -66.5q-10 -42 -17.5 -81.5t-16.5 -91t-15 -81.5l-23 -137h260q11 0 21 -10.5t10 -22.5q0 -57 -39 -66h-268l-82 -473 q-26 -151 -39.5 -223t-42 -167t-65.5 -154q-49 -79 -118.5 -133t-150.5 -54q-90 0 -162.5 39t-72.5 121z" />
<glyph unicode="g" horiz-adv-x="1434" d="M201 -281q0 57 38.5 99.5t94.5 42.5q38 0 65 -24.5t27 -61.5q0 -71 -55 -107q55 -12 194 -12q69 0 139 27t121 78t68 118l55 225q-136 -104 -280 -104q-157 0 -261 97.5t-104 252.5q0 108 49 208t132.5 179.5t187.5 123.5t209 44q70 0 135 -29.5t104 -84.5q13 32 42 52.5 t63 20.5q33 0 55.5 -20.5t22.5 -52.5q0 -15 -3 -21l-227 -913q-26 -98 -108 -160t-189 -89.5t-213 -27.5q-142 0 -252 25t-110 114zM494 272q0 -84 48 -140t132 -56q88 0 171 53.5t144 132.5l98 393q-20 78 -76.5 126t-133.5 48q-120 0 -206.5 -90.5t-131.5 -221.5t-45 -245 z" />
<glyph unicode="h" horiz-adv-x="1694" d="M250 53q0 9 4 21l287 1155q8 28 8 45q0 26 -143 26q-11 0 -21 12t-10 23q0 56 39 64l315 22h8q29 -9 29 -32v-9l-166 -661q77 87 171.5 136.5t201.5 49.5q61 0 118 -13.5t99.5 -41.5t68 -75.5t25.5 -115.5q0 -46 -12.5 -99.5t-37 -124.5t-48 -129.5t-39.5 -96.5 q-19 -40 -19 -82q0 -74 58 -74q59 0 107 39.5t80.5 97t47.5 115.5q3 14 23 19h43q26 -9 26 -29q0 -2 -2 -12q-19 -76 -66.5 -146.5t-116.5 -115t-148 -44.5q-89 0 -159.5 48t-70.5 133q0 39 17 73q9 22 36 89t51.5 139.5t37 126t12.5 100.5q0 67 -35.5 105t-101.5 38 q-248 0 -424 -344l-107 -424q-11 -35 -39.5 -59.5t-66.5 -24.5q-32 0 -56 21.5t-24 54.5z" />
<glyph unicode="i" horiz-adv-x="1092" d="M182 588q0 2 2 12q31 120 122.5 212.5t207.5 92.5q90 0 159.5 -46.5t69.5 -133.5q0 -37 -16 -74l-180 -442q-19 -40 -19 -82q0 -74 58 -74q83 0 146 78.5t87 173.5q3 14 23 19h43q26 -9 26 -29q0 -2 -2 -12q-13 -55 -45 -111.5t-73 -98t-96.5 -69t-114.5 -27.5 q-89 0 -159.5 48t-70.5 133q0 39 17 73l180 443q18 43 18 82q0 73 -57 73q-83 0 -145.5 -77t-88.5 -174q-3 -15 -24 -19h-43q-25 7 -25 29zM590 1237q0 51 41 90t92 39q39 0 65.5 -25.5t26.5 -64.5q0 -51 -41 -90t-92 -39q-37 0 -64.5 25.5t-27.5 64.5z" />
<glyph unicode="j" horiz-adv-x="1204" d="M78 -276q0 55 39 96t94 41q38 0 65 -24.5t27 -61.5q0 -72 -59 -111q27 -8 67 -8q99 0 179.5 77t103.5 175l190 758q9 45 9 59q0 43 -20 73.5t-62 30.5q-66 0 -126 -36.5t-106 -95t-71 -119.5q-9 -14 -25 -19h-43q-25 7 -25 29q0 2 2 12q51 126 161.5 215.5t238.5 89.5 q101 0 179.5 -51.5t78.5 -146.5q0 -25 -6 -48l-195 -774q-23 -93 -98 -162.5t-174.5 -106t-196.5 -36.5q-86 0 -156.5 34t-70.5 110zM823 1237q0 49 41 89t92 40q38 0 65.5 -25.5t27.5 -64.5q0 -51 -41 -90t-93 -39q-37 0 -64.5 25.5t-27.5 64.5z" />
<glyph unicode="k" horiz-adv-x="1552" d="M250 53q0 9 4 21l287 1155q8 28 8 45q0 26 -143 26q-11 0 -21 12t-10 23q0 56 39 64l315 22h8q29 -9 29 -32v-9l-207 -825q70 27 156.5 93t161.5 124.5t150.5 95.5t158.5 37q73 0 122.5 -47t49.5 -121q0 -62 -37 -107.5t-98 -45.5q-38 0 -65.5 24.5t-27.5 61.5 q0 49 33.5 86t81.5 45q-22 28 -63 28q-65 0 -129.5 -30.5t-121.5 -72t-139.5 -108t-125.5 -92.5q130 0 243 -54t113 -169q0 -32 -8 -59q-10 -42 -10 -76q0 -47 20 -81t63 -34q73 0 121.5 80t71.5 172q3 15 23 19h43q26 -9 26 -29q0 -2 -2 -12q-19 -75 -58.5 -144 t-98.5 -115.5t-132 -46.5q-67 0 -125.5 25.5t-95.5 75t-37 117.5q0 26 6 55q7 22 7 47q0 83 -99.5 120.5t-201.5 37.5l-99 -394q-11 -35 -39.5 -59.5t-66.5 -24.5q-32 0 -56 21.5t-24 54.5z" />
<glyph unicode="l" horiz-adv-x="983" d="M213 176q0 26 6 53l250 1000q8 28 8 45q0 26 -143 26q-11 0 -21 12t-10 23q0 56 39 64l315 22q16 0 26.5 -8.5t10.5 -23.5v-9l-293 -1167q-6 -27 -6 -55q0 -43 20 -74t60 -31q46 0 78.5 42t49.5 90t36 118q2 11 23 21h43q26 -9 26 -29q0 -2 -2 -12q-16 -68 -50 -139 t-85.5 -119t-122.5 -48q-62 0 -121.5 22t-98 66.5t-38.5 110.5z" />
<glyph unicode="m" horiz-adv-x="2515" d="M182 588q0 2 2 12q16 68 50.5 139.5t87.5 118.5t122 47q100 0 179 -50t79 -146q78 89 174 142.5t205 53.5q125 0 219.5 -53t94.5 -164q78 98 180 157.5t219 59.5q61 0 118 -13.5t99.5 -42t68 -75.5t25.5 -115q0 -46 -12.5 -99.5t-37 -124.5t-48 -129.5t-39.5 -96.5 q-18 -37 -18 -82q0 -74 57 -74q59 0 107 39t81 96.5t48 116.5q3 14 22 19h43q27 -10 27 -29q0 -2 -2 -12q-18 -74 -66.5 -146t-117.5 -116t-148 -44q-89 0 -159 48.5t-70 132.5q0 38 16 73q9 22 36 89t51.5 139.5t37 126t12.5 100.5q0 67 -35.5 105t-101.5 38 q-96 0 -177.5 -49.5t-141 -126t-107.5 -170.5l-105 -424q-9 -35 -40 -58.5t-66 -23.5q-32 0 -56 21t-24 53q0 7 4 23l125 504q17 61 17 108q0 67 -35.5 105t-102.5 38q-140 0 -246 -98t-182 -248l-104 -424q-9 -35 -41 -58.5t-66 -23.5q-32 0 -56 21t-24 53q0 10 5 23 l147 592q8 40 8 59q0 45 -19.5 74.5t-60.5 29.5q-67 0 -100.5 -69t-65.5 -182q-3 -15 -24 -19h-43q-25 7 -25 29z" />
<glyph unicode="n" horiz-adv-x="1802" d="M182 588q0 2 2 12q16 68 50.5 139.5t87.5 118.5t122 47q100 0 179 -50t79 -146q78 89 174 142.5t205 53.5q85 0 156 -24t114.5 -79.5t43.5 -142.5q0 -53 -22 -133.5t-62.5 -183t-53.5 -133.5q-18 -37 -18 -82q0 -74 57 -74q59 0 107 39t81 96.5t48 116.5q3 14 22 19h43 q27 -9 27 -29q0 -2 -2 -12q-18 -74 -66.5 -146t-117.5 -116t-148 -44q-88 0 -158.5 48t-70.5 133q0 38 16 73q9 22 36 89t51.5 139.5t37 126t12.5 100.5q0 67 -35.5 105t-101.5 38q-96 0 -177.5 -49.5t-141 -126t-107.5 -170.5l-104 -424q-9 -35 -41 -58.5t-66 -23.5 q-32 0 -56 21t-24 53q0 10 5 23l147 592q8 40 8 59q0 45 -19.5 74.5t-60.5 29.5q-67 0 -100.5 -69t-65.5 -182q-3 -15 -24 -19h-43q-25 7 -25 29z" />
<glyph unicode="o" horiz-adv-x="1438" d="M215 350q0 115 57 217t153 178t212.5 118t226.5 42q114 0 212.5 -44t159 -128.5t60.5 -200.5q0 -114 -57 -215.5t-153 -178t-212.5 -119t-226.5 -42.5q-112 0 -212 44.5t-160 128.5t-60 200zM412 283q0 -105 66.5 -167.5t172.5 -62.5q134 0 236.5 80.5t157.5 207.5 t55 259q0 106 -65.5 167.5t-174.5 61.5q-135 0 -237.5 -80.5t-156.5 -207t-54 -258.5z" />
<glyph unicode="p" horiz-adv-x="1513" d="M111 -365q0 58 39 66q61 0 92 9t43 48l229 914q6 27 6 53q0 45 -19.5 74.5t-60.5 29.5q-67 0 -100.5 -69t-65.5 -182q-7 -13 -24 -19h-43q-25 7 -25 29q0 2 2 12q16 68 50.5 139.5t87.5 118.5t122 47q42 0 78.5 -8t71 -25t61 -44t37.5 -62q149 139 320 139 q104 0 185.5 -45t129 -127t47.5 -184q0 -108 -48 -210.5t-132.5 -185.5t-187.5 -129.5t-211 -46.5q-73 0 -136 30.5t-104 86.5l-90 -358q0 -10 -2 -17q0 -18 147 -18q13 0 22 -10.5t9 -24.5q0 -55 -39 -63h-463q-11 0 -19.5 10.5t-8.5 21.5zM590 231q18 -76 74.5 -127 t134.5 -51q91 0 164.5 58t121 147.5t72.5 189.5t25 183q0 84 -46.5 141t-129.5 57q-61 0 -119 -26t-108.5 -70t-88.5 -94z" />
<glyph unicode="q" horiz-adv-x="1348" d="M213 334q0 109 47.5 211t133.5 185.5t190 129t211 45.5q74 0 141 -35t106 -94q22 31 79.5 80t84.5 49q15 0 24 -9t9 -24v-8l-281 -1122q-4 -16 -4 -23q0 -18 148 -18q13 0 22 -11.5t9 -23.5q0 -55 -39 -63h-510q-12 0 -21.5 10.5t-9.5 21.5q0 58 39 66q123 0 160 12 q17 15 24 45l82 326q-140 -107 -280 -107q-104 0 -187.5 46t-130.5 127t-47 184zM403 254q0 -86 47.5 -143.5t131.5 -57.5q61 0 120 26t108 70t87 97l102 405q-17 77 -73.5 127.5t-134.5 50.5q-121 0 -209 -95t-133.5 -229.5t-45.5 -250.5z" />
<glyph unicode="r" horiz-adv-x="1374" d="M182 588q0 2 2 12q16 68 50.5 139.5t87.5 118.5t122 47q87 0 160.5 -39t91.5 -116q63 72 145 113.5t171 41.5q123 0 222 -37t99 -139q0 -39 -17 -71.5t-48.5 -53t-69.5 -20.5q-37 0 -64.5 24.5t-27.5 61.5q0 42 24.5 76.5t61.5 48.5q-67 34 -184 34q-112 0 -192 -68.5 t-140 -180.5l-129 -521q-9 -35 -41 -58.5t-66 -23.5q-32 0 -56 21t-24 53q0 10 5 23l147 592q8 40 8 59q0 45 -19.5 74.5t-60.5 29.5q-67 0 -100.5 -69t-65.5 -182q-3 -15 -24 -19h-43q-25 7 -25 29z" />
<glyph unicode="s" horiz-adv-x="1372" d="M236 178q0 61 36.5 106.5t98.5 45.5q39 0 65.5 -24t26.5 -62q0 -46 -29 -82.5t-74 -46.5q66 -62 258 -62q78 0 163 18.5t146.5 65t61.5 123.5q0 57 -57 87.5t-129 43.5l-158 25q-91 14 -160 65.5t-69 136.5q0 69 42 130t105 98q105 59 266 59q120 0 217 -39.5t97 -140.5 q0 -53 -31 -92t-84 -39q-32 0 -56 21.5t-24 54.5q0 37 22 66t54 40q-53 53 -199 53q-60 0 -127 -15t-115 -53.5t-48 -98.5q0 -81 143 -103l156 -27q67 -10 129 -37t103.5 -75.5t41.5 -116.5q0 -79 -49 -145.5t-125 -112.5q-126 -68 -320 -68q-144 0 -261 42t-117 159z" />
<glyph unicode="t" horiz-adv-x="1153" d="M170 819q0 56 39 64h274l80 319q9 34 41 57t66 23q32 0 55 -21t23 -53q0 -14 -3 -20l-75 -305h258q12 0 21 -10.5t9 -22.5q0 -56 -38 -66h-275l-141 -567q-8 -27 -8 -59q0 -42 19.5 -73.5t59.5 -31.5q65 0 126.5 37t106.5 92.5t73 122.5q4 10 22 19h43q27 -9 27 -29 q0 -2 -2 -12q-53 -126 -162.5 -216t-237.5 -90q-62 0 -121 21.5t-98 66.5t-39 111q0 26 6 47l140 561h-258q-12 0 -21.5 11t-9.5 24z" />
<glyph unicode="u" horiz-adv-x="1733" d="M182 588q0 2 2 12q16 58 45 111t74 98t99 70.5t114 25.5q90 0 159.5 -46.5t69.5 -133.5q0 -37 -16 -74q-18 -44 -41 -98.5t-43 -111t-32.5 -112t-12.5 -104.5q0 -79 42.5 -125.5t121.5 -46.5q153 0 280 193l140 557q8 35 38.5 57.5t65.5 22.5q33 0 56.5 -21t23.5 -53 q0 -7 -0.5 -11.5t-1.5 -9.5l-143 -571q-9 -30 -9 -59q0 -43 20 -74t60 -31q66 0 103 74.5t63 177.5q6 11 23 19h43q26 -9 26 -29q0 -2 -2 -12q-18 -74 -51 -142.5t-85.5 -116t-123.5 -47.5q-82 0 -150.5 33.5t-95.5 102.5q-131 -136 -286 -136q-94 0 -170 27.5t-121 89 t-45 158.5q0 47 12 100.5t26.5 96.5t41 108t47.5 117q18 43 18 82q0 73 -57 73q-85 0 -147.5 -77t-88.5 -174q-7 -13 -24 -19h-43q-25 7 -25 29z" />
<glyph unicode="v" horiz-adv-x="1479" d="M182 588q0 2 2 12q16 58 45 111t74 98t99 70.5t114 25.5q90 0 159.5 -46.5t69.5 -133.5q0 -37 -16 -74q-26 -63 -57.5 -140t-50.5 -147t-19 -128q0 -88 53 -135.5t144 -47.5q141 0 260 183q42 61 84.5 162t42.5 163q0 59 -18 83t-59.5 64.5t-41.5 73.5q0 48 37.5 86.5 t85.5 38.5q62 0 92.5 -55t30.5 -121q0 -102 -38 -233.5t-108 -250.5t-166 -194.5t-206 -75.5q-161 0 -267 66.5t-106 216.5q0 57 19.5 128.5t52 151t55.5 134.5q18 43 18 82q0 73 -57 73q-85 0 -147.5 -77t-88.5 -174q-3 -15 -24 -19h-43q-25 7 -25 29z" />
<glyph unicode="w" horiz-adv-x="2066" d="M182 588q0 2 2 12q16 58 45 111t74 98t99 70.5t114 25.5q90 0 159.5 -46.5t69.5 -133.5q0 -37 -16 -74q-17 -40 -40 -95.5t-42.5 -110.5t-31 -105.5t-11.5 -95.5q0 -96 58 -143.5t157 -47.5q127 0 207 172q0 12 -0.5 19.5t-1.5 15.5q0 44 14 100l111 443q8 35 38.5 57.5 t65.5 22.5q33 0 56.5 -21t23.5 -53q0 -7 -0.5 -11.5t-1.5 -9.5l-108 -434q-16 -59 -19 -118q0 -88 53 -135.5t144 -47.5q131 0 231 164q40 66 80.5 174t40.5 170q0 59 -18 83t-59.5 64.5t-41.5 73.5q0 47 38 86t85 39q62 0 92.5 -55t30.5 -123q0 -70 -23 -168t-60 -195.5 t-73 -156.5q-137 -232 -325 -232q-260 0 -340 144q-104 -144 -244 -144q-102 0 -191 26.5t-144.5 91t-55.5 169.5q0 44 10.5 90.5t32 108.5t51.5 134.5t31 76.5q18 43 18 82q0 73 -57 73q-85 0 -147.5 -77t-88.5 -174q-7 -13 -24 -19h-43q-25 7 -25 29z" />
<glyph unicode="x" horiz-adv-x="1620" d="M193 154q0 37 16.5 70.5t48 54t70.5 20.5q38 0 65 -24.5t27 -61.5q0 -42 -27.5 -79t-66.5 -48q42 -33 118 -33q71 0 128.5 54.5t74.5 123.5l90 361q17 79 17 108q0 61 -39 95t-103 34q-69 0 -133 -34.5t-110 -92.5t-62 -124q-7 -13 -24 -19h-43q-25 7 -25 29q0 2 2 12 q20 83 81 153t147.5 111t172.5 41t161 -34t116 -101q43 62 110 98.5t140 36.5q97 0 173.5 -43t76.5 -133q0 -58 -38.5 -101.5t-96.5 -43.5q-38 0 -65.5 24.5t-27.5 61.5q0 42 27 78.5t68 48.5q-47 32 -121 32q-70 0 -127 -53t-76 -125l-90 -360q-17 -63 -17 -109 q0 -60 40 -94.5t102 -34.5q68 0 133.5 35t110.5 92t63 125q7 12 23 19h43q26 -9 26 -29q0 -2 -2 -12q-20 -83 -82.5 -154.5t-147.5 -111.5t-171 -40q-87 0 -162 35t-117 101q-41 -61 -109 -98.5t-141 -37.5q-94 0 -170.5 43.5t-76.5 133.5z" />
<glyph unicode="y" horiz-adv-x="1495" d="M182 588q0 2 2 12q16 58 45 111t74 98t99 70.5t114 25.5q90 0 159.5 -46.5t69.5 -133.5q0 -37 -16 -74q-18 -44 -41 -98.5t-43 -111t-32.5 -112t-12.5 -104.5q0 -79 42.5 -125.5t121.5 -46.5q153 0 280 193l140 557q8 35 38.5 57.5t65.5 22.5q33 0 56.5 -21t23.5 -53 q0 -7 -0.5 -11.5t-1.5 -9.5l-201 -800q-29 -117 -119 -211t-213 -145.5t-245 -51.5q-107 0 -194 43.5t-87 138.5q0 39 17 73t48.5 54.5t69.5 20.5q39 0 66 -24t27 -62q0 -44 -28 -80.5t-69 -46.5q53 -41 154 -41q139 0 258 119q61 61 93 127.5t58 171.5q-115 -97 -243 -97 q-94 0 -170 27.5t-121 89t-45 158.5q0 47 12 100.5t26.5 96.5t41 108t47.5 117q18 43 18 82q0 73 -57 73q-85 0 -147.5 -77t-88.5 -174q-3 -15 -24 -19h-43q-25 7 -25 29z" />
<glyph unicode="z" horiz-adv-x="1409" d="M211 6q0 7 6 21q84 125 192 216.5t299 229t279 217.5q-48 1 -157 16t-173 15q-73 0 -126.5 -12.5t-63.5 -59.5q-5 -14 -25 -18h-43q-24 7 -24 28q0 3 2 13q14 51 43.5 93t75 74.5t95.5 49t99 16.5q45 0 83.5 -18.5t84.5 -52t79 -51t71 -17.5q46 0 82 35t79 96q1 2 19 8 h43q24 -7 24 -28q0 -10 -6 -19q-64 -96 -155.5 -182.5t-207.5 -171t-224 -164t-185 -150.5q10 3 35 3q58 0 176 -15.5t168 -15.5q96 0 180 36.5t103 114.5q3 14 22 19h43q27 -7 27 -29q0 -2 -2 -12q-20 -84 -82 -156.5t-147.5 -115t-174.5 -42.5q-44 0 -80 17t-84 52t-82 53 t-73 18q-61 0 -115.5 -37t-93.5 -94q-1 -1 -4 -2.5t-7 -3t-7 -3.5h-43q-25 8 -25 29z" />
<glyph unicode="{" horiz-adv-x="1092" d="M182 588q0 2 2 12q31 120 122.5 212.5t207.5 92.5q90 0 159.5 -46.5t69.5 -133.5q0 -37 -16 -74l-180 -442q-19 -40 -19 -82q0 -74 58 -74q83 0 146 78.5t87 173.5q3 14 23 19h43q26 -9 26 -29q0 -2 -2 -12q-13 -55 -45 -111.5t-73 -98t-96.5 -69t-114.5 -27.5 q-89 0 -159.5 48t-70.5 133q0 39 17 73l180 443q18 43 18 82q0 73 -57 73q-83 0 -145.5 -77t-88.5 -174q-3 -15 -24 -19h-43q-25 7 -25 29z" />
<glyph unicode="|" horiz-adv-x="1133" d="M78 -276q0 55 38.5 96t94.5 41q38 0 65 -24.5t27 -61.5q0 -33 -15 -62t-42 -47q43 -10 88 -10q61 0 116.5 37.5t91.5 95t52 119.5l190 758q9 45 9 59q0 43 -20 73.5t-62 30.5q-66 0 -126 -36.5t-106 -95t-71 -119.5q-9 -14 -25 -19h-43q-25 7 -25 29q0 2 2 12 q51 126 161.5 215.5t238.5 89.5q101 0 179.5 -51.5t78.5 -146.5q0 -25 -6 -48l-195 -774q-23 -91 -92 -160t-164.5 -107t-187.5 -38q-97 0 -174.5 31.5t-77.5 112.5z" />
<glyph unicode="}" horiz-adv-x="1821" d="M299 391q0 106 52 234t142.5 215.5t198.5 87.5q13 0 22 -8t9 -23l-6 -27q-8 -15 -23 -18q-72 0 -132.5 -68t-95 -163t-34.5 -164q0 -85 45 -131q66 105 158.5 200.5t199 164.5t227.5 109t251 40q97 0 179.5 -42t130.5 -119.5t48 -176.5q0 -103 -47 -198t-129.5 -169 t-182.5 -116t-202 -42q-92 0 -164 52t-72 143q0 44 19.5 77.5t60.5 33.5q25 0 41.5 -15t16.5 -41q0 -47 -43 -67q7 -50 50.5 -78.5t96.5 -28.5q116 0 203 80t132.5 201t45.5 231q0 87 -51 143t-139 56q-119 0 -230 -38.5t-213 -110.5t-181.5 -161t-139.5 -192l225 -217 q57 -54 57 -149q0 -82 -43.5 -160.5t-117 -128t-154.5 -49.5q-103 0 -149 74.5t-46 181.5q0 166 78 350q-94 88 -94 227zM403 -207q0 -160 111 -160q45 0 86 28.5t66.5 74.5t25.5 92q0 47 -28 74l-199 192q-62 -167 -62 -301z" />
<glyph unicode="~" d="M502 1253v13q10 45 53 51h858q-41 54 -51 98v12q14 52 57 52q35 0 54 -37q31 -86 126 -129q28 -13 37 -47v-13q-9 -32 -37 -47q-132 -49 -215 -145q-21 -21 -45 -21q-46 0 -57 52v12q5 26 24 46.5t58 51.5h-809q-43 6 -53 51z" />
<glyph horiz-adv-x="1933" d="M248 61q0 52 53 78l289 150q44 47 90 123q20 31 44 82.5t44 104.5t20 79q0 16 -20 16q-206 0 -279 -39q-5 -3 -13.5 -14.5t-20.5 -11.5h-33q-12 0 -21.5 10.5t-9.5 22.5q0 4 2 10t4 14q32 94 157 143.5t247 49.5q48 0 70 -43t22 -95q0 -83 -40.5 -183t-96.5 -185l921 475 q75 35 142 35q72 0 88 -62q0 -50 -54 -78l-290 -149q-56 -62 -88 -123q-31 -49 -70 -140t-39 -126q0 -15 18 -15q210 0 281 37q4 3 12 15t21 12h33q14 0 22 -10t8 -23q0 -8 -4 -24q-23 -65 -91.5 -108t-155.5 -63t-156 -20q-47 0 -69.5 42.5t-22.5 92.5q0 84 40.5 184 t96.5 185l-924 -475q-72 -35 -139 -35q-77 0 -88 61z" />
<glyph unicode="&#xa1;" horiz-adv-x="1704" d="M236 35q0 55 38 63q127 0 172 8q33 9 48 50l276 1108v14q0 10 -6 12q-51 10 -172 10q-12 0 -21.5 11t-9.5 24q0 56 39 64h1237q14 0 22.5 -11.5t8.5 -25.5l-41 -428q0 -11 -9 -21t-22 -10h-33q-12 0 -21 12.5t-9 24.5q8 82 8 123q0 110 -52 162t-128.5 63.5t-206.5 11.5 h-264q-54 0 -74 -8.5t-31 -48.5l-276 -1106v-10q0 -15 18 -18q34 -7 87 -9t130 -2q13 0 22 -10t9 -22q0 -58 -39 -66h-672q-11 0 -19.5 11t-8.5 24z" />
<glyph unicode="&#xa2;" horiz-adv-x="2359" d="M244 16q0 10 6 19l1210 1399q34 32 70 32h35q40 0 53 -32l510 -1399v-8q0 -11 -8.5 -19t-18.5 -8h-1841q-16 0 -16 16zM502 190h1310l-389 1067z" />
<glyph unicode="&#xa3;" horiz-adv-x="2144" d="M233 539q0 184 94.5 350t253 291.5t345.5 194.5t368 69q179 0 337.5 -69.5t253.5 -203.5t95 -317q0 -187 -94.5 -352t-250.5 -287.5t-345 -191t-368 -68.5q-130 0 -255.5 38t-223.5 114t-154 184t-56 248zM453 498q0 -144 62 -249t173 -160.5t254 -55.5q168 0 317.5 71 t263 193.5t176 278t62.5 321.5q0 142 -60.5 249t-171 164.5t-253.5 57.5q-166 0 -316.5 -71.5t-265.5 -196.5t-178 -282.5t-63 -319.5zM592 569v9l65 262q11 26 31 26h33q13 0 22 -11.5t9 -23.5q0 -7 -9 -34h779q8 36 13 50t28 19h32q13 0 22 -10.5t9 -24.5q0 -4 -2 -8 l-65 -262q-10 -24 -29 -24h-33q-14 0 -22.5 9.5t-8.5 22.5q0 18 7 37h-779q-2 -16 -4 -26.5t-4.5 -17.5t-10 -14.5t-20.5 -10.5h-32q-13 0 -22 10t-9 22z" />
<glyph unicode="&#xa4;" horiz-adv-x="1978" d="M211 35q0 55 39 63q74 0 135.5 32.5t101.5 92.5q2 3 6 6t5 4l784 1201q21 32 57 32h35q35 0 41 -32l201 -1307q14 -29 147 -29q14 0 22.5 -10.5t8.5 -21.5q0 -58 -39 -66h-557q-10 0 -19.5 11t-9.5 24q0 55 39 63q142 0 170 39l-159 1037l-637 -973q-17 -34 -17 -47 q0 -56 111 -56q13 0 22 -10.5t9 -21.5q0 -58 -39 -66h-428q-12 0 -20.5 11t-8.5 24z" />
<glyph unicode="&#xa5;" horiz-adv-x="2083" d="M250 37l57 313q2 9 11.5 17t19.5 8h33q13 0 21.5 -11.5t8.5 -25.5q-18 -97 -18 -135q0 -13 2 -19q53 -8 279 -8h6h665q110 0 191.5 2.5t107.5 7.5q17 17 30 46t24.5 67t17.5 57q7 19 29 19h32q11 0 21 -10.5t10 -22.5q0 -6 -2 -8l-98 -314q-3 -6 -13.5 -13t-15.5 -7 h-1388q-12 0 -21.5 12.5t-9.5 24.5zM506 1081v9l92 284q8 25 31 25h1360q13 0 21.5 -11.5t8.5 -25.5l-51 -285q-4 -30 -31 -30h-32q-13 0 -22 11.5t-9 24.5q14 82 14 113q0 14 -2 21q-53 6 -272 6h-6h-654q-241 0 -292 -9q-13 -14 -22.5 -32.5t-16.5 -37.5t-13 -36t-12 -35 q-7 -26 -29 -26h-32q-12 0 -21.5 11t-9.5 23zM610 559q0 4 2 8l84 336q2 10 10.5 18.5t18.5 8.5h33q13 0 21.5 -11t8.5 -24v-8l-18 -72h801l22 88q2 10 10.5 18.5t18.5 8.5h33q13 0 22 -10.5t9 -24.5v-8l-84 -336q-11 -27 -31 -27h-33q-11 0 -21 12t-10 23q0 4 2 8l19 72 h-801l-22 -88q-11 -27 -31 -27h-33q-11 0 -21 12t-10 23z" />
<glyph unicode="&#xa6;" horiz-adv-x="2273" d="M236 35q0 55 38 63q127 0 172 8q33 9 48 50l274 1104q2 6 2 18q0 10 -6 12q-51 10 -172 10q-12 0 -21.5 11t-9.5 24q0 56 39 64h1606q12 0 21 -10.5t9 -22.5q0 -56 -38 -66q-127 0 -173 -8q-32 -7 -47 -49l-274 -1104q-4 -12 -4 -18q0 -10 6 -12q53 -11 174 -11 q13 0 22 -10.5t9 -21.5q0 -58 -39 -66h-615q-11 0 -19.5 11t-8.5 24q0 55 39 63q127 0 172 8q34 9 47 50l285 1144h-773l-288 -1161q-4 -12 -4 -18q0 -10 6 -12q53 -11 174 -11q13 0 22 -10.5t9 -21.5q0 -58 -39 -66h-615q-11 0 -19.5 11t-8.5 24z" />
<glyph unicode="&#xa7;" horiz-adv-x="2181" d="M264 35q0 16 15 26l759 568l-442 686q-6 9 -6 20q0 56 39 64h1435q13 0 22 -12t9 -25l-41 -428q0 -12 -9.5 -21.5t-21.5 -9.5h-32q-13 0 -22 12.5t-9 24.5q4 42 4 64q0 114 -41.5 183.5t-144.5 90.5q-80 16 -171 19t-227 3h-491l375 -581q6 -9 6 -19q0 -20 -15 -28 l-739 -551h535q181 0 286 8t201.5 42t175 112.5t137.5 216.5q4 8 11 13t16 5h33q14 0 22.5 -10t8.5 -23q0 -10 -3 -14l-180 -451q-8 -20 -28 -20h-1436q-11 0 -21 12t-10 23z" />
<glyph unicode="&#xa8;" horiz-adv-x="1720" d="M184 1110q0 39 37.5 100t73.5 97q41 41 93 72t110 48t114 17q130 0 215 -67.5t123.5 -176.5t38.5 -237v-43q61 134 155.5 253.5t218 195t265.5 75.5q76 0 137.5 -30t98.5 -87.5t37 -132.5q0 -109 -52 -109h-30q-10 0 -18.5 7.5t-8.5 17.5q0 6 2 8q2 10 2 29 q0 66 -67 91.5t-146 25.5q-101 0 -190 -50.5t-160 -135t-117.5 -180t-73.5 -198.5v-8l-137 -553q-2 -4 -2 -12q0 -12 6 -14q37 -15 230 -15q13 0 21.5 -10t8.5 -22q0 -58 -39 -66h-727q-11 0 -20.5 11t-9.5 24q0 55 39 63q168 0 223 11q38 9 51 43l139 557q25 70 25 190 q0 94 -29.5 178t-93.5 135.5t-162 51.5q-96 0 -178.5 -33.5t-101.5 -112.5q-5 -14 -17.5 -23.5t-25.5 -9.5h-31q-10 0 -18.5 7.5t-8.5 17.5z" />
<glyph unicode="&#xa9;" horiz-adv-x="1933" d="M178 647q0 103 83 185t210 138.5t258.5 86.5t224.5 30l43 173q2 4 2 12q0 11 -6 14q-39 14 -229 14q-11 0 -21 12t-10 23q0 56 39 64h711q12 0 21 -10.5t9 -22.5q0 -56 -38 -66q-170 0 -226 -10q-39 -11 -49 -43l-41 -157q80 0 180 -21t195.5 -62t159 -106.5t63.5 -148.5 q0 -104 -84.5 -187.5t-215 -140.5t-263 -86t-229.5 -29l-41 -170q-2 -4 -2 -12q0 -12 6 -14q37 -15 229 -15q13 0 22 -10t9 -22q0 -58 -39 -66h-711q-11 0 -20.5 11t-9.5 24q0 55 38 63q168 0 224 11q38 9 51 43l39 159q-101 0 -240.5 39.5t-240.5 115t-101 181.5zM410 633 q0 -124 116.5 -185t253.5 -61l156 627q-83 0 -177 -24.5t-172.5 -72t-127.5 -119t-49 -165.5zM985 385q117 0 244 42t211 128.5t84 210.5q0 68 -36.5 116.5t-93.5 77.5t-121 41.5t-132 12.5z" />
<glyph unicode="&#xaa;" horiz-adv-x="1829" d="M174 1073q0 15 9 28t24 13h141q52 0 89.5 -27.5t56 -72.5t18.5 -96q0 -38 -15.5 -119t-15.5 -119q0 -125 68.5 -198t195.5 -93l218 871q2 4 2 12q0 11 -7 14q-38 14 -229 14q-11 0 -21 12t-10 23q0 56 39 64h711q12 0 21.5 -11.5t9.5 -21.5q0 -56 -39 -66 q-170 0 -226 -10q-37 -10 -49 -43l-215 -856q123 18 222.5 79.5t165 156.5t98.5 221q16 65 55 126.5t96.5 100.5t122.5 39h141q13 0 22 -10t9 -23q0 -16 -8.5 -29.5t-24.5 -13.5q-76 0 -134 -63.5t-79 -143.5q-28 -116 -101 -219.5t-173 -167.5q-63 -38 -137.5 -69 t-151 -48.5t-143.5 -17.5l-41 -170q-2 -4 -2 -12q0 -12 6 -14q37 -15 229 -15q13 0 22 -10t9 -22q0 -58 -39 -66h-711q-11 0 -20.5 11t-9.5 24q0 55 39 63q168 0 223 11q38 9 51 43l41 159q-73 0 -165.5 32t-147.5 77q-42 33 -71.5 78.5t-44.5 100t-15 110.5q0 33 13 100.5 t13 101.5q0 57 -26 92t-78 35q-12 0 -21.5 11t-9.5 24z" />
<glyph unicode="&#xad;" horiz-adv-x="2171" d="M313 336q0 10 9.5 20.5t21.5 10.5h33q7 0 14 -5t12 -12t5 -14q0 -113 12 -158q18 -5 63 -7.5t95 -2.5h6h159q0 65 -33.5 134t-98 173.5t-99.5 187.5t-35 171q0 151 88 265.5t229.5 191.5t300.5 115t296 38q105 0 222.5 -24t219.5 -75.5t165.5 -135.5t63.5 -201 q0 -118 -67 -224.5t-190 -222.5t-228 -215t-156 -178h138q161 0 182 14q17 18 34 45.5t35 63.5t29 57q14 19 29 19h33q12 0 21 -10.5t9 -22.5q0 -5 -4 -15l-155 -299q-14 -20 -29 -20h-428q-11 0 -21 12t-10 23q0 2 2 8q29 116 96 218.5t193.5 267t188 279t61.5 228.5 q0 111 -63.5 186.5t-162.5 110.5t-210 35q-126 0 -246 -39.5t-217 -115t-154 -184t-57 -236.5q0 -69 11 -124t41.5 -171t44 -185t13.5 -139q0 -166 -47 -174h-428q-11 0 -21 10t-10 21z" />
<glyph unicode="&#xae;" horiz-adv-x="1870" d="M215 350q0 151 98.5 279.5t250.5 202t302 73.5q182 0 308 -100q42 -34 75.5 -80t54.5 -101t21 -104l10 -112q145 177 195 380q2 12 22 17h43q27 -7 27 -29q0 -2 -2 -10q-32 -129 -102.5 -250.5t-171.5 -224.5q0 -65 21.5 -151.5t66.5 -86.5q48 0 72.5 19t43.5 48.5 t29 31.5h43q25 -4 25 -29q0 -41 -36.5 -75t-88.5 -52.5t-95 -18.5q-82 0 -148 47.5t-99 129.5q-125 -85 -261 -131t-272 -46q-112 0 -212 44.5t-160 128.5t-60 200zM412 285q0 -71 29.5 -124t83.5 -80.5t126 -27.5q132 0 262.5 48.5t245.5 136.5q-4 16 -4 24l-18 211 q0 84 -32.5 166.5t-96 136t-148.5 53.5q-133 0 -236 -80.5t-157.5 -206t-54.5 -257.5z" />
<glyph unicode="&#xaf;" horiz-adv-x="1618" d="M152 -367l315 1262q37 151 146 277t260.5 199t306.5 73q90 0 170 -34t130 -100.5t50 -160.5q0 -70 -30 -134t-79.5 -116.5t-109.5 -89.5q76 -50 117.5 -127.5t41.5 -167.5q0 -150 -98 -276t-250.5 -198.5t-298.5 -72.5q-135 0 -256.5 51t-183.5 156l-139 -555 q-2 -11 -23 -16h-43q-26 7 -26 30zM434 340q0 -97 58.5 -164t148.5 -99t188 -32q101 0 185 46t142 123t89 172.5t31 193.5q0 109 -76 174q-93 -33 -188 -33q-226 0 -226 74q0 88 252 88q81 0 164 -25q48 37 82.5 94.5t53 122.5t18.5 127q0 53 -23.5 90t-64.5 56.5t-94 19.5 q-104 0 -203.5 -38.5t-184.5 -108t-145 -160.5t-84 -189l-113 -450q-10 -36 -10 -82zM909 801q31 -4 105 -4q35 0 65 6q-28 4 -49 4q-86 0 -121 -6z" />
<glyph unicode="&#xb0;" horiz-adv-x="1528" d="M147 539q0 2 3 10q25 101 100 183t176.5 127.5t206.5 45.5q108 0 193.5 -54t144.5 -142.5t95.5 -195.5t47.5 -204q116 282 275 557q8 14 24 17h43q25 -7 25 -29q0 -2 -2 -10q-230 -395 -361 -783q0 -48 -19.5 -155.5t-49.5 -208t-54 -123.5q-16 -16 -37 -16q-43 0 -43 61 q0 41 19 124.5t44 170t48 156.5q4 56 4 82q0 247 -98.5 408t-329.5 161q-123 0 -230 -46.5t-132 -148.5q-13 -14 -25 -16h-43q-25 7 -25 29z" />
<glyph unicode="&#xb1;" horiz-adv-x="1339" d="M211 344q0 98 44 189.5t116.5 162.5t165.5 122t188 71q-74 107 -117 193t-43 173q0 65 33 114.5t88 75t121 25.5q42 0 189.5 -23.5t166.5 -35.5q35 -18 35 -59q0 -40 -29.5 -71.5t-70.5 -31.5q-29 0 -75 22.5t-90.5 47t-88.5 41t-90 16.5q-39 0 -72 -21.5t-33 -58.5 q0 -63 83.5 -155t205.5 -207q86 -81 134 -175.5t48 -207.5q0 -102 -33.5 -205t-96.5 -189t-152 -138t-193 -52q-81 0 -161 25.5t-140.5 73.5t-96.5 119.5t-36 158.5zM387 293q0 -118 72 -183t190 -65q85 0 149.5 67t99 163t34.5 178q0 95 -41 176.5t-119 189.5 q-115 -23 -203 -103.5t-135 -192.5t-47 -230z" />
<glyph unicode="&#xb2;" horiz-adv-x="1255" d="M227 393q0 114 57 207t149.5 155.5t205 95t217.5 32.5h148q19 0 31 -13.5t12 -33.5q0 -19 -16.5 -35.5t-37.5 -16.5h-141q-136 0 -238 -59t-149 -180h455q18 0 29.5 -14t11.5 -33q0 -20 -15 -36t-37 -16h-473q-9 -56 -12 -114q0 -87 37.5 -149.5t105.5 -96t156 -33.5 q118 0 281 101q8 2 10 2q22 0 26 -19q15 -22 15 -43q0 -29 -65.5 -55.5t-151.5 -44t-119 -17.5q-126 0 -240 49t-183 143t-69 224z" />
<glyph unicode="&#xb3;" horiz-adv-x="1364" d="M225 362q0 168 85.5 336t225 301.5t293.5 206.5q-20 47 -20 107q0 127 59 127q21 0 33 -12t12 -33v-4q-10 -48 -10 -84q0 -42 10 -68q67 18 113 18q236 0 236 -73q0 -40 -46 -59t-102 -24t-115 -5q-73 0 -122 45q-90 -44 -179 -121t-160.5 -172.5t-114 -204t-42.5 -209.5 q0 -122 71.5 -199.5t196.5 -111.5l279 -74q78 -21 126 -76.5t48 -132.5q0 -63 -31 -123t-85 -98.5t-118 -38.5q-65 0 -166.5 28.5t-101.5 72.5q7 36 41 36q8 0 16 -4q102 -57 215 -57q36 0 59 32.5t23 69.5q0 29 -15.5 53t-40.5 39t-54 23l-271 70q-163 44 -255.5 150 t-92.5 269zM973 1176q4 0 4 -2q5 0 14 -1t17 -2q92 0 129 7q-33 4 -113 4q-24 0 -51 -6z" />
<glyph unicode="&#xb4;" horiz-adv-x="1522" d="M182 588q0 2 2 12q16 68 50.5 139.5t87.5 118.5t122 47q100 0 179 -50t79 -146q78 89 174 142.5t205 53.5q85 0 156 -24t114.5 -79.5t43.5 -142.5q0 -46 -13 -88l-233 -933q-9 -35 -39.5 -57.5t-65.5 -22.5q-31 0 -55 20.5t-24 52.5q0 15 2 21l231 926q16 58 16 108 q0 67 -35.5 105t-101.5 38q-96 0 -177.5 -49.5t-141 -126t-107.5 -170.5l-104 -424q-9 -35 -41 -58.5t-66 -23.5q-32 0 -56 21t-24 53q0 10 5 23l147 592q8 40 8 59q0 45 -19.5 74.5t-60.5 29.5q-67 0 -100.5 -69t-65.5 -182q-3 -15 -24 -19h-43q-25 7 -25 29z" />
<glyph unicode="&#xb5;" horiz-adv-x="1386" d="M219 451v4q0 101 22 210t61.5 209t94.5 191q57 94 135.5 180.5t173.5 142.5t195 56h4q115 0 190 -71.5t109.5 -181.5t34.5 -222q0 -157 -46.5 -313t-131.5 -300q-55 -91 -135.5 -179t-175.5 -144t-195 -56h-2q-88 0 -152.5 43t-104 113t-58.5 154.5t-19 163.5zM399 334 q0 -107 35 -194t123 -87q82 0 153.5 65.5t125 162.5t90.5 199t57 182h-534q-25 -108 -37.5 -183t-12.5 -145zM473 760h535q11 45 24 106t20 119t7 102q0 107 -34.5 194t-125.5 87q-82 0 -152.5 -64.5t-123.5 -160t-90.5 -198t-59.5 -185.5z" />
<glyph unicode="&#xb6;" horiz-adv-x="1124" d="M242 158q0 38 16 73q90 221 182 594q11 35 41.5 57.5t65.5 22.5q32 0 55 -21t23 -53q0 -62 -75.5 -299t-111.5 -323q-18 -37 -18 -82q0 -74 57 -74q80 0 159.5 30.5t137 87t78.5 134.5q3 14 22 19h44q26 -9 26 -29q0 -2 -2 -12q-23 -93 -98.5 -163t-175.5 -106.5 t-197 -36.5q-88 0 -158.5 48t-70.5 133z" />
<glyph unicode="&#xb8;" horiz-adv-x="1720" d="M248 53q0 47 39 78l659 535l-276 544q-68 136 -172 136q-13 0 -23 12t-10 22q0 19 13 30t32 11q126 0 208 -19t126 -93l590 -1159q25 -52 36 -72.5t33 -42.5q12 -12 15.5 -16.5t3.5 -12.5q0 -19 -27 -29h-133q-71 19 -100 68l-269 530l-590 -567q-39 -35 -75 -35 q-32 0 -56 24t-24 56z" />
<glyph unicode="&#xb9;" horiz-adv-x="1739" d="M190 -369q0 15 3 21l292 1173q11 35 41.5 57.5t65.5 22.5q32 0 55 -21t23 -53q0 -14 -2 -20l-113 -457q-15 -62 -18 -118q0 -89 53.5 -136t142.5 -47q97 0 179 61t143 152l135 537q8 35 38.5 57.5t65.5 22.5q33 0 56.5 -21t23.5 -53q0 -7 -0.5 -11.5t-1.5 -9.5l-143 -571 q-8 -27 -8 -59q0 -42 19.5 -73.5t59.5 -31.5q66 0 103 74.5t63 177.5q3 14 23 19h43q27 -10 27 -29q0 -2 -3 -12q-18 -74 -51 -142.5t-85.5 -116t-123.5 -47.5q-85 0 -156.5 36.5t-92.5 109.5q-153 -146 -318 -146q-73 0 -137.5 13t-116.5 45l-100 -397q-9 -34 -39.5 -57 t-65.5 -23q-31 0 -55.5 20.5t-24.5 52.5z" />
<glyph unicode="&#xba;" horiz-adv-x="1458" d="M244 35q0 2 2 8l166 670q8 28 8 45q0 26 -144 26q-10 0 -20 12t-10 23q0 56 39 64l315 22q17 0 27 -8.5t10 -24.5v-8l-191 -764q277 78 493.5 271t281.5 454q9 34 40 57t66 23q32 0 55 -21t23 -55q0 -46 -42 -137.5t-77 -142.5q-39 -61 -96.5 -121t-124.5 -115 q-75 -62 -163 -113.5t-178.5 -89.5t-190.5 -66t-195 -44h-57q-14 0 -25.5 10.5t-11.5 24.5z" />
<glyph unicode="&#xbb;" horiz-adv-x="1364" d="M174 207q0 82 43 161.5t111 144.5t143 108q-64 37 -101.5 93t-37.5 124q0 104 61 187t156.5 135.5t198.5 74.5q-11 39 -11 78q0 127 60 127q20 0 32.5 -12.5t12.5 -32.5v-4q-11 -53 -11 -84q0 -56 7 -56q58 6 116 6q236 0 236 -73q0 -88 -262 -88q-84 0 -135 55 q-104 -40 -179 -126t-75 -189q0 -47 19.5 -86.5t57.5 -69.5q102 31 201 31q236 0 236 -74q0 -88 -260 -88q-127 0 -224 31q-92 -44 -171 -131.5t-79 -176.5q0 -105 199 -163l463 -140q53 -17 85 -59t32 -94q0 -59 -32 -114t-85.5 -88.5t-112.5 -33.5q-31 0 -107.5 12 t-136 33.5t-59.5 50.5q0 16 12.5 27.5t28.5 11.5q12 0 17 -2q113 -57 249 -57q28 0 50 26t22 56q0 40 -51 55l-447 135q-115 36 -193.5 105.5t-78.5 173.5zM737 629q42 -4 62 -4q92 0 129 6q-33 4 -113 4q-37 0 -78 -6zM895 1178h170q-33 4 -113 4q-17 0 -57 -4z" />
<glyph unicode="&#xbc;" horiz-adv-x="1702" d="M176 602q0 5 8 19q48 68 107 126.5t131 97t147 38.5h930q28 0 47 -19t19 -49q0 -37 -27 -65.5t-65 -28.5h-316q-22 -113 -22 -211q0 -100 22 -197q27 -94 70 -166q3 -6 10 -17t10.5 -23t3.5 -21q0 -42 -34.5 -76.5t-75.5 -34.5q-51 0 -84 61t-47.5 142.5t-14.5 134.5 q0 150 64 408h-260q-17 -71 -49 -198.5t-55 -212t-57.5 -181.5t-57.5 -119q-38 -33 -76 -33q-33 0 -57.5 22t-24.5 54q0 19 12 47q176 313 268 621h-153q-85 0 -161.5 -36t-123.5 -103q-4 -4 -18 -9h-43q-27 9 -27 29z" />
<glyph unicode="&#xbd;" horiz-adv-x="1487" d="M190 -369q0 15 3 21l200 801q24 93 78.5 174t134.5 144.5t172.5 98.5t186.5 35q79 0 148.5 -26t121 -73.5t80 -113.5t28.5 -147q0 -110 -50 -212.5t-136 -183t-194 -126.5t-215 -46q-79 0 -145 30.5t-111 92.5l-117 -462q-9 -34 -39.5 -57t-65.5 -23q-31 0 -55.5 20.5 t-24.5 52.5zM522 229q23 -84 83.5 -130t146.5 -46q124 0 215 91t137.5 225.5t46.5 253.5q0 60 -22 106t-66 73t-105 27q-103 0 -181 -57.5t-128 -149.5t-76 -192z" />
<glyph unicode="&#xbe;" horiz-adv-x="1669" d="M209 324q0 142 92.5 272t236.5 208.5t283 78.5h645q28 0 47 -19t19 -49q0 -37 -27 -65.5t-65 -28.5h-281q30 -44 46 -97.5t16 -111.5q0 -111 -52 -209t-141 -171.5t-197.5 -114t-218.5 -40.5q-103 0 -196.5 41t-150 119.5t-56.5 186.5zM385 272q0 -68 29 -118t83.5 -75.5 t120.5 -25.5q118 0 216 69t152 179.5t54 228.5q0 191 -241 191q-128 0 -222 -59t-143 -162.5t-49 -227.5z" />
<glyph unicode="&#xbf;" horiz-adv-x="1395" d="M176 602q0 5 8 19q48 68 107 126.5t131 97t147 38.5h787q29 0 47 -19t18 -49q0 -37 -27 -65.5t-65 -28.5h-455l-122 -653q-11 -42 -40 -68.5t-71 -26.5q-32 0 -55 20.5t-23 53.5q0 9 4 29l201 645h-219q-85 0 -161.5 -36t-123.5 -103q-4 -4 -18 -9h-43q-27 9 -27 29z" />
<glyph unicode="&#xc0;" horiz-adv-x="1620" d="M182 588q0 2 2 12q16 58 45 111t74 98t99 70.5t114 25.5q90 0 159.5 -46.5t69.5 -133.5q0 -37 -16 -74q-15 -36 -39 -94t-43.5 -113.5t-30 -99.5t-10.5 -86q0 -110 73 -157.5t189 -47.5q134 0 265 129q45 45 90.5 112.5t74.5 139t29 127.5q0 59 -18 83t-59.5 64.5 t-41.5 73.5q0 47 38 86t85 39q62 0 92.5 -55t30.5 -121q0 -119 -44.5 -251.5t-124 -246t-189.5 -185t-232 -71.5q-112 0 -210.5 26t-164 91.5t-65.5 179.5q0 52 19 119t51 146.5t55 134.5q18 43 18 82q0 73 -57 73q-85 0 -147.5 -77t-88.5 -174q-3 -15 -24 -19h-43 q-25 7 -25 29z" />
<glyph unicode="&#xc1;" horiz-adv-x="1722" d="M229 365q0 154 120 280.5t294.5 197t325.5 70.5l123 492q2 11 22 16h43q27 -8 27 -30l-121 -478q115 0 232.5 -48t194.5 -139t77 -208q0 -119 -71.5 -221t-184.5 -174.5t-244 -113t-240 -40.5l-92 -372q-5 -13 -24 -17h-43q-25 8 -25 31l88 358q-113 0 -230.5 48 t-194.5 138.5t-77 209.5zM406 336q0 -91 49 -157.5t129 -100t168 -33.5l196 791q-83 0 -184.5 -39t-171.5 -95q-85 -69 -135.5 -165.5t-50.5 -200.5zM848 47q56 0 121.5 18.5t130 50.5t104.5 64q84 67 134.5 165t50.5 202q0 90 -48.5 156.5t-127.5 100.5t-169 34z" />
<glyph unicode="&#xc2;" horiz-adv-x="1769" d="M182 748q0 63 77 110t149 47q97 0 157 -14.5t108 -54.5t95 -117q83 -136 176 -361l555 510q17 15 35 15q19 0 32 -12t13 -31q0 -22 -16 -35l-582 -537q56 -130 114.5 -253.5t138 -241t138.5 -117.5q41 0 77 27t46 65q7 12 23 19h43q26 -8 26 -29q0 -41 -36.5 -78 t-90.5 -58.5t-98 -21.5q-97 0 -157 14.5t-108.5 54t-95.5 118.5q-49 81 -81 150t-95 210l-555 -510q-17 -14 -34 -14t-30 13t-13 30q0 22 14 35l581 536q-20 53 -70 161t-102.5 204.5t-112.5 171.5t-106 75q-41 0 -76 -25.5t-47 -66.5q-8 -13 -22 -18h-43q-27 8 -27 29z" />
<glyph unicode="&#xc3;" horiz-adv-x="1905" d="M182 588q0 2 2 12q16 58 45 111t74 98t99 70.5t114 25.5q90 0 159.5 -46.5t69.5 -133.5q0 -37 -16 -74q-19 -44 -49.5 -118.5t-50 -139.5t-19.5 -108q0 -74 42 -122.5t106.5 -72.5t142.5 -33l336 1348q8 13 25 16h43q24 -8 24 -30l-334 -1338h15q196 0 383 150 q85 68 152 168t67 190q0 59 -18 83t-59.5 64.5t-41.5 73.5q0 48 37.5 86.5t85.5 38.5q62 0 92.5 -55t30.5 -123q0 -52 -9 -95t-34 -142q-38 -151 -168 -281q-69 -69 -152.5 -121t-178 -82.5t-189.5 -30.5h-31l-96 -380q-9 -15 -23 -17h-43q-27 8 -27 31l95 371 q-101 0 -207 33t-177 104t-71 174q0 46 19 111t38.5 113.5t63.5 156.5q18 43 18 82q0 73 -57 73q-85 0 -147.5 -77t-88.5 -174q-7 -13 -24 -19h-43q-25 7 -25 29z" />
<glyph unicode="&#xc4;" horiz-adv-x="938" d="M702 1122q0 2 3 11q22 86 145.5 137.5t275 71.5t252.5 20t231.5 -17.5t237.5 -66t107 -131.5q0 -46 -31 -53h-43q-25 8 -25 30q3 6 3 17q0 44 -96 71.5t-216.5 39.5t-177.5 12q-48 0 -144.5 -7.5t-186 -23.5t-160.5 -46.5t-82 -76.5q-2 -11 -25 -16h-43q-25 7 -25 28z " />
<glyph unicode="&#x2000;" horiz-adv-x="768" />
<glyph unicode="&#x2001;" horiz-adv-x="1536" />
<glyph unicode="&#x2002;" horiz-adv-x="768" />
<glyph unicode="&#x2003;" horiz-adv-x="1536" />
<glyph unicode="&#x2004;" horiz-adv-x="512" />
<glyph unicode="&#x2005;" horiz-adv-x="384" />
<glyph unicode="&#x2006;" horiz-adv-x="256" />
<glyph unicode="&#x2007;" horiz-adv-x="256" />
<glyph unicode="&#x2008;" horiz-adv-x="192" />
<glyph unicode="&#x2009;" horiz-adv-x="307" />
<glyph unicode="&#x200a;" horiz-adv-x="85" />
<glyph unicode="&#x2010;" horiz-adv-x="938" d="M256 506v12q9 45 55 51q96 0 176 49t80 138q0 61 -39 102t-98 61.5t-119 20.5q-45 6 -55 51v13q5 24 21 37.5t40 13.5q66 0 130 -20t117 -58t85.5 -92t32.5 -123v-12q0 -89 -54.5 -156.5t-138.5 -103t-172 -35.5q-51 0 -61 51z" />
<glyph unicode="&#x2011;" horiz-adv-x="938" d="M256 506v12q9 45 55 51q96 0 176 49t80 138q0 61 -39 102t-98 61.5t-119 20.5q-45 6 -55 51v13q5 24 21 37.5t40 13.5q66 0 130 -20t117 -58t85.5 -92t32.5 -123v-12q0 -89 -54.5 -156.5t-138.5 -103t-172 -35.5q-51 0 -61 51z" />
<glyph unicode="&#x2012;" horiz-adv-x="938" d="M256 506v12q9 45 55 51q96 0 176 49t80 138q0 61 -39 102t-98 61.5t-119 20.5q-45 6 -55 51v13q5 24 21 37.5t40 13.5q66 0 130 -20t117 -58t85.5 -92t32.5 -123v-12q0 -89 -54.5 -156.5t-138.5 -103t-172 -35.5q-51 0 -61 51z" />
<glyph unicode="&#x2013;" horiz-adv-x="1536" d="M256 506v12q22 45 132 51q231 0 423.5 49t192.5 138q0 61 -94 102t-236 61.5t-286 20.5q-108 6 -132 51v13q12 24 50.5 37.5t96.5 13.5q158 0 312 -20t281.5 -58t205.5 -92t78 -123v-12q0 -89 -131 -156.5t-333 -103t-413 -35.5q-123 0 -147 51z" />
<glyph unicode="&#x2014;" horiz-adv-x="2560" d="M256 506v12q43 45 264 51q462 0 846.5 49t384.5 138q0 61 -187.5 102t-471 61.5t-572.5 20.5q-216 6 -264 51v13q24 24 101 37.5t192 13.5q318 0 625.5 -20t562.5 -58t411 -92t156 -123v-12q0 -89 -262 -156.5t-666 -103t-827 -35.5q-245 0 -293 51z" />
<glyph unicode="&#x202f;" horiz-adv-x="307" />
<glyph unicode="&#x205f;" horiz-adv-x="384" />
<glyph unicode="&#x2219;" horiz-adv-x="1694" d="M250 51q0 7 4 23l186 751q11 35 41.5 57.5t65.5 22.5q32 0 55 -21t23 -53q0 -14 -2 -20l-66 -262q98 29 264 135t256 152.5t207 46.5q39 0 65.5 -24t26.5 -64q0 -53 -40.5 -92t-92.5 -39q-38 0 -65 24.5t-27 65.5l3 14q2 13 3 18q-58 -20 -112.5 -49t-114.5 -68 t-115.5 -74.5t-112.5 -66.5q168 0 314.5 -48.5t146.5 -180.5q0 -19 -8 -55q-10 -42 -10 -76q0 -47 20 -81t64 -34q74 0 121 78.5t71 173.5q3 14 23 19h43q26 -9 26 -29q0 -2 -2 -12q-19 -74 -57.5 -143t-98 -116t-132.5 -47q-67 0 -125.5 25.5t-95.5 75t-37 117.5q0 26 6 55 q8 36 8 51q0 156 -444 156l-99 -398q-9 -35 -40 -58.5t-66 -23.5q-32 0 -56 21t-24 53z" />
<glyph unicode="&#xe000;" horiz-adv-x="905" d="M0 905h905v-905h-905v905z" />
</font>
</defs>
</svg>
