<?xml version="1.0" standalone="no"?>
<!DOCTYPE svg PUBLIC "-//W3C//DTD SVG 1.1//EN" "http://www.w3.org/Graphics/SVG/1.1/DTD/svg11.dtd" >
<svg xmlns="http://www.w3.org/2000/svg">
<metadata>
This is a custom SVG webfont generated by Font Squirrel.
Copyright   : Copyright C 1994 Basil K Malyshev All Rights Reserved012BaKoMa Fonts Collection LevelB
</metadata>
<defs>
<font id="cmmi8Regular" horiz-adv-x="1087" >
<font-face units-per-em="2048" ascent="1638" descent="-410" />
<missing-glyph horiz-adv-x="500" />
<glyph unicode=" "  horiz-adv-x="500" />
<glyph unicode="&#x09;" horiz-adv-x="500" />
<glyph unicode="&#xa0;" horiz-adv-x="500" />
<glyph unicode="!" horiz-adv-x="1352" d="M35 295q0 100 27 202.5t75 195t115 177.5q9 13 27 13q26 0 34 -31q0 -12 -6 -23q-188 -249 -188 -450q0 -97 48 -164.5t140 -67.5q138 0 256 146q0 47 12 123t40 133t73 57q26 0 40.5 -19t14.5 -48q0 -51 -27.5 -127t-58.5 -136q16 -60 54 -94.5t96 -34.5q95 0 187 64 t151 162.5t59 191.5q0 59 -19.5 91.5t-54 72.5t-34.5 64q0 44 36 78t76 34q55 0 79 -49t24 -108q0 -87 -26 -193.5t-69.5 -206.5t-91.5 -164q-69 -91 -157 -147.5t-189 -56.5q-79 0 -131 43.5t-72 123.5q-59 -76 -136 -121.5t-163 -45.5q-124 0 -182.5 90.5t-58.5 224.5z " />
<glyph unicode="&#x22;" horiz-adv-x="1004" d="M59 221q0 80 49.5 151t124.5 120q-35 26 -54 62.5t-19 74.5q0 97 81.5 163.5t196 100t207.5 33.5q39 0 107 -16t119 -44.5t51 -64.5q0 -25 -20.5 -46.5t-47.5 -21.5q-21 0 -31 10q-41 31 -91.5 48.5t-104.5 17.5q-72 0 -162.5 -15.5t-162 -55.5t-71.5 -107q0 -63 74 -103 q94 39 191 39q168 0 168 -65q0 -50 -58.5 -64t-134.5 -14q-97 0 -170 29q-67 -34 -117.5 -93.5t-50.5 -123.5q0 -94 93.5 -128t207.5 -34q122 0 208 21t124 98q6 16 29 16q28 -7 28 -35q-4 -12 -6 -16q-52 -102 -163.5 -151.5t-237.5 -49.5q-82 0 -165.5 29t-137.5 89 t-54 146zM412 494q20 -5 65 -5q70 0 103 7q-25 6 -86 6q-30 0 -82 -8z" />
<glyph unicode="#" horiz-adv-x="1294" d="M57 588v8q22 85 46 147t69 111t113 49q56 0 106 -23.5t79.5 -67t29.5 -101.5q0 -18 -8 -56l-76 -309q-25 -90 -25 -147q0 -154 162 -154q95 0 173.5 122t126.5 260.5t87 287.5q-362 114 -362 352q0 63 24.5 130t69 123t104.5 89t127 33q95 0 151 -67.5t78.5 -163.5 t22.5 -193q0 -141 -35 -281l36 -5q36 -6 54.5 -13.5t18.5 -22.5q0 -13 -8 -27t-23 -14q-43 10 -94 19q-38 -138 -118 -300t-194 -278t-243 -116q-141 0 -227 54.5t-86 186.5q0 64 20 139l76 310q10 40 10 75q0 38 -13.5 65.5t-47.5 27.5q-46 0 -76.5 -43.5t-45 -91 t-32.5 -121.5q-3 -19 -21 -19h-26q-9 0 -16 9t-7 16zM649 1071q0 -112 86.5 -180t220.5 -111q54 230 54 353q0 243 -113 243q-67 0 -124.5 -48.5t-90.5 -121t-33 -135.5z" />
<glyph unicode="$" horiz-adv-x="1806" d="M53 602q0 4 4 12q70 113 153.5 191t182.5 78h1331q28 0 44 -16t16 -44q0 -31 -24.5 -57.5t-57.5 -26.5h-78q21 -67 21 -137q0 -127 -68.5 -274t-183.5 -247.5t-246 -100.5q-124 0 -179 89.5t-55 221.5v8q-82 -139 -197.5 -229t-256.5 -90q-104 0 -151.5 75t-47.5 185 q0 258 197 499h-84q-58 0 -103.5 -21.5t-68.5 -42.5t-57 -58.5t-42 -38.5h-26q-10 0 -16.5 7.5t-6.5 16.5zM340 305q0 -74 35.5 -128t107.5 -54q114 0 212 70t165 177t96 220q2 8 8.5 13t12.5 5h27q9 0 15.5 -7t6.5 -17v-9q-29 -108 -29 -208q0 -102 39.5 -173t132.5 -71 q108 0 201 75t148 188t55 216q0 71 -23 137h-1007q-54 -62 -100 -133.5t-74.5 -148.5t-28.5 -152z" />
<glyph unicode="%" horiz-adv-x="1114" d="M156 -143q0 71 23 204t55 266.5t59 198.5q38 96 110.5 183t169 140.5t199.5 53.5q94 0 166 -45.5t110.5 -123.5t38.5 -173q0 -103 -42.5 -206t-116 -187.5t-171.5 -136t-202 -51.5q-63 0 -119.5 24.5t-98 68.5t-63.5 101q-36 -168 -36 -260q0 -85 69 -107t187 -22 q264 0 313 -31q37 -25 37 -80q0 -65 -29 -71h-27q-22 0 -22 24v11q0 14 -78 14q-48 0 -124 -5t-95 -5q-149 0 -231 40.5t-82 174.5zM399 250q0 -83 39.5 -144t118.5 -61q85 0 155 63.5t116 160.5t69 197t23 179q0 77 -37.5 135t-114.5 58q-113 0 -197 -100.5t-128 -240.5 t-44 -247z" />
<glyph unicode="&#x26;" horiz-adv-x="795" d="M70 440q0 100 53 187.5t140 148.5t189 94t201 33q71 0 149.5 -15.5t78.5 -58.5q0 -18 -14.5 -32.5t-32.5 -14.5q-5 0 -72 28t-113 28q-97 0 -202 -40.5t-176.5 -116.5t-71.5 -175q0 -58 34 -105.5t89 -74.5l303 -156q44 -22 71 -65t27 -93q0 -56 -30.5 -110t-81 -87.5 t-107.5 -33.5q-38 0 -92 14.5t-54 42.5q7 33 37 33q7 0 47.5 -12.5t65.5 -12.5q31 0 54.5 31t23.5 64q0 51 -58 84l-286 145q-77 42 -124.5 114t-47.5 156z" />
<glyph unicode="'" horiz-adv-x="1417" d="M106 393q0 76 27.5 168t74 176t99.5 137q7 9 17 9h26q10 0 16.5 -8.5t6.5 -16.5q0 -10 -6 -16q-47 -47 -90.5 -123.5t-70 -157t-26.5 -145.5q0 -121 102.5 -189t241.5 -92l51 166q52 157 113.5 284.5t161.5 222.5t233 95q121 0 188.5 -85t67.5 -208q0 -163 -100 -310 t-259 -233.5t-321 -86.5q-17 1 -31 1.5t-36 0.5l-66 -351q-6 -32 -33 -53.5t-61 -21.5q-28 0 -49 18t-21 47q0 9 7 27l110 352q-158 36 -265.5 138t-107.5 255zM616 125q23 -2 66 -2q123 0 260 56t228.5 157.5t91.5 228.5q0 56 -26.5 101t-74 69.5t-102.5 24.5 q-83 0 -152 -42.5t-123 -114t-87.5 -152.5t-49.5 -158z" />
<glyph unicode="(" horiz-adv-x="2175" d="M121 492v24q3 14 18 23q149 78 266.5 207t182.5 288q8 14 24 19h43q25 -7 25 -29q0 -2 -2 -12q-104 -272 -336 -453h1669q19 0 31 -13.5t12 -33.5q0 -19 -13 -33t-30 -14h-1864q-21 5 -26 27z" />
<glyph unicode=")" horiz-adv-x="2175" d="M121 510v25q5 19 26 24h1864q19 0 31 -13.5t12 -33.5q0 -19 -13 -33t-30 -14h-1669q232 -181 336 -453q2 -10 2 -12q0 -22 -25 -29h-43q-18 4 -24 19q-29 74 -75 147t-104.5 138t-128 119t-141.5 91q-15 9 -18 25z" />
<glyph unicode="*" horiz-adv-x="2175" d="M121 512q0 18 12 32.5t33 14.5h1667q-232 181 -336 453q-2 10 -2 12q0 22 25 29h43q18 -4 24 -19q34 -81 80 -153t102.5 -134.5t123.5 -114t145 -93.5q13 -9 16 -23v-24q-5 -22 -24 -27h-1864q-19 0 -32 14.5t-13 32.5z" />
<glyph unicode="+" horiz-adv-x="2175" d="M121 512q0 18 12 32.5t33 14.5h1864q19 -5 24 -24v-25q-3 -16 -16 -25q-154 -81 -270.5 -208.5t-180.5 -286.5q-8 -14 -24 -19h-43q-25 7 -25 29q0 2 2 12q104 272 336 453h-1667q-19 0 -32 14.5t-13 32.5z" />
<glyph unicode="," horiz-adv-x="604" d="M121 729q0 78 45.5 138.5t117.5 92t148 31.5q22 0 35.5 -12.5t13.5 -34.5q0 -19 -12.5 -31.5t-30.5 -15.5q-52 0 -104 -19t-85.5 -57.5t-33.5 -91.5q0 -80 69 -125t154 -45q43 -7 43 -47q0 -22 -14.5 -34.5t-34.5 -12.5q-120 0 -215.5 73t-95.5 191z" />
<glyph unicode="-" horiz-adv-x="604" d="M121 512q0 19 12.5 31.5t32.5 15.5q82 0 151.5 45t69.5 125q0 53 -33.5 91.5t-84.5 57.5t-103 19q-20 3 -32.5 15.5t-12.5 31.5q0 21 14 34t37 13q76 0 147.5 -31.5t116.5 -92t45 -138.5q0 -118 -95 -191t-214 -73q-21 0 -36 13t-15 34z" />
<glyph unicode="." d="M59 6v1014q8 43 47 43q5 0 21 -4l874 -504q25 -17 25 -43t-20 -39l-877 -508q-16 -4 -23 -4q-39 0 -47 45zM154 90l731 422l-731 422v-844z" />
<glyph unicode="/" d="M59 512q0 25 21 39l878 508q14 4 21 4q39 0 47 -43v-1014q-3 -19 -15.5 -32t-31.5 -13q-6 0 -18 4l-875 506q-27 13 -27 41zM201 512l731 -422v844z" />
<glyph unicode="0" d="M84 434q0 235 113 363.5t346 128.5q232 0 345 -128.5t113 -363.5q0 -154 -50.5 -260t-152 -161.5t-255.5 -55.5q-115 0 -201 31.5t-143.5 93t-86 149.5t-28.5 203zM270 459q0 -107 6.5 -176.5t30.5 -128.5t82 -95t154 -36q128 0 186.5 59.5t72 146.5t13.5 230 q0 140 -13.5 219t-72 130.5t-186.5 51.5t-187 -51.5t-72.5 -130.5t-13.5 -219z" />
<glyph unicode="1" d="M197 786v25q5 22 26 27q77 0 140 6t124 24t113 54q12 4 18 4q24 0 31 -25v-756q0 -41 21 -53q43 -16 225 -16q22 -5 27 -25v-24q-6 -27 -29 -27h-655q-23 0 -29 27v24q5 20 27 25q182 0 225 16q20 15 20 53v643q-54 -13 -121 -19.5t-131 -6.5q-26 0 -32 24z" />
<glyph unicode="2" d="M96 27v26q0 10 13 21l391 248q48 30 96 61t90 68t67 80.5t25 97.5q0 75 -45.5 125t-116.5 73t-143 23q-74 0 -141 -21.5t-107 -70.5q31 -6 49.5 -29t18.5 -55q0 -36 -25 -61t-61 -25t-61 25t-25 61q0 91 61 147t150.5 80.5t179.5 24.5q182 0 323.5 -68t141.5 -229 q0 -73 -39 -126.5t-97.5 -89.5t-148 -76t-121.5 -58l-213 -119h152q305 0 356 4q11 13 17.5 29.5t11.5 35t12 47.5q8 14 25 17h20q25 -7 25 -29q0 -2 -2 -10l-60 -236q-8 -15 -22 -18h-770q-22 5 -27 27z" />
<glyph unicode="3" d="M90 -127q0 49 33 81t80 32q48 0 80 -32t32 -81q0 -47 -32 -80t-80 -33q30 -46 86.5 -75.5t121.5 -42.5t124 -13q122 0 183.5 92.5t61.5 223.5q0 81 -26 153t-82.5 117t-139.5 45h-147q-8 0 -15.5 7.5t-7.5 15.5v20q0 9 7 16t16 7l125 8q53 0 97 30t72 78t43 104.5 t15 104.5q0 95 -54 154t-148 59q-83 0 -157.5 -26t-117.5 -82q43 0 72.5 -31t29.5 -76q0 -44 -29 -74t-75 -30t-76 30t-30 74q0 92 58 154.5t147 92.5t178 30q64 0 132.5 -16t129.5 -50t99 -86.5t38 -120.5q0 -123 -79.5 -218t-201.5 -138q85 -17 164.5 -65.5t128.5 -122 t49 -164.5q0 -114 -67.5 -202.5t-174 -135.5t-218.5 -47q-102 0 -205.5 33.5t-171.5 104t-68 175.5z" />
<glyph unicode="4" d="M61 27v39q0 12 9 20l643 846q10 14 28 14h39q13 0 21 -8t8 -20v-842h190q20 -5 25 -25v-24q-5 -22 -25 -27h-190v-252q0 -47 18 -55q41 -15 168 -15q20 -5 25 -26v-25q-3 -24 -29 -24h-538q-26 0 -29 24v25q5 21 25 26q55 0 97.5 2.5t69.5 12.5q19 8 19 55v252h-547 q-21 5 -27 27zM147 76h502v659z" />
<glyph unicode="5" d="M109 -78q0 45 29 75t73 30q30 0 54 -14t37 -38t13 -53q0 -44 -29 -73t-75 -29h-10q37 -88 120.5 -139.5t180.5 -51.5q151 0 217.5 107t66.5 266q0 149 -46 259t-173 110q-77 0 -129 -19.5t-77 -41.5t-56.5 -57t-44.5 -38h-18q-22 6 -27 27v659q8 25 27 25h6 q153 -64 307 -64t307 64h6q10 0 17.5 -6.5t7.5 -16.5v-20q0 -9 -6 -15q-51 -57 -115.5 -97.5t-137.5 -62.5t-153 -22q-97 0 -190 25v-373q112 98 276 98q87 0 163.5 -35.5t131.5 -96.5t85 -140.5t30 -165.5q0 -124 -66.5 -224.5t-176.5 -157t-232 -56.5q-101 0 -192.5 47 t-146 130t-54.5 185z" />
<glyph unicode="6" d="M90 662q0 169 69.5 331t201 265.5t303.5 103.5q118 0 197 -58t79 -171q0 -41 -29 -70t-69 -29q-41 0 -70 29t-29 70q0 40 27 69t68 29q-24 37 -72 53t-102 16q-110 0 -195.5 -72.5t-128.5 -178.5q-22 -55 -33.5 -115t-15.5 -117.5t-4 -124.5q27 54 69 96t97 65.5 t112 23.5q124 0 222.5 -63t153 -167.5t54.5 -228.5q0 -126 -59 -231.5t-164 -167.5t-229 -62q-172 0 -273.5 108.5t-140.5 267t-39 329.5zM291 410q0 -147 60 -265t192 -118q157 0 206.5 108t49.5 283q0 109 -15.5 194t-69.5 142t-159 57q-86 0 -145.5 -53t-89 -133.5 t-29.5 -161.5q1 -11 1.5 -20t0.5 -23q0 -4 -0.5 -6t-1.5 -4z" />
<glyph unicode="7" d="M121 543l72 381q5 19 26 24h21q24 -7 24 -28v-7q15 -30 359 -30h407q19 -6 25 -25v-24q-3 -14 -6 -17l-299 -381q-59 -75 -93.5 -166t-51.5 -198.5t-20 -194t-3 -219.5q0 -41 -28.5 -69.5t-70.5 -28.5q-40 0 -69 29t-29 69q0 146 36.5 290t105 277t161.5 250l182 234 h-254q-323 0 -376 -9q-19 -24 -27.5 -62.5t-19.5 -100.5q-6 -22 -25 -27h-21q-26 6 -26 33z" />
<glyph unicode="8" d="M90 313q0 128 86 223.5t217 153.5l-71 45q-77 46 -123.5 121.5t-46.5 161.5q0 100 56 179t146.5 122t188.5 43q70 0 140 -20t125.5 -58t90.5 -96t35 -133q0 -190 -250 -318l119 -71q56 -35 99 -84.5t68 -110t25 -125.5q0 -115 -65 -203.5t-169.5 -137t-217.5 -48.5 q-110 0 -214 41.5t-171.5 123t-67.5 191.5zM213 313q0 -83 47.5 -149t124 -101.5t158.5 -35.5q78 0 154.5 29t125.5 87t49 136q0 58 -34.5 111.5t-89.5 86.5l-283 170q-107 -49 -179.5 -137t-72.5 -197zM262 1092q0 -48 29 -90.5t74 -69.5l249 -152q91 47 150 116.5 t59 158.5q0 56 -23.5 101t-63 76.5t-91 49.5t-102.5 18q-47 0 -95 -12t-92 -39t-69 -66t-25 -91z" />
<glyph unicode="9" d="M90 479q0 97 36.5 179.5t100.5 141.5t150 92.5t178 33.5q128 0 216 -63t136 -163t68 -218t20 -236q0 -119 -36.5 -241t-105.5 -223t-171.5 -161.5t-228.5 -60.5q-128 0 -218 54t-90 173q0 40 29 69t70 29q40 0 69 -29t29 -69q0 -37 -25.5 -67.5t-62.5 -30.5 q58 -60 199 -60q98 0 176 66t121 168q49 125 49 350q-44 -81 -118.5 -131.5t-162.5 -50.5q-121 0 -219.5 60.5t-153.5 164.5t-55 223zM287 479q0 -108 15.5 -190t69 -137.5t158.5 -55.5q84 0 144.5 51.5t90.5 129.5t30 163q0 13 -0.5 20.5t-1.5 16.5q1 3 1.5 5.5t0.5 4.5 q0 85 -22.5 172.5t-75.5 146t-142 58.5q-109 0 -168.5 -53t-79.5 -138.5t-20 -193.5z" />
<glyph unicode=":" horiz-adv-x="604" d="M184 119q0 47 35 82t84 35t83 -34t34 -83q0 -51 -34 -85t-83 -34t-84 35t-35 84z" />
<glyph unicode=";" horiz-adv-x="604" d="M184 119q0 49 35 83t84 34q77 0 109 -69t32 -155q0 -115 -46.5 -221t-133.5 -182q-6 -6 -16 -6q-12 0 -24.5 11.5t-12.5 25.5q0 6 8 18q75 67 117.5 161t42.5 193v15q-33 -27 -76 -27q-49 0 -84 34t-35 85z" />
<glyph unicode="&#x3c;" horiz-adv-x="1692" d="M182 512q0 27 29 43l1231 596q12 4 18 4q19 0 33 -14t14 -33q0 -27 -26 -43l-1143 -553l1145 -555q11 -5 17.5 -16t6.5 -25q0 -19 -14 -33t-33 -14q-6 0 -18 4l-1233 598q-27 10 -27 41z" />
<glyph unicode="=" d="M121 -465q0 5 4 19l749 1955q17 27 44 27q20 0 33.5 -13.5t13.5 -33.5q0 -5 -4 -19l-750 -1955q-16 -27 -43 -27q-19 0 -33 14t-14 33z" />
<glyph unicode="&#x3e;" horiz-adv-x="1692" d="M182 -84q0 27 29 43l1141 553l-1143 555q-27 10 -27 41q0 20 13.5 33.5t33.5 13.5q5 0 21 -4l1233 -596q24 -14 24 -43q0 -27 -26 -43l-1231 -596q-16 -4 -21 -4q-20 0 -33.5 13.5t-13.5 33.5z" />
<glyph unicode="?" d="M31 623q0 12 10 20t22 8l400 -76l51 402q7 24 29 24q21 0 28 -24l52 -402l399 76q12 0 22.5 -8t10.5 -20q0 -20 -19 -27l-364 -172l196 -358q2 -9 2 -11q0 -12 -8.5 -20t-19.5 -8q-15 0 -23 8l-276 295l-277 -295q-8 -8 -22 -8q-12 0 -20.5 8.5t-8.5 19.5q0 2 2 11 l197 358l-365 172q-18 7 -18 27z" />
<glyph unicode="@" horiz-adv-x="1145" d="M88 326q0 158 88.5 300t232 228t300.5 86q109 0 187 -61t103 -162q50 193 50 317q0 73 -19.5 141t-57 118.5t-95.5 80t-136 29.5q-88 0 -166.5 -38.5t-123.5 -113.5q37 0 60.5 -21t23.5 -56q0 -48 -36.5 -83.5t-82.5 -35.5q-33 0 -58.5 22t-25.5 56q0 58 47.5 133 t99.5 114q110 84 264 84q149 0 258.5 -74t165.5 -198.5t56 -269.5q0 -105 -31.5 -235.5t-85 -249.5t-119.5 -208q-58 -77 -134 -139t-165.5 -97.5t-185.5 -35.5q-190 0 -295 106q-119 116 -119 263zM266 252q0 -108 64.5 -166.5t175.5 -58.5q279 0 418 417v7q0 2 2 6 q28 76 28 155q0 75 -27.5 134.5t-82 93.5t-127.5 34q-187 0 -309 -163q-35 -47 -67 -131t-53.5 -178.5t-21.5 -149.5z" />
<glyph unicode="A" horiz-adv-x="1628" d="M80 33l6 26q11 15 25 17q83 0 145 37q37 22 67 61t42 49l755 1211q17 28 49 28h21q29 0 35 -28l164 -1317q14 -41 153 -41q25 -8 25 -31l-6 -27q-9 -15 -25 -18h-512q-9 0 -17 10.5t-8 22.5l7 26q8 14 24 17q152 0 160 53l-41 334h-553l-168 -266q-2 -12 -10 -30.5 t-8 -29.5q0 -34 30.5 -47.5t67.5 -13.5q24 -8 24 -31l-6 -27q-8 -15 -22 -18h-400q-10 0 -17 10.5t-7 22.5zM643 539h496l-82 661z" />
<glyph unicode="B" horiz-adv-x="1640" d="M104 33l7 26q8 14 24 17q113 0 153.5 10t51.5 68l276 1106q7 17 7 34q0 15 -17 21q-37 8 -145 8q-27 7 -27 33l8 26q9 15 23 17h758q93 0 186 -30t155 -95t62 -162q0 -102 -69 -182t-170.5 -130.5t-200.5 -68.5q134 -14 234 -89.5t100 -201.5q0 -97 -56 -179t-144 -139 t-191.5 -89.5t-194.5 -32.5h-805q-25 8 -25 33zM506 88q0 -12 63 -12h324q103 0 200.5 51t158.5 139.5t61 190.5q0 103 -66 170t-170 67h-424l-139 -555q-8 -32 -8 -51zM670 760h334q96 0 194 46t162.5 128t64.5 180q0 94 -63 151.5t-158 57.5h-309q-44 0 -60 -3.5 t-24.5 -18.5t-19.5 -56z" />
<glyph unicode="C" horiz-adv-x="1550" d="M109 528q0 177 81.5 344t221.5 296t311 201.5t344 72.5q110 0 203.5 -46.5t152.5 -133.5l164 174q6 6 15 6h12q10 0 16 -7t6 -18v-6l-137 -543q-4 -18 -20 -18h-31q-23 0 -23 27q7 45 7 94q0 108 -40.5 198t-118.5 143.5t-188 53.5q-167 0 -311 -77.5t-247 -210 t-159.5 -294t-56.5 -323.5q0 -128 53 -225t151 -150t226 -53q133 0 258 63.5t215 173t121 236.5q4 16 23 16h26q9 0 16 -7t7 -17q0 -2 -2 -6q-37 -149 -143.5 -272t-253 -193t-299.5 -70q-168 0 -306 71.5t-216 201.5t-78 298z" />
<glyph unicode="D" horiz-adv-x="1784" d="M100 33l6 26q9 14 25 17q113 0 153.5 10t51.5 68l276 1106q6 18 6 34t-16 21q-37 8 -145 8q-27 7 -27 33l8 26q8 14 23 17h764q149 0 265 -69t179.5 -189t63.5 -269q0 -162 -69.5 -318.5t-191.5 -281.5t-278.5 -198.5t-319.5 -73.5h-749q-25 8 -25 33zM510 88 q0 -12 63 -12h267q252 0 448 186q56 56 103 140t80 177t51 189.5t18 175.5q0 116 -48 202.5t-137 131.5t-204 45h-252q-44 0 -60 -3.5t-24.5 -18.5t-19.5 -56l-277 -1106q-8 -32 -8 -51z" />
<glyph unicode="E" horiz-adv-x="1593" d="M98 33l6 26q9 14 25 17q113 0 153.5 10t51.5 68l276 1106q6 18 6 34t-16 21q-37 8 -145 8q-27 7 -27 33l8 26q8 15 23 17h1157q24 -7 24 -31l-43 -416q-5 -20 -26 -26h-21q-24 7 -24 32q8 91 10 140q0 83 -30 129t-80.5 66t-108.5 25t-152 5h-262q-44 0 -60 -3.5 t-24.5 -18.5t-19.5 -56l-305 -1227q-12 -16 -25 -18h-139q-25 7 -25 33l336 1349q8 14 25 17h139q24 -8 24 -31l-149 -604h168q110 0 164 13.5t87 60.5t58 149q8 13 25 17h20q25 -10 25 -31l-127 -506q-8 -16 -23 -18h-20q-27 7 -27 32q21 82 21 117q0 59 -57 74.5 t-146 15.5h-189l-165 -670q-12 -16 -25 -18h-139q-25 7 -25 33l336 1349q8 14 25 17h139q24 -8 24 -31l-307 -1229q-8 -32 -8 -51q0 -12 64 -12h270q152 0 246 21t157.5 69t111 127.5t114.5 230.5q8 15 22 17h21q26 -7 26 -29q0 -2 -2 -10l-211 -484q-10 -16 -24 -18h-1186 q-25 8 -25 33z" />
<glyph unicode="F" horiz-adv-x="1376" d="M98 33l6 26q9 14 25 17q113 0 153.5 10t51.5 68l276 1106q6 18 6 34t-16 21q-37 8 -145 8q-27 7 -27 33l8 26q8 15 23 17h1126q25 -7 25 -31l-43 -416q-5 -20 -27 -26h-20q-25 7 -25 32q10 120 10 142q0 104 -46.5 152.5t-117 59.5t-190.5 11h-248q-44 0 -60 -3.5 t-24.5 -18.5t-19.5 -56l-127 -508h162q109 0 162 14.5t84 59.5t57 147q8 17 22 19h21q26 -7 26 -31l-127 -506q-8 -15 -22 -18h-21q-26 7 -26 33q20 78 20 118t-31 60t-70.5 24.5t-92.5 4.5h-183l-131 -523q-2 -3 -2 -8v-10q0 -5 -2 -8q0 -21 21 -27q25 -5 74.5 -7.5 t117.5 -2.5q27 -8 27 -31l-8 -27q-9 -16 -23 -18h-604q-9 0 -17 10.5t-8 22.5z" />
<glyph unicode="G" horiz-adv-x="1694" d="M109 528q0 177 81.5 344t221.5 296t311 201.5t344 72.5q70 0 137.5 -20t125 -62t95.5 -98l164 174q6 6 15 6h12q10 0 16 -7t6 -18v-6l-137 -543q-4 -18 -20 -18h-31q-23 0 -23 27q7 45 7 94q0 108 -40.5 198t-118.5 143.5t-188 53.5q-168 0 -311 -77t-248 -211t-160 -294 t-55 -319q0 -132 55.5 -230t155.5 -150t232 -52q134 0 254 55t147 166l43 172q2 8 2 25q0 20 -18 28q-49 10 -207 10q-27 10 -27 33l8 27q12 16 33 16h553q11 0 18 -9t7 -21l-6 -27q-9 -15 -23 -19q-75 0 -105.5 -11.5t-45.5 -65.5l-99 -394q-6 -18 -24 -18q-20 0 -52.5 44 t-46.5 77q-76 -86 -199.5 -125t-258.5 -39q-167 0 -305 71.5t-216.5 201.5t-78.5 298z" />
<glyph unicode="H" horiz-adv-x="1786" d="M98 33l6 26q2 12 25 17q113 0 153.5 10t51.5 68l276 1106q6 18 6 34t-16 21q-37 8 -145 8q-27 7 -27 33l8 26q2 12 23 17h553q10 0 17 -9.5t7 -21.5l-6 -27q-5 -14 -24 -18q-113 0 -154 -10q-38 -9 -53 -68l-119 -479h651l123 494q6 18 6 34t-16 21q-37 8 -146 8 q-26 7 -26 33l8 26q2 12 23 17h552q11 0 18 -9.5t7 -21.5l-6 -27q-5 -14 -25 -18q-112 0 -153 -10q-37 -9 -54 -68l-276 -1106q-4 -24 -4 -35q0 -10 3.5 -13.5t12.5 -6.5q37 -8 146 -8q24 -7 24 -31l-6 -27q-2 -13 -22 -18h-553q-11 0 -18 10.5t-7 22.5l6 26q2 12 25 17 q112 0 153 10q39 9 52 68l135 536h-651l-140 -551q-4 -24 -4 -35q0 -15 17 -20q36 -8 145 -8q25 -7 25 -31l-7 -27q-2 -13 -22 -18h-553q-9 0 -17 10.5t-8 22.5z" />
<glyph unicode="I" horiz-adv-x="942" d="M88 33l6 26q2 12 25 17q55 0 98.5 2.5t65.5 7.5q40 10 51 68l276 1106q6 15 6 32t-18 23q-39 8 -154 8q-26 7 -26 33l8 26q2 12 23 17h573q9 0 17 -10.5t8 -20.5l-7 -27q-5 -14 -24 -18q-121 0 -164 -10q-38 -9 -53 -68l-277 -1106q-4 -20 -4 -33q0 -17 17 -22 q40 -8 155 -8q25 -7 25 -31l-6 -27q-2 -13 -23 -18h-573q-11 0 -18 10.5t-7 22.5z" />
<glyph unicode="J" horiz-adv-x="1188" d="M158 182q0 67 38 115.5t103 48.5q39 0 66.5 -25.5t27.5 -64.5q0 -56 -40.5 -95.5t-96.5 -39.5h-8q25 -49 81.5 -73.5t116.5 -24.5q68 0 128 42.5t102 109t59 130.5l238 955q4 16 4 24q0 24 -21 29q-47 10 -200 10q-27 7 -27 33l6 26q11 15 25 17h557q10 0 17 -9.5 t7 -21.5l-6 -27q-10 -16 -24 -18q-76 0 -107 -11.5t-49 -66.5l-240 -962q-23 -95 -98 -170t-175 -115.5t-198 -40.5q-70 0 -136.5 25t-108 76t-41.5 124z" />
<glyph unicode="K" horiz-adv-x="1835" d="M98 33l6 26q2 12 25 17q113 0 153.5 10t51.5 68l276 1106q6 18 6 34t-16 21q-37 8 -145 8q-27 7 -27 33l8 26q2 12 23 17h553q10 0 17 -9.5t7 -21.5l-6 -27q-5 -14 -24 -18q-113 0 -154 -10q-38 -9 -53 -68l-160 -645l838 612q3 6 32 31.5t29 48.5q0 31 -57 31 q-25 7 -25 33l6 26q2 12 23 17h401q11 0 18 -9.5t7 -21.5l-8 -27q-2 -13 -23 -18q-84 0 -169.5 -42t-170.5 -105q-3 -1 -5.5 -2t-6.5 -3l-438 -319l346 -717q17 -28 38.5 -40.5t45 -15.5t63.5 -3q25 -8 25 -31l-6 -27q-3 -14 -25 -18h-475q-11 0 -18 10.5t-7 22.5l6 26 q4 12 25 17q117 0 117 53q-2 4 -2 12l-289 596l-320 -233l-92 -365q-4 -24 -4 -35q0 -15 17 -20q36 -8 145 -8q25 -7 25 -31l-7 -27q-2 -13 -22 -18h-553q-9 0 -17 10.5t-8 22.5z" />
<glyph unicode="L" horiz-adv-x="1479" d="M98 33l6 26q9 14 25 17q113 0 153.5 10t51.5 68l276 1106q6 18 6 34t-16 21q-37 8 -145 8q-27 7 -27 33l8 26q8 15 23 17h604q10 0 17 -9.5t7 -21.5l-6 -27q-8 -15 -24 -18q-150 0 -201 -10q-43 -13 -57 -68l-277 -1106q-8 -32 -8 -51q0 -12 64 -12h210q118 0 204 29.5 t146 86.5t102.5 136t84.5 194q12 15 25 19h20q25 -7 25 -29q0 -2 -2 -12l-179 -482q-10 -16 -24 -18h-1067q-25 8 -25 33z" />
<glyph unicode="M" horiz-adv-x="2089" d="M109 33l6 26q2 13 24 17q187 0 219 135l263 1049q6 18 6 34t-17 21q-37 8 -145 8q-27 8 -27 33l8 26q3 12 23 17h358q15 0 24.5 -7.5t10.5 -21.5l182 -1171l768 1171q20 29 50 29h344q12 -3 19 -11t7 -20l-6 -27q-5 -14 -24 -18q-113 0 -154 -10q-38 -9 -53 -68 l-277 -1106q-4 -24 -4 -35q0 -15 17 -20q36 -8 145 -8q25 -7 25 -31l-7 -27q-2 -13 -22 -18h-533q-10 0 -17 10.5t-7 22.5l6 26q2 13 25 17q112 0 152.5 10t51.5 68l291 1163l-844 -1288q-17 -29 -51 -29t-37 29l-198 1271l-277 -1103q-4 -26 -4 -39q0 -51 42 -66.5 t106 -15.5q24 -7 24 -31l-6 -27q-2 -13 -23 -18h-440q-10 0 -17 10.5t-7 22.5z" />
<glyph unicode="N" horiz-adv-x="1726" d="M98 33l6 26q9 14 25 17q187 0 219 135l277 1102q-45 10 -170 10q-27 7 -27 33l8 26q8 15 23 17h350q17 -3 22 -17l498 -1075l223 895q7 26 7 39q0 82 -148 82q-27 8 -27 33l9 26q8 15 22 17h440q11 0 18 -9.5t7 -21.5l-6 -27q-11 -16 -25 -18q-185 0 -221 -135 l-291 -1170q-10 -16 -24 -18h-27q-17 3 -22 18l-570 1227q-4 8 -4 10l-266 -1058q-4 -26 -4 -39q0 -51 42 -66.5t105 -15.5q25 -7 25 -31l-6 -27q-8 -15 -23 -18h-440q-9 0 -17 10.5t-8 22.5z" />
<glyph unicode="O" horiz-adv-x="1651" d="M104 512q0 173 77.5 339.5t213 301t305 212t340.5 77.5q123 0 224.5 -40.5t177 -115.5t116.5 -178.5t41 -226.5q0 -175 -77 -341.5t-211.5 -299t-301 -208t-341.5 -75.5q-120 0 -225 40.5t-180.5 114.5t-117 176t-41.5 224zM315 467q0 -184 97 -309t276 -125 q152 0 285.5 86.5t229 226.5t147 302t51.5 304q0 117 -44 213t-129.5 150.5t-205.5 54.5q-158 0 -290 -82t-225 -217t-142.5 -296t-49.5 -308z" />
<glyph unicode="P" horiz-adv-x="1378" d="M100 33l6 26q3 13 25 17q113 0 153.5 10t51.5 68l276 1106q6 18 6 34t-16 21q-37 8 -145 8q-27 7 -27 33l8 26q2 12 23 17h733q101 0 199 -34.5t162.5 -106t64.5 -175.5q0 -102 -58.5 -186t-154 -143.5t-204 -91t-202.5 -31.5h-354l-123 -492q-4 -24 -4 -35q0 -15 17 -20 q36 -8 145 -8q25 -7 25 -31l-7 -27q-2 -13 -22 -18h-553q-9 0 -17 10.5t-8 22.5zM659 700h308q219 0 327 111q35 35 62.5 90t42 117t14.5 112q0 109 -85 151t-206 42h-223q-44 0 -60 -3.5t-24.5 -18.5t-19.5 -56z" />
<glyph unicode="Q" horiz-adv-x="1710" d="M104 512q0 173 77.5 339.5t213 301t305 212t340.5 77.5q123 0 224.5 -40.5t177 -115.5t116.5 -178.5t41 -226.5q0 -139 -50 -276t-135.5 -249.5t-201 -201t-247.5 -140.5q17 -92 45.5 -144t101.5 -52q83 0 156 57t92 137q9 17 26 17q13 0 21 -8.5t8 -20.5q0 -2 -2 -12 q-24 -91 -71 -178.5t-120 -147t-163 -59.5q-109 0 -148 72t-39 190q0 20 2.5 55t2.5 66q-107 -29 -209 -29q-120 0 -225 40.5t-180.5 114.5t-117 176t-41.5 224zM305 457q0 -135 56 -242.5t171 -155.5q2 0 -4 11q-2 10 -2 30q0 57 32.5 106t85 78t106.5 29q91 0 135 -58 t63 -155q104 57 189.5 149.5t144.5 208t89 238.5t30 242t-43 217.5t-128.5 156.5t-207.5 58q-155 0 -288.5 -84.5t-230 -223.5t-147.5 -299t-51 -306zM592 104q0 -42 25.5 -58.5t68.5 -16.5q88 0 191 37q0 83 -27 132.5t-102 49.5q-58 0 -107 -44t-49 -100z" />
<glyph unicode="R" horiz-adv-x="1638" d="M100 33l6 26q3 13 25 17q113 0 153.5 10t51.5 68l276 1106q6 18 6 34t-16 21q-37 8 -145 8q-27 7 -27 33l8 26q2 12 23 17h643q104 0 217.5 -31.5t191.5 -102t78 -178.5q0 -99 -69 -180t-171 -134.5t-198 -76.5q79 -32 129.5 -93t50.5 -142q0 -11 -0.5 -18t-1.5 -15 l-20 -178q-8 -74 -8 -105q0 -55 17.5 -88.5t70.5 -33.5q65 0 115 57.5t67 128.5q2 12 24 16h21q24 -7 24 -28q0 -2 -2 -11q-13 -55 -50 -109t-90 -87t-111 -33q-78 0 -147 22t-113 73t-44 130q0 28 11 74l45 178q6 31 6 55q0 86 -67 132.5t-160 46.5h-269l-133 -529 q-4 -24 -4 -35q0 -10 3.5 -13.5t12.5 -6.5q37 -8 146 -8q24 -7 24 -31l-6 -27q-2 -13 -22 -18h-547q-9 0 -17 10.5t-8 22.5zM668 733h241q88 0 169 17.5t151 60.5q48 32 83 83.5t52.5 111t17.5 116.5q0 117 -94 159t-231 42h-158q-44 0 -60 -3.5t-24.5 -18.5t-19.5 -56z" />
<glyph unicode="S" horiz-adv-x="1323" d="M117 -12l114 461q4 16 23 16h27q10 0 16 -7t6 -18q0 -10 -8 -53t-8 -65q0 -151 110 -220t269 -69q91 0 178 50.5t141.5 135.5t54.5 176q0 76 -43 131.5t-114 73.5l-271 66q-68 16 -123 59.5t-85.5 105.5t-30.5 134q0 96 46 183t122 153t169 103.5t187 37.5 q96 0 180 -34.5t133 -107.5l119 136q6 6 14 6h13q10 0 16 -7t6 -18v-6l-114 -459q-7 -18 -23 -18h-27q-22 0 -22 27q8 45 8 100q0 99 -35.5 169t-104 106t-167.5 36q-85 0 -170.5 -44t-141 -119.5t-55.5 -161.5q0 -68 43.5 -120.5t112.5 -70.5l270 -65q110 -27 175 -114 t65 -200q0 -101 -44.5 -195t-122 -168t-173 -115.5t-193.5 -41.5q-114 0 -214 33t-160 108l-119 -135q-6 -6 -14 -6h-13q-9 0 -15.5 7.5t-6.5 17.5v6z" />
<glyph unicode="T" horiz-adv-x="1266" d="M55 954q0 2 2 13l144 415q8 14 24 17h1280q25 -7 25 -31l-62 -416q-5 -20 -26 -26h-21q-24 7 -24 32q18 141 20 197q0 110 -60 139t-188 29h-135q-44 0 -60 -3.5t-24.5 -18.5t-19.5 -56l-277 -1106q-2 -8 -2 -22q0 -13 5 -19.5t18 -11.5q53 -10 223 -10q25 -8 25 -31 l-7 -27q-8 -15 -24 -18h-723q-9 0 -17 10.5t-8 22.5l7 26q11 15 24 17q178 0 234 12q46 12 57 66l276 1106q11 44 11 51q0 12 -64 12h-137q-143 0 -219 -39.5t-115 -112t-92 -227.5q-11 -16 -25 -18h-20q-25 7 -25 28z" />
<glyph unicode="U" horiz-adv-x="1470" d="M143 358q0 61 15 111l196 791q6 18 6 34t-16 21q-37 8 -145 8q-27 7 -27 33l8 26q2 12 23 17h553q10 0 17 -9.5t7 -21.5l-6 -27q-5 -14 -24 -18q-113 0 -154 -10q-38 -9 -53 -68l-195 -782q-21 -82 -24 -166q0 -119 71.5 -191.5t192.5 -72.5q122 0 233.5 61t189 163 t107.5 220l180 725q7 21 7 39q0 82 -148 82q-27 8 -27 33l9 26q2 12 22 17h438q11 0 18 -9.5t7 -21.5l-6 -27q-5 -14 -25 -18q-185 0 -221 -135l-182 -733q-33 -132 -124.5 -246.5t-219 -183t-262.5 -68.5q-117 0 -219 49t-162 141t-60 211z" />
<glyph unicode="V" horiz-adv-x="1266" d="M123 1356l6 26q2 12 23 17h503q10 0 18.5 -10.5t8.5 -20.5l-8 -27q-2 -13 -23 -18q-58 0 -105 -9.5t-52 -41.5l168 -1071l661 1003q2 11 11 30t9 32q0 32 -28 44.5t-66 12.5q-26 7 -26 33l8 26q2 12 22 17h389q11 0 18 -9.5t7 -21.5l-8 -27q-2 -13 -23 -18 q-74 0 -136 -37.5t-105 -103.5q-1 -1 -5 -3t-4 -3l-784 -1190q-17 -29 -49 -29h-21q-11 0 -22 8t-12 21l-205 1298q-10 25 -50.5 32t-95.5 7q-24 7 -24 33z" />
<glyph unicode="W" horiz-adv-x="2052" d="M119 1356l8 26q8 15 23 17h491q9 0 17 -10.5t8 -20.5l-7 -27q-10 -16 -24 -18q-60 0 -109.5 -10t-54.5 -45l94 -1028l541 909l-12 137q-13 37 -131 37q-25 8 -25 33l6 26q8 14 25 17h489q11 0 18 -9.5t7 -21.5l-6 -27q-9 -15 -23 -18q-156 0 -166 -55l2 -13l94 -1015 l572 962q1 4 7.5 21.5t6.5 29.5q0 40 -36.5 55t-84.5 15q-24 8 -24 33l6 26q8 14 24 17h394q10 0 17 -9.5t7 -21.5l-6 -27q-10 -16 -24 -18q-72 0 -124.5 -36.5t-99.5 -106.5l-4 -4l-706 -1190q-15 -29 -47 -29h-15q-12 0 -22.5 8t-10.5 21l-98 1052l-624 -1052 q-19 -29 -48 -29h-16q-11 0 -22 8.5t-11 20.5l-121 1300q-8 37 -129 37q-26 7 -26 33z" />
<glyph unicode="X" horiz-adv-x="1788" d="M66 33l6 26q8 14 24 17q181 0 320 139q2 2 8 6t8 6l463 471l-277 586q-23 25 -65.5 32t-101.5 7q-25 8 -25 33l6 26q8 14 25 17h514q10 0 17 -9.5t7 -21.5l-6 -27q-8 -15 -24 -18q-36 0 -74.5 -13t-48.5 -38l200 -424l355 360q1 8 15.5 26.5t14.5 37.5q0 26 -23.5 38.5 t-51.5 12.5q-27 7 -27 33l8 26q8 15 23 17h442q8 0 16.5 -10.5t8.5 -20.5l-8 -27q-9 -16 -23 -18q-91 0 -171.5 -36t-147.5 -103q-16 -9 -19 -13l-381 -387l316 -669q24 -25 66 -32t101 -7q27 -7 27 -31l-8 -27q-8 -16 -23 -18h-514q-10 0 -17 10.5t-7 22.5l6 26q8 15 22 17 q36 0 74 12.5t49 38.5l-239 508l-434 -445q-2 -6 -16.5 -25t-14.5 -38q0 -26 23.5 -38.5t52.5 -12.5q24 -8 24 -31l-6 -27q-8 -15 -25 -18h-440q-10 0 -17 10.5t-7 22.5z" />
<glyph unicode="Y" horiz-adv-x="1260" d="M80 1356l6 26q11 15 25 17h520q8 0 16 -10.5t8 -20.5l-8 -27q-8 -16 -22 -18q-133 0 -133 -41l262 -627l508 551q2 10 21.5 35.5t19.5 44.5q0 37 -72 37q-25 8 -25 33l6 26q9 14 25 17h389q9 0 17 -10.5t8 -20.5l-6 -27q-9 -15 -25 -18q-151 0 -287 -143q-11 -5 -12 -9 l-563 -612l-105 -418q0 -9 -3 -22.5t-3 -14.5q0 -15 17 -20q38 -8 145 -8q27 -8 27 -31l-7 -27q-8 -15 -24 -18h-545q-10 0 -17 10.5t-7 22.5l6 26q8 14 24 17q113 0 154 10q21 5 28.5 14t12 26t12.5 30l100 403l-305 727q-32 37 -162 37q-26 7 -26 33z" />
<glyph unicode="Z" horiz-adv-x="1475" d="M127 23q0 30 20 51l1164 1249h-310q-116 0 -201.5 -18t-147.5 -59.5t-109.5 -116.5t-81.5 -185q-5 -14 -25 -18h-20q-25 7 -25 28q0 2 2 13l127 415q5 13 25 17h983q22 0 22 -23q0 -29 -18 -47l-1163 -1247h323q144 0 237.5 23t156 75.5t107 138t89.5 224.5q2 11 23 16 h20q27 -8 27 -29q0 -2 -2 -10l-162 -502q-5 -14 -25 -18h-1013q-23 0 -23 23z" />
<glyph unicode="[" horiz-adv-x="846" d="M121 -18v1529q5 20 26 25h21q18 -5 25 -25v-643q91 76 239 76q76 0 143.5 -38t107.5 -103t40 -141q0 -118 -47.5 -221.5t-124.5 -187t-167 -152t-204 -140.5q-2 -2 -12 -4h-21q-21 5 -26 25zM193 59q69 61 129 127t108.5 141t77.5 159.5t29 175.5q0 40 -13 84t-41 74 t-73 30q-80 0 -148.5 -31.5t-68.5 -101.5v-658z" />
<glyph unicode="\" horiz-adv-x="846" d="M156 -162v1630q7 31 43 31q21 0 28 -26v-572l422 166q8 2 10 2q22 0 29 -25v-1460q-7 -30 -43 -30q-20 0 -29 26v402l-419 -166q-11 -2 -13 -2q-21 0 -28 24zM227 18l389 154v692l-389 -153v-693z" />
<glyph unicode="]" horiz-adv-x="846" d="M121 -27q4 20 18 25l68 22v695q-10 -5 -30 -12t-27 -7q-22 0 -29 27v135q5 19 18 23l68 22v414q7 31 43 31q19 0 29 -27v-393l286 98v414q6 28 43 28q22 0 29 -24v-393q10 5 27.5 11.5t29.5 6.5q22 0 29 -25v-135q-4 -19 -16 -24l-70 -23v-694q10 5 27.5 11.5t29.5 6.5 q22 0 29 -24v-135q-4 -20 -16 -25l-70 -22v-273q-3 -14 -14.5 -22.5t-28.5 -8.5q-21 0 -29 27v252l-286 -98v-273q-8 -28 -43 -28q-22 0 -29 24v252q-10 -4 -30 -11t-27 -7q-22 0 -29 24v135zM279 45l286 98v695l-286 -99v-694z" />
<glyph unicode="^" horiz-adv-x="2175" d="M121 735q0 14 10.5 24.5t26.5 10.5q17 0 26 -12q151 -198 391 -287.5t515 -89.5q133 0 259.5 21t244.5 66t219.5 117t177.5 173q9 12 28 12q35 -4 35 -35q0 -8 -8 -24q-81 -108 -191 -192.5t-234.5 -140t-262.5 -84t-271 -28.5q-132 0 -270.5 28.5t-261.5 83.5 t-233 139.5t-193 193.5q-8 16 -8 24z" />
<glyph unicode="_" horiz-adv-x="2175" d="M121 291q0 11 6 20q85 116 192 207t227 150t257 91t284 32q148 0 285.5 -32t256 -90.5t228 -150.5t193.5 -207q4 -12 4 -20q0 -16 -12 -25.5t-27 -9.5t-22 10q-81 111 -181 188t-216 126.5t-242.5 72.5t-266.5 23q-136 0 -262.5 -23t-242 -71.5t-218 -128t-176.5 -181.5 q-16 -16 -32 -16q-14 0 -24.5 11.5t-10.5 23.5z" />
<glyph unicode="`" horiz-adv-x="889" d="M14 186q0 9 35 43t79.5 74t68.5 62v34q0 95 16 191.5t45 194.5t66 192q68 170 171 317.5t220 147.5q67 0 98 -48.5t31 -119.5q0 -369 -504 -868q-6 -55 -6 -109q0 -260 121 -260q63 0 121 35.5t119 87t69 51.5q13 0 33 -29q2 -4 2 -12q0 -13 -8 -18q-59 -53 -109 -91 t-110.5 -64t-120.5 -26q-110 0 -168.5 90t-77.5 215q-19 -16 -49 -44.5t-64.5 -57.5t-42.5 -29t-12.5 4t-9 10t-11.5 15q-2 2 -2 12zM358 524q108 112 200.5 235t154 260t61.5 263q0 94 -61 94q-75 0 -149.5 -165.5t-128.5 -366t-77 -320.5z" />
<glyph unicode="a" horiz-adv-x="1155" d="M84 315q0 99 41.5 205t114 192.5t167 138.5t197.5 52q126 0 197 -115q8 34 34.5 55t59.5 21q29 0 49.5 -18t20.5 -47q0 -7 -4 -23l-142 -563q-10 -63 -10 -76q0 -92 63 -92q37 0 63 27.5t42.5 67t29 88t17.5 73.5q7 18 23 18h26q10 0 16.5 -8.5t6.5 -15.5q0 -4 -2 -8 q-29 -126 -80 -216.5t-146 -90.5q-72 0 -130 36.5t-79 102.5q-57 -62 -127 -100.5t-147 -38.5q-91 0 -160 46t-105 121.5t-36 167.5zM252 229q0 -74 34 -129t103 -55q54 0 107.5 29t97 73.5t76.5 94.5q-3 -4 -5.5 -7.5t-5.5 -7.5l111 441q-10 46 -32 84.5t-57 62t-81 23.5 q-86 0 -155.5 -72t-110.5 -168q-32 -82 -57 -189.5t-25 -179.5z" />
<glyph unicode="b" horiz-adv-x="930" d="M96 311q0 67 17 133l192 775q3 12 10 38t7 39q0 27 -127 27q-25 8 -25 33l6 26q2 12 23 17l282 22q11 0 21 -8t10 -22l-147 -594q117 106 239 106q93 0 161 -46t104 -123t36 -167q0 -134 -72 -272t-191.5 -226.5t-256.5 -88.5q-87 0 -153.5 45.5t-101 121t-34.5 164.5z M244 242q0 -77 36 -137t109 -60q86 0 157.5 74.5t106.5 165.5q32 75 58 186t26 182q0 73 -34 129t-103 56q-54 0 -104 -26t-91 -66t-75 -89l-58 -223q-13 -60 -20.5 -106.5t-7.5 -85.5z" />
<glyph unicode="c" horiz-adv-x="942" d="M86 334q0 108 48.5 211t132 184t186.5 127.5t211 46.5q98 0 178 -42.5t80 -133.5q0 -55 -33.5 -96t-87.5 -41q-34 0 -58 22t-24 56q0 44 31 78t73 40q-52 52 -164 52q-94 0 -170 -56t-127.5 -146t-77.5 -192t-26 -184q0 -61 22.5 -109.5t66.5 -77t104 -28.5 q130 0 246.5 49.5t189.5 145.5q5 8 18 8t25 -13t12 -26q0 -10 -6 -16q-81 -106 -213 -159.5t-277 -53.5q-77 0 -142.5 26t-114.5 74t-76 114t-27 140z" />
<glyph unicode="d" horiz-adv-x="1118" d="M84 315q0 99 41.5 205t114 192.5t167 138.5t197.5 52q126 0 197 -115l112 453q11 42 11 55q0 27 -127 27q-25 8 -25 33l6 26q8 14 23 17l282 22q11 0 21 -8t10 -22l-295 -1178q-10 -63 -10 -76q0 -92 63 -92q37 0 63 27.5t42.5 67t29 88t17.5 73.5q7 18 23 18h26 q10 0 16.5 -8.5t6.5 -15.5q0 -4 -2 -8q-29 -126 -80 -216.5t-146 -90.5q-72 0 -130 36.5t-79 102.5q-57 -62 -127 -100.5t-147 -38.5q-91 0 -160 46t-105 121.5t-36 167.5zM252 229q0 -74 34 -129t103 -55q54 0 107.5 29t97 73.5t76.5 94.5q-3 -4 -5.5 -7.5t-5.5 -7.5 l111 441q-10 46 -32 84.5t-57 62t-81 23.5q-86 0 -155.5 -72t-110.5 -168q-32 -82 -57 -189.5t-25 -179.5z" />
<glyph unicode="e" horiz-adv-x="1008" d="M96 358q0 113 45.5 213t127 175.5t184 116t211.5 40.5q93 0 167 -45.5t74 -134.5q0 -118 -102 -175.5t-228.5 -71t-275.5 -13.5h-6q-27 -120 -27 -187q0 -96 46.5 -163.5t138.5 -67.5q130 0 246.5 49.5t189.5 145.5q5 8 18 8t25 -13t12 -26q0 -10 -6 -16 q-81 -106 -213 -159.5t-277 -53.5q-105 0 -184.5 50.5t-122.5 138.5t-43 189zM309 528q118 0 223 10t194 52.5t89 130.5q0 56 -47.5 86.5t-108.5 30.5q-89 0 -159 -42.5t-118 -113.5t-73 -154z" />
<glyph unicode="f" horiz-adv-x="1044" d="M115 -270q0 52 34.5 90.5t86.5 38.5q34 0 57.5 -21.5t23.5 -56.5q0 -38 -24.5 -70.5t-63.5 -44.5q37 -18 82 -18q37 0 65 35.5t44 83.5t27 99.5t18 94.5q58 297 67 348l91 498h-187q-24 7 -24 33l6 26q2 12 22 17h197l25 133q20 116 39 185.5t61 125.5q40 52 96.5 83.5 t114.5 31.5q77 0 139 -37.5t62 -110.5q0 -53 -35 -91t-86 -38q-34 0 -58 21.5t-24 56.5q0 39 24 70.5t62 44.5q-40 18 -86 18q-25 0 -50 -18t-36 -43q-12 -39 -18.5 -68t-15.5 -77t-14.5 -84.5t-11.5 -65.5l-26 -137h225q25 -7 25 -31l-7 -27q-2 -13 -22 -18h-234l-92 -496 q-17 -106 -40.5 -218.5t-67.5 -233t-112.5 -199t-164.5 -78.5q-75 0 -134.5 39t-59.5 109z" />
<glyph unicode="g" horiz-adv-x="1034" d="M39 -289q0 51 35 89t86 38q35 0 59.5 -22t24.5 -56q0 -31 -17 -59t-45 -43q24 -5 69 -7.5t101 -2.5q96 0 178 66.5t105 160.5l57 229q-115 -104 -237 -104q-92 0 -161 45t-105.5 120t-36.5 167q0 132 71 266t191 219.5t254 85.5q40 0 77.5 -13.5t68.5 -40t50 -58.5 q7 32 34 52.5t60 20.5q29 0 49.5 -18t20.5 -47q0 -6 -0.5 -10t-1.5 -9l-231 -919q-23 -90 -93 -152.5t-165 -94.5t-187 -32q-125 0 -218 22.5t-93 106.5zM319 248q0 -47 15 -88.5t47 -67.5t78 -26q76 0 146.5 51t121.5 125l109 432q-16 68 -61 116t-111 48q-87 0 -156 -70 t-109 -166q-20 -51 -38 -114t-30 -130.5t-12 -109.5z" />
<glyph unicode="h" horiz-adv-x="1253" d="M113 45q1 5 1.5 8.5t0.5 9.5l295 1178q10 48 10 55q0 27 -127 27q-25 8 -25 33l6 26q2 12 23 17l283 22q13 0 21.5 -7.5t8.5 -22.5l-159 -641q62 71 141.5 112t169.5 41q116 0 188 -58t72 -169q0 -87 -34 -189.5t-99 -273.5q-25 -55 -25 -104q0 -64 45 -64q79 0 135 81 t78 175q7 18 23 18h26q10 0 16.5 -7.5t6.5 -16.5q0 -4 -2 -8q-19 -74 -57.5 -143.5t-97.5 -116.5t-132 -47q-78 0 -134 48t-56 126q0 42 14 73q62 165 98.5 278t36.5 197q0 60 -24.5 98t-81.5 38q-212 0 -355 -275l-129 -514q-8 -31 -33 -50t-57 -19q-29 0 -50 18t-21 47z " />
<glyph unicode="i" horiz-adv-x="739" d="M57 588v8q31 119 106.5 213t180.5 94q53 0 96.5 -21t70 -60.5t26.5 -92.5q0 -31 -15 -74l-172 -442q-22 -60 -22 -104q0 -64 45 -64q80 0 135 81.5t76 174.5q7 18 22 18h27q10 0 16 -7.5t6 -16.5q0 -4 -2 -8q-20 -77 -57.5 -145.5t-95 -115t-131.5 -46.5q-81 0 -137 48 t-56 126q0 34 14 73l172 443q23 57 23 104q0 64 -45 64q-78 0 -132 -79t-81 -177q-3 -19 -21 -19h-26q-9 0 -16 9t-7 16zM412 1239q0 46 37.5 81.5t82.5 35.5q35 0 58.5 -22.5t23.5 -57.5q0 -45 -37 -81t-81 -36q-34 0 -59 23.5t-25 56.5z" />
<glyph unicode="j" horiz-adv-x="879" d="M-29 -287q0 50 35 87.5t84 37.5q35 0 59.5 -22t24.5 -56q0 -31 -19 -61.5t-46 -44.5q27 -6 57 -6q59 0 111 38t87 96t50 118l192 770q10 40 10 75q0 38 -13.5 65.5t-47.5 27.5q-61 0 -115 -39.5t-93.5 -99t-65.5 -124.5q-4 -12 -19 -12h-26q-9 0 -16 9t-7 16v8 q30 75 81 146.5t118.5 116t146.5 44.5q57 0 106.5 -23.5t79 -67.5t29.5 -101q0 -18 -8 -56l-193 -770q-15 -65 -56.5 -121t-97 -96.5t-124 -63t-133.5 -22.5q-74 0 -132.5 32t-58.5 99zM647 1239q0 46 37 81.5t84 35.5q33 0 57.5 -22.5t24.5 -57.5q0 -45 -37 -81t-82 -36 q-34 0 -59 23.5t-25 56.5z" />
<glyph unicode="k" horiz-adv-x="1133" d="M113 45q1 5 1.5 8.5t0.5 9.5l295 1178q10 48 10 55q0 27 -127 27q-25 8 -25 33l6 26q2 12 23 17l283 22q13 0 21.5 -7.5t8.5 -22.5l-211 -842q75 33 190 142t185.5 160.5t167.5 51.5q63 0 104 -42t41 -105q0 -57 -34 -99.5t-88 -42.5q-34 0 -58 21.5t-24 56.5 q0 47 33.5 83t80.5 36q-21 27 -59 27q-58 0 -119 -34t-98 -67.5t-122 -113t-124 -105.5q307 -34 307 -219q0 -30 -11 -81.5t-11 -74.5q0 -98 65 -98q72 0 112 78t64 178q9 18 23 18h27q10 0 16 -7.5t6 -16.5q0 -4 -2 -8q-28 -121 -89.5 -214t-160.5 -93q-91 0 -153 58.5 t-62 149.5q0 18 6 53t6 54q0 54 -38 89t-94.5 52.5t-108.5 22.5l-103 -410q-8 -31 -33 -50t-57 -19q-29 0 -50 18t-21 47z" />
<glyph unicode="l" horiz-adv-x="649" d="M88 172q0 27 6 51l254 1018q10 48 10 55q0 27 -127 27q-24 8 -24 33l6 26q2 12 23 17l282 22q11 0 21 -8t10 -22l-295 -1178q-10 -63 -10 -76q0 -92 63 -92q45 0 74.5 43.5t43.5 91t32 121.5q7 18 22 18h27q10 0 16 -7.5t6 -16.5q0 -4 -2 -8q-30 -130 -79 -218.5 t-144 -88.5q-88 0 -151.5 53t-63.5 139z" />
<glyph unicode="m" horiz-adv-x="1923" d="M57 588v8q22 85 46 147t69 111t113 49q52 0 101.5 -21t81.5 -61t32 -92q66 82 149 128t180 46q104 0 175.5 -47.5t82.5 -146.5q68 91 154.5 142.5t190.5 51.5q116 0 188 -58t72 -169q0 -87 -34 -189.5t-99 -273.5q-25 -55 -25 -104q0 -64 45 -64q79 0 135.5 82.5 t77.5 173.5q7 18 23 18h26q10 0 16.5 -8.5t6.5 -15.5q0 -4 -2 -8q-19 -74 -57.5 -143.5t-97.5 -116.5t-132 -47q-79 0 -135 48t-56 126q0 40 15 73q62 165 98.5 278t36.5 197q0 59 -25 97.5t-82 38.5q-211 0 -354 -275l-127 -510q-8 -32 -35 -52.5t-59 -20.5q-28 0 -49 18 t-21 47q1 5 1.5 8.5t0.5 9.5l131 519q17 74 17 120q0 59 -25 97.5t-82 38.5q-118 0 -205 -77t-151 -198l-127 -510q-8 -32 -35 -52.5t-59 -20.5q-28 0 -49 18t-21 47q1 5 1.5 8.5t0.5 9.5l152 607q10 40 10 75q0 38 -13.5 65.5t-47.5 27.5q-46 0 -76.5 -43.5t-45 -91 t-32.5 -121.5q-3 -19 -21 -19h-26q-9 0 -16 9t-7 16z" />
<glyph unicode="n" horiz-adv-x="1319" d="M57 588v8q22 85 46 147t69 111t113 49q51 0 100.5 -21t82 -60.5t32.5 -92.5q64 81 147.5 127.5t179.5 46.5q115 0 187.5 -58t72.5 -169q0 -87 -34 -189.5t-99 -273.5q-24 -57 -24 -104q0 -64 45 -64q79 0 135.5 82.5t77.5 173.5q7 18 22 18h27q10 0 16.5 -8.5t6.5 -15.5 q0 -4 -3 -8q-29 -116 -104.5 -211.5t-181.5 -95.5q-79 0 -135 48t-56 126q0 43 15 73q62 165 98.5 278t36.5 197q0 59 -25 97.5t-82 38.5q-211 0 -354 -275l-127 -510q-8 -32 -35 -52.5t-59 -20.5q-28 0 -49 18t-21 47q1 5 1.5 8.5t0.5 9.5l152 607q10 40 10 75 q0 38 -13.5 65.5t-47.5 27.5q-46 0 -76.5 -43.5t-45 -91t-32.5 -121.5q-3 -19 -21 -19h-26q-9 0 -16 9t-7 16z" />
<glyph unicode="o" horiz-adv-x="1051" d="M86 334q0 108 48.5 211t132 184t186.5 127.5t211 46.5q155 0 257.5 -99.5t102.5 -254.5q0 -106 -48.5 -209.5t-132 -185t-186 -128t-211.5 -46.5q-77 0 -142.5 26t-114.5 74t-76 114t-27 140zM258 260q0 -91 51 -153t142 -62q93 0 168.5 56t126.5 145.5t77.5 189.5 t26.5 187q0 93 -51 154t-140 61q-95 0 -170.5 -56.5t-127 -146.5t-77.5 -191t-26 -184z" />
<glyph unicode="p" horiz-adv-x="1094" d="M-55 -367l8 27q8 16 22 18q49 0 70.5 4t35 21t23.5 53l228 914q10 40 10 75q0 38 -13.5 65.5t-47.5 27.5q-46 0 -76.5 -43.5t-45 -91t-32.5 -121.5q-3 -19 -21 -19h-26q-9 0 -16 9t-7 16v8q22 85 46 147t69 111t113 49q72 0 131 -37t76 -102q133 139 276 139 q137 0 219 -98.5t82 -237.5q0 -134 -72 -272t-191.5 -226.5t-256.5 -88.5q-61 0 -112.5 30t-84.5 84l-88 -352q-3 -10 -8 -41q0 -23 129 -23q27 -8 27 -32l-9 -27q-8 -14 -22 -16h-410q-9 0 -17.5 10.5t-8.5 19.5zM383 215q15 -70 58.5 -120t111.5 -50q86 0 157.5 74.5 t106.5 165.5q32 75 58 186t26 182q0 73 -34 129t-103 56q-54 0 -104 -26t-91 -66t-75 -89z" />
<glyph unicode="q" horiz-adv-x="971" d="M84 315q0 99 41.5 205t114 192.5t167 138.5t197.5 52q64 0 119.5 -35.5t85.5 -93.5q16 28 69 78.5t78 50.5q12 0 20.5 -9t8.5 -22l-283 -1130q-3 -10 -8 -41q0 -23 129 -23q27 -7 27 -32l-8 -27q-2 -11 -23 -16h-452q-11 0 -18 10.5t-7 19.5l6 27q2 13 23 18 q155 0 155 31q14 35 17 47l82 330q-119 -106 -240 -106q-91 0 -160 46t-105 121.5t-36 167.5zM252 229q0 -74 34 -129t103 -55q77 0 148.5 53t121.5 127l111 443q-10 46 -32 84.5t-57 62t-81 23.5q-86 0 -155.5 -72t-110.5 -168q-32 -82 -57 -189.5t-25 -179.5z" />
<glyph unicode="r" horiz-adv-x="981" d="M57 588v8q22 85 46 147t69 111t113 49q73 0 132.5 -38t76.5 -103q53 65 122 103t150 38q46 0 86 -18.5t64 -53.5t24 -81q0 -55 -34 -95.5t-87 -40.5q-34 0 -58 21.5t-24 56.5q0 45 31 79t74 40q-34 27 -80 27q-89 0 -158 -60.5t-119 -152.5l-143 -572q-8 -32 -35 -52.5 t-59 -20.5q-28 0 -49 18t-21 47q1 5 1.5 8.5t0.5 9.5l152 607q10 40 10 75q0 38 -13.5 65.5t-47.5 27.5q-46 0 -76.5 -43.5t-45 -91t-32.5 -121.5q-3 -19 -21 -19h-26q-9 0 -16 9t-7 16z" />
<glyph unicode="s" horiz-adv-x="1006" d="M111 178q0 57 33 99t89 42q37 0 59.5 -21t22.5 -56q0 -46 -33.5 -82.5t-78.5 -36.5q55 -78 225 -78q110 0 201.5 51.5t91.5 153.5q0 52 -41 83.5t-94 41.5l-119 22q-81 18 -136 71t-55 132q0 93 52.5 162.5t137 105t175.5 35.5q99 0 178.5 -43t79.5 -133q0 -49 -27 -85 t-75 -36q-28 0 -49 18.5t-21 47.5q0 37 25 65t61 33q-23 37 -72 52.5t-104 15.5q-85 0 -155 -44t-70 -124q0 -40 28.5 -64t73.5 -35l117 -22q96 -18 160.5 -77.5t64.5 -152.5q0 -70 -37 -138.5t-98 -114.5q-122 -86 -297 -86q-71 0 -143 18.5t-121 63t-49 116.5z" />
<glyph unicode="t" horiz-adv-x="784" d="M49 840l6 26q5 13 25 17h231l82 323q7 33 34 53.5t60 20.5q28 0 48 -19t20 -47q0 -12 -2 -18l-78 -313h217q25 -8 25 -31l-6 -27q-2 -13 -23 -18h-231l-150 -594q-10 -63 -10 -76q0 -92 63 -92q93 0 164 81t109 181q8 12 20 12h27q10 0 16 -7.5t6 -16.5q0 -4 -2 -8 q-47 -124 -137.5 -215.5t-206.5 -91.5q-88 0 -151.5 53t-63.5 139q0 28 6 55l146 580h-217q-27 7 -27 33z" />
<glyph unicode="u" horiz-adv-x="1260" d="M57 588v8q32 118 108 212.5t181 94.5q50 0 94.5 -21.5t70.5 -60.5t26 -92q0 -39 -15 -74q-23 -59 -49 -127t-40.5 -114.5t-26 -101.5t-11.5 -105q0 -70 31.5 -116t97.5 -46q69 0 148 58.5t92 123.5l145 582q10 32 36.5 53t58.5 21q28 0 48.5 -19t20.5 -47q0 -6 -4 -22 l-145 -582q-1 -10 -4.5 -25.5t-5 -28.5t-1.5 -22q0 -92 64 -92q36 0 62 27.5t42.5 67t29 88t17.5 73.5q9 18 23 18h27q10 0 16 -7.5t6 -16.5q0 -4 -2 -8q-18 -76 -43 -142t-70 -115.5t-112 -49.5q-68 0 -125 34t-80 95q-48 -58 -113.5 -93.5t-134.5 -35.5q-83 0 -147 28 t-99.5 85.5t-35.5 142.5q0 64 19 137.5t54 163.5t51 133q23 57 23 104q0 64 -43 64q-81 0 -134.5 -78.5t-80.5 -177.5q-3 -19 -21 -19h-26q-9 0 -16 9t-7 16z" />
<glyph unicode="v" horiz-adv-x="1059" d="M57 588v8q32 118 108 212.5t181 94.5q50 0 94.5 -21.5t70.5 -60.5t26 -92q0 -39 -15 -74q-24 -62 -56 -146t-50.5 -155.5t-18.5 -136.5q0 -79 39.5 -125.5t116.5 -46.5q101 0 199 121q33 43 70.5 120t62 153.5t24.5 129.5q0 58 -19 88.5t-54 70t-35 65.5q0 44 36 78 t76 34q55 0 79 -49t24 -108q0 -129 -58.5 -313.5t-166 -319.5t-242.5 -135q-65 0 -121.5 15t-98 47t-65.5 83.5t-24 118.5q0 44 11 98t26.5 102t40.5 112.5t44 113.5q23 57 23 104q0 64 -43 64q-81 0 -134.5 -78.5t-80.5 -177.5q-3 -19 -21 -19h-26q-9 0 -16 9t-7 16z" />
<glyph unicode="w" horiz-adv-x="1561" d="M57 588v8q32 118 108 212.5t181 94.5q50 0 94.5 -21.5t70.5 -60.5t26 -92q0 -39 -15 -74q-20 -51 -41.5 -105.5t-40.5 -112t-31 -112t-12 -102.5q0 -81 46 -129.5t128 -48.5q108 0 183 158q-2 14 -2 41q0 57 16 118l111 447q9 32 35.5 53t58.5 21q29 0 49 -18t20 -48 q0 -6 -4 -22l-110 -447q-19 -82 -19 -131q0 -79 39.5 -125.5t116.5 -46.5q91 0 151 70.5t103 175.5q15 36 32.5 88.5t29.5 104t12 85.5q0 58 -17.5 86.5t-54.5 70t-37 67.5q0 44 36 78t77 34q55 0 78.5 -48t23.5 -109q0 -83 -36.5 -228t-73.5 -235q-51 -129 -130.5 -217 t-195.5 -88q-91 0 -167 30.5t-114 100.5q-87 -131 -215 -131q-143 0 -234 65t-91 203q0 62 18.5 132.5t49.5 153t52 136.5q23 57 23 104q0 64 -43 64q-81 0 -134.5 -78.5t-80.5 -177.5q-3 -19 -21 -19h-26q-9 0 -16 9t-7 16z" />
<glyph unicode="x" horiz-adv-x="1225" d="M70 135q0 54 34 93.5t86 39.5q37 0 59.5 -21t22.5 -57q0 -41 -27 -74t-69 -42q43 -29 105 -29q64 0 114.5 58t65.5 124l92 369q20 78 20 119q0 54 -30 88.5t-84 34.5q-65 0 -123.5 -37.5t-98.5 -96.5t-55 -122q-3 -19 -20 -19h-27q-8 0 -15 9t-7 16v8q20 80 71 150 t125 113.5t154 43.5q76 0 142.5 -37t94.5 -104q38 62 94 101.5t121 39.5q51 0 99 -17t79 -52.5t31 -85.5q0 -54 -33.5 -94t-86.5 -40q-34 0 -58 21.5t-24 56.5q0 42 27.5 75t68.5 42q-45 29 -107 29q-43 0 -80.5 -28t-63 -70t-36.5 -85l-92 -368q-18 -88 -18 -119 q0 -55 30 -89t84 -34q97 0 174 78.5t101 177.5q7 18 22 18h27q10 0 16 -7.5t6 -16.5q0 -4 -2 -8q-20 -80 -71 -150t-124 -113.5t-153 -43.5q-77 0 -143.5 37t-95.5 104q-37 -60 -92.5 -100.5t-120.5 -40.5q-51 0 -99 17t-79 52.5t-31 85.5z" />
<glyph unicode="y" horiz-adv-x="1075" d="M57 588v8q32 118 108 212.5t181 94.5q50 0 94.5 -21.5t70.5 -60.5t26 -92q0 -39 -15 -74q-23 -59 -49 -127t-40.5 -114.5t-26 -101.5t-11.5 -105q0 -70 31.5 -116t97.5 -46q133 0 236 164l149 600q10 32 36.5 53t58.5 21q28 0 48.5 -19t20.5 -47q0 -12 -2 -18l-201 -807 q-28 -108 -105 -203t-184.5 -151t-220.5 -56q-92 0 -164.5 45.5t-72.5 132.5q0 56 34 98t89 42q34 0 58 -21.5t24 -56.5q0 -46 -32.5 -82.5t-78.5 -36.5q47 -55 145 -55q141 0 231 126t130 289q-90 -83 -203 -83q-83 0 -147 28t-99.5 85.5t-35.5 142.5q0 64 19 137.5 t54 163.5t51 133q23 57 23 104q0 64 -43 64q-81 0 -134.5 -78.5t-80.5 -177.5q-3 -19 -21 -19h-26q-9 0 -16 9t-7 16z" />
<glyph unicode="z" horiz-adv-x="1012" d="M88 4q0 8 2 12q73 122 171 217.5t268.5 238t250.5 224.5q-41 0 -92 11.5t-102 22.5t-92 11q-57 0 -108 -19.5t-62 -64.5q-9 -18 -23 -18h-27q-9 0 -15.5 7.5t-6.5 17.5q0 2 2 8q23 94 99 162.5t169 68.5q42 0 72 -17.5t71.5 -55.5t64.5 -53t56 -15q39 0 67.5 27t57.5 69 t41 45h27q11 0 16.5 -7t5.5 -17q0 -9 -2 -13q-60 -97 -143 -184.5t-185 -174t-202.5 -172.5t-161.5 -151q10 2 35 2q41 0 92.5 -11t103 -22.5t93.5 -11.5q81 0 157.5 44.5t94.5 119.5q4 19 20 19h27q6 0 11 -4t8 -10t3 -11v-8q-20 -79 -71 -150.5t-124 -116t-155 -44.5 q-40 0 -70.5 17.5t-70 54t-65 53t-58.5 16.5q-51 0 -89 -28.5t-71.5 -69.5t-40.5 -43h-26q-23 0 -23 24z" />
<glyph unicode="{" horiz-adv-x="715" d="M57 588v8q31 119 106.5 213t180.5 94q53 0 96.5 -21t70 -60.5t26.5 -92.5q0 -31 -15 -74l-172 -442q-22 -60 -22 -104q0 -64 45 -64q80 0 135 81.5t76 174.5q7 18 22 18h27q10 0 16 -7.5t6 -16.5q0 -4 -2 -8q-20 -77 -57.5 -145.5t-95 -115t-131.5 -46.5q-81 0 -137 48 t-56 126q0 34 14 73l172 443q23 57 23 104q0 64 -45 64q-78 0 -132 -79t-81 -177q-3 -19 -21 -19h-26q-9 0 -16 9t-7 16z" />
<glyph unicode="|" horiz-adv-x="819" d="M-29 -287q0 50 35 87.5t84 37.5q35 0 59.5 -22t24.5 -56q0 -69 -63 -104q32 -8 75 -8q83 0 145 81t83 171l192 770q10 40 10 75q0 38 -13.5 65.5t-47.5 27.5q-61 0 -115 -39.5t-93.5 -99t-65.5 -124.5q-4 -12 -19 -12h-26q-9 0 -16 9t-7 16v8q30 75 81 146.5t118.5 116 t146.5 44.5q57 0 106.5 -23.5t79 -67.5t29.5 -101q0 -18 -8 -56l-193 -770q-21 -84 -80 -153.5t-142.5 -109.5t-168.5 -40q-81 0 -146 29.5t-65 101.5z" />
<glyph unicode="}" horiz-adv-x="1378" d="M164 -242q0 90 23.5 195.5t62.5 206.5q-29 35 -45.5 66t-24.5 68.5t-8 78.5q0 99 46 231t127.5 227t180.5 95q10 0 18.5 -7.5t8.5 -17.5q0 -12 -7.5 -26.5t-19.5 -14.5q-50 0 -93.5 -46.5t-77 -121t-50 -143.5t-16.5 -115q0 -74 35 -117q55 102 131 196t168.5 167 t201 115.5t224.5 42.5q132 0 213 -92t81 -226q0 -97 -38.5 -191.5t-109.5 -174.5t-161.5 -127t-187.5 -47q-82 0 -140.5 50.5t-58.5 129.5q0 39 15.5 69.5t50.5 30.5q23 0 37 -13t14 -34q0 -19 -13 -36t-30 -23q0 -48 39.5 -78.5t89.5 -30.5q82 0 147.5 56t108.5 140 t65.5 177t22.5 168q0 78 -38 132t-112 54q-144 0 -273.5 -73t-230 -189.5t-169.5 -249.5l182 -217q47 -58 47 -137q0 -75 -37.5 -156t-102 -135.5t-141.5 -54.5q-82 0 -118.5 56t-36.5 142zM231 -248q0 -127 93 -127q63 0 110 73.5t47 141.5q0 40 -20 70l-158 188 q-72 -210 -72 -346z" />
<glyph unicode="~" d="M377 1260q0 40 43 47h747q-51 66 -51 114q0 18 14.5 32.5t32.5 14.5q36 0 47 -36q27 -86 109 -134q20 -13 20 -38q0 -29 -28 -43q-118 -51 -191 -150q-13 -16 -37 -16q-19 0 -33 14t-14 33q0 36 92 114h-708q-43 9 -43 48z" />
<glyph horiz-adv-x="1450" d="M115 51q0 35 39 64l262 159q37 48 81.5 129.5t75.5 161t31 123.5q0 29 -18 29q-63 0 -154 -16.5t-100 -49.5q-8 -13 -23 -18h-20q-27 7 -27 29q0 2 2 12q25 97 132.5 151t217.5 54q72 0 72 -121q0 -59 -20 -131t-51 -141.5t-66 -129.5l807 494q62 37 121 37 q30 0 51.5 -14t25.5 -42q0 -35 -38 -63l-263 -160q-37 -47 -81 -127.5t-75.5 -161t-31.5 -124.5q0 -29 16 -29q63 0 154.5 16t99.5 49q10 14 25 19h20q25 -7 25 -29q0 -2 -2 -12q-17 -64 -73.5 -110.5t-130.5 -70.5t-144 -24q-72 0 -72 121q0 83 40 193.5t97 207.5 l-807 -493q-60 -37 -123 -37q-67 0 -75 55z" />
<glyph unicode="&#xa1;" horiz-adv-x="1315" d="M98 33l6 26q9 14 25 17q113 0 153.5 10t51.5 68l276 1106q6 18 6 34t-16 21q-37 8 -145 8q-27 7 -27 33l8 26q8 15 23 17h1067q24 -7 24 -31l-43 -416q-5 -20 -26 -26h-21q-24 7 -24 32q10 120 10 148q0 102 -41.5 149t-105.5 57.5t-179 10.5h-217q-44 0 -60 -3.5 t-24.5 -18.5t-19.5 -56l-277 -1106q-1 -3 -2 -8v-10q-1 -5 -2 -8q0 -21 21 -27q25 -5 74.5 -7.5t117.5 -2.5q27 -8 27 -31l-8 -27q-9 -16 -23 -18h-604q-9 0 -17 10.5t-8 22.5z" />
<glyph unicode="&#xa2;" horiz-adv-x="1812" d="M109 14q0 11 4 15l1093 1405q26 28 54 28h22q33 0 39 -28l391 -1405v-4q0 -10 -7.5 -17.5t-16.5 -7.5h-1565q-14 0 -14 14zM305 166h1153l-303 1091z" />
<glyph unicode="&#xa3;" horiz-adv-x="1651" d="M104 512q0 173 77.5 339.5t213 301t305 212t340.5 77.5q123 0 224.5 -40.5t177 -115.5t116.5 -178.5t41 -226.5q0 -175 -77 -341.5t-211.5 -299t-301 -208t-341.5 -75.5q-120 0 -225 40.5t-180.5 114.5t-117 176t-41.5 224zM297 459q0 -120 45 -219t132 -156t212 -57 q159 0 294 83t230.5 219t147 295.5t51.5 311.5q0 123 -44.5 223t-131 158.5t-209.5 58.5q-157 0 -292 -84t-233 -223.5t-150 -300t-52 -309.5zM424 582l63 256q2 11 23 16h20q27 -7 27 -31l-10 -39h655l15 54q2 11 22 16h21q26 -7 26 -31l-63 -256q-4 -13 -25 -18h-20 q-25 7 -25 33l8 36h-655l-12 -51q-5 -13 -25 -18h-20q-25 7 -25 33z" />
<glyph unicode="&#xa4;" horiz-adv-x="1507" d="M80 33l6 26q8 14 23 17q74 0 127 37t98 106l4 4l725 1211q14 28 47 28h18q13 0 23 -8t10 -20l131 -1321q13 -37 129 -37q27 -7 27 -31l-8 -27q-8 -16 -23 -18h-499q-10 0 -17.5 10.5t-7.5 22.5l8 26q8 15 23 17q153 0 163 55l-102 1040l-582 -974q-3 -10 -10.5 -27 t-7.5 -31q0 -33 31 -48t69 -15q27 -7 27 -31l-8 -27q-8 -16 -23 -18h-377q-10 0 -17 10.5t-7 22.5z" />
<glyph unicode="&#xa5;" horiz-adv-x="1604" d="M117 33l53 293q5 18 27 24h20q25 -7 25 -31q-21 -114 -21 -147q-1 -5 -1 -7t-1 -5q72 -8 244 -8h6h571q94 0 164.5 2.5t93.5 7.5q11 11 23 35.5t20.5 50.5t13.5 42t13 44q8 13 25 16h20q25 -7 25 -28q0 -3 -2 -11l-90 -293q-12 -16 -25 -18h-1180q-24 7 -24 33zM377 1100 q0 2 2 12l86 270q8 14 24 17h1156q24 -7 24 -31l-49 -270q-5 -22 -25 -27h-20q-27 8 -27 33q17 87 17 123q2 9 4 12h-1059q-10 -2 -36 -73.5t-28 -75.5q-8 -17 -22 -19h-21q-26 7 -26 29zM446 580l78 309q2 11 25 16h20q25 -4 25 -31l-19 -71h699l20 86q2 11 25 16h20 q25 -4 25 -31l-78 -309q-2 -11 -22 -16h-21q-26 4 -26 31l18 71h-696l-23 -86q-2 -11 -22 -16h-21q-27 4 -27 31z" />
<glyph unicode="&#xa6;" horiz-adv-x="1786" d="M98 33l6 26q2 12 25 17q113 0 153.5 10t51.5 68l276 1106q6 18 6 34t-16 21q-37 8 -145 8q-27 7 -27 33l8 26q2 12 23 17h1394q27 -7 27 -31l-6 -27q-5 -14 -25 -18q-112 0 -153 -10q-37 -9 -54 -68l-276 -1106q-4 -24 -4 -35q0 -10 3.5 -13.5t12.5 -6.5q37 -8 146 -8 q24 -7 24 -31l-6 -27q-2 -13 -22 -18h-553q-11 0 -18 10.5t-7 22.5l6 26q2 12 25 17q112 0 153 10q39 9 52 68l292 1169h-651l-297 -1184q-4 -24 -4 -35q0 -15 17 -20q36 -8 145 -8q25 -7 25 -31l-7 -27q-2 -13 -22 -18h-553q-9 0 -17 10.5t-8 22.5z" />
<glyph unicode="&#xa7;" horiz-adv-x="1686" d="M129 29q0 14 6 20l678 574l-352 718q0 3 -0.5 7t-1.5 8l6 26q5 13 24 17h1217q25 -7 25 -31l-43 -416q-6 -20 -27 -26h-21q-24 7 -24 32q4 62 4 97q0 101 -31 161t-121 84q-58 15 -140 19t-198 4h-432l301 -612q2 -9 2 -11q0 -15 -8 -20l-684 -582h479q226 0 340 18 t205.5 99.5t161.5 263.5q5 13 25 17h20q25 -7 25 -29q0 -2 -2 -10l-168 -439q-5 -14 -25 -18h-1216q-25 7 -25 29z" />
<glyph unicode="&#xa8;" horiz-adv-x="1268" d="M59 1112q0 39 41.5 108t79.5 109q116 113 248 113q115 0 185 -60t99 -155.5t29 -208.5q0 -28 -4 -86q43 99 97 187t123.5 160.5t157 117.5t188.5 45q65 0 115 -31.5t76 -85.5t26 -119q0 -116 -47 -116h-19q-22 0 -22 22q0 4 2 6q4 24 4 35q0 62 -54 94.5t-122 32.5 q-97 0 -179 -55.5t-142.5 -142.5t-100.5 -186.5t-66 -197.5l-139 -559q-1 -3 -1 -8l-2 -10q0 -5 -1 -8q0 -21 20 -27q25 -5 75 -7.5t118 -2.5q12 -3 19 -11t7 -20l-8 -27q-2 -13 -22 -18h-656q-10 0 -17 10.5t-7 22.5l6 26q2 12 22 17q152 0 203 10q41 12 55 68l140 557 q13 22 24 114t11 138q0 83 -22 155t-73.5 117t-138.5 45q-52 0 -104.5 -18.5t-93 -56.5t-52.5 -87q-3 -11 -14 -19.5t-23 -8.5h-18q-23 0 -23 22z" />
<glyph unicode="&#xa9;" horiz-adv-x="1450" d="M51 635q0 100 70 188t178 151.5t224.5 99.5t207.5 36l37 150q4 16 4 26q0 22 -18 27q-47 10 -193 10q-26 7 -26 33l6 26q4 12 24 17h641q11 0 18 -9.5t7 -21.5l-6 -27q-2 -13 -25 -18q-149 0 -201 -10q-43 -13 -57 -68l-33 -133q98 0 214 -42.5t194 -122.5t78 -183 q0 -101 -69.5 -189.5t-180.5 -152.5t-230.5 -99.5t-212.5 -35.5l-36 -148q-1 -3 -2 -8v-10q-1 -5 -2 -8q0 -21 20 -27q25 -5 74.5 -7.5t117.5 -2.5q27 -7 27 -31l-8 -27q-2 -13 -23 -18h-641q-10 0 -17 10.5t-7 22.5l6 26q2 12 22 17q152 0 203 10q40 12 56 68l34 135 q-72 0 -154 24t-156 70.5t-119.5 110t-45.5 141.5zM256 600q0 -80 39 -131.5t102 -78t146 -36.5l172 690q-78 0 -178 -41.5t-154 -95.5q-60 -60 -93.5 -142.5t-33.5 -164.5zM721 354q81 0 184 41t160 97q59 61 93 142.5t34 164.5q0 78 -42.5 133.5t-111.5 83.5t-145 28z" />
<glyph unicode="&#xaa;" horiz-adv-x="1339" d="M55 1100q6 28 27 33h125q69 0 100 -49.5t31 -122.5q0 -54 -19 -125q-26 -107 -26 -197q0 -109 51 -184t154 -97l225 902q4 16 4 26q0 22 -18 27q-47 10 -193 10q-27 8 -27 33l7 26q4 12 24 17h641q11 0 18 -9.5t7 -21.5l-6 -27q-2 -13 -25 -18q-149 0 -201 -10 q-43 -13 -57 -68l-221 -885q92 19 164 66t124.5 112.5t89.5 147t56 164.5q17 66 48.5 130t82.5 108.5t113 44.5h125q26 -9 26 -31q-6 -19 -10 -25.5t-18 -9.5q-74 0 -121 -72.5t-74 -167.5q-19 -76 -52 -146.5t-79.5 -132.5t-106.5 -110q-49 -40 -116 -74t-138.5 -54.5 t-130.5 -20.5l-38 -150q-2 -8 -2.5 -13t-2.5 -13q0 -21 21 -27q25 -5 74.5 -7.5t117.5 -2.5q27 -7 27 -31l-8 -27q-2 -13 -23 -18h-641q-10 0 -17 10.5t-7 22.5l6 26q2 12 22 17q152 0 203 10q41 12 55 68l35 137q-168 20 -264 116t-96 265q0 67 22 170q17 60 17 110 q0 115 -80 115q-25 8 -25 33z" />
<glyph unicode="&#xad;" horiz-adv-x="1671" d="M174 317q5 19 27 25h20q20 -5 25 -25q0 -129 8 -163q37 -11 135 -11h6h140q0 81 -25.5 157.5t-74 183.5t-72 180.5t-23.5 154.5q0 143 72.5 258.5t192.5 198t259.5 124.5t274.5 42q97 0 196.5 -26t179.5 -76.5t128.5 -131t48.5 -186.5q0 -118 -62.5 -228.5t-165.5 -223.5 t-205 -225.5t-149 -201.5h121q73 0 108.5 4t54.5 20t37.5 55t49.5 104q8 13 24 16h21q24 -7 24 -29q0 -2 -2 -10l-141 -285q-11 -16 -25 -18h-360q-25 7 -25 29q0 2 2 12q28 112 82 205.5t173.5 274t174 301.5t54.5 239q0 99 -45.5 170t-124 108t-176.5 37 q-125 0 -233 -48.5t-187.5 -135.5t-123.5 -201.5t-44 -236.5q0 -56 7 -116t20.5 -143.5t22.5 -157.5t9 -130q0 -62 -10 -131.5t-37 -75.5h-360q-23 6 -25 27z" />
<glyph unicode="&#xae;" horiz-adv-x="1397" d="M86 334q0 108 48.5 211t132 184t186.5 127.5t211 46.5t194 -52t135 -142.5t49 -194.5l5 -119q67 91 114 189.5t72 203.5q4 17 20 17h27q23 0 23 -25v-6q-35 -135 -99 -256t-155 -227q0 -77 12.5 -161.5t52.5 -84.5t63.5 20t41 50.5t26.5 31.5h27q9 0 15.5 -7t6.5 -17 q0 -54 -63 -98.5t-123 -44.5q-77 0 -129.5 47t-77.5 125q-219 -172 -457 -172q-101 0 -182.5 45t-128.5 126t-47 183zM258 260q0 -92 51.5 -153.5t141.5 -61.5q115 0 228.5 49t207.5 129q-2 15 -2 41l-8 215q0 136 -49 247.5t-169 111.5q-95 0 -170.5 -56.5t-127 -146.5 t-77.5 -191t-26 -184z" />
<glyph unicode="&#xaf;" horiz-adv-x="1221" d="M41 -367l313 1258q25 99 83 199t141.5 180.5t183 126t207.5 45.5q123 0 205.5 -76.5t82.5 -198.5q0 -103 -58.5 -197t-149.5 -153q66 -46 103.5 -122t37.5 -163q0 -106 -48.5 -208t-132 -182t-187.5 -125.5t-210 -45.5q-116 0 -216 57.5t-142 161.5l-143 -571 q-2 -6 -8.5 -11t-12.5 -5h-27q-22 0 -22 24v6zM299 330q0 -131 92 -212t225 -81q124 0 215 91t138 224.5t47 251.5q0 110 -62 164q-76 -29 -149 -29q-180 0 -180 64q0 80 204 80q73 0 129 -21q67 52 107.5 161.5t40.5 201.5q0 66 -37.5 108.5t-103.5 42.5 q-127 0 -239.5 -72.5t-191 -187.5t-110.5 -239l-113 -457q-12 -46 -12 -90zM711 809q26 -4 96 -4q35 0 59 8q-28 4 -43 4q-78 0 -112 -8z" />
<glyph unicode="&#xb0;" horiz-adv-x="1120" d="M31 535q0 2 2 6q25 96 87 179t150 133t187 50q204 0 305 -256q36 -86 58 -178.5t22 -169.5q111 287 262 571q7 13 20 13h27q10 0 16.5 -8.5t6.5 -16.5q0 -2 -5 -12q-69 -132 -125.5 -252t-106.5 -244t-99 -274q-3 -30 -18.5 -123.5t-35.5 -176.5t-46.5 -147t-53.5 -69 q-37 0 -37 49q0 107 119 475q6 67 6 131q0 218 -75 369t-271 151q-67 0 -136.5 -24.5t-121 -72t-66.5 -112.5q-4 -16 -22 -16h-27q-9 0 -15.5 7.5t-6.5 17.5z" />
<glyph unicode="&#xb1;" horiz-adv-x="963" d="M86 328q0 127 64 245.5t171 202t230 113.5q-37 65 -65 122t-47 118t-19 118q0 96 65.5 156.5t161.5 60.5q45 0 160 -20.5t133 -34.5q27 -20 27 -51q0 -33 -27.5 -61.5t-62.5 -28.5q-27 0 -48 11t-69.5 41.5t-83.5 45t-74 14.5t-72.5 -24.5t-33.5 -63.5q0 -33 25 -82.5 t66.5 -105.5t82 -104t61.5 -74q135 -159 135 -353q0 -126 -50.5 -267.5t-146.5 -238t-225 -96.5q-100 0 -182.5 46t-129 128t-46.5 183zM238 270q0 -101 55.5 -167t152.5 -66q81 0 138.5 77.5t86.5 183.5t29 183q0 144 -110 338q-1 2 -1.5 4t-2.5 4q-106 -28 -186 -117.5 t-121 -207.5t-41 -232z" />
<glyph unicode="&#xb2;" horiz-adv-x="879" d="M98 377q0 106 47 201.5t127.5 163.5t180.5 104.5t204 36.5h125q15 0 24 -10t9 -25q0 -17 -11.5 -29t-27.5 -12h-121q-127 0 -216 -74.5t-128 -200.5h383q14 0 23.5 -9.5t9.5 -24.5q0 -17 -11.5 -29t-27.5 -12h-397q-19 -93 -19 -152q0 -74 27.5 -132.5t82 -93 t128.5 -34.5q112 0 240 86q4 2 12 2q14 0 22.5 -14t8.5 -29q0 -26 -56 -51.5t-129.5 -42t-101.5 -16.5q-114 0 -208 50t-147 140.5t-53 206.5z" />
<glyph unicode="&#xb3;" horiz-adv-x="956" d="M96 342q0 123 43.5 251t121.5 250t179 219.5t207 151.5q-16 41 -16 97q0 123 49 123q15 0 25 -10t10 -25q-2 -15 -7.5 -42.5t-5.5 -47.5q0 -37 11 -66q57 19 100 19q199 0 199 -66q0 -35 -38.5 -52t-86.5 -21.5t-99 -4.5q-63 0 -102 39q-85 -45 -168 -129.5t-147.5 -191 t-101 -218t-36.5 -212.5q0 -111 53 -185.5t160 -109.5l232 -72q71 -23 117.5 -76.5t46.5 -126.5q0 -61 -30.5 -120t-83.5 -96.5t-114 -37.5q-54 0 -139.5 30t-85.5 69q1 12 11.5 22t25.5 10q8 0 16 -4q81 -61 176 -61q40 0 66.5 36.5t26.5 77.5q0 46 -29.5 76t-75.5 45 l-223 70q-139 44 -213 144.5t-74 244.5zM760 1190q18 -6 35 -6q86 0 127 8q-31 4 -113 4q-25 0 -49 -6z" />
<glyph unicode="&#xb4;" horiz-adv-x="1092" d="M57 588v8q22 85 46 147t69 111t113 49q51 0 100.5 -21t82 -60.5t32.5 -92.5q64 81 147.5 127.5t179.5 46.5q115 0 187.5 -58t72.5 -169q0 -27 -14 -109l-233 -934q-9 -33 -36.5 -53t-58.5 -20q-28 0 -48.5 18t-20.5 47q0 13 2 19l235 938q17 74 17 120q0 59 -25 97.5 t-82 38.5q-211 0 -354 -275l-127 -510q-8 -32 -35 -52.5t-59 -20.5q-28 0 -49 18t-21 47q1 5 1.5 8.5t0.5 9.5l152 607q10 40 10 75q0 38 -13.5 65.5t-47.5 27.5q-46 0 -76.5 -43.5t-45 -91t-32.5 -121.5q-3 -19 -21 -19h-26q-9 0 -16 9t-7 16z" />
<glyph unicode="&#xb5;" horiz-adv-x="1014" d="M86 418v2q0 234 107 498q48 117 124.5 236t179.5 203.5t214 84.5h2q101 0 162 -69.5t85.5 -168.5t24.5 -200q0 -231 -104 -500q-44 -109 -123 -232t-182.5 -207.5t-213.5 -84.5h-2q-100 0 -162 69t-87 168t-25 201zM244 295q0 -92 24 -171t97 -79q93 0 172 112.5 t129.5 251t83.5 265.5h-445q-61 -246 -61 -379zM324 750h444q28 108 44.5 196.5t16.5 179.5q0 97 -24 173.5t-96 76.5q-73 0 -136 -69.5t-112.5 -172.5t-78.5 -191.5t-58 -192.5z" />
<glyph unicode="&#xb6;" horiz-adv-x="770" d="M113 154q0 42 14 73q39 106 66.5 193t50.5 170t63 239q7 33 34 53.5t60 20.5q30 0 49 -18t19 -47q0 -15 -2 -23q-29 -116 -55.5 -212t-59 -198.5t-65.5 -191.5q-25 -55 -25 -104q0 -64 45 -64q73 0 143 34t120.5 92.5t68.5 129.5q7 18 23 18h26q10 0 16.5 -8.5t6.5 -15.5 q0 -4 -2 -8q-21 -86 -82.5 -156t-147.5 -110.5t-176 -40.5q-78 0 -134 48t-56 126z" />
<glyph unicode="&#xb8;" horiz-adv-x="1268" d="M111 45q0 35 26 61l600 553l-221 562q-23 59 -53 97t-82 38q-12 0 -21.5 10.5t-9.5 22.5q6 32 39 32q102 0 177.5 -23t103.5 -95l458 -1166q7 -17 17 -42t21.5 -43.5t25.5 -28.5q8 -10 8 -19q0 -10 -6 -17t-16 -7h-117q-26 6 -51 27.5t-35 47.5l-207 527l-516 -572 q-37 -35 -72 -35q-28 0 -48.5 20.5t-20.5 49.5z" />
<glyph unicode="&#xb9;" horiz-adv-x="1309" d="M63 -375q0 13 3 19l296 1185q9 33 35.5 53.5t59.5 20.5q29 0 48 -17.5t19 -47.5q0 -13 -2 -19l-116 -471q-19 -74 -19 -131q0 -79 39.5 -125.5t116.5 -46.5q58 0 108.5 26t90 67.5t73.5 94.5l143 576q10 32 36.5 53t58.5 21q29 0 49 -18t20 -48q0 -12 -2 -18l-147 -586 q-10 -63 -10 -76q0 -92 63 -92q36 0 62 27.5t41 64t29.5 88t19.5 76.5q7 18 22 18h27q10 0 16 -7.5t6 -16.5q0 -4 -2 -8q-20 -83 -44 -146.5t-69.5 -112t-111.5 -48.5q-73 0 -131.5 37.5t-77.5 103.5q-56 -64 -126.5 -102.5t-147.5 -38.5q-136 0 -211 55l-101 -402 q-9 -32 -36 -52.5t-58 -20.5q-29 0 -49.5 18t-20.5 47z" />
<glyph unicode="&#xba;" horiz-adv-x="1069" d="M109 33l172 690q8 35 10 55q0 27 -127 27q-27 8 -27 33l8 26q10 15 23 17l281 22q12 0 22 -9t10 -22l-196 -782q122 40 231.5 111.5t202.5 171.5t157 216t95 240q7 33 34 53.5t60 20.5q30 0 49 -18t19 -47q0 -42 -27.5 -108.5t-68 -139t-68.5 -109.5q-101 -133 -242 -241 q-244 -181 -537 -240h-51q-10 0 -20 10t-10 23z" />
<glyph unicode="&#xbb;" horiz-adv-x="956" d="M49 207q0 81 41.5 163.5t109 152t136.5 110.5q-59 37 -93 93.5t-34 121.5q0 142 110 246t259 145q-9 30 -9 72q0 123 49 123q14 0 24.5 -10.5t10.5 -24.5q-3 -22 -7.5 -46t-4.5 -44q0 -27 6 -56q45 9 105 9q198 0 198 -66q0 -35 -38.5 -52t-86 -21.5t-98.5 -4.5 q-68 0 -111 47q-93 -44 -157 -136t-64 -193q0 -92 60 -152q86 27 157 27q199 0 199 -66q0 -78 -221 -78q-96 0 -174 27q-88 -46 -164 -141t-76 -185q0 -109 160 -172l385 -139q49 -18 79.5 -57.5t30.5 -92.5q0 -55 -30 -107.5t-79.5 -85t-107.5 -32.5q-33 0 -96 13.5 t-111.5 35.5t-48.5 50q7 32 39 32q7 0 15 -4q95 -61 206 -61q33 0 55.5 28.5t22.5 61.5q0 43 -49 65l-375 136q-100 39 -161.5 106.5t-61.5 161.5zM541 639q2 0 3.5 -0.5t2.5 -1.5q28 -4 49 -4q86 0 125 8q-31 4 -111 4q-36 0 -69 -6zM694 1192h166h-166z" />
<glyph unicode="&#xbc;" horiz-adv-x="1249" d="M53 602q0 4 4 12q70 113 153.5 191t182.5 78h787q27 0 43 -16t16 -44q0 -31 -24.5 -57.5t-57.5 -26.5h-272q-31 -144 -31 -270q0 -203 78 -363q10 -17 10 -34q0 -35 -31 -63.5t-69 -28.5q-60 0 -84.5 95.5t-24.5 184.5q0 78 11 158t23 137.5t42 183.5h-225 q-71 -280 -117 -454.5t-70 -233.5q-31 -71 -92 -71q-28 0 -50 18t-22 47q0 19 11 41q89 178 153 332t111 321h-135q-58 0 -103.5 -21.5t-68.5 -42.5t-57 -58.5t-42 -38.5h-26q-10 0 -16.5 7.5t-6.5 16.5z" />
<glyph unicode="&#xbd;" horiz-adv-x="1114" d="M63 -375q0 3 5 23l198 801q29 113 103.5 218t180.5 170.5t222 65.5q94 0 166 -45.5t110.5 -123.5t38.5 -173q0 -103 -42.5 -206t-116 -187.5t-171.5 -136t-202 -51.5q-64 0 -119.5 32t-91.5 88l-117 -467q-9 -32 -36 -52.5t-58 -20.5q-29 0 -49.5 18t-20.5 47zM371 213 q18 -74 66.5 -121t119.5 -47q85 0 155 63.5t116 160.5t69 197t23 179q0 77 -37.5 135t-114.5 58q-134 0 -217 -121.5t-125 -282.5z" />
<glyph unicode="&#xbe;" horiz-adv-x="1243" d="M80 311q0 135 78 268t205 218.5t262 85.5h549q27 0 43 -16t16 -44q0 -31 -24.5 -57.5t-57.5 -26.5h-254q57 -85 57 -207q0 -103 -43 -202t-118.5 -178t-174.5 -125.5t-204 -46.5q-146 0 -240 92.5t-94 238.5zM231 252q0 -88 50 -147.5t137 -59.5t159 49t121.5 128t75 168 t25.5 167q0 90 -52 136t-143 46q-119 0 -204 -73t-127 -185.5t-42 -228.5z" />
<glyph unicode="&#xbf;" horiz-adv-x="965" d="M53 602q0 4 4 12q70 113 153.5 191t182.5 78h666q26 0 42.5 -16.5t16.5 -43.5q0 -31 -24.5 -57.5t-57.5 -26.5h-389l-131 -680q-6 -34 -32.5 -59t-61.5 -25q-29 0 -49.5 19t-20.5 47q0 9 4 27l209 671h-192q-58 0 -103.5 -21.5t-68.5 -42.5t-57 -58.5t-42 -38.5h-26 q-10 0 -16.5 7.5t-6.5 16.5z" />
<glyph unicode="&#xc0;" horiz-adv-x="1180" d="M57 588v8q32 118 108 212.5t181 94.5q50 0 94.5 -21.5t70.5 -60.5t26 -92q0 -39 -15 -74l-56 -146q-28 -73 -46.5 -142t-18.5 -129q0 -95 56.5 -144t154.5 -49q75 0 150 53.5t136.5 138.5t96.5 174.5t35 157.5q0 58 -19 88.5t-54 70t-35 65.5q0 44 36 78t76 34 q55 0 79 -49t24 -108q0 -103 -37.5 -235t-107.5 -254.5t-168.5 -200.5t-213.5 -78q-158 0 -263 65t-105 213q0 41 11.5 95t33.5 117.5t41.5 113t33.5 86.5q23 57 23 104q0 64 -43 64q-81 0 -134.5 -78.5t-80.5 -177.5q-3 -19 -21 -19h-26q-9 0 -16 9t-7 16z" />
<glyph unicode="&#xc1;" horiz-adv-x="1292" d="M102 352q0 111 60 214.5t157 180t213 120.5t224 44l125 494q4 16 20 16h27q9 0 15.5 -7t6.5 -17v-6l-121 -482q107 0 203.5 -49t155.5 -136t59 -194q0 -149 -101 -277t-255.5 -205t-296.5 -77l-92 -372q-2 -7 -8.5 -12t-12.5 -5h-26q-23 0 -23 25v6l90 360 q-78 0 -152.5 27.5t-136.5 80t-96.5 121.5t-34.5 150zM258 313q0 -80 37 -142t100 -97t144 -35l200 805q-76 0 -170.5 -46t-154.5 -106q-73 -74 -114.5 -175t-41.5 -204zM612 39q78 0 171.5 46t152.5 105q47 47 83.5 110.5t55.5 133t19 135.5q0 80 -37 142.5t-100 97.5 t-144 35z" />
<glyph unicode="&#xc2;" horiz-adv-x="1350" d="M66 -362q4 16 10 22l520 549q-21 65 -53.5 159.5t-76.5 202.5t-93 187.5t-88 79.5q-38 0 -62 -22t-42 -54.5t-27 -34.5h-27q-10 0 -16.5 7.5t-6.5 17.5q0 55 64 103t125 48q203 0 268 -123q81 -152 170 -428l492 518q9 13 28 13q14 0 23.5 -10.5t9.5 -24.5q-5 -20 -8 -23 l-522 -549q21 -65 55 -163.5t78 -204t92 -183t86 -77.5q40 0 62 20.5t41 54t28 35.5h27q11 0 16.5 -7t5.5 -17q0 -56 -64.5 -104t-123.5 -48q-202 0 -269 123q-74 140 -167 428l-492 -518q-12 -12 -29 -12q-12 0 -23 11t-11 24z" />
<glyph unicode="&#xc3;" horiz-adv-x="1421" d="M57 588v8q32 118 108 212.5t181 94.5q50 0 94.5 -21.5t70.5 -60.5t26 -92q0 -39 -15 -74q-18 -47 -48 -123.5t-49 -143.5t-19 -118q0 -68 31 -114t83.5 -71.5t124.5 -35.5l338 1356q4 16 23 16h26q9 0 16 -8t7 -16q0 -2 -2 -6l-336 -1346h16q89 0 184.5 48t176.5 127 t129.5 172t48.5 177q0 58 -17.5 86.5t-54.5 70t-37 67.5q0 43 35.5 77.5t77.5 34.5q55 0 78.5 -48t23.5 -109q0 -57 -11.5 -124.5t-33 -133t-52 -126.5t-62.5 -104q-90 -119 -220.5 -199.5t-267.5 -80.5h-31l-94 -381q-8 -17 -22 -17h-27q-9 0 -15.5 7.5t-6.5 17.5q0 2 2 6 l92 371q-94 0 -181.5 33t-144.5 100.5t-57 163.5q0 34 11.5 86t30 106t37 101t37.5 96q23 57 23 104q0 64 -43 64q-81 0 -134.5 -78.5t-80.5 -177.5q-3 -19 -21 -19h-26q-9 0 -16 9t-7 16z" />
<glyph unicode="&#xc4;" horiz-adv-x="604" d="M547 1122v6q16 61 69 106.5t126 73.5t150 41t136 13q53 0 116.5 -10t125 -35t99.5 -66t38 -100q0 -49 -27 -53h-26q-10 0 -16.5 7.5t-6.5 16.5q1 6 1.5 10.5t0.5 12.5q0 69 -110 101t-203 32q-112 0 -247 -40.5t-157 -123.5q-4 -16 -20 -16h-27q-22 0 -22 24z" />
<glyph unicode="&#x2000;" horiz-adv-x="768" />
<glyph unicode="&#x2001;" horiz-adv-x="1536" />
<glyph unicode="&#x2002;" horiz-adv-x="768" />
<glyph unicode="&#x2003;" horiz-adv-x="1536" />
<glyph unicode="&#x2004;" horiz-adv-x="512" />
<glyph unicode="&#x2005;" horiz-adv-x="384" />
<glyph unicode="&#x2006;" horiz-adv-x="256" />
<glyph unicode="&#x2007;" horiz-adv-x="256" />
<glyph unicode="&#x2008;" horiz-adv-x="192" />
<glyph unicode="&#x2009;" horiz-adv-x="307" />
<glyph unicode="&#x200a;" horiz-adv-x="85" />
<glyph unicode="&#x2010;" horiz-adv-x="604" d="M121 512q0 19 12.5 31.5t32.5 15.5q82 0 151.5 45t69.5 125q0 53 -33.5 91.5t-84.5 57.5t-103 19q-20 3 -32.5 15.5t-12.5 31.5q0 21 14 34t37 13q76 0 147.5 -31.5t116.5 -92t45 -138.5q0 -118 -95 -191t-214 -73q-21 0 -36 13t-15 34z" />
<glyph unicode="&#x2011;" horiz-adv-x="604" d="M121 512q0 19 12.5 31.5t32.5 15.5q82 0 151.5 45t69.5 125q0 53 -33.5 91.5t-84.5 57.5t-103 19q-20 3 -32.5 15.5t-12.5 31.5q0 21 14 34t37 13q76 0 147.5 -31.5t116.5 -92t45 -138.5q0 -118 -95 -191t-214 -73q-21 0 -36 13t-15 34z" />
<glyph unicode="&#x2012;" horiz-adv-x="604" d="M121 512q0 19 12.5 31.5t32.5 15.5q82 0 151.5 45t69.5 125q0 53 -33.5 91.5t-84.5 57.5t-103 19q-20 3 -32.5 15.5t-12.5 31.5q0 21 14 34t37 13q76 0 147.5 -31.5t116.5 -92t45 -138.5q0 -118 -95 -191t-214 -73q-21 0 -36 13t-15 34z" />
<glyph unicode="&#x2013;" horiz-adv-x="1268" d="M121 512q0 19 35.5 31.5t92.5 15.5q233 0 431 45t198 125q0 53 -95.5 91.5t-240.5 57.5t-293 19q-57 3 -92.5 15.5t-35.5 31.5q0 21 40 34t105 13q216 0 419.5 -31.5t331.5 -92t128 -138.5q0 -118 -270 -191t-609 -73q-60 0 -102.5 13t-42.5 34z" />
<glyph unicode="&#x2014;" horiz-adv-x="2292" d="M121 512q0 19 71 31.5t185 15.5q466 0 861.5 45t395.5 125q0 53 -190.5 91.5t-480.5 57.5t-586 19q-114 3 -185 15.5t-71 31.5q0 21 79.5 34t210.5 13q432 0 839 -31.5t663 -92t256 -138.5q0 -118 -540.5 -191t-1217.5 -73q-119 0 -204.5 13t-85.5 34z" />
<glyph unicode="&#x202f;" horiz-adv-x="307" />
<glyph unicode="&#x205f;" horiz-adv-x="384" />
<glyph unicode="&#x2219;" horiz-adv-x="1253" d="M113 45q1 5 1.5 8.5t0.5 9.5l192 766q7 33 34 53.5t60 20.5q30 0 49 -18t19 -47q0 -13 -2 -19l-68 -276q84 28 228 139.5t215 156t178 44.5q34 0 58 -21.5t24 -56.5q0 -50 -34.5 -84.5t-84.5 -34.5q-35 0 -58.5 22.5t-23.5 57.5v16q1 2 2.5 6.5t1.5 6.5q-46 -18 -90 -46 t-103 -73.5t-108.5 -84.5t-97.5 -67q85 0 176.5 -17.5t156 -66.5t64.5 -135q0 -31 -11 -84.5t-11 -77.5q0 -98 65 -98q72 0 112 78t64 178q7 18 23 18h26q10 0 16.5 -7.5t6.5 -16.5q0 -4 -2 -8q-28 -121 -89.5 -214t-160.5 -93q-91 0 -153 58.5t-62 149.5q0 19 6 55t6 56 q0 51 -38 84t-93.5 49.5t-115.5 22.5t-113 6l-103 -408q-8 -32 -35 -52.5t-59 -20.5q-28 0 -48.5 18t-20.5 47z" />
<glyph unicode="&#xe000;" horiz-adv-x="905" d="M0 905h905v-905h-905v905z" />
</font>
</defs>
</svg>
