<?xml version="1.0" standalone="no"?>
<!DOCTYPE svg PUBLIC "-//W3C//DTD SVG 1.1//EN" "http://www.w3.org/Graphics/SVG/1.1/DTD/svg11.dtd" >
<svg xmlns="http://www.w3.org/2000/svg">
<metadata>
This is a custom SVG webfont generated by Font Squirrel.
Copyright   : Copyright C 1994 Basil K Malyshev All Rights Reserved012BaKoMa Fonts Collection LevelB
</metadata>
<defs>
<font id="cmr10Regular" horiz-adv-x="1024" >
<font-face units-per-em="2048" ascent="1638" descent="-410" />
<missing-glyph horiz-adv-x="682" />
<glyph unicode=" "  horiz-adv-x="682" />
<glyph unicode="&#x09;" horiz-adv-x="682" />
<glyph unicode="&#xa0;" horiz-adv-x="682" />
<glyph unicode="!" horiz-adv-x="567" d="M172 113q0 46 34 79t79 33q28 0 55 -15t42 -42t15 -55q0 -45 -33 -79t-79 -34q-45 0 -79 34t-34 79zM172 1352v12q0 43 34.5 72.5t78.5 29.5q45 0 78.5 -29.5t33.5 -72.5v-12l-82 -944q0 -7 -6 -13t-12 -6h-25q-5 0 -10.5 6.5t-5.5 12.5z" />
<glyph unicode="&#x22;" d="M68 1309q0 48 33 80t79 32q51 0 83 -34t45.5 -85t13.5 -98q0 -113 -48.5 -220t-132.5 -181q-8 -4 -12 -4q-11 0 -21 9t-10 19q0 9 8 17q76 66 119 162t43 198q0 21 -2 31q-29 -39 -86 -39q-46 0 -79 33t-33 80zM465 1309q0 48 33 80t80 32q50 0 82 -34t45.5 -85t13.5 -98 q0 -113 -48.5 -219.5t-131.5 -181.5q-8 -4 -13 -4q-10 0 -20 9t-10 19q0 9 8 17q78 68 120 162.5t42 197.5q0 21 -2 31q-30 -39 -86 -39q-47 0 -80 33t-33 80z" />
<glyph unicode="#" horiz-adv-x="1706" d="M115 313q0 17 11 29t28 12h381l81 316h-462q-17 0 -28 12t-11 29q0 15 11 28t28 13h487l172 639q3 13 13.5 21.5t25.5 8.5q17 0 29 -12t12 -29v-8l-168 -620h385l172 639q3 13 13.5 21.5t25.5 8.5q17 0 29 -12t12 -29v-8l-168 -620h358q16 0 26.5 -13t10.5 -28 q0 -17 -10.5 -29t-26.5 -12h-383l-82 -316h465q16 0 26.5 -12t10.5 -29q0 -15 -10.5 -28t-26.5 -13h-489l-170 -639q-11 -30 -41 -30q-17 0 -29 12t-12 29q0 4 2 8l166 620h-385l-170 -639q-11 -30 -41 -30q-17 0 -29 12t-12 29q0 4 2 8l166 620h-356q-17 0 -28 13t-11 28z M618 354h386l81 316h-385z" />
<glyph unicode="$" d="M115 377q0 40 29 69t69 29t69 -29t29 -69t-29 -69t-69 -29h-2q-14 0 -21 2q-2 1 -3.5 1.5t-2.5 0.5q14 -65 57.5 -119t105.5 -83.5t128 -29.5v598q-60 17 -85.5 25t-53 21t-53 30t-54.5 45q-114 116 -114 277v2v2q0 75 30 146.5t84 129.5q43 43 114 79t132 36v94h72v-92 q102 0 185 -48.5t129 -133t46 -189.5q0 -40 -29 -69t-69 -29t-69 29t-29 69t29 69t69 29h2q14 0 20 -2h5q-18 61 -62 106t-104.5 70t-122.5 25v-543q84 -19 137 -43.5t100 -72.5q60 -60 91.5 -140.5t31.5 -167.5v-4q0 -82 -29.5 -160t-84.5 -137q-50 -50 -118.5 -86 t-127.5 -36v-95h-72v95q-109 0 -190.5 54t-125.5 145.5t-44 197.5zM227 1110q0 -199 248 -264v524q-63 -7 -121.5 -43.5t-92.5 -93t-34 -123.5zM547 51q69 9 126.5 51.5t89.5 106.5t32 131q0 79 -31 137.5t-86.5 97.5t-130.5 58v-582z" />
<glyph unicode="%" horiz-adv-x="1706" d="M115 1124q0 91 34.5 187.5t103.5 160.5t165 64q76 0 139 -61q165 -162 391 -162q121 0 226 53.5t172 153.5q10 16 32 16q18 0 29.5 -11t11.5 -30q0 -11 -6 -20l-1057 -1577q-9 -13 -30 -13q-17 0 -29 13t-12 28q0 12 6 21l928 1382q-123 -69 -271 -69q-160 0 -307 83 q41 -98 41 -219q0 -66 -15.5 -136.5t-47.5 -133t-82.5 -103t-118.5 -40.5q-96 0 -165 64t-103.5 160t-34.5 189zM250 1122q0 -129 34 -243.5t134 -114.5q101 0 153 120.5t52 239.5q0 67 -21.5 152.5t-67.5 146t-116 60.5q-102 0 -135 -113.5t-33 -247.5zM1022 299 q0 91 34.5 187.5t103.5 160.5t165 64q89 0 149 -67.5t87.5 -162.5t27.5 -182q0 -66 -15.5 -136t-47 -133.5t-82 -104t-119.5 -40.5q-96 0 -165 64t-103.5 160.5t-34.5 189.5zM1157 297q0 -130 34 -244t134 -114q69 0 116 61.5t68 146.5t21 152q0 118 -52 238t-153 120 q-102 0 -135 -113.5t-33 -246.5z" />
<glyph unicode="&#x26;" horiz-adv-x="1591" d="M86 266q0 115 82 197l244 254q-39 102 -60.5 209.5t-21.5 212.5q0 81 35.5 156.5t101 123t151.5 47.5q94 0 137.5 -86t43.5 -190q0 -91 -69.5 -188t-182.5 -220q29 -71 62 -134t75.5 -130t93 -136t101.5 -134q61 72 106.5 142.5t128.5 209.5l51 90q11 12 11 35 q0 48 -44 67t-100 19v72h457v-72q-185 0 -256 -121l-66 -112q-68 -118 -124.5 -205.5t-124.5 -167.5q67 -77 134.5 -127.5t141.5 -50.5q59 0 110.5 30t82 80.5t30.5 110.5h60q0 -76 -38 -144t-103 -108.5t-142 -40.5q-198 0 -367 156q-171 -156 -372 -156q-90 0 -176 38 t-139.5 109.5t-53.5 163.5zM264 330q0 -69 22 -138.5t69.5 -117t117.5 -47.5q168 0 309 125q-101 105 -195 243t-153 269l-82 -84q-88 -92 -88 -250zM465 1190q0 -177 61 -352q93 103 153 189t60 165q0 49 -10 98t-37.5 86t-73.5 37q-52 0 -86.5 -35.5t-50.5 -87t-16 -100.5 z" />
<glyph unicode="'" horiz-adv-x="567" d="M172 1309q0 48 33 80t80 32q50 0 82 -34t45.5 -85t13.5 -98q0 -113 -48.5 -219.5t-131.5 -181.5q-8 -4 -13 -4q-10 0 -20 9t-10 19q0 9 8 17q78 68 120 162.5t42 197.5q0 21 -2 31q-30 -39 -86 -39q-47 0 -80 33t-33 80z" />
<glyph unicode="(" horiz-adv-x="795" d="M199 512q0 147 26 291t79.5 277t136.5 249t194 203q0 4 10 4h19q6 0 11 -5.5t5 -12.5q0 -9 -4 -13q-100 -98 -166.5 -210t-107 -238.5t-58.5 -262t-18 -282.5q0 -651 348 -989q6 -6 6 -17q0 -5 -5.5 -11.5t-10.5 -6.5h-19q-10 0 -10 4q-114 90 -196.5 206.5t-135 248.5 t-78.5 276t-26 289z" />
<glyph unicode=")" horiz-adv-x="795" d="M115 -494q0 9 4 13q350 342 350 993t-346 989q-8 5 -8 17q0 7 5.5 12.5t12.5 5.5h19q6 0 10 -4q147 -116 245 -282t143.5 -354t45.5 -384q0 -145 -24.5 -285.5t-78 -277t-135.5 -252t-196 -205.5q-4 -4 -10 -4h-19q-18 0 -18 18z" />
<glyph unicode="*" d="M133 907q0 34 29 49l295 140l-295 137q-29 15 -29 49q0 26 18 45t42 19q16 0 30 -11l260 -190l-30 332l-2 4q0 23 18.5 39t42.5 16q22 0 40.5 -15t18.5 -40v-4l-32 -332l260 190q14 11 30 11q25 0 42.5 -19t17.5 -45q0 -34 -29 -49l-295 -137l295 -140q29 -15 29 -49 q0 -24 -17.5 -43.5t-42.5 -19.5q-17 0 -30 10l-260 190l32 -331v-4q0 -24 -18.5 -40t-40.5 -16q-24 0 -42.5 16.5t-18.5 39.5l2 4l30 331l-260 -190q-12 -10 -30 -10q-23 0 -41.5 19.5t-18.5 43.5z" />
<glyph unicode="+" horiz-adv-x="1591" d="M115 512q0 15 11 28t28 13h602v604q0 16 12 26.5t29 10.5q15 0 28 -10.5t13 -26.5v-604h602q15 0 26 -13t11 -28t-11 -28t-26 -13h-602v-604q0 -16 -13 -26.5t-28 -10.5q-17 0 -29 10.5t-12 26.5v604h-602q-17 0 -28 13t-11 28z" />
<glyph unicode="," horiz-adv-x="567" d="M172 113q0 48 33 80t80 32q73 0 104 -67.5t31 -149.5q0 -114 -45.5 -216.5t-128.5 -184.5q-8 -4 -13 -4q-10 0 -20 9t-10 19q0 9 8 17q74 71 115 164t41 196v25q-33 -33 -82 -33q-47 0 -80 33t-33 80z" />
<glyph unicode="-" horiz-adv-x="682" d="M23 379v127h542v-127h-542z" />
<glyph unicode="." horiz-adv-x="567" d="M172 113q0 46 34 79t79 33q28 0 55 -15t42 -42t15 -55q0 -45 -33 -79t-79 -34q-45 0 -79 34t-34 79z" />
<glyph unicode="/" d="M115 -471q0 6 2 8l712 1974q4 12 14 18.5t23 6.5q18 0 29.5 -11t11.5 -30v-8l-712 -1974q-12 -25 -39 -25q-17 0 -29 12t-12 29z" />
<glyph unicode="0" d="M80 653q0 178 32.5 335t129 266.5t270.5 109.5q135 0 221 -66t131 -170.5t61.5 -224t16.5 -250.5q0 -176 -32.5 -329.5t-127.5 -261t-270 -107.5q-251 0 -341.5 206.5t-90.5 491.5zM258 686q0 -114 5.5 -215t29.5 -208.5t77.5 -181t141.5 -73.5q114 0 170 117t69 259 t13 302q0 154 -13 284t-68.5 235.5t-170.5 105.5q-116 0 -172 -106t-69 -235.5t-13 -283.5z" />
<glyph unicode="1" d="M178 1161v72q251 0 379 131h29q7 0 13.5 -5.5t6.5 -12.5v-1209q0 -65 256 -65v-72h-672v72q256 0 256 65v1075q-106 -51 -268 -51z" />
<glyph unicode="2" d="M102 0v55q0 5 4 11l318 352q72 78 117 131t89 122t69.5 140.5t25.5 151.5q0 84 -31 160.5t-92.5 122.5t-148.5 46q-89 0 -160 -53.5t-100 -138.5q8 2 22 2q46 0 78.5 -31t32.5 -80q0 -47 -32.5 -79.5t-78.5 -32.5q-48 0 -80.5 33.5t-32.5 78.5q0 77 29 144.5t83.5 120 t123 80.5t145.5 28q117 0 218 -49.5t160 -140t59 -211.5q0 -89 -39 -169t-100 -145.5t-156 -148.5t-125 -111l-232 -223h197q145 0 242.5 2.5t103.5 7.5q24 26 49 189h60l-58 -365h-760z" />
<glyph unicode="3" d="M86 276q0 51 34 85t85 34q33 0 60.5 -15.5t43 -43.5t15.5 -60q0 -50 -35 -84t-84 -34h-10q48 -70 129 -104t174 -34q119 0 169 101.5t50 230.5q0 58 -10.5 116t-35.5 108t-68.5 80t-106.5 30h-136q-18 0 -18 19v18q0 16 18 16l113 9q72 0 119.5 54t69.5 131.5t22 147.5 q0 98 -46 161t-140 63q-78 0 -149 -29.5t-113 -89.5q4 1 7 1.5t7 0.5q46 0 77 -32t31 -77q0 -44 -31 -76t-77 -32q-45 0 -77 32t-32 76q0 88 53 153t136.5 98.5t167.5 33.5q62 0 131 -18.5t125 -53t91.5 -88.5t35.5 -123q0 -86 -38.5 -159t-105.5 -126t-147 -79 q89 -17 169 -67t128.5 -128t48.5 -168q0 -113 -62 -204.5t-163 -143t-213 -51.5q-96 0 -192.5 36.5t-158 109.5t-61.5 175z" />
<glyph unicode="4" d="M57 338v72l633 944q7 10 21 10h30q23 0 23 -23v-931h201v-72h-201v-201q0 -42 60 -53.5t139 -11.5v-72h-564v72q79 0 139 11.5t60 53.5v201h-541zM125 410h485v725z" />
<glyph unicode="5" d="M102 334q0 46 30 75t75 29t75.5 -29.5t30.5 -74.5q0 -44 -30.5 -74.5t-75.5 -30.5q-7 0 -16 1.5t-13 2.5q21 -60 64.5 -109t103 -76.5t123.5 -27.5q148 0 204 115t56 279q0 71 -2.5 119.5t-13.5 93.5q-19 72 -66.5 126t-116.5 54t-118.5 -21t-80.5 -49t-55 -59t-30 -33 h-23q-5 0 -12.5 6.5t-7.5 12.5v684q0 5 6.5 10.5t13.5 5.5h6q138 -66 293 -66q152 0 293 66h6q7 0 13 -5t6 -11v-19q0 -10 -4 -10q-70 -93 -175.5 -145t-218.5 -52q-82 0 -168 23v-387q68 55 121.5 78.5t136.5 23.5q113 0 202.5 -65t137.5 -169.5t48 -213.5 q0 -123 -60.5 -228t-164.5 -167t-226 -62q-101 0 -185.5 52t-133 140t-48.5 187z" />
<glyph unicode="6" d="M86 662q0 162 63 325t185.5 270t290.5 107q70 0 130.5 -26.5t95 -78t34.5 -124.5q0 -42 -28.5 -70.5t-70.5 -28.5q-40 0 -69 29t-29 70q0 40 29 69t69 29h11q-26 37 -73.5 54.5t-98.5 17.5q-62 0 -114.5 -27t-94.5 -73t-70 -101.5t-43.5 -126.5t-19.5 -133t-4 -156 q36 84 102 137.5t149 53.5q91 0 166 -37t129 -102.5t82.5 -149.5t28.5 -170q0 -120 -53.5 -228.5t-150.5 -172.5t-220 -64q-127 0 -212 67.5t-131.5 175t-64.5 225.5t-18 239zM283 412q0 -88 18 -178t69 -152t142 -62q79 0 127 36t70.5 95.5t28 120t5.5 148.5q0 116 -11 198 t-60 144.5t-150 62.5q-83 0 -136.5 -56t-78 -141.5t-24.5 -164.5q0 -27 2 -41q0 -3 -0.5 -5t-1.5 -5z" />
<glyph unicode="7" d="M115 954l67 430h60v-6q0 -37 125 -48t245 -11h381v-53q0 -2 -1 -3l-1 -3l-282 -396q-104 -154 -130 -342t-26 -469q0 -40 -29 -69t-69 -29q-41 0 -70 29t-29 69q0 114 20 223t58.5 215.5t93 209t119.5 192.5l187 260h-234q-364 0 -375 -10q-27 -33 -51 -189h-59z" />
<glyph unicode="8" d="M86 311q0 123 81 217.5t208 157.5l-76 49q-70 46 -114 122.5t-44 160.5q0 98 51.5 177t137 124t182.5 45q91 0 175.5 -37t139 -106t54.5 -164q0 -69 -32.5 -128t-89 -106t-120.5 -80l117 -75q81 -53 130.5 -139t49.5 -181q0 -111 -59.5 -202t-157.5 -141t-207 -50 q-106 0 -204.5 43t-160 124.5t-61.5 188.5zM197 311q0 -81 44.5 -148t117.5 -105t153 -38q119 0 216 69.5t97 184.5q0 39 -15.5 77.5t-43 70t-61.5 51.5l-275 178q-64 -34 -117.5 -86t-84.5 -117t-31 -137zM240 1098q0 -96 98 -162l248 -160q86 50 141 121t55 160 q0 69 -38.5 126.5t-100.5 89.5t-133 32q-62 0 -125 -24t-104 -71.5t-41 -111.5z" />
<glyph unicode="9" d="M86 903q0 123 56 229.5t155 169t225 62.5q124 0 207.5 -67.5t127.5 -174t61.5 -225.5t17.5 -235q0 -158 -58 -322.5t-173.5 -274.5t-278.5 -110q-121 0 -205 57t-84 172q0 42 28.5 70.5t70.5 28.5q41 0 69.5 -28.5t28.5 -70.5q0 -40 -29 -69t-69 -29h-5q56 -66 195 -66 q78 0 145.5 53t104.5 130q43 87 55 185.5t12 244.5q-35 -83 -100.5 -136t-150.5 -53q-119 0 -212.5 64.5t-143.5 170t-50 224.5zM279 903q0 -116 11 -198t60 -144.5t150 -62.5q84 0 137.5 56.5t77.5 140.5t24 167v39v8q0 154 -45 275t-172 121q-81 0 -131.5 -35.5 t-74.5 -94.5t-30.5 -126t-6.5 -146z" />
<glyph unicode=":" horiz-adv-x="567" d="M172 113q0 46 34 79t79 33q28 0 55 -15t42 -42t15 -55q0 -45 -33 -79t-79 -34q-45 0 -79 34t-34 79zM172 770q0 29 15 55t41.5 42t56.5 16q29 0 55.5 -16t41.5 -42t15 -55q0 -46 -32.5 -79.5t-79.5 -33.5q-46 0 -79.5 33.5t-33.5 79.5z" />
<glyph unicode=";" horiz-adv-x="567" d="M172 113q0 48 33 80t80 32q71 0 94.5 -65.5t23.5 -151.5q0 -72 -17.5 -142t-53 -137t-84.5 -120q-6 -6 -15 -6q-10 0 -20 9t-10 19q0 9 4 13q143 155 143 364v10q-30 -18 -65 -18q-47 0 -80 33t-33 80zM172 770q0 29 15 55t41.5 42t56.5 16q29 0 55.5 -16t41.5 -42 t15 -55q0 -46 -32.5 -79.5t-79.5 -33.5q-46 0 -79.5 33.5t-33.5 79.5z" />
<glyph unicode="&#x3c;" horiz-adv-x="567" d="M172 -328l84 944q0 6 4.5 12.5t11.5 6.5h25q7 0 12.5 -6t5.5 -13l82 -944v-12q0 -43 -33.5 -72.5t-78.5 -29.5q-44 0 -78.5 29.5t-34.5 72.5v12zM172 911q0 45 34 79t79 34q28 0 55 -15t42 -42t15 -56q0 -44 -33 -78t-79 -34q-45 0 -79 34t-34 78z" />
<glyph unicode="=" horiz-adv-x="1591" d="M115 313q0 17 11 29t28 12h1286q15 0 26 -12t11 -29q0 -15 -11 -28t-26 -13h-1286q-17 0 -28 13t-11 28zM115 711q0 15 11 28t28 13h1286q15 0 26 -13t11 -28q0 -17 -11 -29t-26 -12h-1286q-17 0 -28 12t-11 29z" />
<glyph unicode="&#x3e;" horiz-adv-x="967" d="M115 -141q0 59 23 114.5t69 92.5q69 56 117.5 127t75 153t26.5 170v100q0 6 4.5 12.5t11.5 6.5h25q7 0 12.5 -6t5.5 -13v-104q0 -130 -37.5 -257t-111.5 -228q-43 -58 -43 -170q0 -75 9 -121.5t44.5 -74.5t108.5 -28q92 0 176.5 30t130.5 97h-10q-41 0 -70 29t-29 70 q0 40 29 69t70 29q40 0 69 -29t29 -69q0 -94 -61 -157.5t-153 -92.5t-181 -29q-145 0 -242.5 69t-97.5 210zM342 911q0 45 34 79t79 34q28 0 55 -15t42 -42t15 -56q0 -44 -33 -78t-79 -34q-45 0 -79 34t-34 78z" />
<glyph unicode="?" horiz-adv-x="967" d="M115 1165q0 84 49.5 147.5t128.5 97.5t162 34q97 0 187.5 -25.5t149 -88.5t58.5 -165q0 -60 -28 -115.5t-79 -91.5q-117 -82 -187.5 -200t-70.5 -250v-100q0 -7 -6 -13t-12 -6h-25q-5 0 -10.5 6.5t-5.5 12.5v104q0 134 49 263t139 222q30 32 44 76.5t14 93.5 q0 84 -19 132t-66 70t-132 22q-79 0 -147.5 -32t-106.5 -95h12q41 0 69.5 -28.5t28.5 -70.5q0 -40 -29 -69t-69 -29t-69 29t-29 69zM342 113q0 46 34 79t79 33q28 0 55 -15t42 -42t15 -55q0 -45 -33 -79t-79 -34q-45 0 -79 34t-34 79z" />
<glyph unicode="@" horiz-adv-x="1591" d="M115 711q0 141 50.5 273.5t143.5 237t217.5 163.5t270.5 59q145 0 270 -59t217.5 -163.5t142.5 -237t50 -273.5q0 -188 -38 -319.5t-175 -131.5q-72 0 -132 36t-75 101q-48 -62 -116.5 -99.5t-143.5 -37.5q-118 0 -211 63.5t-146 168.5t-53 219q0 112 53 217.5t146 169 t211 63.5q87 0 164 -49t124 -127h103q6 0 11 -5.5t5 -12.5v-537q0 -42 15 -79.5t51 -37.5q94 0 120.5 121t26.5 275q0 128 -46 253.5t-127.5 221t-198 151.5t-248.5 56t-248.5 -56.5t-199 -151t-129 -218.5t-46.5 -254t45.5 -251.5t129.5 -219t201 -153.5t249 -56 q97 0 194.5 15.5t191.5 44.5t183 73h92q6 0 11.5 -6t5.5 -13q0 -14 -13 -18q-320 -150 -667 -150q-146 0 -270.5 59.5t-217.5 164t-143.5 237t-50.5 273.5zM537 711q0 -84 28.5 -177t86.5 -157t145 -64q82 0 151 53.5t107 135.5v418q-25 52 -63.5 94.5t-90 68t-104.5 25.5 q-66 0 -116 -39.5t-81 -99.5t-47 -129.5t-16 -128.5z" />
<glyph unicode="A" horiz-adv-x="1536" d="M66 0v72q183 0 225 121l430 1251q6 22 33 22h26q27 0 33 -22l449 -1307q19 -43 72.5 -54t133.5 -11v-72h-571v72q170 0 170 55v10l-111 320h-497l-92 -264q-2 -7 -2 -21q0 -51 48.5 -75.5t104.5 -24.5v-72h-452zM483 528h449l-225 654z" />
<glyph unicode="B" horiz-adv-x="1450" d="M70 0v72q211 0 211 65v1125q0 65 -211 65v72h753q104 0 210 -40.5t175.5 -120t69.5 -187.5q0 -125 -102.5 -209.5t-239.5 -110.5q89 0 183 -49t154 -131t60 -174q0 -112 -66.5 -198t-172.5 -132.5t-213 -46.5h-811zM459 137q0 -44 25 -54.5t79 -10.5h260q80 0 148.5 42 t108.5 112.5t40 150.5q0 78 -33 152.5t-94.5 122.5t-140.5 48h-393v-563zM459 754h307q62 0 116.5 22.5t98 65t67 96t23.5 113.5q0 53 -17.5 102t-51.5 89t-80 62.5t-99 22.5h-260q-37 0 -57.5 -3t-33.5 -17.5t-13 -44.5v-508z" />
<glyph unicode="C" horiz-adv-x="1479" d="M115 700q0 147 54.5 283t152 240t229 162.5t278.5 58.5q105 0 201 -45.5t168 -128.5l119 168q12 6 14 6h15q6 0 11 -5t5 -12v-553q0 -18 -16 -18h-37q-19 0 -19 18q0 59 -23.5 132t-60 138.5t-84.5 115.5q-115 112 -264 112q-113 0 -216.5 -51t-174.5 -141 q-75 -96 -104 -218.5t-29 -261.5t29 -262t104 -219q70 -89 175 -140.5t218 -51.5q95 0 176 37.5t141.5 104.5t93 152t32.5 179q0 16 18 16h25q16 0 16 -20q0 -107 -41 -206.5t-116 -175t-172.5 -117.5t-203.5 -42q-147 0 -278.5 59.5t-229 163t-152 239.5t-54.5 283z" />
<glyph unicode="D" horiz-adv-x="1563" d="M68 0v72q211 0 211 65v1125q0 65 -211 65v72h755q140 0 256 -60.5t198 -161.5t126.5 -229t44.5 -262q0 -130 -45 -252.5t-129.5 -221t-200 -155.5t-250.5 -57h-755zM463 137q0 -44 25 -54.5t79 -10.5h203q105 0 199.5 45.5t156.5 126.5q65 86 87 192.5t22 249.5 q0 149 -22 261t-87 200q-61 87 -155 133.5t-201 46.5h-203q-37 0 -57.5 -3t-33.5 -17.5t-13 -44.5v-1125z" />
<glyph unicode="E" horiz-adv-x="1393" d="M63 0v72q211 0 211 65v1125q0 65 -211 65v72h1158l57 -469h-59q-22 177 -61.5 257t-126.5 110t-261 30h-201q-37 0 -57.5 -3t-33.5 -17.5t-13 -44.5v-500h151q104 0 155.5 17.5t71 67t19.5 154.5h60v-550h-60q0 104 -19.5 154t-71 67.5t-155.5 17.5h-151v-553 q0 -44 25 -54.5t79 -10.5h217q142 0 229.5 22.5t136 75t75 136t49.5 231.5h59l-86 -537h-1186z" />
<glyph unicode="F" horiz-adv-x="1335" d="M63 0v72q211 0 211 65v1125q0 65 -211 65v72h1129l57 -469h-59q-14 129 -37.5 203.5t-68.5 117t-120.5 59.5t-207.5 17h-187q-37 0 -57.5 -3t-33.5 -17.5t-13 -44.5v-527h145q105 0 154 18.5t67.5 67.5t18.5 154h59v-551h-59q0 105 -18.5 154t-67.5 67.5t-154 18.5h-145 v-527q0 -65 262 -65v-72h-664z" />
<glyph unicode="G" horiz-adv-x="1606" d="M115 700q0 145 55 282t153.5 241t229.5 162.5t278 58.5q106 0 200.5 -45.5t168.5 -128.5l119 168q12 6 14 6h15q6 0 11 -5t5 -12v-553q0 -18 -16 -18h-37q-19 0 -19 18q0 59 -23.5 132t-60 138.5t-84.5 115.5q-115 112 -264 112q-114 0 -218 -51t-175 -141 q-75 -96 -104 -218.5t-29 -261.5q0 -314 137 -481q74 -90 180.5 -141t222.5 -51q114 0 207 58t93 165v172q0 65 -256 65v72h587v-72q-65 0 -103 -11t-38 -54v-404q0 -7 -5.5 -12.5t-12.5 -5.5q-19 0 -63.5 45t-70.5 80q-50 -86 -157 -128t-224 -42q-199 0 -362.5 102.5 t-258.5 274t-95 368.5z" />
<glyph unicode="H" horiz-adv-x="1536" d="M63 0v72q211 0 211 65v1125q0 65 -211 65v72h613v-72q-211 0 -211 -65v-498h604v498q0 65 -211 65v72h612v-72q-210 0 -210 -65v-1125q0 -65 210 -65v-72h-612v72q211 0 211 65v555h-604v-555q0 -65 211 -65v-72h-613z" />
<glyph unicode="I" horiz-adv-x="739" d="M53 0v72q221 0 221 65v1125q0 65 -221 65v72h633v-72q-221 0 -221 -65v-1125q0 -65 221 -65v-72h-633z" />
<glyph unicode="J" horiz-adv-x="1051" d="M76 233q0 51 34 85t85 34q33 0 60 -15.5t42.5 -43.5t15.5 -60q0 -50 -34 -84t-84 -34h-9q37 -52 96 -79.5t126 -27.5q66 0 111.5 45.5t68 113t22.5 130.5v965q0 65 -274 65v72h616v-72q-69 0 -113 -11t-44 -54v-973q0 -98 -56.5 -174t-146 -118t-184.5 -42 q-83 0 -159 33.5t-124.5 97t-48.5 147.5z" />
<glyph unicode="K" horiz-adv-x="1591" d="M63 0v72q211 0 211 65v1125q0 65 -211 65v72h613v-72q-211 0 -211 -65v-664l633 608q26 28 26 56q0 32 -27.5 48.5t-62.5 16.5v72h445v-72q-168 0 -295 -121l-363 -348l449 -665q55 -81 96.5 -101t140.5 -20v-72h-536v72q49 0 82.5 10t33.5 47q0 25 -26 64l-367 544 l-229 -221v-379q0 -65 211 -65v-72h-613z" />
<glyph unicode="L" horiz-adv-x="1280" d="M63 0v72q211 0 211 65v1125q0 65 -211 65v72h664v-72q-262 0 -262 -65v-1125q0 -44 25 -54.5t79 -10.5h158q153 0 236 56t117.5 152.5t52.5 256.5h59l-57 -537h-1072z" />
<glyph unicode="M" horiz-adv-x="1876" d="M72 0v72q211 0 211 121v1069q0 65 -211 65v72h387q25 0 33 -23l446 -1159l446 1159q8 23 33 23h387v-72q-211 0 -211 -65v-1125q0 -65 211 -65v-72h-596v72q211 0 211 65v1192l-504 -1306q-9 -23 -34 -23q-26 0 -35 23l-498 1290v-1120q0 -121 211 -121v-72h-487z" />
<glyph unicode="N" horiz-adv-x="1536" d="M63 0v72q211 0 211 121v1122q-67 12 -211 12v72h392q10 0 14 -8l725 -1067v882q0 121 -211 121v72h487v-72q-210 0 -210 -121v-1188q0 -6 -8 -12t-13 -6h-25q-10 0 -14 8l-860 1266v-1081q0 -121 211 -121v-72h-488z" />
<glyph unicode="O" horiz-adv-x="1591" d="M115 694q0 140 50.5 277t141 243t217.5 168t273 62q145 0 272.5 -62.5t218.5 -169.5t140 -240t49 -278q0 -189 -88 -360.5t-244 -275t-348 -103.5q-195 0 -350.5 103.5t-243.5 275t-88 360.5zM334 727q0 -93 10.5 -181.5t39 -173.5t73.5 -151q60 -94 148 -149.5 t192 -55.5q67 0 131.5 27t117 74t89.5 104q122 184 122 506q0 295 -122 467q-60 86 -149.5 138t-188.5 52q-100 0 -190 -52t-150 -138q-48 -67 -74.5 -142.5t-37.5 -156.5t-11 -168z" />
<glyph unicode="P" horiz-adv-x="1393" d="M68 0v72q211 0 211 65v1125q0 65 -211 65v72h729q112 0 224 -46t184.5 -134t72.5 -205q0 -114 -73 -200t-184 -130.5t-224 -44.5h-328v-502q0 -65 211 -65v-72h-612zM463 700h278q113 0 183 32.5t102.5 101t32.5 180.5q0 167 -73.5 240t-244.5 73h-174q-37 0 -57.5 -3 t-33.5 -17.5t-13 -44.5v-562z" />
<glyph unicode="Q" horiz-adv-x="1591" d="M115 694q0 140 50.5 277t141 243t217.5 168t273 62q145 0 272.5 -62.5t218.5 -169.5t140 -240t49 -278q0 -141 -49.5 -275t-144 -240t-220.5 -165q39 -91 80 -141.5t114 -50.5q77 0 132 53t55 129q0 7 7.5 13t14.5 6q23 0 23 -27q0 -147 -57.5 -270t-188.5 -123 q-72 0 -119 35.5t-71.5 90t-38.5 126.5t-25 131q-90 -31 -192 -31q-195 0 -350.5 103.5t-243.5 275t-88 360.5zM328 694q0 -218 74 -396.5t247 -252.5q-22 42 -22 88q0 45 22 85t61.5 64.5t86.5 24.5q89 0 141 -57.5t92 -155.5q68 51 114 120.5t71.5 146t37 162t11.5 171.5 q0 142 -28.5 267t-96.5 225q-59 89 -150 143.5t-192 54.5q-103 0 -193.5 -53.5t-150.5 -144.5q-70 -102 -97.5 -227t-27.5 -265zM680 133q0 -52 32.5 -85.5t84.5 -33.5q92 0 178 47q-19 88 -58.5 140.5t-119.5 52.5q-49 0 -83 -36.5t-34 -84.5z" />
<glyph unicode="R" horiz-adv-x="1507" d="M68 0v72q211 0 211 65v1125q0 65 -211 65v72h643q115 0 241.5 -41.5t211.5 -126.5t85 -203q0 -86 -51.5 -153.5t-132 -113t-164.5 -65.5q92 -32 161 -102t83 -160l29 -182q20 -123 42 -183.5t97 -60.5q64 0 95.5 59.5t31.5 129.5q0 7 6.5 12.5t13.5 5.5h19q20 0 20 -27 q0 -56 -22 -109.5t-63.5 -88.5t-98.5 -35q-148 0 -254.5 73.5t-106.5 215.5v182q0 102 -71 175t-174 73h-246v-537q0 -65 211 -65v-72h-606zM463 727h219q170 0 259 68.5t89 232.5q0 163 -88 231t-260 68h-115q-37 0 -57.5 -3t-33.5 -17.5t-13 -44.5v-535z" />
<glyph unicode="S" horiz-adv-x="1137" d="M115 -29v478q0 16 18 16h25q6 0 11 -5t5 -11q0 -201 124.5 -311.5t326.5 -110.5q71 0 131 41t93.5 107.5t33.5 137.5q0 62 -25 120.5t-72 101.5t-106 57l-266 65q-132 35 -215.5 143.5t-83.5 243.5q0 106 54 199t145.5 147t197.5 54q205 0 326 -139l84 133q6 6 14 6h14 q6 0 11.5 -4.5t5.5 -12.5v-475q0 -18 -17 -18h-24q-19 0 -19 18q0 52 -17.5 114t-48.5 119t-67 93q-99 100 -262 100q-70 0 -129 -35.5t-94 -96.5t-35 -128q0 -88 54.5 -159.5t142.5 -94.5l266 -65q66 -16 124.5 -57.5t97.5 -96.5t61 -122.5t22 -139.5q0 -111 -51 -209.5 t-143.5 -158.5t-202.5 -60q-68 0 -139 15t-131 46t-109 80l-86 -135q-6 -6 -15 -6h-12q-18 0 -18 16z" />
<glyph unicode="T" horiz-adv-x="1479" d="M74 930l39 469h1251l39 -469h-60q-12 132 -26.5 209.5t-52.5 113.5q-72 74 -240 74h-86q-37 0 -57.5 -3t-33.5 -17.5t-13 -44.5v-1125q0 -42 97 -53.5t199 -11.5v-72h-784v72q103 0 200 11.5t97 53.5v1125q0 44 -24.5 54.5t-79.5 10.5h-86q-169 0 -240 -74 q-37 -37 -53 -118.5t-27 -204.5h-59z" />
<glyph unicode="U" horiz-adv-x="1536" d="M63 1327v72h613v-72q-211 0 -211 -65v-791q0 -114 31.5 -215.5t106 -165t194.5 -63.5q117 0 206 61.5t137 163.5t48 219v735q0 121 -211 121v72h493v-72q-210 0 -210 -121v-743q0 -95 -33.5 -186t-97 -164.5t-149.5 -115.5t-183 -42q-136 0 -257.5 68t-193.5 185t-72 255 v799q0 65 -211 65z" />
<glyph unicode="V" horiz-adv-x="1536" d="M39 1327v72h563v-72q-170 0 -170 -53q1 -3 1.5 -5.5t0.5 -6.5l393 -1045l371 989q4 8 4 25q0 50 -46 73t-103 23v72h442v-72q-77 0 -135.5 -28.5t-83.5 -92.5l-463 -1229q-6 -22 -33 -22h-26q-27 0 -33 22l-483 1285q-18 43 -69 54t-130 11z" />
<glyph unicode="W" horiz-adv-x="2103" d="M37 1327v72h549v-72q-172 0 -172 -55v-10l327 -1008l279 862l-47 146q-16 43 -62 54t-120 11v72h548v-72q-174 0 -174 -55q0 -3 2 -9t2 -8l326 -1001l307 952q2 6 2 19q0 54 -57 78t-119 24v72h438v-72q-162 0 -200 -121l-400 -1229q-7 -22 -30 -22h-15q-23 0 -30 22 l-338 1043l-340 -1043q-7 -22 -31 -22h-14q-24 0 -31 22l-418 1285q-16 43 -62 54t-120 11z" />
<glyph unicode="X" horiz-adv-x="1536" d="M47 0v72q208 0 291 116l340 506l-377 574q-32 38 -86.5 48.5t-138.5 10.5v72h573v-72q-37 0 -85 -14.5t-48 -40.5q0 -4 2 -8l268 -408l236 352q8 18 8 29q0 42 -41.5 66t-87.5 24v72h500v-72q-208 0 -291 -117l-281 -419l433 -660q35 -39 88.5 -49t136.5 -10v-72h-574v72 q33 0 83.5 14.5t50.5 40.5q0 6 -3 8l-323 494l-295 -439q-6 -12 -6 -28q0 -42 41 -66t86 -24v-72h-500z" />
<glyph unicode="Y" horiz-adv-x="1536" d="M23 1327v72h577v-72q-143 0 -143 -47q0 -4 4 -16l370 -611l338 555q13 19 13 41q0 41 -35.5 59.5t-79.5 18.5v72h444v-72q-80 0 -148.5 -28.5t-107.5 -88.5l-397 -651v-422q0 -65 211 -65v-72h-606v72q211 0 211 65v422l-430 707q-30 41 -84 51t-137 10z" />
<glyph unicode="Z" horiz-adv-x="1251" d="M115 23v28q0 8 4 12l796 1264h-288q-144 0 -237.5 -38t-141 -125t-47.5 -234h-60l23 469h948q23 0 23 -23v-24q0 -9 -2 -13l-797 -1261h301q109 0 196 20t146 78q41 41 64 103t30 120t14 156h60l-35 -555h-975q-22 0 -22 23z" />
<glyph unicode="[" horiz-adv-x="567" d="M242 -512v2048h280v-82h-198v-1884h198v-82h-280z" />
<glyph unicode="\" d="M303 1016q0 113 47.5 219t132.5 182q8 4 13 4q11 0 20.5 -9.5t9.5 -18.5t-8 -17q-49 -43 -87 -103t-56.5 -125.5t-18.5 -131.5q0 -21 2 -31q30 39 86 39q32 0 57.5 -15t40.5 -40t15 -58q0 -47 -32.5 -79.5t-80.5 -32.5q-73 0 -107 67.5t-34 149.5zM700 1016 q0 78 22 150.5t63.5 138t95.5 112.5q8 4 12 4q10 0 20.5 -9.5t10.5 -18.5q0 -10 -9 -17q-49 -43 -86 -101.5t-56 -125.5t-19 -133q0 -21 2 -31q29 39 86 39q49 0 80.5 -32.5t31.5 -80.5q0 -46 -32 -79t-80 -33q-74 0 -108 67.5t-34 149.5z" />
<glyph unicode="]" horiz-adv-x="567" d="M45 -430h199v1884h-199v82h281v-2048h-281v82z" />
<glyph unicode="^" d="M236 1145l276 276l274 -276l-41 -43l-233 205l-236 -205z" />
<glyph unicode="_" horiz-adv-x="567" d="M172 1257q0 45 34 79t79 34q28 0 55 -15t42 -42t15 -56q0 -44 -33 -78t-79 -34q-45 0 -79 34t-34 78z" />
<glyph unicode="`" horiz-adv-x="567" d="M143 1016q0 78 22 150.5t63.5 138t95.5 112.5q8 4 12 4q10 0 20.5 -9.5t10.5 -18.5q0 -8 -9 -17q-49 -43 -86 -101.5t-56 -125.5t-19 -133q0 -21 2 -31q29 39 86 39q49 0 80.5 -32.5t31.5 -80.5q0 -46 -32 -79t-80 -33q-74 0 -108 67.5t-34 149.5z" />
<glyph unicode="a" d="M82 201q0 122 96 198.5t230.5 108t255.5 31.5v84q0 59 -26 114.5t-75 91t-108 35.5q-136 0 -207 -61q39 0 64.5 -29.5t25.5 -68.5q0 -41 -29 -70t-69 -29q-41 0 -70 29t-29 70q0 108 98 160.5t216 52.5q83 0 167 -35.5t137.5 -101.5t53.5 -154v-461q0 -40 17 -73.5 t53 -33.5q34 0 50.5 34t16.5 73v131h60v-131q0 -46 -24 -87.5t-64.5 -66t-87.5 -24.5q-60 0 -103.5 46.5t-48.5 110.5q-38 -77 -112 -122.5t-158 -45.5q-78 0 -153.5 23t-126 72.5t-50.5 128.5zM248 201q0 -72 53 -121t125 -49q66 0 120 33t86 90t32 120v213 q-93 0 -190.5 -30.5t-161.5 -95.5t-64 -160z" />
<glyph unicode="b" horiz-adv-x="1137" d="M53 1327v72l303 22v-641q34 38 79.5 66.5t97.5 43.5t106 15q92 0 170.5 -37t136.5 -102t90.5 -149.5t32.5 -174.5q0 -124 -60.5 -231t-165 -170.5t-229.5 -63.5q-78 0 -151 40t-121 106l-70 -123h-59v1212q0 55 -16.5 79.5t-47.5 30t-96 5.5zM362 201q34 -75 98 -122.5 t142 -47.5q106 0 171.5 61t91.5 154t26 196q0 173 -45 263q-20 40 -54.5 74t-77 53.5t-89.5 19.5q-82 0 -152 -43.5t-111 -116.5v-491z" />
<glyph unicode="c" horiz-adv-x="909" d="M68 442q0 121 57.5 232t159 177.5t225.5 66.5q120 0 218.5 -47t98.5 -154q0 -40 -28.5 -69.5t-69.5 -29.5t-69.5 29.5t-28.5 69.5q0 36 23 62.5t57 33.5q-71 45 -199 45q-98 0 -158 -65t-84 -161t-24 -190q0 -99 29.5 -191.5t95 -153t164.5 -60.5q97 0 165 59.5t93 155.5 q0 12 16 12h25q6 0 11 -5.5t5 -12.5v-6q-31 -121 -123 -192t-217 -71q-124 0 -225 64.5t-159 172t-58 228.5z" />
<glyph unicode="d" horiz-adv-x="1137" d="M68 442q0 124 60.5 230.5t164.5 169.5t229 63q75 0 142 -31.5t116 -87.5v426q0 55 -16.5 79.5t-47 30t-95.5 5.5v72l303 22v-1235q0 -54 16.5 -78.5t47 -30t95.5 -5.5v-72l-309 -23v129q-53 -61 -126 -95t-148 -34q-121 0 -221 65.5t-155.5 172.5t-55.5 227zM246 440 q0 -82 8.5 -143t36.5 -119q35 -67 93.5 -107t127.5 -40q85 0 156 49t106 127v491q-24 45 -60.5 80.5t-82 54.5t-96.5 19q-107 0 -172 -60.5t-91 -154.5t-26 -197z" />
<glyph unicode="e" horiz-adv-x="909" d="M57 449q0 120 54.5 228t152 174.5t217.5 66.5q94 0 163.5 -31.5t114.5 -87.5t68 -132t23 -167q0 -27 -21 -27h-593v-22q0 -170 68.5 -292t223.5 -122q63 0 116.5 28t93 78t53.5 107q2 7 7.5 12.5t12.5 5.5h18q21 0 21 -26q-29 -116 -125 -190.5t-215 -74.5 q-125 0 -229.5 65.5t-164 175t-59.5 231.5zM238 524h467q0 77 -21.5 156t-71.5 131.5t-131 52.5q-116 0 -179.5 -108.5t-63.5 -231.5z" />
<glyph unicode="f" horiz-adv-x="625" d="M66 0v72q69 0 114 11t45 54v674h-157v72h157v245q0 66 27.5 123.5t74 100.5t107 67.5t125.5 24.5q69 0 124.5 -41t55.5 -109q0 -39 -26.5 -65.5t-65.5 -26.5t-66.5 26.5t-27.5 65.5q0 64 55 86q-33 11 -59 11q-60 0 -102.5 -42.5t-63.5 -103.5t-21 -121v-241h236v-72 h-229v-674q0 -42 60 -53.5t138 -11.5v-72h-501z" />
<glyph unicode="g" d="M57 -160q0 73 53 127.5t126 77.5q-41 31 -62.5 78t-21.5 100q0 96 61 170q-94 92 -94 211q0 64 27.5 120t76.5 97t109 62.5t123 21.5q122 0 219 -71q42 45 99.5 69.5t119.5 24.5q44 0 72 -31.5t28 -75.5q0 -25 -19 -44t-44 -19q-26 0 -45 19t-19 44q0 38 25 53 q-106 0 -182 -73q37 -37 59.5 -90.5t22.5 -106.5q0 -87 -48 -156.5t-126.5 -108t-161.5 -38.5q-112 0 -205 61q-29 -40 -29 -90q0 -54 35.5 -94.5t89.5 -40.5h168q122 0 220 -22t164.5 -88t66.5 -187q0 -90 -76 -149.5t-181.5 -86t-195.5 -26.5q-91 0 -197 26.5t-182 86 t-76 149.5zM172 -160q0 -69 56 -115.5t135 -69t149 -22.5q69 0 148 22.5t134.5 69t55.5 115.5q0 107 -98 138.5t-238 31.5h-168q-47 0 -86.5 -22.5t-63.5 -63t-24 -84.5zM281 604q0 -68 14 -123t52 -90t108 -35q174 0 174 248q0 107 -37 176.5t-137 69.5t-137 -69.5 t-37 -176.5z" />
<glyph unicode="h" horiz-adv-x="1137" d="M61 0v72q70 0 115 11t45 54v1075q0 55 -16.5 79.5t-47.5 30t-96 5.5v72l304 22v-704q43 85 120 136.5t170 51.5q142 0 213.5 -68t71.5 -208v-492q0 -43 45 -54t115 -11v-72h-469v72q70 0 115 11t45 54v486q0 100 -29 164.5t-119 64.5q-119 0 -195.5 -95t-76.5 -216v-404 q0 -43 45 -54t114 -11v-72h-469z" />
<glyph unicode="i" horiz-adv-x="567" d="M63 0v72q70 0 115 11t45 54v559q0 79 -30.5 97t-120.5 18v72l295 22v-768q0 -43 39 -54t104 -11v-72h-447zM150 1257q0 45 34 79t78 34q29 0 56 -15t42 -42t15 -56q0 -44 -34 -78t-79 -34q-44 0 -78 34t-34 78z" />
<glyph unicode="j" horiz-adv-x="625" d="M-90 -252q0 40 29 69t69 29t69 -29t29 -69q0 -31 -17.5 -57t-47.5 -35q47 -23 106 -23q81 0 112.5 82.5t31.5 178.5v802q0 55 -20 79.5t-54.5 30t-101.5 5.5v72l319 22v-1020q0 -79 -39 -149.5t-106 -113t-146 -42.5q-89 0 -161 44t-72 124zM209 1257q0 45 34 79t79 34 q28 0 55 -15t42 -42t15 -56q0 -44 -33 -78t-79 -34q-45 0 -79 34t-34 78z" />
<glyph unicode="k" horiz-adv-x="1079" d="M53 0v72q70 0 115 11t45 54v1075q0 55 -16.5 79.5t-47.5 30t-96 5.5v72l303 22v-972l275 241q41 39 41 72q0 24 -17 36.5t-41 12.5v72h385v-72q-139 0 -278 -121l-146 -127l261 -370q54 -77 90.5 -99t120.5 -22v-72h-408v72q70 0 70 43q0 31 -37 78l-197 280l-125 -108 v-228q0 -43 45.5 -54t114.5 -11v-72h-457z" />
<glyph unicode="l" horiz-adv-x="567" d="M63 0v72q70 0 115 11t45 54v1075q0 55 -16.5 79.5t-47.5 30t-96 5.5v72l304 22v-1284q0 -43 45 -54t114 -11v-72h-463z" />
<glyph unicode="m" horiz-adv-x="1706" d="M61 0v72q70 0 115 11t45 54v559q0 55 -16.5 79.5t-47.5 30t-96 5.5v72l297 22v-200q41 88 121.5 144t175.5 56q236 0 277 -192q41 86 120 139t173 53q93 0 156.5 -30t95.5 -91.5t32 -154.5v-492q0 -43 45.5 -54t114.5 -11v-72h-469v72q70 0 115 11t45 54v486 q0 103 -29 166t-119 63q-118 0 -195 -95t-77 -216v-404q0 -43 45 -54t115 -11v-72h-469v72q70 0 115 11t45 54v486q0 100 -29 164.5t-119 64.5q-119 0 -195.5 -95t-76.5 -216v-404q0 -43 45 -54t114 -11v-72h-469z" />
<glyph unicode="n" horiz-adv-x="1137" d="M61 0v72q70 0 115 11t45 54v559q0 55 -16.5 79.5t-47.5 30t-96 5.5v72l297 22v-200q41 88 121.5 144t175.5 56q142 0 213.5 -68t71.5 -208v-492q0 -43 45 -54t115 -11v-72h-469v72q70 0 115 11t45 54v486q0 100 -29 164.5t-119 64.5q-119 0 -195.5 -95t-76.5 -216v-404 q0 -43 45 -54t114 -11v-72h-469z" />
<glyph unicode="o" d="M57 436q0 94 33.5 181t96 155.5t145.5 107t180 38.5q126 0 229.5 -66.5t163.5 -178t60 -237.5q0 -123 -61 -228.5t-165.5 -168t-226.5 -62.5q-123 0 -228 62.5t-166 167.5t-61 229zM236 459q0 -115 20 -206.5t80.5 -153.5t175.5 -62q164 0 219 119t55 303 q0 103 -11 170.5t-48 122.5q-23 34 -58.5 59.5t-75 39t-81.5 13.5q-64 0 -121.5 -29t-95.5 -83q-38 -58 -48.5 -127.5t-10.5 -165.5z" />
<glyph unicode="p" horiz-adv-x="1137" d="M53 -326q70 0 115 12t45 54v987q0 56 -40 70t-120 14v72l303 22v-127q56 62 130.5 94.5t158.5 32.5q121 0 218 -65.5t151.5 -172t54.5 -225.5q0 -124 -60.5 -231t-165 -170.5t-229.5 -63.5q-149 0 -252 121v-358q0 -42 45.5 -54t114.5 -12v-71h-469v71zM362 199 q36 -73 100 -120.5t140 -47.5q71 0 125.5 38t91.5 102t54.5 134.5t17.5 136.5q0 82 -29.5 177.5t-90 161t-146.5 65.5q-83 0 -152.5 -42.5t-110.5 -115.5v-489z" />
<glyph unicode="q" horiz-adv-x="1079" d="M68 442q0 122 60 229.5t164.5 170.5t225.5 63q87 0 161 -49t118 -131l73 180h54v-1165q0 -42 45 -54t114 -12v-71h-469v71q70 0 115 12t45 54v379q-48 -64 -121 -103t-153 -39q-92 0 -171 38t-137.5 103t-91 150.5t-32.5 173.5zM246 440q0 -82 29 -178.5t89 -163.5 t148 -67q91 0 162.5 60.5t105.5 152.5v360q-21 98 -87 170t-158 72q-70 0 -125 -37t-91.5 -99t-54.5 -134t-18 -136z" />
<glyph unicode="r" horiz-adv-x="801" d="M53 0v72q70 0 115 11t45 54v559q0 55 -16.5 79.5t-47.5 30t-96 5.5v72l293 22v-200q33 89 94 144.5t148 55.5q61 0 109 -36t48 -95q0 -37 -26.5 -64.5t-65.5 -27.5q-38 0 -65 27t-27 65q0 55 39 78h-12q-83 0 -135.5 -60t-74.5 -149t-22 -170v-336q0 -65 199 -65v-72 h-502z" />
<glyph unicode="s" horiz-adv-x="807" d="M68 -6v334q0 16 18 16h25q12 0 16 -16q57 -297 276 -297q97 0 162.5 44t65.5 136q0 66 -51 112.5t-121 63.5l-137 27q-69 15 -125.5 46t-92.5 82.5t-36 119.5q0 90 47.5 147.5t123.5 83t164 25.5q105 0 183 -56l59 51q0 5 10 5h15q6 0 11 -5.5t5 -11.5v-268 q0 -19 -16 -19h-25q-18 0 -18 19q0 107 -59.5 172t-166.5 65q-92 0 -159.5 -34t-67.5 -117q0 -57 48.5 -93.5t113.5 -52.5l139 -26q70 -16 130.5 -54t96 -96t35.5 -131q0 -74 -25.5 -128.5t-71 -90.5t-107.5 -53t-130 -17q-128 0 -219 86l-75 -81q0 -5 -11 -5h-12 q-18 0 -18 17z" />
<glyph unicode="t" horiz-adv-x="795" d="M39 811v53q134 0 197 125t63 271h59v-377h289v-72h-289v-561q0 -85 28.5 -149t102.5 -64q70 0 101 67.5t31 145.5v121h59v-125q0 -64 -23.5 -126.5t-69.5 -102.5t-112 -40q-123 0 -194.5 73.5t-71.5 195.5v565h-170z" />
<glyph unicode="u" horiz-adv-x="1137" d="M61 811v72l310 22v-661q0 -80 11.5 -124.5t49 -66.5t119.5 -22q110 0 175 92t65 209v364q0 55 -17 79.5t-47.5 30t-95.5 5.5v72l309 22v-719q0 -54 16.5 -78.5t47.5 -30t96 -5.5v-72l-303 -23v173q-38 -77 -106 -125t-150 -48q-147 0 -233.5 62.5t-86.5 204.5v452 q0 55 -16.5 79.5t-47.5 30t-96 5.5z" />
<glyph unicode="v" horiz-adv-x="1079" d="M39 811v72h430v-72q-115 0 -115 -49q0 -8 2 -12l230 -578l207 522q6 16 6 33q0 39 -29.5 61.5t-69.5 22.5v72h340v-72q-63 0 -110.5 -29t-73.5 -86l-276 -696q-8 -23 -33 -23h-15q-25 0 -32 23l-299 752q-19 38 -58.5 48.5t-103.5 10.5z" />
<glyph unicode="w" horiz-adv-x="1479" d="M37 811v72h422v-72q-121 0 -121 -51q1 -3 1.5 -6t0.5 -9l197 -552l170 481l-27 71q-16 45 -51 55.5t-99 10.5v72h404v-72q-121 0 -121 -51q0 -8 2 -15l205 -577l186 522q4 16 4 29q0 43 -36.5 67.5t-81.5 24.5v72h348v-72q-62 0 -106.5 -32.5t-65.5 -88.5l-244 -690 q-7 -23 -31 -23h-16q-24 0 -31 23l-207 584l-207 -584q-10 -23 -32 -23h-15q-25 0 -32 23l-265 745q-18 45 -52 55.5t-99 10.5z" />
<glyph unicode="x" horiz-adv-x="1079" d="M25 0v72q78 0 147 30.5t117 90.5l186 237l-242 315q-36 45 -78.5 55.5t-119.5 10.5v72h426v-72q-27 0 -50.5 -12t-23.5 -35q0 -8 6 -19l164 -213l123 158q25 30 25 60q0 25 -16.5 43t-43.5 18v72h377v-72q-79 0 -148.5 -30.5t-117.5 -90.5l-162 -207l262 -346 q39 -45 81 -55t120 -10v-72h-426v72q25 0 48 12t23 35q0 9 -6 18l-184 244l-147 -188q-23 -26 -23 -60q0 -25 17 -43t40 -18v-72h-374z" />
<glyph unicode="y" horiz-adv-x="1079" d="M39 -248q0 38 26 64t64 26q26 0 46.5 -11.5t32 -31.5t11.5 -47q0 -33 -22 -59t-56 -29q39 -31 86 -31q129 0 211 195l70 172l-307 752q-19 38 -58 48.5t-104 10.5v72h430v-72q-113 0 -113 -49q0 -8 2 -12l228 -560l205 504q6 16 6 35q0 25 -13.5 43.5t-35 28.5t-48.5 10 v72h340v-72q-63 0 -110.5 -29t-73.5 -86l-354 -868q-28 -66 -65.5 -121.5t-91.5 -91t-118 -35.5q-75 0 -131.5 49.5t-56.5 122.5z" />
<glyph unicode="z" horiz-adv-x="909" d="M57 23v16q0 8 6 14l572 776h-184q-87 0 -143.5 -11t-93 -41.5t-53 -84t-16.5 -147.5h-59l23 338h686q9 0 15.5 -6.5t6.5 -16.5v-12q0 -6 -4 -14l-573 -775h196q89 0 148.5 11t101.5 53q39 39 53.5 105t22.5 163h59l-35 -391h-706q-23 0 -23 23z" />
<glyph unicode="{" d="M0 518v53h1022v-53h-1022z" />
<glyph unicode="|" horiz-adv-x="2048" d="M0 518v53h2046v-53h-2046z" />
<glyph unicode="}" d="M258 1075l111 307q18 52 67 52q19 0 39 -10t31.5 -29t11.5 -37q0 -21 -16 -47l-191 -262zM600 1075l111 307q18 52 67 52q19 0 39 -10t31.5 -29t11.5 -37q0 -21 -16 -47l-191 -262z" />
<glyph unicode="~" d="M170 1206l59 70q80 92 160 92q39 0 85 -23l94 -46q46 -23 85 -23q82 0 158 92l41 -35l-59 -69q-81 -93 -160 -93q-39 0 -85.5 23.5t-93 46.5t-85.5 23q-82 0 -158 -93z" />
<glyph unicode="&#xa1;" horiz-adv-x="1280" d="M63 0v72q211 0 211 65v1125q0 65 -211 65v72h1072l57 -469h-59q-15 130 -34.5 201t-59.5 114.5t-112 62.5t-200 19h-158q-37 0 -57.5 -3t-33.5 -17.5t-13 -44.5v-1125q0 -65 262 -65v-72h-664z" />
<glyph unicode="&#xa2;" horiz-adv-x="1706" d="M94 16l2 3v4l705 1421q9 22 37 22h28q28 0 37 -22l705 -1421q1 -2 1.5 -3.5t0.5 -3.5q0 -16 -17 -16h-1482q-17 0 -17 16zM246 164h1079l-539 1087z" />
<glyph unicode="&#xa3;" horiz-adv-x="1591" d="M115 694q0 140 50.5 277t141 243t217.5 168t273 62q145 0 272.5 -62.5t218.5 -169.5t140 -240t49 -278q0 -189 -88 -360.5t-244 -275t-348 -103.5q-195 0 -350.5 103.5t-243.5 275t-88 360.5zM322 694q0 -93 11.5 -177.5t40 -163t75.5 -146.5q39 -57 92.5 -101.5t119 -70 t136.5 -25.5q103 0 193.5 53.5t152.5 143.5q127 183 127 487q0 307 -127 496q-61 90 -151.5 145.5t-194.5 55.5q-106 0 -196.5 -55.5t-151.5 -145.5q-69 -103 -98 -227.5t-29 -268.5zM438 549v303h60v-70h596v70h59v-303h-59v69h-596v-69h-60z" />
<glyph unicode="&#xa4;" horiz-adv-x="1421" d="M66 0v72q160 0 200 121l400 1251q7 22 30 22h27q11 0 19.5 -6t11.5 -16l417 -1307q18 -44 64 -54.5t119 -10.5v-72h-555v72q174 0 174 55q0 6 -2 10l-324 1016l-305 -960q-4 -14 -4 -21q0 -51 50.5 -75.5t107.5 -24.5v-72h-430z" />
<glyph unicode="&#xa5;" horiz-adv-x="1364" d="M86 350h59q5 -157 29 -184q8 -8 76 -11t168 -3h528q101 0 168.5 3t75.5 11q24 27 29 184h59l-16 -350h-1160zM96 1071l17 328h1138l17 -328h-60q-5 140 -26 164q-15 12 -242 12h-516q-227 0 -242 -12q-21 -24 -26 -164h-60zM285 547v360h59v-104h676v104h59v-360h-59v104 h-676v-104h-59z" />
<glyph unicode="&#xa6;" horiz-adv-x="1536" d="M63 0v72q211 0 211 65v1125q0 65 -211 65v72h1407v-72q-210 0 -210 -65v-1125q0 -65 210 -65v-72h-612v72q211 0 211 65v1190h-604v-1190q0 -65 211 -65v-72h-613z" />
<glyph unicode="&#xa7;" horiz-adv-x="1479" d="M115 23q0 8 6 14l504 573l-504 725q-6 6 -6 11v34q0 6 6.5 12.5t13.5 6.5h1170l57 -469h-59q-18 146 -58.5 226.5t-107 117.5t-151 45t-247.5 8h-381l428 -612l5 -15q0 -12 -5 -14l-520 -592h467q163 0 248.5 8t153.5 44.5t109.5 119t58.5 226.5h59l-57 -492h-1170 q-20 0 -20 23z" />
<glyph unicode="&#xa8;" horiz-adv-x="1591" d="M115 1118q0 79 32.5 155t94 123.5t141.5 47.5q124 0 210.5 -73.5t135 -187.5t68.5 -237q19 125 66.5 238t133.5 186.5t211 73.5q81 0 142.5 -47t94 -123.5t32.5 -155.5q0 -22 -23 -22h-27q-22 0 -22 22q0 49 -29 86t-75.5 56.5t-92.5 19.5q-125 0 -196 -95t-96 -226.5 t-25 -258.5v-563q0 -65 262 -65v-72h-715v72q262 0 262 65v563q0 127 -25 258.5t-96 226.5t-196 95q-46 0 -92.5 -19.5t-75.5 -56.5t-29 -86q0 -9 -6.5 -15.5t-15.5 -6.5h-27q-22 0 -22 22z" />
<glyph unicode="&#xa9;" horiz-adv-x="1479" d="M115 700q0 87 52 165.5t130 129.5q77 52 162.5 80.5t183.5 38.5v148q0 65 -262 65v72h702v-72q-262 0 -262 -65v-148q85 0 180 -31.5t176 -85.5t133 -131.5t52 -165.5t-52 -165t-135.5 -133t-178.5 -86.5t-175 -30.5v-148q0 -65 262 -65v-72h-702v72q262 0 262 65v148 q-197 19 -346 118q-78 53 -130 131t-52 166zM328 700q0 -316 315 -360v719q-315 -44 -315 -359zM821 338q165 21 246.5 110.5t81.5 251.5q0 163 -82.5 252t-245.5 109v-723z" />
<glyph unicode="&#xaa;" horiz-adv-x="1591" d="M115 1096v16q0 7 6.5 12.5t13.5 5.5h137q65 0 100 -46.5t46.5 -109.5t11.5 -130q0 -182 59 -319.5t211 -178.5v916q0 65 -262 65v72h703v-72q-262 0 -262 -65v-918q107 27 170 103.5t87.5 178.5t24.5 218q0 110 33 198t125 88h137q7 0 14 -5.5t7 -12.5v-16q0 -7 -8 -13 t-13 -6q-117 0 -117 -241q0 -111 -29 -206.5t-87.5 -168t-143 -117t-200.5 -59.5v-148q0 -65 262 -65v-72h-703v72q262 0 262 65v150q-114 15 -196.5 59.5t-138.5 116.5t-84.5 167.5t-28.5 205.5q0 241 -117 241q-5 0 -12.5 6.5t-7.5 12.5z" />
<glyph unicode="&#xad;" horiz-adv-x="1479" d="M90 340h60q11 -59 20 -104.5t23.5 -64t46.5 -24.5t106 -6h125q-30 116 -149.5 302.5t-163 271t-43.5 217.5q0 155 92 271.5t237.5 178.5t294.5 62q148 0 293.5 -62t237.5 -179.5t92 -270.5q0 -104 -38 -196t-97 -184t-127.5 -205t-93.5 -206h124q75 0 108 6t47 24.5 t22.5 64t19.5 104.5h59l-67 -340h-363q-20 0 -20 27q0 104 25.5 204t75.5 242t78 250.5t28 208.5q0 123 -48 228t-140 168t-216 63q-187 0 -296 -133.5t-109 -325.5q1 -105 25 -198t77.5 -248t79 -255t25.5 -204q0 -27 -21 -27h-362z" />
<glyph unicode="&#xae;" horiz-adv-x="1194" d="M53 0v72q70 0 115 11t45 54v674h-158v72h158v245q0 77 43.5 137.5t111 99.5t146.5 59t152 20q64 0 123.5 -21t93.5 -67q97 88 231 88q69 0 124.5 -41t55.5 -109q0 -39 -26.5 -65.5t-65.5 -26.5t-66.5 26.5t-27.5 65.5q0 64 55 86q-33 11 -59 11q-60 0 -103 -42 t-64.5 -103.5t-21.5 -121.5v-241h238v-72h-231v-674q0 -42 60 -53.5t138 -11.5v-72h-502v72q70 0 115 11t45 54v674h-422v-674q0 -43 45.5 -54t114.5 -11v-72h-463zM350 883h428v245q0 18 4 52q-55 26 -55 86q0 33 19 57.5t51 32.5q-58 35 -148 35q-75 0 -144.5 -34.5 t-112 -96t-42.5 -136.5v-241z" />
<glyph unicode="&#xaf;" horiz-adv-x="1137" d="M53 0v72q70 0 115 11t45 54v674h-158v72h158v245q0 79 43.5 138.5t113 99t149 59t151.5 19.5q59 0 118.5 -26t96.5 -74t37 -111q0 -41 -28.5 -69.5t-70.5 -28.5t-70 28t-28 70q0 39 27 68.5t65 29.5q-63 60 -164 60q-73 0 -144 -34t-115 -95.5t-44 -137.5v-241h271 l303 26v-772q0 -43 45 -54t114 -11v-72h-462v72q69 0 114 11t45 54v563q0 42 -5 62t-20.5 32t-54.5 17h-344v-674q0 -43 45.5 -54t114.5 -11v-72h-463z" />
<glyph unicode="&#xb0;" horiz-adv-x="1137" d="M53 0v72q70 0 115 11t45 54v674h-158v72h158v245q0 77 43.5 137.5t111 99.5t146.5 59t152 20q103 0 176 -35l82 12v-1284q0 -43 45 -54t114 -11v-72h-462v72q69 0 114 11t45 54v674h-424v-674q0 -43 45.5 -54t114.5 -11v-72h-463zM350 883h430v327q-51 27 -51 84 q0 58 47 82q-47 15 -125 15q-53 0 -109.5 -20t-98 -55t-67.5 -86t-26 -106v-241z" />
<glyph unicode="&#xb1;" horiz-adv-x="1706" d="M53 0v72q70 0 115 11t45 54v674h-158v72h158v245q0 77 43.5 137.5t111 99.5t146.5 59t152 20q69 0 130.5 -30t90.5 -83q136 113 350 113q60 0 118.5 -25.5t96 -74t37.5 -111.5q0 -40 -29 -69t-69 -29q-43 0 -71 28t-28 70q0 39 27 68.5t65 29.5q-63 60 -163 60 q-74 0 -145 -34t-114.5 -95.5t-43.5 -137.5v-241h270l303 26v-772q0 -43 45 -54t115 -11v-72h-463v72q70 0 115 11t45 54v563q0 58 -13.5 81.5t-66.5 29.5h-344v-674q0 -43 45 -54t114 -11v-72h-462v72q69 0 114 11t45 54v674h-424v-674q0 -43 45.5 -54t114.5 -11v-72h-463z M350 883h430v245v13q-29 11 -45 36.5t-16 55.5q0 40 26.5 69t65.5 29q-63 60 -162 60q-75 0 -144.5 -34.5t-112 -96t-42.5 -136.5v-241z" />
<glyph unicode="&#xb2;" horiz-adv-x="1706" d="M53 0v72q70 0 115 11t45 54v674h-158v72h158v245q0 77 43.5 137.5t111 99.5t146.5 59t152 20q70 0 136.5 -26t94.5 -79q133 105 336 105q105 0 176 -35l82 12v-1284q0 -43 45 -54t115 -11v-72h-463v72q70 0 115 11t45 54v674h-424v-674q0 -43 45 -54t114 -11v-72h-462v72 q69 0 114 11t45 54v674h-424v-674q0 -43 45.5 -54t114.5 -11v-72h-463zM350 883h430v245q0 26 6 52q-57 22 -57 86q0 34 18.5 58t49.5 32q-58 35 -148 35q-75 0 -144.5 -34.5t-112 -96t-42.5 -136.5v-241zM918 883h430v327q-52 27 -52 84t47 82q-46 15 -124 15 q-117 0 -209 -76.5t-92 -190.5v-241z" />
<glyph unicode="&#xb3;" horiz-adv-x="567" d="M63 0v72q70 0 115 11t45 54v559q0 79 -30.5 97t-120.5 18v72l295 22v-768q0 -43 39 -54t104 -11v-72h-447z" />
<glyph unicode="&#xb4;" horiz-adv-x="625" d="M-90 -252q0 40 29 69t69 29t69 -29t29 -69q0 -31 -17.5 -57t-47.5 -35q47 -23 106 -23q81 0 112.5 82.5t31.5 178.5v802q0 55 -20 79.5t-54.5 30t-101.5 5.5v72l319 22v-1020q0 -79 -39 -149.5t-106 -113t-146 -42.5q-89 0 -161 44t-72 124z" />
<glyph unicode="&#xb5;" d="M219 1352q0 32 23 55t55 23q35 0 59 -31l246 -316l-43 -41l-311 252q-29 26 -29 58z" />
<glyph unicode="&#xb6;" d="M420 1083l246 316q24 31 59 31q32 0 55 -23t23 -55t-29 -58l-311 -252z" />
<glyph unicode="&#xb8;" d="M201 1421h53q0 -70 34.5 -132.5t93 -100t130.5 -37.5q71 0 130 38t92.5 100t33.5 132h53q0 -89 -39 -171.5t-110 -133.5t-160 -51q-91 0 -162 51t-110 133.5t-39 171.5z" />
<glyph unicode="&#xb9;" d="M141 1137v71h740v-71h-740z" />
<glyph unicode="&#xba;" horiz-adv-x="1536" d="M567 1288q0 50 29 91t74.5 64t97.5 23q49 0 95 -23t75 -64t29 -91q0 -77 -61.5 -128.5t-137.5 -51.5q-77 0 -139 51.5t-62 128.5zM627 1288q0 -127 141 -127q139 0 139 127q0 125 -139 125q-141 0 -141 -125z" />
<glyph unicode="&#xbb;" horiz-adv-x="909" d="M264 -367q74 0 145.5 5.5t134 31t62.5 74.5q0 57 -53.5 84t-116.5 27v100h150v-59q170 -36 170 -152q0 -106 -154 -135t-338 -29v53z" />
<glyph unicode="&#xbc;" d="M53 0v72q70 0 115 11t45 54v674h-160v72h160v272q0 84 50.5 151t129 102.5t162.5 35.5q86 0 167.5 -36.5t133 -102.5t51.5 -154q0 -106 -75.5 -185t-184.5 -114q99 -40 170.5 -117t109.5 -177.5t38 -205.5q0 -98 -48 -184.5t-132.5 -138.5t-182.5 -52q-70 0 -128 46.5 t-58 115.5q0 32 23 55t55 23t54.5 -22.5t22.5 -55.5q0 -27 -16.5 -48t-42.5 -28q36 -32 90 -32q72 0 118 51t64.5 125.5t18.5 144.5q0 78 -16 160.5t-53.5 155t-99.5 117t-145 44.5q-18 0 -18 19v18q0 17 18 17q75 0 133.5 34.5t90.5 95.5t32 138q0 97 -48 168.5t-142 71.5 t-146.5 -72t-52.5 -170v-1149h-303z" />
<glyph unicode="&#xbd;" horiz-adv-x="1479" d="M88 193q0 91 57.5 155t148.5 100.5t189 52t181 15.5v107q0 59 -26 114.5t-75 91t-108 35.5q-136 0 -207 -61q39 0 64.5 -29.5t25.5 -68.5q0 -41 -29 -70t-69 -29q-41 0 -70 29t-29 70q0 108 98.5 160.5t215.5 52.5q59 0 120 -17t112 -52.5t83 -84.5q58 72 136 113t167 41 q117 0 194.5 -56.5t114.5 -151.5t37 -210q0 -27 -20 -27h-586v-24q0 -102 31.5 -196.5t100.5 -155t173 -60.5q88 0 154.5 62t87.5 151q2 7 7.5 12.5t12.5 5.5h19q20 0 20 -26q-18 -73 -63.5 -133.5t-112 -96t-141.5 -35.5q-98 0 -189 47.5t-153 129.5q-30 -59 -87 -99 t-125.5 -59t-135.5 -19q-119 0 -221.5 53t-102.5 163zM254 193q0 -68 52 -115t120 -47t128 31.5t97 87t37 122.5q0 9 -0.5 15t-1.5 12q-22 67 -22 150v16q-90 0 -185.5 -28.5t-160 -89t-64.5 -154.5zM815 524h461q0 77 -18.5 154t-63.5 131.5t-121 54.5q-116 0 -187 -109 t-71 -231z" />
<glyph unicode="&#xbe;" horiz-adv-x="1591" d="M57 449q0 119 58 229t159.5 175t223.5 65q108 0 201.5 -55t152.5 -146q56 91 145.5 146t190.5 55q117 0 194.5 -56.5t114.5 -151.5t37 -210q0 -27 -21 -27h-585v-24q0 -102 31.5 -196.5t100.5 -155t173 -60.5q88 0 154.5 62t87.5 151q2 7 7.5 12.5t12.5 5.5h18 q21 0 21 -26q-18 -73 -63.5 -133.5t-112 -96t-141.5 -35.5q-73 0 -142 26t-126 73t-95 108q-58 -93 -153.5 -150t-202.5 -57q-124 0 -225 66t-158.5 175t-57.5 231zM223 459q0 -104 23.5 -199.5t84.5 -162t167 -66.5q150 0 215 130t65 298q0 100 -26.5 192t-89.5 152.5 t-164 60.5q-147 0 -211 -122t-64 -283zM930 524h461q0 77 -18.5 154t-63.5 131.5t-121 54.5q-116 0 -187 -109t-71 -231z" />
<glyph unicode="&#xbf;" d="M68 436q0 125 57.5 236t160 178.5t226.5 67.5q109 0 209 -58l135 234l47 -25l-137 -240q61 -47 103 -109.5t63.5 -133.5t21.5 -150q0 -91 -34 -175t-93.5 -147t-141 -100t-173.5 -37q-111 0 -207 54l-139 -242l-47 25l141 243q-90 64 -141 165.5t-51 213.5zM217 436 q0 -100 16.5 -177t65.5 -132l387 674q-32 29 -78.5 46t-95.5 17q-165 0 -230 -124.5t-65 -303.5zM338 88q41 -30 83 -43.5t91 -13.5q111 0 176 57t91 147.5t26 200.5q0 104 -15.5 183.5t-64.5 140.5z" />
<glyph unicode="&#xc0;" horiz-adv-x="1847" d="M66 0v72q184 0 229 121l401 1132q-55 2 -168 2v72h1147l58 -469h-60q-20 164 -50 243.5t-105.5 116.5t-235.5 37h-147q-37 0 -58 -3t-34 -17.5t-13 -44.5v-553h141q103 0 151 19.5t64.5 68t16.5 151.5h59v-551h-59q0 104 -16.5 152.5t-64.5 68t-151 19.5h-141v-500 q0 -44 25 -54.5t80 -10.5h163q130 0 209 28.5t120.5 84.5t61.5 134.5t42 217.5h59l-86 -537h-1010v72q70 0 114 11t44 54v500h-324l-157 -444q-4 -7 -4 -23q0 -35 24 -57t59.5 -31.5t67.5 -9.5v-72h-452zM553 709h299v553q0 50 -82 59z" />
<glyph unicode="&#xc1;" horiz-adv-x="2075" d="M143 694q0 140 50.5 277t141 243t217.5 168t271 62q45 0 101 -11t111 -22.5t100 -11.5h768l57 -469h-59q-15 130 -35 201t-60 114.5t-112.5 62.5t-200.5 19h-172q-37 0 -57.5 -3t-33.5 -17.5t-13 -44.5v-500h180q109 0 163 15.5t76.5 65t22.5 158.5h59v-550h-59 q0 109 -22.5 158.5t-76.5 65t-163 15.5h-180v-553q0 -44 25 -54.5t79 -10.5h188q176 0 263 47t121.5 138t64.5 280h59l-86 -537h-796q-45 0 -100 -11t-111 -22.5t-101 -11.5q-192 0 -348 103.5t-244 275t-88 360.5zM356 727q0 -149 51 -317.5t156.5 -285t259.5 -116.5 q146 0 189 82q27 55 34 147t7 230v465q0 138 -7 230t-34 147q-43 82 -189 82q-114 0 -202.5 -62t-147.5 -164.5t-88 -216.5t-29 -221z" />
<glyph unicode="&#xc2;" horiz-adv-x="1591" d="M115 694q0 140 50.5 277t141 243t217.5 168t273 62q102 0 197.5 -32.5t176.5 -92.5l132 197l51 -33l-135 -201q84 -75 141 -168.5t87 -200.5t30 -219q0 -189 -88 -360.5t-244 -275t-348 -103.5q-102 0 -199.5 32.5t-179.5 92.5l-129 -197l-51 33l133 201 q-124 107 -190 259.5t-66 317.5zM305 694q0 -98 10 -182.5t37 -164.5t76 -146l694 1044q-65 70 -149.5 108t-175.5 38q-111 0 -210 -54.5t-161 -144.5q-68 -97 -94.5 -221.5t-26.5 -276.5zM467 154q67 -70 153 -108t177 -38q108 0 205 52.5t163 142.5q70 98 95.5 219 t25.5 272q0 152 -26.5 278.5t-96.5 223.5z" />
<glyph unicode="&#xc3;" horiz-adv-x="567" d="M51 643l467 160l23 -68l-467 -162z" />
<glyph unicode="&#xc4;" d="M207 1264q0 43 30.5 74.5t75.5 31.5t76 -31t31 -75q0 -45 -31 -76t-76 -31t-75.5 31.5t-30.5 75.5zM602 1264q0 43 30.5 74.5t76.5 31.5q44 0 75 -31t31 -75q0 -45 -31 -76t-75 -31q-46 0 -76.5 31.5t-30.5 75.5z" />
<glyph unicode="&#x2000;" horiz-adv-x="768" />
<glyph unicode="&#x2001;" horiz-adv-x="1536" />
<glyph unicode="&#x2002;" horiz-adv-x="768" />
<glyph unicode="&#x2003;" horiz-adv-x="1536" />
<glyph unicode="&#x2004;" horiz-adv-x="512" />
<glyph unicode="&#x2005;" horiz-adv-x="384" />
<glyph unicode="&#x2006;" horiz-adv-x="256" />
<glyph unicode="&#x2007;" horiz-adv-x="256" />
<glyph unicode="&#x2008;" horiz-adv-x="192" />
<glyph unicode="&#x2009;" horiz-adv-x="307" />
<glyph unicode="&#x200a;" horiz-adv-x="85" />
<glyph unicode="&#x2010;" horiz-adv-x="682" d="M23 379v127h542v-127h-542z" />
<glyph unicode="&#x2011;" horiz-adv-x="682" d="M23 379v127h542v-127h-542z" />
<glyph unicode="&#x2012;" horiz-adv-x="682" d="M23 379v127h542v-127h-542z" />
<glyph unicode="&#x2013;" horiz-adv-x="1164" d="M23 379v127h1024v-127h-1024z" />
<glyph unicode="&#x2014;" horiz-adv-x="2188" d="M23 379v127h2048v-127h-2048z" />
<glyph unicode="&#x202f;" horiz-adv-x="307" />
<glyph unicode="&#x205f;" horiz-adv-x="384" />
<glyph unicode="&#x2219;" d="M240 1262l32 49l240 -140l238 140l32 -49l-270 -207z" />
<glyph unicode="&#xe000;" horiz-adv-x="885" d="M0 885h885v-885h-885v885z" />
</font>
</defs>
</svg>
