<?xml version="1.0" standalone="no"?>
<!DOCTYPE svg PUBLIC "-//W3C//DTD SVG 1.1//EN" "http://www.w3.org/Graphics/SVG/1.1/DTD/svg11.dtd" >
<svg xmlns="http://www.w3.org/2000/svg">
<metadata>
This is a custom SVG webfont generated by Font Squirrel.
Copyright   : Copyright C 1994 Basil K Malyshev All Rights Reserved012BaKoMa Fonts Collection LevelB
</metadata>
<defs>
<font id="cmr5Regular" horiz-adv-x="1393" >
<font-face units-per-em="2048" ascent="1638" descent="-410" />
<missing-glyph horiz-adv-x="967" />
<glyph unicode=" "  horiz-adv-x="967" />
<glyph unicode="&#x09;" horiz-adv-x="967" />
<glyph unicode="&#xa0;" horiz-adv-x="967" />
<glyph unicode="!" horiz-adv-x="823" d="M283 129q0 51 39 90t90 39q52 0 90.5 -38.5t38.5 -90.5t-38.5 -90.5t-90.5 -38.5q-51 0 -90 39t-39 90zM283 1335v13q0 50 39.5 84t89.5 34q51 0 90 -34t39 -84v-13l-82 -897q-6 -21 -25 -26h-43q-20 5 -26 26z" />
<glyph unicode="&#x22;" d="M143 1292q0 54 37.5 91.5t91.5 37.5q82 0 123 -71.5t41 -159.5q0 -125 -57 -234t-156 -184q-6 -6 -16 -6q-13 0 -27 14t-14 27q0 15 12 24q86 66 134 159t48 200v6q-36 -33 -88 -33q-54 0 -91.5 37.5t-37.5 91.5zM641 1292q0 55 38 92t91 37q82 0 123 -71.5t41 -159.5 q0 -125 -57 -234t-156 -184q-6 -6 -16 -6q-13 0 -27 14t-14 27q0 15 12 24q87 68 134.5 160t47.5 199v6q-36 -33 -88 -33q-53 0 -91 37t-38 92z" />
<glyph unicode="#" horiz-adv-x="2247" d="M199 264v12q10 46 55 52h455l125 370h-580q-46 3 -55 52v12q9 45 55 51h620l195 573q17 35 53 35q47 0 58 -51v-12q-1 -7 -1.5 -8t-2.5 -7l-181 -530h461l195 573q17 35 53 35q46 0 57 -51v-12q-1 -7 -1.5 -8t-2.5 -7l-180 -530h416q44 -6 53 -51v-12q-9 -49 -53 -52 h-457l-125 -370h582q44 -6 53 -52v-12q-9 -48 -53 -51h-623l-194 -575q-18 -35 -54 -35q-46 0 -57 51v12q2 6 2 7t2 8l180 532h-461l-194 -575q-17 -35 -53 -35q-47 0 -58 51v12q2 6 2 7t2 8l181 532h-414q-46 3 -55 51zM829 328h461l125 370h-461z" />
<glyph unicode="$" d="M199 383q0 48 32.5 80.5t79.5 32.5q30 0 57 -15.5t41.5 -40.5t14.5 -57q0 -47 -31.5 -80t-79.5 -33q35 -91 131.5 -141.5t202.5 -50.5v557l-67 12q-101 20 -188 73.5t-140 136t-53 183.5q0 81 39.5 155t104.5 129t146 86.5t158 31.5v94h98v-94q117 0 220 -42.5 t166 -127.5t63 -205q0 -31 -14.5 -56.5t-41.5 -41t-57 -15.5q-45 0 -78.5 32.5t-33.5 80.5q0 45 31.5 79t76.5 34q-36 80 -134 121.5t-198 41.5v-499q95 -18 162.5 -43.5t130.5 -75.5q44 -35 81.5 -86.5t56 -109.5t18.5 -117v-4q0 -87 -39 -166.5t-106 -137.5 q-62 -50 -146 -87t-158 -37v-95h-98v95q-186 0 -317 109.5t-131 293.5zM342 1104q0 -180 305 -240v479q-62 0 -134.5 -32t-121.5 -86.5t-49 -120.5zM745 78q76 8 146 42t115 92t45 134q0 116 -87 179t-219 89v-536z" />
<glyph unicode="%" horiz-adv-x="2247" d="M199 1124q0 103 48 199.5t133.5 154.5t192.5 58q92 0 172 -59q235 -172 508 -172q139 0 265.5 55t212.5 158q15 18 43 18q46 0 57 -51v-12q-3 -19 -12 -31l-1303 -1536q-24 -21 -45 -21q-46 0 -57 52v12q3 19 14 31l1102 1300q-125 -51 -277 -51q-189 0 -383 88 q39 -90 39 -193q0 -157 -92 -285t-244 -128q-107 0 -192.5 58t-133.5 154.5t-48 200.5zM373 1124q0 -81 15.5 -156.5t61 -128.5t123.5 -53q76 0 131.5 53.5t83 132.5t27.5 152q0 72 -27.5 151t-83 132t-131.5 53q-115 0 -157.5 -101.5t-42.5 -234.5zM1335 299 q0 105 48.5 200.5t134 153.5t192.5 58q102 0 178.5 -61t117 -156t40.5 -195t-40.5 -196t-117 -157t-178.5 -61q-107 0 -192.5 58.5t-134 154t-48.5 201.5zM1509 299q0 -81 16 -156t61.5 -128.5t123.5 -53.5q76 0 131.5 53.5t83 132.5t27.5 152q0 72 -27.5 151t-83 132 t-131.5 53q-114 0 -157.5 -101.5t-43.5 -234.5z" />
<glyph unicode="&#x26;" horiz-adv-x="2103" d="M164 279q0 58 30 113t80 95l283 224q-88 203 -88 403q0 95 49 176.5t133 128.5t180 47q74 0 129.5 -42t85 -108.5t29.5 -139.5q0 -98 -98 -202.5t-234 -211.5q39 -82 105.5 -175t143.5 -180t147 -153q58 48 114.5 106.5t108 121.5t102.5 130l49 66q15 20 15 37 q0 41 -41.5 55t-89.5 14v99h520v-99q-211 0 -291 -106l-86 -113q-170 -227 -334 -368q80 -67 167 -105.5t177 -38.5q60 0 120 22t100 66.5t40 106.5h95q0 -89 -53 -156t-135 -102t-171 -35q-240 0 -469 145q-100 -68 -216 -106.5t-234 -38.5q-106 0 -213.5 34t-178.5 107.5 t-71 182.5zM377 334q0 -73 37 -138.5t100 -104t137 -38.5q175 0 348 101q-86 66 -159 141.5t-136 162.5t-112 183l-109 -86q-50 -40 -78 -98.5t-28 -122.5zM643 1176q0 -174 70 -342q268 216 268 344q0 78 -38 145.5t-112 67.5q-53 0 -96.5 -31t-67.5 -79.5t-24 -104.5z" />
<glyph unicode="'" horiz-adv-x="823" d="M283 1292q0 55 38 92t91 37q81 0 122 -71.5t41 -159.5q0 -125 -57 -234t-156 -184q-6 -6 -16 -6q-12 0 -26.5 13.5t-14.5 27.5q0 15 12 24q85 66 134 159t49 200v6q-37 -33 -88 -33q-53 0 -91 37t-38 92z" />
<glyph unicode="(" horiz-adv-x="1108" d="M303 512q0 199 64 394t187.5 358t291.5 268q3 2 14 4h25q24 -7 24 -29q0 -15 -6 -18q-150 -119 -246.5 -273.5t-142 -332t-45.5 -371.5q0 -143 25.5 -280t78.5 -263t134.5 -235t189.5 -195q12 -6 12 -22q0 -22 -24 -29h-25q-11 2 -14 4q-256 161 -399.5 436.5 t-143.5 583.5z" />
<glyph unicode=")" horiz-adv-x="1108" d="M199 -483q0 15 8 18q148 117 244.5 272t142 333t45.5 372q0 144 -24.5 277.5t-77.5 262.5t-135 239t-191 194q-12 6 -12 22q0 22 26 29h25q10 -2 12 -4q126 -78 228.5 -191t172 -246.5t106 -281t36.5 -301.5q0 -308 -143.5 -583.5t-399.5 -436.5q-2 -2 -12 -4h-25 q-26 6 -26 29z" />
<glyph unicode="*" d="M225 909q0 21 13 41t32 27l330 119l-330 116q-20 9 -32.5 27.5t-12.5 40.5q0 31 23 56.5t55 25.5q16 0 33 -10l319 -195l-34 303l-3 6q0 29 23.5 49.5t54.5 20.5t54.5 -20.5t23.5 -49.5v-6l-37 -303l320 195q17 10 33 10q20 0 38 -11.5t28.5 -31.5t10.5 -39 q0 -23 -12 -41t-33 -27l-329 -116l329 -119q20 -7 32.5 -26t12.5 -42q0 -32 -22.5 -57t-54.5 -25q-17 0 -33 11l-320 194l37 -301v-8q0 -29 -23.5 -49.5t-54.5 -20.5t-54.5 20.5t-23.5 49.5l3 8l34 301l-319 -194q-16 -11 -33 -11q-32 0 -55 25.5t-23 56.5z" />
<glyph unicode="+" horiz-adv-x="2103" d="M199 506v12q9 45 55 51h741v746q5 22 21 36.5t37 14.5q46 0 57 -51v-746h741q43 -6 54 -51v-12q-11 -45 -54 -51h-741v-746q-11 -51 -57 -51q-21 0 -37 14.5t-21 36.5v746h-741q-46 6 -55 51z" />
<glyph unicode="," horiz-adv-x="823" d="M283 129q0 55 38 92t91 37q43 0 73.5 -21.5t49 -56.5t26.5 -73t8 -80q0 -85 -25 -161.5t-71 -142t-111 -116.5q-8 -4 -16 -4q-12 0 -26.5 13.5t-14.5 27.5q0 8 8 20q84 66 132.5 160.5t48.5 202.5q-33 -27 -82 -27q-53 0 -91 37t-38 92z" />
<glyph unicode="-" horiz-adv-x="967" d="M86 358v166h680v-166h-680z" />
<glyph unicode="." horiz-adv-x="823" d="M283 129q0 51 39 90t90 39q52 0 90.5 -38.5t38.5 -90.5t-38.5 -90.5t-90.5 -38.5q-51 0 -90 39t-39 90z" />
<glyph unicode="/" d="M199 -449q0 7 4 15l880 1935q18 35 54 35q46 0 57 -51v-12q0 -7 -4 -15l-881 -1935q-17 -35 -53 -35q-46 0 -57 51v12z" />
<glyph unicode="0" d="M158 653q0 313 121.5 512t416.5 199q296 0 417.5 -199t121.5 -512q0 -145 -25.5 -268t-87 -221t-167 -153.5t-259.5 -55.5q-294 0 -416 194t-122 504zM371 686q0 -183 16.5 -316.5t88.5 -236t220 -102.5q149 0 221 102.5t88.5 236t16.5 316.5q0 177 -16.5 298.5 t-88 212.5t-221.5 91q-149 0 -220.5 -91t-88 -212.5t-16.5 -298.5z" />
<glyph unicode="1" d="M289 1135v98q138 0 254 28t202 103h43q11 0 21 -10t10 -21v-1186q0 -49 320 -49v-98h-836v98q320 0 320 49v1043q-73 -31 -156.5 -43t-177.5 -12z" />
<glyph unicode="2" d="M186 0v74q1 5 9 16l426 359q126 106 189 165t116 148t53 188t-52 171t-135.5 108.5t-181.5 36.5q-85 0 -165 -36t-123 -104q49 0 80.5 -37.5t31.5 -84.5q0 -52 -35.5 -88.5t-87.5 -36.5q-53 0 -89 37t-36 88q0 115 71 196.5t182 122.5t223 41q133 0 258 -44t205.5 -137 t80.5 -231q0 -97 -46.5 -176t-112 -135.5t-181 -133.5t-147.5 -101l-273 -201h187q177 0 297.5 2.5t126.5 7.5q32 40 55 188h94l-67 -403h-953z" />
<glyph unicode="3" d="M164 266q0 55 37 92t94 37q36 0 65.5 -17t46.5 -46.5t17 -65.5q0 -48 -28 -82.5t-74 -44.5q104 -92 364 -92q91 0 158.5 40.5t102 112.5t34.5 160q0 91 -35.5 161.5t-103.5 111.5t-158 41h-174q-22 5 -27 26v25q5 18 27 25l147 10q76 0 140 45.5t99.5 119t35.5 146.5 q0 65 -33 112.5t-88 71t-123 23.5q-211 0 -307 -94q44 -9 71 -41.5t27 -77.5q0 -51 -35 -86t-88 -35q-50 0 -85 35t-35 86q0 105 70.5 172.5t174.5 97t207 29.5q95 0 205.5 -31t187 -97t76.5 -165q0 -130 -89.5 -221.5t-223.5 -132.5q70 -14 136.5 -43.5t123.5 -75 t91 -105.5t34 -133q0 -97 -48.5 -173t-131.5 -128.5t-178 -78t-183 -25.5q-119 0 -238 26.5t-202.5 96t-83.5 188.5z" />
<glyph unicode="4" d="M129 334v98l764 918q11 14 33 14h53q12 0 22.5 -9.5t10.5 -23.5v-899h252v-98h-252v-187q0 -49 250 -49v-98h-705v98q250 0 250 49v187h-678zM238 432h585v705z" />
<glyph unicode="5" d="M186 328q0 50 35 84t84 34q50 0 84.5 -33.5t34.5 -84.5q0 -47 -32 -83t-79 -36q43 -78 139 -120t195 -42q169 0 251.5 97t82.5 268q0 96 -21 179.5t-78 138t-157 54.5q-228 0 -338 -149q-12 -12 -25 -12h-24q-11 0 -21 10t-10 20v686q7 25 29 25q2 0 10 -2 q183 -64 361 -64q179 0 362 64q8 2 10 2q22 0 29 -25v-24q-1 -9 -6 -17q-96 -98 -219.5 -150t-259.5 -52q-119 0 -217 22v-358q119 100 319 100q92 0 181 -34t155 -93t105.5 -141.5t39.5 -179.5q0 -103 -49 -190t-131 -146t-181.5 -90t-197.5 -31q-114 0 -220 44 t-173.5 129.5t-67.5 199.5z" />
<glyph unicode="6" d="M164 662q0 184 89 345.5t244 259t341 97.5q136 0 231.5 -57.5t95.5 -186.5q0 -46 -32 -79t-80 -33q-47 0 -80 33t-33 79q0 40 22 70t60 39q-56 49 -182 49q-73 0 -139.5 -23t-123 -67t-96.5 -101q-34 -55 -55 -122t-29 -136.5t-8 -144.5q55 91 143.5 144t192.5 53 q101 0 190.5 -32.5t161 -93.5t112 -146.5t40.5 -186.5q0 -138 -75 -245t-199 -164.5t-259 -57.5q-190 0 -309.5 100.5t-171 259.5t-51.5 347zM395 410q0 -99 33 -181.5t100 -132t168 -49.5q160 0 246 103q42 52 52 113t10 155v6q0 95 -9.5 159t-46.5 113q-88 109 -237 109 q-89 0 -161 -47.5t-113.5 -126.5t-41.5 -166q0 -27 2 -41q0 -7 -1 -7t-1 -7z" />
<glyph unicode="7" d="M199 915l77 469h95v-6q0 -22 26 -34.5t52 -12.5q113 -5 224.5 -8.5t157.5 -3.5h469v-68q0 -8 -8 -20l-344 -375q-90 -99 -136 -227.5t-59.5 -264t-13.5 -298.5q0 -47 -33 -79t-79 -32q-47 0 -80 33t-33 80q0 228 95 442.5t259 392.5l193 211h-248q-94 0 -198 -0.5 t-181 -2.5t-84 -7q-35 -41 -57 -189h-94z" />
<glyph unicode="8" d="M164 317q0 136 94 226.5t238 144.5q-79 41 -134 82.5t-90.5 102.5t-35.5 139q0 86 40.5 152.5t109.5 111.5t149.5 66.5t160.5 21.5q77 0 158.5 -17t149.5 -54t110.5 -98t42.5 -144q0 -109 -76 -185t-194 -125l110 -57q100 -49 166 -137t66 -193q0 -129 -81 -219.5 t-204.5 -135t-247.5 -44.5q-123 0 -245.5 37.5t-204.5 118.5t-82 206zM313 317q0 -131 121.5 -200.5t261.5 -69.5q82 0 171 22t150.5 74.5t61.5 137.5q0 55 -39 102t-96 76l-352 180q-118 -47 -198.5 -128.5t-80.5 -193.5zM371 1090q0 -81 108 -140l316 -162q63 30 112.5 66 t82 85t32.5 112q0 74 -51 126t-125.5 76.5t-149.5 24.5q-70 0 -143.5 -16.5t-127.5 -58.5t-54 -113z" />
<glyph unicode="9" d="M164 901q0 107 46.5 194t125.5 147.5t174.5 91t200.5 30.5q143 0 243.5 -59t161.5 -160.5t87 -223t26 -259.5q0 -178 -82 -342.5t-227.5 -264.5t-329.5 -100q-92 0 -174 21t-135.5 75t-53.5 148q0 48 33 80t80 32q48 0 80.5 -31.5t32.5 -80.5q0 -38 -21.5 -68t-56.5 -39 q44 -28 95.5 -36.5t119.5 -8.5q104 0 190 51t144 142q48 80 64 179.5t16 219.5q-56 -92 -145 -144.5t-191 -52.5q-96 0 -188.5 33t-164 95t-111.5 146t-40 185zM389 897q0 -95 9.5 -158t45.5 -114q47 -57 104.5 -82t133.5 -25q89 0 161 47.5t113 126t41 168.5q0 25 -2 37 q1 3 1.5 6t0.5 8q0 95 -30 179.5t-95 136t-161 51.5q-83 0 -144 -23t-112 -81q-43 -49 -54.5 -112t-11.5 -159v-6z" />
<glyph unicode=":" horiz-adv-x="823" d="M283 129q0 51 39 90t90 39q52 0 90.5 -38.5t38.5 -90.5t-38.5 -90.5t-90.5 -38.5q-51 0 -90 39t-39 90zM283 754q0 52 38.5 90.5t90.5 38.5q53 0 91 -38t38 -91q0 -52 -38.5 -90.5t-90.5 -38.5q-51 0 -90 39t-39 90z" />
<glyph unicode=";" horiz-adv-x="823" d="M283 129q0 55 38 92t91 37q77 0 106 -70.5t29 -160.5q0 -79 -21.5 -154.5t-61 -140.5t-95.5 -121q-14 -8 -23 -8q-12 0 -26.5 13.5t-14.5 27.5q0 8 8 20q72 68 115 159.5t43 188.5q-27 -12 -59 -12q-53 0 -91 37t-38 92zM283 754q0 52 38.5 90.5t90.5 38.5q53 0 91 -38 t38 -91q0 -52 -38.5 -90.5t-90.5 -38.5q-51 0 -90 39t-39 90z" />
<glyph unicode="&#x3c;" horiz-adv-x="2103" d="M270 506v12q6 33 37 47l1448 662q12 4 21 4q46 0 57 -51v-13q-6 -33 -35 -47l-1333 -608l1333 -608q29 -14 35 -47v-13q-11 -51 -57 -51q-9 0 -21 4l-1448 662q-31 14 -37 47z" />
<glyph unicode="=" horiz-adv-x="2103" d="M199 264v12q10 46 55 52h1597q43 -6 54 -52v-12q-11 -48 -54 -51h-1597q-46 3 -55 51zM199 750v12q9 45 55 51h1597q43 -6 54 -51v-12q-11 -49 -54 -52h-1597q-46 3 -55 52z" />
<glyph unicode="&#x3e;" horiz-adv-x="2103" d="M270 -143q6 33 37 47l1331 608l-1331 608q-31 14 -37 47v13q5 22 21 36.5t37 14.5q6 0 22 -4l1448 -662q29 -14 35 -47v-12q-6 -33 -35 -47l-1448 -662q-16 -4 -22 -4q-21 0 -37 14.5t-21 36.5v13z" />
<glyph unicode="?" horiz-adv-x="1321" d="M199 1165q0 77 39.5 130.5t104.5 86.5t138.5 47.5t143.5 14.5q116 0 226.5 -22t190.5 -85.5t80 -173.5q0 -73 -38.5 -121.5t-125 -103.5t-100.5 -66q-186 -150 -186 -337v-97q-6 -21 -25 -26h-43q-20 5 -26 26v103q0 160 98 307q58 85 137 149q50 38 73 75t23 93 q0 127 -71.5 165t-212.5 38q-196 0 -287 -94q38 -9 62 -39t24 -70q0 -47 -32.5 -79.5t-80.5 -32.5q-46 0 -79 33t-33 79zM496 129q0 51 39 90t90 39q52 0 90.5 -38.5t38.5 -90.5t-38.5 -90.5t-90.5 -38.5q-51 0 -90 39t-39 90z" />
<glyph unicode="@" horiz-adv-x="2103" d="M199 711q0 165 72 300.5t194 232t277.5 148.5t310.5 52q154 0 309.5 -52.5t276.5 -147.5t193.5 -231.5t72.5 -301.5q0 -174 -64.5 -314.5t-214.5 -140.5q-81 0 -154.5 32t-93.5 101q-63 -63 -149.5 -98t-175.5 -35q-94 0 -185.5 32t-166 93.5t-117.5 146.5t-43 183 q0 100 43 184.5t116 144.5t164 92.5t189 32.5q105 0 202.5 -46.5t161.5 -129.5h121q20 -6 25 -24v-529q0 -38 18 -71t55 -33q174 0 174 379q0 190 -109 341t-284 233.5t-364 82.5q-188 0 -364.5 -82.5t-286 -233t-109.5 -341.5t109 -342t285 -233.5t366 -82.5q371 0 719 127 l8 2h100q25 -7 25 -28q0 -20 -17 -27q-197 -72 -411 -111t-424 -39q-155 0 -308.5 51.5t-278.5 150t-196 233.5t-71 299zM731 711q0 -144 90.5 -261.5t231.5 -117.5q66 0 127 24t111 67.5t81 100.5v373q-30 56 -80.5 100.5t-111.5 68.5t-127 24q-72 0 -131.5 -32 t-102.5 -88.5t-65.5 -124.5t-22.5 -134z" />
<glyph unicode="A" horiz-adv-x="2007" d="M145 0v98q207 0 254 107l537 1229q14 32 51 32h33q37 0 51 -32l561 -1287q27 -49 230 -49v-98h-641v98q176 0 176 41q0 6 -2 8l-131 302h-652l-104 -244q-6 -9 -6 -21q0 -45 50 -65.5t105 -20.5v-98h-512zM655 547h566l-283 647z" />
<glyph unicode="B" horiz-adv-x="1913" d="M174 0v98q227 0 227 49v1104q0 49 -227 49v99h899q115 0 249 -38t227 -117.5t93 -196.5q0 -129 -127.5 -209t-277.5 -107q92 0 205.5 -45.5t192.5 -126.5t79 -178q0 -93 -54.5 -166.5t-142.5 -121t-185 -70.5t-187 -23h-971zM610 147q0 -33 31.5 -41t83.5 -8h348 q86 0 180.5 31.5t158 95.5t63.5 156q0 90 -53.5 161t-138 109.5t-173.5 38.5h-500v-543zM610 766h394q61 0 132 17t135 52.5t102 89t38 122.5q0 79 -51.5 136t-130 87t-156.5 30h-348q-52 0 -83.5 -8t-31.5 -41v-485z" />
<glyph unicode="C" horiz-adv-x="1962" d="M199 700q0 220 129 390t336.5 262t422.5 92q132 0 256 -46.5t220 -135.5l137 174q5 5 18 8h19q19 -5 24 -25v-547q-5 -21 -24 -26h-47q-22 5 -27 26q-12 99 -58 186.5t-117.5 151.5t-163 100t-191.5 36q-199 0 -355.5 -76.5t-244 -223.5t-87.5 -346q0 -153 50.5 -273 t144 -203.5t220.5 -127t274 -43.5q132 0 255 54.5t200 157t77 237.5q5 19 27 24h43q24 -6 24 -30q0 -126 -58.5 -228t-158.5 -172t-219 -105.5t-238 -35.5q-157 0 -317.5 52t-290.5 151.5t-205 237t-75 304.5z" />
<glyph unicode="D" horiz-adv-x="2056" d="M170 0v98q227 0 227 49v1104q0 49 -227 49v99h903q150 0 292.5 -52.5t252 -147.5t173.5 -227t64 -286q0 -198 -112 -356t-293.5 -244t-376.5 -86h-903zM614 147q0 -33 31.5 -41t83.5 -8h283q191 0 326.5 66.5t206.5 198t71 323.5q0 147 -38.5 262t-114.5 193 t-189.5 118.5t-261.5 40.5h-283q-52 0 -83.5 -8t-31.5 -41v-1104z" />
<glyph unicode="E" horiz-adv-x="1843" d="M166 0v98q227 0 227 49v1104q0 49 -227 49v99h1409l67 -496h-94q-27 187 -87 270.5t-161 105t-301 21.5h-266q-52 0 -83.5 -8t-31.5 -41v-475h191q123 0 180.5 12t89 63.5t31.5 164.5h94v-578h-94q0 113 -31.5 164.5t-89 63.5t-180.5 12h-191v-531q0 -33 31.5 -41 t83.5 -8h287q168 0 265 15.5t161 61.5t103 135.5t69 252.5h94l-102 -563h-1444z" />
<glyph unicode="F" horiz-adv-x="1772" d="M166 0v98q227 0 227 49v1104q0 49 -227 49v99h1372l68 -496h-95q-18 140 -55 220t-95.5 117.5t-142.5 48.5t-237 11h-248q-52 0 -83.5 -8t-31.5 -41v-501h183q87 0 138 5.5t87 28.5t53 70.5t17 134.5h94v-577h-94q0 88 -17.5 136t-52 70t-82 27.5t-143.5 5.5h-183v-504 q0 -31 95 -40t190 -9v-98h-737z" />
<glyph unicode="G" horiz-adv-x="2116" d="M199 700q0 220 129 390t335.5 262t421.5 92q132 0 256 -46.5t220 -135.5l137 174q5 5 18 8h19q19 -5 24 -25v-547q-5 -21 -24 -26h-47q-22 5 -27 26q-16 133 -91 241t-191.5 170.5t-248.5 62.5q-199 0 -354.5 -76.5t-242.5 -224t-87 -345.5q0 -204 93 -350.5t255 -221.5 t363 -75q142 0 259.5 41.5t117.5 155.5v172q0 31 -108 40t-212 9v98h723v-98q-178 0 -178 -49v-395q-6 -27 -28 -27q-19 0 -69 40.5t-73 68.5q-64 -90 -203 -122t-301 -32q-158 0 -317.5 52t-288.5 150.5t-204.5 237t-75.5 305.5z" />
<glyph unicode="H" horiz-adv-x="2007" d="M166 0v98q227 0 227 49v1104q0 49 -227 49v99h680v-99q-228 0 -228 -49v-475h771v475q0 49 -228 49v99h680v-99q-227 0 -227 -49v-1104q0 -49 227 -49v-98h-680v98q228 0 228 49v531h-771v-531q0 -49 228 -49v-98h-680z" />
<glyph unicode="I" horiz-adv-x="1012" d="M154 0v98q239 0 239 49v1104q0 49 -239 49v99h704v-99q-240 0 -240 -49v-1104q0 -49 240 -49v-98h-704z" />
<glyph unicode="J" horiz-adv-x="1415" d="M188 233q0 53 38 91t93 38q36 0 66 -17.5t47 -46t17 -65.5q0 -46 -27.5 -81.5t-73.5 -45.5q84 -75 242 -75q69 0 125 37.5t87.5 98.5t31.5 130v954q0 32 -99.5 40.5t-195.5 8.5v99h682v-99q-170 0 -170 -49v-960q0 -79 -42.5 -143t-112 -106.5t-150.5 -64.5t-156 -22 q-149 0 -275.5 70t-126.5 208z" />
<glyph unicode="K" horiz-adv-x="2079" d="M166 0v98q227 0 227 49v1104q0 49 -227 49v99h680v-99q-228 0 -228 -49v-639l766 582q37 27 37 59q0 23 -20.5 35t-44.5 12v99h522v-99q-94 0 -181 -25.5t-159 -80.5l-453 -346l555 -643q43 -51 79.5 -73.5t75.5 -28t118 -5.5v-98h-608v98q102 0 102 45q0 23 -35 62 l-448 520l-306 -231v-347q0 -49 228 -49v-98h-680z" />
<glyph unicode="L" horiz-adv-x="1700" d="M166 0v98q227 0 227 49v1104q0 49 -227 49v99h737v-99q-95 0 -190 -9t-95 -40v-1104q0 -33 31.5 -41t83.5 -8h213q127 0 215 26t145 81.5t89.5 144.5t46.5 213h94l-68 -563h-1302z" />
<glyph unicode="M" horiz-adv-x="2433" d="M178 0v98q228 0 228 107v1046q0 49 -228 49v99h434q34 0 54 -33l551 -1163l550 1163q20 33 54 33h434v-99q-227 0 -227 -49v-1104q0 -49 227 -49v-98h-656v98q228 0 228 49v1162l-604 -1274q-18 -35 -54 -35h-12q-36 0 -53 35l-596 1255v-1085q0 -107 227 -107v-98h-557z " />
<glyph unicode="N" horiz-adv-x="2007" d="M166 0v98q227 0 227 107v1087q-53 8 -227 8v99h438q16 0 23 -10l884 -1053v858q0 106 -227 106v99h557v-99q-227 0 -227 -106v-1163q0 -11 -10 -21t-21 -10h-41q-13 0 -20 10l-1026 1221v-1026q0 -107 227 -107v-98h-557z" />
<glyph unicode="O" horiz-adv-x="2103" d="M199 694q0 166 71.5 305.5t195 239t275 152.5t312.5 53t312.5 -53.5t274.5 -152.5t194 -238.5t71 -305.5q0 -215 -123 -384t-320.5 -262t-408.5 -93q-159 0 -309.5 51.5t-276 151.5t-197 236t-71.5 300zM446 727q0 -188 71 -345t207.5 -250t328.5 -93q190 0 326.5 93 t207 249.5t70.5 345.5q0 137 -42.5 253.5t-121.5 201.5t-190.5 132.5t-249.5 47.5q-182 0 -320 -82.5t-212.5 -228t-74.5 -324.5z" />
<glyph unicode="P" horiz-adv-x="1843" d="M170 0v98q227 0 227 49v1104q0 49 -227 49v99h868q96 0 199.5 -23.5t196 -73t150.5 -124.5t58 -177q0 -128 -98.5 -215.5t-239 -129.5t-266.5 -42h-415v-467q0 -49 227 -49v-98h-680zM614 700h363q194 0 306 62t112 239q0 124 -56 189t-147 87.5t-215 22.5h-248 q-52 0 -83.5 -8t-31.5 -41v-551z" />
<glyph unicode="Q" horiz-adv-x="2103" d="M199 694q0 166 71.5 305.5t195 239t275 152.5t312.5 53t312.5 -53.5t274.5 -152.5t194 -238.5t71 -305.5q0 -151 -66.5 -285.5t-183 -235t-258.5 -155.5q53 -79 104.5 -123.5t122.5 -44.5q84 0 155.5 38t71.5 116q0 12 11.5 21.5t23.5 9.5q15 0 24 -11t9 -28 q0 -93 -36.5 -184.5t-107 -150t-167.5 -58.5q-73 0 -126.5 34t-88.5 89.5t-60 122.5t-49 135q-116 -29 -231 -29q-159 0 -309.5 51.5t-276 151.5t-197 236t-71.5 300zM438 694q0 -142 46.5 -268.5t140 -219.5t227.5 -138q-16 35 -16 69q0 56 31.5 96.5t81.5 62t104 21.5 q93 0 161.5 -58t126.5 -153q109 55 182 146.5t107.5 204t34.5 237.5q0 185 -73.5 338t-213 241.5t-325.5 88.5q-187 0 -327 -88.5t-214 -241.5t-74 -338zM911 137q0 -50 44 -75t98 -25q104 0 200 31q-34 82 -80 128t-120 46q-54 0 -98 -27.5t-44 -77.5z" />
<glyph unicode="R" horiz-adv-x="1985" d="M170 0v98q227 0 227 49v1104q0 49 -227 49v99h762q125 0 284.5 -38.5t274.5 -124.5t115 -216q0 -121 -114.5 -202t-258.5 -120q231 -73 256 -262l22 -178q7 -56 24.5 -108.5t52.5 -85.5t93 -33q65 0 104.5 52.5t39.5 119.5q0 13 9.5 21.5t20.5 8.5h33q31 0 31 -36 q0 -62 -32 -118.5t-87 -90t-119 -33.5q-107 0 -201 28t-155 94t-61 175v178q0 79 -52 131.5t-130 76.5t-154 24h-314v-515q0 -49 228 -49v-98h-672zM614 737h287q123 0 221 20t167 82.5t69 180.5q0 117 -68 179.5t-167 81.5t-222 19h-172q-52 0 -83.5 -8t-31.5 -41v-514z " />
<glyph unicode="S" horiz-adv-x="1536" d="M199 -20v460q5 20 26 25h43q20 -5 25 -25q0 -145 79 -231.5t202.5 -121t263.5 -34.5q83 0 168 33.5t140.5 98.5t55.5 151q0 73 -39 129.5t-101.5 93.5t-131.5 51l-355 70q-154 31 -265 131.5t-111 245.5q0 118 74.5 206.5t190.5 134.5t232 46q117 0 225 -34.5t185 -106.5 l96 133q5 5 19 8h18q20 -6 25 -25v-458q-5 -21 -25 -27h-43q-21 5 -27 27q-15 128 -78.5 216t-164 131.5t-230.5 43.5q-79 0 -164.5 -29.5t-142.5 -88t-57 -140.5q0 -98 80.5 -162.5t183.5 -85.5l354 -70q74 -13 145 -49t125 -88.5t84.5 -119.5t30.5 -148q0 -123 -73 -218.5 t-188 -146.5t-236 -51q-313 0 -484 137l-92 -129q-6 -4 -18 -8h-19q-21 5 -26 25z" />
<glyph unicode="T" horiz-adv-x="1962" d="M150 903l47 496h1566l47 -496h-94q-10 117 -28 196.5t-64 125.5q-50 49 -119.5 62t-175.5 13h-121q-52 0 -83 -8.5t-31 -40.5v-1104q0 -49 321 -49v-98h-868v98q321 0 321 49v1104q0 32 -31 40.5t-83 8.5h-123q-106 0 -175.5 -13t-119.5 -62q-44 -44 -63 -124.5 t-29 -197.5h-94z" />
<glyph unicode="U" horiz-adv-x="2007" d="M166 1300v99h680v-99q-228 0 -228 -49v-782q0 -129 49.5 -222.5t144 -143.5t224.5 -50q122 0 233.5 50.5t179 145.5t67.5 220v725q0 106 -228 106v99h553v-99q-227 0 -227 -106v-731q0 -112 -49.5 -205.5t-131.5 -161t-186 -104.5t-211 -37q-109 0 -223 34t-210.5 100.5 t-153 161t-56.5 212.5v788q0 49 -227 49z" />
<glyph unicode="V" horiz-adv-x="2007" d="M113 1300v99h630v-99q-170 0 -170 -40v-9l496 -1042l469 985q4 16 4 23q0 44 -47.5 63.5t-99.5 19.5v99h499v-99q-197 0 -247 -106l-574 -1206q-6 -14 -22.5 -23.5t-30.5 -9.5h-33q-14 0 -30.5 9.5t-22.5 23.5l-600 1263q-31 49 -221 49z" />
<glyph unicode="W" horiz-adv-x="2718" d="M109 1300v99h616v-99q-182 0 -182 -43q1 -1 1.5 -2.5t0.5 -3.5l399 -1001l365 915l-35 86q-25 49 -203 49v99h617v-99q-181 0 -181 -43v-6l400 -1001l377 944q2 6 2 16q0 49 -61 69.5t-122 20.5v99h506v-99q-184 0 -225 -106l-479 -1206q-16 -33 -50 -33h-28 q-37 0 -51 33l-416 1050l-418 -1050q-14 -33 -51 -33h-29q-13 0 -27.5 9t-21.5 24l-502 1263q-24 49 -202 49z" />
<glyph unicode="X" horiz-adv-x="2007" d="M133 0v98q239 0 332 107l420 493l-463 553q-35 32 -100 40.5t-154 8.5v99h649v-99q-34 0 -79.5 -10.5t-45.5 -29.5q0 -4 1.5 -6t2.5 -3l326 -391l285 334q12 15 12 33q0 38 -35.5 55.5t-77.5 17.5v99h561v-99q-242 0 -331 -106l-349 -410l533 -637q39 -33 102.5 -41 t153.5 -8v-98h-651v98q27 0 76 11t49 30q0 4 -0.5 5.5t-1.5 2.5l-398 476l-356 -418q-12 -15 -12 -33q0 -37 36.5 -55.5t75.5 -18.5v-98h-561z" />
<glyph unicode="Y" horiz-adv-x="2007" d="M100 1300v99h656v-99q-133 0 -133 -36q0 -5 4 -13l452 -575l408 518q16 22 16 47q0 32 -30 45.5t-70 13.5v99h504v-99q-212 0 -295 -106l-500 -635v-412q0 -49 227 -49v-98h-671v98q227 0 227 49v412l-545 692q-31 32 -97.5 40.5t-152.5 8.5z" />
<glyph unicode="Z" horiz-adv-x="1677" d="M199 35v35q0 11 10 24l979 1206h-336q-94 0 -157 -4.5t-124 -23t-112 -60.5q-61 -49 -95 -136.5t-34 -172.5h-94l26 496h1182q13 0 23 -10t10 -23v-33q0 -11 -9 -22l-981 -1207h357q99 0 167.5 5t134.5 25.5t118 66.5q44 44 74 108t43.5 134t13.5 139h94l-41 -582h-1215 q-12 0 -23 11t-11 24z" />
<glyph unicode="[" horiz-adv-x="823" d="M354 -512v2048h357v-115h-242v-1818h242v-115h-357z" />
<glyph unicode="\" d="M459 997q0 84 25.5 160t72.5 141t115 119q8 4 16 4q15 0 28 -13t13 -28t-12 -24q-86 -66 -134 -158.5t-48 -200.5v-6q34 33 88 33q36 0 65 -17t46.5 -45.5t17.5 -66.5q0 -37 -17.5 -66t-46.5 -46t-65 -17q-81 0 -122.5 71.5t-41.5 159.5zM956 997q0 84 25.5 160t72.5 141 t115 119q10 4 17 4q14 0 27.5 -13.5t13.5 -27.5q0 -15 -13 -24q-84 -64 -133 -159t-49 -200v-6q36 33 88 33q36 0 65 -16.5t46.5 -46t17.5 -66.5t-17.5 -66.5t-46.5 -46t-65 -16.5q-81 0 -122.5 71.5t-41.5 159.5z" />
<glyph unicode="]" horiz-adv-x="823" d="M113 -397h241v1818h-241v115h356v-2048h-356v115z" />
<glyph unicode="^" d="M348 1153l348 268l348 -268l-57 -76l-291 201l-290 -201z" />
<glyph unicode="_" horiz-adv-x="823" d="M283 1257q0 51 39 90t90 39q52 0 90.5 -38.5t38.5 -90.5q0 -53 -38 -91t-91 -38q-52 0 -90.5 38.5t-38.5 90.5z" />
<glyph unicode="`" horiz-adv-x="823" d="M248 997q0 84 25.5 160t72.5 141t115 119q8 4 16 4q15 0 28 -13t13 -28t-12 -24q-86 -66 -134 -158.5t-48 -200.5v-6q34 33 88 33q36 0 65 -17t46.5 -45.5t17.5 -66.5q0 -37 -17.5 -66t-46.5 -46t-65 -17q-81 0 -122.5 71.5t-41.5 159.5z" />
<glyph unicode="a" d="M164 221q0 129 126 204.5t293 103.5t302 28v64q0 64 -37.5 115t-97.5 78.5t-125 27.5q-138 0 -201 -19q45 -32 45 -92q0 -31 -14.5 -56.5t-41.5 -41t-57 -15.5q-45 0 -78.5 32.5t-33.5 80.5q0 120 111.5 153.5t269.5 33.5q69 0 147 -17t146.5 -52.5t112.5 -91.5t44 -130 v-461q0 -32 22 -56t54 -24q33 0 54.5 24t21.5 56v131h94v-131q0 -90 -83 -134t-181 -44q-58 0 -97 44.5t-49 104.5q-34 -53 -90 -89.5t-122.5 -53.5t-133.5 -17q-91 0 -182 21.5t-155 76t-64 146.5zM360 221q0 -78 72.5 -123t157.5 -45q69 0 137.5 24.5t113 75t44.5 121.5 v213q-174 0 -349.5 -63t-175.5 -203z" />
<glyph unicode="b" horiz-adv-x="1536" d="M152 1300v99l352 22v-624q73 55 165.5 81.5t192.5 26.5q132 0 254 -58t198.5 -164.5t76.5 -240.5q0 -140 -83 -246t-213.5 -162.5t-265.5 -56.5q-95 0 -187.5 37t-158.5 105l-67 -119h-94v1186q0 78 -37 96t-133 18zM512 221q30 -52 76.5 -89.5t104 -58t116.5 -20.5 q119 0 201.5 48t125 136t42.5 205q0 86 -20 154.5t-61.5 121.5t-105 82t-153.5 29q-96 0 -184.5 -37t-141.5 -110v-461z" />
<glyph unicode="c" horiz-adv-x="1251" d="M143 442q0 105 47 193.5t127.5 152t178 97t200.5 33.5q166 0 281 -33t115 -154q0 -29 -15 -56t-42 -42t-56 -15q-46 0 -79.5 32.5t-33.5 80.5q0 53 43 90q-61 15 -211 15q-85 0 -148 -30t-107.5 -86t-65.5 -126.5t-21 -151.5q0 -109 47 -197t134.5 -137t195.5 -49 q105 0 184.5 51t110.5 148q8 13 25 16h43q24 -7 24 -28q0 -2 -2 -10q-29 -88 -93.5 -146.5t-149 -85.5t-179.5 -27q-136 0 -264 57.5t-208.5 163.5t-80.5 244z" />
<glyph unicode="d" horiz-adv-x="1536" d="M143 442q0 137 82.5 243.5t212 163t264.5 56.5q193 0 328 -104v385q0 78 -37 96t-133 18v99l352 22v-1208q0 -55 19 -79.5t52 -30t99 -5.5v-98l-360 -23v121q-70 -60 -160 -90.5t-186 -30.5q-132 0 -255.5 58t-200.5 165.5t-77 241.5zM356 440q0 -113 36.5 -199.5 t113 -137t190.5 -50.5q98 0 186.5 46t139.5 128v459q-50 69 -129 106t-168 37q-177 0 -273 -105t-96 -284z" />
<glyph unicode="e" horiz-adv-x="1251" d="M129 449q0 102 44.5 189t121 149.5t172 96.5t192.5 34q135 0 239 -47t163 -142.5t59 -230.5q0 -15 -8 -26t-22 -11h-748v-12q0 -179 100 -284.5t277 -105.5q66 0 130 23.5t111.5 69.5t69.5 108q2 7 11 13t16 6h33q12 0 21 -10.5t9 -22.5q0 -5 -0.5 -8t-1.5 -7 q-29 -84 -94.5 -141t-153 -85t-174.5 -28q-134 0 -267.5 58t-216.5 166t-83 248zM346 532h608q0 91 -35 161t-101.5 109.5t-158.5 39.5q-132 0 -214.5 -86.5t-98.5 -223.5z" />
<glyph unicode="f" horiz-adv-x="895" d="M143 784v99h195v235q0 99 61.5 173t158 113.5t192.5 39.5q51 0 101 -18.5t83 -56.5t33 -91q0 -46 -31.5 -77.5t-77.5 -31.5q-47 0 -78.5 31.5t-31.5 77.5q0 52 36 84q-24 6 -51 6q-63 0 -114 -37t-79 -96t-28 -123v-229h295v-99h-287v-637q0 -49 213 -49v-98h-565v98 q170 0 170 49v637h-195z" />
<glyph unicode="g" d="M129 -156q0 53 32 93.5t82.5 68t98.5 39.5q-39 34 -61.5 83.5t-22.5 104.5q0 91 61 166q-48 40 -77 92.5t-29 110.5q0 96 64 165t160 103.5t190 34.5q150 0 266 -71q54 44 125.5 69t146.5 25q35 0 65.5 -15t50 -43t19.5 -63q0 -34 -23 -57t-56 -23q-32 0 -56 24t-24 56 q0 8 4 24q0 7 4 15l6 6q-107 0 -207 -61q40 -36 65 -85.5t25 -103.5q0 -95 -63 -164t-159.5 -104t-188.5 -35q-142 0 -250 61q-25 -29 -25 -71q0 -55 41.5 -94t98.5 -39h208q144 0 265 -20.5t210 -90t89 -201.5q0 -76 -61.5 -128.5t-152.5 -81.5t-185.5 -42.5t-168.5 -13.5 q-99 0 -233 24.5t-234 84t-100 157.5zM279 -156q0 -67 75 -109.5t175 -61.5t167 -19t167.5 19t175.5 61.5t75 109.5q0 95 -130 121.5t-284 26.5h-208q-75 0 -144 -38.5t-69 -109.5zM401 602q0 -109 57 -168t167 -59h2q108 0 165.5 59t57.5 168q0 110 -56.5 168.5 t-166.5 58.5q-112 0 -169 -58t-57 -169z" />
<glyph unicode="h" horiz-adv-x="1536" d="M164 0v98q170 0 170 49v1039q0 78 -37 96t-133 18v99l352 22v-692q57 86 156.5 131t206.5 45q354 0 354 -278v-480q0 -49 170 -49v-98h-531v98q170 0 170 49v474q0 105 -41 156.5t-143 51.5q-84 0 -162 -36t-125 -102t-47 -150v-394q0 -49 170 -49v-98h-530z" />
<glyph unicode="i" horiz-adv-x="823" d="M166 0v98q170 0 170 49v523q0 79 -34 96.5t-128 17.5v99l344 22v-758q0 -49 154 -49v-98h-506zM264 1257q0 52 38.5 90.5t90.5 38.5q23 0 48.5 -10.5t42.5 -27.5t27.5 -42.5t10.5 -48.5q0 -52 -38.5 -90.5t-90.5 -38.5q-33 0 -63 18t-48 48t-18 63z" />
<glyph unicode="j" horiz-adv-x="895" d="M-29 -238q0 48 32.5 80.5t80.5 32.5q31 0 56.5 -14.5t41 -41.5t15.5 -57q0 -58 -45 -90q45 -16 108 -16q83 0 123.5 79t40.5 169v766q0 78 -43.5 96t-144.5 18v99l370 22v-1007q0 -91 -50 -164t-131 -113.5t-171 -40.5q-107 0 -195 43t-88 139zM348 1257q0 52 38.5 90.5 t90.5 38.5q23 0 48.5 -10.5t42.5 -27.5t27.5 -42.5t10.5 -48.5q0 -52 -38.5 -90.5t-90.5 -38.5q-33 0 -63 18t-48 48t-18 63z" />
<glyph unicode="k" horiz-adv-x="1464" d="M152 0v98q170 0 170 49v1039q0 78 -37 96t-133 18v99l352 22v-954l309 211q66 46 66 80q0 11 -9 18.5t-22 7.5v99h457v-99q-169 0 -326 -106l-182 -125l319 -348q43 -47 75 -69.5t70.5 -30t100.5 -7.5v-98h-473v98q49 0 49 27q0 20 -12.5 38t-34.5 42l-234 252l-161 -111 v-199q0 -49 170 -49v-98h-514z" />
<glyph unicode="l" horiz-adv-x="823" d="M166 0v98q170 0 170 49v1039q0 78 -37 96t-133 18v99l352 22v-1274q0 -49 170 -49v-98h-522z" />
<glyph unicode="m" horiz-adv-x="2247" d="M164 0v98q170 0 170 49v523q0 78 -37 96t-133 18v99l344 22v-190q39 61 98 104t129.5 64.5t145.5 21.5q57 0 110.5 -7.5t98.5 -26.5t81 -56.5t52 -93.5q57 89 157.5 136.5t210.5 47.5q355 0 355 -278v-480q0 -49 170 -49v-98h-531v98q170 0 170 49v474q0 105 -42 156.5 t-144 51.5q-61 0 -120.5 -20t-108.5 -59t-77 -92t-28 -117v-394q0 -49 170 -49v-98h-531v98q170 0 170 49v474q0 105 -42 156.5t-144 51.5q-61 0 -120.5 -20t-108.5 -59t-77 -92t-28 -117v-394q0 -49 170 -49v-98h-530z" />
<glyph unicode="n" horiz-adv-x="1536" d="M164 0v98q170 0 170 49v523q0 78 -37 96t-133 18v99l344 22v-190q39 61 97.5 103.5t129 64.5t144.5 22q354 0 354 -278v-480q0 -49 170 -49v-98h-531v98q170 0 170 49v474q0 105 -41 156.5t-143 51.5q-84 0 -162 -36t-125 -102t-47 -150v-394q0 -49 170 -49v-98h-530z " />
<glyph unicode="o" d="M129 436q0 106 48 196.5t131 154.5t183.5 97.5t204.5 33.5q105 0 206 -33.5t183 -97.5t130.5 -153t48.5 -198q0 -105 -50 -191.5t-133.5 -146t-185.5 -90.5t-199 -31t-197.5 30.5t-185.5 91.5t-134.5 146.5t-49.5 190.5zM342 459q0 -194 82 -297t272 -103q191 0 273 103 t82 297q0 186 -84.5 284.5t-270.5 98.5q-185 0 -269.5 -98.5t-84.5 -284.5z" />
<glyph unicode="p" horiz-adv-x="1536" d="M152 -299q170 0 170 49v975q0 38 -50.5 48.5t-119.5 10.5v99l352 22v-110q71 56 168.5 83t197.5 27q99 0 192 -33.5t168 -95.5t118 -147t43 -187q0 -140 -83 -246t-213.5 -162.5t-265.5 -56.5q-87 0 -169.5 29t-147.5 84v-340q0 -49 170 -49v-98h-530v98zM512 219 q33 -53 79 -89.5t102.5 -56.5t115.5 -20q103 0 187 53.5t133 144t49 191.5q0 97 -43.5 185t-121.5 142t-175 54q-95 0 -184 -35.5t-142 -107.5v-461z" />
<glyph unicode="q" horiz-adv-x="1464" d="M143 442q0 137 82 243.5t211 163t264 56.5q103 0 198 -43.5t157 -124.5l71 168h86v-1155q0 -49 170 -49v-98h-530v98q170 0 170 49v363q-69 -66 -158 -101t-186 -35q-132 0 -256.5 58.5t-201.5 164.5t-77 242zM356 440q0 -95 43 -185t121.5 -146t175.5 -56q106 0 198 59 t136 156v324q-21 67 -66.5 119.5t-107.5 82t-131 29.5q-100 0 -185 -53t-134.5 -142t-49.5 -188z" />
<glyph unicode="r" horiz-adv-x="1108" d="M152 0v98q170 0 170 49v523q0 78 -37 96t-133 18v99l311 20q-1 1 -2.5 1.5t-3.5 0.5h30v-215q46 95 129.5 155t184.5 60q42 0 85 -17.5t69 -50.5t26 -77q0 -45 -31 -77t-76 -32q-44 0 -76 32t-32 77q0 40 25 69q-67 0 -120.5 -32t-90 -85t-56.5 -120.5t-20 -128.5v-316 q0 -49 213 -49v-98h-565z" />
<glyph unicode="s" horiz-adv-x="1122" d="M143 4v324q5 19 27 24h43q20 -5 23 -16q71 -283 325 -283q118 0 213.5 37t95.5 137q0 73 -69.5 113.5t-157.5 52.5l-186 29q-125 19 -219.5 77.5t-94.5 166.5q0 98 66 154.5t159 77t193 20.5q136 0 232 -56l65 51q4 2 7 3t7 2h19q19 -7 24 -25v-260q-5 -22 -24 -27h-43 q-22 5 -27 27q0 73 -35.5 121.5t-95 71t-131.5 22.5q-114 0 -210.5 -29.5t-96.5 -116.5q0 -103 213 -135l188 -30q83 -14 155.5 -46.5t121.5 -91.5t49 -139q0 -153 -124.5 -218t-293.5 -65q-161 0 -272 91l-82 -82q-4 -2 -19 -9h-18q-22 7 -27 27z" />
<glyph unicode="t" horiz-adv-x="1108" d="M104 784v76q73 0 132 35.5t98.5 93.5t59.5 129t20 142h94v-377h358v-99h-358v-534q0 -82 36.5 -136.5t117.5 -54.5q68 0 110.5 59.5t42.5 131.5v121h94v-127q0 -70 -36.5 -132t-97.5 -98.5t-134 -36.5q-138 0 -231 66.5t-93 200.5v540h-213z" />
<glyph unicode="u" horiz-adv-x="1536" d="M164 784v99l360 22v-661q0 -82 21 -124t66 -54.5t134 -12.5q60 0 113.5 20.5t94.5 58.5t65 90.5t24 111.5v336q0 78 -37 96t-133 18v99l361 22v-692q0 -55 19 -79.5t52 -30t99 -5.5v-98l-352 -23v166q-51 -77 -138.5 -121.5t-183.5 -44.5q-80 0 -146.5 10.5t-123.5 38.5 t-91 81.5t-34 136.5v426q0 78 -37 96t-133 18z" />
<glyph unicode="v" horiz-adv-x="1464" d="M115 784v99h493v-99q-110 0 -110 -39q0 -6 2 -10l280 -555l252 498q10 20 10 37q0 35 -27.5 52t-62.5 17v99h396v-99q-71 0 -125.5 -24.5t-83.5 -81.5l-338 -666q-16 -35 -56 -35h-28q-39 0 -55 35l-367 723q-31 49 -180 49z" />
<glyph unicode="w" horiz-adv-x="1962" d="M111 784v99h483v-99q-119 0 -119 -39q0 -8 2 -10l232 -530l219 504q-25 51 -60.5 63t-117.5 12v99h458v-99q-121 0 -121 -39q1 -3 2 -5.5t1 -4.5l245 -559l219 502q7 11 7 27q0 39 -36.5 59t-78.5 20v99h403v-99q-65 0 -115 -24.5t-75 -81.5l-293 -666q-14 -35 -51 -35 h-29q-35 0 -53 35l-252 578l-254 -578q-17 -35 -53 -35h-29q-37 0 -51 35l-318 723q-17 33 -60 41t-105 8z" />
<glyph unicode="x" horiz-adv-x="1464" d="M104 0v98q195 0 302 107l229 229l-293 301v1l-2 1q-36 30 -89.5 38.5t-133.5 8.5v99h493v-99q-18 0 -35.5 -8t-17.5 -24q0 -11 6 -17l185 -190l133 133q34 38 34 70q0 10 -5 18t-13 13t-18 5v99h436v-99q-195 0 -301 -106l-201 -201l322 -330q41 -33 93.5 -41t131.5 -8 v-98h-494v98q19 0 36.5 8t17.5 25q0 10 -7 16l-213 220l-159 -162q-37 -37 -37 -70q0 -13 11 -25t26 -12v-98h-437z" />
<glyph unicode="y" horiz-adv-x="1464" d="M106 -233q0 44 30 74t75 30q30 0 53.5 -13.5t37 -37t13.5 -53.5q0 -64 -53 -93q34 -18 80 -18q80 0 146.5 53.5t105.5 128.5l84 162l-381 735q-19 32 -67 40.5t-115 8.5v99h495v-99q-110 0 -110 -36q0 -5 4 -13l276 -536l250 479q8 16 8 39q0 33 -25.5 50t-60.5 17v99 h396v-99q-156 0 -213 -106l-435 -840q-56 -111 -150.5 -184.5t-207.5 -73.5q-56 0 -111.5 22.5t-90 65t-34.5 99.5z" />
<glyph unicode="z" horiz-adv-x="1251" d="M129 35v20q0 13 10 23l682 729h-198q-130 0 -205 -16.5t-117.5 -78t-42.5 -190.5h-94l26 361h854q14 0 23.5 -10.5t9.5 -22.5v-19q0 -10 -8 -22l-682 -727h211q111 0 182 9.5t119 51.5q45 43 68.5 121t23.5 150h94l-41 -414h-880q-13 0 -24 11t-11 24z" />
<glyph unicode="{" d="M57 508v76h1278v-76h-1278z" />
<glyph unicode="|" horiz-adv-x="2787" d="M115 508v76h2556v-76h-2556z" />
<glyph unicode="}" d="M375 1090l149 292q12 23 33.5 38.5t46.5 15.5q26 0 50.5 -13.5t39.5 -36.5t15 -49q0 -37 -31 -65l-227 -238zM801 1090l149 292q12 23 33.5 38.5t46.5 15.5q26 0 50.5 -13.5t39.5 -36.5t15 -49q0 -37 -31 -65l-227 -238z" />
<glyph unicode="~" d="M270 1219l88 84q85 81 183 81q40 0 81 -11t96.5 -31t92 -29.5t76.5 -9.5q98 0 182 81l53 -55l-88 -84q-85 -82 -182 -82q-48 0 -110.5 20.5t-124.5 41t-111 20.5q-99 0 -182 -82z" />
<glyph unicode="&#xa1;" horiz-adv-x="1700" d="M166 0v98q227 0 227 49v1104q0 49 -227 49v99h1302l68 -496h-94q-24 181 -73 263.5t-141.5 108t-281.5 25.5h-213q-52 0 -83.5 -8t-31.5 -41v-1104q0 -31 95 -40t190 -9v-98h-737z" />
<glyph unicode="&#xa2;" horiz-adv-x="2247" d="M182 23q0 8 2 12l860 1399q21 32 60 32h37q40 0 59 -32l860 -1399q2 -4 2 -12q0 -23 -20 -23h-1839q-7 0 -14 7t-7 16zM399 195h1297l-647 1056z" />
<glyph unicode="&#xa3;" horiz-adv-x="2103" d="M199 694q0 166 71.5 305.5t195 239t275 152.5t312.5 53t312.5 -53.5t274.5 -152.5t194 -238.5t71 -305.5q0 -215 -123 -384t-320.5 -262t-408.5 -93q-159 0 -309.5 51.5t-276 151.5t-197 236t-71.5 300zM430 694q0 -138 43.5 -258t125 -211t197 -141.5t257.5 -50.5 t257.5 51t196 140.5t123.5 210.5t43 259q0 142 -42 263t-123.5 215t-196.5 145t-258 51q-191 0 -332 -90t-216 -244.5t-75 -339.5zM573 535v333h95v-69h768v69h94v-333h-94v69h-768v-69h-95z" />
<glyph unicode="&#xa4;" horiz-adv-x="1866" d="M145 0v98q181 0 226 107l493 1229q14 32 51 32h33q37 0 51 -32l517 -1287q26 -49 202 -49v-98h-624v98q182 0 182 43q0 2 -0.5 3.5t-1.5 2.5l-410 1018l-387 -960q-4 -6 -4 -19q0 -46 52 -67t108 -21v-98h-488z" />
<glyph unicode="&#xa5;" horiz-adv-x="1819" d="M164 379h94q5 -76 10.5 -120t22.5 -64q9 -9 91.5 -12t207.5 -3h639q78 0 142.5 1t107.5 4.5t49 9.5q15 18 22 70.5t11 113.5h94l-21 -379h-1450zM178 1042l21 357h1421l20 -357h-94q-9 138 -33 164q-12 13 -290 13h-627q-279 0 -291 -13t-18.5 -41.5t-10 -65t-4.5 -57.5 h-94zM414 522v410h94v-115h803v115h94v-410h-94v115h-803v-115h-94z" />
<glyph unicode="&#xa6;" horiz-adv-x="2007" d="M166 0v98q227 0 227 49v1104q0 49 -227 49v99h1675v-99q-227 0 -227 -49v-1104q0 -49 227 -49v-98h-680v98q228 0 228 49v1153h-771v-1153q0 -49 228 -49v-98h-680z" />
<glyph unicode="&#xa7;" horiz-adv-x="1962" d="M199 35q0 14 10 22l618 561l-618 693q-10 10 -10 20v37q0 11 10 21t20 10h1465l67 -496h-94q-27 186 -119 272t-219.5 105.5t-353.5 19.5h-455l516 -577q8 -8 8 -23q0 -16 -8 -24l-610 -553h553q171 0 273.5 9t190 44.5t146.5 118.5t78 225h94l-67 -520h-1465 q-10 0 -20 12t-10 23z" />
<glyph unicode="&#xa8;" horiz-adv-x="2103" d="M199 1118q0 91 47.5 165.5t126.5 117.5t170 43q138 0 244 -74.5t171.5 -192.5t94.5 -255q30 140 95 257t170 191t243 74q91 0 169.5 -43t126.5 -117.5t48 -165.5q0 -14 -10.5 -23.5t-22.5 -9.5h-31q-14 0 -24.5 9.5t-10.5 23.5q0 79 -76 109t-169 30q-131 0 -221 -86 t-132.5 -214t-42.5 -257v-553q0 -31 95 -40t190 -9v-98h-795v98q52 0 111.5 2.5t116.5 13.5t57 33v553q0 95 -23.5 191.5t-72.5 180.5t-124 134.5t-177 50.5q-92 0 -169 -30.5t-77 -108.5q0 -13 -10 -23t-23 -10h-31q-12 0 -23 10t-11 23z" />
<glyph unicode="&#xa9;" horiz-adv-x="1962" d="M199 700q0 119 117.5 207t276.5 134t275 46v164q0 32 -94.5 40.5t-189.5 8.5v99h778v-99q-95 0 -190 -9t-95 -40v-161q85 0 201 -24.5t228 -74.5t183.5 -124t71.5 -167t-72.5 -168t-183 -123.5t-226.5 -74t-202 -25.5v-162q0 -31 95 -40t190 -9v-98h-778v98 q52 0 111.5 2.5t116 13.5t56.5 33v164q-116 0 -275 46t-276.5 135t-117.5 208zM438 700q0 -103 65.5 -175t164.5 -105t200 -33v625q-101 0 -200 -33t-164.5 -104.5t-65.5 -174.5zM1077 385q107 0 208.5 32.5t169 104t67.5 178.5q0 108 -67.5 178.5t-169 103t-208.5 32.5 v-629z" />
<glyph unicode="&#xaa;" horiz-adv-x="2103" d="M199 1069v14q0 11 10 21t20 10h148q65 0 113.5 -41t73 -104t24.5 -127q0 -183 87.5 -303t264.5 -148v860q0 22 -57 33t-116.5 13.5t-111.5 2.5v99h779v-99q-95 0 -190 -8.5t-95 -40.5v-860q90 13 160.5 51t115 95.5t68 133.5t23.5 171q0 63 24.5 126.5t72.5 104.5t113 41 h148q11 0 21 -10t10 -21v-14q0 -11 -10 -21t-21 -10q-73 0 -111.5 -61.5t-38.5 -140.5q0 -110 -44.5 -213.5t-127.5 -169.5q-75 -60 -190 -101t-213 -41v-164q0 -22 57 -33t116 -13.5t112 -2.5v-98h-779v98q52 0 111.5 2.5t116.5 13.5t57 33v164q-90 0 -202 40.5t-187 99.5 q-83 65 -127.5 168t-44.5 217q0 79 -38.5 140.5t-111.5 61.5q-10 0 -20 10t-10 21z" />
<glyph unicode="&#xad;" horiz-adv-x="1962" d="M172 369h94q16 -71 27 -114t30 -60.5t52.5 -21t122.5 -3.5h145q-33 90 -77 145t-159 191t-161.5 225t-46.5 201q0 169 125.5 285t308 171.5t348.5 55.5q165 0 347 -55.5t307.5 -171.5t125.5 -285q0 -111 -46.5 -202t-161.5 -225.5t-158.5 -190t-77.5 -144.5h145 q112 0 147 8.5t46 37.5t39 153h94l-82 -369h-459q-13 0 -21.5 11.5t-8.5 25.5q0 108 37 208.5t112 245t111 239t36 202.5q0 105 -45.5 187.5t-121 137t-170.5 83t-195 28.5q-133 0 -256.5 -50t-201 -150t-77.5 -236q0 -104 36 -200.5t110.5 -238t112.5 -243t38 -213.5 q0 -15 -8 -26t-22 -11h-459z" />
<glyph unicode="&#xae;" d="M127 852v115q96 18 180 56.5t159.5 98t133.5 135.5t96 164q51 -117 137 -212t197.5 -157.5t235.5 -84.5v-115q-151 28 -281 99.5t-231 183.5v-1475q0 -26 -16.5 -41.5t-41.5 -15.5q-23 0 -40 16t-17 41v1475q-65 -72 -147 -130t-172 -96t-193 -57z" />
<glyph unicode="&#xaf;" d="M127 57v115q103 -19 193 -57t172 -96t147 -130v1475q0 25 17 41t40 16q25 0 41.5 -15.5t16.5 -41.5v-1475q101 112 233 185t279 98v-115q-188 -33 -340.5 -154.5t-229.5 -299.5q-38 90 -96 165t-131 133.5t-159.5 98.5t-182.5 57z" />
<glyph unicode="&#xb0;" horiz-adv-x="823" d="M297 1346q0 47 33 77.5t82 30.5q48 0 81 -30.5t33 -77.5q0 -7 -0.5 -10.5t-1.5 -8.5l-73 -600h-76l-76 600q0 6 -0.5 10t-1.5 9z" />
<glyph unicode="&#xb1;" horiz-adv-x="823" d="M283 -311l82 897q6 21 26 26h43q19 -5 25 -26l82 -897v-13q0 -34 -18.5 -60.5t-48 -42t-62.5 -15.5q-50 0 -89.5 34t-39.5 84v13zM283 895q0 51 39 90t90 39q52 0 90.5 -38.5t38.5 -90.5t-38.5 -90.5t-90.5 -38.5q-51 0 -90 39t-39 90z" />
<glyph unicode="&#xb2;" horiz-adv-x="1321" d="M199 -141q0 63 32.5 120t83.5 89q77 50 135.5 113.5t93 143.5t34.5 164v97q6 21 26 26h43q19 -5 25 -26v-103q0 -176 -92 -329q-20 -35 -72 -95t-74 -100t-22 -102q0 -81 20 -124.5t65 -60t128 -16.5q110 0 206.5 20t151.5 74q-39 9 -62.5 38.5t-23.5 70.5q0 48 33 80 t80 32q48 0 80 -32t32 -80q0 -160 -152.5 -219.5t-344.5 -59.5q-170 0 -298 62.5t-128 216.5zM496 895q0 51 39 90t90 39q52 0 90.5 -38.5t38.5 -90.5t-38.5 -90.5t-90.5 -38.5q-51 0 -90 39t-39 90z" />
<glyph unicode="&#xb3;" horiz-adv-x="823" d="M166 0v98q170 0 170 49v523q0 79 -34 96.5t-128 17.5v99l344 22v-758q0 -49 154 -49v-98h-506z" />
<glyph unicode="&#xb4;" horiz-adv-x="895" d="M-29 -238q0 48 32.5 80.5t80.5 32.5q31 0 56.5 -14.5t41 -41.5t15.5 -57q0 -58 -45 -90q45 -16 108 -16q83 0 123.5 79t40.5 169v766q0 78 -43.5 96t-144.5 18v99l370 22v-1007q0 -91 -50 -164t-131 -113.5t-171 -40.5q-107 0 -195 43t-88 139z" />
<glyph unicode="&#xb5;" d="M332 1329q0 39 29.5 71t66.5 32q36 0 68 -31l315 -301l-57 -76l-375 227q-47 30 -47 78z" />
<glyph unicode="&#xb6;" d="M582 1100l315 301q32 31 68 31q38 0 67 -32t29 -71q0 -47 -47 -78l-375 -227z" />
<glyph unicode="&#xb8;" d="M303 1421h76q0 -116 98.5 -186t218.5 -70q121 0 219.5 69.5t98.5 186.5h76q0 -102 -54.5 -188t-145.5 -134t-194 -48t-193.5 48t-145 134.5t-54.5 187.5z" />
<glyph unicode="&#xb9;" d="M236 1137v98h921v-98h-921z" />
<glyph unicode="&#xba;" horiz-adv-x="2007" d="M743 1288q0 59 42 99t103 59.5t116 19.5t115.5 -19.5t102.5 -59.5t42 -99q0 -86 -83.5 -133t-176.5 -47q-94 0 -177.5 47.5t-83.5 132.5zM838 1288q0 -48 23.5 -70.5t56.5 -28t86 -5.5q78 0 121.5 18t43.5 86q0 67 -42.5 85t-122.5 18t-123 -18t-43 -85z" />
<glyph unicode="&#xbb;" horiz-adv-x="1251" d="M387 -356q426 0 426 106q0 105 -213 105v100h191v-35q213 -30 213 -170q0 -182 -617 -182v76z" />
<glyph unicode="&#xbc;" d="M152 0v98q170 0 170 49v637h-170v99h170v264q0 95 68 162.5t169 101t195 33.5q95 0 198 -33.5t172.5 -100.5t69.5 -165q0 -75 -42 -136t-106.5 -102t-140.5 -65q74 -28 141.5 -78t116 -114.5t75 -140.5t26.5 -157q0 -83 -39 -154t-105.5 -120.5t-147 -75t-159.5 -25.5 q-88 0 -161.5 46t-73.5 131q0 39 26.5 64.5t65.5 25.5q26 0 46.5 -11.5t32 -31.5t11.5 -47q0 -49 -39 -78q44 -23 92 -23q81 0 138.5 42t85.5 110t28 147q0 88 -26 171t-76 146.5t-124.5 100.5t-166.5 37q-22 5 -27 27v24q6 20 27 25q82 0 156 29t120.5 88t46.5 145 q0 102 -68.5 162.5t-172.5 60.5q-52 0 -98.5 -15.5t-80.5 -45t-52.5 -71t-18.5 -95.5v-1141h-352z" />
<glyph unicode="&#xbd;" horiz-adv-x="1962" d="M172 211q0 94 78 157.5t194.5 97t234.5 46t206 12.5v97q0 64 -37.5 115t-97.5 78.5t-125 27.5q-138 0 -201 -19q45 -32 45 -92q0 -31 -14.5 -56.5t-41.5 -41t-57 -15.5q-45 0 -78.5 32.5t-33.5 80.5q0 121 112.5 154t270.5 33q76 0 148.5 -15t136.5 -49t108 -88 q75 72 174.5 112t208.5 40q196 0 312 -112t116 -308q0 -16 -8.5 -26.5t-22.5 -10.5h-725v-12q0 -112 47.5 -201.5t134.5 -139t201 -49.5q66 0 122.5 24t98 69t62.5 108q4 19 26 19h33q11 0 21 -10.5t10 -22.5v-8q-40 -123 -149 -192t-244 -69q-80 0 -156 19t-146.5 58.5 t-123.5 92.5q-61 -94 -184.5 -132t-262.5 -38q-91 0 -179.5 19.5t-151 72.5t-62.5 142zM369 211q0 -76 70.5 -117t152.5 -41q118 0 219.5 55.5t101.5 163.5q0 29 -14 88t-14 91q-94 0 -213.5 -21.5t-211 -75.5t-91.5 -143zM1079 532h586q0 81 -30 152.5t-90.5 114.5 t-141.5 43q-133 0 -219 -87t-105 -223z" />
<glyph unicode="&#xbe;" horiz-adv-x="2103" d="M129 449q0 102 47 190.5t126.5 151t176 95t197.5 32.5q129 0 248.5 -51.5t195.5 -149.5q74 96 187.5 148.5t238.5 52.5q196 0 312 -112t116 -308q0 -15 -8 -26t-22 -11h-725v-12q0 -171 105.5 -280.5t277.5 -109.5q66 0 122.5 24.5t97.5 69t62 107.5q2 8 10.5 13.5 t16.5 5.5h33q12 0 21 -10.5t9 -22.5v-8q-40 -123 -149 -192t-244 -69q-66 0 -127.5 12.5t-122 38t-112.5 64t-95 90.5q-79 -100 -199 -152.5t-249 -52.5q-135 0 -261.5 58.5t-206 167.5t-79.5 246zM326 459q0 -177 89 -291.5t261 -114.5q173 0 262.5 114t89.5 292 q0 82 -23 153t-67 122.5t-110.5 79.5t-151.5 28q-86 0 -151 -28t-109.5 -80t-67 -123.5t-22.5 -151.5zM1223 532h585q0 81 -30 152.5t-90.5 114.5t-141.5 43q-133 0 -219.5 -87.5t-103.5 -222.5z" />
<glyph unicode="&#xbf;" d="M139 436q0 139 81 250t210.5 171.5t265.5 60.5q137 0 258 -56l174 242l62 -45l-168 -232q66 -41 119.5 -102.5t82.5 -136t29 -152.5q0 -138 -82 -242.5t-212.5 -160.5t-262.5 -56q-134 0 -252 50l-178 -248l-61 45l170 237q-104 61 -170 161t-66 214zM330 436 q0 -205 102 -297l471 654q-88 49 -207 49q-366 0 -366 -406zM496 96q85 -43 200 -43q367 0 367 383q0 98 -21.5 177t-78.5 135z" />
<glyph unicode="&#xc0;" horiz-adv-x="2410" d="M147 0v98q207 0 256 107l500 1095h-164v99h1405l68 -496h-94q-25 178 -70 260t-135 109.5t-273 27.5h-202q-52 0 -83.5 -8t-31.5 -41v-530h180q117 0 173 13.5t84 64t28 162.5h94v-578h-94q0 111 -28 162t-84 64.5t-173 13.5h-180v-476q0 -33 31.5 -41t83.5 -8h221 q150 0 241 21t145 70.5t85.5 137.5t56.5 236h94l-102 -563h-1239v98q170 0 170 49v476h-408l-190 -418q-4 -8 -4 -23q0 -43 48 -63.5t101 -20.5v-98h-510zM748 721h362v530q0 26 -32.5 35.5t-67.5 9.5z" />
<glyph unicode="&#xc1;" horiz-adv-x="2695" d="M221 694q0 166 71.5 305.5t195 239t275 152.5t312.5 53q54 0 123 -11t138 -22.5t124 -11.5h969l68 -496h-95q-24 181 -73.5 264t-142.5 108t-281 25h-232q-52 0 -83 -8.5t-31 -40.5v-475h225q126 0 188 11.5t98.5 62.5t36.5 166h95v-578h-95q0 115 -36.5 166t-98.5 62.5 t-188 11.5h-225v-531q0 -32 31 -40.5t83 -8.5h250q154 0 247 19.5t150 68t91.5 138.5t60.5 239h94l-102 -563h-1004q-55 0 -124 -11t-138 -22.5t-123 -11.5q-159 0 -309.5 51.5t-276 151.5t-197 236t-71.5 300zM461 727q0 -129 43.5 -254t125.5 -225t196 -158.5t249 -58.5 q82 0 141 14t93 64q32 51 41.5 139t9.5 219v465q0 131 -9.5 219t-41.5 139q-35 51 -91.5 64.5t-142.5 13.5q-126 0 -240 -51.5t-198 -141.5t-130 -206.5t-46 -241.5z" />
<glyph unicode="&#xc2;" horiz-adv-x="2103" d="M199 694q0 166 71.5 305.5t195 239t275 152.5t312.5 53q250 0 465 -121l168 203l61 -53l-162 -195q147 -101 233.5 -255.5t86.5 -328.5q0 -215 -123 -384t-320.5 -262t-408.5 -93q-122 0 -241.5 29.5t-225.5 89.5l-168 -201l-62 53l160 193q-91 63 -164 155t-113 198.5 t-40 221.5zM424 694q0 -316 166 -487l860 1036q-164 125 -397 125q-153 0 -271.5 -48.5t-198.5 -138.5t-119.5 -212t-39.5 -275zM651 154q58 -42 121 -69t133.5 -40.5t147.5 -13.5q200 0 341 82t213 232t72 349q0 323 -168 496z" />
<glyph unicode="&#xc3;" horiz-adv-x="823" d="M123 670l588 135l22 -96l-588 -136z" />
<glyph unicode="&#xc4;" d="M328 1266q0 50 36 85t85 35q50 0 85 -35t35 -85q0 -49 -35 -85t-85 -36q-49 0 -85 36t-36 85zM823 1266q0 50 36 85t85 35t85 -35t36 -85q0 -49 -36 -85t-85 -36t-85 36t-36 85z" />
<glyph unicode="&#x2000;" horiz-adv-x="768" />
<glyph unicode="&#x2001;" horiz-adv-x="1536" />
<glyph unicode="&#x2002;" horiz-adv-x="768" />
<glyph unicode="&#x2003;" horiz-adv-x="1536" />
<glyph unicode="&#x2004;" horiz-adv-x="512" />
<glyph unicode="&#x2005;" horiz-adv-x="384" />
<glyph unicode="&#x2006;" horiz-adv-x="256" />
<glyph unicode="&#x2007;" horiz-adv-x="256" />
<glyph unicode="&#x2008;" horiz-adv-x="192" />
<glyph unicode="&#x2009;" horiz-adv-x="307" />
<glyph unicode="&#x200a;" horiz-adv-x="85" />
<glyph unicode="&#x2010;" horiz-adv-x="967" d="M86 358v166h680v-166h-680z" />
<glyph unicode="&#x2011;" horiz-adv-x="967" d="M86 358v166h680v-166h-680z" />
<glyph unicode="&#x2012;" horiz-adv-x="967" d="M86 358v166h680v-166h-680z" />
<glyph unicode="&#x2013;" horiz-adv-x="1311" d="M86 358v166h1024v-166h-1024z" />
<glyph unicode="&#x2014;" horiz-adv-x="2335" d="M86 358v166h2048v-166h-2048z" />
<glyph unicode="&#x202f;" horiz-adv-x="307" />
<glyph unicode="&#x205f;" horiz-adv-x="384" />
<glyph unicode="&#x2219;" d="M354 1245l45 82l297 -135l297 135l45 -82l-342 -196z" />
<glyph unicode="&#xe000;" horiz-adv-x="885" d="M0 885h885v-885h-885v885z" />
</font>
</defs>
</svg>
