<?xml version="1.0" standalone="no"?>
<!DOCTYPE svg PUBLIC "-//W3C//DTD SVG 1.1//EN" "http://www.w3.org/Graphics/SVG/1.1/DTD/svg11.dtd" >
<svg xmlns="http://www.w3.org/2000/svg">
<metadata>
This is a custom SVG webfont generated by Font Squirrel.
Copyright   : Copyright C 1994 Basil K Malyshev All Rights Reserved012BaKoMa Fonts Collection LevelB
</metadata>
<defs>
<font id="cmr7Regular" horiz-adv-x="1165" >
<font-face units-per-em="2048" ascent="1638" descent="-410" />
<missing-glyph horiz-adv-x="788" />
<glyph unicode=" "  horiz-adv-x="788" />
<glyph unicode="&#x09;" horiz-adv-x="788" />
<glyph unicode="&#xa0;" horiz-adv-x="788" />
<glyph unicode="!" horiz-adv-x="662" d="M209 123q0 49 36 85t87 36q49 0 85 -36t36 -85q0 -51 -36 -87t-85 -36q-51 0 -87 36t-36 87zM209 1339v11q0 48 37 80t86 32q48 0 84.5 -31.5t36.5 -80.5v-11l-82 -913q0 -10 -7.5 -16.5t-15.5 -6.5h-33q-22 0 -22 23z" />
<glyph unicode="&#x22;" d="M92 1300q0 51 35 86t88 35q79 0 115.5 -69.5t36.5 -155.5q0 -61 -14 -119.5t-37 -107t-59 -96t-83 -87.5q-9 -6 -16 -6q-14 0 -25.5 12.5t-11.5 24.5t8 19q52 42 91.5 99.5t60 124.5t20.5 136v14q-32 -32 -86 -32q-53 0 -88 35t-35 87zM532 1300q0 50 35.5 85.5 t87.5 35.5q79 0 115.5 -69.5t36.5 -155.5q0 -61 -14 -119.5t-37 -107t-59 -96t-83 -87.5q-9 -6 -16 -6q-13 0 -25 12t-12 25q0 12 8 19q52 42 91.5 99.5t60 124.5t20.5 136v14q-32 -32 -86 -32q-52 0 -87.5 35.5t-35.5 86.5z" />
<glyph unicode="#" horiz-adv-x="1921" d="M143 287q0 19 13.5 32.5t33.5 16.5h408l104 350h-512q-20 3 -33.5 16.5t-13.5 34.5q0 42 47 49h543l180 605q18 30 48 30q20 0 34.5 -14.5t14.5 -34.5q0 -7 -0.5 -10.5t-1.5 -7.5l-170 -568h409l180 605q18 30 48 30q20 0 34.5 -14.5t14.5 -34.5q0 -7 -0.5 -10.5 t-1.5 -7.5l-170 -568h377q47 -7 47 -49q0 -21 -13.5 -34.5t-33.5 -16.5h-408l-104 -350h512q20 -3 33.5 -16.5t13.5 -32.5q0 -21 -13.5 -34.5t-33.5 -16.5h-543l-178 -603q-22 -30 -47 -30q-19 0 -35.5 14.5t-16.5 34.5q0 6 4 18l168 566h-409l-178 -603q-22 -30 -48 -30 q-20 0 -35.5 14.5t-15.5 34.5q0 6 4 18l168 566h-377q-20 3 -33.5 16.5t-13.5 34.5zM702 336h410l105 350h-410z" />
<glyph unicode="$" d="M143 379q0 44 29 73t74 29q20 0 39.5 -8t32 -21.5t20.5 -32.5t8 -40q0 -27 -13.5 -50t-36.5 -36.5t-50 -13.5h-10q26 -97 113.5 -156.5t191.5 -59.5v582l-68 14q-138 33 -234 139.5t-96 245.5q0 99 57 192t150 148.5t191 55.5v96h82v-96q107 0 198.5 -45.5t145 -130.5 t53.5 -195q0 -27 -13.5 -50t-36.5 -36.5t-50 -13.5q-44 0 -73.5 29.5t-29.5 70.5q0 44 29 73t74 29h6q-29 85 -116.5 136t-186.5 51v-524q92 -20 154.5 -47.5t119.5 -84.5q58 -57 90.5 -135t32.5 -159v-5q0 -82 -32 -158.5t-91 -133.5q-53 -53 -131 -91t-143 -38v-97h-82v97 q-112 0 -203.5 51.5t-143 143t-51.5 202.5zM268 1106q0 -107 76.5 -165.5t196.5 -88.5v506q-105 -11 -189 -81t-84 -171zM623 63q110 14 191 94t81 187q0 78 -36 135.5t-98.5 94t-137.5 53.5v-564z" />
<glyph unicode="%" horiz-adv-x="1921" d="M143 1124q0 97 39.5 193t116 157.5t176.5 61.5q83 0 156 -61q94 -80 204.5 -123t231.5 -43q128 0 242 53t188 154q17 20 41 20q20 0 34.5 -14.5t14.5 -34.5q0 -13 -8 -29l-1155 -1550q-16 -23 -41 -23q-21 0 -36 15t-15 34q0 13 8 29l997 1340q-129 -60 -268 -60 q-172 0 -338 84q39 -91 39 -203q0 -92 -33 -188t-100 -160.5t-162 -64.5q-100 0 -176.5 61.5t-116 157.5t-39.5 194zM297 1124q0 -130 37 -239t141 -109q71 0 120.5 57t73 139.5t23.5 151.5q0 49 -13 110.5t-38 112.5t-68 87t-98 36q-104 0 -141 -108.5t-37 -237.5z M1149 299q0 97 39.5 192.5t116 157.5t176.5 62q94 0 161 -64.5t100.5 -160.5t33.5 -187q0 -92 -33.5 -188.5t-100.5 -161t-161 -64.5q-100 0 -176.5 62t-116 158t-39.5 194zM1303 299q0 -130 37 -239t141 -109q71 0 121 57.5t73 139t23 151.5q0 49 -13 110.5t-38 112.5 t-68 87t-98 36q-104 0 -141 -108.5t-37 -237.5z" />
<glyph unicode="&#x26;" horiz-adv-x="1796" d="M111 274q0 110 94 201l260 238q-86 205 -86 411q0 87 42.5 165.5t118 125.5t162.5 47q68 0 115.5 -42t70.5 -107t23 -131q0 -94 -81.5 -195.5t-204.5 -216.5q54 -124 148.5 -255t211.5 -261q71 70 136 154.5t141 199.5l51 76q14 21 14 41q0 42 -39.5 59t-85.5 17v82h463 v-82q-186 0 -262 -117l-78 -115q-84 -125 -151.5 -213t-137.5 -155q71 -71 146.5 -115.5t154.5 -44.5q59 0 113.5 26t88.5 73.5t34 107.5h78q0 -82 -44 -148t-117 -103.5t-155 -37.5q-210 0 -405 147q-194 -147 -410 -147q-98 0 -192 35.5t-155.5 107.5t-61.5 172zM305 332 q0 -110 64 -200.5t170 -90.5q170 0 331 115q-79 68 -147 147.5t-128 170t-101 175.5l-91 -82q-98 -92 -98 -235zM535 1180q0 -175 63 -344q104 102 170 185t66 161q0 48 -13 96.5t-43.5 83.5t-77.5 35q-53 0 -90 -33t-56 -83t-19 -101z" />
<glyph unicode="'" horiz-adv-x="662" d="M209 1300q0 51 35 86t88 35t87 -35t49 -85.5t15 -104.5q0 -118 -50 -225.5t-142 -184.5q-9 -6 -17 -6q-13 0 -24.5 12.5t-11.5 24.5t8 19q54 43 93 101t59 124t20 135v14q-33 -32 -86 -32t-88 35t-35 87z" />
<glyph unicode="(" horiz-adv-x="913" d="M231 512q0 150 29.5 295t89.5 277t151.5 246.5t213.5 203.5q3 1 5 1.5t5 0.5h20q10 0 16.5 -7t6.5 -18q0 -13 -8 -18q-102 -88 -176 -200.5t-118.5 -241.5t-65.5 -262.5t-21 -276.5q0 -293 90.5 -552.5t290.5 -430.5q8 -5 8 -18q0 -11 -6.5 -18t-16.5 -7h-20 q-2 1 -4.5 1.5t-5.5 0.5q-161 117 -269.5 279.5t-161.5 351.5t-53 393z" />
<glyph unicode=")" horiz-adv-x="913" d="M143 -489q0 13 9 18q104 89 177 203t117.5 240.5t65 263.5t20.5 276q0 140 -20.5 276.5t-65.5 264t-118.5 241t-175.5 199.5q-9 5 -9 18q0 10 6.5 17.5t16.5 7.5h20q3 0 5.5 -0.5t5.5 -1.5q159 -117 268 -279t162 -351t53 -392q0 -205 -53 -394.5t-162.5 -351.5 t-267.5 -278q-3 0 -5.5 -0.5t-5.5 -1.5h-20q-10 0 -16.5 7.5t-6.5 17.5z" />
<glyph unicode="*" d="M164 909q0 18 9.5 34t27.5 22l307 131l-307 129q-37 12 -37 55q0 28 20 50t47 22q20 0 33 -9l283 -190l-33 315v7q0 26 20.5 43.5t47.5 17.5t47 -17.5t20 -43.5v-7l-33 -315l283 190q13 9 33 9q27 0 47 -21t20 -51q0 -43 -36 -55l-308 -129l308 -131q36 -13 36 -56 q0 -29 -20 -50t-47 -21q-20 0 -33 8l-283 190l33 -315v-6q0 -27 -20 -44.5t-47 -17.5t-47.5 17.5t-20.5 44.5v6l33 315l-283 -190q-13 -8 -33 -8q-27 0 -47 22t-20 49z" />
<glyph unicode="+" horiz-adv-x="1796" d="M143 512q0 42 47 49h658v660q3 20 16.5 33.5t34.5 13.5q42 0 49 -47v-660h656q47 -7 47 -49q0 -21 -13.5 -34.5t-33.5 -16.5h-656v-660q-7 -47 -49 -47q-21 0 -34.5 13.5t-16.5 33.5v660h-658q-20 3 -33.5 16.5t-13.5 34.5z" />
<glyph unicode="," horiz-adv-x="662" d="M209 123q0 51 35 86t88 35q75 0 110 -70t35 -156q0 -117 -49.5 -225.5t-136.5 -183.5q-9 -6 -17 -6q-12 0 -24 12t-12 25q0 10 8 18q79 67 122.5 161.5t43.5 198.5v11q-32 -29 -80 -29q-53 0 -88 35t-35 88z" />
<glyph unicode="-" horiz-adv-x="786" d="M41 367v147h602v-147h-602z" />
<glyph unicode="." horiz-adv-x="662" d="M209 123q0 49 36 85t87 36q49 0 85 -36t36 -85q0 -51 -36 -87t-85 -36q-51 0 -87 36t-36 87z" />
<glyph unicode="/" d="M143 -463q0 5 4 19l777 1949q16 31 47 31q19 0 34 -15t15 -34q0 -7 -0.5 -10.5t-1.5 -8.5l-776 -1949q-21 -31 -47 -31q-20 0 -36 15t-16 34z" />
<glyph unicode="0" d="M104 651q0 300 104 504.5t374 204.5q271 0 374 -204.5t103 -504.5q0 -183 -39.5 -336.5t-145.5 -254.5t-292 -101t-292.5 101t-146 254.5t-39.5 336.5zM299 686q0 -122 6.5 -222t32.5 -202t86 -169.5t158 -67.5q128 0 190.5 109.5t77 246t14.5 305.5q0 162 -14.5 287 t-76.5 223t-191 98q-100 0 -159.5 -60.5t-85 -152t-32 -184t-6.5 -211.5z" />
<glyph unicode="1" d="M219 1147v82q122 0 228.5 29.5t181.5 101.5h37q19 -5 24 -25v-1192q0 -61 283 -61v-82h-740v82q283 0 283 61v1059q-115 -55 -297 -55z" />
<glyph unicode="2" d="M129 0v59q0 9 8 17l365 356q21 22 34 34l35 36q121 121 188.5 225.5t67.5 228.5q0 68 -23 127.5t-64.5 103.5t-98.5 67.5t-125 23.5q-91 0 -166.5 -46.5t-113.5 -127.5h6q49 0 80.5 -32.5t31.5 -80.5q0 -46 -32 -79t-80 -33q-47 0 -80 33t-33 79q0 110 61 194t159 129.5 t202 45.5q124 0 235 -46.5t179.5 -139t68.5 -218.5q0 -91 -41 -169.5t-101 -138.5t-166 -142.5t-138 -110.5l-250 -213h188q77 0 161.5 0.5t148.5 3t69 7.5q18 19 29 68t22 120h78l-61 -381h-844z" />
<glyph unicode="3" d="M111 279q0 50 34 83t84 33q32 0 58.5 -15t42.5 -42t16 -59q0 -49 -33 -84t-80 -35q35 -46 91 -75t119 -40.5t128 -11.5q87 0 144 45.5t83.5 120t26.5 157.5q0 86 -27 159.5t-85 119t-144 45.5h-151q-8 0 -15.5 7.5t-7.5 14.5v21q0 9 7.5 15.5t15.5 6.5l129 9 q106 0 170.5 104.5t64.5 218.5q0 96 -57 155.5t-154 59.5q-84 0 -158 -24.5t-122 -79.5q43 0 72.5 -33.5t29.5 -77.5t-31 -76t-77 -32q-47 0 -79 32t-32 76q0 95 61 159t153.5 94t182.5 30q93 0 189 -30.5t162.5 -95.5t66.5 -157q0 -127 -84 -222t-211 -138 q91 -19 173 -67.5t134 -124t52 -169.5q0 -120 -71.5 -210.5t-183 -138.5t-227.5 -48q-108 0 -212.5 33t-176 106t-71.5 181z" />
<glyph unicode="4" d="M80 336v82l682 928q10 14 29 14h40q13 0 21 -8t8 -21v-913h223v-82h-223v-193q0 -61 221 -61v-82h-624v82q221 0 221 61v193h-598zM168 418h524v715z" />
<glyph unicode="5" d="M129 332q0 44 31 75t76 31t75.5 -30.5t30.5 -75.5q0 -46 -30.5 -77.5t-75.5 -31.5h-9q40 -87 127 -138.5t183 -51.5q106 0 172.5 52t94 136.5t27.5 190.5q0 92 -16 175.5t-66.5 143.5t-142.5 60q-80 0 -133.5 -19.5t-84 -45.5t-58.5 -58t-41 -35h-23q-21 5 -26 26v678 q0 10 7 16.5t17 6.5h8q84 -34 162.5 -50t159.5 -16t160 16t161 50h7q10 0 17 -7t7 -16v-20q0 -8 -6 -14q-80 -92 -192.5 -143.5t-233.5 -51.5q-99 0 -192 25v-375q116 98 284 98q118 0 216.5 -61.5t155 -164.5t56.5 -220q0 -97 -41 -180.5t-112.5 -145t-160 -93.5 t-181.5 -32q-105 0 -200.5 48t-152.5 133.5t-57 191.5z" />
<glyph unicode="6" d="M111 662q0 171 74 333.5t211.5 263.5t312.5 101q120 0 203 -58t83 -176q0 -28 -13.5 -51t-37 -36t-49.5 -13q-43 0 -72.5 28.5t-29.5 71.5q0 38 26.5 69.5t65.5 31.5q-55 65 -176 65q-92 0 -172 -48t-129 -128q-55 -85 -74 -192t-19 -240q44 86 121.5 138t169.5 52 q126 0 228 -60.5t160.5 -164.5t58.5 -229q0 -130 -63.5 -235.5t-172.5 -165.5t-235 -60q-134 0 -227 63t-146 166t-75.5 226t-22.5 248zM322 410q0 -148 62 -262.5t198 -114.5q110 0 169.5 53.5t78 136.5t18.5 197q0 113 -16 195t-73 138t-165 56q-85 0 -147 -51.5 t-93.5 -131.5t-31.5 -163v-41v-12z" />
<glyph unicode="7" d="M143 938l72 446h78v-6q0 -20 22 -32.5t45 -14.5q56 -7 113 -9t113 -2.5t114 -0.5h416v-55q-3 -14 -6 -17l-309 -387q-64 -80 -100 -171.5t-53 -193.5t-21 -199t-4 -235q0 -44 -29 -73t-72 -29q-44 0 -73 29t-29 73q0 148 38 296.5t107.5 283.5t167.5 258l189 238h-238 q-171 0 -287 -2.5t-123 -8.5q-30 -34 -53 -188h-78z" />
<glyph unicode="8" d="M111 315q0 129 88.5 223t220.5 150l-70 41q-79 47 -127.5 122.5t-48.5 162.5q0 103 60 182.5t154 121.5t194 42q94 0 188.5 -34t156.5 -104.5t62 -168.5q0 -106 -71.5 -183t-182.5 -129l117 -69q57 -33 103.5 -82.5t72 -110.5t25.5 -129q0 -118 -68.5 -207t-178 -136.5 t-224.5 -47.5q-113 0 -221 40t-179 121t-71 195zM242 315q0 -84 49.5 -149t128 -99t162.5 -34q128 0 234 63.5t106 182.5q0 59 -37.5 111t-89.5 81l-299 174q-70 -32 -128 -80.5t-92 -111.5t-34 -138zM291 1092q0 -92 104 -154l269 -156q90 47 149 115t59 156 q0 70 -42.5 125.5t-110.5 84.5t-137 29q-65 0 -132 -20.5t-113 -66.5t-46 -113z" />
<glyph unicode="9" d="M111 903q0 98 38 182.5t105.5 147t155 95t184.5 32.5q251 0 355 -209t104 -489q0 -122 -37.5 -247t-112.5 -229t-181 -165.5t-235 -61.5q-133 0 -226 55t-93 179q0 44 29 73t73 29q20 0 39.5 -8t32.5 -21t21 -32.5t8 -40.5q0 -38 -23.5 -66.5t-62.5 -34.5 q35 -34 87 -46.5t115 -12.5q70 0 131.5 32t106.5 85.5t74 121.5q49 125 49 365q-44 -86 -121 -138.5t-170 -52.5q-127 0 -228.5 61t-159.5 166.5t-58 229.5zM315 903q0 -113 16 -196t73 -139t165 -56q86 0 149 52t94.5 132.5t31.5 165.5q0 13 -0.5 21t-1.5 18q1 3 1.5 5 t0.5 5q0 147 -58 264t-192 117q-166 0 -222.5 -105t-56.5 -284z" />
<glyph unicode=":" horiz-adv-x="662" d="M209 123q0 49 36 85t87 36q49 0 85 -36t36 -85q0 -51 -36 -87t-85 -36q-51 0 -87 36t-36 87zM209 762q0 49 36 85t87 36q49 0 85 -36t36 -85q0 -51 -36 -87t-85 -36q-51 0 -87 36t-36 87z" />
<glyph unicode=";" horiz-adv-x="662" d="M209 123q0 51 35 86t88 35q50 0 78.5 -36t38.5 -87.5t10 -102.5q0 -112 -43 -218.5t-123 -188.5q-8 -8 -19 -8q-12 0 -24 12t-12 25q0 10 6 16q70 70 109.5 165.5t39.5 192.5q-25 -14 -61 -14q-53 0 -88 35t-35 88zM209 762q0 49 36 85t87 36q49 0 85 -36t36 -85 q0 -51 -36 -87t-85 -36q-51 0 -87 36t-36 87z" />
<glyph unicode="&#x3c;" horiz-adv-x="662" d="M209 -315l84 915q0 8 6.5 15.5t15.5 7.5h33q9 0 16 -7t7 -16l82 -915v-11q0 -47 -36.5 -79.5t-84.5 -32.5q-49 0 -86 33t-37 79v11zM209 903q0 49 36 85t87 36q49 0 85 -36t36 -85t-36 -86t-85 -37q-51 0 -87 37t-36 86z" />
<glyph unicode="=" horiz-adv-x="1796" d="M143 287q0 19 13.5 32.5t33.5 16.5h1414q20 -3 33.5 -16.5t13.5 -32.5q0 -21 -13.5 -34.5t-33.5 -16.5h-1414q-20 3 -33.5 16.5t-13.5 34.5zM143 737q0 42 47 49h1414q47 -7 47 -49q0 -21 -13.5 -34.5t-33.5 -16.5h-1414q-20 3 -33.5 16.5t-13.5 34.5z" />
<glyph unicode="&#x3e;" horiz-adv-x="1102" d="M143 -139q0 52 14 90t34 61t67 63.5t64 57.5q76 77 117.5 171.5t41.5 197.5v98q0 8 6.5 15.5t16.5 7.5h33q9 0 15.5 -7.5t6.5 -15.5v-102q0 -142 -55 -287q-37 -89 -90 -156q-50 -67 -63 -97.5t-13 -98.5q0 -80 13 -123t52.5 -65.5t116.5 -22.5q96 0 186.5 25.5 t139.5 86.5q-39 3 -64.5 31.5t-25.5 69.5q0 44 29.5 72t72.5 28q26 0 49.5 -13t37 -36t13.5 -51q0 -102 -69.5 -164.5t-170.5 -88.5t-198 -26q-99 0 -184.5 27t-139 90t-53.5 162zM397 903q0 49 37 85t86 36t85 -36t36 -85t-36 -86t-85 -37t-86 37t-37 86z" />
<glyph unicode="?" horiz-adv-x="1102" d="M143 1163q0 91 56.5 154.5t143.5 94t177 30.5q75 0 151.5 -12.5t140.5 -42.5t105 -86t41 -138q0 -63 -32 -118t-88 -91q-81 -50 -143.5 -115t-99 -146.5t-36.5 -170.5v-96q0 -9 -7 -16t-15 -7h-33q-9 0 -16 7t-7 16v100q0 102 33 201t92 178q18 24 52.5 58t57 60.5 t35.5 59.5t13 80q0 125 -56.5 169t-187.5 44q-81 0 -154 -27.5t-112 -84.5q40 0 66 -31t26 -70q0 -28 -13.5 -51t-37 -36t-49.5 -13q-44 0 -73.5 28.5t-29.5 71.5zM397 123q0 49 37 85t86 36t85 -36t36 -85q0 -51 -36 -87t-85 -36t-86 36t-37 87z" />
<glyph unicode="@" horiz-adv-x="1796" d="M143 711q0 150 60.5 284.5t164 234t242.5 156t287 56.5q150 0 287.5 -56t243 -157t164.5 -234.5t59 -283.5q0 -104 -17.5 -205.5t-71.5 -174.5t-153 -73q-74 0 -140.5 34.5t-82.5 98.5q-57 -63 -132.5 -98t-156.5 -35q-123 0 -227 61t-165 165t-61 227t61 227t165 164.5 t227 60.5q95 0 180 -47t142 -129h108q8 0 15.5 -6.5t7.5 -15.5v-533q0 -38 16 -73t51 -35q70 0 105 66t43 146t8 173q0 138 -52.5 259t-145.5 212.5t-217 143.5t-261 52q-136 0 -258 -50.5t-217 -143.5t-148 -213.5t-53 -257.5q0 -182 92.5 -335t248.5 -242t335 -89 q164 0 324 33t309 96q2 1 4 1.5t6 0.5h88q9 0 16 -8t7 -16q0 -18 -13 -21q-113 -48 -240 -82.5t-252.5 -51.5t-248.5 -17q-148 0 -285.5 56t-242.5 156t-165.5 234.5t-60.5 284.5zM614 711q0 -88 32.5 -177.5t97.5 -149.5t153 -60t164 54t119 136v395q-44 83 -119.5 136 t-163.5 53q-132 0 -207.5 -124t-75.5 -263z" />
<glyph unicode="A" horiz-adv-x="1726" d="M92 0v82q188 0 234 117l481 1233q10 28 43 28h24q32 0 44 -28l503 -1289q20 -41 75.5 -51t135.5 -10v-82h-585v82q165 0 165 51q0 5 -0.5 7t-1.5 3l-123 312h-573l-100 -256q-4 0 -4 -23q0 -47 47.5 -70.5t99.5 -23.5v-82h-465zM547 537h510l-256 655z" />
<glyph unicode="B" horiz-adv-x="1634" d="M119 0v82q211 0 211 61v1112q0 62 -211 62v82h807q78 0 167.5 -22t165.5 -65t123.5 -110t47.5 -153q0 -126 -113 -208.5t-254 -109.5q90 0 192 -48t169 -129.5t67 -174.5q0 -119 -77 -205t-193.5 -130t-231.5 -44h-870zM518 143q0 -41 26 -51t81 -10h301q84 0 165 37 t131 105.5t50 154.5q0 63 -24 120.5t-68 101.5t-101.5 68.5t-120.5 24.5h-440v-551zM518 760h346q84 0 166 35t134.5 101.5t52.5 152.5q0 73 -40.5 135.5t-107.5 97.5t-143 35h-301q-55 0 -81 -10t-26 -52v-495z" />
<glyph unicode="C" horiz-adv-x="1669" d="M143 700q0 154 63.5 291t175.5 238t253.5 156t296.5 55q118 0 224.5 -46t189.5 -132l124 170q10 8 17 8h14q9 0 16 -7t7 -16v-545q0 -7 -7.5 -14.5t-15.5 -7.5h-37q-18 0 -22 22q-9 92 -48.5 181t-102.5 157.5t-147.5 108t-180.5 39.5q-188 0 -322 -86t-202 -236 t-68 -336q0 -138 38 -257.5t114 -211t187 -141t255 -49.5q96 0 182 34t154.5 97t106.5 147.5t38 180.5q0 8 8 15t14 7h33q11 0 17 -7.5t6 -18.5q0 -116 -48.5 -214.5t-132.5 -171t-192 -112t-219 -39.5q-152 0 -296 55.5t-255 156t-174.5 237.5t-63.5 292z" />
<glyph unicode="D" horiz-adv-x="1761" d="M115 0v82q211 0 211 61v1112q0 62 -211 62v82h811q142 0 269.5 -57t222 -157t146.5 -229t52 -270q0 -142 -54 -266t-148.5 -218t-221 -148t-266.5 -54h-811zM520 143q0 -41 26 -51t81 -10h241q183 0 301 76.5t173 213t55 314.5q0 140 -27 255t-100 202q-70 84 -176.5 129 t-225.5 45h-241q-55 0 -81 -10t-26 -52v-1112z" />
<glyph unicode="E" horiz-adv-x="1571" d="M111 0v82q211 0 211 61v1112q0 62 -211 62v82h1255l61 -479h-77q-17 138 -47 215.5t-84 116.5t-133.5 52t-225.5 13h-229q-55 0 -81 -10t-26 -52v-487h168q114 0 167.5 15t77.5 65.5t24 159.5h77v-562h-77q0 109 -24 159.5t-77.5 65.5t-167.5 15h-168v-543q0 -41 26 -51 t81 -10h248q155 0 245.5 20t145.5 69t86.5 137.5t56.5 238.5h78l-92 -547h-1288z" />
<glyph unicode="F" horiz-adv-x="1509" d="M111 0v82q211 0 211 61v1112q0 62 -211 62v82h1224l62 -479h-78q-23 179 -67.5 260.5t-133.5 109t-272 27.5h-215q-55 0 -81 -10t-26 -52v-514h162q108 0 162 16t77 66.5t23 157.5h78v-561h-78q0 107 -23 157.5t-77 66t-162 15.5h-162v-516q0 -61 264 -61v-82h-677z" />
<glyph unicode="G" horiz-adv-x="1808" d="M143 700q0 154 63.5 291t175.5 238t253.5 156t296.5 55q79 0 154 -21t142 -62t120 -95l125 170q8 8 16 8h14q9 0 16 -7t7 -16v-545q0 -7 -7.5 -14.5t-15.5 -7.5h-37q-18 0 -22 22q-9 92 -48.5 181t-102.5 157.5t-147.5 108t-180.5 39.5q-189 0 -323.5 -86.5t-202.5 -236 t-68 -335.5q0 -190 72 -340t210.5 -234.5t329.5 -84.5q76 0 154 19.5t132 66.5t54 123v172q0 61 -283 61v82h643v-82q-67 0 -112 -10.5t-45 -50.5v-399q0 -10 -8.5 -16.5t-16.5 -6.5q-18 0 -68 47t-67 72q-59 -88 -178 -124t-256 -36q-152 0 -296 55.5t-255 156 t-174.5 237.5t-63.5 292z" />
<glyph unicode="H" horiz-adv-x="1726" d="M111 0v82q211 0 211 61v1112q0 62 -211 62v82h624v-82q-211 0 -211 -62v-487h676v487q0 62 -211 62v82h625v-82q-211 0 -211 -62v-1112q0 -61 211 -61v-82h-625v82q211 0 211 61v543h-676v-543q0 -61 211 -61v-82h-624z" />
<glyph unicode="I" horiz-adv-x="844" d="M100 0v82q222 0 222 61v1112q0 62 -222 62v82h645v-82q-221 0 -221 -62v-1112q0 -61 221 -61v-82h-645z" />
<glyph unicode="J" horiz-adv-x="1194" d="M127 233q0 49 34 83t85 34q32 0 59 -16t42 -42.5t15 -58.5q0 -29 -14 -57t-39.5 -44.5t-54.5 -16.5q83 -90 229 -90q66 0 115.5 40t75.5 103t26 129v958q0 41 -89 51.5t-185 10.5v82h627v-82q-67 0 -112.5 -10.5t-45.5 -51.5v-964q0 -99 -62 -175.5t-157 -116.5t-193 -40 q-135 0 -245.5 73t-110.5 201z" />
<glyph unicode="K" horiz-adv-x="1790" d="M111 0v82q211 0 211 61v1112q0 62 -211 62v82h624v-82q-211 0 -211 -62v-651l693 596q34 32 34 62q0 27 -22.5 41t-50.5 14v82h469v-82q-84 0 -165 -31t-145 -86l-405 -348l495 -653q40 -52 72 -77t68.5 -32.5t109.5 -7.5v-82h-551v82q45 0 76 9t31 42q0 25 -33 66 l-405 534l-271 -231v-359q0 -61 211 -61v-82h-624z" />
<glyph unicode="L" horiz-adv-x="1446" d="M111 0v82q211 0 211 61v1112q0 62 -211 62v82h677v-82q-93 0 -178.5 -10.5t-85.5 -51.5v-1112q0 -41 26 -51t81 -10h182q121 0 202.5 30t130 89t72.5 143t37 203h78l-61 -547h-1161z" />
<glyph unicode="M" horiz-adv-x="2103" d="M123 0v82q211 0 211 117v1056q0 62 -211 62v82h397q28 0 43 -29l490 -1163l489 1163q14 29 43 29h395v-82q-211 0 -211 -62v-1112q0 -61 211 -61v-82h-602v82q211 0 211 61v1174l-542 -1288q-14 -29 -46 -29q-33 0 -47 29l-534 1267v-1097q0 -117 211 -117v-82h-508z" />
<glyph unicode="N" horiz-adv-x="1726" d="M111 0v82q211 0 211 117v1108q-68 10 -211 10v82h397q12 -4 18 -8l791 -1067v876q0 117 -211 117v82h508v-82q-211 0 -211 -117v-1173q-5 -22 -25 -27h-35q-14 3 -18 10l-917 1235v-1046q0 -117 210 -117v-82h-507z" />
<glyph unicode="O" horiz-adv-x="1796" d="M143 692q0 201 102 373.5t276 273.5t376 101t376 -101t276 -273.5t102 -373.5t-103 -369t-276.5 -266t-374.5 -98q-150 0 -287 56.5t-242 156.5t-165 235t-60 285zM371 727q0 -172 56 -331t175 -260t295 -101q177 0 296 101t174.5 258.5t55.5 332.5q0 127 -32.5 240.5 t-98.5 203.5t-166 142.5t-229 52.5q-128 0 -227 -51.5t-166 -143.5t-100 -207t-33 -237z" />
<glyph unicode="P" horiz-adv-x="1571" d="M115 0v82q211 0 211 61v1112q0 62 -211 62v82h780q120 0 243 -45t206 -134t83 -210q0 -93 -49 -165t-130 -120.5t-175 -73t-178 -24.5h-367v-484q0 -61 211 -61v-82h-624zM520 700h318q178 0 270 69.5t92 240.5q0 115 -42.5 183.5t-122 96t-197.5 27.5h-211 q-55 0 -81 -10t-26 -52v-555z" />
<glyph unicode="Q" horiz-adv-x="1796" d="M143 692q0 201 102 373.5t276 273.5t376 101t376 -101t276 -273.5t102 -373.5q0 -107 -32.5 -210t-93.5 -193.5t-144 -158.5t-187 -112q25 -51 53.5 -93t66.5 -68.5t89 -26.5q79 0 141 49t62 125q7 25 28 25q14 0 21.5 -9t7.5 -24q0 -90 -28.5 -180.5t-90 -151.5 t-155.5 -61q-117 0 -172 80t-91 221l-20 84q-104 -29 -209 -29q-150 0 -287 56.5t-242 156.5t-165 235t-60 285zM362 692q0 -136 37 -262t119 -223t207 -144q-18 34 -18 76q0 74 57.5 124t132.5 50q90 0 148.5 -56t107.5 -153q99 60 160.5 151.5t90 203t28.5 233.5 q0 128 -32 247.5t-99 216.5t-168.5 153.5t-235.5 56.5q-133 0 -235 -57t-168 -153t-99 -216t-33 -248zM772 139q0 -49 37 -77.5t88 -28.5q99 0 186 37q-27 83 -68 130.5t-118 47.5q-49 0 -87 -31t-38 -78z" />
<glyph unicode="R" horiz-adv-x="1698" d="M115 0v82q211 0 211 61v1112q0 62 -211 62v82h684q91 0 191.5 -21.5t194.5 -67t153 -117.5t59 -167q0 -84 -55 -151.5t-136 -111t-166 -67.5q98 -30 166.5 -98t81.5 -164l25 -178q8 -62 21.5 -111.5t44 -84.5t85.5 -35q63 0 97 54t34 122q5 19 27 24h27q24 -6 24 -30 q0 -60 -26.5 -114.5t-75 -88t-107.5 -33.5q-99 0 -185 29.5t-140 94.5t-54 167v178q0 73 -42 127.5t-107.5 83.5t-138.5 29h-277v-525q0 -61 211 -61v-82h-616zM520 733h250q84 0 154 12.5t125 44.5t87.5 90t32.5 146q0 169 -107.5 230t-291.5 61h-143q-55 0 -81 -10 t-26 -52v-522z" />
<glyph unicode="S" horiz-adv-x="1292" d="M143 -18v460q0 8 7.5 15.5t15.5 7.5h33q8 0 15 -8t7 -15q0 -101 38.5 -178t105.5 -126.5t155.5 -73t188.5 -23.5q78 0 147 37.5t111.5 102.5t42.5 143q0 65 -31 122.5t-84 97t-119 54.5l-301 68q-91 21 -167 75.5t-120.5 134t-44.5 171.5q0 113 62.5 203t164 140 t212.5 50q67 0 134 -15.5t125 -47t103 -79.5l86 129q7 13 19 13h14q9 0 15.5 -7.5t6.5 -15.5v-461q0 -6 -7 -14t-15 -8h-33q-18 0 -22 22q-12 121 -65 214.5t-144 144.5t-217 51q-73 0 -143 -32.5t-114 -90.5t-44 -135q0 -62 31.5 -115t83 -88t112.5 -47l301 -67 q93 -21 171 -81t122.5 -146t44.5 -183q0 -115 -60 -213t-161 -153.5t-217 -55.5q-123 0 -234 33t-190 106l-86 -127q-8 -12 -19 -12h-14q-8 0 -15.5 7.5t-7.5 15.5z" />
<glyph unicode="T" horiz-adv-x="1669" d="M98 920l43 479h1385l43 -479h-78q-11 121 -27.5 202t-58.5 121q-47 47 -109 60.5t-151 13.5h-103q-54 0 -80 -10t-26 -52v-1112q0 -40 98.5 -50.5t200.5 -10.5v-82h-801v82q102 0 200.5 10.5t98.5 50.5v1112q0 42 -26 52t-80 10h-105q-88 0 -151 -14t-109 -60 q-40 -39 -57.5 -120.5t-28.5 -202.5h-78z" />
<glyph unicode="U" horiz-adv-x="1726" d="M111 1317v82h624v-82q-211 0 -211 -62v-786q0 -122 40 -218t122.5 -153t206.5 -57q89 0 167.5 32t137 90.5t91 136.5t32.5 169v731q0 117 -211 117v82h504v-82q-211 0 -211 -117v-737q0 -135 -69.5 -252t-187.5 -184.5t-253 -67.5q-142 0 -274.5 64t-214.5 179.5 t-82 260.5v792q0 62 -211 62z" />
<glyph unicode="V" horiz-adv-x="1726" d="M63 1317v82h576v-82q-162 0 -162 -51q1 -3 1.5 -6t0.5 -5l445 -1046l419 991q7 11 7 27q0 47 -44 68.5t-98 21.5v82h453v-82q-76 0 -137.5 -27.5t-89.5 -89.5l-514 -1212q-15 -29 -43 -29h-29q-29 0 -43 29l-539 1267q-20 42 -73 52t-130 10z" />
<glyph unicode="W" horiz-adv-x="2355" d="M59 1317v82h564v-82q-170 0 -170 -51q0 -6 2 -11l358 -1005l324 903l-37 102q-17 42 -65.5 52t-121.5 10v82h564v-82q-170 0 -170 -51v-11l360 -1005l338 950q4 12 4 19q0 51 -56.5 74.5t-117.5 23.5v82h461v-82q-73 0 -129 -27.5t-78 -89.5l-434 -1212q-10 -29 -39 -29 h-23q-29 0 -41 29l-374 1050l-375 -1050q-5 -13 -16 -21t-25 -8h-23q-27 0 -39 29l-454 1267q-18 42 -65.5 52t-121.5 10z" />
<glyph unicode="X" horiz-adv-x="1726" d="M78 0v82q218 0 307 117l377 499l-418 557q-37 42 -93.5 52t-141.5 10v82h589v-82q-35 0 -79 -13t-44 -38q0 -3 2 -6t3 -5l301 -401l262 346q12 15 12 35q0 40 -35 61t-78 21v82h510v-82q-217 0 -307 -117l-313 -416l479 -641q38 -41 94.5 -51t143.5 -10v-82h-592v82 q35 0 79 13t44 38q0 5 -0.5 7t-1.5 3l-365 486l-326 -430q-12 -16 -12 -35q0 -38 35.5 -60t77.5 -22v-82h-510z" />
<glyph unicode="Y" horiz-adv-x="1726" d="M49 1317v82h594v-82q-131 0 -131 -41q0 -10 6 -21l412 -593l375 538q16 22 16 49q0 36 -30 52t-72 16v82h456v-82q-86 0 -156.5 -27.5t-113.5 -89.5l-447 -641v-416q0 -61 213 -61v-82h-618v82q211 0 211 61v416l-483 696q-35 42 -91.5 52t-140.5 10z" />
<glyph unicode="Z" horiz-adv-x="1417" d="M143 29v30q0 10 9 21l876 1237h-311q-121 0 -204 -16.5t-146 -71.5q-115 -109 -115 -309h-78l25 479h1044q13 0 21 -8.5t8 -20.5v-27q0 -9 -6 -18l-877 -1235h326q90 0 150.5 6t122 29t108.5 68q63 63 83.5 149.5t28.5 224.5h78l-37 -567h-1077q-11 0 -20 8t-9 21z" />
<glyph unicode="[" horiz-adv-x="662" d="M279 -512v2048h315v-100h-215v-1848h215v-100h-315z" />
<glyph unicode="\" d="M356 1006q0 118 50.5 225.5t142.5 183.5q9 6 16 6q15 0 26 -11t11 -26q0 -10 -8 -18q-81 -64 -126.5 -160t-45.5 -200v-15q32 33 88 33q51 0 86 -35t35 -86q0 -52 -35.5 -87.5t-85.5 -35.5q-55 0 -89.5 35t-49.5 86t-15 105zM797 1006q0 118 51 226t141 183q9 6 17 6 q14 0 25 -11t11 -26q0 -10 -8 -18q-82 -65 -127 -160t-45 -200v-15q33 33 88 33q51 0 86 -35t35 -86q0 -52 -35.5 -87.5t-85.5 -35.5q-78 0 -115.5 69.5t-37.5 156.5z" />
<glyph unicode="]" horiz-adv-x="662" d="M66 -412h215v1848h-215v100h315v-2048h-315v100z" />
<glyph unicode="^" d="M274 1149l308 272l307 -272l-49 -59l-258 202l-258 -202z" />
<glyph unicode="_" horiz-adv-x="662" d="M209 1260q0 50 36 85t87 35q49 0 85 -35t36 -85q0 -51 -36 -87t-85 -36q-51 0 -87 36t-36 87z" />
<glyph unicode="`" horiz-adv-x="662" d="M178 1006q0 118 50.5 225.5t142.5 183.5q9 6 16 6q15 0 26 -11t11 -26q0 -10 -8 -18q-81 -64 -126.5 -160t-45.5 -200v-15q32 33 88 33q51 0 86 -35t35 -86q0 -52 -35.5 -87.5t-85.5 -35.5q-55 0 -89.5 35t-49.5 86t-15 105z" />
<glyph unicode="a" d="M109 213q0 97 65.5 163.5t166 104t209.5 53t198 15.5v74q0 60 -31.5 112.5t-84.5 82.5t-114 30q-119 0 -188 -27q26 -11 39.5 -35.5t13.5 -54.5q0 -28 -13.5 -51t-37 -36t-49.5 -13q-44 0 -73.5 28.5t-29.5 71.5q0 182 338 182q62 0 135 -18.5t132 -53.5t96 -89t37 -125 v-461q0 -34 18 -62t51 -28q32 0 51 27.5t19 62.5v131h78v-131q0 -79 -66.5 -127.5t-148.5 -48.5q-61 0 -101 45t-47 108q-43 -78 -125.5 -120.5t-177.5 -42.5q-81 0 -164 22t-139.5 74.5t-56.5 136.5zM289 213q0 -51 29.5 -89t75 -58.5t93.5 -20.5q64 0 125 28.5t98.5 81.5 t37.5 119v213q-95 0 -202 -26.5t-182 -88.5t-75 -159z" />
<glyph unicode="b" horiz-adv-x="1292" d="M96 1317v82l316 22v-635q61 56 144.5 86.5t170.5 30.5q93 0 180 -35.5t152 -98.5t102 -146.5t37 -180.5q0 -130 -70 -236.5t-185 -166t-245 -59.5q-57 0 -112.5 16.5t-102.5 47t-88 77.5l-67 -121h-78v1202q0 79 -31.5 97t-122.5 18zM420 213q40 -76 110.5 -122 t151.5 -46q86 0 148 31.5t101 87.5t56 126t17 152q0 105 -27.5 194t-94 145.5t-173.5 56.5q-88 0 -166 -40t-123 -112v-473z" />
<glyph unicode="c" horiz-adv-x="1038" d="M92 442q0 96 39.5 184t108.5 152.5t158 99.5t184 35q148 0 250 -30t102 -140q0 -43 -28.5 -72.5t-71.5 -29.5q-45 0 -74 29t-29 73q0 55 41 82q-59 15 -188 15q-104 0 -171 -57.5t-96.5 -148t-29.5 -192.5t37 -191.5t111.5 -143.5t178.5 -54q65 0 119 24.5t93.5 70 t56.5 106.5q4 16 20 16h33q9 0 15.5 -7t6.5 -17v-6q-25 -84 -80 -142t-132.5 -88t-163.5 -30q-126 0 -239.5 60.5t-182 166.5t-68.5 235z" />
<glyph unicode="d" horiz-adv-x="1292" d="M92 442q0 99 41 184t112.5 147.5t160.5 96t184 33.5q79 0 156 -29t133 -81v409q0 79 -31.5 97t-122.5 18v82l315 22v-1224q0 -55 16 -79.5t45.5 -30t92.5 -5.5v-82l-324 -20v122q-122 -122 -305 -122q-126 0 -235 62t-173.5 167.5t-64.5 232.5zM287 440q0 -167 68.5 -281 t226.5 -114q61 0 115.5 21t99.5 61t73 92v471q-25 43 -67.5 78t-92 52.5t-102.5 17.5q-164 0 -242.5 -114t-78.5 -284z" />
<glyph unicode="e" horiz-adv-x="1038" d="M80 449q0 94 36.5 178.5t102.5 150t152.5 100.5t179.5 35q96 0 172.5 -29t128 -82.5t79 -129t27.5 -172.5q0 -27 -24 -33h-660v-18q0 -172 83 -284t249 -112q94 0 172.5 56.5t104.5 148.5q2 12 24 16h27q24 -7 24 -28q0 -2 -2 -10q-33 -116 -141.5 -186t-232.5 -70 q-128 0 -245 61t-187 168.5t-70 239.5zM276 528h531q0 81 -28.5 155t-86.5 119.5t-141 45.5q-81 0 -143.5 -46.5t-97 -121t-34.5 -152.5z" />
<glyph unicode="f" horiz-adv-x="725" d="M92 801v82h172v239q0 93 52 165.5t137 113.5t176 41q75 0 134.5 -41.5t59.5 -112.5q0 -40 -29 -69t-69 -29t-69 29t-29 69q0 53 41 80q-23 8 -52 8q-61 0 -106 -39t-68.5 -98.5t-23.5 -120.5v-235h260v-82h-252v-658q0 -61 192 -61v-82h-507v82q66 0 109.5 10t43.5 51 v658h-172z" />
<glyph unicode="g" d="M80 -156q0 72 57.5 126t132.5 77q-40 33 -61 80t-21 100q0 94 62 166q-98 87 -98 207q0 135 114 219t254 84q138 0 236 -72q51 45 112.5 69t128.5 24q48 0 83.5 -31.5t35.5 -79.5q0 -28 -21 -49t-48 -21q-29 0 -49.5 21.5t-20.5 50.5q0 16 4 25l2 4q2 6 4.5 9t3.5 5 q-104 0 -188 -65q84 -86 84 -193q0 -92 -54 -160t-138.5 -105.5t-174.5 -37.5q-59 0 -115 14.5t-108 46.5q-27 -37 -27 -79q0 -53 37.5 -92.5t91.5 -39.5h185q131 0 239 -21t184 -88t76 -194q0 -94 -86.5 -153t-204.5 -85t-210 -26q-93 0 -211 26t-204.5 85t-86.5 153z M213 -156q0 -67 64 -110.5t149.5 -63.5t155.5 -20q48 0 109 10.5t121.5 34t99 61t38.5 88.5q0 103 -111.5 130.5t-258.5 27.5h-181q-70 0 -128 -44t-58 -114zM324 600q0 -233 196 -233q195 0 195 233q0 234 -195 234q-196 0 -196 -234z" />
<glyph unicode="h" horiz-adv-x="1292" d="M106 0v82q67 0 110.5 10t43.5 51v1059q0 79 -31.5 97t-122.5 18v82l316 22v-698q31 54 83 95.5t113 63t127 21.5q148 0 231 -65.5t83 -210.5v-484q0 -40 43.5 -50.5t109.5 -10.5v-82h-477v82q67 0 110.5 10t43.5 51v480q0 98 -35 156.5t-127 58.5q-79 0 -147.5 -40 t-109 -108.5t-40.5 -148.5v-398q0 -40 44 -50.5t110 -10.5v-82h-478z" />
<glyph unicode="i" horiz-adv-x="662" d="M111 0v82q66 0 109.5 10t43.5 51v541q0 55 -14 79.5t-42.5 30t-90.5 5.5v82l309 22v-760q0 -41 38.5 -51t100.5 -10v-82h-454zM193 1260q0 50 36 85t86 35q49 0 85 -35t36 -85q0 -51 -36 -87t-85 -36q-50 0 -86 36t-36 87z" />
<glyph unicode="j" horiz-adv-x="725" d="M-63 -248q0 44 29.5 72.5t72.5 28.5q26 0 49.5 -13t37 -36t13.5 -52q0 -59 -47 -88q41 -16 101 -16q79 0 113 80t34 172v784q0 78 -37 96.5t-133 18.5v82l332 22v-1009q0 -84 -43 -155.5t-116.5 -114t-154.5 -42.5q-96 0 -173.5 41.5t-77.5 128.5zM258 1260q0 50 36 85 t87 35q49 0 85 -35t36 -85q0 -51 -36 -87t-85 -36q-51 0 -87 36t-36 87z" />
<glyph unicode="k" horiz-adv-x="1229" d="M96 0v82q67 0 110.5 10t43.5 51v1059q0 79 -31.5 97t-122.5 18v82l316 22v-962l288 225q60 40 60 84q0 13 -12 23t-25 10v82h399v-82q-143 0 -295 -117l-163 -127l286 -358q59 -72 98 -94.5t123 -22.5v-82h-419v82q55 0 55 33q0 28 -45 84l-215 266l-141 -111v-211 q0 -40 43.5 -50.5t109.5 -10.5v-82h-463z" />
<glyph unicode="l" horiz-adv-x="662" d="M111 0v82q66 0 109.5 10t43.5 51v1059q0 79 -31.5 97t-121.5 18v82l315 22v-1278q0 -40 44 -50.5t110 -10.5v-82h-469z" />
<glyph unicode="m" horiz-adv-x="1921" d="M106 0v82q67 0 110.5 10t43.5 51v541q0 79 -31.5 97t-122.5 18v82l310 22v-190q50 90 139 140t190 50q117 0 198 -41t106 -143q49 86 136.5 135t188.5 49q148 0 231 -65.5t83 -210.5v-484q0 -40 43.5 -50.5t109.5 -10.5v-82h-477v82q66 0 110 10.5t44 50.5v480 q0 98 -35 156.5t-127 58.5q-79 0 -147.5 -40t-109 -108.5t-40.5 -148.5v-398q0 -40 43.5 -50.5t109.5 -10.5v-82h-477v82q67 0 110.5 10t43.5 51v480q0 98 -35 156.5t-127 58.5q-79 0 -147.5 -40t-109 -108.5t-40.5 -148.5v-398q0 -40 44 -50.5t110 -10.5v-82h-478z" />
<glyph unicode="n" horiz-adv-x="1292" d="M106 0v82q67 0 110.5 10t43.5 51v541q0 79 -31.5 97t-122.5 18v82l310 22v-190q50 90 139 140t190 50q148 0 231 -65.5t83 -210.5v-484q0 -40 43.5 -50.5t109.5 -10.5v-82h-477v82q67 0 110.5 10t43.5 51v480q0 98 -35 156.5t-127 58.5q-79 0 -147.5 -40t-109 -108.5 t-40.5 -148.5v-398q0 -40 44 -50.5t110 -10.5v-82h-478z" />
<glyph unicode="o" d="M80 434q0 100 39.5 187.5t109.5 153t163 102t190 36.5q130 0 247 -63t185.5 -173.5t68.5 -242.5q0 -100 -41.5 -183t-113 -143.5t-162 -94t-184.5 -33.5q-126 0 -243.5 59t-188 162t-70.5 233zM274 459q0 -185 66 -295.5t242 -110.5t241.5 110.5t65.5 295.5 q0 179 -68.5 284t-238.5 105q-308 0 -308 -389z" />
<glyph unicode="p" horiz-adv-x="1292" d="M96 -315q67 0 110.5 10t43.5 51v979q0 50 -40 62t-114 12v82l316 22v-119q65 59 149 89t174 30q125 0 231.5 -62.5t169 -169t62.5 -229.5q0 -130 -70 -236.5t-185 -166t-245 -59.5q-78 0 -150.5 29.5t-127.5 82.5v-346q0 -40 43.5 -50.5t109.5 -10.5v-82h-477v82z M420 211q39 -74 110 -120t152 -46q96 0 170 59t113 152t39 186q0 67 -19 134t-56.5 125t-94.5 93t-125 35q-86 0 -164.5 -38t-124.5 -109v-471z" />
<glyph unicode="q" horiz-adv-x="1229" d="M92 442q0 130 69.5 235.5t182.5 165.5t242 60q93 0 176 -45.5t137 -126.5l72 172h69v-1157q0 -40 44 -50.5t110 -10.5v-82h-477v82q66 0 109.5 10t43.5 51v369q-58 -64 -137.5 -99.5t-165.5 -35.5q-126 0 -236 62t-174.5 167.5t-64.5 232.5zM287 440q0 -88 34 -180.5 t101 -153.5t160 -61q97 0 176.5 60t120.5 155v332q-17 65 -55.5 118.5t-94 86t-121.5 32.5q-96 0 -169.5 -57.5t-112.5 -147.5t-39 -184z" />
<glyph unicode="r" horiz-adv-x="913" d="M96 0v82q67 0 110.5 10t43.5 51v541q0 79 -31.5 97t-122.5 18v82l301 22v-207q38 90 109 148.5t164 58.5q64 0 114 -36.5t50 -98.5q0 -40 -29 -69t-68 -29q-40 0 -69 29t-29 69q0 41 29 70q-85 0 -143.5 -57.5t-85.5 -143.5t-27 -168v-326q0 -61 192 -61v-82h-508z" />
<glyph unicode="s" horiz-adv-x="926" d="M92 2v311q0 7 8 15t15 8h32q19 0 23 -17q28 -127 100 -200.5t193 -73.5q100 0 174 39t74 129q0 46 -27.5 79.5t-68 53.5t-89.5 31l-170 29q-104 20 -184 84.5t-80 164.5q0 73 32.5 124t87 80t117.5 41.5t134 12.5q121 0 203 -53l63 51q3 1 5 1.5t5 0.5h15q8 0 15 -7 t7 -15v-248q0 -6 -7 -14t-15 -8h-33q-8 0 -15.5 7.5t-7.5 14.5q0 69 -31 117t-84.5 72t-121.5 24q-96 0 -171 -30t-75 -111q0 -57 53.5 -89t120.5 -44l168 -31q72 -14 134.5 -51.5t102.5 -97t40 -132.5q0 -150 -107 -220t-264 -70q-145 0 -242 86l-78 -80q-6 -6 -14 -6h-14 q-7 0 -15 8t-8 14z" />
<glyph unicode="t" horiz-adv-x="913" d="M59 801v65q93 0 156.5 61.5t93 152t29.5 180.5h78v-377h315v-82h-315v-551q0 -81 30.5 -139t106.5 -58q46 0 77 30.5t45.5 75.5t14.5 91v121h78v-125q0 -66 -29 -127.5t-83 -100t-121 -38.5q-128 0 -208.5 69.5t-80.5 196.5v555h-187z" />
<glyph unicode="u" horiz-adv-x="1292" d="M106 799v82l324 22v-653v-6q0 -82 15 -124t56.5 -58.5t125.5 -16.5q74 0 134 41t94 107t34 139v352q0 79 -31.5 97t-122.5 18v82l324 22v-706q0 -56 15.5 -80t45 -29.5t92.5 -5.5v-82l-315 -20v165q-32 -53 -74.5 -89t-97 -56t-113.5 -20q-352 0 -352 264v440 q0 79 -31.5 97t-122.5 18z" />
<glyph unicode="v" horiz-adv-x="1229" d="M63 801v82h443v-82q-103 0 -103 -43q0 -13 3 -19l253 -561l228 506q10 20 10 43q0 33 -24.5 53.5t-59.5 20.5v82h350v-82q-64 0 -114 -30t-76 -87l-303 -676q-14 -28 -45 -28h-23q-31 0 -45 28l-330 731q-21 43 -59 52.5t-105 9.5z" />
<glyph unicode="w" horiz-adv-x="1669" d="M61 801v82h433v-82q-111 0 -111 -47q0 -3 4 -15l209 -536l197 499q-9 21 -9 29t-8 8q-18 43 -52.5 52.5t-96.5 9.5v82h409v-82q-110 0 -110 -47q0 -9 2 -15l221 -567l201 512q6 15 6 31q0 41 -33 63.5t-74 22.5v82h357v-82q-60 0 -105.5 -31t-66.5 -86l-265 -676 q-10 -28 -43 -28h-20q-32 0 -43 28l-229 586l-230 -586q-10 -28 -43 -28h-20q-32 0 -43 28l-287 731q-18 42 -52.5 52t-97.5 10z" />
<glyph unicode="x" horiz-adv-x="1229" d="M51 0v82q164 0 275 117l209 233l-267 307q-40 43 -83.5 52.5t-121.5 9.5v82h439v-82q-56 0 -56 -39q0 -9 9 -23l174 -200l129 145q33 38 33 72q0 18 -11 31.5t-28 13.5v82h385v-82q-164 0 -275 -117l-182 -205l291 -336q29 -29 58.5 -42t62 -16t84.5 -3v-82h-437v82 q19 0 36.5 10t17.5 29q0 14 -9 22l-198 230l-156 -174q-33 -38 -33 -72q0 -19 12 -32t29 -13v-82h-387z" />
<glyph unicode="y" horiz-adv-x="1229" d="M61 -244q0 40 27 66t68 26q40 0 66 -26t26 -66q0 -30 -15.5 -53t-42.5 -35q38 -20 78 -20q50 0 94 26t76.5 68.5t55.5 91.5l77 166l-342 739q-22 43 -60 52.5t-106 9.5v82h445v-82q-102 0 -102 -43q1 -6 1.5 -11t0.5 -8l251 -544l226 489q10 20 10 43q0 33 -24.5 53.5 t-57.5 20.5v82h350v-82q-64 0 -114.5 -30.5t-77.5 -86.5l-391 -850q-50 -108 -129 -180t-183 -72q-79 0 -143 48.5t-64 125.5z" />
<glyph unicode="z" horiz-adv-x="1038" d="M80 29v20q0 12 8 21l617 747h-187q-124 0 -192 -19.5t-103 -81t-35 -184.5h-77l24 351h758q12 0 20.5 -8t8.5 -21v-14q0 -13 -7 -21l-616 -745h199q96 0 159.5 10.5t112.5 54.5q41 40 56.5 105.5t23.5 161.5h78l-37 -406h-782q-13 0 -21 8t-8 21z" />
<glyph unicode="{" d="M16 512v66h1131v-66h-1131z" />
<glyph unicode="|" horiz-adv-x="2331" d="M33 512v66h2265v-66h-2265z" />
<glyph unicode="}" d="M297 1081l125 299q9 23 29.5 38.5t44.5 15.5q37 0 65.5 -25.5t28.5 -60.5q0 -28 -23 -56l-202 -250zM676 1081l125 299q21 54 73 54q38 0 66.5 -25t28.5 -61q0 -28 -23 -56l-203 -250z" />
<glyph unicode="~" d="M205 1214l74 78q82 86 165 86q35 0 69.5 -11t89 -34t82.5 -32t60 -9q84 0 166 86l47 -45l-73 -78q-82 -86 -166 -86q-32 0 -57.5 8t-82 32t-91 35t-70.5 11q-85 0 -166 -86z" />
<glyph unicode="&#xa1;" horiz-adv-x="1446" d="M111 0v82q211 0 211 61v1112q0 62 -211 62v82h1161l61 -479h-78q-16 131 -41 206t-70.5 117t-121.5 58t-209 16h-182q-55 0 -81 -10t-26 -52v-1112q0 -61 264 -61v-82h-677z" />
<glyph unicode="&#xa2;" horiz-adv-x="1921" d="M125 18q0 9 2 11l770 1403q16 28 49 28h27q33 0 49 -28l770 -1403q2 -2 2 -11q0 -18 -18 -18h-1633q-18 0 -18 18zM301 176h1180l-590 1073z" />
<glyph unicode="&#xa3;" horiz-adv-x="1796" d="M143 692q0 201 102 373.5t276 273.5t376 101t376 -101t276 -273.5t102 -373.5t-103 -369t-276.5 -266t-374.5 -98q-150 0 -287 56.5t-242 156.5t-165 235t-60 285zM356 692q0 -170 60.5 -322.5t183.5 -246.5t297 -94q134 0 236 55t171 151.5t101.5 213.5t32.5 243 q0 171 -59.5 328.5t-182.5 255.5t-299 98t-299 -98t-182.5 -255.5t-59.5 -328.5zM485 545v315h78v-69h668v69h78v-315h-78v69h-668v-69h-78z" />
<glyph unicode="&#xa4;" horiz-adv-x="1599" d="M92 0v82q73 0 129 28.5t78 88.5l446 1233q12 28 41 28h27q30 0 41 -28l467 -1289q19 -41 66.5 -51t119.5 -10v-82h-571v82q170 0 170 51q0 6 -2 10l-369 1020l-348 -964q-4 -12 -4 -21q0 -49 49 -72.5t103 -23.5v-82h-443z" />
<glyph unicode="&#xa5;" horiz-adv-x="1544" d="M111 360h77q3 -38 6.5 -79t8.5 -67t16 -38q14 -14 266 -14h572q69 0 126 1t95 3.5t45 9.5q14 15 20 58.5t11 125.5h78l-19 -360h-1284zM123 1061l18 338h1260l18 -338h-78q-10 141 -28 164q-15 12 -262 12h-559q-248 0 -263 -12q-18 -23 -28 -164h-78zM332 541v374h78 v-106h723v106h77v-374h-77v106h-723v-106h-78z" />
<glyph unicode="&#xa6;" horiz-adv-x="1726" d="M111 0v82q211 0 211 61v1112q0 62 -211 62v82h1503v-82q-211 0 -211 -62v-1112q0 -61 211 -61v-82h-625v82q211 0 211 61v1174h-676v-1174q0 -61 211 -61v-82h-624z" />
<glyph unicode="&#xa7;" horiz-adv-x="1669" d="M143 29q0 12 9 20l550 567l-550 711l-6 5q-2 3 -2 5t-1 6v31q5 20 27 25h1292l62 -479h-78q-19 145 -67.5 227.5t-124 118t-167 43.5t-258.5 8h-413l465 -598q6 -9 6 -19q0 -14 -6 -20l-559 -574h505q168 0 262 9t169 44.5t123 118t65 226.5h78l-62 -504h-1292 q-27 7 -27 29z" />
<glyph unicode="&#xa8;" horiz-adv-x="1796" d="M143 1118q0 84 39.5 157.5t109 119t152.5 45.5q130 0 224.5 -74t150 -190t78.5 -246q17 90 51.5 180.5t91 166.5t134 119.5t176.5 43.5q84 0 153 -45t108.5 -119.5t39.5 -157.5q0 -11 -9 -19.5t-20 -8.5h-25q-11 0 -19.5 8.5t-8.5 19.5q0 53 -34 86.5t-85.5 49.5 t-99.5 16q-128 0 -206.5 -91t-111.5 -222t-33 -257v-557q0 -61 265 -61v-82h-732v82q265 0 265 61v557q0 128 -33 258t-112 221t-208 91q-48 0 -99.5 -16t-85.5 -49.5t-34 -86.5q0 -11 -8.5 -19.5t-19.5 -8.5h-25q-10 0 -19.5 8.5t-9.5 19.5z" />
<glyph unicode="&#xa9;" horiz-adv-x="1669" d="M143 700q0 88 60 164t153 129.5t193 82t184 28.5v151q0 41 -85 51.5t-179 10.5v82h717v-82q-264 0 -264 -62v-149q85 0 187 -27.5t197.5 -80.5t156.5 -129.5t61 -168.5q0 -119 -100.5 -212.5t-242.5 -144t-259 -50.5v-150q0 -61 264 -61v-82h-717v82q264 0 264 61v152 q-79 0 -181.5 29t-196 82t-153 129.5t-59.5 164.5zM362 700q0 -76 28 -143t85 -108q94 -69 258 -89v678q-163 -18 -258 -88q-39 -27 -64.5 -68t-37 -89t-11.5 -93zM922 360q172 16 270 89q58 42 85.5 108t27.5 143q0 78 -28 144t-85 106q-99 74 -270 88v-678z" />
<glyph unicode="&#xaa;" horiz-adv-x="1796" d="M143 1087v15q5 19 27 24h137q94 0 138 -89.5t44 -194.5q0 -116 30 -214.5t98.5 -169t179.5 -91.5v888q0 41 -85.5 51.5t-179.5 10.5v82h717v-82q-93 0 -178.5 -10.5t-85.5 -51.5v-890q169 32 244.5 162t75.5 315q0 105 45 194.5t139 89.5h137q20 -6 25 -24v-15 q-5 -20 -25 -26q-72 0 -102.5 -70.5t-30.5 -154.5q0 -242 -143 -385q-68 -67 -172 -111.5t-193 -44.5v-152q0 -61 264 -61v-82h-717v82q265 0 265 61v152q-115 12 -206.5 54t-156 111.5t-99 165t-34.5 210.5q0 48 -12 101t-42 88.5t-77 35.5q-22 5 -27 26z" />
<glyph unicode="&#xad;" horiz-adv-x="1669" d="M117 352h78q28 -134 35 -156t39.5 -32t133.5 -10h134q-29 91 -107.5 203.5t-140.5 199t-104 177.5t-42 198q0 122 64 218.5t166.5 160.5t223.5 96.5t237 32.5t237 -32.5t224 -96.5t166 -160.5t63 -218.5q0 -134 -52.5 -226t-179.5 -267.5t-162 -284.5h134q101 0 133.5 10 t41 35.5t34.5 152.5h77l-73 -352h-404q-26 6 -26 33q0 135 62.5 292.5t124.5 315t62 291.5q0 97 -35.5 180.5t-97.5 141t-147 89t-182 31.5t-181.5 -31t-148 -90t-98.5 -141.5t-35 -179.5q0 -103 31 -201.5t92.5 -240t94 -245t32.5 -212.5q0 -27 -25 -33h-406z" />
<glyph unicode="&#xae;" horiz-adv-x="1386" d="M78 801v82h172v239q0 108 87 180.5t208 106t229 33.5q181 0 252 -88q107 88 252 88q74 0 134.5 -41.5t60.5 -112.5q0 -41 -28.5 -69.5t-70.5 -28.5q-40 0 -69 29t-29 69q0 56 41 80q-23 8 -53 8q-91 0 -145 -81.5t-54 -176.5v-235h262v-82h-254v-658q0 -61 193 -61v-82 h-508v82q66 0 109.5 10t43.5 51v658h-499v-658q0 -40 43.5 -50.5t109.5 -10.5v-82h-469v82q67 0 110.5 10t43.5 51v658h-172zM403 883h508v239q0 17 4 49q-51 27 -51 89t54 88q-61 28 -166 28q-79 0 -160.5 -30t-135 -88t-53.5 -140v-235z" />
<glyph unicode="&#xaf;" horiz-adv-x="1323" d="M78 801v82h172v239q0 108 88 180.5t210.5 106t231.5 33.5q69 0 135.5 -24t110 -73.5t43.5 -119.5q0 -44 -29.5 -74.5t-74.5 -30.5q-44 0 -74.5 30.5t-30.5 74.5q0 36 21.5 64.5t54.5 37.5q-71 49 -178 49q-81 0 -163.5 -30t-137 -88.5t-54.5 -139.5v-235h355l315 24v-764 q0 -40 44 -50.5t110 -10.5v-82h-469v82q66 0 109.5 10t43.5 51v547q0 55 -11.5 79.5t-57.5 31.5h-430v-658q0 -40 43.5 -50.5t109.5 -10.5v-82h-469v82q67 0 110.5 10t43.5 51v658h-172z" />
<glyph unicode="&#xb0;" horiz-adv-x="1323" d="M78 801v82h172v239q0 108 87 180.5t208 106t229 33.5q132 0 205 -33l94 12v-1278q0 -40 44 -50.5t110 -10.5v-82h-469v82q66 0 109.5 10t43.5 51v658h-499v-658q0 -40 43.5 -50.5t109.5 -10.5v-82h-469v82q67 0 110.5 10t43.5 51v658h-172zM403 883h508v319 q-47 30 -47 86q0 48 37 76q-49 12 -147 12q-80 0 -162 -30t-135.5 -88t-53.5 -140v-235z" />
<glyph unicode="&#xb1;" horiz-adv-x="1987" d="M78 801v82h172v239q0 108 87 180.5t208 106t229 33.5q80 0 150 -29.5t108 -87.5q159 117 410 117q69 0 135.5 -24t110 -73.5t43.5 -119.5q0 -44 -30.5 -74.5t-74.5 -30.5q-43 0 -73.5 30.5t-30.5 74.5q0 36 20.5 64.5t54.5 37.5q-35 25 -80.5 37t-97.5 12 q-80 0 -162.5 -30t-137 -88.5t-54.5 -139.5v-235h354l316 24v-764q0 -40 43.5 -50.5t109.5 -10.5v-82h-469v82q67 0 110.5 10t43.5 51v547q0 55 -11.5 79.5t-58.5 31.5h-430v-658q0 -40 44 -50.5t110 -10.5v-82h-469v82q66 0 109.5 10t43.5 51v658h-499v-658 q0 -40 43.5 -50.5t109.5 -10.5v-82h-469v82q67 0 110.5 10t43.5 51v658h-172zM403 883h508v239v8q-27 14 -43 40t-16 55q0 36 21.5 64.5t56.5 37.5q-71 49 -176 49q-80 0 -162 -30t-135.5 -88t-53.5 -140v-235z" />
<glyph unicode="&#xb2;" horiz-adv-x="1987" d="M78 801v82h172v239q0 108 87 180.5t208 106t229 33.5q56 0 106.5 -9.5t94 -34t67.5 -65.5q154 109 394 109q132 0 204 -33l95 12v-1278q0 -40 43.5 -50.5t109.5 -10.5v-82h-469v82q67 0 110.5 10t43.5 51v658h-500v-658q0 -40 44 -50.5t110 -10.5v-82h-469v82 q66 0 109.5 10t43.5 51v658h-499v-658q0 -40 43.5 -50.5t109.5 -10.5v-82h-469v82q67 0 110.5 10t43.5 51v658h-172zM403 883h508v239q0 27 7 49q-54 28 -54 89q0 62 54 88q-58 28 -164 28q-80 0 -162 -30t-135.5 -88t-53.5 -140v-235zM1065 883h508v319q-47 29 -47 86 q0 49 37 76q-50 12 -148 12q-81 0 -162 -30t-134.5 -88t-53.5 -140v-235z" />
<glyph unicode="&#xb3;" horiz-adv-x="662" d="M111 0v82q66 0 109.5 10t43.5 51v541q0 55 -14 79.5t-42.5 30t-90.5 5.5v82l309 22v-760q0 -41 38.5 -51t100.5 -10v-82h-454z" />
<glyph unicode="&#xb4;" horiz-adv-x="725" d="M-63 -248q0 44 29.5 72.5t72.5 28.5q26 0 49.5 -13t37 -36t13.5 -52q0 -59 -47 -88q41 -16 101 -16q79 0 113 80t34 172v784q0 78 -37 96.5t-133 18.5v82l332 22v-1009q0 -84 -43 -155.5t-116.5 -114t-154.5 -42.5q-96 0 -173.5 41.5t-77.5 128.5z" />
<glyph unicode="&#xb5;" d="M258 1339q0 35 27 64t63 29q29 0 58 -27l278 -313l-53 -58l-334 240q-39 24 -39 65z" />
<glyph unicode="&#xb6;" d="M479 1092l275 307q29 33 61 33q36 0 63 -29t27 -64q0 -41 -39 -65l-334 -240z" />
<glyph unicode="&#xb8;" d="M236 1421h65q0 -74 39 -135.5t103.5 -97t138.5 -35.5q73 0 137.5 35.5t103.5 97t39 135.5h66q0 -72 -25 -137.5t-72.5 -118.5t-111 -82.5t-137.5 -29.5t-137 29.5t-110 81t-73 118.5t-26 139z" />
<glyph unicode="&#xb9;" d="M174 1130v87h815v-87h-815z" />
<glyph unicode="&#xba;" horiz-adv-x="1726" d="M635 1284q0 54 33.5 94.5t87.5 62t106 21.5q53 0 106.5 -21.5t87.5 -62t34 -94.5q0 -81 -71 -130.5t-157 -49.5q-85 0 -156 49.5t-71 130.5zM713 1284q0 -68 38.5 -91.5t110.5 -23.5q73 0 111.5 23.5t38.5 91.5q0 66 -38.5 89.5t-111.5 23.5q-72 0 -110.5 -23.5 t-38.5 -89.5z" />
<glyph unicode="&#xbb;" horiz-adv-x="1038" d="M307 -356q379 0 379 106q0 61 -58 85t-130 24v100h170v-47q188 -34 188 -162q0 -60 -61.5 -95.5t-149.5 -51.5t-172 -20.5t-166 -4.5v66z" />
<glyph unicode="&#xbc;" d="M96 0v82q67 0 110.5 10t43.5 51v658h-154v82h154v266q0 88 58 156t146.5 102.5t176.5 34.5q68 0 134.5 -18.5t125.5 -56.5t94 -95t35 -125q0 -105 -78 -184.5t-188 -116.5q98 -40 172.5 -115t115.5 -173t41 -206q0 -104 -55 -189.5t-147 -134t-197 -48.5 q-78 0 -142.5 43.5t-64.5 119.5q0 34 24 58t58 24t58 -24t24 -58q0 -51 -43 -73q37 -25 86 -25q76 0 125.5 45.5t72.5 115.5t23 146q0 84 -19.5 165t-63 150t-109 109.5t-152.5 40.5q-6 0 -14 8t-8 15v20q0 8 7.5 15.5t14.5 7.5q120 0 200.5 71.5t80.5 192.5q0 99 -56 164 t-155 65t-159 -66t-60 -165v-1145h-316z" />
<glyph unicode="&#xbd;" horiz-adv-x="1669" d="M115 205q0 119 109.5 190.5t254.5 99t271 27.5v101q0 60 -32 112.5t-85 82.5t-113 30q-56 0 -104 -6t-86 -21q26 -11 39.5 -35.5t13.5 -54.5q0 -28 -13.5 -51t-37 -36t-49.5 -13q-44 0 -73.5 28.5t-29.5 71.5q0 110 102.5 146t237.5 36q103 0 199 -37.5t151 -111.5 q45 48 98.5 81t113.5 50.5t124 17.5q92 0 164.5 -30.5t120 -85t72 -130.5t24.5 -167q0 -27 -24 -33h-643v-18q0 -108 38 -197.5t115.5 -144t186.5 -54.5q87 0 157.5 58.5t93.5 146.5q9 13 25 16h27q24 -7 24 -28q0 -2 -2 -10q-21 -78 -73.5 -135.5t-123 -89t-149.5 -31.5 q-109 0 -208.5 44.5t-170.5 125.5q-36 -60 -100.5 -99t-138 -55t-152.5 -16q-134 0 -244 52.5t-110 172.5zM295 205q0 -70 60.5 -115t133.5 -45q67 0 134 27t110 79t43 121q0 11 -0.5 18t-1.5 15q-24 67 -24 144v10q-156 0 -305.5 -62t-149.5 -192zM924 528h512 q0 126 -56.5 223t-173.5 97q-79 0 -144 -47t-101.5 -121.5t-36.5 -151.5z" />
<glyph unicode="&#xbe;" horiz-adv-x="1796" d="M80 449q0 128 66.5 235t179 168t239.5 61q116 0 221.5 -52.5t171.5 -145.5q60 91 162 144.5t213 53.5q92 0 164.5 -30.5t120 -85t72 -130.5t24.5 -167q0 -27 -24 -33h-646v-16q0 -109 38.5 -199.5t117 -144.5t186.5 -54q88 0 158.5 58.5t93.5 146.5q2 11 25 16h27 q24 -7 24 -28q0 -2 -2 -10q-30 -115 -128.5 -185.5t-219.5 -70.5q-120 0 -228 53t-175 149q-46 -64 -108 -108.5t-135.5 -69t-152.5 -24.5q-96 0 -183 35t-156.5 100.5t-107.5 151.5t-38 182zM260 459q0 -106 29.5 -200.5t97.5 -154t178 -59.5q109 0 178.5 59.5t100 152.5 t30.5 202q0 79 -17 147t-54 123t-97.5 87t-140.5 32q-106 0 -174.5 -54.5t-99.5 -143t-31 -191.5zM1049 528h514q0 77 -24 151t-75 121.5t-131 47.5t-145 -46.5t-102 -121.5t-37 -152z" />
<glyph unicode="&#xbf;" d="M88 434q0 100 39 186.5t108 152.5t159 103t188 37q121 0 227 -53l154 240l55 -37l-152 -238q62 -42 110 -105t73.5 -136.5t25.5 -149.5q0 -96 -40.5 -180.5t-110 -145.5t-159.5 -94.5t-183 -33.5q-122 0 -226 49l-155 -246l-56 37l154 241q-95 61 -153 161.5t-58 211.5z M258 434q0 -95 19 -170.5t71 -128.5l420 658q-81 55 -186 55q-119 0 -192 -55.5t-102.5 -149t-29.5 -209.5zM399 94q80 -49 183 -49q323 0 323 389q0 66 -6.5 120t-26 105t-55.5 91z" />
<glyph unicode="&#xc0;" horiz-adv-x="2075" d="M94 0v82q188 0 236 117l450 1116q-53 2 -162 2v82h1252l61 -479h-78q-16 129 -39 203t-66 116.5t-118.5 60t-202.5 17.5h-174q-54 0 -80 -10t-26 -52v-542h158q81 0 127.5 8.5t75 33t40 70.5t11.5 127h77v-561h-77q0 105 -21.5 155.5t-72.5 67.5t-160 17h-158v-488 q0 -41 26 -51t80 -10h193q183 0 273 44.5t128 137t70 283.5h78l-92 -547h-1104v82q67 0 112 10t45 51v488h-364l-174 -432q-1 -4 -2.5 -11.5t-1.5 -13.5q0 -48 45 -70t98 -22v-82h-463zM625 713h331v542q0 30 -27.5 43t-60.5 13z" />
<glyph unicode="&#xc1;" horiz-adv-x="2327" d="M172 692q0 201 102 373.5t276 273.5t376 101q61 0 172.5 -20.5t169.5 -20.5h854l61 -479h-78q-16 131 -40.5 205.5t-71.5 117t-123 58.5t-209 16h-199q-54 0 -80 -10t-26 -52v-487h198q119 0 175.5 13t85 64t28.5 163h78v-562h-78q0 112 -28.5 163t-85 64t-175.5 13h-198 v-543q0 -41 26 -51t80 -10h217q144 0 230 23.5t134.5 76t74 134t51.5 231.5h78l-93 -547h-886q-63 0 -174.5 -20.5t-167.5 -20.5q-201 0 -374.5 98t-276.5 266t-103 369zM391 727q0 -115 35 -239.5t103.5 -230t170 -169t226.5 -63.5q71 0 125.5 16t81.5 63q30 53 37.5 141.5 t7.5 221.5v465q0 133 -7.5 221t-37.5 141q-27 48 -81.5 64t-125.5 16q-159 0 -281.5 -95t-188 -245t-65.5 -307z" />
<glyph unicode="&#xc2;" horiz-adv-x="1796" d="M143 692q0 201 102 373.5t276 273.5t376 101q222 0 410 -121l147 203l59 -45l-147 -199q87 -69 152 -163t99 -203t34 -220q0 -201 -103 -369t-276.5 -266t-374.5 -98q-224 0 -412 119l-145 -201l-59 45l145 197q-66 53 -118.5 117.5t-89.5 139t-56 156t-19 160.5z M346 692q0 -318 143 -487l762 1038q-146 131 -354 131q-119 0 -229 -49.5t-185 -142.5q-75 -92 -106 -217.5t-31 -272.5zM543 154q71 -62 162.5 -95.5t191.5 -33.5q121 0 230.5 49t183.5 139q75 92 106 212.5t31 266.5q0 327 -145 498z" />
<glyph unicode="&#xc3;" horiz-adv-x="662" d="M72 653l522 150l22 -78l-522 -152z" />
<glyph unicode="&#xc4;" d="M248 1266q0 47 34.5 80.5t79.5 33.5q48 0 81.5 -33.5t33.5 -80.5q0 -48 -33.5 -81.5t-81.5 -33.5q-45 0 -79.5 33.5t-34.5 81.5zM686 1266q0 47 34.5 80.5t80.5 33.5t80 -34t34 -80q0 -47 -34 -81t-80 -34t-80.5 33.5t-34.5 81.5z" />
<glyph unicode="&#x2000;" horiz-adv-x="768" />
<glyph unicode="&#x2001;" horiz-adv-x="1536" />
<glyph unicode="&#x2002;" horiz-adv-x="768" />
<glyph unicode="&#x2003;" horiz-adv-x="1536" />
<glyph unicode="&#x2004;" horiz-adv-x="512" />
<glyph unicode="&#x2005;" horiz-adv-x="384" />
<glyph unicode="&#x2006;" horiz-adv-x="256" />
<glyph unicode="&#x2007;" horiz-adv-x="256" />
<glyph unicode="&#x2008;" horiz-adv-x="192" />
<glyph unicode="&#x2009;" horiz-adv-x="307" />
<glyph unicode="&#x200a;" horiz-adv-x="85" />
<glyph unicode="&#x2010;" horiz-adv-x="786" d="M41 367v147h602v-147h-602z" />
<glyph unicode="&#x2011;" horiz-adv-x="786" d="M41 367v147h602v-147h-602z" />
<glyph unicode="&#x2012;" horiz-adv-x="786" d="M41 367v147h602v-147h-602z" />
<glyph unicode="&#x2013;" horiz-adv-x="1208" d="M41 367v147h1024v-147h-1024z" />
<glyph unicode="&#x2014;" horiz-adv-x="2232" d="M41 367v147h2048v-147h-2048z" />
<glyph unicode="&#x202f;" horiz-adv-x="307" />
<glyph unicode="&#x205f;" horiz-adv-x="384" />
<glyph unicode="&#x2219;" d="M279 1253l40 66l263 -137l262 137l41 -66l-303 -200z" />
<glyph unicode="&#xe000;" horiz-adv-x="885" d="M0 885h885v-885h-885v885z" />
</font>
</defs>
</svg>
