<?xml version="1.0" standalone="no"?>
<!DOCTYPE svg PUBLIC "-//W3C//DTD SVG 1.1//EN" "http://www.w3.org/Graphics/SVG/1.1/DTD/svg11.dtd" >
<svg xmlns="http://www.w3.org/2000/svg">
<metadata>
This is a custom SVG webfont generated by Font Squirrel.
Copyright   : Copyright C 1994 Basil K Malyshev All Rights Reserved012BaKoMa Fonts Collection LevelB
</metadata>
<defs>
<font id="cmsl10Regular" horiz-adv-x="1024" >
<font-face units-per-em="2048" ascent="1638" descent="-410" />
<missing-glyph horiz-adv-x="682" />
<glyph unicode=" "  horiz-adv-x="682" />
<glyph unicode="&#x09;" horiz-adv-x="682" />
<glyph unicode="&#xa0;" horiz-adv-x="682" />
<glyph unicode="!" horiz-adv-x="567" d="M190 98q0 50 39.5 88.5t89.5 38.5q40 0 69.5 -28.5t29.5 -69.5q0 -52 -39.5 -89.5t-89.5 -37.5q-41 0 -70 29t-29 69zM324 412l73 944q0 45 42 77.5t87 32.5q41 0 70 -26t29 -66q0 -14 -2 -22l-242 -949q-3 -14 -16 -14h-25q-16 0 -16 23z" />
<glyph unicode="&#x22;" d="M238 827q0 11 6 17q94 71 155.5 172.5t73.5 214.5q-37 -35 -90 -35q-41 0 -69.5 27.5t-28.5 68.5q0 51 39 90t90 39q60 0 87 -46.5t27 -110.5q0 -83 -33 -170t-90.5 -162t-128.5 -129q-4 -4 -12 -4q-9 0 -17.5 9.5t-8.5 18.5zM635 827q0 11 6 17q94 71 155.5 172.5 t73.5 214.5q-37 -35 -90 -35q-41 0 -69.5 27.5t-28.5 68.5q0 51 39 90t90 39q59 0 87 -46.5t28 -110.5q0 -127 -71 -252t-181 -209q-4 -4 -12 -4q-10 0 -18.5 9.5t-8.5 18.5z" />
<glyph unicode="#" horiz-adv-x="1706" d="M168 313q0 17 10.5 29t26.5 12h385l137 316h-457q-15 0 -26 12t-11 29q0 15 11 28t26 13h494l280 645q12 24 37 24q18 0 29.5 -11t11.5 -30q0 -10 -2 -14l-268 -614h381l280 645q12 24 37 24q18 0 29.5 -11t11.5 -30q0 -10 -2 -14l-268 -614h348q17 0 28 -13t11 -28 q0 -17 -11 -29t-28 -12h-385l-135 -316h455q16 0 27 -12t11 -29q0 -15 -11 -28t-27 -13h-492l-281 -645q-14 -24 -38 -24q-17 0 -29 12t-12 29q0 10 4 14l266 614h-379l-281 -645q-14 -24 -38 -24q-17 0 -29 12t-12 29q0 10 4 14l266 614h-348q-16 0 -26.5 13t-10.5 28z M680 354h379l137 316h-381z" />
<glyph unicode="$" d="M170 295q0 180 119 180q35 0 60.5 -23.5t25.5 -60.5q0 -30 -15 -56t-41.5 -41t-56.5 -15q-14 0 -22 2q-2 1 -4.5 1.5t-4.5 0.5q0 -99 76.5 -165.5t175.5 -66.5l101 600q-146 38 -222.5 116t-76.5 220q0 176 135 313q59 59 141 100.5t154 41.5l16 94h72l-17 -94 q87 0 156.5 -37t109.5 -105t40 -155q0 -170 -117 -170q-35 0 -60.5 24.5t-25.5 59.5q0 47 33.5 79.5t78.5 32.5q15 0 23 -2q3 0 4 -0.5t2 -1.5q-7 62 -43 108t-92 70.5t-119 24.5l-92 -543q95 -25 161.5 -70t101 -115t34.5 -169q0 -96 -40.5 -190.5t-111.5 -163.5 q-39 -37 -86.5 -68t-100.5 -51t-99 -20l-15 -95h-71l14 95q-133 0 -217 89.5t-84 225.5zM410 1065q0 -91 54 -141.5t152 -77.5l86 524q-113 -14 -202.5 -101.5t-89.5 -203.5zM555 51q81 12 150 62t110 125t41 155q0 186 -203 240z" />
<glyph unicode="%" horiz-adv-x="1706" d="M272 -74q0 18 11 27l1147 1370q-126 -63 -267 -63q-170 0 -299 88q15 -73 15 -119q0 -100 -41 -222.5t-118.5 -209t-180.5 -86.5q-117 0 -180.5 98.5t-63.5 222.5q0 79 26 165.5t77.5 166t121.5 126t152 46.5q74 0 133 -66q57 -66 137 -108q104 -49 221 -49 q126 0 237.5 55t196.5 156q10 12 31 12q18 0 29.5 -11t11.5 -30q0 -15 -10 -27l-1315 -1570q-9 -13 -31 -13q-15 0 -28 13t-13 28zM420 963q0 -74 28 -136.5t93 -62.5q83 0 147 80.5t97.5 192t33.5 192.5q0 53 -14.5 111.5t-49 100.5t-87.5 42q-86 0 -141.5 -92t-81 -218.5 t-25.5 -209.5zM1063 207q0 106 47.5 225t134.5 199t195 80q72 0 118.5 -48t68.5 -119.5t22 -140.5q0 -101 -41 -223t-118.5 -208.5t-180.5 -86.5q-117 0 -181.5 99.5t-64.5 222.5zM1190 137q0 -72 28 -135t93 -63q83 0 147 80.5t97.5 192.5t33.5 191q0 90 -36.5 172 t-114.5 82q-86 0 -141.5 -92t-81 -218.5t-25.5 -209.5z" />
<glyph unicode="&#x26;" horiz-adv-x="1591" d="M127 225q0 138 119 242l286 254q-26 116 -26 246q0 101 17 186t61 150q51 75 121.5 119t152.5 44q76 0 111 -60t35 -142q0 -91 -49 -176t-104 -141.5t-175 -168.5q15 -61 38.5 -126.5t60.5 -144t70.5 -137.5t72.5 -120q50 48 101.5 108t99 122t93.5 122l78 103q8 20 8 32 q0 43 -40 58.5t-91 15.5l11 72h458l-12 -72q-73 0 -141.5 -24t-114.5 -74l-106 -140q-191 -254 -312 -372q33 -47 70.5 -85.5t81.5 -63.5t94 -25q61 0 117.5 29.5t95.5 80t49 111.5h60q-20 -118 -116.5 -205.5t-215.5 -87.5q-190 0 -338 156q-197 -156 -397 -156 q-127 0 -225.5 73.5t-98.5 196.5zM313 250q0 -90 38.5 -156.5t121.5 -66.5q171 0 336 127q-84 103 -154.5 241.5t-107.5 268.5l-98 -89q-65 -56 -100.5 -143.5t-35.5 -181.5zM649 1016q0 -81 15 -176q90 84 121.5 115.5t70 82t63.5 111.5t25 123q0 58 -18.5 99.5t-67.5 41.5 q-117 0 -163 -127.5t-46 -269.5z" />
<glyph unicode="'" horiz-adv-x="567" d="M342 827q0 11 6 17q65 50 112.5 109.5t78 131t39.5 146.5q-38 -35 -91 -35q-41 0 -69.5 27.5t-28.5 68.5q0 52 38.5 90.5t90.5 38.5q59 0 87 -46.5t28 -110.5q0 -127 -71 -252t-181 -209q-4 -4 -12 -4q-10 0 -18.5 9.5t-8.5 18.5z" />
<glyph unicode="(" horiz-adv-x="795" d="M260 242q0 247 72 490.5t214 452t341 347.5q4 4 10 4h18q8 0 12.5 -5t4.5 -13q0 -11 -6 -17q-136 -112 -239 -263.5t-171 -331t-101.5 -365t-33.5 -365.5q0 -123 20.5 -239t69 -224.5t123.5 -193.5q4 -4 4 -13q0 -5 -5.5 -11.5t-12.5 -6.5h-19q-6 0 -10 4 q-76 70 -131 156t-91 184.5t-52.5 200t-16.5 209.5z" />
<glyph unicode=")" horiz-adv-x="795" d="M33 -494q0 11 6 17q138 113 242 267t170.5 330t99.5 359.5t33 368.5q0 193 -50 361.5t-163 295.5q-4 4 -4 13q0 7 5.5 12.5t12.5 5.5h18q7 0 11 -4q102 -92 166.5 -212.5t94.5 -257.5t30 -280q0 -247 -72 -491.5t-214 -452t-341 -346.5q0 -4 -10 -4h-19q-5 0 -10.5 6.5 t-5.5 11.5z" />
<glyph unicode="*" d="M283 897q0 42 39 59l317 140l-270 137q-23 11 -23 41q0 28 23 50t49 22q17 0 28 -11l228 -190l24 332q0 26 21.5 42.5t48.5 16.5q21 0 36 -13t15 -34q0 -4 -0.5 -6.5t-1.5 -5.5l-88 -332l293 190q14 11 31 11q23 0 37 -16t14 -38q0 -43 -39 -59l-317 -137l272 -140 q22 -13 22 -41q0 -29 -22 -50t-49 -21q-19 0 -29 10l-229 190l-23 -331q0 -24 -22.5 -42t-46.5 -18q-20 0 -36 13t-16 34q0 9 2 13l86 331l-292 -190q-14 -10 -31 -10q-22 0 -36.5 15.5t-14.5 37.5z" />
<glyph unicode="+" horiz-adv-x="1591" d="M201 512q0 15 10.5 28t26.5 13h610l100 610q7 31 41 31q19 0 30 -13t11 -30l-100 -598h594q17 0 28 -13t11 -28t-11 -28t-28 -13h-606l-103 -610q-7 -31 -39 -31q-19 0 -30 13t-11 30l99 598h-596q-16 0 -26.5 13t-10.5 28z" />
<glyph unicode="," horiz-adv-x="567" d="M141 -369q0 10 9 17q90 73 149 173.5t72 207.5q-35 -29 -82 -29q-43 0 -72 27t-29 69q0 52 39.5 90.5t91.5 38.5q58 0 82.5 -45t24.5 -106q0 -86 -31.5 -173t-85 -160t-127.5 -134q-8 -4 -12 -4q-10 0 -19.5 9.5t-9.5 18.5z" />
<glyph unicode="-" horiz-adv-x="682" d="M86 379l20 127h543l-20 -127h-543z" />
<glyph unicode="." horiz-adv-x="567" d="M190 96q0 50 39.5 89.5t89.5 39.5q40 0 69.5 -27.5t29.5 -68.5q0 -52 -39.5 -90.5t-89.5 -38.5q-41 0 -70 29t-29 67z" />
<glyph unicode="/" d="M37 -471q0 10 2 14l1042 1975q11 18 35 18q18 0 29.5 -11t11.5 -30q0 -6 -4 -14l-1040 -1975q-13 -18 -35 -18q-17 0 -29 12t-12 29z" />
<glyph unicode="0" d="M162 387q0 90 15 201t43.5 222.5t71 209t95.5 166.5q63 81 157 129.5t195 48.5q120 0 196.5 -59.5t110 -158.5t33.5 -218q0 -101 -14.5 -209.5t-41 -211.5t-70 -205t-97.5 -171q-64 -81 -158.5 -128.5t-193.5 -47.5q-177 0 -259.5 124t-82.5 308zM322 258 q0 -105 46 -177.5t144 -72.5q101 0 169 71t104 172t52.5 188.5t41.5 246.5q20 124 32.5 215.5t12.5 167.5q0 64 -20 119.5t-64 89t-111 33.5q-99 0 -165 -63.5t-102 -160.5t-57 -216t-32 -185q-27 -164 -39 -255.5t-12 -172.5z" />
<glyph unicode="1" d="M190 0l13 72q239 0 264 55l180 1085q-115 -51 -274 -51l12 72q118 0 220 30.5t179 100.5h25q20 0 20 -27l-200 -1210q0 -35 35 -45q41 -10 210 -10l-12 -72h-672z" />
<glyph unicode="2" d="M102 0l13 66l379 354q118 110 200 197t140.5 196.5t58.5 228.5q0 110 -57.5 180t-163.5 70q-89 0 -168 -53t-125 -137h16q41 0 69 -25.5t28 -66.5q0 -55 -38 -93t-89 -38q-42 0 -70.5 27t-28.5 67q0 62 37.5 133t89.5 123q64 64 145.5 99.5t168.5 35.5q102 0 189 -39 t138 -115t51 -182q0 -107 -47 -194.5t-119.5 -158.5t-200.5 -169t-151 -117l-268 -223h195q143 0 241.5 2.5t104.5 7.5q25 24 43 73.5t39 115.5h59l-119 -365h-760z" />
<glyph unicode="3" d="M129 233q0 70 36 116t103 46q44 0 73.5 -27t29.5 -71q0 -58 -39.5 -98.5t-98.5 -40.5q-10 0 -16 2q23 -49 68.5 -80.5t101.5 -45.5t111 -14q96 0 161.5 72t96 177t30.5 198q0 54 -18.5 105.5t-56.5 82.5t-97 31h-137q-18 0 -18 23q6 30 20 30l115 9q80 0 143 67.5 t98 162.5t35 171q0 70 -40.5 113t-110.5 43q-80 0 -157 -30.5t-128 -88.5q2 1 4 1.5t6 0.5q41 0 69 -25.5t28 -66.5q0 -51 -37 -88t-88 -37q-41 0 -69 25.5t-28 64.5q0 88 63.5 158t160 107.5t180.5 37.5q81 0 158.5 -27.5t129.5 -84t52 -138.5q0 -68 -30.5 -132.5 t-81.5 -117.5t-113.5 -90t-126.5 -57q79 -16 144 -58.5t104.5 -110t39.5 -147.5q0 -122 -75 -224t-192 -162t-238 -60q-90 0 -173.5 31t-137.5 94t-54 153z" />
<glyph unicode="4" d="M115 338l10 72l793 946q8 8 20 8h31q18 0 18 -21l-156 -933h201l-10 -72h-201l-35 -211q0 -55 189 -55l-12 -72h-564l13 72q76 0 134.5 10t71.5 45l35 211h-538zM193 410h485l121 725z" />
<glyph unicode="5" d="M154 272q0 71 28.5 118.5t93.5 47.5q40 0 67.5 -24.5t27.5 -63.5q0 -49 -37 -85t-86 -36q-17 0 -23 2q-2 1 -4.5 1.5t-3.5 0.5q15 -95 86 -154t166 -59q85 0 156.5 52t111.5 133q36 70 58 186t22 203q0 83 -36 148t-113 65h-2q-56 0 -112 -18.5t-102 -54t-79 -81.5 q-8 -8 -17 -8h-20q-21 0 -21 27l111 674q4 18 25 18q132 -66 284 -66t303 66h6q19 0 19 -21q0 -20 -6 -24q-88 -93 -196.5 -145t-229.5 -52q-86 0 -164 25l-66 -387q35 31 80.5 54t94.5 34.5t96 11.5q97 0 170.5 -50.5t113 -134t39.5 -181.5q0 -105 -42.5 -202.5 t-116 -172.5t-170 -119.5t-201.5 -44.5q-88 0 -159.5 42t-111.5 114t-40 161z" />
<glyph unicode="6" d="M172 412q0 92 12 184t39.5 184.5t65.5 167.5q57 113 140.5 205.5t192.5 151.5t226 59q97 0 163 -46.5t66 -141.5q0 -58 -29 -99t-85 -41q-36 0 -61 23t-25 59q0 32 15 58.5t41.5 41.5t55.5 15q10 0 17 -2q-21 39 -65 56.5t-95 17.5q-89 0 -167.5 -51.5t-135.5 -133.5 q-40 -56 -69.5 -126t-47 -141t-31.5 -159q48 80 120.5 132.5t158.5 52.5q97 0 175.5 -49.5t121.5 -132t43 -181.5q0 -106 -37.5 -206t-107 -181t-163.5 -127.5t-200 -46.5q-118 0 -194 66.5t-108 170t-32 220.5zM338 244q0 -91 43.5 -157.5t130.5 -66.5q73 0 128.5 35 t91.5 93t54 131q20 77 36 177.5t16 166.5q0 89 -44 145.5t-130 56.5q-71 0 -125.5 -38t-92.5 -98t-61 -132t-31 -139l-2 -4l-2 -4q-12 -124 -12 -166z" />
<glyph unicode="7" d="M274 954l140 430h59q-2 -4 -2 -10q0 -55 360 -55h381l-8 -55q0 -1 -2 -4t-2 -5l-346 -391q-70 -79 -119 -175t-78.5 -193.5t-49 -193.5t-46.5 -253q-6 -39 -37.5 -66.5t-72.5 -27.5q-35 0 -60.5 24.5t-25.5 61.5q0 69 47 203.5t92 226.5q111 222 289 422l229 260h-231 q-363 0 -375 -10q-27 -26 -43 -69t-39 -120h-60z" />
<glyph unicode="8" d="M133 262q0 144 102.5 251t253.5 175l-65 47q-55 40 -86 103t-31 131q0 107 62 197.5t161 144t205 53.5q81 0 156.5 -31t122.5 -91.5t47 -141.5q0 -120 -84.5 -208t-212.5 -151l100 -73q64 -47 99.5 -117.5t35.5 -147.5q0 -121 -71.5 -224.5t-185.5 -163.5t-236 -60 q-145 0 -259 82.5t-114 224.5zM244 262q0 -107 80 -174.5t188 -67.5q61 0 126 21t118 58.5t85.5 91.5t32.5 120q0 50 -23.5 92.5t-64.5 69.5l-245 178q-78 -36 -145 -94t-109.5 -134.5t-42.5 -160.5zM420 1067q0 -79 72 -131l221 -160q105 55 177.5 137.5t72.5 186.5 q0 92 -67.5 148.5t-164.5 56.5q-69 0 -141.5 -28.5t-121 -83t-48.5 -126.5z" />
<glyph unicode="9" d="M164 145q0 59 29.5 98.5t85.5 39.5q39 0 63.5 -23t24.5 -59q0 -31 -16 -58t-42 -42t-55 -15h-12q49 -66 184 -66q100 0 184 72.5t138 175.5q59 121 100 361q-51 -84 -122 -134.5t-159 -50.5q-99 0 -176 49t-120.5 132t-43.5 180q0 108 38.5 207t111 180t167.5 126.5 t201 45.5q89 0 153 -39t101.5 -104t54.5 -145.5t17 -162.5q0 -312 -123 -555q-51 -103 -131 -195t-182 -150t-213 -58q-67 0 -125.5 19t-95.5 61.5t-37 109.5zM406 698q0 -89 44 -144.5t130 -55.5q90 0 157 64t104.5 156.5t47.5 186.5l1 3l1 3q14 115 14 179q0 84 -41 149.5 t-121 65.5q-111 0 -183.5 -74.5t-104.5 -192.5q-22 -90 -35.5 -183.5t-13.5 -156.5z" />
<glyph unicode=":" horiz-adv-x="567" d="M190 96q0 50 39.5 89.5t89.5 39.5q40 0 69.5 -27.5t29.5 -68.5q0 -52 -39.5 -90.5t-89.5 -38.5q-41 0 -70 29t-29 67zM299 754q0 53 39 91t90 38q39 0 68.5 -28.5t29.5 -68.5q0 -53 -39 -91t-90 -38q-40 0 -69 29t-29 68z" />
<glyph unicode=";" horiz-adv-x="567" d="M141 -369q0 10 9 17q79 73 131.5 166.5t70.5 195.5v6q-32 -16 -63 -16q-43 0 -72 27t-29 69q0 52 39.5 90.5t91.5 38.5t73.5 -38t21.5 -95q0 -68 -17 -135t-48 -129t-73.5 -118t-93.5 -103q-4 -4 -12 -4q-10 0 -19.5 9.5t-9.5 18.5zM299 754q0 53 39 91t90 38 q39 0 68.5 -28.5t29.5 -68.5q0 -53 -39 -91t-90 -38q-40 0 -69 29t-29 68z" />
<glyph unicode="&#x3c;" horiz-adv-x="567" d="M115 -350q0 14 2 22l241 949q3 14 17 14h24q19 0 19 -23l-76 -944q0 -45 -41.5 -77.5t-85.5 -32.5q-40 0 -70 26t-30 66zM324 897q0 52 39.5 89.5t89.5 37.5q39 0 68.5 -28.5t29.5 -69.5q0 -52 -39.5 -89.5t-89.5 -37.5q-40 0 -69 29t-29 69z" />
<glyph unicode="=" horiz-adv-x="1591" d="M168 313q0 17 10.5 29t26.5 12h1286q16 0 27.5 -12.5t11.5 -28.5q0 -14 -11.5 -27.5t-27.5 -13.5h-1286q-16 0 -26.5 13t-10.5 28zM233 711q0 15 11 28t26 13h1286q16 0 27.5 -12.5t11.5 -28.5q0 -17 -11.5 -29t-27.5 -12h-1286q-15 0 -26 12t-11 29z" />
<glyph unicode="&#x3e;" horiz-adv-x="967" d="M88 -188q0 73 33.5 142t93.5 112q115 82 194 199.5t101 250.5l18 100q0 19 17 19h24q19 0 19 -23l-19 -100q-21 -135 -79 -260.5t-148 -224.5q-42 -48 -64 -128t-22 -157q0 -109 135 -109q94 0 183.5 31t144.5 96h-4q-35 0 -60.5 24t-25.5 58q0 32 15 58.5t41.5 41.5 t55.5 15q36 0 61 -23t25 -59q0 -94 -71.5 -161t-173 -100.5t-193.5 -33.5q-129 0 -215 55t-86 177zM494 897q0 52 39.5 89.5t89.5 37.5q39 0 68.5 -28.5t29.5 -69.5q0 -52 -39.5 -89.5t-89.5 -37.5q-40 0 -69 29t-29 69z" />
<glyph unicode="?" horiz-adv-x="967" d="M307 1149q0 84 60 151.5t152 105.5t173 38q88 0 169 -21t133.5 -74t52.5 -145q0 -73 -39 -139.5t-101 -106.5q-131 -81 -222.5 -196.5t-115.5 -253.5l-16 -100q-4 -19 -18 -19h-25q-16 0 -16 23l16 100q23 131 83.5 247.5t147.5 203.5q42 39 61.5 60t33.5 50 q41 81 41 189q0 129 -187 129q-81 0 -154.5 -33t-121.5 -94h6q36 0 61 -23t25 -59q0 -32 -15 -58.5t-41.5 -41.5t-56.5 -15q-36 0 -61 23t-25 59zM360 98q0 50 39.5 88.5t89.5 38.5q40 0 69.5 -28.5t29.5 -69.5q0 -52 -39.5 -89.5t-89.5 -37.5q-41 0 -70 29t-29 69z" />
<glyph unicode="@" horiz-adv-x="1591" d="M223 584q0 157 63.5 312t176.5 279.5t261 196.5t308 72q167 0 298.5 -81t203.5 -219t72 -306q0 -76 -14 -170t-49 -189t-93 -157t-141 -62q-66 0 -125.5 36t-59.5 99q-58 -61 -132 -98t-150 -37q-101 0 -179 50t-120.5 136.5t-42.5 184.5q0 95 36.5 189.5t105 173.5 t158 123t185.5 44q57 0 107.5 -22t91 -63t63.5 -91h101q8 0 13 -7t5 -15l-90 -537q-4 -24 -4 -39q0 -74 47 -74q82 0 133 94.5t72.5 217.5t21.5 213q0 151 -64 277.5t-182 201t-270 74.5q-149 0 -285 -67.5t-240.5 -185.5t-163 -262.5t-58.5 -291.5q0 -150 64 -277 t181.5 -201.5t270.5 -74.5q150 0 301 35t291 98h92q8 0 13 -6.5t5 -12.5q0 -14 -14 -18q-108 -48 -225 -82t-235 -51t-232 -17q-168 0 -298.5 81.5t-202 220.5t-71.5 305zM645 606q0 -109 50 -201t149 -92q88 0 165 55t130 138l69 416q-26 82 -84.5 134t-140.5 52 q-100 0 -176.5 -83t-119 -203t-42.5 -216z" />
<glyph unicode="A" horiz-adv-x="1536" d="M66 0l12 72q82 0 146.5 27.5t99.5 93.5l639 1251q11 22 34 22h29q9 0 17 -5.5t10 -16.5l231 -1307q9 -43 63.5 -54t133.5 -11l-13 -72h-571l12 72q181 0 181 59v6l-58 320h-497l-136 -264q-8 -15 -8 -33q0 -47 44 -67.5t95 -20.5l-12 -72h-452zM571 528h449l-115 654z " />
<glyph unicode="B" horiz-adv-x="1450" d="M70 0l12 72q49 0 91 3t80.5 15.5t47.5 36.5l191 1145q0 55 -201 55l12 72h754q93 0 186 -34t153 -103.5t60 -167.5q0 -96 -59.5 -172.5t-151.5 -125.5t-186 -65q62 0 123 -23.5t110.5 -66t79 -98.5t29.5 -121q0 -91 -47.5 -169.5t-124 -134.5t-169 -87t-179.5 -31h-811z M479 111q0 -39 96 -39h261q93 0 175 52.5t129.5 137.5t47.5 180q0 65 -26 125t-75.5 96.5t-117.5 36.5h-394l-96 -583v-6zM586 754h307q90 0 172.5 48t133 129t50.5 171q0 94 -56 159.5t-149 65.5h-260q-45 0 -73.5 -7.5t-36.5 -37.5z" />
<glyph unicode="C" horiz-adv-x="1479" d="M221 575q0 163 67 320.5t187 282t273 195.5t319 71q103 0 192 -45t150 -129l145 168l15 6h12q8 0 13 -7t5 -14l-92 -549q0 -18 -16 -18h-37q-18 0 -18 23q2 16 2 51q0 109 -38 212t-115.5 166.5t-192.5 63.5q-113 0 -220 -47.5t-189 -127.5t-138 -187 q-54 -111 -83.5 -246t-29.5 -262q0 -134 49.5 -242.5t147 -170.5t233.5 -62q95 0 183 38t158.5 104.5t118 152t62.5 178.5q4 16 19 16h24q8 0 12.5 -6t4.5 -14q-24 -146 -113.5 -269.5t-223 -197.5t-282.5 -74q-129 0 -240 46.5t-193.5 132t-126.5 199t-44 242.5z" />
<glyph unicode="D" horiz-adv-x="1563" d="M68 0l12 72q49 0 91 3t79.5 15.5t48.5 36.5l190 1145q0 55 -200 55l12 72h756q119 0 214.5 -45.5t163 -126.5t103 -186t35.5 -220q0 -151 -57 -297.5t-161 -265.5t-241 -188.5t-291 -69.5h-755zM483 111q0 -39 97 -39h200q223 0 387 172q101 109 152 298.5t51 366.5 q0 120 -42.5 214.5t-128 149t-208.5 54.5h-203q-44 0 -73 -7.5t-37 -37.5l-195 -1165v-6z" />
<glyph unicode="E" horiz-adv-x="1393" d="M63 0l13 72q49 0 91 3t79.5 15.5t48.5 36.5l190 1145q0 55 -200 55l12 72h1157l-20 -469h-60q1 25 1.5 45t0.5 53q0 134 -43 199.5t-121.5 82.5t-220.5 17h-200q-45 0 -74 -7.5t-37 -37.5l-88 -520h151q106 0 159.5 18t81 67t46.5 154h60l-93 -550h-59q12 68 12 108 q0 61 -30.5 89.5t-74 35t-114.5 6.5h-149l-97 -573v-6q0 -39 97 -39h215q149 0 238.5 23.5t147.5 76t97.5 137.5t85.5 228h59l-176 -537h-1186z" />
<glyph unicode="F" horiz-adv-x="1335" d="M63 0l13 72q49 0 91 3t79.5 15.5t48.5 36.5l190 1145q0 55 -200 55l12 72h1128l-20 -469h-59q1 25 1.5 45.5t0.5 54.5q0 103 -24 163.5t-68.5 88t-108 36.5t-170.5 9h-186q-45 0 -74 -7.5t-37 -37.5l-92 -547h145q101 0 155 19t80.5 67.5t43.5 153.5h59l-90 -551h-59 q2 15 7 54t5 57q0 86 -54.5 107.5t-158.5 21.5h-146l-88 -537q0 -34 35 -45q23 -5 80 -7.5t137 -2.5l-12 -72h-664z" />
<glyph unicode="G" horiz-adv-x="1606" d="M221 575q0 163 67.5 321t187.5 282.5t273.5 195t319.5 70.5q102 0 191.5 -45.5t150.5 -128.5l145 168l15 6h12q8 0 13.5 -6.5t5.5 -14.5l-93 -549q0 -18 -16 -18h-37q-18 0 -18 23q2 16 2 51q0 109 -38.5 211.5t-117 166.5t-192.5 64t-220 -47.5t-189 -128.5t-138 -188 q-54 -110 -83.5 -242.5t-29.5 -259.5q0 -102 29 -190t86.5 -153t141 -100.5t188.5 -35.5q114 0 217 58.5t120 164.5l31 182q0 35 -35 45q-41 10 -211 10l13 72h587l-12 -72q-60 0 -99.5 -9t-49.5 -42l-33 -194l-37 -224q-4 -18 -20 -18q-19 0 -59.5 48.5t-53.5 76.5 q-66 -87 -177 -128.5t-231 -41.5q-173 0 -311.5 81t-216.5 223.5t-78 315.5z" />
<glyph unicode="H" horiz-adv-x="1536" d="M63 0l13 72q49 0 91 3t79.5 15.5t48.5 36.5l190 1145q0 55 -200 55l12 72h612l-12 -72q-80 0 -143 -10t-76 -45l-86 -508h604l84 508q0 55 -201 55l13 72h612l-12 -72q-81 0 -143.5 -10t-75.5 -45l-191 -1145q0 -55 201 -55l-13 -72h-612l12 72q80 0 143 10t77 45l94 565 h-602l-95 -565q0 -55 201 -55l-12 -72h-613z" />
<glyph unicode="I" horiz-adv-x="739" d="M53 0l13 72q82 0 148.5 10t80.5 45l190 1145q0 55 -211 55l13 72h633l-13 -72q-207 0 -229 -55l-191 -1145q0 -55 211 -55l-12 -72h-633z" />
<glyph unicode="J" horiz-adv-x="1051" d="M111 197q0 66 36.5 110.5t102.5 44.5q45 0 74.5 -28t29.5 -72q0 -56 -40.5 -96.5t-96.5 -40.5h-14q29 -53 84.5 -80t115.5 -27q65 0 120 44.5t89.5 110t46.5 134.5l162 975q0 15 -10 27.5t-27 17.5q-45 10 -227 10l12 72h617l-12 -72q-65 0 -109.5 -9t-56.5 -44 l-164 -985q-17 -97 -83.5 -173t-163.5 -118.5t-194 -42.5q-73 0 -140.5 28.5t-109.5 84t-42 129.5z" />
<glyph unicode="K" horiz-adv-x="1591" d="M63 0l13 72q49 0 91 3t79.5 15.5t48.5 36.5l190 1145q0 55 -200 55l12 72h612l-12 -72q-80 0 -143 -10t-76 -45l-113 -672l733 606q37 33 37 64q0 29 -24 43t-56 14l11 72h446l-12 -72q-85 0 -164.5 -31.5t-151.5 -89.5l-419 -348l338 -665q28 -57 54 -82t60.5 -32 t102.5 -7l-13 -72h-536l12 72q127 0 127 65q0 22 -16 56l-277 544l-266 -219l-64 -391q0 -55 201 -55l-12 -72h-613z" />
<glyph unicode="L" horiz-adv-x="1280" d="M63 0l13 72q49 0 91 3t79.5 15.5t48.5 36.5l190 1145q0 55 -200 55l12 72h664l-13 -72q-93 0 -174.5 -10t-95.5 -45l-193 -1155v-6q0 -39 97 -39h155q154 0 247 56.5t145 156t94 252.5h59l-147 -537h-1072z" />
<glyph unicode="M" horiz-adv-x="1876" d="M72 0l12 72q198 0 227 108l183 1092q0 55 -201 55l12 72h387q26 0 29 -23l254 -1159l639 1159q11 23 37 23h387l-13 -72q-80 0 -142.5 -10t-76.5 -45l-190 -1145q0 -55 201 -55l-13 -72h-596l13 72q49 0 91 3t79.5 15.5t48.5 36.5l200 1200l-720 -1304q-14 -23 -39 -23 q-28 0 -31 23l-283 1290l-188 -1133v-4q0 -64 57.5 -84t134.5 -20l-12 -72h-487z" />
<glyph unicode="N" horiz-adv-x="1536" d="M63 0l13 72q197 0 227 108l191 1135q-64 12 -209 12l12 72h387q11 0 16 -10l547 -1067l150 897v4q0 64 -56 84t-137 20l13 72h487l-12 -72q-197 0 -230 -108l-198 -1201q-1 -5 -8.5 -11.5t-12.5 -6.5h-24q-11 0 -19 12l-641 1250q-6 0 -6 10l-182 -1092v-4 q0 -64 57.5 -84t134.5 -20l-12 -72h-488z" />
<glyph unicode="O" horiz-adv-x="1591" d="M219 561q0 213 111.5 419.5t301 335t404.5 128.5q126 0 232 -48t181 -133t115 -197.5t40 -236.5q0 -158 -63.5 -315t-177 -284.5t-263 -201t-312.5 -73.5q-167 0 -296.5 81t-201 220.5t-71.5 304.5zM434 508q0 -121 38 -233.5t121 -185.5t206 -73q105 0 202.5 57.5 t169.5 147.5q54 64 98.5 152t71 175.5t41.5 185t15 181.5q0 88 -22.5 172.5t-67.5 151t-116 106t-165 39.5q-102 0 -198.5 -52t-172.5 -138q-111 -128 -166 -314t-55 -372z" />
<glyph unicode="P" horiz-adv-x="1393" d="M68 0l12 72q49 0 91 3t79.5 15.5t48.5 36.5l190 1145q0 55 -200 55l12 72h729q104 0 201 -38.5t159 -114.5t62 -181q0 -124 -84 -222t-214 -151t-251 -53h-328l-83 -512q0 -55 200 -55l-12 -72h-612zM580 700h278q83 0 156.5 23.5t124.5 73.5q49 49 74.5 143t25.5 180 q0 114 -77.5 160.5t-198.5 46.5h-175q-44 0 -73 -7.5t-37 -37.5z" />
<glyph unicode="Q" horiz-adv-x="1591" d="M219 561q0 213 111.5 419.5t301 335t404.5 128.5q126 0 232 -48t181 -133t115 -197.5t40 -236.5q0 -127 -38.5 -251.5t-111.5 -233.5t-173.5 -195t-215.5 -135q20 -89 53.5 -140.5t106.5 -51.5q50 0 97.5 24.5t80 65.5t41.5 92q4 19 22 19q23 0 23 -27 q-10 -65 -33.5 -131.5t-60.5 -126.5t-92 -97.5t-123 -37.5q-125 0 -158 106.5t-33 276.5q-99 -31 -201 -31q-167 0 -296.5 81t-201 220.5t-71.5 304.5zM426 496q0 -148 56.5 -273.5t176.5 -179.5q-12 30 -12 63q0 79 58.5 140t138.5 61q87 0 130.5 -57t69.5 -156 q89 60 158.5 153t112 200t63.5 221.5t21 228.5q0 120 -39.5 232.5t-123.5 183.5t-210 71q-69 0 -138.5 -26t-130.5 -71t-108 -101q-109 -132 -166 -318t-57 -372zM700 109q0 -95 99 -95q94 0 186 47q0 84 -32.5 138.5t-110.5 54.5q-56 0 -99 -45t-43 -100z" />
<glyph unicode="R" horiz-adv-x="1507" d="M68 0l12 72q49 0 91 3t79.5 15.5t48.5 36.5l190 1145q0 55 -200 55l12 72h643q107 0 218 -35t186 -109.5t75 -185.5q0 -96 -62 -173t-158 -128t-189 -72q57 -22 103.5 -60.5t73 -89.5t26.5 -110l-3 -192v-37q0 -86 17 -142.5t80 -56.5q44 0 77.5 28.5t55 72.5t29.5 88 q0 6 6 12t14 6h18q21 0 21 -27q-15 -89 -75.5 -161t-145.5 -72q-133 0 -226.5 59t-93.5 183q0 17 4 55l31 182q4 24 4 39q0 90 -59 145.5t-148 55.5h-248l-90 -547q0 -55 201 -55l-12 -72h-606zM586 727h219q129 0 218.5 41.5t137 126.5t47.5 217q0 215 -305 215h-115 q-44 0 -73 -7.5t-37 -37.5z" />
<glyph unicode="S" horiz-adv-x="1137" d="M111 -25l77 474q4 16 19 16h24q8 0 12.5 -6t4.5 -15q-3 -25 -8 -88q0 -165 109 -247t278 -82q85 0 156.5 50t114 129.5t42.5 162.5q0 80 -42.5 143t-117.5 82l-252 63q-110 30 -177.5 121.5t-67.5 202.5q0 118 65.5 226.5t173.5 172.5t228 64q56 0 114.5 -15t107 -46 t81.5 -78l106 133q12 6 15 6h12q8 0 13 -7t5 -14l-78 -471q-4 -18 -18 -18h-25q-16 0 -16 22q1 14 1.5 25.5t0.5 30.5q0 107 -34 190t-106.5 129.5t-183.5 46.5q-79 0 -150 -43t-115 -114t-44 -150q0 -73 43.5 -131.5t114.5 -77.5l252 -63q112 -29 179 -127t67 -217 q0 -93 -37 -183t-102 -161t-152 -113.5t-180 -42.5q-109 0 -203.5 34.5t-155.5 106.5l-106 -135q-12 -6 -15 -6h-14q-16 0 -16 20z" />
<glyph unicode="T" horiz-adv-x="1479" d="M229 930l117 469h1251l-38 -469h-60q8 102 8 162q0 96 -26.5 146.5t-83 69.5t-152.5 19h-86q-45 0 -73.5 -7.5t-36.5 -37.5l-193 -1153q0 -36 41 -47q47 -10 246 -10l-13 -72h-784l12 72q281 0 306 57l192 1153v6q0 39 -96 39h-86q-140 0 -212.5 -45t-103.5 -121 t-69 -231h-60z" />
<glyph unicode="U" horiz-adv-x="1536" d="M285 1327l12 72h612l-12 -72q-80 0 -143 -10t-76 -45l-135 -809q-12 -71 -15 -137q0 -85 31 -152.5t92 -107t146 -39.5q117 0 218 62t166 163.5t85 218.5l125 748v4q0 64 -56 84t-137 20l12 72h494l-12 -72q-197 0 -230 -108l-125 -756q-14 -93 -63.5 -186.5t-123.5 -166 t-166.5 -114t-190.5 -41.5q-122 0 -225 55.5t-162.5 155t-59.5 221.5q0 40 6 84l133 801q0 55 -200 55z" />
<glyph unicode="V" horiz-adv-x="1536" d="M260 1327l12 72h562l-11 -72q-178 0 -178 -59v-6l219 -1045l535 989q10 18 10 35q0 47 -41.5 66.5t-93.5 19.5l12 72h443l-13 -72q-49 0 -95 -12.5t-83.5 -40t-60.5 -68.5l-668 -1229q-11 -22 -35 -22h-29q-25 0 -28 22l-268 1285q-10 43 -61.5 54t-127.5 11z" />
<glyph unicode="W" horiz-adv-x="2103" d="M258 1327l12 72h549l-12 -72q-182 0 -182 -59v-6l157 -1008l424 862l-22 146q-8 43 -54.5 54t-117.5 11l12 72h549l-12 -72q-183 0 -183 -59v-6l158 -1008l467 952q6 12 6 29q0 49 -50.5 70.5t-109.5 21.5l11 72h440l-12 -72q-74 0 -133 -30t-89 -91l-604 -1229 q-11 -22 -35 -22h-14q-22 0 -27 22l-163 1043l-512 -1043q-16 -22 -35 -22h-17q-23 0 -26 22l-203 1285q-8 43 -54 54t-118 11z" />
<glyph unicode="X" horiz-adv-x="1536" d="M47 0l12 72q94 0 176 26.5t136 89.5l422 506l-281 574q-24 38 -79 48.5t-136 10.5l12 72h574l-13 -72q-37 0 -90 -15t-53 -42q0 -4 2 -6l199 -408l295 352q14 18 14 39q0 39 -36 59.5t-79 20.5l13 72h499l-12 -72q-94 0 -175.5 -27.5t-135.5 -89.5l-350 -419l323 -660 q26 -38 80 -48.5t135 -10.5l-12 -72h-574l11 72q36 0 90.5 15t54.5 42q0 2 -0.5 3.5t-1.5 2.5l-242 494l-366 -439q-13 -19 -13 -38q0 -39 36 -59.5t77 -20.5l-12 -72h-500z" />
<glyph unicode="Y" horiz-adv-x="1536" d="M244 1327l12 72h578l-13 -72q-151 0 -151 -53q1 -2 1.5 -4t0.5 -6l270 -611l430 555q19 27 19 54q0 37 -31.5 51t-71.5 14l10 72h445l-10 -72q-85 0 -157 -28.5t-120 -88.5l-504 -651l-71 -422v-12q0 -53 200 -53l-12 -72h-606l12 72q84 0 148 11t73 54l72 422l-313 707 q-22 41 -76.5 51t-134.5 10z" />
<glyph unicode="Z" horiz-adv-x="1251" d="M119 18q0 33 10 45l1008 1264h-289q-152 0 -248.5 -38.5t-154 -123.5t-89.5 -235h-59l100 469h949q18 0 18 -19q0 -30 -8 -41l-1008 -1261h301q181 0 283 48t154.5 146.5t93.5 282.5h59l-127 -555h-975q-18 0 -18 18z" />
<glyph unicode="[" horiz-adv-x="567" d="M156 -512l342 2048h280l-14 -82h-199l-313 -1884h199l-15 -82h-280z" />
<glyph unicode="\" d="M467 956q0 85 34 172t91 161.5t125 127.5q8 4 12 4q9 0 19 -10t10 -18q0 -11 -6 -17q-95 -73 -156 -173.5t-74 -213.5q35 35 90 35q43 0 71 -26.5t28 -69.5q0 -52 -38.5 -90.5t-90.5 -38.5q-60 0 -87.5 46.5t-27.5 110.5zM864 956q0 85 34 172t91 161.5t125 127.5 q8 4 12 4q11 0 20 -9t9 -19q0 -11 -6 -17q-95 -73 -156 -173.5t-73 -213.5q33 35 90 35q41 0 69.5 -26.5t28.5 -69.5q0 -51 -39 -90t-90 -39q-60 0 -87.5 46.5t-27.5 110.5z" />
<glyph unicode="]" horiz-adv-x="567" d="M-41 -512l14 82h199l313 1884h-198l14 82h281l-342 -2048h-281z" />
<glyph unicode="^" d="M426 1145l322 276l229 -276l-47 -43l-201 205l-268 -205z" />
<glyph unicode="_" horiz-adv-x="567" d="M379 1243q0 52 39.5 89.5t89.5 37.5q39 0 68.5 -28.5t29.5 -69.5q0 -52 -39.5 -89.5t-89.5 -37.5q-40 0 -69 29t-29 69z" />
<glyph unicode="`" horiz-adv-x="567" d="M307 956q0 85 34 172t91 161.5t125 127.5q8 4 12 4q11 0 20 -9t9 -19q0 -11 -6 -17q-95 -73 -156 -173.5t-74 -213.5q35 35 91 35q41 0 69.5 -26.5t28.5 -69.5q0 -51 -39 -90t-90 -39q-60 0 -87.5 46.5t-27.5 110.5z" />
<glyph unicode="a" d="M113 174q0 60 31 114t80.5 95.5t109.5 71.5q184 84 420 84l14 88q4 28 4 47q0 50 -20.5 94t-60 70t-91.5 26q-135 0 -217 -63q33 -5 53.5 -27t20.5 -55q0 -45 -34 -79t-79 -34q-36 0 -61 23t-25 59q0 76 55.5 127.5t135.5 77t155 25.5q76 0 150 -30.5t120 -89t46 -139.5 q0 -24 -2 -36l-60 -355l-18 -102q0 -10 -0.5 -16.5t-1.5 -14.5q0 -27 13 -51.5t40 -24.5q36 0 58 33t28 74l22 131h60l-23 -131q-7 -47 -36.5 -88t-74 -65.5t-94.5 -24.5q-56 0 -91 42t-35 101v10q-49 -74 -129 -119t-164 -45q-111 0 -205 47.5t-94 149.5zM279 170 q0 -61 44 -100t105 -39q50 0 97 19t86.5 54t65 78.5t32.5 91.5l36 213q-72 0 -153.5 -20.5t-151.5 -59.5t-115.5 -99t-45.5 -138z" />
<glyph unicode="b" horiz-adv-x="1137" d="M213 0l27 162l180 1083q1 5 1.5 8.5t0.5 10.5q0 41 -42 52t-106 11l13 72l307 22q-4 -22 -4 -24l-103 -615q62 59 140 91t159 32q107 0 190 -52t128 -140t45 -193q0 -106 -43 -204t-118.5 -174.5t-171.5 -120.5t-202 -44q-79 0 -145 39.5t-104 108.5l-93 -125h-59z M395 197q24 -76 78.5 -121t130.5 -45q129 0 214.5 88.5t124 220t38.5 256.5q0 106 -54.5 181t-156.5 75q-59 0 -112.5 -20.5t-98.5 -56t-82 -85.5z" />
<glyph unicode="c" horiz-adv-x="909" d="M135 365q0 137 72 265t194 208t258 80q108 0 198.5 -41t90.5 -136q0 -50 -31.5 -86.5t-80.5 -36.5q-36 0 -61 23t-25 59q0 44 27.5 75.5t70.5 37.5q-61 45 -191 45q-112 0 -191.5 -87t-118 -213t-38.5 -234q0 -117 59 -202t171 -85q95 0 174 60.5t118 154.5q10 12 17 12 h24q8 0 13.5 -5.5t5.5 -12.5q0 -4 -2 -6q-51 -120 -152.5 -191.5t-226.5 -71.5q-78 0 -148.5 30t-121 83.5t-78 125t-27.5 149.5z" />
<glyph unicode="d" horiz-adv-x="1137" d="M135 362q0 138 73.5 264t198.5 202.5t263 76.5q71 0 136.5 -32t104.5 -89l76 461q1 5 1.5 8.5t0.5 10.5q0 41 -42 52t-105 11l12 72l283 22h24q-4 -22 -4 -24l-207 -1243q0 -7 -0.5 -10.5t-1.5 -8.5q0 -41 42 -52t106 -11l-13 -72l-313 -23q4 23 4 27l17 98 q-62 -59 -138 -92t-155 -33q-106 0 -188.5 51.5t-128.5 139.5t-46 194zM303 289q0 -68 23.5 -127t70.5 -95t117 -36q88 0 165.5 50.5t129.5 127.5l82 491q-24 70 -81.5 111t-129.5 41q-130 0 -215.5 -88.5t-123.5 -219.5t-38 -255z" />
<glyph unicode="e" horiz-adv-x="909" d="M125 373q0 100 40 197t109.5 176t161.5 125.5t195 46.5q97 0 167.5 -38t107 -109.5t36.5 -168.5q0 -50 -10 -110q0 -7 -7 -13t-14 -6h-596q-18 -95 -18 -164q0 -116 60 -194t173 -78q97 0 180 62.5t124 156.5q4 12 18 12h18q10 0 15.5 -6.5t5.5 -15.5q0 -4 -2 -8 q-48 -113 -153 -187t-226 -74q-109 0 -197.5 52.5t-138 143.5t-49.5 200zM326 524h467q8 70 8 109q0 57 -16.5 111t-54.5 87t-99 33q-119 0 -197.5 -103.5t-107.5 -236.5z" />
<glyph unicode="f" horiz-adv-x="625" d="M66 0l12 72q149 0 168 53l114 686h-157l12 72h158l41 245q10 66 46.5 124.5t87.5 100.5t116 66.5t133 24.5q61 0 110 -35t49 -96q0 -46 -30.5 -78.5t-75.5 -32.5q-34 0 -58 21.5t-24 56.5q0 34 20 62t52 40q-24 9 -56 9q-61 0 -110 -41.5t-81 -102t-42 -123.5l-41 -241 h235l-12 -72h-229l-113 -684q0 -55 189 -55l-13 -72h-501z" />
<glyph unicode="g" d="M29 -184q0 81 65.5 143.5t149.5 85.5q-60 51 -60 141q0 116 95 209q-31 36 -47.5 78.5t-16.5 87.5q0 73 33.5 136.5t89.5 110t125.5 72t138.5 25.5q127 0 207 -71q34 30 71.5 50.5t79 32t84.5 11.5q38 0 63.5 -26.5t25.5 -63.5q0 -33 -20.5 -56.5t-53.5 -23.5 q-23 0 -40.5 16t-17.5 39q0 41 33 61q-49 0 -100 -21t-92 -54q53 -65 53 -154q0 -74 -33 -136.5t-90 -110t-125.5 -72.5t-138.5 -25q-116 0 -195 61q-49 -56 -49 -118q0 -46 28 -76.5t73 -30.5h167q113 0 200 -17t148.5 -72t61.5 -161q0 -107 -80.5 -177t-194.5 -101 t-223 -31q-141 0 -278 58.5t-137 179.5zM143 -184q0 -63 50.5 -104.5t121 -60t131.5 -18.5q72 0 162.5 26t153.5 78.5t63 129.5q0 93 -91 118t-220 25h-164q-49 0 -98 -26.5t-79 -72t-30 -95.5zM371 506q0 -65 37 -107.5t102 -42.5q120 0 174.5 107t54.5 237q0 67 -37 108.5 t-102 41.5q-118 0 -173.5 -106t-55.5 -238z" />
<glyph unicode="h" horiz-adv-x="1137" d="M61 0l13 72q149 0 168 53l186 1120q1 5 1.5 8.5t0.5 10.5q0 41 -42 52t-105 11l12 72l307 22q-4 -22 -4 -24l-113 -674q58 83 140.5 132.5t177.5 49.5q248 0 248 -207q0 -13 -3.5 -44t-3.5 -33l-83 -496v-4q0 -49 151 -49l-12 -72h-469l12 72q150 0 168 53l84 504 q10 25 10 90q0 133 -117 133q-59 0 -115 -26t-99.5 -69.5t-72.5 -99t-40 -116.5l-70 -416v-4q0 -49 152 -49l-13 -72h-469z" />
<glyph unicode="i" horiz-adv-x="567" d="M63 0l13 72q149 0 168 53l100 604q1 5 1.5 8.5t0.5 10.5q0 41 -39.5 52t-99.5 11l12 72l299 22q-4 -22 -4 -24l-127 -758v-6q0 -45 135 -45l-12 -72h-447zM358 1243q0 50 39.5 88.5t89.5 38.5q40 0 69.5 -28.5t29.5 -69.5q0 -52 -39.5 -89.5t-89.5 -37.5q-41 0 -70 29 t-29 69z" />
<glyph unicode="j" horiz-adv-x="625" d="M-133 -272q0 48 32.5 83t80.5 35q36 0 61 -22.5t25 -59.5q0 -38 -23.5 -69.5t-60.5 -40.5q45 -21 100 -21q81 0 127 80.5t63 180.5l140 835v16q0 44 -46.5 55t-115.5 11l12 72l324 22q-4 -22 -4 -24l-166 -996q-13 -78 -62.5 -149t-123 -113.5t-154.5 -42.5 q-79 0 -144 37.5t-65 110.5zM418 1243q0 52 39.5 89.5t89.5 37.5q39 0 68.5 -28.5t29.5 -69.5q0 -52 -39.5 -89.5t-89.5 -37.5q-40 0 -69 29t-29 69z" />
<glyph unicode="k" horiz-adv-x="1079" d="M53 0l13 72q65 0 110 8.5t57 44.5l187 1120q1 5 1.5 8.5t0.5 10.5q0 41 -42 52t-106 11l13 72l282 22h25q-4 -22 -4 -24l-158 -948l313 241q54 41 54 82q0 18 -15.5 28.5t-33.5 10.5l10 72h387l-12 -72q-141 0 -299 -121l-166 -127l198 -370q28 -53 49 -77t53.5 -34 t88.5 -10l-12 -72h-408l10 72q80 0 80 53q0 26 -24 68l-150 280l-143 -108l-41 -240v-4q0 -49 151 -49l-12 -72h-457z" />
<glyph unicode="l" horiz-adv-x="567" d="M63 0l13 72q149 0 168 53l186 1120q1 5 1.5 8.5t0.5 10.5q0 41 -42 52t-105 11l12 72l307 22q-4 -22 -4 -24l-213 -1272v-4q0 -49 152 -49l-13 -72h-463z" />
<glyph unicode="m" horiz-adv-x="1706" d="M61 0l13 72q149 0 168 53l100 604q1 5 1.5 8.5t0.5 10.5q0 41 -42 52t-105 11l12 72l301 22q-4 -22 -4 -24l-29 -170q56 87 143 140.5t183 53.5q65 0 122 -18t91.5 -60t34.5 -110q55 83 140.5 135.5t180.5 52.5q248 0 248 -207q0 -19 -3 -47t-3 -30l-84 -496v-4 q0 -49 151 -49l-12 -72h-469l12 72q150 0 168 53l84 504q11 24 11 90q0 133 -117 133q-83 0 -152.5 -44.5t-115.5 -116t-60 -152.5l-69 -414v-4q0 -49 151 -49l-12 -72h-469l12 72q150 0 168 53l84 504q10 25 10 90q0 133 -117 133q-59 0 -115 -26t-99.5 -69.5t-72.5 -99 t-40 -116.5l-70 -416v-4q0 -49 152 -49l-13 -72h-469z" />
<glyph unicode="n" horiz-adv-x="1137" d="M61 0l13 72q149 0 168 53l100 604q1 5 1.5 8.5t0.5 10.5q0 41 -42 52t-105 11l12 72l301 22q-4 -22 -4 -24l-29 -170q56 87 143 140.5t183 53.5q248 0 248 -207q0 -13 -3.5 -44t-3.5 -33l-83 -496v-4q0 -49 151 -49l-12 -72h-469l12 72q150 0 168 53l84 504q10 25 10 90 q0 133 -117 133q-59 0 -115 -26t-99.5 -69.5t-72.5 -99t-40 -116.5l-70 -416v-4q0 -49 152 -49l-13 -72h-469z" />
<glyph unicode="o" d="M123 360q0 104 44 204t120 180.5t174 127t203 46.5q109 0 196 -53t135.5 -144.5t48.5 -200.5q0 -103 -43 -202.5t-118 -175.5t-172 -120.5t-203 -44.5q-108 0 -196 50t-138.5 137.5t-50.5 195.5zM293 289q0 -71 26 -128.5t76 -90.5t123 -33q67 0 128 30.5t106 84.5 q59 71 94 213t35 251q0 70 -26 126.5t-77.5 89t-122.5 32.5q-66 0 -128 -30t-107 -82q-39 -46 -68.5 -129.5t-44 -175.5t-14.5 -158z" />
<glyph unicode="p" horiz-adv-x="1137" d="M-12 -397l12 71q64 0 109 9.5t57 44.5l170 1017q2 5 2 11q0 35 -43.5 45t-106.5 10l13 72l282 22h25q-4 -22 -4 -24l-17 -101q61 58 142.5 91.5t163.5 33.5q106 0 186 -51.5t125 -141t45 -190.5q0 -138 -73.5 -264t-198 -203.5t-263.5 -77.5q-69 0 -132 32t-103 89 l-62 -370v-4q0 -23 25.5 -33.5t57 -13.5t67.5 -3l-12 -71h-467zM395 195q23 -73 78.5 -118.5t130.5 -45.5q108 0 193 83.5t130.5 204.5t45.5 228q0 68 -21 137t-66 115.5t-116 46.5q-58 0 -112.5 -20t-100 -56.5t-80.5 -83.5z" />
<glyph unicode="q" horiz-adv-x="1079" d="M135 362q0 102 42.5 201t116.5 176t171 121.5t201 44.5q59 0 108 -22.5t85 -63t56 -96.5l107 182h53l-37 -221l-159 -956v-4q0 -50 149 -50l-12 -71h-467l12 71q65 0 110 10t56 44l66 387q-59 -62 -136.5 -100t-156.5 -38q-106 0 -189 52t-129.5 139.5t-46.5 193.5z M309 334q0 -67 20.5 -137.5t67 -118t117.5 -47.5q94 0 175 61.5t132 153.5l60 362q0 61 -24.5 115.5t-71 88.5t-107.5 34q-109 0 -193 -82t-130 -202.5t-46 -227.5z" />
<glyph unicode="r" horiz-adv-x="801" d="M53 0l13 72q65 0 110 8.5t57 44.5l101 604q1 5 1.5 8.5t0.5 10.5q0 41 -42 52t-106 11l13 72l278 20q-1 1 -2.5 1.5t-3.5 0.5h25q-4 -22 -4 -24l-29 -172q46 87 114 141.5t156 54.5q56 0 99 -31t43 -83q0 -44 -31.5 -76.5t-75.5 -32.5q-34 0 -58 22t-24 56q0 28 15 53.5 t38 38.5h-8q-85 0 -147 -59t-99.5 -149t-50.5 -171l-57 -346q0 -55 188 -55l-12 -72h-502z" />
<glyph unicode="s" horiz-adv-x="807" d="M68 -2l53 330q4 16 18 16h25q6 0 11 -5t5 -11q0 -128 53 -212.5t173 -84.5q67 0 127 23t97.5 70t37.5 116q0 56 -41 95t-101 52l-133 27q-91 20 -154 74t-63 143q0 142 113 214.5t264 72.5q110 0 174 -56l68 51q5 5 10 5h14q7 0 12 -7.5t5 -13.5l-43 -264q-4 -19 -19 -19 h-24q-17 0 -17 23q4 36 4 55q0 57 -23 97t-66 60.5t-99 20.5q-57 0 -117.5 -17t-99.5 -55.5t-39 -99.5q0 -50 39.5 -80t97.5 -45l133 -26q61 -14 111 -46t80 -81.5t30 -114.5q0 -105 -53 -178.5t-140 -111.5t-190 -38q-133 0 -202 86l-90 -81q-7 -5 -11 -5h-14 q-7 0 -11.5 8.5t-4.5 12.5z" />
<glyph unicode="t" horiz-adv-x="795" d="M174 811l8 53q70 0 126 36t98.5 97.5t67.5 129.5t36 133h59l-63 -377h289l-13 -72h-288l-95 -565q-6 -40 -6 -76q0 -56 23 -94.5t76 -38.5q72 0 110 63.5t62 153.5l18 117h59l-20 -125q-11 -63 -43.5 -126t-83.5 -103t-117 -40q-104 0 -167.5 54t-63.5 157q0 20 4 62 l94 561h-170z" />
<glyph unicode="u" horiz-adv-x="1137" d="M197 811l12 72l289 22h24q-4 -22 -4 -24l-106 -637q-13 -30 -13 -107q0 -63 41.5 -84.5t112.5 -21.5q74 0 137 44t103.5 114.5t52.5 142.5l65 397q1 5 1.5 8.5t0.5 10.5q0 41 -42 52t-105 11l12 72l289 22h25q-5 -22 -5 -24l-120 -727q0 -7 -0.5 -10.5t-1.5 -8.5 q0 -41 42 -52t105 -11l-12 -72l-307 -23q4 23 4 27l22 141q-47 -74 -122 -121t-156 -47q-129 0 -206 45.5t-77 165.5q0 11 2 32t2 32l80 477q1 5 1.5 8.5t0.5 10.5q0 41 -42 52t-105 11z" />
<glyph unicode="v" horiz-adv-x="1079" d="M174 811l12 72h430l-12 -72q-51 0 -88 -10t-37 -45q1 -1 1.5 -2.5t0.5 -3.5l133 -578l293 522q15 28 15 47q0 33 -26 51.5t-60 18.5l12 72h340l-12 -72q-65 0 -117.5 -29.5t-85.5 -85.5l-393 -696q-13 -23 -37 -23h-15q-25 0 -28 23l-174 752q-11 38 -50 48.5t-102 10.5z " />
<glyph unicode="w" horiz-adv-x="1479" d="M172 811l12 72h422l-12 -72q-129 0 -129 -57v-9l104 -552l250 481l-14 71q-9 45 -42.5 55.5t-96.5 10.5l12 72h401l-10 -72q-129 0 -129 -57v-9l109 -577l272 522q10 25 10 43q0 38 -32 58t-72 20l12 72h346l-10 -72q-62 0 -112 -31.5t-81 -89.5l-358 -690 q-11 -23 -35 -23h-16q-24 0 -27 23l-110 584l-304 -584q-15 -23 -36 -23h-15q-25 0 -28 23l-140 745q-10 45 -43.5 55.5t-97.5 10.5z" />
<glyph unicode="x" horiz-adv-x="1079" d="M25 0l12 72q80 0 153.5 31.5t131.5 89.5l225 237l-189 315q-29 45 -71.5 55.5t-116.5 10.5l12 72h426l-12 -72q-30 0 -56 -13t-26 -40q0 -3 4 -13l127 -213l150 158q34 36 34 72q0 23 -13 36t-36 13l13 72h374l-10 -72q-166 0 -287 -121l-196 -207l205 -346 q32 -44 73.5 -54.5t116.5 -10.5l-12 -72h-426l10 72q27 0 54.5 13t27.5 40q0 8 -2 12l-146 244l-178 -188q-35 -37 -35 -72q0 -23 14 -36t36 -13l-13 -72h-374z" />
<glyph unicode="y" horiz-adv-x="1079" d="M-4 -274q0 49 29.5 82.5t76.5 33.5q33 0 55.5 -20t22.5 -51q0 -42 -27 -72.5t-67 -34.5q31 -31 80 -31q129 0 244 195l98 172l-182 752q-11 38 -49.5 48.5t-102.5 10.5l12 72h430l-12 -72q-49 0 -86 -10t-37 -45q0 -4 2 -6l133 -560l289 504q15 28 15 49q0 32 -25 50 t-59 18l12 72h340l-12 -72q-65 0 -117.5 -29t-87.5 -86l-498 -868q-143 -248 -315 -248q-64 0 -113 41.5t-49 104.5z" />
<glyph unicode="z" horiz-adv-x="909" d="M61 18q0 25 11 35l710 776h-192q-127 0 -191 -22t-99.5 -81.5t-63.5 -180.5h-60l80 338h686q19 0 19 -19t-11 -30l-708 -775h202q136 0 206 30t105 96t72 206h60l-101 -391h-706q-19 0 -19 18z" />
<glyph unicode="{" d="M86 518l10 53h1022l-10 -53h-1022z" />
<glyph unicode="|" horiz-adv-x="2048" d="M86 518l10 53h2046l-10 -53h-2046z" />
<glyph unicode="}" d="M438 1075l162 307q25 52 76 52q27 0 48 -19t21 -47t-26 -57l-234 -262zM780 1075l162 307q25 52 76 52q27 0 48 -19t21 -47t-26 -57l-234 -262z" />
<glyph unicode="~" d="M371 1206l71 70q95 92 174 92q40 0 83 -23t85 -46t82 -23q81 0 174 92l35 -35l-71 -69q-96 -93 -175 -93q-40 0 -82 23.5t-84.5 46.5t-82.5 23q-80 0 -174 -93z" />
<glyph unicode="&#xa1;" horiz-adv-x="1280" d="M63 0l13 72q49 0 91 3t79.5 15.5t48.5 36.5l190 1145q0 55 -200 55l12 72h1071l-20 -469h-60q1 26 1.5 47.5t0.5 56.5q0 127 -35.5 190t-105 83t-201.5 20h-157q-45 0 -74 -7.5t-37 -37.5l-193 -1155q0 -34 35 -45q23 -5 80 -7.5t137 -2.5l-12 -72h-664z" />
<glyph unicode="&#xa2;" horiz-adv-x="1706" d="M96 12q0 1 4 11l942 1421q16 22 39 22h31q25 0 31 -22l469 -1421v-5q0 -18 -19 -18h-1482q-15 0 -15 12zM274 164h1078l-357 1087z" />
<glyph unicode="&#xa3;" horiz-adv-x="1591" d="M219 561q0 213 111.5 419.5t301 335t404.5 128.5q126 0 232 -48t181 -133t115 -197.5t40 -236.5q0 -158 -63.5 -315t-177 -284.5t-263 -201t-312.5 -73.5q-167 0 -296.5 81t-201 220.5t-71.5 304.5zM420 498q0 -124 40 -235.5t125.5 -182t211.5 -70.5q106 0 204.5 54 t176.5 143q59 70 102 154.5t69 169.5t40 180t14 186q0 122 -39.5 236t-125 186t-210.5 72q-71 0 -140.5 -26.5t-131.5 -72.5t-109 -102q-111 -131 -169 -318.5t-58 -373.5zM530 549l50 303h59l-10 -70h596l10 70h59l-49 -303h-59l10 69h-596l-10 -69h-60z" />
<glyph unicode="&#xa4;" horiz-adv-x="1421" d="M66 0l12 72q73 0 132 29.5t89 91.5l606 1251q5 10 14.5 16t20.5 6h29q23 0 26 -22l199 -1307q8 -43 54.5 -54t117.5 -11l-12 -72h-555l12 72q184 0 184 59l-2 6l-153 1016l-467 -960q-6 -16 -6 -31q0 -46 44 -68t97 -22l-12 -72h-430z" />
<glyph unicode="&#xa5;" horiz-adv-x="1364" d="M102 0l43 350h60q-12 -82 -12 -133q0 -41 8 -51q14 -14 243 -14h527q64 0 116.5 1t88 3.5t43.5 9.5q15 15 25 46.5t20 76t14 61.5h59l-75 -350h-1160zM274 1071l72 328h1139l-39 -328h-60q11 77 11 113q0 39 -11.5 51t-236.5 12h-518q-228 0 -242 -12 q-15 -15 -24.5 -42.5t-16 -56.5t-14.5 -65h-60zM375 547l61 360h60l-19 -104h676l18 104h60l-62 -360h-59l18 104h-675l-19 -104h-59z" />
<glyph unicode="&#xa6;" horiz-adv-x="1536" d="M63 0l13 72q49 0 91 3t79.5 15.5t48.5 36.5l190 1145q0 55 -200 55l12 72h1407l-12 -72q-81 0 -143.5 -10t-75.5 -45l-191 -1145q0 -55 201 -55l-13 -72h-612l12 72q80 0 143 10t77 45l200 1200h-604l-199 -1200q0 -55 201 -55l-12 -72h-613z" />
<glyph unicode="&#xa7;" horiz-adv-x="1479" d="M119 23q0 6 4 14l604 577l-385 725q-2 7 -2 15q4 23 7 34t18 11h1173l-20 -469h-60v63q0 122 -36.5 191.5t-101 99.5t-143 36.5t-216.5 6.5h-383l327 -616q2 -6 2 -11q0 -12 -4 -14l-618 -592h465q159 0 251 9.5t164.5 47t125 117.5t93.5 224h60l-139 -492h-1166 q-20 0 -20 23z" />
<glyph unicode="&#xa8;" horiz-adv-x="1591" d="M301 1118q14 79 59 155.5t114 123.5t149 47q96 0 162 -44.5t102 -116t51.5 -157t15.5 -176.5v-4q67 204 190.5 351t305.5 147q101 0 160 -76.5t59 -183.5q0 -88 -33 -88h-26q-19 0 -19 20q1 7 1.5 12t0.5 15q0 63 -53 100t-119 37q-125 0 -211.5 -93.5t-134 -226.5 t-67.5 -262l-95 -571q0 -34 35 -45q23 -5 80 -7.5t137 -2.5l-12 -72h-715l11 72q247 0 272 55l96 578q19 112 19 210q0 151 -52.5 258t-187.5 107q-77 0 -144.5 -45t-78.5 -117q-4 -22 -27 -22h-27q-18 0 -18 22z" />
<glyph unicode="&#xa9;" horiz-adv-x="1479" d="M227 653q0 69 32.5 134.5t86.5 117.5t117 90q164 100 364 119l27 158q0 17 -10 29t-25 16q-43 10 -217 10l10 72h705l-12 -72q-248 0 -271 -55l-26 -158q75 0 158.5 -26.5t155.5 -76t116.5 -117t44.5 -149.5q0 -126 -101 -232t-246.5 -167t-267.5 -61l-24 -158 q0 -35 35 -45q23 -5 80 -7.5t137 -2.5l-13 -72h-702l10 72q95 0 176 10t97 45l26 158q-108 12 -214.5 56t-177.5 123t-71 189zM436 610q0 -232 262 -270l121 719q-94 -12 -165 -49t-120 -96t-73.5 -134t-24.5 -170zM879 338q126 15 214.5 73.5t134.5 155.5t46 221 q0 236 -275 273z" />
<glyph unicode="&#xaa;" horiz-adv-x="1591" d="M299 1100q0 30 20 30h138q69 0 96 -52t27 -126q0 -46 -11 -116q-4 -28 -9 -82t-5 -80q0 -123 47.5 -211t155.5 -119l153 928q0 16 -9 28t-25 17q-43 10 -218 10l11 72h704l-12 -72q-94 0 -175 -10t-95 -45l-156 -926q112 28 187 103t117 178.5t60 216.5 q22 115 68.5 200.5t134.5 85.5h137q10 0 15.5 -6.5t5.5 -15.5q0 -31 -21 -31q-121 0 -161 -241q-24 -152 -95.5 -270t-188.5 -191.5t-267 -89.5l-27 -158q0 -35 35 -45q23 -5 80 -7.5t137 -2.5l-12 -72h-703l11 72q247 0 272 55l27 160q-178 22 -272.5 133t-94.5 291 q0 58 10 133q10 55 10 98q0 135 -82 135q-9 0 -14.5 7t-5.5 16z" />
<glyph unicode="&#xad;" horiz-adv-x="1479" d="M147 340h60q5 -167 18 -180q25 -19 144 -19h127q0 72 -28 142.5t-86.5 190t-88 207t-29.5 173.5q0 172 106.5 307t271.5 209t333 74q103 0 200.5 -29t176 -85.5t125.5 -141t47 -191.5q0 -113 -51.5 -217t-135 -209t-175.5 -222t-132 -208h125q121 0 152 21q21 24 77 178 h60l-125 -340h-358q-21 0 -21 27q20 116 63 213t131 267t130.5 289.5t42.5 241.5q0 76 -22 140.5t-65 112t-104.5 74t-140.5 26.5q-116 0 -208.5 -49t-157 -134.5t-97.5 -190.5t-33 -218q0 -96 19 -209l38 -224q19 -113 19 -208q0 -84 -10 -140q-1 -5 -8.5 -11.5t-12.5 -6.5 h-366z" />
<glyph unicode="&#xae;" horiz-adv-x="1194" d="M53 0l13 72q65 0 110 8.5t57 44.5l115 686h-158l13 72h157l41 245q13 75 64 135.5t126.5 101t155.5 60t156 19.5q64 0 120.5 -20.5t82.5 -65.5q51 39 115.5 62.5t130.5 23.5q61 0 110 -35t49 -96q0 -46 -30.5 -78.5t-75.5 -32.5q-34 0 -58 21.5t-24 56.5q0 34 19 61.5 t51 40.5q-22 9 -54 9q-60 0 -110.5 -41.5t-83 -104.5t-41.5 -121l-41 -241h237l-12 -72h-231l-113 -684q0 -55 189 -55l-13 -72h-502l13 72q149 0 168 53l114 686h-421l-115 -686v-4q0 -49 151 -49l-12 -72h-463zM498 883h428l41 245q3 24 12 54q-43 22 -43 69 q0 39 25.5 69.5t62.5 37.5q-52 33 -139 33q-78 0 -153.5 -34t-128 -95t-64.5 -138z" />
<glyph unicode="&#xaf;" horiz-adv-x="1137" d="M53 0l13 72q65 0 110 8.5t57 44.5l115 686h-158l13 72h157l41 245q13 78 65.5 138t126 99t155.5 59t159 20q87 0 154 -48.5t67 -133.5q0 -53 -31.5 -90t-82.5 -37q-35 0 -60.5 24t-25.5 60q0 46 34 79t78 33q-24 31 -65 45.5t-86 14.5q-76 0 -153.5 -34t-131 -95 t-65.5 -138l-41 -241l270 2l307 24q-4 -24 -4 -26l-127 -758v-4q0 -49 152 -49l-13 -72h-462l12 72q149 0 168 53l100 608q2 6 2 17q0 32 -17 45t-50 16h-344l-115 -686v-4q0 -49 151 -49l-12 -72h-463z" />
<glyph unicode="&#xb0;" horiz-adv-x="1137" d="M53 0l13 72q65 0 110 8.5t57 44.5l115 686h-158l13 72h157l41 245q13 76 64.5 136t127 100.5t155.5 60t155 19.5q109 0 170 -37l88 14q-4 -22 -4 -24l-213 -1272v-4q0 -49 152 -49l-13 -72h-462l12 72q149 0 168 53l114 686h-423l-115 -686v-4q0 -49 151 -49l-12 -72 h-463zM498 883h430l53 329q-39 20 -39 68q0 66 62 96q-43 15 -119 15q-78 0 -153.5 -34t-128 -95t-64.5 -138z" />
<glyph unicode="&#xb1;" horiz-adv-x="1706" d="M53 0l13 72q65 0 110 8.5t57 44.5l115 686h-158l13 72h157l41 245q13 76 64.5 136t127 100.5t155.5 60t155 19.5q67 0 122.5 -29.5t82.5 -83.5q74 55 171 84t196 29q54 0 105 -21t83.5 -64t32.5 -97q0 -53 -31 -90t-84 -37q-35 0 -60.5 24t-25.5 60q0 46 34 79t79 33 q-24 31 -65.5 45.5t-86.5 14.5q-76 0 -153.5 -34t-131 -95t-65.5 -138l-41 -241l270 2l307 24q-4 -24 -4 -26l-127 -758v-4q0 -49 152 -49l-12 -72h-463l12 72q150 0 168 53l100 608q2 6 2 17q0 32 -17 45t-50 16h-344l-115 -686v-4q0 -49 152 -49l-13 -72h-462l12 72 q149 0 168 53l114 686h-423l-115 -686v-4q0 -49 151 -49l-12 -72h-463zM498 883h430l41 245q1 4 1.5 7t0.5 8q-49 22 -49 76q0 46 34 79t80 33q-52 60 -151 60q-78 0 -153.5 -34t-128 -95t-64.5 -138z" />
<glyph unicode="&#xb2;" horiz-adv-x="1706" d="M53 0l13 72q65 0 110 8.5t57 44.5l115 686h-158l13 72h157l41 245q13 76 64.5 136t127 100.5t155.5 60t155 19.5q71 0 130.5 -25t84.5 -80q150 105 352 105q109 0 170 -37l89 14q-5 -22 -5 -24l-213 -1272v-4q0 -49 152 -49l-12 -72h-463l12 72q150 0 168 53l115 686 h-424l-115 -686v-4q0 -49 152 -49l-13 -72h-462l12 72q149 0 168 53l114 686h-423l-115 -686v-4q0 -49 151 -49l-12 -72h-463zM498 883h430l41 245q2 15 14 54q-45 19 -45 69q0 25 11 47.5t30.5 38t44.5 21.5q-49 33 -139 33q-78 0 -153.5 -34t-128 -95t-64.5 -138z M1065 883h430l53 329q-39 21 -39 68q0 66 62 96q-43 15 -119 15q-78 0 -153.5 -34t-128 -95t-64.5 -138z" />
<glyph unicode="&#xb3;" horiz-adv-x="567" d="M63 0l13 72q149 0 168 53l100 604q1 5 1.5 8.5t0.5 10.5q0 41 -39.5 52t-99.5 11l12 72l299 22q-4 -22 -4 -24l-127 -758v-6q0 -45 135 -45l-12 -72h-447z" />
<glyph unicode="&#xb4;" horiz-adv-x="625" d="M-133 -272q0 48 32.5 83t80.5 35q36 0 61 -22.5t25 -59.5q0 -38 -23.5 -69.5t-60.5 -40.5q45 -21 100 -21q81 0 127 80.5t63 180.5l140 835v16q0 44 -46.5 55t-115.5 11l12 72l324 22q-4 -22 -4 -24l-166 -996q-13 -78 -62.5 -149t-123 -113.5t-154.5 -42.5 q-79 0 -144 37.5t-65 110.5z" />
<glyph unicode="&#xb5;" d="M442 1341q0 33 30.5 61t64.5 28t51 -31l194 -316l-49 -41l-268 252q-23 21 -23 47z" />
<glyph unicode="&#xb6;" d="M600 1083l299 316q31 31 64 31q27 0 47 -20t20 -48q0 -38 -41 -68l-352 -252z" />
<glyph unicode="&#xb8;" d="M432 1354q0 34 6 67h54q-5 -16 -5 -47q0 -61 27.5 -113t77 -81t110.5 -29q72 0 137.5 37t110 100t56.5 133h53q-15 -87 -68 -171t-133 -134.5t-170 -50.5q-117 0 -186.5 85.5t-69.5 203.5z" />
<glyph unicode="&#xb9;" d="M332 1137l10 71h739l-10 -71h-739z" />
<glyph unicode="&#xba;" horiz-adv-x="1655" d="M840 1262q0 85 71.5 144.5t159.5 59.5q43 0 84 -19t65.5 -53t24.5 -81q0 -55 -34 -102.5t-88 -75t-111 -27.5q-43 0 -83.5 19t-64.5 54t-24 81zM897 1255q0 -94 125 -94q77 0 120.5 40.5t43.5 117.5q0 94 -123 94q-77 0 -121.5 -40.5t-44.5 -117.5z" />
<glyph unicode="&#xbb;" horiz-adv-x="909" d="M195 -420l10 53q360 0 360 125q0 51 -47.5 74t-105.5 23l16 100h150l-11 -59q148 -33 148 -129q0 -86 -92 -126.5t-201.5 -50.5t-226.5 -10z" />
<glyph unicode="&#xbc;" d="M53 0l13 72q65 0 110 8.5t57 44.5l115 686h-160l13 72h159l46 272q6 19 13.5 43.5t14.5 38.5q31 66 105 123q113 84 254 84q77 0 148.5 -30t116 -88t44.5 -138q0 -83 -45 -150.5t-118 -115.5t-151 -70q77 -34 132.5 -96.5t83.5 -142t28 -164.5q0 -119 -55.5 -229.5 t-154 -176.5t-220.5 -66q-65 0 -115.5 39.5t-50.5 102.5q0 39 25.5 68.5t64.5 29.5q29 0 49.5 -19t20.5 -46q0 -34 -21 -58.5t-55 -32.5q29 -30 84 -30q94 0 154.5 77t88 186t27.5 202q0 83 -25.5 158.5t-80 125t-137.5 49.5q-8 0 -13.5 7t-5.5 16q6 31 21 31q91 0 161.5 46 t110 124t39.5 166q0 74 -40 123t-113 49q-58 0 -114.5 -36.5t-92 -93t-35.5 -114.5l-189 -1129l-2 -9l-2 -9h-303z" />
<glyph unicode="&#xbd;" horiz-adv-x="1479" d="M119 166q0 123 106.5 203.5t253.5 114.5t271 34l18 109q4 28 4 47q0 49 -20.5 93t-59.5 70.5t-90 26.5q-137 0 -219 -63q32 -3 53 -26.5t21 -55.5q0 -45 -34 -79t-79 -34q-36 0 -61 23t-25 59q0 112 111.5 171t234.5 59q92 0 173 -39t118 -115q69 71 153 112.5t175 41.5 q92 0 157.5 -38t98 -108.5t32.5 -161.5q0 -70 -10 -118q0 -7 -7 -13t-13 -6h-588q-16 -94 -16 -143q0 -81 27 -146.5t82.5 -106t133.5 -40.5q63 0 119 30t98.5 80.5t65.5 108.5q4 12 18 12h19q8 0 14 -7t6 -15q0 -2 -2 -8q-21 -54 -57 -101.5t-83.5 -83.5t-102 -56 t-113.5 -20q-95 0 -179 46.5t-135 130.5q-38 -56 -100.5 -97t-133 -60.5t-142.5 -19.5q-110 0 -201.5 45.5t-91.5 143.5zM285 164q0 -57 42 -95t101 -38q71 0 143 37.5t118 99.5t46 135q-4 42 -4 66q0 44 10 96q-95 0 -202 -33.5t-180.5 -101.5t-73.5 -166zM903 524h459 q10 65 10 117q0 89 -34.5 156t-116.5 67q-122 0 -203 -102.5t-115 -237.5z" />
<glyph unicode="&#xbe;" horiz-adv-x="1591" d="M125 369q0 136 71.5 263.5t192 206.5t258.5 79q68 0 131 -24.5t113 -69.5t78 -107q68 89 164.5 145t203.5 56q93 0 158.5 -38.5t98 -108.5t32.5 -161q0 -70 -10 -118q0 -7 -7 -13t-14 -6h-587q-17 -89 -17 -143q0 -121 63 -207t181 -86q63 0 119 30t98.5 80.5t65.5 108.5 q4 12 18 12h18q10 0 15.5 -6.5t5.5 -15.5q0 -2 -2 -8q-43 -110 -142 -185.5t-214 -75.5q-106 0 -195.5 55.5t-134.5 151.5q-48 -61 -110.5 -108t-135 -73t-145.5 -26q-106 0 -192 52.5t-132.5 142t-46.5 197.5zM285 303q0 -68 22.5 -131t71 -102t119.5 -39q100 0 174 62 t117.5 154t62.5 193q0 11 4 31q10 68 10 121q0 69 -24 132t-75 101.5t-124 38.5q-95 0 -163.5 -53.5t-111.5 -139.5t-63 -184.5t-20 -183.5zM1018 524h459q10 65 10 117q0 89 -34.5 156t-117.5 67q-121 0 -202 -102.5t-115 -237.5z" />
<glyph unicode="&#xbf;" d="M88 -186l182 243q-65 54 -101 134t-36 167q0 136 73 267t195.5 212t262.5 81q56 0 108.5 -15.5t91.5 -42.5l174 234l43 -25l-178 -240q65 -55 98 -136t33 -171q0 -135 -72 -262.5t-194 -205t-260 -77.5q-110 0 -199 54l-178 -242zM276 295q0 -102 43 -168l500 674 q-63 63 -164 63q-193 0 -286 -179t-93 -390zM354 88q35 -30 74 -43.5t88 -13.5q104 0 176.5 52t116.5 134t64 178t20 195q0 103 -41 170z" />
<glyph unicode="&#xc0;" horiz-adv-x="1847" d="M66 0l12 72q54 0 101.5 11.5t85 37t61.5 72.5l592 1132q-56 2 -168 2l12 72h1147l-21 -469h-59q1 27 1.5 49t0.5 57q0 94 -18 152.5t-55.5 88t-96.5 40t-158 10.5h-147q-45 0 -74 -7.5t-37 -37.5l-96 -573h141q102 0 153 19.5t75.5 67.5t42.5 152h59l-92 -551h-60 q15 79 15 113q0 84 -52 105.5t-153 21.5h-141l-86 -520v-6q0 -39 96 -39h164q171 0 263.5 50.5t137.5 137.5t109 277h59l-176 -537h-1010l13 72q147 0 165 53l86 512h-323l-234 -444q-8 -22 -8 -35q0 -45 43 -65.5t94 -20.5l-12 -72h-452zM672 709h297l94 561q0 41 -72 51z " />
<glyph unicode="&#xc1;" horiz-adv-x="2075" d="M248 561q0 159 64 318t177 287t262.5 203t313.5 75q44 0 98 -11t107.5 -22.5t97.5 -11.5h768l-20 -469h-60q1 26 1.5 47.5t0.5 56.5q0 127 -35.5 190t-105.5 83t-203 20h-172q-45 0 -73.5 -7.5t-36.5 -37.5l-89 -520h181q111 0 167 16.5t87 67.5t49 155h59l-92 -550h-59 q10 85 10 104q0 62 -33 91.5t-80 36.5t-121 7h-178l-96 -573v-6q0 -39 96 -39h189q137 0 221 27.5t137 83.5t87 134.5t81 219.5h59l-176 -537h-796q-45 0 -102 -11t-114 -22.5t-102 -11.5q-167 0 -296.5 81t-201 220.5t-71.5 304.5zM461 543q0 -198 91 -366.5t273 -168.5 q147 0 201 82q36 55 58.5 149.5t43.5 227.5l78 465q35 185 35 285q0 65 -18.5 103.5t-60 54.5t-105.5 16q-192 0 -365 -195q-76 -88 -128 -195t-77.5 -222t-25.5 -236z" />
<glyph unicode="&#xc2;" horiz-adv-x="1591" d="M219 561q0 213 111.5 419.5t301 335t404.5 128.5q104 0 194.5 -32.5t162.5 -92.5l163 197l43 -33l-167 -201q86 -87 129 -204.5t43 -248.5q0 -158 -63.5 -315t-177 -284.5t-263 -201t-312.5 -73.5q-102 0 -193.5 33t-162.5 92l-164 -197l-43 33l166 201 q-59 59 -97.5 131.5t-56.5 151t-18 161.5zM399 473q0 -159 62 -272l870 1044q-56 72 -135 109t-168 37q-76 0 -148.5 -24.5t-139 -70.5t-115.5 -104q-107 -123 -166.5 -326t-59.5 -393zM494 154q54 -71 135 -108.5t168 -37.5q113 0 217.5 52.5t183.5 142.5q73 82 125 207 t76 259t24 251q0 167 -61 276z" />
<glyph unicode="&#xc3;" horiz-adv-x="567" d="M158 643l493 160l13 -68l-494 -162z" />
<glyph unicode="&#xc4;" d="M416 1249q0 48 36.5 84.5t84.5 36.5q40 0 67 -26t27 -66q0 -48 -36.5 -84.5t-84.5 -36.5q-39 0 -66.5 27.5t-27.5 64.5zM811 1249q0 31 17.5 59t45.5 45t60 17q39 0 66.5 -26.5t27.5 -65.5q0 -47 -37 -84t-86 -37q-39 0 -66.5 27.5t-27.5 64.5z" />
<glyph unicode="&#x2000;" horiz-adv-x="768" />
<glyph unicode="&#x2001;" horiz-adv-x="1536" />
<glyph unicode="&#x2002;" horiz-adv-x="768" />
<glyph unicode="&#x2003;" horiz-adv-x="1536" />
<glyph unicode="&#x2004;" horiz-adv-x="512" />
<glyph unicode="&#x2005;" horiz-adv-x="384" />
<glyph unicode="&#x2006;" horiz-adv-x="256" />
<glyph unicode="&#x2007;" horiz-adv-x="256" />
<glyph unicode="&#x2008;" horiz-adv-x="192" />
<glyph unicode="&#x2009;" horiz-adv-x="307" />
<glyph unicode="&#x200a;" horiz-adv-x="85" />
<glyph unicode="&#x2010;" horiz-adv-x="682" d="M86 379l20 127h543l-20 -127h-543z" />
<glyph unicode="&#x2011;" horiz-adv-x="682" d="M86 379l20 127h543l-20 -127h-543z" />
<glyph unicode="&#x2012;" horiz-adv-x="682" d="M86 379l20 127h543l-20 -127h-543z" />
<glyph unicode="&#x2013;" horiz-adv-x="1143" d="M86 379l36 127h988l-36 -127h-988z" />
<glyph unicode="&#x2014;" horiz-adv-x="2167" d="M86 379l73 127h1975l-73 -127h-1975z" />
<glyph unicode="&#x202f;" horiz-adv-x="307" />
<glyph unicode="&#x205f;" horiz-adv-x="384" />
<glyph unicode="&#x2219;" d="M451 1262l41 49l215 -140l262 140l24 -49l-307 -207z" />
<glyph unicode="&#xe000;" horiz-adv-x="885" d="M0 885h885v-885h-885v885z" />
</font>
</defs>
</svg>
