<?xml version="1.0" standalone="no"?>
<!DOCTYPE svg PUBLIC "-//W3C//DTD SVG 1.1//EN" "http://www.w3.org/Graphics/SVG/1.1/DTD/svg11.dtd" >
<svg xmlns="http://www.w3.org/2000/svg">
<metadata>
This is a custom SVG webfont generated by Font Squirrel.
Copyright   : Copyright C 1994 Basil K Malyshev All Rights Reserved012BaKoMa Fonts Collection LevelB
</metadata>
<defs>
<font id="cmsltt10Regular" horiz-adv-x="1075" >
<font-face units-per-em="2048" ascent="1638" descent="-410" />
<missing-glyph horiz-adv-x="500" />
<glyph unicode=" " />
<glyph unicode="!" d="M446 98q0 46 34.5 80.5t80.5 34.5q41 0 69.5 -29.5t28.5 -68.5q0 -47 -33 -81t-79 -34q-42 0 -71.5 29.5t-29.5 68.5zM524 444l101 727q6 44 38 73.5t76 29.5q40 0 69.5 -28.5t29.5 -69.5v-17l-144 -729q-9 -43 -55 -49h-59q-25 3 -40.5 20.5t-15.5 42.5z" />
<glyph unicode="&#x22;" d="M412 737l45 445q6 40 34 66t68 26q37 0 63.5 -25t26.5 -63q0 -10 -2 -17l-102 -448q-12 -43 -58 -49h-18q-57 7 -57 65zM774 737l45 445q6 40 34 66t69 26q37 0 63.5 -25t26.5 -63q0 -10 -2 -17l-103 -448q-12 -43 -57 -49h-19q-26 3 -41.5 20.5t-15.5 44.5z" />
<glyph unicode="#" d="M139 406q0 28 20 48t48 23h139l86 299h-151q-28 3 -48 24t-20 48t21 48t47 24h196l80 278q17 53 70 53q29 0 50 -21t21 -50q0 -13 -2 -17l-69 -243h207l79 278q19 53 70 53q30 0 51 -21t21 -50q0 -13 -2 -17l-70 -243h92q28 -3 48 -24t20 -48t-19 -48t-49 -24h-137 l-86 -299h149q30 -3 49 -23t19 -48q0 -27 -19 -48t-49 -24h-194l-82 -279q-17 -55 -70 -55q-29 0 -50 22t-21 50q0 12 2 18l71 244h-206l-82 -279q-19 -55 -70 -55q-28 0 -50 22t-22 50q0 12 2 18l72 244h-94q-28 3 -48 24t-20 48zM496 477h206l86 299h-206z" />
<glyph unicode="$" d="M172 293q0 156 107 156q37 0 63.5 -25.5t26.5 -63.5q0 -50 -45 -86q0 -64 49.5 -102t118.5 -47l77 465q-132 29 -215.5 101.5t-83.5 195.5q0 100 60 181.5t154 131t196 62.5l18 110q13 43 58 49h18q27 -3 42 -20t15 -45l-16 -96q129 -15 213 -86t84 -197 q0 -63 -23.5 -105.5t-80.5 -42.5q-37 0 -63.5 25.5t-26.5 63.5q0 51 43 83q-8 57 -55.5 87.5t-112.5 37.5l-70 -415q83 -19 149.5 -60.5t105 -107t38.5 -148.5q0 -104 -59 -192t-155 -143.5t-198 -67.5l-18 -113q-12 -43 -58 -49h-18q-26 3 -41.5 22t-15.5 44l16 96 q-130 17 -213.5 95t-83.5 206zM412 899q0 -118 182 -160l63 383q-92 -17 -168.5 -78t-76.5 -145zM627 129q58 13 117.5 49.5t96 90t36.5 114.5q0 73 -51 118t-128 60z" />
<glyph unicode="%" d="M162 -98q0 16 6 28l815 1450q23 41 66 41q29 0 50 -21t21 -50q0 -17 -6 -29l-815 -1450q-23 -41 -66 -41q-29 0 -50 22t-21 50zM258 1085q0 66 25.5 145.5t76 135t117.5 55.5q76 0 112 -65.5t36 -145.5q0 -65 -25.5 -144.5t-76 -135.5t-117.5 -56q-74 0 -111 65.5 t-37 145.5zM381 1092q0 -15 8 -49.5t19 -34.5q38 0 66 73t28 123q0 23 -8 53.5t-19 30.5q-38 0 -66 -72t-28 -124zM657 39q0 67 25.5 146t75 134.5t119.5 55.5q74 0 110.5 -65t36.5 -144q0 -67 -25.5 -146t-75.5 -134.5t-118 -55.5q-73 0 -110.5 65t-37.5 144zM780 45 q0 -13 8 -47.5t19 -34.5q38 0 66 72.5t28 124.5q0 21 -8 51.5t-19 30.5q-39 0 -66.5 -72.5t-27.5 -124.5z" />
<glyph unicode="&#x26;" d="M100 229q0 81 33 157t92 132l148 133q-15 79 -15 172q0 98 24 202.5t85.5 176.5t163.5 72q82 0 121 -62t39 -149q0 -99 -37 -178.5t-95 -143.5t-149 -145q23 -94 96 -260q39 56 70.5 108.5t65.5 113.5t65 118l39 74q-23 4 -37 23t-14 42q5 30 18 47t41 21h229 q25 -3 41.5 -21.5t16.5 -44.5q-10 -59 -60 -67h-96l-72 -136q-69 -130 -122 -220.5t-119 -178.5q74 -104 141 -104q40 0 66.5 41t33.5 84q13 51 60 51q27 0 44 -18t17 -44q0 -53 -32 -112.5t-83.5 -97.5t-107.5 -38q-123 0 -223 140q-136 -140 -275 -140q-101 0 -157 75 t-56 177zM250 225q0 -114 65 -114q97 0 207 118q-70 136 -114 275l-72 -64q-86 -83 -86 -215zM481 823q0 -47 2 -71q68 66 101 102t58.5 88.5t25.5 110.5q0 82 -35 88q-87 0 -119.5 -101.5t-32.5 -216.5z" />
<glyph unicode="'" d="M477 680q0 31 33 53q93 43 157 126t74 181q-1 0 -7 -0.5t-15 -1.5q-40 0 -69 29t-29 70q0 48 35 81t83 33q68 0 103 -54.5t35 -125.5q0 -140 -87 -265.5t-219 -189.5q-12 -6 -26 -6q-25 0 -46.5 21.5t-21.5 48.5z" />
<glyph unicode="(" d="M442 481q0 189 74 370t207.5 328.5t298.5 235.5q9 6 22 6h23q25 -3 40 -19t15 -40q0 -37 -28 -49q-148 -88 -261.5 -218t-177 -290t-63.5 -330q0 -160 66.5 -303.5t193.5 -232.5q25 -17 25 -48q0 -24 -16 -40t-40 -19h-22q-13 0 -33 12q-154 104 -239 274t-85 363z" />
<glyph unicode=")" d="M162 -109q0 36 28 50q148 88 262 218t177 290.5t63 328.5q0 108 -29.5 207.5t-87.5 184.5t-143 145q-24 15 -24 47q0 24 15 40t40 19h22q13 0 33 -12q156 -103 240 -273.5t84 -363.5q0 -189 -74 -370t-207.5 -328.5t-298.5 -235.5q-9 -6 -22 -6h-23q-23 3 -39 19t-16 40z " />
<glyph unicode="*" d="M211 430q0 23 13.5 43t35.5 29l248 125l-207 123q-29 16 -29 49q0 35 26.5 59.5t59.5 24.5q21 0 33 -11l203 -133l37 256q4 30 28.5 51t55.5 21q26 0 43.5 -16.5t17.5 -42.5q0 -4 -0.5 -7t-1.5 -6l-49 -256l248 133q15 11 37 11q24 0 42.5 -17.5t18.5 -44.5 q0 -23 -13 -42.5t-36 -28.5l-248 -123l207 -125q27 -15 27 -49q0 -33 -25.5 -58.5t-58.5 -25.5q-22 0 -35 10l-201 133l-37 -256q-4 -28 -28.5 -50t-55.5 -22q-24 0 -42.5 17.5t-18.5 42.5q0 8 2 12l47 256l-246 -133q-15 -10 -37 -10q-24 0 -42.5 17.5t-18.5 43.5z" />
<glyph unicode="+" d="M182 627q0 27 20.5 47.5t47.5 23.5h330l55 330q4 25 24.5 42t47.5 17q29 0 50 -21t21 -50q0 -2 -2 -12l-51 -306h307q29 -3 48.5 -23.5t19.5 -47.5t-19 -48t-49 -24h-330l-55 -330q-4 -25 -24.5 -42t-47.5 -17q-29 0 -50 22t-21 50q0 2 2 12l51 305h-307q-28 3 -48 24 t-20 48z" />
<glyph unicode="," d="M330 -215q0 44 49 59q62 16 113 58.5t77 99.5q-3 0 -8.5 -0.5t-13.5 -1.5q-50 0 -85.5 33.5t-35.5 85.5q0 60 42.5 102.5t102.5 42.5q47 0 82 -24.5t53.5 -64.5t18.5 -85q0 -127 -93 -233.5t-218 -139.5q-6 -2 -17 -2q-25 0 -46 22t-21 48z" />
<glyph unicode="-" d="M219 627q0 27 20.5 47.5t47.5 23.5h708q29 -3 48.5 -23.5t19.5 -47.5t-19 -48t-49 -24h-708q-28 3 -48 24t-20 48z" />
<glyph unicode="." d="M426 121q0 56 44.5 99.5t100.5 43.5q51 0 86 -35t35 -86q0 -55 -44 -99t-101 -44q-50 0 -85.5 35.5t-35.5 85.5z" />
<glyph unicode="/" d="M102 -98q0 17 11 37l934 1447q23 35 61 35q30 0 51 -21t21 -50q0 -18 -11 -37l-933 -1448q-25 -35 -62 -35q-28 0 -50 22t-22 50z" />
<glyph unicode="0" d="M188 467q0 167 56.5 328.5t163.5 287.5q69 83 156.5 137t185.5 54q89 0 155.5 -45t107 -116.5t61 -158t20.5 -170.5q0 -112 -25 -221t-75.5 -211.5t-119.5 -183.5q-69 -84 -157.5 -137.5t-184.5 -53.5q-115 0 -193 75.5t-114.5 189t-36.5 225.5zM342 485q0 -75 20 -162.5 t67 -149.5t126 -62q88 0 161.5 71.5t124.5 181.5t78 227t27 197q0 126 -52.5 239.5t-166.5 113.5q-119 0 -229 -144q-54 -72 -88.5 -155t-51 -173t-16.5 -184z" />
<glyph unicode="1" d="M233 66q12 60 60 67h219l139 836q-106 -78 -217 -78q-28 0 -46.5 18.5t-18.5 46.5q10 61 59 68q91 0 167 64t126 155q18 31 49 31h14q28 -3 44 -21.5t16 -44.5l-180 -1075h200q25 -3 41.5 -21.5t16.5 -43.5q-11 -61 -60 -68h-571q-26 3 -42 21.5t-16 44.5z" />
<glyph unicode="2" d="M117 66q8 48 35 61l376 276q54 39 141 103.5t151 127.5t105.5 137.5t41.5 154.5q0 72 -39.5 121t-102.5 71.5t-133 22.5q-77 0 -148.5 -40.5t-109.5 -109.5q19 -28 19 -55q0 -42 -30 -72t-73 -30q-36 0 -63 25t-27 63q1 5 1.5 8.5t0.5 9.5q17 101 85.5 176.5t165 116.5 t196.5 41q82 0 154.5 -22t129 -64.5t90 -107.5t33.5 -150q0 -134 -74 -245t-159 -180.5t-262 -197.5l-240 -174h457q8 48 18 69.5t47 26.5h35q27 -3 42 -20t15 -45l-18 -113q-11 -44 -57 -51h-746q-26 3 -41.5 22t-15.5 44z" />
<glyph unicode="3" d="M133 246q0 54 26.5 91.5t78.5 37.5q38 0 64 -24.5t26 -63.5q0 -46 -35 -78q26 -54 101.5 -76t156.5 -22q58 0 121 22t113 61t81 93t31 116q0 50 -21 89t-56.5 65t-78 38.5t-90.5 12.5h-127q-23 3 -39 20t-16 40q0 64 59 73l140 11q58 0 123 39.5t107 100.5t42 120 q0 44 -31.5 73t-78.5 42.5t-87 13.5q-169 0 -239 -62l6 -18q2 -6 2 -23q0 -42 -30 -72t-72 -30q-37 0 -62.5 26.5t-25.5 61.5v18q16 68 59 114.5t102.5 71.5t124.5 35.5t137 10.5q83 0 162 -29t131 -88.5t52 -144.5q0 -102 -64 -191t-158 -143q51 -26 92 -68.5t64 -97 t23 -113.5q0 -120 -74.5 -216.5t-190 -151t-231.5 -54.5q-156 0 -287 63.5t-131 205.5z" />
<glyph unicode="4" d="M127 406q2 19 4 31t5.5 26t13.5 26l602 748q28 31 61 31h113q20 0 36.5 -14.5t16.5 -36.5q0 -4 -0.5 -6t-1.5 -5l-121 -729h170q25 -3 41 -19t16 -42q0 -29 -16.5 -48.5t-42.5 -23.5h-190l-35 -211h141q25 -3 41 -20t16 -41q0 -29 -16.5 -48.5t-42.5 -23.5h-426 q-26 3 -41.5 20.5t-15.5 40.5q0 28 15.5 48t43.5 24h160l37 211h-527q-24 3 -40.5 20.5t-16.5 41.5zM293 477h440l115 688z" />
<glyph unicode="5" d="M154 260q0 55 24.5 93t79.5 38q24 0 44.5 -11.5t32 -31.5t11.5 -45q0 -50 -39 -80q18 -58 79 -85t128 -27q91 0 177.5 45t141 122.5t54.5 170.5q0 90 -53.5 152.5t-143.5 62.5q-179 0 -293 -117q-21 -17 -39 -17h-26q-24 5 -41 22t-17 40q0 4 2 12l99 598q12 43 57 49 h604q24 -3 41 -20t17 -41q0 -27 -16 -47.5t-44 -24.5h-522l-61 -373q105 52 243 52q97 0 175.5 -46.5t122.5 -127.5t44 -177q0 -100 -44 -186t-119 -149t-169 -98.5t-192 -35.5q-87 0 -170 32t-135.5 96.5t-52.5 154.5z" />
<glyph unicode="6" d="M188 424q0 98 16.5 192.5t51.5 185.5t84 161q60 87 140.5 157.5t177.5 112t198 41.5q105 0 178.5 -46.5t73.5 -144.5q0 -53 -25.5 -89t-78.5 -36q-39 0 -65 25t-26 64q0 37 31 71q-24 23 -88 23q-110 0 -207.5 -63.5t-168 -163.5t-101.5 -205q67 50 147.5 77t161.5 27 q96 0 177 -45t128 -124.5t47 -176.5q0 -133 -67.5 -245t-182 -178.5t-247.5 -66.5q-123 0 -202 62.5t-116 164t-37 220.5zM340 367q0 -100 54 -178t151 -78q92 0 172 48.5t127 130t47 175.5q0 93 -63 153t-156 60q-55 0 -111.5 -18.5t-105 -52.5t-79 -84t-30.5 -105 q0 -12 2 -19q0 -6 -4 -18t-4 -14z" />
<glyph unicode="7" d="M270 1083q0 4 2 13l23 139q12 43 57 49h35q35 -3 49 -33h688q24 -3 41 -20t17 -41q0 -38 -21 -55q-111 -90 -211 -199t-178 -225q-100 -147 -174 -328q-35 -88 -72 -217q-5 -22 -12 -62t-16 -75q-19 -45 -68 -52q-31 0 -52 19t-26 49q0 86 55.5 245.5t110.5 270.5 q55 108 118.5 204t140.5 185.5t161 167.5h-512q-6 -48 -16 -69.5t-48 -26.5h-34q-24 3 -41 21t-17 40z" />
<glyph unicode="8" d="M145 307q0 68 28.5 127.5t78.5 108t111 82.5t126 51q-89 27 -153 88t-64 145q0 105 74.5 188.5t188 130t215.5 46.5q88 0 172.5 -33t138 -99t53.5 -157q0 -115 -89.5 -194.5t-215.5 -114.5q47 -14 90.5 -40t76 -61t52 -79t19.5 -95q0 -88 -46 -166.5t-123 -136.5 t-168 -89.5t-178 -31.5q-98 0 -187.5 39.5t-144.5 114.5t-55 176zM297 326q0 -99 78 -157t180 -58q79 0 159 36t131.5 101.5t51.5 144.5q0 68 -37.5 116.5t-96.5 73.5t-124 25q-81 0 -160.5 -35.5t-130.5 -101t-51 -145.5zM424 918q0 -84 73.5 -130.5t161.5 -46.5 q65 0 137 27t120.5 78.5t48.5 120.5q0 56 -37 96t-92.5 59t-108.5 19q-63 0 -135 -26.5t-120 -77.5t-48 -119z" />
<glyph unicode="9" d="M174 170q0 52 26.5 88.5t78.5 36.5q24 0 44.5 -11.5t32 -31.5t11.5 -47q0 -35 -27 -70q36 -24 115 -24q102 0 195 65.5t159 166.5t94 202q-66 -51 -145 -78t-164 -27q-147 0 -249.5 98.5t-102.5 245.5q0 135 70 247t188 177.5t252 65.5q116 0 194 -61.5t113 -161.5 t35 -217q0 -151 -38 -295.5t-118 -262.5q-58 -86 -131 -151.5t-166 -106.5t-186 -41q-114 0 -197.5 44.5t-83.5 148.5zM391 786q0 -92 63 -152.5t156 -60.5q72 0 148.5 34t127 94t50.5 135v16q0 1 3 14.5t3 18.5q0 60 -21.5 120.5t-65 98t-107.5 37.5q-70 0 -135 -27 t-115.5 -77t-78.5 -113.5t-28 -137.5z" />
<glyph unicode=":" d="M426 121q0 56 44.5 99.5t100.5 43.5q51 0 86 -35t35 -86q0 -55 -44 -99t-101 -44q-50 0 -85.5 35.5t-35.5 85.5zM530 739q0 57 44.5 100.5t101.5 43.5q50 0 85.5 -35.5t35.5 -85.5q0 -37 -20.5 -70.5t-53.5 -53.5t-72 -20q-49 0 -85 36t-36 85z" />
<glyph unicode=";" d="M330 -215q0 41 35 53q57 24 102 66t70 96q-46 0 -78.5 36.5t-32.5 82.5q0 60 42.5 102.5t102.5 42.5q63 0 93 -45t30 -108q0 -81 -35 -159t-97 -139t-138 -92q-12 -6 -27 -6q-25 0 -46 22t-21 48zM530 739q0 57 44.5 100.5t101.5 43.5q50 0 85.5 -35.5t35.5 -85.5 q0 -37 -20.5 -70.5t-53.5 -53.5t-72 -20q-49 0 -85 36t-36 85z" />
<glyph unicode="&#x3c;" d="M219 627q0 37 37 63l772 440q19 11 37 11q30 0 51 -21t21 -51q0 -39 -37 -63l-676 -385l537 -377q28 -23 28 -58q0 -30 -21.5 -50.5t-49.5 -20.5q-22 0 -35 8l-635 446q-29 23 -29 58z" />
<glyph unicode="=" d="M156 473q0 28 19 47.5t48 24.5h783q30 -5 48.5 -24t18.5 -48t-18 -48t-49 -24h-783q-30 5 -48.5 24.5t-18.5 47.5zM209 782q0 28 19 47.5t48 24.5h783q30 -4 48.5 -23.5t18.5 -48.5q0 -30 -19 -49t-48 -22h-783q-28 3 -47.5 22.5t-19.5 48.5z" />
<glyph unicode="&#x3e;" d="M145 186q0 37 37 62l676 385l-536 379q-29 18 -29 57q0 30 22 51t50 21q18 0 34 -11l635 -446q29 -21 29 -57q0 -37 -35 -62l-774 -442q-16 -8 -37 -8q-28 0 -50 20.5t-22 50.5z" />
<glyph unicode="?" d="M295 1001q0 89 66.5 148t162.5 87t183 28q161 0 285 -49t124 -185q0 -71 -45 -129t-115 -92q-64 -30 -123.5 -74t-102 -102.5t-54.5 -128.5l-12 -74q-10 -43 -56 -49h-59q-25 3 -40 20.5t-15 42.5l14 82q23 134 127 233t248 169q84 39 84 100q0 63 -83 82.5t-179 19.5 q-153 0 -230 -71q0 -2 4 -11t4 -14q2 -6 2 -18q0 -44 -28.5 -73.5t-71.5 -29.5q-38 0 -64 25t-26 63zM416 98q0 47 34 81t80 34q43 0 71 -29t28 -69q0 -47 -34 -81t-79 -34q-27 0 -50 13.5t-36.5 36t-13.5 48.5z" />
<glyph unicode="@" d="M184 508q0 129 48 264.5t135 246.5t205.5 178t254.5 67q104 0 169 -54t92.5 -140.5t27.5 -186.5q0 -102 -18 -212.5t-49 -185.5q-43 -105 -128 -186.5t-188 -81.5q-82 0 -138.5 48.5t-84 124t-27.5 151.5q0 104 45 220.5t128.5 194.5t191.5 78q74 0 133 -47 q-31 143 -158 143q-107 0 -202 -55.5t-166 -148t-109.5 -202t-38.5 -210.5q0 -102 38 -191.5t112.5 -145.5t177.5 -56q124 0 233 92q26 14 37 14h51q26 -3 41 -19t15 -40q0 -27 -21 -43q-78 -65 -168.5 -101t-189.5 -36q-138 0 -240 73.5t-155.5 193t-53.5 253.5zM608 547 q0 -71 31 -134t94 -63q69 0 123.5 59t84.5 144t30 152q0 72 -31 134t-94 62q-69 0 -123.5 -59t-84.5 -143.5t-30 -151.5z" />
<glyph unicode="A" d="M68 61q0 28 15.5 48t43.5 24h74l428 1081q11 27 35.5 44.5t52.5 17.5h65q27 0 47.5 -18t20.5 -44l65 -1081h56q26 -3 41.5 -20.5t15.5 -40.5q0 -29 -16.5 -48.5t-42.5 -23.5h-277q-23 3 -40 21t-17 40q0 27 16 47.5t43 24.5h70q-5 82 -12 193h-322q-13 -34 -36.5 -95.5 t-39.5 -97.5h49q24 -3 41 -21t17 -40q0 -27 -16 -47.5t-44 -24.5h-276q-26 3 -41.5 20.5t-15.5 40.5zM483 459h260q-24 462 -24 579v64q-10 -68 -236 -643z" />
<glyph unicode="B" d="M53 61q0 27 17 47.5t43 24.5h90l166 985h-72q-26 3 -41.5 20.5t-15.5 41.5q0 61 59 71h510q62 0 113.5 -18.5t93.5 -55t65 -86t23 -112.5q0 -75 -37 -140.5t-98.5 -113t-134.5 -70.5q95 -21 155 -94t60 -168q0 -77 -33.5 -148t-91.5 -126t-132 -87t-149 -32h-532 q-26 3 -42 20t-16 41zM354 133h269q71 0 134 33.5t102.5 92.5t39.5 130q0 79 -50.5 137t-129.5 58h-289zM453 717h225q66 0 129.5 32.5t104 88.5t40.5 123t-48 112t-118 45h-268z" />
<glyph unicode="C" d="M174 492q0 168 76.5 352.5t214 307t311.5 122.5q72 0 138 -25t114 -73l49 73q5 11 17 18t26 7h19q23 -3 39 -19t16 -41q0 -4 -2 -10l-55 -338q-14 -43 -56 -49h-39q-25 3 -40 21.5t-15 42.5q2 8 2 22q0 63 -23 117t-68 87.5t-110 33.5q-98 0 -184 -63.5t-151 -159.5 q-62 -90 -95.5 -200t-33.5 -224q0 -91 29 -178.5t90.5 -146t154.5 -58.5q69 0 135.5 34.5t112 94.5t57.5 129q9 40 53 47h39q24 -3 40 -19t16 -41v-10q-13 -79 -57 -146.5t-110 -117.5t-145.5 -77.5t-156.5 -27.5q-100 0 -177 44.5t-128 120t-77 166t-26 184.5z" />
<glyph unicode="D" d="M45 61q0 27 16 47.5t43 24.5h80l166 985h-61q-24 3 -41 21t-17 41q0 28 16 47t44 24h475q89 0 155.5 -44.5t107.5 -116t61 -155t20 -165.5q0 -165 -55.5 -319t-159.5 -271q-70 -80 -157 -130t-181 -50h-455q-23 3 -40 21t-17 40zM336 133h205q126 0 220.5 100 t145.5 243.5t51 266.5q0 139 -63.5 257t-189.5 118h-205z" />
<glyph unicode="E" d="M59 61q0 27 17 47.5t43 24.5h96l166 985h-78q-25 3 -41 21t-16 41q0 61 59 71h819q24 -3 41 -20t17 -41q0 -4 -2 -10l-33 -203q-12 -45 -57 -51h-35q-24 3 -41 20t-17 41q0 4 2 12l21 119h-490l-65 -403h258l10 67q12 43 58 49h34q24 -3 41 -20t17 -41q0 -4 -2 -10 l-41 -244q-9 -44 -56 -51h-34q-26 3 -42 20t-16 41q0 5 2 19t3.5 23.5t2.5 13.5h-258l-75 -449h532l31 176q9 43 55 49h35q26 -3 41.5 -19.5t15.5 -41.5v-10l-39 -236q-12 -45 -57 -51h-864q-24 3 -41 21t-17 40z" />
<glyph unicode="F" d="M63 66q12 60 60 67h102l166 985h-84q-26 3 -41.5 22t-15.5 44q5 30 17.5 46t41.5 21h836q27 -3 42 -20t15 -45l-35 -209q-12 -45 -57 -51h-35q-26 3 -41.5 21t-15.5 44l22 127h-499l-70 -426h268l11 68q12 43 57 49h35q25 -3 41 -21t16 -45l-41 -249q-12 -46 -57 -52h-35 q-26 3 -41.5 22t-15.5 44l8 51h-268l-72 -426h121q25 -3 41 -21.5t16 -43.5q-5 -30 -18.5 -47t-40.5 -21h-375q-26 3 -42 21.5t-16 44.5z" />
<glyph unicode="G" d="M170 479v4q0 85 15.5 170.5t45.5 166t74 153.5q74 124 186.5 212.5t241.5 88.5q64 0 124 -23t104 -67l45 65q13 25 43 25h18q24 -3 39.5 -19.5t15.5 -44.5l-57 -344q-9 -42 -55 -49h-39q-25 3 -40.5 21t-15.5 43q3 10 3 28q0 93 -43 162.5t-130 69.5q-61 0 -119.5 -34 t-106 -86.5t-81.5 -109.5q-58 -95 -88.5 -206t-30.5 -226q0 -132 56.5 -250t175.5 -118q106 0 178.5 95.5t106.5 217.5h-101q-26 3 -41.5 22t-15.5 43q5 30 18 47t41 21h303q25 -3 41.5 -21.5t16.5 -43.5q-10 -60 -60 -68h-47l-63 -375q-9 -44 -56 -51h-34q-26 3 -42 20 t-16 41v11q-111 -93 -241 -93q-122 0 -205.5 76.5t-123.5 192.5t-40 233z" />
<glyph unicode="H" d="M51 66q7 59 58 67h86l165 985h-65q-26 3 -41.5 22t-15.5 44q6 59 57 67h303q27 -3 42 -20t15 -45q-5 -30 -18.5 -47t-40.5 -21h-86l-66 -401h424l68 401h-66q-25 3 -41 21.5t-16 44.5q6 59 57 67h304q26 -3 41.5 -21t15.5 -44q-10 -60 -60 -68h-86l-163 -985h65 q25 -3 41 -21t16 -44q-5 -30 -18.5 -47t-40.5 -21h-301q-26 3 -41.5 22t-15.5 44q7 59 57 67h86l76 451h-424l-76 -451h66q25 -3 41 -21.5t16 -43.5q-5 -30 -18.5 -47t-40.5 -21h-301q-26 3 -42 21.5t-16 44.5z" />
<glyph unicode="I" d="M168 66q5 29 18 46t41 21h256l166 985h-237q-26 3 -42 21.5t-16 44.5q10 59 60 67h645q27 -3 42 -20t15 -45q-5 -30 -18.5 -47t-40.5 -21h-258l-164 -985h237q25 -3 41.5 -21.5t16.5 -43.5q-10 -60 -60 -68h-645q-26 3 -41.5 22t-15.5 44z" />
<glyph unicode="J" d="M170 184q0 50 27.5 84.5t74.5 34.5q25 0 45.5 -12t32.5 -31.5t12 -44.5q0 -37 -22 -65q43 -39 154 -39q79 0 149 44.5t86 118.5l141 844h-184q-25 3 -41 21t-16 41q0 61 59 71h432q24 -3 41 -20t17 -41q0 -27 -16 -47.5t-44 -24.5h-98l-143 -866q-17 -83 -76.5 -146 t-142 -96t-166.5 -33q-123 0 -222.5 48t-99.5 159z" />
<glyph unicode="K" d="M59 66q12 60 60 67h80l166 985h-62q-26 3 -41.5 22t-15.5 44q5 30 17.5 46t41.5 21h266q27 -3 42.5 -21t15.5 -44q-10 -60 -60 -68h-82l-86 -524l504 524h-14q-26 3 -41.5 22t-15.5 44q5 30 17.5 46t41.5 21h242q26 -3 41.5 -21t15.5 -44q-10 -60 -59 -68h-72l-371 -387 l238 -598h41q25 -3 41 -21t16 -44q-5 -30 -18.5 -47t-40.5 -21h-215q-26 3 -42 21.5t-16 44.5q10 59 60 67h32l-196 494l-221 -230l-45 -264h61q25 -3 41 -21t16 -44q-5 -30 -18.5 -47t-40.5 -21h-266q-26 3 -42 21.5t-16 44.5z" />
<glyph unicode="L" d="M72 61q0 28 15.5 48t43.5 24h109l166 985h-91q-24 3 -40.5 20.5t-16.5 41.5q0 29 15 47.5t44 23.5h390q25 -3 41 -19t16 -42q0 -28 -15.5 -48t-41.5 -24h-152l-164 -985h479l31 176q9 42 55 49h35q27 -3 42.5 -18.5t15.5 -42.5v-10l-39 -236q-13 -45 -58 -51h-823 q-26 3 -41.5 20.5t-15.5 40.5z" />
<glyph unicode="M" d="M41 66q5 29 18 46t41 21h60l166 985h-41q-26 3 -42 21.5t-16 44.5q10 59 60 67h180q28 0 50 -17t26 -44q1 -9 32 -207.5t43.5 -284.5t12.5 -120v-11q8 43 297 623q13 26 39 43.5t55 17.5h162q27 -3 42 -20t15 -45q-5 -30 -18.5 -47t-40.5 -21h-62l-164 -985h41 q25 -3 41.5 -21.5t16.5 -43.5q-10 -60 -60 -68h-225q-26 3 -41.5 22t-15.5 44q5 29 18 46t41 21h59l162 969q-3 -16 -30.5 -76.5t-69 -147t-90 -186t-105.5 -213.5q-13 -27 -38 -44t-54 -17q-26 0 -46 17t-25 44q-19 120 -39 245t-35 227.5t-15 140.5v10l-161 -969h41 q25 -3 41 -21.5t16 -43.5q-10 -60 -59 -68h-226q-26 3 -41.5 22t-15.5 44z" />
<glyph unicode="N" d="M63 66q8 59 58 67h86l166 985h-66q-26 3 -41.5 22t-15.5 44q6 59 57 67h207q28 0 50 -16.5t28 -44.5q45 -227 75.5 -386.5t55.5 -291.5t44 -238t19 -122q1 0 1.5 -0.5t0.5 -1.5l162 968h-65q-26 3 -42 21.5t-16 44.5q6 59 58 67h276q27 -3 42.5 -21t15.5 -44 q-11 -61 -60 -68h-86l-176 -1067q-15 -51 -61 -51h-68q-28 0 -50 17t-28 44q-34 176 -58 300.5t-61.5 322.5t-56 300t-18.5 116q0 1 -0.5 1.5t-1.5 0.5l-162 -969h65q25 -3 41.5 -21.5t16.5 -43.5q-10 -60 -60 -68h-274q-26 3 -42 21.5t-16 44.5z" />
<glyph unicode="O" d="M172 225q0 57 7 123t19 146t21 133q37 215 69.5 345t88.5 199q41 48 102.5 70.5t122 27.5t148.5 5q101 0 159 -5.5t104 -27.5t71.5 -72.5t25.5 -142.5q0 -57 -7 -122.5t-18 -139.5t-22 -137q-30 -191 -66 -334.5t-92 -212.5q-58 -68 -148.5 -85.5t-224.5 -17.5 q-132 0 -202 12t-114 66t-44 170zM330 289q0 -59 15 -95.5t42 -54t67 -23t101 -5.5q83 0 145.5 16.5t98.5 69.5q25 39 47 112t36 144t36 198q36 223 36 318q0 80 -26 116.5t-72 46t-129 9.5q-90 0 -148 -13.5t-94 -64.5q-60 -82 -112 -412q-3 -19 -17 -110.5t-20 -150 t-6 -101.5z" />
<glyph unicode="P" d="M59 66q12 60 60 67h96l166 985h-78q-26 3 -41.5 22t-15.5 44q5 30 17.5 46t41.5 21h508q87 0 162 -41t117.5 -113.5t42.5 -162.5q0 -86 -36 -164.5t-100.5 -141.5t-146 -98.5t-166.5 -35.5h-258l-61 -361h77q25 -3 41.5 -21.5t16.5 -43.5q-10 -60 -60 -68h-325 q-26 3 -42 21.5t-16 44.5zM449 627h223q72 0 146 38t119.5 102.5t45.5 141.5q0 60 -32 108.5t-84.5 74.5t-112.5 26h-224z" />
<glyph unicode="Q" d="M172 225q0 57 7 123t19 146t21 133q37 215 69.5 345t88.5 199q41 48 102.5 70.5t122 27.5t148.5 5q101 0 159 -5.5t104 -27.5t71.5 -72.5t25.5 -142.5q0 -57 -7 -122.5t-18 -139.5t-22 -137q-30 -191 -66 -334.5t-92 -212.5q-36 -45 -100 -70l84 -233q2 -4 2 -13 q0 -20 -15.5 -34.5t-33.5 -14.5h-76q-35 0 -45 31l-82 234q-35 -3 -107 -3q-132 0 -202 12t-114 66t-44 170zM328 285q0 -79 25.5 -116t71.5 -47.5t130 -10.5h39l-62 178q-2 4 -2 12q0 20 14.5 34.5t35.5 14.5h82q17 0 24 -14l68 -186q37 24 64.5 83t46 133.5t30 147.5 t18.5 113q41 229 41 340q0 78 -25.5 115.5t-71.5 48t-130 10.5q-86 0 -146 -14.5t-98 -67.5q-24 -35 -46 -108t-36.5 -146.5t-31.5 -177.5q-41 -235 -41 -342z" />
<glyph unicode="R" d="M51 66q7 59 58 67h86l165 985h-65q-26 3 -41.5 22t-15.5 44q6 59 57 67h410q87 0 165.5 -36.5t125 -103.5t46.5 -157q0 -102 -64 -193t-161 -143q84 -74 84 -184q0 -22 -2 -33l-27 -163q-6 -34 -6 -70q0 -27 5.5 -42t25.5 -15q19 0 28.5 18t20 54t24.5 56.5t40 24.5h34 q26 -3 42 -19t16 -42q0 -50 -29.5 -103t-78 -88t-99.5 -35q-57 0 -97 27.5t-60.5 74.5t-20.5 101q0 20 4 62l29 170q2 6 2 22q0 67 -40 89.5t-118 35.5h-176l-72 -426h66q25 -3 41 -21.5t16 -43.5q-5 -30 -18.5 -47t-40.5 -21h-301q-26 3 -42 21.5t-16 44.5zM440 692h152 q109 0 204 68t95 174q0 58 -33.5 99.5t-85 63t-108.5 21.5h-154z" />
<glyph unicode="S" d="M113 41l55 328q9 41 53 47h39q24 -3 39.5 -19.5t15.5 -44.5q-4 -32 -4 -53q0 -103 86 -145.5t201 -42.5q108 0 197.5 78.5t89.5 187.5q0 61 -38.5 109t-96.5 63l-248 59q-103 26 -173.5 104.5t-70.5 182.5q0 105 62 192t163 137t203 50q80 0 151.5 -22.5t123.5 -71.5 l30 61q18 27 49 33h19q24 -3 39.5 -19.5t15.5 -44.5l-55 -325q-9 -42 -53 -49h-39q-56 6 -56 63v21q0 109 -59 165t-168 56q-66 0 -131.5 -30t-108.5 -83.5t-43 -120.5q0 -55 38.5 -96t95.5 -55l247 -62q76 -19 130.5 -62t85 -106t30.5 -137q0 -110 -61.5 -205t-162.5 -151 t-208 -56q-214 0 -330 93l-30 -60q-18 -25 -50 -33h-18q-25 5 -40 22t-15 42z" />
<glyph unicode="T" d="M217 991l35 211q12 43 57 49h852q27 -3 42.5 -21t15.5 -44l-35 -209q-12 -45 -58 -51h-34q-58 7 -58 65l23 127h-258l-164 -985h121q25 -3 41 -21t16 -44q-6 -60 -59 -68h-412q-26 3 -41.5 22t-15.5 44q7 59 57 67h141l166 985h-260l-22 -141q-13 -45 -58 -51h-35 q-25 3 -41 21t-16 44z" />
<glyph unicode="U" d="M201 1184q5 30 17.5 46t41.5 21h326q27 -3 42 -20t15 -45q-5 -30 -18.5 -47t-40.5 -21h-99l-118 -712q-5 -53 -5 -64q0 -90 48 -160.5t135 -70.5q112 0 196 99.5t103 217.5l117 690h-78q-26 3 -42 21.5t-16 44.5q10 59 60 67h325q27 -3 42.5 -21t15.5 -44 q-10 -60 -60 -68h-98l-119 -712q-19 -112 -81.5 -209.5t-158.5 -158.5t-208 -61q-96 0 -172 51t-117 135.5t-41 180.5q0 40 6 84l117 690h-78q-26 3 -41.5 22t-15.5 44z" />
<glyph unicode="V" d="M236 1184q6 59 57 67h270q27 -3 42.5 -21t15.5 -44q-11 -61 -60 -68h-65q65 -803 65 -936v-32q12 59 389 968h-45q-26 3 -41.5 22t-15.5 44q6 59 57 67h271q26 -3 41.5 -21t15.5 -44q-6 -60 -59 -68h-68l-451 -1073q-11 -28 -35.5 -44.5t-52.5 -16.5h-67q-26 0 -47 17 t-21 44l-92 1073h-47q-26 3 -41.5 22t-15.5 44z" />
<glyph unicode="W" d="M221 1184q6 59 60 67h219q27 -3 42 -20t15 -45q-7 -60 -57 -68h-88q-3 -144 -8 -277.5t-10.5 -283t-12 -262t-12.5 -145.5q21 118 192 540q9 27 34 44.5t52 17.5h29q26 0 46.5 -18t20.5 -44q17 -299 17 -405q0 -87 -6 -135q6 35 39 154t74.5 259t91 304t75.5 251h-67 q-26 3 -42 21.5t-16 44.5q10 59 60 67h221q27 -3 42 -20t15 -45q-5 -30 -18.5 -47t-40.5 -21h-29l-328 -1073q-8 -27 -31 -44t-48 -17h-27q-25 0 -46.5 17.5t-21.5 43.5q-4 58 -8.5 151t-9 200t-4.5 141q0 53 2 65q-5 -27 -33.5 -106.5t-96.5 -254.5t-77 -196 q-10 -27 -34.5 -44t-51.5 -17h-29q-24 0 -41.5 17.5t-17.5 41.5l31 1075q-28 0 -47 19t-19 47z" />
<glyph unicode="X" d="M68 66q5 29 18 46t41 21h82l352 535l-162 450h-65q-26 3 -42 21.5t-16 44.5q11 60 60 67h272q27 -3 42.5 -21t15.5 -44q-11 -61 -60 -68h-41l101 -278l180 278h-25q-26 3 -41.5 22t-15.5 44q5 30 17.5 46t41.5 21h273q26 -3 41.5 -21t15.5 -44q-5 -30 -18.5 -47 t-40.5 -21h-84l-299 -450l192 -535h66q25 -3 41 -21t16 -44q-5 -30 -18.5 -47t-40.5 -21h-273q-26 3 -41.5 22t-15.5 44q5 29 18 46t41 21h43l-129 379l-239 -379h28q25 -3 41.5 -21.5t16.5 -43.5q-10 -60 -60 -68h-272q-26 3 -41.5 22t-15.5 44z" />
<glyph unicode="Y" d="M238 1180q0 29 14 47.5t43 23.5h272q26 -3 42 -19t16 -42q0 -63 -60 -72h-45q125 -410 125 -463q1 -1 1.5 -2t0.5 -2q7 44 279 467h-25q-26 3 -41.5 20.5t-15.5 41.5q0 29 14 47.5t43 23.5h273q25 -3 41 -19t16 -42q0 -28 -15.5 -48t-41.5 -24h-82l-396 -618l-61 -367h65 q26 -3 42 -20t16 -41q0 -63 -60 -72h-301q-24 3 -40.5 20.5t-16.5 40.5q0 28 15 47.5t42 24.5h88l62 367l-193 618h-59q-26 3 -41.5 20.5t-15.5 41.5z" />
<glyph unicode="Z" d="M109 51q0 45 22 74l836 993h-508l-23 -141q-12 -45 -57 -51h-35q-26 3 -41.5 21t-15.5 44l35 211q12 43 57 49h743q23 0 37.5 -15t14.5 -36q0 -44 -23 -74l-838 -993h543l31 182q12 43 57 50h35q26 -3 41.5 -20.5t15.5 -45.5l-41 -248q-12 -45 -57 -51h-778q-21 0 -36 15 t-15 36z" />
<glyph unicode="[" d="M432 -104l244 1466q10 53 59 59h424q27 -3 42.5 -21t15.5 -44q-11 -61 -60 -68h-342l-221 -1325h321q25 -3 41.5 -21.5t16.5 -43.5q-10 -60 -60 -68h-424q-25 3 -41 21.5t-16 44.5z" />
<glyph unicode="\" d="M344 1350q0 29 22 50t50 21q52 0 69 -53l451 -1450q2 -4 2 -16q0 -28 -21 -50t-51 -22q-51 0 -69 53l-451 1450q-2 4 -2 17z" />
<glyph unicode="]" d="M66 -109q0 27 16 47.5t43 24.5h342l219 1325h-319q-26 3 -42 20t-16 42q0 27 16.5 47t43.5 24h424q23 -3 40 -20t17 -41q0 -7 -4 -21l-242 -1460q-12 -43 -57 -49h-424q-25 3 -41 21t-16 40z" />
<glyph unicode="^" d="M375 1042q0 33 31 54l305 151q16 4 24 4q18 0 31 -8l250 -147q31 -22 31 -54q0 -28 -25 -56t-53 -28q-19 0 -31 9l-209 133l-254 -133q-23 -9 -31 -9q-30 0 -49.5 27t-19.5 57z" />
<glyph unicode="_" d="M94 -123q0 29 20 49t48 23h708q30 -3 49 -23t19 -49q0 -27 -19 -47t-49 -25h-708q-28 5 -48 25t-20 47z" />
<glyph unicode="`" d="M530 934q0 93 40.5 182.5t110 160.5t155.5 112q12 6 26 6q16 0 32 -10t26 -27t10 -33q0 -31 -33 -53q-91 -42 -156 -125.5t-75 -181.5q2 1 6 1.5t16 0.5q41 0 69.5 -28.5t28.5 -70.5q0 -49 -34 -81.5t-84 -32.5q-69 0 -103.5 54t-34.5 126z" />
<glyph unicode="a" d="M152 240q0 129 113 203.5t266 102t286 27.5q8 34 8 52q0 71 -62 107t-138 36q-101 0 -148 -10v-6q0 -41 -31 -72t-71 -31q-37 0 -63.5 25.5t-26.5 62.5q0 106 100.5 135t245.5 29q86 0 164.5 -32t129 -95t50.5 -149q0 -11 -0.5 -17t-1.5 -14l-76 -451q41 -10 131 -10 q25 -3 41 -21t16 -44q-5 -30 -18.5 -47t-40.5 -21h-35q-84 0 -139.5 11t-89.5 57q-125 -80 -318 -80q-74 0 -142 30.5t-109 87t-41 134.5zM301 242q0 -58 54 -89.5t116 -31.5q103 0 192 37t105 121l29 163q-83 0 -199.5 -18t-206.5 -62.5t-90 -119.5z" />
<glyph unicode="b" d="M205 61q0 5 2 13l174 1044h-107q-24 3 -40.5 20.5t-16.5 41.5q0 61 59 71h209q24 -3 41 -20t17 -41q0 -7 -0.5 -11.5t-1.5 -9.5l-62 -362q125 88 264 88q154 0 247 -110.5t93 -266.5q0 -132 -67 -254.5t-181 -199t-247 -76.5q-142 0 -228 106q-2 -16 -5 -32t-9.5 -30 t-17.5 -21.5t-31 -10.5h-35q-26 3 -41.5 20.5t-15.5 40.5zM403 348q0 -89 46 -158t131 -69q96 0 178 58.5t129 150.5t47 186q0 99 -56 172.5t-151 73.5q-61 0 -118 -26t-101 -70.5t-68 -98.5z" />
<glyph unicode="c" d="M213 377q0 99 42.5 195t115 169.5t168 116.5t198.5 43q132 0 225 -25t93 -118q0 -45 -29 -77t-74 -32q-37 0 -63.5 25.5t-26.5 62.5q0 9 4 25q-41 6 -129 6q-96 0 -182.5 -55.5t-139.5 -147t-53 -186.5q0 -75 35 -134t96.5 -91.5t135.5 -32.5q72 0 131 34t88 95 q18 28 49 33h39q23 -3 39 -19t16 -41q0 -14 -6 -26q-51 -102 -155 -155.5t-226 -53.5q-109 0 -198.5 51t-141 140t-51.5 198z" />
<glyph unicode="d" d="M137 367q0 130 67 253.5t180.5 199t246.5 75.5q122 0 231 -94l53 317h-106q-26 3 -41.5 22t-15.5 44q5 30 17.5 46t41.5 21h209q27 -3 42 -20t15 -45l-176 -1053h107q25 -3 41 -21.5t16 -43.5q-10 -60 -59 -68h-209q-26 3 -42 21.5t-16 44.5l4 24q-122 -102 -264 -102 q-76 0 -139 30t-108.5 83.5t-70 121.5t-24.5 144zM287 367q0 -63 23.5 -119.5t72 -91.5t111.5 -35q67 0 126 36t102 93t69 123l34 215q-4 48 -29.5 88t-65 63t-89.5 23q-96 0 -177.5 -58t-129 -150.5t-47.5 -186.5z" />
<glyph unicode="e" d="M178 383q0 99 42 192.5t116 168.5t165 116t191 41q105 0 182.5 -42.5t118.5 -120.5t41 -185q0 -67 -11 -113.5t-54 -52.5h-641q0 -80 38 -140t102.5 -93t141.5 -33q72 0 138.5 36t97.5 97q6 13 21 22t28 9h35q26 -3 41.5 -20.5t15.5 -41.5q0 -17 -8 -30 q-36 -70 -96.5 -115t-137 -67.5t-153.5 -22.5q-111 0 -206.5 50t-151.5 141.5t-56 203.5zM354 518h529q2 12 2 39q0 100 -48 155.5t-147 55.5q-108 0 -198.5 -72t-137.5 -178z" />
<glyph unicode="f" d="M92 66q10 59 60 67h241l105 617h-217q-58 7 -58 65q10 60 60 68h235l23 129q16 80 70 136t131 86t155 30q75 0 131.5 -25.5t56.5 -93.5q0 -42 -28 -72.5t-70 -30.5q-37 0 -61.5 25.5t-24.5 62.5h-20q-65 0 -121.5 -39t-71.5 -102l-18 -106h260q25 -3 41 -21t16 -45 q-5 -30 -18.5 -46.5t-40.5 -20.5h-281l-102 -617h223q25 -3 41 -21t16 -44q-5 -30 -18.5 -47t-40.5 -21h-616q-26 3 -42 21.5t-16 44.5z" />
<glyph unicode="g" d="M29 -193q0 87 57 166t137 121q-28 46 -28 109q0 98 67 178q-37 66 -37 141q0 100 56 185.5t147 136.5t188 51q113 0 189 -59q111 69 231 69q54 0 96 -27.5t42 -80.5q0 -40 -25.5 -67.5t-63.5 -27.5q-31 0 -53 19.5t-28 48.5q-47 0 -115 -35q29 -63 29 -127 q0 -75 -32 -143t-88.5 -120t-128 -80.5t-143.5 -28.5q-102 0 -176 51q-31 -43 -31 -84q0 -52 41 -70q6 1 10.5 1.5t12.5 0.5q7 0 17.5 -3t9.5 -3h143q183 0 309.5 -52t126.5 -210q0 -87 -50 -151t-129 -104.5t-171 -60.5t-170 -20q-156 0 -298 68.5t-142 207.5zM156 -190 q0 -52 56 -85.5t131 -48t128 -14.5q68 0 160.5 20.5t161.5 67t69 117.5q0 63 -53.5 93t-119.5 37t-146 7h-154q-81 0 -157 -58.5t-76 -135.5zM375 522q0 -66 44.5 -110.5t108.5 -44.5q93 0 166.5 74.5t73.5 166.5q0 67 -43.5 111.5t-110.5 44.5q-61 0 -116 -34.5t-89 -91.5 t-34 -116z" />
<glyph unicode="h" d="M31 61q0 27 16 47.5t43 24.5h125l166 985h-107q-24 3 -40.5 20.5t-16.5 41.5q0 61 59 71h209q24 -3 41 -20t17 -41q0 -7 -0.5 -11.5t-1.5 -9.5l-64 -370q127 96 275 96q107 0 170 -57t63 -164q0 -32 -8 -92l-76 -449h107q23 -3 40 -21t17 -40q0 -27 -16 -47.5t-43 -24.5 h-365q-25 3 -41 21t-16 40q0 27 16 47.5t43 24.5h107l81 488q5 27 5 49q0 51 -25 71.5t-78 20.5q-110 0 -198.5 -80t-108.5 -190l-59 -359h106q25 -3 41 -20t16 -41q0 -29 -16.5 -48.5t-42.5 -23.5h-383q-26 3 -41.5 20.5t-15.5 40.5z" />
<glyph unicode="i" d="M166 66q5 29 18 46t41 21h283l104 617h-247q-58 7 -58 65q10 60 60 68h350q25 -3 41 -21t16 -45l-115 -684h232q25 -3 41 -21t16 -44q-5 -30 -18.5 -47t-40.5 -21h-666q-26 3 -41.5 22t-15.5 44zM614 1139q0 45 34.5 79.5t80.5 34.5q41 0 69.5 -29.5t28.5 -68.5 q0 -46 -33.5 -80.5t-78.5 -34.5q-41 0 -71 29t-30 70z" />
<glyph unicode="j" d="M47 -322q0 46 28 79.5t72 33.5q26 0 47 -11.5t32.5 -31.5t11.5 -47q0 -18 -5 -29q39 -6 119 -6q93 0 160 79.5t82 174.5l139 830h-280q-26 3 -42 19t-16 42q0 27 17 47.5t43 24.5h383q23 -3 40 -21t17 -41q0 -7 -0.5 -11t-1.5 -9l-152 -903q-15 -94 -72 -179 t-141.5 -135.5t-181.5 -50.5q-80 0 -141 7.5t-109.5 39.5t-48.5 98zM735 1139q0 46 34 80t81 34q42 0 71 -29t29 -69q0 -46 -34.5 -80.5t-79.5 -34.5q-41 0 -71 29t-30 70z" />
<glyph unicode="k" d="M49 66q7 59 57 67h136l166 985h-115q-26 3 -41.5 22t-15.5 44q6 59 57 67h192q27 -3 42.5 -21t15.5 -44l-121 -729l360 293h-84q-25 3 -41 21t-16 44q10 60 59 68h375q25 -3 41.5 -21.5t16.5 -44.5q-11 -60 -60 -67h-110l-283 -230l233 -387h82q25 -3 41.5 -21.5 t16.5 -43.5q-10 -60 -60 -68h-301q-26 3 -41.5 22t-15.5 44q7 59 57 67h66l-183 303l-182 -147l-26 -156h114q25 -3 41.5 -21.5t16.5 -43.5q-6 -60 -60 -68h-373q-25 3 -41 21.5t-16 44.5z" />
<glyph unicode="l" d="M125 61q0 27 16 47.5t43 24.5h299l166 985h-280q-26 3 -42 20t-16 42q0 28 16 47t44 24h383q23 -3 40 -20t17 -41q0 -7 -0.5 -11.5t-1.5 -9.5l-174 -1036h280q24 -3 41 -21t17 -40q0 -27 -16 -47.5t-44 -24.5h-731q-24 3 -40.5 20.5t-16.5 40.5z" />
<glyph unicode="m" d="M-2 61q0 27 16 47.5t43 24.5h68l104 617h-49q-23 3 -40 20t-17 41q0 27 16 47.5t43 24.5h125q24 -3 39.5 -17.5t18.5 -38.5q88 68 188 68q48 0 86.5 -27.5t56.5 -76.5q47 49 106 76.5t122 27.5q77 0 116 -56t39 -137q0 -38 -12 -120l-76 -449h49q24 -3 41 -21t17 -40 q0 -27 -16 -47.5t-44 -24.5h-219q-25 3 -41 21t-16 40q0 27 16 47.5t43 24.5h45l80 471q8 58 8 86q0 35 -8 53.5t-37 18.5q-60 0 -109 -42.5t-78.5 -104t-41.5 -123.5l-59 -359h49q23 -3 40 -21t17 -40q0 -29 -16.5 -48.5t-42.5 -23.5h-219q-24 3 -41 21t-17 40 q0 27 17 47.5t43 24.5h45l79 471q9 52 9 86q0 35 -8 53.5t-37 18.5q-90 0 -149.5 -83t-80.5 -187l-59 -359h49q25 -3 41 -20t16 -41q0 -29 -16.5 -48.5t-42.5 -23.5h-242q-23 3 -40 21t-17 40z" />
<glyph unicode="n" d="M31 61q0 27 16 47.5t43 24.5h125l104 617h-106q-26 3 -41.5 19.5t-15.5 41.5q0 27 16 47.5t43 24.5h209q25 -3 41 -20t16 -42q0 -6 -4 -22q127 96 275 96q107 0 170 -57t63 -164q0 -32 -8 -92l-76 -449h107q23 -3 40 -21t17 -40q0 -27 -16 -47.5t-43 -24.5h-365 q-25 3 -41 21t-16 40q0 27 16 47.5t43 24.5h107l81 488q5 27 5 49q0 51 -25 71.5t-78 20.5q-110 0 -198.5 -80t-108.5 -190l-59 -359h106q25 -3 41 -20t16 -41q0 -29 -16.5 -48.5t-42.5 -23.5h-383q-26 3 -41.5 20.5t-15.5 40.5z" />
<glyph unicode="o" d="M180 360q0 99 40.5 197.5t111 176t162 122.5t192.5 45q104 0 184.5 -50.5t125 -138.5t44.5 -188q0 -133 -69 -257.5t-186.5 -201.5t-249.5 -77q-76 0 -142.5 29.5t-113.5 80t-73 118t-26 144.5zM332 389q0 -66 26 -128.5t77.5 -101t121.5 -38.5q93 0 170 61t121.5 153 t44.5 181q0 66 -28 124t-79.5 93t-119.5 35q-92 0 -169.5 -56t-121 -143.5t-43.5 -179.5z" />
<glyph unicode="p" d="M-45 -389q5 30 17.5 46t41.5 21h125l180 1072h-106q-26 3 -41.5 21t-15.5 44q5 30 18 47t41 21h209q25 -3 41 -21t16 -45l-2 -10q125 88 264 88q154 0 247 -110.5t93 -266.5q0 -132 -67 -254.5t-181 -199t-247 -76.5q-142 0 -228 106l-69 -416h106q27 -3 42.5 -21 t15.5 -44q-10 -60 -60 -68h-383q-26 3 -41.5 22t-15.5 44zM403 348q0 -89 46 -158t131 -69q96 0 178 58.5t129 150.5t47 186q0 99 -56 172.5t-151 73.5q-61 0 -118 -26t-101 -70.5t-68 -98.5z" />
<glyph unicode="q" d="M145 371q0 134 71 255t190 195t253 74q70 0 135 -30t107 -83q9 61 18 84.5t50 28.5h35q23 -3 40 -21t17 -40q0 -5 -2 -11l-191 -1145h115q26 -3 41.5 -19.5t15.5 -41.5q0 -63 -59 -72h-399q-26 3 -42 20t-16 42q0 29 15 47.5t43 23.5h135l69 418q-131 -108 -282 -108 q-104 0 -186 52t-127.5 140t-45.5 191zM295 371q0 -67 27.5 -124.5t78 -91.5t117.5 -34q105 0 188.5 72t127.5 176l24 153q0 60 -21 116t-63.5 90t-105.5 34q-73 0 -142 -33t-120.5 -88.5t-81 -127t-29.5 -142.5z" />
<glyph unicode="r" d="M72 66q7 59 57 67h201l104 617h-180q-26 3 -41.5 21t-15.5 44q7 60 57 68h285q25 -3 41 -21.5t16 -44.5l-12 -74q50 48 106.5 81.5t123 52t130.5 18.5q73 0 126.5 -29t53.5 -98q0 -38 -28 -67t-68 -29q-32 0 -58 23.5t-26 56.5v6q0 4 -2 4q-101 0 -191.5 -53.5 t-151.5 -142.5t-77 -187l-41 -246h244q25 -3 41 -21t16 -44q-5 -30 -18.5 -47t-40.5 -21h-594q-26 3 -41.5 22t-15.5 44z" />
<glyph unicode="s" d="M156 51l41 252q12 41 55 47h39q44 -7 53 -47q12 -95 62.5 -138.5t148.5 -43.5q105 0 201 36.5t96 125.5q0 47 -51.5 73.5t-110.5 34.5l-174 31q-67 11 -124.5 35t-96.5 68.5t-39 109.5q0 144 133 205t295 61q129 0 205 -43q13 19 26 29.5t31 13.5h19q25 -3 40 -20.5 t15 -42.5l-33 -195q-12 -43 -55 -49h-39q-23 3 -39 19t-16 40q1 8 1.5 14.5t0.5 16.5q0 84 -162 84q-100 0 -194.5 -28t-94.5 -105q0 -36 49.5 -56t102.5 -28l176 -31q111 -18 189.5 -77t78.5 -158q0 -105 -66.5 -172.5t-167 -96t-200.5 -28.5q-157 0 -246 75 q-14 -22 -23.5 -36.5t-22 -25t-32.5 -13.5h-16q-55 6 -55 63z" />
<glyph unicode="t" d="M186 815q11 61 60 68h209l34 202q10 42 56 50h35q25 -3 41 -21.5t16 -44.5l-31 -186h346q25 -3 41.5 -21.5t16.5 -44.5q-10 -59 -60 -67h-366l-82 -494q-2 -12 -2 -35q0 -100 125 -100q47 0 88 22t69 62t35 84q12 43 57 49h35q25 -3 41.5 -21.5t16.5 -44.5 q-14 -84 -67 -149t-130 -100t-164 -35q-110 0 -183 59.5t-73 171.5q0 29 2 43l82 488h-190q-58 7 -58 65z" />
<glyph unicode="u" d="M156 811q0 27 16 47.5t43 24.5h209q25 -3 41 -20t16 -42q0 -7 -0.5 -11t-1.5 -9l-98 -590q-2 -6 -2 -18q0 -47 39 -59.5t100 -12.5q58 0 115 23.5t97 66.5t50 100l74 439h-106q-26 3 -42 19t-16 42q0 27 17 47.5t43 24.5h208q24 -3 41 -21t17 -41q0 -7 -0.5 -11t-1.5 -9 l-113 -668h107q23 -3 40 -21t17 -40q0 -27 -16 -47.5t-43 -24.5h-209q-52 7 -58 57q-109 -69 -237 -69q-273 0 -273 200q0 14 4 48l86 514h-106q-26 3 -41.5 19.5t-15.5 41.5z" />
<glyph unicode="v" d="M184 815q10 60 60 68h299q25 -3 41 -21t16 -45q-5 -30 -18.5 -46.5t-40.5 -20.5h-92l106 -637l319 637h-71q-58 7 -58 65q11 61 60 68h299q25 -3 41 -21t16 -45q-5 -30 -18.5 -46.5t-40.5 -20.5h-98l-349 -697q-14 -27 -41 -44t-55 -17h-49q-27 0 -48 16.5t-26 44.5 l-117 697h-77q-58 7 -58 65z" />
<glyph unicode="w" d="M168 815q5 30 18 47t41 21h303q25 -3 41.5 -21.5t16.5 -44.5q-10 -59 -60 -67h-141q2 -136 2 -232v-205v-163q5 16 22 56t37.5 88t40 90t37.5 85q14 27 38.5 44t53.5 17h23q27 0 47.5 -16.5t24.5 -44.5q26 -229 26 -289v-30q9 43 62.5 202.5t134.5 397.5h-121 q-26 3 -41.5 21t-15.5 44q5 30 18 47t41 21h303q25 -3 41.5 -21.5t16.5 -44.5q-11 -60 -60 -67h-57l-240 -697q-8 -27 -31.5 -44t-50.5 -17h-39q-27 0 -47.5 16.5t-23.5 44.5q-27 216 -27 285q1 12 1.5 21t0.5 22q-7 -39 -46 -130.5t-87 -197.5q-13 -27 -38.5 -44t-53.5 -17 h-47q-25 0 -44.5 17t-19.5 44l-6 697h-37q-26 3 -41.5 21t-15.5 44z" />
<glyph unicode="x" d="M70 66q5 29 18 46t41 21h119l299 322l-182 295h-101q-26 3 -41.5 21t-15.5 44q5 30 18 47t41 21h297q25 -3 41.5 -21.5t16.5 -44.5q-8 -59 -58 -67h-49l111 -191l170 191h-33q-26 3 -41.5 21t-15.5 44q5 30 18 47t41 21h299q25 -3 41 -21t16 -45q-5 -30 -18.5 -46.5 t-40.5 -20.5h-119l-274 -295l198 -322h101q25 -3 41 -21.5t16 -43.5q-5 -30 -18.5 -47t-40.5 -21h-299q-26 3 -42 21.5t-16 44.5q10 59 60 67h55l-129 238l-205 -238h37q25 -3 41 -21t16 -44q-7 -60 -57 -68h-299q-26 3 -41.5 22t-15.5 44z" />
<glyph unicode="y" d="M37 -324q0 51 30.5 87t79.5 36q35 0 57.5 -19t22.5 -54q0 -13 -2 -19h-37q0 -7 -0.5 -11t-1.5 -9q0 -21 15 -21q69 0 124.5 51t90.5 121l80 162l-168 750h-82q-24 3 -41 20t-17 41q0 27 17 47.5t43 24.5h299q26 -3 41.5 -20.5t15.5 -41.5q0 -61 -59 -71h-86 q29 -127 76 -345t47 -251q1 -1 1.5 -2t0.5 -2q4 28 290 600h-71q-24 3 -41 20t-17 41q0 27 17 47.5t43 24.5h299q25 -3 41 -20t16 -42q0 -61 -59 -71h-98l-459 -912q-39 -75 -93 -145t-124.5 -115t-149.5 -45q-59 0 -100 42t-41 101z" />
<glyph unicode="z" d="M78 51q0 55 31 82l755 617h-489l-15 -86q-9 -46 -55 -52h-35q-25 3 -41 21.5t-16 44.5l25 156q12 43 57 49h756q21 0 36 -15t15 -37q0 -55 -33 -81l-754 -617h529l20 113q9 43 56 49h34q25 -3 41.5 -21.5t16.5 -44.5l-29 -178q-11 -44 -57 -51h-797q-21 0 -36 15t-15 36z " />
<glyph unicode="{" d="M215 618q0 29 15.5 49.5t43.5 24.5q118 0 213.5 26.5t112.5 108.5l62 365q49 229 448 229h23q25 -3 40 -19t15 -40q0 -28 -15.5 -49t-42.5 -25q-123 0 -215 -21.5t-106 -97.5l-61 -364q-28 -129 -150 -184q39 -25 64.5 -67.5t25.5 -90.5q0 -13 -4 -37l-61 -367v-12 q0 -84 266 -84q25 -3 40 -19t15 -40q0 -29 -14 -49.5t-43 -24.5h-23q-90 0 -178 16t-150.5 63.5t-62.5 135.5q0 25 2 39l62 365q1 3 1.5 6t0.5 8q0 59 -87 77.5t-182 18.5q-23 3 -39 19t-16 40z" />
<glyph unicode="|" d="M449 -98q0 2 2 12l239 1448q6 26 26.5 42.5t45.5 16.5q30 0 51 -21t21 -50q0 -2 -3 -13l-239 -1448q-6 -27 -25.5 -43t-46.5 -16q-29 0 -50 22t-21 50z" />
<glyph unicode="}" d="M94 -111q0 29 15.5 49t42.5 25q119 0 213 21.5t110 99.5l62 365q26 125 149 182q-42 28 -66 69t-24 88q0 11 4 39l62 365v12q0 84 -269 84q-23 3 -39 20t-16 40q0 64 57 73h23q96 0 181 -15t148.5 -63.5t63.5 -136.5q0 -12 -0.5 -19.5t-1.5 -17.5l-61 -366q0 -2 -1 -6 t-2 -9q0 -58 88 -77t179 -19q24 -3 39.5 -19.5t15.5 -39.5q0 -28 -15.5 -49t-43.5 -25q-295 0 -324 -133l-61 -365q-28 -137 -155 -184t-296 -47h-22q-22 3 -39 19t-17 40z" />
<glyph unicode="~" d="M356 1067q0 30 53.5 74.5t123.5 77t106 32.5q47 0 75.5 -20.5t57 -55t41.5 -36.5q27 0 55.5 15.5t55.5 36.5t56.5 40.5t43.5 19.5q29 0 48.5 -20.5t19.5 -48.5q0 -32 -53.5 -76t-122.5 -76.5t-107 -32.5q-47 0 -76.5 21.5t-57.5 55.5t-40 36q-34 0 -58 -16t-78 -56.5 t-75 -40.5q-27 0 -47.5 21.5t-20.5 48.5z" />
<glyph unicode="&#xa0;" />
<glyph unicode="&#xa1;" d="M72 66q7 59 59 67h109l166 985h-91q-25 3 -41 21.5t-16 44.5q6 59 59 67h824q27 -3 42 -20t15 -45l-35 -209q-12 -45 -57 -51h-35q-26 3 -41.5 21t-15.5 44l22 127h-481l-164 -985h129q25 -3 41.5 -21.5t16.5 -43.5q-8 -60 -58 -68h-391q-26 3 -41.5 22t-15.5 44z" />
<glyph unicode="&#xa2;" d="M78 39q0 6 4 22l543 1153q12 27 38 44.5t56 17.5h61q29 0 49 -17.5t23 -44.5l160 -1153v-6q0 -21 -18 -38t-40 -17h-835q-18 0 -29.5 11.5t-11.5 27.5zM279 145h565q-123 892 -123 953q0 1 -0.5 2t-1.5 2q-4 -34 -440 -957z" />
<glyph unicode="&#xa3;" d="M172 225q0 57 7 123t19 146t21 133q37 215 69.5 345t88.5 199q41 48 102.5 70.5t122 27.5t148.5 5q101 0 159 -5.5t104 -27.5t71.5 -72.5t25.5 -142.5q0 -57 -7 -122.5t-18 -139.5t-22 -137q-30 -191 -66 -334.5t-92 -212.5q-58 -68 -148.5 -85.5t-224.5 -17.5 q-132 0 -202 12t-114 66t-44 170zM328 285q0 -79 25.5 -116t71.5 -47.5t130 -10.5q86 0 146.5 15.5t97.5 66.5q36 52 63 168.5t51 265.5q41 229 41 340q0 78 -25.5 115.5t-71.5 48t-130 10.5q-86 0 -146 -14.5t-98 -67.5q-24 -35 -46 -108t-36.5 -146.5t-31.5 -177.5 q-41 -235 -41 -342zM436 551v12l27 150q9 43 55 49h35q26 -3 41.5 -20.5t15.5 -43.5h84q10 56 60 64h34q26 -3 42 -20t16 -42v-10l-27 -149q-9 -44 -55 -52h-35q-26 5 -41.5 22t-15.5 42h-86q-6 -54 -58 -64h-34q-26 5 -42 21t-16 41z" />
<glyph unicode="&#xa4;" d="M72 61q0 28 15 47.5t42 24.5h70l428 1081q11 27 35.5 44.5t52.5 17.5h69q16 0 32.5 -8.5t26 -23.5t9.5 -30l66 -1081h49q25 -3 41 -20t16 -41q0 -63 -59 -72h-281q-26 3 -41.5 20.5t-15.5 40.5q0 28 15.5 48t43.5 24h80q-6 91 -14 219.5t-14.5 255t-12.5 258.5t-6 183v53 q-3 -21 -38 -121t-80.5 -217.5t-116 -297.5t-132.5 -333h60q25 -3 41 -20t16 -41q0 -63 -59 -72h-281q-26 3 -41.5 20.5t-15.5 40.5z" />
<glyph unicode="&#xa5;" d="M78 61q0 5 2 13l16 100q9 42 56 49h34q26 -3 42 -19t16 -42q0 -15 -4 -35h637q9 51 18 71t45 25h35q26 -3 41.5 -19.5t15.5 -41.5v-10l-16 -101q-12 -45 -58 -51h-823q-26 3 -41.5 20.5t-15.5 40.5zM260 1104l14 98q13 43 58 49h807q27 -3 42 -20t15 -45l-16 -96 q-9 -45 -56 -52h-34q-58 6 -58 66l2 20h-620q-8 -44 -18.5 -61.5t-43.5 -24.5h-35q-25 3 -41 21t-16 45zM319 582l27 155q9 42 55 49h35q27 -3 42.5 -18.5t15.5 -42.5v-10h325q5 33 17.5 50t42.5 21h34q26 -3 42 -20.5t16 -44.5l-27 -156q-9 -43 -55 -49h-35q-25 3 -41 20 t-16 42v10h-326q-5 -34 -16.5 -51t-42.5 -21h-35q-58 7 -58 66z" />
<glyph unicode="&#xa6;" d="M51 66q7 59 58 67h86l165 985h-65q-26 3 -41.5 22t-15.5 44q6 59 57 67h879q26 -3 41.5 -21t15.5 -44q-10 -60 -60 -68h-86l-163 -985h65q25 -3 41 -21t16 -44q-5 -30 -18.5 -47t-40.5 -21h-301q-26 3 -41.5 22t-15.5 44q7 59 57 67h86l166 985h-426l-164 -985h66 q25 -3 41 -21.5t16 -43.5q-5 -30 -18.5 -47t-40.5 -21h-301q-26 3 -42 21.5t-16 44.5z" />
<glyph unicode="&#xa7;" d="M92 61q0 22 12 37l404 537l-223 520q-6 15 -6 29q5 30 17.5 46t41.5 21h795q26 -3 41.5 -21t15.5 -44l-35 -209q-12 -45 -57 -51h-35q-26 3 -41.5 21t-15.5 44l22 127h-563l201 -467q4 -16 4 -24q0 -23 -13 -37l-340 -453h547l23 144q12 43 57 49h35q25 -3 41 -21t16 -45 l-35 -213q-12 -45 -57 -51h-794q-26 3 -42 20t-16 41z" />
<glyph unicode="&#xa8;" d="M244 991q0 64 43 130.5t110.5 109.5t132.5 43q172 0 172 -262q0 -21 -2 -29q39 126 101.5 208.5t167.5 82.5q90 0 144 -65t54 -156q0 -113 -77 -113h-27q-21 0 -36 15t-15 36v10q6 28 6 58q0 102 -68 102q-73 0 -122 -99.5t-70 -201.5t-41 -235l-82 -492h88q25 -3 41 -21 t16 -44q-5 -30 -18.5 -47t-40.5 -21h-346q-26 3 -42 21.5t-16 44.5q12 60 60 67h106l84 504q17 61 29 162t12 178q0 184 -98 184q-51 0 -79 -49t-38 -111q-3 -25 -24 -43t-47 -18h-27q-21 0 -36 15t-15 36z" />
<glyph unicode="&#xa9;" d="M184 592q0 95 68.5 167.5t168.5 114.5t195 52l33 192h-100q-26 3 -41.5 22t-15.5 44q5 30 17.5 46t41.5 21h371q26 -3 41.5 -21t15.5 -44q-10 -60 -59 -68h-121l-31 -192q81 -10 155 -42t124.5 -89.5t50.5 -135.5q0 -92 -68 -165t-167 -115.5t-195 -52.5l-33 -193h100 q25 -3 41.5 -21.5t16.5 -43.5q-11 -61 -60 -68h-371q-25 3 -41 21.5t-16 44.5q10 59 60 67h118l33 193q-79 8 -155 40t-126.5 90t-50.5 136zM334 608q0 -63 65 -100t140 -49l55 334q-53 -7 -113.5 -30t-103.5 -63t-43 -92zM690 459q93 15 175.5 61.5t82.5 122.5 q0 62 -63.5 100t-139.5 50z" />
<glyph unicode="&#xaa;" d="M229 918q12 60 60 67h35q59 0 86.5 -43t27.5 -104q0 -32 -8 -94t-8 -93q0 -154 117 -188l110 655h-88q-26 3 -41.5 22t-15.5 44q5 30 17.5 46t41.5 21h346q27 -3 42.5 -21t15.5 -44q-10 -60 -60 -68h-108l-107 -649q59 20 101 65t66.5 104t35.5 124q35 223 162 223h35 q25 -3 41 -21.5t16 -43.5q-10 -60 -59 -68h-7q-14 0 -26 -43t-15 -70q-17 -106 -64.5 -194t-125 -145.5t-184.5 -73.5l-33 -193h88q25 -3 41 -21t16 -44q-5 -30 -18.5 -47t-40.5 -21h-346q-26 3 -42 21.5t-16 44.5q12 60 60 67h106l33 197q-82 17 -136 62t-81 112.5 t-27 148.5q0 30 8.5 84t8.5 88q0 10 -0.5 16t-1.5 11q-26 3 -42 21.5t-16 44.5z" />
<glyph unicode="&#xad;" d="M76 61q0 5 2 13l16 106q6 20 22.5 34.5t39.5 14.5q24 0 42.5 -17.5t18.5 -43.5q0 -5 -6 -35h119v14q0 71 -14.5 136t-46.5 174t-44 164.5t-12 126.5q0 142 71 262.5t192.5 192t262.5 71.5q109 0 199.5 -49t143.5 -136.5t53 -195.5q0 -95 -37.5 -190t-95 -188t-121 -198 t-90.5 -184h114q9 50 20.5 73t49.5 23q25 0 43 -18t18 -43q0 -4 -2 -10l-16 -107q-11 -44 -57 -51h-267q-24 3 -40.5 20.5t-16.5 40.5q0 5 2 13q15 91 58 180t127 233.5t122.5 234.5t38.5 173q0 108 -71 177t-177 69q-78 0 -146 -31.5t-119.5 -88t-80.5 -129.5t-29 -151 q0 -87 26 -189.5t51.5 -206.5t25.5 -191q0 -64 -11 -105.5t-55 -48.5h-266q-26 3 -41.5 20.5t-15.5 40.5z" />
<glyph unicode="&#xae;" d="M264 883q3 33 13.5 52t39.5 26q114 18 211 87.5t154 172.5q20 30 53 30q23 0 39.5 -14.5t20.5 -34.5q24 -96 94 -160t168 -81q49 -15 49 -66q-6 -37 -18.5 -57.5t-45.5 -20.5q-61 0 -141.5 43.5t-132.5 95.5l-150 -895q-6 -28 -26.5 -44.5t-48.5 -16.5q-66 10 -66 74 l144 870q-57 -43 -147.5 -85t-147.5 -42q-27 0 -44.5 19.5t-17.5 46.5z" />
<glyph unicode="&#xaf;" d="M176 356q12 78 64 78q64 0 146.5 -45.5t127.5 -93.5l150 897q13 59 75 59q29 -3 47.5 -23t18.5 -50l-146 -871q54 42 147.5 84.5t149.5 42.5q27 0 44.5 -19.5t17.5 -45.5q-6 -35 -16 -53.5t-37 -24.5q-112 -17 -210.5 -88t-154.5 -172q-20 -31 -53 -31q-47 0 -60 51 q-24 96 -95 160t-167 80q-22 6 -35.5 24t-13.5 41z" />
<glyph unicode="&#xb0;" d="M592 737l45 445q6 40 34 66t68 26q37 0 63.5 -25t26.5 -63q0 -10 -2 -17l-102 -448q-12 -43 -57 -49h-19q-57 7 -57 65z" />
<glyph unicode="&#xb1;" d="M367 -379q1 4 1.5 7.5t0.5 9.5l143 731q9 40 55 47h60q25 -3 40 -20.5t15 -43.5l-100 -727q-6 -44 -38.5 -73t-76.5 -29q-39 0 -69.5 29t-30.5 69zM545 682q0 46 33.5 80.5t80.5 34.5q28 0 50.5 -13.5t35.5 -36.5t13 -49q0 -46 -34 -80t-79 -34q-27 0 -50 13.5t-36.5 36 t-13.5 48.5z" />
<glyph unicode="&#xb2;" d="M90 -238q0 82 42.5 133.5t130 113.5t139 122t67.5 162l12 76q9 41 56 47h59q24 -3 39.5 -19.5t15.5 -44.5l-14 -82q-22 -138 -148 -264q-39 -40 -122 -100q-24 -14 -45 -27.5t-30.5 -20.5t-24 -24t-21.5 -33q-6 -18 -6 -37q0 -98 200 -98q213 0 291 72q0 1 -2.5 6.5 t-4 8.5t-3.5 9v19q0 29 13.5 52t36.5 36.5t50 13.5q38 0 64 -24.5t26 -63.5q0 -10 -2 -16q-50 -246 -471 -246q-141 0 -244.5 51.5t-103.5 177.5zM514 682q0 46 33.5 80.5t81.5 34.5q41 0 69.5 -29.5t28.5 -69.5q0 -46 -34 -80t-79 -34q-27 0 -50 13.5t-36.5 36t-13.5 48.5z " />
<glyph unicode="&#xb3;" d="M166 66q5 29 18 46t41 21h283l104 617h-247q-58 7 -58 65q10 60 60 68h350q25 -3 41 -21t16 -45l-115 -684h232q25 -3 41 -21t16 -44q-5 -30 -18.5 -47t-40.5 -21h-666q-26 3 -41.5 22t-15.5 44z" />
<glyph unicode="&#xb4;" d="M47 -322q0 46 28 79.5t72 33.5q26 0 47 -11.5t32.5 -31.5t11.5 -47q0 -18 -5 -29q39 -6 119 -6q93 0 160 79.5t82 174.5l139 830h-280q-26 3 -42 19t-16 42q0 27 17 47.5t43 24.5h383q23 -3 40 -21t17 -41q0 -7 -0.5 -11t-1.5 -9l-152 -903q-15 -94 -72 -179 t-141.5 -135.5t-181.5 -50.5q-80 0 -141 7.5t-109.5 39.5t-48.5 98z" />
<glyph unicode="&#xb5;" d="M436 1178q3 33 25.5 53t54.5 20q13 -2 19 -4l282 -123q37 -19 37 -57q0 -31 -22.5 -58.5t-51.5 -27.5q-5 1 -9.5 1.5t-10.5 0.5l-281 125q-43 21 -43 70z" />
<glyph unicode="&#xb6;" d="M573 1067q0 37 37 57l322 123q20 4 31 4q31 -4 49 -24t18 -53q-6 -46 -45 -66l-323 -125q-8 0 -12 -0.5t-9 -1.5q-31 0 -49.5 26.5t-18.5 59.5z" />
<glyph unicode="&#xb8;" d="M369 1176q0 66 59 75h18q25 -3 41.5 -19.5t16.5 -41.5q0 -23 213 -23h8q207 0 238 29q6 6 11.5 20.5t15.5 22.5t34 12h18q24 -3 41 -20t17 -41q0 -104 -115 -133t-266 -29q-88 0 -160 7.5t-131 40t-59 100.5z" />
<glyph unicode="&#xb9;" d="M334 1110q5 33 16.5 50.5t42.5 21.5h660q25 -3 41 -21.5t16 -44.5q-5 -34 -16.5 -50t-42.5 -22h-660q-28 5 -42.5 22.5t-14.5 43.5z" />
<glyph unicode="&#xba;" d="M569 1128q0 42 27.5 74t71 49t80.5 17q52 0 95.5 -28t43.5 -79q0 -40 -28 -72.5t-71.5 -49.5t-80.5 -17q-51 0 -94.5 28.5t-43.5 77.5zM649 1137q0 -24 21 -38t47 -14q32 0 60 19.5t28 48.5q0 24 -20.5 37.5t-47.5 13.5q-30 0 -59 -19t-29 -48z" />
<glyph unicode="&#xbb;" d="M266 -360q10 62 60 67q74 0 153 5.5t148 27.5t69 65q0 33 -40 46.5t-83 13.5q-25 3 -41 21.5t-16 43.5l21 121q9 43 55 49h35q28 -3 42.5 -20t14.5 -45l-6 -47q71 -18 119.5 -64.5t48.5 -116.5q0 -106 -85 -157.5t-191.5 -63.5t-237.5 -12q-28 0 -47 19t-19 47z" />
<glyph unicode="&#xbc;" d="M41 61q0 28 15 47.5t42 24.5h146l104 617h-125q-26 3 -41.5 19.5t-15.5 41.5q0 28 15 47.5t42 24.5h146l28 168q26 109 144 161t250 52q69 0 148 -20.5t134 -67t55 -121.5q0 -82 -60 -148.5t-144 -105.5q77 -63 116 -156.5t39 -200.5q0 -124 -56.5 -228.5t-156.5 -166 t-223 -61.5q-71 0 -127.5 38.5t-56.5 108.5q0 42 25.5 71.5t66.5 29.5q34 0 58 -24t24 -58q0 -11 -4 -31q4 0 8.5 -0.5t9.5 -1.5q82 0 148.5 46t101.5 120.5t35 158.5q0 57 -15.5 111.5t-46.5 98t-78 69t-110 25.5q-23 3 -39 19t-16 40q0 29 14 49t43 25q90 0 174.5 37.5 t114.5 107.5q0 56 -60.5 79t-126.5 23q-36 0 -91 -10.5t-99 -34t-51 -57.5l-162 -977q-11 -44 -57 -51h-228q-24 3 -40.5 20.5t-16.5 40.5z" />
<glyph unicode="&#xbd;" d="M102 211q0 81 42.5 139.5t111.5 94.5t146.5 51.5t156.5 15.5l16 96q3 10 3 31q0 52 -29.5 90.5t-81.5 38.5q-47 0 -72 -4q2 0 2 -12q0 -41 -31 -72t-71 -31q-37 0 -63.5 25.5t-26.5 62.5q0 89 83 126.5t183 37.5q68 0 125 -39.5t82 -101.5q109 141 237 141 q110 0 158.5 -89t48.5 -206q0 -56 -16 -168q-5 -21 -22 -36t-37 -15h-381q0 -11 -0.5 -18.5t-1.5 -16.5q0 -83 37.5 -157t113.5 -74q86 0 137 127q18 37 56 37q26 0 43.5 -18.5t17.5 -43.5q0 -6 -0.5 -9.5t-1.5 -8.5q-35 -93 -104.5 -155t-157.5 -62q-66 0 -122.5 38 t-90.5 99q-48 -65 -127.5 -101t-163.5 -36q-59 0 -105 31t-70 81.5t-24 110.5zM225 219q0 -41 27.5 -69.5t69.5 -28.5q57 0 111 31.5t75 80.5q9 26 16 68.5t13 77.5q-59 0 -131.5 -15.5t-126.5 -51.5t-54 -93zM690 518h303q6 40 6 82q0 65 -18 116.5t-68 51.5 q-49 0 -94 -40.5t-78 -98.5t-51 -111z" />
<glyph unicode="&#xbe;" d="M104 336q0 82 25 180.5t73.5 186.5t118.5 143t158 55q73 0 128 -48t83 -122q53 78 111 124t133 46q70 0 113.5 -43.5t61 -109.5t17.5 -132q0 -70 -18 -178q-5 -21 -22 -36t-37 -15h-344q-3 -14 -3 -43q0 -79 31.5 -151t97.5 -72q73 0 123 127q18 37 56 37 q26 0 43.5 -18.5t17.5 -43.5q0 -6 -0.5 -9.5t-1.5 -8.5q-35 -92 -99 -154.5t-149 -62.5q-74 0 -129.5 49.5t-85.5 126.5q-47 -75 -115 -125.5t-145 -50.5q-121 0 -181.5 108t-60.5 240zM229 348q0 -77 28.5 -152t90.5 -75q72 0 129.5 77t89 181.5t31.5 175.5q0 74 -29 143.5 t-94 69.5q-84 0 -172 -135q-74 -125 -74 -285zM729 518h266q6 46 6 90q0 61 -13.5 110.5t-55.5 49.5q-64 0 -119.5 -81.5t-83.5 -168.5z" />
<glyph unicode="&#xbf;" d="M47 -225q0 20 12 37l207 280q-110 108 -110 275q0 101 43.5 199t116.5 172t171 118.5t199 44.5q93 0 160 -33l209 281q19 25 49 25q27 0 48.5 -19.5t21.5 -46.5q0 -21 -13 -37l-205 -276q52 -48 80.5 -124t28.5 -153q0 -136 -74 -259t-197 -197t-259 -74q-84 0 -158 30 l-213 -284q-15 -25 -49 -25q-25 0 -46.5 19.5t-21.5 46.5zM281 389q0 -112 69 -184l410 549q-51 14 -94 14q-96 0 -186.5 -53t-144.5 -141.5t-54 -184.5zM465 135q41 -14 92 -14q98 0 186 52t142.5 140t54.5 183q0 54 -17 101.5t-53 84.5z" />
<glyph unicode="&#xc0;" d="M57 61q0 27 17 47.5t43 24.5h53l362 985h-12q-26 3 -41.5 20.5t-15.5 41.5q0 29 14 47.5t43 23.5h627q25 -3 41 -19t16 -42q0 -4 -2 -10l-33 -203q-14 -51 -61 -51q-25 0 -43 18t-18 43q0 4 2 12l20 119h-219l-66 -403h240q26 -3 41.5 -20.5t15.5 -41.5q0 -62 -59 -71 h-260l-76 -449h234l30 176q5 22 21 35.5t39 13.5q25 0 43 -18t18 -43v-10l-39 -236q-12 -45 -57 -51h-449q-23 3 -40 21t-17 40q0 27 16 47.5t43 24.5h33l39 234h-219l-86 -234h27q23 -3 40 -21t17 -40q0 -27 -16 -47.5t-44 -24.5h-204q-24 3 -41 21t-17 40zM430 500h193 l104 618h-70z" />
<glyph unicode="&#xc1;" d="M115 203q0 141 49 424q18 112 38.5 215t47.5 191t61 138q33 46 85 69t104.5 28.5t128.5 5.5q31 0 92 -11.5t86 -11.5h348q25 -3 41 -19t16 -42q0 -4 -2 -10l-32 -203q-16 -51 -62 -51q-25 0 -43 18t-18 43q0 4 2 12l20 119h-231l-66 -403h254q26 -3 42 -20t16 -42 q0 -29 -15.5 -48t-44.5 -23h-274l-76 -449h244l30 176q13 49 60 49q26 0 43.5 -17.5t17.5 -43.5v-10l-39 -236q-12 -45 -57 -51h-383q-30 0 -95 -11.5t-89 -11.5q-111 0 -171 12.5t-94 61t-34 152.5zM246 272q0 -96 44.5 -128.5t145.5 -32.5q78 0 106 54t48 159l53 323l6 27 l-2 -8l43 262q10 65 10 112q0 51 -20.5 76t-71.5 25q-161 0 -211 -78q-24 -36 -43 -102.5t-35 -150t-28 -159.5q-45 -255 -45 -379z" />
<glyph unicode="&#xc2;" d="M172 225q0 57 7 123t19 146t21 133q37 215 69.5 345t88.5 199q41 48 102.5 70.5t122 27.5t148.5 5q81 0 122 -2l62 127q21 31 53 31q28 0 49 -18.5t21 -47.5q0 -16 -4 -25l-45 -96q63 -27 82.5 -80t19.5 -137q0 -57 -7 -122.5t-18 -139.5t-22 -137q-30 -191 -66 -334.5 t-92 -212.5q-58 -68 -148.5 -85.5t-224.5 -17.5q-83 0 -124 3l-60 -127q-20 -31 -53 -31q-27 0 -49.5 18.5t-22.5 46.5q0 13 6 25l45 96q-62 28 -82 82t-20 135zM303 295q0 -105 41 -141l467 985q-29 2 -84 2q-63 0 -107.5 -4t-88 -23t-70.5 -55q-38 -52 -62.5 -151.5 t-56.5 -280.5q-5 -35 -15 -99.5t-17 -128.5t-7 -104zM471 113q27 -2 84 -2q63 0 107.5 4t86.5 22.5t70 55.5q41 54 69 167.5t52 266.5q21 134 30 200.5t9 128.5q0 105 -41 142z" />
<glyph unicode="&#xc3;" d="M51 -233q0 4 2 6l113 676q3 19 19 34t36 15q18 0 29.5 -10.5t11.5 -28.5v-10l-104 -627h700l105 627q3 19 19 34t36 15q16 0 28.5 -11.5t12.5 -27.5v-10l-113 -676q-5 -18 -21.5 -32.5t-35.5 -14.5h-797q-16 0 -28.5 11.5t-12.5 29.5z" />
<glyph unicode="&#xc4;" d="M412 1139q0 45 34.5 79.5t79.5 34.5q28 0 51 -13.5t36.5 -36t13.5 -48.5q0 -47 -35 -81t-80 -34q-27 0 -50 13.5t-36.5 36t-13.5 49.5zM829 1139q0 45 34.5 79.5t80.5 34.5q40 0 69 -29t29 -69q0 -46 -34.5 -80.5t-79.5 -34.5q-27 0 -49.5 13.5t-36 36t-13.5 49.5z" />
<glyph unicode="&#x2000;" horiz-adv-x="715" />
<glyph unicode="&#x2001;" horiz-adv-x="1430" />
<glyph unicode="&#x2002;" horiz-adv-x="715" />
<glyph unicode="&#x2003;" horiz-adv-x="1430" />
<glyph unicode="&#x2004;" horiz-adv-x="476" />
<glyph unicode="&#x2005;" horiz-adv-x="357" />
<glyph unicode="&#x2006;" horiz-adv-x="238" />
<glyph unicode="&#x2007;" horiz-adv-x="238" />
<glyph unicode="&#x2008;" horiz-adv-x="178" />
<glyph unicode="&#x2009;" horiz-adv-x="286" />
<glyph unicode="&#x200a;" horiz-adv-x="79" />
<glyph unicode="&#x2010;" d="M219 627q0 27 20.5 47.5t47.5 23.5h708q29 -3 48.5 -23.5t19.5 -47.5t-19 -48t-49 -24h-708q-28 3 -48 24t-20 48z" />
<glyph unicode="&#x2011;" d="M219 627q0 27 20.5 47.5t47.5 23.5h708q29 -3 48.5 -23.5t19.5 -47.5t-19 -48t-49 -24h-708q-28 3 -48 24t-20 48z" />
<glyph unicode="&#x2012;" d="M219 627q0 27 20.5 47.5t47.5 23.5h708q29 -3 48.5 -23.5t19.5 -47.5t-19 -48t-49 -24h-708q-28 3 -48 24t-20 48z" />
<glyph unicode="&#x2013;" horiz-adv-x="1255" d="M219 627q0 27 25 47.5t58 23.5h858q36 -3 59.5 -23.5t23.5 -47.5t-23 -48t-60 -24h-858q-34 3 -58.5 24t-24.5 48z" />
<glyph unicode="&#x2014;" horiz-adv-x="2279" d="M219 627q0 27 49.5 47.5t115.5 23.5h1718q70 -3 117.5 -23.5t47.5 -47.5t-46 -48t-119 -24h-1718q-68 3 -116.5 24t-48.5 48z" />
<glyph unicode="&#x202f;" horiz-adv-x="286" />
<glyph unicode="&#x205f;" horiz-adv-x="357" />
<glyph unicode="&#x2219;" d="M383 1085q0 31 23 58.5t53 27.5q6 0 10 -0.5t8 -1.5l228 -98l262 98q5 1 8.5 1.5t9.5 0.5q33 0 50.5 -26.5t17.5 -59.5q0 -41 -43 -59l-289 -98h-39l-256 98q-43 16 -43 59z" />
<glyph unicode="&#xe000;" horiz-adv-x="885" d="M0 885h885v-885h-885v885z" />
</font>
</defs>
</svg>
