<?xml version="1.0" standalone="no"?>
<!DOCTYPE svg PUBLIC "-//W3C//DTD SVG 1.1//EN" "http://www.w3.org/Graphics/SVG/1.1/DTD/svg11.dtd" >
<svg xmlns="http://www.w3.org/2000/svg">
<metadata>
This is a custom SVG webfont generated by Font Squirrel.
Copyright   : Copyright C 1994 Basil K Malyshev All Rights Reserved012BaKoMa Fonts Collection LevelB
</metadata>
<defs>
<font id="cmsl9Regular" horiz-adv-x="1051" >
<font-face units-per-em="2048" ascent="1638" descent="-410" />
<missing-glyph horiz-adv-x="702" />
<glyph unicode=" "  horiz-adv-x="702" />
<glyph unicode="&#x09;" horiz-adv-x="702" />
<glyph unicode="&#xa0;" horiz-adv-x="702" />
<glyph unicode="!" horiz-adv-x="584" d="M195 100q0 51 39 90t92 39q26 0 49.5 -13t37 -36t13.5 -51q0 -51 -39 -90t-92 -39q-26 0 -49.5 13t-37 36t-13.5 51zM328 420l73 936q0 43 43 76.5t88 33.5q27 0 50.5 -12.5t37 -33.5t13.5 -48q0 -16 -2 -24l-238 -936q-3 -19 -20 -19h-25q-20 0 -20 27z" />
<glyph unicode="&#x22;" d="M236 827q0 9 8 17q64 50 110.5 108t77 128t39.5 143q-32 -31 -84 -31q-42 0 -71 27t-29 71q0 54 38.5 92.5t92.5 38.5q61 0 87.5 -46.5t26.5 -112.5q0 -86 -32.5 -172.5t-90.5 -161.5t-128 -127q-7 -6 -15 -6q-9 0 -19.5 10.5t-10.5 21.5zM645 827q0 9 8 17 q64 50 111 108.5t77.5 128t39.5 142.5q-34 -31 -84 -31q-43 0 -72 27t-29 71q0 55 39 93t92 38q61 0 88 -47.5t27 -111.5q0 -88 -33 -173.5t-91.5 -161t-127.5 -126.5q-6 -6 -14 -6q-10 0 -20.5 10.5t-10.5 21.5z" />
<glyph unicode="#" horiz-adv-x="1753" d="M168 303q0 35 39 45h393l143 328h-467q-38 7 -38 43q0 35 38 45h508l281 631q10 26 41 26q17 0 30 -13t13 -30q0 -12 -2 -16l-266 -598h385l280 631q10 26 41 26q17 0 30 -13t13 -30q0 -12 -2 -16l-266 -598h352q41 -11 41 -45q0 -36 -41 -43h-393l-143 -328h467 q41 -11 41 -45q0 -17 -12.5 -28.5t-28.5 -14.5h-508l-279 -631q-13 -26 -41 -26q-17 0 -31 13t-14 30q0 8 4 16l264 598h-385l-278 -631q-13 -26 -41 -26q-19 0 -32 13t-13 30q0 8 4 16l264 598h-352q-39 7 -39 43zM696 348h385l144 328h-385z" />
<glyph unicode="$" d="M172 297q0 178 119 178q38 0 63 -23.5t25 -60.5q0 -45 -34 -80t-79 -35h-2q-5 0 -12.5 2t-11.5 3q0 -67 37 -120t96.5 -81.5t124.5 -28.5l100 598q-85 24 -130 43.5t-87 61.5q-94 92 -94 231v4q0 110 64.5 215t167 171.5t210.5 66.5l16 94h72l-16 -94q88 0 161 -37.5 t114.5 -105.5t41.5 -156q0 -168 -117 -168q-36 0 -62 24t-26 60q0 46 33 80.5t80 34.5h2q8 0 13.5 -2t9.5 -3q-9 62 -47 109t-94 70.5t-119 23.5l-93 -543q78 -21 123.5 -40.5t85.5 -61.5q33 -33 55.5 -74.5t34 -87.5t11.5 -92v-6q0 -94 -40.5 -183.5t-109.5 -158.5 q-57 -57 -141.5 -101t-159.5 -44l-14 -95h-72l14 95q-88 0 -160 41t-112.5 113t-40.5 163zM414 1067q0 -96 56 -144t161 -77l86 524q-74 -9 -145 -51t-114.5 -108.5t-43.5 -143.5zM569 51q83 12 154 61t114.5 123t43.5 156q0 71 -26 118.5t-73 76.5t-116 47z" />
<glyph unicode="%" horiz-adv-x="1753" d="M281 -72q0 15 12 31l1155 1352q-123 -60 -260 -60q-166 0 -305 86q14 -52 14 -112q0 -73 -23.5 -163t-68.5 -170t-109.5 -130.5t-144.5 -50.5q-81 0 -139 48t-86.5 123t-28.5 154q0 110 49 227t137 195t199 78q46 0 80 -21t76 -61.5t69 -58.5q123 -84 281 -84 q84 0 164.5 25t151.5 74t126 114q12 12 33 12q18 0 30.5 -12.5t12.5 -30.5q0 -19 -12 -31l-1338 -1564q-9 -13 -30 -13q-19 0 -32 13t-13 30zM430 967q0 -71 29 -134t94 -63q81 0 145.5 78t98.5 187t34 190q0 89 -37 170.5t-116 81.5q-65 0 -112.5 -55t-77 -138t-44 -170 t-14.5 -147zM1094 211q0 110 48.5 227t136.5 195t198 78q74 0 122.5 -48.5t71.5 -121.5t23 -142q0 -99 -42.5 -221.5t-121.5 -207.5t-182 -85q-81 0 -139 48t-86.5 123.5t-28.5 154.5zM1227 141q0 -70 29 -133t94 -63q81 0 145.5 78t98.5 187t34 189q0 91 -38 171.5 t-115 80.5q-84 0 -140.5 -91t-82 -212.5t-25.5 -206.5z" />
<glyph unicode="&#x26;" horiz-adv-x="1636" d="M129 227q0 72 34.5 136t90.5 110l285 246q-29 122 -29 244q0 59 6.5 120t24 114.5t47.5 98.5q49 74 125.5 122t160.5 48q80 0 117 -61t37 -145q0 -71 -30 -138t-80 -127t-88.5 -96.5t-137.5 -124.5q57 -232 250 -524q120 115 303 354l78 98q8 17 8 35q0 42 -39.5 58 t-87.5 16l13 72h460l-12 -72q-159 0 -256 -98l-109 -140q-189 -248 -323 -374q58 -78 118 -125t134 -47q61 0 118.5 29.5t96.5 80t49 111.5h66q-14 -80 -63.5 -147t-123.5 -106.5t-153 -39.5q-195 0 -351 151q-94 -71 -196.5 -111t-206.5 -40q-131 0 -233.5 73.5 t-102.5 198.5zM319 248q0 -90 39 -155.5t123 -65.5q172 0 344 127q-87 101 -160 237t-110 264l-96 -82q-68 -58 -104 -144.5t-36 -180.5zM666 1016q0 -44 4.5 -93.5t9.5 -80.5q99 90 149 140.5t92 126t42 157.5q0 55 -20 98t-69 43q-81 0 -128 -65t-63.5 -153t-16.5 -173z " />
<glyph unicode="'" horiz-adv-x="584" d="M342 827q0 9 8 17q64 50 111 108.5t77.5 128t39.5 142.5q-34 -31 -84 -31q-43 0 -72 27t-29 71q0 55 39 93t92 38q61 0 88 -47.5t27 -111.5q0 -88 -33 -173.5t-91.5 -161t-127.5 -126.5q-6 -6 -14 -6q-10 0 -20.5 10.5t-10.5 21.5z" />
<glyph unicode="(" horiz-adv-x="817" d="M266 248q0 244 74 489t217 452t344 343q8 4 12 4h19q20 0 20 -23q0 -11 -8 -16q-179 -143 -303 -360.5t-185 -463.5t-61 -489q0 -191 52.5 -363.5t166.5 -297.5q4 -8 4 -15q0 -22 -20 -22h-18q-5 0 -13 4q-101 89 -170 212.5t-100 261t-31 284.5z" />
<glyph unicode=")" horiz-adv-x="817" d="M35 -492q0 12 8 17q138 111 241.5 262t172 325.5t102 360.5t33.5 365q0 425 -217 661q-6 6 -6 14q0 6 6.5 14.5t13.5 8.5h19q8 0 12 -4q80 -68 138 -156.5t94.5 -185.5t53.5 -201t17 -215q0 -244 -74 -488.5t-218 -452t-345 -343.5q-8 -4 -12 -4h-19q-20 0 -20 22z" />
<glyph unicode="*" d="M287 897q0 46 41 64l315 135l-270 133q-25 12 -25 41q0 32 23 55t55 23q18 0 29 -11l229 -186l23 322q0 17 11 31.5t29.5 23t34.5 8.5q23 0 38.5 -13.5t15.5 -35.5q0 -10 -2 -14l-84 -322l290 186q16 11 35 11q24 0 38.5 -15.5t14.5 -40.5q0 -19 -11 -37.5t-30 -25.5 l-315 -133l270 -135q25 -13 25 -41q0 -32 -23 -55t-55 -23q-18 0 -28 10l-230 186l-22 -321q0 -26 -24 -45t-50 -19q-22 0 -38.5 14.5t-16.5 34.5q0 11 2 15l84 321l-291 -186q-16 -10 -35 -10q-24 0 -38.5 16.5t-14.5 38.5z" />
<glyph unicode="+" horiz-adv-x="1636" d="M203 512q0 36 39 43h624l105 625q1 14 13.5 24t29.5 10q20 0 31.5 -13.5t11.5 -33.5l-101 -612h607q16 -3 28.5 -15.5t12.5 -27.5q0 -18 -12 -30t-29 -15h-623l-104 -625q-1 -15 -14.5 -25t-28.5 -10q-19 0 -31 14.5t-12 33.5l102 612h-610q-39 7 -39 45z" />
<glyph unicode="," horiz-adv-x="584" d="M143 -365q0 10 9 17q91 73 148 169.5t73 203.5q-37 -25 -78 -25q-42 0 -71 27t-29 71q0 54 38.5 92.5t92.5 38.5q60 0 85 -44.5t25 -108.5q0 -129 -69 -255t-179 -214q-8 -4 -14 -4q-10 0 -20.5 10.5t-10.5 21.5z" />
<glyph unicode="-" horiz-adv-x="700" d="M84 375l25 135h561l-25 -135h-561z" />
<glyph unicode="." horiz-adv-x="584" d="M195 100q0 51 39 90t92 39q26 0 49.5 -13t37 -36t13.5 -51q0 -50 -40.5 -89.5t-90.5 -39.5q-26 0 -49.5 13t-37 36t-13.5 51z" />
<glyph unicode="/" d="M39 -469q0 12 6 23l1055 1962q13 20 39 20q19 0 31 -13t12 -30q0 -12 -6 -23l-1055 -1962q-13 -20 -39 -20q-17 0 -30 13t-13 30z" />
<glyph unicode="0" d="M164 391q0 129 26.5 278t78 286.5t122.5 228.5q65 84 160.5 132t202.5 48q96 0 163 -34.5t108.5 -97t60 -139.5t18.5 -171q0 -200 -59 -428t-166 -363q-66 -83 -161.5 -129.5t-199.5 -46.5q-94 0 -162.5 34.5t-111 96t-61.5 139.5t-19 166zM330 264q0 -67 20 -123.5 t65 -91.5t113 -35q102 0 171.5 70t106 172t55 200.5t38.5 229.5q45 255 45 377q0 106 -49.5 174t-151.5 68t-168.5 -61.5t-103 -156.5t-58.5 -218.5t-32 -182.5q-51 -299 -51 -422z" />
<glyph unicode="1" d="M199 0l10 72q252 0 274 61l181 1081q-121 -53 -285 -53l12 72q120 0 225 30.5t183 100.5h26q12 0 18.5 -8t6.5 -19l-201 -1204q0 -17 9.5 -31.5t25.5 -17.5q43 -12 217 -12l-12 -72h-690z" />
<glyph unicode="2" d="M104 0l9 49q5 16 8 19l393 358q134 123 209 200.5t133.5 185.5t58.5 226q0 73 -25.5 130.5t-76.5 90.5t-123 33q-95 0 -178 -53.5t-131 -138.5h14q41 0 69 -25.5t28 -66.5q0 -52 -37.5 -90.5t-89.5 -38.5q-40 0 -68.5 27.5t-28.5 68.5q0 61 36.5 128.5t88.5 121.5 q64 66 149.5 102.5t176.5 36.5q165 0 279 -89.5t114 -250.5q0 -106 -47.5 -194.5t-125.5 -163t-159 -134.5t-188 -141l-270 -219h184q149 0 249.5 2.5t106.5 7.5q18 18 33 51t28.5 77t18.5 61h66l-119 -371h-785z" />
<glyph unicode="3" d="M131 238q0 65 34.5 111t100.5 46q43 0 73 -26.5t30 -69.5q0 -56 -38.5 -95.5t-94.5 -39.5q-13 0 -17 2q35 -76 118.5 -111t176.5 -35q74 0 131.5 41t95.5 109.5t55 142t17 144.5q0 92 -46.5 158.5t-135.5 66.5h-144q-20 0 -20 27q5 32 25 32l118 9q60 0 113 39 t91.5 101.5t58.5 131t20 123.5q0 73 -42.5 116.5t-115.5 43.5q-52 0 -105.5 -12.5t-102.5 -40t-81 -64.5q40 0 68.5 -26t28.5 -66q0 -52 -36.5 -87.5t-88.5 -35.5q-39 0 -66.5 25.5t-27.5 64.5q0 90 65.5 158.5t163 105.5t184.5 37q82 0 163 -27.5t134 -84t53 -140.5 q0 -88 -51 -169t-131 -140t-166 -86q77 -17 143 -61t105 -111.5t39 -145.5q0 -94 -44.5 -174t-121.5 -142t-169.5 -95t-180.5 -33q-91 0 -178 30.5t-144 95t-57 157.5z" />
<glyph unicode="4" d="M115 336l12 72l803 946q10 10 24 10h35q8 0 14.5 -5.5t6.5 -15.5v-4l-156 -931h205l-12 -72h-203l-35 -205v-4q0 -35 60 -45t135 -10l-13 -72h-581l12 72q80 0 141 10.5t74 48.5l33 205h-555zM203 408h491l121 722z" />
<glyph unicode="5" d="M156 274q0 69 28 115.5t95 46.5q39 0 65.5 -24t26.5 -64q0 -50 -35.5 -85.5t-83.5 -35.5q-8 0 -15.5 1.5t-11.5 2.5q10 -60 46.5 -109.5t92 -75.5t119.5 -26q97 0 167 53.5t112.5 140t61 183t18.5 187.5q0 85 -38.5 151t-119.5 66q-74 0 -127.5 -21t-86 -46.5t-65 -59 t-43.5 -35.5h-18q-8 0 -16.5 8.5t-8.5 20.5l89 524l26 154q0 8 7.5 13t17.5 5h4q132 -66 289 -66q152 0 307 66h6q22 0 22 -27q0 -15 -6 -24q-59 -59 -127 -101.5t-144 -66t-159 -23.5q-97 0 -178 27l-65 -389q122 100 280 100q100 0 175.5 -51t117 -136.5t41.5 -183.5 q0 -105 -43.5 -201.5t-120.5 -171.5t-176 -118t-203 -43q-137 0 -230 90.5t-93 228.5z" />
<glyph unicode="6" d="M174 418q0 173 41 329.5t129 288.5q60 90 141.5 165t178.5 119t200 44q99 0 168.5 -47.5t69.5 -142.5q0 -59 -29.5 -99.5t-87.5 -40.5q-36 0 -61 24t-25 60q0 47 33 81t80 34q4 0 6 -0.5t4 -1.5q-16 40 -62 57t-96 17q-95 0 -181 -58t-146 -149q-91 -135 -138 -400 q52 80 127 130.5t162 50.5q77 0 141.5 -27.5t112.5 -79.5t73 -118t25 -142q0 -104 -39 -205t-109.5 -180.5t-166.5 -125.5t-203 -46q-93 0 -160.5 39t-109.5 107t-60 150t-18 167zM344 256q0 -96 45 -166t135 -70q88 0 159 53.5t105 139.5q27 66 49.5 193.5t22.5 203.5 q0 61 -19.5 107.5t-60 74t-102.5 27.5q-67 0 -125.5 -38.5t-101 -99t-68 -135t-25.5 -132.5l-4 -6q-10 -93 -10 -152z" />
<glyph unicode="7" d="M274 948l142 436h65q-2 -4 -2 -10q0 -55 371 -55h391q-5 -52 -12 -62l-357 -393q-121 -134 -194 -350q-36 -109 -64 -248q-11 -58 -22 -121t-17 -92q-8 -42 -37.5 -70t-72.5 -28q-36 0 -62 24t-26 62q0 66 45 197t92 225q110 222 297 432l229 252h-231q-375 0 -387 -10 q-18 -18 -33 -50t-27 -71t-22 -68h-66z" />
<glyph unicode="8" d="M135 262q0 146 104.5 253.5t258.5 174.5l-66 45q-56 40 -88.5 102.5t-32.5 133.5q0 108 64 198.5t166.5 142.5t208.5 52q80 0 158 -30t127.5 -91.5t49.5 -144.5t-43 -151.5t-108.5 -118t-149.5 -89.5l103 -71q64 -46 100.5 -117.5t36.5 -149.5q0 -123 -73.5 -226 t-190.5 -161.5t-238 -58.5q-95 0 -184 35t-146 105.5t-57 166.5zM254 262q0 -107 80 -174.5t190 -67.5q85 0 170.5 35.5t142 102.5t56.5 153q0 50 -25 94.5t-67 71.5l-244 172q-78 -36 -147.5 -94t-112.5 -133.5t-43 -159.5zM432 1067q0 -39 21 -74.5t55 -60.5l219 -154 q66 34 122.5 81t93 108t36.5 133q0 93 -69 149t-165 56q-70 0 -142.5 -28.5t-121.5 -82.5t-49 -127z" />
<glyph unicode="9" d="M170 147q0 58 29 99t86 41q36 0 62 -24t26 -62q0 -46 -33.5 -79.5t-81.5 -33.5h-6q49 -68 184 -68q89 0 166 55t133 138q38 58 64 125t43 140.5t28 146.5q-50 -81 -124.5 -131t-163.5 -50q-101 0 -181 49t-126 132.5t-46 183.5q0 144 71 273t194 205.5t266 76.5 q92 0 157.5 -39t104 -104t56.5 -146.5t18 -167.5q0 -173 -42.5 -337t-131.5 -302q-92 -135 -219 -224t-269 -89q-108 0 -186 46t-78 146zM412 711q0 -93 46.5 -150t135.5 -57q66 0 124 38.5t101.5 100t68.5 132.5t25 132l2 8q13 84 13 162q0 92 -42 160t-128 68 q-94 0 -166 -54.5t-111 -146.5q-26 -67 -47.5 -195.5t-21.5 -197.5z" />
<glyph unicode=":" horiz-adv-x="584" d="M195 100q0 51 39 90t92 39q26 0 49.5 -13t37 -36t13.5 -51q0 -50 -40.5 -89.5t-90.5 -39.5q-26 0 -49.5 13t-37 36t-13.5 51zM303 754q0 50 39.5 89.5t91.5 39.5q27 0 50 -13t37 -36t14 -52q0 -50 -41 -89.5t-91 -39.5q-40 0 -70 29t-30 72z" />
<glyph unicode=";" horiz-adv-x="584" d="M143 -365q0 10 9 17q52 48 93.5 106t69 121t39.5 135q-25 -14 -59 -14q-42 0 -71 27t-29 71q0 54 38.5 92.5t92.5 38.5q52 0 74 -39t22 -94q0 -89 -29.5 -178.5t-82.5 -168.5t-122 -142q-4 -4 -14 -4t-20.5 10.5t-10.5 21.5zM303 754q0 50 39.5 89.5t91.5 39.5 q27 0 50 -13t37 -36t14 -52q0 -50 -41 -89.5t-91 -39.5q-40 0 -70 29t-30 72z" />
<glyph unicode="&#x3c;" horiz-adv-x="584" d="M119 -348q0 16 2 24l239 936q3 19 21 19h25q20 0 20 -27l-76 -936q0 -44 -42 -77t-87 -33q-40 0 -71 27t-31 67zM326 895q0 51 39 90t92 39q26 0 49.5 -13t37 -36t13.5 -51q0 -51 -39 -90t-92 -39q-26 0 -49.5 13t-37 36t-13.5 51z" />
<glyph unicode="=" horiz-adv-x="1636" d="M168 303q0 35 39 45h1321q41 -11 41 -45q0 -17 -12.5 -28.5t-28.5 -14.5h-1321q-39 7 -39 43zM238 719q0 35 38 45h1321q41 -11 41 -45q0 -36 -41 -43h-1321q-38 7 -38 43z" />
<glyph unicode="&#x3e;" horiz-adv-x="993" d="M90 -186q0 74 35 142.5t94 111.5q118 82 198.5 199t100.5 247l19 98q0 19 20 19h25q20 0 20 -27l-18 -98q-21 -131 -81 -257.5t-151 -223.5q-30 -33 -49 -79t-29 -99.5t-10 -98.5q0 -108 139 -108q95 0 185.5 28.5t146.5 91.5q-34 0 -59 25t-25 59q0 46 33.5 80.5 t79.5 34.5q38 0 63 -24t25 -62q0 -69 -52.5 -132t-123.5 -99q-121 -62 -275 -62q-84 0 -153.5 22.5t-113.5 75t-44 136.5zM502 895q0 51 39 90t92 39q26 0 49.5 -13t37 -36t13.5 -51q0 -51 -39 -90t-92 -39q-26 0 -49.5 13t-37 36t-13.5 51z" />
<glyph unicode="?" horiz-adv-x="993" d="M309 1149q0 84 62 152t154.5 105.5t179.5 37.5q148 0 257 -53.5t109 -190.5q0 -69 -30 -121.5t-68 -84.5t-108 -82t-107 -87q-144 -144 -172 -315l-17 -98q-1 -7 -7 -13t-13 -6h-25q-20 0 -20 27l16 98q15 93 53.5 182.5t94.5 164.5t131 139q33 27 54.5 68t31.5 89.5 t10 93.5q0 129 -193 129q-48 0 -101 -13.5t-98.5 -40.5t-78.5 -66q37 0 61.5 -23t24.5 -61q0 -48 -32.5 -81.5t-80.5 -33.5q-36 0 -62 24t-26 60zM371 100q0 51 39 90t92 39q26 0 49.5 -13t37 -36t13.5 -51q0 -51 -39 -90t-92 -39q-26 0 -49.5 13t-37 36t-13.5 51z" />
<glyph unicode="@" horiz-adv-x="1636" d="M225 588q0 161 65.5 314.5t182 277t268 194t314.5 70.5q128 0 238.5 -47t188.5 -129t121.5 -193.5t43.5 -240.5q0 -107 -30.5 -242.5t-99 -234.5t-176.5 -99q-67 0 -126.5 33.5t-67.5 97.5q-131 -131 -283 -131q-102 0 -183.5 50.5t-126 137t-44.5 187.5q0 130 68 254 t182 200t248 76q86 0 158 -47.5t110 -128.5h100q21 0 21 -26l-88 -537q-4 -20 -4 -33q0 -74 47 -74q82 0 133.5 93.5t73.5 213t22 207.5q0 152 -67 279.5t-188 200.5t-273 73q-149 0 -287.5 -65.5t-245.5 -180t-168 -257.5t-61 -291q0 -115 37.5 -215t109 -176.5t168 -119 t213.5 -42.5q109 0 209.5 15.5t203.5 45.5t198 72h4h88q20 0 20 -23q0 -16 -14 -20q-352 -150 -711 -150q-170 0 -306 81t-211 221t-75 309zM668 608q0 -65 20.5 -132.5t65 -113t112.5 -45.5q88 0 165 53t130 134l70 420q-24 76 -85.5 128t-139.5 52q-99 0 -176.5 -81.5 t-119.5 -199.5t-42 -215z" />
<glyph unicode="A" horiz-adv-x="1577" d="M70 0l12 72q82 0 147.5 29.5t98.5 95.5l653 1245q14 24 41 24h22q13 0 21 -6.5t10 -17.5l250 -1303q10 -43 63 -55t132 -12l-13 -72h-569l12 72q178 0 178 61l-2 6l-61 322h-522l-137 -264q-11 -16 -11 -37q0 -46 42 -67t93 -21l-12 -72h-448zM580 532h473l-127 658z" />
<glyph unicode="B" horiz-adv-x="1489" d="M80 0l12 72q199 0 219 61l189 1133v6q0 55 -199 55l12 72h766q98 0 192.5 -33.5t157 -102.5t62.5 -169q0 -96 -61 -172.5t-154.5 -125.5t-185.5 -65q85 -8 165.5 -47.5t131.5 -107t51 -156.5q0 -91 -48.5 -169t-129.5 -135t-173 -86.5t-182 -29.5h-825zM489 111 q0 -39 97 -39h272q93 0 180.5 50.5t139 134t51.5 179.5q0 70 -29.5 130t-83.5 96t-125 36h-405l-97 -575v-12zM596 758h317q92 0 179 45t141.5 124.5t54.5 172.5q0 62 -28.5 114.5t-79 82.5t-113.5 30h-272q-49 0 -77 -9t-36 -42z" />
<glyph unicode="C" horiz-adv-x="1520" d="M223 580q0 223 121.5 422t322 320.5t423.5 121.5q104 0 198 -46.5t156 -129.5l145 168q8 8 17 8h12q20 0 20 -27l-92 -545q0 -6 -7 -12t-13 -6h-31q-20 0 -20 27q2 14 2 45q0 115 -41.5 217t-125.5 165.5t-202 63.5q-102 0 -199 -37t-178.5 -103t-138.5 -151 q-77 -113 -117.5 -267t-40.5 -302q0 -139 51.5 -249t152.5 -173t241 -63q128 0 244 64.5t194.5 173.5t99.5 235q2 7 8 12.5t13 5.5h24q21 0 21 -26q-18 -109 -77.5 -208t-147 -173t-193 -115t-217.5 -41q-130 0 -245.5 46.5t-201 132t-132 201t-46.5 245.5z" />
<glyph unicode="D" horiz-adv-x="1608" d="M78 0l12 72q199 0 219 61l189 1133v6q0 55 -199 55l12 72h768q120 0 220 -45.5t170 -126.5t107.5 -186.5t37.5 -223.5q0 -152 -59.5 -299t-166 -264t-248 -185.5t-294.5 -68.5h-768zM494 111q0 -25 28 -32t68 -7h215q159 0 276.5 72t190.5 192t107 267t34 296 q0 125 -46 222t-137 151.5t-216 54.5h-215q-49 0 -77 -9t-36 -42l-192 -1153v-12z" />
<glyph unicode="E" horiz-adv-x="1432" d="M74 0l12 72q199 0 219 61l189 1133v6q0 55 -199 55l12 72h1182l-21 -469h-65q1 24 1.5 43.5t0.5 52.5q0 107 -26.5 168.5t-75.5 89t-117.5 35.5t-175.5 8h-209q-49 0 -77 -9t-36 -42l-86 -514h156q106 0 161.5 17t84 65.5t47.5 156.5h65l-92 -550h-66q13 63 13 106 q0 89 -58 111t-168 22h-155l-94 -567v-12q0 -25 28 -32t68 -7h223q148 0 240.5 22.5t151 74.5t100 137.5t88.5 230.5h65l-178 -537h-1208z" />
<glyph unicode="F" horiz-adv-x="1372" d="M74 0l12 72q199 0 219 61l189 1133v6q0 55 -199 55l12 72h1153l-20 -469h-66q1 25 1.5 45t0.5 53q0 135 -42.5 199.5t-120 82t-218.5 17.5h-194q-49 0 -77 -9t-36 -42l-90 -541h150q106 0 160 18t81.5 68t44.5 154h66l-90 -551h-66q10 88 10 108q0 88 -55.5 110 t-161.5 22h-151l-88 -531q0 -42 34 -49q41 -12 216 -12l-13 -72h-661z" />
<glyph unicode="G" horiz-adv-x="1651" d="M223 580q0 223 121.5 422t322 320.5t423.5 121.5q104 0 198 -46.5t156 -129.5l145 168q8 8 17 8h12q20 0 20 -27l-92 -545q0 -6 -7 -12t-13 -6h-31q-20 0 -20 27q2 14 2 45q0 115 -41.5 217t-125.5 165.5t-202 63.5q-102 0 -199 -37t-178.5 -103t-138.5 -151 q-77 -115 -117.5 -266t-40.5 -299q0 -106 30 -195t89 -155t145 -102.5t193 -36.5q115 0 213 49q49 25 84 59q24 24 33 39t16 40t12 40l31 174q0 42 -35 49q-43 12 -219 12l12 72h602l-12 -72q-63 0 -104 -9.5t-51 -47.5l-31 -188l-37 -226q-4 -18 -23 -18q-18 0 -58.5 48.5 t-53.5 76.5q-66 -87 -181 -128.5t-241 -41.5q-130 0 -245.5 46.5t-201 132t-132 201t-46.5 245.5z" />
<glyph unicode="H" horiz-adv-x="1577" d="M74 0l12 72q199 0 219 61l189 1133v6q0 55 -199 55l12 72h611l-13 -72q-198 0 -219 -61l-84 -502h627l84 502v6q0 55 -199 55l12 72h611l-13 -72q-198 0 -219 -61l-188 -1133v-6q0 -35 61.5 -45t137.5 -10l-13 -72h-610l12 72q199 0 219 61l93 559h-627l-92 -559v-6 q0 -35 61.5 -45t136.5 -10l-12 -72h-610z" />
<glyph unicode="I" horiz-adv-x="760" d="M63 0l13 72q85 0 150.5 10.5t78.5 50.5l189 1133v6q0 55 -209 55l12 72h631l-13 -72q-84 0 -149.5 -10.5t-79.5 -50.5l-188 -1133v-6q0 -55 209 -55l-13 -72h-631z" />
<glyph unicode="J" horiz-adv-x="1081" d="M125 197q0 62 36 106.5t99 44.5q42 0 72 -27t30 -69q0 -56 -38.5 -95.5t-94.5 -39.5q-3 1 -5.5 1.5t-6.5 0.5q30 -53 86 -79t119 -26q97 0 168 89t90 192l162 971q0 17 -10.5 31.5t-26.5 17.5q-43 12 -223 12l10 72h614l-12 -72q-66 0 -109.5 -9.5t-56.5 -47.5l-164 -991 q-20 -96 -88.5 -170t-164 -114t-189.5 -40q-73 0 -141.5 28t-112 82.5t-43.5 131.5z" />
<glyph unicode="K" horiz-adv-x="1636" d="M74 0l12 72q199 0 219 61l189 1133v6q0 55 -199 55l12 72h611l-13 -72q-198 0 -219 -61l-111 -666l750 602q43 35 43 70q0 27 -23 41t-55 14l13 72h448l-12 -72q-166 0 -318 -125l-432 -346l350 -659q32 -58 57 -83.5t59 -33.5t104 -8l-13 -72h-534l12 72q125 0 125 65 q0 24 -21 60l-286 540l-281 -225l-63 -379v-6q0 -35 61.5 -45t136.5 -10l-12 -72h-610z" />
<glyph unicode="L" horiz-adv-x="1315" d="M74 0l12 72q199 0 219 61l189 1133v6q0 55 -199 55l12 72h662l-13 -72q-247 0 -270 -61l-190 -1143v-12q0 -25 28 -32t68 -7h164q154 0 250 56t148.5 155t94.5 254h66l-148 -537h-1093z" />
<glyph unicode="M" horiz-adv-x="1929" d="M84 0l12 72q200 0 228 116l180 1078v6q0 55 -199 55l12 72h385q26 0 33 -25l264 -1161l650 1161q13 25 43 25h385l-13 -72q-198 0 -219 -61l-188 -1133v-6q0 -35 61.5 -45t136.5 -10l-12 -72h-592l13 72q81 0 143.5 10.5t75.5 50.5l196 1190l-725 -1296q-16 -27 -45 -27 q-28 0 -35 27l-290 1280l-189 -1119v-10q0 -64 55.5 -85t135.5 -21l-13 -72h-489z" />
<glyph unicode="N" horiz-adv-x="1577" d="M74 0l12 72q200 0 227 116l189 1127q-64 12 -207 12l12 72h381q14 0 21 -13l567 -1069l147 893q2 4 2 11q0 106 -190 106l12 72h490l-13 -72q-199 0 -227 -117l-199 -1192q-4 -18 -22 -18h-25q-16 0 -20 14l-664 1246l-1 2h-1l-180 -1074v-10q0 -64 55.5 -85t134.5 -21 l-12 -72h-489z" />
<glyph unicode="O" horiz-adv-x="1636" d="M221 565q0 163 65.5 320t183.5 284.5t270 201t319 73.5q170 0 304 -82.5t208 -224t74 -312.5q0 -217 -114.5 -419t-308 -326.5t-413.5 -124.5q-169 0 -304 80.5t-209.5 219.5t-74.5 310zM436 522q0 -128 41 -241t128 -184.5t216 -71.5q109 0 210.5 55.5t176.5 144.5 q112 131 171 314t59 366q0 91 -23.5 175.5t-73 153t-123.5 106.5t-171 38q-107 0 -207.5 -51.5t-178 -137t-127.5 -195t-74 -230t-24 -242.5z" />
<glyph unicode="P" horiz-adv-x="1432" d="M78 0l12 72q199 0 219 61l189 1133v6q0 55 -199 55l12 72h740q103 0 203.5 -37.5t166.5 -114t66 -184.5q0 -127 -88 -225t-219.5 -150.5t-257.5 -52.5h-336l-84 -502v-6q0 -35 61.5 -45t136.5 -10l-12 -72h-610zM590 700h289q395 0 395 414q0 117 -82.5 165t-208.5 48 h-184q-49 0 -77 -9t-36 -42z" />
<glyph unicode="Q" horiz-adv-x="1636" d="M221 565q0 163 65.5 320t183.5 284.5t270 201t319 73.5q170 0 304 -82.5t208 -224t74 -312.5q0 -168 -71 -331.5t-198 -289t-284 -190.5q25 -92 58 -143t105 -51q81 0 146 54.5t80 133.5q4 19 24 19q10 0 17.5 -9.5t7.5 -19.5q-29 -154 -106 -274.5t-212 -120.5 q-92 0 -136 59.5t-54 137t-10 186.5q-97 -31 -203 -31q-169 0 -304 80.5t-209.5 219.5t-74.5 310zM426 508q0 -99 25 -188t80 -160.5t141 -108.5q-2 0 -2 8l-6 21q-2 8 -2 29q0 51 28.5 97.5t75 74.5t98.5 28q88 0 135 -58.5t72 -154.5q96 59 165 146.5t115.5 196.5 t67.5 223t21 223q0 97 -23 182.5t-72.5 157.5t-125 112.5t-172.5 40.5q-75 0 -145.5 -25.5t-133.5 -70t-113 -100.5q-75 -86 -126.5 -198t-77 -234t-25.5 -242zM721 111q0 -91 100 -91q95 0 187 43q0 79 -34 133t-110 54q-37 0 -69.5 -19.5t-53 -51.5t-20.5 -68z" />
<glyph unicode="R" horiz-adv-x="1548" d="M78 0l12 72q199 0 219 61l189 1133v6q0 55 -199 55l12 72h652q83 0 168 -19t159 -58.5t121 -103.5t47 -149q0 -94 -62 -171.5t-155.5 -129t-187.5 -74.5q87 -32 143.5 -98.5t56.5 -155.5l-6 -192v-58q0 -80 17.5 -128t81.5 -48q65 0 106.5 57t54.5 130q1 7 9 12.5t14 5.5 h18q12 0 18.5 -7.5t6.5 -18.5q-19 -96 -79 -167t-151 -71q-131 0 -224 60t-93 184q0 21 4 53l31 180q4 24 4 39q0 59 -30.5 104.5t-82 70t-112.5 24.5h-254l-90 -537v-6q0 -35 61.5 -45t136.5 -10l-12 -72h-604zM596 729h227q95 0 173 21t134 67.5t85.5 117t29.5 171.5 q0 86 -46 135.5t-117.5 67.5t-157.5 18h-125q-49 0 -77 -9t-36 -42z" />
<glyph unicode="S" horiz-adv-x="1169" d="M113 -18l77 464q6 19 21 19h25q20 0 20 -27q-8 -56 -8 -84q0 -164 112.5 -245.5t282.5 -81.5q85 0 161 49.5t120.5 129.5t44.5 163q0 82 -45.5 144t-122.5 81l-262 65q-112 28 -182 119.5t-70 206.5q0 120 68 226.5t177.5 169.5t229.5 63q97 0 178 -34.5t133 -106.5 l107 133q8 8 16 8h12q21 0 21 -27l-78 -465q-4 -18 -21 -18h-24q-21 0 -21 27q1 13 1.5 23.5t0.5 27.5q0 110 -35 192t-108.5 128t-183.5 46q-78 0 -153.5 -41.5t-122 -113t-46.5 -152.5q0 -74 45.5 -131.5t118.5 -77.5l262 -65q76 -19 134.5 -70t90 -124.5t31.5 -151.5 q0 -123 -66.5 -239.5t-178.5 -186.5t-236 -70q-71 0 -138.5 13.5t-127.5 44t-105 83.5l-106 -133q-8 -8 -17 -8h-12q-20 0 -20 27z" />
<glyph unicode="T" horiz-adv-x="1520" d="M231 930l119 469h1284l-37 -469h-65q8 98 8 157q0 144 -60 192t-208 48h-90q-49 0 -77 -9t-36 -42l-190 -1143q0 -19 11.5 -32.5t29.5 -16.5q47 -12 243 -12l-12 -72h-782l12 72q283 0 305 61l191 1143v12q0 39 -97 39h-92q-142 0 -215 -44.5t-104 -117.5t-72 -235h-66z " />
<glyph unicode="U" horiz-adv-x="1577" d="M295 1327l12 72h611l-13 -72q-198 0 -219 -61l-133 -801q-12 -67 -12 -133q0 -85 31.5 -155t95.5 -110t151 -40q118 0 221 61t171 163t89 218l123 741q2 4 2 11q0 106 -190 106l12 72h490l-13 -72q-199 0 -227 -117l-125 -745q-24 -132 -104 -250.5t-198 -189t-255 -70.5 q-126 0 -231.5 55t-167.5 155t-62 226q0 37 6 78l134 797v6q0 55 -199 55z" />
<glyph unicode="V" horiz-adv-x="1577" d="M262 1327l12 72h562l-13 -72q-174 0 -174 -61v-6l236 -1049l553 991q10 15 10 41q0 44 -39 64t-90 20l12 72h438l-12 -72q-78 0 -141.5 -30.5t-99.5 -94.5l-682 -1222q-15 -25 -41 -25h-23q-30 0 -33 25l-286 1280q-11 43 -61 55t-128 12z" />
<glyph unicode="W" horiz-adv-x="2163" d="M260 1327l12 72h549l-12 -72q-182 0 -182 -63v-4l168 -1010l440 885l-21 125q-9 43 -53.5 55t-118.5 12l13 72h549l-13 -72q-182 0 -182 -63q1 -2 1.5 -4t0.5 -5l166 -1005l475 952q6 15 6 31q0 35 -26 56.5t-61.5 29.5t-69.5 8l12 72h442l-12 -72q-71 0 -130.5 -31.5 t-92.5 -93.5l-609 -1222q-13 -25 -38 -25h-17q-9 0 -19 6.5t-12 18.5l-174 1050l-522 -1050q-13 -25 -41 -25h-14q-11 0 -20 6.5t-11 18.5l-211 1280q-9 43 -53.5 55t-118.5 12z" />
<glyph unicode="X" horiz-adv-x="1577" d="M53 0l13 72q95 0 177 29t140 96l430 497l-295 568q-26 43 -79 54t-136 11l12 72h572l-13 -72q-35 0 -86 -16t-51 -43v-8l213 -408l303 350q17 23 17 47q0 39 -34 58.5t-73 19.5l11 72h495l-12 -72q-59 0 -117 -12t-110 -40t-91 -73l-356 -414l338 -651q29 -44 81 -54.5 t134 -10.5l-10 -72h-574l13 72q36 0 87.5 16t51.5 43q0 3 -0.5 4.5t-1.5 3.5l-256 492l-377 -434q-16 -24 -16 -47q0 -37 33.5 -57.5t72.5 -20.5l-10 -72h-496z" />
<glyph unicode="Y" horiz-adv-x="1577" d="M248 1327l12 72h576l-11 -72q-147 0 -147 -53q0 -6 4 -14l285 -607l438 549q25 30 25 62q0 63 -99 63l12 72h441l-12 -72q-179 0 -281 -125l-516 -643l-70 -420v-12q0 -35 61.5 -45t137.5 -10l-12 -72h-605l13 72q85 0 147.5 12t71.5 55l72 420l-330 701q-24 43 -77 55 t-136 12z" />
<glyph unicode="Z" horiz-adv-x="1286" d="M121 20q0 33 10 43l1032 1264h-295q-153 0 -251 -37.5t-158 -123.5t-92 -236h-66l100 469h973q23 0 23 -21q0 -28 -11 -39l-1030 -1261h308q183 0 287.5 47t158.5 145.5t96 284.5h66l-127 -555h-1002q-22 0 -22 20z" />
<glyph unicode="[" horiz-adv-x="584" d="M160 -512l342 2048h291l-15 -88h-203l-311 -1872h203l-16 -88h-291z" />
<glyph unicode="\" d="M477 954q0 130 71 253.5t181 209.5q8 4 14 4q12 0 21.5 -10.5t9.5 -21.5q0 -12 -8 -17q-91 -71 -151.5 -169.5t-75.5 -209.5q35 31 86 31q42 0 71 -27t29 -71q0 -54 -39.5 -92.5t-91.5 -38.5q-61 0 -89 47.5t-28 111.5zM887 954q0 130 70 253.5t182 209.5q8 4 14 4 q12 0 21.5 -10.5t9.5 -21.5q0 -12 -8 -17q-91 -71 -151.5 -169t-76.5 -210q37 31 86 31q42 0 71.5 -27t29.5 -71q0 -55 -40 -93t-91 -38q-62 0 -89.5 48t-27.5 111z" />
<glyph unicode="]" horiz-adv-x="584" d="M-41 -512l14 88h205l311 1872h-202l14 88h291l-342 -2048h-291z" />
<glyph unicode="^" d="M432 1145l330 276l239 -276l-51 -47l-209 202l-274 -202z" />
<glyph unicode="_" horiz-adv-x="584" d="M385 1243q0 51 39 90t92 39q26 0 49.5 -13t37 -36t13.5 -51q0 -51 -39 -90t-92 -39q-26 0 -49.5 13t-37 36t-13.5 51z" />
<glyph unicode="`" horiz-adv-x="584" d="M311 954q0 130 71 253.5t181 209.5q8 4 15 4q12 0 21 -10.5t9 -21.5q0 -12 -8 -17q-91 -71 -151.5 -169.5t-75.5 -209.5q35 31 86 31q42 0 71 -27t29 -71q0 -54 -39.5 -92.5t-91.5 -38.5q-61 0 -89 47.5t-28 111.5z" />
<glyph unicode="a" d="M117 178q0 130 109 212.5t260.5 118.5t281.5 36l14 84q4 28 4 43q0 77 -48.5 131.5t-125.5 54.5q-128 0 -206 -45q27 -7 43 -29.5t16 -50.5q0 -46 -33.5 -80.5t-79.5 -34.5q-36 0 -62 24t-26 60q0 75 57.5 124.5t140 70.5t154.5 21q79 0 155 -30t124.5 -88.5t48.5 -140.5 q0 -26 -2 -38l-59 -355l-19 -100q0 -10 -0.5 -15t-1.5 -12q0 -27 14 -49t39 -22q36 0 57 29.5t27 68.5l23 131h65l-22 -131q-12 -76 -77 -127t-140 -51q-58 0 -92.5 42.5t-34.5 100.5v4q-49 -70 -130 -114t-167 -44q-115 0 -211 48.5t-96 152.5zM289 176q0 -61 44.5 -100 t106.5 -39q101 0 183.5 69.5t99.5 169.5l35 211q-95 0 -206 -35t-187 -105t-76 -171z" />
<glyph unicode="b" horiz-adv-x="1169" d="M215 0l27 160l180 1079q1 6 1.5 11t0.5 14q0 41 -41.5 52t-103.5 11l12 72l315 22l-4 -26l-102 -607q64 55 142 86t161 31q107 0 193 -51.5t134 -140t48 -195.5q0 -139 -76.5 -265t-203 -201t-267.5 -75q-79 0 -147.5 39t-108.5 107l-94 -123h-66zM410 201 q21 -73 78.5 -118.5t132.5 -45.5q131 0 216.5 85.5t124.5 212.5t39 255q0 69 -23.5 126.5t-72.5 93.5t-119 36q-86 0 -165.5 -44t-131.5 -116z" />
<glyph unicode="c" horiz-adv-x="934" d="M137 367q0 138 75 266.5t199 206.5t263 78q71 0 137 -12.5t115 -48.5t49 -103q0 -52 -31.5 -87.5t-81.5 -35.5q-36 0 -62 24t-26 60q0 37 22.5 67.5t57.5 40.5q-66 29 -182 29q-114 0 -195 -84t-120.5 -206t-39.5 -232q0 -54 14.5 -105.5t44.5 -92.5t76 -65t103 -24 q66 0 124 27.5t101.5 75t71.5 110.5q4 12 18 12h25q8 0 14 -7t6 -15q0 -4 -2 -8q-32 -75 -91.5 -135.5t-136 -93t-159.5 -32.5q-108 0 -197.5 51t-140.5 140.5t-51 198.5z" />
<glyph unicode="d" horiz-adv-x="1169" d="M137 365q0 106 44.5 203.5t121.5 174t176 119.5t203 43q72 0 138.5 -30.5t109.5 -86.5l76 451q1 6 1.5 11t0.5 14q0 41 -42 52t-104 11l12 72l287 22h29l-4 -26l-207 -1235q0 -8 -0.5 -13.5t-1.5 -11.5q0 -41 41 -52t104 -11l-12 -72l-322 -23l5 27l16 96 q-63 -58 -139.5 -90.5t-157.5 -32.5q-78 0 -148.5 30t-121 83.5t-78 125t-27.5 149.5zM313 293q0 -106 55.5 -181t159.5 -75q87 0 169 50t130 126l82 485q-24 69 -83.5 108.5t-131.5 39.5q-130 0 -216 -85t-125.5 -213t-39.5 -255z" />
<glyph unicode="e" horiz-adv-x="936" d="M129 375q0 99 41.5 199t113.5 177t165.5 122t195.5 45q152 0 237 -83.5t85 -236.5q0 -123 -33 -129h-612q-17 -96 -17 -154q0 -76 27.5 -137.5t82.5 -98t132 -36.5q97 0 179.5 60t125.5 153q9 14 20 14h19q10 0 17 -7t7 -17q0 -8 -2 -10q-34 -74 -94 -133.5t-135 -92.5 t-158 -33q-110 0 -202 51.5t-143.5 143.5t-51.5 203zM334 526h481q8 66 8 99q0 99 -42.5 166t-137.5 67q-118 0 -197.5 -99.5t-111.5 -232.5z" />
<glyph unicode="f" horiz-adv-x="643" d="M70 0l12 72q67 0 111 9.5t55 47.5l114 682h-157l12 72h158l39 243q14 88 73.5 161.5t146.5 115t175 41.5q41 0 79.5 -15.5t62.5 -45.5t24 -72q0 -46 -32 -79.5t-77 -33.5q-35 0 -59.5 23t-24.5 57q0 63 62 100q-22 6 -47 6q-90 0 -154.5 -83.5t-81.5 -182.5l-39 -235h240 l-12 -72h-234l-113 -680v-6q0 -53 187 -53l-12 -72h-508z" />
<glyph unicode="g" d="M31 -180q0 79 65.5 140.5t149.5 86.5q-60 51 -60 141q0 107 95 211q-31 35 -47.5 77.5t-16.5 86.5q0 97 59 175t152 122.5t184 44.5q128 0 213 -71q50 44 112.5 69t129.5 25q40 0 66 -27t26 -67q0 -32 -21 -56t-53 -24q-24 0 -41.5 16.5t-17.5 40.5q0 36 25 57 q-48 0 -97 -20t-92 -53q53 -65 53 -152q0 -71 -35 -135.5t-92.5 -110t-128.5 -71t-139 -25.5q-117 0 -198 61q-50 -52 -50 -114q0 -45 28 -75t75 -30h172q182 0 302 -49.5t120 -204.5q0 -82 -49 -142.5t-129 -98t-168.5 -54t-163.5 -16.5q-86 0 -185 23.5t-171 77.5t-72 141 zM154 -180q0 -63 51.5 -102.5t124 -57.5t133.5 -18q54 0 118 13t125.5 42t99.5 71.5t38 98.5q0 89 -93.5 114t-222.5 25h-170q-49 0 -96.5 -25.5t-77.5 -68.5t-30 -92zM379 512q0 -66 39 -106.5t104 -40.5q121 0 177.5 99t56.5 230q0 66 -39 107t-107 41q-83 0 -134.5 -49 t-74 -124t-22.5 -157z" />
<glyph unicode="h" horiz-adv-x="1169" d="M68 0l12 72q67 0 111 9.5t55 47.5l186 1110q1 6 1.5 11t0.5 14q0 41 -41.5 52t-103.5 11l12 72l315 22l-4 -26l-110 -664q59 79 143 126.5t178 47.5q254 0 254 -209q0 -55 -6 -78l-82 -489v-8q0 -49 148 -49l-13 -72h-475l13 72q67 0 110.5 9.5t54.5 47.5l84 498 q0 14 4.5 42.5t4.5 49.5q0 127 -113 127q-126 0 -225 -101q-47 -49 -72 -100q-14 -27 -22 -60t-13 -46l-67 -410v-8q0 -49 147 -49l-12 -72h-475z" />
<glyph unicode="i" horiz-adv-x="584" d="M70 0l12 72q67 0 111 9.5t55 47.5l100 594q1 6 1.5 11t0.5 14q0 41 -38.5 52t-98.5 11l12 72l307 22l-4 -26l-125 -750q-2 -4 -2 -10q0 -47 134 -47l-13 -72h-452zM367 1243q0 51 39 90t92 39q26 0 49.5 -13t37 -36t13.5 -51q0 -51 -39 -90t-92 -39q-26 0 -49.5 13 t-37 36t-13.5 51z" />
<glyph unicode="j" horiz-adv-x="643" d="M-131 -270q0 48 32.5 83t80.5 35q39 0 63.5 -23.5t24.5 -60.5t-20.5 -67.5t-55.5 -40.5q41 -16 96 -16q81 0 127 80t62 176l139 827v22q0 44 -46 55t-114 11l12 72l332 22l-4 -26l-168 -1004q-12 -60 -44 -113t-78.5 -94.5t-104.5 -64.5t-117 -23q-81 0 -149 37t-68 113z M430 1243q0 50 39.5 89.5t91.5 39.5q27 0 50 -13t37 -36t14 -51q0 -52 -39.5 -90.5t-92.5 -38.5q-26 0 -49.5 13t-37 36t-13.5 51z" />
<glyph unicode="k" horiz-adv-x="1110" d="M57 0l13 72q67 0 111 9.5t55 47.5l186 1110q1 6 1.5 11t0.5 14q0 41 -41.5 52t-103.5 11l12 72l287 22h28l-4 -26l-158 -940l314 231q61 49 61 88q0 18 -14 27.5t-33 9.5l12 72h390l-13 -72q-136 0 -303 -125l-170 -125l205 -364q46 -80 78 -102.5t114 -22.5l-12 -72 h-416l13 72q75 0 75 51q0 24 -26 74l-154 272l-141 -104l-39 -236v-8q0 -49 147 -49l-12 -72h-463z" />
<glyph unicode="l" horiz-adv-x="584" d="M70 0l12 72q67 0 111 9.5t55 47.5l186 1110q1 6 1.5 11t0.5 14q0 41 -41.5 52t-103.5 11l12 72l315 22l-4 -26l-211 -1266v-8q0 -49 148 -49l-12 -72h-469z" />
<glyph unicode="m" horiz-adv-x="1753" d="M68 0l12 72q67 0 111 9.5t55 47.5l100 594q1 6 1.5 11t0.5 14q0 41 -41.5 52t-103.5 11l12 72l309 22l-32 -186q65 86 150 136t181 50q63 0 122 -17t96.5 -58t37.5 -109q58 83 144.5 133.5t183.5 50.5q256 0 256 -209q0 -55 -6 -78l-82 -489v-8q0 -49 147 -49l-12 -72 h-475l12 72q68 0 111.5 9.5t54.5 47.5l84 498q0 15 4 46t4 44q0 129 -112 129q-127 0 -228 -101q-47 -50 -71 -100q-14 -27 -22 -60t-13 -46l-68 -410v-8q0 -49 148 -49l-13 -72h-475l13 72q67 0 110.5 9.5t54.5 47.5l84 498q0 15 4.5 43.5t4.5 46.5q0 129 -113 129 q-63 0 -122 -27.5t-105 -73.5q-47 -49 -72 -100q-14 -27 -22 -60t-13 -46l-67 -410v-8q0 -49 147 -49l-12 -72h-475z" />
<glyph unicode="n" horiz-adv-x="1169" d="M68 0l12 72q67 0 111 9.5t55 47.5l100 594q1 6 1.5 11t0.5 14q0 41 -41.5 52t-103.5 11l12 72l309 22l-4 -26l-26 -160q56 84 143.5 135t185.5 51q254 0 254 -209q0 -55 -6 -78l-82 -489v-8q0 -49 148 -49l-13 -72h-475l13 72q67 0 110.5 9.5t54.5 47.5l84 498 q0 14 4.5 42.5t4.5 49.5q0 127 -113 127q-126 0 -225 -101q-47 -49 -72 -100q-14 -27 -22 -60t-13 -46l-67 -410v-8q0 -49 147 -49l-12 -72h-475z" />
<glyph unicode="o" d="M125 360q0 106 45 207.5t124 181t178.5 124.5t205.5 45q84 0 156.5 -30.5t125.5 -84.5t82 -127t29 -158q0 -107 -43.5 -204t-122.5 -174t-178.5 -120t-204.5 -43q-108 0 -200 49.5t-144.5 137t-52.5 196.5zM301 293q0 -111 61 -180.5t170 -69.5q45 0 90.5 14t80.5 37 t69 62q30 35 55.5 94.5t40 119t23 122.5t8.5 120q0 112 -60.5 179t-170.5 67q-66 0 -129.5 -29.5t-110.5 -80.5q-40 -46 -69 -128t-43.5 -172t-14.5 -155z" />
<glyph unicode="p" horiz-adv-x="1169" d="M-8 -397l10 71q69 0 113.5 10.5t54.5 47.5l166 999q4 16 4 27q0 53 -147 53l12 72l287 22h28l-4 -26l-16 -93q138 119 311 119q107 0 190.5 -52t130 -140.5t46.5 -192.5q0 -140 -76.5 -266t-203 -201.5t-267.5 -75.5q-70 0 -134 31t-106 88l-61 -364v-8q0 -50 149 -50 l-12 -71h-475zM408 199q23 -72 81 -117t132 -45q82 0 152.5 48.5t119.5 125.5t75.5 165.5t26.5 166.5q0 69 -21.5 137.5t-69.5 114t-118 45.5q-84 0 -164.5 -43t-132.5 -113z" />
<glyph unicode="q" horiz-adv-x="1110" d="M137 365q0 106 44.5 204.5t121 174t175.5 118.5t202 43q86 0 155.5 -49t102.5 -129l106 178h60l-37 -217l-160 -956v-8q0 -23 25 -33.5t57 -13.5t68 -3l-13 -71h-475l11 71q68 0 113 10.5t55 47.5l63 381q-136 -136 -297 -136q-108 0 -194.5 52t-134.5 140.5t-48 195.5z M319 338q0 -70 22 -139t68.5 -115.5t118.5 -46.5q96 0 177.5 60t134.5 153l59 356q0 59 -25.5 113t-73.5 87.5t-108 33.5q-83 0 -152.5 -47.5t-119 -124t-75.5 -164t-26 -166.5z" />
<glyph unicode="r" horiz-adv-x="823" d="M57 0l13 72q67 0 111 9.5t55 47.5l100 594q1 6 1.5 11t0.5 14q0 41 -41.5 52t-103.5 11l12 72l280 20q-1 1 -2.5 1.5t-3.5 0.5h29l-4 -26l-29 -166q29 52 70.5 96t94 70t112.5 26q31 0 66.5 -14t56 -40t20.5 -63q0 -44 -32 -77t-77 -33q-34 0 -59 23.5t-25 56.5 q0 55 46 88q-118 0 -207 -131q-31 -46 -54 -99q-8 -23 -14.5 -51t-13.5 -56t-13 -42l-55 -336v-6q0 -53 187 -53l-13 -72h-508z" />
<glyph unicode="s" horiz-adv-x="829" d="M70 4l53 320q2 7 7.5 12.5t12.5 5.5h25q7 0 13.5 -5.5t6.5 -12.5q0 -81 22.5 -145t73 -103t132.5 -39q107 0 186.5 50.5t79.5 152.5q0 58 -42.5 94.5t-102.5 48.5l-140 29q-89 17 -155 74t-66 143q0 145 116.5 217t270.5 72q110 0 180 -56l66 51q10 5 12 5h13 q20 0 20 -27l-43 -256q-5 -19 -20 -19h-25q-21 0 -21 27q5 27 5 49q0 86 -53 129t-138 43q-98 0 -178 -39.5t-80 -128.5q0 -48 41 -78t98 -43l142 -26q92 -19 157.5 -86t65.5 -158q0 -104 -55 -178.5t-144.5 -112t-191.5 -37.5q-136 0 -211 86l-88 -81q-10 -5 -13 -5h-12 q-20 0 -20 27z" />
<glyph unicode="t" horiz-adv-x="817" d="M174 811l10 59q71 0 128 35t100 95.5t69 126.5t37 133h66l-64 -377h293l-12 -72h-293l-94 -567q-6 -37 -6 -72q0 -56 23.5 -92.5t76.5 -36.5q67 0 117 76q16 23 24 43.5t13.5 46t15.5 45.5l18 117h66l-21 -125q-17 -105 -85.5 -187t-166.5 -82q-107 0 -173 54.5 t-66 161.5q0 17 4 59l94 559h-174z" />
<glyph unicode="u" horiz-adv-x="1169" d="M203 811l12 72l293 22h29l-5 -26l-106 -633q0 -16 -6 -52t-6 -55q0 -62 41 -82t114 -20q101 0 185 84q45 47 71 100q12 23 19.5 51t17.5 64l66 387q1 6 1.5 11t0.5 14q0 41 -41.5 52t-104.5 11l13 72l293 22h28l-4 -26l-121 -719q0 -8 -0.5 -13.5t-1.5 -11.5 q0 -41 41.5 -52t104.5 -11l-13 -72l-315 -23l4 27l23 133q-34 -47 -77.5 -82.5t-96.5 -56.5t-107 -21q-131 0 -212 46t-81 167q0 46 4 64l80 469q1 6 1.5 11t0.5 14q0 41 -41.5 52t-103.5 11z" />
<glyph unicode="v" horiz-adv-x="1110" d="M176 811l12 72h439l-13 -72q-120 0 -120 -57v-11l137 -563l293 506q16 30 16 55q0 33 -24.5 51.5t-57.5 18.5l12 72h342l-10 -72q-66 0 -120 -32.5t-89 -92.5l-393 -682q-13 -27 -43 -27h-14q-28 0 -35 27l-180 739q-12 45 -48.5 56.5t-103.5 11.5z" />
<glyph unicode="w" horiz-adv-x="1520" d="M176 811l10 72h430l-12 -72q-52 0 -89.5 -11t-37.5 -48v-9l109 -542l250 475l-13 67q-11 45 -43 56.5t-96 11.5l12 72h408l-12 -72q-52 0 -89.5 -11t-37.5 -48q1 -2 1.5 -4t0.5 -5l112 -569l273 512q12 32 12 47q0 36 -31 57t-71 21l12 72h350l-12 -72q-62 0 -111 -33.5 t-80 -91.5l-362 -682q-13 -27 -41 -27h-17q-25 0 -32 27l-113 576l-307 -576q-13 -27 -41 -27h-14q-30 0 -33 27l-146 739q-11 45 -43.5 56.5t-95.5 11.5z" />
<glyph unicode="x" horiz-adv-x="1110" d="M29 0l12 72q81 0 154.5 33t132.5 92l227 231l-193 315q-31 46 -72 57t-116 11l12 72h432l-12 -72q-26 0 -51 -13.5t-25 -39.5q0 -10 2 -15l130 -206l145 149q39 41 39 78q0 20 -13.5 33.5t-33.5 13.5l12 72h381l-12 -72q-165 0 -287 -125l-201 -203l211 -344 q33 -45 74 -56t117 -11l-13 -72h-434l12 72q28 0 53 13.5t25 39.5q0 6 -4 14l-145 238l-176 -180q-37 -41 -37 -78q0 -19 12.5 -33t32.5 -14l-10 -72h-381z" />
<glyph unicode="y" horiz-adv-x="1110" d="M-2 -272q0 48 31 82t77 34q34 0 56 -19.5t22 -53.5q0 -39 -24.5 -69.5t-61.5 -37.5q33 -24 76 -24q133 0 246 190l98 170l-188 743q-13 45 -49 56.5t-103 11.5l10 72h441l-13 -72q-50 0 -85 -10t-35 -47v-11l139 -544l287 487q16 30 16 57q0 33 -23.5 50.5t-56.5 17.5 l12 72h342l-12 -72q-66 0 -120 -33t-87 -92l-504 -856q-60 -104 -143 -177t-182 -73q-64 0 -115 42t-51 106z" />
<glyph unicode="z" horiz-adv-x="934" d="M63 20q0 25 11 39l714 764h-186q-129 0 -193.5 -21.5t-101 -82t-63.5 -180.5h-66l80 344h703q10 0 16 -6t6 -15q0 -24 -10 -35l-713 -761h199q104 0 168.5 16t104.5 53.5t63.5 96t50.5 165.5h65l-100 -397h-725q-8 0 -15.5 6.5t-7.5 13.5z" />
<glyph unicode="{" d="M86 516l10 59h1051l-10 -59h-1051z" />
<glyph unicode="|" horiz-adv-x="2103" d="M86 516l10 59h2104l-11 -59h-2103z" />
<glyph unicode="}" d="M442 1077l162 303q32 54 80 54q31 0 53.5 -19.5t22.5 -48.5q0 -33 -29 -63l-235 -256zM793 1077l161 303q32 54 80 54q31 0 53.5 -19.5t22.5 -48.5q0 -33 -29 -63l-235 -256z" />
<glyph unicode="~" d="M377 1208l80 76q90 86 170 86q34 0 63.5 -11t77 -35t69 -32t50.5 -8q82 0 172 86l37 -39l-78 -76q-93 -86 -170 -86q-42 0 -86 21l-90 44q-44 21 -86 21q-83 0 -170 -86z" />
<glyph unicode="&#xa1;" horiz-adv-x="1315" d="M74 0l12 72q199 0 219 61l189 1133v6q0 55 -199 55l12 72h1094l-21 -469h-65q1 25 1.5 46t0.5 56q0 131 -37 194t-108.5 82t-204.5 19h-166q-49 0 -77 -9t-36 -42l-190 -1143q0 -42 34 -49q41 -12 216 -12l-13 -72h-661z" />
<glyph unicode="&#xa2;" horiz-adv-x="1753" d="M102 14q0 9 2 13l959 1415q17 24 45 24h22q29 0 39 -24l486 -1415v-7q0 -8 -7 -14t-14 -6h-1517q-15 0 -15 14zM281 166h1110l-375 1089z" />
<glyph unicode="&#xa3;" horiz-adv-x="1636" d="M221 565q0 163 65.5 320t183.5 284.5t270 201t319 73.5q170 0 304 -82.5t208 -224t74 -312.5q0 -217 -114.5 -419t-308 -326.5t-413.5 -124.5q-169 0 -304 80.5t-209.5 219.5t-74.5 310zM420 510q0 -126 44.5 -240t134.5 -183t222 -69q58 0 112.5 15t102.5 40t96 63.5 t82 76.5q114 126 173 306t59 366q0 98 -24.5 187t-73 159.5t-124.5 111.5t-175 41q-111 0 -213 -53.5t-185 -144.5q-75 -87 -127 -199.5t-78 -234.5t-26 -242zM532 549l52 305h65l-12 -70h623l12 70h65l-51 -305h-65l10 69h-623l-10 -69h-66z" />
<glyph unicode="&#xa4;" horiz-adv-x="1460" d="M68 0l12 72q74 0 132.5 31t88.5 90l623 1249q14 24 41 24h20q28 0 31 -24l217 -1303q9 -44 53.5 -55.5t116.5 -11.5l-10 -72h-555l12 72q180 0 180 63v4l-170 1022l-481 -964q-10 -22 -10 -35q0 -46 43.5 -68t95.5 -22l-12 -72h-428z" />
<glyph unicode="&#xa5;" horiz-adv-x="1403" d="M106 0l41 352h66q-10 -65 -10 -131q0 -41 8 -53q8 -8 77 -11t171 -3h534q104 0 174 3t78 11q12 10 20.5 30.5t18 55.5t16.5 65.5t7 32.5h65l-78 -352h-1188zM279 1069l73 330h1164l-37 -330h-66q8 66 8 109t-10 55q-12 12 -242 12h-524q-231 0 -246 -12 q-13 -13 -23.5 -42.5t-16.5 -54.5t-15 -67h-65zM385 547l59 362h66l-16 -104h684l16 104h66l-60 -362h-65l16 104h-684l-16 -104h-66z" />
<glyph unicode="&#xa6;" horiz-adv-x="1577" d="M74 0l12 72q199 0 219 61l189 1133v6q0 55 -199 55l12 72h1430l-13 -72q-198 0 -219 -61l-188 -1133v-6q0 -35 61.5 -45t137.5 -10l-13 -72h-610l12 72q199 0 219 61l199 1194h-627l-198 -1194v-6q0 -35 61.5 -45t136.5 -10l-12 -72h-610z" />
<glyph unicode="&#xa7;" horiz-adv-x="1520" d="M121 27q0 10 10 20l612 567l-397 727q-4 5 -4 15q3 20 7 31.5t20 11.5h1208l-21 -469h-65v57q0 158 -63.5 233t-163.5 91t-285 16h-393l336 -614q4 -8 4 -13q0 -14 -11 -20l-628 -584h481q159 0 255 9t170 46t129.5 118.5t94.5 224.5h66l-140 -494h-1198q-24 0 -24 27z " />
<glyph unicode="&#xa8;" horiz-adv-x="1636" d="M303 1114v4q11 63 40 121t72.5 104.5t99 73.5t118.5 27q187 0 264.5 -149.5t77.5 -354.5q43 130 110.5 243t168.5 187t229 74q70 0 121.5 -36t78.5 -96.5t27 -129.5q0 -88 -37 -88h-20q-21 0 -21 20q1 7 1.5 13t0.5 16q0 65 -55 102t-123 37q-126 0 -215.5 -92.5 t-139.5 -226t-71 -265.5l-94 -565q0 -42 35 -49q41 -12 215 -12l-12 -72h-713l12 72q248 0 270 61l95 569q18 99 18 203q0 154 -55.5 265.5t-194.5 111.5q-78 0 -148 -44t-83 -120q-2 -10 -11.5 -17t-19.5 -7h-20q-21 0 -21 20z" />
<glyph unicode="&#xa9;" horiz-adv-x="1520" d="M229 653q0 126 103 232t250 167.5t266 61.5l26 152q0 18 -9 32t-25 17q-41 12 -215 12l12 72h700l-12 -72q-248 0 -270 -61l-25 -152q76 0 161 -25t161 -75t123 -118t47 -151q0 -126 -104.5 -232.5t-255.5 -167t-271 -60.5l-25 -152q0 -17 9.5 -31.5t25.5 -17.5 q41 -12 215 -12l-12 -72h-701l13 72q248 0 270 61l25 152q-73 0 -158.5 27.5t-159.5 78t-119 117.5t-45 145zM436 618q0 -125 76.5 -189.5t208.5 -82.5l119 707q-187 -21 -295.5 -134.5t-108.5 -300.5zM901 344q127 14 219 67.5t142.5 148t50.5 220.5q0 241 -293 275z" />
<glyph unicode="&#xaa;" horiz-adv-x="1636" d="M299 1100q0 11 7.5 22t19.5 11h133q72 0 101.5 -56.5t29.5 -134.5q0 -47 -10 -104q-15 -90 -15 -158q0 -124 51 -212.5t162 -117.5l154 916q0 42 -35 49q-41 12 -215 12l12 72h701l-13 -72q-247 0 -270 -61l-151 -916q83 20 149.5 68.5t112.5 118t75 155.5q11 33 31 127 t42.5 158.5t64.5 110t110 45.5h133q10 0 16.5 -7.5t6.5 -17.5q0 -13 -6.5 -24t-18.5 -11q-67 0 -104.5 -66t-54.5 -149q-11 -66 -30 -130.5t-44 -113.5q-50 -99 -124 -168t-169 -109.5t-203 -51.5l-24 -152q0 -42 34 -49q41 -12 216 -12l-13 -72h-700l12 72q248 0 270 61 l25 154q-182 23 -280.5 133.5t-98.5 294.5q0 55 10 127q9 39 9 92q0 139 -84 139q-25 0 -25 27z" />
<glyph unicode="&#xad;" horiz-adv-x="1520" d="M152 342h65q5 -165 21 -180q24 -19 145 -19h125q0 70 -30.5 145.5t-90 190.5t-90.5 200.5t-31 176.5q0 133 65 242.5t173.5 187t238 118t252.5 40.5q104 0 203 -28t182.5 -85.5t132 -142.5t48.5 -193q0 -115 -52.5 -218.5t-137.5 -207.5t-177.5 -218.5t-134.5 -207.5h125 q76 0 110 6.5t51 25.5t32.5 62t37.5 105h66l-127 -342h-367q-10 0 -17 9t-7 20q23 117 70.5 219.5t139 274t133.5 283t42 224.5q0 103 -44.5 184.5t-125 125.5t-185.5 44q-153 0 -269.5 -80t-180.5 -212t-64 -281q0 -96 23.5 -213.5t47 -235.5t23.5 -215q0 -139 -32 -147 h-377z" />
<glyph unicode="&#xae;" horiz-adv-x="1227" d="M57 0l13 72q67 0 111 9.5t55 47.5l114 682h-157l12 72h157l39 243q14 77 67 137.5t131.5 101t161.5 60t161 19.5q63 0 121.5 -20t89.5 -66q54 40 118.5 63t130.5 23q41 0 79.5 -15.5t62.5 -45.5t24 -72q0 -46 -31 -79.5t-77 -33.5q-35 0 -59.5 23t-24.5 57q0 32 16 60 t45 40q-21 6 -49 6q-90 0 -155 -85t-80 -181l-39 -235h241l-12 -72h-236l-112 -680v-6q0 -53 186 -53l-12 -72h-508l12 72q68 0 111.5 9.5t54.5 47.5l115 682h-430l-113 -682v-8q0 -49 148 -49l-13 -72h-469zM510 883h436l39 243q7 36 14 54q-38 25 -38 69q0 37 22.5 67.5 t56.5 39.5q-52 28 -139 28q-121 0 -227 -74.5t-125 -191.5z" />
<glyph unicode="&#xaf;" horiz-adv-x="1169" d="M57 0l13 72q67 0 111 9.5t55 47.5l114 682h-157l12 72h157l39 243q14 79 68 139t130.5 99.5t163 59.5t163.5 20q55 0 109 -21.5t88 -64t34 -98.5q0 -53 -32.5 -91.5t-84.5 -38.5q-35 0 -61.5 24t-26.5 63q0 42 32 78t75 36q-26 28 -66 40.5t-88 12.5q-79 0 -155.5 -33 t-131 -93.5t-69.5 -139.5l-39 -235l278 2l316 24q-4 -26 -4 -28l-125 -752v-8q0 -49 147 -49l-12 -72h-469l12 72q68 0 111.5 9.5t54.5 47.5l101 596q1 7 1.5 12t0.5 13q0 31 -17 44.5t-49 16.5h-352l-113 -682v-8q0 -49 148 -49l-13 -72h-469z" />
<glyph unicode="&#xb0;" horiz-adv-x="1169" d="M57 0l13 72q67 0 111 9.5t55 47.5l114 682h-157l12 72h157l39 243q14 79 67 138.5t129 99t161.5 60t163.5 20.5q114 0 176 -35l92 12l-4 -26l-211 -1266v-8q0 -49 147 -49l-12 -72h-469l12 72q68 0 111.5 9.5t54.5 47.5l115 682h-430l-113 -682v-8q0 -49 148 -49l-13 -72 h-469zM510 883h436l53 329q-32 24 -32 66q0 30 14 55t39 39q-44 12 -117 12q-80 0 -156.5 -33t-130.5 -93.5t-67 -139.5z" />
<glyph unicode="&#xb1;" horiz-adv-x="1753" d="M57 0l13 72q67 0 111 9.5t55 47.5l114 682h-157l12 72h157l39 243q14 79 67 138.5t129 99t161.5 60t163.5 20.5q67 0 125.5 -28t85.5 -83q158 111 376 111q92 0 162 -49.5t70 -134.5q0 -53 -32.5 -91.5t-84.5 -38.5q-35 0 -61.5 24t-26.5 63q0 42 32 78t74 36 q-52 53 -153 53q-79 0 -156 -33.5t-132 -95t-68 -137.5l-39 -235l278 2l316 24q-5 -26 -5 -28l-124 -752v-8q0 -49 147 -49l-12 -72h-469l12 72q67 0 111 9.5t55 47.5l100 596q1 7 1.5 12t0.5 13q0 32 -16 45t-49 16h-353l-112 -682v-8q0 -49 147 -49l-12 -72h-469l12 72 q68 0 111.5 9.5t54.5 47.5l115 682h-430l-113 -682v-8q0 -49 148 -49l-13 -72h-469zM510 883h436l39 243q1 4 2 8.5t2 8.5q-43 23 -43 74q0 44 31 79t76 35q-50 53 -150 53q-80 0 -156.5 -33t-130.5 -93.5t-67 -139.5z" />
<glyph unicode="&#xb2;" horiz-adv-x="1753" d="M57 0l13 72q67 0 111 9.5t55 47.5l114 682h-157l12 72h157l39 243q14 79 67 138.5t129 99t161.5 60t163.5 20.5q40 0 86.5 -10t82 -33t52.5 -60q156 103 362 103q114 0 176 -35l93 12l-5 -26l-210 -1266v-8q0 -49 147 -49l-12 -72h-469l12 72q67 0 111 9.5t55 47.5 l115 682h-431l-112 -682v-8q0 -49 147 -49l-12 -72h-469l12 72q68 0 111.5 9.5t54.5 47.5l115 682h-430l-113 -682v-8q0 -49 148 -49l-13 -72h-469zM510 883h436l39 243q5 21 16 54q-38 25 -38 69q0 36 21 67t56 40q-52 28 -137 28q-80 0 -156.5 -33t-130.5 -93.5 t-67 -139.5zM1094 883h436l53 329q-33 25 -33 66q0 65 54 94q-44 12 -117 12q-80 0 -157 -33t-130.5 -93.5t-66.5 -139.5z" />
<glyph unicode="&#xb3;" horiz-adv-x="584" d="M70 0l12 72q67 0 111 9.5t55 47.5l100 594q1 6 1.5 11t0.5 14q0 41 -38.5 52t-98.5 11l12 72l307 22l-4 -26l-125 -750q-2 -4 -2 -10q0 -47 134 -47l-13 -72h-452z" />
<glyph unicode="&#xb4;" horiz-adv-x="643" d="M-131 -270q0 48 32.5 83t80.5 35q39 0 63.5 -23.5t24.5 -60.5t-20.5 -67.5t-55.5 -40.5q41 -16 96 -16q81 0 127 80t62 176l139 827v22q0 44 -46 55t-114 11l12 72l332 22l-4 -26l-168 -1004q-12 -60 -44 -113t-78.5 -94.5t-104.5 -64.5t-117 -23q-81 0 -149 37t-68 113z " />
<glyph unicode="&#xb5;" d="M446 1335q0 37 32 67t69 30q33 0 55 -33l199 -314l-56 -47l-274 246q-25 25 -25 51z" />
<glyph unicode="&#xb6;" d="M612 1085l301 314q35 33 68 33q29 0 50.5 -22.5t21.5 -51.5q0 -38 -45 -74l-357 -246z" />
<glyph unicode="&#xb8;" d="M436 1354q0 34 6 67h60q-4 -16 -4 -45q0 -95 62 -159t157 -64q71 0 138 37t112 100t57 131h59q-15 -90 -69 -174t-137 -135t-175 -51q-80 0 -140.5 40t-93 107.5t-32.5 145.5z" />
<glyph unicode="&#xb9;" d="M334 1135l14 79h760l-14 -79h-760z" />
<glyph unicode="&#xba;" horiz-adv-x="1698" d="M852 1262q0 87 75.5 145.5t164.5 58.5q73 0 127.5 -42.5t54.5 -110.5q0 -59 -37 -106t-92.5 -73t-112.5 -26q-46 0 -87 18.5t-67 54t-26 81.5zM915 1257q0 -52 35 -71t92 -19q166 0 166 150q0 90 -125 90q-168 0 -168 -150z" />
<glyph unicode="&#xbb;" horiz-adv-x="934" d="M199 -424l10 59q371 0 371 125q0 52 -49.5 73.5t-108.5 21.5l16 100h160l-10 -55q63 -11 108 -42t45 -87q0 -88 -97 -131.5t-210 -53.5t-235 -10z" />
<glyph unicode="&#xbc;" d="M57 0l13 72q67 0 111 9.5t55 47.5l114 682h-157l12 72h157l44 268v2q14 85 77 152.5t149 103t173 35.5h2q126 0 223.5 -69.5t97.5 -190.5q0 -117 -93 -207t-218 -129q77 -36 131.5 -97.5t82.5 -141.5t28 -165q0 -119 -57.5 -227.5t-158 -174t-222.5 -65.5 q-66 0 -117 39.5t-51 104.5q0 40 25 70t65 30q29 0 50 -19t21 -50t-19 -56.5t-50 -32.5q29 -26 78 -26q92 0 153.5 75.5t89 180.5t27.5 199q0 83 -25.5 158t-81 124t-139.5 49q-20 0 -20 27q5 33 22 33q88 0 160 45t112 121.5t40 164.5q0 75 -41.5 122.5t-114.5 47.5 q-88 0 -164 -69q-34 -35 -49 -70q-13 -26 -21.5 -59t-11.5 -43l-190 -1143h-312z" />
<glyph unicode="&#xbd;" horiz-adv-x="1520" d="M121 170q0 126 109.5 204t259 111t276.5 33l18 111q4 28 4 41q0 78 -48.5 133t-125.5 55q-130 0 -208 -45q27 -7 43 -29.5t16 -50.5q0 -46 -33.5 -80.5t-79.5 -34.5q-36 0 -62 24t-26 60q0 75 57.5 124.5t140 70.5t154.5 21q96 0 178 -37t124 -113q73 70 157.5 110 t177.5 40t160.5 -38.5t102 -108.5t34.5 -165q0 -131 -32 -137h-598q-2 -12 -3.5 -17.5t-3.5 -17.5q-6 -36 -10 -100q0 -123 65.5 -207t184.5 -84q92 0 169 61.5t114 151.5q9 14 20 14h19q10 0 17 -7t7 -17q0 -8 -2 -10q-44 -111 -145 -185t-217 -74q-99 0 -185 45.5 t-141 127.5q-61 -86 -168 -129.5t-219 -43.5q-68 0 -137 18t-116.5 61.5t-47.5 113.5zM293 170q0 -59 44.5 -96t102.5 -37q73 0 146.5 35.5t120.5 97.5t47 135q-6 34 -6 68q0 30 8 88q-68 0 -146.5 -17.5t-151 -53.5t-119 -92t-46.5 -128zM930 526h469q10 62 10 109 q0 90 -37 156.5t-121 66.5q-82 0 -148 -49t-108.5 -124.5t-64.5 -158.5z" />
<glyph unicode="&#xbe;" horiz-adv-x="1636" d="M127 371q0 100 43 201.5t117.5 178t171.5 122t200 45.5q106 0 196.5 -53t137.5 -144q70 88 170 142.5t207 54.5q93 0 160.5 -38.5t102 -108.5t34.5 -165q0 -131 -33 -137h-600q-2 0 -2 -25q-1 -3 -1.5 -5.5t-2.5 -6.5q-4 -34 -8 -98q0 -123 65.5 -207t184.5 -84 q91 0 168 61.5t114 151.5q9 14 21 14h18q11 0 18 -7t7 -17q0 -8 -2 -10q-47 -113 -146.5 -186t-216.5 -73q-107 0 -200 54.5t-142 148.5q-48 -60 -110.5 -105.5t-136.5 -71.5t-150 -26q-110 0 -198.5 52.5t-137.5 143.5t-49 198zM293 309q0 -72 24 -133.5t73.5 -100 t123.5 -38.5q94 0 165 53t117 138t67.5 180.5t21.5 179.5q0 71 -25 133t-76.5 99.5t-126.5 37.5q-125 0 -207 -86.5t-119.5 -214t-37.5 -248.5zM1047 526h469q10 62 10 109q0 90 -37 156.5t-121 66.5q-82 0 -148 -49t-108.5 -124.5t-64.5 -158.5z" />
<glyph unicode="&#xbf;" d="M90 -184l184 243q-70 53 -106.5 132.5t-36.5 168.5q0 106 44 205.5t122.5 180.5t177.5 126.5t203 45.5q111 0 207 -56l178 234l45 -29l-180 -238q67 -54 102 -135.5t35 -175.5q0 -105 -43.5 -203t-121 -174.5t-176 -120t-202.5 -43.5q-108 0 -203 52l-184 -242zM285 297 q0 -105 43 -166l508 668q-65 59 -168 59q-102 0 -176.5 -51.5t-120 -135.5t-66 -180.5t-20.5 -193.5zM367 90q65 -53 165 -53q102 0 177.5 49.5t119.5 130t64 176t20 195.5q0 101 -41 168z" />
<glyph unicode="&#xc0;" horiz-adv-x="1898" d="M70 0l12 72q181 0 250 125l608 1128q-53 2 -168 2l12 72h1174l-21 -469h-65q1 26 1.5 48t0.5 58q0 126 -33.5 188t-104 82.5t-198.5 20.5h-156q-48 0 -76 -9t-36 -42l-94 -567h145q78 0 125.5 10t77 36.5t45 69.5t28.5 123h66l-92 -551h-66q13 80 13 111q0 86 -53 107.5 t-156 21.5h-146l-86 -514v-12q0 -39 97 -39h169q133 0 218 28.5t137 84.5t86.5 135t79.5 217h65l-178 -537h-1030l10 72q69 0 112 9.5t54 47.5l86 508h-338l-237 -440q-11 -20 -11 -39q0 -44 41.5 -65t91.5 -21l-12 -72h-448zM684 709h311l92 557q0 45 -73 55z" />
<glyph unicode="&#xc1;" horiz-adv-x="2134" d="M250 565q0 164 65.5 321t183.5 284.5t270 200.5t318 73q33 0 70 -5.5t74.5 -14t86 -17t81.5 -8.5h792l-20 -469h-66q1 25 1.5 46t0.5 56q0 128 -37 192.5t-109.5 83.5t-205.5 19h-180q-48 0 -76 -9t-37 -42l-86 -514h185q111 0 169 15.5t90 66.5t50 157h65l-92 -550h-65 q10 85 10 102q0 91 -62.5 114t-177.5 23h-184l-94 -567v-12q0 -25 28 -32t68 -7h195q138 0 224 27t140.5 82t90.5 135.5t81 220.5h66l-178 -537h-820q-33 0 -71 -5.5t-103.5 -18.5t-91.5 -17t-59 -4q-168 0 -304 80.5t-211 221t-75 308.5zM463 555q0 -89 23 -186t69.5 -177 t121 -129t171.5 -49q152 0 207 82q57 82 102 371l78 465q33 207 33 276q0 101 -43 138.5t-148 37.5q-72 0 -140 -25t-129.5 -70t-109.5 -97q-79 -86 -130.5 -189t-78 -218.5t-26.5 -229.5z" />
<glyph unicode="&#xc2;" horiz-adv-x="1636" d="M221 565q0 163 65.5 320t183.5 284.5t270 201t319 73.5q207 0 362 -123l166 197l49 -37l-170 -201q58 -56 99 -132t60.5 -156.5t19.5 -166.5q0 -217 -114.5 -419t-308 -326.5t-413.5 -124.5q-100 0 -194.5 31.5t-170.5 89.5l-163 -195l-50 37l168 199q-58 58 -98 130.5 t-60 154.5t-20 163zM406 483q0 -170 67 -280l885 1042q-57 68 -139 103.5t-170 35.5q-116 0 -226.5 -53t-189.5 -141q-57 -65 -99 -148t-71 -181t-43 -196t-14 -182zM508 152q58 -67 140 -102.5t171 -35.5q114 0 221.5 51.5t192.5 141.5q76 82 127 201t75.5 248.5 t24.5 252.5q0 174 -67 287z" />
<glyph unicode="&#xc3;" horiz-adv-x="584" d="M156 643l514 160l10 -68l-514 -162z" />
<glyph unicode="&#xc4;" d="M422 1249q0 50 37.5 86.5t87.5 36.5q40 0 67 -27t27 -67q0 -33 -17 -61t-45 -45t-61 -17q-39 0 -67.5 27.5t-28.5 66.5zM829 1249q0 50 37.5 86.5t87.5 36.5q40 0 67.5 -27.5t27.5 -66.5q0 -33 -16.5 -60.5t-45.5 -45t-61 -17.5q-40 0 -68.5 27.5t-28.5 66.5z" />
<glyph unicode="&#x2000;" horiz-adv-x="768" />
<glyph unicode="&#x2001;" horiz-adv-x="1536" />
<glyph unicode="&#x2002;" horiz-adv-x="768" />
<glyph unicode="&#x2003;" horiz-adv-x="1536" />
<glyph unicode="&#x2004;" horiz-adv-x="512" />
<glyph unicode="&#x2005;" horiz-adv-x="384" />
<glyph unicode="&#x2006;" horiz-adv-x="256" />
<glyph unicode="&#x2007;" horiz-adv-x="256" />
<glyph unicode="&#x2008;" horiz-adv-x="192" />
<glyph unicode="&#x2009;" horiz-adv-x="307" />
<glyph unicode="&#x200a;" horiz-adv-x="85" />
<glyph unicode="&#x2010;" horiz-adv-x="700" d="M84 375l25 135h561l-25 -135h-561z" />
<glyph unicode="&#x2011;" horiz-adv-x="700" d="M84 375l25 135h561l-25 -135h-561z" />
<glyph unicode="&#x2012;" horiz-adv-x="700" d="M84 375l25 135h561l-25 -135h-561z" />
<glyph unicode="&#x2013;" horiz-adv-x="1138" d="M84 375l44 135h980l-44 -135h-980z" />
<glyph unicode="&#x2014;" horiz-adv-x="2162" d="M84 375l87 135h1961l-87 -135h-1961z" />
<glyph unicode="&#x202f;" horiz-adv-x="307" />
<glyph unicode="&#x205f;" horiz-adv-x="384" />
<glyph unicode="&#x2219;" d="M455 1260l45 53l221 -137l268 137l27 -53l-316 -205z" />
<glyph unicode="&#xe000;" horiz-adv-x="885" d="M0 885h885v-885h-885v885z" />
</font>
</defs>
</svg>
