<?xml version="1.0" standalone="no"?>
<!DOCTYPE svg PUBLIC "-//W3C//DTD SVG 1.1//EN" "http://www.w3.org/Graphics/SVG/1.1/DTD/svg11.dtd" >
<svg xmlns="http://www.w3.org/2000/svg">
<metadata>
This is a custom SVG webfont generated by Font Squirrel.
Copyright   : Copyright C 1994 Basil K Malyshev All Rights Reserved012BaKoMa Fonts Collection LevelB
</metadata>
<defs>
<font id="cmssq8Regular" horiz-adv-x="1280" >
<font-face units-per-em="2048" ascent="1638" descent="-410" />
<missing-glyph horiz-adv-x="854" />
<glyph unicode=" "  horiz-adv-x="854" />
<glyph unicode="&#x09;" horiz-adv-x="854" />
<glyph unicode="&#xa0;" horiz-adv-x="854" />
<glyph unicode="!" horiz-adv-x="725" d="M258 61v86q3 25 20 41t41 19h87q24 -3 40 -19t19 -41v-86q-6 -54 -59 -61h-87q-24 3 -41 20t-20 41zM258 1391q0 24 27 30h155q20 -5 25 -24l-21 -975q-6 -20 -24 -25h-115q-20 5 -26 25z" />
<glyph unicode="&#x22;" d="M86 963l57 251h-30q-22 6 -27 27v156q5 19 27 24h155q20 -5 25 -24v-156l-2 -8l-105 -285q-5 -14 -22 -18h-51q-27 7 -27 33zM584 963l57 251h-31q-21 7 -26 27v156q5 19 26 24h156q18 -5 25 -24v-156l-3 -8l-104 -285q-5 -14 -22 -18h-52q-26 7 -26 33z" />
<glyph unicode="#" horiz-adv-x="2132" d="M141 330q0 28 20 47t48 24h436l121 338h-557q-27 3 -47.5 23.5t-20.5 48.5t19.5 47.5t48.5 24.5h610l180 497q25 41 66 41q30 0 51 -21t21 -50q0 -18 -7 -29l-157 -438h416l180 497q23 41 65 41q30 0 51 -21t21 -50q0 -17 -6 -29l-158 -438h381q30 -5 49 -24.5t19 -47.5 t-19.5 -48.5t-48.5 -23.5h-434l-121 -338h555q30 -5 49 -24t19 -47t-19.5 -48.5t-48.5 -23.5h-608l-182 -502q-26 -41 -66 -41q-28 0 -50 22t-22 50q0 15 6 29l160 442h-416l-182 -502q-24 -41 -65 -41q-28 0 -50 22t-22 50q0 15 6 29l160 442h-383q-27 3 -47.5 23.5 t-20.5 48.5zM799 401h415l121 338h-415z" />
<glyph unicode="$" d="M115 154l18 98q3 24 29 24q10 0 16 -4q78 -57 193 -102t200 -45v524q-187 40 -308.5 133.5t-121.5 261.5q0 109 62.5 194.5t161 137t206.5 62.5v67q7 54 62 60h16q25 -3 41 -19t19 -41v-65q40 0 136.5 -23t172.5 -56t76 -65l-17 -94q-7 -24 -28 -24q-11 0 -17 4 q-178 114 -323 114v-469q84 -15 162.5 -49.5t137.5 -85.5t93.5 -123.5t34.5 -162.5q0 -114 -60.5 -205.5t-159 -148t-208.5 -68.5v-66q-3 -24 -19 -40t-41 -19h-16q-56 6 -62 59v64q-100 0 -223 42.5t-221 102.5q-12 6 -12 27zM305 1075q0 -93 78.5 -145.5t187.5 -75.5v440 q-61 -8 -122 -35.5t-102.5 -75t-41.5 -108.5zM709 129q63 9 124.5 42.5t100.5 86.5t39 117q0 99 -78 163t-186 85v-494z" />
<glyph unicode="%" horiz-adv-x="2132" d="M141 1139q0 77 24 152t71.5 138t114.5 99.5t147 36.5t147 -37t112.5 -98.5t70 -137t24.5 -153.5q0 -77 -24.5 -153.5t-69 -137.5t-112.5 -99t-148 -38q-106 0 -188 63t-125.5 163t-43.5 202zM305 1139q0 -114 44.5 -202.5t148.5 -88.5q94 0 145 95t51 196 q0 58 -21.5 126.5t-66.5 115t-108 46.5q-104 0 -148.5 -87t-44.5 -201zM426 -70q0 26 14 43l1139 1563q23 29 57 29q30 0 51 -21t21 -51q0 -26 -14 -43l-1139 -1563q-22 -28 -57 -28q-28 0 -50 21t-22 50zM1280 285q0 103 43.5 202.5t125.5 161.5t187 62q80 0 146.5 -36 t113 -97.5t71 -138t24.5 -154.5q0 -104 -43 -202.5t-125 -161t-187 -62.5t-187 62.5t-125.5 162t-43.5 201.5zM1444 285q0 -114 45 -201.5t147 -87.5q65 0 109 46t66 115t22 128q0 58 -22 127t-66 115t-109 46q-103 0 -147.5 -86.5t-44.5 -201.5z" />
<glyph unicode="&#x26;" horiz-adv-x="1919" d="M106 307q0 77 43.5 147.5t110.5 114.5l242 162q-84 195 -84 387q0 71 28.5 134.5t79 112t114.5 74t134 25.5q64 0 121 -26t98.5 -71.5t64.5 -105.5t23 -124q0 -82 -61.5 -163.5t-133 -138t-186.5 -135.5q132 -235 381 -436q119 83 213.5 194t161 240.5t109.5 278.5 q6 16 30 16l95 -24q16 -3 16 -27q0 -2 -2 -10q-33 -114 -80 -217.5t-107 -196t-139.5 -181t-169.5 -157.5q144 -80 285 -80q121 0 246 45q8 2 10 2q22 0 29 -24v-100q-8 -33 -112 -49.5t-173 -16.5q-215 0 -428 129q-233 -129 -496 -129q-110 0 -216.5 39t-176.5 118.5 t-70 192.5zM279 319q0 -103 91 -161t199 -58q185 0 365 80q-229 187 -369 428l-186 -125q-43 -29 -71.5 -72t-28.5 -92zM578 1135q0 -155 61 -310q79 57 107 78t72.5 61t75 86t30.5 87q0 73 -41 131.5t-109 58.5q-80 0 -138 -56.5t-58 -135.5z" />
<glyph unicode="'" horiz-adv-x="711" d="M252 963l57 251h-30q-22 6 -27 27v156q5 19 27 24h155q20 -5 25 -24v-156l-2 -8l-105 -285q-5 -14 -22 -18h-51q-27 7 -27 33z" />
<glyph unicode="(" horiz-adv-x="995" d="M215 569q0 148 34 290t98.5 272t162.5 242t217 188q3 2 14 4h86q25 -7 25 -29q0 -15 -12 -23q-148 -104 -250 -254.5t-152.5 -327t-50.5 -362.5q0 -139 28.5 -272t85.5 -258.5t143 -231t196 -182.5q12 -6 12 -22q0 -22 -25 -29h-86q-11 2 -14 4q-119 77 -217.5 190 t-162.5 241.5t-98 270.5t-34 289z" />
<glyph unicode=")" horiz-adv-x="995" d="M141 -397q0 16 13 22q111 78 197.5 185t142.5 230t84 256.5t28 272.5q0 140 -28 273.5t-83.5 256.5t-143 231.5t-197.5 182.5q-13 7 -13 23q0 22 27 29h86q10 -2 12 -4q123 -78 219 -188t161.5 -241.5t98.5 -273t33 -289.5q0 -147 -33 -288t-97.5 -271.5t-161.5 -241 t-220 -190.5q-2 -2 -12 -4h-86q-27 7 -27 29z" />
<glyph unicode="*" d="M168 801q0 41 35 59l360 172l-360 170q-35 18 -35 60q0 27 21 49t49 22q21 0 34 -10l328 -225l-31 401q0 28 21.5 47t48.5 19q16 0 33 -8.5t27 -23.5t10 -34v-4l-31 -397l328 225q12 10 34 10q28 0 49 -22t21 -49q0 -42 -35 -60l-360 -170l360 -172q35 -18 35 -59 q0 -27 -21 -49.5t-49 -22.5q-21 0 -34 10l-328 226l31 -402q0 -28 -21.5 -46.5t-48.5 -18.5t-48.5 18.5t-21.5 46.5v4l31 398l-328 -226q-12 -10 -34 -10q-28 0 -49 22.5t-21 49.5z" />
<glyph unicode="+" horiz-adv-x="1991" d="M141 569q0 29 20 49t48 23h715v713q3 28 22.5 47.5t48.5 19.5q31 0 50 -19t22 -48v-713h713q29 -3 48 -22t19 -50q0 -29 -19.5 -48.5t-47.5 -22.5h-713v-713q-3 -28 -23 -48t-49 -20q-27 0 -47.5 20.5t-23.5 47.5v713h-715q-27 3 -47.5 23.5t-20.5 47.5z" />
<glyph unicode="," horiz-adv-x="711" d="M252 27v155q5 20 27 25h155q20 -5 25 -25v-155l-2 -9l-105 -284q-4 -15 -22 -19h-51q-27 7 -27 33l57 252h-30q-22 5 -27 27z" />
<glyph unicode="-" horiz-adv-x="852" d="M29 526v17q7 53 61 59h561q25 -3 41 -19t19 -40v-17q-3 -24 -19 -41t-41 -20h-561q-26 3 -42 20t-19 41z" />
<glyph unicode="." horiz-adv-x="711" d="M252 27v155q5 20 27 25h155q20 -5 25 -25v-155q-5 -22 -25 -27h-155q-22 5 -27 27z" />
<glyph unicode="/" d="M141 -354q0 16 6 28l852 1850q26 41 66 41q30 0 51 -21t21 -51q0 -16 -7 -29l-851 -1849q-25 -41 -66 -41q-28 0 -50 22t-22 50z" />
<glyph unicode="0" d="M121 672q0 198 44.5 358.5t159.5 262.5t314 102q290 0 404 -204.5t114 -518.5q0 -311 -114.5 -513t-403.5 -202q-198 0 -313.5 100.5t-160 261t-44.5 353.5zM293 702q0 -132 8 -224.5t40 -182t104 -145.5t194 -56q123 0 195.5 56t104 144.5t39 182t7.5 225.5 q0 162 -20 278.5t-96.5 196.5t-229.5 80t-229.5 -80t-96.5 -196.5t-20 -278.5z" />
<glyph unicode="1" d="M242 1184v16q6 52 59 60h4q217 0 328 114q21 21 43 21h20q25 -3 41 -19t19 -41v-1198h260q53 -6 59 -59v-17q-3 -26 -19 -42t-40 -19h-701q-53 7 -59 61v17q6 52 59 59h260v1034q-59 -24 -127.5 -36.5t-138.5 -12.5q-27 0 -45.5 17.5t-21.5 44.5z" />
<glyph unicode="2" d="M106 1049q0 2 3 12q44 111 114 185t165 111.5t216 37.5q141 0 266.5 -50.5t203 -153t77.5 -245.5q0 -98 -45.5 -180.5t-119 -150t-198.5 -156t-133 -94.5l-282 -215h719q53 -8 59 -60v-29q-6 -54 -59 -61h-904q-24 3 -41 20t-20 41v27q1 2 3 8t5 8l385 308q18 14 125 93 t172.5 140.5t107.5 136t42 162.5q0 103 -58.5 172t-150.5 102t-191 33q-249 0 -336 -286q-6 -19 -26 -19q-14 0 -21 10l-69 74q-9 9 -9 19z" />
<glyph unicode="3" d="M106 190l17 80q7 25 29 25q10 0 22 -8q94 -91 217 -141t250 -50q86 0 162 33.5t122 98t46 151.5q0 88 -47 152t-123 97.5t-162 33.5h-186q-22 5 -27 26v86q6 20 27 25l161 10q73 0 142 35.5t113 97.5t44 135q0 64 -42 104t-105 58t-123 18q-114 0 -219 -51t-174 -139h-43 l-57 70q-9 8 -9 18q0 12 9 21q64 70 141.5 118.5t168.5 74.5t183 26q72 0 153 -20t149 -58.5t111.5 -99.5t43.5 -140q0 -76 -33.5 -144.5t-92 -121t-130.5 -84.5q86 -25 159.5 -73.5t120.5 -119.5t47 -155q0 -129 -78.5 -225t-200.5 -146.5t-249 -50.5q-147 0 -283.5 54.5 t-244.5 156.5q-9 9 -9 22z" />
<glyph unicode="4" d="M72 401v62q0 20 12 37l618 833q24 33 64 33h108q28 0 46 -18t18 -45v-820h209q53 -6 59 -59v-23q-3 -26 -19 -42t-40 -19h-209v-279q-6 -54 -59 -61h-54q-24 3 -41 20t-20 41v279h-631q-26 3 -42 20t-19 41zM256 483h514v740h-2q0 -30 -137 -223.5t-375 -516.5z" />
<glyph unicode="5" d="M109 188q0 10 8 21l53 72h43q70 -89 171 -137t212 -48q102 0 182 37.5t126 110.5t46 174q0 91 -30 164t-91 116t-155 43q-189 0 -291 -102q-16 -18 -27 -30t-22 -19t-27 -10h-31q-52 6 -61 61v651q10 54 61 60h730q24 -3 40 -19t19 -41v-22q-6 -55 -59 -62h-625v-401 q120 72 293 72q126 0 236 -61t175.5 -167t65.5 -233q0 -105 -47 -190t-129.5 -146.5t-181.5 -93t-197 -31.5q-133 0 -259 55t-220 158q-8 5 -8 18z" />
<glyph unicode="6" d="M123 676q0 138 48.5 268t137.5 232.5t210 160.5t261 58q23 0 65 -3t95.5 -11.5t86 -20.5t36.5 -31v-88q-7 -27 -29 -27q-2 0 -10 3q-123 40 -242 40q-148 0 -257 -77t-164.5 -204t-55.5 -274q65 107 179.5 167.5t244.5 60.5q127 0 223.5 -68.5t149.5 -180.5t53 -237 q0 -139 -70 -250.5t-188.5 -174t-257.5 -62.5q-145 0 -245 62t-160 166.5t-85.5 230t-25.5 260.5zM317 426q23 -148 102 -239t220 -91q165 0 249.5 91.5t84.5 256.5q0 167 -77.5 258t-242.5 91q-81 0 -159 -37.5t-127.5 -105t-49.5 -152.5q0 -28 7 -52q0 -3 -3.5 -13 t-3.5 -7z" />
<glyph unicode="7" d="M106 1264v28q8 54 62 60h944q24 -3 40 -18t19 -42v-22q0 -25 -20 -45q-174 -144 -300 -332.5t-192.5 -407t-66.5 -444.5q-6 -54 -60 -61h-65q-28 5 -44.5 23t-16.5 46q0 160 34 319t101.5 311.5t160.5 282.5t213 240h-747q-54 6 -62 62z" />
<glyph unicode="8" d="M106 379q0 88 49.5 159t129.5 120t166 71q-122 34 -216 111.5t-94 187.5q0 115 77 198.5t193 126t228 42.5q86 0 172.5 -23.5t160 -69.5t119.5 -116.5t46 -157.5q0 -110 -92.5 -187.5t-217.5 -111.5q138 -36 241 -128t103 -222t-79.5 -225.5t-203 -146t-249.5 -50.5 q-125 0 -249 50.5t-204 146t-80 225.5zM289 379q0 -75 28 -130.5t76 -88.5t112 -48.5t134 -15.5q155 0 252.5 68t97.5 215q0 144 -99.5 213.5t-250.5 69.5q-150 0 -250 -70t-100 -213zM303 1028q0 -123 101 -176t235 -53q135 0 235.5 53t100.5 176q0 129 -97.5 179 t-238.5 50t-238.5 -50t-97.5 -179z" />
<glyph unicode="9" d="M123 909q0 142 73.5 253t195 172t261.5 61q142 0 242 -64t156 -169t80 -228t24 -258q0 -134 -43.5 -262.5t-127 -232t-199 -164t-253.5 -60.5q-95 0 -173 24t-162 76q-13 6 -13 23q0 2 2 12l45 76q7 12 23 12q12 0 16 -4q121 -80 262 -80q109 0 194 47.5t140 128.5 t81 178t26 203q-65 -107 -180 -167t-244 -60q-126 0 -223 68t-150 179.5t-53 235.5zM305 909q0 -346 320 -346q82 0 160 37.5t127 105t49 152.5q0 9 -5 49q0 3 2.5 10t2.5 9q-13 95 -49 168.5t-100.5 118t-158.5 44.5q-169 0 -258.5 -89.5t-89.5 -258.5z" />
<glyph unicode=":" horiz-adv-x="711" d="M252 27v155q5 20 27 25h155q20 -5 25 -25v-155q-5 -22 -25 -27h-155q-22 5 -27 27zM252 887v155q5 20 27 25h155q20 -5 25 -25v-155q-5 -22 -25 -27h-155q-22 5 -27 27z" />
<glyph unicode=";" horiz-adv-x="711" d="M252 27v155q5 20 27 25h155q20 -5 25 -25v-155l-2 -9l-105 -284q-4 -15 -22 -19h-51q-27 7 -27 33l57 252h-30q-22 5 -27 27zM252 887v155q5 20 27 25h155q20 -5 25 -25v-155q-5 -22 -25 -27h-155q-22 5 -27 27z" />
<glyph unicode="&#x3c;" horiz-adv-x="725" d="M258 -260l21 977q5 19 26 24h115q19 -5 24 -24l21 -971q0 -25 -25 -31h-155q-21 5 -27 25zM258 993v86q3 25 20 41t41 19h87q24 -3 40 -19t19 -41v-86q-6 -54 -59 -61h-87q-24 3 -41 19t-20 42z" />
<glyph unicode="=" horiz-adv-x="1991" d="M141 330q0 28 20 47t48 24h1571q28 -4 47.5 -22.5t19.5 -48.5t-19.5 -49.5t-47.5 -22.5h-1571q-27 3 -47.5 23.5t-20.5 48.5zM141 811q0 28 19.5 47.5t48.5 24.5h1571q29 -5 48 -23.5t19 -48.5t-19.5 -49.5t-47.5 -22.5h-1571q-27 3 -47.5 23.5t-20.5 48.5z" />
<glyph unicode="&#x3e;" horiz-adv-x="1208" d="M141 2q0 58 16 100t41 68.5t69.5 62.5t74.5 66q143 143 143 322v96q5 19 27 24h115q19 -5 24 -24v-103q0 -161 -100 -315q-56 -83 -133 -145q-24 -18 -43 -33t-32 -31.5t-21.5 -38t-8.5 -51.5q0 -73 35 -109.5t88 -47.5t131 -11q222 0 426 109q8 2 11 2q17 0 26 -17 l33 -90q2 -8 2 -10q0 -21 -16 -27q-229 -104 -480 -104q-176 0 -302 71.5t-126 235.5zM465 993v86q3 25 20 41t41 19h86q25 -3 41 -19t19 -41v-86q-6 -54 -60 -61h-86q-24 3 -41 19t-20 42z" />
<glyph unicode="?" horiz-adv-x="1208" d="M141 1311q0 17 19 26q184 105 409 105q115 0 227.5 -25.5t190.5 -94.5t78 -187q0 -60 -20 -103t-50.5 -70.5t-88.5 -68t-72 -51.5q-83 -66 -133 -148t-50 -176v-96q-6 -20 -24 -25h-115q-21 5 -27 25v102q0 102 44 197t120 172q70 67 144 108q48 30 74 60.5t26 75.5 q0 109 -91 138.5t-233 29.5q-93 0 -182 -27t-168 -80q-12 -4 -16 -4q-17 0 -27 16l-33 90q-2 9 -2 11zM465 61v86q3 25 20 41t41 19h86q25 -3 41 -19t19 -41v-86q-3 -24 -19 -41t-41 -20h-86q-24 3 -41 20t-20 41z" />
<glyph unicode="@" horiz-adv-x="1706" d="M141 711q0 165 71.5 300t196 232t276 148t310.5 51q218 0 344.5 -96.5t175 -257.5t48.5 -377q0 -126 -63 -233.5t-170.5 -170.5t-233.5 -63t-233.5 63t-170.5 170.5t-63 233.5t63 233.5t170.5 170.5t233.5 63q130 0 233 -64q-46 96 -133.5 143.5t-202.5 47.5 q-128 0 -250.5 -42t-222 -120.5t-157.5 -189t-58 -242.5q0 -173 99.5 -309.5t259.5 -210.5t331 -74q229 0 439 90l8 2h96q25 -7 25 -29q0 -16 -13 -22q-79 -58 -169.5 -97.5t-189.5 -60t-196 -20.5q-154 0 -308 51.5t-278.5 149t-196 232t-71.5 298.5zM793 711 q0 -62 21.5 -120t64 -106.5t98 -76t119.5 -27.5t120 27.5t97.5 75.5t63.5 106.5t22 120.5q0 64 -22 122t-63 105.5t-97.5 74.5t-120.5 27t-120 -26.5t-97.5 -75t-63.5 -106t-22 -121.5z" />
<glyph unicode="A" horiz-adv-x="1649" d="M96 45q0 3 4 21l592 1292q31 63 101 63h63q33 0 60 -17t40 -46l592 -1292q4 -18 4 -21q0 -19 -13 -32t-32 -13h-75q-31 0 -58 17.5t-43 48.5q-21 45 -75.5 165t-63.5 138h-774q-24 -51 -52 -111t-39 -85t-48 -107q-32 -66 -101 -66h-37q-17 0 -31 13t-14 32zM483 512h643 q-84 184 -156.5 344t-118.5 264t-46 109q0 -3 -30.5 -73t-92 -205.5t-90.5 -199t-109 -239.5z" />
<glyph unicode="B" horiz-adv-x="1677" d="M229 61v1280q7 54 62 60h532q121 0 271 -36.5t259 -118t109 -204.5q0 -85 -67 -149.5t-158 -102t-188 -57.5q99 -12 213 -55t193 -117t79 -174q0 -99 -64.5 -174.5t-165.5 -122t-210.5 -68.5t-198.5 -22h-604q-56 6 -62 61zM424 143h399q65 0 148.5 12t171 40.5t144 76 t56.5 115.5q0 96 -97.5 158t-230 88t-227.5 26h-364v-516zM424 797h328q88 0 212.5 23.5t218 78.5t93.5 143q0 80 -95.5 128t-218 67.5t-210.5 19.5h-328v-460z" />
<glyph unicode="C" horiz-adv-x="1634" d="M184 700q0 160 67 299t180.5 237.5t261 153t302.5 54.5q233 0 467 -72q17 -6 17 -29l-23 -131q-7 -24 -29 -24q-2 0 -12 2q-71 39 -136 63t-135 35.5t-149 11.5q-163 0 -303 -80t-223.5 -219t-83.5 -301t83 -300.5t223.5 -219t303.5 -80.5q103 0 174 11t141 39.5 t150 74.5q8 2 10 2q22 0 29 -24l8 -101q0 -22 -16 -30q-138 -68 -239.5 -91.5t-256.5 -23.5t-300.5 54t-261.5 154.5t-182.5 238t-66.5 296.5z" />
<glyph unicode="D" horiz-adv-x="1819" d="M227 61v1280q7 54 62 60h606q150 0 290 -51.5t252 -148t176 -229t64 -284.5q0 -198 -111.5 -356t-293.5 -245t-377 -87h-606q-56 6 -62 61zM424 143h420q175 0 319.5 60.5t231 184t86.5 300.5q0 179 -84.5 308.5t-231 195t-321.5 65.5h-420v-1114z" />
<glyph unicode="E" horiz-adv-x="1591" d="M225 61v1280q7 54 62 60h1104q24 -3 40 -19t19 -41v-22q-6 -54 -59 -62h-965v-460h893q24 -3 40 -18t19 -42v-22q-6 -56 -59 -62h-893v-503h999q54 -8 60 -60v-29q-3 -24 -19 -41t-41 -20h-1138q-56 6 -62 61z" />
<glyph unicode="F" horiz-adv-x="1522" d="M225 61v1280q7 54 62 60h1067q24 -3 40 -19t19 -41v-22q-6 -54 -59 -62h-928v-485h821q25 -3 41 -19t19 -40v-23q-6 -54 -60 -61h-821v-568q-6 -54 -59 -61h-80q-56 6 -62 61z" />
<glyph unicode="G" horiz-adv-x="1706" d="M184 700q0 159 67 298t181.5 238.5t259.5 153.5t301 54q258 0 502 -101q16 -6 16 -28l-22 -131q-7 -25 -29 -25q-12 0 -16 4q-106 72 -213.5 104.5t-235.5 32.5q-164 0 -304 -80t-223 -219t-83 -301t83 -300.5t223 -219t304 -80.5q184 0 367 60v442h-342q-22 5 -27 27v92 q5 19 27 24h489q20 -5 25 -24v-639q-3 -20 -16 -25q-77 -31 -167 -54t-181 -34.5t-177 -11.5q-156 0 -301 55t-260 155t-181.5 237.5t-66.5 295.5z" />
<glyph unicode="H" horiz-adv-x="1663" d="M225 61v1280q7 54 62 60h80q24 -3 40 -19t19 -41v-540h811v540q3 25 20 41t41 19h80q25 -3 41 -19t19 -41v-1280q-3 -24 -19 -41t-41 -20h-80q-24 3 -41 20t-20 41v596h-811v-596q-6 -54 -59 -61h-80q-56 6 -62 61z" />
<glyph unicode="I" horiz-adv-x="653" d="M225 61v1280q7 54 62 60h80q24 -3 40 -19t19 -41v-1280q-6 -54 -59 -61h-80q-56 6 -62 61z" />
<glyph unicode="J" horiz-adv-x="1180" d="M106 74l21 112q7 27 29 27q10 0 16 -6q143 -109 324 -109q126 0 213.5 43.5t87.5 155.5v1044q7 54 61 60h76q24 -3 40 -18t19 -42v-1050q0 -119 -63 -193.5t-163.5 -107.5t-215.5 -33q-225 0 -426 86q-19 6 -19 31z" />
<glyph unicode="K" horiz-adv-x="1720" d="M231 61v1280q8 54 62 60h69q25 -3 41 -19t19 -41v-702l934 729q41 33 94 33h92q16 0 25.5 -10.5t9.5 -26.5q0 -18 -12 -27l-660 -514l678 -757q10 -15 10 -27q0 -16 -12 -27.5t-27 -11.5h-112q-42 0 -72 33l-606 678l-342 -267v-383q-3 -24 -19 -41t-41 -20h-69 q-54 6 -62 61z" />
<glyph unicode="L" horiz-adv-x="1450" d="M225 61v1280q7 54 62 60h80q24 -3 40 -19t19 -41v-1198h856q53 -6 59 -59v-23q-3 -26 -19 -42t-40 -19h-995q-56 6 -62 61z" />
<glyph unicode="M" horiz-adv-x="2089" d="M236 61v1280q7 54 61 60h127q34 0 61.5 -17.5t40.5 -46.5q104 -219 191.5 -406.5t155.5 -333.5t119.5 -260.5t51.5 -121.5q1 5 44.5 100t165 357.5t172.5 371.5t137 293q13 29 41.5 46.5t60.5 17.5h129q24 -3 40 -18t19 -42v-1280q-3 -26 -19 -42t-40 -19h-59 q-56 6 -62 61v1170l-526 -1122q-14 -31 -41.5 -48.5t-61.5 -17.5h-16q-33 0 -60.5 17.5t-41.5 48.5q-518 1100 -523 1120v-1168q-3 -26 -19 -42t-40 -19h-47q-26 3 -42 20t-19 41z" />
<glyph unicode="N" horiz-adv-x="1663" d="M231 61v1280q8 54 62 60h137q74 0 115 -64l719 -1198v1202q7 54 61 60h47q52 -6 60 -60v-1280q-8 -55 -60 -61h-139q-75 0 -115 66l-719 1196v-1201q-3 -26 -19 -42t-40 -19h-47q-54 6 -62 61z" />
<glyph unicode="O" horiz-adv-x="1976" d="M141 696q0 163 70.5 301.5t192.5 239t273 154t310 53.5q160 0 312 -54t273 -153t191 -237t70 -304q0 -164 -70 -300.5t-190.5 -234t-273.5 -151t-312 -53.5q-158 0 -309.5 53t-273.5 152t-192.5 236t-70.5 298zM342 729q0 -135 49 -252t137.5 -201.5t205.5 -130 t253 -45.5q137 0 254.5 45.5t206 131t136.5 200.5t48 252q0 131 -52 238t-142 182t-206.5 114.5t-244.5 39.5q-127 0 -243.5 -39.5t-207 -114.5t-142.5 -182.5t-52 -237.5z" />
<glyph unicode="P" horiz-adv-x="1606" d="M227 61v1280q7 54 62 60h571q133 0 274 -47.5t235.5 -143t94.5 -231.5q0 -134 -95.5 -229.5t-236 -142t-272.5 -46.5h-432v-500q-6 -54 -59 -61h-80q-56 6 -62 61zM424 700h385q107 0 213 22.5t179 85t73 171.5q0 111 -73 172.5t-175.5 83.5t-216.5 22h-385v-557z" />
<glyph unicode="Q" horiz-adv-x="1976" d="M141 696q0 163 70.5 301.5t192.5 239t273 154t310 53.5q160 0 312 -54t273 -153t191 -237t70 -304q0 -99 -30.5 -194t-85 -176.5t-131.5 -150t-167 -116.5l279 -280q10 -10 10 -25q0 -17 -10 -28t-27 -11h-102q-39 0 -74 33l-235 248q-129 -39 -273 -39q-158 0 -309.5 53 t-273.5 152t-192.5 236t-70.5 298zM338 696q0 -132 51 -243t142.5 -191t209.5 -122t246 -42q80 0 162 17l-203 215q-10 7 -10 24q0 16 10.5 27.5t28.5 11.5h92q23 0 39 -16l205 -207q99 50 172.5 131t113 183t39.5 212q0 178 -87.5 316.5t-236 214.5t-325.5 76 q-130 0 -247.5 -42.5t-209 -124t-142 -194.5t-50.5 -246z" />
<glyph unicode="R" horiz-adv-x="1671" d="M227 61v1280q7 54 62 60h567q129 0 286.5 -40t271.5 -127t114 -220q0 -101 -73.5 -177t-182 -122.5t-207.5 -63.5l479 -585q10 -15 10 -27q0 -16 -12 -27.5t-29 -11.5h-75q-38 0 -68 33l-485 600h-461v-572q-6 -54 -59 -61h-76q-56 6 -62 61zM424 770h405q113 0 224.5 17 t197.5 71.5t86 155.5q0 145 -159 194t-349 49h-405v-487z" />
<glyph unicode="S" horiz-adv-x="1421" d="M115 129l22 129q7 25 29 25q12 0 16 -4q239 -166 527 -166q80 0 171.5 27.5t155.5 84.5t64 140q0 66 -41.5 115t-103.5 79.5t-130 44.5l-266 51q-106 21 -201 70.5t-156 130.5t-61 186q0 98 52 174t139 127t187.5 76t191.5 25q242 0 454 -101q17 -6 17 -28l-23 -131 q-7 -25 -29 -25q-12 0 -16 4q-183 129 -403 129q-71 0 -165.5 -23.5t-160.5 -75t-66 -126.5q0 -86 79.5 -137.5t185.5 -73.5l268 -53q112 -23 208.5 -77.5t157 -141t60.5 -197.5q0 -135 -86 -232t-218.5 -147.5t-262.5 -50.5q-308 0 -578 141q-18 9 -18 31z" />
<glyph unicode="T" horiz-adv-x="1833" d="M92 1319v22q7 54 62 60h1527q25 -3 41 -19t19 -41v-22q-6 -54 -60 -62h-663v-1196q-3 -24 -19 -41t-41 -20h-79q-56 6 -62 61v1196h-663q-56 8 -62 62z" />
<glyph unicode="U" horiz-adv-x="1657" d="M225 463v878q7 54 62 60h80q24 -3 40 -19t19 -41v-870q0 -82 32 -150.5t90 -118.5t132.5 -76t155.5 -26t156.5 26t135 74.5t94.5 117.5t35 153v870q8 54 62 60h51q52 -6 60 -60v-878q0 -113 -51 -207.5t-136 -160t-192 -102t-215 -36.5q-148 0 -290 62t-231.5 177.5 t-89.5 266.5z" />
<glyph unicode="V" horiz-adv-x="1649" d="M61 1356q0 18 13.5 31.5t31.5 13.5h76q33 0 61.5 -17.5t41.5 -46.5q17 -35 106.5 -221.5t215 -446.5t180.5 -376.5t55 -120.5q1 8 190.5 403t366.5 762q13 29 41.5 46.5t60.5 17.5h41q20 0 32.5 -13.5t12.5 -31.5q0 -10 -6 -19l-620 -1286q-14 -31 -42 -48t-61 -17h-67 q-32 0 -59.5 17t-43.5 48l-620 1286q-7 8 -7 19z" />
<glyph unicode="W" horiz-adv-x="2359" d="M55 1354q0 19 15 33t34 14h62q30 0 56 -18t36 -46q28 -74 100 -273t154 -428.5t118 -338t36 -125.5q0 52 407 1165q10 28 36 46t56 18h54q30 0 56 -18t36 -46q56 -152 125 -342.5t134 -373t108.5 -309t43.5 -140.5q0 12 43 138t110.5 314.5t129 357t129.5 355.5 q10 28 36 46t56 18h29q19 0 34 -14t15 -33q0 -9 -4 -17l-469 -1286q-11 -30 -36.5 -47.5t-55.5 -17.5h-58q-30 0 -54.5 17t-37.5 48q-98 266 -186 509.5t-156.5 443t-70.5 225.5q0 -15 -41.5 -141t-111 -322t-144 -398.5t-115.5 -316.5q-11 -30 -37 -47.5t-55 -17.5h-51 q-30 0 -55 17.5t-38 47.5l-469 1286q-4 8 -4 17z" />
<glyph unicode="X" horiz-adv-x="1649" d="M84 39q0 16 10 27l608 673l-569 598q-10 7 -10 25q0 17 10 28t27 11h131q40 0 67 -29l449 -502l440 498q33 33 72 33h100q15 0 27 -11t12 -28q0 -15 -10 -25l-539 -598l643 -673q11 -14 11 -27q0 -15 -12 -27t-27 -12h-129q-44 0 -72 33l-516 590l-514 -590 q-30 -33 -70 -33h-100q-16 0 -27.5 11.5t-11.5 27.5z" />
<glyph unicode="Y" horiz-adv-x="1649" d="M53 1362q0 16 11.5 27.5t27.5 11.5h90q79 0 140 -64l524 -614l524 614q61 64 139 64h47q16 0 27.5 -11.5t11.5 -27.5q0 -17 -8 -25l-665 -776v-495q0 -28 -18 -47t-46 -19h-67q-28 0 -47 19t-19 47v495l-664 776q-8 8 -8 25z" />
<glyph unicode="Z" horiz-adv-x="1563" d="M141 66v30q0 24 17 43l993 1123h-911q-56 6 -62 61v18q7 54 62 60h1118q26 0 44.5 -18.5t18.5 -45.5v-28q0 -27 -16 -43l-991 -1123h962q27 -3 42 -19t18 -40v-23q-3 -24 -19 -41t-41 -20h-1169q-28 0 -47 19t-19 47z" />
<glyph unicode="[" horiz-adv-x="721" d="M270 -367v1872q7 54 62 60h272q52 -6 60 -60v-16q-8 -54 -60 -62h-168v-1716h168q52 -6 60 -61v-17q-8 -53 -60 -59h-272q-55 6 -62 59z" />
<glyph unicode="\" d="M487 956v156l2 8l105 285q5 12 24 16h52q24 -8 24 -30l-57 -254h33q18 -5 24 -25v-156q-5 -21 -24 -26h-156q-20 5 -27 26zM985 956v156l2 8l105 285q5 12 24 16h51q25 -8 25 -30l-57 -254h32q19 -5 25 -25v-156q-5 -21 -25 -26h-155q-22 5 -27 26z" />
<glyph unicode="]" horiz-adv-x="721" d="M55 -350q6 55 62 61h166v1716h-166q-56 8 -62 62v16q7 54 62 60h272q52 -6 60 -60v-1872q-8 -53 -60 -59h-272q-55 6 -62 59v17z" />
<glyph unicode="^" d="M195 1214q0 21 18 27l371 178h112l371 -178q16 -6 16 -27t-24 -28h-86l-334 149l-332 -149h-86q-26 6 -26 28z" />
<glyph unicode="_" horiz-adv-x="711" d="M252 1315v49q6 53 59 59h86q52 -6 62 -59v-49q-10 -56 -62 -62h-86q-53 7 -59 62z" />
<glyph unicode="`" horiz-adv-x="711" d="M252 956v156l2 8l104 285q5 12 25 16h51q25 -8 25 -30l-58 -254h33q19 -5 25 -25v-156q-5 -21 -25 -26h-155q-22 5 -27 26z" />
<glyph unicode="a" horiz-adv-x="1208" d="M127 291q0 103 76 173.5t187 108.5t227.5 53t218.5 15v90q0 48 -17 91.5t-47 75.5t-72.5 51.5t-89.5 19.5q-106 0 -194.5 -26t-186.5 -85q-9 -6 -16 -6q-23 0 -29 27l-8 94q0 19 19 28q98 49 201.5 73t213.5 24q78 0 148 -26.5t127 -74.5t90 -114t33 -146v-676 q-3 -24 -19 -41t-41 -20h-47q-26 3 -42 20t-19 41v78q-34 -42 -84 -73t-105 -49.5t-119 -27.5t-118 -9q-79 0 -146 44t-104 115.5t-37 151.5zM293 291q0 -84 74.5 -129t164.5 -45q114 0 209 48.5t95 149.5v238q-70 0 -158 -11t-178 -40.5t-148.5 -82.5t-58.5 -128z" />
<glyph unicode="b" d="M201 61v1301q6 53 61 59h47q27 -3 42 -19t18 -40v-442q63 79 155 123t191 44q137 0 241.5 -81.5t159.5 -209t55 -261.5q0 -104 -36 -205t-104.5 -180t-161.5 -124.5t-201 -45.5q-89 0 -165.5 44.5t-129.5 122.5v-86q-3 -24 -19 -41t-41 -20h-51q-26 3 -42 20t-19 41z M373 309q35 -84 95.5 -138t141.5 -54q88 0 161.5 31.5t125 90t77 134t25.5 162.5q0 86 -23 160.5t-68 132.5t-113 90t-156 32q-83 0 -154.5 -44t-111.5 -120v-477z" />
<glyph unicode="c" horiz-adv-x="1137" d="M106 535q0 110 40.5 211.5t113.5 182t171 125t208 44.5q119 0 205.5 -21.5t189.5 -75.5q17 -10 17 -28l-17 -92q-7 -27 -28 -27q-11 0 -17 6q-92 55 -165.5 75.5t-182.5 20.5q-111 0 -194.5 -59t-125.5 -155.5t-42 -206.5q0 -106 44.5 -202t126 -154t189.5 -58 q209 0 369 137q12 8 20 8q22 0 29 -24l8 -95q0 -17 -12 -26q-181 -141 -414 -141q-147 0 -269.5 76.5t-193 204.5t-70.5 274z" />
<glyph unicode="d" d="M106 535q0 103 35 201.5t102 178.5t157 126t198 46q93 0 174.5 -42t136.5 -115v432q6 53 62 59h47q53 -6 59 -59v-1301q-3 -26 -19 -42t-40 -19h-51q-56 6 -62 61v103q-57 -84 -142.5 -134t-184.5 -50q-104 0 -191.5 46.5t-151.5 128.5t-96.5 179.5t-32.5 200.5zM279 532 q0 -79 22.5 -155.5t67.5 -134.5t113.5 -91.5t156.5 -33.5q62 0 113.5 27t90 73.5t62.5 104.5v471q-33 69 -97 113t-140 44q-119 0 -208 -54.5t-135 -149.5t-46 -214z" />
<glyph unicode="e" horiz-adv-x="1137" d="M96 539q0 107 36.5 206t105.5 180t162.5 127t203.5 46q151 0 255.5 -69.5t155 -188.5t50.5 -267q0 -28 -16.5 -46t-42.5 -23h-748q0 -96 53.5 -186.5t142.5 -145.5t187 -55q99 0 189.5 35.5t162.5 103.5q12 8 21 8q21 0 28 -24l9 -90q0 -19 -7 -23q-181 -147 -405 -147 q-149 0 -274 76.5t-197 205.5t-72 277zM262 612h662q0 102 -37.5 180t-110.5 123.5t-172 45.5q-132 0 -229 -107t-113 -242z" />
<glyph unicode="f" horiz-adv-x="782" d="M70 991v17q7 53 61 59h141v113q0 84 61 143.5t151 89t173 29.5q108 0 205 -21q20 -5 25 -24v-103q-7 -24 -29 -24q-2 0 -10 2q-96 33 -191 33q-32 0 -84 -7.5t-94.5 -25.5t-42.5 -47v-158h238q52 -6 59 -59v-17q-6 -55 -59 -61h-234v-869q-3 -26 -19 -42t-40 -19h-47 q-56 6 -62 61v869h-141q-55 6 -61 61z" />
<glyph unicode="g" d="M106 535q0 105 38.5 206.5t105 178t161 122t201.5 45.5q94 0 171.5 -51t125.5 -137v129q6 53 62 59h47q53 -6 59 -59v-967q0 -111 -62 -201t-163.5 -140t-210.5 -50q-112 0 -219 16t-225 50q-15 4 -19 22v97q6 26 29 26q2 0 12 -2q207 -72 420 -72q97 0 181.5 51.5 t84.5 145.5v264q-48 -99 -133 -161t-190 -62q-97 0 -185 39t-152.5 106.5t-101.5 156.5t-37 188zM279 535q0 -97 49.5 -178t132.5 -128t178 -47q92 0 151.5 60.5t87 151.5t27.5 177q0 2 2 7t2 6v118q-22 103 -84.5 175.5t-156.5 72.5q-109 0 -198.5 -58t-140 -154 t-50.5 -203z" />
<glyph unicode="h" d="M199 61v1301q6 53 61 59h47q52 -6 60 -59v-494q36 65 91 115t124.5 77t142.5 27q176 0 265 -86t89 -262v-678q-3 -26 -19 -42t-40 -19h-51q-56 6 -62 61v670q0 82 -30 130.5t-84.5 68.5t-137.5 20t-148 -46t-100.5 -120t-35.5 -155v-568q-3 -24 -19 -41t-41 -20h-51 q-26 3 -42 20t-19 41z" />
<glyph unicode="i" horiz-adv-x="567" d="M178 1278v86q6 53 62 59h86q53 -7 59 -59v-86q-6 -54 -59 -61h-86q-56 6 -62 61zM199 61v947q7 53 61 59h47q52 -6 60 -59v-947q-8 -55 -60 -61h-47q-26 3 -42 20t-19 41z" />
<glyph unicode="j" horiz-adv-x="639" d="M-178 -225q0 2 2 10l24 80q10 18 27 18q2 0 12 -2q95 -43 199 -43q64 0 124 27.5t60 83.5v1059q7 53 62 59h47q52 -6 59 -59v-1043q0 -58 -26 -108.5t-71 -86.5t-99.5 -55.5t-110.5 -19.5q-67 0 -188 21.5t-121 58.5zM231 1278v86q8 53 62 59h86q53 -6 59 -59v-86 q-6 -55 -59 -61h-86q-54 6 -62 61z" />
<glyph unicode="k" horiz-adv-x="1208" d="M205 61v1301q6 53 61 59h39q52 -6 60 -59v-795l532 467q39 33 86 33h80q16 0 27.5 -10.5t11.5 -26.5t-15 -26l-415 -365l458 -573q9 -12 9 -25q0 -17 -12 -29t-27 -12h-74q-38 0 -68 33l-401 504l-195 -170v-306q-3 -26 -19 -42t-40 -19h-37q-26 3 -42 20t-19 41z" />
<glyph unicode="l" horiz-adv-x="567" d="M199 61v1301q6 53 61 59h47q52 -6 60 -59v-1301q-8 -55 -60 -61h-47q-26 3 -42 20t-19 41z" />
<glyph unicode="m" horiz-adv-x="1991" d="M199 61v947q7 53 61 59h45q52 -6 60 -59v-142q56 100 152 160.5t210 60.5q288 0 342 -233q36 69 92.5 122t127 82t149.5 29q354 0 354 -348v-678q-6 -54 -59 -61h-52q-24 3 -41 20t-20 41v670q0 122 -64.5 170.5t-189.5 48.5q-83 0 -148.5 -45.5t-101 -119.5t-35.5 -156 v-568q-3 -26 -19 -42t-40 -19h-51q-56 6 -62 61v670q0 122 -64.5 170.5t-189.5 48.5q-82 0 -148 -45.5t-101 -119.5t-35 -156v-568q-3 -24 -19 -41t-41 -20h-51q-26 3 -42 20t-19 41z" />
<glyph unicode="n" d="M199 61v947q7 53 61 59h45q52 -6 60 -59v-142q36 65 92 115.5t124.5 78t143.5 27.5q176 0 265 -86t89 -262v-678q-3 -26 -19 -42t-40 -19h-51q-56 6 -62 61v670q0 82 -30 130.5t-84.5 68.5t-137.5 20t-148 -46t-100.5 -120t-35.5 -155v-568q-3 -24 -19 -41t-41 -20h-51 q-26 3 -42 20t-19 41z" />
<glyph unicode="o" d="M92 530q0 113 42 216.5t117 183t174 124t214 44.5q150 0 276 -78t198.5 -208.5t72.5 -281.5q0 -112 -43 -212.5t-117.5 -176t-175.5 -118.5t-211 -43q-148 0 -274 74.5t-199.5 201.5t-73.5 274zM264 555q0 -189 94.5 -311.5t280.5 -122.5q95 0 167 34t117.5 93t68 137 t22.5 170q0 89 -24.5 164.5t-71.5 129.5t-116 83t-163 29q-92 0 -161.5 -28.5t-117.5 -83.5t-72 -129.5t-24 -164.5z" />
<glyph unicode="p" d="M201 -225v1233q7 53 61 59h47q25 -3 41 -19t19 -40v-90q62 79 156.5 124t195.5 45q104 0 189 -49t142.5 -129t88 -177t30.5 -197q0 -104 -36 -205t-104.5 -180t-161.5 -124.5t-201 -45.5q-89 0 -166.5 44.5t-128.5 120.5v-370q-3 -23 -19 -40t-41 -20h-51q-54 6 -61 60z M373 307q35 -82 95.5 -136t141.5 -54q109 0 199 58.5t140 155t50 204.5q0 76 -26.5 150.5t-74 132.5t-114 93t-145.5 35q-83 0 -155 -44t-111 -118v-477z" />
<glyph unicode="q" d="M106 535q0 139 64 267t179.5 206.5t258.5 78.5q94 0 174 -52.5t127 -137.5v131q6 53 62 59h47q53 -6 59 -59v-1253q-3 -25 -19 -41t-40 -19h-51q-55 6 -62 60v397q-35 -56 -85 -100t-111 -68t-125 -24q-105 0 -193.5 46.5t-153.5 128.5t-98 181.5t-33 198.5zM279 532 q0 -99 45 -196.5t128 -158t187 -60.5q97 0 166 67.5t104 167.5v348q-22 102 -85 174t-156 72q-82 0 -154 -33.5t-125 -92t-81.5 -132.5t-28.5 -156z" />
<glyph unicode="r" horiz-adv-x="852" d="M201 61v947q7 53 61 59h41q52 -6 59 -59v-205q61 126 175 205t249 79q25 0 31 -24v-100q-5 -22 -24 -27q-111 0 -209 -52t-156.5 -144t-58.5 -203v-476q-3 -24 -19 -41t-41 -20h-47q-26 3 -42 20t-19 41z" />
<glyph unicode="s" horiz-adv-x="981" d="M72 119l18 98q4 25 29 25q4 0 16 -4q81 -57 175 -87t194 -30q104 0 182 38t78 132q0 65 -57.5 107.5t-128.5 56.5l-175 32q-82 16 -153.5 54.5t-117.5 102t-46 144.5q0 164 122 237t296 73q183 0 354 -76q16 -6 16 -29l-16 -92q-8 -27 -29 -27q-2 0 -10 3 q-160 86 -330 86q-59 0 -114.5 -13.5t-93 -48.5t-37.5 -94t53 -96t121 -52l182 -34q86 -17 158.5 -58.5t118 -108t45.5 -151.5q0 -114 -58.5 -188t-153 -106.5t-206.5 -32.5q-226 0 -414 108q-18 9 -18 31z" />
<glyph unicode="t" horiz-adv-x="924" d="M47 991v17q7 53 62 59h167v246q8 53 62 59h41q53 -6 59 -59v-246h312q24 -3 40 -19t19 -40v-17q-6 -54 -59 -61h-312v-615q0 -73 22 -133.5t83 -60.5q136 0 243 86q10 4 17 4q16 0 26 -16l21 -78q2 -11 2 -13q0 -16 -12 -22q-169 -102 -365 -102q-110 0 -156.5 90 t-46.5 211v649h-163q-56 6 -62 61z" />
<glyph unicode="u" d="M199 281v727q7 53 61 59h51q25 -3 41 -19t19 -40v-721q0 -81 25.5 -119t72 -47.5t131.5 -9.5q122 0 214.5 76t92.5 196v625q7 53 62 59h51q52 -6 59 -59v-947q-3 -26 -19 -42t-40 -19h-47q-56 6 -62 61v115q-61 -93 -167 -144.5t-224 -51.5q-321 0 -321 301z" />
<glyph unicode="v" horiz-adv-x="1137" d="M57 1020q0 18 14.5 32.5t32.5 14.5h35q30 0 57.5 -17.5t39.5 -45.5q329 -826 335 -832q0 1 40 100t109.5 271.5t86.5 215t98 245.5q14 28 40.5 45.5t55.5 17.5h31q18 0 32.5 -13.5t14.5 -33.5q0 -8 -4 -16l-383 -945q-11 -30 -37 -47.5t-57 -17.5h-59q-29 0 -55.5 17 t-39.5 48l-383 945q-4 8 -4 16z" />
<glyph unicode="w" horiz-adv-x="1706" d="M53 1018q0 19 15 34t36 15h33q29 0 54 -17.5t34 -45.5q82 -248 171 -527.5t89 -304.5q1 16 40.5 144.5t105.5 332t117 355.5q9 28 34.5 45.5t55.5 17.5h22q29 0 54 -17.5t34 -45.5q61 -186 87.5 -266t63.5 -195t76 -239.5t39 -131.5q1 4 32 102t87.5 272t93 285t56.5 173 q9 28 34.5 45.5t53.5 17.5h28q22 0 37 -15t15 -34q0 -6 -4 -14l-310 -945q-10 -30 -35 -47.5t-55 -17.5h-57q-28 0 -53 17.5t-35 47.5q-26 78 -80 246t-94.5 297t-62 203t-21.5 90q-2 -29 -43 -162.5t-108.5 -342.5t-108.5 -331q-9 -29 -34.5 -47t-53.5 -18h-39 q-30 0 -55 17.5t-35 47.5l-310 945q-4 8 -4 14z" />
<glyph unicode="x" horiz-adv-x="1137" d="M47 39q0 16 10 27l426 485l-409 453q-11 8 -11 24t10.5 27.5t26.5 11.5h70q40 0 70 -33l321 -368l309 368q30 33 70 33h68q17 0 28 -11.5t11 -27.5t-11 -24l-397 -453l440 -485q8 -12 8 -27t-11 -27t-25 -12h-70q-40 0 -70 33l-350 424l-340 -424q-28 -33 -67 -33h-68 q-16 0 -27.5 11.5t-11.5 27.5z" />
<glyph unicode="y" horiz-adv-x="1137" d="M59 1022q0 18 14.5 31.5t32.5 13.5h35q30 0 58.5 -18t40.5 -45q179 -408 260.5 -600.5t81.5 -231.5q1 37 79.5 233.5t243.5 598.5q30 63 96 63h31q19 0 32 -14t13 -33q0 -12 -2 -16l-450 -1078q-44 -104 -137.5 -167.5t-204.5 -63.5q-91 0 -181 12q-19 5 -24 25l-8 92 q0 13 8.5 23t23.5 10q88 -25 183 -25q152 0 194 94l31 74l-447 1004q-4 12 -4 18z" />
<glyph unicode="z" horiz-adv-x="1102" d="M72 66v26q0 24 16 43l705 799h-625q-54 6 -62 61v13q8 53 62 59h788q28 0 46 -18t18 -45v-25q0 -27 -16 -43l-703 -799h668q53 -7 59 -59v-17q-6 -54 -59 -61h-832q-29 0 -47 19t-18 47z" />
<glyph unicode="{" d="M0 651v17q7 53 61 59h1158q24 -3 40 -19t19 -40v-17q-6 -54 -59 -61h-1158q-24 3 -41 19t-20 42z" />
<glyph unicode="|" horiz-adv-x="2560" d="M0 651v17q7 53 61 59h2438q24 -3 40 -19t19 -40v-17q-6 -54 -59 -61h-2438q-24 3 -41 19t-20 42z" />
<glyph unicode="}" d="M287 1214q0 13 8 21l180 178q5 5 19 8h120q25 -7 25 -28q0 -13 -6 -19l-215 -178q-10 -7 -19 -10h-86q-26 6 -26 28zM713 1214q0 13 8 21l180 178q5 5 19 8h120q25 -7 25 -28q0 -13 -6 -19l-215 -178q-9 -7 -19 -10h-86q-26 6 -26 28z" />
<glyph unicode="~" d="M213 1229q0 89 77 140.5t171 51.5q80 0 190 -45q36 -14 59.5 -22t52.5 -14.5t54 -6.5q40 0 75.5 14t35.5 50q5 19 26 24h86q25 -6 25 -30q0 -61 -36.5 -105t-94 -67t-117.5 -23q-77 0 -188 45q-47 18 -86.5 30.5t-81.5 12.5q-43 0 -77 -13.5t-34 -47.5q-5 -22 -24 -27 h-86q-27 6 -27 33z" />
<glyph unicode="&#xa1;" horiz-adv-x="1450" d="M225 61v1280q7 54 62 60h995q24 -3 40 -18t19 -42v-22q-6 -54 -59 -62h-856v-1196q-6 -54 -59 -61h-80q-56 6 -62 61z" />
<glyph unicode="&#xa2;" horiz-adv-x="2132" d="M139 43q0 9 6 23l775 1292q36 63 112 63h68q76 0 112 -63l775 -1292q6 -13 6 -23q0 -18 -12.5 -30.5t-30.5 -12.5h-1768q-17 0 -30 13t-13 30zM408 188h1271l-637 1061z" />
<glyph unicode="&#xa3;" horiz-adv-x="1991" d="M141 696q0 165 71 303.5t195 238.5t275.5 153t312.5 53t312.5 -53.5t275 -153t194 -238t70.5 -303.5q0 -215 -122.5 -384t-320.5 -262t-409 -93q-159 0 -309.5 51.5t-276 151.5t-197 236t-71.5 300zM336 696q0 -134 53 -246.5t143.5 -190.5t212 -120.5t250.5 -42.5 q130 0 251.5 43t211.5 121t142.5 189.5t52.5 246.5q0 181 -89 320t-239.5 215t-329.5 76q-180 0 -330.5 -76t-239.5 -215t-89 -320zM479 668v67q6 52 62 62h909q53 -10 59 -62v-67q-3 -25 -19 -41t-40 -19h-909q-56 6 -62 60z" />
<glyph unicode="&#xa4;" horiz-adv-x="1507" d="M94 47q0 12 4 19l527 1292q11 27 37.5 45t58.5 18h63q32 0 59 -18t38 -45l526 -1292q4 -7 4 -19q0 -19 -14 -33t-33 -14h-78q-29 0 -56 18t-38 48q-459 1122 -461 1163q0 -41 -459 -1163q-12 -29 -38.5 -47.5t-57.5 -18.5h-35q-20 0 -33.5 13.5t-13.5 33.5z" />
<glyph unicode="&#xa5;" horiz-adv-x="1706" d="M106 61v48q8 53 62 59h1370q52 -6 59 -59v-48q-3 -26 -19 -42t-40 -19h-1370q-54 6 -62 61zM121 1294v47q7 54 61 60h1342q24 -3 40 -19t19 -41v-47q-6 -54 -59 -61h-1342q-26 3 -42 20t-19 41zM285 707v47q7 53 61 59h1014q52 -6 59 -59v-47q-6 -56 -59 -62h-1014 q-55 6 -61 62z" />
<glyph unicode="&#xa6;" horiz-adv-x="1663" d="M225 61v1280q7 54 62 60h1091q25 -3 41 -19t19 -41v-1280q-3 -24 -19 -41t-41 -20h-80q-24 3 -41 20t-20 41v1196h-811v-1196q-6 -54 -59 -61h-80q-56 6 -62 61z" />
<glyph unicode="&#xa7;" horiz-adv-x="1847" d="M141 66q0 23 17 43l547 573l-547 598q-17 17 -17 39v22q7 54 62 60h1444q24 -3 40 -19t19 -41v-22q-6 -54 -59 -62h-1198l471 -514q16 -19 16 -43q0 -22 -16 -43l-480 -501h1207q24 -3 40 -19t19 -41v-35q-6 -54 -59 -61h-1444q-28 3 -45 21t-17 45z" />
<glyph unicode="&#xa8;" horiz-adv-x="1991" d="M141 1120q0 75 34 136t92 103t127 63.5t141 21.5q133 0 228.5 -75t152 -192.5t79.5 -246.5q24 134 79.5 249t151 190t228.5 75q71 0 141.5 -22t126.5 -63t90.5 -103t34.5 -136q0 -25 -19 -44t-44 -19h-43q-27 0 -46.5 18.5t-19.5 44.5q0 53 -33.5 93.5t-86 60.5 t-101.5 20q-101 0 -172 -57t-112 -148.5t-57.5 -191.5t-16.5 -197v-639q-3 -24 -19 -41t-41 -20h-80q-24 3 -41 20t-20 41v639q0 131 -33 267.5t-114.5 231.5t-212.5 95q-83 0 -152.5 -47t-69.5 -127q0 -25 -19 -44t-44 -19h-43q-27 0 -46.5 18.5t-19.5 44.5z" />
<glyph unicode="&#xa9;" horiz-adv-x="1847" d="M141 700q0 141 112 252t273 172.5t297 61.5v155q7 54 62 60h73q25 -3 41 -19t19 -41v-155q100 0 220 -34.5t225.5 -97t174 -154t68.5 -200.5q0 -141 -113 -252t-276.5 -172t-298.5 -61v-154q-3 -24 -19 -41t-41 -20h-73q-56 6 -62 61v154q-135 0 -296.5 61t-273.5 172 t-112 252zM338 700q0 -112 75.5 -191t188 -119t221.5 -40v701q-109 0 -221.5 -40t-188 -119.5t-75.5 -191.5zM1018 350q79 0 165.5 22t160.5 65.5t119.5 110t45.5 152.5q0 87 -46.5 154.5t-119.5 110t-159.5 64.5t-165.5 22v-701z" />
<glyph unicode="&#xaa;" horiz-adv-x="1991" d="M141 1169v17q6 53 62 59h73q92 0 148 -63t78 -154t22 -184q0 -128 38 -231.5t120 -170.5t213 -88v987q3 25 20 41t41 19h74q52 -6 60 -60v-987q99 16 170 57.5t116.5 106.5t66.5 146t21 180q0 67 11 133t39.5 129t78 101t121.5 38h74q53 -6 59 -59v-17q-3 -26 -19 -42 t-40 -19q-52 0 -81 -46t-38.5 -108.5t-9.5 -117.5q0 -128 -40 -244.5t-124 -200.5q-75 -73 -190.5 -124.5t-214.5 -51.5v-154q-8 -55 -60 -61h-74q-24 3 -41 20t-20 41v154q-97 0 -213.5 52t-187.5 122q-83 84 -123.5 202.5t-40.5 244.5q0 55 -10 117.5t-38 108.5t-79 46 q-56 6 -62 61z" />
<glyph unicode="&#xad;" horiz-adv-x="1847" d="M115 61v29q6 52 61 60h402q-23 89 -67 147.5t-157.5 193t-163 230.5t-49.5 213q0 130 75 227.5t198 161t256.5 92.5t253.5 29t254 -29t256 -92.5t197 -161t75 -227.5q0 -117 -49.5 -213t-121.5 -181.5t-156 -191.5t-109 -198h403q54 -8 60 -60v-29q-3 -24 -19 -41 t-41 -20h-489q-62 10 -62 70q0 117 47.5 214.5t145.5 236.5t144 225.5t46 187.5q0 94 -56.5 165.5t-147 117.5t-191 68t-186.5 22q-119 0 -256 -40.5t-231.5 -124.5t-94.5 -208q0 -101 44 -184t142.5 -223.5t147.5 -240t49 -216.5q0 -60 -59 -70h-490q-26 3 -42 20t-19 41z " />
<glyph unicode="&#xae;" horiz-adv-x="1493" d="M70 991v17q7 53 61 59h141v113q0 85 62 144.5t152 88.5t171 29q110 0 207 -21q20 -5 25 -24v-103q-7 -24 -29 -24q-2 0 -10 2q-96 33 -193 33q-62 0 -141.5 -19.5t-79.5 -60.5v-158h240q52 -6 59 -59v-17q-6 -55 -59 -61h-236v-869q-3 -26 -19 -42t-40 -19h-47 q-56 6 -62 61v869h-141q-55 6 -61 61zM981 61v1119q0 125 124.5 193.5t260.5 68.5q109 0 207 -21q19 -5 24 -24v-103q-7 -24 -28 -24q-2 0 -10 2q-96 33 -193 33q-62 0 -141.5 -19.5t-79.5 -60.5v-158h239q25 -3 41 -19t19 -40v-17q-6 -54 -60 -61h-235v-869q-6 -54 -59 -61 h-48q-24 3 -41 20t-20 41z" />
<glyph unicode="&#xaf;" horiz-adv-x="1350" d="M70 991v17q7 53 61 59h141v113q0 77 45 136.5t116.5 92.5t144.5 33q55 0 112.5 -9.5t63.5 -35.5v-105q-7 -26 -29 -26q-2 0 -10 2q-69 37 -137 37q-30 0 -62.5 -8.5t-56 -26t-23.5 -45.5v-158h258q25 -3 41 -19t19 -40v-17q-6 -54 -60 -61h-254v-869q-3 -26 -19 -42 t-40 -19h-47q-56 6 -62 61v869h-141q-55 6 -61 61zM961 1278v86q6 53 61 59h86q53 -6 59 -59v-86q-6 -55 -59 -61h-86q-55 6 -61 61zM981 61v947q7 53 61 59h48q24 -3 40 -19t19 -40v-947q-6 -54 -59 -61h-48q-24 3 -41 20t-20 41z" />
<glyph unicode="&#xb0;" horiz-adv-x="1350" d="M70 991v17q7 53 61 59h141v113q0 77 45 136.5t116.5 92.5t144.5 33q55 0 112.5 -9.5t63.5 -35.5v-103q-7 -24 -29 -24q1 0 -54.5 17.5t-92.5 17.5q-30 0 -62.5 -8.5t-56 -26t-23.5 -45.5v-158h258q25 -3 41 -19t19 -40v-17q-6 -54 -60 -61h-254v-869q-3 -26 -19 -42 t-40 -19h-47q-56 6 -62 61v869h-141q-55 6 -61 61zM981 61v1301q3 24 19 40t42 19h48q53 -7 59 -59v-1301q-6 -54 -59 -61h-48q-24 3 -41 20t-20 41z" />
<glyph unicode="&#xb1;" horiz-adv-x="2062" d="M70 991v17q7 53 61 59h141v113q0 81 52 140.5t132 90.5t158 31q62 0 129.5 -9t73.5 -36v-103q-7 -24 -29 -24q-2 0 -10 2q-79 33 -164 33q-54 0 -116 -19t-62 -61v-158h258q25 -3 41 -19t19 -40v-17q-6 -54 -60 -61h-254v-869q-3 -26 -19 -42t-40 -19h-47q-56 6 -62 61 v869h-141q-55 6 -61 61zM983 61v1119q0 77 45 136.5t116 92.5t144 33q55 0 112.5 -9t63.5 -36v-103q-7 -26 -28 -26q-2 0 -11 2q-72 35 -137 35q-29 0 -61.5 -8.5t-56 -26t-23.5 -45.5v-158h258q52 -6 59 -59v-17q-6 -55 -59 -61h-254v-869q-6 -54 -59 -61h-48q-24 3 -41 20 t-20 41zM1671 1278v86q6 53 62 59h86q53 -7 59 -59v-86q-6 -54 -59 -61h-86q-56 6 -62 61zM1692 61v947q7 53 61 59h47q52 -6 60 -59v-947q-8 -55 -60 -61h-47q-26 3 -42 20t-19 41z" />
<glyph unicode="&#xb2;" horiz-adv-x="2062" d="M70 991v17q7 53 61 59h141v113q0 81 52 140.5t132 90.5t158 31q62 0 129.5 -9t73.5 -36v-103q-7 -24 -29 -24q-2 0 -10 2q-79 33 -164 33q-54 0 -116 -19t-62 -61v-158h258q25 -3 41 -19t19 -40v-17q-6 -54 -60 -61h-254v-869q-3 -26 -19 -42t-40 -19h-47q-56 6 -62 61 v869h-141q-55 6 -61 61zM983 61v1119q0 77 45 136.5t116 92.5t144 33q76 0 160 -23q11 -2 16 -22v-103q-7 -24 -28 -24q1 0 -54.5 17.5t-93.5 17.5q-29 0 -61.5 -8.5t-56 -26t-23.5 -45.5v-158h258q52 -6 59 -59v-17q-6 -55 -59 -61h-254v-869q-6 -54 -59 -61h-48 q-24 3 -41 20t-20 41zM1692 61v1301q6 53 61 59h47q52 -6 60 -59v-1301q-8 -55 -60 -61h-47q-26 3 -42 20t-19 41z" />
<glyph unicode="&#xb3;" horiz-adv-x="567" d="M199 61v947q7 53 61 59h47q52 -6 60 -59v-947q-8 -55 -60 -61h-47q-26 3 -42 20t-19 41z" />
<glyph unicode="&#xb4;" horiz-adv-x="639" d="M-178 -225q0 2 2 10l31 80q9 18 26 18q2 0 13 -2q94 -43 196 -43q63 0 121.5 27.5t58.5 83.5v1059q7 53 62 59h47q52 -6 59 -59v-1043q0 -58 -26 -108.5t-71 -86.5t-99.5 -55.5t-110.5 -19.5q-67 0 -188 21.5t-121 58.5z" />
<glyph unicode="&#xb5;" d="M213 1393q0 22 27 28h120l9 -2l358 -178q16 -10 16 -27q0 -21 -24 -28h-86l-8 2l-394 178q-18 6 -18 27z" />
<glyph unicode="&#xb6;" d="M535 1214q0 18 18 27l358 178l9 2h120q25 -7 25 -28t-16 -27l-394 -178l-8 -2h-86q-26 6 -26 28z" />
<glyph unicode="&#xb8;" d="M215 1358q0 25 17.5 42.5t43.5 20.5h17q24 0 41 -20q76 -12 301 -12h8q225 0 301 12q3 1 15.5 10.5t27.5 9.5h17q26 -3 42.5 -20.5t16.5 -42.5q0 -76 -134.5 -97.5t-289.5 -21.5t-289.5 21.5t-134.5 97.5z" />
<glyph unicode="&#xb9;" d="M178 1270v92q5 19 27 24h870q20 -5 25 -24v-92q-5 -22 -25 -27h-870q-22 5 -27 27z" />
<glyph unicode="&#xba;" horiz-adv-x="1649" d="M539 1319q0 62 98.5 89.5t187.5 27.5q87 0 186 -27.5t99 -89.5q0 -64 -98.5 -91.5t-186.5 -27.5q-50 0 -115.5 10.5t-118 37t-52.5 71.5zM682 1319q0 -37 43 -48t100 -11q142 0 142 59q0 57 -142 57q-143 0 -143 -57z" />
<glyph unicode="&#xbb;" horiz-adv-x="1137" d="M385 -264q0 12 6 18l187 189q6 6 18 10h86q27 -8 27 -29q0 -12 -9 -20l-168 -189q-6 -4 -18 -8h-104q-25 7 -25 29z" />
<glyph unicode="&#xbc;" horiz-adv-x="1208" d="M201 61v1164q0 77 75.5 126t176.5 70t180 21q57 0 130.5 -11t142.5 -37t114 -69t45 -104q0 -85 -65 -144t-162 -98q70 -43 126 -105.5t93.5 -132.5t57.5 -152t20 -163q0 -121 -60.5 -223.5t-163.5 -162.5t-225 -60q-57 0 -150.5 16t-93.5 47q0 2 2 12l27 76q10 16 27 16 q2 0 12 -2q86 -28 174 -28q83 0 148 42.5t99 114t34 154.5q0 94 -28.5 184.5t-84 162t-136.5 113.5t-179 42q-22 5 -27 26v86q5 20 27 25q59 0 144 13.5t149.5 48t64.5 92.5q0 48 -93 66t-169 18q-78 0 -171 -19t-93 -69v-1156q-3 -24 -19 -41t-41 -20h-47q-26 3 -42 20 t-19 41z" />
<glyph unicode="&#xbd;" horiz-adv-x="1847" d="M131 274q0 123 125 192.5t288 94.5t294 25v145q0 49 -17.5 92t-47.5 75t-73 51.5t-90 19.5q-111 0 -198 -26t-187 -89q-10 -2 -12 -2q-23 0 -29 27l-8 94q0 19 19 28q98 49 202 73t215 24q56 0 107.5 -13t95 -36.5t82.5 -60.5t66 -83q72 90 174.5 141.5t216.5 51.5 q111 0 192 -42.5t131.5 -116.5t74.5 -167t24 -199q0 -28 -16.5 -46t-43.5 -23h-704q0 -97 52.5 -186.5t139 -145t185.5 -55.5q88 0 169.5 36t145.5 103q8 8 20 8q22 0 29 -24l8 -90q0 -14 -6 -23q-75 -71 -169.5 -109t-196.5 -38q-81 0 -159.5 24t-147 70t-117.5 106 q-125 -200 -553 -200q-78 0 -142.5 40.5t-101.5 108.5t-37 145zM297 272q0 -78 75 -116.5t163 -38.5q68 0 140.5 19.5t122.5 62.5t50 114q0 41 -3.5 90t-4.5 74q-61 0 -148.5 -8.5t-179.5 -31t-153.5 -63.5t-61.5 -102zM1016 612h614q0 91 -29.5 170.5t-93 129t-153.5 49.5 q-69 0 -126 -28.5t-103.5 -80.5t-73.5 -113.5t-35 -126.5z" />
<glyph unicode="&#xbe;" horiz-adv-x="1991" d="M92 539q0 144 69 274t190.5 207.5t269.5 77.5q135 0 252 -68t190 -184q73 116 187.5 184t244.5 68q111 0 192 -42.5t131.5 -116.5t74.5 -167t24 -199q0 -28 -16.5 -46t-42.5 -23h-705q0 -97 52.5 -186.5t139 -145t185.5 -55.5q182 0 315 139q8 8 21 8q21 0 28 -24l9 -90 q0 -17 -7 -23q-75 -71 -169.5 -109t-196.5 -38q-93 0 -180.5 31.5t-161.5 90.5t-121 134q-75 -118 -193.5 -187t-252.5 -69q-148 0 -269.5 77.5t-190.5 207t-69 274.5zM258 555q0 -113 40.5 -214t123 -162.5t199.5 -61.5q116 0 197 61t121 161.5t40 215.5q0 110 -41.5 202.5 t-123 148t-193.5 55.5q-84 0 -153 -32t-115 -88t-70.5 -129.5t-24.5 -156.5zM1157 612h615q0 91 -29.5 170.5t-93 129t-154.5 49.5q-87 0 -161.5 -50.5t-120 -130.5t-56.5 -168z" />
<glyph unicode="&#xbf;" d="M96 530q0 149 72 280.5t195.5 209.5t275.5 78q133 0 256 -68l149 219q17 27 52 27q28 0 49.5 -20.5t21.5 -49.5q0 -19 -12 -39l-149 -219q55 -54 94.5 -121t60.5 -143t21 -154q0 -145 -72.5 -272.5t-198.5 -202.5t-272 -75q-135 0 -252 63l-154 -225q-16 -27 -51 -27 q-28 0 -49.5 21.5t-21.5 48.5q0 19 12 39l151 221q-83 77 -130.5 186.5t-47.5 222.5zM260 530q0 -87 22.5 -162t69.5 -132l467 684q-81 41 -180 41q-124 0 -210 -56.5t-127.5 -154t-41.5 -220.5zM463 154q78 -37 176 -37q124 0 208.5 53t127.5 146t43 214q0 52 -9 108.5 t-28 104.5t-53 91z" />
<glyph unicode="&#xc0;" horiz-adv-x="2175" d="M100 43q0 9 6 23l705 1271q15 29 44.5 46.5t64.5 17.5h1054q25 -3 41 -19t19 -41v-22q-6 -54 -60 -62h-731v-460h660q24 -3 40 -19t19 -41v-22q-6 -55 -59 -62h-660v-503h766q53 -8 59 -60v-29q-3 -26 -19 -42t-40 -19h-903q-54 6 -62 61v357h-559l-194 -352 q-15 -31 -44 -48.5t-65 -17.5h-37q-17 0 -31 13t-14 30zM565 561h479v696h-94z" />
<glyph unicode="&#xc1;" horiz-adv-x="2460" d="M41 696q0 165 71 303.5t195 238.5t275.5 153t312.5 53q64 0 194 -21.5t189 -21.5h979q24 -3 40 -18t19 -42v-22q-6 -54 -59 -62h-883v-460h811q25 -3 41 -19t19 -41v-22q-6 -55 -60 -62h-811v-503h918q53 -8 59 -60v-29q-6 -54 -59 -61h-1014q-50 0 -120.5 -10.5 t-141.5 -21.5t-121 -11q-159 0 -309.5 51.5t-276 151.5t-197 236t-71.5 300zM238 729q0 -132 51.5 -248t145 -204t211 -135.5t249.5 -47.5q104 0 163.5 22.5t84.5 66t31 105t6 179.5v467q0 119 -6 180t-30.5 104.5t-82.5 66t-166 22.5q-123 0 -241.5 -41.5t-212 -118.5 t-148.5 -184.5t-55 -233.5z" />
<glyph unicode="&#xc2;" horiz-adv-x="1991" d="M141 696q0 165 71 303.5t195 238.5t275.5 153t312.5 53q115 0 223 -26t203 -75l142 177q14 20 47 20q29 0 51 -21t22 -51q0 -21 -12 -36l-129 -162q139 -101 222 -253.5t83 -320.5q0 -215 -122.5 -384t-320.5 -262t-409 -93q-230 0 -428 98l-141 -174q-14 -20 -47 -20 q-28 0 -51 21t-23 50q0 22 12 37l129 162q-85 61 -157 153.5t-110 197.5t-38 214zM332 696q0 -132 52 -253t151 -201l798 993q-153 72 -338 72t-337 -73t-239 -211.5t-87 -326.5zM655 166q154 -72 340 -72q184 0 335 71.5t239 208.5t88 322q0 135 -52.5 257.5t-152.5 205.5z " />
<glyph unicode="&#xc3;" horiz-adv-x="567" d="M-68 741q0 48 50 62l569 162q6 2 16 2q29 0 48.5 -21.5t19.5 -50.5q0 -45 -49 -64l-570 -159q-6 -2 -16 -2q-27 0 -47.5 21.5t-20.5 49.5z" />
<glyph unicode="&#xc4;" d="M291 1315v49q6 53 59 59h80q54 -6 62 -59v-49q-8 -56 -62 -62h-80q-53 6 -59 62zM788 1315v49q8 53 60 59h80q55 -6 61 -59v-49q-6 -56 -61 -62h-80q-52 6 -60 62z" />
<glyph unicode="&#x2000;" horiz-adv-x="782" />
<glyph unicode="&#x2001;" horiz-adv-x="1565" />
<glyph unicode="&#x2002;" horiz-adv-x="782" />
<glyph unicode="&#x2003;" horiz-adv-x="1565" />
<glyph unicode="&#x2004;" horiz-adv-x="521" />
<glyph unicode="&#x2005;" horiz-adv-x="391" />
<glyph unicode="&#x2006;" horiz-adv-x="260" />
<glyph unicode="&#x2007;" horiz-adv-x="260" />
<glyph unicode="&#x2008;" horiz-adv-x="195" />
<glyph unicode="&#x2009;" horiz-adv-x="313" />
<glyph unicode="&#x200a;" horiz-adv-x="86" />
<glyph unicode="&#x2010;" horiz-adv-x="852" d="M29 526v17q7 53 61 59h561q25 -3 41 -19t19 -40v-17q-3 -24 -19 -41t-41 -20h-561q-26 3 -42 20t-19 41z" />
<glyph unicode="&#x2011;" horiz-adv-x="852" d="M29 526v17q7 53 61 59h561q25 -3 41 -19t19 -40v-17q-3 -24 -19 -41t-41 -20h-561q-26 3 -42 20t-19 41z" />
<glyph unicode="&#x2012;" horiz-adv-x="852" d="M29 526v17q7 53 61 59h561q25 -3 41 -19t19 -40v-17q-3 -24 -19 -41t-41 -20h-561q-26 3 -42 20t-19 41z" />
<glyph unicode="&#x2013;" horiz-adv-x="1194" d="M29 526v17q11 53 92 59h842q37 -3 61 -19t29 -40v-17q-5 -24 -29 -41t-61 -20h-842q-39 3 -63 20t-29 41z" />
<glyph unicode="&#x2014;" horiz-adv-x="2218" d="M29 526v17q21 53 183 59h1685q75 -3 123 -19t57 -40v-17q-9 -24 -57 -41t-123 -20h-1685q-78 3 -126 20t-57 41z" />
<glyph unicode="&#x202f;" horiz-adv-x="313" />
<glyph unicode="&#x205f;" horiz-adv-x="391" />
<glyph unicode="&#x2219;" d="M195 1348q0 21 26 28h86l8 -2l324 -149l326 149l8 2h86q24 -7 24 -28q0 -17 -16 -27l-371 -180l-104 -2l-8 2l-371 180q-18 9 -18 27z" />
<glyph unicode="&#xe000;" horiz-adv-x="1065" d="M0 1065h1065v-1065h-1065v1065z" />
</font>
</defs>
</svg>
