<?xml version="1.0" standalone="no"?>
<!DOCTYPE svg PUBLIC "-//W3C//DTD SVG 1.1//EN" "http://www.w3.org/Graphics/SVG/1.1/DTD/svg11.dtd" >
<svg xmlns="http://www.w3.org/2000/svg">
<metadata>
This is a custom SVG webfont generated by Font Squirrel.
Copyright   : Copyright C 1994 Basil K Malyshev All Rights Reserved012BaKoMa Fonts Collection LevelB
</metadata>
<defs>
<font id="cmssqi8Regular" horiz-adv-x="1280" >
<font-face units-per-em="2048" ascent="1638" descent="-410" />
<missing-glyph horiz-adv-x="854" />
<glyph unicode=" "  horiz-adv-x="854" />
<glyph unicode="&#x09;" horiz-adv-x="854" />
<glyph unicode="&#xa0;" horiz-adv-x="854" />
<glyph unicode="!" horiz-adv-x="725" d="M272 66v10l19 84q16 41 59 47h86q27 -3 43.5 -20.5t16.5 -43.5v-12l-19 -82q-15 -43 -59 -49h-86q-26 3 -43 21t-17 45zM369 428l186 969q3 18 25 24h155q27 -7 27 -30l-227 -969q-7 -20 -25 -25h-115q-26 7 -26 31z" />
<glyph unicode="&#x22;" d="M289 958q0 3 2 13l108 243h-22q-27 9 -27 33l33 150q3 18 25 24h155q27 -7 27 -30l-33 -150l-2 -8l-166 -285q-6 -15 -22 -18h-52q-26 7 -26 28zM786 958q0 3 2 13l109 243h-23q-26 9 -26 33l33 150q3 18 24 24h156q26 -7 26 -30l-32 -150l-2 -8l-166 -285 q-6 -15 -23 -18h-51q-27 8 -27 28z" />
<glyph unicode="#" horiz-adv-x="2132" d="M211 330q0 28 20 47t48 24h446l193 338h-537q-27 3 -47.5 23.5t-20.5 48.5t19.5 47.5t48.5 24.5h620l289 503q25 35 62 35q29 0 50 -21t21 -50q0 -17 -10 -37l-248 -430h406l289 503q23 35 61 35q30 0 51 -21t21 -50q0 -18 -11 -37l-247 -430h360q30 -5 49 -24.5 t19 -47.5t-19.5 -48.5t-48.5 -23.5h-444l-193 -338h535q28 -4 47.5 -22.5t19.5 -48.5t-19.5 -49.5t-47.5 -22.5h-619l-291 -508q-24 -35 -61 -35q-28 0 -50 22t-22 50q0 18 11 37l249 434h-405l-291 -508q-24 -35 -61 -35q-28 0 -50 22t-22 50q0 17 10 37l250 434h-362 q-27 3 -47.5 23.5t-20.5 48.5zM889 401h405l193 338h-406z" />
<glyph unicode="$" d="M147 150q0 2 3 12l36 98q6 16 27 16q12 0 16 -4q78 -62 179.5 -104.5t187.5 -42.5l113 526q-158 34 -255.5 111.5t-97.5 220.5q0 61 23 119.5t62 108.5t89 92q65 52 168 94.5t179 42.5l16 78q13 41 57 47h17q25 -3 43 -20t18 -44q0 -19 -12 -61q57 0 117.5 -16t115 -41 t109.5 -60q12 -9 12 -25q0 -2 -2 -10l-37 -94q-6 -16 -26 -16q-13 0 -17 4q-67 52 -144.5 83t-158.5 31l-100 -471q96 -19 175 -62.5t125 -115t46 -170.5q0 -127 -77 -236t-198.5 -176t-248.5 -81l-17 -78q-12 -41 -57 -47h-17q-26 3 -43.5 20.5t-17.5 42.5q0 11 4 29t6 31 q-59 0 -133 20t-147.5 53.5t-124.5 71.5q-13 6 -13 23zM528 1034q0 -78 65.5 -119t158.5 -61l92 438q-112 -16 -214 -86.5t-102 -171.5zM737 129q73 12 148.5 53.5t123.5 104t48 137.5q0 83 -61.5 132.5t-153.5 68.5z" />
<glyph unicode="%" horiz-adv-x="2132" d="M373 1036q0 121 60.5 244.5t164.5 204t227 80.5q86 0 150 -46t96.5 -120.5t32.5 -159.5q0 -119 -60 -243t-163.5 -204.5t-225.5 -80.5q-86 0 -151 45.5t-98 120.5t-33 159zM412 -70q0 29 18 47l1471 1565q23 23 53 23q29 0 50 -21t21 -51q0 -29 -18 -47l-1470 -1565 q-24 -22 -54 -22q-29 0 -50 21t-21 50zM532 1018q0 -72 36 -121t104 -49q59 0 108.5 36.5t88 97.5t58 127.5t19.5 121.5q0 47 -15 92t-45.5 74.5t-78.5 29.5q-87 0 -150 -66t-94 -161t-31 -182zM1329 184q0 123 60.5 245t165.5 202t227 80q86 0 150 -46t97 -120.5t33 -159.5 q0 -119 -60 -242t-163 -203.5t-225 -80.5q-130 0 -207.5 96.5t-77.5 228.5zM1491 166q0 -71 34.5 -120.5t104.5 -49.5q75 0 138.5 62.5t100 152t36.5 166.5q0 47 -15 92t-46.5 74.5t-78.5 29.5q-87 0 -150 -65.5t-93.5 -160t-30.5 -181.5z" />
<glyph unicode="&#x26;" horiz-adv-x="1919" d="M166 258q0 94 57 174.5t146 134.5l290 172q-22 107 -22 205q0 104 23.5 195.5t78.5 160.5q60 75 148.5 119.5t181.5 44.5q77 0 136 -35.5t91.5 -96.5t32.5 -136q0 -104 -76 -197.5t-167.5 -156t-239.5 -150.5q44 -120 115.5 -228.5t168.5 -201.5q134 78 253.5 190.5 t215 243t170.5 281.5q11 16 27 16q2 0 12 -2l80 -22q19 -3 19 -27q0 -2 -2 -10q-58 -114 -129 -221.5t-151.5 -201t-181 -182t-200.5 -153.5q118 -74 262 -74q47 0 132 15.5t126 29.5q9 2 11 2q12 0 20 -8.5t8 -21.5l-18 -94q-7 -31 -114.5 -48.5t-176.5 -17.5 q-217 0 -399 131q-127 -64 -258 -97.5t-269 -33.5q-96 0 -188.5 33t-152.5 100.5t-60 167.5zM340 268q0 -84 75 -126t167 -42q72 0 200 28t195 56q-92 92 -162.5 199t-114.5 223l-215 -127q-64 -41 -104.5 -94t-40.5 -117zM801 958q0 -75 10 -129q155 92 257.5 179.5 t102.5 191.5q0 54 -25 90.5t-77 36.5q-63 0 -120 -32.5t-97 -90.5q-30 -48 -40.5 -110t-10.5 -136z" />
<glyph unicode="'" horiz-adv-x="711" d="M455 958q0 3 2 13l108 243h-22q-27 9 -27 33l33 150q3 18 24 24h156q27 -8 27 -30l-33 -150l-2 -8l-166 -285q-6 -15 -23 -18h-51q-26 7 -26 28z" />
<glyph unicode="(" horiz-adv-x="995" d="M307 307q0 189 54.5 374.5t156 350.5t240.5 301t301 230l8 2h86q25 -7 25 -29q0 -16 -13 -23q-153 -92 -279.5 -226.5t-219 -297.5t-141 -342.5t-48.5 -359.5q0 -131 30 -253t94 -229t159 -184q8 -12 8 -18q0 -22 -27 -29h-86l-12 4q-115 90 -189 203.5t-110.5 247.5 t-36.5 278z" />
<glyph unicode=")" horiz-adv-x="995" d="M57 -397q0 16 13 22q154 93 281.5 228t218.5 299t139.5 342.5t48.5 357.5q0 98 -16.5 190.5t-51 179t-87.5 161.5t-128 135q-8 12 -8 18q0 22 27 29h86l12 -4q114 -89 188.5 -203.5t111 -248.5t36.5 -278q0 -193 -55 -376.5t-155 -347t-238 -298.5t-304 -233l-8 -2h-86 q-25 7 -25 29z" />
<glyph unicode="*" d="M336 786q0 24 13.5 44t35.5 30l397 172l-323 170q-25 15 -25 45q0 32 27 59t59 27q23 0 33 -10l281 -225l53 397q4 29 29.5 49.5t54.5 20.5q23 0 40 -14.5t17 -37.5q0 -12 -2 -18l-117 -397l377 225q15 10 37 10q25 0 41 -16t16 -41q0 -24 -13.5 -44.5t-35.5 -29.5 l-397 -170l323 -172q25 -15 25 -45q0 -32 -27 -59t-59 -27q-23 0 -33 10l-280 226l-54 -398q-5 -30 -30 -49.5t-54 -19.5q-23 0 -40 14.5t-17 36.5q0 12 2 18l117 398l-377 -226q-15 -10 -37 -10q-25 0 -41 17t-16 40z" />
<glyph unicode="+" horiz-adv-x="1991" d="M262 569q0 29 20 49t48 23h729l153 727q19 53 70 53q30 0 51 -21t21 -50q0 -13 -2 -17l-148 -692h697q29 -3 48 -23t19 -49q0 -27 -19.5 -47.5t-47.5 -23.5h-727l-154 -727q-17 -54 -70 -54q-29 0 -50 22t-21 50q1 5 1.5 8.5t0.5 7.5l147 693h-698q-27 3 -47.5 23.5 t-20.5 47.5z" />
<glyph unicode="," horiz-adv-x="711" d="M197 -256q0 2 2 12l108 244h-22q-27 7 -27 33l33 149q3 19 24 25h156q27 -8 27 -31l-33 -149l-2 -9l-166 -284q-7 -16 -23 -19h-51q-26 7 -26 29z" />
<glyph unicode="-" horiz-adv-x="852" d="M141 530q0 28 17.5 47.5t44.5 24.5h561q27 -3 44 -20t17 -43q0 -64 -63 -74h-561q-25 3 -42.5 21.5t-17.5 43.5z" />
<glyph unicode="." horiz-adv-x="711" d="M258 33l31 149q5 19 26 25h156q25 -7 25 -31l-31 -149q-5 -22 -27 -27h-155q-25 8 -25 33z" />
<glyph unicode="/" d="M66 -354q0 15 10 37l1249 1853q23 29 57 29q30 0 51 -21t21 -51q0 -17 -10 -37l-1249 -1853q-23 -29 -58 -29q-29 0 -50 22t-21 50z" />
<glyph unicode="0" d="M227 387q0 133 34 289.5t99 300.5t150 235q55 58 123.5 99.5t144.5 62.5t158 21q133 0 223 -52.5t134 -149.5t44 -230q0 -136 -33.5 -290.5t-98.5 -299.5t-150 -236q-83 -86 -195 -133t-229 -47q-200 0 -302 114t-102 316zM395 381q0 -287 264 -287q56 0 112.5 16.5 t106 50t83.5 77.5q56 70 105 208.5t79.5 291.5t30.5 245q0 88 -29.5 149.5t-91 93t-148.5 31.5q-55 0 -112 -15t-105 -44.5t-84 -71.5q-57 -67 -106 -206t-77 -291.5t-28 -247.5z" />
<glyph unicode="1" d="M268 66q0 27 18.5 47t45.5 24h272l217 1028q-126 -43 -260 -43q-26 0 -46.5 19t-20.5 47t16.5 47.5t44.5 24.5q106 0 199.5 28.5t165.5 89.5q21 17 38 17h19q27 -3 44 -20t17 -44v-12l-252 -1182h244q27 -3 44.5 -20.5t17.5 -42.5q0 -29 -17 -49.5t-47 -24.5h-698 q-27 3 -44.5 20.5t-17.5 45.5z" />
<glyph unicode="2" d="M141 66v10l6 26q4 6 5 8v1l-5 -15q1 2 6 8l5 5l444 303q17 12 155.5 100.5t221.5 157t140 156.5t57 186q0 123 -101.5 181t-234.5 58t-234.5 -78.5t-167.5 -207.5q-6 -19 -26 -19q-16 0 -21 10l-55 74q-6 9 -6 19q0 4 4 16q62 103 147 177.5t189.5 113.5t222.5 39 q119 0 226.5 -39.5t175 -121.5t67.5 -204q0 -119 -59.5 -218t-149 -173t-189.5 -135t-227 -139l-327 -215h698q26 -3 43.5 -20.5t17.5 -43.5q0 -34 -17 -58t-48 -28h-903q-26 3 -43 21t-17 45z" />
<glyph unicode="3" d="M145 186q0 2 2 13l35 80q10 16 27 16q15 0 20 -8q78 -94 190.5 -142.5t235.5 -48.5q72 0 145 25t130.5 70t93 109.5t35.5 139.5q0 73 -38 123t-100.5 74.5t-134.5 24.5h-188q-25 7 -25 32l17 80q6 20 24 25l166 10q74 0 161.5 43t146.5 113.5t59 146.5q0 55 -36 87.5 t-89 45t-107 12.5q-121 0 -234 -51t-202 -139q-10 -10 -20 -10q-16 0 -25 12l-45 76q-2 8 -2 10q0 7 6 21q112 100 253.5 159.5t285.5 59.5q93 0 185 -29t154 -91.5t62 -156.5q0 -127 -100 -233.5t-234 -159.5q70 -23 128 -64.5t94 -101t36 -131.5q0 -69 -30.5 -134.5 t-81.5 -121t-111 -94.5q-85 -58 -187 -89.5t-204 -31.5h-4q-140 0 -269.5 54t-215.5 157q-9 9 -9 18z" />
<glyph unicode="4" d="M158 406q2 10 6 32.5t9 36t17 25.5l797 835q28 31 70 31h106q21 0 37.5 -14.5t16.5 -36.5q0 -8 -3 -12l-174 -820h195q25 -3 42 -20t17 -43q0 -33 -17 -54.5t-46 -25.5h-219l-62 -291q-15 -43 -59 -49h-53q-26 3 -43 21t-17 45q0 10 2 16l56 258h-619q-26 3 -42.5 21.5 t-16.5 44.5zM358 483h514l158 740h-2q-3 -14 -73.5 -97t-126.5 -144t-228.5 -244t-241.5 -255z" />
<glyph unicode="5" d="M150 188q0 9 6 21l67 72q12 8 23 8q16 0 22 -13q56 -87 146.5 -133.5t195.5 -46.5q127 0 227 54.5t158 153.5t58 224q0 98 -56.5 155.5t-154.5 57.5q-215 0 -359 -145q-16 -16 -39 -16h-30q-27 3 -44.5 20.5t-17.5 44.5q1 4 1.5 7t0.5 10l138 643q16 41 57 47h729 q26 -3 43.5 -20.5t17.5 -43.5q0 -31 -17.5 -53.5t-45.5 -26.5h-637l-82 -393q131 64 287 64h14q81 0 152 -27t124 -76.5t84 -119.5t31 -152q0 -119 -57.5 -220t-153 -173.5t-215 -113t-229.5 -40.5q-86 0 -168 24t-152 72t-118 117q-6 6 -6 18z" />
<glyph unicode="6" d="M236 416q0 157 42.5 308.5t127.5 279.5q51 78 124.5 151t159.5 126.5t184 83.5t195 30q78 0 177.5 -16.5t99.5 -55.5l-19 -82q-7 -27 -29 -27q-2 0 -10 3q-109 40 -233 40q-152 0 -274 -74.5t-204 -199.5t-120 -272q55 67 130 116.5t160 76t173 26.5q100 0 179 -49.5 t122 -132t43 -183.5q0 -125 -50.5 -235.5t-140 -195.5t-202 -131t-234.5 -46q-135 0 -224.5 60t-133 164.5t-43.5 234.5zM406 379q0 -283 247 -283q180 0 299 119q61 61 97 164t36 196q0 74 -34 123t-92.5 72t-131.5 23q-93 0 -188.5 -47t-158 -128.5t-62.5 -177.5 q-2 -6 -6 -12l-4 -6q0 -14 -0.5 -23t-1.5 -20z" />
<glyph unicode="7" d="M375 1268q0 31 17 55.5t48 28.5h944q26 -3 44 -20t18 -44q0 -10 -4 -26v12q-7 -38 -27 -53q-152 -106 -282.5 -237.5t-238 -285t-181.5 -320.5t-113 -349q-15 -43 -59 -49h-66q-25 3 -42 21t-17 44q0 10 2 16q35 164 104 325t165 306.5t217.5 275.5t256.5 234h-725 q-27 3 -44 21t-17 45z" />
<glyph unicode="8" d="M180 309q0 106 62.5 192.5t159.5 144t202 83.5q-61 17 -118.5 52t-94.5 88t-37 116q0 88 60 168t147 135q169 107 375 107q101 0 198.5 -34t162.5 -105t65 -173q0 -93 -57.5 -165t-143 -118.5t-178.5 -70.5q71 -19 134.5 -60.5t101.5 -101t38 -133.5q0 -70 -31.5 -136 t-82 -121t-111.5 -97q-91 -62 -194 -92.5t-207 -30.5q-176 0 -313.5 93t-137.5 259zM362 311q0 -119 84 -167t213 -48q111 0 207 38.5t153.5 117t57.5 192.5q0 117 -86.5 167.5t-210.5 50.5q-83 0 -157.5 -22t-133.5 -66.5t-93 -111t-34 -151.5zM516 983q0 -104 86.5 -144 t206.5 -40q96 0 184.5 27t146.5 89.5t58 159.5q0 108 -84 145t-207 37q-96 0 -185.5 -26t-147.5 -87.5t-58 -160.5z" />
<glyph unicode="9" d="M201 80q0 4 8 20l57 72q5 8 21 8q12 0 16 -4q101 -80 244 -80q109 0 201.5 45t166.5 125.5t121 177.5t72 201q-82 -100 -207 -159.5t-256 -59.5q-100 0 -178.5 48.5t-122 131t-43.5 182.5q0 168 90 307.5t239 219.5t314 80q128 0 216 -59.5t129.5 -162.5t41.5 -231 q0 -161 -44.5 -318.5t-131.5 -287.5q-49 -76 -118 -145t-152 -122.5t-172 -82.5t-183 -29q-185 0 -317 100q-12 8 -12 23zM481 778q0 -109 72 -162t184 -53q91 0 188.5 46.5t160.5 127.5t63 176q2 4 3 6.5t3.5 6.5t3.5 6q1 12 1.5 22.5t0.5 26.5q0 125 -56.5 200.5 t-178.5 75.5q-137 0 -237.5 -62t-154 -171.5t-53.5 -245.5z" />
<glyph unicode=":" horiz-adv-x="711" d="M258 33l31 149q5 19 26 25h156q25 -7 25 -31l-31 -149q-5 -22 -27 -27h-155q-25 8 -25 33zM442 893l31 149q5 19 27 25h155q25 -7 25 -31l-31 -149q-5 -22 -26 -27h-156q-25 8 -25 33z" />
<glyph unicode=";" horiz-adv-x="711" d="M197 -256q0 2 2 12l108 244h-22q-27 7 -27 33l33 149q3 19 24 25h156q27 -8 27 -31l-33 -149l-2 -9l-166 -284q-7 -16 -23 -19h-51q-26 7 -26 29zM442 893l31 149q5 19 27 25h155q25 -7 25 -31l-31 -149q-5 -22 -26 -27h-156q-25 8 -25 33z" />
<glyph unicode="&#x3c;" horiz-adv-x="725" d="M203 -254l227 971q5 19 27 24h114q25 -8 25 -30l-186 -971q-3 -19 -25 -25h-156q-26 7 -26 31zM471 997v11l18 84q18 42 60 47h86q25 -3 42 -20t17 -44v-12l-18 -82q-15 -43 -60 -49h-86q-25 3 -42 21.5t-17 43.5z" />
<glyph unicode="=" horiz-adv-x="1991" d="M211 330q0 28 20 47t48 24h1570q30 -5 49 -24t19 -47t-19.5 -48.5t-48.5 -23.5h-1570q-27 3 -47.5 23.5t-20.5 48.5zM313 811q0 28 19.5 47.5t48.5 24.5h1571q29 -5 48 -23.5t19 -48.5t-19.5 -49.5t-47.5 -22.5h-1571q-27 3 -47.5 23.5t-20.5 48.5z" />
<glyph unicode="&#x3e;" horiz-adv-x="1208" d="M135 -53q0 83 47 160.5t119 121.5q117 71 202.5 171.5t112.5 220.5l21 96q5 19 27 24h114q25 -8 25 -30l-21 -97q-23 -99 -76.5 -191.5t-128.5 -167t-169 -132.5q-45 -26 -73 -74.5t-28 -99.5q0 -77 60.5 -97t158.5 -20q226 0 449 109q8 2 10 2q25 0 29 -25l14 -90 q0 -9 -4.5 -17.5t-13.5 -11.5q-123 -50 -248.5 -77t-251.5 -27q-155 0 -265 56.5t-110 195.5zM678 997v11l18 84q18 42 60 47h86q26 -3 42.5 -20.5t16.5 -43.5v-12l-18 -82q-16 -43 -60 -49h-86q-25 3 -42 21.5t-17 43.5z" />
<glyph unicode="?" horiz-adv-x="1208" d="M420 1309q0 19 18 28q102 50 211.5 77.5t218.5 27.5q105 0 204 -19.5t169 -78t70 -162.5q0 -103 -57 -165.5t-185.5 -145t-203 -156.5t-103.5 -197l-21 -96q-6 -20 -24 -25h-115q-27 8 -27 31l21 96q25 110 87.5 203t152 166.5t192.5 124.5q46 25 78.5 67t32.5 91 q0 58 -47 87t-106 35.5t-132 6.5q-100 0 -196 -28.5t-185 -80.5q-8 -2 -10 -2q-26 0 -29 25zM479 66v10l19 84q16 41 59 47h86q25 -3 42 -20t17 -44v-12l-18 -82q-15 -43 -59 -49h-86q-26 3 -43 21t-17 45z" />
<glyph unicode="@" horiz-adv-x="1706" d="M279 586q0 181 90.5 339.5t240.5 274t330.5 179t353.5 63.5q145 0 248 -49t156 -148t53 -246q0 -129 -31 -263t-92 -226q-52 -78 -127 -138.5t-164.5 -94t-181.5 -33.5q-109 0 -197 48t-138 134t-50 195q0 141 81 270.5t213.5 208t274.5 78.5q61 0 122 -18t110 -52 q-53 197 -293 197q-140 0 -289 -53.5t-272.5 -149t-198 -227.5t-74.5 -277q0 -151 80 -259.5t211 -165t279 -56.5q227 0 456 90l9 2h96q27 -8 27 -29q0 -15 -13 -22q-294 -178 -594 -178q-137 0 -264.5 39.5t-230 117.5t-162 193t-59.5 256zM936 631q0 -70 29.5 -127 t82.5 -90t123 -33q76 0 147.5 35.5t125 94.5t84.5 132t31 148q0 52 -17 98.5t-47.5 80t-75.5 52t-96 18.5q-99 0 -189 -59.5t-144 -155t-54 -194.5z" />
<glyph unicode="A" horiz-adv-x="1649" d="M104 37q0 9 11 29l866 1292q43 63 113 63h65q31 0 55 -17.5t31 -45.5l318 -1292v-11q0 -21 -17 -38t-39 -17h-75q-31 0 -54.5 17.5t-31.5 48.5q-18 71 -36.5 145.5t-39.5 157.5h-774q-71 -105 -88 -130.5t-42 -62.5t-75 -110q-42 -66 -113 -66h-37q-14 0 -25.5 9.5 t-11.5 27.5zM592 512h643q-167 689 -170 717q0 -2 -53.5 -84t-79.5 -121.5t-139 -209.5t-201 -302z" />
<glyph unicode="B" horiz-adv-x="1677" d="M244 66v10l272 1278q13 41 57 47h547q111 0 244 -30.5t228.5 -101.5t95.5 -184q0 -96 -80 -170.5t-190.5 -119t-213.5 -62.5q92 -12 187 -47.5t162 -100.5t67 -155q0 -67 -37 -128.5t-93 -107.5t-120 -81q-208 -113 -475 -113h-592q-26 3 -42.5 21.5t-16.5 44.5zM457 143 h397q99 0 235 27t238.5 88.5t102.5 159.5q0 69 -54 116t-134.5 74t-166 39t-147.5 12h-363zM594 797h328q96 0 232 26.5t240.5 88t104.5 153.5q0 55 -54.5 94t-133 59.5t-158.5 29.5t-133 9h-328z" />
<glyph unicode="C" horiz-adv-x="1634" d="M319 565q0 178 84 339t227 283t317 189.5t349 67.5q234 0 451 -72q8 -3 13 -10.5t5 -15.5q0 -3 -2 -11l-51 -131q-6 -16 -26 -16q-3 0 -13 2q-96 60 -185.5 85t-209.5 25q-140 0 -276 -58t-245 -161t-173 -236.5t-64 -273.5q0 -101 38 -190t106 -151.5t157 -96t191 -33.5 q99 0 175 11.5t147 37.5t167 76q10 2 12 2q13 0 21 -8.5t8 -21.5l-14 -101q-3 -19 -17 -24q-98 -44 -174.5 -68.5t-156.5 -35.5t-189 -11q-134 0 -255.5 42t-216 122t-147.5 193.5t-53 250.5z" />
<glyph unicode="D" horiz-adv-x="1819" d="M242 66v10l272 1278q13 41 57 47h621q172 0 320 -69.5t236.5 -200.5t88.5 -308q0 -172 -82.5 -323.5t-220.5 -263.5t-306.5 -174t-332.5 -62h-594q-26 3 -42.5 21.5t-16.5 44.5zM457 143h417q149 0 289 46.5t247 135.5t168.5 215.5t61.5 280.5q0 114 -42.5 198 t-113.5 135.5t-168 77t-204 25.5h-420z" />
<glyph unicode="E" horiz-adv-x="1591" d="M240 66v10l272 1278q13 41 57 47h1104q26 -3 44 -20t18 -44q0 -31 -16 -52.5t-48 -27.5h-977l-98 -460h877q26 -3 43.5 -20.5t17.5 -43.5q0 -31 -16.5 -53.5t-47.5 -26.5h-903l-108 -503h983q26 -3 43.5 -20.5t17.5 -43.5q0 -34 -17 -58t-48 -28h-1139q-26 3 -42.5 21.5 t-16.5 44.5z" />
<glyph unicode="F" horiz-adv-x="1522" d="M240 66v10l272 1278q13 41 57 47h1067q26 -3 44 -20t18 -44q0 -31 -16 -52.5t-48 -27.5h-940l-102 -485h805q25 -3 42 -20t17 -43q0 -33 -17 -54.5t-46 -25.5h-832l-123 -580q-15 -43 -59 -49h-80q-26 3 -42.5 21.5t-16.5 44.5z" />
<glyph unicode="G" horiz-adv-x="1706" d="M319 565q0 178 83.5 338.5t226 282.5t317 190t348.5 68q134 0 250 -24t230 -77q18 -7 18 -26q0 -2 -2 -10l-51 -131q-9 -17 -27 -17q-12 0 -16 4q-172 137 -418 137q-140 0 -276 -58t-245 -161t-173 -236.5t-64 -273.5q0 -100 38 -189t103.5 -150.5t156.5 -96.5t192 -35 q98 0 196.5 16t188.5 44l94 442h-336q-27 8 -27 33l19 86q5 18 26 24h490q25 -7 25 -30l-134 -633q-8 -21 -18 -25q-134 -48 -270 -74t-273 -26q-180 0 -335 74t-246 212.5t-91 321.5z" />
<glyph unicode="H" horiz-adv-x="1663" d="M240 66q0 10 2 16l270 1272q13 41 57 47h80q27 -3 44.5 -20.5t17.5 -43.5q0 -6 -0.5 -9t-1.5 -7l-111 -520h807l119 553q13 41 57 47h80q27 -3 44 -20t17 -44q0 -6 -0.5 -9t-1.5 -7l-270 -1272q-15 -43 -59 -49h-80q-26 3 -43 21t-17 45q0 10 2 16l121 575h-807 l-129 -608q-15 -43 -59 -49h-80q-26 3 -42.5 21.5t-16.5 44.5z" />
<glyph unicode="I" horiz-adv-x="653" d="M240 66v10l272 1278q13 41 57 47h80q26 -3 44 -20t18 -44q0 -6 -2 -12l-271 -1276q-15 -43 -59 -49h-80q-26 3 -42.5 21.5t-16.5 44.5z" />
<glyph unicode="J" horiz-adv-x="1180" d="M121 70q0 2 2 12l45 113q11 18 27 18q10 0 20 -10q57 -51 134.5 -78t160.5 -27q79 0 149.5 17t125 60.5t73.5 115.5l2 6q0 10 2 14l221 1043q14 41 58 47h76q26 -3 43.5 -20.5t17.5 -43.5q0 -6 -0.5 -9t-1.5 -7l-221 -1042q-2 -5 -2.5 -5t-1.5 -6q-27 -108 -104.5 -178 t-182 -101.5t-217.5 -31.5q-38 0 -148.5 15t-194 40.5t-83.5 57.5z" />
<glyph unicode="K" horiz-adv-x="1720" d="M246 66q0 10 2 16l270 1272q13 41 57 47h70q27 -3 44.5 -20.5t17.5 -43.5q0 -6 -0.5 -9t-1.5 -7l-146 -682l1088 729q50 33 102 33h90q12 0 20.5 -7.5t8.5 -21.5q0 -25 -21 -35l-766 -514l514 -757q7 -12 7 -19q0 -18 -14.5 -32.5t-33.5 -14.5h-112q-42 0 -66 33 l-461 678l-397 -267l-84 -395q-15 -43 -59 -49h-70q-26 3 -42.5 21.5t-16.5 44.5z" />
<glyph unicode="L" horiz-adv-x="1450" d="M240 66q0 10 2 16l270 1272q13 41 57 47h80q27 -3 44.5 -20.5t17.5 -43.5q0 -6 -0.5 -9t-1.5 -7l-250 -1178h839q27 -3 43.5 -20.5t16.5 -42.5q0 -31 -16.5 -53.5t-47.5 -26.5h-995q-26 3 -42.5 21.5t-16.5 44.5z" />
<glyph unicode="M" horiz-adv-x="2089" d="M250 66q0 10 2 16l270 1272q13 41 58 47h143q31 0 55 -17.5t31 -46.5q24 -94 74 -290t95.5 -372t78.5 -311t33 -149q2 6 80 123t168 250t252.5 372t256.5 377q20 30 51.5 47t63.5 17h115q26 -3 43.5 -20.5t17.5 -43.5q0 -6 -0.5 -9t-1.5 -7l-270 -1272q-16 -43 -60 -49 h-59q-26 3 -42.5 21.5t-16.5 44.5q0 10 2 16l243 1145l-764 -1118q-44 -66 -114 -66h-19q-32 0 -56 18t-32 48q-34 132 -73.5 289t-98.5 391t-83.5 336.5t-24.5 107.5l-252 -1184q-15 -43 -60 -49h-47q-26 3 -42.5 21.5t-16.5 44.5z" />
<glyph unicode="N" horiz-adv-x="1663" d="M246 66q0 10 2 16l270 1272q13 41 57 47h154q34 0 61 -16.5t39 -47.5l463 -1196l258 1213q14 41 58 47h47q27 -3 44 -20t17 -44q0 -6 -0.5 -9t-1.5 -7l-270 -1272q-15 -43 -60 -49h-151q-75 0 -100 66l-465 1194l-256 -1211q-16 -43 -60 -49h-47q-26 3 -42.5 21.5 t-16.5 44.5z" />
<glyph unicode="O" horiz-adv-x="1976" d="M274 563q0 239 153.5 442.5t392.5 321t474 117.5q136 0 263.5 -41t226 -120t155 -192.5t56.5 -256.5q0 -183 -89 -343.5t-238 -280.5t-330.5 -186.5t-358.5 -66.5q-184 0 -346 71.5t-260.5 209.5t-98.5 325zM481 588q0 -152 68.5 -262.5t188 -168t270.5 -57.5 q149 0 292 58.5t256 162.5t178.5 239.5t65.5 285.5q0 111 -43 198.5t-117 144t-170.5 85.5t-205.5 29q-152 0 -292 -52.5t-252 -150t-175.5 -229t-63.5 -283.5z" />
<glyph unicode="P" horiz-adv-x="1606" d="M242 66v10l272 1278q13 41 57 47h586q119 0 239.5 -38.5t201.5 -120.5t81 -202q0 -112 -67 -201.5t-175.5 -151.5t-230.5 -94t-227 -32h-430l-109 -512q-15 -43 -59 -49h-80q-26 3 -42.5 21.5t-16.5 44.5zM573 700h385q223 0 359 72q75 41 122.5 108.5t47.5 145.5 q0 231 -410 231h-385z" />
<glyph unicode="Q" horiz-adv-x="1976" d="M274 563q0 239 153.5 442.5t392.5 321t474 117.5q136 0 263.5 -41t226 -120t155 -192.5t56.5 -256.5q0 -127 -44 -242.5t-125 -219t-181.5 -182.5t-212.5 -131l219 -280q6 -6 6 -19q0 -16 -14.5 -30.5t-32.5 -14.5h-101q-46 0 -67 33l-182 248q-137 -39 -281 -39 q-184 0 -346 71.5t-260.5 209.5t-98.5 325zM473 571q0 -150 71.5 -257t194.5 -161.5t269 -54.5q81 0 163 17l-155 215q-6 6 -6 16q0 18 14.5 32.5t32.5 14.5h94q22 0 35 -16l160 -207q93 42 179 112.5t145.5 154t93.5 183t34 205.5q0 115 -41.5 205t-114 150.5t-169.5 91.5 t-209 31q-148 0 -291.5 -55.5t-255.5 -154.5t-178 -234t-66 -288z" />
<glyph unicode="R" horiz-adv-x="1671" d="M242 66q0 10 2 16l270 1272q13 41 57 47h582q117 0 256.5 -33t239.5 -109.5t100 -195.5q0 -113 -88 -199t-213.5 -138.5t-243.5 -74.5l355 -585q4 -14 4 -19q0 -19 -16 -33t-34 -14h-75q-41 0 -60 33l-358 600h-461l-123 -584q-15 -43 -59 -49h-76q-26 3 -42.5 21.5 t-16.5 44.5zM590 770h403q114 0 206 11.5t181 49.5q74 33 125 89t51 129q0 90 -78 136.5t-177 59t-203 12.5h-406z" />
<glyph unicode="S" horiz-adv-x="1421" d="M141 125q0 2 2 12l52 129q10 17 26 17q10 0 17 -4q104 -84 227.5 -125t261.5 -41q89 0 197 34t183 101t75 160q0 80 -66.5 128t-157.5 68l-253 51q-92 22 -170.5 63t-128.5 107.5t-50 157.5q0 141 105 247t257.5 160t291.5 54q81 0 153 -10.5t143 -33t138 -57.5 q18 -11 18 -26q0 -2 -2 -10l-51 -131q-9 -17 -27 -17q-12 0 -16 4q-58 47 -115.5 76t-121.5 41t-138 12q-81 0 -188 -29t-183.5 -88.5t-76.5 -144.5q0 -72 66 -114.5t149 -59.5l258 -53q99 -24 177 -68t126.5 -114t48.5 -168q0 -112 -62 -205.5t-160.5 -157.5t-216.5 -98.5 t-222 -34.5q-95 0 -192 15.5t-187 47.5t-170 78q-17 9 -17 27z" />
<glyph unicode="T" horiz-adv-x="1833" d="M373 1323q0 30 17 52t46 26h1528q27 -3 44 -20t17 -44q0 -31 -17 -52.5t-46 -27.5h-676l-256 -1208q-15 -43 -59 -49h-80q-26 3 -43 21t-17 45q0 10 3 16l249 1175h-649q-28 5 -44.5 22.5t-16.5 43.5z" />
<glyph unicode="U" horiz-adv-x="1657" d="M317 391q0 47 9 82l186 881q13 41 57 47h80q26 -3 44 -20t18 -44q0 -6 -2 -12l-187 -874q-6 -34 -6 -72q0 -89 45 -152t119.5 -95t161.5 -32q83 0 167.5 27t158.5 79.5t123 122.5t67 154l186 871q13 41 58 47h51q26 -3 43.5 -20.5t17.5 -43.5q0 -6 -2 -12l-186 -874 q-23 -107 -92 -201t-163.5 -158t-207.5 -99.5t-223 -35.5q-100 0 -191 27.5t-167.5 84t-120.5 138.5t-44 184z" />
<glyph unicode="V" horiz-adv-x="1649" d="M350 1337v11q0 20 17.5 36.5t38.5 16.5h75q31 0 56 -17.5t32 -46.5q57 -207 95.5 -349t99 -369.5t88 -333.5t27.5 -113q1 4 59.5 89t273.5 396.5t299 432t172 247.5q20 30 52 47t65 17h39q16 0 26.5 -9.5t10.5 -25.5q0 -14 -10 -29l-893 -1286q-21 -31 -53 -48t-64 -17 h-70q-32 0 -55 16.5t-33 48.5z" />
<glyph unicode="W" horiz-adv-x="2359" d="M342 1343q0 22 19 40t40 18h62q30 0 53 -17t27 -47q35 -232 56.5 -374.5t42 -286.5t40.5 -297.5t20 -196.5v-10q6 21 80.5 156.5t165 293.5t231 402.5t179.5 312.5q15 29 44.5 46.5t59.5 17.5h54q29 0 52 -17t27 -47q10 -65 50 -329t54 -363t36 -265.5t22 -201.5 q0 -1 1.5 -3.5t0.5 -2.5q8 41 658 1165q17 29 46.5 46.5t59.5 17.5h29q16 0 28.5 -11.5t12.5 -27.5q0 -7 -8 -25l-744 -1286q-16 -31 -44 -48t-60 -17h-60q-29 0 -50.5 16.5t-27.5 48.5q-17 119 -39 264t-59 401.5t-50 365t-13 137.5q0 10 -2 10q-12 -52 -662 -1178 q-17 -30 -45.5 -47.5t-60.5 -17.5h-52q-28 0 -50 17.5t-27 47.5l-195 1286z" />
<glyph unicode="X" horiz-adv-x="1649" d="M90 31q0 16 14 30l756 678l-442 598q-6 6 -6 17q0 18 14.5 32.5t32.5 14.5h129q45 0 65 -33l338 -498l547 498q36 33 80 33h100q31 0 31 -31q0 -18 -14 -31l-668 -600l498 -673q6 -10 6 -19q0 -18 -14.5 -32.5t-32.5 -14.5h-129q-46 0 -66 33l-391 590l-637 -590 q-35 -33 -78 -33h-100q-33 0 -33 31z" />
<glyph unicode="Y" horiz-adv-x="1649" d="M342 1354q0 18 14.5 32.5t32.5 14.5h90q37 0 71.5 -16t55.5 -48l393 -614l654 614q74 64 153 64h47q33 0 33 -31q0 -19 -16 -33l-830 -776l-104 -495q-6 -28 -28 -47t-50 -19h-67q-22 0 -38 15t-16 36q0 8 2 15l105 495l-498 776q-4 4 -4 17z" />
<glyph unicode="Z" horiz-adv-x="1563" d="M154 51q0 54 30 84l1235 1127h-899q-25 3 -42 21t-17 44q0 30 16 49.5t45 24.5h1133q21 0 36 -15t15 -36q0 -54 -29 -82l-1233 -1125h949q26 -3 42.5 -20.5t16.5 -42.5q0 -33 -17 -54.5t-46 -25.5h-1182q-23 0 -38 15t-15 36z" />
<glyph unicode="[" horiz-adv-x="721" d="M193 -362q0 6 2 12l397 1868q13 41 57 47h273q25 -3 43 -20t18 -44q0 -62 -63 -74h-181l-364 -1716h153q14 -1 28.5 -9.5t23 -23t8.5 -32.5q0 -28 -17.5 -48t-44.5 -24h-272q-26 3 -43.5 21.5t-17.5 42.5z" />
<glyph unicode="\" d="M690 963l33 149l2 8l166 285q7 13 22 16h52q26 -7 26 -28q0 -2 -2 -11l-108 -245h22q27 -7 27 -31l-33 -150q-2 -20 -25 -26h-155q-27 7 -27 33zM1188 963l33 149l2 8l166 285q7 13 22 16h51q27 -7 27 -28q0 -2 -2 -11l-109 -245h23q12 -3 19 -11t7 -20l-32 -150 q-2 -20 -25 -26h-156q-26 7 -26 33z" />
<glyph unicode="]" horiz-adv-x="721" d="M-23 -362q0 28 18.5 48t45.5 25h180l365 1716h-154q-26 5 -42.5 22.5t-16.5 43.5q0 28 16.5 47.5t44.5 24.5h273q26 -3 43.5 -20.5t17.5 -43.5q0 -8 -4 -24l-395 -1856q-14 -41 -58 -47h-272q-26 3 -44 21t-18 43z" />
<glyph unicode="^" d="M453 1214q0 21 18 27l408 178h112l334 -178q16 -10 16 -27q0 -21 -24 -28h-86l-303 149l-363 -149h-86q-26 6 -26 28z" />
<glyph unicode="_" horiz-adv-x="711" d="M530 1319q0 39 17 68.5t53 35.5h86q26 -3 44 -20t18 -43q0 -40 -17 -70t-53 -37h-86q-27 3 -44.5 20.5t-17.5 45.5z" />
<glyph unicode="`" horiz-adv-x="711" d="M455 963l32 149l2 8l166 285q7 13 23 16h51q27 -8 27 -28q0 -2 -2 -11l-109 -245h23q12 -3 19 -11t7 -20l-32 -150q-4 -20 -25 -26h-156q-26 7 -26 33z" />
<glyph unicode="a" horiz-adv-x="1208" d="M182 227q0 122 81 204.5t205 127.5t255 63.5t248 18.5l20 96q6 28 6 56q0 51 -22.5 91t-62.5 62.5t-91 22.5q-70 0 -141.5 -13.5t-138.5 -39.5t-129 -62q-11 -2 -13 -2q-11 0 -19.5 9.5t-8.5 23.5l12 94q3 16 18 22q219 97 437 97q90 0 166 -36.5t121.5 -104.5t45.5 -158 q0 -37 -8 -68l-90 -422v-8l-53 -252q-15 -43 -59 -49h-48q-26 3 -42.5 21.5t-16.5 44.5q0 6 6 35.5t6 31.5q-57 -54 -130.5 -87.5t-156 -49.5t-163.5 -16q-103 0 -168.5 71t-65.5 176zM350 256q0 -69 63 -104t138 -35q115 0 219.5 48.5t130.5 145.5l51 242q-76 0 -173 -14 t-198 -49.5t-166 -93.5t-65 -140z" />
<glyph unicode="b" d="M215 66q0 10 2 16l275 1292q12 41 57 47h47q27 -3 44 -20t17 -43q0 -6 -0.5 -9.5t-1.5 -7.5l-88 -415q48 46 109 83.5t128.5 57.5t135.5 20q110 0 192.5 -58.5t125 -155t42.5 -205.5q0 -125 -49.5 -248.5t-137.5 -223t-202 -158t-243 -58.5q-86 0 -155 44.5t-107 125.5 l-21 -101q-15 -43 -59 -49h-52q-26 3 -42.5 21.5t-16.5 44.5zM438 301q16 -82 64.5 -133t126.5 -51q144 0 257.5 77t177.5 203t64 269q0 130 -75 207t-205 77q-88 0 -169.5 -45.5t-137.5 -122.5z" />
<glyph unicode="c" horiz-adv-x="1137" d="M207 420q0 123 54 247.5t146.5 220.5t212 153t246.5 57q116 0 198 -20.5t177 -76.5q16 -10 16 -26q0 -2 -2 -10l-34 -93q-13 -18 -27 -18q-10 0 -16 6q-83 57 -151 76.5t-177 19.5q-131 0 -239 -78t-170 -204t-62 -254q0 -130 75.5 -214.5t204.5 -84.5q213 0 404 141 q8 4 16 4q13 0 21 -8.5t8 -21.5l-12 -95q-3 -16 -13 -20q-208 -141 -442 -141q-124 0 -223 57t-155 158t-56 225z" />
<glyph unicode="d" d="M205 403q0 120 49 244t134 222.5t197.5 158t237.5 59.5q90 0 165 -41.5t118 -117.5l94 446q12 41 57 47h48q26 -3 43.5 -20.5t17.5 -42.5q0 -6 -2 -12l-274 -1297q-16 -43 -60 -49h-51q-26 3 -42.5 21.5t-16.5 44.5v10l16 80q-72 -80 -164.5 -128t-191.5 -48 q-115 0 -200 58t-130 155t-45 210zM377 403q0 -88 33.5 -152t96 -99t150.5 -35q95 0 176 58t140 149l100 477q-20 68 -73.5 108.5t-125.5 40.5q-141 0 -255 -76t-178 -202t-64 -269z" />
<glyph unicode="e" horiz-adv-x="1137" d="M199 432q0 158 86.5 314.5t231 254t306.5 97.5q115 0 202.5 -45.5t133 -130.5t45.5 -201q0 -76 -20 -168q-15 -43 -60 -49h-757q-7 -35 -7 -76q0 -134 80.5 -222.5t214.5 -88.5q74 0 158.5 31.5t166.5 73.5t83 42q29 0 29 -31l-11 -90q-3 -16 -12 -20q-64 -45 -133.5 -77 t-143 -49t-147.5 -17h-4q-125 0 -226.5 60.5t-158.5 164t-57 227.5zM397 612h656q10 58 10 107q0 120 -60.5 181t-181.5 61q-70 0 -135.5 -29t-122.5 -80t-100 -114t-66 -126z" />
<glyph unicode="f" horiz-adv-x="782" d="M281 995q0 28 17.5 48t45.5 24h154l26 117q19 81 89.5 141t163.5 88.5t179 28.5q110 0 201 -21q27 -8 27 -30l-21 -97q-7 -24 -28 -24q-2 0 -13 2q-88 33 -182 33q-62 0 -146 -20.5t-98 -61.5l-32 -156h223q25 -3 42 -20t17 -43q0 -29 -16.5 -49.5t-44.5 -24.5h-246 l-186 -881q-16 -43 -60 -49h-47q-26 3 -42.5 21.5t-16.5 44.5q0 10 2 16l180 848h-127q-27 3 -44 21t-17 44z" />
<glyph unicode="g" d="M127 -236l20 91q5 26 29 26q2 0 10 -2q192 -72 406 -72q99 0 195.5 53.5t117.5 143.5l15 64q0 8 2 14l36 178q-65 -94 -159.5 -154.5t-200.5 -60.5q-81 0 -152 28.5t-125 82.5t-83 127t-29 153q0 119 51 235t141.5 210.5t205 150t231.5 55.5q93 0 161.5 -51t98.5 -139 l30 143q17 41 60 47h47q25 -3 42 -20t17 -43q0 -12 -2 -16l-202 -959q-58 -172 -196.5 -275.5t-318.5 -103.5q-78 0 -150.5 7.5t-143 22.5t-136.5 36q-18 6 -18 28zM383 457q0 -81 38.5 -143.5t104.5 -97t146 -34.5q90 0 163.5 60t121 149.5t69.5 179.5q2 4 3 7t2 5t1 5 l27 123q0 97 -46.5 168t-138.5 71q-117 0 -232 -72t-187 -187t-72 -234z" />
<glyph unicode="h" d="M213 66v10l276 1298q14 41 58 47h47q27 -3 44 -20t17 -43q0 -6 -2 -12l-98 -467q74 93 177.5 150.5t217.5 57.5q299 0 299 -241q0 -20 -2.5 -41.5t-6.5 -45.5t-5 -36l-143 -674q-16 -43 -60 -49h-51q-26 3 -42.5 21.5t-16.5 44.5v10l143 676q6 27 6 57q0 83 -57 112 t-152 29q-81 0 -160.5 -48.5t-133.5 -125t-64 -155.5l-121 -572q-15 -43 -59 -49h-52q-26 3 -42.5 21.5t-16.5 44.5z" />
<glyph unicode="i" horiz-adv-x="567" d="M213 66v10l201 944q15 41 59 47h47q27 -3 43.5 -20.5t16.5 -42.5v-13l-201 -942q-15 -43 -60 -49h-47q-26 3 -42.5 21.5t-16.5 44.5zM451 1282v10l18 84q15 41 59 47h86q27 -3 43.5 -20.5t16.5 -42.5v-12l-19 -82q-15 -43 -59 -49h-86q-25 3 -42 21t-17 44z" />
<glyph unicode="j" horiz-adv-x="639" d="M-225 -225q0 2 2 10l41 80q9 18 26 18q2 0 13 -2q91 -43 190 -43q76 0 139.5 33t77.5 102q0 9 2 13l219 1034q17 41 60 47h47q25 -3 42 -20t17 -43q0 -13 -2 -17l-219 -1034q-37 -114 -136 -186t-222 -72q-66 0 -181.5 21.5t-115.5 58.5zM504 1282v10l18 84q15 41 60 47 h86q26 -3 42.5 -20.5t16.5 -42.5v-12l-18 -82q-16 -43 -60 -49h-86q-25 3 -42 21t-17 44z" />
<glyph unicode="k" horiz-adv-x="1208" d="M219 66q0 10 2 16l275 1292q12 41 57 47h39q27 -3 44 -20t17 -43q0 -6 -0.5 -9.5t-1.5 -7.5l-164 -772l631 465q46 33 92 33h80q12 0 21.5 -7.5t9.5 -21.5q0 -21 -21 -34l-491 -365l334 -573q6 -10 6 -19q0 -19 -16 -33t-33 -14h-74q-42 0 -59 33l-295 504l-230 -168 l-67 -320q-15 -43 -60 -49h-36q-26 3 -43 21t-17 45z" />
<glyph unicode="l" horiz-adv-x="567" d="M213 66v10l276 1298q14 41 58 47h47q27 -3 44 -20t17 -43q0 -6 -2 -12l-274 -1297q-15 -43 -60 -49h-47q-26 3 -42.5 21.5t-16.5 44.5z" />
<glyph unicode="m" horiz-adv-x="1991" d="M213 66v10l201 944q15 41 59 47h45q27 -3 43.5 -20.5t16.5 -42.5v-13l-27 -117q74 95 179 154t220 59q130 0 215.5 -53t85.5 -176q51 69 115 119.5t140.5 80t154.5 29.5q136 0 218.5 -55.5t82.5 -185.5q0 -21 -2.5 -42.5t-6.5 -44t-5 -36.5l-144 -674q-15 -43 -59 -49 h-51q-26 3 -43 21t-17 45v10l144 676q6 27 6 57q0 85 -57.5 113t-151.5 28q-81 0 -153.5 -41.5t-125 -111t-75.5 -148.5l-127 -600q-16 -43 -60 -49h-51q-26 3 -42.5 21.5t-16.5 44.5v10l143 676q6 27 6 57q0 85 -57 113t-152 28q-81 0 -161.5 -49t-134.5 -125t-64 -155 l-121 -572q-15 -43 -59 -49h-52q-26 3 -42.5 21.5t-16.5 44.5z" />
<glyph unicode="n" d="M213 66v10l201 944q15 41 59 47h45q27 -3 43.5 -20.5t16.5 -42.5v-13l-27 -117q74 95 179 154t220 59q299 0 299 -241q0 -20 -2.5 -41.5t-6.5 -45.5t-5 -36l-143 -674q-16 -43 -60 -49h-51q-26 3 -42.5 21.5t-16.5 44.5v10l143 676q6 27 6 57q0 83 -57 112t-152 29 q-81 0 -160.5 -48.5t-133.5 -125t-64 -155.5l-121 -572q-15 -43 -59 -49h-52q-26 3 -42.5 21.5t-16.5 44.5z" />
<glyph unicode="o" d="M193 416q0 171 97 329t255 255.5t327 97.5q95 0 177 -34t139.5 -94t90 -140.5t32.5 -176.5q0 -130 -55 -251t-151 -217t-218 -150.5t-252 -54.5q-125 0 -226 56t-158.5 155t-57.5 225zM367 416q0 -93 36 -159.5t103 -101t160 -34.5q107 0 198 47t153.5 126t95 177.5 t32.5 204.5q0 138 -81 211.5t-220 73.5q-147 0 -255.5 -76t-165 -201.5t-56.5 -267.5z" />
<glyph unicode="p" d="M154 -221q0 6 2 12l260 1229q15 41 59 47h47q27 -3 43.5 -20.5t16.5 -42.5v-13l-15 -67q48 47 110 85t130 58t137 20q110 0 191.5 -58.5t123 -155t41.5 -203.5q0 -125 -48.5 -247t-136.5 -223t-203 -160.5t-242 -59.5q-86 0 -156 44t-108 123l-82 -385q-14 -41 -58 -47 h-51q-27 3 -44 21.5t-17 42.5zM438 299q9 -51 34 -93t64.5 -65.5t92.5 -23.5q128 0 242.5 75.5t183.5 196.5t69 248q0 85 -34 155.5t-97 112t-147 41.5q-88 0 -167.5 -45t-137.5 -121z" />
<glyph unicode="q" d="M207 406q0 120 49 243t135.5 222t201.5 157.5t241 58.5q95 0 163.5 -51t100.5 -141l30 145q17 41 60 47h47q25 -3 42 -20t17 -43q0 -12 -2 -16l-264 -1246q-13 -41 -57 -47h-51q-27 3 -44.5 21.5t-17.5 42.5q1 5 1.5 8.5t0.5 7.5l78 369q-71 -84 -161.5 -134t-190.5 -50 q-85 0 -156.5 34.5t-121 94.5t-75.5 137t-26 160zM381 428q0 -60 18 -115.5t56 -101.5t88.5 -70t113.5 -24q70 0 132 33t109 85t85 121l76 355q0 94 -47.5 164.5t-137.5 70.5q-127 0 -242 -74.5t-183 -195t-68 -248.5z" />
<glyph unicode="r" horiz-adv-x="852" d="M215 66q0 10 2 16l199 938q15 41 59 47h41q25 -3 42 -20t17 -43q0 -13 -2 -17l-36 -174q56 80 130 141t161.5 97t181.5 36q12 0 22 -8t10 -22l-20 -94q-5 -22 -25 -27q-114 0 -223 -51.5t-186.5 -143t-104.5 -204.5q0 -9 -2 -13l-100 -475q-15 -43 -59 -49h-48 q-26 3 -42.5 21.5t-16.5 44.5z" />
<glyph unicode="s" horiz-adv-x="981" d="M96 115q0 2 2 12l39 98q6 17 27 17q13 0 22 -11q142 -110 338 -110q71 0 140.5 20t117 65.5t47.5 117.5q0 36 -23 63t-58 44t-68 24l-168 32q-112 26 -188 89.5t-76 166.5q0 80 47.5 157t116.5 120q131 78 317 78q188 0 340 -76q16 -10 16 -27q0 -2 -2 -10l-34 -92 q-8 -19 -27 -19q-2 0 -12 3q-140 86 -310 86q-105 0 -196.5 -45t-91.5 -140q0 -47 42 -76t99 -43l174 -34q75 -17 134 -51t95.5 -88t36.5 -130q0 -85 -47 -165t-121 -128q-131 -83 -317 -83q-222 0 -399 112q-13 6 -13 23z" />
<glyph unicode="t" horiz-adv-x="924" d="M258 995q0 28 18.5 48t45.5 24h180l55 258q12 41 57 47h41q26 -3 44 -20t18 -43q0 -6 -2 -13l-49 -229h297q26 -3 42.5 -20.5t16.5 -42.5q0 -29 -17 -49.5t-44 -24.5h-324l-133 -621q-10 -50 -10 -90q0 -98 67 -98q139 0 264 86q8 4 17 4q21 0 28 -25l4 -77 q0 -19 -18 -31q-179 -98 -379 -98q-77 0 -117.5 55t-40.5 137q0 46 15 115l135 643h-150q-26 3 -43.5 20.5t-17.5 44.5z" />
<glyph unicode="u" d="M248 195q0 45 12 92q0 10 2 14l152 719q15 41 59 47h51q27 -3 43.5 -20.5t16.5 -42.5q0 -13 -2 -17l-152 -719q-8 -18 -8 -61q0 -63 55.5 -79.5t140.5 -16.5q78 0 156 33.5t134 93.5t77 137q2 6 2 8q1 3 1.5 5.5t0.5 6.5l133 625q17 41 60 47h51q25 -3 42 -20t17 -43 q0 -13 -2 -17l-198 -938q-16 -43 -60 -49h-47q-26 3 -42.5 21.5t-16.5 44.5q0 10 2 16l18 86q-80 -87 -193 -137.5t-231 -50.5q-274 0 -274 215z" />
<glyph unicode="v" horiz-adv-x="1137" d="M274 1004v6q0 22 18.5 39.5t39.5 17.5h35q30 0 53 -17.5t29 -45.5q10 -51 48 -252t58.5 -309t35.5 -186.5t15 -84.5l38 60q38 60 152 246.5t188.5 308t133.5 217.5q44 63 111 63h28q17 0 28 -10t11 -27q0 -15 -8 -26l-581 -945q-42 -65 -111 -65h-57q-31 0 -54 17t-28 48 z" />
<glyph unicode="w" horiz-adv-x="1706" d="M270 1004v4q0 23 19 41t41 18h32q30 0 51.5 -17.5t24.5 -45.5q13 -107 32 -276t26.5 -238t16.5 -168t9 -138q0 -12 2 -12q3 15 29 65.5t136 258t168 315t104 193.5q16 27 43 45t59 18h24q28 0 49.5 -17.5t24.5 -45.5q24 -200 41 -349t33 -298.5t16 -180.5q1 -1 1.5 -2 t0.5 -2q1 7 59 116.5t119.5 224t144 268t120.5 223.5q16 27 43 45t59 18h29q16 0 28.5 -11.5t12.5 -27.5q0 -13 -8 -24l-510 -945q-15 -28 -43 -46.5t-60 -18.5h-57q-28 0 -50.5 17.5t-25.5 47.5q-82 672 -82 813v23q-8 -33 -141.5 -286.5t-294.5 -549.5q-13 -27 -41 -46 t-61 -19h-39q-28 0 -50.5 17.5t-25.5 47.5z" />
<glyph unicode="x" horiz-adv-x="1137" d="M55 31q0 18 13 32l532 488l-313 453q-6 6 -6 16q0 18 14.5 32.5t32.5 14.5h67q44 0 66 -33l241 -368l390 368q31 33 75 33h68q31 0 31 -31q0 -18 -15 -32l-495 -453l336 -485q6 -10 6 -19q0 -18 -15.5 -32.5t-31.5 -14.5h-70q-44 0 -61 33l-263 424l-430 -424 q-31 -33 -73 -33h-68q-31 0 -31 31z" />
<glyph unicode="y" horiz-adv-x="1137" d="M23 -262l10 92q8 27 33 27q87 -25 180 -25q157 0 217 94l47 74l-234 1004v8q0 22 18.5 38.5t39.5 16.5h33q31 0 55 -17.5t31 -45.5q35 -153 74 -326.5t65 -308.5t26 -185v-12q5 20 47 93t111 187t135 219.5t207 332.5q14 20 30.5 33.5t37 21.5t41.5 8h30q17 0 28 -10 t11 -27q0 -10 -8 -26l-678 -1078q-64 -100 -170.5 -165.5t-220.5 -65.5q-89 0 -172 12q-24 7 -24 31z" />
<glyph unicode="z" horiz-adv-x="1102" d="M84 51q0 49 29 80l880 803h-614q-25 3 -42.5 21.5t-17.5 43.5q0 29 17 47t45 21h801q20 0 36.5 -14.5t16.5 -36.5q0 -47 -29 -78l-878 -801h655q26 -3 43.5 -20.5t17.5 -42.5q0 -64 -63 -74h-844q-23 0 -38 15t-15 36z" />
<glyph unicode="{" d="M139 655q0 28 17.5 47.5t44.5 24.5h1157q27 -3 44 -20t17 -43q0 -64 -63 -74h-1157q-25 3 -42.5 20.5t-17.5 44.5z" />
<glyph unicode="|" horiz-adv-x="2560" d="M139 655q0 28 17.5 47.5t44.5 24.5h2437q27 -3 44 -20t17 -43q0 -64 -63 -74h-2437q-25 3 -42.5 20.5t-17.5 44.5z" />
<glyph unicode="}" d="M545 1214q0 13 8 21l217 178q8 6 18 8h121q27 -7 27 -28q0 -15 -12 -23l-254 -178q-6 -4 -13 -6h-86q-26 7 -26 28zM971 1214q0 13 8 21l217 178q8 6 18 8h121q27 -7 27 -28q0 -15 -12 -23l-254 -178q-6 -4 -13 -6h-86q-26 7 -26 28z" />
<glyph unicode="~" d="M473 1229q14 60 57.5 103.5t102.5 66t123 22.5q76 0 182 -45q28 -12 53 -21.5t52.5 -15.5t52.5 -6q58 0 85 17t42.5 42.5t25.5 28.5h86q27 -7 27 -30q-14 -60 -57.5 -104.5t-103 -67.5t-124.5 -23q-73 0 -180 45q-104 43 -158 43q-58 0 -85 -17t-42.5 -42.5t-25.5 -28.5 h-86q-27 7 -27 33z" />
<glyph unicode="&#xa1;" horiz-adv-x="1450" d="M240 66q0 10 2 16l270 1272q13 41 57 47h996q26 -3 43.5 -20.5t17.5 -43.5q0 -31 -17 -52.5t-46 -27.5h-869l-256 -1208q-15 -43 -59 -49h-80q-26 3 -42.5 21.5t-16.5 44.5z" />
<glyph unicode="&#xa2;" horiz-adv-x="2132" d="M147 35q0 13 13 31l1048 1292q53 63 127 63h66q35 0 62 -17t38 -46l500 -1292q2 -7 2 -15q0 -20 -16.5 -35.5t-36.5 -15.5h-1768q-35 0 -35 35zM449 188h1269l-409 1061z" />
<glyph unicode="&#xa3;" horiz-adv-x="1991" d="M274 563q0 182 91.5 345t241 282.5t332.5 186.5t361 67q141 0 266 -39.5t227 -120t159 -194.5t57 -259q0 -184 -90 -344t-241 -279.5t-333 -185t-360 -65.5q-137 0 -264.5 40t-228.5 118t-159.5 191.5t-58.5 256.5zM471 571q0 -225 156.5 -350t386.5 -125q152 0 294 53.5 t258 153t182.5 234.5t66.5 288q0 117 -42.5 208t-116 151.5t-171.5 91.5t-213 31q-149 0 -294.5 -56t-259.5 -156t-180.5 -235.5t-66.5 -288.5zM623 672v12l14 64q11 39 57 49h910q25 -4 43 -22t18 -44q0 -6 -2 -10l-12 -66q-16 -41 -60 -47h-909q-25 3 -42 21.5t-17 42.5z " />
<glyph unicode="&#xa4;" horiz-adv-x="1507" d="M102 37q0 15 9 29l802 1292q18 28 47.5 45.5t63.5 17.5h61q32 0 55 -17.5t29 -45.5l252 -1292q1 -3 1.5 -5t0.5 -4q0 -22 -18.5 -39.5t-40.5 -17.5h-78q-30 0 -53 18t-29 48q-31 161 -63.5 328.5t-66 344.5t-57.5 318.5t-24 167.5q0 1 -0.5 2t-1.5 2q-3 -14 -72 -131.5 t-187.5 -310.5t-230 -372.5t-216.5 -348.5q-39 -66 -109 -66h-35q-17 0 -28 10t-11 27z" />
<glyph unicode="&#xa5;" horiz-adv-x="1706" d="M121 66q0 91 67 102h1371q26 -3 43.5 -20.5t17.5 -43.5q0 -93 -70 -104h-1370q-26 3 -42.5 21.5t-16.5 44.5zM397 1298q0 92 68 103h1341q26 -3 44 -20t18 -44q0 -39 -17 -68.5t-53 -35.5h-1341q-25 3 -42.5 21.5t-17.5 43.5zM436 711q0 91 68 102h1014q25 -3 43 -20 t18 -43q0 -94 -70 -105h-1013q-26 3 -43 21t-17 45z" />
<glyph unicode="&#xa6;" horiz-adv-x="1663" d="M240 66q0 10 2 16l270 1272q13 41 57 47h1092q27 -3 44 -20t17 -44q0 -6 -0.5 -9t-1.5 -7l-270 -1272q-15 -43 -59 -49h-80q-26 3 -43 21t-17 45q0 10 2 16l250 1175h-809l-256 -1208q-15 -43 -59 -49h-80q-26 3 -42.5 21.5t-16.5 44.5z" />
<glyph unicode="&#xa7;" horiz-adv-x="1847" d="M156 66q0 28 20 47l674 577l-416 594q-12 24 -12 39q0 30 17 52t46 26h1444q26 -3 44 -20t18 -44q0 -31 -16 -52.5t-48 -27.5h-1218l364 -518q12 -24 12 -39q0 -30 -22 -47l-580 -497h1182q25 -3 42 -20t17 -44q0 -38 -16 -63t-49 -29h-1444q-26 3 -42.5 21.5t-16.5 44.5 z" />
<glyph unicode="&#xa8;" horiz-adv-x="1991" d="M379 1108q0 43 32 98.5t68 89.5q68 69 166 108.5t197 39.5q185 0 268.5 -141.5t83.5 -341.5q0 -21 -2 -31q84 210 229 362t338 152q132 0 232 -69.5t100 -194.5q0 -50 -19 -86.5t-65 -36.5h-43q-22 0 -36.5 14.5t-14.5 36.5v12q4 20 4 31q0 69 -57.5 106t-130.5 37 q-132 0 -232.5 -93t-162 -229t-89.5 -272q-1 -2 -1 -5.5t-1 -4.5l-135 -641q-15 -43 -59 -49h-80q-26 3 -43 21t-17 45v10l138 641q22 70 22 211q0 73 -12.5 135.5t-41.5 115t-79.5 84t-124.5 31.5q-54 0 -110 -20.5t-97.5 -61t-52.5 -92.5q-5 -26 -27.5 -44.5t-50.5 -18.5 h-43q-22 0 -36.5 14.5t-14.5 36.5z" />
<glyph unicode="&#xa9;" horiz-adv-x="1847" d="M283 635q0 118 79 219.5t207 177t263 115t241 39.5l37 168q13 41 57 47h74q26 -3 44 -20t18 -44q0 -6 -3 -12l-28 -139q91 0 193 -28.5t192 -83t147.5 -134t57.5 -174.5q0 -120 -81 -222t-205 -174.5t-264 -113.5t-247 -41l-35 -166q-15 -43 -59 -49h-74 q-26 3 -42.5 21.5t-16.5 44.5v10l30 139q-85 0 -187 29t-194 84t-148 134t-56 173zM481 645q0 -96 65 -163t160.5 -98.5t190.5 -31.5l147 697q-117 0 -250.5 -49t-223 -140t-89.5 -215zM1094 350q86 0 186.5 26.5t187.5 78t142 129t55 172.5q0 97 -65.5 164t-163.5 99 t-193 32z" />
<glyph unicode="&#xaa;" horiz-adv-x="1991" d="M391 1174q0 27 17.5 46.5t44.5 24.5h73q67 0 111.5 -37t64 -96t19.5 -123q0 -47 -9 -101.5t-18.5 -109.5t-9.5 -102q0 -140 72 -222t213 -100l213 1000q13 41 57 47h74q26 -3 43.5 -20.5t17.5 -43.5q0 -6 -2 -12l-205 -967q131 22 228.5 89.5t160 173.5t89.5 235 q32 151 111.5 270t207.5 119h74q26 -3 43.5 -20.5t17.5 -42.5q0 -64 -63 -74q-82 0 -131 -90.5t-70 -194.5q-19 -88 -53.5 -168t-85 -148.5t-121.5 -127.5q-84 -67 -209.5 -115.5t-228.5 -48.5l-35 -166q-15 -43 -60 -49h-73q-26 3 -43 21t-17 45v10l31 141 q-209 26 -328.5 146.5t-119.5 324.5q0 52 16 149t16 144q0 55 -13 91t-60 36q-26 3 -43 21t-17 45z" />
<glyph unicode="&#xad;" horiz-adv-x="1847" d="M129 66q0 32 17 56t47 28h417q0 81 -32.5 149t-103.5 181.5t-106.5 195.5t-35.5 176q0 146 85.5 260t220 187t288.5 109t291 36q111 0 231 -25t225.5 -78.5t171.5 -140.5t66 -207q0 -121 -65 -226.5t-167.5 -206t-214.5 -212t-157 -198.5h383q25 -3 43 -21t18 -43 q0 -34 -17 -58t-48 -28h-490q-26 3 -42.5 21.5t-16.5 44.5q0 10 2 16q26 120 103 226t209.5 251t195.5 241t63 197q0 108 -80 178t-193.5 101t-222.5 31q-103 0 -223 -29t-225 -87t-170.5 -145t-65.5 -202q0 -76 26 -146t80.5 -179.5t83 -191t28.5 -171.5q0 -65 -11.5 -107 t-58.5 -49h-490q-26 3 -42.5 21.5t-16.5 44.5z" />
<glyph unicode="&#xae;" horiz-adv-x="1493" d="M281 995q0 28 17.5 48t45.5 24h154l26 117q16 64 61.5 113t110 82t132 48t130.5 15q110 0 201 -21q27 -7 27 -30l-21 -97q-7 -24 -28 -24q-2 0 -13 2q-88 33 -182 33q-63 0 -147.5 -20.5t-98.5 -61.5l-32 -156h225q25 -3 42 -20t17 -43q0 -29 -16.5 -49.5t-44.5 -24.5 h-248l-186 -881q-16 -43 -60 -49h-47q-26 3 -42.5 21.5t-16.5 44.5q0 10 2 16l180 848h-127q-27 3 -44 21t-17 44zM995 66v10l201 944l2 6l33 154q22 88 91.5 146.5t162 87t182.5 28.5q109 0 201 -21q26 -7 26 -30l-20 -97q-7 -24 -29 -24q-2 0 -12 2q-88 33 -182 33 q-63 0 -148 -20.5t-98 -61.5l-33 -156h225q27 -3 43.5 -20.5t16.5 -42.5q0 -29 -17 -49.5t-45 -24.5h-247l-187 -881q-15 -43 -59 -49h-47q-26 3 -43 21t-17 45z" />
<glyph unicode="&#xaf;" horiz-adv-x="1350" d="M281 995q0 28 17.5 48t45.5 24h154l26 119q19 76 73 134t128 90t152 32q58 0 116 -10.5t58 -40.5l-23 -99q-4 -26 -29 -26q-3 0 -26 10t-53 19.5t-60 9.5q-48 0 -99.5 -21t-64.5 -61l-32 -156h243q27 -3 43.5 -20.5t16.5 -42.5q0 -29 -17 -49.5t-45 -24.5h-266l-186 -881 q-16 -43 -60 -49h-47q-26 3 -42.5 21.5t-16.5 44.5q0 10 2 16l180 848h-127q-27 3 -44 21t-17 44zM995 66v10l201 944q15 41 59 47h48q26 -3 42.5 -20.5t16.5 -42.5v-13l-201 -942q-15 -43 -59 -49h-47q-26 3 -43 21t-17 45zM1233 1282v10l18 84q17 41 60 47h86 q25 -3 42 -20t17 -43v-12l-18 -82q-16 -43 -60 -49h-86q-25 3 -42 21t-17 44z" />
<glyph unicode="&#xb0;" horiz-adv-x="1350" d="M281 995q0 28 17.5 48t45.5 24h154l26 119q19 76 73 134t128 90t152 32q58 0 116 -10.5t58 -40.5l-21 -97q-7 -24 -29 -24q-2 0 -12 2q-61 33 -129 33q-48 0 -99.5 -21t-64.5 -61l-32 -156h243q27 -3 43.5 -20.5t16.5 -42.5q0 -29 -17 -49.5t-45 -24.5h-266l-186 -881 q-16 -43 -60 -49h-47q-26 3 -42.5 21.5t-16.5 44.5q0 10 2 16l180 848h-127q-27 3 -44 21t-17 44zM995 66v10l277 1298q12 41 57 47h47q27 -3 44.5 -20.5t17.5 -42.5q0 -6 -2 -12l-275 -1297q-15 -43 -59 -49h-47q-26 3 -43 21t-17 45z" />
<glyph unicode="&#xb1;" horiz-adv-x="2062" d="M281 995q0 28 17.5 48t45.5 24h154l26 119q20 79 81 137t145 88.5t165 30.5q89 0 181 -23q8 -2 13 -10.5t5 -17.5l-20 -97q-7 -24 -29 -24q-2 0 -12 2q-73 33 -154 33q-57 0 -123 -20t-80 -62l-32 -156h243q27 -3 43.5 -20.5t16.5 -42.5q0 -29 -17 -49.5t-45 -24.5h-266 l-186 -881q-16 -43 -60 -49h-47q-26 3 -42.5 21.5t-16.5 44.5q0 10 2 16l180 848h-127q-27 3 -44 21t-17 44zM997 66v10l201 944l2 6l33 154q19 78 73.5 137.5t129 92t151.5 32.5q74 0 156 -21q18 -6 18 -30l-20 -97q-7 -26 -29 -26q-2 0 -12 2q-60 35 -129 35 q-48 0 -100 -21t-64 -61l-33 -156h244q25 -3 42 -20t17 -43q0 -29 -16.5 -49.5t-44.5 -24.5h-266l-187 -881q-15 -43 -59 -49h-47q-26 3 -43 21t-17 45zM1706 66v10l201 944q15 41 59 47h47q27 -3 43.5 -20.5t16.5 -42.5v-13l-201 -942q-15 -43 -60 -49h-47 q-26 3 -42.5 21.5t-16.5 44.5zM1944 1282v10l18 84q15 41 59 47h86q27 -3 43.5 -20.5t16.5 -42.5v-12l-19 -82q-15 -43 -59 -49h-86q-25 3 -42 21t-17 44z" />
<glyph unicode="&#xb2;" horiz-adv-x="2062" d="M281 995q0 28 17.5 48t45.5 24h154l26 119q20 79 81 137t145 88.5t165 30.5q89 0 181 -23q8 -2 13 -10.5t5 -17.5l-20 -97q-7 -24 -29 -24q-2 0 -12 2q-73 33 -154 33q-57 0 -123 -20t-80 -62l-32 -156h243q27 -3 43.5 -20.5t16.5 -42.5q0 -29 -17 -49.5t-45 -24.5h-266 l-186 -881q-16 -43 -60 -49h-47q-26 3 -42.5 21.5t-16.5 44.5q0 10 2 16l180 848h-127q-27 3 -44 21t-17 44zM997 66v10l201 944l2 6l33 154q19 78 73.5 137.5t129 92t151.5 32.5q57 0 115.5 -10.5t58.5 -40.5l-20 -97q-7 -24 -29 -24q-2 0 -12 2q-61 33 -129 33 q-48 0 -100 -21t-64 -61l-33 -156h244q25 -3 42 -20t17 -43q0 -29 -16.5 -49.5t-44.5 -24.5h-266l-187 -881q-15 -43 -59 -49h-47q-26 3 -43 21t-17 45zM1706 66v10l276 1298q14 41 58 47h47q27 -3 44 -20t17 -43q0 -6 -2 -12l-274 -1297q-15 -43 -60 -49h-47 q-26 3 -42.5 21.5t-16.5 44.5z" />
<glyph unicode="&#xb3;" horiz-adv-x="567" d="M213 66v10l201 944q15 41 59 47h47q27 -3 43.5 -20.5t16.5 -42.5v-13l-201 -942q-15 -43 -60 -49h-47q-26 3 -42.5 21.5t-16.5 44.5z" />
<glyph unicode="&#xb4;" horiz-adv-x="639" d="M-225 -225q0 2 2 10l53 88q2 10 20 10q3 0 13 -2q88 -43 186 -43q79 0 140 33t75 102q0 9 2 13l219 1034q17 41 60 47h47q25 -3 42 -20t17 -43q0 -13 -2 -17l-219 -1034q-37 -114 -136 -186t-222 -72q-66 0 -181.5 21.5t-115.5 58.5z" />
<glyph unicode="&#xb5;" d="M510 1393q0 21 25 28h120l9 -2l321 -178q16 -10 16 -27q0 -21 -24 -28h-86l-8 2l-357 178q-16 10 -16 27z" />
<glyph unicode="&#xb6;" d="M793 1214q0 21 18 27l395 178l8 2h121q27 -7 27 -28q0 -20 -19 -27l-430 -178l-8 -2h-86q-26 7 -26 28z" />
<glyph unicode="&#xb8;" d="M504 1350q0 27 15.5 47t43.5 24h17q14 0 29 -10t16 -10q51 -7 100 -9t95.5 -2.5t94.5 -0.5h9q100 0 181.5 3t127.5 11q1 0 14.5 9t26.5 9h16q27 -3 44.5 -20.5t17.5 -42.5q0 -119 -437 -119q-114 0 -195.5 5t-148.5 22q-61 27 -67 84z" />
<glyph unicode="&#xb9;" d="M449 1276l18 86q5 19 25 24h870q27 -8 27 -30l-19 -86q-5 -22 -24 -27h-871q-26 7 -26 33z" />
<glyph unicode="&#xba;" horiz-adv-x="1749" d="M868 1305q0 48 57.5 77.5t130.5 41.5t124 12q77 0 168.5 -25t91.5 -80q0 -68 -110 -99.5t-200 -31.5q-78 0 -170 25t-92 80zM1012 1309q0 -49 131 -49q62 0 107.5 12t45.5 55q0 49 -129 49q-63 0 -109 -12.5t-46 -54.5z" />
<glyph unicode="&#xbb;" horiz-adv-x="1137" d="M328 -264q0 13 8 18l225 189q7 7 19 10h86q26 -7 26 -29q0 -12 -8 -20l-209 -189q-8 -6 -18 -8h-103q-26 7 -26 29z" />
<glyph unicode="&#xbc;" horiz-adv-x="1208" d="M215 66q0 10 2 16l246 1155q26 75 106 120t179.5 65t183.5 20q79 0 169 -18t158 -63.5t68 -119.5q0 -64 -44.5 -116t-108 -88.5t-130.5 -59.5q96 -70 146.5 -179t50.5 -235q0 -150 -74 -285.5t-201 -216.5t-280 -81q-61 0 -148 15.5t-87 47.5q0 2 2 12l47 80q6 12 22 12 q2 0 13 -2q74 -28 170 -28q111 0 195 65t127.5 168.5t43.5 216.5q0 101 -39 183.5t-115 131t-178 48.5q-26 7 -26 33l18 79q5 20 25 25q114 0 198 20q72 22 136.5 58.5t64.5 87.5q0 41 -84 56.5t-156 15.5q-84 0 -177 -18.5t-109 -69.5q-2 -3 -2 -13l-246 -1155 q-15 -43 -59 -49h-48q-26 3 -42.5 21.5t-16.5 44.5z" />
<glyph unicode="&#xbd;" horiz-adv-x="1847" d="M182 215q0 113 81.5 187.5t206.5 115t252.5 54.5t240.5 14l30 151q6 28 6 54q0 52 -22.5 92.5t-62.5 63t-91 22.5q-111 0 -209 -28.5t-202 -86.5q-11 -2 -13 -2q-11 0 -19.5 9.5t-8.5 23.5l12 94q3 16 18 22q219 97 439 97q66 0 127.5 -21.5t110.5 -65t73 -102.5 q88 88 196 138.5t226 50.5q107 0 185.5 -46t118.5 -129t40 -190q0 -76 -23 -180q-15 -43 -59 -49h-717q-6 -37 -6 -76q0 -134 79 -222.5t212 -88.5q78 0 184 42.5t166 96.5q12 8 21 8q28 0 28 -31l-10 -90q-3 -16 -12 -20q-84 -67 -184 -105t-203 -38q-78 0 -150.5 24.5 t-132 69.5t-100.5 110q-82 -114 -249 -159t-347 -45q-66 0 -118.5 30.5t-83 85t-30.5 119.5zM352 242q0 -66 64 -95.5t137 -29.5q176 0 287 86q32 28 49.5 57t26.5 65t14.5 81t9.5 71q-100 0 -236.5 -20.5t-244 -73t-107.5 -141.5zM1149 612h612q13 85 13 121 q0 107 -50 167.5t-153 60.5q-93 0 -178 -50.5t-148 -131t-96 -167.5z" />
<glyph unicode="&#xbe;" horiz-adv-x="1991" d="M195 422q0 125 53 247.5t144 218.5t210.5 153t245.5 57q130 0 235.5 -66t155.5 -182q92 112 217 180t258 68q107 0 185.5 -46t118.5 -129t40 -190q0 -72 -22 -180q-16 -43 -60 -49h-716q-7 -35 -7 -76q0 -134 79 -222.5t212 -88.5q49 0 117.5 20t131 52.5t101.5 66.5 q14 8 21 8q29 0 29 -31l-11 -90q-3 -16 -12 -20q-84 -67 -184 -105t-203 -38q-132 0 -246.5 70.5t-165.5 187.5q-61 -76 -141 -134.5t-172 -91t-186 -32.5q-125 0 -222.5 58t-151.5 158.5t-54 225.5zM360 418q0 -132 73.5 -216.5t205.5 -84.5q134 0 243 83.5t168.5 214 t59.5 261.5q0 66 -19.5 118.5t-56.5 90t-88 57t-117 19.5q-136 0 -243.5 -78.5t-166.5 -203.5t-59 -261zM1290 612h613q12 78 12 121q0 107 -50 167.5t-153 60.5q-93 0 -177.5 -50.5t-149 -132.5t-95.5 -166z" />
<glyph unicode="&#xbf;" d="M80 -139q0 22 16 43l201 223q-100 118 -100 287q0 126 55.5 249.5t152.5 222.5t218 155.5t249 56.5q130 0 236 -64l199 219q15 23 47 23q29 0 49 -21t20 -49q0 -22 -16 -43l-197 -219q99 -119 99 -291q0 -129 -55 -250.5t-150.5 -217t-217 -150.5t-251.5 -55 q-131 0 -234 59l-202 -225q-20 -23 -47 -23t-49.5 21.5t-22.5 48.5zM358 406q0 -95 41 -164l611 682q-76 37 -166 37q-110 0 -200.5 -46.5t-154 -124.5t-97.5 -179t-34 -205zM502 152q66 -35 162 -35q109 0 199 43.5t152.5 120t96 177t33.5 206.5q0 99 -37 163z" />
<glyph unicode="&#xc0;" horiz-adv-x="2175" d="M111 35q0 17 10 31l973 1271q52 64 125 64h1038q26 -3 43.5 -20.5t17.5 -43.5q0 -69 -63 -80h-744l-98 -460h643q27 -3 44.5 -20.5t17.5 -43.5q0 -31 -16.5 -53.5t-47.5 -26.5h-670l-108 -503h749q26 -3 44 -21t18 -43q0 -32 -17.5 -57t-48.5 -29h-903q-26 3 -42.5 21.5 t-16.5 44.5v10l74 342h-558l-270 -352q-49 -66 -123 -66h-37q-34 0 -34 35zM684 561h477l150 696h-92z" />
<glyph unicode="&#xc1;" horiz-adv-x="2460" d="M174 563q0 182 91.5 345t241 282.5t332.5 186.5t361 67q64 0 190 -21.5t185 -21.5h965q26 -3 43.5 -20.5t17.5 -43.5q0 -31 -16.5 -52.5t-47.5 -27.5h-895l-98 -460h795q27 -3 44 -20t17 -44q0 -33 -17 -54.5t-46 -25.5h-821l-109 -503h901q26 -3 44 -21t18 -43 q0 -32 -17.5 -57t-48.5 -29h-1018h-8q-49 0 -122.5 -10.5t-147.5 -21.5t-123 -11q-137 0 -264 40t-229 118.5t-160 191.5t-58 256zM379 602q0 -150 71 -266t192.5 -179t270.5 -63q92 0 151 15.5t96 50t60.5 94t43.5 147.5l127 598q18 94 18 150q0 74 -31.5 108t-78 42 t-128.5 8q-141 0 -283 -52.5t-258 -150t-183.5 -227t-67.5 -275.5z" />
<glyph unicode="&#xc2;" horiz-adv-x="1991" d="M274 563q0 182 91.5 345t241 282.5t332.5 186.5t361 67q224 0 402 -96l178 176q16 16 43 16q28 0 51 -22t23 -50q0 -26 -17 -43l-163 -159q45 -39 81.5 -90.5t60.5 -105.5t37 -113.5t13 -125.5q0 -184 -90 -344t-241 -279.5t-333 -185t-360 -65.5q-225 0 -399 96 l-180 -176q-15 -16 -44 -16q-27 0 -49 22t-22 49q0 30 16 43l162 160q-92 83 -143.5 194.5t-51.5 233.5zM465 559q0 -90 29 -171.5t88 -141.5l1007 991q-131 70 -317 70q-211 0 -397.5 -96t-298 -267t-111.5 -385zM696 162q133 -68 318 -68q158 0 304 53t260.5 154 t178.5 239t64 298q0 91 -29 173t-88 142z" />
<glyph unicode="&#xc3;" horiz-adv-x="567" d="M90 741q0 23 14.5 39.5t34.5 22.5l604 162q5 2 17 2q18 0 33.5 -9.5t23.5 -27.5t8 -35q0 -45 -49 -64l-604 -159q-6 -2 -16 -2q-30 0 -48 20t-18 51z" />
<glyph unicode="&#xc4;" d="M571 1319q0 93 70 104h80q25 -3 42 -20t17 -43q0 -95 -69 -107h-80q-26 3 -43 21t-17 45zM1067 1319q0 94 70 104h80q26 -3 42.5 -20.5t16.5 -42.5q0 -95 -70 -107h-80q-26 3 -42.5 21.5t-16.5 44.5z" />
<glyph unicode="&#x2000;" horiz-adv-x="782" />
<glyph unicode="&#x2001;" horiz-adv-x="1565" />
<glyph unicode="&#x2002;" horiz-adv-x="782" />
<glyph unicode="&#x2003;" horiz-adv-x="1565" />
<glyph unicode="&#x2004;" horiz-adv-x="521" />
<glyph unicode="&#x2005;" horiz-adv-x="391" />
<glyph unicode="&#x2006;" horiz-adv-x="260" />
<glyph unicode="&#x2007;" horiz-adv-x="260" />
<glyph unicode="&#x2008;" horiz-adv-x="195" />
<glyph unicode="&#x2009;" horiz-adv-x="313" />
<glyph unicode="&#x200a;" horiz-adv-x="86" />
<glyph unicode="&#x2010;" horiz-adv-x="852" d="M141 530q0 28 17.5 47.5t44.5 24.5h561q27 -3 44 -20t17 -43q0 -64 -63 -74h-561q-25 3 -42.5 21.5t-17.5 43.5z" />
<glyph unicode="&#x2011;" horiz-adv-x="852" d="M141 530q0 28 17.5 47.5t44.5 24.5h561q27 -3 44 -20t17 -43q0 -64 -63 -74h-561q-25 3 -42.5 21.5t-17.5 43.5z" />
<glyph unicode="&#x2012;" horiz-adv-x="852" d="M141 530q0 28 17.5 47.5t44.5 24.5h561q27 -3 44 -20t17 -43q0 -64 -63 -74h-561q-25 3 -42.5 21.5t-17.5 43.5z" />
<glyph unicode="&#x2013;" horiz-adv-x="1192" d="M141 530q0 28 26 47.5t67 24.5h840q40 -3 65.5 -20t25.5 -43q0 -64 -94 -74h-840q-38 3 -64 21.5t-26 43.5z" />
<glyph unicode="&#x2014;" horiz-adv-x="2216" d="M141 530q0 28 52.5 47.5t133.5 24.5h1679q81 -3 132 -20t51 -43q0 -64 -189 -74h-1679q-75 3 -127.5 21.5t-52.5 43.5z" />
<glyph unicode="&#x202f;" horiz-adv-x="313" />
<glyph unicode="&#x205f;" horiz-adv-x="391" />
<glyph unicode="&#x2219;" d="M481 1348q0 21 25 28h86l8 -2l293 -149l356 149l8 2h86q27 -7 27 -28t-18 -27l-408 -180l-104 -2l-9 2l-333 180q-17 9 -17 27z" />
<glyph unicode="&#xe000;" horiz-adv-x="1065" d="M0 1065h1065v-1065h-1065v1065z" />
</font>
</defs>
</svg>
