<?xml version="1.0" standalone="no"?>
<!DOCTYPE svg PUBLIC "-//W3C//DTD SVG 1.1//EN" "http://www.w3.org/Graphics/SVG/1.1/DTD/svg11.dtd" >
<svg xmlns="http://www.w3.org/2000/svg">
<metadata>
This is a custom SVG webfont generated by Font Squirrel.
Copyright   : Copyright C 1994 Basil K Malyshev All Rights Reserved012BaKoMa Fonts Collection LevelB
</metadata>
<defs>
<font id="cmss12Regular" horiz-adv-x="1001" >
<font-face units-per-em="2048" ascent="1638" descent="-410" />
<missing-glyph horiz-adv-x="668" />
<glyph unicode=" "  horiz-adv-x="668" />
<glyph unicode="&#x09;" horiz-adv-x="668" />
<glyph unicode="&#xa0;" horiz-adv-x="668" />
<glyph unicode="!" horiz-adv-x="637" d="M231 0v174h175v-174h-175zM231 1421h175l-17 -1059l-139 -2z" />
<glyph unicode="&#x22;" d="M68 991l53 256h-51l-2 174h174v-172l-86 -256zM457 991l53 256h-51l-2 174h174v-172l-86 -256z" />
<glyph unicode="#" horiz-adv-x="1671" d="M111 309v10q0 12 11.5 22.5t22.5 10.5h377l84 318h-461q-11 0 -22.5 10.5t-11.5 21.5v11q0 11 11.5 21.5t22.5 10.5h482l172 652q7 24 37 24q13 0 24.5 -9.5t11.5 -22.5v-11l-165 -633h383l172 652q7 24 36 24q14 0 25.5 -9.5t11.5 -22.5v-11l-166 -633h355q13 0 24 -10 t11 -22v-11q0 -12 -11 -22t-24 -10h-377l-84 -318h461q13 0 24 -10t11 -23v-10q0 -11 -11 -22t-24 -11h-482l-172 -649q-7 -24 -34 -24q-13 0 -26 9.5t-13 22.5v11l166 630h-383l-172 -649q-9 -24 -35 -24q-13 0 -26 9.5t-13 22.5v11l166 630h-355q-11 0 -22.5 11.5 t-11.5 21.5zM600 352h385l84 318h-385z" />
<glyph unicode="$" d="M90 123l27 145q65 -62 147.5 -101t173.5 -48v540q-99 26 -171.5 78t-114 132t-41.5 180q0 92 43 177t118.5 141t165.5 71v98h127v-96q36 0 95 -17t115.5 -44.5t80.5 -51.5l-25 -141q-126 104 -266 119v-488q101 -26 174 -84t112.5 -143.5t39.5 -188.5q0 -97 -41.5 -186 t-117 -151t-167.5 -78v-101h-127v97q-71 0 -185.5 46t-162.5 95zM262 1075q0 -78 49.5 -140.5t126.5 -84.5v448q-77 -20 -126.5 -82t-49.5 -141zM565 125q80 25 127 95.5t47 156.5q0 55 -21 106.5t-59.5 89t-93.5 54.5v-502z" />
<glyph unicode="%" horiz-adv-x="1671" d="M111 1124q0 62 17.5 134.5t51.5 135.5t88 102.5t123 39.5q90 0 153 -66.5t93.5 -162t30.5 -183.5q0 -87 -30.5 -183.5t-93.5 -163t-153 -66.5t-153.5 65t-95 161t-31.5 187zM272 1124q0 -101 23.5 -191.5t95.5 -90.5q46 0 74.5 51.5t39.5 118.5t11 112t-11 111.5 t-39.5 118t-74.5 51.5q-72 0 -95.5 -90.5t-23.5 -190.5zM354 -72q0 9 4 13l891 1575q10 20 35 20q13 0 25 -9.5t12 -23.5v-10q0 -8 -4 -12l-891 -1575q-10 -21 -33 -21q-14 0 -26.5 10t-12.5 23v10zM1001 299q0 62 17.5 134.5t52 136t88.5 102.5t123 39q90 0 153 -66.5 t93.5 -162t30.5 -183.5q0 -65 -16 -136t-50 -134t-88 -103.5t-123 -40.5q-89 0 -153.5 66t-96 162t-31.5 186zM1163 299q0 -283 119 -283q65 0 95 97t30 186q0 45 -12 112.5t-40 118t-73 50.5q-72 0 -95.5 -90.5t-23.5 -190.5z" />
<glyph unicode="&#x26;" horiz-adv-x="1516" d="M84 301q0 72 32 140t85 112l182 162q-64 169 -64 342q0 92 30.5 186.5t95 157.5t159.5 63q81 0 143 -48t94.5 -123.5t32.5 -155.5q0 -78 -48 -155.5t-116.5 -146.5t-146.5 -137q50 -104 134 -222.5t175 -217.5q10 8 41 39q66 64 123.5 153t97 182.5t68.5 201.5l133 -35 q-100 -390 -364 -631q99 -76 198 -76q121 0 236 41v-143q-13 -13 -109.5 -23t-126.5 -10q-166 0 -321 119q-186 -119 -402 -119q-95 0 -178.5 45t-133.5 124.5t-50 174.5zM248 313q0 -86 57 -153.5t141 -67.5q155 0 297 76q-193 201 -305 420l-114 -101q-76 -68 -76 -174z M459 1137q0 -151 53 -310q90 81 150.5 157.5t60.5 152.5q0 73 -27 134.5t-92 61.5q-69 0 -107 -60.5t-38 -135.5z" />
<glyph unicode="'" horiz-adv-x="557" d="M190 991l54 256h-51l-3 174h175v-172l-86 -256z" />
<glyph unicode="(" horiz-adv-x="778" d="M156 512q0 148 20 287.5t65 272t120 252t178 212.5h131q-99 -98 -168 -219t-109.5 -255.5t-57 -268.5t-16.5 -281q0 -146 16.5 -280.5t57.5 -270.5t110.5 -258t166.5 -217h-131q-138 124 -223 289.5t-122.5 354t-37.5 382.5z" />
<glyph unicode=")" horiz-adv-x="778" d="M111 -514q96 95 165 215t108.5 252.5t57 274t17.5 284.5t-17.5 284.5t-56.5 272t-107.5 250.5t-166.5 217h131q102 -92 176.5 -212t119 -251t65 -273.5t20.5 -287.5q0 -194 -37.5 -382.5t-122.5 -354.5t-221 -289h-131z" />
<glyph unicode="*" d="M127 895q0 41 35 59l231 127l-231 127q-35 20 -35 60q0 31 21 53t53 22q19 0 39 -12l204 -145l-16 278q0 30 21 51t53 21q27 0 49 -20t22 -50l-16 -280l205 145q18 12 39 12q32 0 52.5 -22.5t20.5 -52.5q0 -40 -34 -60l-232 -127l232 -127q34 -19 34 -59q0 -30 -21 -53 t-52 -23q-21 0 -39 12l-205 146l16 -277q0 -32 -20.5 -52.5t-50.5 -20.5q-29 0 -51.5 20t-22.5 49l16 281l-204 -146q-19 -12 -39 -12q-31 0 -52.5 22.5t-21.5 53.5z" />
<glyph unicode="+" horiz-adv-x="1559" d="M111 506v10q0 11 11 22t23 11h596v598q0 13 12.5 23t26.5 10q13 0 25 -10t12 -23v-598h596q13 0 24 -10t11 -23v-10q0 -14 -11.5 -23.5t-23.5 -9.5h-596v-598q0 -13 -12 -23t-25 -10q-14 0 -26.5 10t-12.5 23v598h-596q-11 0 -22.5 10.5t-11.5 22.5z" />
<glyph unicode="," horiz-adv-x="557" d="M190 174h175v-172l-86 -256l-89 -2l54 256h-51z" />
<glyph unicode="-" horiz-adv-x="668" d="M23 391v127h532v-127h-532z" />
<glyph unicode="." horiz-adv-x="557" d="M190 174h175v-174h-172z" />
<glyph unicode="/" d="M111 -469l2 6l704 1974q10 25 37 25q13 0 25 -9.5t12 -23.5v-10l-2 -6l-705 -1974q-10 -25 -34 -25q-13 0 -26 9.5t-13 23.5v10z" />
<glyph unicode="0" d="M80 666q0 126 16 248t59.5 228t128 174t218.5 68q133 0 218 -68t128.5 -177t58.5 -228t15 -245q0 -172 -31 -330t-125 -268.5t-264 -110.5q-248 0 -335 210t-87 499zM244 698q0 -146 13 -272.5t70.5 -232t174.5 -105.5q116 0 173 105t70 232t13 273q0 141 -13 255.5 t-69.5 207t-173.5 92.5q-118 0 -175 -93t-70 -207t-13 -255z" />
<glyph unicode="1" d="M176 1124v127q256 0 389 133h41v-1257h250v-127h-668v127h250v1044q-111 -47 -262 -47z" />
<glyph unicode="2" d="M84 1059q46 150 143 237.5t246 87.5q125 0 222.5 -58.5t151.5 -159.5t54 -226q0 -88 -37.5 -163.5t-95.5 -138t-151.5 -144.5t-122.5 -111l-242 -238l649 2v-147h-801v135l246 248q11 11 108.5 104t149.5 153.5t88.5 137t36.5 162.5q0 62 -19 118t-56.5 100t-91 67.5 t-118.5 23.5q-121 0 -179.5 -85.5t-90.5 -227.5z" />
<glyph unicode="3" d="M84 166l20 129q70 -97 174.5 -152t217.5 -55q75 0 128.5 41t81 107t27.5 139q0 72 -28 137.5t-82 106t-127 40.5h-162v132l121 10q66 0 120 41t84.5 105.5t30.5 127.5q0 84 -55.5 134.5t-138.5 50.5q-67 0 -129 -27t-107 -72.5t-72 -111.5l-77 116q39 65 99.5 115 t133.5 77t152 27q89 0 173.5 -38t138.5 -108t54 -163q0 -110 -60.5 -203.5t-158.5 -146.5q78 -25 140 -76.5t98.5 -123.5t36.5 -150q0 -86 -33 -162t-92 -134t-136 -90t-161 -32q-118 0 -228.5 55t-183.5 154z" />
<glyph unicode="4" d="M55 344v131l502 866h195v-866h194v-131h-194v-344h-170v344h-527zM221 475h371v782h-2q0 -68 -56 -196.5t-139 -279t-174 -306.5z" />
<glyph unicode="5" d="M74 160l71 119q47 -88 133 -139.5t183 -51.5q85 0 143 47.5t85.5 122t27.5 158.5q0 73 -17 146.5t-60.5 126t-117.5 52.5q-48 0 -92 -20t-77 -56t-54 -85h-141v761h676v-135h-523v-413q90 79 211 79q86 0 157.5 -39.5t121 -106t75 -148t25.5 -162.5q0 -91 -34 -175.5 t-93 -147t-139.5 -99.5t-173.5 -37q-116 0 -218 53.5t-169 149.5z" />
<glyph unicode="6" d="M84 672q0 163 61 327.5t181.5 274.5t285.5 110q43 0 122.5 -12t96.5 -29v-126q-110 43 -219 43q-106 0 -187 -76t-124 -187t-43 -213q62 75 153 118.5t189 43.5q73 0 126 -38t99 -109q53 -81 73 -161t20 -187q0 -123 -50.5 -237.5t-146 -185.5t-219.5 -71 q-164 0 -257.5 114.5t-127 275.5t-33.5 325zM260 451q0 -124 64 -243.5t178 -119.5q93 0 147.5 54t76.5 135t22 174q0 150 -51 257t-185 107q-78 0 -134.5 -45.5t-86 -116.5t-29.5 -147q0 -19 4 -55h-6z" />
<glyph unicode="7" d="M84 1194v147h834v-135q-105 -129 -186.5 -271.5t-138 -298.5t-86.5 -323t-30 -333h-174q0 164 31 330t90.5 320t147.5 296t204 270z" />
<glyph unicode="8" d="M84 373q0 120 78 216.5t194 135.5q-103 34 -174 115.5t-71 183.5q0 77 32.5 144.5t88 115.5t125 74t145.5 26t145.5 -26.5t124 -74t87 -115t32.5 -144.5q0 -103 -72 -184.5t-174 -114.5q118 -39 195.5 -135.5t77.5 -216.5q0 -82 -31.5 -157.5t-90 -134.5t-134.5 -91.5 t-160 -32.5q-83 0 -159.5 32t-136 91.5t-91 135t-31.5 157.5zM254 373q0 -119 65 -202t183 -83q78 0 134.5 39t84 104t27.5 142q0 78 -28.5 143t-84 104t-133.5 39q-118 0 -183 -83t-65 -203zM260 1024q0 -69 30.5 -122t85 -82t126.5 -29q70 0 124 28.5t84.5 82t30.5 122.5 q0 70 -30.5 124t-84.5 83t-124 29q-72 0 -126.5 -29t-85 -83t-30.5 -124z" />
<glyph unicode="9" d="M84 893q0 123 52.5 237t150.5 184t225 70q160 0 251 -115.5t123 -273.5t32 -323q0 -113 -31 -238.5t-93.5 -233t-158 -175.5t-217.5 -68q-77 0 -151.5 24.5t-121.5 71.5l66 113q50 -43 97.5 -60.5t109.5 -17.5q100 0 174 76.5t112.5 187t38.5 207.5q-62 -76 -151.5 -119 t-190.5 -43q-71 0 -125 38t-100 108q-53 81 -72.5 163t-19.5 187zM254 893q0 -151 51 -258t184 -107q79 0 135.5 45.5t85.5 117.5t29 149q0 34 -2 53h4q0 51 -13.5 116t-40 121t-71.5 93t-104 37q-140 0 -199 -108t-59 -259z" />
<glyph unicode=":" horiz-adv-x="557" d="M190 174h175v-174h-172zM190 909h175v-174h-172z" />
<glyph unicode=";" horiz-adv-x="557" d="M190 174h175v-172l-86 -256l-89 -2l54 256h-51zM190 909h175v-174h-172z" />
<glyph unicode="&#x3c;" horiz-adv-x="637" d="M231 850v174h175v-174h-175zM233 -397l17 1059l137 2l19 -1061h-173z" />
<glyph unicode="=" horiz-adv-x="1559" d="M111 309v10q0 12 11.5 22.5t22.5 10.5h1268q12 0 23.5 -9.5t11.5 -23.5v-10q0 -12 -11.5 -22.5t-23.5 -10.5h-1268q-11 0 -22.5 11.5t-11.5 21.5zM111 702v11q0 11 11.5 21.5t22.5 10.5h1268q12 0 23.5 -9.5t11.5 -22.5v-11q0 -13 -11.5 -22.5t-23.5 -9.5h-1268 q-11 0 -22.5 10.5t-11.5 21.5z" />
<glyph unicode="&#x3e;" horiz-adv-x="946" d="M111 -98q0 152 96 241q81 84 124.5 193.5t43.5 224.5v103h139v-103q0 -99 -22.5 -191.5t-66 -175.5t-106.5 -153q-45 -49 -45 -139q0 -96 38 -142.5t132 -46.5q90 0 179 29.5t161 83.5l50 -135q-86 -52 -186 -80.5t-204 -28.5q-154 0 -243.5 84t-89.5 236zM356 850v174 h174v-174h-174z" />
<glyph unicode="?" horiz-adv-x="946" d="M111 1333q30 31 91 56.5t128.5 39t113.5 13.5q106 0 195.5 -33t142 -104.5t52.5 -182.5q0 -69 -25.5 -130.5t-77.5 -104.5q-101 -83 -159 -193.5t-58 -230.5v-103h-139v103q0 101 27.5 196.5t80 178.5t127.5 147q60 48 60 137q0 107 -57 148t-169 41q-162 0 -284 -113z M356 0v174h174v-174h-174z" />
<glyph unicode="@" horiz-adv-x="1335" d="M111 711q0 139 49 270.5t139.5 236t213.5 164.5t267 60q145 0 235.5 -66t135.5 -174.5t59.5 -227.5t14.5 -263q0 -111 -45 -218.5t-130.5 -177t-199.5 -69.5t-199.5 69.5t-130.5 177t-45 218.5t45 218.5t130.5 177t199.5 69.5q82 0 160 -46q-30 79 -90.5 130t-139.5 51 q-114 0 -209 -52t-161.5 -139t-102 -193.5t-35.5 -215.5q0 -108 35.5 -215t102.5 -194.5t163 -139t207 -51.5q162 0 305 67h140q-54 -60 -127 -106t-154 -69t-164 -23q-141 0 -266.5 61t-215 164.5t-138.5 235t-49 270.5zM637 711q0 -66 23 -146t70.5 -134t119.5 -54 t119.5 54t70.5 134t23 146t-23 145.5t-70.5 133.5t-119.5 54t-119.5 -54t-70.5 -133t-23 -146z" />
<glyph unicode="A" horiz-adv-x="1325" d="M55 0l512 1421h189l512 -1421h-191q-7 19 -35.5 97.5t-52 144.5t-57.5 164h-572q-127 -355 -145 -406h-160zM403 528h484q-240 681 -240 738h-2q0 -23 -35 -135t-98 -293.5t-109 -309.5z" />
<glyph unicode="B" horiz-adv-x="1329" d="M186 0v1421h476q109 0 226 -41t195 -122t78 -195q0 -80 -49 -146.5t-127 -110.5t-154 -63q92 -14 182.5 -61.5t148 -123t57.5 -171.5q0 -117 -75.5 -206t-193 -135t-233.5 -46h-531zM360 123h302q81 0 172.5 29.5t153 89t61.5 145.5q0 72 -39.5 127t-101.5 90t-133 52.5 t-140 17.5h-275v-551zM360 805h246q83 0 173.5 28t153 86.5t62.5 143.5q0 79 -64.5 132.5t-155 78t-169.5 24.5h-246v-493z" />
<glyph unicode="C" horiz-adv-x="1280" d="M131 711q0 135 45.5 271.5t131.5 245t207 172.5t265 64q112 0 197 -16.5t180 -54.5l-31 -176h-2q-83 62 -161.5 87t-182.5 25q-144 0 -250.5 -95t-160.5 -238.5t-54 -284.5t54 -285t160.5 -239t250.5 -95q131 0 207.5 26t179.5 103l13 -147v-2q-115 -71 -191 -93 t-209 -22q-144 0 -265 64t-207 173.5t-131.5 245.5t-45.5 271z" />
<glyph unicode="D" horiz-adv-x="1442" d="M182 0v1421h535q139 0 253 -61.5t193.5 -165.5t122.5 -233t43 -263q0 -129 -44.5 -256.5t-125 -226t-194.5 -157t-248 -58.5h-535zM362 123h310q149 0 258 82t164 214.5t55 278.5q0 148 -54 287t-162.5 226t-260.5 87h-310v-1175z" />
<glyph unicode="E" horiz-adv-x="1194" d="M180 0v1421h901v-137l-716 2v-481h659v-131h-659v-529l743 2v-147h-928z" />
<glyph unicode="F" horiz-adv-x="1139" d="M180 0v1421h873v-137l-688 2v-510h604v-131h-604v-645h-185z" />
<glyph unicode="G" horiz-adv-x="1335" d="M131 711q0 184 80.5 359t229.5 284.5t337 109.5q122 0 214 -22.5t194 -77.5l-31 -178q-88 77 -174.5 110t-202.5 33q-143 0 -249 -95t-160 -238.5t-54 -284.5t54 -285t160 -239t249 -95q132 0 260 41v354h-260v131h424v-561q-59 -30 -132.5 -53.5t-147 -35t-144.5 -11.5 q-188 0 -337 109.5t-229.5 284.5t-80.5 360z" />
<glyph unicode="H" horiz-adv-x="1405" d="M180 0v1421h185v-616h673v616h185v-1421h-185v674h-673v-674h-185z" />
<glyph unicode="I" horiz-adv-x="545" d="M180 0v1421h185v-1421h-185z" />
<glyph unicode="J" horiz-adv-x="940" d="M84 43l29 162q41 -41 76 -64.5t79 -37t94 -13.5q102 0 168 54.5t66 154.5v1122h180v-1122q0 -103 -43 -180.5t-122 -119.5t-181 -42q-186 0 -346 86z" />
<glyph unicode="K" horiz-adv-x="1380" d="M182 0v1421h180v-745l703 745h203l-531 -563l557 -858h-198l-475 735l-259 -274v-461h-180z" />
<glyph unicode="L" horiz-adv-x="1081" d="M180 0v1421h185v-1286l632 4v-139h-817z" />
<glyph unicode="M" horiz-adv-x="1739" d="M190 0v1421h246q432 -1162 432 -1222q1 24 39.5 136.5t99.5 283t151 410.5l147 392h243v-1421h-166v1266q-1 -29 -68 -220t-168.5 -466.5t-199.5 -536.5h-158q-430 1152 -432 1223v-1266h-166z" />
<glyph unicode="N" horiz-adv-x="1405" d="M182 0v1421h264q170 -349 301 -619t218.5 -453t89.5 -193v1265h166v-1421h-263q-140 288 -223.5 460t-159.5 329t-150.5 313t-76.5 164v-1266h-166z" />
<glyph unicode="O" horiz-adv-x="1479" d="M111 707q0 135 43.5 271.5t125.5 246t199.5 174.5t259.5 65t260 -65.5t200 -175.5t124.5 -243.5t42.5 -272.5q0 -134 -43 -268.5t-126.5 -244t-201 -173.5t-256.5 -64q-187 0 -330.5 110t-220.5 283.5t-77 356.5zM295 739q0 -104 26 -215t80.5 -210t140 -159.5 t197.5 -60.5t198 61t139 157.5t79.5 209.5t26.5 217q0 136 -50.5 274t-150.5 227t-242 89q-143 0 -244 -89.5t-150.5 -227.5t-49.5 -273z" />
<glyph unicode="P" horiz-adv-x="1274" d="M182 0v1421h508q119 0 228 -52.5t177 -148t68 -214.5q0 -91 -39 -169.5t-107 -135t-154.5 -87t-172.5 -30.5h-323v-584h-185zM362 711h281q91 0 171.5 33.5t129.5 100.5t49 161q0 92 -49 158.5t-129.5 100t-171.5 33.5h-281v-587z" />
<glyph unicode="Q" horiz-adv-x="1479" d="M111 707q0 135 43.5 271.5t125.5 246t199.5 174.5t259.5 65t260 -65.5t200 -175.5t124.5 -243.5t42.5 -272.5q0 -120 -33 -240t-99.5 -222.5t-162.5 -174.5l238 -326h-217l-168 246q-94 -33 -185 -33q-187 0 -330.5 110t-220.5 283.5t-77 356.5zM291 707 q0 -142 49.5 -284.5t152 -236.5t246.5 -94q51 0 105 17l-199 288h186l152 -209q52 45 92.5 106t65 131t35 137.5t10.5 144.5q0 105 -27.5 214.5t-82 201t-140 149t-197.5 57.5q-145 0 -247.5 -96t-151.5 -241t-49 -285z" />
<glyph unicode="R" horiz-adv-x="1290" d="M182 0v1421h488q118 0 235.5 -45t195 -132.5t77.5 -205.5q0 -89 -47.5 -165.5t-126 -128.5t-166.5 -76l395 -668h-184l-373 645h-314v-645h-180zM362 776h283q60 0 125 15t118.5 45.5t86.5 82.5t33 119t-33.5 119t-85.5 82t-114.5 44.5t-129.5 14.5h-283v-522z" />
<glyph unicode="S" horiz-adv-x="1114" d="M90 98l31 178q185 -174 436 -174q71 0 136 35t104 96.5t39 135.5q0 61 -27 113.5t-75 90t-105 52.5l-195 51q-137 36 -230 142.5t-93 244.5q0 85 36.5 159.5t101.5 129.5t144 83.5t164 28.5q113 0 197.5 -23t177.5 -77l-31 -178q-77 73 -157.5 105t-186.5 32 q-69 0 -133.5 -29.5t-106 -84.5t-41.5 -126q0 -56 27.5 -103t73.5 -80t98 -46l195 -49q94 -24 169 -84.5t118.5 -148t43.5 -183.5q0 -89 -35 -168t-96.5 -138t-143.5 -92.5t-169 -33.5q-254 0 -467 141z" />
<glyph unicode="T" horiz-adv-x="1366" d="M72 1284v137h1222v-137l-518 2v-1286h-184v1286z" />
<glyph unicode="U" horiz-adv-x="1364" d="M180 473v948h185v-948q0 -159 84 -276t239 -117q105 0 179.5 54.5t113.5 144.5t39 194v948h164v-948q0 -103 -38.5 -196.5t-106 -165.5t-157.5 -113t-194 -41q-139 0 -255.5 70t-184.5 190t-68 256z" />
<glyph unicode="V" horiz-adv-x="1325" d="M29 1421h190q82 -213 199.5 -528.5t186.5 -509t71 -227.5q0 27 70 225.5t199 544t185 495.5h164l-536 -1421h-193z" />
<glyph unicode="W" horiz-adv-x="1882" d="M29 1421h182q125 -440 224 -814t100 -451q0 42 32.5 183.5t76 305t120 437.5t94.5 339h178q328 -1163 330 -1265q0 102 328 1265h157l-399 -1421h-186q-8 28 -76.5 272.5t-130 473t-92.5 357t-31 163.5q-1 -62 -102.5 -442t-227.5 -824h-178z" />
<glyph unicode="X" horiz-adv-x="1325" d="M29 0l528 750l-502 671h215l377 -526l365 526h200l-475 -671l557 -750h-215l-432 621l-420 -621h-198z" />
<glyph unicode="Y" horiz-adv-x="1325" d="M6 1421h215q455 -682 455 -698q2 16 457 698h184l-565 -852v-569h-181v569z" />
<glyph unicode="Z" horiz-adv-x="1225" d="M111 0v90l768 1200l-740 -2v133h973v-88l-766 -1198l776 4v-139h-1011z" />
<glyph unicode="[" horiz-adv-x="580" d="M199 -512v2048h336v-131h-183v-1786h183v-131h-336z" />
<glyph unicode="\" d="M371 1165l88 256h86l-53 -256h53v-172l-172 -2zM760 1165l88 256h86l-53 -256h53v-172l-172 -2z" />
<glyph unicode="]" horiz-adv-x="580" d="M43 -381h182v1786h-182v131h336v-2048h-336v131z" />
<glyph unicode="^" d="M156 1079l278 342h133l279 -340l-129 -2l-215 248l-215 -246z" />
<glyph unicode="_" horiz-adv-x="557" d="M186 1206v185h185v-185h-185z" />
<glyph unicode="`" horiz-adv-x="557" d="M190 1165l89 256h86l-54 -256h54v-172l-172 -2z" />
<glyph unicode="a" horiz-adv-x="958" d="M86 246q0 102 96.5 162t224 84t234.5 24v94q0 77 -44 140t-118 63q-95 0 -167 -23.5t-146 -78.5l-12 143q83 48 155 67t170 19q66 0 125.5 -26t105 -72t70.5 -105.5t25 -126.5v-610h-160v74q-123 -94 -340 -94q-97 0 -158 83t-61 183zM240 246q0 -64 55.5 -99.5 t122.5 -35.5q52 0 102.5 15.5t85.5 50t35 85.5v141q-65 0 -160 -13.5t-168 -49t-73 -94.5z" />
<glyph unicode="b" horiz-adv-x="1028" d="M156 0v1421h159v-602q140 111 330 111q104 0 174.5 -76t104.5 -187t34 -212q0 -111 -44 -221t-127.5 -182t-198.5 -72q-156 0 -269 110v-90h-163zM319 233q31 -57 78.5 -89.5t106.5 -32.5q92 0 158.5 47.5t99.5 127.5t33 169q0 91 -28 168t-89.5 126.5t-151.5 49.5 q-62 0 -116 -29.5t-91 -81.5v-455z" />
<glyph unicode="c" horiz-adv-x="891" d="M68 455q0 121 55 233t154 182t223 70q106 0 166.5 -16t154.5 -70l-24 -141q-83 57 -140 74.5t-157 17.5q-89 0 -149.5 -52t-90 -132.5t-29.5 -165.5q0 -82 31 -161t91.5 -129t146.5 -50q178 0 321 110l13 -141q-32 -32 -92.5 -56t-126 -36t-115.5 -12q-121 0 -220.5 67 t-155.5 177.5t-56 230.5z" />
<glyph unicode="d" horiz-adv-x="1028" d="M68 455q0 77 21 158.5t66 155.5t110.5 117.5t148.5 43.5q168 0 297 -103v594h159v-1421h-163v100q-132 -120 -299 -120q-107 0 -185.5 74.5t-116.5 185t-38 215.5zM231 455q0 -140 67.5 -242t201.5 -102q67 0 120.5 37t86.5 98v450q-30 47 -79.5 75t-105.5 28 q-94 0 -160 -47.5t-98.5 -125t-32.5 -171.5z" />
<glyph unicode="e" horiz-adv-x="891" d="M63 461q0 117 51 228t145.5 181t213.5 70q130 0 210.5 -68t115.5 -175.5t35 -235.5h-621q0 -83 35 -165t101 -133.5t151 -51.5q174 0 309 112l12 -137q-43 -44 -144 -75t-177 -31q-93 0 -173 39t-140 108.5t-92 155.5t-32 178zM229 580h473q-11 65 -40 116t-77.5 82 t-111.5 31q-89 0 -154 -68t-90 -161z" />
<glyph unicode="f" horiz-adv-x="612" d="M53 782v127h146v191q0 137 95 239.5t232 102.5q32 0 95.5 -6t72.5 -15v-145q-76 35 -168 35q-65 0 -118.5 -38t-53.5 -102v-262h219v-127h-215v-782h-159v782h-146z" />
<glyph unicode="g" d="M55 -145q0 63 33.5 119t89.5 92q-51 62 -51 155q0 98 61 176q-67 86 -67 201q0 88 43.5 164.5t118.5 122t163 45.5q115 0 199 -72l-8 8q15 15 77.5 30.5t133.5 24.5t102 9l23 -133q-64 6 -127 6q-67 0 -135 -6l-19 16q78 -94 78 -215q0 -88 -43.5 -164.5t-118.5 -122 t-162 -45.5q-101 0 -184 58q-20 -33 -20 -72q0 -42 25 -73.5t65 -31.5h170q194 0 319 -59.5t125 -232.5q0 -92 -73.5 -154t-176 -91.5t-194.5 -29.5t-195.5 29t-177.5 91.5t-74 154.5zM207 -145q0 -54 50.5 -88.5t121.5 -50t123 -15.5q51 0 121.5 15.5t121 50t50.5 88.5 q0 88 -87 112.5t-206 24.5h-170q-52 0 -88.5 -41.5t-36.5 -95.5zM270 598q0 -87 45 -149t131 -62q58 0 97.5 29.5t58.5 77t19 104.5q0 90 -44.5 150.5t-130.5 60.5q-87 0 -131.5 -61.5t-44.5 -149.5z" />
<glyph unicode="h" horiz-adv-x="1028" d="M154 0v1421h159v-626q54 64 127.5 99.5t155.5 35.5q150 0 213 -83t63 -237v-610h-163v610q0 100 -49.5 144.5t-151.5 44.5q-65 0 -108.5 -44t-63 -111t-19.5 -128v-516h-163z" />
<glyph unicode="i" horiz-adv-x="471" d="M143 1206v185h185v-185h-185zM156 0v909h159v-909h-159z" />
<glyph unicode="j" horiz-adv-x="526" d="M-127 -348l33 131q61 -64 153 -64q57 0 104.5 32t47.5 87v1071h160v-1042q0 -69 -31.5 -135.5t-88.5 -108t-128 -41.5q-57 0 -137.5 20.5t-112.5 49.5zM186 1206v185h185v-185h-185z" />
<glyph unicode="k" horiz-adv-x="973" d="M156 0v1421h157v-913l381 401h199l-334 -350l379 -559h-178l-303 451l-150 -156v-295h-151z" />
<glyph unicode="l" horiz-adv-x="471" d="M156 0v1421h159v-1421h-159z" />
<glyph unicode="m" horiz-adv-x="1585" d="M154 0v920h153v-134q53 67 129.5 105.5t159.5 38.5q204 0 256 -160q53 74 132 117t169 43q150 0 214.5 -83t64.5 -237v-610h-164v610q0 99 -51 144t-152 45q-65 0 -108.5 -44t-63 -111t-19.5 -128v-516h-163v610q0 99 -51 144t-152 45q-65 0 -108.5 -44t-63 -111 t-19.5 -128v-516h-163z" />
<glyph unicode="n" horiz-adv-x="1028" d="M154 0v920h153v-134q53 67 128.5 105.5t160.5 38.5q150 0 213 -83t63 -237v-610h-163v610q0 100 -49.5 144.5t-151.5 44.5q-65 0 -108.5 -44t-63 -111t-19.5 -128v-516h-163z" />
<glyph unicode="o" d="M57 451q0 122 56.5 236t159.5 183.5t229 69.5q125 0 226.5 -69t158.5 -183.5t57 -236.5t-57.5 -231t-160 -174.5t-224.5 -65.5q-124 0 -226.5 65.5t-160.5 174.5t-58 231zM221 473q0 -142 71.5 -250t209.5 -108q92 0 154.5 51.5t93 133.5t30.5 173q0 89 -31.5 165 t-95.5 123.5t-151 47.5q-89 0 -153 -47.5t-96 -123.5t-32 -165z" />
<glyph unicode="p" horiz-adv-x="1028" d="M156 -397v1306h159v-92q69 54 154 83.5t182 29.5q100 0 169.5 -76.5t103.5 -188.5t34 -210q0 -110 -44 -220.5t-127 -182.5t-197 -72q-158 0 -271 110v-487h-163zM319 231q31 -55 78.5 -87.5t106.5 -32.5q85 0 152.5 51t103 129.5t35.5 163.5q0 81 -32.5 160t-93.5 129.5 t-143 50.5q-63 0 -117 -29t-90 -80v-455z" />
<glyph unicode="q" horiz-adv-x="1028" d="M68 455q0 111 44 221t127.5 182t198.5 72q77 0 148.5 -33.5t124.5 -91.5v125h159v-1327h-163v495q-63 -57 -139.5 -87.5t-164.5 -30.5q-107 0 -183 74.5t-114 185.5t-38 215zM231 455q0 -82 32.5 -161.5t93.5 -131t143 -51.5q66 0 122.5 38.5t88.5 100.5v373 q-22 74 -70 123t-119 49q-84 0 -151 -49.5t-103.5 -127.5t-36.5 -163z" />
<glyph unicode="r" horiz-adv-x="680" d="M156 0v920h149v-172q41 56 95 96.5t118 63t133 22.5v-146q-87 0 -165.5 -43t-124.5 -117.5t-46 -164.5v-459h-159z" />
<glyph unicode="s" horiz-adv-x="768" d="M55 72l27 145q137 -102 313 -102q74 0 125 32t51 103q0 50 -38.5 84.5t-92.5 46.5l-123 25q-103 21 -176 93.5t-73 170.5q0 138 92.5 204t234.5 66q85 0 153 -14.5t142 -48.5l-24 -142q-73 41 -141 58.5t-152 17.5q-67 0 -111.5 -29.5t-44.5 -93.5q0 -45 34.5 -76.5 t82.5 -42.5l135 -26q68 -16 125.5 -55t92 -96.5t34.5 -127.5q0 -95 -43 -159.5t-116 -94.5t-167 -30q-72 0 -187.5 27t-152.5 65z" />
<glyph unicode="t" horiz-adv-x="723" d="M37 782v127h168v260h149v-260h279v-127h-279v-493q0 -65 19.5 -119.5t72.5 -54.5q108 0 189 69l33 -127q-77 -40 -152.5 -58.5t-159.5 -18.5q-89 0 -122 87.5t-33 194.5v520h-164z" />
<glyph unicode="u" horiz-adv-x="1028" d="M154 229v680h163v-680q0 -82 38.5 -105.5t129.5 -23.5q89 0 156.5 59.5t67.5 147.5v602h163v-909h-159v98q-45 -40 -100.5 -65.5t-120 -39t-136.5 -13.5q-110 0 -156 66.5t-46 182.5z" />
<glyph unicode="v" horiz-adv-x="915" d="M29 909h166q49 -132 94.5 -258t82.5 -231.5t63 -192t26 -114.5q0 25 25.5 113t62.5 193.5t70.5 198.5t105.5 291h162l-334 -909h-191z" />
<glyph unicode="w" horiz-adv-x="1362" d="M29 909h164q86 -293 144.5 -508t59.5 -288q0 51 31.5 181.5t79.5 298t94 316.5h150q91 -308 151 -520.5t60 -275.5q2 100 213 796h157l-272 -909h-187q-37 126 -77 263.5t-64.5 228.5t-42.5 178.5t-18 126.5q-2 -127 -205 -797h-166z" />
<glyph unicode="x" horiz-adv-x="915" d="M0 0l379 469l-369 440h183l260 -323l249 323h181l-359 -440l391 -469h-182l-280 375l-273 -375h-180z" />
<glyph unicode="y" horiz-adv-x="915" d="M29 909h170q63 -152 103 -251t79.5 -207t64.5 -197t25 -141q1 64 39 193t93 280.5t122 322.5h162l-400 -1042q-28 -76 -58.5 -137t-79 -104.5t-113.5 -43.5q-12 0 -79.5 5t-76.5 12l-12 141q81 -31 168 -31q43 0 66.5 42t51.5 116l52 133z" />
<glyph unicode="z" horiz-adv-x="868" d="M55 0v88l523 694l-494 -2v129h715v-84l-523 -694l529 2v-133h-750z" />
<glyph unicode="{" d="M0 496v131h1001v-131h-1001z" />
<glyph unicode="|" horiz-adv-x="2005" d="M0 496v131h2003v-131h-2003z" />
<glyph unicode="}" d="M213 1079l123 342h164l-156 -340zM547 1079l123 342h164l-156 -340z" />
<glyph unicode="~" d="M168 1133q0 58 23.5 116.5t69.5 95.5t106 37q54 0 135 -57q77 -61 133 -61q67 0 67 118h132q0 -95 -54.5 -172t-144.5 -77q-59 0 -133 59q-35 26 -67 42.5t-68 16.5q-38 0 -53 -37t-15 -81h-131z" />
<glyph unicode="&#xa1;" horiz-adv-x="1081" d="M180 0v1421h817v-137l-632 2v-1286h-185z" />
<glyph unicode="&#xa2;" horiz-adv-x="1671" d="M84 0l653 1421h195l653 -1421h-1501zM328 174h975q-486 1055 -488 1092q0 -12 -49.5 -128t-132 -298.5t-167.5 -367t-138 -298.5z" />
<glyph unicode="&#xa3;" horiz-adv-x="1559" d="M111 707q0 190 84.5 365.5t237.5 283.5t347 108t346.5 -108t237 -283.5t84.5 -365.5q0 -140 -48 -275.5t-137.5 -243t-212.5 -169.5t-270 -62q-146 0 -269 62t-213 169.5t-138.5 243t-48.5 275.5zM285 707q0 -149 58 -292t170.5 -234t266.5 -91q153 0 265.5 91t170.5 234 t58 292q0 113 -32 223.5t-95 202t-156.5 146t-210.5 54.5q-156 0 -268 -93t-169.5 -239t-57.5 -294zM397 625v174h764v-174h-764z" />
<glyph unicode="&#xa4;" horiz-adv-x="1212" d="M55 0l459 1421h184l459 -1421h-194q-45 140 -153.5 484t-164.5 537.5t-57 244.5q0 -52 -61.5 -262.5t-165 -537t-148.5 -466.5h-158z" />
<glyph unicode="&#xa5;" horiz-adv-x="1335" d="M84 0v156h1167v-156h-1167zM94 1266v155h1147v-155h-1147zM223 662v153h889v-153h-889z" />
<glyph unicode="&#xa6;" horiz-adv-x="1405" d="M180 0v1421h1043v-1421h-185v1290h-673v-1290h-185z" />
<glyph unicode="&#xa7;" horiz-adv-x="1448" d="M111 0l462 686l-462 600v135h1224v-137l-991 2l444 -575l-380 -566l927 2v-147h-1224z" />
<glyph unicode="&#xa8;" horiz-adv-x="1559" d="M111 1137q0 86 43 162t118 120.5t160 44.5q284 0 348 -446q16 117 52 215.5t109 164.5t185 66q68 0 125 -25t102.5 -71.5t70 -105.5t24.5 -125h-164q0 45 -20 90.5t-56 72.5t-82 27q-88 0 -142 -65t-77.5 -161.5t-29 -189t-5.5 -200.5v-711h-184v711q0 108 -5.5 200.5 t-29 189.5t-78 161.5t-143.5 64.5q-69 0 -113.5 -58.5t-44.5 -131.5h-163z" />
<glyph unicode="&#xa9;" horiz-adv-x="1448" d="M111 711q0 100 44.5 186.5t120 151t168 103.5t187.5 50v219h174v-217q132 -14 254.5 -78.5t199 -172t76.5 -242.5t-76.5 -242.5t-198.5 -172.5t-255 -79v-217h-174v219q-99 13 -191 52.5t-166.5 103t-118.5 150t-44 186.5zM291 711q0 -96 45 -172.5t124 -125t171 -63.5 v721q-145 -23 -242.5 -120t-97.5 -240zM805 350q93 12 174 59.5t128.5 126.5t47.5 175q0 97 -47.5 175.5t-126.5 125.5t-176 59v-721z" />
<glyph unicode="&#xaa;" horiz-adv-x="1559" d="M111 1128v132h174q137 0 137 -408q0 -113 22.5 -213t82.5 -177.5t161 -105.5v1065h174v-1067q80 22 135 73.5t85 119t42.5 144t12.5 161.5q0 408 137 408h174v-132q-137 0 -137 -276q0 -160 -45 -295.5t-144 -225t-260 -112.5v-219h-174v219q-157 23 -256 114.5 t-141.5 225.5t-42.5 293q0 276 -137 276z" />
<glyph unicode="&#xad;" horiz-adv-x="1448" d="M90 0v147l340 -2q-23 88 -62 164.5t-114 212.5t-109 231.5t-34 194.5q0 116 52.5 213t141.5 164.5t198 103t220 35.5q112 0 221.5 -35.5t197 -102.5t140.5 -165t53 -213q0 -129 -39.5 -218.5t-145 -282.5t-134.5 -302l340 2v-147h-492q0 113 34.5 213.5t108 259 t109 260.5t35.5 215q0 112 -59.5 200.5t-158 136.5t-210.5 48t-210.5 -48t-158 -136t-59.5 -201t33.5 -210.5t107.5 -256.5t110 -263.5t36 -217.5h-492z" />
<glyph unicode="&#xae;" horiz-adv-x="1169" d="M53 782v127h146v191q0 66 26 129.5t69.5 110t105 74.5t128.5 28q32 0 95.5 -6t72.5 -15v-145q-76 35 -168 35q-38 0 -80 -17t-68 -48.5t-26 -74.5v-262h221v-127h-217v-782h-159v782h-146zM754 0v1100q0 66 26 129.5t69.5 110t105 74.5t128.5 28q32 0 95.5 -6t72.5 -15 v-145q-76 35 -168 35q-38 0 -80 -17t-68 -48.5t-26 -74.5v-262h221v-127h-217v-782h-159z" />
<glyph unicode="&#xaf;" horiz-adv-x="1071" d="M53 782v127h146v191q0 80 31.5 159t91.5 131t143 52q31 0 73.5 -5.5t51.5 -15.5v-147q-61 37 -125 37q-51 0 -81 -44.5t-30 -95.5v-262h236v-127h-232v-782h-159v782h-146zM745 1249v174h175v-174h-175zM754 0v909h159v-909h-159z" />
<glyph unicode="&#xb0;" horiz-adv-x="1071" d="M53 782v127h146v191q0 80 31.5 159t91.5 131t143 52q31 0 73.5 -5.5t51.5 -15.5v-145q-56 35 -125 35q-51 0 -81 -44.5t-30 -95.5v-262h236v-127h-232v-782h-159v782h-146zM754 0v1421h159v-1421h-159z" />
<glyph unicode="&#xb1;" horiz-adv-x="1628" d="M53 782v127h146v191q0 82 37 162.5t104.5 130t155.5 49.5q28 0 82 -6t63 -15v-145q-66 35 -145 35q-57 0 -99.5 -41.5t-42.5 -98.5v-262h236v-127h-232v-782h-159v782h-146zM756 0v1100q0 80 31.5 159t91.5 131t143 52q31 0 73.5 -5.5t51.5 -15.5v-145q-63 35 -125 35 q-51 0 -81 -44.5t-30 -95.5v-262h236v-127h-232v-782h-159zM1303 1249v174h174v-174h-174zM1311 0v909h159v-909h-159z" />
<glyph unicode="&#xb2;" horiz-adv-x="1628" d="M53 782v127h146v191q0 82 37 162.5t104.5 130t155.5 49.5q28 0 82 -6t63 -15v-145q-66 35 -145 35q-57 0 -99.5 -41.5t-42.5 -98.5v-262h236v-127h-232v-782h-159v782h-146zM756 0v1100q0 80 31.5 159t91.5 131t143 52q31 0 73.5 -5.5t51.5 -15.5v-145q-56 35 -125 35 q-51 0 -81 -44.5t-30 -95.5v-262h236v-127h-232v-782h-159zM1311 0v1421h159v-1421h-159z" />
<glyph unicode="&#xb3;" horiz-adv-x="471" d="M156 0v909h159v-909h-159z" />
<glyph unicode="&#xb4;" horiz-adv-x="526" d="M-127 -348l43 131q30 -30 68.5 -47t78.5 -17q55 0 101.5 32.5t46.5 86.5v1071h160v-1042q0 -69 -31.5 -135.5t-88.5 -108t-128 -41.5q-57 0 -137.5 20.5t-112.5 49.5z" />
<glyph unicode="&#xb5;" d="M168 1421h164l262 -342h-129z" />
<glyph unicode="&#xb6;" d="M408 1079l262 342h164l-295 -340z" />
<glyph unicode="&#xb8;" d="M158 1421h131q0 -89 61.5 -158t151.5 -69q59 0 107 32t76 85t28 110h131q0 -95 -45 -180.5t-122.5 -136.5t-174.5 -51q-98 0 -177 51.5t-123 136.5t-44 180z" />
<glyph unicode="&#xb9;" d="M139 1288h723v-137h-721z" />
<glyph unicode="&#xba;" horiz-adv-x="1325" d="M438 1251q0 79 70 124.5t154 45.5t153.5 -45.5t69.5 -124.5q0 -80 -70.5 -126t-152.5 -46q-81 0 -152.5 46t-71.5 126zM551 1251q0 -86 111 -86q47 0 78.5 20.5t31.5 65.5q0 31 -15.5 49.5t-39.5 26.5t-55 8q-48 0 -79.5 -20t-31.5 -64z" />
<glyph unicode="&#xbb;" horiz-adv-x="891" d="M287 -391l147 342l131 2l-131 -344h-147z" />
<glyph unicode="&#xbc;" horiz-adv-x="958" d="M156 0v1143q0 86 50 155t130.5 106.5t165.5 37.5t165.5 -37.5t130.5 -106t50 -155.5q0 -93 -52 -174t-137 -129q77 -49 132.5 -125t83.5 -166t28 -184q0 -99 -45 -187.5t-125.5 -143t-179.5 -54.5q-30 0 -98.5 10.5t-81.5 25.5l45 123q67 -28 135 -28q63 0 105.5 38 t62.5 96.5t20 119.5q0 71 -19.5 144.5t-58.5 134.5t-98.5 97.5t-138.5 36.5v131q108 0 184 64.5t76 169.5q0 77 -53 122.5t-131 45.5q-79 0 -133 -46t-54 -122v-1143h-159z" />
<glyph unicode="&#xbd;" horiz-adv-x="1448" d="M90 248q0 102 95.5 162.5t222 85t233.5 24.5v90q0 77 -44 140t-118 63q-94 0 -165.5 -23.5t-147.5 -78.5l-12 143q83 48 155 67t170 19q81 0 155.5 -40.5t119.5 -111.5q57 71 136 111.5t167 40.5q123 0 198 -70t105.5 -179t30.5 -230h-586q0 -83 33.5 -164t96.5 -133.5 t148 -52.5q79 0 151.5 29.5t131.5 82.5l12 -137q-46 -47 -133 -76.5t-162 -29.5q-91 0 -177 41.5t-146 111.5q-62 -88 -188 -120.5t-265 -32.5q-66 0 -115 39.5t-75.5 102.5t-26.5 126zM244 248q0 -62 54.5 -99.5t119.5 -37.5q87 0 159 33.5t72 109.5q0 24 -2 67.5t-4 79.5 q-123 0 -261 -34.5t-138 -118.5zM819 580h438q-14 93 -63.5 161t-136.5 68q-59 0 -108 -33.5t-81 -84.5t-49 -111z" />
<glyph unicode="&#xbe;" horiz-adv-x="1559" d="M57 461q0 119 54 230t153 180t221 69q105 0 197 -53.5t152 -143.5q57 89 145 143t190 54q181 0 257.5 -141t76.5 -338h-585q0 -83 33.5 -164t96.5 -133.5t148 -52.5q160 0 283 112l12 -137q-47 -47 -134 -76.5t-161 -29.5q-108 0 -203.5 54t-156.5 146 q-36 -58 -91.5 -104t-123 -71t-136.5 -25q-122 0 -221 69t-153 180.5t-54 231.5zM211 473q0 -142 69.5 -252t204.5 -110q91 0 152.5 54t89 136.5t27.5 171.5q0 87 -29.5 163.5t-90 124.5t-149.5 48q-69 0 -119.5 -27.5t-85.5 -76.5t-52 -109.5t-17 -122.5zM932 580h438 q-14 93 -64 161t-137 68q-59 0 -107.5 -33.5t-81 -85t-48.5 -110.5z" />
<glyph unicode="&#xbf;" d="M57 451q0 122 56.5 236t159.5 183.5t229 69.5q85 0 172 -39l133 242l113 -66l-138 -248q79 -70 120.5 -170.5t41.5 -207.5q0 -122 -57.5 -231t-160 -174.5t-224.5 -65.5q-88 0 -170 34l-137 -245l-113 65l139 252q-79 67 -121.5 163.5t-42.5 201.5zM219 451 q0 -148 72 -240l317 573q-49 25 -106 25q-137 0 -210 -108t-73 -250zM395 131q55 -20 107 -20q88 0 152 47.5t96 125t32 167.5q0 154 -71 249z" />
<glyph unicode="&#xc0;" horiz-adv-x="1720" d="M55 0l557 1421h996v-137l-592 2v-481h534v-131h-534v-529l618 2v-147h-800v446h-443l-174 -446h-162zM440 569h394v717h-113z" />
<glyph unicode="&#xc1;" horiz-adv-x="1944" d="M49 707q0 189 84.5 364.5t237 284t346.5 108.5q42 0 99.5 -10.5t114.5 -21.5t99 -11h801v-137l-711 2v-481h654v-131h-654v-529l738 2v-147h-828q-53 0 -158.5 -21.5t-154.5 -21.5q-147 0 -269 62t-212 169.5t-138.5 243t-48.5 275.5zM229 739q0 -148 57.5 -300 t167.5 -251.5t263 -99.5q62 0 111 14.5t71 55.5q27 46 34 123t7 192v475q0 116 -7 193.5t-34 122.5q-22 42 -69 55.5t-113 13.5q-146 0 -257.5 -88t-171 -226t-59.5 -280z" />
<glyph unicode="&#xc2;" horiz-adv-x="1559" d="M111 707q0 190 84.5 365.5t237.5 283.5t347 108q155 0 295 -78l92 168l119 -65l-100 -180q84 -74 143 -171t89 -208t30 -223q0 -140 -48 -275.5t-137.5 -243t-212.5 -169.5t-270 -62q-154 0 -297 78l-92 -168l-119 65l101 181q-126 107 -194 265.5t-68 328.5zM291 707 q0 -84 16 -168t49.5 -159t87.5 -136l564 1022q-106 67 -228 67q-159 0 -269.5 -92t-165 -236.5t-54.5 -297.5zM549 156q109 -68 231 -68q156 0 267 90t166 232t55 297q0 83 -16 168t-51 162.5t-87 138.5z" />
<glyph unicode="&#xc3;" horiz-adv-x="471" d="M-23 674l478 143l37 -123l-478 -141z" />
<glyph unicode="&#xc4;" d="M219 1217v174h174v-174h-174zM608 1217v174h174v-174h-174z" />
<glyph unicode="&#x2000;" horiz-adv-x="777" />
<glyph unicode="&#x2001;" horiz-adv-x="1554" />
<glyph unicode="&#x2002;" horiz-adv-x="777" />
<glyph unicode="&#x2003;" horiz-adv-x="1554" />
<glyph unicode="&#x2004;" horiz-adv-x="518" />
<glyph unicode="&#x2005;" horiz-adv-x="388" />
<glyph unicode="&#x2006;" horiz-adv-x="259" />
<glyph unicode="&#x2007;" horiz-adv-x="259" />
<glyph unicode="&#x2008;" horiz-adv-x="194" />
<glyph unicode="&#x2009;" horiz-adv-x="310" />
<glyph unicode="&#x200a;" horiz-adv-x="86" />
<glyph unicode="&#x2010;" horiz-adv-x="668" d="M23 391v127h532v-127h-532z" />
<glyph unicode="&#x2011;" horiz-adv-x="668" d="M23 391v127h532v-127h-532z" />
<glyph unicode="&#x2012;" horiz-adv-x="668" d="M23 391v127h532v-127h-532z" />
<glyph unicode="&#x2013;" horiz-adv-x="1160" d="M23 391v127h1024v-127h-1024z" />
<glyph unicode="&#x2014;" horiz-adv-x="2184" d="M23 391v127h2048v-127h-2048z" />
<glyph unicode="&#x202f;" horiz-adv-x="310" />
<glyph unicode="&#x205f;" horiz-adv-x="388" />
<glyph unicode="&#x2219;" d="M156 1337h131l215 -247l213 247h131l-279 -342h-131z" />
<glyph unicode="&#xe000;" horiz-adv-x="910" d="M0 910h910v-910h-910v910z" />
</font>
</defs>
</svg>
