<?xml version="1.0" standalone="no"?>
<!DOCTYPE svg PUBLIC "-//W3C//DTD SVG 1.1//EN" "http://www.w3.org/Graphics/SVG/1.1/DTD/svg11.dtd" >
<svg xmlns="http://www.w3.org/2000/svg">
<metadata>
This is a custom SVG webfont generated by Font Squirrel.
Copyright   : Copyright C 1994 Basil K Malyshev All Rights Reserved012BaKoMa Fonts Collection LevelB
</metadata>
<defs>
<font id="cmsy8Regular" horiz-adv-x="1692" >
<font-face units-per-em="2048" ascent="1638" descent="-410" />
<missing-glyph horiz-adv-x="500" />
<glyph unicode=" "  horiz-adv-x="500" />
<glyph unicode="&#x09;" horiz-adv-x="500" />
<glyph unicode="&#xa0;" horiz-adv-x="500" />
<glyph unicode="!" horiz-adv-x="2175" d="M121 512q0 18 12 32.5t33 14.5h1624q-116 84 -192 203.5t-103 257.5q0 26 25 33h43q21 -5 26 -27q33 -173 156 -305.5t293 -181.5q16 -6 16 -27t-16 -27q-170 -48 -293 -181t-156 -306q-5 -22 -26 -27h-43q-25 7 -25 33q19 94 59.5 179t100 156t135.5 126h-1624 q-19 0 -32 14.5t-13 32.5z" />
<glyph unicode="&#x22;" horiz-adv-x="1087" d="M31 860v43q5 21 16 23q120 27 217 92t161.5 161.5t88.5 217.5q7 24 29 24q21 0 28 -24q34 -175 158.5 -301t300.5 -168q20 -6 25 -25v-43q-7 -26 -31 -26q-282 63 -434 292v-1480q0 -18 -14.5 -30.5t-32.5 -12.5t-32.5 13t-14.5 30v1480q-50 -74 -117 -133t-147 -98.5 t-171 -60.5q-23 0 -30 26z" />
<glyph unicode="#" horiz-adv-x="1087" d="M31 121v43q7 26 30 26q65 -14 128.5 -40t119 -63.5t103 -84.5t84.5 -104v1480q0 17 13.5 30t33.5 13t33.5 -12.5t13.5 -30.5v-1480q74 113 186 186.5t248 105.5q12 0 20 -7t11 -19v-43q-5 -21 -17 -23q-118 -27 -216 -92t-162.5 -161.5t-88.5 -217.5q-7 -24 -28 -24 q-22 0 -29 24q-22 116 -86 212t-159 162.5t-214 94.5q-19 5 -24 25z" />
<glyph unicode="$" horiz-adv-x="2175" d="M121 512q0 21 18 27q84 25 159 71.5t135 112.5t99.5 143t53.5 160q5 22 26 27h43q25 -7 25 -33q-25 -135 -102 -256t-193 -205h1405q-116 84 -192 203.5t-103 257.5q0 26 25 33h43q21 -5 26 -27q33 -173 156 -305.5t293 -181.5q16 -6 16 -27t-16 -27q-170 -48 -293 -181 t-156 -306q-5 -22 -26 -27h-43q-25 7 -25 33q19 94 59.5 179t100 156t135.5 126h-1405q76 -55 135.5 -126t100 -156t59.5 -179q0 -26 -25 -33h-43q-21 5 -26 27q-14 81 -54.5 161t-99.5 144.5t-134 111t-159 70.5q-18 6 -18 27z" />
<glyph unicode="%" horiz-adv-x="2175" d="M121 -465q0 21 12 33l1692 1692q-50 -11 -121 -11q-112 0 -215.5 32t-196.5 95q-12 9 -12 23q0 12 8 20q10 12 22.5 23.5t24.5 11.5q5 0 17 -4q160 -111 354 -111q162 0 309 80q8 2 10 2q13 0 21 -8t8 -20q0 -2 -2 -11q-80 -147 -80 -309q0 -182 113 -360q2 -8 2 -11 q0 -11 -6 -20q-4 -3 -13.5 -13t-18 -16t-17.5 -6q-16 0 -21 10q-62 94 -95.5 199.5t-33.5 214.5q0 70 10 121l-1689 -1690q-17 -14 -35 -14q-19 0 -33 14t-14 33z" />
<glyph unicode="&#x26;" horiz-adv-x="2175" d="M121 1489q0 19 14 33t33 14q16 0 33 -12l1691 -1692q-10 51 -10 121q0 74 15 145.5t43 137.5t71 131q5 10 21 10q8 0 17 -6t18.5 -16t13.5 -13q6 -12 6 -20q0 -7 -8 -23q-107 -156 -107 -348q0 -162 80 -309q2 -9 2 -11q0 -12 -8 -20t-21 -8q-2 0 -10 2q-147 80 -309 80 q-194 0 -354 -111q-12 -4 -17 -4q-12 0 -24.5 12t-22.5 23q-8 8 -8 20q0 17 12 23q93 63 196 95t216 32q71 0 121 -11l-1692 1692q-12 12 -12 33z" />
<glyph unicode="'" d="M121 80q0 19 12.5 31.5t32.5 15.5h1360q43 -8 43 -47t-43 -47h-1360q-20 3 -32.5 15.5t-12.5 31.5zM121 569v17q0 77 26 150t74.5 130t115 90t146.5 33q99 0 181 -44.5t188.5 -129.5t184.5 -128.5t169 -43.5q59 0 113 22.5t95 62.5t65 93.5t24 110.5q6 57 33 57t33 -57 v-17q0 -104 -46.5 -196.5t-129.5 -149.5t-187 -57q-95 0 -175.5 43.5t-186.5 128t-186 129.5t-175 45q-77 0 -145.5 -38.5t-110 -105t-41.5 -145.5q-6 -57 -32 -57q-27 0 -33 57z" />
<glyph unicode="(" horiz-adv-x="2175" d="M121 512q0 24 18 27q228 56 408.5 196t281.5 346q9 14 25 17h43q25 -7 25 -29q0 -2 -2 -10q-79 -160 -199 -283h1290q19 -3 31 -16t12 -31q0 -20 -13 -33t-30 -14h-1393q-130 -106 -282 -170q149 -63 282 -168h1393q19 -3 31 -16t12 -31q0 -20 -13 -33t-30 -14h-1290 q121 -127 199 -285q2 -8 2 -10q0 -22 -25 -29h-43q-16 3 -25 17q-67 136 -172 246t-237 185t-281 111q-18 3 -18 27z" />
<glyph unicode=")" horiz-adv-x="2175" d="M121 297q0 18 12 31t33 16h1390q64 51 136 94t147 74q-154 65 -283 170h-1390q-20 2 -32.5 14.5t-12.5 32.5q0 18 12 31t33 16h1288q-120 123 -199 283q-2 8 -2 10q0 22 25 29h43q16 -3 25 -17q67 -136 171.5 -246t238 -185t282.5 -111q16 -3 16 -27t-16 -27 q-149 -36 -282.5 -111t-238 -185t-171.5 -246q-9 -14 -25 -17h-43q-25 7 -25 29q0 2 2 10q78 158 199 285h-1288q-20 2 -32.5 14.5t-12.5 32.5z" />
<glyph unicode="*" horiz-adv-x="1329" d="M55 688v43q7 21 19 25q102 46 189.5 111.5t161.5 151t127.5 183.5t84.5 203q10 16 27 16q20 0 26 -16q31 -105 84.5 -203t127.5 -183.5t161.5 -151t189.5 -111.5q12 -4 19 -25v-43q-7 -24 -29 -24q-2 0 -12 2q-168 74 -303 200v-1220q-3 -17 -16 -30t-31 -13 q-20 0 -32.5 12.5t-14.5 30.5v1317q-99 111 -170 262q-37 -76 -77.5 -140t-90.5 -122v-1317q-3 -17 -16 -30t-31 -13q-20 0 -33 12.5t-15 30.5v1220q-72 -66 -146 -114t-159 -86q-10 -2 -12 -2q-22 0 -29 24z" />
<glyph unicode="+" horiz-adv-x="1329" d="M55 293v43q7 24 29 24q2 0 12 -2q166 -73 305 -200v1220q1 18 14.5 30.5t33.5 12.5q18 0 31 -13t16 -30v-1317q46 -53 90 -122t78 -140q71 151 170 262v1317q1 17 14 30t33 13q18 0 31 -13t16 -30v-1220q135 126 303 200q10 2 12 2q22 0 29 -24v-43q-7 -21 -19 -25 q-136 -62 -248 -158.5t-192.5 -222t-122.5 -268.5q-10 -16 -26 -16q-21 0 -27 16q-42 143 -122.5 268.5t-192.5 222t-248 158.5q-12 4 -19 25z" />
<glyph unicode="," horiz-adv-x="2175" d="M78 512q0 21 18 27q93 34 180.5 87.5t162 124.5t132.5 156t95 174q8 14 24 17h43q25 -7 25 -29q0 -2 -2 -10q-60 -150 -172 -283h1007q-106 126 -172 283q-2 8 -2 10q0 22 25 29h43q19 -4 24 -17q42 -97 98 -178t130.5 -152t161 -124.5t182.5 -87.5q16 -6 16 -27t-16 -27 q-101 -36 -185 -88t-158.5 -122.5t-130 -150.5t-98.5 -181q-8 -14 -24 -17h-43q-25 7 -25 29q0 2 2 10q65 155 172 285h-1007q113 -137 172 -285q2 -8 2 -10q0 -22 -25 -29h-43q-19 4 -24 17q-39 93 -96 177t-131.5 154.5t-159 122.5t-183.5 88q-18 6 -18 27zM258 512 q128 -67 238 -168h1183q110 101 238 168q-130 68 -238 170h-1183q-52 -49 -109.5 -90.5t-128.5 -79.5z" />
<glyph unicode="-" horiz-adv-x="2175" d="M88 702q0 7 8 23q107 156 107 348q0 162 -80 309q-2 9 -2 11q0 12 8 20t21 8q2 0 12 -2q144 -80 307 -80q92 0 184 28.5t170 82.5q12 4 17 4q12 0 24.5 -11.5t22.5 -23.5q8 -8 8 -20q0 -17 -12 -23q-187 -127 -412 -127q-71 0 -121 11l1692 -1692q12 -12 12 -33 q0 -19 -14 -33t-33 -14q-16 0 -33 12l-1691 1692q10 -51 10 -121q0 -220 -129 -414q-5 -10 -21 -10q-8 0 -16.5 5.5t-18.5 16t-14 13.5q-6 12 -6 20z" />
<glyph unicode="." horiz-adv-x="2175" d="M88 322q0 11 6 20q4 3 14 13.5t18 16t17 5.5q16 0 21 -10q61 -91 95 -198t34 -216q0 -70 -10 -121l1689 1690q17 14 35 14q19 0 33 -14t14 -33q0 -21 -12 -33l-1692 -1692q50 11 121 11q225 0 412 -127q12 -9 12 -23q0 -12 -8 -20q-10 -11 -22.5 -23t-24.5 -12 q-5 0 -17 4q-160 111 -354 111q-163 0 -307 -80q-10 -2 -12 -2q-13 0 -21 8t-8 20q0 2 2 11q80 147 80 309q0 182 -113 360q-2 8 -2 11z" />
<glyph unicode="/" d="M121 442q0 82 26.5 165.5t76 149.5t122.5 106t160 40q91 0 177 -35.5t156 -95t126 -139.5l41 -64q80 146 206.5 240t280.5 94q26 0 76 -8v-78q-25 8 -58 8q-76 0 -143.5 -28.5t-122.5 -76.5t-101 -111t-77 -128l98 -143q45 -67 97.5 -123.5t117.5 -92.5t138 -36 q13 0 51 4v-100q-45 -10 -82 -10q-136 0 -255 74.5t-202 195.5l-43 63q-82 -147 -207.5 -240t-279.5 -93q-115 0 -201.5 67.5t-132 174.5t-45.5 220zM186 440q0 -90 34 -178.5t101.5 -146.5t159.5 -58q144 0 259 98t186 246l-99 144q-45 67 -96.5 123t-117 92.5t-138.5 36.5 q-86 0 -153 -53t-101.5 -136t-34.5 -168z" />
<glyph unicode="0" horiz-adv-x="590" d="M63 129v8l265 922q10 39 41 62.5t69 23.5q50 0 86.5 -33t36.5 -82q0 -22 -10 -45l-379 -891q-8 -12 -22 -12q-5 0 -7 2l-63 22q-17 5 -17 23z" />
<glyph unicode="1" horiz-adv-x="2175" d="M121 442q0 119 54 224.5t151 171t217 65.5q143 0 272 -69t223 -185l66 -82q66 97 146.5 171.5t179 119.5t208.5 45q90 0 168 -38.5t132.5 -102.5t85 -147t30.5 -173q0 -119 -54.5 -225.5t-151 -171.5t-216.5 -65q-140 0 -270 68.5t-225 184.5l-66 82 q-101 -148 -238 -241.5t-296 -93.5q-90 0 -166.5 37.5t-132.5 104t-86.5 150.5t-30.5 170zM186 440q0 -95 41.5 -182t116.5 -141t172 -54q148 0 272.5 95.5t215.5 238.5l-109 131q-56 70 -112.5 126t-126 93t-146.5 37q-89 0 -163.5 -47.5t-117.5 -126.5t-43 -170zM1171 485 l109 -131q97 -118 186 -187t199 -69q89 0 163.5 48t117.5 126.5t43 169.5q0 96 -41.5 182.5t-116.5 140.5t-172 54q-148 0 -270 -93t-218 -241z" />
<glyph unicode="2" horiz-adv-x="1450" d="M182 512q0 132 51.5 249.5t145.5 207t213.5 138t249.5 48.5h381q43 -8 43 -47t-43 -47h-375q-96 0 -187 -30.5t-165 -86.5q-90 -69 -153.5 -177t-63.5 -208h944q43 -8 43 -47t-43 -47h-944q0 -100 63.5 -208t153.5 -177q74 -56 165 -86.5t187 -30.5h375q43 -8 43 -47 t-43 -47h-381q-130 0 -249 48.5t-213.5 138.5t-146 207.5t-51.5 248.5z" />
<glyph unicode="3" horiz-adv-x="1450" d="M182 -84q0 39 45 47h373q97 0 187.5 30.5t164.5 86.5q56 43 106 106.5t80.5 138t30.5 140.5h-942q-19 3 -32 15.5t-13 31.5q0 39 45 47h942q0 103 -64.5 211t-152.5 174q-150 117 -352 117h-373q-19 3 -32 15.5t-13 31.5q0 39 45 47h379q131 0 251 -49t212.5 -137 t144.5 -206.5t52 -250.5q0 -131 -52 -250t-145 -207.5t-212.5 -137t-250.5 -48.5h-379q-19 3 -32 15.5t-13 31.5z" />
<glyph unicode="4" horiz-adv-x="1933" d="M129 47q0 3 4 21l793 1372q14 24 41 24q24 0 39 -20l794 -1374q4 -18 4 -23q0 -40 -43 -47h-1587q-19 3 -32 15.5t-13 31.5zM258 94h1417l-708 1229z" />
<glyph unicode="5" horiz-adv-x="1933" d="M129 977q0 39 45 47h1587q43 -7 43 -47q0 -5 -4 -19l-790 -1374q-19 -24 -43 -24q-26 0 -39 20l-793 1376q-6 10 -6 21zM258 930l709 -1229l708 1229h-1417z" />
<glyph unicode="6" horiz-adv-x="0" d="M303 -393q0 6 4 18l991 1815q15 24 41 24q19 0 33 -14t14 -33q0 -6 -4 -18l-989 -1815q-17 -24 -43 -24q-20 0 -33.5 13.5t-13.5 33.5z" />
<glyph unicode="7" horiz-adv-x="0" d="M121 168v688q3 20 15.5 32.5t31.5 12.5t31.5 -12.5t15.5 -32.5v-297h16q20 -3 32.5 -15.5t12.5 -31.5t-12.5 -31.5t-32.5 -15.5h-16v-297q-3 -20 -15.5 -32.5t-31.5 -12.5t-31.5 12.5t-15.5 32.5z" />
<glyph unicode="8" horiz-adv-x="1208" d="M0 1374q0 19 14 33t33 14q29 0 43 -24l189 -467h651l188 465q16 26 43 26q19 0 33 -14t14 -33q0 -6 -4 -18l-557 -1372q-16 -27 -43 -27q-12 0 -24 6.5t-17 18.5l-559 1374q-4 12 -4 18zM317 836l287 -707l287 707h-574z" />
<glyph unicode="9" horiz-adv-x="1208" d="M121 47q0 19 12.5 31.5t32.5 15.5h825v570h-796q-43 7 -43 47t43 47h796v569h-825q-20 3 -32.5 15.5t-12.5 31.5t12.5 31.5t32.5 15.5h876q37 -6 43 -43v-1333q-6 -39 -43 -45h-876q-20 3 -32.5 15.5t-12.5 31.5z" />
<glyph unicode=":" horiz-adv-x="1450" d="M121 688q0 19 12.5 31.5t32.5 15.5h1118q37 -6 43 -43v-473q-7 -43 -47 -43t-47 43v422h-1067q-20 3 -32.5 15.5t-12.5 31.5z" />
<glyph unicode=";" horiz-adv-x="1087" d="M94 705q0 184 33 352.5t133 287.5t283 119q89 0 172 -39l37 117q11 37 45 37q20 0 33.5 -13.5t13.5 -33.5v-10l-47 -152q62 -52 102.5 -132t59 -164.5t25.5 -177t7 -191.5q0 -305 -92 -526.5t-356 -221.5q-89 0 -172 39l-35 -117q-15 -37 -47 -37q-20 0 -33.5 13.5 t-13.5 33.5q0 7 2 11l45 149q-118 100 -156.5 272.5t-38.5 383.5zM256 739q0 -87 1 -146.5t8 -150t20.5 -160t38.5 -120.5l366 1188q-67 49 -147 49q-131 0 -194 -110t-78 -247t-15 -303zM395 76q66 -53 148 -53q129 0 192.5 122t78.5 271.5t15 322.5q0 174 -11 309t-54 218 z" />
<glyph unicode="&#x3c;" horiz-adv-x="1571" d="M90 188q0 10 7.5 16.5t20 11.5t19.5 7q-8 24 -8 27q0 14 13.5 27.5t27.5 13.5q11 0 17 -7t11 -22l5 -14q30 10 33 10q14 0 25 -11t11 -26q0 -12 -7 -17.5t-15 -8.5t-25 -9q63 -163 197 -163q88 0 113.5 162.5t25.5 334.5v391q0 151 -16 240q-17 84 -62.5 154.5 t-120.5 70.5q-70 0 -114.5 -57t-44.5 -127q0 -24 12.5 -44.5t24.5 -32.5t45 -42q139 -127 139 -246q0 -130 -35.5 -229.5t-142.5 -99.5q-58 0 -91.5 52.5t-33.5 115.5q0 26 22 26h27q9 0 16 -6t7 -16q0 -37 11.5 -72t41.5 -35q59 0 75.5 79t16.5 177q0 51 -29 91.5 t-82.5 92.5t-79.5 92t-26 91q0 68 32 127t87 94t122 35q96 0 175.5 -57t130.5 -146q77 118 228.5 171.5t317.5 53.5q16 0 25 -12l315 -530q2 -4 2 -13q0 -14 -12 -20l-121 -74q-140 -81 -239 -104l26 -459q0 -9 -2 -24t-2 -21q0 -51 25 -95.5t69 -74.5l173 125q4 4 12 4 q15 0 31 -12t16 -27q0 -13 -12 -21l-215 -147q-2 0 -4.5 -0.5t-6.5 -1.5h-30q-67 0 -124 34.5t-90.5 91.5t-33.5 124q0 17 4 45l-27 448h-241v-184q0 -80 -18.5 -175.5t-58 -183.5t-102.5 -144t-149 -56q-186 0 -264 205q-9 -3 -18 -6.5t-15 -3.5q-10 0 -23.5 11.5 t-13.5 24.5zM709 1153q43 -117 43 -242v-135h331q121 0 279 92l-301 508q-124 -20 -220.5 -73t-131.5 -150z" />
<glyph unicode="=" horiz-adv-x="1571" d="M121 338v20q0 7 8 15t14 8h146q91 0 164.5 -40.5t168.5 -122t154.5 -123.5t136.5 -60q63 11 123.5 44t97.5 85.5t37 118.5q0 46 -25.5 82t-77 87.5t-77.5 92t-26 92.5q0 73 41 129.5t107 86.5t138 30q61 0 120 -23t97.5 -69.5t38.5 -108.5q0 -10 -5.5 -18.5t-16.5 -8.5 h-31q-7 0 -14.5 7.5t-7.5 15.5q0 65 -56.5 102t-124.5 37q-54 0 -75 -57.5t-21 -120.5q0 -44 24.5 -78.5t77.5 -89t79 -95t26 -93.5q0 -95 -56.5 -163.5t-145 -104t-181.5 -35.5h-145q-92 0 -168 41.5t-182 126.5t-178.5 126t-162.5 41q-7 0 -14.5 7.5t-7.5 15.5zM121 1044 q0 119 67 209.5t176 139.5t224 49q90 0 174.5 -24.5t162 -71.5t142.5 -109.5t115 -138.5q9 -14 19.5 -27.5t22.5 -23t27 -9.5q65 0 123 19t58 71q0 23 22 23h31q11 0 16.5 -8t5.5 -19q0 -57 -41.5 -91.5t-99.5 -47t-115 -12.5q-108 0 -187 52t-170 151t-156 149.5t-150 50.5 q-96 0 -186.5 -40.5t-147.5 -116.5t-57 -175q0 -102 60.5 -178t156 -115.5t192.5 -39.5q10 0 16.5 -7.5t6.5 -15.5v-20q0 -23 -27 -23q-117 0 -228 48.5t-182 139.5t-71 211z" />
<glyph unicode="&#x3e;" d="M121 1374q0 19 12.5 31.5t32.5 15.5h1362q43 -8 43 -47t-43 -47h-635v-1282q-3 -20 -15.5 -32.5t-31.5 -12.5t-31.5 12.5t-15.5 32.5v1282h-633q-20 3 -32.5 15.5t-12.5 31.5z" />
<glyph unicode="?" d="M121 47q0 19 12.5 31.5t32.5 15.5h633v1284q7 43 47 43q19 0 31.5 -12.5t15.5 -30.5v-1284h635q43 -8 43 -47t-43 -47h-1362q-20 3 -32.5 15.5t-12.5 31.5z" />
<glyph unicode="@" horiz-adv-x="1329" d="M121 23v20q0 8 7.5 15.5t14.5 7.5q67 0 119.5 11.5t52.5 51.5q0 45 -17 83t-51 95t-49.5 93t-15.5 83q0 113 46 220t126 229l-69 76q-45 45 -78 82t-59.5 82t-26.5 88q0 50 12.5 105.5t48.5 55.5q11 0 18 -6t7 -16q0 -58 30 -109t85 -108l583 -621q7 56 27 165t34 188.5 t19 146.5q-74 66 -107.5 106.5t-33.5 92.5q0 50 12.5 105.5t48.5 55.5q22 0 25 -24q8 -27 60.5 -105t78.5 -104q35 -31 67 -59t51 -58t19 -70q0 -55 -12.5 -108t-48.5 -53q-8 0 -16.5 6.5t-8.5 15.5q0 70 -65 137q-5 -55 -20 -133t-26.5 -139.5t-20.5 -121t-13 -118.5 l67 -73q76 -79 120 -137t44 -115q0 -56 -12.5 -109t-48.5 -53q-8 0 -16.5 6.5t-8.5 16.5q0 97 -114 217l-592 630q-38 -81 -54 -181t-16 -206q0 -43 21 -76t68.5 -87t72 -95.5t24.5 -95.5q0 -73 -66.5 -101t-150.5 -28h-170q-6 0 -14 8t-8 15z" />
<glyph unicode="A" horiz-adv-x="1739" d="M57 70v10q0 22 13 62t32.5 69t38.5 29q14 0 19 -29q14 -47 63.5 -80t100.5 -33q45 0 123 78t152.5 177t144.5 203.5t118 180.5q209 331 348 621h21q0 48 60 87.5t110 39.5q8 0 14 -4.5t6 -12.5v-24q0 -167 6.5 -338t18.5 -327t33 -333q8 -32 19.5 -111t19.5 -112 q5 -20 13.5 -52t18 -52.5t26.5 -35.5t44 -15q74 36 106 36q23 0 23 -16q-6 -35 -57 -69t-119 -56t-107 -22q-46 0 -73 27t-38.5 61t-25.5 96q-27 107 -39 211h-588q-127 -180 -238 -310t-200 -130q-75 0 -136.5 49.5t-70.5 124.5zM770 434q46 29 88 29h418 q-6 68 -13.5 157.5t-14 203t-10.5 224.5t-5 177q-59 -119 -136 -258t-162.5 -278t-164.5 -255z" />
<glyph unicode="B" horiz-adv-x="1421" d="M68 -27q0 11 2 13q127 230 204.5 573.5t124.5 724.5q-53 -28 -76 -38.5t-55 -10.5q-22 0 -22 16q4 28 26.5 45.5t63.5 40.5l160 82q50 23 79 23q9 0 15 -4.5t6 -12.5q-14 -129 -47 -325q58 72 129 134.5t150 109t169.5 73.5t176.5 27q63 0 121.5 -24.5t95 -71.5 t36.5 -113q0 -131 -117 -228t-282 -171q137 -24 232.5 -114t95.5 -224q0 -127 -70.5 -228.5t-186 -171t-248.5 -105.5t-251 -36q-185 0 -309 127q-1 1 -2 4t-2 4q4 28 34 53.5t69 41.5t67 16q10 0 16 -6q53 -55 126 -84t155 -29q176 0 293.5 76t117.5 243q0 101 -57 172.5 t-148.5 106.5t-189.5 35q-25 0 -65 -5t-48 -5q-4 0 -12 5t-8 11q6 49 62.5 73.5t219 82t240.5 115.5t78 149q0 83 -65 128.5t-152 45.5q-154 0 -277.5 -144.5t-203.5 -340t-121 -365.5q-52 -210 -164 -412q-21 -38 -72 -68t-94 -30q-4 0 -12 5t-8 11z" />
<glyph unicode="C" horiz-adv-x="1151" d="M33 436q0 193 73.5 375t204.5 324t305 224.5t371 82.5q71 0 117.5 -34t46.5 -103q0 -96 -121 -299q-22 -34 -72 -62.5t-90 -28.5q-6 0 -13 5t-7 12q0 9 31.5 67.5t56.5 115.5t25 97q0 103 -127 103q-100 0 -178.5 -27.5t-144 -83t-120.5 -137.5q-80 -119 -124 -259.5 t-44 -279.5q0 -122 41.5 -224.5t127.5 -164t210 -61.5q134 0 248 106q15 16 49 58t63.5 63.5t75.5 34.5q22 4 31 4q8 0 14.5 -4.5t6.5 -13.5t-9 -23q-74 -100 -174.5 -179.5t-219.5 -126t-238 -46.5q-199 0 -307.5 140.5t-108.5 344.5z" />
<glyph unicode="D" horiz-adv-x="1681" d="M43 1004l2 8q32 129 150.5 216t273.5 129t299 42h209q130 0 249 -23t220 -77.5t162 -147.5t61 -229q0 -207 -114 -379.5t-299.5 -293.5t-401.5 -185t-408 -64h-245q-17 6 -17 16q7 37 52.5 66.5t87.5 40.5q110 270 176 536q27 109 47.5 214.5t34.5 214t14 184.5 q-129 0 -236 -39q-103 -40 -127 -141q-13 -38 -69.5 -71.5t-97.5 -33.5q-20 0 -23 17zM481 127h113q218 0 422 79.5t333.5 239t129.5 381.5q0 131 -59.5 219.5t-156.5 137.5t-210.5 68.5t-235.5 19.5h-37q0 -91 -29.5 -250.5t-62.5 -282.5q-25 -103 -54.5 -198.5t-73 -211.5 t-79.5 -202z" />
<glyph unicode="E" horiz-adv-x="1147" d="M61 213q0 107 66 209.5t164 184t203 134.5q-87 33 -140 89t-53 137q0 134 108.5 243t267 170.5t290.5 61.5q95 0 169 -31t74 -111q0 -49 -30 -96t-77 -76.5t-95 -29.5q-23 0 -23 16q2 14 18.5 41.5t16.5 52.5q0 107 -207 107q-84 0 -156.5 -27.5t-118.5 -85t-46 -141.5 q0 -86 61 -136.5t148 -70.5t169 -20q15 -6 15 -17q-4 -38 -65 -74t-103 -36q-176 0 -305 -105q-65 -53 -112.5 -135t-47.5 -160t52 -128.5t128.5 -72.5t151.5 -22q131 0 241 88q25 21 63.5 64.5t68.5 66.5t77 37q20 4 31 4q7 0 13.5 -4.5t6.5 -11.5q0 -9 -8 -25 q-57 -74 -128.5 -135.5t-156.5 -110t-178.5 -74.5t-183.5 -26q-136 0 -252.5 64.5t-116.5 191.5z" />
<glyph unicode="F" horiz-adv-x="1552" d="M35 92q5 29 34.5 53.5t68.5 41t65 16.5q15 0 18 -8q32 -66 87 -101t128 -35q37 39 95 154.5t109 234.5t79 197q117 312 168 627h-96q-101 0 -172 -43.5t-95 -136.5q-7 -25 -37 -50t-67.5 -40t-63.5 -15q-4 0 -12 5t-8 12q15 105 117 197t239.5 145t245.5 53h631 q215 0 215 -78q0 -46 -60.5 -85.5t-111.5 -39.5q-3 0 -12 5t-9 11q1 4 1.5 7.5t0.5 9.5q0 43 -178 43h-354q-47 -256 -146 -531h547q15 -5 15 -16q-7 -53 -63.5 -92t-110.5 -39q-18 0 -21 16v4h-416q-24 -59 -62 -142.5t-79 -162.5t-74.5 -139t-81.5 -107.5t-107.5 -80.5 t-127.5 -45q-17 -5 -51 -5q-76 0 -153.5 45.5t-94.5 114.5z" />
<glyph unicode="G" horiz-adv-x="1292" d="M96 571q0 179 76 338.5t208.5 280t300.5 186.5t343 66q270 0 270 -142q0 -76 -96 -200q-42 -57 -80.5 -89.5t-93.5 -47.5q-25 -5 -31 -5q-5 0 -12.5 5.5t-7.5 11.5q2 15 43.5 68.5t64.5 90.5t23 72q0 109 -236 109q-86 0 -160.5 -19t-138.5 -60.5t-120 -109.5 q-76 -97 -119 -217.5t-43 -242.5q0 -173 89.5 -286.5t258.5 -113.5q76 0 141 34.5t118.5 91.5t91 128t54.5 139q13 38 70 71.5t98 33.5q18 0 21 -16v-9q-52 -213 -96 -357t-119 -276q-86 -152 -228 -250t-305 -98q-190 0 -346 80q-12 6 -12 15q4 26 34 52t71 42t67 16 q162 -78 338 -78q49 0 84 17q122 85 231 422q-239 -185 -467 -185q-120 0 -208 57.5t-132.5 157t-44.5 217.5z" />
<glyph unicode="H" horiz-adv-x="1851" d="M43 1004q0 6 4 14q52 93 121.5 162.5t157 119t185 74.5t200.5 25q54 0 93.5 -36t39.5 -89q0 -190 -109 -582h572q89 301 209 611q13 24 42.5 46.5t62 36t60.5 13.5q8 0 15.5 -4.5t7.5 -12.5q-1 -3 -1 -5t-3 -7q-61 -156 -114 -309t-103.5 -328t-83.5 -338t-33 -280 q0 -43 25.5 -66.5t68.5 -23.5q33 0 68 6q24 2 30.5 5t10.5 15q3 7 5.5 14t6.5 11q29 37 73.5 62.5t86.5 25.5q7 0 13.5 -4.5t6.5 -12.5q-11 -80 -87.5 -136t-180.5 -84.5t-193 -28.5q-51 0 -87.5 35.5t-36.5 86.5q0 106 29 254.5t73 311.5q-48 -21 -74 -21h-504 q-91 -298 -192 -551q-21 -38 -72 -68t-94 -30q-5 0 -14 5t-9 11q2 4 2 6.5t3 8.5q56 142 112.5 306t98.5 312h-195q-16 5 -16 17q5 38 66 74t104 36h75q84 324 84 488q0 43 -28.5 67.5t-69.5 24.5q-162 0 -248 -80q-26 -28 -60 -79.5t-65 -78.5t-88 -43q-20 -4 -28 -4 q-5 0 -14 5t-9 12z" />
<glyph unicode="I" horiz-adv-x="1198" d="M-37 16q0 22 31 49t73.5 44.5t63.5 17.5h197q34 0 50.5 18t43.5 64q36 62 78 180q28 86 73 270q44 170 69 257t71 185.5t116 170.5h-137q-131 0 -223.5 -6.5t-167.5 -28.5q-25 -10 -40.5 -51t-24.5 -53q-78 -78 -154 -78q-21 0 -21 18v6q26 104 123.5 177t212.5 104 q92 25 193.5 32t249.5 7h528q6 0 11 -5.5t5 -11.5q0 -35 -65 -72.5t-105 -37.5h-256q-34 -42 -64 -107t-54 -140t-45.5 -159t-32.5 -127q-43 -173 -69 -261t-77 -185t-129 -166h428q55 0 69 4.5t22 25t22 38.5q34 32 74.5 54.5t79.5 22.5q20 0 20 -16v-6 q-23 -77 -93.5 -133.5t-164.5 -86.5t-176 -30h-791q-3 0 -8.5 5.5t-5.5 10.5z" />
<glyph unicode="J" horiz-adv-x="1475" d="M100 70q0 74 21 106q28 35 72 60.5t88 25.5q7 0 13.5 -4.5t6.5 -11.5q-10 -73 -10 -84q0 -129 99.5 -203t232.5 -74q71 0 134 30.5t111 80t83 114t50 130.5q21 85 68 262.5t97.5 314t122 256t169.5 199.5h-289q-149 0 -264 -77.5t-151 -219.5q-12 -36 -69.5 -69.5 t-98.5 -33.5q-18 0 -21 17v6q36 142 157.5 258t283.5 181t311 65h477q14 -7 14 -17q-6 -38 -66 -74t-102 -36q-61 0 -100 -41.5t-84 -118.5q-72 -123 -131 -305q-46 -141 -135 -488q-37 -148 -150.5 -278t-266 -206.5t-304.5 -76.5q-93 0 -178 37t-138 108t-53 167z" />
<glyph unicode="K" horiz-adv-x="1653" d="M68 -27q0 11 2 13q77 195 154 430t128 464.5t51 405.5l-61 -31q-50 -20 -74 -20q-22 0 -22 16q0 39 90 86l166 84q42 21 73 21q21 0 21 -17q0 -153 -30 -329t-78.5 -354.5t-110 -355t-123.5 -331.5q-21 -38 -72 -68t-94 -30q-20 0 -20 16zM518 823q0 77 106.5 179.5 t272 206t316 168.5t225.5 65h14q51 0 87 -36t36 -85t-33 -79t-84 -36h-14q-7 0 -13 7.5t-6 15.5q0 5 2.5 13.5t2.5 17.5q0 34 -22.5 55.5t-55.5 21.5q-60 0 -231.5 -88t-314 -196.5t-142.5 -169.5q0 -63 51.5 -199t135 -283.5t171 -243.5t154.5 -96q58 0 112 15.5t94.5 49 t53.5 87.5q10 33 43 53t69 23h15q8 0 13 -7.5t5 -15.5q0 -2 -2 -6q-17 -71 -67.5 -127t-125.5 -97t-154 -60t-147 -19h-14q-79 0 -174.5 100t-182.5 252t-141.5 297t-54.5 217z" />
<glyph unicode="L" horiz-adv-x="1495" d="M68 -27q0 6 10 21q16 23 55 62t51 55q48 63 80 129q54 103 82 229q34 132 60 216.5t65 184.5q47 116 102 208t129 167q87 87 203.5 142t233.5 55h10q55 0 95.5 -27t62.5 -72.5t22 -99.5q0 -71 -26 -104q-86 -80 -170 -88h-11q-4 2 -9 6t-5 10q0 3 5 28t5 42 q0 70 -39.5 119t-107.5 49q-61 0 -86 -17q-184 -137 -328 -721q-55 -216 -162 -368q14 2 24 3t17 2t21 1h10q76 0 150.5 -13.5t197 -44t181.5 -41.5t137 -12q33 0 46.5 18t26 53.5t25.5 51.5q84 80 170 88h10q14 -7 14 -16q0 -2 -2 -6q-20 -82 -96.5 -158.5t-176.5 -122 t-183 -45.5h-11q-98 -1 -215 27l-234 56q-117 28 -216 28q-1 0 -37.5 -29.5t-79 -53.5t-82.5 -28h-10q-4 2 -9 6t-5 10z" />
<glyph unicode="M" horiz-adv-x="2589" d="M59 0v10q0 20 12 60t32 70t40 30q5 0 15 -10q31 -28 75 -45t84 -17q49 0 111 112t113.5 246t79.5 222q113 344 151 668q2 8 10 24q50 60 123 72h21q10 0 16 -12q44 -211 69.5 -322t69.5 -273.5t95.5 -304t109.5 -245.5q146 135 271 262.5t272.5 290.5t273 307.5 t228.5 263.5q3 4 10.5 13.5t14 14.5t16.5 5q18 0 18 -33v-16q-27 -128 -53 -281q-88 -546 -88 -807q0 -94 12 -186q5 -22 20 -35.5t37 -13.5q66 34 101 34q9 0 15.5 -4.5t6.5 -11.5q-7 -51 -107.5 -98t-166.5 -47q-71 0 -90 79.5t-19 190.5q0 165 25.5 373t66.5 458 q-109 -125 -224 -252.5t-279.5 -305t-278 -291t-145.5 -125.5h-21q-9 0 -14 10q-66 98 -121.5 223t-101 267t-69.5 237t-75 313q-20 -99 -81 -306t-138.5 -413.5t-169.5 -355.5t-174 -149q-55 0 -124.5 28.5t-74.5 75.5z" />
<glyph unicode="N" horiz-adv-x="1780" d="M-61 0v10q0 20 12 59.5t31.5 70t40.5 30.5q2 0 14 -8q30 -27 75.5 -45.5t88.5 -18.5q32 0 61.5 36.5t52 87t45 116t29.5 88.5q49 147 94 324q36 150 66 317q18 112 26.5 174.5t8.5 104.5q5 22 27.5 43.5t52 35t53.5 17.5h20q4 0 9.5 -3.5t5.5 -6.5l30 -89 q78 -232 157 -437.5t183 -442.5q83 -183 189 -336q94 406 215 836l18 65q13 43 33 110.5t36 116.5t36.5 97.5t46.5 91.5q99 158 389 158q18 0 22 -33v-10q0 -20 -10.5 -58t-28.5 -66.5t-38 -35.5q-102 0 -178 -17t-134 -67q-21 -50 -39.5 -106.5t-34.5 -113.5t-32 -112 q-105 -383 -142 -537q-57 -228 -98 -411l-2 4q-7 -35 -49 -62t-84 -34h-18q-13 0 -13 6q-84 111 -167.5 263t-148 301.5t-118 291.5t-125.5 348q-20 -124 -68 -330t-115 -416.5t-151.5 -360.5t-171.5 -150q-56 0 -126.5 28.5t-75.5 75.5z" />
<glyph unicode="O" horiz-adv-x="1722" d="M121 520q0 103 26.5 203.5t72 189.5t112.5 177q50 63 133.5 137t173 132t162.5 79q16 4 28 4q23 0 23 -17q0 -16 -16 -32q-23 -23 -105 -72.5t-110 -71.5q-98 -79 -170 -186q-140 -205 -140 -451q0 -109 33 -206t97 -170.5t154.5 -112.5t201.5 -39q146 0 275 68.5 t222 182.5t144 255.5t51 283.5q0 118 -36.5 218t-116.5 161.5t-201 61.5q-103 0 -187.5 -101t-140.5 -231q-21 -36 -72 -66t-94 -30q-20 0 -20 16q0 10 2 12q61 142 160.5 261t230.5 192.5t274 73.5q129 0 218 -66t131 -174t42 -233q0 -196 -86 -378.5t-236 -326.5 t-336.5 -225.5t-377.5 -81.5q-158 0 -277 74.5t-182 202.5t-63 286z" />
<glyph unicode="P" horiz-adv-x="1522" d="M43 1004l2 8q32 129 150.5 216t273.5 129t299 42h274q86 0 179 -14.5t180.5 -51t141.5 -101t54 -157.5q0 -145 -104 -275.5t-246 -215.5q-92 -54 -184.5 -90t-192 -55t-194.5 -19q-5 0 -14 5t-9 11q7 40 66.5 75.5t103.5 35.5q225 0 391 106q54 36 98.5 89t69.5 114 t25 125q0 88 -52.5 146t-133 89t-169 43.5t-169.5 12.5h-105q-16 -160 -46 -322.5t-72 -321t-99 -324t-121 -314.5q-21 -37 -71.5 -66.5t-94.5 -29.5q-4 0 -12 5t-8 11q0 8 2 12q145 343 231 684q43 179 68 330q31 194 41 336q-129 0 -236 -39q-103 -40 -127 -141 q-13 -38 -69.5 -71.5t-97.5 -33.5q-20 0 -23 17z" />
<glyph unicode="Q" horiz-adv-x="1776" d="M238 596q0 215 147 411t371.5 315.5t433.5 119.5q110 0 200 -39.5t153.5 -110t96.5 -162.5t33 -202q0 -163 -69.5 -315t-185.5 -273t-262.5 -210t-307.5 -136q45 -14 123.5 -40t153 -46.5t145 -31.5t135.5 -11q55 0 75.5 16t34 51.5t27.5 53.5q77 77 154 77q20 0 20 -16 v-6q-16 -64 -66 -120.5t-116.5 -96.5t-142 -63t-138.5 -23q-106 0 -205.5 23.5t-259 74t-264 76t-217.5 25.5q-5 0 -10.5 5.5t-5.5 10.5q0 35 65.5 72.5t104.5 37.5q156 0 268.5 10t225 46.5t212.5 109.5q95 72 166.5 168.5t110.5 208t39 230.5q0 102 -30.5 189.5 t-88.5 152.5t-141 101t-187 36q-154 0 -296 -90.5t-227 -236.5t-85 -298q0 -101 43 -182t122 -126.5t179 -45.5q57 0 123 16q29 9 76 30.5t69 27.5q22 4 31 4q8 0 14.5 -4.5t6.5 -12.5q0 -15 -17 -32q-46 -47 -126 -83t-168 -54.5t-163 -18.5q-80 0 -150.5 29t-122.5 82.5 t-79.5 124.5t-27.5 151z" />
<glyph unicode="R" horiz-adv-x="1855" d="M43 1004l2 8q32 129 150.5 216t273.5 129t299 42h223q149 0 274 -13t227.5 -69t102.5 -172q0 -95 -45.5 -181t-121 -155.5t-162.5 -118.5t-181 -82q37 -42 115.5 -198.5t138 -241t129.5 -84.5q61 0 101.5 24.5t85.5 71.5t78 69.5t84 22.5q22 0 22 -16q-4 -16 -10 -23 q-47 -59 -104 -109t-124 -88t-141.5 -58.5t-144.5 -20.5q-83 0 -142 75.5t-132 227t-127 225.5t-130 74q-14 7 -14 16q6 40 66 75.5t102 35.5q116 0 223.5 40.5t175.5 124.5t68 202q0 99 -99.5 148t-219 60t-255.5 11h-51q0 -160 -96 -553q-40 -163 -96 -328.5t-131 -335.5 q-21 -38 -72 -68t-94 -30q-3 0 -12 5t-9 11q0 9 2 13q139 316 224 653q39 150 69.5 330.5t30.5 302.5q-129 0 -236 -39q-103 -40 -127 -141q-13 -38 -69.5 -71.5t-97.5 -33.5q-20 0 -23 17z" />
<glyph unicode="S" horiz-adv-x="1317" d="M41 258q0 76 43.5 144t113 109.5t140.5 41.5q14 0 18 -16q-3 -25 -26.5 -45.5t-61.5 -40.5q-18 -11 -27.5 -40t-9.5 -59q0 -83 66 -144t160 -92.5t176 -31.5q169 0 296.5 69.5t127.5 225.5q0 85 -55.5 148t-128.5 100.5t-181 77.5q-75 28 -140 66t-108 95t-43 131 q0 97 60.5 179.5t159 142.5t210 91.5t201.5 31.5q77 0 156.5 -17.5t135.5 -62t56 -121.5q0 -68 -20 -98q-27 -35 -72.5 -61.5t-87.5 -26.5q-22 0 -22 16q2 14 7 38t5 38q0 83 -55 110q-119 58 -256 58q-121 0 -204 -55t-83 -168q0 -67 38.5 -118t93 -83.5t128.5 -59.5 q171 -62 283 -143.5t112 -214.5q0 -156 -124.5 -273.5t-306 -180t-337.5 -62.5q-92 0 -194 35.5t-173 104.5t-71 161z" />
<glyph unicode="T" horiz-adv-x="1200" d="M72 999q0 74 55.5 146t143.5 130.5t181 91t164 32.5h943q53 0 77 2q81 62 148 67h10q14 -7 14 -16q0 -27 -34 -61q-78 -78 -165.5 -103.5t-211.5 -25.5h-346l-217 -867q-51 -201 -154 -426q-18 -37 -78 -70t-106 -38h-11q-14 7 -14 14q0 4 4 12q34 72 60.5 138.5t49 137 t40.5 140.5l229 914q4 14 37 45h-436q-73 0 -105 -25q-28 -24 -47.5 -62.5t-19.5 -74.5q-7 -26 -40 -53t-75 -45.5t-72 -20.5h-10q-5 2 -9.5 6t-4.5 12z" />
<glyph unicode="U" horiz-adv-x="1356" d="M-29 217q0 52 11.5 107t35.5 133q21 59 59.5 148.5t96.5 224.5t91.5 232.5t33.5 143.5q0 35 -13.5 50.5t-45.5 15.5t-56 -8.5t-49 -21.5t-55.5 -26.5t-52.5 -13.5q-5 0 -13 5t-8 12q0 14 8 22q32 42 98 78.5t141.5 58t141.5 21.5q46 0 70 -26t24 -73q0 -53 -32 -149 t-80.5 -210.5t-99 -231t-74.5 -185.5q-41 -119 -41 -213q0 -97 41.5 -162t130.5 -65q103 0 245.5 134t270.5 290q240 301 373 596q18 49 36.5 101t36.5 98q22 39 72.5 67.5t93.5 28.5q6 0 13.5 -5t7.5 -12q-12 -79 -76 -211q-48 -139 -90.5 -271t-81.5 -271t-67.5 -278.5 t-28.5 -229.5q0 -42 43 -49q56 32 96 32q7 0 13.5 -4.5t6.5 -11.5q-4 -34 -53.5 -67.5t-111 -54.5t-99.5 -21q-34 0 -60 24t-26 58q0 90 17 184.5t37 168.5t65 232q-89 -116 -185.5 -221.5t-215.5 -206.5t-245 -164t-241 -63q-71 0 -117.5 36t-69 96t-22.5 128z" />
<glyph unicode="V" horiz-adv-x="1343" d="M63 1303q10 36 51 62.5t83 33.5h20q132 0 215 -86.5t123.5 -216.5t54 -268t13.5 -271q0 -92 -4.5 -174t-14.5 -201q141 108 288.5 242.5t272 287.5t164.5 281q4 22 4 31q0 50 -27 90t-73 61t-96 21q-15 0 -15 33v10q0 24 11.5 61.5t32.5 68t44 30.5q103 0 164.5 -69.5 t61.5 -172.5v-10q0 -150 -99 -330.5t-256.5 -359t-325.5 -323.5t-304 -230q-6 -2 -10.5 -4t-8.5 -2q-12 0 -18 32v11q0 19 6 34q4 29 10 84.5t11 117t8.5 135.5t3.5 167q0 305 -72.5 555t-298.5 250q-5 0 -12 7t-7 12z" />
<glyph unicode="W" horiz-adv-x="2159" d="M63 1303q10 37 51 63t83 33h20q213 0 283.5 -206t70.5 -474q0 -199 -32 -453q90 109 182.5 234t179.5 255.5t157.5 246.5t149.5 264q-2 9 -8 21t-6 16q5 22 27.5 43.5t52 35t53.5 17.5h21q4 0 9 -3t5 -7q125 -312 197 -668q71 -358 71 -520q91 105 213.5 267t215.5 322.5 t93 251.5q0 68 -39 111t-106 43q-14 0 -14 33v10q0 24 11.5 61.5t32.5 68t44 30.5q86 0 130 -66.5t44 -156.5v-11q0 -233 -254 -633q-44 -71 -98.5 -146.5t-112.5 -149.5q-190 -248 -285 -332q-6 -6 -16 -6q-15 0 -21 32v11q0 140 -16.5 298t-47 321t-70.5 315.5t-89 289.5 q-159 -302 -354 -587q-58 -85 -122.5 -174t-123.5 -164q-43 -55 -90 -115t-102.5 -126t-87.5 -95q-10 -6 -19 -6q-12 0 -18 32v11q0 17 10 57q63 362 63 643q0 112 -9 212t-41 200.5t-97 165.5t-172 65q-5 0 -12 7t-7 12z" />
<glyph unicode="X" horiz-adv-x="1548" d="M109 121q0 50 26 92q40 58 135.5 132t188 131t206.5 122t212 119l-39 317q-11 102 -41 170t-109 68q-17 0 -22.5 -3.5t-16.5 -16.5t-28 -25q-46 -32 -86 -43q-22 -4 -31 -4q-3 0 -12 5t-9 11q7 54 72 111q120 92 287 92q96 0 135 -77.5t51 -193.5l37 -307 q184 104 303 175.5t168 131.5q14 20 14 58q0 39 -19 62.5t-56 23.5q-15 6 -15 16q4 27 34 52.5t70 42t68 16.5q32 0 57 -17t38.5 -45.5t13.5 -58.5q0 -52 -27 -92q-35 -53 -110.5 -114.5t-174.5 -124t-190 -114.5t-164 -94l45 -374q11 -102 41.5 -170t110.5 -68q17 0 23 4 t17.5 18t24.5 23q57 35 88 43q22 4 29 4q9 0 16 -4.5t7 -11.5q-9 -59 -74.5 -109.5t-133.5 -72t-153 -21.5q-95 0 -134.5 78.5t-51.5 191.5l-43 365q-46 -26 -137 -76t-177.5 -102t-158 -101.5t-101.5 -85.5q-14 -19 -14 -57q0 -37 19 -61.5t55 -24.5q16 -5 16 -16 q-6 -41 -66 -76t-106 -35q-47 0 -77.5 36t-30.5 85z" />
<glyph unicode="Y" horiz-adv-x="1444" d="M68 -51q0 37 21.5 88t53.5 51q14 0 19 -20q17 -83 82.5 -131t152.5 -48q38 0 98.5 31t108.5 63.5t111 79.5q4 108 4 199q0 213 -28.5 437t-124.5 404.5t-275 180.5h-8q-54 -57 -121 -70h-21q-5 0 -10.5 6.5t-5.5 12.5q7 34 55.5 74t111 66t103.5 26h21q199 0 304 -183 t137 -417t32 -459q0 -90 -2 -129q91 84 181 185.5t157 193.5q67 93 143 238t76 225q0 49 -25.5 88.5t-68.5 60.5t-95 21q-7 0 -9.5 6.5t-4 16t-2.5 16.5q0 40 23.5 88.5t56.5 48.5q51 0 92.5 -19.5t70.5 -54t43.5 -78t14.5 -94.5q0 -120 -63.5 -273t-157.5 -298.5 t-189 -262.5q-84 -99 -232.5 -242t-303 -253.5t-244.5 -110.5h-4q-71 0 -132 29t-99.5 81.5t-46.5 125.5z" />
<glyph unicode="Z" horiz-adv-x="1563" d="M78 16q0 17 33 47q243 196 417 344.5t340 303.5h-231q-19 11 -19 22q0 29 39.5 53.5t73.5 28.5h250q108 104 205.5 204t185.5 198q-25 -7 -51 -7h-10q-60 0 -114 6.5t-125.5 17.5t-140.5 19.5t-120 8.5q-85 0 -135.5 -25t-69.5 -100q-14 -39 -75 -74.5t-109 -40.5h-10 q-8 4 -11.5 7t-3.5 9v6q26 100 123 181.5t223.5 127.5t233.5 46h10q92 0 257 -25t241 -26q12 0 16 2q80 45 123 49h10q15 -8 15 -17q0 -20 -113.5 -142t-240.5 -247.5t-181 -177.5q67 0 123.5 -12t56.5 -53q0 -36 -35.5 -61t-76.5 -30h-15q-11 8 -14.5 12.5t-3.5 14.5 q1 2 -1 4l-3 2q-36 15 -144 19q-109 -101 -180.5 -164t-197.5 -170t-232 -195q37 6 74 6h10q133 0 375 -25t354 -26q38 0 71.5 63t49.5 122q15 40 76 75.5t108 38.5h11q14 -3 14 -14v-8q-27 -105 -103.5 -200t-183.5 -154.5t-209 -59.5h-10q-87 0 -165.5 6.5t-182.5 17.5 t-198 19t-181 8q-37 0 -59 -6.5t-64.5 -23.5t-75.5 -21h-10q-4 2 -9 6t-5 10z" />
<glyph unicode="[" horiz-adv-x="1450" d="M121 393v793q8 43 47 43t47 -43v-787q0 -118 79 -197t195.5 -115t235.5 -36q118 0 234 36t195 115t79 197v787q8 43 47 43t47 -43v-793q0 -112 -54.5 -194t-143.5 -136t-195 -80t-209 -26t-209.5 26t-196.5 80.5t-144 137.5t-54 192z" />
<glyph unicode="\" horiz-adv-x="1450" d="M121 2v791q0 144 92.5 243.5t232 146t279.5 46.5q103 0 206.5 -25t194.5 -79t146 -136.5t55 -195.5v-791q-3 -20 -15.5 -32.5t-31.5 -12.5t-31.5 12.5t-15.5 32.5v784q0 89 -47.5 157t-122 109.5t-164 62t-174.5 20.5q-84 0 -174 -20.5t-165 -62t-123 -109.5t-48 -157 v-784q-3 -20 -15.5 -32.5t-31.5 -12.5t-31.5 12.5t-15.5 32.5z" />
<glyph unicode="]" horiz-adv-x="1450" d="M121 393v793q8 43 47 43t47 -43v-787q0 -118 79 -197t195.5 -115t235.5 -36q118 0 234 36t195 115t79 197v787q8 43 47 43t47 -43v-793q0 -112 -54.5 -194t-143.5 -136t-195 -80t-209 -26t-209.5 26t-196.5 80.5t-144 137.5t-54 192zM309 629q0 39 45 47h324v323 q7 43 47 43t47 -43v-323h324q43 -8 43 -47t-43 -47h-324v-324q-3 -20 -15.5 -32.5t-31.5 -12.5t-31.5 12.5t-15.5 32.5v324h-324q-19 3 -32 15.5t-13 31.5z" />
<glyph unicode="^" horiz-adv-x="1450" d="M121 4q0 3 4 21l557 1179q13 25 43 25q27 0 43 -27l555 -1177q4 -18 4 -21q0 -19 -14 -33t-33 -14q-27 0 -43 27l-512 1087l-514 -1089q-13 -25 -43 -25q-19 0 -33 14t-14 33z" />
<glyph unicode="_" horiz-adv-x="1450" d="M121 1182q0 20 13.5 33.5t33.5 13.5q27 0 43 -27l514 -1087l514 1089q4 12 15.5 18.5t25.5 6.5q20 0 33.5 -13.5t13.5 -33.5q0 -7 -4 -19l-557 -1181q-13 -25 -41 -25q-30 0 -43 27l-557 1179q-4 12 -4 19z" />
<glyph unicode="`" horiz-adv-x="1329" d="M121 45v1333q7 43 47 43t47 -43v-620h948q18 -3 30.5 -15.5t12.5 -31.5q0 -40 -43 -47h-948v-619q-3 -20 -15.5 -32.5t-31.5 -12.5t-31.5 12.5t-15.5 32.5z" />
<glyph unicode="a" horiz-adv-x="1329" d="M121 711q0 19 12.5 31.5t32.5 15.5h946v620q3 18 15.5 30.5t31.5 12.5q40 0 47 -43v-1333q-3 -20 -15.5 -32.5t-31.5 -12.5t-31.5 12.5t-15.5 32.5v619h-946q-20 3 -32.5 15.5t-12.5 31.5z" />
<glyph unicode="b" horiz-adv-x="967" d="M377 -469v1962q7 43 47 43t47 -43v-1911h410q43 -7 43 -47t-43 -47h-459q-39 6 -45 43z" />
<glyph unicode="c" horiz-adv-x="967" d="M41 -465q0 40 43 47h410v1911q7 43 47 43q19 0 31.5 -12.5t15.5 -30.5v-1962q-6 -37 -43 -43h-461q-43 7 -43 47z" />
<glyph unicode="d" horiz-adv-x="967" d="M377 -469v1962q6 37 45 43h459q43 -7 43 -47t-43 -47h-410v-1911q-7 -43 -47 -43t-47 43z" />
<glyph unicode="e" horiz-adv-x="967" d="M41 1489q0 40 43 47h461q37 -6 43 -43v-1962q-3 -18 -15.5 -30.5t-31.5 -12.5q-40 0 -47 43v1911h-410q-43 7 -43 47z" />
<glyph unicode="f" horiz-adv-x="1087" d="M150 502v20q0 8 7.5 15.5t14.5 7.5q110 0 200.5 60t90.5 165v496q0 75 41 128.5t105 84t137 44t147 13.5h20q7 0 15 -8t8 -15v-20q0 -8 -7.5 -15.5t-15.5 -7.5q-65 0 -133 -22.5t-111.5 -69.5t-43.5 -116v-496q0 -67 -33.5 -117.5t-88.5 -84.5t-120 -52 q101 -27 171.5 -91.5t70.5 -162.5v-496q0 -69 43.5 -116t111 -69.5t133.5 -22.5q8 0 15.5 -7.5t7.5 -15.5v-20q0 -7 -8 -15t-15 -8h-20q-66 0 -140.5 13t-141.5 44.5t-107.5 85.5t-40.5 127v496q0 71 -44 122.5t-111 77t-136 25.5q-7 0 -14.5 7.5t-7.5 15.5z" />
<glyph unicode="g" horiz-adv-x="1087" d="M150 -469q0 8 7.5 15.5t14.5 7.5q110 0 200.5 53.5t90.5 154.5v496q0 97 69.5 162t172.5 92q-105 29 -173.5 93t-68.5 161v496q0 103 -90.5 155.5t-200.5 52.5q-7 0 -14.5 7.5t-7.5 15.5v20q0 7 8 15t14 8h21q98 0 196.5 -25t167 -86t68.5 -159v-496q0 -106 89 -165.5 t199 -59.5q8 0 15.5 -7.5t7.5 -15.5v-20q0 -8 -7.5 -15.5t-15.5 -7.5q-110 0 -199 -59.5t-89 -165.5v-496q0 -98 -68.5 -159t-167 -86t-196.5 -25h-21q-6 0 -14 8t-8 15v20z" />
<glyph unicode="h" horiz-adv-x="846" d="M240 512q0 4 4 20l389 977q16 27 43 27q20 0 33.5 -13.5t13.5 -33.5q0 -5 -4 -19l-381 -958l381 -958q4 -14 4 -19q0 -20 -13.5 -33.5t-33.5 -13.5q-31 0 -41 25l-391 981q-4 12 -4 18z" />
<glyph unicode="i" horiz-adv-x="846" d="M121 -465q0 5 4 19l381 958l-381 958q-4 14 -4 19q0 19 14 33t33 14q14 0 25.5 -7t17.5 -18l389 -979q4 -16 4 -20q0 -6 -4 -18l-389 -979q-16 -27 -43 -27q-19 0 -33 14t-14 33z" />
<glyph unicode="j" horiz-adv-x="604" d="M254 -469v1962q7 43 47 43t47 -43v-1962q-7 -43 -47 -43t-47 43z" />
<glyph unicode="k" horiz-adv-x="1087" d="M281 -469v1962q7 43 47 43q19 0 31.5 -12.5t15.5 -30.5v-1962q-3 -18 -15.5 -30.5t-31.5 -12.5q-40 0 -47 43zM713 -469v1962q7 43 47 43q19 0 31.5 -12.5t15.5 -30.5v-1962q-3 -18 -15.5 -30.5t-31.5 -12.5q-40 0 -47 43z" />
<glyph unicode="l" horiz-adv-x="1087" d="M31 6q8 27 30 27q137 -32 248.5 -105t186.5 -188v1544q-153 -228 -435 -293q-22 0 -30 27v43q5 19 24 24q116 27 212.5 93.5t160.5 163t86 212.5q7 25 29 25q21 0 28 -25q36 -180 161.5 -304t305.5 -167q12 -2 17 -22v-43q-8 -27 -31 -27q-140 34 -250.5 107.5 t-183.5 185.5v-1544q151 228 434 293q23 0 31 -27v-43q-5 -18 -25 -24q-113 -27 -209.5 -93t-161.5 -163t-88 -213q-7 -25 -28 -25q-22 0 -29 25q-33 177 -159.5 302.5t-307.5 168.5q-11 2 -16 22v43z" />
<glyph unicode="m" horiz-adv-x="1329" d="M55 20v43q7 27 29 27q2 0 12 -2q171 -66 305 -174v1196q-134 -108 -305 -174q-10 -2 -12 -2q-22 0 -29 27v43q7 18 19 22q121 45 230.5 124t193.5 183.5t139 229.5q10 16 27 16q16 0 26 -16q41 -94 98.5 -175.5t131.5 -151.5t155.5 -121.5t177.5 -88.5q12 -4 19 -22v-43 q-7 -27 -29 -27q-2 0 -12 2q-173 67 -303 174v-1196q130 107 303 174q10 2 12 2q22 0 29 -27v-43q-7 -18 -19 -22q-90 -33 -174.5 -86.5t-156.5 -121t-131.5 -151.5t-100.5 -178q-10 -16 -26 -16q-17 0 -27 16q-55 125 -139 229.5t-193.5 183.5t-230.5 124q-12 4 -19 22z M496 -170q99 -103 168 -219q70 119 170 219v1364q-100 100 -170 219q-69 -116 -168 -219v-1364z" />
<glyph unicode="n" horiz-adv-x="1087" d="M121 1489q0 19 14 33t33 14q33 0 43 -27l750 -1955q4 -14 4 -19q0 -20 -13.5 -33.5t-33.5 -13.5q-33 0 -44 27l-749 1955q-4 14 -4 19z" />
<glyph unicode="o" horiz-adv-x="604" d="M121 188q0 83 28 152t86 173t86.5 174t28.5 151q0 57 -19 124.5t-57 116.5t-96 49q-57 6 -57 33t57 33h17q72 0 126.5 -30t90 -81t52.5 -113t17 -132q0 -83 -28 -152.5t-86.5 -175.5t-86.5 -174.5t-28 -149.5q0 -57 19 -124.5t57 -116.5t96 -49q57 -6 57 -33t-57 -33h-16 q-95 0 -159.5 51t-96 133.5t-31.5 173.5z" />
<glyph unicode="p" horiz-adv-x="1812" d="M152 -1108q0 14 12 25l250 176q4 4 16 4q21 0 27 -17l391 -802l924 1792q10 24 40 24q21 0 34.5 -13.5t13.5 -33.5q0 -10 -5 -20l-1007 -1958q-8 -12 -18 -18.5t-21 -6.5h-25q-19 3 -24 17l-434 890l-123 -88q-9 -6 -17 -6q-11 0 -22.5 11.5t-11.5 23.5z" />
<glyph unicode="q" horiz-adv-x="1628" d="M90 27v24q5 19 27 25q123 0 164 14q16 8 16 55v1108q0 47 -16 56q-41 14 -164 14q-22 6 -27 27v24q7 25 29 25h547q21 0 28 -25v-24q-5 -22 -26 -27q-123 0 -164 -14q-17 -9 -17 -56v-1177h654v1177q0 47 -17 56q-41 14 -163 14q-22 6 -27 27v24q7 25 29 25h546 q22 0 29 -25v-24q-5 -21 -27 -27q-122 0 -163 -14q-17 -9 -17 -56v-1108q0 -47 17 -55q25 -8 67.5 -11t95.5 -3q22 -6 27 -25v-24q-5 -21 -27 -27h-1394q-22 6 -27 27z" />
<glyph unicode="r" horiz-adv-x="1812" d="M104 1378q0 21 19 21h1565q18 0 18 -21q0 -6 -2 -8l-741 -1405q-14 -28 -48 -28h-20q-35 0 -47 28l-742 1405q-2 2 -2 8zM393 1233l578 -1092l575 1092h-1153z" />
<glyph unicode="s" horiz-adv-x="907" d="M121 -244q0 42 27 68t67 26t66 -26t26 -68q0 -36 -25 -64t-61 -28q27 -39 70 -39q68 0 91.5 77t39.5 200q11 83 18 149.5t11 107t23.5 197t19.5 158.5q7 50 29 180.5t44 247t35 184.5q18 91 45.5 163t78.5 123.5t132 51.5q76 0 123 -60t47 -136q0 -40 -26 -67t-66 -27 t-67 27t-27 67q0 37 25 64.5t61 27.5q-27 39 -70 39q-67 0 -91 -76t-40 -201q-14 -116 -18 -154t-14.5 -137.5t-19 -170.5t-20.5 -150q-25 -166 -52 -316t-56 -296q-10 -56 -29 -115.5t-48 -109.5t-74 -81.5t-105 -31.5q-75 0 -122.5 60t-47.5 136z" />
<glyph unicode="t" horiz-adv-x="1450" d="M133 45v1141q8 43 47 43t47 -43v-1092h994v1092q8 43 47 43t47 -43v-1141q-6 -39 -43 -45h-1094q-39 6 -45 45z" />
<glyph unicode="u" horiz-adv-x="1450" d="M133 45v1141q6 37 45 43h1094q37 -6 43 -43v-1141q-3 -20 -15.5 -32.5t-31.5 -12.5t-31.5 12.5t-15.5 32.5v1090h-994v-1090q-3 -20 -15.5 -32.5t-31.5 -12.5t-31.5 12.5t-15.5 32.5z" />
<glyph unicode="v" d="M182 -301q0 39 45 47h1284q43 -7 43 -47t-43 -47h-1284q-19 3 -32 15.5t-13 31.5zM203 129v1198q6 37 45 43h1263q43 -7 43 -47t-43 -47h-1214v-1098h1214q43 -7 43 -47t-43 -47h-1263q-39 6 -45 45z" />
<glyph unicode="w" d="M135 131q0 39 45 47h1213v1098h-1213q-19 3 -32 15.5t-13 31.5q0 39 45 47h1264q37 -6 43 -43v-1198q-6 -39 -43 -45h-1264q-19 3 -32 15.5t-13 31.5zM135 -301q0 39 45 47h1284q43 -7 43 -47t-43 -47h-1284q-19 3 -32 15.5t-13 31.5z" />
<glyph unicode="x" horiz-adv-x="967" d="M152 522q0 104 61.5 187.5t159.5 115.5q-221 121 -221 297q0 86 45.5 160t122 117t163.5 43q74 0 143 -31.5t112.5 -90.5t43.5 -134q0 -36 -23 -59t-57 -23q-35 0 -58 24t-23 58q0 30 19 52t50 28q-28 53 -85 81.5t-122 28.5q-60 0 -104.5 -38.5t-66 -98t-21.5 -117.5 q0 -93 58 -168.5t149 -113.5q315 -128 315 -338q0 -104 -61 -186.5t-160 -116.5q221 -121 221 -297q0 -87 -46 -160.5t-122 -116.5t-162 -43q-73 0 -144 32t-114 90.5t-43 133.5q0 34 24 58t58 24t57 -24t23 -58q0 -30 -18.5 -51t-51.5 -29q32 -54 88 -82t119 -28 q60 0 104.5 38.5t66.5 98t22 117.5q0 95 -59 171t-148 111q-315 128 -315 338zM291 524q0 -91 54.5 -166t141.5 -112q60 0 102.5 39.5t63.5 99.5t21 115q0 91 -55.5 167t-141.5 111q-60 0 -101.5 -39t-63 -99.5t-21.5 -115.5z" />
<glyph unicode="y" horiz-adv-x="967" d="M121 883q0 34 24 57t58 23q50 0 136.5 -24t113.5 -28q0 51 -7.5 107.5t-16 104.5t-18.5 116.5t-10 122.5q0 34 24 57t58 23t57 -23t23 -57q0 -54 -7.5 -113t-19.5 -128.5t-18 -114t-6 -95.5q27 4 114.5 28t137.5 24q34 0 57 -23t23 -57t-23 -58t-57 -24t-67.5 7.5 t-92.5 24t-92 19.5q3 -52 16 -117l15 -73q20 -87 20 -160q0 -477 -45 -920q0 -6 -7 -14t-15 -8h-27q-8 0 -15.5 7.5t-7.5 14.5q-45 457 -45 920q0 40 4.5 73t14.5 82l16 78q15 71 17 117q-33 -3 -94.5 -20.5t-92 -24t-63.5 -6.5q-34 0 -58 24t-24 58z" />
<glyph unicode="z" horiz-adv-x="967" d="M121 47q0 34 24 57t58 23q50 0 135 -24t115 -27q-2 39 -19 127l-12 65q-21 94 -21 162q0 34 24 57t58 23t57 -23t23 -57q0 -42 -8 -91t-18.5 -96.5t-17.5 -88t-7 -78.5q30 3 116 27t136 24q34 0 57 -23t23 -57t-23 -58t-57 -24t-67.5 7.5t-92.5 24t-92 19.5 q2 -46 18 -127l13 -65q20 -88 20 -162q0 -32 -23 -56t-57 -24t-58 24t-24 56q0 63 26 182t26 172q-33 -3 -94.5 -20.5t-92 -24t-63.5 -6.5q-34 0 -58 24t-24 58zM121 977q0 33 23.5 57.5t58.5 24.5q28 0 57.5 -6t56 -13.5t67.5 -18t69 -13.5q0 38 -8.5 85t-21.5 109 t-17.5 90t-4.5 70q0 34 24 57t58 23t57 -23t23 -57q0 -42 -8 -91t-18.5 -96.5t-17.5 -88t-7 -78.5q30 3 67.5 13t68.5 18.5t60 14t56 5.5q35 0 57.5 -24.5t22.5 -57.5q0 -32 -23 -56t-57 -24q-47 0 -128 22.5t-124 26.5q0 -38 5.5 -70.5t17.5 -88t20 -103t8 -90.5 q0 -34 -23 -58t-57 -24t-58 24t-24 58q0 63 26 181t26 171q-43 -4 -123 -26.5t-127 -22.5q-34 0 -58 24t-24 56z" />
<glyph unicode="{" horiz-adv-x="1329" d="M121 944q0 105 44.5 193t123.5 152.5t174.5 98t195.5 33.5h564q43 -8 43 -47t-43 -47h-140v-1681q-7 -43 -47 -43q-19 0 -31.5 12.5t-15.5 30.5v1681h-151v-1681q-3 -18 -15.5 -30.5t-31.5 -12.5q-39 0 -48 43v819q-105 0 -215 32t-203 94t-148.5 151.5t-55.5 201.5z" />
<glyph unicode="|" d="M61 356q0 93 34.5 186.5t104 152.5t167.5 59q58 0 110 -25t86 -70l55 105q-74 56 -115.5 141.5t-41.5 181.5q0 106 51 197.5t138.5 146t195.5 54.5t195.5 -54.5t138.5 -146t51 -197.5q0 -96 -41.5 -181.5t-116.5 -141.5l55 -105q74 95 199 95q97 0 166 -59.5t103 -153 t34 -185.5q0 -100 -45 -193.5t-126.5 -149.5t-184.5 -56q-95 0 -173.5 47.5t-78.5 138.5h-129q0 -172 61 -352v-10q0 -40 -43 -47h-129q-19 3 -32 15.5t-13 31.5q0 6 2 10q60 186 60 352h-129q0 -91 -78.5 -138.5t-173.5 -47.5q-103 0 -185 56.5t-127 149.5t-45 193z" />
<glyph unicode="}" d="M121 578q0 20 16 36q100 84 195.5 183.5t177.5 205t158 223.5t137 234q13 25 41 25q26 0 43 -25q129 -247 296 -461t369 -385q17 -15 17 -36q0 -23 -17 -35q-201 -172 -368.5 -386t-296.5 -462q-18 -25 -43 -25q-27 0 -41 25q-79 151 -185 306t-228.5 292.5t-254.5 249.5 q-16 13 -16 35zM240 578q89 -78 173 -167.5t160.5 -187t144 -198.5t128.5 -209q61 108 129 209t145 198.5t160 187t172 167.5q-117 104 -226 226t-204.5 257.5t-175.5 277.5q-80 -142 -174.5 -275.5t-204.5 -257.5t-227 -228z" />
<glyph unicode="~" d="M121 995q0 197 87.5 333t274.5 136q75 0 144.5 -27t126 -77.5t92.5 -116.5q36 66 92.5 116.5t126 77.5t143.5 27q188 0 275.5 -136t87.5 -333q0 -148 -71 -278t-170 -232t-251 -237q-118 -102 -190 -285q-16 -26 -43 -26q-33 0 -43 26q-71 181 -189 285 q-158 143 -210.5 193t-124 141.5t-115 195.5t-43.5 217zM215 995q0 -100 41.5 -193.5t112.5 -180t160.5 -168.5t146.5 -134q102 -90 170 -223q70 136 172 223q51 46 144.5 133t162 170.5t110.5 178t42 194.5q0 76 -14 141.5t-44 118t-82 84t-129 31.5q-79 0 -147.5 -38.5 t-112.5 -104t-55 -144.5q-14 -36 -47 -36q-16 0 -30 11t-17 25q-11 80 -55.5 145.5t-113 103.5t-147.5 38q-76 0 -127.5 -31.5t-82.5 -85.5t-44.5 -121.5t-13.5 -136.5z" />
<glyph unicode="&#xa1;" d="M182 512q0 39 45 47h1237q43 -7 43 -47t-43 -47h-1237q-19 3 -32 15.5t-13 31.5z" />
<glyph unicode="&#xa2;" horiz-adv-x="604" d="M184 514q0 47 35 82t84 35t83 -34t34 -83t-35 -84t-82 -35t-83 36t-36 83z" />
<glyph unicode="&#xa3;" d="M319 33q0 17 13 30l446 449l-446 449q-13 13 -13 30q0 20 14.5 33.5t33.5 13.5q17 0 30 -10l449 -448l442 442q13 16 35 16q19 0 33 -14t14 -33q0 -17 -10 -30l-449 -449l449 -449q10 -13 10 -30q0 -19 -14 -33t-33 -14q-18 0 -31 10l-446 448l-443 -442q-16 -16 -36 -16 q-19 0 -33.5 13.5t-14.5 33.5z" />
<glyph unicode="&#xa4;" horiz-adv-x="1087" d="M141 326q0 40 35 53l297 133l-297 131q-35 13 -35 53q0 28 19 49t47 21q19 0 33 -10l268 -187l-31 318v6q0 25 20 42t46 17q25 0 45 -17t20 -42v-6l-30 -318l268 187q12 10 33 10q27 0 46 -21t19 -49q0 -41 -35 -53l-297 -131l297 -133q35 -12 35 -53q0 -28 -19 -49 t-46 -21q-20 0 -33 10l-268 187l30 -318v-6q0 -25 -20 -42t-45 -17q-26 0 -46 17t-20 42v6l31 318l-268 -187q-14 -10 -33 -10q-28 0 -47 21t-19 49z" />
<glyph unicode="&#xa5;" d="M121 512q0 19 12.5 31.5t32.5 15.5h1360q43 -8 43 -47t-43 -47h-1360q-20 3 -32.5 15.5t-12.5 31.5zM705 37q0 57 42 98t99 41q37 0 69.5 -18.5t51 -51t18.5 -69.5q0 -57 -41 -99t-98 -42t-99 42t-42 99zM705 989q0 57 42 98t99 41q37 0 69.5 -18.5t51 -51t18.5 -69.5 q0 -57 -41 -99t-98 -42t-99 42t-42 99z" />
<glyph unicode="&#xa6;" horiz-adv-x="1087" d="M25 512q0 19 12 31l475 477q13 10 31 10q17 0 30 -10l478 -477q10 -13 10 -31t-10 -31l-478 -475q-12 -12 -30 -12q-19 0 -31 12l-475 475q-12 12 -12 31zM139 512l404 -403l405 403l-405 406z" />
<glyph unicode="&#xa7;" d="M121 16q0 19 12.5 31.5t32.5 15.5h633v584h-633q-20 3 -32.5 15.5t-12.5 31.5t12.5 31.5t32.5 15.5h633v635q1 17 14 30t33 13q18 0 31 -13t16 -30v-635h633q43 -8 43 -47t-43 -47h-633v-584h633q43 -8 43 -47t-43 -47h-1360q-20 3 -32.5 15.5t-12.5 31.5z" />
<glyph unicode="&#xa8;" d="M121 330q0 19 12.5 31.5t32.5 15.5h633v584h-633q-20 3 -32.5 15.5t-12.5 31.5t12.5 31.5t32.5 15.5h1360q43 -8 43 -47t-43 -47h-633v-584h633q43 -8 43 -47t-43 -47h-633v-635q-3 -17 -16 -30t-31 -13q-20 0 -32.5 12.5t-14.5 30.5v635h-633q-20 3 -32.5 15.5 t-12.5 31.5z" />
<glyph unicode="&#xa9;" d="M121 512q0 194 97.5 361.5t264.5 265.5t363 98q195 0 361.5 -98t264 -265.5t97.5 -361.5t-97.5 -361.5t-264 -265.5t-361.5 -98q-196 0 -363 98t-264.5 265.5t-97.5 361.5zM193 477q0 -114 51.5 -225t140 -199.5t199.5 -140t225 -51.5v616h-616zM195 549h614v614 q-113 0 -224.5 -52t-199 -139.5t-139 -198t-51.5 -224.5zM881 -139q115 0 226.5 52t198 138.5t139 199t52.5 226.5h-616v-616zM881 549h614q0 114 -50.5 224t-138 198t-199.5 140t-226 52v-614z" />
<glyph unicode="&#xaa;" d="M121 512q0 194 97.5 361.5t264.5 265.5t363 98q195 0 361.5 -98t264 -265.5t97.5 -361.5t-97.5 -361.5t-264 -265.5t-361.5 -98q-196 0 -363 98t-264.5 265.5t-97.5 361.5zM193 477q0 -109 54 -225.5t138 -202.5q60 -60 134 -102.5t159 -65t168 -22.5q131 0 250.5 50.5 t210.5 141.5q52 54 96 125.5t69 148.5t25 152h-1304zM195 549h1300q0 112 -53.5 227.5t-136.5 198.5q-88 90 -208.5 140t-250.5 50q-131 0 -250.5 -49.5t-212.5 -142.5q-81 -81 -134.5 -198.5t-53.5 -225.5z" />
<glyph unicode="&#xad;" d="M121 512q0 194 97.5 361.5t264.5 265.5t363 98q195 0 361.5 -98t264 -265.5t97.5 -361.5t-97.5 -361.5t-264 -265.5t-361.5 -98q-196 0 -363 98t-264.5 265.5t-97.5 361.5zM193 512q0 -76 19 -155.5t56 -149.5t90 -131l437 436l-437 436q-79 -88 -122 -202.5t-43 -233.5z M410 25q58 -52 129 -89.5t149 -57t158 -19.5q121 0 232 43t202 123l-434 436zM410 999l436 -436l434 436q-88 79 -200.5 122.5t-233.5 43.5q-122 0 -235 -43.5t-201 -122.5zM895 512l436 -436q55 61 91.5 131.5t55.5 149.5t19 155t-19 155t-55.5 149.5t-91.5 131.5z" />
<glyph unicode="&#xae;" d="M121 512q0 194 97.5 361.5t264.5 265.5t363 98q195 0 361.5 -98t264 -265.5t97.5 -361.5t-97.5 -361.5t-264 -265.5t-361.5 -98q-196 0 -363 98t-264.5 265.5t-97.5 361.5zM193 512q0 -76 19 -155.5t56 -149.5t90 -131l922 923q-88 79 -200.5 122.5t-233.5 43.5 q-135 0 -253.5 -51t-208.5 -141t-140.5 -209.5t-50.5 -251.5zM410 25q58 -52 129 -89.5t149 -57t158 -19.5q130 0 249.5 50.5t210.5 142.5t141 210t50 250q0 76 -19 155t-55.5 149.5t-91.5 131.5z" />
<glyph unicode="&#xaf;" d="M121 512q0 194 97.5 361.5t264.5 265.5t363 98q195 0 361.5 -98t264 -265.5t97.5 -361.5t-97.5 -361.5t-264 -265.5t-361.5 -98q-196 0 -363 98t-264.5 265.5t-97.5 361.5zM193 512q0 -132 50 -250t140.5 -209.5t211 -142.5t251.5 -51q130 0 249.5 50.5t210.5 142.5 t141 210t50 250t-50.5 251.5t-141 210t-208 141t-251.5 50.5q-135 0 -253.5 -51t-208.5 -141t-140.5 -209.5t-50.5 -251.5zM692 512q0 42 20.5 77t56.5 56t77 21q40 0 75.5 -21t55.5 -56t20 -77q0 -62 -44 -108t-107 -46t-108.5 45.5t-45.5 108.5z" />
<glyph unicode="&#xb0;" horiz-adv-x="2175" d="M121 512q0 193 75.5 367t211 306.5t310 205.5t369.5 73q196 0 370.5 -73t309.5 -204t211 -305t76 -370q0 -195 -76.5 -370t-210.5 -305t-310.5 -203.5t-369.5 -73.5q-192 0 -368.5 73.5t-311 205t-210.5 306.5t-76 367zM215 512q0 -175 68 -331t191.5 -276t281.5 -185.5 t331 -65.5q174 0 333.5 66t280.5 184t190 275.5t69 332.5q0 176 -69.5 334t-189 274.5t-280 183t-334.5 66.5q-173 0 -332.5 -66t-280.5 -184t-190 -275t-69 -333z" />
<glyph unicode="&#xb1;" horiz-adv-x="1087" d="M121 512q0 85 32 162.5t91.5 137t135.5 92t163 32.5t163.5 -32.5t135.5 -91.5t91 -137t32 -163q0 -84 -32 -161.5t-92.5 -138t-135.5 -92.5t-162 -32q-114 0 -211.5 57t-154 155.5t-56.5 211.5zM215 512q0 -88 44 -164t121 -121t163 -45q87 0 163 45t120 121t44 164 t-44 164t-120 121t-163 45q-86 0 -163 -45t-121 -121t-44 -164z" />
<glyph unicode="&#xb2;" horiz-adv-x="1087" d="M121 512q0 85 32 162.5t91.5 137t135.5 92t163 32.5t163.5 -32.5t135.5 -91.5t91 -137t32 -163q0 -84 -32 -161.5t-92.5 -138t-135.5 -92.5t-162 -32q-114 0 -211.5 57t-154 155.5t-56.5 211.5z" />
<glyph unicode="&#xb3;" d="M121 35q0 19 16 37q74 62 157 116t172 94.5t186 63.5t194 23q129 0 253 -39t237 -105.5t216 -152.5q17 -17 17 -37t-13.5 -33.5t-33.5 -13.5q-18 0 -31 10q-147 126 -310 201t-335 75q-119 0 -233.5 -36.5t-214.5 -96t-199 -143.5q-15 -10 -31 -10q-19 0 -33 14t-14 33z M121 989q0 19 14 33t33 14q16 0 31 -10q99 -84 199 -143.5t214.5 -96t233.5 -36.5q117 0 231 36t214.5 96t199.5 144q13 10 31 10q20 0 33.5 -13.5t13.5 -33.5q0 -21 -17 -35q-99 -84 -214 -152.5t-239 -107.5t-253 -39t-254 39t-240 107t-215 153q-16 14 -16 35z" />
<glyph unicode="&#xb4;" d="M121 80q0 19 12.5 31.5t32.5 15.5h1360q43 -8 43 -47t-43 -47h-1360q-20 3 -32.5 15.5t-12.5 31.5zM121 512q0 19 12.5 31.5t32.5 15.5h1360q43 -8 43 -47t-43 -47h-1360q-20 3 -32.5 15.5t-12.5 31.5zM121 944q0 19 12.5 31.5t32.5 15.5h1360q43 -8 43 -47t-43 -47 h-1360q-20 3 -32.5 15.5t-12.5 31.5z" />
<glyph unicode="&#xb5;" d="M182 727q0 132 51.5 249.5t145.5 207t213.5 138t249.5 48.5h622q43 -7 43 -47t-43 -47h-616q-112 0 -216 -41.5t-184 -116.5t-126 -175.5t-46 -215.5q0 -153 78.5 -279t211 -198t282.5 -72h616q43 -7 43 -47t-43 -47h-622q-130 0 -249 48.5t-213.5 138.5t-146 207.5 t-51.5 248.5zM229 -301q0 39 45 47h1190q43 -7 43 -47t-43 -47h-1190q-19 3 -32 15.5t-13 31.5z" />
<glyph unicode="&#xb6;" d="M182 131q0 39 45 47h615q150 0 282 72t210.5 198t78.5 279q0 117 -46 218t-124.5 174.5t-183.5 115t-217 41.5h-615q-19 3 -32 15.5t-13 31.5q0 39 45 47h621q130 0 250 -49t212.5 -137t144.5 -206.5t52 -250.5q0 -131 -52 -250t-145 -207.5t-212.5 -137t-249.5 -48.5 h-621q-19 3 -32 15.5t-13 31.5zM182 -301q0 39 45 47h1190q43 -7 43 -47t-43 -47h-1190q-19 3 -32 15.5t-13 31.5z" />
<glyph unicode="&#xb8;" d="M182 131q0 27 29 43l1141 553l-1143 555q-27 10 -27 41q0 20 13.5 33.5t33.5 13.5q5 0 21 -4l1233 -596q24 -14 24 -43q0 -27 -26 -43l-1231 -596q-16 -4 -21 -4q-20 0 -33.5 13.5t-13.5 33.5zM182 -301q0 39 45 47h1237q43 -7 43 -47t-43 -47h-1237q-19 3 -32 15.5 t-13 31.5z" />
<glyph unicode="&#xb9;" d="M182 -301q0 39 45 47h1237q43 -7 43 -47t-43 -47h-1237q-19 3 -32 15.5t-13 31.5zM182 727q0 39 45 47q200 0 378 16.5t358 71t304.5 168.5t145.5 297q3 18 15.5 30.5t31.5 12.5q22 0 34.5 -13.5t12.5 -35.5q-16 -137 -77 -238.5t-156 -171.5t-207.5 -112.5t-255.5 -71.5 q139 -26 253 -69t209.5 -112.5t156.5 -171.5t77 -239q0 -23 -13 -37t-34 -14q-34 0 -45 37q-18 128 -73.5 216t-143.5 146.5t-215 102.5q-110 37 -234 58t-256 28.5t-266 7.5q-19 3 -32 15.5t-13 31.5z" />
<glyph unicode="&#xba;" d="M182 135q17 137 78 239t157 172t209.5 112.5t252.5 68.5q-188 37 -334 105t-244 189.5t-119 299.5q0 20 12.5 34.5t34.5 14.5q40 0 47 -43q23 -183 147 -296.5t304.5 -169t358.5 -71.5t378 -16q43 -7 43 -47t-43 -47q-135 0 -267 -7.5t-254.5 -28t-235.5 -58.5 q-91 -31 -164 -71t-128.5 -95t-90 -128t-48.5 -171q-14 -37 -47 -37q-21 0 -34 15t-13 36zM182 -301q0 39 45 47h1237q43 -7 43 -47t-43 -47h-1237q-19 3 -32 15.5t-13 31.5z" />
<glyph unicode="&#xbb;" d="M121 307v17q0 109 43 212.5t126.5 170.5t192.5 67q102 0 184.5 -51t188.5 -148.5t181.5 -145.5t168.5 -48q86 0 154 48t105.5 125.5t37.5 162.5q6 57 33 57t33 -57v-17q0 -109 -43 -212.5t-126 -170.5t-194 -67q-98 0 -178.5 49t-186 146.5t-184 147.5t-174.5 50 q-86 0 -154 -48t-105.5 -125.5t-37.5 -162.5q-6 -57 -32 -57q-27 0 -33 57z" />
<glyph unicode="&#xbc;" d="M121 139v17q0 98 49 180.5t131.5 130t181.5 47.5q93 0 173.5 -37.5t195.5 -114.5t189.5 -113t164.5 -36q71 0 139.5 30.5t113 87t44.5 126.5q6 57 33 57t33 -57v-17q0 -75 -27.5 -139t-79 -114.5t-117.5 -77.5t-139 -27q-92 0 -170 36.5t-193.5 114t-192 114t-167.5 36.5 q-71 0 -139.5 -30.5t-113 -87t-44.5 -126.5q-6 -57 -32 -57q-27 0 -33 57zM121 659v17q0 100 49 182t132 129t181 47q93 0 173.5 -37.5t195.5 -114.5t189.5 -113t164.5 -36q71 0 139.5 30.5t113 87t44.5 126.5q6 57 33 57t33 -57v-16q0 -75 -27.5 -139.5t-79 -115 t-117.5 -77.5t-139 -27q-92 0 -170 36.5t-193.5 114t-192 114t-167.5 36.5q-71 0 -139.5 -30.5t-113 -87t-44.5 -126.5q-6 -57 -32 -57q-27 0 -33 57z" />
<glyph unicode="&#xbd;" d="M182 512q0 132 51.5 249.5t145.5 207t213.5 138t249.5 48.5h622q43 -7 43 -47t-43 -47h-616q-112 0 -216 -41.5t-184 -116.5t-126 -175.5t-46 -215.5q0 -153 78.5 -279t211 -198t282.5 -72h616q43 -7 43 -47t-43 -47h-622q-130 0 -249 48.5t-213.5 138.5t-146 207.5 t-51.5 248.5z" />
<glyph unicode="&#xbe;" d="M182 -84q0 39 45 47h615q150 0 282 72t210.5 198t78.5 279q0 117 -46 218t-124.5 174.5t-183.5 115t-217 41.5h-615q-19 3 -32 15.5t-13 31.5q0 39 45 47h621q130 0 250 -49t212.5 -137t144.5 -206.5t52 -250.5q0 -131 -52 -250t-145 -207.5t-212.5 -137t-249.5 -48.5 h-621q-19 3 -32 15.5t-13 31.5z" />
<glyph unicode="&#xbf;" horiz-adv-x="2175" d="M121 512q0 27 26 43l1178 657q15 5 18 5q21 0 34.5 -13.5t13.5 -34.5q0 -27 -25 -43l-1102 -614l1106 -618q21 -12 21 -39q0 -19 -13.5 -33.5t-34.5 -14.5q-9 0 -20 7l-1182 659q-20 13 -20 39zM784 512q0 26 27 43l1178 657q15 5 18 5q19 0 33 -14t14 -34q0 -28 -24 -43 l-1102 -614l1106 -618q20 -12 20 -39q0 -18 -14 -33t-33 -15q-9 0 -20 7l-1182 659q-21 14 -21 39z" />
<glyph unicode="&#xc0;" horiz-adv-x="2175" d="M121 -145q0 28 26 43l1100 614l-1106 618q-20 12 -20 39q0 20 14 34t33 14q8 0 22 -7l1180 -659q21 -14 21 -39q0 -27 -25 -41l-1178 -659l-20 -5q-19 0 -33 15t-14 33zM784 -145q0 28 27 43l1100 614l-1106 618q-21 12 -21 39q0 21 13.5 34.5t33.5 13.5q9 0 23 -7 l1180 -659q20 -13 20 -39q0 -27 -24 -41l-1178 -659q-20 -5 -21 -5q-20 0 -33.5 14.5t-13.5 33.5z" />
<glyph unicode="&#xc1;" d="M182 510q0 39 45 47q200 0 378 16.5t358 71t304.5 168.5t145.5 297q3 18 15.5 30.5t31.5 12.5q21 0 34 -14t13 -35q-21 -180 -119.5 -301t-244.5 -188.5t-332 -104.5q292 -57 478 -193.5t218 -398.5q0 -23 -13 -37t-34 -14q-34 0 -45 37q-18 128 -73.5 216t-143.5 146.5 t-215 102.5q-110 37 -234 58t-256 28.5t-266 7.5q-19 3 -32 15.5t-13 31.5z" />
<glyph unicode="&#xc2;" d="M182 -82q33 263 219 399t478 193q-186 37 -332.5 104.5t-245 189.5t-119.5 300q0 19 13 34t34 15q40 0 47 -43q23 -183 147 -296.5t304.5 -169t358.5 -71.5t378 -16q43 -7 43 -47t-43 -47q-135 0 -267 -7.5t-254.5 -28t-235.5 -58.5q-91 -31 -164 -71t-128.5 -95 t-90 -128t-48.5 -171q-14 -37 -47 -37q-21 0 -34 15t-13 36z" />
<glyph unicode="&#xc3;" horiz-adv-x="2175" d="M121 512q0 21 18 27q84 25 159 71.5t135 112.5t99.5 143t53.5 160q5 22 26 27h43q25 -7 25 -33q-25 -135 -102 -256t-193 -205h1626q19 0 31 -13.5t12 -33.5q0 -19 -13 -33t-30 -14h-1626q76 -55 135.5 -126t100 -156t59.5 -179q0 -26 -25 -33h-43q-21 5 -26 27 q-14 81 -54.5 161t-99.5 144.5t-134 111t-159 70.5q-18 6 -18 27z" />
<glyph unicode="&#xc4;" d="M121 426q0 124 56.5 229t137.5 188t203 187q176 152 285 428q10 27 43 27q27 0 43 -27q107 -275 285 -428q122 -104 203 -187t137.5 -188t56.5 -229q0 -105 -22.5 -212.5t-83.5 -182t-169 -74.5q-103 0 -188.5 44.5t-85.5 141.5h-129q0 -172 61 -352v-10q0 -40 -43 -47 h-129q-19 3 -32 15.5t-13 31.5q0 6 2 10q60 186 60 352h-129q0 -97 -85.5 -141.5t-189.5 -44.5q-108 0 -169 75t-83 182t-22 212z" />
<glyph unicode="&#x2000;" horiz-adv-x="801" />
<glyph unicode="&#x2001;" horiz-adv-x="1602" />
<glyph unicode="&#x2002;" horiz-adv-x="801" />
<glyph unicode="&#x2003;" horiz-adv-x="1602" />
<glyph unicode="&#x2004;" horiz-adv-x="534" />
<glyph unicode="&#x2005;" horiz-adv-x="400" />
<glyph unicode="&#x2006;" horiz-adv-x="267" />
<glyph unicode="&#x2007;" horiz-adv-x="267" />
<glyph unicode="&#x2008;" horiz-adv-x="200" />
<glyph unicode="&#x2009;" horiz-adv-x="320" />
<glyph unicode="&#x200a;" horiz-adv-x="89" />
<glyph unicode="&#x2010;" horiz-adv-x="2175" d="M88 702q0 7 8 23q107 156 107 348q0 162 -80 309q-2 9 -2 11q0 12 8 20t21 8q2 0 12 -2q144 -80 307 -80q92 0 184 28.5t170 82.5q12 4 17 4q12 0 24.5 -11.5t22.5 -23.5q8 -8 8 -20q0 -17 -12 -23q-187 -127 -412 -127q-71 0 -121 11l1692 -1692q12 -12 12 -33 q0 -19 -14 -33t-33 -14q-16 0 -33 12l-1691 1692q10 -51 10 -121q0 -220 -129 -414q-5 -10 -21 -10q-8 0 -16.5 5.5t-18.5 16t-14 13.5q-6 12 -6 20z" />
<glyph unicode="&#x2011;" horiz-adv-x="2175" d="M88 702q0 7 8 23q107 156 107 348q0 162 -80 309q-2 9 -2 11q0 12 8 20t21 8q2 0 12 -2q144 -80 307 -80q92 0 184 28.5t170 82.5q12 4 17 4q12 0 24.5 -11.5t22.5 -23.5q8 -8 8 -20q0 -17 -12 -23q-187 -127 -412 -127q-71 0 -121 11l1692 -1692q12 -12 12 -33 q0 -19 -14 -33t-33 -14q-16 0 -33 12l-1691 1692q10 -51 10 -121q0 -220 -129 -414q-5 -10 -21 -10q-8 0 -16.5 5.5t-18.5 16t-14 13.5q-6 12 -6 20z" />
<glyph unicode="&#x2012;" horiz-adv-x="2175" d="M88 702q0 7 8 23q107 156 107 348q0 162 -80 309q-2 9 -2 11q0 12 8 20t21 8q2 0 12 -2q144 -80 307 -80q92 0 184 28.5t170 82.5q12 4 17 4q12 0 24.5 -11.5t22.5 -23.5q8 -8 8 -20q0 -17 -12 -23q-187 -127 -412 -127q-71 0 -121 11l1692 -1692q12 -12 12 -33 q0 -19 -14 -33t-33 -14q-16 0 -33 12l-1691 1692q10 -51 10 -121q0 -220 -129 -414q-5 -10 -21 -10q-8 0 -16.5 5.5t-18.5 16t-14 13.5q-6 12 -6 20z" />
<glyph unicode="&#x2013;" horiz-adv-x="1233" d="M88 702q0 7 4 23q56 156 56 348q0 162 -42 309q-1 9 -1 11q0 12 4.5 20t10.5 8q1 0 7 -2q75 -80 159 -80q48 0 96 28.5t89 82.5q6 4 9 4q6 0 12.5 -11.5t11.5 -23.5q4 -8 4 -20q0 -17 -6 -23q-97 -127 -215 -127q-36 0 -63 11l882 -1692q6 -12 6 -33q0 -19 -7.5 -33 t-16.5 -14t-18 12l-880 1692q5 -51 5 -121q0 -220 -67 -414q-3 -10 -11 -10q-5 0 -9 5.5t-9.5 16t-7.5 13.5q-3 12 -3 20z" />
<glyph unicode="&#x2014;" horiz-adv-x="2257" d="M88 702q0 7 8 23q112 156 112 348q0 162 -84 309q-2 9 -2 11q0 12 8.5 20t22.5 8q2 0 12 -2q150 -80 320 -80q96 0 191.5 28.5t177.5 82.5q12 4 17 4q13 0 26 -11.5t23 -23.5q9 -8 9 -20q0 -17 -13 -23q-195 -127 -429 -127q-74 0 -126 11l1762 -1692q13 -12 13 -33 q0 -19 -14.5 -33t-34.5 -14q-17 0 -34 12l-1762 1692q11 -51 11 -121q0 -220 -135 -414q-5 -10 -22 -10q-8 0 -17 5.5t-19.5 16t-14.5 13.5q-6 12 -6 20z" />
<glyph unicode="&#x202f;" horiz-adv-x="320" />
<glyph unicode="&#x205f;" horiz-adv-x="400" />
<glyph unicode="&#x2219;" d="M182 -301q0 39 45 47h1237q43 -7 43 -47t-43 -47h-1237q-19 3 -32 15.5t-13 31.5zM182 727q0 27 29 43l1231 596q12 4 18 4q19 0 33 -14t14 -33q0 -27 -26 -43l-1143 -553l1145 -553q24 -14 24 -43q0 -19 -14 -33t-33 -14q-6 0 -18 4l-1233 598q-27 10 -27 41z" />
<glyph unicode="&#xe000;" horiz-adv-x="1440" d="M0 1440h1440v-1440h-1440v1440z" />
</font>
</defs>
</svg>
