<?xml version="1.0" standalone="no"?>
<!DOCTYPE svg PUBLIC "-//W3C//DTD SVG 1.1//EN" "http://www.w3.org/Graphics/SVG/1.1/DTD/svg11.dtd" >
<svg xmlns="http://www.w3.org/2000/svg">
<metadata>
This is a custom SVG webfont generated by Font Squirrel.
Copyright   : Copyright C 1994 Basil K Malyshev All Rights Reserved012BaKoMa Fonts Collection LevelB
</metadata>
<defs>
<font id="cmsy7Regular" horiz-adv-x="1827" >
<font-face units-per-em="2048" ascent="1638" descent="-410" />
<missing-glyph horiz-adv-x="500" />
<glyph unicode=" "  horiz-adv-x="500" />
<glyph unicode="&#x09;" horiz-adv-x="500" />
<glyph unicode="&#xa0;" horiz-adv-x="500" />
<glyph unicode="!" horiz-adv-x="2331" d="M160 512q0 19 14 34t33 15h1675q-73 54 -134 126.5t-102 157t-59 175.5q0 27 27 31h49q22 -3 25 -25q24 -117 89.5 -217.5t162.5 -170t214 -99.5q17 -6 17 -27q0 -9 -4.5 -17.5t-12.5 -9.5q-116 -30 -214 -101t-163.5 -172t-88.5 -216q-3 -22 -25 -25h-49q-27 4 -27 31 q28 137 104.5 256t190.5 203h-1675q-19 0 -33 15.5t-14 35.5z" />
<glyph unicode="&#x22;" horiz-adv-x="1198" d="M66 856v49q6 21 26 27q92 20 168.5 61t139 103t107.5 142t66 167q3 16 27 16q13 0 27 -16q44 -181 171.5 -308.5t307.5 -164.5q21 -6 27 -27v-49q-9 -25 -33 -25q-93 19 -174 58.5t-151.5 99t-125.5 135.5v-1474q0 -19 -15 -33t-34 -14q-20 0 -35.5 14t-15.5 33v1474 q-55 -76 -124.5 -135.5t-151.5 -99t-175 -58.5q-25 0 -32 25z" />
<glyph unicode="#" horiz-adv-x="1198" d="M66 119v49q7 25 32 25q93 -19 175 -58.5t151.5 -99t124.5 -135.5v1474q0 19 15.5 33t35.5 14q19 0 34 -14t15 -33v-1474q81 114 199.5 191t251.5 102q24 0 33 -25v-49q-7 -21 -27 -27q-178 -35 -306.5 -163.5t-172.5 -309.5q-6 -16 -27 -16q-16 0 -27 16 q-20 86 -65.5 166.5t-106.5 141.5t-141 104.5t-168 60.5q-20 6 -26 27z" />
<glyph unicode="$" horiz-adv-x="2331" d="M160 512q0 21 18 27q176 46 303.5 178.5t161.5 308.5q3 22 25 25h49q11 -2 18.5 -11t7.5 -20q-27 -139 -103 -257t-191 -202h1433q-73 54 -134 126.5t-102 157t-59 175.5q0 27 27 31h49q22 -3 25 -25q24 -117 89.5 -217.5t162.5 -170t214 -99.5q17 -6 17 -27 q0 -9 -4.5 -17.5t-12.5 -9.5q-116 -30 -214 -101t-163.5 -172t-88.5 -216q-3 -22 -25 -25h-49q-27 4 -27 31q28 137 104.5 256t190.5 203h-1433q113 -81 190 -200.5t104 -258.5q0 -11 -7.5 -20t-18.5 -11h-49q-22 3 -25 25q-34 176 -161.5 310t-303.5 179q-18 3 -18 27z" />
<glyph unicode="%" horiz-adv-x="2331" d="M160 -350q0 26 12 37l1743 1568q-27 -4 -80 -4q-246 0 -442 148q-13 6 -13 22q0 13 9 21l15 14q7 8 17.5 15.5t20.5 7.5q4 0 16 -4q84 -62 180 -94.5t199 -32.5q156 0 295 71q8 2 10 2q13 0 21 -8t8 -20q0 -5 -4 -17q-107 -156 -107 -348q0 -87 24 -169.5t68 -158.5 q2 -8 2 -10q0 -14 -6 -20q-3 -2 -21.5 -19.5t-31.5 -17.5q-16 0 -27 16q-51 88 -76.5 182.5t-25.5 190.5q0 74 16 160l-1736 -1565q-17 -14 -35 -14q-20 0 -35.5 14t-15.5 33z" />
<glyph unicode="&#x26;" horiz-adv-x="2331" d="M160 1374q0 19 15.5 33t35.5 14q22 0 33 -14l1738 -1565q-16 86 -16 160q0 201 102 373q11 16 27 16q10 0 20 -7.5t19.5 -17t13.5 -12.5q6 -12 6 -20q0 -2 -2 -10q-43 -73 -67.5 -156.5t-24.5 -171.5q0 -192 107 -348q4 -12 4 -17q0 -12 -8 -20t-21 -8q-2 0 -10 2 q-139 71 -295 71q-103 0 -199 -32.5t-180 -94.5q-12 -4 -16 -4q-12 0 -32 19l-21 18q-9 14 -9 21q0 16 13 22q196 148 442 148q53 0 80 -4l-1741 1566q-14 15 -14 39z" />
<glyph unicode="'" d="M160 61q0 41 47 50h1413q47 -9 47 -50q0 -20 -14 -34t-33 -17h-1413q-19 3 -33 17t-14 34zM160 571v21q0 106 48 203t134.5 157t194.5 60q103 0 188.5 -47t195.5 -135.5t192 -133.5t177 -45q80 0 151.5 40.5t113.5 109.5t42 151q5 53 35 60q30 -7 35 -60v-20 q0 -107 -48.5 -204.5t-135 -157.5t-193.5 -60q-99 0 -184 46t-196 134t-192.5 134t-180.5 46q-80 0 -151.5 -40t-114 -109t-42.5 -150q-5 -54 -34 -61q-30 7 -35 61z" />
<glyph unicode="(" horiz-adv-x="2331" d="M160 512q0 22 26 29q153 36 288 111.5t244.5 188t178.5 249.5q8 14 23 16h49q26 -7 26 -29q0 -31 -75.5 -135.5t-124.5 -155.5h1329q47 -7 47 -49q0 -21 -13.5 -34.5t-33.5 -16.5h-1438q-132 -108 -293 -174q164 -70 293 -176h1438q20 -3 33.5 -16.5t13.5 -32.5 q0 -21 -13.5 -34.5t-33.5 -16.5h-1329q14 -14 69 -83t93 -128t38 -80q0 -22 -26 -29h-49q-18 3 -23 16q-107 213 -295 355.5t-424 197.5q-18 3 -18 27z" />
<glyph unicode=")" horiz-adv-x="2331" d="M160 287q0 42 47 49h1438q129 105 292 176q-160 66 -292 174h-1438q-19 3 -33 17t-14 34q0 42 47 49h1329q-56 61 -128.5 160.5t-72.5 130.5q0 21 27 29h49q18 -4 23 -16q71 -141 179.5 -252.5t246.5 -187t294 -111.5q8 -1 12.5 -9.5t4.5 -17.5q0 -22 -25 -29 q-155 -37 -289 -112t-243 -187t-180 -252q-10 -14 -23 -16h-49q-27 8 -27 29q0 33 77 137.5t124 153.5h-1329q-47 7 -47 51z" />
<glyph unicode="*" horiz-adv-x="1450" d="M92 686v49q8 19 19 23q210 92 363 260t224 387q11 16 27 16q21 0 27 -16q46 -142 131.5 -267.5t200.5 -222t255 -157.5q11 -4 19 -23v-49q-8 -27 -29 -27q-2 0 -12 3q-176 78 -316 202v-1214q-3 -20 -17.5 -33.5t-33.5 -13.5t-33.5 14t-15.5 33v1313q-103 113 -176 258 q-70 -138 -174 -258v-1313q-3 -20 -17.5 -33.5t-33.5 -13.5t-33.5 14t-15.5 33v1214q-144 -125 -318 -202q-10 -3 -12 -3q-21 0 -29 27z" />
<glyph unicode="+" horiz-adv-x="1450" d="M92 289v49q8 27 29 27q2 0 12 -3q180 -80 318 -202v1214q1 19 15.5 33t33.5 14t33.5 -13.5t17.5 -33.5v-1313q104 -120 174 -258q73 145 176 258v1313q1 19 15.5 33t33.5 14t33.5 -13.5t17.5 -33.5v-1214q135 122 316 202q10 3 12 3q21 0 29 -27v-49q-8 -19 -19 -23 q-106 -46 -196 -111.5t-165 -147.5t-132.5 -180.5t-93.5 -207.5q-11 -16 -27 -16q-21 0 -27 16q-34 109 -92.5 208.5t-132.5 180t-166 147.5t-196 111q-11 4 -19 23z" />
<glyph unicode="," horiz-adv-x="2331" d="M119 512q0 21 18 27q132 45 246.5 125.5t202 187.5t143.5 238q5 13 25 16h49q24 -7 24 -29q0 -2 -2 -10q-66 -156 -170 -281h1020q-106 129 -170 281q-2 8 -2 10q0 22 25 29h49q16 -3 25 -16q56 -131 144 -239t202 -187.5t247 -124.5q17 -6 17 -27t-17 -27 q-134 -47 -248 -127t-201.5 -187.5t-143.5 -238.5q-6 -13 -25 -16h-49q-25 7 -25 29q0 2 2 10q64 152 170 281h-1020q104 -125 170 -281q2 -8 2 -10q0 -22 -24 -29h-49q-17 3 -25 16q-56 131 -143 238t-201.5 187.5t-247.5 127.5q-18 6 -18 27zM313 512q66 -34 129.5 -79 t118.5 -97h1208q50 47 119 96t129 80q-140 73 -245 174h-1213q-107 -102 -246 -174z" />
<glyph unicode="-" horiz-adv-x="2331" d="M160 1393q0 12 8 20t20 8q2 0 13 -2q136 -71 293 -71q103 0 199.5 32.5t178.5 94.5q14 4 17 4q14 0 28 -13t25 -24q8 -16 8 -21q0 -16 -12 -22q-93 -71 -208.5 -109.5t-233.5 -38.5q-54 0 -80 4l1741 -1566q14 -15 14 -39q0 -20 -15.5 -33.5t-35.5 -13.5q-22 0 -33 14 l-1739 1565q17 -92 17 -160q0 -96 -26 -191.5t-77 -181.5q-10 -16 -26 -16q-13 0 -31 17t-23 20q-6 12 -6 20q0 2 2 10q92 152 92 328q0 190 -104 348q-6 9 -6 17z" />
<glyph unicode="." horiz-adv-x="2331" d="M160 -369q0 8 6 17q104 158 104 348q0 176 -92 328q-2 8 -2 10q0 14 6 20q1 1 20.5 19t33.5 18q16 0 26 -16q103 -171 103 -373q0 -68 -17 -160l1737 1565q17 14 35 14q20 0 35.5 -13.5t15.5 -33.5q0 -26 -12 -37l-1743 -1568q26 4 80 4q118 0 233.5 -38.5t208.5 -109.5 q12 -6 12 -22q0 -13 -8 -21t-16.5 -16t-17.5 -14.5t-19 -6.5q-3 0 -17 4q-82 62 -178.5 94.5t-199.5 32.5q-157 0 -293 -71q-11 -2 -13 -2q-12 0 -20 8t-8 20z" />
<glyph unicode="/" d="M160 442q0 114 49.5 221.5t141 173.5t208.5 66q94 0 183 -34.5t161.5 -94t130.5 -139.5l47 -66q42 72 96 133t118.5 105.5t138 70t155.5 25.5q26 0 80 -8v-78q-6 0 -8 2q-32 4 -53 4q-101 0 -189.5 -46.5t-156 -121.5t-119.5 -172l102 -143q82 -112 171 -182t198 -70 q28 0 55 6v-104q-48 -10 -86 -10q-93 0 -181 34t-160.5 93t-133.5 141l-47 65q-85 -145 -218 -239t-288 -94q-88 0 -162.5 39t-126 106t-79 149t-27.5 168zM225 440q0 -91 37 -179.5t108 -145t165 -56.5q100 0 188.5 46.5t156 121.5t119.5 172l-102 144 q-81 113 -170.5 182.5t-198.5 69.5q-69 0 -124.5 -29.5t-96 -81.5t-61.5 -114t-21 -130z" />
<glyph unicode="0" horiz-adv-x="674" d="M98 131q0 2 2 6l275 922q14 40 43 63t69 23q50 0 87.5 -33.5t37.5 -83.5q0 -26 -10 -49l-395 -885q-3 -12 -21 -12q-4 0 -8 2l-61 22q-19 9 -19 25z" />
<glyph unicode="1" horiz-adv-x="2331" d="M160 442q0 89 33.5 174t91.5 148.5t138.5 101t174.5 37.5q76 0 149 -18.5t134.5 -50t124 -81t106.5 -102.5l72 -84q67 94 152.5 170.5t188 121t214.5 44.5q91 0 172 -38t138.5 -101.5t89.5 -147t32 -174.5q0 -92 -32 -174.5t-92.5 -148.5t-141.5 -102.5t-172 -36.5 q-146 0 -279 67.5t-235 183.5l-72 84q-52 -73 -111 -132t-130.5 -105.5t-151 -72t-162.5 -25.5q-123 0 -221.5 64.5t-154.5 171t-56 226.5zM225 440q0 -96 45 -183t123.5 -140.5t177.5 -53.5q153 0 282 94.5t224 239.5l-110 129q-99 117 -193.5 186.5t-208.5 69.5 q-92 0 -170 -46t-124 -125t-46 -171zM1253 485l111 -129q69 -79 125 -131.5t126.5 -88.5t149.5 -36q91 0 169.5 46.5t124.5 126t46 169.5q0 95 -45 183t-124 141t-177 53q-102 0 -197 -45.5t-170.5 -120t-138.5 -168.5z" />
<glyph unicode="2" horiz-adv-x="1575" d="M221 512q0 139 55 261.5t150.5 213t220 142t262.5 51.5h398q20 -3 33.5 -16.5t13.5 -33.5q0 -21 -13.5 -34.5t-33.5 -16.5h-392q-205 0 -368 -123q-89 -67 -156 -180t-67 -215h983q47 -7 47 -49q0 -21 -13.5 -34.5t-33.5 -16.5h-983q0 -102 67 -215t156 -180 q80 -60 176.5 -91.5t194.5 -31.5h389q21 -3 34 -16t13 -36q0 -19 -13.5 -32.5t-33.5 -16.5h-396q-183 0 -342 89t-253.5 243t-94.5 338z" />
<glyph unicode="3" horiz-adv-x="1575" d="M221 -109q0 23 13 36t34 16h391q206 0 369 123q57 42 109 108.5t83 142t31 144.5h-983q-20 3 -33.5 16.5t-13.5 34.5q0 42 47 49h983q0 69 -31 144.5t-83 142t-109 108.5q-163 123 -371 123h-389q-20 3 -33.5 16.5t-13.5 34.5q0 20 13.5 33.5t33.5 16.5h396 q139 0 264 -51t221.5 -143t150.5 -213.5t54 -260.5q0 -184 -94.5 -338t-253 -243t-340.5 -89h-398q-20 3 -33.5 16.5t-13.5 32.5z" />
<glyph unicode="4" horiz-adv-x="2079" d="M166 51q0 11 8 27l823 1362q14 22 43 22q28 0 41 -22l824 -1362q8 -16 8 -27q0 -21 -13.5 -34.5t-33.5 -16.5h-1653q-19 3 -33 17t-14 34zM305 100h1469l-734 1215z" />
<glyph unicode="5" horiz-adv-x="2079" d="M166 975q0 42 47 49h1653q20 -3 33.5 -16.5t13.5 -32.5q0 -13 -8 -29l-824 -1362q-13 -22 -41 -22q-29 0 -43 22l-823 1362q-8 16 -8 29zM305 924l735 -1215l734 1215h-1469z" />
<glyph unicode="6" horiz-adv-x="0" d="M348 -391q0 6 4 18l1034 1813q14 22 44 22q20 0 34.5 -14.5t14.5 -34.5q0 -7 -0.5 -10.5t-1.5 -7.5l-1037 -1813q-13 -22 -41 -22q-20 0 -35.5 14.5t-15.5 34.5z" />
<glyph unicode="7" horiz-adv-x="0" d="M160 166v690q8 47 51 47q21 0 33.5 -13.5t15.5 -33.5v-295h16q22 -3 35 -16t13 -33q0 -43 -48 -51h-16v-295q-3 -20 -16.5 -33.5t-32.5 -13.5q-43 0 -51 47z" />
<glyph unicode="8" horiz-adv-x="1323" d="M33 1372q0 20 14.5 34.5t36.5 14.5q27 0 47 -30l193 -457h677l195 457q17 30 47 30q21 0 35 -14t14 -35q0 -7 -0.5 -10.5t-1.5 -7.5l-579 -1364q-21 -31 -47 -31q-30 0 -48 31l-579 1364q-4 12 -4 18zM367 834l297 -695l294 695h-591z" />
<glyph unicode="9" horiz-adv-x="1323" d="M160 51q0 42 47 49h856v562h-825q-19 2 -33.5 15.5t-14.5 33.5q0 21 14.5 34.5t33.5 16.5h825v559h-856q-47 7 -47 51q0 42 47 49h909q41 -6 47 -47v-1327q-6 -41 -47 -47h-909q-19 3 -33 17t-14 34z" />
<glyph unicode=":" horiz-adv-x="1575" d="M160 690q0 42 47 49h1161q41 -6 47 -47v-471q-7 -47 -49 -47q-21 0 -34.5 13.5t-16.5 33.5v418h-1108q-19 3 -33 17t-14 34z" />
<glyph unicode=";" horiz-adv-x="1198" d="M133 702q0 312 97 536t368 224q93 0 176 -39l41 123q16 31 47 31q20 0 34.5 -14.5t14.5 -34.5q0 -7 -0.5 -10.5t-1.5 -8.5l-47 -141q120 -100 160.5 -274t40.5 -392q0 -134 -18 -260t-67.5 -236t-142 -178.5t-237.5 -68.5q-93 0 -176 39l-39 -123q-21 -31 -47 -31 q-21 0 -36 15t-15 35q0 6 4 18l45 141q-120 98 -160.5 267.5t-40.5 381.5zM299 739q0 -188 12.5 -336t57.5 -239l381 1184q-70 49 -152 49q-104 0 -167.5 -66t-91.5 -171t-34 -200.5t-6 -220.5zM446 76q66 -51 152 -51q137 0 202.5 120.5t81 268t15.5 325.5q0 110 -3 194.5 t-18.5 177.5t-46.5 153z" />
<glyph unicode="&#x3c;" horiz-adv-x="1702" d="M129 188q0 11 7.5 17.5t20 10.5t21.5 7q-12 18 -12 35t14 31t31 14q12 0 19.5 -9.5t11.5 -25t6 -20.5q7 3 15.5 6.5t15.5 3.5q14 0 25 -11t11 -26q0 -11 -6.5 -16t-15 -8.5t-23.5 -8.5q28 -75 79.5 -119t123.5 -44q91 0 117 161t26 334v391q0 149 -16 238 q-10 50 -34.5 103.5t-64 88.5t-91.5 35q-47 0 -84 -26t-57.5 -68.5t-20.5 -87.5q0 -25 12.5 -45.5t30 -38t41.5 -37.5q141 -125 141 -246q0 -129 -37.5 -229t-144.5 -100q-62 0 -96.5 52.5t-34.5 115.5q0 26 22 26h33q9 0 16 -6t7 -16q0 -37 11.5 -72t41.5 -35q90 0 90 254 q0 51 -28.5 91t-85.5 95t-82 93t-25 90q0 105 74 180.5t178 75.5q96 0 177.5 -55.5t137.5 -143.5q83 119 240 169t331 50q16 0 25 -12l330 -528q2 -4 2 -13q0 -14 -13 -20l-126 -80q-118 -76 -250 -100l28 -455q0 -13 -0.5 -20.5t-1.5 -16.5q0 -54 26 -100.5t73 -75.5 l172 125q4 2 12 2q17 0 35 -12t18 -29q0 -13 -12 -21l-219 -145q-3 0 -5.5 -0.5t-5.5 -1.5h-36q-69 0 -127.5 35t-93.5 95t-35 128q0 25 2 35l-29 446h-252v-182q0 -77 -20 -175.5t-61 -185t-107.5 -141.5t-153.5 -55q-199 0 -274 203q-9 -3 -19 -6.5t-16 -3.5q-11 0 -23 12 t-12 24zM770 1151q45 -110 45 -240v-131h346q143 0 291 86l-313 502q-128 -17 -230 -68t-139 -149z" />
<glyph unicode="=" horiz-adv-x="1702" d="M160 338v20q0 7 8 15t14 8h154q91 0 167 -39.5t181.5 -124.5t164 -124.5t136.5 -57.5q68 11 129 43.5t100 85t39 119.5q0 46 -27.5 82.5t-82 87t-82 91t-27.5 93.5q0 73 44 130t114.5 86.5t142.5 29.5q62 0 125 -23t103.5 -69t40.5 -109q0 -10 -6.5 -18.5t-16.5 -8.5h-37 q-7 0 -14.5 7.5t-7.5 15.5q0 66 -58 102.5t-129 36.5q-53 0 -77.5 -57.5t-24.5 -122.5q0 -44 24.5 -76.5t79.5 -83.5t85 -95.5t30 -98.5q0 -72 -36.5 -130.5t-94.5 -96.5t-127.5 -57t-140.5 -19h-154q-85 0 -163 37.5t-167 103.5l-82 61q-82 62 -154 97.5t-151 35.5 q-7 0 -14.5 7.5t-7.5 15.5zM160 1044q0 92 41.5 166.5t113.5 126t158.5 78.5t173.5 27q229 0 424 -148q58 -42 94 -82q8 -7 77 -90.5t93 -83.5q187 0 187 90q0 23 22 23h37q23 0 23 -27q0 -86 -82.5 -118.5t-186.5 -32.5q-113 0 -196.5 53t-180 152.5t-162.5 148.5t-151 49 q-74 0 -146 -23t-130 -66t-92.5 -104.5t-34.5 -138.5q0 -105 63 -180.5t160.5 -114t200.5 -38.5q9 0 15.5 -7.5t6.5 -15.5v-20q0 -11 -7.5 -17t-18.5 -6q-85 0 -174 25.5t-165 78t-119.5 127t-43.5 168.5z" />
<glyph unicode="&#x3e;" d="M160 1372q0 42 47 49h1415q47 -7 47 -49q0 -44 -47 -51h-657v-1274q-7 -47 -50 -47q-20 0 -34 14t-17 33v1274h-657q-47 7 -47 51z" />
<glyph unicode="?" d="M160 51q0 42 47 49h657v1274q3 19 17 33t34 14q43 0 50 -47v-1274h657q47 -7 47 -49q0 -20 -14 -34t-33 -17h-1415q-19 3 -33 17t-14 34z" />
<glyph unicode="@" horiz-adv-x="1450" d="M160 23v20q0 8 7.5 15.5t14.5 7.5q178 0 178 63q0 42 -18.5 82.5t-52 93t-51 92.5t-17.5 84q0 111 47.5 220t128.5 227l-67 69q-82 82 -126 138.5t-44 115.5q0 52 13.5 111t49.5 59q11 0 18 -6t7 -16q0 -59 31 -110.5t88 -108.5l608 -611q8 82 29 172l16 82 q16 78 24.5 128t12.5 108q-66 49 -106 92.5t-40 99.5q0 54 14 112t50 58q20 0 24 -22q11 -29 59 -97.5t79 -101.5q15 -14 61 -50t68 -66t22 -72q0 -28 -5 -68t-19 -71t-39 -31q-10 0 -17.5 6.5t-7.5 15.5q0 70 -67 133q-15 -97 -31 -178l-17 -82q-29 -149 -36 -243l69 -70 q85 -85 127.5 -138t42.5 -116q0 -28 -5 -68t-19 -71t-39 -31q-10 0 -17.5 6.5t-7.5 16.5q0 59 -32 111.5t-87 107.5l-620 622q-39 -80 -56.5 -177t-17.5 -204q0 -46 23 -79.5t73 -86.5t75.5 -94t25.5 -94q0 -74 -69.5 -101.5t-154.5 -27.5h-178q-6 0 -14 8t-8 15z" />
<glyph unicode="A" horiz-adv-x="1878" d="M96 72v12q0 36 28 100t60 64q13 0 17 -15q15 -54 67 -90.5t109 -36.5q47 0 119 69t153 173t125 168.5t117 171.5q97 145 199 320t182 333l6 15h27v14v10q10 28 40 53t69 40.5t67 15.5q7 0 13.5 -3.5t6.5 -10.5q0 -159 8 -337.5t23 -342.5t39 -342q20 -170 78 -332 q14 -47 71 -47q24 12 39.5 19.5t34.5 13.5t41 6q5 0 12.5 -4t7.5 -11v-10q-20 -55 -119.5 -101t-168.5 -46h-4q-39 0 -69 20t-42 55q-50 137 -78 318h-612q-138 -190 -248 -314t-201 -124q-49 0 -96.5 23t-81 63.5t-39.5 89.5zM840 442q46 25 82 25h436q-23 222 -34.5 393 t-16.5 363q-214 -421 -467 -781z" />
<glyph unicode="B" horiz-adv-x="1542" d="M102 -16l4 8q39 72 67.5 134t50 121.5t42.5 141.5q35 137 65.5 283.5t58 313t42.5 288.5l-65 -33q-45 -18 -72 -18q-3 0 -12 5t-9 9v12q14 40 82 78l166 84q60 29 92 29q7 0 15 -4.5t8 -10.5v-10q-24 -187 -47 -330q124 155 299 257t358 102q65 0 125 -24t97.5 -70.5 t37.5 -110.5v-12q0 -124 -119 -219.5t-284 -167.5q91 -16 168.5 -59.5t124.5 -114t47 -162.5v-10q0 -165 -125.5 -287.5t-310 -185t-346.5 -62.5q-91 0 -177.5 30.5t-152.5 90.5q0 2 -2 5l-2 3v10q16 43 72 76t104 33h4q17 -9 43 -30.5t51 -35.5q98 -49 215 -49 q182 0 306 73t124 241q0 79 -36.5 138.5t-95 96.5t-130.5 55.5t-147 18.5q-28 0 -68.5 -6.5t-60.5 -6.5q-5 0 -13 5t-8 10v12q4 12 10 19q25 32 77 57.5t121 49.5t124 44q158 57 233 115q58 52 58 125q0 83 -66 127.5t-153 44.5q-161 0 -289 -139.5t-211.5 -332.5 t-128.5 -368q-51 -212 -166 -412q-24 -40 -75 -70t-99 -30q-3 0 -12 5t-9 9v11z" />
<glyph unicode="C" horiz-adv-x="1270" d="M70 446v11q0 190 77 368t215.5 317.5t316 218.5t370.5 79q75 0 124.5 -33t49.5 -104v-11q0 -90 -119 -286q-23 -34 -73 -63.5t-91 -29.5q-27 0 -27 15v10q12 30 44 85t50.5 96.5t18.5 84.5q0 103 -133 103q-295 0 -467 -256q-46 -67 -83.5 -154.5t-57 -176t-19.5 -175.5 q0 -88 25.5 -172t77.5 -149t127.5 -101.5t169.5 -36.5q106 0 204 61q29 20 51.5 43.5t46.5 52t54 52.5q74 51 125 51q24 0 24 -14v-10q-3 -14 -8 -19q-53 -73 -125.5 -136.5t-161 -112.5t-182.5 -75t-184 -26q-137 0 -237 66.5t-151.5 179.5t-51.5 247z" />
<glyph unicode="D" horiz-adv-x="1821" d="M78 995v13q26 102 105 177.5t188.5 123t224.5 69t227 21.5h221q134 0 257.5 -21.5t231.5 -73.5t175.5 -146.5t67.5 -233.5v-13q0 -209 -118.5 -379.5t-312 -290t-413 -180.5t-418.5 -61h-260q-16 8 -16 14v13q13 35 57 63.5t86 38.5q110 262 176 530q76 302 94 607 q-85 0 -183.5 -19t-141.5 -61q-29 -28 -39.5 -63t-22.5 -52q-29 -39 -74 -64.5t-92 -25.5q-4 0 -12 5t-8 9zM545 133h114q162 0 325.5 41t298.5 127t215.5 218t80.5 306q0 132 -64 219.5t-169 136.5t-220.5 67t-244.5 18h-39q-24 -277 -88 -525q-38 -151 -90.5 -303.5 t-118.5 -304.5z" />
<glyph unicode="E" horiz-adv-x="1262" d="M100 211v12q0 37 12 78.5t34.5 84.5t46.5 76.5t51 63.5q59 69 123.5 113.5t164.5 99.5q-84 31 -138 86.5t-54 132.5v13q0 137 112 243.5t276 166t298 59.5q99 0 177.5 -29t78.5 -111v-10q0 -49 -32 -94.5t-80.5 -73.5t-94.5 -28q-22 0 -22 14v10q2 7 17 36t15 48 q0 63 -65.5 84t-149.5 21q-136 0 -234.5 -60.5t-98.5 -187.5q0 -87 64.5 -136t155.5 -68t179 -19q16 -8 16 -15v-10q-15 -42 -71.5 -75.5t-100.5 -33.5q-87 0 -168.5 -24t-146.5 -72q-33 -25 -61.5 -57.5t-52.5 -70.5t-39 -82.5t-15 -86.5q0 -114 110 -165.5t238 -51.5 q141 0 262 94q19 16 66 64.5t84 72t84 23.5h4q7 0 13.5 -3.5t6.5 -10.5v-10q-3 -14 -12 -23q-64 -77 -136.5 -136.5t-161 -107t-178.5 -72t-185 -24.5q-146 0 -269 61t-123 191z" />
<glyph unicode="F" horiz-adv-x="1675" d="M68 88v10q16 43 72 76t104 33q14 0 22 -21q32 -60 92.5 -90t130.5 -30q33 33 92.5 146.5t108 224.5t88.5 210q58 153 99.5 309t66.5 310h-96q-136 0 -211 -62q-29 -28 -38.5 -44.5t-17.5 -42.5t-22 -46q-29 -39 -74 -64.5t-92 -25.5q-4 0 -12 5t-8 9v13q24 88 88 159.5 t154 123.5t188 80t190 28h662q225 0 225 -74v-12q0 -29 -31.5 -56.5t-77.5 -46t-69 -18.5q-3 0 -12 5t-9 9v13q1 2 1.5 4t0.5 4q-4 15 -14 20q-22 11 -66.5 15t-111.5 4h-365q-46 -248 -145 -521h569q17 -9 17 -14v-10q-13 -54 -69.5 -92.5t-113.5 -38.5q-4 0 -5.5 1.5 t-6.5 4.5q-2 1 -3 8.5t-5 7.5h-436q-28 -69 -62 -142.5t-74.5 -151t-76.5 -140.5q-38 -68 -100.5 -125t-136.5 -89t-152 -32q-84 0 -152.5 41t-105.5 115z" />
<glyph unicode="G" horiz-adv-x="1409" d="M131 575v13q0 181 80.5 337.5t217.5 272t308 179t348 63.5q285 0 285 -142v-10q0 -75 -110 -211q-104 -123 -193 -123h-4q-23 0 -23 15v10q8 19 27.5 42.5t46.5 56.5t43.5 63.5t16.5 58.5q0 107 -244 107q-277 0 -432 -177q-52 -59 -90.5 -134.5t-59 -158.5t-20.5 -163 q0 -110 44 -202.5t127 -146t197 -53.5q77 0 146 33t123.5 87.5t93.5 125t55 141.5q18 43 73 75t103 32q6 0 13.5 -4t7.5 -10v-11q-56 -221 -101 -358.5t-118 -263.5q-40 -71 -99.5 -138.5t-129.5 -116.5t-149 -76.5t-165 -27.5h-6q-197 0 -361 74q-16 8 -16 14v11 q16 44 72 76t104 32h4q166 -73 350 -73q42 0 78 12q70 32 139 165t105 248q-107 -82 -229 -131t-244 -49q-124 0 -218.5 57t-145 156t-50.5 223z" />
<glyph unicode="H" horiz-adv-x="2003" d="M78 995v13q3 8 3 7.5t3 6.5q68 116 176 202t238.5 130.5t267.5 44.5q56 0 98.5 -36t42.5 -93v-10q0 -184 -102 -564h596q40 136 67.5 219.5t66.5 190t75 194.5q24 40 75.5 69.5t98.5 29.5q7 0 13.5 -4.5t6.5 -10.5v-10q-101 -271 -160.5 -449.5t-107.5 -373.5 q-28 -106 -49 -229t-21 -201q0 -38 28 -64t67 -26q61 0 116 14q1 0 3 7.5t3 8.5q7 15 9 19q29 38 74.5 64t91.5 26q8 0 15 -4t7 -10v-13q-21 -83 -100 -138t-181 -81t-198 -26q-53 0 -92 36.5t-39 90.5v10q0 176 98 549q-32 -21 -70 -21h-532q-33 -115 -85.5 -261.5 t-109.5 -285.5q-15 -26 -43 -49.5t-62.5 -37t-66.5 -13.5q-4 0 -12 5t-8 9v13q32 86 75 203.5t76 212.5t64 204h-201q-16 8 -16 15v12q10 26 39.5 50.5t66 40t64.5 15.5h82q19 70 38 158t31.5 172.5t12.5 147.5q0 43 -29.5 67.5t-73.5 24.5q-90 0 -157.5 -22.5t-122.5 -84.5 q-15 -18 -43 -59t-45 -58q-75 -61 -138 -61h-4q-4 0 -12 5t-8 9z" />
<glyph unicode="I" horiz-adv-x="1323" d="M6 14v13q10 24 40 49.5t66.5 41t63.5 15.5h205q33 0 45 12q72 72 116.5 199.5t92.5 312.5l36 144q24 96 55.5 186t71.5 161t89 118h-133q-140 0 -251.5 -7t-178.5 -34q-17 -19 -29 -55t-49 -66q-71 -51 -125 -51q-25 0 -25 14v10q46 189 332 279q74 21 148 29.5t146.5 11 t176.5 2.5h553q3 0 9.5 -5.5t6.5 -9.5v-10q-15 -41 -70 -74.5t-100 -33.5h-274l-5 -8l-5 -7q-34 -45 -61 -106t-50.5 -135.5t-42 -150t-29.5 -120.5q-53 -217 -110 -360.5t-168 -245.5h438q39 0 58 4q31 4 37.5 7.5t11.5 23.5q6 18 16 29q27 30 71 54.5t83 24.5q8 0 17 -3 t9 -11v-12q-18 -75 -92.5 -132t-173.5 -87.5t-182 -30.5h-823q-5 0 -11 5t-6 9z" />
<glyph unicode="J" horiz-adv-x="1602" d="M135 68v10q0 69 21 98q29 37 76 63.5t90 26.5q7 0 13.5 -3.5t6.5 -10.5v-12q-10 -42 -10 -74q0 -128 107.5 -200t242.5 -72q95 0 175 47t136.5 127t79.5 170q23 92 67 261.5t95 308t125.5 258.5t171.5 200h-293q-100 0 -189 -32.5t-154.5 -99t-88.5 -161.5 q-16 -42 -72 -74.5t-104 -32.5q-3 0 -12 5t-9 10v10q36 145 162.5 262t293 181.5t318.5 64.5h500q17 -9 17 -15v-10q-10 -26 -40.5 -51.5t-67 -41t-64.5 -15.5q-46 0 -72 -13q-64 -34 -125 -146t-112.5 -261t-84 -270t-65.5 -257q-39 -151 -156 -279.5t-276.5 -204 t-311.5 -75.5q-95 0 -185 35t-148 104.5t-58 168.5z" />
<glyph unicode="K" horiz-adv-x="1784" d="M102 -16q56 145 114.5 308.5t108 330.5t81.5 339.5t32 313.5l-71 -35q-41 -18 -68 -18q-25 0 -25 14v12q14 40 82 78l189 96q38 17 65 17t27 -15v-10q0 -156 -29.5 -331t-76 -344.5t-108.5 -346t-126 -334.5q-22 -37 -73.5 -68.5t-94.5 -31.5q-27 0 -27 14v11zM561 821 q0 78 113.5 184t281.5 206.5t323 164.5t228 64h21q53 0 92 -34.5t39 -88.5q0 -45 -32.5 -76t-80.5 -37h-20q-21 11 -21 31q4 16 4 25q0 30 -23.5 50.5t-55.5 20.5q-64 0 -243 -87.5t-327.5 -195t-148.5 -169.5q0 -65 57 -198.5t144.5 -276t180.5 -239.5t160 -97 q73 0 140 20.5t106 67.5q14 20 29 56t36 54.5t72 26.5h21q20 -11 20 -29q-17 -74 -70.5 -131.5t-127 -96t-152.5 -58t-156 -19.5h-20q-80 0 -181 99t-195 249.5t-154 295.5t-60 218z" />
<glyph unicode="L" horiz-adv-x="1620" d="M104 -27q2 17 15 33q38 48 86 86q34 38 69 94q77 125 115 285q52 201 106.5 348t141.5 279q63 93 152 171.5t196 124.5t217 46h4q58 0 102.5 -26t69.5 -71.5t25 -101.5q0 -72 -29 -104q-90 -90 -174 -90q-24 0 -24 16q1 13 4.5 30.5t3.5 34.5q0 73 -42.5 120.5 t-113.5 47.5q-54 0 -86 -18q-108 -72 -195 -283t-141 -428q-26 -102 -65 -192t-95 -170q31 6 66 6q77 0 155.5 -13.5t206 -43t194.5 -41t144 -11.5q35 0 49 16t27.5 52t26.5 51q36 36 83 63t91 27q24 0 24 -16q-10 -83 -92 -161t-193 -126.5t-192 -48.5q-77 0 -146.5 12 t-193 40.5t-203.5 42.5t-157 14q-8 0 -48 -32.5t-77.5 -54.5t-81.5 -22q-25 0 -25 14z" />
<glyph unicode="M" horiz-adv-x="2748" d="M94 2v10q0 37 28 100.5t60 63.5q8 0 13 -4q32 -31 78 -48.5t92 -17.5q58 0 111 100t106 234l32 82q41 103 73.5 206t57.5 199.5t44 199.5t32 216q2 14 21 33q8 10 22 21q62 43 105 43h10q7 0 12.5 -5t5.5 -12q43 -194 99.5 -403.5t126 -403t143.5 -319.5q64 56 110 98.5 t78.5 73t94.5 90.5l51 53q189 195 282 294t142 151t147.5 159t177.5 197l13 13q6 6 12.5 10t13.5 4q15 0 21 -35v-12q0 -32 -12 -64q-43 -220 -74.5 -451t-46.5 -458q-4 -66 -4 -98q0 -103 14 -193q3 -24 19.5 -38.5t39.5 -14.5q72 37 109 37q5 0 12.5 -4t7.5 -11v-10 q-19 -54 -116.5 -99.5t-165.5 -45.5q-77 0 -97 81.5t-20 198.5v10q0 283 88 805q-62 -68 -187 -201t-224 -236.5t-160 -166.5l-52 -53q-29 -29 -104.5 -101.5t-153 -141t-90.5 -68.5t-20 10q-132 182 -224.5 444t-173.5 584q-33 -159 -80 -314.5t-106 -308.5l-35 -84 q-48 -122 -95 -223.5t-116 -191.5t-139 -90q-58 0 -131 29.5t-78 76.5z" />
<glyph unicode="N" horiz-adv-x="1915" d="M-31 2v10q0 37 28 100.5t60 63.5q9 0 13 -4q33 -31 79.5 -48.5t94.5 -17.5q32 0 62.5 36t54.5 89.5t37 91.5t32 97q43 129 78 258q15 53 35.5 144.5t36.5 172.5q12 69 19.5 114t13.5 85t10 79t4 70q8 26 32.5 47.5t56.5 35.5t58 14h10q4 0 9.5 -4t7.5 -9 q68 -191 127 -347.5t141 -343t160.5 -335t167.5 -272.5q44 186 70 290.5t69 267t76 280.5q15 54 42 147t53.5 167t61.5 142q59 106 168 146.5t252 40.5q21 0 25 -35v-12q0 -41 -24.5 -97t-57.5 -67q-106 0 -185.5 -17t-138.5 -69q-23 -58 -46 -126t-47.5 -153t-44 -162 t-40.5 -155q-60 -230 -88 -344t-80 -342l-2 4q-12 -37 -58.5 -66.5t-88.5 -29.5h-10q-10 0 -15 10q-92 114 -171 248.5t-153 292.5t-126.5 287t-141.5 364q-1 -4 -1.5 -7.5t-2.5 -9.5l-10 -65q-20 -110 -66.5 -300t-113.5 -388.5t-150 -336.5t-170 -138q-60 0 -134 29.5 t-79 76.5z" />
<glyph unicode="O" horiz-adv-x="1853" d="M160 524v13q0 141 54 279t151 263q54 67 138.5 142t176 133t174.5 82q20 4 29 4q26 0 26 -15v-10q-10 -29 -57 -63q-32 -22 -96 -56t-103 -63q-96 -80 -164 -180q-133 -204 -133 -430q0 -151 63.5 -272.5t180 -190t268.5 -68.5q148 0 279 63t229 173t151.5 248.5 t53.5 283.5q0 119 -40.5 221.5t-125 164t-207.5 61.5q-106 0 -193.5 -97.5t-146.5 -226.5q-22 -38 -73 -69t-95 -31q-24 0 -24 14v12q37 99 108.5 194.5t166.5 172t201.5 120.5t211.5 44q134 0 227 -65.5t140 -175.5t47 -241v-10q0 -196 -92 -376.5t-247 -318t-345 -216 t-381 -78.5q-163 0 -288.5 73t-195 203t-69.5 289z" />
<glyph unicode="P" horiz-adv-x="1657" d="M78 995v13q26 102 105 177.5t188.5 123t224.5 69t227 21.5h289q131 0 262 -26.5t227.5 -98t96.5 -195.5v-10q0 -98 -53 -190.5t-134 -166.5t-172 -130q-134 -79 -284.5 -120.5t-306.5 -41.5q-27 0 -27 14v12q15 41 71.5 74t100.5 33q73 0 143 10.5t136.5 32t127.5 57.5 q87 54 144 142.5t57 185.5q0 112 -92.5 176t-216.5 86.5t-244 22.5h-108q-10 -112 -24 -202t-33.5 -190t-41.5 -188q-83 -333 -237 -694q-23 -39 -75 -70t-93 -31q-27 0 -27 15v12q14 37 43.5 106t44.5 113q76 196 148 467q40 157 67 329.5t39 332.5q-85 0 -183.5 -19 t-141.5 -61q-27 -28 -41 -68.5t-27 -56.5q-27 -31 -72 -55.5t-84 -24.5q-24 0 -24 14z" />
<glyph unicode="Q" horiz-adv-x="1915" d="M272 596v12q0 161 91.5 313t241 269t321 183.5t325.5 66.5q113 0 206 -37.5t162.5 -107.5t106.5 -164t37 -207v-11q0 -214 -122 -402.5t-315 -320.5t-404 -194q79 -25 150 -47t135 -38.5t136 -28t152 -13.5q59 0 81 15t36.5 51.5t25.5 50.5q28 33 71.5 57.5t84.5 24.5 q7 0 16 -4t9 -11v-12q-21 -84 -100.5 -155t-184 -110.5t-193.5 -39.5q-110 0 -214 23t-271.5 74t-277 76t-226.5 25q-4 0 -10 5t-6 10v10q10 27 40 52.5t67.5 41t64.5 15.5q104 0 197.5 5.5t180 19.5t174 46t165.5 82q103 71 179.5 164t119.5 206t43 234q0 103 -33.5 192 t-96 154t-150 100.5t-189.5 35.5q-157 0 -303.5 -87t-236 -228.5t-89.5 -297.5q0 -103 47 -183t130.5 -124.5t184.5 -44.5q76 0 154 23q42 16 75.5 29.5t49.5 17.5q20 4 29 4q24 0 24 -15v-10q-19 -54 -106.5 -95.5t-195 -64t-185.5 -22.5q-83 0 -156 28t-130 81t-87.5 123 t-30.5 155z" />
<glyph unicode="R" horiz-adv-x="2009" d="M78 995v13q26 102 105 177.5t188.5 123t224.5 69t227 21.5h238q151 0 282 -12.5t241 -68t110 -167.5v-10q0 -127 -79 -235t-198.5 -183t-245.5 -115q33 -36 79 -117.5t104.5 -182t113 -158.5t107.5 -58q62 0 103.5 23.5t91 71t81 68.5t84.5 21q7 0 15 -4t8 -10v-12 q-4 -5 -6 -10l-4 -9q-61 -76 -147.5 -138t-185.5 -98t-196 -36q-86 0 -150.5 76.5t-144.5 227t-134.5 223.5t-131.5 73q-16 8 -16 14v13q10 26 39.5 50.5t66 40t64.5 15.5q121 0 232.5 37.5t182 118.5t70.5 205q0 76 -65 120t-157 63t-185.5 24.5t-192.5 5.5h-55 q-26 -279 -92 -545q-85 -334 -230 -662q-23 -39 -75 -69.5t-99 -30.5q-4 0 -12 5t-8 9v11q18 50 52.5 130t41.5 99q39 104 72 209t61 217q77 315 98 627q-85 0 -183.5 -19t-141.5 -61q-29 -28 -39.5 -63t-22.5 -52q-29 -39 -74 -64.5t-92 -25.5q-4 0 -12 5t-8 9z" />
<glyph unicode="S" horiz-adv-x="1438" d="M80 258v10q0 74 46 140.5t119.5 107.5t141.5 41q16 -8 16 -14v-11q-13 -36 -54.5 -61t-57 -41.5t-15.5 -73.5q0 -82 71 -142t171.5 -91t179.5 -31q109 0 208 25t166 90.5t67 175.5q0 123 -112 195t-271 122q-130 41 -220 110.5t-90 178.5v10q0 100 65 183.5t164 139.5 t213.5 87t209.5 31q83 0 165 -16.5t141.5 -61t59.5 -121.5v-12q0 -57 -18 -88q-29 -35 -75.5 -61.5t-92.5 -26.5q-2 0 -11.5 4.5t-9.5 9.5v10q11 36 11 64q0 36 -14.5 65.5t-43.5 42.5q-125 58 -268 58q-75 0 -144.5 -20.5t-112 -69.5t-42.5 -130q0 -96 82 -157t195 -96 q115 -39 201 -80t150 -109.5t64 -163.5v-10q0 -84 -45.5 -162t-116.5 -137.5t-151 -99.5q-66 -34 -146 -60t-161.5 -39.5t-167.5 -13.5h-4q-67 0 -144.5 19t-153 58.5t-120.5 95.5t-45 126z" />
<glyph unicode="T" horiz-adv-x="1325" d="M109 993q10 80 68.5 156.5t142 131.5t178.5 86.5t174 31.5h981q57 0 84 2q83 67 151 67q6 0 15.5 -3.5t9.5 -10.5q-2 -32 -35 -70q-55 -55 -116.5 -83t-123.5 -37t-153 -9h-361l-215 -856q-26 -104 -66.5 -215.5t-88.5 -212.5q-25 -41 -83.5 -75.5t-107.5 -34.5 q-24 0 -24 14q0 6 4 16q99 207 149 412l228 905q3 17 18 29l14 14l4 4h-452q-158 0 -176 -157q-15 -42 -79.5 -81.5t-113.5 -39.5q-26 0 -26 16z" />
<glyph unicode="U" horiz-adv-x="1468" d="M2 227v11q0 47 9 94.5t25.5 99t37.5 107t92.5 219t114.5 278t43 170.5q0 60 -56 60q-33 0 -58 -8.5t-51.5 -21.5t-59 -26.5t-54.5 -13.5q-4 0 -12 5t-8 9v11q17 47 92 88.5t163 65.5t144 24q45 0 70.5 -25.5t25.5 -68.5v-13q0 -48 -29.5 -137t-63 -168t-93 -215.5 t-70.5 -165.5q-65 -177 -65 -280q0 -96 43.5 -165t134.5 -69q61 0 140 50t159 124t146.5 147t127.5 148q103 127 192.5 265.5t155.5 281.5q16 43 34 93.5t36 98.5q14 21 32.5 38.5t43 31.5t49.5 21.5t47 7.5q7 0 15 -4.5t8 -10.5v-10q-30 -108 -74 -198 q-270 -762 -270 -1049q0 -44 43 -47q66 33 102 33q5 0 12.5 -4t7.5 -11v-10q-12 -35 -61.5 -68.5t-109 -54t-101.5 -20.5q-36 0 -63 24.5t-27 59.5v10q0 68 11 140t24 131t46.5 178.5t37.5 134.5q-84 -108 -192 -223t-227.5 -213t-250.5 -163t-248 -65q-108 0 -164.5 78.5 t-56.5 189.5z" />
<glyph unicode="V" horiz-adv-x="1473" d="M100 1298q0 35 56 68t92 33h10q179 0 274.5 -153.5t124.5 -355t29 -398.5q0 -51 -6 -156t-6 -154q234 169 426 361q60 60 135.5 149t131.5 178t56 148q0 51 -30 90t-77.5 59.5t-96.5 20.5q-17 0 -17 37v10q0 25 12.5 64.5t32.5 69.5t47 30q69 0 123.5 -33t84.5 -90 t30 -125v-12q0 -75 -27.5 -162.5t-74 -172t-100.5 -160t-111 -142.5q-87 -102 -198 -207t-229 -199t-231 -168q-48 -34 -61 -34q-15 0 -21 36v11q1 6 1.5 11t0.5 13q10 77 19.5 190.5t9.5 258.5q0 321 -77 591.5t-314 270.5q-19 0 -19 22z" />
<glyph unicode="W" horiz-adv-x="2324" d="M100 1298q0 35 56 68t92 33h10q154 0 236.5 -119t108.5 -280.5t26 -325.5q0 -165 -25 -410q207 247 375 490.5t311 509.5q-3 8 -7.5 17t-4.5 17q0 23 26.5 46.5t63.5 39t57 15.5h11q4 0 10 -4.5t8 -8.5q36 -86 70 -181.5t61 -185.5t51 -183q9 -35 31 -136 q50 -232 74 -499q68 75 151.5 178t176 234.5t149.5 242t57 178.5t-41 111t-110 43q-5 0 -8.5 6t-5.5 15.5t-3 15.5v10q0 41 28.5 102.5t64.5 61.5q91 0 137.5 -68.5t46.5 -163.5v-10q0 -131 -76 -304t-197 -352t-244.5 -327.5t-242.5 -267.5q-16 -12 -27 -12q-14 0 -20 36 q0 137 -19 297t-52.5 322.5t-78 319.5t-94.5 288q-5 -7 -20 -35q-360 -652 -867 -1202q-17 -26 -36 -26q-15 0 -21 36v11q0 -2 10 53q8 46 22.5 158t23 219.5t8.5 222.5q0 155 -22.5 305t-96 263.5t-215.5 113.5q-19 0 -19 22z" />
<glyph unicode="X" horiz-adv-x="1675" d="M143 119v10q0 40 27 86q80 114 279 233t489 271l-43 307q-15 104 -47.5 172t-112.5 68h-26q-27 -36 -74 -62t-92 -26q-21 0 -21 14v10q14 52 52.5 90.5t92 62t111 34t113.5 10.5q99 0 142 -77t59 -192l43 -307q93 51 148 81t116 66t126 80.5t95 77.5q16 17 16 54 q0 38 -21 61t-59 23q-16 8 -16 14v12q18 43 73 75t103 32q50 0 83.5 -34.5t33.5 -84.5v-10q0 -45 -27 -86q-40 -58 -115 -117t-178 -122.5t-196.5 -114.5t-171.5 -93l51 -364q8 -60 22.5 -112.5t48 -90t89.5 -37.5h26q17 22 44.5 43.5t58.5 33t63 11.5q5 0 13 -3.5t8 -10.5 v-10q-24 -100 -134.5 -148.5t-236.5 -48.5q-97 0 -139 74.5t-60 193.5l-51 365q-15 -8 -131 -69.5t-195.5 -107.5t-156 -98t-109.5 -88q-16 -16 -16 -53t21.5 -60.5t58.5 -23.5q16 -8 16 -14v-10q-10 -28 -40.5 -53t-67.5 -40.5t-68 -15.5q-50 0 -83.5 34.5t-33.5 84.5z" />
<glyph unicode="Y" horiz-adv-x="1565" d="M102 -39q0 35 21.5 77t50.5 52h10q6 -3 22 -39t43 -72t75.5 -62t121.5 -26q55 0 145 53.5t181 121.5q2 32 2 114q0 158 -14.5 330t-60.5 350t-141 297t-243 119q-1 0 -25.5 -19.5t-54 -35t-59.5 -15.5h-10q-8 0 -13.5 7t-5.5 16q0 14 21 37q56 59 127 96t143 37h11 q162 0 264.5 -121t153 -303.5t67 -362.5t16.5 -352v-49q200 181 338 364q79 105 157.5 251t78.5 225q0 77 -60 122.5t-139 45.5q-9 0 -18 34v17q0 32 21.5 75.5t49.5 53.5h11q68 0 121.5 -32t83.5 -88.5t30 -125.5v-16q0 -94 -41 -206t-106 -226.5t-144.5 -224 t-142.5 -181.5q-84 -95 -237.5 -235.5t-307 -246.5t-244.5 -106h-10q-70 0 -132.5 29.5t-105 82.5t-51.5 122v16z" />
<glyph unicode="Z" horiz-adv-x="1686" d="M115 16q1 16 11 28.5t36 35.5q133 101 261 204t264.5 217.5t240.5 207.5h-240q-20 11 -20 30q11 31 42.5 52t65.5 26h273q213 198 397 393q-7 0 -12 -0.5t-11 -1.5q-8 0 -14 -0.5t-14 -1.5h-4q-63 0 -120 6t-136.5 18t-144.5 18.5t-128 6.5q-86 0 -149 -28 q-23 -11 -33 -28.5t-22 -48t-25 -44.5q-36 -36 -84.5 -63t-89.5 -27q-25 0 -25 14v8q25 104 126 187t233 128.5t245 45.5q63 0 127.5 -6.5t146 -18.5t136.5 -18t117 -6q22 0 65 24.5t80 24.5q25 0 25 -15q-4 -26 -116.5 -144.5t-237 -239.5t-191.5 -183q174 0 182 -65 q0 -35 -33.5 -60.5t-74.5 -32.5h-21q-14 8 -17.5 19t-6.5 12q-20 11 -55.5 14t-94.5 5q-88 -79 -195 -170.5t-220.5 -183.5t-209.5 -167q63 5 76 5q98 -1 240 -13l284 -24q142 -12 240 -13q27 0 52.5 32t44.5 74t28 75q16 43 81 80.5t112 37.5q24 0 24 -14 q-13 -102 -98 -201.5t-203.5 -163t-214.5 -63.5q-127 0 -377 24.5t-389 24.5q-47 0 -116.5 -24.5t-88.5 -24.5q-24 0 -24 16z" />
<glyph unicode="[" horiz-adv-x="1575" d="M160 397v787q3 20 16.5 33.5t34.5 13.5q42 0 49 -47v-781q0 -174 168 -259t360 -85q81 0 172.5 18.5t173.5 59.5t131.5 108t49.5 158v781q3 20 16.5 33.5t34.5 13.5q42 0 49 -47v-787q0 -112 -57.5 -197t-152 -138t-204.5 -78t-213 -25q-101 0 -212 25t-205.5 78 t-152.5 137.5t-58 197.5z" />
<glyph unicode="\" horiz-adv-x="1575" d="M160 6v787q0 148 97 247t241 145t290 46q145 0 289 -46t241 -145t97 -247v-787q-7 -47 -49 -47q-21 0 -34.5 13.5t-16.5 33.5v780q0 91 -49.5 158t-131 108.5t-171 59.5t-175.5 18q-119 0 -240.5 -34.5t-204.5 -112t-83 -197.5v-780q-7 -47 -49 -47q-21 0 -34.5 13.5 t-16.5 33.5z" />
<glyph unicode="]" horiz-adv-x="1575" d="M160 397v787q3 20 16.5 33.5t34.5 13.5q42 0 49 -47v-781q0 -174 168 -259t360 -85q81 0 172.5 18.5t173.5 59.5t131.5 108t49.5 158v781q3 20 16.5 33.5t34.5 13.5q42 0 49 -47v-787q0 -112 -57.5 -197t-152 -138t-204.5 -78t-213 -25q-101 0 -212 25t-205.5 78 t-152.5 137.5t-58 197.5zM360 631q0 19 14.5 32.5t33.5 16.5h329v330q3 20 16.5 33.5t34.5 13.5q20 0 33.5 -13.5t16.5 -33.5v-330h329q47 -7 47 -49q0 -44 -47 -51h-329v-330q-7 -47 -50 -47q-20 0 -34 14t-17 33v330h-329q-19 3 -33.5 16.5t-14.5 34.5z" />
<glyph unicode="^" horiz-adv-x="1575" d="M160 10q0 1 4 19l577 1171q18 31 47 31q27 0 48 -31l577 -1171q1 -5 1.5 -9t0.5 -10q0 -22 -14.5 -36.5t-34.5 -14.5q-31 0 -47 31l-531 1077l-530 -1077q-20 -31 -47 -31q-21 0 -36 15t-15 36z" />
<glyph unicode="_" horiz-adv-x="1575" d="M160 1182q0 19 15 34t36 15q27 0 47 -31l530 -1077l531 1077q16 31 47 31q20 0 34.5 -14.5t14.5 -34.5q0 -7 -0.5 -10.5t-1.5 -8.5l-577 -1173q-21 -31 -48 -31q-29 0 -47 31l-577 1173q-4 12 -4 19z" />
<glyph unicode="`" horiz-adv-x="1450" d="M160 47v1327q7 47 51 47q42 0 49 -47v-612h981q47 -7 47 -51q0 -46 -47 -49h-981v-615q-7 -47 -49 -47q-44 0 -51 47z" />
<glyph unicode="a" horiz-adv-x="1450" d="M160 711q0 44 47 51h981v612q7 47 51 47q42 0 49 -47v-1327q-7 -47 -49 -47q-44 0 -51 47v615h-981q-47 3 -47 49z" />
<glyph unicode="b" horiz-adv-x="1071" d="M424 -467v1956q7 47 51 47q42 0 49 -47v-1903h426q47 -8 47 -51q0 -14 -6.5 -24t-17.5 -17t-23 -8h-479q-41 6 -47 47z" />
<glyph unicode="c" horiz-adv-x="1071" d="M74 -465q0 43 47 51h426v1903q7 47 51 47q42 0 49 -47v-1956q-6 -41 -47 -47h-479q-18 3 -32.5 16.5t-14.5 32.5z" />
<glyph unicode="d" horiz-adv-x="1071" d="M424 -467v1956q6 41 47 47h479q18 -3 32.5 -16.5t14.5 -32.5q0 -43 -47 -51h-426v-1903q-7 -47 -49 -47q-44 0 -51 47z" />
<glyph unicode="e" horiz-adv-x="1071" d="M74 1487q0 17 14.5 31.5t32.5 17.5h479q41 -6 47 -47v-1956q-7 -47 -49 -47q-44 0 -51 47v1903h-426q-47 8 -47 51z" />
<glyph unicode="f" horiz-adv-x="1198" d="M188 502v20q0 9 7 16t16 7q116 0 210.5 59t94.5 166v496q0 76 43.5 130t112.5 84.5t143.5 43t149.5 12.5h20q8 0 15.5 -7.5t7.5 -15.5v-20q0 -9 -7 -16t-16 -7q-70 0 -139.5 -21.5t-116.5 -69.5t-47 -117v-496q0 -67 -35 -118.5t-91.5 -84.5t-121.5 -51q65 -18 121.5 -51 t91.5 -84.5t35 -118.5v-496q0 -69 47 -117t116.5 -69.5t139.5 -21.5q9 0 16 -7t7 -16v-20q0 -8 -7.5 -15.5t-15.5 -7.5h-20q-73 0 -149.5 13t-145 43t-111.5 83.5t-43 130.5v496q0 73 -46.5 124.5t-118 76t-140.5 24.5q-9 0 -16 7t-7 16z" />
<glyph unicode="g" horiz-adv-x="1198" d="M188 -469q0 9 7 16t16 7q70 0 140 21t117.5 68.5t47.5 118.5v496q0 100 72 163.5t176 90.5q-65 18 -121.5 51t-91.5 84.5t-35 118.5v496q0 71 -47.5 118.5t-117.5 68.5t-140 21q-9 0 -16 7t-7 16v20q0 8 7.5 15.5t15.5 7.5h20q98 0 202 -23.5t176.5 -84.5t72.5 -162v-496 q0 -107 94 -166t209 -59q9 0 16 -7t7 -16v-20q0 -9 -7 -16t-16 -7q-68 0 -139 -24.5t-117.5 -76t-46.5 -124.5v-496q0 -101 -72.5 -162t-176.5 -84.5t-202 -23.5h-20q-8 0 -15.5 7.5t-7.5 15.5v20z" />
<glyph unicode="h" horiz-adv-x="946" d="M283 512q0 2 4 18l401 975q16 31 47 31q20 0 34.5 -14.5t14.5 -34.5q0 -7 -0.5 -10.5t-1.5 -8.5l-395 -956l395 -958q1 -4 1.5 -8t0.5 -11q0 -21 -15 -35t-34 -14q-31 0 -47 31l-401 977q-4 12 -4 18z" />
<glyph unicode="i" horiz-adv-x="946" d="M160 -465q0 5 4 19l393 958l-393 956q-4 14 -4 19q0 19 15 34t36 15q27 0 47 -31l401 -975q1 -5 2 -9.5t1 -8.5t-1 -9t-2 -9l-401 -977q-20 -31 -47 -31q-20 0 -35.5 14.5t-15.5 34.5z" />
<glyph unicode="j" horiz-adv-x="694" d="M297 -465v1954q7 47 51 47q42 0 49 -47v-1954q-7 -47 -49 -47q-44 0 -51 47z" />
<glyph unicode="k" horiz-adv-x="1198" d="M324 -467v1956q1 19 15.5 33t33.5 14t33.5 -13.5t17.5 -33.5v-1956q-3 -20 -17.5 -33.5t-33.5 -13.5t-33.5 14t-15.5 33zM774 -467v1956q1 19 15.5 33t33.5 14t33.5 -13.5t17.5 -33.5v-1956q-3 -20 -17.5 -33.5t-33.5 -13.5t-33.5 14t-15.5 33z" />
<glyph unicode="l" horiz-adv-x="1198" d="M66 12q7 25 32 25q63 -11 127 -36.5t123 -63t112 -89t89 -104.5v1536q-78 -112 -195.5 -189t-255.5 -104q-25 0 -32 25v49q5 20 26 26q89 19 167 61t140.5 104t107.5 142t66 167q11 16 27 16q21 0 27 -16q44 -181 172 -309t307 -165q20 -6 27 -26v-49q-8 -25 -33 -25 q-91 18 -172.5 57t-151.5 97.5t-127 138.5v-1536q57 80 127 138.5t151.5 97.5t172.5 57q25 0 33 -25v-49q-6 -20 -27 -26q-178 -37 -306.5 -165.5t-172.5 -308.5q-14 -16 -27 -16q-24 0 -27 16q-20 86 -66 167.5t-107 142t-140 103.5t-168 61q-20 6 -26 26v49z" />
<glyph unicode="m" horiz-adv-x="1450" d="M92 20v50q7 24 29 24q2 0 12 -2q171 -62 318 -174v1188q-147 -112 -318 -174q-10 -2 -12 -2q-22 0 -29 24v50q8 20 19 24q194 70 347.5 209.5t239.5 323.5q6 16 27 16q16 0 27 -16q86 -184 239.5 -323.5t347.5 -209.5q11 -4 19 -24v-50q-7 -24 -29 -24q-2 0 -12 2 q-173 63 -316 174v-1188q143 111 316 174q10 2 12 2q22 0 29 -24v-50q-8 -20 -19 -24q-194 -70 -347.5 -209.5t-239.5 -323.5q-6 -16 -27 -16q-16 0 -27 16q-86 184 -239.5 323.5t-347.5 209.5q-11 4 -19 24zM551 -168q104 -101 174 -215q72 117 176 215v1360 q-104 98 -176 215q-70 -114 -174 -215v-1360z" />
<glyph unicode="n" horiz-adv-x="1198" d="M160 1487q0 19 15 34t36 15q27 0 47 -31l776 -1949q1 -4 1.5 -8t0.5 -11q0 -20 -14.5 -34.5t-34.5 -14.5q-31 0 -47 31l-776 1949q-4 14 -4 19z" />
<glyph unicode="o" horiz-adv-x="694" d="M160 186q0 79 28.5 150t86.5 175t87 174t29 151q0 56 -18.5 123.5t-56.5 116t-95 48.5q-54 4 -61 35q7 30 61 35h21q72 0 126 -29.5t91.5 -81.5t55 -115.5t17.5 -131.5q0 -82 -29 -153t-87 -175t-86.5 -174.5t-28.5 -147.5q0 -56 18.5 -123.5t57.5 -116t96 -48.5 q52 -5 59 -35q-7 -30 -59 -35h-20q-96 0 -161.5 51.5t-98.5 133t-33 173.5z" />
<glyph unicode="p" horiz-adv-x="1921" d="M193 -1100q0 16 12 25l260 174q6 6 16 6q18 0 27 -18l405 -803l965 1794q13 22 43 22q21 0 35 -14t14 -35q0 -7 -0.5 -10.5t-1.5 -7.5l-1055 -1958q-11 -23 -39 -23h-26q-17 3 -25 17l-450 891l-129 -88q-6 -5 -17 -5q-12 0 -23 11t-11 22z" />
<glyph unicode="q" horiz-adv-x="1759" d="M129 27v30q5 20 25 25q125 0 168 12q18 8 18 51v1108q0 43 -18 52q-41 12 -168 12q-20 5 -25 26v31q7 25 29 25h563q21 0 29 -25v-31q-6 -21 -25 -26q-125 0 -168 -12q-18 -9 -18 -52v-1171h680v1171q0 43 -19 52q-41 12 -168 12q-19 5 -24 26v31q7 25 28 25h563 q22 0 29 -25v-31q-5 -21 -24 -26q-125 0 -168 -12q-19 -9 -19 -52v-1108q0 -43 19 -51q41 -12 168 -12q19 -5 24 -25v-30q-5 -22 -24 -27h-1450q-20 5 -25 27z" />
<glyph unicode="r" horiz-adv-x="1954" d="M141 1380q0 19 19 19h1632q18 0 18 -19q0 -8 -2 -10l-770 -1403q-16 -28 -49 -28h-26q-33 0 -50 28l-770 1403q-2 2 -2 10zM449 1227l593 -1082l594 1082h-1187z" />
<glyph unicode="s" horiz-adv-x="1010" d="M160 -240q0 42 27.5 69.5t68.5 27.5t67.5 -27.5t26.5 -69.5q0 -36 -23 -62.5t-61 -31.5q27 -39 70 -39q51 0 79 48t38 102.5t18 124.5q10 68 23.5 184.5t25 213.5t29.5 214q40 257 92 512l21 104q16 80 46.5 155.5t84.5 126t133 50.5q50 0 91 -28.5t63 -75t22 -94.5 q0 -41 -27 -69t-67 -28q-41 0 -69 28t-28 69q0 37 23.5 63t60.5 31q-25 39 -69 39q-69 0 -93 -75.5t-40 -199.5q-5 -38 -16.5 -135.5t-18 -155.5t-18.5 -147.5t-25 -173.5q-22 -147 -43.5 -262t-48.5 -250l-21 -104q-69 -332 -266 -332q-76 0 -126 60.5t-50 137.5z" />
<glyph unicode="t" horiz-adv-x="1575" d="M172 47v1137q3 20 16.5 33.5t34.5 13.5q42 0 49 -47v-1084h1031v1084q3 20 16.5 33.5t34.5 13.5q19 0 32.5 -13.5t16.5 -33.5v-1137q-6 -41 -47 -47h-1137q-41 6 -47 47z" />
<glyph unicode="u" horiz-adv-x="1575" d="M172 47v1137q6 41 47 47h1137q41 -6 47 -47v-1137q-7 -47 -49 -47q-44 0 -51 47v1083h-1031v-1083q-7 -47 -49 -47q-20 0 -34 14t-17 33z" />
<glyph unicode="v" d="M221 -334q0 21 12.5 34.5t34.5 16.5h1342q47 -8 47 -51q0 -18 -14 -32t-33 -17h-1342q-20 3 -33.5 16.5t-13.5 32.5zM242 115v1241q6 41 47 47h1321q19 -3 33 -17t14 -32q0 -43 -47 -51h-1268v-1135h1268q19 -3 33 -17t14 -32q0 -43 -47 -51h-1321q-41 6 -47 47z" />
<glyph unicode="w" d="M172 119q0 19 13.5 32.5t33.5 16.5h1266v1135h-1266q-20 3 -33.5 16.5t-13.5 34.5q0 19 13.5 32.5t33.5 16.5h1319q41 -6 47 -47v-1241q-6 -41 -47 -47h-1319q-20 3 -33.5 16.5t-13.5 34.5zM172 -334q0 21 12.5 34.5t34.5 16.5h1342q47 -8 47 -51q0 -18 -14 -32t-33 -17 h-1342q-20 3 -33.5 16.5t-13.5 32.5z" />
<glyph unicode="x" horiz-adv-x="1071" d="M190 522v2q0 105 66 187t166 114q-232 119 -232 297q0 90 48 164t128.5 115t170.5 41q77 0 149 -31t118 -89t46 -136q0 -34 -24 -59t-58 -25t-59 25t-25 59q0 28 19 51t47 29q-28 52 -87.5 81t-125.5 29q-62 0 -108.5 -38.5t-70.5 -97.5t-24 -118q0 -105 63.5 -175 t171.5 -116q312 -121 312 -329q0 -106 -64 -187t-168 -116q232 -119 232 -297q0 -90 -48.5 -164t-128 -115t-167.5 -41q-77 0 -150.5 31t-119.5 89t-46 136q0 36 25 60t59 24t58 -24t24 -60q0 -28 -18 -50t-47 -30q29 -53 88 -81.5t125 -28.5q62 0 108 38.5t70 97.5t24 118 q0 107 -64 177t-171 114q-312 121 -312 329zM334 524q0 -92 58.5 -167t148.5 -111q59 0 104.5 39t68.5 99t23 116q0 62 -27.5 117t-74 96.5t-105.5 64.5q-88 0 -142 -79.5t-54 -174.5z" />
<glyph unicode="y" horiz-adv-x="1071" d="M160 883q0 34 25 58t59 24q49 0 136.5 -24.5t125.5 -29.5q0 51 -6.5 100t-16.5 105t-20 123t-10 121q0 34 24 58t60 24q35 0 58 -24t23 -58q0 -54 -6.5 -101.5t-22 -140t-20 -124.5t-4.5 -83q38 5 126.5 29.5t137.5 24.5q34 0 58 -24t24 -58t-24 -59t-58 -25 q-49 0 -137 24.5t-127 28.5q0 -37 9.5 -85.5t19.5 -94.5t17 -86.5t7 -83.5v-2q0 -113 -2 -221t-7 -211.5t-14 -242t-20 -241.5q0 -6 -7 -14t-15 -8h-33q-22 0 -22 22q-45 443 -45 918q0 43 5 72t20.5 100t21.5 106t6 72q-39 -4 -126 -28.5t-136 -24.5q-34 0 -59 25t-25 59z " />
<glyph unicode="z" horiz-adv-x="1071" d="M160 47q0 34 25 58t59 24q35 0 63.5 -6t95.5 -24.5t103 -22.5q0 37 -6 72t-16.5 81.5t-20.5 101.5t-10 97q0 34 24 58t60 24q35 0 58 -24t23 -58q0 -42 -6.5 -82t-17 -87t-20 -96.5t-9.5 -86.5q36 4 105.5 23t96 24.5t62.5 5.5q34 0 58 -24t24 -58t-24 -59t-58 -25 q-49 0 -137 24.5t-127 28.5q0 -37 9.5 -86.5t20 -94.5t17 -86t6.5 -85q0 -34 -23 -58t-58 -24q-36 0 -60 24t-24 58q0 44 5 75t20.5 100.5t21.5 104.5t6 72q-39 -4 -126 -28.5t-136 -24.5q-34 0 -59 25t-25 59zM160 977q0 36 25 60t59 24q52 0 137 -24.5t125 -28.5 q0 37 -6 72t-16.5 81.5t-20.5 101.5t-10 97q0 34 24 58t60 24q35 0 58 -24t23 -58q0 -42 -6.5 -82t-17 -87t-20 -96.5t-9.5 -86.5q40 4 126 28.5t138 24.5q34 0 58 -24t24 -60q0 -35 -24.5 -58.5t-57.5 -23.5q-28 0 -69.5 8.5t-71.5 16.5t-59 15.5t-64 10.5q0 -37 9.5 -85 t20 -94t17 -87t6.5 -84q0 -34 -23 -59t-58 -25q-36 0 -60 25t-24 59q0 43 5 74t20.5 100.5t21.5 104t6 71.5q-33 -3 -57.5 -9.5t-77.5 -19.5t-75.5 -17.5t-51.5 -4.5q-34 0 -59 23.5t-25 58.5z" />
<glyph unicode="{" horiz-adv-x="1450" d="M160 942q0 141 81.5 250.5t211.5 169t268 59.5h584q47 -7 47 -49q0 -21 -13.5 -34.5t-33.5 -16.5h-142v-1671q-7 -47 -49 -47q-44 0 -51 47v1671h-158v-1671q-7 -47 -49 -47q-44 0 -51 47v813q-106 0 -219.5 30t-211 91.5t-156 152t-58.5 205.5z" />
<glyph unicode="|" d="M96 356q0 69 20.5 141.5t60 130t98 92t133.5 34.5q38 0 76 -11.5t72 -35.5t56 -54l64 113q-76 57 -120 140.5t-44 178.5q0 108 54.5 200t147.5 145t201 53q82 0 156 -31t128.5 -84t86 -126.5t31.5 -156.5q0 -96 -43.5 -178.5t-120.5 -140.5l64 -113q37 48 90.5 74.5 t113.5 26.5q76 0 135 -35t98.5 -93.5t59 -127.5t19.5 -142q0 -98 -47 -191.5t-130 -149.5t-186 -56q-62 0 -121 19t-99 61t-40 104h-145q0 -168 61 -342q1 -4 1.5 -7.5t0.5 -10.5q0 -42 -47 -49h-133q-47 7 -47 49q0 6 4 18q59 177 59 342h-145q0 -91 -80 -137.5t-178 -46.5 q-105 0 -188 56t-130 149.5t-47 191.5z" />
<glyph unicode="}" d="M160 578q0 20 18 38q407 326 694 844q14 23 43 23t41 -23q289 -519 695 -844q18 -18 18 -38q0 -21 -18 -39q-101 -81 -200 -180t-188.5 -209.5t-165 -223t-141.5 -231.5q-13 -23 -41 -23t-43 23q-287 518 -694 844q-18 18 -18 39zM289 578q89 -74 178.5 -164 t169.5 -187.5t148 -196.5t130 -206q59 102 132.5 209t149.5 199t165 182t178 164q-97 82 -180.5 166.5t-164 182.5t-148 196t-132.5 208q-67 -114 -129.5 -205t-146.5 -193.5t-168.5 -187.5t-181.5 -167z" />
<glyph unicode="~" d="M160 995q0 124 39.5 231t124 171.5t213.5 64.5q116 0 219.5 -59t158.5 -158q37 65 95.5 114.5t131.5 76t150 26.5q129 0 213.5 -64.5t124 -171.5t39.5 -231q0 -149 -75.5 -281.5t-176.5 -231.5t-264 -236q-53 -46 -83.5 -86.5t-54.5 -86t-59 -112.5q-13 -22 -41 -22 q-29 0 -43 22q-26 49 -42.5 82.5t-38 69.5t-47.5 67t-68 66q-163 137 -264 236t-176.5 231.5t-75.5 281.5zM260 995q0 -99 44 -193t116 -179t169.5 -169.5t149.5 -129.5q102 -88 176 -220q72 131 175 220q51 44 152 131.5t169 168t113 176.5t45 195q0 153 -66 260t-211 107 q-67 0 -129.5 -26t-109.5 -72q-25 -25 -52 -70q-10 -18 -17.5 -42.5t-14.5 -49.5t-13 -35q-13 -23 -41 -23t-43 23q-4 7 -11.5 33.5t-14.5 49t-19 44.5q-22 39 -53 70q-45 45 -107.5 71.5t-129.5 26.5q-145 0 -211 -107t-66 -260z" />
<glyph unicode="&#xa1;" d="M221 512q0 42 47 49h1291q47 -7 47 -49q0 -21 -13.5 -34.5t-33.5 -16.5h-1291q-20 3 -33.5 16.5t-13.5 34.5z" />
<glyph unicode="&#xa2;" horiz-adv-x="694" d="M225 512q0 49 37 85t86 36t85 -36t36 -85q0 -51 -36 -87t-85 -36t-86 36t-37 87z" />
<glyph unicode="&#xa3;" d="M365 12q0 19 12 31l467 469l-467 467q-12 12 -12 33q0 19 15 34t36 15q17 0 30 -10l467 -469l461 460q17 19 39 19q20 0 34.5 -14.5t14.5 -34.5t-10 -33l-469 -467l469 -469q10 -13 10 -31q0 -22 -14.5 -36.5t-34.5 -14.5q-18 0 -33 10l-467 469l-458 -460 q-22 -19 -39 -19q-21 0 -36 15t-15 36z" />
<glyph unicode="&#xa4;" horiz-adv-x="1198" d="M180 324q0 41 35 57l309 131l-309 129q-35 16 -35 57q0 26 21 48t47 22q17 0 31 -10l284 -189l-31 318l-2 4q0 27 21 44t47 17q27 0 47.5 -17t20.5 -44v-4l-33 -318l285 189q12 10 30 10q28 0 48 -22t20 -48q0 -42 -35 -57l-309 -129l309 -131q35 -15 35 -57 q0 -26 -20 -48t-48 -22q-17 0 -30 10l-285 189l33 -316v-6q0 -27 -20.5 -44t-47.5 -17q-26 0 -47 17t-21 44l2 6l31 316l-284 -189q-14 -10 -31 -10q-26 0 -47 22t-21 48z" />
<glyph unicode="&#xa5;" d="M160 512q0 42 47 49h1415q47 -7 47 -49q0 -44 -47 -51h-1415q-47 7 -47 51zM768 18q0 59 43.5 103.5t103.5 44.5q40 0 74 -20t54 -54t20 -74t-20 -74t-54 -54.5t-74 -20.5q-60 0 -103.5 44.5t-43.5 104.5zM768 1006q0 58 43.5 102.5t103.5 44.5t104 -44t44 -103 q0 -60 -44 -105t-104 -45t-103.5 45t-43.5 105z" />
<glyph unicode="&#xa6;" horiz-adv-x="1198" d="M59 512q0 19 13 31l495 497q13 11 33 11q18 0 31 -11l497 -497q11 -13 11 -31q0 -20 -11 -33l-497 -497q-13 -11 -31 -11q-20 0 -33 11l-495 497q-13 12 -13 33zM180 512l420 -420l418 420l-418 418z" />
<glyph unicode="&#xa7;" d="M160 -8q0 44 47 51h657v606h-657q-19 3 -33 17t-14 34q0 41 47 50h657v659q1 19 15.5 33t33.5 14q20 0 34.5 -13.5t17.5 -33.5v-659h655q47 -9 47 -50q0 -20 -14 -34t-33 -17h-655v-606h655q47 -7 47 -51q0 -42 -47 -49h-1413q-47 7 -47 49z" />
<glyph unicode="&#xa8;" d="M160 324q0 42 47 49h657v606h-657q-47 7 -47 51q0 42 47 49h1413q47 -7 47 -49q0 -44 -47 -51h-655v-606h655q47 -7 47 -49q0 -45 -47 -52h-655v-659q-3 -20 -17.5 -33.5t-34.5 -13.5q-19 0 -33.5 14t-15.5 33v659h-657q-47 7 -47 52z" />
<glyph unicode="&#xa9;" d="M160 512q0 204 101.5 378t274 276t377.5 102q155 0 292.5 -58.5t241 -162t162 -243t58.5 -292.5t-58 -291.5t-162.5 -243.5t-243 -164t-290.5 -59q-203 0 -377 102t-275 277t-101 379zM240 473q0 -155 91 -304t239 -242t304 -93v639h-634zM240 551h634v637 q-118 0 -231.5 -52.5t-205.5 -145.5t-144.5 -208t-52.5 -231zM952 -166q157 0 305 93t239 242t91 304h-635v-639zM952 551h635q0 120 -53 234t-144.5 206t-205 144.5t-232.5 52.5v-637z" />
<glyph unicode="&#xaa;" d="M160 512q0 204 101.5 378t274 276t377.5 102q155 0 292.5 -58.5t241 -162t162 -243t58.5 -292.5t-58 -291.5t-162.5 -243.5t-243 -164t-290.5 -59q-203 0 -377 102t-275 277t-101 379zM240 473q0 -114 56 -236t140 -208q62 -62 138.5 -106t163.5 -67.5t175 -23.5 t175.5 23.5t163.5 67t139 106.5q83 85 139.5 208t56.5 236h-1347zM240 551h1347q0 75 -26.5 158t-69.5 155t-100 129q-62 62 -138.5 106t-164 67.5t-175.5 23.5q-134 0 -258 -51t-219 -146q-57 -57 -100 -129t-69.5 -155t-26.5 -158z" />
<glyph unicode="&#xad;" d="M160 512q0 203 101.5 377.5t275.5 276.5t376 102q155 0 291.5 -58t241 -162.5t163 -243.5t58.5 -292t-58.5 -292t-163 -243.5t-243 -163.5t-289.5 -59q-202 0 -376 102t-275.5 277t-101.5 379zM238 512q0 -125 43.5 -241.5t126.5 -211.5l450 453l-450 451 q-82 -92 -126 -209.5t-44 -241.5zM463 4q94 -83 211.5 -127.5t238.5 -44.5q80 0 160 19.5t154.5 58t136.5 94.5l-451 451zM463 1018l450 -451l451 451q-61 55 -136 94t-155 58.5t-160 19.5q-79 0 -159 -19.5t-154.5 -58t-136.5 -94.5zM969 512l450 -453q82 92 126 210 t44 243q0 124 -44.5 243t-125.5 208z" />
<glyph unicode="&#xae;" d="M160 512q0 203 101.5 377.5t275.5 276.5t376 102q155 0 291.5 -58t241 -162.5t163 -243.5t58.5 -292t-58.5 -292t-163 -243.5t-243 -163.5t-289.5 -59q-202 0 -376 102t-275.5 277t-101.5 379zM238 512q0 -125 43.5 -241.5t126.5 -211.5l956 959q-61 55 -136 94 t-155 58.5t-160 19.5q-138 0 -261 -52.5t-215.5 -146t-145.5 -218t-53 -261.5zM463 4q94 -83 211.5 -127.5t238.5 -44.5q140 0 262 53t216 148t146 218.5t52 260.5q0 124 -44.5 243t-125.5 208z" />
<glyph unicode="&#xaf;" d="M160 512q0 203 101.5 377.5t275.5 276.5t376 102q155 0 291.5 -58t241 -162.5t163 -243.5t58.5 -292t-58.5 -292t-163 -243.5t-243 -163.5t-289.5 -59q-202 0 -376 102t-275.5 277t-101.5 379zM238 512q0 -137 53.5 -262t145.5 -218t215 -146.5t261 -53.5q140 0 262 53 t216 148t146 218.5t52 260.5t-52 260.5t-145.5 218t-216 147t-262.5 52.5q-138 0 -261 -52.5t-215.5 -146t-145.5 -218t-53 -261.5zM756 512q0 63 46.5 110.5t110.5 47.5q34 0 62.5 -13t49 -33t33.5 -49t13 -63q0 -65 -46.5 -112.5t-111.5 -47.5q-63 0 -110 48t-47 112z" />
<glyph unicode="&#xb0;" horiz-adv-x="2331" d="M160 512q0 200 81 375t222 304t322.5 200t379.5 71q199 0 381 -71t323.5 -200t221.5 -304t80 -375q0 -199 -79.5 -373.5t-222.5 -305t-324 -201t-380 -70.5q-198 0 -378 70.5t-323 201t-223.5 305t-80.5 373.5zM260 512q0 -179 72.5 -334.5t202.5 -273t293 -180 t337 -62.5t338.5 63t293.5 179.5t201.5 272.5t72.5 335q0 180 -73 337t-200 272t-291.5 178t-341.5 63t-340 -62.5t-291 -178.5t-201 -272.5t-73 -336.5z" />
<glyph unicode="&#xb1;" horiz-adv-x="1198" d="M160 512q0 120 58 220.5t159 160t221 59.5t221 -59.5t159 -160t58 -220.5q0 -121 -58 -221.5t-159 -160.5t-221 -60t-221 60t-159 160.5t-58 221.5zM260 512q0 -90 46 -169.5t123 -126t169 -46.5q67 0 131 27.5t109 74t71.5 108t26.5 132.5q0 69 -27 131.5t-71.5 108 t-108.5 73t-131 27.5q-92 0 -169 -46.5t-123 -125t-46 -168.5z" />
<glyph unicode="&#xb2;" horiz-adv-x="1198" d="M160 512q0 120 58 220.5t159 160t221 59.5t221 -59.5t159 -160t58 -220.5q0 -121 -58 -221.5t-159 -160.5t-221 -60t-221 60t-159 160.5t-58 221.5z" />
<glyph unicode="&#xb3;" d="M160 10q0 17 18 39q102 87 222.5 159t250 112t262.5 40t263 -40.5t250.5 -112t222.5 -158.5q18 -22 18 -39q0 -22 -14.5 -36.5t-34.5 -14.5t-33 10q-98 85 -206.5 150.5t-226.5 103t-239 37.5t-238.5 -37.5t-226 -103t-206.5 -150.5q-15 -10 -31 -10q-21 0 -36 15t-15 36 zM160 1014q0 19 15 34t36 15q16 0 31 -10q98 -85 206.5 -150.5t226 -103t238.5 -37.5t239 37.5t226.5 103t206.5 150.5q13 10 33 10t34.5 -14.5t14.5 -34.5q0 -21 -18 -39q-164 -142 -352 -227.5t-384 -85.5q-195 0 -381 85t-354 228q-18 18 -18 39z" />
<glyph unicode="&#xb4;" d="M160 61q0 41 47 50h1413q47 -9 47 -50q0 -20 -14 -34t-33 -17h-1413q-19 3 -33 17t-14 34zM160 512q0 42 47 49h1413q47 -7 47 -49q0 -44 -47 -51h-1413q-47 7 -47 51zM160 963q0 42 47 49h1413q47 -7 47 -49q0 -45 -47 -52h-1413q-47 7 -47 52z" />
<glyph unicode="&#xb5;" d="M221 735q0 139 55 261.5t152 214t220.5 142t262.5 50.5h648q20 -3 33.5 -16.5t13.5 -32.5q0 -21 -13.5 -34.5t-33.5 -16.5h-641q-118 0 -225 -41.5t-191.5 -120t-132 -183t-47.5 -223.5q0 -158 82 -288t220 -204.5t294 -74.5h641q20 -3 33.5 -16.5t13.5 -32.5 q0 -21 -13.5 -34.5t-33.5 -16.5h-648q-183 0 -342 88.5t-253.5 241.5t-94.5 337zM272 -334q0 21 12.5 34.5t34.5 16.5h1240q22 -3 34.5 -16.5t12.5 -34.5q0 -19 -13.5 -32.5t-33.5 -16.5h-1240q-20 3 -33.5 16.5t-13.5 32.5z" />
<glyph unicode="&#xb6;" d="M221 119q0 19 13.5 32.5t33.5 16.5h641q157 0 295 75t219.5 205.5t81.5 286.5q0 121 -47.5 225.5t-130.5 181.5t-190 119t-226 42h-643q-20 3 -33.5 16.5t-13.5 34.5q0 19 13.5 32.5t33.5 16.5h650q138 0 262 -50.5t221 -143t151 -214t54 -260.5q0 -184 -94.5 -337 t-253.5 -241.5t-343 -88.5h-647q-20 3 -33.5 16.5t-13.5 34.5zM221 -334q0 21 12.5 34.5t34.5 16.5h1239q47 -7 47 -51q0 -42 -47 -49h-1239q-20 3 -33.5 16.5t-13.5 32.5z" />
<glyph unicode="&#xb8;" d="M221 119q0 30 27 43l1192 573l-1192 574q-27 13 -27 45q0 19 15 34t36 15q13 0 25 -6l1284 -617q10 -5 17.5 -19t7.5 -26q0 -11 -8 -25t-17 -18l-1284 -618q-12 -6 -25 -6q-21 0 -36 15t-15 36zM221 -332q0 42 47 49h1291q47 -7 47 -49q0 -21 -13.5 -34.5t-33.5 -16.5 h-1291q-20 3 -33.5 16.5t-13.5 34.5z" />
<glyph unicode="&#xb9;" d="M221 -332q0 42 47 49h1291q47 -7 47 -49q0 -21 -13.5 -34.5t-33.5 -16.5h-1291q-20 3 -33.5 16.5t-13.5 34.5zM221 735q0 42 47 49q142 0 277.5 8t266.5 30t247 61q195 64 309 176q45 48 78 104q27 47 47 119q4 19 6 36.5t5 34.5t9 27q14 23 43 23q22 0 36 -16t14 -37 q-17 -140 -80.5 -247.5t-161 -179.5t-212.5 -115.5t-265 -74.5q135 -25 257 -70.5t220 -117t162 -177t80 -247.5q0 -23 -14 -38t-36 -15q-20 0 -34 14t-17 33q-23 189 -152.5 306t-315.5 173.5t-374 73t-395 16.5q-20 3 -33.5 16.5t-13.5 34.5z" />
<glyph unicode="&#xba;" d="M221 121q19 143 83 248.5t160.5 176.5t218.5 116.5t257 70.5q-150 31 -265.5 75t-212 115.5t-160.5 178t-81 248.5q0 21 14 37t37 16q41 0 50 -47q30 -246 233.5 -372.5t460 -163t543.5 -36.5q47 -7 47 -49q0 -21 -13.5 -34.5t-33.5 -16.5q-141 0 -277.5 -7.5t-267 -29.5 t-246.5 -61q-194 -63 -309 -176q-50 -50 -78 -105q-27 -48 -47 -119q-4 -17 -6.5 -36t-6 -35t-8.5 -25q-13 -22 -41 -22q-23 0 -37 15t-14 38zM221 -332q0 42 47 49h1291q47 -7 47 -49q0 -21 -13.5 -34.5t-33.5 -16.5h-1291q-20 3 -33.5 16.5t-13.5 34.5z" />
<glyph unicode="&#xbb;" d="M160 299v20q0 111 45 219.5t131.5 178t200.5 69.5q107 0 189 -51t197 -155t192 -152.5t175 -48.5q90 0 160.5 49.5t108.5 129.5t38 169q5 52 35 59q30 -7 35 -59v-20q0 -112 -45 -221t-131.5 -178.5t-200.5 -69.5q-104 0 -185 50t-196 153.5t-192.5 153.5t-179.5 50 q-90 0 -160 -49t-109 -129t-39 -168q-5 -54 -34 -61q-30 7 -35 61z" />
<glyph unicode="&#xbc;" d="M160 127v20q0 101 51 186t139 134t187 49q97 0 181 -39.5t204.5 -118.5t196.5 -115t171 -36q115 0 211 70t96 180q5 52 35 59q30 -7 35 -59v-21q0 -102 -51 -187.5t-139 -134t-187 -48.5q-96 0 -174.5 36.5t-198.5 115t-202.5 118t-177.5 39.5q-72 0 -144 -30.5 t-118 -87.5t-46 -130q-5 -54 -34 -61q-30 7 -35 61zM160 668v20q0 101 51 186t139 134t187 49q97 0 181 -39.5t204.5 -118.5t196.5 -115t171 -36q115 0 211 69t96 180q5 53 35 60q30 -7 35 -60v-20q0 -156 -110.5 -263.5t-266.5 -107.5q-96 0 -174.5 36.5t-198.5 115 t-202.5 118t-177.5 39.5q-115 0 -211.5 -69t-96.5 -178q-5 -55 -34 -62q-30 7 -35 62z" />
<glyph unicode="&#xbd;" d="M221 512q0 139 55 261.5t150.5 213t220 142t262.5 51.5h650q20 -3 33.5 -16.5t13.5 -33.5q0 -21 -13.5 -34.5t-33.5 -16.5h-644q-117 0 -224.5 -42.5t-190 -119t-130.5 -182t-48 -223.5q0 -119 47 -223t132.5 -183t192 -121t224.5 -42h641q21 -3 34 -16t13 -36 q0 -19 -13.5 -32.5t-33.5 -16.5h-648q-183 0 -342 89t-253.5 243t-94.5 338z" />
<glyph unicode="&#xbe;" d="M221 -109q0 23 13 36t34 16h643q118 0 225.5 42.5t190.5 119.5t130.5 181.5t47.5 225.5q0 120 -47.5 224.5t-129 180.5t-190 119t-227.5 43h-643q-20 3 -33.5 16.5t-13.5 34.5q0 20 13.5 33.5t33.5 16.5h650q138 0 262 -50.5t221 -143t151 -214t54 -260.5 q0 -184 -94.5 -338t-253 -243t-340.5 -89h-650q-20 3 -33.5 16.5t-13.5 32.5z" />
<glyph unicode="&#xbf;" horiz-adv-x="2331" d="M160 512q0 30 26 43l1221 680q9 6 25 6q20 0 34.5 -14.5t14.5 -34.5q0 -31 -25 -45l-1143 -635l1143 -637q25 -14 25 -45q0 -20 -15.5 -34.5t-33.5 -14.5q-16 0 -25 6l-1221 680q-26 13 -26 45zM850 512q0 30 27 43l1220 680q9 6 25 6q20 0 34.5 -14.5t14.5 -34.5 q0 -32 -25 -45l-1142 -635l1142 -637q25 -13 25 -45q0 -20 -15.5 -34.5t-33.5 -14.5q-16 0 -25 6l-1220 680q-27 13 -27 45z" />
<glyph unicode="&#xc0;" horiz-adv-x="2331" d="M160 -170q0 32 26 45l1141 637l-1141 635q-26 13 -26 45q0 20 14.5 34.5t36.5 14.5q11 0 25 -6l1220 -680q25 -14 25 -43q0 -31 -25 -45l-1220 -680q-13 -6 -25 -6q-20 0 -35.5 14.5t-15.5 34.5zM850 -170q0 32 27 45l1140 637l-1140 635q-27 13 -27 45q0 20 14.5 34.5 t36.5 14.5q13 0 25 -6l1220 -680q11 -6 18 -17.5t7 -25.5q0 -32 -25 -45l-1220 -680q-12 -6 -25 -6q-20 0 -35.5 14.5t-15.5 34.5z" />
<glyph unicode="&#xc1;" d="M221 512q0 42 47 49q142 0 278.5 7.5t266.5 29.5t246 61q193 64 309 177q43 44 78 104q27 47 47 119q5 30 9.5 58t10.5 40q15 23 43 23q22 0 36 -16t14 -38q-17 -139 -80.5 -246.5t-161 -179.5t-212.5 -115.5t-265 -74.5q144 -28 261.5 -72t215.5 -115.5t162 -177 t80 -247.5q0 -22 -14 -38t-36 -16q-21 0 -34.5 13.5t-16.5 33.5q-23 190 -152.5 307t-315.5 173.5t-374 73t-395 16.5q-20 3 -33.5 16.5t-13.5 34.5z" />
<glyph unicode="&#xc2;" d="M221 -102q23 185 124.5 310t252 194.5t342.5 107.5q-150 31 -265.5 75t-212 115.5t-160.5 178t-81 247.5q0 22 14 38t37 16q41 0 50 -47q30 -246 233.5 -372.5t460 -163t543.5 -36.5q47 -7 47 -49q0 -21 -13.5 -34.5t-33.5 -16.5q-141 0 -277 -8t-267 -30t-247 -61 q-191 -61 -309 -176q-49 -47 -78 -104q-27 -48 -47 -119q-4 -19 -6.5 -37.5t-6 -34.5t-8.5 -24q-13 -23 -41 -23q-23 0 -37 16t-14 38z" />
<glyph unicode="&#xc3;" horiz-adv-x="2331" d="M160 512q0 21 18 27q176 46 303.5 178.5t161.5 308.5q3 22 25 25h49q11 -2 18.5 -11t7.5 -20q-27 -139 -103 -257t-191 -202h1675q20 0 33.5 -14.5t13.5 -34.5t-13.5 -35.5t-33.5 -15.5h-1675q113 -81 190 -200.5t104 -258.5q0 -11 -7.5 -20t-18.5 -11h-49q-22 3 -25 25 q-34 176 -161.5 310t-303.5 179q-18 3 -18 27z" />
<glyph unicode="&#xc4;" d="M160 426q0 97 36 182.5t95 158.5t126.5 133.5t157.5 133.5q81 64 142 148q43 55 80 123q14 26 28 57t24 52.5t23 45.5q14 23 43 23q26 0 48 -31q52 -131 122 -234.5t168 -183.5q196 -157 306 -293t110 -315q0 -181 -61 -324t-217 -143q-108 0 -194.5 43.5t-86.5 140.5 h-145q0 -168 61 -342q1 -4 1.5 -7.5t0.5 -10.5q0 -42 -47 -49h-133q-47 7 -47 49q0 6 4 18q59 177 59 342h-145q0 -97 -86.5 -140.5t-192.5 -43.5q-157 0 -218.5 143t-61.5 324z" />
<glyph unicode="&#x2000;" horiz-adv-x="805" />
<glyph unicode="&#x2001;" horiz-adv-x="1610" />
<glyph unicode="&#x2002;" horiz-adv-x="805" />
<glyph unicode="&#x2003;" horiz-adv-x="1610" />
<glyph unicode="&#x2004;" horiz-adv-x="536" />
<glyph unicode="&#x2005;" horiz-adv-x="402" />
<glyph unicode="&#x2006;" horiz-adv-x="268" />
<glyph unicode="&#x2007;" horiz-adv-x="268" />
<glyph unicode="&#x2008;" horiz-adv-x="201" />
<glyph unicode="&#x2009;" horiz-adv-x="322" />
<glyph unicode="&#x200a;" horiz-adv-x="89" />
<glyph unicode="&#x2010;" horiz-adv-x="2331" d="M160 1393q0 12 8 20t20 8q2 0 13 -2q136 -71 293 -71q103 0 199.5 32.5t178.5 94.5q14 4 17 4q14 0 28 -13t25 -24q8 -16 8 -21q0 -16 -12 -22q-93 -71 -208.5 -109.5t-233.5 -38.5q-54 0 -80 4l1741 -1566q14 -15 14 -39q0 -20 -15.5 -33.5t-35.5 -13.5q-22 0 -33 14 l-1739 1565q17 -92 17 -160q0 -96 -26 -191.5t-77 -181.5q-10 -16 -26 -16q-13 0 -31 17t-23 20q-6 12 -6 20q0 2 2 10q92 152 92 328q0 190 -104 348q-6 9 -6 17z" />
<glyph unicode="&#x2011;" horiz-adv-x="2331" d="M160 1393q0 12 8 20t20 8q2 0 13 -2q136 -71 293 -71q103 0 199.5 32.5t178.5 94.5q14 4 17 4q14 0 28 -13t25 -24q8 -16 8 -21q0 -16 -12 -22q-93 -71 -208.5 -109.5t-233.5 -38.5q-54 0 -80 4l1741 -1566q14 -15 14 -39q0 -20 -15.5 -33.5t-35.5 -13.5q-22 0 -33 14 l-1739 1565q17 -92 17 -160q0 -96 -26 -191.5t-77 -181.5q-10 -16 -26 -16q-13 0 -31 17t-23 20q-6 12 -6 20q0 2 2 10q92 152 92 328q0 190 -104 348q-6 9 -6 17z" />
<glyph unicode="&#x2012;" horiz-adv-x="2331" d="M160 1393q0 12 8 20t20 8q2 0 13 -2q136 -71 293 -71q103 0 199.5 32.5t178.5 94.5q14 4 17 4q14 0 28 -13t25 -24q8 -16 8 -21q0 -16 -12 -22q-93 -71 -208.5 -109.5t-233.5 -38.5q-54 0 -80 4l1741 -1566q14 -15 14 -39q0 -20 -15.5 -33.5t-35.5 -13.5q-22 0 -33 14 l-1739 1565q17 -92 17 -160q0 -96 -26 -191.5t-77 -181.5q-10 -16 -26 -16q-13 0 -31 17t-23 20q-6 12 -6 20q0 2 2 10q92 152 92 328q0 190 -104 348q-6 9 -6 17z" />
<glyph unicode="&#x2013;" horiz-adv-x="1344" d="M160 1393q0 12 4 20t10 8q1 0 7 -2q69 -71 149 -71q53 0 102 32.5t91 94.5q7 4 8 4q7 0 14.5 -13t12.5 -24q4 -16 4 -21q0 -16 -6 -22q-47 -71 -106 -109.5t-119 -38.5q-27 0 -41 4l887 -1566q7 -15 7 -39q0 -20 -8 -33.5t-18 -13.5q-11 0 -17 14l-885 1565q8 -92 8 -160 q0 -96 -13 -191.5t-39 -181.5q-5 -16 -13 -16q-7 0 -16 17t-12 20q-3 12 -3 20q0 2 1 10q47 152 47 328q0 190 -53 348q-3 9 -3 17z" />
<glyph unicode="&#x2014;" horiz-adv-x="2368" d="M160 1393q0 12 8 20t21 8q2 0 13 -2q138 -71 298 -71q105 0 203.5 32.5t181.5 94.5q14 4 17 4q15 0 29 -13t25 -24q9 -16 9 -21q0 -16 -13 -22q-94 -71 -212 -109.5t-238 -38.5q-55 0 -81 4l1773 -1566q14 -15 14 -39q0 -20 -16 -33.5t-36 -13.5q-22 0 -34 14l-1771 1565 q18 -92 18 -160q0 -96 -26.5 -191.5t-78.5 -181.5q-10 -16 -27 -16q-13 0 -31.5 17t-23.5 20q-6 12 -6 20q0 2 2 10q94 152 94 328q0 190 -106 348q-6 9 -6 17z" />
<glyph unicode="&#x202f;" horiz-adv-x="322" />
<glyph unicode="&#x205f;" horiz-adv-x="402" />
<glyph unicode="&#x2219;" d="M221 -332q0 42 47 49h1291q47 -7 47 -49q0 -21 -13.5 -34.5t-33.5 -16.5h-1291q-20 3 -33.5 16.5t-13.5 34.5zM221 735q0 32 27 45l1284 617q9 6 24 6q20 0 35 -15t15 -34q0 -31 -25 -45l-1194 -574l1194 -573q25 -14 25 -43q0 -21 -15 -36t-35 -15q-15 0 -24 6 l-1284 618q-27 10 -27 43z" />
<glyph unicode="&#xe000;" horiz-adv-x="1440" d="M0 1440h1440v-1440h-1440v1440z" />
</font>
</defs>
</svg>
