<?xml version="1.0" standalone="no"?>
<!DOCTYPE svg PUBLIC "-//W3C//DTD SVG 1.1//EN" "http://www.w3.org/Graphics/SVG/1.1/DTD/svg11.dtd" >
<svg xmlns="http://www.w3.org/2000/svg">
<metadata>
This is a custom SVG webfont generated by Font Squirrel.
Copyright   : Copyright C 1994 Basil K Malyshev All Rights Reserved012BaKoMa Fonts Collection LevelB
</metadata>
<defs>
<font id="cmsy6Regular" horiz-adv-x="1972" >
<font-face units-per-em="2048" ascent="1638" descent="-410" />
<missing-glyph horiz-adv-x="500" />
<glyph unicode=" "  horiz-adv-x="500" />
<glyph unicode="&#x09;" horiz-adv-x="500" />
<glyph unicode="&#xa0;" horiz-adv-x="500" />
<glyph unicode="!" horiz-adv-x="2503" d="M190 512q0 22 15.5 37.5t36.5 15.5h1749q-78 56 -137 127t-99.5 154t-58.5 174q0 12 8 23.5t20 11.5h50q19 0 28 -27q23 -116 92.5 -219t170.5 -171.5t223 -94.5q9 -3 15.5 -11.5t6.5 -19.5q0 -10 -6 -18.5t-16 -10.5q-89 -19 -170.5 -64.5t-146 -110t-107 -142.5 t-62.5 -170q-9 -27 -28 -27h-50q-12 0 -20 11.5t-8 23.5q18 91 58.5 174t99.5 154t137 127h-1749q-21 0 -36.5 15.5t-15.5 37.5z" />
<glyph unicode="&#x22;" horiz-adv-x="1307" d="M92 852v53q0 23 23 27q120 23 223.5 87t178 163.5t106.5 216.5q7 22 30 22q24 0 31 -26q52 -177 189.5 -303t318.5 -160q9 -2 15.5 -10t6.5 -17v-53q0 -11 -9 -19t-21 -8q-2 0 -8 2q-140 27 -262.5 105t-206.5 192v-1472q0 -21 -16.5 -35t-37.5 -14q-20 0 -36.5 14 t-16.5 35v1472q-85 -115 -208 -192.5t-261 -104.5q-6 -2 -8 -2q-11 0 -21 8t-10 19z" />
<glyph unicode="#" horiz-adv-x="1307" d="M92 119v53q0 11 10 19t21 8q2 0 8 -2q139 -25 262.5 -104t206.5 -193v1472q0 21 16.5 35t36.5 14q21 0 37.5 -14t16.5 -35v-1472q82 113 205.5 192t263.5 105q6 2 8 2q12 0 21 -8t9 -19v-53q0 -9 -7 -17t-15 -10q-119 -22 -223.5 -87t-178.5 -164t-106 -216 q-7 -22 -31 -22q-23 0 -30 26q-35 120 -109 216t-177 160.5t-222 86.5q-23 4 -23 27z" />
<glyph unicode="$" horiz-adv-x="2503" d="M190 512q0 23 23 31q120 26 221.5 94.5t171 171.5t92.5 219q9 27 29 27h49q13 0 21 -10t8 -25q-27 -134 -103.5 -253t-191.5 -202h1481q-78 56 -137 127t-99.5 154t-58.5 174q0 12 8 23.5t20 11.5h50q19 0 28 -27q23 -116 92.5 -219t170.5 -171.5t223 -94.5 q9 -3 15.5 -11.5t6.5 -19.5q0 -10 -6 -18.5t-16 -10.5q-89 -19 -170.5 -64.5t-146 -110t-107 -142.5t-62.5 -170q-9 -27 -28 -27h-50q-12 0 -20 11.5t-8 23.5q18 91 58.5 174t99.5 154t137 127h-1481q113 -81 190.5 -200t104.5 -255q0 -14 -8 -24.5t-21 -10.5h-49 q-20 0 -29 27q-18 90 -62 171t-106 142.5t-145 108t-172 65.5q-10 2 -16.5 11t-6.5 18z" />
<glyph unicode="%" horiz-adv-x="2503" d="M190 -344q0 18 19 41l1814 1546q-18 0 -30.5 -0.5t-28.5 -1.5q-122 0 -241 40.5t-216 115.5q-12 12 -12 24q0 19 24 39.5t42 20.5q9 0 18 -6q173 -134 387 -134q147 0 299 76q8 4 14 4q13 0 22 -8t9 -22q0 -10 -6 -19q-64 -82 -97.5 -181.5t-33.5 -201.5q0 -79 19.5 -153 t58.5 -150q4 -8 4 -14q0 -18 -23.5 -39t-42.5 -21q-18 0 -26 15q-90 171 -90 354q0 89 22 182l-1819 -1548q-12 -12 -32 -12q-22 0 -38 15t-16 38z" />
<glyph unicode="&#x26;" horiz-adv-x="2503" d="M190 1368q0 23 16 38t38 15q20 0 30 -10l1821 -1550q-22 93 -22 182q0 183 90 354q8 15 26 15q19 0 42.5 -20t23.5 -40q0 -6 -2 -10q-80 -157 -80 -307q0 -102 34 -202t97 -181q6 -9 6 -19q0 -12 -10 -21t-21 -9q-8 0 -10 2q-153 78 -303 78q-104 0 -202.5 -34 t-184.5 -100q-9 -6 -18 -6q-17 0 -41.5 21.5t-24.5 38.5q0 12 12 24q97 76 216 116t241 40q20 0 32.5 -0.5t26.5 -1.5l-1812 1546q-21 17 -21 41z" />
<glyph unicode="'" d="M190 43q0 21 14.5 35.5t35.5 17.5h1491q20 -3 34.5 -17.5t14.5 -35.5t-14.5 -35.5t-34.5 -17.5h-1491q-21 3 -35.5 17.5t-14.5 35.5zM190 575v25q0 112 52 211.5t143 160t203 60.5q107 0 197 -48t207 -138.5t202 -137t188 -46.5q83 0 158.5 41t120.5 112t45 156 q7 61 37 61t37 -61v-25q0 -112 -52 -212.5t-143 -161t-203 -60.5q-106 0 -191.5 45.5t-205.5 138t-207 140t-190 47.5q-83 0 -158.5 -41t-120.5 -111t-45 -156q-6 -63 -37 -63q-28 0 -37 63z" />
<glyph unicode="(" horiz-adv-x="2503" d="M190 512q0 23 23 31q156 29 301.5 106.5t262.5 194.5t192 260q7 14 24 14h49q13 0 21 -10t8 -21q0 -33 -76 -134t-125 -152h1391q49 -11 49 -53q0 -23 -14 -37t-35 -17h-1507q-143 -114 -310 -182q165 -67 310 -180h1507q49 -11 49 -53q0 -23 -14 -37t-35 -17h-1391 q13 -14 68 -82t94 -126.5t39 -79.5q0 -11 -8 -21t-21 -10h-49q-17 0 -24 14q-56 108 -135 200t-177 165.5t-211.5 124.5t-232.5 73q-10 2 -16.5 11t-6.5 18z" />
<glyph unicode=")" horiz-adv-x="2503" d="M190 279q0 42 50 53h1507q142 112 309 180q-87 37 -165.5 83t-143.5 99h-1507q-50 7 -50 54q0 42 50 53h1390q-15 16 -69.5 83.5t-92.5 124.5t-38 78q0 11 8 21t20 10h49q18 0 25 -14q75 -143 192.5 -260.5t262.5 -194.5t301 -106q22 -6 22 -31q0 -10 -5.5 -18.5 t-16.5 -10.5q-118 -22 -231 -72.5t-211.5 -124.5t-176 -164t-137.5 -202q-7 -14 -25 -14h-49q-12 0 -20 10t-8 21q0 32 78.5 136t121.5 152h-1390q-50 7 -50 54z" />
<glyph unicode="*" horiz-adv-x="1573" d="M123 682v53q0 17 20 25q109 45 201.5 108.5t172 146t141 181.5t100.5 207q7 18 28 18q22 0 29 -18q80 -220 240.5 -387t374.5 -256q20 -8 20 -25v-53q0 -11 -10 -19t-21 -8q-40 0 -161.5 77.5t-182.5 129.5v-1210q-11 -49 -53 -49q-21 0 -35.5 14t-17.5 35v1313 q-52 55 -99 120.5t-84 133.5q-74 -140 -180 -254v-1313q-11 -49 -53 -49q-21 0 -35.5 14t-17.5 35v1210q-38 -32 -108.5 -80t-140.5 -87.5t-97 -39.5q-11 0 -21 8t-10 19z" />
<glyph unicode="+" horiz-adv-x="1573" d="M123 289v53q0 11 10 19t21 8q40 0 166 -80.5t180 -126.5v1210q3 20 16.5 34.5t36.5 14.5q42 0 53 -49v-1313q106 -114 180 -254q77 144 183 254v1313q3 20 16.5 34.5t36.5 14.5q42 0 53 -49v-1210q31 28 101.5 77t143 89.5t99.5 40.5q11 0 21 -8t10 -19v-53 q0 -17 -20 -25q-106 -43 -199.5 -107t-174.5 -148.5t-140.5 -180t-100.5 -207.5q-7 -18 -29 -18q-21 0 -28 18q-38 106 -98.5 204.5t-141 182.5t-174.5 148.5t-201 107.5q-20 8 -20 25z" />
<glyph unicode="," horiz-adv-x="2503" d="M147 512q0 22 21 29q138 45 258.5 125.5t213.5 190.5t151 243q7 18 26 18h49q13 0 21 -10t8 -21q0 -33 -68 -137.5t-106 -148.5h1059q-45 56 -109.5 154.5t-64.5 131.5q0 11 8 21t20 10h49q20 0 27 -18q59 -134 151.5 -243.5t213.5 -190t260 -125.5q18 -7 18 -29t-18 -29 q-140 -45 -260 -125t-213.5 -190.5t-151.5 -243.5q-7 -18 -27 -18h-49q-12 0 -20 10t-8 21q0 33 65 133.5t109 154.5h-1059q32 -40 69 -94t71 -112t34 -82q0 -11 -8 -21t-21 -10h-49q-19 0 -26 18q-85 198 -248.5 344t-374.5 215q-21 7 -21 29zM358 512q65 -30 134 -77.5 t129 -102.5h1259q55 51 126 100t136 80q-142 69 -262 182h-1259q-121 -113 -263 -182z" />
<glyph unicode="-" horiz-adv-x="2503" d="M190 1391q0 12 9 21t22 9q8 0 12 -2q151 -78 302 -78q214 0 387 134q9 6 18 6q17 0 41.5 -20.5t24.5 -39.5q0 -11 -13 -24q-94 -74 -214.5 -115t-241.5 -41q-15 1 -27.5 1.5t-32.5 0.5l1813 -1546q20 -17 20 -41q0 -23 -15 -38t-38 -15q-21 0 -31 10l-1820 1550 q22 -93 22 -182q0 -180 -90 -354q-8 -15 -27 -15q-17 0 -41 21t-24 39q0 6 2 10q80 157 80 307q0 68 -15 135t-44 130t-72 118q-7 10 -7 19z" />
<glyph unicode="." horiz-adv-x="2503" d="M190 -367q0 8 7 19q63 81 97 181t34 202q0 153 -78 303q-4 8 -4 14q0 20 23.5 40t41.5 20q19 0 27 -15q43 -82 66.5 -170.5t23.5 -183.5q0 -89 -22 -182l1818 1548q12 12 33 12q23 0 38 -15t15 -38q0 -19 -18 -41l-1815 -1546q15 1 27 1.5t33 0.5q81 0 161.5 -18 t157 -53.5t137.5 -84.5q13 -13 13 -24q0 -17 -24 -38.5t-42 -21.5q-9 0 -18 6q-85 66 -183.5 100t-203.5 34q-148 0 -297 -76q-14 -4 -17 -4q-11 0 -21 10t-10 20z" />
<glyph unicode="/" d="M190 442q0 87 30.5 170.5t88.5 150t135 103.5t168 37q144 0 276 -70.5t220 -189.5l53 -72q61 97 142.5 171.5t182.5 117.5t210 43q50 0 84 -10v-84q-31 6 -66 6q-151 0 -279 -94.5t-206 -239.5l100 -133q190 -252 391 -252q31 0 60 6v-112q-48 -10 -90 -10 q-145 0 -274.5 69.5t-221.5 190.5l-53 71q-59 -94 -141.5 -169.5t-183.5 -118.5t-210 -43q-90 0 -166.5 37.5t-132.5 104t-86.5 150.5t-30.5 170zM264 440q0 -91 40 -178t114.5 -140.5t169.5 -53.5q151 0 278.5 94.5t206.5 238.5l-100 134q-190 251 -391 251 q-70 0 -127 -27.5t-100 -76.5t-67 -111.5t-24 -130.5z" />
<glyph unicode="0" horiz-adv-x="748" d="M125 131q0 2 2 10l293 920q12 39 43.5 61.5t68.5 22.5q51 0 90.5 -34.5t39.5 -84.5q0 -29 -13 -55l-405 -877q-10 -16 -27 -16q-2 0 -12 2l-62 24q-18 7 -18 27z" />
<glyph unicode="1" horiz-adv-x="2503" d="M190 442q0 123 62.5 229.5t169 169t231.5 62.5q75 0 153 -18t142.5 -48.5t127.5 -76.5t116 -105l78 -86q109 149 261 241.5t322 92.5q93 0 177.5 -36.5t146.5 -100t97.5 -148t35.5 -176.5q0 -124 -63 -231.5t-169.5 -169t-230.5 -61.5q-98 0 -197.5 30t-186.5 86 t-154 131l-78 86q-67 -93 -160 -170t-200 -120t-224 -43q-124 0 -229.5 62.5t-166.5 167.5t-61 232zM264 440q0 -96 49 -181t133 -135t181 -50q78 0 153 24.5t143 69.5t127 104t105 125l-111 125q-104 115 -205 183.5t-218 68.5q-91 0 -174 -43t-133 -121t-50 -170z M1346 485l110 -125q50 -53 96 -96t98.5 -77.5t109.5 -56t120 -21.5q91 0 173.5 43t132.5 120t50 170q0 97 -48.5 181.5t-132.5 135t-181 50.5q-105 0 -202.5 -43t-178 -115.5t-147.5 -165.5z" />
<glyph unicode="2" horiz-adv-x="1706" d="M256 512q0 145 57.5 271t160 222.5t235 148.5t272.5 52h418q20 -3 34.5 -17.5t14.5 -35.5t-14.5 -35.5t-34.5 -17.5h-410q-75 0 -150.5 -16.5t-144 -50t-129.5 -85.5q-50 -44 -97.5 -110.5t-75 -137.5t-27.5 -135h1034q20 -3 34.5 -17.5t14.5 -35.5t-14.5 -35.5 t-34.5 -17.5h-1034q0 -64 27.5 -135t75 -137.5t97.5 -110.5q89 -74 198 -113t226 -39h410q20 -3 34.5 -17.5t14.5 -35.5t-14.5 -35.5t-34.5 -17.5h-418q-140 0 -272.5 52.5t-234.5 148t-160 222.5t-58 271z" />
<glyph unicode="3" horiz-adv-x="1706" d="M256 -129q0 21 14.5 35.5t34.5 17.5h410q245 0 424 152q50 44 97.5 110.5t75 137.5t27.5 135h-1034q-20 3 -34.5 17.5t-14.5 35.5t14.5 35.5t34.5 17.5h1034q0 64 -27.5 135t-75 137.5t-97.5 110.5q-179 152 -424 152h-410q-20 3 -34.5 17.5t-14.5 35.5t14.5 35.5 t34.5 17.5h418q142 0 274.5 -52.5t233.5 -147.5t159 -222t58 -272q0 -144 -58.5 -272t-159 -221.5t-233 -147t-274.5 -53.5h-418q-20 3 -34.5 17.5t-14.5 35.5z" />
<glyph unicode="4" horiz-adv-x="2236" d="M199 53q0 16 8 27l866 1358q16 26 45 26q27 0 47 -26l867 -1358q6 -12 6 -27q0 -19 -14.5 -34.5t-34.5 -18.5h-1741q-21 3 -35 18.5t-14 34.5zM348 106h1540l-770 1207z" />
<glyph unicode="5" horiz-adv-x="2236" d="M199 971q0 19 13.5 34.5t35.5 18.5h1741q21 -3 35 -18t14 -35q0 -15 -6 -27l-867 -1358q-19 -26 -47 -26q-29 0 -45 26l-866 1358q-8 11 -8 27zM348 918l770 -1207l770 1207h-1540z" />
<glyph unicode="6" horiz-adv-x="0" d="M389 -387q0 15 8 27l1086 1798q16 26 45 26q21 0 37 -15t16 -38q0 -13 -6 -27l-1086 -1798q-19 -26 -47 -26q-21 0 -37 15t-16 38z" />
<glyph unicode="7" horiz-adv-x="0" d="M190 166v692q5 22 18.5 35.5t35.5 13.5q21 0 35.5 -13.5t17.5 -35.5v-293h16q49 -7 49 -53t-49 -53h-16v-293q-3 -22 -18.5 -35.5t-34.5 -13.5q-20 0 -34.5 13.5t-19.5 35.5z" />
<glyph unicode="8" horiz-adv-x="1440" d="M57 1368q0 23 16 38t38 15q31 0 49 -32l202 -453h717l203 453q18 32 49 32q23 0 38 -15t15 -38q0 -8 -4 -20l-610 -1358q-17 -33 -49 -33t-49 33l-611 1358q-4 12 -4 20zM412 829l309 -690l309 690h-618z" />
<glyph unicode="9" horiz-adv-x="1440" d="M190 53q0 21 14.5 35.5t35.5 17.5h903v551h-871q-21 5 -35 19t-14 35q0 20 14 35t35 18h871v551h-903q-21 3 -35.5 17.5t-14.5 35.5t14.5 35.5t35.5 17.5h960q43 -6 49 -49v-1323q-7 -43 -49 -49h-960q-21 3 -35.5 18.5t-14.5 34.5z" />
<glyph unicode=":" horiz-adv-x="1706" d="M190 688q0 21 14.5 35.5t35.5 17.5h1224q43 -6 49 -49v-473q-3 -20 -17.5 -34.5t-35.5 -14.5q-19 0 -34.5 14.5t-18.5 34.5v416h-1167q-21 3 -35.5 17.5t-14.5 35.5z" />
<glyph unicode=";" horiz-adv-x="1307" d="M162 705q0 759 491 759q103 0 187 -39l41 121q17 33 49 33q21 0 37 -16t16 -37q0 -10 -2 -15l-47 -141q88 -71 134.5 -181t61.5 -231t15 -253q0 -145 -19.5 -271t-73 -235t-151.5 -175.5t-248 -66.5q-104 0 -186 39l-41 -121q-18 -33 -49 -33q-23 0 -38 16t-15 38 q0 10 2 14l47 141q-88 68 -134.5 176.5t-61.5 223.5t-15 254zM336 739q0 -119 3.5 -214t20.5 -195.5t52 -163.5l401 1180q-76 45 -160 45q-145 0 -215 -104t-86 -237.5t-16 -310.5zM496 80q71 -49 157 -49q145 0 215.5 116.5t86.5 262.5t16 329q0 110 -3.5 197t-20 178 t-50.5 148z" />
<glyph unicode="&#x3c;" horiz-adv-x="1839" d="M156 188q0 21 16 27l37 12q-12 36 -12 43q0 17 15 33t32 16q8 0 15.5 -5t10.5 -13l17 -47q4 1 13.5 4.5t16.5 3.5q14 0 26.5 -13.5t12.5 -27.5q0 -20 -16 -26l-29 -11q24 -71 80 -112t131 -41q154 0 154 491v391q-4 173 -21 244q-22 84 -73 147.5t-127 63.5 q-47 0 -86 -24.5t-61.5 -65t-22.5 -86.5q0 -23 13 -43.5t37.5 -42t39.5 -33.5q65 -49 106 -111.5t41 -134.5q0 -78 -15.5 -151.5t-58.5 -125.5t-120 -52q-60 0 -99 51.5t-39 116.5q0 24 27 30h33q19 -5 24 -24q0 -35 14 -68t42 -33q94 0 94 248q0 56 -36 97.5t-99 93.5 q-99 91 -99 174q0 69 36.5 129t98 94.5t130.5 34.5q102 0 190 -56t143 -143q78 120 248 170.5t353 50.5q19 0 26 -12l348 -526q4 -12 4 -17q0 -16 -12 -22l-125 -84q-130 -82 -274 -101l28 -450v-25q0 -53 27.5 -102.5t75.5 -79.5l184 121q9 6 17 6q2 0 12 -2q7 -4 18 -10 t18 -13.5t7 -19.5q0 -15 -12 -23l-242 -145l-8 -2h-37q-109 0 -187.5 80.5t-78.5 189.5v25l-29 442h-266v-178q0 -113 -39 -245t-121.5 -223t-200.5 -91q-221 0 -289 201q-6 -2 -12 -4.5t-13 -4.5t-11 -2q-17 0 -29 13t-12 28zM838 1149q45 -119 45 -236v-131h362 q174 0 311 80l-333 504q-133 -17 -240.5 -67.5t-144.5 -149.5z" />
<glyph unicode="=" horiz-adv-x="1839" d="M190 338v22q7 20 27 25h156q96 0 177 -40t190 -122.5t174.5 -123t146.5 -56.5q110 15 196 76t86 162q0 47 -27 81.5t-81.5 85t-81.5 91.5t-27 96q0 77 46 133.5t117 85.5t147 29q63 0 127.5 -22.5t107.5 -68t43 -112.5q0 -27 -24 -33h-37q-21 5 -27 27q0 44 -29 75 t-71.5 45.5t-87.5 14.5q-54 0 -79.5 -56t-25.5 -118q0 -43 24.5 -76t80 -84.5t84 -93.5t28.5 -98q0 -102 -64 -170t-161 -100.5t-197 -32.5h-155q-98 0 -182.5 42.5t-197 123t-196.5 123t-180 42.5q-20 5 -27 27zM190 1040q0 97 46.5 174t124.5 128t167.5 75.5t182.5 24.5 q188 0 357.5 -91t289.5 -243q7 -8 17.5 -21t19 -21t20 -13.5t23.5 -5.5q188 0 188 83q5 22 27 27h37q24 -6 24 -33q0 -89 -84.5 -120t-193.5 -31q-110 0 -195.5 50.5t-192 149t-178 147t-159.5 48.5q-99 0 -200 -37t-166.5 -112t-65.5 -179q0 -107 68 -181.5t171 -111 t207 -36.5q18 -5 25 -25v-22q-7 -27 -31 -27q-125 0 -247.5 46t-202 137t-79.5 220z" />
<glyph unicode="&#x3e;" d="M190 1368q0 21 14.5 35.5t35.5 17.5h1491q20 -3 34.5 -17.5t14.5 -35.5t-14.5 -35.5t-34.5 -17.5h-693v-1266q-3 -20 -17.5 -34.5t-35.5 -14.5t-35.5 14.5t-17.5 34.5v1266h-692q-21 3 -35.5 17.5t-14.5 35.5z" />
<glyph unicode="?" d="M190 53q0 21 14.5 35.5t35.5 17.5h692v1266q3 21 17 35t36 14t36 -14t17 -35v-1266h693q20 -3 34.5 -17.5t14.5 -35.5q0 -19 -14.5 -34.5t-34.5 -18.5h-1491q-21 3 -35.5 18.5t-14.5 34.5z" />
<glyph unicode="@" horiz-adv-x="1573" d="M190 27v22q7 20 27 25q189 0 189 59q0 42 -17.5 76.5t-56.5 91t-57.5 95.5t-18.5 85q0 114 50 222.5t132 222.5l-69 67q-83 75 -131 133.5t-48 120.5q0 57 15 115.5t53 58.5q22 0 29 -24q0 -40 17 -78.5t46 -72.5t62 -64l639 -607q7 53 31 168t36.5 181.5t18.5 130.5 q-74 53 -113 94t-39 98t14 115.5t54 58.5q21 0 28 -24q14 -32 72 -107t88 -100q27 -20 49.5 -36.5t43.5 -36.5t34.5 -45.5t13.5 -57.5q0 -61 -14 -117.5t-53 -56.5q-22 0 -29 26q0 62 -67 127q-5 -44 -17 -104.5t-25.5 -122t-27.5 -136t-19 -132.5l74 -70q78 -69 128 -130 t50 -124q0 -61 -14 -117.5t-53 -56.5q-23 0 -29 27q0 59 -33.5 109t-91.5 104l-653 620q-29 -59 -45.5 -120t-24.5 -124.5t-8 -132.5q0 -44 21 -73.5t76.5 -85t82.5 -96.5t27 -95q0 -133 -240 -133h-180q-21 5 -27 27z" />
<glyph unicode="A" horiz-adv-x="2025" d="M123 76q0 41 28 107.5t62 66.5q16 0 20 -21q12 -35 42 -62t67.5 -42.5t75.5 -15.5q58 0 148 88.5t161 181.5t160 217q263 374 461 756h30v18q0 28 31.5 56.5t73.5 46.5t69 18h13q18 -6 18 -16q0 -433 86 -1024q20 -134 66 -271q17 -54 33.5 -79t62.5 -25l44 20 q44 20 69 21h12q18 -7 18 -21q0 -35 -55 -72t-127 -62t-111 -25h-12q-36 0 -67.5 20t-49.5 57q-59 156 -84 316h-647q-41 -57 -97 -130t-119 -142.5t-130.5 -119t-122.5 -49.5q-48 0 -102 25.5t-90.5 69t-36.5 92.5zM909 451q52 18 72 18h467q-49 368 -66 752 q-49 -96 -107 -199t-117 -199t-124 -192t-125 -180z" />
<glyph unicode="B" horiz-adv-x="1665" d="M129 -23q0 13 6 19q63 109 107 224.5t72 230t59 274.5q54 264 86 543l-64 -33q-40 -18 -69 -18h-13q-18 7 -18 20q0 43 88 92l172 86q61 27 86 27h12q19 -10 19 -25q-32 -253 -49 -350q62 74 143 144t170.5 122t185.5 82.5t193 30.5h12q65 0 126 -24.5t99.5 -73 t38.5 -115.5q0 -90 -64.5 -164t-153 -126t-195.5 -99q94 -16 176.5 -59.5t132 -117t49.5 -167.5q0 -131 -77.5 -235t-201.5 -171.5t-265 -102t-267 -34.5h-12q-94 0 -184 30.5t-160 90.5q-7 7 -7 14q0 23 33 51.5t75.5 47t66.5 18.5h12q9 -3 12 -6q63 -54 144.5 -80.5 t171.5 -26.5q454 0 454 307q0 106 -64 176t-161.5 102t-202.5 32q-30 0 -74 -6.5t-61 -6.5h-12q-19 9 -19 21q0 13 11 27q41 53 112 79q232 82 281 101q82 32 148 68t87 79q10 32 10 60q0 83 -66.5 127.5t-154.5 44.5q-165 0 -302 -137t-227.5 -330t-135.5 -369 q-29 -121 -78 -233q-40 -92 -92 -181q-36 -59 -131 -94q-14 -2 -22.5 -4t-16.5 -2h-13q-18 9 -18 20z" />
<glyph unicode="C" horiz-adv-x="1389" d="M100 463q0 197 82.5 374.5t226.5 314.5t326.5 213.5t376.5 76.5h12q78 0 129.5 -37t51.5 -113q0 -55 -33 -126t-74 -136q-54 -84 -143 -112q-23 -9 -39 -9h-12q-19 7 -19 21q0 9 33.5 67.5t57.5 110t24 88.5q0 107 -139 107q-304 0 -482 -234q-79 -105 -126.5 -241 t-47.5 -269q0 -128 50 -236t146 -170.5t228 -62.5q120 0 182.5 38.5t142 115.5t140.5 98q24 8 39 8h12q19 -11 19 -22q0 -14 -11 -27q-71 -96 -183.5 -177t-240.5 -127t-249 -46h-13q-144 0 -249.5 68.5t-161.5 185.5t-56 258z" />
<glyph unicode="D" horiz-adv-x="1968" d="M104 995q0 4 2 11q27 108 117.5 185.5t214.5 131.5q193 76 443 76h235q134 0 269 -21t250.5 -71.5t189 -148t73.5 -240.5q0 -220 -123.5 -394.5t-324.5 -291t-430.5 -174.5t-433.5 -58h-277q-18 7 -18 20q0 35 52 69.5t97 45.5q68 161 130.5 361.5t99.5 402t37 361.5 q-87 0 -177.5 -14.5t-150.5 -49.5q-29 -19 -39 -36.5t-18.5 -44t-22.5 -48.5q-26 -35 -73.5 -63.5t-90.5 -28.5h-12q-6 5 -12.5 10t-6.5 10zM610 139h119q168 0 338.5 38t312 118t228 212t86.5 312q0 177 -116.5 275t-281.5 132t-348 34h-43q0 -57 -13 -151.5t-34.5 -200.5 t-38.5 -169q-72 -293 -209 -600z" />
<glyph unicode="E" horiz-adv-x="1374" d="M127 217q0 109 68 212t169 182.5t201 127.5q-88 33 -142 88.5t-54 135.5q0 106 69.5 196t177 152t232.5 96.5t229 34.5h13q105 0 185.5 -30t80.5 -116q0 -76 -66.5 -140t-138.5 -64h-12q-6 5 -12.5 10t-6.5 12q0 9 15.5 37t15.5 47q0 105 -223 105q-86 0 -167.5 -22.5 t-134.5 -77t-53 -142.5q0 -127 134 -174t290 -47q19 -8 19 -21q0 -26 -32 -53.5t-75 -46.5t-67 -19q-190 0 -334 -92q-49 -36 -87.5 -81.5t-63.5 -101.5t-25 -112q0 -80 59.5 -129t145.5 -68.5t163 -19.5q141 0 261 84q30 22 71.5 61.5t72 63t73.5 37.5q24 8 39 8h12 q18 -11 18 -22q0 -14 -10 -27q-69 -92 -185 -170.5t-250.5 -126t-250.5 -47.5h-12q-152 0 -282 62.5t-130 197.5z" />
<glyph unicode="F" horiz-adv-x="1800" d="M90 92q0 19 20 40t46.5 37t58 28t49.5 12h12q16 -6 17 -10q34 -63 96.5 -98t134.5 -35q28 0 92 116t129.5 260.5t83.5 194.5q31 73 57.5 153.5t46.5 154t36.5 155t27.5 160.5h-98q-251 0 -295 -175q-13 -40 -71.5 -75t-102.5 -35h-12q-6 5 -12.5 10t-6.5 10q0 4 2 11 q23 88 91 162t161.5 124.5t195.5 78.5t193 28h701q239 0 239 -80q0 -47 -61 -88t-113 -41h-12q-8 4 -13 10t-5 14v7q0 39 -203 39h-387q-49 -259 -144 -512h598q19 -11 19 -21q0 -34 -31 -67.5t-72.5 -53.5t-76.5 -20h-13q-3 2 -6 3.5t-6 2.5q-2 2 -2 9t-4 7h-461 q-86 -207 -215 -428q-69 -110 -175 -182t-222 -72h-12q-83 0 -158 41.5t-113 112.5q-4 8 -4 12z" />
<glyph unicode="G" horiz-adv-x="1528" d="M162 592q0 182 85 340t227.5 271.5t319 176t351.5 62.5h12q297 0 297 -152q0 -46 -22.5 -87t-65.5 -97q-85 -116 -178 -145q-22 -9 -39 -9h-12q-19 7 -19 21q0 16 40.5 65t65.5 84.5t25 71.5q0 32 -16 53.5t-43 28.5q-105 27 -195 27q-284 0 -442 -158 q-59 -61 -100.5 -135.5t-63.5 -158t-22 -163.5q0 -116 48.5 -210t138 -146.5t208.5 -52.5q156 0 278 112.5t160 267.5q15 41 72 76t100 35h12q19 -10 19 -22v-9q-45 -186 -99.5 -342.5t-134.5 -285.5q-65 -103 -148.5 -180.5t-187.5 -125t-217 -47.5h-12q-203 0 -379 72 l-12 10q-6 5 -6 13q0 19 20 40t51 39t58 27.5t45 9.5h12q171 -71 371 -71q69 0 115 36q51 47 91 108.5t70.5 130t57.5 144.5q-110 -80 -236 -129t-252 -49h-12q-97 0 -176.5 33.5t-138.5 96t-90 145.5t-31 178z" />
<glyph unicode="H" horiz-adv-x="2169" d="M104 995q0 7 11 29q74 115 185.5 200.5t243 130t271.5 44.5h12q36 0 71.5 -18.5t56 -50.5t20.5 -68q0 -81 -15 -178t-34.5 -182t-51.5 -204h635q48 160 100.5 308.5t108.5 285.5q20 41 74 74t98 33h13q18 -7 18 -21q0 -8 -2 -12q-54 -133 -110.5 -289t-108.5 -332 t-84.5 -337t-32.5 -281q0 -39 28.5 -67.5t69.5 -28.5q55 0 127 14q20 50 74.5 87.5t104.5 37.5h12q18 -7 18 -20q0 -50 -71 -121q-159 -138 -426 -138q-57 0 -99.5 40t-42.5 96q0 190 97 551q-44 -19 -70 -19h-571q-44 -144 -92 -276t-101 -260q-18 -40 -73 -73.5t-99 -33.5 h-12q-19 7 -19 21q0 8 2 12q66 160 120 314.5t95 295.5h-209q-18 7 -18 21q0 38 66 78t108 40h90q16 57 35 145.5t31 174.5t12 143q0 46 -30.5 72.5t-75.5 26.5q-123 0 -190 -29t-107 -77t-84 -98.5t-109 -72.5q-24 -8 -39 -8h-12q-6 5 -12.5 10t-6.5 10z" />
<glyph unicode="I" horiz-adv-x="1452" d="M45 20q0 25 32 53.5t75 47t67 18.5h215q35 0 45 8q77 71 126.5 202t94.5 310q38 154 64 245t71.5 186.5t116.5 169.5h-131q-150 0 -262.5 -7t-191.5 -34q-11 -3 -17 -11q-6 -7 -16.5 -34t-14.5 -33q-28 -36 -75 -64t-88 -28h-13q-18 11 -18 22v8q34 111 136.5 181 t234.5 104q60 14 140.5 22.5t152.5 10.5t176 2h583q19 -7 19 -21q0 -38 -66 -78t-108 -40h-285q-25 0 -64.5 -84.5t-62.5 -151.5q-32 -95 -78 -285q-33 -130 -66.5 -234t-88.5 -202.5t-130 -163.5h461q58 0 111 13q1 0 7.5 16.5t8.5 19.5q26 35 73 63t91 28h12 q19 -11 19 -21q0 -4 -2 -8q-24 -82 -100 -138.5t-173 -84t-190 -27.5h-873q-18 9 -18 20z" />
<glyph unicode="J" horiz-adv-x="1733" d="M162 74q0 70 20 104q29 36 76 63t88 27h12q19 -7 19 -20q0 -15 -5 -43t-5 -35q0 -133 113.5 -202.5t256.5 -69.5q97 0 184 46t146 122.5t84 173.5q24 93 69 262.5t95.5 304t125 253t173.5 200.5h-301q-104 0 -199 -30t-164 -95.5t-94 -165.5q-13 -38 -71.5 -73.5 t-102.5 -35.5h-12q-19 10 -19 21q0 4 2 8q29 113 112.5 208t201.5 163t244.5 103.5t244.5 35.5h531q18 -7 18 -21q0 -38 -66.5 -78t-107.5 -40q-70 0 -109 -33q-69 -62 -126 -168.5t-101.5 -235t-81.5 -273t-59 -231.5q-27 -111 -105.5 -214.5t-188.5 -182t-233.5 -121.5 t-236.5 -43h-12q-74 0 -147 20t-133.5 58.5t-98 99t-37.5 138.5z" />
<glyph unicode="K" horiz-adv-x="1921" d="M129 -23q0 9 2 13q85 201 160.5 424t125.5 452t50 404l-72 -35q-40 -18 -69 -18h-13q-18 7 -18 20q0 43 88 92l188 94q44 19 70 19h12q19 -9 19 -25q0 -156 -27.5 -328t-77 -352t-110 -348.5t-125.5 -325.5q-11 -24 -40.5 -49.5t-65.5 -41t-66 -15.5h-13q-18 9 -18 20z M600 823q0 83 118.5 189t297 206t341 162t245.5 62h10q35 0 68 -16t53 -45t20 -64q0 -49 -39 -83t-90 -34h-10q-23 17 -23 29q4 16 4 24q0 35 -25.5 53.5t-62.5 18.5q-51 0 -173 -50.5t-256 -124t-227 -146.5t-93 -117q0 -68 63.5 -205t158.5 -277t195.5 -235.5t172.5 -95.5 q100 0 181.5 32t100.5 111q13 32 49.5 55t73.5 23h10q23 -13 23 -27q0 -8 -2 -10q-26 -102 -113.5 -169.5t-200.5 -99.5t-223 -32h-10q-80 0 -190.5 101.5t-213 251t-168 293.5t-65.5 220z" />
<glyph unicode="L" horiz-adv-x="1749" d="M131 -23q0 7 10 27q39 48 95 86q41 45 83 113q69 113 107 266q47 185 104.5 333.5t143.5 276.5q105 157 262.5 260t333.5 103q61 0 110 -26t77 -73.5t28 -107.5q0 -58 -21 -88q-20 -25 -52.5 -49.5t-68 -39t-67.5 -14.5q-25 0 -25 21q0 9 4.5 27.5t4.5 31.5q0 49 -22 88 t-60 59.5t-88 20.5q-49 0 -84 -16q-62 -37 -118.5 -121.5t-104 -194t-76.5 -199.5t-58 -196q-50 -208 -162 -360q34 6 66 6q89 0 178.5 -14.5t206 -40t200.5 -38t160 -12.5q38 0 53.5 13t25.5 42t22 48q34 41 87.5 71.5t100.5 30.5q27 0 27 -20q0 -2 -2 -6 q-28 -93 -108.5 -168t-186 -117.5t-199.5 -42.5q-112 0 -242 26l-260 52q-130 26 -241 26q-19 0 -61.5 -32t-77 -52t-80.5 -20q-25 0 -25 20z" />
<glyph unicode="M" horiz-adv-x="2922" d="M125 6q0 40 28.5 107t63.5 67q6 0 10 -4q33 -31 85 -48t98 -17q41 0 91.5 74t96 175t78.5 190t57 163q33 97 59.5 200t46.5 208.5t33 217.5q0 5 11 27q24 32 62.5 54t76.5 22h14q18 -12 19 -17q204 -808 407 -1124q177 147 375 342q28 28 55.5 55t53.5 54 q82 81 175 175.5t173 177.5t107.5 112t181.5 192q28 33 45 33q22 0 22 -45q0 -35 -12 -70q-35 -181 -60 -343.5t-42 -336.5t-17 -309q0 -96 16 -205q7 -26 23.5 -39.5t40.5 -13.5q72 37 104 37h13q18 -7 18 -21q0 -35 -52.5 -71t-123 -60t-104.5 -24h-13q-82 0 -104.5 87.5 t-22.5 211.5q0 76 6 168t19.5 215t30 236t26.5 177q-115 -122 -255.5 -267t-248 -252t-224 -213.5t-257.5 -225.5q-8 -8 -16 -8h-13q-6 4 -11 6.5t-7 5.5q-138 177 -239 436t-193 586q0 -6 -2 -14l-4 -16q-2 -8 -3 -14.5t-3 -15.5l-19 -71q-23 -95 -84 -281t-136 -363.5 t-165 -307.5t-172 -130q-63 0 -141 31t-78 84z" />
<glyph unicode="N" horiz-adv-x="2058" d="M-8 6q0 40 28.5 107t63.5 67q6 0 10 -4q33 -31 86.5 -49t100.5 -18q36 0 65.5 34.5t54 86.5t40.5 99.5t32 96.5q63 187 96 326q22 87 45 199t37.5 213t14.5 175q7 38 57.5 70.5t91.5 32.5h14q15 -7 19 -17q23 -59 45 -110q150 -371 297 -675.5t305 -506.5q34 146 64 266 t55.5 216.5t56 207.5t76.5 269q49 161 87.5 253.5t93 152t147.5 90t237 30.5q29 0 29 -45q0 -46 -24.5 -104t-63.5 -70q-106 0 -188 -16.5t-144 -67.5q-13 -12 -36 -79.5t-46.5 -149t-30.5 -105.5q-132 -458 -241 -946l-2 4q-4 -25 -29.5 -49t-61.5 -40t-59 -16h-14l-9 6 q-3 2 -8 7q-181 207 -332.5 506.5t-308.5 683.5q-20 -127 -66.5 -326t-117.5 -413.5t-160.5 -361.5t-181.5 -147q-67 0 -146 31.5t-79 85.5z" />
<glyph unicode="O" horiz-adv-x="1993" d="M188 539q0 149 57.5 290t158.5 262.5t229.5 211t261.5 133.5q36 6 39 6h12q19 -8 19 -21t-11 -26q-23 -30 -55.5 -50.5t-82.5 -43.5t-73 -37q-57 -39 -106.5 -85t-89.5 -98q-72 -96 -113 -212.5t-41 -233.5q0 -120 39.5 -217.5t113 -170.5t175 -112t217.5 -39 q200 0 371 102.5t271.5 276t100.5 371.5q0 122 -45.5 227.5t-135.5 167.5t-216 62q-139 0 -266 -168q-55 -79 -92 -154q-39 -62 -129 -92q-26 -8 -39 -8h-13q-18 7 -18 20q0 3 4 21q64 135 173.5 254.5t247 192.5t282.5 73h12q107 0 188.5 -39t138 -109t85 -159.5 t28.5 -192.5q0 -200 -96 -379.5t-258 -316.5t-356.5 -213t-387.5 -76h-12q-125 0 -232.5 42.5t-188 121.5t-124 187t-43.5 231z" />
<glyph unicode="P" horiz-adv-x="1798" d="M104 995q0 4 2 11q26 104 111 180t201 127q201 86 463 86h309q139 0 277.5 -24t243 -97t104.5 -205q0 -78 -32 -152.5t-87 -138.5t-124 -117.5t-136 -91.5q-277 -153 -613 -153h-12q-18 9 -18 20q0 25 32 53.5t75 47t67 18.5q237 0 417 88q60 31 112.5 82t83 115 t30.5 135q0 116 -100 178.5t-231 82.5t-257 20h-119q0 -101 -32 -274t-66 -302q-42 -169 -105 -349t-137 -349q-24 -37 -74.5 -68t-93.5 -31h-12q-18 7 -18 21q0 6 4 18q38 87 72 173t60 161.5t53.5 169t47.5 174.5q40 156 72.5 342.5t32.5 313.5q-87 0 -177.5 -14.5 t-150.5 -49.5q-29 -19 -39 -36.5t-18.5 -44t-22.5 -48.5q-25 -34 -73.5 -63t-90.5 -29h-12q-6 5 -12.5 10t-6.5 10z" />
<glyph unicode="Q" horiz-adv-x="2064" d="M301 606q0 165 94.5 318.5t248.5 270t331.5 182t337.5 65.5h12q153 0 278 -67t196 -188t71 -276q0 -168 -75 -316t-204 -266.5t-282 -201.5t-312 -131q22 -6 136 -39t173 -47t133 -25.5t158 -13.5q61 0 84 11t38.5 45.5t25.5 49.5q26 36 73.5 64.5t90.5 28.5h12 q18 -9 18 -21q0 -4 -2 -8q-25 -88 -105 -159.5t-183 -110.5t-199 -39h-12q-118 0 -226 23t-285.5 74.5t-290.5 76t-241 24.5q-18 9 -18 21q0 38 66 78.5t108 40.5q137 0 260 9.5t241.5 39.5t223.5 88q174 97 281.5 257.5t107.5 350.5q0 145 -65 255.5t-178.5 171.5 t-258.5 61q-116 0 -234.5 -46t-214.5 -129.5t-152 -192t-56 -230.5q0 -107 52 -188.5t140.5 -125t192.5 -43.5q57 0 98 8t93 25t92 31q24 8 38 8h13q18 -11 18 -21q0 -15 -10 -28q-37 -49 -127 -86.5t-189.5 -56.5t-175.5 -19h-12q-117 0 -214.5 50t-155.5 140.5t-58 206.5z " />
<glyph unicode="R" horiz-adv-x="2173" d="M104 995q0 4 2 11q27 108 117.5 185.5t214.5 131.5q193 76 443 76h254q159 0 299.5 -13t257 -68.5t116.5 -170.5q0 -100 -48.5 -188.5t-128 -157.5t-174 -118t-189.5 -77q31 -33 83.5 -118t114 -181.5t118.5 -153.5t110 -57q64 0 108.5 23t99.5 70.5t86 68.5t78 21h13 q18 -11 18 -21q0 -4 -10 -27q-54 -72 -148 -135.5t-198.5 -101t-198.5 -37.5h-12q-83 0 -149.5 75.5t-155.5 227t-150 225.5t-139 74q-18 7 -18 21q0 38 67 78t107 40q91 0 178 17t164 58t123.5 110.5t46.5 165.5q0 103 -93 151q-54 26 -134 39.5t-169 17t-229 3.5h-74 q0 -63 -15 -158t-40 -223q-42 -213 -115 -428q-51 -158 -114 -304q-35 -84 -63.5 -120.5t-106.5 -63.5q-14 -2 -22.5 -4t-16.5 -2h-13q-18 9 -18 20q0 10 6 19q75 167 130.5 325t94.5 318q35 138 65 318.5t30 302.5q-87 0 -177.5 -14.5t-150.5 -49.5q-29 -19 -39 -36.5 t-18.5 -44t-22.5 -48.5q-26 -35 -73.5 -63.5t-90.5 -28.5h-12q-6 5 -12.5 10t-6.5 10z" />
<glyph unicode="S" horiz-adv-x="1561" d="M109 264q0 73 46 141.5t118 111t141 42.5h12q18 -9 18 -20q0 -47 -112 -105q-19 -29 -19 -72q0 -84 75.5 -144t181 -91t188.5 -31q190 0 327.5 61t137.5 224q0 70 -41 125t-99 89t-124.5 57.5t-145.5 43.5q-139 40 -235.5 110t-96.5 185q0 105 65.5 189.5t169 142.5 t221 88.5t216.5 30.5h12q149 0 268 -45.5t119 -165.5q0 -59 -18 -90q-27 -35 -75 -63.5t-89 -28.5h-12q-19 11 -19 24q9 47 9 60q0 36 -15.5 68t-46.5 46q-138 56 -282 56q-133 0 -225.5 -47t-92.5 -166q0 -100 88 -161t207 -93q91 -25 159.5 -50t135 -66t109 -101.5 t42.5 -139.5q0 -127 -79 -226t-207.5 -165t-268.5 -98.5t-264 -32.5h-12q-95 0 -209 36t-196 106t-82 165z" />
<glyph unicode="T" horiz-adv-x="1456" d="M135 997q27 110 123.5 203t226 146t238.5 53h1032q64 0 94 2q87 67 156 67q25 0 25 -20q-1 -4 -1.5 -8t-2 -8t-3.5 -9q-45 -87 -194 -145q-86 -29 -248 -29h-383l-213 -850q-55 -216 -158 -422q-21 -41 -83.5 -78.5t-112.5 -37.5q-25 0 -25 18q0 10 2 15q97 193 154 409 l225 899q3 15 35 47h-473q-79 0 -124.5 -37t-64.5 -114q-15 -45 -81.5 -84t-116.5 -39q-27 0 -27 22z" />
<glyph unicode="U" horiz-adv-x="1585" d="M25 248q0 74 18.5 150.5t48.5 153t68 163.5q13 30 65.5 148.5t82.5 202t30 136.5q0 58 -49 58q-42 0 -66 -9t-80 -35t-82 -26h-12q-18 7 -18 20q0 14 10 27q34 46 104.5 82.5t150 58t144.5 21.5h13q43 0 66.5 -28.5t23.5 -72.5t-19.5 -111.5t-53 -149t-69.5 -160.5 t-43 -95q-33 -74 -63 -148.5t-48 -149t-18 -142.5q0 -102 45 -174t142 -72q175 0 545 402q125 142 233.5 297t183.5 311q12 31 29 77.5t41 108.5q10 26 41 51t67 40.5t64 15.5h12q19 -8 19 -21q0 -26 -24 -87.5t-50 -116.5q-56 -154 -118 -346.5t-108 -383.5t-46 -309 q0 -47 47 -53q61 35 98 35h12q19 -7 19 -21q0 -32 -52.5 -69t-119.5 -60.5t-101 -23.5h-12q-36 0 -66 27t-30 63q0 126 29.5 255.5t93.5 342.5q-85 -104 -197.5 -219.5t-242 -219t-265 -169.5t-252.5 -66h-12q-115 0 -172 84t-57 207z" />
<glyph unicode="V" horiz-adv-x="1608" d="M127 1294q0 36 55.5 70.5t96.5 34.5h12q192 0 294 -171t132.5 -391.5t30.5 -435.5q0 -25 -1.5 -67.5t-3.5 -85t-2 -66.5q140 95 258 191.5t230 206.5q60 60 124 136t116.5 160t52.5 134q0 80 -67.5 125t-149.5 45q-9 0 -14 17t-5 28q0 47 29 110.5t67 63.5 q74 0 132.5 -33.5t90 -92t31.5 -134.5q0 -94 -36 -193t-95 -194q-70 -116 -174 -236t-237 -242t-261 -217.5t-251 -162.5q-7 -5 -15 -5q-12 0 -18 15.5t-6 25.5v11q5 41 12.5 142.5t7.5 235.5q0 205 -26.5 412.5t-119 373t-270.5 165.5q-20 12 -20 24z" />
<glyph unicode="W" horiz-adv-x="2503" d="M127 1294q0 36 54.5 70.5t94.5 34.5h15q127 0 207.5 -81.5t119.5 -204t51.5 -250t12.5 -255.5q0 -86 -4.5 -169.5t-13.5 -178.5q135 153 263 318.5t242 339t211 344.5q-4 4 -4 8q-8 16 -8 24q0 36 55.5 70.5t94.5 34.5h14q3 -2 9 -4.5t7 -5.5q63 -136 117.5 -287 t93 -295.5t68 -300.5t43.5 -305q107 114 200 225.5t175.5 234t138.5 244.5q35 77 35 119q0 70 -45.5 113t-114.5 43q-8 0 -13 17t-5 28q0 47 28 110.5t68 63.5q98 0 147 -73t49 -173q0 -168 -131.5 -412t-319 -478t-333.5 -361q-17 -13 -27 -13q-22 0 -22 41v11 q-20 335 -101 671q-34 143 -76 276t-96 265q-86 -156 -195.5 -326t-228 -330.5t-246 -311.5t-259.5 -283q-13 -13 -27 -13q-22 0 -22 48v4q0 17 8 47q41 314 41 540q0 164 -23.5 328.5t-101.5 289t-226 124.5q-20 10 -20 24z" />
<glyph unicode="X" horiz-adv-x="1808" d="M170 125q0 37 14 65q25 59 121 134t216 145.5t273 149.5t203 104l-49 301q-17 102 -52.5 169t-117.5 67q-12 0 -22 -0.5t-14.5 -4.5t-10 -9.5t-20.5 -18.5q-37 -29 -86 -45q-26 -8 -39 -8h-13q-18 7 -18 20q0 30 27 63q106 142 350 142h12q167 0 209 -271l49 -303 q208 108 352.5 189t167.5 129q7 10 7 33q0 40 -22 62t-62 22q-19 8 -19 20q0 38 66 78.5t108 40.5h12q33 0 61 -17.5t44 -46.5t16 -61q0 -37 -14 -66q-22 -53 -102.5 -119.5t-188.5 -132t-219.5 -124.5t-189.5 -99l57 -360q17 -102 54 -168t118 -66q24 0 29.5 1.5t15 11 t23.5 20.5q36 29 86 45q24 8 38 8h13q18 -7 18 -20q0 -25 -26 -66q-106 -139 -351 -139h-12q-167 0 -211 268l-57 363q-12 -7 -136.5 -70.5t-222.5 -117t-178 -105.5t-96 -82q-6 -10 -6 -33q0 -39 23.5 -61.5t60.5 -22.5q18 -7 18 -20q0 -39 -66.5 -79t-107.5 -40h-12 q-52 0 -86.5 37t-34.5 88z" />
<glyph unicode="Y" horiz-adv-x="1686" d="M131 -37q6 43 25 83t51 48h12l14 -14q28 -87 99 -135.5t166 -48.5q55 0 153.5 57t177.5 113v8q0 231 -34.5 500t-143 482.5t-311.5 213.5q-7 0 -35 -21t-54 -35t-56 -14h-15q-20 12 -20 23q0 14 24 45q133 131 277 131h14q165 0 274.5 -127t166 -317.5t77.5 -386.5 t21 -359q230 197 381 397q68 92 142.5 227.5t74.5 208.5q0 52 -31 90t-79.5 58t-100.5 20q-8 0 -13.5 15t-5.5 22v21q4 39 24 81t52 50h10q70 0 127 -32.5t90 -90.5t33 -127v-21q0 -98 -59.5 -242t-132.5 -261q-68 -109 -151 -212t-183 -204q-79 -79 -226 -201t-291 -211.5 t-226 -89.5h-13q-69 0 -135.5 29.5t-113 84t-56.5 122.5v20z" />
<glyph unicode="Z" horiz-adv-x="1810" d="M141 20q0 12 13 27q18 23 95 83t181 136t133 99q71 55 192 152.5t228 187.5h-244q-22 11 -22 26q0 34 43.5 62t81.5 28h276q108 93 208 187t204 200q-38 -4 -55 -4q-59 0 -145.5 8.5t-156 17t-134 14t-124.5 5.5q-83 0 -165 -28q-47 -23 -62 -88q-14 -43 -82.5 -83 t-116.5 -40q-26 0 -26 20q0 2 2 6q27 108 132 191t243 127.5t256 44.5q59 0 124.5 -5.5t135 -14t155 -17t144.5 -8.5q18 0 32 4.5t40 17t43 18t36 5.5q27 0 27 -21q0 -32 -229 -249t-334 -308q182 0 190 -67q0 -38 -43 -67.5t-82 -29.5h-10l-10 7l-10 10q0 4 -0.5 7t-1.5 5 q-32 13 -168 19q-109 -91 -218.5 -180t-221 -176t-208.5 -159q42 5 76 5q87 0 181 -5.5t195 -14t226 -17t211 -8.5q44 0 81.5 60t51.5 116q14 42 83 82.5t116 40.5q8 0 16.5 -5t8.5 -14v-8q-28 -108 -113.5 -206t-200 -157t-223.5 -59q-85 0 -211 8.5t-229 17t-196 14 t-177 5.5q-36 0 -61 -6.5t-79 -22.5t-75 -16q-27 0 -27 20z" />
<glyph unicode="[" horiz-adv-x="1706" d="M190 397v789q5 21 19 35t35 14q20 0 35 -14t18 -35v-780q0 -94 54.5 -162.5t139.5 -107.5t180.5 -56t180.5 -17q86 0 181.5 17t181 56.5t139 106.5t53.5 163v780q3 20 18.5 34.5t34.5 14.5q21 0 35.5 -14.5t17.5 -34.5v-789q0 -152 -103.5 -252t-256 -144t-301.5 -44 t-301.5 44t-256.5 143.5t-104 252.5z" />
<glyph unicode="\" horiz-adv-x="1706" d="M190 6v789q0 117 61.5 202.5t163.5 138.5t216.5 76t220.5 23q149 0 301.5 -44t256 -144t103.5 -252v-789q-3 -20 -17.5 -34.5t-35.5 -14.5q-19 0 -34.5 14.5t-18.5 34.5v780q0 97 -52.5 163t-139 106t-179.5 56.5t-184 16.5q-90 0 -183 -16.5t-179 -56t-139.5 -107 t-53.5 -162.5v-780q-3 -21 -18 -35t-35 -14q-21 0 -35 14t-19 35z" />
<glyph unicode="]" horiz-adv-x="1706" d="M190 397v789q5 21 19 35t35 14q20 0 35 -14t18 -35v-780q0 -94 54.5 -162.5t139.5 -107.5t180.5 -56t180.5 -17q86 0 181.5 17t181 56.5t139 106.5t53.5 163v780q3 20 18.5 34.5t34.5 14.5q21 0 35.5 -14.5t17.5 -34.5v-789q0 -152 -103.5 -252t-256 -144t-301.5 -44 t-301.5 44t-256.5 143.5t-104 252.5zM403 631q0 20 14 35t36 18h346v346q3 21 17 35t36 14t36 -14t17 -35v-346h346q22 -3 35.5 -17.5t13.5 -35.5q0 -22 -14 -36t-35 -17h-346v-347q-3 -20 -17.5 -34.5t-35.5 -14.5t-35.5 14.5t-17.5 34.5v347h-346q-21 3 -35.5 17.5 t-14.5 35.5z" />
<glyph unicode="^" horiz-adv-x="1706" d="M190 10q0 15 9 27l608 1171q16 27 45 27q28 0 47 -27l610 -1177q4 -6 4 -21q0 -21 -15 -37t-38 -16q-29 0 -45 27l-563 1083l-561 -1083q-19 -27 -47 -27q-22 0 -38 16t-16 37z" />
<glyph unicode="_" horiz-adv-x="1706" d="M190 1182q0 21 16 37t38 16q28 0 47 -27l561 -1083l563 1083q16 27 45 27q23 0 38 -16t15 -37q0 -15 -6 -27l-608 -1171q-19 -27 -47 -27q-29 0 -45 27l-612 1177q-5 15 -5 21z" />
<glyph unicode="`" horiz-adv-x="1573" d="M190 49v1323q5 22 18.5 35.5t35.5 13.5q21 0 35.5 -13.5t17.5 -35.5v-608h1036q22 -3 35.5 -17.5t13.5 -35.5q0 -22 -13.5 -35.5t-35.5 -18.5h-1036v-608q-3 -21 -18 -35t-35 -14q-21 0 -35 14t-19 35z" />
<glyph unicode="a" horiz-adv-x="1573" d="M190 711q0 20 14 35t36 18h1036v608q3 21 17 35t36 14t36 -14t17 -35v-1323q-3 -20 -17.5 -34.5t-35.5 -14.5t-35.5 14.5t-17.5 34.5v608h-1036q-50 9 -50 54z" />
<glyph unicode="b" horiz-adv-x="1176" d="M469 -463v1950q3 20 18.5 34.5t34.5 14.5q21 0 35.5 -14.5t17.5 -34.5v-1893h449q21 -3 35 -17t14 -36q0 -20 -14 -35t-35 -18h-506q-42 7 -49 49z" />
<glyph unicode="c" horiz-adv-x="1176" d="M100 -459q0 21 14.5 35.5t35.5 17.5h448v1893q3 20 18.5 34.5t34.5 14.5q21 0 36 -15t18 -34v-1950q-3 -19 -16.5 -32.5t-33.5 -16.5h-505q-21 3 -35.5 18.5t-14.5 34.5z" />
<glyph unicode="d" horiz-adv-x="1176" d="M469 -463v1950q7 42 49 49h506q22 -3 35.5 -17.5t13.5 -35.5q0 -22 -14 -36t-35 -17h-449v-1893q-3 -20 -17.5 -34.5t-35.5 -14.5q-19 0 -34.5 14.5t-18.5 34.5z" />
<glyph unicode="e" horiz-adv-x="1176" d="M100 1483q0 20 14 35t36 18h505q20 -3 33.5 -16.5t16.5 -32.5v-1950q-3 -19 -18 -34t-36 -15q-19 0 -34.5 14.5t-18.5 34.5v1893h-448q-21 3 -35.5 17.5t-14.5 35.5z" />
<glyph unicode="f" horiz-adv-x="1307" d="M219 502v22q5 20 27 25q120 0 220.5 55.5t100.5 165.5v494q0 80 46.5 135.5t118 84t153.5 40.5t155 12h23q19 -5 24 -25v-22q-5 -22 -24 -27q-74 0 -147 -19.5t-124 -65.5t-51 -120v-493q0 -97 -68 -160t-173 -92q103 -27 172 -90.5t69 -161.5v-493q0 -74 51 -120 t124 -65.5t147 -19.5q19 -5 24 -27v-22q-5 -20 -24 -25h-23q-73 0 -152.5 11.5t-154 41.5t-120.5 85t-46 134v494q0 74 -49.5 124.5t-125.5 73.5t-146 23q-22 5 -27 27z" />
<glyph unicode="g" horiz-adv-x="1307" d="M219 -465q5 22 27 27q73 0 146 19.5t124 66t51 119.5v493q0 97 70.5 161t171.5 91q-104 29 -173 92t-69 160v493q0 57 -31 97t-78 63t-103.5 34t-108.5 11q-22 5 -27 27v22q5 20 27 25h22q72 0 155.5 -12t154.5 -40.5t117 -83.5t46 -136v-494q0 -74 49 -124.5 t125.5 -73.5t147.5 -23q19 -5 24 -25v-22q-5 -22 -24 -27q-71 0 -147.5 -23t-125.5 -73.5t-49 -124.5v-494q0 -151 -148 -211.5t-325 -60.5h-22q-22 5 -27 25v22z" />
<glyph unicode="h" horiz-adv-x="1042" d="M322 512q0 8 4 20l422 971q17 33 49 33q21 0 37 -16t16 -37q0 -9 -4 -21l-414 -950l414 -950q4 -12 4 -21q0 -21 -16 -37t-37 -16q-32 0 -49 33l-422 971q-4 12 -4 20z" />
<glyph unicode="i" horiz-adv-x="1042" d="M190 -459q0 6 5 21l413 950l-413 950q-5 15 -5 21q0 21 16 37t38 16q32 0 49 -33l422 -971q4 -12 4 -20t-4 -20l-422 -971q-17 -33 -49 -33q-22 0 -38 16t-16 37z" />
<glyph unicode="j" horiz-adv-x="776" d="M336 -463v1950q3 20 17.5 34.5t35.5 14.5t35.5 -14.5t17.5 -34.5v-1950q-3 -20 -17.5 -34.5t-35.5 -14.5t-35.5 14.5t-17.5 34.5z" />
<glyph unicode="k" horiz-adv-x="1307" d="M367 -463v1950q3 20 17.5 34.5t35.5 14.5t35.5 -14.5t17.5 -34.5v-1950q-3 -20 -17.5 -34.5t-35.5 -14.5t-35.5 14.5t-17.5 34.5zM836 -463v1950q3 20 17.5 34.5t35.5 14.5t35.5 -14.5t17.5 -34.5v-1950q-3 -20 -17.5 -34.5t-35.5 -14.5t-35.5 14.5t-17.5 34.5z" />
<glyph unicode="l" horiz-adv-x="1307" d="M92 14q0 11 10 19t21 8q2 0 8 -2q139 -25 261.5 -102.5t207.5 -194.5v1540q-83 -114 -205 -192t-264 -105q-6 -2 -8 -2q-11 0 -21 8t-10 19v53q0 21 23 27q120 23 223.5 87t178 163t106.5 216q7 23 30 23q24 0 31 -27q34 -117 107.5 -213.5t177 -161t223.5 -87.5 q8 -2 15 -10.5t7 -16.5v-53q0 -11 -9 -19t-21 -8q-2 0 -8 2q-143 28 -265 106t-204 191v-1540q84 116 206.5 193.5t262.5 103.5q6 2 8 2q12 0 21 -8t9 -19v-53q0 -8 -6 -15.5t-16 -11.5q-119 -22 -223.5 -87t-178.5 -163.5t-106 -215.5q-7 -23 -31 -23q-23 0 -30 27 q-24 85 -73 163.5t-116.5 139.5t-149 102t-169.5 57q-23 6 -23 27v53z" />
<glyph unicode="m" horiz-adv-x="1573" d="M123 18v54q0 11 10 18.5t21 7.5q30 0 96.5 -32.5t143 -78t106.5 -67.5v1184q-72 -49 -187 -113.5t-159 -64.5q-11 0 -21 8t-10 18v54q0 7 6 14.5t14 9.5q133 47 248.5 123.5t209.5 181t159 230.5q7 14 26 14q20 0 27 -14q98 -188 258 -327t359 -208q8 -2 14 -8.5t6 -15.5 v-54q0 -10 -10 -18t-21 -8q-30 0 -99 33.5t-142.5 77.5t-102.5 67v-1184q29 23 102.5 67t142.5 77.5t99 33.5q11 0 21 -7.5t10 -18.5v-54q0 -7 -7 -15t-13 -9q-133 -47 -248.5 -123.5t-209.5 -181t-159 -230.5q-7 -14 -27 -14q-19 0 -26 14q-65 126 -159 230.5t-209.5 181 t-248.5 123.5q-6 1 -13 10t-7 14zM606 -170q107 -99 180 -211q77 116 183 211v1364q-106 95 -183 211q-73 -112 -180 -211v-1364z" />
<glyph unicode="n" horiz-adv-x="1307" d="M190 1483q0 21 16 37t38 16q32 0 49 -33l819 -1941q4 -12 4 -21q0 -21 -15 -37t-38 -16q-32 0 -49 33l-819 1941q-5 15 -5 21z" />
<glyph unicode="o" horiz-adv-x="776" d="M190 190q0 80 30.5 151t93.5 175t92.5 172t29.5 148q0 56 -20 123t-61 114t-101 47q-64 6 -64 37t64 37h25q94 0 164 -51t106.5 -133t36.5 -174q0 -83 -30 -152.5t-92.5 -173t-93 -174t-30.5 -148.5q0 -56 20 -123t62 -114t102 -47q62 -7 62 -37t-62 -37h-24 q-94 0 -165.5 51.5t-108 133t-36.5 175.5z" />
<glyph unicode="p" horiz-adv-x="2048" d="M225 -1090q0 18 17 27l270 172q8 4 14 4q17 0 27 -16l430 -805l1020 1788q16 26 45 26q23 0 38 -15t15 -38q0 -14 -6 -26l-1106 -1942q-19 -27 -43 -27h-28q-17 0 -25 15l-475 891l-137 -88q-5 -4 -17 -4q-14 0 -26.5 11.5t-12.5 26.5z" />
<glyph unicode="q" horiz-adv-x="1892" d="M162 27v34q0 10 8.5 18.5t19.5 8.5q115 0 168 10q21 7 21 52v1099q0 44 -21 51q-53 11 -168 11q-11 0 -19.5 8.5t-8.5 17.5v35q0 11 10 19t21 8h579q11 0 21 -8t10 -19v-35q0 -9 -9.5 -17.5t-19.5 -8.5q-115 0 -168 -11q-20 -7 -20 -51v-1161h719v1161q0 44 -21 51 q-53 11 -168 11q-10 0 -19.5 8.5t-9.5 17.5v35q0 11 10 19t21 8h580q11 0 21 -8t10 -19v-35q0 -9 -9.5 -17.5t-19.5 -8.5q-115 0 -168 -11q-21 -7 -21 -51v-1099q0 -45 21 -52q53 -10 168 -10q10 0 19.5 -8.5t9.5 -18.5v-34q0 -10 -9.5 -18.5t-19.5 -8.5h-1510 q-11 0 -19.5 8.5t-8.5 18.5z" />
<glyph unicode="r" horiz-adv-x="2103" d="M172 1378q0 21 21 21h1718q20 0 20 -21q0 -6 -2 -10l-809 -1401q-17 -30 -53 -30h-31q-36 0 -53 30l-809 1401q-2 4 -2 10zM500 1219l620 -1076l621 1076h-1241z" />
<glyph unicode="s" horiz-adv-x="1108" d="M190 -229q0 44 29 72t72 28q41 0 69.5 -28.5t28.5 -71.5q0 -36 -23 -63.5t-61 -35.5q30 -39 72 -39q72 0 97.5 74t43.5 197q14 92 23.5 168.5t18.5 155.5t16 126.5t24 161.5q2 12 17 99t33.5 183t33 167t33.5 161q18 82 51 158.5t90 128t137 51.5q54 0 97 -30.5t66.5 -79 t23.5 -101.5q0 -27 -13 -50.5t-36 -36.5t-50 -13t-50.5 13t-36.5 36.5t-13 50.5q0 38 24.5 65.5t59.5 33.5q-28 39 -72 39q-39 0 -64.5 -27.5t-40 -71.5t-23 -97.5t-11.5 -74.5q-20 -142 -24.5 -181.5t-15.5 -130t-20 -157.5t-22 -141q-5 -35 -29 -167.5t-30.5 -167 t-26.5 -130.5t-31 -147q-29 -136 -95 -237t-185 -101q-80 0 -133.5 65t-53.5 146z" />
<glyph unicode="t" horiz-adv-x="1706" d="M203 49v1137q3 20 17.5 34.5t35.5 14.5t35.5 -14.5t17.5 -34.5v-1080h1086v1080q3 20 17.5 34.5t35.5 14.5t35.5 -14.5t17.5 -34.5v-1137q-7 -43 -49 -49h-1200q-42 6 -49 49z" />
<glyph unicode="u" horiz-adv-x="1706" d="M203 49v1137q7 43 49 49h1200q42 -6 49 -49v-1137q-3 -20 -17.5 -34.5t-35.5 -14.5t-35.5 14.5t-17.5 34.5v1079h-1086v-1079q-3 -20 -17.5 -34.5t-35.5 -14.5t-35.5 14.5t-17.5 34.5z" />
<glyph unicode="v" d="M256 -365q0 21 14 36t35 18h1413q22 -3 35.5 -17.5t13.5 -36.5q0 -20 -14 -35t-35 -18h-1413q-20 3 -34.5 18.5t-14.5 34.5zM276 100v1289q8 43 50 49h1392q22 -3 35.5 -17.5t13.5 -36.5q0 -20 -14 -35t-35 -18h-1335v-1173h1335q22 -3 35.5 -17.5t13.5 -36.5 q0 -20 -14 -35t-35 -18h-1392q-42 6 -50 49z" />
<glyph unicode="w" d="M203 104q0 20 13.5 35.5t35.5 18.5h1335v1173h-1335q-21 3 -35 18.5t-14 34.5q0 20 13.5 35.5t35.5 18.5h1393q42 -7 49 -49v-1289q-7 -42 -49 -49h-1393q-21 3 -35 18.5t-14 34.5zM203 -365q0 20 13.5 35.5t35.5 18.5h1413q22 -3 35.5 -17.5t13.5 -36.5q0 -20 -14 -35 t-35 -18h-1413q-21 3 -35 18.5t-14 34.5z" />
<glyph unicode="x" horiz-adv-x="1176" d="M223 524q0 69 30.5 129.5t84.5 105.5t117 66q-232 115 -232 293q0 74 30 133.5t82 102t118 65.5t135 23q81 0 156.5 -30t124.5 -89t49 -141q0 -24 -12 -44t-31.5 -31t-43.5 -11q-37 0 -62.5 24.5t-25.5 61.5q0 66 66 84q-29 49 -93 75.5t-128 26.5q-47 0 -87 -21.5 t-67.5 -56t-43 -79t-15.5 -91.5q0 -63 31 -118.5t82.5 -96t109.5 -61.5q352 -126 352 -344q0 -103 -65.5 -185t-165.5 -116q231 -115 231 -293q0 -94 -51.5 -168.5t-135 -115t-175.5 -40.5q-83 0 -158.5 30t-124.5 89.5t-49 140.5q0 37 25.5 61.5t62.5 24.5q36 0 61 -25 t25 -61q0 -31 -16.5 -53t-48.5 -31q32 -50 95 -76t126 -26q64 0 112 36.5t74.5 94t26.5 117.5q0 63 -30.5 118t-82 96t-111.5 62q-149 54 -250.5 135t-101.5 209zM375 524q0 -91 61 -163.5t156 -108.5q59 0 107.5 37t74 95.5t25.5 115.5q0 92 -63 165t-154 107 q-59 0 -107.5 -37t-74 -95.5t-25.5 -115.5z" />
<glyph unicode="y" horiz-adv-x="1176" d="M190 883q0 35 26.5 60.5t62.5 25.5q30 0 62.5 -5.5t62 -13.5t74 -18.5t75.5 -13.5q0 49 -6.5 95t-22 135.5t-20 121.5t-4.5 86q0 35 26.5 60.5t61.5 25.5q34 0 60 -26t26 -60q0 -54 -6.5 -102.5t-16.5 -103.5t-20 -119t-10 -113q33 3 74 13t75 18.5t65.5 14t61.5 5.5 q34 0 60 -26t26 -60q0 -35 -25.5 -61.5t-60.5 -26.5q-38 0 -75.5 7.5t-100 23.5t-100.5 20q0 -35 9.5 -83t20 -94t17 -85t6.5 -82v-2q0 -458 -45 -916q-5 -18 -25 -24h-33q-21 5 -26 24q-45 443 -45 918q0 43 4.5 69.5t20 97t22 106.5t6.5 71q-38 -4 -102.5 -20.5 t-99.5 -23.5t-72 -7t-63 26t-26 62z" />
<glyph unicode="z" horiz-adv-x="1176" d="M190 47q0 35 26.5 60.5t62.5 25.5q54 0 147.5 -24t126.5 -27q0 36 -6 69.5t-21.5 103.5t-20.5 99t-5 70q0 35 26.5 60.5t61.5 25.5q34 0 60 -26t26 -60q0 -41 -7 -81.5t-17 -85t-19.5 -92t-9.5 -83.5q33 3 127 27t149 24q34 0 60 -26t26 -60q0 -35 -25.5 -61.5 t-60.5 -26.5q-38 0 -75.5 7.5t-100 23.5t-100.5 20q0 -34 9.5 -82t20 -94t17 -85t6.5 -81q0 -34 -26 -60t-60 -26q-35 0 -61.5 25.5t-26.5 60.5q0 42 4.5 68.5t20 97t22 106.5t6.5 70q-38 -4 -102.5 -20.5t-99.5 -23.5t-72 -7t-63 26t-26 62zM190 977q0 38 26 63t63 25 t64.5 -5.5t99.5 -24.5t110 -23q0 35 -6 69.5t-21.5 104.5t-20.5 99t-5 71q0 35 26.5 60.5t61.5 25.5q34 0 60 -26t26 -60q0 -42 -7 -82.5t-17 -85t-19.5 -93t-9.5 -83.5q38 4 107 22t100 24.5t69 6.5q35 0 60.5 -25.5t25.5 -62.5q0 -36 -25 -61t-61 -25q-38 0 -75.5 7.5 t-100 23.5t-100.5 20q0 -35 9.5 -83t19.5 -91t17 -84.5t7 -83.5q0 -35 -25.5 -61.5t-60.5 -26.5q-36 0 -62 26t-26 62q0 42 5.5 73.5t20 96.5t21 101t6.5 71q-38 -4 -102.5 -20.5t-99.5 -23.5t-72 -7q-38 0 -63.5 24.5t-25.5 61.5z" />
<glyph unicode="{" horiz-adv-x="1573" d="M190 940q0 146 87.5 256t224.5 167.5t280 57.5h619q20 -3 34.5 -17.5t14.5 -35.5t-14.5 -35.5t-34.5 -17.5h-150v-1663q-3 -21 -18 -35t-35 -14t-35 14t-18 35v1663h-168v-1663q-3 -22 -18.5 -35.5t-34.5 -13.5q-20 0 -35.5 13.5t-18.5 35.5v807q-112 0 -231 29.5 t-220 88t-165 150.5t-64 213z" />
<glyph unicode="|" d="M123 356q0 72 20 140.5t61 127.5t102 94.5t136 35.5q64 0 121 -28t92 -79l74 123q-77 54 -122.5 139.5t-45.5 177.5q0 111 59 202.5t157.5 143.5t207.5 52t207.5 -52t157.5 -143.5t59 -202.5q0 -95 -45.5 -179t-122.5 -138l74 -123q37 52 92.5 79.5t120.5 27.5 q100 0 172 -58.5t109.5 -150.5t37.5 -189q0 -77 -28 -150t-78 -129t-118.5 -88t-147.5 -32q-103 0 -185 45.5t-82 140.5h-170q0 -160 64 -342q2 -4 2 -14q0 -21 -14.5 -35.5t-34.5 -17.5h-140q-20 3 -34.5 17.5t-14.5 35.5q0 8 4 20q62 173 62 336h-170q0 -96 -81.5 -141 t-184.5 -45q-78 0 -146.5 31.5t-119.5 88t-79 129.5t-28 150z" />
<glyph unicode="}" d="M190 578q0 14 8.5 26t25.5 26.5t50.5 41t55.5 43.5q82 72 145 135q66 66 126.5 135t116.5 141.5t116 163.5q34 55 57.5 93t54.5 85q19 17 39 17q18 0 41 -17q15 -22 51 -82.5t60 -97.5q165 -246 360 -438q57 -60 143 -135q35 -26 80 -61.5t54 -49.5q6 -12 6 -26 q0 -15 -6 -27q-9 -11 -29.5 -28.5t-51.5 -41.5t-53 -41q-86 -75 -143 -135q-100 -99 -190 -208.5t-170 -231.5q-31 -47 -54 -84.5t-57 -93.5q-23 -17 -41 -17q-20 0 -39 17q-32 48 -65 104t-47 76q-166 245 -359 438q-63 63 -145 135q-22 17 -55.5 43.5t-50.5 41t-25.5 26.5 t-8.5 27zM330 578q381 -306 655 -750q274 444 655 750q-380 304 -655 749q-275 -445 -655 -749z" />
<glyph unicode="~" d="M190 993q0 95 24.5 180.5t73.5 150.5t125.5 102.5t174.5 37.5q122 0 229 -57.5t168 -159.5q40 68 102.5 117t140 74.5t154.5 25.5q99 0 175.5 -37.5t125 -102.5t73 -150.5t24.5 -180.5q0 -91 -31 -176t-82.5 -158.5t-119 -143t-142.5 -134.5q-70 -56 -121 -96t-96 -84 q-48 -52 -86 -105q-17 -26 -42.5 -78t-33.5 -65q-24 -16 -41 -16q-19 0 -39 16q-13 21 -36.5 69.5t-41.5 73.5q-38 53 -86 105q-39 39 -93 81.5t-124 98.5q-75 65 -140 132t-118.5 143.5t-85 161t-31.5 175.5zM297 995q0 -82 30.5 -156.5t80 -140.5t114.5 -133 q42 -40 125 -109t136.5 -114.5t106 -102t95.5 -130.5q44 74 94 128t104 99.5t133.5 111t131.5 117.5q104 105 164.5 208.5t60.5 221.5q0 97 -30 180.5t-95 133t-166 49.5q-78 0 -152.5 -33t-125.5 -93t-66 -140q-3 -22 -17.5 -37t-35.5 -15t-35.5 15t-17.5 37 q-15 80 -65 139.5t-125 93t-154 33.5q-147 0 -219 -104.5t-72 -258.5z" />
<glyph unicode="&#xa1;" d="M256 512q0 21 14.5 35.5t34.5 17.5h1360q21 -3 35 -17t14 -36t-14 -36t-35 -17h-1360q-20 3 -34.5 17.5t-14.5 35.5z" />
<glyph unicode="&#xa2;" horiz-adv-x="776" d="M262 512q0 35 17 64t46 46t64 17t64 -17t46 -46t17 -64t-17 -64t-46 -46t-64 -17t-64 17t-46 46t-17 64z" />
<glyph unicode="&#xa3;" d="M408 -14q0 14 14 37l487 489l-487 492q-14 17 -14 34q0 22 15 38t38 16q13 0 41 -17l483 -487l485 487q23 17 39 17q22 0 38 -16t16 -38q0 -12 -13 -34l-489 -492l489 -489q13 -28 13 -37q0 -22 -16 -38t-38 -16q-16 0 -39 17l-485 487l-483 -487q-28 -17 -41 -17 q-23 0 -38 16t-15 38z" />
<glyph unicode="&#xa4;" horiz-adv-x="1307" d="M213 326q0 18 11 34.5t30 24.5l311 127l-311 125q-19 8 -30 24.5t-11 34.5q0 30 22 53t50 23q15 0 32 -10l297 -187l-30 308l-2 6q0 26 21.5 44.5t49.5 18.5q29 0 50.5 -18t21.5 -45v-6l-33 -308l297 187q17 10 33 10q30 0 51 -23t21 -53q0 -43 -39 -59l-314 -125 l314 -127q39 -16 39 -59q0 -29 -21 -52.5t-51 -23.5q-16 0 -33 10l-297 189l33 -308v-8q0 -27 -22 -45t-50 -18q-26 0 -48.5 18.5t-22.5 44.5l2 8l30 308l-297 -189q-17 -10 -32 -10q-28 0 -50 23.5t-22 52.5z" />
<glyph unicode="&#xa5;" d="M190 512q0 21 14.5 35.5t35.5 17.5h1491q20 -3 34.5 -17.5t14.5 -35.5t-14.5 -35.5t-34.5 -17.5h-1491q-21 3 -35.5 17.5t-14.5 35.5zM834 0q0 39 20 74.5t56 56.5t75 21t74.5 -21t56.5 -56.5t21 -74.5t-21 -74.5t-56.5 -56.5t-74.5 -21t-75 21t-56 56.5t-20 74.5z M834 1024q0 39 20 74.5t56 56.5t75 21t74.5 -21t56.5 -56.5t21 -74.5t-21 -74.5t-56.5 -56.5t-74.5 -21t-75 21t-56 56.5t-20 74.5z" />
<glyph unicode="&#xa6;" horiz-adv-x="1307" d="M84 512q0 16 14 37l516 516q22 16 39 16t41 -16l516 -516q13 -22 13 -37q0 -16 -13 -35l-516 -518q-24 -16 -41 -16t-39 16l-516 518q-14 17 -14 35zM213 512l440 -440l441 440l-441 440z" />
<glyph unicode="&#xa7;" d="M190 -33q0 21 14.5 35.5t35.5 17.5h692v637h-692q-50 9 -50 54q0 20 14 35t36 18h692v694q3 21 17 35t36 14t36 -14t17 -35v-694h693q21 -3 35 -18t14 -35q0 -21 -14 -35t-35 -19h-693v-637h693q20 -3 34.5 -17.5t14.5 -35.5q0 -19 -14.5 -34.5t-34.5 -18.5h-1491 q-21 3 -35.5 18.5t-14.5 34.5z" />
<glyph unicode="&#xa8;" d="M190 313q0 45 50 54h692v637h-692q-21 3 -35.5 17.5t-14.5 35.5q0 20 14 35t36 18h1491q21 -3 35 -18t14 -35q0 -21 -14.5 -35.5t-34.5 -17.5h-693v-637h693q19 -3 34 -18t15 -36q0 -19 -14.5 -34.5t-34.5 -18.5h-693v-694q-3 -21 -18 -35t-35 -14t-35 14t-18 35v694 h-692q-21 3 -35.5 18.5t-14.5 34.5z" />
<glyph unicode="&#xa9;" d="M190 512q0 159 62.5 306.5t172.5 257.5t254 171.5t306 61.5q163 0 308.5 -63t254.5 -172.5t170.5 -254.5t61.5 -307t-61.5 -306t-171.5 -255t-256.5 -173.5t-305.5 -62.5t-306 62.5t-256 172.5t-171 255t-62 307zM276 471q0 -122 56 -242.5t154 -218.5t216 -153.5 t242 -55.5v670h-668zM276 555h668v668q-122 0 -242.5 -55.5t-216.5 -151.5t-152.5 -217t-56.5 -244zM1028 -199q124 0 244.5 57t215.5 153t150.5 215.5t55.5 244.5h-666v-670zM1028 555h666q0 121 -55.5 242.5t-151 217t-216.5 152t-243 56.5v-668z" />
<glyph unicode="&#xaa;" d="M190 512q0 162 62 308t172 256t254 171.5t307 61.5t307 -61.5t254.5 -172t172 -255.5t61.5 -308q0 -162 -61.5 -306t-171.5 -255t-256.5 -173.5t-305.5 -62.5t-305 62t-256 173t-172 256t-62 306zM276 471q0 -82 28 -166.5t74.5 -161.5t106.5 -137q100 -98 231 -152.5 t269 -54.5t270.5 54.5t233.5 154.5q88 90 146.5 217.5t58.5 245.5h-1418zM276 555h1418q0 81 -28 165.5t-74 160.5t-107 137q-64 64 -145 111t-171 71.5t-184 24.5q-142 0 -273 -55t-231 -154q-52 -53 -100.5 -133t-76.5 -165t-28 -163z" />
<glyph unicode="&#xad;" d="M190 512q0 161 62 307t170.5 255t254 172t308.5 63t308.5 -63t254.5 -172.5t170.5 -254.5t61.5 -307t-61.5 -306t-171.5 -255t-256.5 -173.5t-305.5 -62.5t-305 62t-256 173t-172 256t-62 306zM274 512q0 -128 46.5 -250t134.5 -223l471 473l-471 473 q-87 -98 -134 -221.5t-47 -251.5zM514 -20q66 -58 141.5 -98t159 -61.5t170.5 -21.5q127 0 251 47t220 134l-471 473zM514 1044l471 -473l471 473q-49 44 -103 77.5t-113 56t-124.5 35t-130.5 12.5q-86 0 -170 -21.5t-159.5 -61.5t-141.5 -98zM1044 512l472 -473 q87 99 133.5 220t46.5 253t-47 254.5t-133 218.5z" />
<glyph unicode="&#xae;" d="M190 512q0 161 62 307t170.5 255t254 172t308.5 63t308.5 -63t254.5 -172.5t170.5 -254.5t61.5 -307t-61.5 -306t-171.5 -255t-256.5 -173.5t-305.5 -62.5t-305 62t-256 173t-172 256t-62 306zM274 512q0 -128 46.5 -250t134.5 -223l1001 1005q-49 44 -103 77.5t-113 56 t-124.5 35t-130.5 12.5q-144 0 -272.5 -54.5t-228.5 -154.5t-155 -229.5t-55 -274.5zM514 -20q66 -58 141.5 -98t159 -61.5t170.5 -21.5q145 0 274 55.5t228 154.5t154 229t55 274q0 132 -47 254.5t-133 218.5z" />
<glyph unicode="&#xaf;" d="M190 512q0 161 62 307t170.5 255t254 172t308.5 63t308.5 -63t254.5 -172.5t170.5 -254.5t61.5 -307t-61.5 -306t-171.5 -255t-256.5 -173.5t-305.5 -62.5t-305 62t-256 173t-172 256t-62 306zM274 512q0 -144 54.5 -273t155.5 -230t228.5 -155.5t272.5 -54.5t274 55.5 t228 154.5t154 229t55 274q0 145 -55.5 275.5t-153.5 229t-228 153.5t-274 55t-272.5 -54.5t-228.5 -154.5t-155 -229.5t-55 -274.5zM819 512q0 68 50 117t116 49q45 0 83 -22.5t60.5 -60.5t22.5 -83q0 -66 -49 -116t-117 -50q-66 0 -116 50t-50 116z" />
<glyph unicode="&#xb0;" horiz-adv-x="2503" d="M190 512q0 206 88.5 383.5t237.5 303.5t341.5 195.5t393.5 69.5q202 0 393 -69t341 -195.5t237.5 -302t87.5 -385.5q0 -208 -87.5 -383.5t-239 -303.5t-341 -196.5t-391.5 -68.5q-201 0 -392 69t-341.5 196t-239 304.5t-88.5 382.5zM297 512q0 -243 136 -437.5 t356.5 -301.5t461.5 -107q240 0 460.5 107t356.5 301.5t136 437.5q0 185 -79.5 342.5t-215 269.5t-308 173t-350.5 61t-349.5 -60.5t-309 -174t-216.5 -270t-79 -341.5z" />
<glyph unicode="&#xb1;" horiz-adv-x="1307" d="M190 512q0 124 62 231.5t168 170.5t233 63t233 -63t168 -170.5t62 -231.5t-62 -231.5t-168 -170.5t-233 -63t-233 63t-168 170.5t-62 231.5zM297 512q0 -71 28 -136.5t79 -116.5t113.5 -78t135.5 -27q74 0 138 28t114 78t77.5 115.5t27.5 136.5q0 73 -28 138.5t-76.5 114 t-113.5 77t-139 28.5q-73 0 -137 -28t-113 -77t-77.5 -114.5t-28.5 -138.5z" />
<glyph unicode="&#xb2;" horiz-adv-x="1307" d="M190 512q0 124 62 231.5t168 170.5t233 63t233 -63t168 -170.5t62 -231.5t-62 -231.5t-168 -170.5t-233 -63t-233 63t-168 170.5t-62 231.5z" />
<glyph unicode="&#xb3;" d="M190 -8q0 14 9 26q24 35 137.5 111t185.5 113q108 53 225 83.5t234 30.5h6q119 0 237 -30.5t224 -83.5q69 -34 185.5 -111.5t140.5 -112.5q6 -12 6 -26q0 -23 -16 -38t-38 -15q-19 0 -32 10q-357 301 -709 301t-709 -301q-13 -10 -32 -10q-22 0 -38 15t-16 38zM190 1032 q0 23 16 38t38 15q19 0 32 -10q357 -301 709 -301t709 301q13 10 32 10q22 0 38 -15t16 -38q0 -14 -6 -26q-24 -35 -138.5 -110t-187.5 -114q-113 -55 -227.5 -84.5t-233.5 -29.5h-6q-117 0 -231 29.5t-228 84.5q-50 27 -118.5 69.5t-128.5 86t-76 68.5q-9 12 -9 26z" />
<glyph unicode="&#xb4;" d="M190 43q0 21 14.5 35.5t35.5 17.5h1491q20 -3 34.5 -17.5t14.5 -35.5t-14.5 -35.5t-34.5 -17.5h-1491q-21 3 -35.5 17.5t-14.5 35.5zM190 512q0 21 14.5 35.5t35.5 17.5h1491q20 -3 34.5 -17.5t14.5 -35.5t-14.5 -35.5t-34.5 -17.5h-1491q-21 3 -35.5 17.5t-14.5 35.5z M190 981q0 21 14.5 35.5t35.5 17.5h1491q20 -3 34.5 -17.5t14.5 -35.5t-14.5 -35.5t-34.5 -17.5h-1491q-21 3 -35.5 17.5t-14.5 35.5z" />
<glyph unicode="&#xb5;" d="M256 745q0 192 100 351t267.5 250.5t357.5 91.5h684q22 -3 35.5 -17.5t13.5 -36.5q0 -20 -14 -35t-35 -18h-676q-125 0 -237.5 -43.5t-200 -122t-138.5 -188t-51 -232.5q0 -124 51 -233.5t138 -187.5t201 -122t237 -44h676q22 -3 35.5 -17.5t13.5 -36.5q0 -20 -14 -35 t-35 -18h-684q-190 0 -357.5 91.5t-267.5 250t-100 352.5zM309 -365q0 21 14 36t35 18h1307q22 -3 35.5 -17.5t13.5 -36.5q0 -20 -14 -35t-35 -18h-1307q-20 3 -34.5 18.5t-14.5 34.5z" />
<glyph unicode="&#xb6;" d="M256 104q0 21 14 36t35 18h676q123 0 237.5 43.5t202 123t137.5 187t50 233.5q0 125 -50 232.5t-138 187t-201 123t-238 43.5h-676q-20 3 -34.5 18.5t-14.5 34.5q0 21 14 36t35 18h684q142 0 274.5 -52.5t233.5 -147t159 -221.5t58 -272t-58.5 -273t-159 -222 t-233 -146.5t-274.5 -52.5h-684q-20 3 -34.5 18.5t-14.5 34.5zM256 -365q0 21 14 36t35 18h1307q21 -3 35 -18t14 -36q0 -19 -14.5 -34.5t-34.5 -18.5h-1307q-20 3 -34.5 18.5t-14.5 34.5z" />
<glyph unicode="&#xb8;" d="M256 104q0 31 33 50l1247 591l-1253 594q-27 11 -27 45q0 22 16 38t37 16q9 0 21 -4l1358 -643q26 -15 26 -46q0 -33 -33 -49l-1351 -641q-12 -4 -21 -4q-21 0 -37 16t-16 37zM256 -365q0 21 14 36t35 18h1360q22 -3 35.5 -17.5t13.5 -36.5q0 -20 -14 -35t-35 -18h-1360 q-20 3 -34.5 18.5t-14.5 34.5z" />
<glyph unicode="&#xb9;" d="M256 -365q0 21 14 36t35 18h1360q22 -3 35.5 -17.5t13.5 -36.5q0 -20 -14 -35t-35 -18h-1360q-20 3 -34.5 18.5t-14.5 34.5zM256 743q0 21 14 36t35 18q496 0 880 112.5t423 479.5q3 20 17.5 34.5t35.5 14.5q24 0 38.5 -17t14.5 -41q-28 -274 -233 -425t-510 -212 q306 -59 511 -209t232 -425q0 -24 -14.5 -41t-38.5 -17q-21 0 -35.5 14.5t-17.5 34.5q-26 256 -243.5 387.5t-486.5 167t-573 35.5q-20 3 -34.5 18.5t-14.5 34.5z" />
<glyph unicode="&#xba;" d="M256 109q29 276 234 425.5t509 208.5q-304 60 -509 211t-234 426q0 24 14.5 41t38.5 17q21 0 35.5 -14.5t17.5 -34.5q39 -367 423 -479.5t880 -112.5q22 -3 35.5 -17.5t13.5 -36.5q0 -20 -14 -35t-35 -18q-304 0 -573 -35.5t-486 -167t-244 -387.5q-3 -20 -17.5 -34.5 t-35.5 -14.5q-24 0 -38.5 17t-14.5 41zM256 -365q0 21 14 36t35 18h1360q22 -3 35.5 -17.5t13.5 -36.5q0 -20 -14 -35t-35 -18h-1360q-20 3 -34.5 18.5t-14.5 34.5z" />
<glyph unicode="&#xbb;" d="M190 289v24q0 117 48.5 229.5t139.5 184.5t210 72q113 0 202 -55t204 -159t200 -157t188 -53q94 0 168 51t115 134.5t41 176.5q7 62 37 62t37 -62v-24q0 -118 -48.5 -231t-139.5 -185t-210 -72q-109 0 -198 54t-207 160t-200.5 158t-188.5 52q-94 0 -168 -51t-115 -134 t-41 -175q-6 -64 -37 -64q-28 0 -37 64z" />
<glyph unicode="&#xbc;" d="M190 113v24q0 78 31.5 149t87.5 123t129 80.5t150 28.5q102 0 190.5 -40.5t213.5 -121t208 -119t182 -38.5q76 0 150.5 31t124 90.5t49.5 136.5q7 61 37 61t37 -61v-25q0 -107 -54 -195t-146.5 -138t-197.5 -50q-100 0 -187.5 40t-213 121t-210 120t-183.5 39 q-54 0 -111.5 -18t-105.5 -50.5t-77.5 -80.5t-29.5 -107q-6 -64 -37 -64q-28 0 -37 64zM190 674v24q0 78 31.5 149t87.5 123t129 80.5t150 28.5q102 0 190.5 -40.5t213.5 -121t208 -119t182 -38.5q76 0 150.5 31t124 90.5t49.5 136.5q7 61 37 61t37 -61v-25q0 -107 -54 -195 t-146.5 -138t-197.5 -50q-100 0 -187.5 40t-213 121t-210 120t-183.5 39q-76 0 -150.5 -31t-124 -90t-49.5 -135q-6 -64 -37 -64q-28 0 -37 64z" />
<glyph unicode="&#xbd;" d="M256 512q0 143 58 270t160.5 223.5t234 148.5t272.5 52h684q21 -3 35 -17t14 -36t-14 -36t-35 -17h-676q-122 0 -234.5 -43t-202 -123.5t-140 -189.5t-50.5 -232t50.5 -231.5t139.5 -188.5t204 -124t233 -44h676q21 -3 35 -17t14 -36t-14 -36t-35 -17h-684 q-142 0 -272.5 52.5t-234 149.5t-161 223.5t-57.5 268.5z" />
<glyph unicode="&#xbe;" d="M256 -129q0 21 14.5 35.5t34.5 17.5h676q120 0 234.5 44t203 124t139 188.5t50.5 231.5t-50.5 232t-139.5 189.5t-201 123.5t-236 43h-676q-20 3 -34.5 17.5t-14.5 35.5t14.5 35.5t34.5 17.5h684q141 0 273.5 -53.5t234 -147.5t159.5 -221.5t58 -271.5t-58 -271.5 t-159.5 -221.5t-234 -147.5t-273.5 -53.5h-684q-20 3 -34.5 17.5t-14.5 35.5z" />
<glyph unicode="&#xbf;" horiz-adv-x="2503" d="M190 512q0 30 27 47l1286 705q12 6 27 6q23 0 38 -16t15 -37q0 -32 -27 -46l-1202 -659l1202 -659q27 -14 27 -46q0 -21 -15 -37t-38 -16q-15 0 -27 6l-1286 707q-27 13 -27 45zM918 512q0 31 26 47l1286 705q12 6 27 6q23 0 38 -16t15 -37q0 -31 -26 -46l-1203 -659 l1203 -659q26 -15 26 -46q0 -21 -15 -37t-38 -16q-15 0 -27 6l-1286 707q-26 13 -26 45z" />
<glyph unicode="&#xc0;" horiz-adv-x="2503" d="M190 -193q0 31 27 46l1202 659l-1202 659q-27 15 -27 46q0 21 16 37t38 16q14 0 26 -6l1286 -705q27 -16 27 -47q0 -32 -27 -45l-1286 -707q-12 -6 -26 -6q-22 0 -38 16t-16 37zM918 -193q0 31 26 46l1202 659l-1202 659q-26 15 -26 46q0 21 15 37t38 16q14 0 26 -6 l1287 -705q26 -16 26 -47q0 -32 -26 -45l-1287 -707q-12 -6 -26 -6q-23 0 -38 16t-15 37z" />
<glyph unicode="&#xc1;" d="M256 510q0 21 14.5 35.5t34.5 17.5q497 0 880.5 113t422.5 479q3 21 17 35t36 14q25 0 39 -16.5t14 -40.5q-28 -274 -233 -425t-510 -212q692 -138 743 -635q0 -24 -14.5 -40.5t-38.5 -16.5q-20 0 -35 14t-18 35q-26 257 -243.5 387.5t-486.5 166.5t-573 36 q-20 3 -34.5 17.5t-14.5 35.5z" />
<glyph unicode="&#xc2;" d="M256 -125q51 497 743 635q-304 60 -509 211t-234 426q0 24 14 40.5t39 16.5q0 -280 27 -393t143.5 -168t354.5 -67.5t831 -12.5q21 -3 35 -17t14 -36t-14 -36t-35 -17q-304 0 -573 -36t-485.5 -166.5t-244.5 -387.5q-3 -21 -18 -35t-35 -14q-24 0 -38.5 16.5t-14.5 40.5z " />
<glyph unicode="&#xc3;" horiz-adv-x="2503" d="M190 512q0 23 23 31q120 26 221.5 94.5t171 171.5t92.5 219q9 27 29 27h49q13 0 21 -10t8 -25q-27 -134 -103.5 -253t-191.5 -202h1749q22 0 36.5 -14.5t14.5 -38.5q0 -23 -14.5 -38t-36.5 -15h-1749q113 -81 190.5 -200t104.5 -255q0 -14 -8 -24.5t-21 -10.5h-49 q-20 0 -29 27q-18 90 -62 171t-106 142.5t-145 108t-172 65.5q-10 2 -16.5 11t-6.5 18z" />
<glyph unicode="&#xc4;" d="M190 426q0 129 63.5 238t151.5 189t226 183q113 87 196 215q41 59 74 127q11 23 21 46t24 44q19 17 39 17q18 0 41 -17q7 -12 43 -92q43 -80 74 -125q81 -125 196 -215q138 -103 226 -183t151.5 -189t63.5 -238q0 -110 -24 -215t-88 -179.5t-173 -74.5q-112 0 -199.5 43 t-87.5 143h-170q0 -160 64 -342q2 -4 2 -14q0 -21 -14.5 -35.5t-34.5 -17.5h-140q-20 3 -34.5 17.5t-14.5 35.5q0 8 4 20q62 173 62 336h-170q0 -100 -87 -143t-198 -43q-158 0 -222.5 145t-64.5 324z" />
<glyph unicode="&#x2000;" horiz-adv-x="809" />
<glyph unicode="&#x2001;" horiz-adv-x="1618" />
<glyph unicode="&#x2002;" horiz-adv-x="809" />
<glyph unicode="&#x2003;" horiz-adv-x="1618" />
<glyph unicode="&#x2004;" horiz-adv-x="539" />
<glyph unicode="&#x2005;" horiz-adv-x="404" />
<glyph unicode="&#x2006;" horiz-adv-x="269" />
<glyph unicode="&#x2007;" horiz-adv-x="269" />
<glyph unicode="&#x2008;" horiz-adv-x="202" />
<glyph unicode="&#x2009;" horiz-adv-x="323" />
<glyph unicode="&#x200a;" horiz-adv-x="89" />
<glyph unicode="&#x2010;" horiz-adv-x="2503" d="M190 1391q0 12 9 21t22 9q8 0 12 -2q151 -78 302 -78q214 0 387 134q9 6 18 6q17 0 41.5 -20.5t24.5 -39.5q0 -11 -13 -24q-94 -74 -214.5 -115t-241.5 -41q-15 1 -27.5 1.5t-32.5 0.5l1813 -1546q20 -17 20 -41q0 -23 -15 -38t-38 -15q-21 0 -31 10l-1820 1550 q22 -93 22 -182q0 -180 -90 -354q-8 -15 -27 -15q-17 0 -41 21t-24 39q0 6 2 10q80 157 80 307q0 68 -15 135t-44 130t-72 118q-7 10 -7 19z" />
<glyph unicode="&#x2011;" horiz-adv-x="2503" d="M190 1391q0 12 9 21t22 9q8 0 12 -2q151 -78 302 -78q214 0 387 134q9 6 18 6q17 0 41.5 -20.5t24.5 -39.5q0 -11 -13 -24q-94 -74 -214.5 -115t-241.5 -41q-15 1 -27.5 1.5t-32.5 0.5l1813 -1546q20 -17 20 -41q0 -23 -15 -38t-38 -15q-21 0 -31 10l-1820 1550 q22 -93 22 -182q0 -180 -90 -354q-8 -15 -27 -15q-17 0 -41 21t-24 39q0 6 2 10q80 157 80 307q0 68 -15 135t-44 130t-72 118q-7 10 -7 19z" />
<glyph unicode="&#x2012;" horiz-adv-x="2503" d="M190 1391q0 12 9 21t22 9q8 0 12 -2q151 -78 302 -78q214 0 387 134q9 6 18 6q17 0 41.5 -20.5t24.5 -39.5q0 -11 -13 -24q-94 -74 -214.5 -115t-241.5 -41q-15 1 -27.5 1.5t-32.5 0.5l1813 -1546q20 -17 20 -41q0 -23 -15 -38t-38 -15q-21 0 -31 10l-1820 1550 q22 -93 22 -182q0 -180 -90 -354q-8 -15 -27 -15q-17 0 -41 21t-24 39q0 6 2 10q80 157 80 307q0 68 -15 135t-44 130t-72 118q-7 10 -7 19z" />
<glyph unicode="&#x2013;" horiz-adv-x="1407" d="M190 1391q0 12 4.5 21t10.5 9q4 0 6 -2q73 -78 146 -78q103 0 187 134q4 6 8 6q8 0 20 -20.5t12 -39.5q0 -11 -6 -24q-46 -74 -104 -115t-116 -41q-8 1 -14 1.5t-15 0.5l875 -1546q10 -17 10 -41q0 -23 -7 -38t-19 -15q-10 0 -15 10l-879 1550q11 -93 11 -182 q0 -180 -44 -354q-3 -15 -13 -15q-8 0 -19.5 21t-11.5 39q0 6 1 10q39 157 39 307q0 68 -7.5 135t-21.5 130t-35 118q-3 10 -3 19z" />
<glyph unicode="&#x2014;" horiz-adv-x="2431" d="M190 1391q0 12 8.5 21t21.5 9q8 0 12 -2q145 -78 291 -78q207 0 374 134q9 6 18 6q16 0 39.5 -20.5t23.5 -39.5q0 -11 -12 -24q-91 -74 -207.5 -115t-233.5 -41q-14 1 -26 1.5t-32 0.5l1752 -1546q19 -17 19 -41q0 -23 -14.5 -38t-36.5 -15q-20 0 -30 10l-1758 1550 q21 -93 21 -182q0 -180 -87 -354q-8 -15 -26 -15q-17 0 -40 21t-23 39q0 6 2 10q77 157 77 307q0 68 -14.5 135t-42.5 130t-69 118q-7 10 -7 19z" />
<glyph unicode="&#x202f;" horiz-adv-x="323" />
<glyph unicode="&#x205f;" horiz-adv-x="404" />
<glyph unicode="&#x2219;" d="M256 -365q0 21 14 36t35 18h1360q22 -3 35.5 -17.5t13.5 -36.5q0 -20 -14 -35t-35 -18h-1360q-20 3 -34.5 18.5t-14.5 34.5zM256 745q0 31 33 50l1351 639q14 4 21 4q23 0 38 -16t15 -38q0 -30 -33 -49l-1247 -590l1254 -593q26 -15 26 -48q0 -21 -15 -37t-38 -16 q-7 0 -21 4l-1357 643q-27 14 -27 47z" />
<glyph unicode="&#xe000;" horiz-adv-x="1440" d="M0 1440h1440v-1440h-1440v1440z" />
</font>
</defs>
</svg>
