<?xml version="1.0" standalone="no"?>
<!DOCTYPE svg PUBLIC "-//W3C//DTD SVG 1.1//EN" "http://www.w3.org/Graphics/SVG/1.1/DTD/svg11.dtd" >
<svg xmlns="http://www.w3.org/2000/svg">
<metadata>
This is a custom SVG webfont generated by Font Squirrel.
Copyright   : Copyright C 1994 Basil K Malyshev All Rights Reserved012BaKoMa Fonts Collection LevelB
</metadata>
<defs>
<font id="cmtex10Regular" horiz-adv-x="1075" >
<font-face units-per-em="2048" ascent="1638" descent="-410" />
<missing-glyph horiz-adv-x="500" />
<glyph unicode=" " />
<glyph unicode="!" d="M430 106q0 45 31 76t76 31q44 0 75 -31t31 -76q0 -44 -31 -75t-75 -31q-45 0 -76 31t-31 75zM430 1163q0 46 30.5 78.5t76.5 32.5t76 -32t30 -77l-20 -729q-11 -49 -56 -55h-59q-49 6 -55 55z" />
<glyph unicode="&#x22;" d="M260 1174v10q0 38 29 64t67 26q42 0 68.5 -29t26.5 -69l-29 -447q-6 -51 -57 -57h-19q-51 6 -57 57zM623 1174v10q0 38 29 64t67 26q27 0 48.5 -13t33.5 -35.5t12 -49.5l-29 -447q-6 -51 -57 -57h-18q-52 6 -58 57z" />
<glyph unicode="#" d="M72 406q0 28 19 48t48 23h129l37 299h-166q-29 3 -48 24t-19 48t20 48t47 24h187l32 264q3 29 23 48t49 19q33 0 52.5 -22t19.5 -53l-31 -256h211l33 264q3 29 22 48t49 19q33 0 52.5 -22t19.5 -53l-31 -256h107q27 -3 47 -23t20 -49t-19 -49t-48 -23h-127l-37 -299h164 q29 -3 48 -22t19 -49q0 -29 -19 -49t-48 -23h-184l-35 -275q-6 -27 -25.5 -43t-46.5 -16q-31 0 -51.5 22.5t-20.5 53.5l33 258h-211l-35 -275q-6 -26 -25.5 -42.5t-45.5 -16.5q-31 0 -51.5 22.5t-20.5 53.5l33 258h-109q-29 3 -48 24t-19 48zM414 477h211l37 299h-211z" />
<glyph unicode="$" d="M119 348q0 42 27 71.5t69 29.5q38 0 66 -29t28 -68q0 -43 -33 -71q21 -67 72.5 -106t122.5 -50v463q-152 33 -252 115t-100 221q0 91 50.5 163.5t130.5 116t171 56.5v104q6 51 57 57h19q51 -6 57 -57v-102q55 0 123.5 -26.5t116.5 -64.5q51 -41 80.5 -107.5t29.5 -135.5 q0 -28 -12.5 -50.5t-33.5 -35.5t-48 -13q-39 0 -67.5 27.5t-28.5 67.5q0 44 31 71q-41 109 -191 131v-413q98 -21 177 -67.5t126 -120.5t47 -173q0 -139 -103.5 -239.5t-246.5 -120.5v-105q-6 -51 -57 -57h-19q-24 3 -39 18t-18 39v105q-154 16 -253 110.5t-99 245.5z M258 932q0 -77 62.5 -124t150.5 -67v383q-82 -14 -147.5 -65t-65.5 -127zM604 127q55 11 103.5 40.5t78 76t29.5 100.5q0 83 -62.5 141t-148.5 74v-432z" />
<glyph unicode="%" d="M72 1149q0 59 18 121.5t59 106.5t101 44t101 -44t59 -106.5t18 -121.5q0 -61 -18 -124t-59 -107t-101 -44t-101 44t-59 107t-18 124zM178 -98q0 16 6 28l574 1450q23 41 65 41q30 0 51 -21t21 -50q0 -17 -6 -29l-574 -1450q-23 -41 -65 -41q-28 0 -50 22t-22 50z M195 1149q0 -36 13.5 -85t39.5 -56h6q22 2 36.5 53.5t14.5 87.5q0 40 -13.5 86t-39.5 53h-2h-2q-25 -3 -39 -53.5t-14 -85.5zM645 102q0 98 44.5 185.5t133.5 87.5t133.5 -87.5t44.5 -185.5q0 -97 -45 -184.5t-133 -87.5t-133 87.5t-45 184.5zM768 102q0 -34 13.5 -83 t39.5 -56q19 0 32 26.5t19.5 59.5t6.5 53q0 35 -14.5 84.5t-39.5 55.5q-27 0 -42 -50.5t-15 -89.5z" />
<glyph unicode="&#x26;" d="M57 285q0 142 86 231l121 127q-57 168 -57 338q0 72 24 139t74.5 110.5t122.5 43.5q104 0 148.5 -89t44.5 -204q0 -100 -54.5 -184t-156.5 -193q42 -100 145 -268q25 49 47.5 101t43 102.5t48.5 124.5l31 86q-26 0 -43.5 14.5t-22.5 42.5v18q8 52 58 58h229q50 -6 58 -58 v-18q-8 -51 -58 -57h-90l-45 -125q-46 -124 -87 -221.5t-89 -180.5q47 -53 85 -82.5t85 -29.5q37 0 53 37t16 81q4 24 21.5 41t40.5 17q27 0 44 -19.5t17 -46.5q0 -93 -51 -168.5t-141 -75.5q-123 0 -244 140q-48 -62 -114 -101t-140 -39q-76 0 -133 45t-87 116.5t-30 146.5 zM207 289q0 -59 24 -118.5t76 -59.5q90 0 176 110q-51 76 -92.5 149t-71.5 138l-61 -64q-51 -54 -51 -155zM330 981q0 -120 30 -233q67 74 102.5 127t35.5 108q0 51 -16 104.5t-54 53.5q-48 0 -73 -52t-25 -108z" />
<glyph unicode="'" d="M365 680q0 32 32 53q53 27 91.5 70.5t59.5 98t21 114.5q0 18 -2 26q-4 -1 -13 -2.5t-17 -1.5q-45 0 -76 31t-31 76q0 47 32 76.5t79 29.5q83 0 122 -73.5t39 -163.5q0 -124 -66 -232t-175 -166q-12 -6 -27 -6q-26 0 -47.5 22.5t-21.5 47.5z" />
<glyph unicode="(" d="M350 627q0 156 52.5 306t150.5 273.5t233 204.5q28 10 31 10h23q25 -3 40 -19t15 -40q0 -35 -25 -47q-89 -59 -157 -133t-115.5 -162t-72.5 -187.5t-25 -205.5q0 -105 25 -204t73.5 -189.5t113.5 -162t156 -130.5q27 -17 27 -50q0 -24 -16 -40t-39 -19h-23q-5 0 -15 4 t-16 6q-135 81 -233 204.5t-150.5 273t-52.5 307.5z" />
<glyph unicode=")" d="M180 -109q0 35 25 48q85 55 156 131.5t118.5 165t71.5 187t24 204.5q0 105 -24 204.5t-71.5 187.5t-114.5 162.5t-156 131.5q-29 15 -29 49q0 24 16 40t40 19h22q6 0 31 -10q135 -81 233 -204.5t150.5 -273.5t52.5 -306q0 -158 -52.5 -307.5t-150.5 -273t-233 -204.5 q-25 -10 -31 -10h-22q-22 3 -39 19t-17 40z" />
<glyph unicode="*" d="M139 440q0 20 10.5 37.5t26.5 24.5l227 125l-227 123q-37 17 -37 61q0 30 22 51t50 21q23 0 35 -11l225 -133l-6 256q0 32 22 52t50 20t49.5 -20.5t21.5 -49.5l-6 -258l225 133q13 11 35 11q30 0 51 -21t21 -51q0 -45 -37 -61l-227 -123l227 -125q17 -7 27 -23t10 -39 q0 -29 -21 -50t-51 -21q-21 0 -35 10l-225 133l6 -256q0 -30 -21 -51t-50 -21q-28 0 -50 20.5t-22 49.5l6 258l-225 -133q-12 -10 -35 -10q-28 0 -50 21t-22 50z" />
<glyph unicode="+" d="M78 627q0 27 19.5 47.5t47.5 23.5h320v322q3 29 23 48t49 19q30 0 49 -19t22 -48v-322h320q28 -3 47.5 -22.5t19.5 -48.5t-19 -49t-48 -23h-320v-322q-3 -29 -23 -48t-48 -19q-27 0 -48 19t-24 48v322h-320q-29 3 -48 24t-19 48z" />
<glyph unicode="," d="M367 -215q0 43 43 57q60 15 104.5 58.5t58.5 103.5l-12 -2l-6 -2h-16q-56 0 -94.5 38.5t-38.5 94.5q0 55 39 93t94 38q51 0 91.5 -30t61.5 -77t21 -100q0 -122 -73.5 -213.5t-193.5 -128.5h-12q-25 0 -46 22t-21 48z" />
<glyph unicode="-" d="M115 627q0 27 19.5 47.5t47.5 23.5h709q28 -3 47.5 -22.5t19.5 -48.5t-19 -49t-48 -23h-709q-29 3 -48 24t-19 48z" />
<glyph unicode="." d="M406 133q0 55 39 93t94 38q53 0 92 -38t39 -93t-39 -94t-92 -39q-55 0 -94 39t-39 94z" />
<glyph unicode="/" d="M119 -98q0 16 6 28l692 1450q23 41 66 41q29 0 50 -21t21 -50q0 -17 -6 -29l-692 -1450q-23 -41 -66 -41q-29 0 -50 22t-21 50z" />
<glyph unicode="0" d="M98 627q0 135 48.5 287t149 256t241.5 104q108 0 192.5 -62t138 -161t80.5 -210t27 -214q0 -104 -27 -215t-81 -211t-138 -162t-192 -62q-141 0 -241.5 103.5t-149 257t-48.5 289.5zM248 651q0 -98 28.5 -225t94.5 -221t166 -94q79 0 134.5 56.5t89 141.5t49 176.5 t15.5 165.5q0 66 -16 151.5t-49.5 161.5t-90 126.5t-132.5 50.5t-131 -49t-89.5 -125.5t-51.5 -163t-17 -152.5z" />
<glyph unicode="1" d="M211 948v19q7 51 57 57q85 0 150 63.5t98 149.5q16 31 53 37h15q24 -3 39 -18t18 -39v-1084h211q51 -6 57 -57v-19q-6 -51 -57 -57h-571q-52 6 -58 57v19q6 51 58 57h211v844q-101 -86 -216 -86q-24 0 -43 15.5t-22 41.5z" />
<glyph unicode="2" d="M106 57v19q0 24 29 49l330 274q15 12 99 82.5t136 128t84.5 124t32.5 138.5q0 86 -46 147t-121.5 91.5t-157.5 30.5q-72 0 -135.5 -38t-88.5 -106q29 -27 29 -67q0 -38 -28 -67t-66 -29q-43 0 -70 29.5t-27 70.5q0 100 58.5 178t150.5 120t191 42q91 0 174 -26.5 t148.5 -79.5t102 -128t36.5 -168q0 -116 -58.5 -215t-129.5 -164.5t-214 -181.5l-215 -178h467v39q6 51 57 57h35q25 -3 40 -17t18 -40v-115q-3 -24 -18 -39t-40 -18h-745q-50 6 -58 57z" />
<glyph unicode="3" d="M90 276q0 41 27 70t69 29q39 0 67 -28t28 -66q0 -33 -23 -64q36 -57 117 -81.5t168 -24.5q69 0 137 31t111 88.5t43 129.5q0 74 -43 131t-110.5 87t-139.5 30h-127q-50 6 -56 56v22q6 49 56 55l139 11q58 0 109 33.5t81.5 87.5t30.5 112q0 51 -37 86t-90.5 52.5 t-103.5 17.5q-159 0 -219 -56l4 -5q3 -5 4 -7q4 -8 4 -16q4 -8 4 -27q0 -38 -28 -66t-66 -28q-43 0 -69.5 29t-26.5 69q0 134 121 187t274 53q86 0 174.5 -33t146.5 -99t58 -157t-45 -170.5t-125 -132.5q99 -43 164 -130t65 -192q0 -111 -63 -199t-165 -136t-210 -48 q-170 0 -312.5 72.5t-142.5 226.5z" />
<glyph unicode="4" d="M59 401v58q0 20 9 30l479 748q21 31 55 31h113q26 0 43.5 -18.5t17.5 -43.5v-729h180q25 -3 40 -17t18 -40v-19q-3 -24 -18 -39t-40 -18h-180v-211h152q51 -6 57 -57v-19q-6 -51 -57 -57h-426q-50 6 -58 57v19q8 51 58 57h151v211h-536q-52 6 -58 57zM213 477h440v688z " />
<glyph unicode="5" d="M106 293q0 40 27 69t70 29q38 0 66 -28t28 -66q0 -35 -27 -68q30 -58 97 -88t139 -30q78 0 150 35.5t116.5 98.5t44.5 142q0 53 -17 101.5t-50.5 88.5t-80 63.5t-98.5 23.5q-74 0 -125 -17t-75 -35.5t-58.5 -48t-52.5 -33.5h-27q-51 8 -57 58v606q6 51 57 57h605 q51 -6 57 -57v-18q-6 -52 -57 -58h-512v-379q54 30 115.5 44t129.5 14q109 0 200.5 -56.5t143.5 -151.5t52 -202q0 -116 -66 -211t-173 -147t-222 -52q-94 0 -187 36.5t-153 108t-60 171.5z" />
<glyph unicode="6" d="M104 627q0 158 68 308.5t194.5 244.5t288.5 94q111 0 193 -54.5t82 -162.5q0 -40 -27 -69.5t-67 -29.5t-68.5 27.5t-28.5 67.5q0 27 19 57q-33 31 -103 31q-82 0 -152 -38t-121 -101.5t-83 -142.5t-41 -161q61 56 141 85.5t162 29.5q114 0 208 -56t147 -152.5t53 -209.5 q0 -88 -33.5 -165.5t-94 -134t-138.5 -87.5t-166 -31q-124 0 -209.5 59t-134.5 156t-69 206.5t-20 228.5zM274 457q0 -11 4.5 -29.5t4.5 -32.5q0 -8 -4 -20q26 -109 91 -186.5t167 -77.5q119 0 200.5 83t81.5 201q0 79 -35 143t-96 102t-139 38q-103 0 -189 -61.5 t-86 -159.5z" />
<glyph unicode="7" d="M90 1079v148q6 51 57 57h35q37 -4 51 -33h693q51 -6 57 -57v-18q0 -23 -18 -41q-110 -103 -197 -226.5t-149 -265t-93.5 -292.5t-31.5 -300q0 -31 -20 -50t-50 -24q-23 0 -41.5 10t-28.5 28.5t-10 41.5q0 142 27 285t82.5 284.5t131.5 263.5t175 228h-520v-39 q-3 -24 -18 -39t-40 -18h-35q-24 3 -39 18t-18 39z" />
<glyph unicode="8" d="M90 360q0 76 41 141t106 109t140 66q-62 17 -122.5 54t-98 92t-37.5 120q0 78 36.5 139.5t100.5 105.5t135 65.5t146 21.5t147 -22t134 -64.5t99 -105t37 -140.5q0 -97 -77 -167t-181 -99q78 -23 141.5 -66.5t104.5 -108.5t41 -141q0 -86 -37 -155.5t-103 -122 t-144.5 -79t-161.5 -26.5q-111 0 -214 48t-168 136t-65 199zM240 360q0 -74 43.5 -131t112 -87.5t141.5 -30.5q72 0 140.5 30.5t112.5 87.5t44 131q0 55 -25.5 102.5t-68 79t-97 49t-106.5 17.5q-73 0 -141.5 -30.5t-112 -86.5t-43.5 -131zM268 942q0 -93 85.5 -147 t183.5 -54q97 0 182.5 53.5t85.5 147.5q0 92 -84.5 145.5t-183.5 53.5q-63 0 -124.5 -23t-103 -68t-41.5 -108z" />
<glyph unicode="9" d="M104 856q0 118 61 215t163 150t221 53q122 0 205 -59.5t129.5 -155t66 -208.5t19.5 -224q0 -113 -34.5 -228t-103.5 -212t-167 -153.5t-218 -56.5q-121 0 -212 52.5t-91 165.5q0 41 27.5 70.5t69.5 29.5q38 0 66 -28t28 -68q0 -31 -19 -56q48 -32 131 -32q98 0 183 69 t135.5 174.5t50.5 198.5q-60 -55 -139 -84t-164 -29q-83 0 -157.5 31.5t-132.5 91t-88 134.5t-30 159zM254 856q0 -79 35.5 -143t96.5 -102t138 -38q64 0 128.5 27t106.5 78.5t42 118.5q0 11 -4 30t-4 29q0 3 2 11t2 10q-17 70 -48 128.5t-82 97t-120 38.5q-121 0 -207 -82 t-86 -203z" />
<glyph unicode=":" d="M406 133q0 55 39 93t94 38q53 0 92 -38t39 -93t-39 -94t-92 -39q-55 0 -94 39t-39 94zM406 752q0 53 39 92t94 39q53 0 92 -39t39 -92q0 -54 -39 -94t-92 -40q-55 0 -94 40t-39 94z" />
<glyph unicode=";" d="M367 -215q0 34 32 53q53 24 90 65.5t50 96.5q-56 0 -94.5 38.5t-38.5 94.5q0 55 39 93t94 38q73 0 107 -62.5t34 -144.5q0 -108 -60.5 -201t-158.5 -135q-12 -6 -27 -6q-25 0 -46 22t-21 48zM406 752q0 53 39 92t94 39q53 0 92 -39t39 -92q0 -54 -39 -94t-92 -40 q-55 0 -94 40t-39 94z" />
<glyph unicode="&#x3c;" d="M115 629q0 38 37 61l700 443q20 8 35 8q29 0 50 -21t21 -51q0 -37 -34 -61l-602 -379l602 -379q34 -29 34 -64q0 -29 -21 -50t-50 -21q-18 0 -35 10l-700 440q-37 24 -37 64z" />
<glyph unicode="=" d="M78 473q0 29 19 49t48 23h783q29 -3 48 -22t19 -50q0 -29 -19 -48t-48 -24h-783q-29 5 -48 25t-19 47zM78 782q0 29 19 49t48 23h783q29 -3 48 -22t19 -50q0 -29 -19.5 -48.5t-47.5 -22.5h-783q-28 3 -47.5 23.5t-19.5 47.5z" />
<glyph unicode="&#x3e;" d="M115 186q0 37 37 64l600 379l-600 379q-37 23 -37 61q0 30 21 51t50 21q13 0 37 -8l701 -443q34 -24 34 -61q0 -38 -34 -64l-701 -440q-20 -10 -37 -10q-29 0 -50 21t-21 50z" />
<glyph unicode="?" d="M127 1012q0 69 35.5 118.5t91.5 78t124 42t128 13.5q103 0 201.5 -20.5t168.5 -77.5t70 -158q0 -78 -43.5 -124t-130.5 -103t-133.5 -114.5t-46.5 -154.5v-76q-10 -49 -55 -55h-60q-49 6 -55 55v84q0 75 34 145t91 128q47 47 137 104q18 10 47.5 26t47.5 36.5t18 48.5 q0 73 -92.5 97.5t-196.5 24.5q-151 0 -209 -65q18 -24 18 -57q0 -40 -27.5 -67.5t-66.5 -27.5q-42 0 -69 29t-27 70zM399 106q0 43 32 75t75 32q44 0 75 -31t31 -76q0 -44 -31 -75t-75 -31q-43 0 -75 32t-32 74z" />
<glyph unicode="@" d="M90 627q0 156 65.5 303t189 240.5t282.5 93.5q116 0 189.5 -61t109 -158.5t46.5 -201t11 -216.5q0 -94 -33 -188.5t-101 -158t-163 -63.5q-96 0 -163.5 63t-101.5 158t-34 189t34 188t101.5 156.5t163.5 62.5q63 0 123 -37q-60 133 -184 133q-93 0 -170.5 -44 t-131.5 -119t-82 -164.5t-28 -175.5t27.5 -176t83 -166.5t132 -120t169.5 -43.5q64 0 105.5 19.5t84 51t62.5 35.5h51q25 -3 40 -19t15 -40q0 -25 -18 -43q-66 -64 -155.5 -100.5t-182.5 -36.5q-159 0 -282.5 94t-189 241t-65.5 304zM510 627q0 -54 19 -120t58.5 -111.5 t98.5 -45.5q58 0 97 45.5t58 111t19 120.5q0 93 -45 183.5t-129 90.5q-83 0 -129.5 -91t-46.5 -183z" />
<glyph unicode="A" d="M57 57v19q6 51 58 57h63l248 1081q6 27 28.5 44.5t49.5 17.5h65q27 0 49.5 -17.5t28.5 -44.5l248 -1081h63q25 -3 40 -17t18 -40v-19q-3 -24 -18 -39t-40 -18h-276q-51 7 -57 57v19q6 50 57 57h59q-10 45 -20 87t-25 106h-319q-8 -34 -21 -91t-24 -102h59q24 -3 39.5 -18 t18.5 -39v-19q-3 -23 -18.5 -38.5t-39.5 -18.5h-276q-52 6 -58 57zM406 459h262q-55 247 -92 427t-37 216h-2q0 -18 -11.5 -83t-33.5 -166t-43 -199t-43 -195z" />
<glyph unicode="B" d="M43 57v19q6 51 57 57h82v985h-82q-51 6 -57 58v18q6 51 57 57h500q89 0 168 -42t127.5 -115.5t48.5 -163.5q0 -94 -62.5 -168t-156.5 -107q112 -25 187 -111t75 -198q0 -93 -46.5 -172t-125.5 -126.5t-172 -47.5h-543q-24 3 -39 18t-18 39zM332 133h268q61 0 116 27.5 t88.5 75.5t33.5 110q0 58 -28 114t-77 90t-110 34h-291v-451zM332 717h225q58 0 114 28t90 76t34 109q0 52 -27.5 95.5t-72 68t-95.5 24.5h-268v-401z" />
<glyph unicode="C" d="M82 627q0 149 57.5 299.5t170 249t265.5 98.5q147 0 263 -96l32 63q16 27 50 33h16q49 -6 55 -55v-347q-6 -49 -55 -55h-39q-49 6 -55 55q-13 105 -82 187t-172 82q-115 0 -196 -82t-121 -201t-40 -231q0 -115 41 -234.5t122 -200.5t196 -81q68 0 125.5 33t92 91 t34.5 125q6 50 55 56h39q55 -6 55 -64q0 -106 -59.5 -192.5t-156 -134.5t-200.5 -48q-153 0 -265.5 99t-170 249.5t-57.5 301.5z" />
<glyph unicode="D" d="M35 57v19q6 51 57 57h72v985h-72q-51 6 -57 58v18q6 51 57 57h465q108 0 192 -60.5t137.5 -157.5t80 -208t26.5 -211q0 -136 -50 -279.5t-148.5 -239t-237.5 -95.5h-465q-51 6 -57 57zM313 133h205q82 0 144 46t102 119t60 157t20 159q0 106 -36 224t-109.5 199 t-180.5 81h-205v-985z" />
<glyph unicode="E" d="M49 57v19q6 50 57 57h89v985h-89q-23 3 -38.5 18.5t-18.5 39.5v18q6 50 57 57h820q51 -6 57 -57v-211q-6 -51 -57 -57h-35q-51 6 -57 57v135h-490v-403h260v59q6 51 58 57h34q25 -3 40 -17t18 -40v-252q-3 -26 -18 -40t-40 -17h-34q-52 6 -58 57v60h-260v-449h535v168 q6 51 57 57h35q51 -6 57 -57v-244q-6 -51 -57 -57h-865q-51 7 -57 57z" />
<glyph unicode="F" d="M53 57v19q6 51 58 57h94v985h-94q-52 6 -58 58v18q6 51 58 57h835q50 -6 58 -57v-211q-8 -51 -58 -57h-35q-51 6 -57 57v135h-500v-426h271v60q6 51 57 57h35q51 -6 57 -57v-252q-6 -52 -57 -58h-35q-51 6 -57 58v59h-271v-426h131q25 -3 40 -17t18 -40v-19 q-3 -24 -18 -39t-40 -18h-374q-52 6 -58 57z" />
<glyph unicode="G" d="M78 627q0 140 51 292.5t154 253.5t249 101q131 0 238 -90q23 51 35.5 68.5t42.5 21.5h16q48 -6 56 -55v-347q-8 -49 -56 -55h-39q-44 7 -53 49q-8 65 -34.5 128.5t-75 105t-115.5 41.5q-104 0 -177 -85t-108 -206t-35 -225q0 -101 34.5 -223t106.5 -206.5t175 -84.5 q67 0 118 51t78 124.5t27 137.5h-111q-24 3 -39 18t-18 39v19q3 24 18 39t39 18h303q25 -3 40 -18t18 -39v-19q-3 -24 -18 -39t-40 -18h-38v-369q-8 -51 -58 -57h-35q-24 3 -39 18t-18 39v23q-46 -47 -108 -74t-130 -27q-110 0 -197 60.5t-144.5 160.5t-85 213t-27.5 216z " />
<glyph unicode="H" d="M41 57v19q6 51 57 57h76v985h-76q-51 6 -57 58v18q6 51 57 57h301q25 -3 40 -17t18 -40v-18q-6 -52 -58 -58h-75v-401h426v401h-76q-50 6 -58 58v18q8 51 58 57h301q51 -6 57 -57v-18q-6 -52 -57 -58h-76v-985h76q51 -6 57 -57v-19q-6 -51 -57 -57h-301q-50 6 -58 57v19 q8 51 58 57h76v451h-426v-451h75q25 -3 40 -17t18 -40v-19q-3 -24 -18 -39t-40 -18h-301q-24 3 -39 18t-18 39z" />
<glyph unicode="I" d="M158 57v19q6 50 57 57h248v985h-248q-51 7 -57 58v18q6 50 57 57h645q24 -3 39.5 -18t18.5 -39v-18q-8 -52 -58 -58h-248v-985h248q24 -3 39.5 -18t18.5 -39v-19q-3 -23 -18.5 -38.5t-39.5 -18.5h-645q-51 7 -57 57z" />
<glyph unicode="J" d="M137 205q0 40 27 69t69 29q40 0 67.5 -27.5t27.5 -66.5q0 -26 -15 -53q52 -45 172 -45q76 0 137.5 41.5t61.5 113.5v852h-195q-23 3 -38.5 18.5t-18.5 39.5v18q6 50 57 57h433q51 -7 57 -57v-18q-3 -24 -18.5 -39.5t-38.5 -18.5h-88v-860q0 -85 -52.5 -148.5t-132.5 -98 t-164 -34.5q-130 0 -239 54.5t-109 173.5z" />
<glyph unicode="K" d="M49 57v19q6 51 57 57h72v985h-72q-51 6 -57 58v18q6 51 57 57h267q51 -6 57 -57v-18q-6 -52 -57 -58h-72v-524l418 524h-25q-48 6 -57 58v18q9 51 57 57h242q51 -7 57 -57v-18q-6 -51 -57 -58h-62l-307 -387l338 -598h51q52 -7 58 -57v-19q-6 -50 -58 -57h-215 q-24 3 -39 18t-18 39v19q6 51 57 57h23l-279 494l-184 -232v-262h72q51 -6 57 -57v-19q-6 -51 -57 -57h-267q-24 3 -39 18t-18 39z" />
<glyph unicode="L" d="M61 57v19q8 51 58 57h100v985h-100q-50 6 -58 58v18q8 51 58 57h391q48 -6 57 -57v-18q-9 -52 -57 -58h-141v-985h481v168q6 51 57 57h35q51 -6 57 -57v-244q-6 -51 -57 -57h-823q-50 6 -58 57z" />
<glyph unicode="M" d="M31 57v19q6 51 57 57h51v985h-51q-51 6 -57 58v18q6 51 57 57h170q30 0 53.5 -16.5t32.5 -44.5q40 -121 85 -259.5t76.5 -242t31.5 -121.5q1 19 33.5 125.5t76 241.5t82.5 256q9 28 32.5 44.5t53.5 16.5h170q51 -6 57 -57v-18q-6 -52 -57 -58h-51v-985h51q51 -6 57 -57 v-19q-6 -51 -57 -57h-225q-50 6 -58 57v19q8 51 58 57h51v969q-2 -41 -193 -623q-10 -28 -33 -44.5t-48 -16.5q-26 0 -49 16.5t-33 44.5q-191 582 -193 623v-969h51q25 -3 40 -17t18 -40v-19q-3 -24 -18 -39t-40 -18h-225q-51 6 -57 57z" />
<glyph unicode="N" d="M53 57v19q6 51 58 57h75v985h-75q-52 6 -58 58v18q6 51 58 57h194q30 0 53.5 -16t34.5 -45q57 -157 110 -303.5t105 -290.5t104 -292t52 -154v968h-76q-51 6 -57 58v18q6 51 57 57h275q51 -6 57 -57v-18q-6 -52 -57 -58h-76v-1061q-3 -24 -18 -39t-40 -18h-61 q-30 0 -53.5 17t-34.5 44q-45 127 -100 277t-119.5 331t-107 301.5t-44.5 131.5v-969h76q51 -6 57 -57v-19q-6 -51 -57 -57h-274q-52 6 -58 57z" />
<glyph unicode="O" d="M115 627q0 131 3 223.5t18 182t46 138.5q45 67 135.5 85t219.5 18q128 0 218.5 -18t135.5 -85q31 -49 46 -138.5t18 -182t3 -223.5q0 -133 -3 -225.5t-18 -182.5t-46 -139q-32 -47 -91.5 -70t-120 -28t-142.5 -5q-129 0 -219 18t-136 85q-24 39 -37 96.5t-20 134.5 t-8.5 147.5t-1.5 168.5zM264 651q0 -169 7.5 -283.5t35.5 -170.5q27 -53 87 -69.5t143 -16.5t143 16.5t86 69.5q27 53 35 169t8 285q0 99 -2.5 171.5t-11.5 137.5t-29 103q-30 52 -87 65t-142 13t-142 -12.5t-88 -65.5q-14 -26 -23.5 -72.5t-14 -115.5t-5 -109.5 t-0.5 -114.5z" />
<glyph unicode="P" d="M49 57v19q6 50 57 57h89v985h-89q-23 3 -38.5 18.5t-18.5 39.5v18q6 50 57 57h498q76 0 145.5 -29.5t122 -82t82 -122t29.5 -145.5q0 -101 -51.5 -188t-138.5 -138.5t-189 -51.5h-260v-361h88q51 -7 57 -57v-19q-6 -50 -57 -57h-326q-51 7 -57 57zM344 627h223 q67 0 129 31.5t100 89t38 124.5q0 106 -80.5 176t-186.5 70h-223v-491z" />
<glyph unicode="Q" d="M115 627q0 131 3 223.5t18 182t46 138.5q45 67 135.5 85t219.5 18q128 0 218.5 -18t135.5 -85q31 -49 46 -138.5t18 -182t3 -223.5q0 -133 -3 -225.5t-18 -182.5t-46 -139q-28 -44 -88 -70l123 -233q4 -6 4 -21t-13 -28t-28 -13h-76q-35 0 -49 31l-121 234 q-35 -3 -106 -3q-129 0 -219 18t-136 85q-24 39 -37 96.5t-20 134.5t-8.5 147.5t-1.5 168.5zM264 627q0 -163 7.5 -271.5t35.5 -162.5q29 -52 88 -67t142 -15h38l-92 178q-4 6 -4 18q0 17 12 30t29 13h84q18 0 25 -14l98 -186q54 45 68 182t14 295q0 161 -8 271t-35 161 q-28 54 -85.5 68t-143.5 14q-87 0 -143.5 -14t-86.5 -68q-28 -54 -35.5 -162.5t-7.5 -269.5z" />
<glyph unicode="R" d="M41 57v19q6 51 57 57h76v985h-76q-51 6 -57 58v18q6 51 57 57h398q98 0 189 -44t146.5 -123t55.5 -179q0 -87 -46 -161.5t-122 -122.5q52 -41 82 -98t30 -120v-149q0 -57 11 -100t47 -43q4 0 6 2q25 24 25 94q6 51 57 57h35q26 -4 41.5 -21t15.5 -44q0 -54 -21.5 -106 t-62 -84t-96.5 -32q-71 0 -118 38.5t-68 99t-21 131.5v149q0 74 -57 119t-133 45h-168v-426h75q25 -3 40 -17t18 -40v-19q-3 -24 -18 -39t-40 -18h-301q-24 3 -39 18t-18 39zM324 692h153q59 0 120.5 26t100.5 75t39 112t-39 112t-100.5 75t-120.5 26h-153v-426z" />
<glyph unicode="S" d="M106 33v327q8 50 56 56h39q49 -6 55 -56q0 -133 96 -191t238 -58q62 0 115.5 29t86.5 79t33 113q0 77 -50.5 138t-125.5 79l-268 61q-74 18 -137.5 65.5t-100.5 115.5t-37 145q0 95 54 173.5t140.5 121.5t182.5 43q172 0 285 -92q13 35 18.5 49.5t18 27t35.5 15.5h16 q49 -6 54 -55v-328q-6 -49 -54 -55h-39q-44 6 -53 49q-36 256 -281 256q-90 0 -162.5 -54.5t-72.5 -142.5q0 -68 50.5 -120t119.5 -68l268 -64q79 -19 143.5 -71t101 -124t36.5 -155q0 -101 -51.5 -185t-137.5 -132t-188 -48q-213 0 -340 91q-22 -54 -30.5 -70t-39.5 -21 h-18q-48 8 -56 56z" />
<glyph unicode="T" d="M53 983v211q6 51 58 57h852q51 -6 57 -57v-211q-6 -51 -57 -57h-35q-52 6 -58 57v135h-258v-985h131q25 -3 40 -17t18 -40v-19q-3 -24 -18 -39t-40 -18h-411q-50 6 -58 57v19q8 51 58 57h131v985h-260v-135q-3 -26 -18 -40t-40 -17h-34q-52 6 -58 57z" />
<glyph unicode="U" d="M4 1176v18q6 50 57 57h326q51 -7 57 -57v-18q-6 -51 -57 -58h-88v-696q0 -71 28 -144t82 -120t128 -47q75 0 128 47t81 120t28 144v696h-88q-51 7 -57 58v18q6 50 57 57h326q51 -7 57 -57v-18q-3 -24 -18.5 -39.5t-38.5 -18.5h-88v-704q0 -109 -49 -210t-137.5 -164 t-200.5 -63q-83 0 -155.5 36.5t-124.5 100t-79.5 142.5t-27.5 158v704h-89q-23 3 -38.5 18.5t-18.5 39.5z" />
<glyph unicode="V" d="M39 1176v18q6 51 57 57h269q51 -6 57 -57v-18q-6 -52 -57 -58h-56q14 -59 84.5 -341t107 -439t36.5 -188q1 37 72 333.5t155 634.5h-55q-52 6 -58 58v18q6 51 58 57h268q51 -6 57 -57v-18q-6 -52 -57 -58h-57l-271 -1073q-8 -27 -31 -44t-49 -17h-65q-26 0 -49 17t-31 44 l-270 1073h-58q-51 6 -57 58z" />
<glyph unicode="W" d="M25 1176v18q6 51 57 57h221q48 -6 57 -57v-18q-9 -52 -57 -58h-78q12 -87 32 -234.5t44 -335.5t33.5 -272.5t9.5 -125.5q1 35 11 99t25.5 141.5t24.5 119t41 180.5q6 28 27 45t49 17h29q27 0 49.5 -18t26.5 -44q17 -70 43.5 -193.5t42 -213t16.5 -133.5q0 26 15 161 t31 256t34 255.5t39 295.5h-78q-48 6 -57 58v18q9 51 57 57h221q50 -6 58 -57v-18q-8 -52 -58 -58h-18l-148 -1073q-5 -27 -26 -44t-45 -17h-27q-26 0 -49 17t-29 44q-26 118 -51.5 235.5t-42.5 205t-18 116.5q0 -50 -113 -557q-6 -27 -29 -44t-49 -17h-27q-24 0 -45 17 t-26 44l-148 1073h-18q-51 6 -57 58z" />
<glyph unicode="X" d="M57 57v19q6 51 58 57h71l265 535l-238 450h-76q-48 6 -57 58v18q9 51 57 57h273q51 -6 57 -57v-18q-6 -52 -57 -58h-31l147 -278l133 278h-34q-52 6 -58 58v18q6 51 58 57h272q51 -6 57 -57v-18q-6 -52 -57 -58h-74l-223 -450l283 -535h73q52 -7 58 -57v-19 q-6 -50 -58 -57h-272q-51 6 -57 57v19q6 51 57 57h33l-191 379l-178 -379h39q48 -6 57 -57v-19q-10 -51 -57 -57h-272q-52 6 -58 57z" />
<glyph unicode="Y" d="M41 1176v18q6 51 57 57h271q51 -6 57 -57v-18q-6 -52 -57 -58h-35q203 -430 203 -467q2 45 202 467h-34q-52 6 -58 58v18q6 51 58 57h272q48 -6 57 -57v-18q-9 -52 -57 -58h-72l-293 -618v-367h76q51 -6 57 -57v-19q-6 -51 -57 -57h-301q-51 6 -57 57v19q6 51 57 57h76 v367l-295 618h-70q-51 6 -57 58z" />
<glyph unicode="Z" d="M98 61v27q0 23 13 37l669 993h-508v-135q-6 -51 -57 -57h-35q-51 6 -57 57v211q6 51 57 57h733q25 0 43.5 -17.5t18.5 -43.5v-27q0 -20 -12 -37l-670 -993h543v174q6 50 57 58h35q51 -8 57 -58v-250q-6 -51 -57 -57h-768q-25 0 -43.5 18.5t-18.5 42.5z" />
<glyph unicode="[" d="M451 -113v1477q6 51 57 57h424q51 -6 57 -57v-18q-6 -52 -57 -58h-332v-1325h332q51 -6 57 -57v-19q-6 -51 -57 -57h-424q-51 6 -57 57z" />
<glyph unicode="\" d="M119 1350q0 29 21 50t50 21q43 0 66 -41l692 -1450q6 -12 6 -28q0 -28 -21 -50t-50 -22q-43 0 -66 41l-692 1450q-6 12 -6 29z" />
<glyph unicode="]" d="M84 -94q6 51 57 57h332v1325h-332q-51 6 -57 58v18q6 51 57 57h424q50 -6 58 -57v-1477q-8 -51 -58 -57h-424q-24 3 -39 18t-18 39v19z" />
<glyph unicode="^" d="M201 1042q0 32 30 54l275 147q13 8 31 8q8 0 24 -4l281 -151q30 -22 30 -54q0 -30 -22 -57t-51 -27q-19 0 -31 9l-231 133l-232 -133q-12 -9 -31 -9q-29 0 -51 27t-22 57z" />
<glyph unicode="_" d="M115 -123q0 29 19 49t48 23h709q29 -3 48 -22t19 -50q0 -29 -19 -48t-48 -24h-709q-29 5 -48 25t-19 47z" />
<glyph unicode="`" d="M371 991q0 122 64.5 230t176.5 168q13 6 27 6t27 -6.5t21.5 -14.5t15 -21.5t6.5 -27.5q0 -31 -33 -53q-78 -39 -125 -116.5t-47 -166.5q0 -18 2 -26q5 1 14 2.5t17 1.5q44 0 75 -31t31 -76q0 -47 -32 -76.5t-79 -29.5q-81 0 -121 73.5t-40 163.5z" />
<glyph unicode="a" d="M109 272q0 116 106 183.5t245.5 92.5t262.5 25v17q0 84 -73 131t-163 47q-92 0 -137 -8q2 0 2 -17q0 -38 -28 -66t-66 -28q-42 0 -69 29t-27 70q0 100 95.5 126.5t234.5 26.5q88 0 177 -36.5t146 -105.5t57 -161v-446q0 -19 144 -19q51 -6 57 -57v-19q-6 -51 -57 -57h-35 q-86 0 -144.5 12.5t-93.5 57.5q-116 -82 -307 -82q-81 0 -157 35t-123 99.5t-47 149.5zM258 270q0 -68 63.5 -108.5t139.5 -40.5q80 0 145 22q33 12 72 38t39 50q0 -1 3 14.5t3 24.5v174q-47 0 -125 -8t-154 -26.5t-131 -54t-55 -85.5z" />
<glyph unicode="b" d="M20 1176v18q8 51 58 57h209q51 -6 57 -57v-395q113 96 260 96q115 0 207 -65t142.5 -169.5t50.5 -218.5q0 -117 -55.5 -222.5t-153 -168.5t-215.5 -63q-131 0 -236 100v-31q-3 -24 -18 -39t-39 -18h-35q-51 6 -57 57v1061h-117q-50 6 -58 58zM344 358q21 -96 78 -166.5 t147 -70.5q82 0 147.5 46t101.5 121t36 154q0 75 -32.5 150t-92.5 122.5t-139 47.5q-54 0 -105.5 -23.5t-88.5 -66.5t-52 -97v-217z" />
<glyph unicode="c" d="M145 442q0 122 60 228t163.5 168.5t227.5 62.5q139 0 236.5 -26.5t97.5 -126.5q0 -28 -12.5 -50.5t-33.5 -35.5t-48 -13q-39 0 -68 28t-29 66q1 6 1.5 10.5t0.5 6.5q-47 8 -141 8q-64 0 -120.5 -26.5t-97.5 -72t-64 -105t-23 -122.5q0 -130 95.5 -225.5t227.5 -95.5 q143 0 193 129q18 27 49 33h39q23 -3 39 -19t16 -41q0 -8 -4 -20q-40 -110 -134.5 -162.5t-219.5 -52.5q-121 0 -225.5 61.5t-165 165.5t-60.5 227z" />
<glyph unicode="d" d="M70 442q0 87 31 168.5t89.5 146.5t136 101.5t165.5 36.5q133 0 237 -88v311h-117q-51 6 -57 58v18q6 51 57 57h209q50 -6 58 -57v-1061h116q25 -3 40 -17t18 -40v-19q-3 -24 -18 -39t-40 -18h-209q-24 3 -39 18t-18 39v41q-115 -110 -258 -110q-89 0 -162.5 38t-127 103 t-82.5 146.5t-29 166.5zM219 440q0 -74 32.5 -149.5t92.5 -122.5t139 -47q93 0 159 73t87 171v215q-22 77 -84 129.5t-141 52.5q-82 0 -147.5 -46t-101.5 -121.5t-36 -154.5z" />
<glyph unicode="e" d="M109 444q0 92 34 174t94.5 146.5t142 100.5t173.5 36q128 0 218 -58.5t134.5 -160t44.5 -229.5q0 -27 -16 -45t-41 -21h-629q22 -117 118 -191.5t218 -74.5q64 0 121.5 29.5t79.5 82.5q16 47 57 52h35q26 -3 41.5 -20.5t15.5 -41.5q0 -6 -0.5 -9.5t-1.5 -8.5 q-39 -108 -140.5 -162.5t-223.5 -54.5q-124 0 -234.5 60.5t-175.5 164.5t-65 231zM266 518h531q-8 72 -37 128.5t-81 89t-126 32.5q-68 0 -129.5 -34t-103 -92t-54.5 -124z" />
<glyph unicode="f" d="M82 57v19q9 51 57 57h234v617h-228q-51 6 -57 57v18q3 25 18 40t39 18h228v123q0 76 48.5 135.5t123.5 91t151 31.5q78 0 138.5 -28.5t60.5 -96.5q0 -40 -25.5 -68.5t-64.5 -28.5q-35 0 -63.5 26t-28.5 62h-31q-63 0 -111.5 -37t-48.5 -96v-114h271q24 -3 39 -18t18 -40 v-18q-6 -51 -57 -57h-271v-617h234q48 -6 57 -57v-19q-9 -51 -57 -57h-617q-47 6 -57 57z" />
<glyph unicode="g" d="M59 -168q0 78 40.5 145.5t107.5 110.5q-26 34 -37.5 70t-11.5 75q0 73 41 140q-64 86 -64 192q0 89 48 165.5t126.5 120.5t167.5 44q116 0 197 -59q48 34 105 51.5t116 17.5q57 0 102 -31.5t45 -85.5q0 -36 -25 -61t-59 -25q-65 0 -84 70q-48 0 -108 -31q53 -80 53 -176 q0 -67 -28 -128.5t-74.5 -105t-110 -69.5t-129.5 -26q-97 0 -182 51q-10 -32 -10 -56q0 -32 15.5 -59.5t45.5 -38.5q6 1 11 1.5t12 0.5q4 0 9.5 -1.5t10.5 -3t8 -1.5h144q122 0 226 -22t175.5 -87.5t71.5 -187.5q0 -77 -45.5 -135t-120 -95t-156.5 -54t-155 -17t-154.5 17 t-156.5 54t-121 95t-46 135zM186 -168q0 -58 62 -96t145.5 -56t143.5 -18q58 0 142.5 18t146 56t61.5 96q0 112 -103 142t-252 30h-155q-76 0 -133.5 -49.5t-57.5 -122.5zM285 565q0 -78 56.5 -138t135.5 -60q54 0 97.5 27t69.5 72t26 99q0 53 -25.5 98.5t-70 73t-97.5 27.5 q-79 0 -135.5 -60t-56.5 -139z" />
<glyph unicode="h" d="M20 57v19q8 51 58 57h117v985h-117q-50 6 -58 58v18q8 51 58 57h209q51 -6 57 -57v-403q53 50 123 77t145 27q135 0 201 -79.5t66 -217.5v-465h116q25 -3 40 -17t18 -40v-19q-3 -24 -18 -39t-40 -18h-364q-50 6 -58 57v19q8 51 58 57h98v457q0 86 -25.5 129t-105.5 43 q-68 0 -127.5 -36t-93 -96t-33.5 -130v-367h117q51 -6 57 -57v-19q-6 -51 -57 -57h-383q-50 6 -58 57z" />
<glyph unicode="i" d="M156 57v19q6 51 57 57h274v617h-258q-51 7 -57 57v18q3 24 18.5 39.5t38.5 18.5h351q24 -3 39 -18t18 -40v-692h242q48 -6 57 -57v-19q-9 -51 -57 -57h-666q-51 6 -57 57zM424 1147q0 44 31 75t75 31q45 0 76 -31t31 -75q0 -43 -32 -75t-75 -32q-42 0 -74 32t-32 75z" />
<glyph unicode="j" d="M98 -309q0 42 27 71t70 29q38 0 66 -28t28 -68q0 -6 -0.5 -10.5t-1.5 -10.5q43 -8 131 -8q90 0 140 76t50 172v836h-291q-51 6 -57 57v18q3 25 18 40t39 18h383q25 -3 40 -18t18 -40v-919q0 -71 -24.5 -137.5t-72.5 -121t-111 -84.5t-136 -30q-85 0 -149.5 8t-115.5 42.5 t-51 107.5zM545 1147q0 44 31 75t75 31q45 0 76 -31t31 -75q0 -43 -32 -75t-75 -32q-42 0 -74 32t-32 75z" />
<glyph unicode="k" d="M39 57v19q6 51 57 57h125v985h-125q-51 6 -57 58v18q6 51 57 57h191q51 -6 57 -57v-737l313 293h-94q-51 6 -57 57v18q3 25 17 40t40 18h375q48 -6 57 -58v-18q-9 -51 -57 -57h-100l-246 -230l299 -387h92q48 -6 57 -57v-19q-10 -51 -57 -57h-301q-51 6 -57 57v19 q6 51 57 57h53l-233 303l-158 -147v-156h125q51 -6 57 -57v-19q-6 -51 -57 -57h-373q-51 6 -57 57z" />
<glyph unicode="l" d="M115 57v19q6 51 57 57h291v985h-291q-51 6 -57 58v18q6 51 57 57h383q51 -6 57 -57v-1061h291q50 -6 58 -57v-19q-8 -51 -58 -57h-731q-51 6 -57 57z" />
<glyph unicode="m" d="M-12 57v19q9 51 57 57h59v617h-59q-48 6 -57 57v18q9 52 57 58h125q26 -3 41.5 -20.5t15.5 -41.5q82 74 187 74q49 0 91 -29t64 -78q88 107 215 107q185 0 185 -297v-465h59q48 -6 57 -57v-19q-10 -51 -57 -57h-219q-51 7 -57 57v19q6 50 57 57h37v457q0 172 -74 172 q-60 0 -99 -41.5t-57 -101.5t-18 -119v-367h59q49 -6 58 -57v-19q-10 -51 -58 -57h-219q-51 7 -57 57v19q6 50 57 57h37v457q0 172 -74 172q-60 0 -99 -41.5t-57 -101.5t-18 -119v-367h60q48 -6 57 -57v-19q-9 -51 -57 -57h-242q-47 6 -57 57z" />
<glyph unicode="n" d="M20 57v19q8 51 58 57h117v617h-117q-50 6 -58 57v18q8 52 58 58h209q24 -3 39 -18t18 -40v-34q53 50 123 77t145 27q135 0 201 -79.5t66 -217.5v-465h116q25 -3 40 -17t18 -40v-19q-3 -24 -18 -39t-40 -18h-364q-50 6 -58 57v19q8 51 58 57h98v457q0 86 -25.5 129 t-105.5 43q-68 0 -127.5 -36t-93 -96t-33.5 -130v-367h117q51 -6 57 -57v-19q-6 -51 -57 -57h-383q-50 6 -58 57z" />
<glyph unicode="o" d="M113 442q0 118 54.5 223.5t152.5 170.5t217 65q91 0 170 -38t134.5 -101t87.5 -148t32 -172q0 -117 -55.5 -222.5t-153 -168.5t-215.5 -63q-119 0 -216 62.5t-152.5 168.5t-55.5 223zM262 459q0 -127 76 -232.5t199 -105.5t198.5 105.5t75.5 232.5q0 78 -35 149 t-97 115.5t-142 44.5q-79 0 -141.5 -44t-98 -115.5t-35.5 -149.5z" />
<glyph unicode="p" d="M20 -379q8 51 58 57h117v1072h-117q-50 6 -58 57v18q8 52 58 58h209q24 -3 39 -18t18 -40v-26q113 96 260 96q115 0 207 -65t142.5 -169.5t50.5 -218.5q0 -117 -55.5 -222.5t-153 -168.5t-215.5 -63q-131 0 -236 100v-410h117q51 -6 57 -57v-18q-6 -52 -57 -58h-383 q-50 6 -58 58v18zM344 358q21 -96 78 -166.5t147 -70.5q82 0 147.5 46t101.5 121t36 154q0 75 -32.5 150t-92.5 122.5t-139 47.5q-54 0 -105.5 -23.5t-88.5 -66.5t-52 -97v-217z" />
<glyph unicode="q" d="M78 442q0 121 58.5 224.5t160 166t223.5 62.5q70 0 135.5 -28t116.5 -79v50q3 24 18 39t39 18h35q25 -3 40 -18t18 -39v-1160h125q51 -6 57 -57v-18q-6 -52 -57 -58h-400q-51 6 -57 58v18q6 51 57 57h125v426q-57 -55 -127.5 -85.5t-148.5 -30.5q-87 0 -165 38 t-133.5 100.5t-87.5 146.5t-32 169zM227 440q0 -79 35.5 -152.5t100.5 -120t145 -46.5q65 0 120.5 33t91.5 87.5t52 118.5v152q-11 67 -43 123t-82.5 91.5t-116.5 35.5q-84 0 -153 -44.5t-109.5 -119t-40.5 -158.5z" />
<glyph unicode="r" d="M61 57v19q8 51 58 57h190v617h-190q-50 6 -58 57v18q8 52 58 58h282q25 -3 40 -18t18 -40v-90q41 48 96.5 85t120.5 56t129 19q75 0 133.5 -31t58.5 -98q0 -39 -25 -66.5t-65 -27.5q-37 0 -63.5 25.5t-26.5 64.5h-14q-98 0 -177 -53t-123 -140.5t-44 -183.5v-252h254 q51 -7 57 -57v-19q-6 -50 -57 -57h-594q-50 6 -58 57z" />
<glyph unicode="s" d="M147 43v252q8 49 56 55h39q41 -6 53 -43q52 -186 250 -186q100 0 181 28.5t81 108.5q0 58 -59.5 90t-131.5 43l-180 31q-119 19 -204 75t-85 160q0 95 62 149t153.5 74.5t182.5 20.5q127 0 207 -41q10 18 21.5 28t33.5 13h16q48 -6 56 -55v-197q-8 -49 -56 -55h-39 q-49 6 -55 55q0 119 -188 119q-53 0 -111.5 -8t-103.5 -33.5t-45 -71.5q0 -79 178 -104l182 -31q73 -11 142 -43t113 -88t44 -131q0 -145 -118.5 -207.5t-276.5 -62.5q-155 0 -256 73q-6 -11 -15.5 -30t-21.5 -29.5t-31 -13.5h-18q-48 6 -56 55z" />
<glyph unicode="t" d="M51 807v18q6 52 58 58h200v194q6 50 58 58h34q52 -8 58 -58v-194h356q25 -3 39.5 -18t17.5 -40v-18q-6 -51 -57 -57h-356v-480q0 -149 155 -149q63 0 109.5 43t46.5 106v11q3 24 18 39t39 18h35q50 -6 58 -57v-19q0 -82 -46.5 -144.5t-119.5 -96t-154 -33.5 q-85 0 -150 32.5t-103 95t-38 146.5v488h-200q-52 6 -58 57z" />
<glyph unicode="u" d="M20 807v18q8 52 58 58h209q24 -3 39 -18t18 -40v-596q0 -69 43.5 -88.5t120.5 -19.5q54 0 105.5 22t83.5 64t32 96v447h-117q-51 6 -57 57v18q3 25 18 40t39 18h209q50 -6 58 -58v-692h116q25 -3 40 -17t18 -40v-19q-3 -24 -18 -39t-40 -18h-209q-23 3 -40 21t-17 40 q-50 -36 -111 -54.5t-124 -18.5q-132 0 -215.5 53.5t-83.5 179.5v529h-117q-50 6 -58 57z" />
<glyph unicode="v" d="M49 807v18q3 24 18.5 39.5t38.5 18.5h300q23 -3 38.5 -18.5t18.5 -39.5v-18q-6 -50 -57 -57h-82l213 -637l213 637h-82q-52 7 -58 57v18q6 51 58 58h299q23 -3 38.5 -18.5t18.5 -39.5v-18q-6 -50 -57 -57h-88l-232 -697q-9 -28 -32.5 -44.5t-53.5 -16.5h-49 q-30 0 -53.5 16.5t-32.5 44.5l-231 697h-89q-51 7 -57 57z" />
<glyph unicode="w" d="M33 807v18q3 25 17 40t40 18h303q47 -6 58 -58v-18q-11 -51 -58 -57h-131q11 -58 31 -170.5t37 -219.5t24.5 -154.5t7.5 -55.5q1 9 19 77t38 137t30 105q7 28 30 44.5t51 16.5h21q30 0 52.5 -16.5t29.5 -44.5q32 -106 56 -196t24 -123q1 35 33.5 226.5t64.5 373.5h-131 q-48 6 -57 57v18q9 52 57 58h303q25 -3 39.5 -18t17.5 -40v-18q-6 -51 -57 -57h-47l-123 -697q-5 -27 -26 -44t-48 -17h-37q-28 0 -50.5 16t-30.5 45q-10 36 -33 119t-34 130t-13 79q0 -54 -78 -328q-8 -29 -30.5 -45t-51.5 -16h-47q-25 0 -47 17t-27 44l-123 697h-47 q-51 6 -57 57z" />
<glyph unicode="x" d="M59 57v19q6 51 58 57h108l246 322l-231 295h-111q-51 6 -57 57v18q3 25 17 40t40 18h299q48 -6 57 -58v-18q-9 -51 -57 -57h-39l141 -191l140 191h-43q-49 6 -58 57v18q4 24 19.5 39.5t38.5 18.5h299q24 -3 39 -18t18 -40v-18q-6 -51 -57 -57h-109l-225 -295l252 -322 h110q25 -3 40 -17t18 -40v-19q-3 -24 -18 -39t-40 -18h-299q-47 6 -57 57v19q9 51 57 57h45l-170 238l-161 -238h47q48 -6 57 -57v-19q-9 -51 -57 -57h-299q-52 6 -58 57z" />
<glyph unicode="y" d="M53 807v18q4 24 19.5 39.5t38.5 18.5h299q24 -3 39 -18t18 -40v-18q-6 -51 -57 -57h-76q74 -191 109.5 -283t74.5 -198t39 -119q1 10 31 106.5t69 215t93 278.5h-82q-52 6 -58 57v18q6 52 58 58h299q23 -3 38.5 -18.5t18.5 -39.5v-18q-6 -50 -57 -57h-88l-308 -912 q-42 -125 -122 -215t-193 -90q-45 0 -84.5 24.5t-61.5 64.5t-22 85q0 41 27.5 66.5t66.5 25.5t65.5 -25.5t26.5 -66.5h-36q0 -41 18 -41q66 0 113.5 50t72.5 122l54 162l-293 750h-92q-49 6 -58 57z" />
<glyph unicode="z" d="M68 61v27q0 27 18 45l651 617h-487v-80q-6 -52 -57 -58h-35q-52 6 -58 58v155q6 52 58 58h745q26 0 44 -18t18 -44v-26q0 -26 -19 -45l-651 -617h528v105q6 51 58 57h34q25 -3 40 -18t18 -39v-181q-3 -24 -18 -39t-40 -18h-786q-25 0 -43 19t-18 42z" />
<glyph unicode="{" d="M113 614v23q6 49 55 55q295 0 295 127v365q0 139 127.5 188t292.5 49h22q48 -6 56 -55v-23q-8 -49 -56 -55q-114 0 -203.5 -20t-89.5 -92v-365q0 -59 -32.5 -107t-85.5 -77q53 -29 85.5 -78.5t32.5 -108.5v-364q0 -73 89.5 -93t203.5 -20q48 -6 56 -55v-23 q-8 -49 -56 -55h-22q-165 0 -292.5 49.5t-127.5 188.5v364q0 127 -295 127q-49 6 -55 55z" />
<glyph unicode="|" d="M465 -102v1456q3 29 23 48t49 19q30 0 49 -19t22 -48v-1456q-3 -28 -23 -48t-48 -20q-27 0 -48 20t-24 48z" />
<glyph unicode="}" d="M113 -92q6 49 55 55q295 0 295 113v364q0 121 119 187q-119 63 -119 184v365q0 72 -90 92t-205 20q-49 6 -55 55v23q6 49 55 55h22q70 0 141 -8t135 -33t105 -72.5t41 -123.5v-365q0 -127 293 -127q48 -6 56 -55v-23q-8 -49 -56 -55q-293 0 -293 -127v-364 q0 -96 -67.5 -149t-160 -71t-194.5 -18h-22q-49 6 -55 55v23z" />
<glyph unicode="~" d="M178 1067q0 30 49 74.5t114.5 77t100.5 32.5q47 0 76 -20t66 -56t53 -36q24 0 46.5 14t47.5 35.5t52 42t44 20.5q16 0 32.5 -10t26 -26t9.5 -33q0 -48 -101.5 -116.5t-162.5 -68.5q-47 0 -77 21t-66 56.5t-52 35.5q-23 0 -48.5 -15.5t-56.5 -44t-49 -41t-36 -12.5 q-26 0 -47 21t-21 49z" />
<glyph unicode="&#xa0;" />
<glyph unicode="&#xa1;" d="M406 629q0 53 39 92t94 39q53 0 92 -39t39 -92q0 -55 -39 -94t-92 -39q-55 0 -94 39t-39 94z" />
<glyph unicode="&#xa2;" d="M117 348v29q3 25 19 41t42 16q62 0 147.5 -43t139.5 -90v883q4 30 24 48.5t52 18.5q57 -6 67 -65v-885q54 47 139.5 90t147.5 43q26 0 42 -16t19 -41v-29q-6 -45 -49 -57q-103 -16 -187.5 -84t-125.5 -168q-17 -39 -57 -39q-41 0 -58 39q-28 67 -73.5 119t-107.5 86.5 t-130 46.5q-45 12 -51 57z" />
<glyph unicode="&#xa3;" d="M143 305q0 87 32.5 190.5t94.5 196t143 148t175 55.5q76 0 128.5 -36t84.5 -97t43 -135q18 53 37 127q12 37 53 43h39q23 -3 39 -19t16 -41q0 -43 -31.5 -128t-77.5 -182t-71 -134v-33q0 -102 16 -139q15 3 28.5 25t43.5 26h39q23 -3 39 -19t16 -40q0 -56 -57 -90.5 t-119 -34.5q-57 0 -93.5 37.5t-51.5 95.5q-143 -133 -318 -133q-120 0 -184 95.5t-64 221.5zM293 299q0 -64 23.5 -121t78.5 -57q91 0 168 55t135 141l4 199q0 246 -116 246q-58 0 -111.5 -49.5t-95.5 -114.5q-86 -143 -86 -299z" />
<glyph unicode="&#xa4;" d="M-53 -385l321 1284q27 108 111 192t196.5 128.5t225.5 44.5q50 0 95 -14.5t81 -42.5t58 -71t22 -94q0 -73 -42.5 -135t-109.5 -108q92 -92 92 -250q0 -97 -37.5 -196.5t-103.5 -183.5t-157.5 -136.5t-188.5 -52.5q-86 0 -161 31.5t-126 92.5l-129 -516q-12 -37 -53 -43 h-39q-23 3 -39 20t-16 40v10zM291 338q0 -66 28 -116.5t78.5 -78.5t116.5 -28q88 0 165 70.5t123 175t46 192.5q0 62 -22.5 114.5t-73.5 73.5q-12 -1 -31 -2.5t-23 -1.5q-127 0 -188 8q-57 15 -57 68q5 48 59 61q57 9 195 9q15 0 53 -4q56 16 101.5 61.5t45.5 101.5 q0 42 -33 65t-77 23q-81 0 -162.5 -32.5t-141.5 -92t-79 -137.5l-113 -448q-10 -45 -10 -82z" />
<glyph unicode="&#xa5;" d="M90 49q0 16 6 31l375 975q24 41 66 41q41 0 65 -41l375 -975q6 -15 6 -31q0 -28 -21 -50t-51 -22q-42 0 -65 43l-309 803l-310 -803q-23 -43 -65 -43q-28 0 -50 22t-22 50z" />
<glyph unicode="&#xa6;" d="M90 666q0 27 20.5 47.5t47.5 23.5h757q30 -3 47.5 -21.5t20.5 -45.5v-529q-3 -29 -23 -48t-49 -19q-27 0 -47.5 19.5t-23.5 47.5v453h-682q-28 3 -48 24t-20 48z" />
<glyph unicode="&#xa7;" d="M135 627q0 100 36.5 193t103 165.5t156.5 114t192 41.5h247q30 -3 49 -23t19 -49q0 -27 -19 -48t-49 -24h-239q-87 0 -160.5 -39.5t-122 -108t-63.5 -151.5h585q29 -3 48.5 -23.5t19.5 -47.5t-19 -48t-49 -24h-585q23 -128 120.5 -213.5t225.5 -85.5h239q30 -3 49 -23 t19 -49q0 -27 -19.5 -47.5t-48.5 -23.5h-247q-136 0 -247.5 71t-176 190.5t-64.5 252.5z" />
<glyph unicode="&#xa8;" d="M76 602q0 15 6 27q60 109 135.5 181.5t171.5 72.5h621q57 -10 63 -66q0 -31 -20.5 -53t-53.5 -27h-176q-65 -262 -65 -430q0 -120 30 -213q3 -8 7 -24q0 -32 -21 -54.5t-55 -27.5q-53 0 -72 45q-41 122 -41 266q0 161 64 438h-80q-32 -129 -70.5 -268t-82 -265.5 t-81.5 -183.5q-20 -29 -57 -32q-29 0 -51 17.5t-27 47.5q0 15 8 39q33 71 64 155t50 146.5t45.5 160.5t47.5 183h-45q-83 0 -172 -162q-14 -29 -49 -32h-39q-23 3 -39 19t-16 40z" />
<glyph unicode="&#xa9;" d="M94 63q2 23 19 46l512 571l-136 428q-32 10 -129 10q-27 3 -44 22t-17 48q10 63 74 63q94 0 164 -14t92 -66l334 -1058q3 -9 22 -25.5t19 -40.5t-16 -40t-40 -19h-39q-63 10 -88 67l-147 465l-451 -506q-23 -26 -61 -26q-30 3 -49 24t-19 51z" />
<glyph unicode="&#xaa;" d="M115 569q1 4 1.5 7t0.5 8q21 82 77 154t135.5 114.5t164.5 42.5q144 0 202 -114t76 -285q79 207 143 354q17 27 50 33h39q22 -3 38.5 -19.5t16.5 -40.5q0 -4 -2 -12t-4 -14q-100 -230 -171 -414.5t-134 -388.5q-17 -94 -33.5 -171t-39 -157.5t-44.5 -114.5 q-26 -28 -49 -28q-32 0 -51 22t-19 54q0 36 18 111t41 156.5t39 139.5q1 3 1.5 5.5t0.5 6.5q18 127 21 273q0 163 -27 311t-119 148q-50 0 -97.5 -28t-81.5 -74t-46 -95q-12 -37 -53 -43h-39q-23 3 -39 19t-16 40z" />
<glyph unicode="&#xad;" d="M180 334q0 114 52.5 224t144.5 193t196 117q-35 40 -66 80.5t-52 85.5t-21 88q0 57 35.5 103t91.5 72t111 26q43 0 71.5 -10t81.5 -34t84 -30q29 -6 46.5 -26.5t17.5 -48.5q0 -38 -27 -66.5t-65 -28.5q-28 0 -52 11.5t-63 38.5t-62.5 40t-52.5 13q-26 0 -55 -17t-29 -41 q0 -9 6 -18q18 -43 53.5 -84t95.5 -94.5t69 -61.5q120 -125 120 -305q0 -87 -23.5 -186.5t-74 -191.5t-124.5 -147.5t-169 -55.5q-71 0 -134.5 26.5t-110 75.5t-71 114.5t-24.5 137.5zM330 332q0 -93 52 -155t142 -62q76 0 129.5 72t80 172.5t26.5 175.5q0 130 -82 225 q-92 -16 -172.5 -81.5t-128 -158.5t-47.5 -188z" />
<glyph unicode="&#xae;" d="M117 874v29q6 45 51 58q104 16 187.5 83.5t123.5 167.5q17 39 58 39q40 0 57 -39q28 -67 73.5 -119t109 -87t130.5 -45q43 -13 49 -58v-29q-3 -23 -20 -40t-41 -17q-58 0 -143 41.5t-144 91.5v-882q-5 -30 -25.5 -49t-50.5 -19q-57 6 -67 66v884q-59 -50 -144 -91.5 t-143 -41.5q-24 0 -41 17t-20 40z" />
<glyph unicode="&#xaf;" d="M78 352q0 29 19 49t48 23h320v246h-320q-28 3 -47.5 23.5t-19.5 47.5q0 29 19 49t48 23h320v322q3 29 24 48t48 19q28 0 48 -19t23 -48v-322h320q29 -3 48 -22t19 -50q0 -29 -19.5 -48.5t-47.5 -22.5h-320v-246h320q29 -3 48 -22t19 -50q0 -29 -19.5 -48.5t-47.5 -22.5 h-783q-28 3 -47.5 23.5t-19.5 47.5z" />
<glyph unicode="&#xb0;" d="M78 627q0 122 62 229t167.5 169t229.5 62q93 0 178 -36.5t147 -99t97.5 -147.5t35.5 -177q0 -126 -61 -231t-167 -167.5t-230 -62.5t-230 62.5t-167.5 169t-61.5 229.5zM211 563q12 -62 49 -119t92 -95t121 -50v264h-262zM211 690h262v264q-97 -16 -169.5 -90.5 t-92.5 -173.5zM600 299q98 18 171 92t91 172h-262v-264zM600 690h262q-12 64 -49.5 120.5t-94 95t-118.5 48.5v-264z" />
<glyph unicode="&#xb1;" d="M59 442q0 118 14.5 213t68.5 167.5t157 72.5q49 0 96 -15t88 -44t70 -68q41 60 98 93.5t125 33.5q150 0 194 -132t44 -321q0 -119 -14.5 -214t-68.5 -167.5t-157 -72.5q-72 0 -140.5 33.5t-113.5 93.5q-38 -58 -96.5 -92.5t-126.5 -34.5q-104 0 -156.5 73t-67 168.5 t-14.5 212.5zM193 440q0 -109 13 -201t64 -116q6 -4 27 -4q76 0 115 71t51 162v232q0 71 -47.5 123.5t-116.5 52.5q-106 0 -106 -320zM612 299q0 -71 46.5 -123.5t115.5 -52.5q107 0 107 319q0 110 -13 203t-65 115q-6 4 -27 4q-75 0 -113.5 -71.5t-50.5 -162.5v-231z" />
<glyph unicode="&#xb2;" d="M160 299q0 126 69.5 246t183.5 194t242 74q79 0 151.5 -29.5t121.5 -89.5q10 65 10 117q0 79 -26 156t-82.5 125.5t-137.5 48.5q-46 0 -86.5 -25.5t-62.5 -64.5q16 -27 16 -50q0 -43 -31.5 -73.5t-74.5 -30.5q-35 0 -61.5 24t-26.5 60q0 5 4 27q31 119 118.5 192.5 t208.5 73.5q123 0 211.5 -65.5t134 -172.5t45.5 -227q0 -125 -41 -269t-118 -272.5t-186 -209.5t-242 -81q-69 0 -131.5 23t-109.5 65.5t-73 103t-26 130.5zM309 299q0 -83 54.5 -135.5t138.5 -52.5q72 0 135.5 41.5t110.5 103t81 133.5v6q0 9 15.5 51.5t15.5 69.5 q0 77 -57 119.5t-137 42.5q-90 0 -173 -56t-133.5 -145t-50.5 -178z" />
<glyph unicode="&#xb3;" d="M115 627q0 125 50 243.5t144.5 194.5t222.5 76h359q29 -3 48 -22t19 -50q0 -29 -19 -49t-48 -23h-350q-91 0 -154.5 -55.5t-96 -141t-32.5 -173.5q0 -141 75 -256t208 -115h350q29 -3 48 -22t19 -50q0 -29 -19.5 -48.5t-47.5 -22.5h-359q-128 0 -222.5 75.5t-144.5 194.5 t-50 244z" />
<glyph unicode="&#xb4;" d="M115 184q0 29 19 49t48 23h350q133 0 208 115t75 256q0 88 -32.5 173.5t-96 141t-154.5 55.5h-350q-29 3 -48 24t-19 48q0 29 19 49t48 23h359q98 0 175.5 -44.5t132 -119.5t82 -166t27.5 -184q0 -92 -27.5 -182.5t-82 -166.5t-132 -120.5t-175.5 -44.5h-359 q-28 3 -47.5 23.5t-19.5 47.5z" />
<glyph unicode="&#xb5;" d="M90 45v657q0 114 64 204.5t167 140t216 49.5q82 0 162.5 -28t144.5 -80t101.5 -126t37.5 -160v-657q-3 -28 -23 -48t-49 -20q-27 0 -47.5 20.5t-23.5 47.5v649q0 116 -93 187t-210 71q-74 0 -145 -31.5t-115 -90t-44 -136.5v-649q-3 -27 -23.5 -47.5t-47.5 -20.5t-48 20 t-24 48z" />
<glyph unicode="&#xb6;" d="M90 371v657q3 30 24 49t48 19t47.5 -19.5t23.5 -48.5v-649q0 -78 44 -136.5t115 -90t145 -31.5q117 0 210 72t93 186v649q3 29 23.5 48.5t47.5 19.5q29 0 49 -19t23 -49v-657q0 -86 -37 -158.5t-101 -125.5t-145 -81.5t-163 -28.5t-163.5 28.5t-146 82t-101 125 t-36.5 158.5z" />
<glyph unicode="&#xb8;" d="M106 72q0 27 20.5 47.5t47.5 23.5h649v412h-622q-27 3 -47.5 23.5t-20.5 48.5t20 47t48 24h622v410h-649q-28 3 -48 24t-20 48t20.5 47.5t47.5 23.5h725q30 -3 47.5 -21.5t20.5 -45.5v-1116q-3 -27 -21 -46t-47 -22h-725q-28 3 -48 24t-20 48z" />
<glyph unicode="&#xb9;" d="M78 627q0 122 62 229t167.5 169t229.5 62q93 0 178 -36.5t147 -99t97.5 -147.5t35.5 -177q0 -126 -61 -231t-167 -167.5t-230 -62.5t-230 62.5t-167.5 169t-61.5 229.5zM205 627q0 -101 57 -187l184 187l-184 186q-57 -85 -57 -186zM352 350q83 -57 185 -57t184 57 l-184 187zM352 903l185 -186l184 186q-83 58 -184 58q-100 0 -185 -58zM627 627l184 -187q57 86 57 187t-57 186z" />
<glyph unicode="&#xba;" d="M59 248q0 30 19 50.5t49 25.5h653q-60 93 -78 225q0 56 58 65h28q47 -6 56 -51q22 -159 143 -262q27 -19 27 -49t-27 -49q-121 -103 -143 -262q-9 -44 -56 -52h-28q-58 11 -58 66q18 132 78 225h-655q-60 10 -66 68zM59 1001q0 28 27 50q60 51 96 118t47 144q15 45 58 51 h28q26 -4 42 -22t16 -44q-22 -133 -80 -225h655q27 -4 45 -22t21 -45q0 -30 -18 -50.5t-50 -25.5h-653q58 -92 80 -225q0 -25 -16 -43.5t-42 -22.5h-28q-43 6 -58 51q-22 161 -143 262q-27 22 -27 49z" />
<glyph unicode="&#xbb;" d="M59 627q0 29 27 49q121 101 143 262q14 45 58 51h28q26 -4 42 -22t16 -43q-22 -134 -80 -226h655q60 -10 66 -67q0 -30 -18 -50.5t-50 -25.5h-653q58 -92 80 -225q0 -25 -16 -43.5t-42 -22.5h-28q-43 6 -58 51q-22 160 -143 263q-27 20 -27 49z" />
<glyph unicode="&#xbc;" d="M59 623q0 30 18.5 50t49.5 25h653q-60 95 -78 226q0 56 58 65h28q47 -6 56 -51q22 -161 143 -262q27 -19 27 -49t-27 -49q-121 -103 -143 -263q-10 -45 -56 -51h-28q-58 9 -58 66q18 130 78 225h-655q-60 10 -66 68z" />
<glyph unicode="&#xbd;" d="M78 473q0 28 19 47.5t48 24.5h291l51 166h-342q-28 3 -47.5 22.5t-19.5 48.5q0 28 19 47.5t48 24.5h385l134 430q17 53 69 53q30 0 51 -21t21 -50q0 -13 -2 -17l-121 -395h246q29 -5 48 -23.5t19 -48.5q0 -31 -19.5 -49.5t-47.5 -21.5h-291l-51 -166h342q29 -5 48 -23.5 t19 -48.5t-18.5 -48.5t-48.5 -23.5h-385l-133 -434q-19 -53 -70 -53q-28 0 -50 22t-22 50q0 12 2 18l123 397h-248q-30 5 -48.5 24.5t-18.5 47.5z" />
<glyph unicode="&#xbe;" d="M31 627q0 28 18 49l440 438q21 19 48 19q25 0 49 -19l438 -438q18 -21 18 -49q0 -29 -18 -47l-438 -441q-22 -18 -49 -18q-28 0 -48 18l-440 441q-18 18 -18 47zM205 627l332 -332l333 332l-333 334z" />
<glyph unicode="&#xbf;" d="M115 29q0 27 19.5 47.5t47.5 23.5h709q28 -3 47.5 -22.5t19.5 -48.5t-19 -49t-48 -23h-709q-29 3 -48 24t-19 48zM115 780q0 38 37 62l700 442q20 8 35 8q29 0 50 -21t21 -50q0 -36 -34 -62l-602 -379l602 -379q34 -27 34 -63q0 -28 -21 -50t-50 -22q-18 0 -35 10 l-700 441q-37 23 -37 63z" />
<glyph unicode="&#xc0;" d="M115 29q0 27 19.5 47.5t47.5 23.5h709q28 -3 47.5 -22.5t19.5 -48.5t-19 -49t-48 -23h-709q-29 3 -48 24t-19 48zM115 338q0 37 37 63l600 379l-600 379q-37 24 -37 62q0 29 21 50t50 21q13 0 37 -8l701 -442q34 -25 34 -62q0 -39 -34 -63l-701 -441q-20 -10 -37 -10 q-29 0 -50 22t-21 50z" />
<glyph unicode="&#xc1;" d="M78 317q0 29 19 49t48 23h783q29 -3 48 -22t19 -50q0 -30 -19 -49t-48 -22h-783q-29 3 -48 23t-19 48zM78 627q0 27 19.5 47.5t47.5 23.5h783q28 -3 47.5 -22.5t19.5 -48.5t-19 -49t-48 -23h-783q-29 3 -48 24t-19 48zM78 936q0 29 19 49t48 23h783q29 -3 48 -22t19 -50 q0 -29 -19 -49t-48 -23h-783q-29 3 -48 24t-19 48z" />
<glyph unicode="&#xc2;" d="M90 1024q0 30 22 51t50 21q41 0 65 -41l310 -805l309 805q24 41 65 41q30 0 51 -21t21 -51q0 -15 -6 -29l-375 -975q-23 -43 -65 -43q-43 0 -66 43l-375 975q-6 13 -6 29z" />
<glyph unicode="&#xc3;" />
<glyph unicode="&#xc4;" d="M113 -229q0 35 22 57t58 22q28 -3 48.5 -22.5t20.5 -48.5q0 -90 12 -123q32 0 54 37.5t32.5 83.5t18.5 94l170 1077q56 326 252 326q89 0 124.5 -74.5t35.5 -173.5q0 -34 -22 -57t-56 -23q-28 3 -50 23.5t-22 48.5q0 90 -12 123q-25 0 -43 -23.5t-30 -59.5t-19 -73.5 t-11 -58.5l-170 -1078q-24 -136 -82 -230.5t-172 -94.5q-87 0 -123 75t-36 173z" />
<glyph unicode="&#x2000;" horiz-adv-x="710" />
<glyph unicode="&#x2001;" horiz-adv-x="1421" />
<glyph unicode="&#x2002;" horiz-adv-x="710" />
<glyph unicode="&#x2003;" horiz-adv-x="1421" />
<glyph unicode="&#x2004;" horiz-adv-x="473" />
<glyph unicode="&#x2005;" horiz-adv-x="355" />
<glyph unicode="&#x2006;" horiz-adv-x="236" />
<glyph unicode="&#x2007;" horiz-adv-x="236" />
<glyph unicode="&#x2008;" horiz-adv-x="177" />
<glyph unicode="&#x2009;" horiz-adv-x="284" />
<glyph unicode="&#x200a;" horiz-adv-x="78" />
<glyph unicode="&#x2010;" d="M115 627q0 27 19.5 47.5t47.5 23.5h709q28 -3 47.5 -22.5t19.5 -48.5t-19 -49t-48 -23h-709q-29 3 -48 24t-19 48z" />
<glyph unicode="&#x2011;" d="M115 627q0 27 19.5 47.5t47.5 23.5h709q28 -3 47.5 -22.5t19.5 -48.5t-19 -49t-48 -23h-709q-29 3 -48 24t-19 48z" />
<glyph unicode="&#x2012;" d="M115 627q0 27 19.5 47.5t47.5 23.5h709q28 -3 47.5 -22.5t19.5 -48.5t-19 -49t-48 -23h-709q-29 3 -48 24t-19 48z" />
<glyph unicode="&#x2013;" horiz-adv-x="1256" d="M115 627q0 27 23.5 47.5t57.5 23.5h862q34 -3 57.5 -22.5t23.5 -48.5t-23 -49t-58 -23h-862q-35 3 -58 24t-23 48z" />
<glyph unicode="&#x2014;" horiz-adv-x="2280" d="M115 627q0 27 47.5 47.5t115.5 23.5h1722q68 -3 115.5 -22.5t47.5 -48.5t-46 -49t-117 -23h-1722q-71 3 -117 24t-46 48z" />
<glyph unicode="&#x202f;" horiz-adv-x="284" />
<glyph unicode="&#x205f;" horiz-adv-x="355" />
<glyph unicode="&#x2219;" d="M0 1180q0 29 22 50t50 21q42 0 65 -41l105 -256h589l105 256q23 41 65 41q30 0 51 -21t21 -50q0 -17 -6 -29l-465 -1131q-23 -43 -65 -43q-43 0 -66 43l-465 1131q-6 12 -6 29zM301 811l236 -573l235 573h-471z" />
<glyph unicode="&#xe000;" horiz-adv-x="885" d="M0 885h885v-885h-885v885z" />
</font>
</defs>
</svg>
