<?xml version="1.0" standalone="no"?>
<!DOCTYPE svg PUBLIC "-//W3C//DTD SVG 1.1//EN" "http://www.w3.org/Graphics/SVG/1.1/DTD/svg11.dtd" >
<svg xmlns="http://www.w3.org/2000/svg">
<metadata>
This is a custom SVG webfont generated by Font Squirrel.
Copyright   : Copyright C 1994 Basil K Malyshev All Rights Reserved012BaKoMa Fonts Collection LevelB
</metadata>
<defs>
<font id="cmtex9Regular" horiz-adv-x="1075" >
<font-face units-per-em="2048" ascent="1638" descent="-410" />
<missing-glyph horiz-adv-x="500" />
<glyph unicode=" " />
<glyph unicode="!" d="M428 104v11q0 40 32 71t72 31h11q40 0 71 -31t31 -71v-11q0 -40 -31 -72t-71 -32h-11q-40 0 -72 32t-32 72zM428 1163q0 45 32 78t77 33q28 0 53 -14t40 -39t15 -52l-20 -725q-3 -24 -19 -40t-41 -19h-55q-56 6 -59 59z" />
<glyph unicode="&#x22;" d="M256 1167v13q0 23 13 45.5t35.5 35.5t45.5 13h10q24 0 46.5 -13t35.5 -35.5t13 -45.5v-11l-29 -438q-8 -50 -59 -59h-21q-52 9 -61 59zM618 1167v13q0 36 29 65t66 29h10q23 0 45.5 -13t35.5 -35.5t13 -45.5v-11l-29 -438q-9 -50 -59 -59h-20q-53 9 -62 59z" />
<glyph unicode="#" d="M72 399v11q4 29 22.5 47.5t48.5 23.5h121l35 289h-156q-61 9 -71 72v10q10 63 71 72h176l33 256q9 61 72 71h10q63 -10 72 -71v-11l-31 -245h197l33 256q4 29 22.5 47.5t48.5 23.5h10q63 -10 72 -71v-11l-31 -245h103q61 -9 71 -72v-10q-10 -63 -71 -72h-123l-35 -289 h158q29 -4 48 -23t23 -48v-11q-5 -30 -23.5 -48.5t-47.5 -22.5h-178l-31 -256q-10 -62 -72 -72h-10q-62 10 -72 72v10l29 246h-197l-30 -256q-11 -63 -72 -72h-10q-62 10 -72 72v10l29 246h-101q-30 5 -48 23t-23 48zM420 481h196l35 289h-196z" />
<glyph unicode="$" d="M119 352q0 45 28 74t72 29q41 0 69.5 -28.5t28.5 -70.5t-28 -73q13 -58 63 -95.5t115 -50.5v447q-152 33 -250 115.5t-98 222.5q0 93 49 163.5t130 115t169 56.5v105q9 50 61 59h21q50 -9 59 -59v-105q76 -8 137.5 -32.5t107.5 -65t73.5 -101.5t27.5 -134q0 -43 -28 -73 t-70 -30t-71 29t-29 72q0 38 28 69q-34 100 -176 123v-397q149 -31 247.5 -124t98.5 -237q0 -92 -48 -170.5t-127.5 -128t-170.5 -61.5v-107q-9 -50 -59 -59h-21q-52 9 -61 59v105q-153 17 -250.5 111.5t-97.5 246.5zM266 930q0 -71 61 -118.5t140 -63.5v366 q-78 -14 -139.5 -63.5t-61.5 -120.5zM608 139q82 20 140.5 75.5t58.5 131.5q0 53 -27.5 95.5t-72.5 71.5t-99 42v-416z" />
<glyph unicode="%" d="M72 1149q0 97 44.5 184.5t133.5 87.5t133.5 -87.5t44.5 -184.5q0 -62 -18 -124.5t-58 -106.5t-102 -44t-102 44t-58 106.5t-18 124.5zM174 -88q0 13 6 22l572 1438q18 43 65 49h10q63 -10 72 -71v-11q0 -10 -4 -22l-571 -1438q-22 -43 -68 -49h-10q-62 10 -72 72v10z M203 1149q0 -36 12.5 -82t34.5 -51q22 7 34.5 52t12.5 81q0 21 -5.5 51.5t-15.5 53t-26 26.5q-23 -8 -35 -52.5t-12 -78.5zM645 102q0 98 44.5 185.5t133.5 87.5t133.5 -87.5t44.5 -185.5q0 -97 -45 -184.5t-133 -87.5t-133 87.5t-45 184.5zM776 102q0 -34 12 -78.5 t35 -52.5q16 4 26 27t15.5 53t5.5 51q0 35 -12 80t-35 51q-22 -5 -34.5 -51t-12.5 -80z" />
<glyph unicode="&#x26;" d="M57 283v10q0 65 23.5 127.5t64.5 103.5l115 117q-57 165 -57 330v10q0 110 59.5 201.5t163.5 91.5h10q69 0 112.5 -45.5t62 -113t18.5 -134.5v-10q0 -97 -57.5 -185t-155.5 -188q50 -111 139 -250q57 116 131 318l29 77q-41 17 -47 60v20q9 51 59 60h217q49 -9 60 -60 v-20q-10 -51 -60 -62h-90l-47 -127q-43 -117 -81.5 -209.5t-86.5 -177.5q48 -52 83 -80t81 -28q32 0 47.5 36t15.5 74q9 53 62 62h10q50 -9 59 -62v-10q0 -88 -50 -165t-138 -77h-10q-118 0 -238 136q-48 -59 -114 -97.5t-134 -38.5h-10q-75 0 -131 45.5t-85.5 117.5 t-29.5 143zM217 293q0 -59 21 -116.5t69 -57.5q88 0 170 106q-84 122 -160 273l-47 -49q-53 -53 -53 -156zM334 975q0 -117 31 -225q61 69 97 121.5t36 107.5q-164 0 -164 -4z" />
<glyph unicode="'" d="M360 680q0 33 23 49q57 36 97.5 76t61.5 90t21 117v24q-9 0 -14.5 -0.5t-11.5 -1.5q-45 0 -77 32t-32 77q0 47 33 77.5t80 30.5q84 0 124 -73.5t40 -165.5q0 -84 -30 -160.5t-84.5 -138.5t-127.5 -99q-11 -8 -29 -8q-28 0 -51 23t-23 51z" />
<glyph unicode="(" d="M346 627q0 124 30 238t86 212.5t140.5 186t185.5 151.5q10 6 25 6h23q26 -3 42.5 -20.5t16.5 -42.5q0 -35 -27 -51q-172 -110 -267 -293t-95 -387q0 -138 42.5 -267t124.5 -236t195 -179q27 -17 27 -51q0 -24 -16.5 -42.5t-42.5 -21.5h-23q-14 0 -25 6 q-139 86 -238.5 208.5t-151.5 271t-52 311.5z" />
<glyph unicode=")" d="M178 -106q0 34 27 51q113 72 195 179t124.5 236t42.5 267q0 103 -24.5 201.5t-70.5 186.5t-113 162t-154 130q-27 16 -27 51q0 25 17.5 42.5t42.5 20.5h22q15 0 27 -6q105 -65 186 -150t138.5 -187t86.5 -214.5t29 -236.5q0 -249 -115 -453.5t-325 -337.5q-12 -6 -27 -6 h-22q-25 3 -42.5 21.5t-17.5 42.5z" />
<glyph unicode="*" d="M139 442q0 19 11 38.5t26 27.5l219 119l-219 116q-37 22 -37 66q0 33 22.5 54.5t53.5 21.5q22 0 37 -11l215 -129l-6 248q0 31 22.5 52.5t53.5 21.5q18 0 36.5 -10t28.5 -28.5t10 -37.5l-6 -246l215 129q16 11 37 11q33 0 54.5 -21.5t21.5 -54.5q0 -45 -37 -66l-219 -116 l219 -119q37 -19 37 -66q0 -31 -22 -53t-54 -22q-21 0 -37 10l-215 129l6 -248q0 -32 -22 -53t-53 -21t-53.5 22.5t-22.5 53.5l6 246l-215 -129q-15 -10 -37 -10q-30 0 -53 22t-23 53z" />
<glyph unicode="+" d="M76 621v10q9 61 71 71h314v314q9 61 71 71h11q29 -4 48 -23t23 -48v-314h312q29 -4 48 -23t23 -48v-10q-10 -63 -71 -72h-312v-313q-10 -63 -71 -72h-11q-61 10 -71 72v313h-314q-61 10 -71 72z" />
<glyph unicode="," d="M362 -211q0 44 48 61q55 15 97.5 55.5t57.5 96.5q-8 0 -12 -2h-14q-57 0 -96.5 38.5t-39.5 96.5q0 56 39.5 94.5t96.5 38.5q79 0 127.5 -62.5t48.5 -146.5q0 -81 -33 -150t-91.5 -118t-139.5 -74q-5 -2 -17 -2q-27 0 -49.5 23.5t-22.5 50.5z" />
<glyph unicode="-" d="M115 621v10q4 29 22.5 47.5t48.5 23.5h701q29 -4 48 -23t23 -48v-10q-10 -63 -71 -72h-701q-61 9 -71 72z" />
<glyph unicode="." d="M403 135q0 53 40 93t96 40q33 0 65 -18.5t50 -48.5t18 -66q0 -57 -39 -96t-94 -39q-56 0 -96 40t-40 95z" />
<glyph unicode="/" d="M119 -88q0 11 8 29l682 1439q19 35 63 41h11q29 -4 48 -23t23 -48v-11q0 -12 -8 -28l-682 -1440q-19 -35 -63 -41h-11q-61 10 -71 72v10z" />
<glyph unicode="0" d="M94 627q0 98 28 213t82 212.5t138.5 159.5t194.5 62t194 -61.5t139.5 -162t82 -210t26.5 -213.5t-26.5 -213.5t-82 -211t-140 -163.5t-193.5 -62t-194 62.5t-139.5 161t-82 214t-27.5 212.5zM254 651q0 -72 15.5 -161.5t49 -174t88.5 -140.5t130 -56q77 0 130.5 54.5 t88 142t49 175.5t14.5 160q0 96 -29.5 208.5t-93.5 193t-159 80.5q-96 0 -160 -80.5t-93.5 -193t-29.5 -208.5z" />
<glyph unicode="1" d="M207 942v21q9 52 59 61q88 0 156 68q27 27 67 94.5t46 73.5q10 10 34 14h19q50 -9 59 -60v-1073h209q50 -9 59 -59v-21q-9 -52 -59 -61h-577q-51 9 -60 61v21q9 50 60 59h208v822q-98 -80 -211 -80h-10q-50 9 -59 59z" />
<glyph unicode="2" d="M106 61v19q4 26 29 51l332 277q107 89 143.5 119.5t86 87t80 119.5t30.5 134q0 125 -93.5 195t-221.5 70q-67 0 -128 -36t-85 -96q26 -32 26 -67q0 -40 -28.5 -70t-69.5 -30q-43 0 -72 30t-29 72q0 102 58.5 179t151.5 118t190 41q123 0 228 -48.5t169 -140.5t64 -217 q0 -117 -57 -214.5t-131.5 -167t-207.5 -177.5l-202 -168h438v39q9 49 61 60h39q51 -11 60 -60v-119q-9 -52 -60 -61h-739q-51 9 -62 61z" />
<glyph unicode="3" d="M90 272q0 45 28 74t72 29q27 0 50 -13t36 -36t13 -50q0 -32 -21 -61q34 -52 114 -74t159 -22q70 0 135 30t106 85.5t41 127.5q0 73 -41.5 128t-108.5 84.5t-136 29.5h-119q-54 7 -60 62v20q3 24 19 40t41 19l135 11q55 0 104.5 32.5t78 84.5t28.5 108q0 71 -73 111.5 t-150 40.5q-146 0 -207 -54q14 -28 14 -53q0 -40 -29 -69t-69 -29q-45 0 -72.5 29t-27.5 73q0 134 120 189t271 55q88 0 177 -34t147.5 -100.5t58.5 -158.5q0 -89 -43.5 -168.5t-118.5 -130.5q96 -45 158.5 -131t62.5 -189q0 -85 -37.5 -156.5t-100 -122.5t-144.5 -78.5 t-160 -27.5q-107 0 -209 28.5t-172 95.5t-70 171z" />
<glyph unicode="4" d="M59 406v61q0 20 11 33l469 737q23 33 61 33h115q26 0 45.5 -19.5t19.5 -46.5v-719h174q51 -9 60 -59v-20q-9 -53 -60 -62h-174v-203h150q50 -9 59 -59v-21q-9 -52 -59 -61h-430q-51 9 -60 61v21q9 50 60 59h149v203h-528q-51 9 -62 62zM223 485h426v668z" />
<glyph unicode="5" d="M106 291q0 44 28 73t73 29q40 0 69 -29t29 -69q0 -36 -22 -66q30 -55 91 -82.5t130 -27.5q117 0 210 76t93 192q0 66 -31 128.5t-86.5 101t-122.5 38.5q-97 0 -146.5 -24t-92 -64.5t-66.5 -44.5h-31q-50 9 -59 62v608q9 50 59 59h605q50 -9 59 -59v-21q-9 -52 -59 -61 h-504v-367q101 54 231 54h10q82 0 154 -32.5t126 -90.5t84 -133t30 -154q0 -91 -38.5 -166t-105 -129.5t-149.5 -84.5t-170 -30q-68 0 -138.5 20t-130 61.5t-94.5 100.5t-35 132z" />
<glyph unicode="6" d="M98 627q0 158 69.5 309t197.5 244.5t290 93.5q74 0 136.5 -24t100.5 -74t38 -123q0 -45 -27.5 -74t-71.5 -29q-40 0 -70 28.5t-30 70.5q0 16 2 24q5 15 10 25q0 2 2.5 4.5t2.5 3.5q-34 27 -93 27q-81 0 -148.5 -35.5t-119.5 -98.5t-83 -138t-42 -154q59 51 138 78.5 t163 27.5q87 0 161 -31.5t131.5 -89.5t88.5 -134t31 -163q0 -118 -59 -213.5t-160 -150t-219 -54.5q-164 0 -262 97.5t-137.5 245t-39.5 307.5zM279 457q0 -12 4 -32t4 -30q0 -3 -2 -10t-2 -10q26 -107 89.5 -181.5t164.5 -74.5q77 0 140.5 36.5t100.5 101t37 138.5 q0 77 -34.5 139t-96.5 99t-135 37q-60 0 -124 -25.5t-105 -74.5t-41 -113z" />
<glyph unicode="7" d="M90 1073v152q9 50 62 59h38q32 -6 52 -33h682q50 -9 59 -59v-21q-3 -18 -8 -28q-9 -14 -21 -25l-24 -22q-93 -93 -168 -199q-63 -88 -109 -184q-155 -308 -155 -656v-4q0 -28 -23 -52t-51 -24h-10q-28 0 -52 24t-24 52v10q0 191 47.5 377.5t139 358t218.5 311.5h-493v-37 q-9 -52 -60 -61h-38q-53 9 -62 61z" />
<glyph unicode="8" d="M90 362q0 73 40 138t104 109.5t137 66.5q-63 19 -120.5 55.5t-94.5 90.5t-37 118q0 101 62 177.5t159 116.5t197 40q99 0 196 -40t159 -116.5t62 -177.5q0 -64 -37 -118t-94.5 -90.5t-120.5 -55.5q73 -22 137 -66.5t104 -109.5t40 -138q0 -113 -64.5 -201t-169 -136 t-212.5 -48q-109 0 -213.5 48t-169 136t-64.5 201zM250 362q0 -72 42 -127.5t107.5 -85.5t137.5 -30q109 0 197.5 68t88.5 175q0 72 -42 127.5t-108.5 85t-135.5 29.5q-71 0 -137 -29.5t-108 -85t-42 -127.5zM279 940q0 -61 39.5 -105t99 -67t119.5 -23q59 0 119.5 23 t99.5 67t39 105q0 60 -39.5 104t-100 66.5t-118.5 22.5q-59 0 -118.5 -22.5t-99.5 -66.5t-40 -104z" />
<glyph unicode="9" d="M98 856q0 92 35.5 169.5t98 132.5t144.5 85.5t173 30.5q124 0 208 -59.5t131 -154.5t67 -206.5t20 -226.5t-36.5 -232t-105.5 -211.5t-168 -150.5t-219 -56q-124 0 -213.5 53t-89.5 171q0 42 29 72t72 30q41 0 69.5 -29.5t28.5 -70.5q0 -17 -2 -25l-4 -14q-8 -8 -8 -14 q34 -31 118 -31q102 0 180.5 64t125 162t59.5 202q-122 -107 -301 -107q-114 0 -208 55.5t-149 151.5t-55 209zM258 856q0 -76 34.5 -138.5t96.5 -99t135 -36.5q65 0 127.5 26t103 75.5t40.5 113.5q0 6 -1.5 18t-3.5 23.5t-2 17.5q1 6 2 12.5t1 8.5q-24 104 -85.5 180 t-158.5 76q-77 0 -144 -36t-106 -100t-39 -141z" />
<glyph unicode=":" d="M403 135q0 53 40 93t96 40q33 0 65 -18.5t50 -48.5t18 -66q0 -57 -39 -96t-94 -39q-56 0 -96 40t-40 95zM403 750q0 53 40 93t96 40q34 0 65 -18.5t49.5 -49.5t18.5 -65q0 -56 -40 -96t-93 -40q-54 0 -95 41t-41 95z" />
<glyph unicode=";" d="M362 -211q0 35 23 49q27 17 51.5 33t42.5 32t31.5 40t21.5 57q-36 0 -65.5 18.5t-46.5 49.5t-17 67q0 56 39.5 94.5t96.5 38.5q51 0 83.5 -31t46 -79.5t13.5 -98.5q0 -108 -59.5 -201t-157.5 -137q-15 -6 -31 -6q-27 0 -49.5 23.5t-22.5 50.5zM403 750q0 53 40 93t96 40 q34 0 65 -18.5t49.5 -49.5t18.5 -65q0 -56 -40 -96t-93 -40q-54 0 -95 41t-41 95z" />
<glyph unicode="&#x3c;" d="M115 623v10q7 41 37 59l696 445q12 8 29 8h10q61 -9 71 -72v-10q-6 -40 -36 -59l-588 -377l594 -379q24 -23 30 -58v-10q-5 -30 -23.5 -48.5t-47.5 -22.5h-10q-20 0 -35 12l-697 444q-24 20 -30 58z" />
<glyph unicode="=" d="M76 467v10q10 62 71 72h779q61 -9 71 -72v-10q-10 -63 -71 -72h-779q-61 10 -71 72zM76 776v10q10 62 71 72h779q61 -9 71 -72v-10q-5 -30 -23.5 -48.5t-47.5 -22.5h-779q-62 10 -71 71z" />
<glyph unicode="&#x3e;" d="M115 180v10q6 40 37 62l587 375l-594 381q-24 18 -30 55v10q10 63 71 72h11q17 0 34 -10l697 -447q23 -18 30 -55v-10q-6 -43 -36 -62l-695 -444q-16 -8 -30 -8h-11q-30 5 -48 23t-23 48z" />
<glyph unicode="?" d="M127 1008q0 89 58.5 146.5t146 82.5t174.5 25q102 0 200.5 -20.5t169 -77.5t70.5 -158q0 -43 -17 -81.5t-49 -69.5t-67 -48q-60 -32 -109 -74t-79.5 -96.5t-30.5 -118.5v-74q-3 -24 -19 -40t-40 -19h-56q-56 6 -59 59v80q0 131 88.5 234t220.5 172q57 28 57 76 q0 68 -89.5 91t-188.5 23q-135 0 -199 -59q0 -1 10 -19l5 -14q2 -6 2 -22q0 -41 -28 -71t-71 -30q-42 0 -71 30t-29 73zM397 104v11q0 40 32 71t73 31h10q40 0 71 -31t31 -71v-11q0 -40 -31 -72t-71 -32h-10q-41 0 -73 32t-32 72z" />
<glyph unicode="@" d="M90 627q0 155 65.5 302t189 240t282.5 93q117 0 190.5 -61.5t108.5 -158t46 -200t11 -215.5q0 -96 -34 -190.5t-101 -158t-164 -63.5t-165 63.5t-102 158t-34 190.5q0 93 34 188t102.5 158t164.5 63q57 0 111 -28q-23 51 -69 81.5t-101 30.5q-121 0 -213 -73.5 t-141.5 -189t-49.5 -230.5q0 -117 49.5 -232.5t141.5 -189.5t213 -74q63 0 103 19t82 51t62 35h52q25 -3 42 -21t17 -43q0 -27 -22 -49q-64 -62 -153.5 -97.5t-180.5 -35.5q-159 0 -282.5 93t-189 240t-65.5 304zM514 627q0 -51 18.5 -116t57 -110t94.5 -45q54 0 92.5 45 t57 110t18.5 116q0 88 -44 178t-124 90q-56 0 -94.5 -45t-57 -109.5t-18.5 -113.5z" />
<glyph unicode="A" d="M57 61v21q9 50 62 59h63l238 1073q6 27 29.5 46.5t52.5 19.5h69q29 0 52.5 -19.5t29.5 -46.5l238 -1073h63q53 -9 62 -59v-21q-9 -52 -62 -61h-282q-53 9 -62 61v21q9 50 62 59h57q-8 36 -13.5 58.5t-12 50.5t-13.5 63h-307q-7 -35 -13.5 -63t-12 -50.5t-13.5 -58.5h57 q53 -9 62 -59v-21q-9 -52 -62 -61h-282q-53 9 -62 61zM414 455h245q-120 559 -120 637h-2q0 -44 -38.5 -239t-84.5 -398z" />
<glyph unicode="B" d="M37 61v21q9 50 61 59h80v969h-80q-52 9 -61 61v21q9 50 61 59h504q88 0 167 -42t127 -115.5t48 -163.5q0 -95 -61.5 -168.5t-153.5 -106.5q109 -25 183.5 -111t74.5 -198q0 -70 -26.5 -132t-74 -110.5t-109 -76t-132.5 -27.5h-547q-52 9 -61 61zM338 141h264q87 0 156 59 t69 146q0 59 -26 112.5t-72.5 87.5t-105.5 34h-285v-439zM338 721h221q57 0 109 27t84 75t32 107q0 48 -25 89.5t-66.5 66t-90.5 24.5h-264v-389z" />
<glyph unicode="C" d="M82 627q0 149 57.5 299.5t169.5 249t264 98.5q72 0 138.5 -24t117.5 -66l33 59q20 25 51 31h19q24 -3 40 -18t19 -42v-340q-3 -26 -19 -42t-40 -19h-41q-53 7 -60 55q-8 70 -39.5 129t-83.5 97.5t-120 38.5q-85 0 -149.5 -47.5t-109 -126.5t-66 -167t-21.5 -165 q0 -109 39 -228t117.5 -199.5t189.5 -80.5q65 0 121 32t89 87.5t33 121.5q8 54 60 60h41q25 -3 42 -21.5t17 -44.5q0 -107 -59.5 -194t-156.5 -135t-202 -48q-152 0 -264 99t-169.5 249.5t-57.5 301.5z" />
<glyph unicode="D" d="M29 61v21q9 50 61 59h70v969h-70q-52 9 -61 61v21q9 50 61 59h467q108 0 192 -60.5t137.5 -157.5t80 -208t26.5 -211q0 -136 -50 -279.5t-148.5 -239t-237.5 -95.5h-467q-52 9 -61 61zM319 141h197q80 0 140.5 46t98.5 115.5t58.5 154.5t20.5 157q0 104 -34 219t-106 196 t-178 81h-197v-969z" />
<glyph unicode="E" d="M41 61v21q9 50 61 59h86v969h-86q-52 9 -61 61v21q9 50 61 59h822q50 -9 59 -59v-217q-9 -51 -59 -62h-39q-53 11 -62 62v135h-475v-391h250v57q9 49 61 60h39q51 -11 60 -60v-254q-9 -52 -60 -61h-39q-52 9 -61 61v56h-250v-437h520v170q9 51 62 60h39q50 -9 59 -60 v-250q-9 -52 -59 -61h-867q-52 9 -61 61z" />
<glyph unicode="F" d="M47 61v21q9 50 62 59h92v969h-92q-53 9 -62 61v21q9 50 62 59h835q49 -9 60 -59v-217q-10 -51 -60 -62h-39q-52 10 -61 62v135h-484v-414h258v58q11 50 62 59h39q50 -9 59 -59v-254q-9 -53 -59 -62h-39q-51 9 -62 62v55h-258v-414h132q52 -9 61 -59v-21q-9 -52 -61 -61 h-383q-53 9 -62 61z" />
<glyph unicode="G" d="M76 627q0 140 51 292t154.5 253.5t250.5 101.5q129 0 230 -84l29 53q19 25 51 31h18q52 -6 60 -60v-340q-8 -55 -60 -61h-41q-41 6 -55 41q-7 25 -14.5 64.5t-18 66t-35.5 62.5q-26 39 -66 62.5t-85 23.5q-102 0 -172 -84t-103.5 -204t-33.5 -218q0 -102 33 -221 t102 -203t170 -84q100 0 150.5 92t64.5 207h-109q-50 9 -59 61v21q9 50 59 59h307q53 -9 62 -59v-21q-9 -52 -62 -61h-34v-359q-11 -52 -60 -61h-39q-28 5 -44.5 22.5t-16.5 42.5v5q-48 -45 -105.5 -68t-122.5 -23q-111 0 -197.5 60t-145 160.5t-86 213.5t-27.5 216z" />
<glyph unicode="H" d="M33 61v21q9 50 59 59h76v969h-76q-50 9 -59 61v21q9 50 59 59h311q51 -9 60 -59v-21q-9 -52 -60 -61h-75v-389h417v389h-75q-51 9 -60 61v21q9 50 60 59h311q50 -9 59 -59v-21q-9 -52 -59 -61h-76v-969h76q50 -9 59 -59v-21q-9 -52 -59 -61h-311q-51 9 -60 61v21 q9 50 60 59h75v439h-417v-439h75q51 -9 60 -59v-21q-9 -52 -60 -61h-311q-50 9 -59 61z" />
<glyph unicode="I" d="M147 61v21q11 50 62 59h248v969h-248q-51 9 -62 61v21q11 50 62 59h655q53 -9 62 -59v-21q-9 -52 -62 -61h-248v-969h248q53 -9 62 -59v-21q-9 -52 -62 -61h-655q-51 9 -62 61z" />
<glyph unicode="J" d="M129 203v10q0 23 13 45.5t35.5 35.5t45.5 13h10q24 0 46.5 -13t35.5 -35.5t13 -45.5v-10q0 -17 -13 -43q50 -41 166 -41q71 0 132 40.5t61 108.5v842h-195q-50 9 -59 61v21q9 50 59 59h441q52 -9 61 -59v-21q-9 -52 -61 -61h-86v-852q0 -83 -52.5 -147.5t-135 -99 t-159.5 -34.5h-10q-130 0 -239 54.5t-109 171.5z" />
<glyph unicode="K" d="M43 61v21q9 50 61 59h70v969h-70q-52 9 -61 61v21q9 50 61 59h271q52 -9 61 -59v-21q-9 -52 -61 -61h-70v-504l402 504h-19q-49 8 -61 61v21q12 51 61 59h246q50 -9 59 -59v-21q-9 -52 -59 -61h-60l-303 -381l332 -588h51q51 -9 60 -59v-21q-9 -52 -60 -61h-219 q-52 9 -61 61v21q9 50 61 59h17l-269 477l-178 -225v-252h70q52 -9 61 -59v-21q-9 -52 -61 -61h-271q-52 9 -61 61z" />
<glyph unicode="L" d="M53 61v21q9 50 60 59h100v969h-100q-51 9 -60 61v21q9 50 60 59h399q52 -9 61 -59v-21q-9 -52 -61 -61h-139v-969h467v168q9 53 61 62h39q50 -9 59 -62v-248q-9 -52 -59 -61h-827q-51 9 -60 61z" />
<glyph unicode="M" d="M25 61v21q9 50 61 59h49v969h-49q-52 9 -61 61v21q9 50 61 59h176q32 0 56.5 -17.5t33.5 -47.5q36 -106 80 -243t74.5 -240.5t30.5 -124.5q1 20 30.5 121t80 260.5t73.5 226.5q9 30 33.5 47.5t56.5 17.5h176q51 -9 62 -59v-21q-11 -52 -62 -61h-49v-969h49q51 -9 62 -59 v-21q-11 -52 -62 -61h-229q-53 9 -62 61v21q9 50 62 59h49v951q-2 -59 -184 -609q-8 -29 -32.5 -47t-53.5 -18t-53.5 18.5t-32.5 46.5q-183 563 -185 609v-951h49q53 -9 62 -59v-21q-9 -52 -62 -61h-229q-52 9 -61 61z" />
<glyph unicode="N" d="M47 61v21q9 50 59 59h76v969h-76q-50 9 -59 61v21q9 50 59 59h203q33 0 58 -18t34 -47q118 -328 238 -668t121 -358v950h-76q-50 9 -59 61v21q9 50 59 59h283q50 -9 59 -59v-21q-9 -52 -59 -61h-76v-1049q-9 -52 -60 -61h-67q-29 0 -56 18.5t-36 47.5q-34 98 -90.5 254.5 t-125 350t-105.5 302.5t-38 119v-951h76q49 -9 60 -59v-21q-11 -52 -60 -61h-283q-50 9 -59 61z" />
<glyph unicode="O" d="M115 627q0 131 3 223.5t18 182t46 138.5q45 67 135.5 85t219.5 18q128 0 218.5 -18t135.5 -85q31 -49 46 -138.5t18 -182t3 -223.5q0 -133 -3 -225.5t-18 -182.5t-46 -139q-32 -47 -91.5 -70t-120 -28t-142.5 -5q-129 0 -219 18t-136 85q-24 39 -37 96.5t-20 134.5 t-8.5 147.5t-1.5 168.5zM274 651q0 -166 6.5 -277.5t34.5 -170.5q28 -53 85 -68.5t137 -15.5t137 15.5t84 68.5q27 56 34 169t7 279q0 328 -41 406q-27 49 -83 62.5t-138 13.5q-83 0 -138 -13t-84 -63q-41 -78 -41 -406z" />
<glyph unicode="P" d="M41 61v21q9 50 61 59h86v969h-86q-52 9 -61 61v21q9 50 61 59h502q103 0 189.5 -52t138 -141t51.5 -190q0 -102 -51.5 -190t-139.5 -140.5t-188 -52.5h-256v-344h86q51 -9 62 -59v-21q-11 -52 -62 -61h-332q-52 9 -61 61zM348 627h215q103 0 181.5 69.5t78.5 171.5 q0 67 -36.5 123t-96 87.5t-127.5 31.5h-215v-483z" />
<glyph unicode="Q" d="M115 627q0 131 3 223.5t18 182t46 138.5q45 67 135.5 85t219.5 18q128 0 218.5 -18t135.5 -85q31 -49 46 -138.5t18 -182t3 -223.5q0 -133 -3 -225.5t-18 -182.5t-46 -139q-32 -47 -86 -70l119 -229q6 -9 6 -21q0 -18 -13.5 -31.5t-31.5 -13.5h-82q-36 0 -53 33l-117 232 q-31 -3 -96 -3q-129 0 -219 18t-136 85q-24 39 -37 96.5t-20 134.5t-8.5 147.5t-1.5 168.5zM274 627q0 -103 2.5 -180t11 -144t27.5 -104q19 -36 55.5 -53.5t74.5 -22t92 -4.5h26l-84 166q-4 6 -4 20q0 19 14 32t31 13h88q21 0 27 -16l90 -172q33 31 49.5 116.5t20.5 171.5 t4 177q0 344 -41 426q-26 52 -84 66t-137 14q-54 0 -92.5 -4.5t-74.5 -22t-55 -53.5q-41 -82 -41 -426z" />
<glyph unicode="R" d="M33 61v21q9 50 59 59h76v969h-76q-50 9 -59 61v21q9 50 59 59h404q98 0 188.5 -44t146.5 -124.5t56 -179.5q0 -58 -21 -111.5t-57.5 -96.5t-85.5 -74q49 -40 78.5 -96.5t29.5 -116.5v-150q0 -139 54 -139q11 0 17.5 33.5t6.5 58.5q9 50 62 59h39q51 -9 59 -59v-10 q0 -53 -21.5 -105t-61.5 -85.5t-95 -33.5h-10q-104 0 -156.5 80.5t-52.5 190.5v149q0 73 -54 115.5t-129 42.5h-161v-414h75q51 -9 60 -59v-21q-9 -52 -60 -61h-311q-50 9 -59 61zM328 696h147q61 0 119 25.5t95.5 72.5t37.5 109t-37.5 109t-95 72.5t-119.5 25.5h-147v-414z " />
<glyph unicode="S" d="M106 39v317q8 54 60 60h41q24 -3 40 -18t19 -42q0 -128 93.5 -182.5t230.5 -54.5q90 0 157.5 62.5t67.5 152.5q0 51 -23 94.5t-61.5 74t-89.5 42.5l-254 59q-120 28 -200.5 119t-80.5 211q0 99 53.5 176.5t139.5 120.5t184 43q165 0 279 -84q17 44 29 62t43 22h18 q24 -3 40 -18t19 -42v-317q-6 -55 -59 -61h-41q-45 6 -57 51q-13 116 -83.5 181t-187.5 65q-54 0 -106 -23.5t-85.5 -67.5t-33.5 -100q0 -66 50 -117t118 -67l254 -58q82 -20 147.5 -72t102.5 -127.5t37 -156.5q0 -154 -111.5 -260.5t-265.5 -106.5q-100 0 -175 19t-159 65 q-19 -48 -29.5 -63.5t-42.5 -20.5h-18q-52 8 -60 62z" />
<glyph unicode="T" d="M53 975v217q9 50 62 59h846q50 -9 59 -59v-217q-9 -51 -59 -62h-39q-53 11 -62 62v135h-244v-969h132q52 -9 61 -59v-21q-9 -52 -61 -61h-422q-53 9 -62 61v21q9 50 62 59h131v969h-244v-135q-9 -51 -59 -62h-39q-53 11 -62 62z" />
<glyph unicode="U" d="M-4 1171v21q9 50 61 59h332q51 -9 62 -59v-21q-11 -52 -62 -61h-86v-688q0 -112 63 -207.5t171 -95.5q72 0 125.5 46.5t80.5 117.5t27 139v688h-86q-52 9 -61 61v21q9 50 61 59h332q52 -9 61 -59v-21q-9 -52 -61 -61h-86v-698q0 -79 -29 -158t-79.5 -140t-123 -99 t-155.5 -38h-11q-110 0 -199 62.5t-139.5 165t-50.5 207.5v698h-86q-52 9 -61 61z" />
<glyph unicode="V" d="M39 1171v21q9 50 59 59h279q50 -9 59 -59v-21q-9 -52 -59 -61h-55q99 -401 157 -649.5t58 -300.5q1 54 67 335.5t148 614.5h-56q-50 9 -59 61v21q9 50 59 59h279q50 -9 59 -59v-21q-9 -52 -59 -61h-60l-260 -1063q-8 -30 -32 -47.5t-52 -17.5h-69q-28 0 -52 17.5 t-32 47.5l-260 1063h-60q-50 9 -59 61z" />
<glyph unicode="W" d="M25 1171v21q9 50 59 59h227q51 -9 60 -59v-21q-9 -52 -60 -61h-75q27 -209 52.5 -408t41.5 -339.5t18 -202.5q0 77 21.5 189.5t70.5 336.5q8 29 30 47.5t52 18.5h29q29 0 52.5 -19.5t29.5 -46.5q41 -178 66.5 -313.5t25.5 -212.5q2 62 21.5 228t47 379.5t44.5 342.5h-76 q-49 9 -60 61v21q11 50 60 59h227q49 -9 60 -59v-21q-11 -52 -60 -61h-18l-144 -1063q-3 -28 -24.5 -46.5t-50.5 -18.5h-27q-29 0 -52.5 18.5t-29.5 46.5q-24 103 -49 222.5t-40 203.5t-17 119q0 -75 -107 -545q-6 -28 -29.5 -46.5t-52.5 -18.5h-26q-29 0 -51 18t-25 47 l-144 1063h-18q-50 9 -59 61z" />
<glyph unicode="X" d="M59 61v21q11 51 60 59h71l256 527l-229 442h-74q-52 9 -61 61v21q9 50 61 59h279q52 -9 61 -59v-21q-9 -52 -61 -61h-27l131 -254l119 254h-33q-50 9 -59 61v21q9 50 59 59h281q50 -9 59 -59v-21q-9 -52 -59 -61h-74l-215 -442l275 -527h73q51 -9 60 -59v-21 q-9 -52 -60 -61h-280q-53 9 -62 61v21q9 50 62 59h30l-176 359l-164 -359h35q53 -9 62 -59v-21q-9 -52 -62 -61h-278q-49 8 -60 61z" />
<glyph unicode="Y" d="M41 1171v21q9 50 61 59h279q52 -9 61 -59v-21q-9 -52 -61 -61h-33q81 -173 135 -298.5t54 -152.5q1 26 62 168.5t126 282.5h-33q-52 9 -61 61v21q9 50 61 59h279q52 -9 61 -59v-21q-9 -52 -61 -61h-70l-285 -610v-359h76q49 -9 60 -59v-21q-11 -52 -60 -61h-311 q-50 9 -59 61v21q9 50 59 59h76v359l-285 610h-70q-52 9 -61 61z" />
<glyph unicode="Z" d="M98 66v28q0 23 11 35l659 981h-485v-135q-10 -51 -60 -62h-39q-52 11 -61 62v217q9 50 61 59h725q27 0 46.5 -19.5t19.5 -45.5v-29q0 -21 -8 -33l-662 -983h520v176q9 51 62 60h39q50 -9 59 -60v-256q-9 -52 -59 -61h-762q-26 0 -46 20t-20 46z" />
<glyph unicode="[" d="M442 -111v1473q11 50 62 59h428q50 -9 59 -59v-21q-9 -52 -59 -61h-330v-1309h330q50 -9 59 -61v-21q-9 -50 -59 -59h-428q-51 9 -62 59z" />
<glyph unicode="\" d="M119 1339v11q9 61 71 71h11q44 -6 63 -41l682 -1439q8 -18 8 -29v-10q-10 -63 -71 -72h-11q-44 6 -63 41l-682 1440q-8 16 -8 28z" />
<glyph unicode="]" d="M82 -90q9 52 61 61h328v1309h-328q-52 9 -61 61v21q9 50 61 59h428q51 -9 60 -59v-1473q-9 -50 -60 -59h-428q-52 9 -61 59v21z" />
<glyph unicode="^" d="M197 1036v11q7 37 32 53l277 143q9 5 26 8h11q12 -2 20 -4l281 -147q25 -16 33 -53v-11q-13 -75 -74 -86h-10q-20 4 -27 8l-229 134l-230 -134q-6 -3 -26 -8h-11q-62 12 -73 86z" />
<glyph unicode="_" d="M115 -117q10 63 71 72h701q61 -9 71 -72v-10q-10 -63 -71 -72h-701q-61 9 -71 72v10z" />
<glyph unicode="`" d="M369 989q0 124 64.5 232t176.5 168q12 6 29 6q28 0 51 -23t23 -51q0 -34 -23 -49q-58 -37 -97.5 -76t-61 -90t-21.5 -117v-24q7 1 12.5 1.5t14.5 0.5q46 0 77 -32t31 -77t-33 -76.5t-80 -31.5q-83 0 -123 73.5t-40 165.5z" />
<glyph unicode="a" d="M104 281q0 116 104.5 183t244.5 91.5t264 24.5v10q0 42 -21.5 74.5t-54.5 52t-73.5 30.5t-80.5 11q-88 0 -131 -6v-13q0 -40 -29 -69t-69 -29q-41 0 -70.5 28.5t-29.5 69.5q0 74 53.5 108.5t122 43t158.5 8.5q68 0 136 -20t123.5 -58t90.5 -95t35 -130v-442 q41 -13 137 -13q50 -9 59 -59v-21q-9 -52 -59 -61h-39q-88 0 -146 12.5t-92 59.5q-120 -82 -299 -82q-84 0 -161.5 36.5t-125 103.5t-47.5 151zM264 281q0 -69 62.5 -109.5t134.5 -40.5q53 0 113 15t101.5 50t41.5 91v155q-75 0 -180.5 -15t-189 -51t-83.5 -95z" />
<glyph unicode="b" d="M12 1171v21q9 50 60 59h217q50 -9 59 -59v-387q54 44 120.5 66t135.5 22q89 0 164 -37t128 -101t82.5 -146t29.5 -167q0 -119 -56 -223t-153.5 -166.5t-218.5 -62.5q-133 0 -232 94v-23q-9 -52 -59 -61h-39q-51 9 -62 61v1049h-116q-51 9 -60 61zM348 362q21 -93 78 -162 t143 -69q80 0 143 44t99.5 117t36.5 150q0 73 -31.5 145.5t-90.5 118.5t-136 46q-82 0 -149.5 -49t-92.5 -128v-213z" />
<glyph unicode="c" d="M141 442q0 91 36 176t97 146.5t145.5 98t176.5 36.5q142 0 238 -28t96 -132q0 -41 -28.5 -69.5t-70.5 -28.5q-40 0 -70 28.5t-30 69.5v13q-43 6 -131 6q-82 0 -151.5 -44t-108.5 -117t-39 -155q0 -85 44 -156t116.5 -113t156.5 -42q81 0 113.5 26.5t62.5 76t60 53.5h41 q25 -3 42 -20t17 -44v-12q-34 -112 -132.5 -166.5t-225.5 -54.5q-88 0 -172.5 34.5t-147.5 97t-99 145.5t-36 175z" />
<glyph unicode="d" d="M66 442q0 116 55.5 221t154 167.5t216.5 62.5q63 0 124 -21.5t109 -60.5v299h-117q-50 9 -59 61v21q9 50 59 59h217q51 -9 60 -59v-1051h116q51 -9 60 -59v-21q-9 -52 -60 -61h-215q-52 9 -61 61v33q-52 -49 -118 -76.5t-136 -27.5q-115 0 -208.5 64.5t-145 169 t-51.5 218.5zM225 440q0 -72 31.5 -144.5t90.5 -118.5t136 -46q91 0 156 70.5t86 165.5v211q-15 48 -48 88t-77 63t-96 23q-80 0 -143 -44.5t-99.5 -117t-36.5 -150.5z" />
<glyph unicode="e" d="M104 440v11q0 118 60 221t162.5 165t220.5 62h10q127 0 215.5 -59t133 -159.5t44.5 -225.5v-11q-9 -52 -59 -61h-621q27 -113 121 -182.5t209 -69.5q72 0 125 33q29 18 41.5 34t23.5 40.5t25 35.5q13 12 37 15h39q50 -9 59 -60v-10q-19 -109 -130.5 -169t-231.5 -60h-10 q-119 0 -230 60t-177.5 164t-66.5 226zM272 522h514q-11 107 -71 171.5t-162 64.5q-65 0 -124 -31t-101 -87t-56 -118z" />
<glyph unicode="f" d="M74 61v21q12 51 61 59h234v600h-219q-53 11 -62 62v20q9 51 62 60h219v116q0 79 49 139.5t123.5 92t152.5 31.5q81 0 141 -30.5t60 -103.5q0 -39 -27.5 -66.5t-66.5 -27.5q-38 0 -64.5 23.5t-31.5 62.5h-25q-38 0 -73 -15.5t-57 -45t-22 -66.5v-110h263q50 -9 59 -60v-20 q-9 -51 -59 -62h-263v-600h234q49 -8 61 -59v-21q-12 -53 -61 -61h-627q-49 8 -61 61z" />
<glyph unicode="g" d="M59 -166q0 76 38 144.5t102 109.5q-47 65 -47 145q0 78 41 140q-64 83 -64 190q0 92 48 167.5t129 119t171 43.5q102 0 197 -57q97 69 217 69q61 0 106 -33.5t45 -93.5q0 -36 -27 -61t-63 -25q-31 0 -55.5 19.5t-32.5 50.5q-41 0 -90 -27q51 -79 51 -172t-47.5 -168.5 t-129 -119.5t-171.5 -44q-98 0 -180 48q-10 0 -10 -48q0 -30 16 -56t43 -38q6 1 10.5 1.5t12.5 0.5q4 0 9.5 -1.5t10.5 -3t8 -1.5h144q122 0 225.5 -22t175.5 -88t72 -189q0 -77 -45.5 -135t-120 -95t-156.5 -54t-155 -17t-154.5 17t-156.5 54t-121 95t-46 135zM195 -166 q0 -57 61 -92.5t144 -52.5t137 -17t136.5 17t144 53t61.5 92q0 109 -101 137.5t-246 28.5h-155q-47 0 -88.5 -21t-67.5 -59t-26 -86zM289 563q0 -78 55 -135t133 -57q79 0 134 57t55 135q0 77 -55 134t-134 57q-78 0 -133 -57t-55 -134z" />
<glyph unicode="h" d="M12 61v21q9 50 60 59h116v969h-116q-51 9 -60 61v21q9 50 60 59h217q50 -9 59 -59v-397q53 46 125.5 72t142.5 26q92 0 152 -36.5t88.5 -102t28.5 -156.5v-457h116q51 -9 60 -59v-21q-9 -52 -60 -61h-360q-52 9 -61 61v21q9 50 61 59h84v449q0 82 -24 122t-99 40 q-70 0 -127.5 -34t-92 -92.5t-34.5 -125.5v-359h117q50 -9 59 -59v-21q-9 -52 -59 -61h-393q-51 9 -60 61z" />
<glyph unicode="i" d="M147 61v21q11 50 60 59h276v600h-258q-52 10 -61 62v20q9 51 61 60h359q50 -9 59 -60v-682h242q52 -9 61 -59v-21q-9 -52 -61 -61h-678q-49 9 -60 61zM426 1141v10q0 40 32 71t72 31h11q40 0 71 -31t31 -71v-10q0 -41 -31 -73t-71 -32h-11q-40 0 -72 32t-32 73z" />
<glyph unicode="j" d="M98 -295q0 23 13 45.5t35.5 35.5t46.5 13h10q23 0 45.5 -13t35.5 -35.5t13 -45.5v-10q0 -8 -2 -12q41 -7 125 -7q88 0 136 75t48 167v823h-293q-50 11 -59 62v20q9 51 59 60h394q50 -9 59 -60v-915q0 -70 -25 -136.5t-72.5 -120t-111.5 -85t-135 -31.5h-10 q-84 0 -148 8.5t-114 43t-50 108.5v10zM547 1141v10q0 40 32 71t72 31h11q40 0 71 -31t31 -71v-10q0 -41 -31 -73t-71 -32h-11q-40 0 -72 32t-32 73z" />
<glyph unicode="k" d="M31 61v21q9 50 61 59h125v969h-125q-52 9 -61 61v21q9 50 61 59h197q50 -9 59 -59v-725l293 274h-88q-52 10 -61 62v20q9 51 61 60h381q50 -9 59 -60v-20q-9 -51 -59 -62h-100l-238 -223l291 -377h92q50 -9 59 -59v-21q-9 -52 -59 -61h-307q-53 9 -62 61v21q9 50 62 59 h49l-221 287l-152 -143v-144h125q51 -9 62 -59v-21q-11 -52 -62 -61h-381q-52 9 -61 61z" />
<glyph unicode="l" d="M104 61v21q11 50 60 59h293v969h-293q-49 9 -60 61v21q11 50 60 59h393q50 -9 59 -59v-1051h293q51 -9 60 -59v-21q-9 -52 -60 -61h-745q-49 9 -60 61z" />
<glyph unicode="m" d="M-16 61v21q9 50 59 59h57v600h-57q-50 10 -59 62v20q9 51 59 60h129q50 -9 59 -60q81 70 187 70q51 0 91.5 -27.5t61.5 -74.5q39 46 98 74t119 28q185 0 185 -295v-457h57q49 -8 60 -59v-21q-11 -53 -60 -61h-213q-50 9 -59 61v21q9 50 59 59h25v449q0 162 -66 162 q-57 0 -96.5 -39.5t-58.5 -98.5t-19 -114v-359h57q51 -9 60 -59v-21q-9 -52 -60 -61h-213q-50 9 -59 61v21q9 50 59 59h25v449q0 162 -65 162q-56 0 -96.5 -39.5t-59.5 -98.5t-19 -114v-359h58q50 -9 59 -59v-21q-9 -52 -59 -61h-246q-50 9 -59 61z" />
<glyph unicode="n" d="M12 61v21q9 50 60 59h116v600h-116q-51 11 -60 62v20q9 51 60 60h217q50 -9 59 -60v-28q53 46 125.5 72t142.5 26q92 0 152 -36.5t88.5 -102t28.5 -156.5v-457h116q51 -9 60 -59v-21q-9 -52 -60 -61h-360q-52 9 -61 61v21q9 50 61 59h84v449q0 82 -24 122t-99 40 q-70 0 -127.5 -34t-92 -92.5t-34.5 -125.5v-359h117q50 -9 59 -59v-21q-9 -52 -59 -61h-393q-51 9 -60 61z" />
<glyph unicode="o" d="M109 442q0 90 32 173t90 146.5t137 100.5t169 37t169 -36.5t137 -100.5t90 -147t32 -173q0 -119 -56 -223t-153.5 -166.5t-218.5 -62.5q-120 0 -218 62t-154 166.5t-56 223.5zM268 459q0 -124 74.5 -226t194.5 -102q81 0 142 48.5t93.5 125t32.5 154.5q0 75 -35 144.5 t-97 112t-136 42.5q-75 0 -137 -42.5t-97 -112t-35 -144.5z" />
<glyph unicode="p" d="M12 -375q9 53 60 62h116v1054h-116q-51 11 -60 62v20q9 51 60 60h217q50 -9 59 -60v-18q54 44 120.5 66t135.5 22q89 0 164 -37t128 -101t82.5 -146t29.5 -167q0 -119 -56 -223t-153.5 -166.5t-218.5 -62.5q-133 0 -232 94v-397h117q50 -9 59 -62v-20q-9 -51 -59 -60 h-393q-51 9 -60 60v20zM348 362q21 -93 78 -162t143 -69q80 0 143 44t99.5 117t36.5 150q0 73 -31.5 145.5t-90.5 118.5t-136 46q-82 0 -149.5 -49t-92.5 -128v-213z" />
<glyph unicode="q" d="M74 442q0 121 59.5 224.5t163 165t223.5 61.5q69 0 133.5 -26t114.5 -74v41q9 50 61 59h39q51 -9 60 -59v-1147h125q52 -9 61 -62v-20q-9 -51 -61 -60h-410q-52 9 -61 60v20q9 53 61 62h125v411q-53 -50 -125.5 -79t-146.5 -29q-118 0 -215 63t-152 168t-55 221zM233 440 q0 -77 35 -148t98.5 -116t141.5 -45q94 0 166 68t94 161v152q-11 64 -42 118t-81.5 88t-114.5 34q-81 0 -149 -43.5t-108 -116.5t-40 -152z" />
<glyph unicode="r" d="M51 61v21q9 50 62 59h190v600h-190q-53 11 -62 62v20q9 51 62 60h290q51 -9 60 -60v-84q64 73 154.5 113.5t187.5 40.5q78 0 135 -32.5t57 -104.5q0 -40 -27 -67t-67 -27q-16 0 -33 6q-44 17 -59 65q0 6 -0.5 10.5t-1.5 8.5q-99 0 -178 -51t-123.5 -136.5t-44.5 -181.5 v-242h254q52 -9 61 -59v-21q-9 -52 -61 -61h-604q-53 9 -62 61z" />
<glyph unicode="s" d="M147 51v236q8 53 60 59h41q43 -7 57 -45q29 -91 86.5 -130.5t153.5 -39.5q94 0 174 27t80 104q0 90 -185 125l-178 29q-289 55 -289 237q0 74 37 122t98 75.5t126 38t137 10.5q119 0 203 -37q21 32 53 37h18q52 -6 60 -59v-183q-8 -55 -60 -61h-41q-24 3 -40 20t-19 41 q0 101 -178 101q-90 0 -171 -21.5t-81 -83.5q0 -44 49.5 -64.5t120.5 -35.5l180 -29q83 -16 148 -46.5t109 -85t44 -132.5q0 -145 -118.5 -207.5t-276.5 -62.5t-250 67q-17 -32 -30 -47.5t-40 -19.5h-18q-52 6 -60 61z" />
<glyph unicode="t" d="M51 803v20q9 51 62 60h192v192q9 49 62 60h39q50 -11 59 -60v-192h348q50 -9 59 -60v-20q-9 -51 -59 -62h-348v-454q0 -156 147 -156q62 0 105 46t43 110q6 52 61 61h39q29 -5 44.5 -24t15.5 -48q0 -82 -46 -147.5t-121.5 -102t-154.5 -36.5q-86 0 -153 35.5 t-103.5 101.5t-36.5 154v460h-192q-53 11 -62 62z" />
<glyph unicode="u" d="M12 803v20q9 51 60 60h217q50 -9 59 -60v-596q0 -35 17 -59q24 -25 58 -31t85 -6q82 0 149.5 46.5t67.5 125.5v438h-117q-50 11 -59 62v20q9 51 59 60h217q51 -9 60 -60v-682h116q51 -9 60 -59v-21q-9 -52 -60 -61h-215q-52 10 -61 57q-104 -67 -233 -67 q-133 0 -218.5 52t-85.5 177v522h-116q-51 11 -60 62z" />
<glyph unicode="v" d="M51 803v20q9 51 60 60h305q50 -9 59 -60v-20q-9 -51 -59 -62h-80l201 -614l200 614h-80q-50 11 -59 62v20q9 51 59 60h306q50 -9 59 -60v-20q-9 -51 -59 -62h-89l-223 -686q-10 -30 -35 -47.5t-55 -17.5h-49q-30 0 -55 17.5t-35 47.5l-223 686h-88q-51 11 -60 62z" />
<glyph unicode="w" d="M33 803v20q9 51 61 60h307q53 -9 62 -60v-20q-9 -51 -62 -62h-129q22 -125 58.5 -340.5t36.5 -240.5q2 37 77 305q10 30 33 47.5t55 17.5h19q31 0 55 -18t31 -47q72 -248 72 -305q3 76 92 581h-129q-53 11 -62 62v20q9 51 62 60h307q52 -9 61 -60v-20q-9 -52 -61 -62h-45 l-119 -686q-5 -29 -27 -47t-51 -18h-39q-28 0 -52 17t-34 48q-22 78 -35 126.5t-23.5 98.5t-12.5 91q0 -48 -20 -129t-50 -187q-9 -30 -33.5 -47.5t-54.5 -17.5h-47q-27 0 -50 18t-28 47l-119 686h-45q-52 10 -61 62z" />
<glyph unicode="x" d="M61 61v21q11 50 62 59h108l236 314l-221 286h-111q-52 10 -61 62v20q9 51 61 60h303q53 -9 62 -60v-20q-9 -51 -62 -62h-35l127 -172l125 172h-39q-52 11 -61 62v20q9 51 61 60h304q52 -9 61 -60v-20q-9 -51 -61 -62h-109l-215 -286l242 -314h110q53 -9 62 -59v-21 q-9 -52 -62 -61h-303q-52 9 -61 61v21q9 50 61 59h41l-156 224l-149 -224h45q52 -9 61 -59v-21q-9 -52 -61 -61h-303q-51 9 -62 61z" />
<glyph unicode="y" d="M55 803v20q9 51 62 60h303q52 -9 61 -60v-20q-9 -52 -61 -62h-74q74 -188 141.5 -371t67.5 -210h2q0 26 180 581h-80q-50 11 -59 62v20q9 51 59 60h306q50 -9 59 -60v-20q-9 -51 -59 -62h-89l-296 -899q-43 -127 -124 -217t-198 -90q-70 0 -119 53t-49 123 q0 43 27.5 69.5t70.5 26.5q42 0 69.5 -26.5t27.5 -69.5h-35q0 -35 8 -35q45 0 81.5 23.5t62 60t40.5 82.5l52 158l-285 741h-90q-53 11 -62 62z" />
<glyph unicode="z" d="M68 66v28q0 30 16 43l641 604h-465v-77q-9 -53 -59 -62h-39q-53 9 -62 62v159q9 51 62 60h739q26 0 46 -20t20 -46v-29q0 -29 -17 -43l-641 -604h504v105q9 50 61 59h39q51 -9 60 -59v-185q-9 -52 -60 -61h-780q-26 0 -45.5 20.5t-19.5 45.5z" />
<glyph unicode="{" d="M109 616v21q6 53 59 59q289 0 289 121v363q0 141 129 191t297 50h22q27 -3 42 -19t18 -40v-21q-3 -24 -19 -41t-41 -20q-289 0 -289 -106v-363q0 -57 -30 -104.5t-82 -79.5q52 -31 82 -79t30 -108v-362q0 -68 89.5 -87.5t199.5 -19.5q54 -7 60 -61v-21q-3 -24 -19 -40 t-41 -19h-22q-168 0 -297 50.5t-129 191.5v362q0 121 -289 121q-24 3 -40 20t-19 41z" />
<glyph unicode="|" d="M461 -98v1448q9 61 71 71h11q29 -4 48 -23t23 -48v-1448q-10 -63 -71 -72h-11q-61 10 -71 72z" />
<glyph unicode="}" d="M109 -90q6 55 59 61q110 0 199.5 19.5t89.5 87.5v362q0 58 31 107t81 80q-51 31 -81.5 78t-30.5 106v363q0 106 -289 106q-24 3 -40 20t-19 41v21q6 53 59 59h22q102 0 196.5 -18t162 -71.5t67.5 -151.5v-363q0 -121 289 -121q27 -3 42 -19t18 -40v-21q-3 -24 -19 -41 t-41 -20q-289 0 -289 -121v-362q0 -98 -67.5 -151.5t-162 -72t-196.5 -18.5h-22q-52 6 -59 59v21z" />
<glyph unicode="~" d="M178 1057v10q6 34 54 77.5t108.5 75t97.5 31.5h11q42 0 72 -20.5t66.5 -55t49.5 -34.5q23 0 42.5 12.5t47 37t50 41t40.5 19.5h10q59 -10 68 -67v-10q-9 -51 -105 -118t-155 -67h-10q-42 0 -71.5 20t-66.5 55.5t-51 35.5q-22 0 -43.5 -13.5t-50 -39t-48 -40t-38.5 -18.5 h-10q-59 9 -68 68z" />
<glyph unicode="&#xa0;" />
<glyph unicode="&#xa1;" d="M403 627q0 53 40 93t96 40q34 0 65 -18.5t49.5 -49.5t18.5 -65q0 -57 -39 -96t-94 -39q-56 0 -96 40t-40 95z" />
<glyph unicode="&#xa2;" d="M115 350v33q9 50 59 59h10q160 -25 277 -127v867q12 60 71 69q34 0 58 -19t24 -52v-865q116 99 277 127h10q48 -8 62 -59v-33q-11 -50 -56 -59q-116 -24 -198 -94q-39 -36 -66 -74q-11 -16 -33 -58t-30 -51q-14 -10 -37 -14h-11q-24 4 -34 14q-11 11 -36 57t-30 52 q-22 32 -65 74q-82 69 -203 94q-43 15 -49 59z" />
<glyph unicode="&#xa3;" d="M139 307q0 121 58.5 259t163 232.5t225.5 94.5q104 0 168 -66t88 -172q6 25 15 59.5t24.5 56.5t44.5 26h41q26 -3 42.5 -20.5t16.5 -43.5q0 -36 -31 -123.5t-70.5 -172t-70.5 -136.5v-31q0 -94 14 -139q8 1 17 14t19 20.5t30 10.5h41q25 -4 42 -21t17 -42 q0 -60 -58 -91.5t-122 -31.5q-113 0 -147 131q-67 -62 -148.5 -96.5t-167.5 -34.5q-120 0 -186 95.5t-66 221.5zM299 303q0 -60 22 -116t74 -56q59 0 116 27.5t101.5 70.5t81.5 101l2 178q0 244 -114 244q-62 0 -122 -63t-100 -138q-28 -58 -44.5 -122t-16.5 -126z" />
<glyph unicode="&#xa4;" d="M-61 -391q0 2 2 12l317 1274q30 111 114 195t197.5 128t229.5 44q107 0 181.5 -61t74.5 -165q0 -71 -39 -134.5t-103 -106.5q91 -94 91 -248q0 -97 -39 -198t-106.5 -184t-157 -133t-189.5 -50q-81 0 -159 31t-130 87l-125 -503q-13 -46 -59 -52h-41q-25 3 -42 21.5 t-17 42.5zM293 340q0 -95 62.5 -155t158.5 -60q89 0 164.5 69t120.5 170t45 185q0 60 -21.5 110.5t-70.5 71.5q-34 -4 -54 -4q-258 0 -258 80q5 50 64 67q65 9 201 9q5 0 23.5 -1.5t29.5 -2.5q53 18 95 62t42 95q0 40 -29 62t-71 22q-79 0 -158 -29.5t-137 -84t-82 -129.5 l-115 -457q-10 -42 -10 -80z" />
<glyph unicode="&#xa5;" d="M90 49v10q0 14 6 23l369 971q18 42 67 49h11q47 -7 65 -49l371 -971q4 -12 4 -23v-10q-9 -61 -72 -72h-10q-47 8 -65 50l-299 782l-297 -782q-22 -43 -68 -50h-10q-63 11 -72 72z" />
<glyph unicode="&#xa6;" d="M90 662v10q9 61 72 71h749q63 -10 72 -71v-531q-9 -61 -72 -71h-10q-61 9 -72 71v449h-667q-62 10 -72 72z" />
<glyph unicode="&#xa7;" d="M135 621v10q0 99 37.5 192.5t104 166t155 114t189.5 41.5h245q62 -10 72 -72v-10q-10 -62 -72 -72h-235q-62 0 -117.5 -21t-100 -62t-72.5 -90t-44 -116h569q63 -10 72 -71v-10q-10 -62 -72 -72h-569q19 -85 65 -149t116 -102t153 -38h235q62 -10 72 -72v-10 q-9 -61 -72 -72h-245q-135 0 -246 72.5t-175.5 191.5t-64.5 251z" />
<glyph unicode="&#xa8;" d="M70 602q0 2 2 12q16 56 68.5 120t119.5 106.5t127 42.5h619q61 -10 67 -72q0 -33 -22.5 -56.5t-55.5 -27.5h-172q-31 -129 -47 -226.5t-16 -187.5q0 -107 35 -217q2 -8 2 -20q0 -33 -22.5 -57t-57.5 -29q-55 0 -76 49q-41 122 -41 266q0 166 59 422h-67 q-13 -50 -59.5 -219.5t-92.5 -303t-80 -181.5q-20 -26 -61 -33q-72 0 -82 71q0 15 2 21q17 51 50.5 131.5t47.5 122.5q27 81 55 178.5t56 212.5h-39q-81 0 -168 -158q-18 -27 -51 -30h-41q-25 3 -42 21t-17 42z" />
<glyph unicode="&#xa9;" d="M90 70q3 26 23 53l508 557l-129 422q-41 8 -130 8q-29 3 -46 23t-17 49q3 32 24 50.5t52 18.5q97 0 168 -13t96 -64l328 -1057q1 -4 13 -13.5t19 -20t7 -30.5q0 -26 -16 -43t-44 -20h-41q-66 10 -90 65l-141 455l-447 -494q-23 -26 -63 -26q-33 3 -53.5 25.5t-20.5 54.5z " />
<glyph unicode="&#xaa;" d="M111 573v13q37 130 143 218.5t238 88.5q96 0 153.5 -55t84.5 -137t40 -185q44 120 135 336q18 25 51 31h41q27 -3 43.5 -20.5t16.5 -43.5q0 -6 -4 -22l-27 -60q-34 -80 -95.5 -233t-104.5 -272t-78 -234q-15 -101 -50 -251t-69 -196q-23 -28 -51 -28q-34 0 -54 24t-20 56 q0 36 16 107.5t36.5 144.5t45.5 157q21 157 21 275q0 58 -13 205q-14 113 -36.5 179t-88.5 66q-76 0 -135 -53.5t-84 -132.5q-14 -35 -55 -41h-41q-25 3 -42 21t-17 42z" />
<glyph unicode="&#xad;" d="M174 336q0 113 51 220.5t140 189t198 120.5q-65 76 -100 133t-35 121q0 56 35 104.5t90.5 75.5t114.5 27q42 0 72.5 -11t79.5 -35.5t81 -31.5q32 -6 50 -28.5t18 -55.5q0 -38 -30 -66t-67 -28q-35 0 -85.5 10t-91.5 20t-71.5 16.5t-54.5 6.5q0 -14 9 -28 q33 -65 88 -117.5t116 -110.5t94 -128.5t33 -180.5q0 -91 -23.5 -188t-73.5 -187.5t-123 -146t-169 -55.5q-99 0 -178.5 46.5t-123.5 128t-44 179.5zM334 334q0 -89 50.5 -149t137.5 -60q74 0 125 71t76 167t25 169q0 128 -78 216q-88 -14 -166 -78t-124 -155.5t-46 -180.5z " />
<glyph unicode="&#xae;" d="M115 868v33q6 49 53 60q113 21 199 94q40 36 65 73q3 5 29 52t36.5 57t34.5 14h11q23 -4 37 -14q8 -8 30 -49.5t33 -59.5q31 -42 66 -73q83 -71 204 -94q40 -16 50 -60v-33q-14 -51 -62 -59h-10q-160 25 -277 127v-866q-13 -61 -71 -70q-32 0 -57 20t-25 52v864 q-116 -99 -277 -127h-10q-50 8 -59 59z" />
<glyph unicode="&#xaf;" d="M76 350v10q10 62 71 72h314v232h-314q-62 10 -71 71v10q10 62 71 72h314v313q6 62 71 72h11q61 -9 71 -72v-313h312q61 -9 71 -72v-10q-5 -30 -23.5 -48.5t-47.5 -22.5h-312v-232h312q61 -9 71 -72v-10q-5 -30 -23.5 -48.5t-47.5 -22.5h-779q-62 10 -71 71z" />
<glyph unicode="&#xb0;" d="M76 618v17q0 90 37 172t101.5 145.5t149 99t173.5 35.5t174 -36t148 -97.5t100.5 -143.5t37.5 -175v-17q0 -120 -63 -225t-170.5 -167t-226.5 -62q-120 0 -227.5 62t-170.5 167t-63 225zM217 559q19 -93 89 -162.5t163 -89.5v252h-252zM219 694h250v250q-92 -18 -161 -87 t-89 -163zM604 307q93 19 163.5 90t88.5 162h-252v-252zM604 694h250q-9 47 -31.5 87.5t-56 74t-74.5 56.5t-88 32v-250z" />
<glyph unicode="&#xb1;" d="M59 442q0 110 15 208t69 170.5t158 72.5q74 0 141 -32.5t111 -88.5q40 57 97.5 89t123.5 32q104 0 157.5 -72t68 -167t14.5 -212q0 -185 -46.5 -318.5t-195.5 -133.5q-73 0 -139.5 32.5t-112.5 88.5q-37 -55 -95 -88t-126 -33q-104 0 -157.5 72t-68 167t-14.5 213z M201 440q0 -114 18 -212.5t80 -98.5q73 0 109.5 67t48.5 152v238q0 67 -44.5 115.5t-111.5 48.5q-65 0 -82.5 -97t-17.5 -213zM616 297q0 -65 45.5 -114.5t110.5 -49.5q64 0 82 97t18 212q0 312 -98 312q-71 0 -107 -64.5t-51 -154.5v-238z" />
<glyph unicode="&#xb2;" d="M160 299q0 129 68.5 248t182.5 192.5t242 73.5q76 0 146.5 -27.5t115.5 -83.5q11 43 11 109q0 127 -59.5 224.5t-176.5 97.5q-45 0 -80 -24t-59 -65q1 0 10 -26q2 -8 2 -25q0 -42 -32 -73t-76 -31q-39 0 -66 27t-27 65q0 12 3 18q35 125 120.5 200t208.5 75t211.5 -65.5 t134 -172.5t45.5 -227q0 -122 -40 -264.5t-118 -274t-187.5 -212.5t-239.5 -81q-94 0 -172 40.5t-123 114.5t-45 167zM319 299q0 -78 52.5 -129t130.5 -51q69 0 130 40t106.5 101.5t78.5 130.5v4q0 7 15.5 51.5t15.5 69.5q0 73 -54.5 113.5t-129.5 40.5q-89 0 -168.5 -55 t-128 -142.5t-48.5 -173.5z" />
<glyph unicode="&#xb3;" d="M115 621v10q0 124 50 242.5t145 195t220 76.5h357q61 -9 71 -72v-10q-10 -63 -71 -72h-346q-87 0 -149.5 -55.5t-93 -138.5t-30.5 -170q0 -138 72 -252.5t203 -114.5h344q61 -9 71 -72v-10q-9 -61 -71 -72h-355q-97 0 -174 44.5t-131.5 120.5t-83 167.5t-28.5 182.5z" />
<glyph unicode="&#xb4;" d="M115 178v10q10 63 71 72h346q87 0 149.5 55.5t93 140t30.5 171.5t-30.5 170t-93 138.5t-149.5 55.5h-346q-61 9 -71 72v10q10 63 71 72h357q125 0 220 -76.5t145 -195t50 -242.5v-10q0 -124 -50 -243t-145 -195.5t-220 -76.5h-357q-62 11 -71 72z" />
<glyph unicode="&#xb5;" d="M90 49v658q0 110 64 201.5t165.5 142.5t212.5 51h11q110 0 211.5 -51t165 -142.5t63.5 -201.5v-658q-9 -61 -72 -72h-10q-61 11 -72 72v647q0 76 -42.5 133.5t-110.5 88t-139 30.5q-72 0 -140.5 -31t-110.5 -88.5t-42 -132.5v-647q-9 -61 -72 -72h-10q-63 11 -72 72z" />
<glyph unicode="&#xb6;" d="M90 373v657q10 62 72 72h10q62 -10 72 -72v-647q0 -76 42.5 -133t111 -88t139.5 -31q72 0 140.5 31t110 88.5t41.5 132.5v647q11 63 72 72h10q62 -10 72 -72v-657q0 -111 -63.5 -202.5t-165 -142.5t-211.5 -51h-11q-111 0 -212.5 51t-165.5 142.5t-64 202.5z" />
<glyph unicode="&#xb8;" d="M106 72v10q11 61 72 72h635v395h-608q-62 10 -72 72v10q9 61 72 71h608v396h-635q-61 9 -72 71v11q11 62 72 71h717q63 -10 72 -71v-1108q-10 -62 -72 -72h-717q-61 9 -72 72z" />
<glyph unicode="&#xb9;" d="M76 618v15q0 120 63.5 225.5t170.5 167t227 61.5q119 0 226 -61.5t170.5 -167t63.5 -225.5v-15q0 -120 -63 -225t-170.5 -167t-226.5 -62q-120 0 -227.5 62t-170.5 167t-63 225zM211 627q0 -101 53 -178l178 178l-178 176q-26 -39 -39.5 -86t-13.5 -90zM358 352 q82 -53 179 -53q98 0 178 53l-178 178zM358 899l179 -178l178 178q-80 53 -178 53q-97 0 -179 -53zM631 627l178 -178q53 77 53 178q0 49 -14 95t-39 81z" />
<glyph unicode="&#xba;" d="M59 246q0 31 21.5 56.5t50.5 25.5h635q-58 95 -74 219v10q9 50 62 59h32q43 -6 58 -49q14 -85 39 -135q28 -55 75 -102q12 -10 26.5 -23t21.5 -22q5 -13 8 -29v-10q-4 -18 -8 -29q-9 -12 -43.5 -45t-51.5 -55q-53 -77 -65 -178q-11 -44 -60 -54h-32q-53 9 -62 60v10 q12 68 28 117.5t46 101.5h-637q-60 12 -70 72zM59 995v11q3 17 11 28q9 15 44 49t48 52q51 73 67 178q10 43 60 53h33q50 -9 59 -59v-11q-20 -130 -74 -219h637q61 -13 70 -71q0 -31 -20.5 -56.5t-51.5 -25.5h-635q58 -96 74 -219v-11q-9 -50 -59 -59h-33q-44 6 -60 49 q-14 85 -39 135q-28 54 -75 103q-8 9 -23.5 22.5t-21.5 22.5q-8 11 -11 28z" />
<glyph unicode="&#xbb;" d="M59 621v10q3 17 11 28q9 15 44 49t48 52q51 73 67 178q10 43 60 53h33q50 -9 59 -59v-10q-20 -131 -74 -220h637q61 -13 70 -71q0 -31 -20.5 -56.5t-51.5 -25.5h-635q58 -97 74 -219v-11q-9 -50 -59 -59h-33q-43 6 -60 49q-14 85 -39 135q-28 54 -75 103q-8 9 -23.5 22.5 t-21.5 22.5q-8 11 -11 29z" />
<glyph unicode="&#xbc;" d="M59 621q0 30 21.5 55.5t50.5 25.5h635q-58 96 -74 220v10q9 50 62 59h32q43 -6 58 -49q14 -85 39 -135q28 -55 75 -102q16 -14 29.5 -26t18.5 -20q5 -12 8 -28v-10q-3 -16 -8 -29q-6 -8 -25 -27t-38.5 -38t-31.5 -35q-53 -77 -65 -179q-11 -43 -60 -53h-32q-53 9 -62 59 v11q12 68 28 117.5t46 101.5h-637q-60 12 -70 72z" />
<glyph unicode="&#xbd;" d="M76 467v10q10 62 71 72h285l47 156h-332q-27 3 -46.5 21.5t-24.5 49.5v10q10 62 71 72h379l131 434q19 43 66 49h10q63 -10 72 -71v-10q0 -6 -0.5 -9.5t-1.5 -7.5l-117 -385h240q61 -9 71 -72v-10q-5 -31 -23.5 -49.5t-47.5 -21.5h-285l-47 -156h332q61 -9 71 -72v-10 q-10 -66 -71 -72h-379l-129 -436q-22 -43 -68 -49h-10q-62 10 -72 72v10q0 12 4 16l115 387h-240q-27 3 -47 22.5t-24 49.5z" />
<glyph unicode="&#xbe;" d="M31 621v10q0 27 20 47l436 434q20 18 45 18h11q25 0 47 -18l434 -434q18 -22 18 -47v-10q0 -26 -18 -46l-434 -434q-20 -20 -47 -20h-11q-27 0 -45 20l-430 428q-26 24 -26 52zM217 627l320 -322l321 322l-321 319z" />
<glyph unicode="&#xbf;" d="M115 23v10q4 29 22.5 47.5t48.5 23.5h701q29 -4 48 -23t23 -48v-10q-10 -63 -71 -72h-701q-61 9 -71 72zM115 774v10q6 40 37 60l696 444q12 8 29 8h10q29 -4 48 -23t23 -48v-11q-6 -40 -36 -59l-588 -377l594 -379q24 -21 30 -57v-10q-10 -63 -71 -72h-10q-20 0 -35 12 l-697 445q-24 18 -30 57z" />
<glyph unicode="&#xc0;" d="M115 23v10q4 29 22.5 47.5t48.5 23.5h701q29 -4 48 -23t23 -48v-10q-10 -63 -71 -72h-701q-61 9 -71 72zM115 332v10q6 39 37 61l587 375l-594 381q-24 20 -30 55v11q4 29 22.5 47.5t48.5 23.5h11q17 0 34 -10l697 -446q24 -20 30 -56v-10q-6 -42 -36 -61l-695 -445 q-16 -8 -30 -8h-11q-61 9 -71 72z" />
<glyph unicode="&#xc1;" d="M76 311v11q10 61 71 71h779q61 -9 71 -71v-11q-5 -30 -23.5 -48.5t-47.5 -22.5h-779q-62 10 -71 71zM76 621v10q9 61 71 71h779q29 -4 48 -23t23 -48v-10q-10 -63 -71 -72h-779q-61 10 -71 72zM76 930v10q10 62 71 72h779q61 -9 71 -72v-10q-10 -63 -71 -72h-779 q-61 10 -71 72z" />
<glyph unicode="&#xc2;" d="M90 1020v10q10 62 72 72h10q45 -6 68 -49l297 -783l299 783q18 43 65 49h10q62 -10 72 -72v-10q0 -9 -4 -23l-371 -970q-17 -41 -65 -50h-11q-50 8 -67 50l-369 970q-6 10 -6 23z" />
<glyph unicode="&#xc3;" />
<glyph unicode="&#xc4;" d="M113 -211q0 35 25 57.5t59 22.5q31 -4 45 -24.5t19.5 -47t11 -74t8.5 -59.5q62 10 92 209l170 1075q23 133 83 229.5t177 96.5q64 0 99 -41t47 -100t12 -125q0 -33 -24.5 -56.5t-59.5 -23.5q-37 5 -51.5 35t-21 90.5t-11.5 79.5q-28 -5 -47 -42.5t-28 -75.5t-18 -91 l-170 -1076q-24 -137 -84 -231t-176 -94q-157 0 -157 266z" />
<glyph unicode="&#x2000;" horiz-adv-x="710" />
<glyph unicode="&#x2001;" horiz-adv-x="1421" />
<glyph unicode="&#x2002;" horiz-adv-x="710" />
<glyph unicode="&#x2003;" horiz-adv-x="1421" />
<glyph unicode="&#x2004;" horiz-adv-x="473" />
<glyph unicode="&#x2005;" horiz-adv-x="355" />
<glyph unicode="&#x2006;" horiz-adv-x="236" />
<glyph unicode="&#x2007;" horiz-adv-x="236" />
<glyph unicode="&#x2008;" horiz-adv-x="177" />
<glyph unicode="&#x2009;" horiz-adv-x="284" />
<glyph unicode="&#x200a;" horiz-adv-x="78" />
<glyph unicode="&#x2010;" d="M115 621v10q4 29 22.5 47.5t48.5 23.5h701q29 -4 48 -23t23 -48v-10q-10 -63 -71 -72h-701q-61 9 -71 72z" />
<glyph unicode="&#x2011;" d="M115 621v10q4 29 22.5 47.5t48.5 23.5h701q29 -4 48 -23t23 -48v-10q-10 -63 -71 -72h-701q-61 9 -71 72z" />
<glyph unicode="&#x2012;" d="M115 621v10q4 29 22.5 47.5t48.5 23.5h701q29 -4 48 -23t23 -48v-10q-10 -63 -71 -72h-701q-61 9 -71 72z" />
<glyph unicode="&#x2013;" horiz-adv-x="1256" d="M115 621v10q5 29 27.5 47.5t58.5 23.5h852q35 -4 58 -23t28 -48v-10q-12 -63 -86 -72h-852q-74 9 -86 72z" />
<glyph unicode="&#x2014;" horiz-adv-x="2280" d="M115 621v10q10 29 55 47.5t117 23.5h1704q70 -4 116 -23t56 -48v-10q-24 -63 -172 -72h-1704q-148 9 -172 72z" />
<glyph unicode="&#x202f;" horiz-adv-x="284" />
<glyph unicode="&#x205f;" horiz-adv-x="355" />
<glyph unicode="&#x2219;" d="M0 1169v11q9 61 72 71h10q43 -6 63 -41l103 -249h577l101 241q18 43 65 49h10q63 -10 72 -71v-11q0 -10 -4 -22l-459 -1120q-20 -42 -67 -50h-11q-44 8 -63 43l-463 1127q-6 9 -6 22zM311 807l226 -551l225 551h-451z" />
<glyph unicode="&#xe000;" horiz-adv-x="885" d="M0 885h885v-885h-885v885z" />
</font>
</defs>
</svg>
