<?xml version="1.0" standalone="no"?>
<!DOCTYPE svg PUBLIC "-//W3C//DTD SVG 1.1//EN" "http://www.w3.org/Graphics/SVG/1.1/DTD/svg11.dtd" >
<svg xmlns="http://www.w3.org/2000/svg">
<metadata>
This is a custom SVG webfont generated by Font Squirrel.
Copyright   : Copyright C 1994 Basil K Malyshev All Rights Reserved012BaKoMa Fonts Collection LevelB
</metadata>
<defs>
<font id="cmti9Regular" horiz-adv-x="1073" >
<font-face units-per-em="2048" ascent="1638" descent="-410" />
<missing-glyph horiz-adv-x="752" />
<glyph unicode=" "  horiz-adv-x="752" />
<glyph unicode="&#x09;" horiz-adv-x="752" />
<glyph unicode="&#xa0;" horiz-adv-x="752" />
<glyph unicode="!" horiz-adv-x="643" d="M233 92q0 55 43 96t97 41q39 0 66.5 -25.5t27.5 -66.5q0 -55 -43 -96t-96 -41q-40 0 -67.5 26.5t-27.5 65.5zM387 420l158 936q7 45 49 77.5t88 32.5q41 0 68.5 -24t27.5 -64q0 -20 -4 -30l-309 -936q-7 -19 -21 -19h-36q-21 0 -21 27z" />
<glyph unicode="&#x22;" horiz-adv-x="1079" d="M356 827q0 10 9 17q45 33 87.5 77t74 91t54.5 99.5t35 107.5q-35 -27 -81 -27q-40 0 -67.5 25t-27.5 65q0 57 43 98t99 41q52 0 77 -39t25 -94q0 -130 -84 -265.5t-199 -221.5q-6 -6 -14 -6q-11 0 -21 11t-10 21zM748 827q0 9 8 17q94 69 161.5 168t90.5 207 q-37 -27 -82 -27q-40 0 -67.5 25t-27.5 65q0 57 43 98t99 41q37 0 59.5 -18.5t32.5 -49.5t10 -65q0 -86 -40 -179.5t-103.5 -172.5t-138.5 -135q-7 -6 -15 -6q-10 0 -20 11t-10 21z" />
<glyph unicode="#" horiz-adv-x="1718" d="M236 303q0 34 40 45h359l164 328h-420q-39 7 -39 43q0 35 39 45h467l319 637q10 20 39 20q17 0 30 -13t13 -30q0 -13 -6 -22l-297 -592h342l320 637q10 20 39 20q17 0 30 -13t13 -30q0 -14 -7 -22l-297 -592h314q41 -11 41 -45q0 -17 -12.5 -28.5t-28.5 -14.5h-361 l-163 -328h421q39 -11 39 -45q0 -36 -39 -43h-467l-319 -637q-10 -20 -39 -20q-17 0 -30 13t-13 30q0 13 6 22l297 592h-342l-319 -637q-12 -20 -39 -20q-17 0 -30 13t-13 30q0 13 6 22l297 592h-314q-40 7 -40 43zM733 348h342l164 328h-342z" />
<glyph unicode="$" horiz-adv-x="1610" d="M182 78q0 59 44 107t108.5 74t122.5 26q53 0 121 -21q9 28 26 96l80 316h-135q-21 0 -21 26q7 46 27 46h147l80 323q25 97 89 184.5t154.5 142t188.5 54.5q78 0 133.5 -38t84 -100.5t28.5 -139.5q0 -193 -117 -193q-29 0 -50 19t-21 49q0 42 32 73t72 31q3 0 4 -0.5 t2 -1.5v27q0 91 -42.5 153t-127.5 62q-111 0 -180 -100t-102 -230l-78 -315h188q21 0 21 -27q-3 -21 -7 -33t-20 -12h-200l-82 -324q-21 -81 -62 -145q81 -53 116 -74t85.5 -39t101.5 -18q91 0 169 62t100 151q2 7 7.5 12.5t12.5 5.5h37q20 0 20 -26q-21 -83 -80 -153 t-142 -110.5t-167 -40.5q-43 0 -83.5 11t-84.5 33.5t-83 47t-78 48.5q-62 -64 -140 -102t-159 -38q-54 0 -97 26.5t-43 74.5zM274 80q0 -20 16.5 -31.5t35.5 -11.5q59 0 112.5 36.5t89.5 90.5q-57 22 -114 22q-47 0 -93.5 -31.5t-46.5 -74.5z" />
<glyph unicode="%" horiz-adv-x="1718" d="M303 -72q0 15 12 31l1192 1352q-116 -54 -241 -54q-150 0 -271 80q4 -20 4 -63q0 -104 -48 -237.5t-134 -229.5t-190 -96q-100 0 -152.5 84t-52.5 190q0 108 53 239.5t145.5 221.5t202.5 90q45 0 67 -18t89 -81.5t130 -92.5t159 -29q84 0 159.5 25t142.5 72t124 112 q12 12 32 12q17 0 30 -13t13 -30q0 -19 -12 -31l-1378 -1564q-9 -13 -31 -13q-17 0 -31 13t-14 30zM543 920q0 -55 19.5 -102.5t68.5 -47.5q64 0 121.5 65t93.5 138q35 69 56.5 152t21.5 157q0 69 -24 132t-81 63q-62 0 -113 -62t-87 -155.5t-56 -187.5t-20 -152zM1077 160 q0 81 29 175.5t83 180.5t128.5 140.5t159.5 54.5q61 0 101.5 -40.5t57.5 -100.5t17 -121q0 -76 -27 -172.5t-77 -186t-119.5 -147.5t-149.5 -58q-99 0 -151 85t-52 190zM1196 94q0 -55 19.5 -102t68.5 -47q64 0 121 64.5t94 137.5q35 71 56.5 154t21.5 156q0 71 -23.5 132.5 t-80.5 61.5q-61 0 -113 -62t-88 -155.5t-56 -187.5t-20 -152z" />
<glyph unicode="&#x26;" horiz-adv-x="1612" d="M262 365q0 107 56.5 225t138.5 203q-23 58 -23 133q0 116 61 243.5t164 212t220 84.5q100 0 161.5 -67t61.5 -168q0 -164 -111 -164q-30 0 -51.5 19.5t-21.5 48.5q0 43 32.5 73.5t75.5 30.5q0 71 -39.5 119.5t-109.5 48.5q-77 0 -137.5 -66.5t-98.5 -154.5 q-24 -61 -48 -155.5t-24 -145.5q102 63 199 63q36 0 66 -16.5t47.5 -46t17.5 -66.5q0 -50 -28.5 -96t-75.5 -74t-99 -28q-101 0 -172 65q2 0 -2 -4q-38 -79 -66 -180.5t-28 -175.5q0 -153 108.5 -232.5t266.5 -79.5q139 0 260.5 42.5t210.5 129.5q83 87 133.5 208t50.5 237 q0 146 -102 276q-66 -39 -98 -58t-70 -50.5t-62 -70t-24 -85.5q0 -7 2 -17t4 -24q13 30 39 48t57 18t52.5 -19t21.5 -51q0 -41 -31.5 -71.5t-72.5 -30.5q-65 0 -107.5 43.5t-42.5 107.5q0 77 50.5 138.5t131.5 114t142 91.5q147 98 219 258q-28 0 -47 21t-19 47q0 44 32 74 t73 30q30 0 50.5 -18.5t20.5 -48.5q0 -60 -41.5 -139t-101.5 -150.5t-111 -110.5q115 -147 115 -317q0 -88 -26 -176.5t-74 -169t-107 -139.5q-68 -68 -152.5 -111.5t-180 -64.5t-197.5 -21q-129 0 -254.5 45t-205 137t-79.5 228zM582 774q32 -94 118 -94q55 0 89 47t34 104 q0 27 -16 42.5t-43 15.5q-92 0 -182 -115z" />
<glyph unicode="'" horiz-adv-x="643" d="M446 827q0 8 9 17q94 69 161.5 168t90.5 207q-37 -27 -82 -27q-40 0 -67.5 25t-27.5 65q0 57 43 98t99 41q37 0 59.5 -18.5t32.5 -49.5t10 -65q0 -86 -40 -179.5t-103.5 -172.5t-138.5 -135q-7 -6 -15 -6q-11 0 -21 11t-10 21z" />
<glyph unicode="(" horiz-adv-x="858" d="M313 98q0 197 49.5 403t142.5 398t228 358t293 275q8 4 12 4h19q7 0 13.5 -7t6.5 -16q0 -8 -8 -16q-72 -58 -143.5 -137t-129.5 -163t-103.5 -169t-88.5 -190q-36 -88 -67 -187t-56 -211.5t-38 -218t-13 -196.5q0 -312 141 -502q4 -8 4 -15q0 -22 -20 -22h-18 q-11 0 -15 8q-109 116 -159 272.5t-50 331.5z" />
<glyph unicode=")" horiz-adv-x="858" d="M37 -492q0 12 8 17q105 86 191 190t155 223.5t119 245.5q80 200 127 411.5t47 401.5q0 92 -13.5 179.5t-44 169.5t-83.5 153q-4 8 -4 14q0 23 20 23h19q6 0 14 -8q109 -114 159 -271.5t50 -332.5q0 -199 -49 -404t-144.5 -400t-226 -355.5t-293.5 -274.5q-8 -4 -12 -4 h-19q-20 0 -20 22z" />
<glyph unicode="*" d="M403 893q0 42 41 63l308 140l-238 137q-18 12 -18 35q0 29 25 52t52 23q21 0 29 -10l191 -180l53 324q5 26 27 42.5t49 16.5q19 0 33 -12t14 -31q0 -4 -4 -16l-109 -324l281 180q15 10 34 10q21 0 34.5 -13.5t13.5 -33.5q0 -41 -43 -63l-308 -137l238 -140q18 -12 18 -34 q0 -27 -24.5 -51.5t-52.5 -24.5q-19 0 -29 10l-191 180l-53 -323q-4 -25 -25.5 -42.5t-48.5 -17.5q-19 0 -33 12t-14 31q0 11 2 17l109 323l-281 -180q-12 -10 -32 -10t-34 14t-14 33z" />
<glyph unicode="+" horiz-adv-x="1612" d="M287 512q0 15 11.5 27.5t29.5 15.5h571l143 571q4 12 16.5 21.5t24.5 9.5q19 0 32 -13t13 -30q0 -4 -2 -10l-137 -549h549q39 -7 39 -43q0 -38 -39 -45h-569l-144 -571q-7 -31 -43 -31q-17 0 -30 13t-13 30v10l138 549h-549q-41 7 -41 45z" />
<glyph unicode="," horiz-adv-x="643" d="M150 -365q0 12 8 17q89 72 154 168.5t89 202.5q-34 -23 -73 -23q-40 0 -68.5 25t-28.5 65q0 57 43.5 98t98.5 41q51 0 74.5 -36t23.5 -91q0 -133 -82 -269t-196 -226q-10 -4 -15 -4q-10 0 -19 11t-9 21z" />
<glyph unicode="-" horiz-adv-x="752" d="M174 401q0 2 2 9l19 77q3 19 22 19h469q10 0 17.5 -7.5t7.5 -17.5q0 -4 -2 -8l-19 -78q-7 -18 -22 -18h-469q-12 0 -18.5 7.5t-6.5 16.5z" />
<glyph unicode="." horiz-adv-x="643" d="M233 92q0 54 42.5 95.5t97.5 41.5q39 0 66.5 -25.5t27.5 -66.5q0 -54 -43.5 -95.5t-95.5 -41.5q-40 0 -67.5 26.5t-27.5 65.5z" />
<glyph unicode="/" d="M43 -469q0 12 6 23l1155 1962q13 20 39 20q17 0 30 -13t13 -30q0 -12 -6 -23l-1155 -1962q-13 -20 -39 -20q-17 0 -30 13t-13 30z" />
<glyph unicode="0" d="M238 307q0 128 38.5 296t106.5 328t145 253q66 81 158.5 130.5t192.5 49.5q150 0 217 -100t67 -256q0 -126 -38 -295t-104.5 -327t-146.5 -255q-67 -79 -160 -127.5t-188 -48.5q-102 0 -167 47.5t-93 126t-28 178.5zM381 205q0 -79 43 -135t117 -56q93 0 163.5 71 t115 177.5t78 238.5t46.5 185q36 143 58 252t22 182q0 77 -42.5 131t-119.5 54q-94 0 -161 -63.5t-109 -158.5t-72 -211t-47 -186q-43 -169 -67.5 -286.5t-24.5 -194.5z" />
<glyph unicode="1" d="M246 27q0 14 7.5 29.5t20.5 15.5q152 0 197 14q32 12 47 61l240 961q-124 -80 -238 -80q-28 0 -28 27q0 14 7.5 29.5t20.5 15.5q77 0 151.5 35t136.5 93.5t107 125.5q5 10 19 10h10q10 0 16.5 -7.5t6.5 -17.5v-8l-299 -1198q-4 -16 -4 -24q0 -23 14 -25q55 -12 184 -12 q12 0 18.5 -7.5t6.5 -17.5q0 -47 -37 -47h-582q-22 0 -22 27z" />
<glyph unicode="2" d="M170 -18q26 102 85 200t143.5 177t179.5 130q199 110 308 251.5t109 346.5q0 91 -46.5 154.5t-133.5 63.5q-76 0 -150 -49t-130.5 -125.5t-90.5 -163.5t-34 -158q0 -61 39 -61q50 0 95 44.5t74 107t29 110.5q0 18 -12 51t-12 35q0 11 11.5 21.5t22.5 10.5q22 0 36 -42.5 t14 -73.5q0 -63 -37 -140.5t-97.5 -130.5t-128.5 -53q-53 0 -81.5 39.5t-28.5 97.5q0 68 36.5 155.5t80.5 149.5q66 102 162 168t204 66q77 0 138.5 -26t106 -73.5t68 -111.5t23.5 -139q0 -108 -47 -197t-124.5 -156.5t-136 -102.5t-227.5 -130q-177 -95 -284 -262q8 2 22 2 q43 0 100 -9t122 -23t109 -20.5t85 -6.5q85 0 151.5 70.5t88.5 160.5q2 7 7.5 12.5t12.5 5.5h37q10 0 15.5 -8t5.5 -18q-23 -92 -69 -176.5t-116.5 -142.5t-159.5 -58q-51 0 -95 19.5t-100 56.5t-100.5 57.5t-95.5 20.5q-38 0 -58 -29t-39 -76t-30 -49h-37q-20 0 -20 27z " />
<glyph unicode="3" d="M197 219q0 65 25.5 113.5t86.5 48.5q31 0 51.5 -19.5t20.5 -50.5q0 -42 -32 -72t-73 -30q0 -85 60.5 -140t144.5 -55q79 0 153 42t120 110q39 57 66.5 152.5t27.5 168.5q0 72 -38 117t-108 45h-106q-9 0 -15 9t-6 18q3 13 5 21.5t7 16t15 7.5h107q101 0 175 61.5 t113 158.5t39 192q0 77 -45 124.5t-123 47.5q-65 0 -132.5 -27t-124 -73.5t-90.5 -107t-34 -126.5q0 -26 12 -47t36 -21q44 0 79 34t35 79q0 21 -13 50l-13 30q0 11 11.5 21.5t22.5 10.5q23 0 37.5 -40.5t14.5 -69.5q0 -69 -55 -121.5t-124 -52.5q-54 0 -87 39.5t-33 95.5 q0 103 71.5 192t181 141t209.5 52q81 0 151 -34t111.5 -97.5t41.5 -147.5q0 -89 -45 -172t-120 -145.5t-157 -91.5q73 -36 113.5 -106.5t40.5 -151.5q0 -98 -46.5 -183t-124 -148t-171.5 -97.5t-189 -34.5q-117 0 -198.5 73.5t-81.5 190.5z" />
<glyph unicode="4" d="M90 41q0 21 30 44.5t54 31.5q127 104 234.5 239t189.5 289.5t140.5 314t101.5 334.5q6 30 31 50t55 20q25 0 43 -17t18 -44q0 -21 -18.5 -84.5t-42.5 -131t-41 -110.5q-93 -234 -223 -428q-52 -76 -109.5 -149t-116.5 -136t-127 -123h70q62 0 110.5 -15.5t151.5 -53.5 l88 354q7 28 33 49t55 21q26 0 44 -16.5t18 -43.5q0 -12 -2 -18l-95 -379q9 -2 27 -2q30 0 89 15.5t65 15.5q13 0 24.5 -14t11.5 -27q0 -18 -38.5 -32t-91 -22t-66.5 -8q-10 1 -18 1.5t-21 0.5l-72 -295q-8 -30 -33.5 -49.5t-54.5 -19.5q-25 0 -43 17t-18 42q0 12 2 19 l80 321q-102 39 -149 53.5t-105 14.5q-113 0 -166 -17q-66 -53 -78 -53q-13 0 -25 14.5t-12 26.5z" />
<glyph unicode="5" d="M221 240q0 73 25.5 127.5t93.5 54.5q33 0 54.5 -20t21.5 -50q0 -44 -33 -77t-78 -33h-6q0 -61 23.5 -112.5t69 -80.5t106.5 -29t118.5 30t102 79.5t74.5 108.5q18 34 34.5 81t32 108t22.5 110t7 86q0 68 -30.5 123t-94.5 55q-67 0 -119 -21t-87 -49t-66 -59t-41 -33h-21 q-24 0 -24 27q0 2 2 6l133 536l34 138q4 9 10 13.5t13 4.5q4 0 6 -0.5t4 -1.5q119 -64 254 -64q146 0 291 66h8q23 0 23 -27q-2 -5 -3 -9t-3 -9t-7 -8q-85 -81 -190 -128.5t-215 -47.5q-84 0 -158 26l-96 -391q53 43 118.5 66.5t137.5 23.5q128 0 201 -95t73 -226 q0 -142 -76 -278.5t-202.5 -221t-269.5 -84.5q-121 0 -197 81.5t-76 203.5z" />
<glyph unicode="6" d="M248 332q0 108 25 232t71.5 241t106.5 207q65 96 144.5 173t179 128t204.5 51q87 0 146 -40t59 -124q0 -55 -27.5 -97t-81.5 -42q-29 0 -50 18.5t-21 48.5q0 27 14 51t36.5 39t47.5 15q-10 38 -45.5 55t-79.5 17q-99 0 -185.5 -65.5t-150.5 -162.5q-52 -78 -85.5 -164 t-61.5 -198q121 164 276 164q88 0 154.5 -44.5t102.5 -119t36 -162.5q0 -103 -41 -210.5t-116.5 -196t-172.5 -140t-203 -51.5q-147 0 -214.5 108.5t-67.5 268.5zM393 203q0 -72 37 -127.5t107 -55.5q92 0 164 65t110 159q20 51 41 123.5t37 153t16 126.5q0 77 -37 124.5 t-110 47.5q-89 0 -160 -64.5t-113.5 -155.5t-60.5 -185q-13 -29 -22 -97t-9 -114z" />
<glyph unicode="7" d="M289 883q0 4 2 10l219 459q4 12 18 12h37q10 0 15.5 -7t5.5 -16q0 -4 -2 -8l-41 -86q129 117 276 117q50 0 70.5 -31t28.5 -90.5t17 -86t40 -26.5q41 0 80.5 22.5t72.5 57.5t61.5 73.5t51.5 72.5q8 8 16 8h37q8 0 14.5 -7t6.5 -16q0 -8 -6 -14q-376 -530 -561 -1286 q-9 -37 -39.5 -61.5t-69.5 -24.5q-31 0 -53.5 20.5t-22.5 53.5q0 43 40.5 160.5t90.5 235t80 175.5q48 96 95.5 180t89 152t100.5 158q-39 -19 -88 -19q-35 0 -57.5 18.5t-43 51t-37.5 51t-42 18.5q-90 0 -173 -49t-147.5 -126t-108.5 -163q-4 -12 -16 -12h-37q-20 0 -20 23 z" />
<glyph unicode="8" d="M201 238q0 78 33 149t88.5 128.5t125 102t140.5 76.5l-62 51q-44 37 -68 91t-24 112q0 81 36.5 156.5t100 134t143.5 92t158 33.5q72 0 138.5 -29t106.5 -86t40 -131q0 -86 -45.5 -158.5t-119.5 -129t-156 -97.5l96 -78q50 -40 77 -100t27 -129q0 -122 -74.5 -231.5 t-192.5 -174.5t-239 -65q-83 0 -159.5 33.5t-123 98t-46.5 151.5zM319 233q0 -93 62 -153t156 -60q84 0 169 45t139 119.5t54 161.5q0 93 -68 148l-192 157q-127 -57 -223.5 -172.5t-96.5 -245.5zM561 1036q0 -77 55 -121l170 -139q110 58 187.5 148.5t77.5 199.5 q0 80 -51.5 130.5t-131.5 50.5q-69 0 -142.5 -36t-119 -97.5t-45.5 -135.5z" />
<glyph unicode="9" d="M219 121q0 55 28 96t81 41q29 0 50 -18.5t21 -49.5q0 -39 -28 -69.5t-66 -34.5q30 -66 150 -66q89 0 166 59.5t139 151.5q88 131 151 377q-51 -72 -123.5 -118t-154.5 -46q-131 0 -212 94.5t-81 229.5q0 107 42 214t118.5 194t174.5 137.5t208 50.5q145 0 208.5 -108 t63.5 -263q0 -113 -26 -240t-74.5 -248.5t-108.5 -209.5q-54 -84 -132.5 -163t-172 -128t-190.5 -49q-95 0 -163.5 38.5t-68.5 127.5zM498 674q0 -76 37 -123t110 -47q90 0 161 64.5t114.5 157t60.5 181.5l2 8q28 124 31 211q0 71 -33.5 125t-101.5 54q-67 0 -123 -32 t-99 -85.5t-67 -114.5q-18 -46 -40 -123.5t-37 -153t-15 -122.5z" />
<glyph unicode=":" horiz-adv-x="643" d="M233 92q0 54 42.5 95.5t97.5 41.5q39 0 66.5 -25.5t27.5 -66.5q0 -54 -43.5 -95.5t-95.5 -41.5q-40 0 -67.5 26.5t-27.5 65.5zM395 745q0 36 20 68t52 51t68 19q39 0 66.5 -25.5t27.5 -66.5q0 -53 -43.5 -95.5t-96.5 -42.5q-39 0 -66.5 26.5t-27.5 65.5z" />
<glyph unicode=";" horiz-adv-x="643" d="M150 -365q0 12 8 17q84 74 143 167t84 193q-27 -12 -57 -12q-40 0 -68.5 25t-28.5 65q0 57 43.5 98t98.5 41q47 0 67.5 -31.5t20.5 -78.5q0 -68 -21 -138.5t-59 -140.5t-86.5 -128t-101.5 -105q-6 -4 -15 -4q-10 0 -19 11t-9 21zM395 745q0 36 20 68t52 51t68 19 q39 0 66.5 -25.5t27.5 -66.5q0 -53 -43.5 -95.5t-96.5 -42.5q-39 0 -66.5 26.5t-27.5 65.5z" />
<glyph unicode="&#x3c;" horiz-adv-x="643" d="M121 -354q0 20 4 30l309 936q7 19 21 19h37q20 0 20 -27l-158 -936q-7 -46 -48.5 -78t-88.5 -32q-38 0 -67 24t-29 64zM432 887q0 55 43 96t96 41q40 0 67.5 -25.5t27.5 -66.5q0 -55 -43 -96t-97 -41q-39 0 -66.5 26.5t-27.5 65.5z" />
<glyph unicode="=" horiz-adv-x="1612" d="M236 303q0 34 40 45h1211q39 -12 39 -45q0 -35 -39 -43h-1211q-40 7 -40 43zM338 719q0 34 41 45h1210q39 -11 39 -45q0 -36 -39 -43h-1210q-41 7 -41 43z" />
<glyph unicode="&#x3e;" d="M178 -184q0 96 49.5 185t128.5 151l310 235q27 23 44 56.5t17 68.5q0 59 -43 59q-56 0 -101 -42.5t-61 -100.5q-4 -18 -20 -18h-37q-21 0 -21 26q13 52 49.5 96.5t88.5 71.5t106 27q38 0 66.5 -21t43.5 -54.5t15 -70.5q0 -62 -28.5 -120.5t-79.5 -98.5l-310 -235 q-57 -46 -94 -111t-37 -131q0 -75 47.5 -123.5t124.5 -48.5q90 0 165.5 52.5t131 132.5t88.5 167q-27 0 -47 21t-20 47q0 44 31 74t73 30q31 0 51.5 -18.5t20.5 -50.5q0 -69 -69.5 -192t-127.5 -181q-141 -141 -301 -141q-111 0 -182.5 73.5t-71.5 184.5zM647 887 q0 55 43 96t96 41q40 0 67.5 -25.5t27.5 -66.5q0 -55 -43 -96t-97 -41q-39 0 -66.5 26.5t-27.5 65.5z" />
<glyph unicode="?" d="M399 952q0 69 68.5 191t128.5 182q141 141 301 141q113 0 183.5 -73t70.5 -185q0 -64 -22.5 -125t-62.5 -115t-93 -96l-309 -235q-62 -49 -62 -125q0 -59 43 -59q56 0 102 43t60 100q2 7 7.5 12.5t12.5 5.5h37q21 0 21 -26q-13 -51 -49.5 -96.5t-88.5 -72t-106 -26.5 q-56 0 -90.5 44.5t-34.5 101.5q0 62 30 122t79 97l309 235q34 26 65 65.5t48.5 85t17.5 91.5q0 76 -48 124t-124 48q-127 0 -229.5 -106t-155.5 -246q28 0 47.5 -19.5t19.5 -48.5q0 -41 -30.5 -72.5t-71.5 -31.5q-31 0 -52.5 18.5t-21.5 50.5zM449 92q0 54 42.5 95.5 t96.5 41.5q39 0 66.5 -25.5t27.5 -66.5q0 -55 -43 -96t-96 -41q-39 0 -66.5 26.5t-27.5 65.5z" />
<glyph unicode="@" horiz-adv-x="1612" d="M311 514q0 161 68 327t188 303t275 218.5t319 81.5q148 0 260.5 -72t172 -194.5t59.5 -270.5q0 -110 -39 -265t-116.5 -269.5t-188.5 -114.5q-58 0 -110 35t-52 90q-129 -125 -273 -125q-91 0 -157.5 45.5t-101.5 120.5t-35 164q0 133 70.5 267t189 221t250.5 87 q83 0 145.5 -48t93.5 -128h84q10 0 15.5 -8t5.5 -18l-136 -537q-8 -42 -8 -59q0 -48 29 -48q60 0 109 69t82 171.5t49 198t16 153.5q0 95 -27.5 182t-80.5 151.5t-132 103t-178 38.5q-150 0 -290.5 -78t-248.5 -209t-168.5 -284.5t-60.5 -300.5q0 -127 49.5 -236.5 t145.5 -174t225 -64.5q102 0 197.5 15.5t193 45.5t186.5 72h7h73q10 0 15.5 -7t5.5 -16q0 -16 -14 -20q-158 -71 -328.5 -110.5t-339.5 -39.5q-113 0 -204 41.5t-156 116t-99.5 173t-34.5 206.5zM723 557q0 -90 37.5 -165t118.5 -75q86 0 163.5 59.5t131.5 145.5l96 387 q-11 81 -58 138t-125 57q-100 0 -184.5 -93.5t-132 -223.5t-47.5 -230z" />
<glyph unicode="A" horiz-adv-x="1563" d="M123 27q0 14 7.5 29.5t21.5 15.5q73 0 132.5 37t94.5 100l8 8l705 1225q14 24 41 24h28q13 0 21 -6.5t8 -17.5l100 -1329q13 -41 142 -41q11 0 17.5 -7.5t6.5 -17.5q0 -47 -37 -47h-465q-22 0 -22 27q0 13 7 29t22 16q59 0 101.5 9.5t53.5 45.5l-26 336h-480l-155 -268 q-17 -32 -17 -60q0 -33 28.5 -48t63.5 -15q12 0 18.5 -7.5t6.5 -17.5q0 -47 -37 -47h-373q-22 0 -22 27zM651 535h432l-49 665z" />
<glyph unicode="B" horiz-adv-x="1479" d="M137 27q0 14 7.5 29.5t21.5 15.5q102 0 149 10q30 12 45 65l279 1119q2 8 3 13t2 8.5t1 10.5q0 29 -153 29q-23 0 -23 27q0 14 7.5 29.5t21.5 15.5h686q67 0 128 -17t111.5 -52.5t80.5 -88t30 -123.5q0 -97 -61.5 -180t-154 -135.5t-190.5 -71.5q77 -8 144.5 -44 t108 -97.5t40.5 -140.5q0 -94 -47 -174.5t-128 -143.5t-175 -97t-184 -34h-727q-23 0 -23 27zM508 86q0 -14 59 -14h285q99 0 188 57.5t141 149t52 190.5q0 96 -53 162.5t-146 66.5h-375l-141 -565q-10 -40 -10 -47zM674 758h295q95 0 183 51.5t143 136.5t55 180 q0 86 -50.5 143.5t-134.5 57.5h-270q-41 0 -56.5 -4.5t-24 -20t-17.5 -51.5z" />
<glyph unicode="C" horiz-adv-x="1503" d="M309 506q0 166 72 335t195.5 305t283.5 217t330 81q99 0 181 -45t132 -129l146 166q8 8 16 8h14q21 0 21 -27l-137 -545q-4 -18 -21 -18h-37q-20 0 -20 27q10 68 10 118q0 96 -30.5 182t-95.5 138.5t-165 52.5q-160 0 -292 -87.5t-226 -232t-142 -306.5t-48 -314 q0 -113 41.5 -205.5t124 -146t196.5 -53.5q123 0 234 67.5t190 177t109 228.5q2 7 7.5 12.5t12.5 5.5h37q20 0 20 -26q-37 -142 -131.5 -265t-229 -197.5t-278.5 -74.5q-118 0 -213.5 42t-164.5 117.5t-105.5 177.5t-36.5 214z" />
<glyph unicode="D" horiz-adv-x="1587" d="M135 27q0 14 7.5 29.5t21.5 15.5q102 0 149 10q30 12 45 65l279 1119q2 8 3 13t2 8.5t1 10.5q0 29 -154 29q-22 0 -22 27q0 14 7.5 29.5t21.5 15.5h688q134 0 235 -69.5t153 -185t52 -251.5q0 -153 -62 -312t-171 -291t-254.5 -211t-302.5 -79h-676q-23 0 -23 27zM512 86 q0 -14 59 -14h232q107 0 207.5 47t177.5 125q77 79 136 206t91.5 266.5t32.5 252.5q0 102 -38.5 184t-114 128t-179.5 46h-217q-41 0 -56.5 -4.5t-24 -20t-17.5 -51.5l-279 -1118q-10 -40 -10 -47z" />
<glyph unicode="E" horiz-adv-x="1425" d="M131 27q0 14 7.5 29.5t21.5 15.5q102 0 149 10q30 12 45 65l279 1119q2 8 3 13t2 8.5t1 10.5q0 29 -154 29q-22 0 -22 27q0 14 7.5 29.5t21.5 15.5h1038q10 0 17 -8t7 -19l-51 -418q-4 -24 -24 -24h-31q-9 0 -16 9t-7 19q13 97 13 162q0 98 -41 142.5t-104 54.5t-175 10 h-217q-41 0 -56.5 -4.5t-24 -20t-17.5 -51.5l-123 -489h145q100 0 150 16.5t76.5 60.5t52.5 144q4 18 22 18h31q9 0 16 -8t7 -16v-8l-125 -500q-7 -18 -23 -18h-31q-24 0 -24 26q0 8 11 54.5t11 74.5q0 55 -48.5 69.5t-129.5 14.5h-157l-140 -557q-10 -40 -10 -47 q0 -14 59 -14h232q140 0 226.5 25t144 79.5t97.5 132.5t95 213q10 15 23 15h30q10 0 16.5 -7.5t6.5 -17.5q0 -8 -2 -10l-201 -488q-7 -14 -20 -14h-1067q-23 0 -23 27z" />
<glyph unicode="F" horiz-adv-x="1372" d="M131 27q0 14 7.5 29.5t21.5 15.5q102 0 149 10q30 12 45 65l279 1119q2 8 3 13t2 8.5t1 10.5q0 29 -154 29q-22 0 -22 27q0 14 7.5 29.5t21.5 15.5h1011q11 0 18 -8t7 -19l-51 -418q-2 -10 -8.5 -17t-16.5 -7h-31q-8 0 -15 9t-7 19q12 108 12 164q0 97 -38 141t-98 54 t-169 10h-205q-41 0 -56.5 -4.5t-24 -20t-17.5 -51.5l-129 -516h139q100 0 148.5 17.5t74 62.5t49.5 141q9 19 23 19h31q11 0 17.5 -7t6.5 -18q0 -4 -2 -8l-125 -500q-4 -18 -22 -18h-31q-22 0 -22 27q0 8 11 55.5t11 75.5q0 55 -46.5 68.5t-123.5 13.5h-158l-133 -537 q-2 -6 -2 -18q0 -23 15 -25q55 -12 184 -12q10 0 16 -7.5t6 -17.5q0 -47 -36 -47h-551q-9 0 -16 9t-7 18z" />
<glyph unicode="G" horiz-adv-x="1626" d="M309 506q0 165 70.5 332t194.5 305t284 219.5t330 81.5q99 0 181 -45t132 -129l146 166q8 8 16 8h14q21 0 21 -27l-137 -545q-4 -18 -21 -18h-37q-20 0 -20 27q10 68 10 118q0 96 -30 181.5t-94.5 138.5t-164.5 53q-159 0 -291 -86.5t-225.5 -230.5t-142.5 -309t-49 -312 q0 -79 20 -148.5t64 -127t112 -90.5q75 -41 176 -41q126 0 227.5 58.5t137.5 168.5l45 180q0 12 2 19q0 21 -16 24q-56 12 -185 12q-22 0 -22 27q0 45 37 45h493q10 0 16.5 -8.5t6.5 -15.5q0 -16 -7 -32t-22 -16q-69 0 -95.5 -12t-39.5 -63l-43 -170l-55 -226 q-9 -18 -23 -18q-19 0 -44 39.5t-40 75.5q-73 -80 -184 -120t-230 -40q-117 0 -213 42t-164 117.5t-104.5 177.5t-36.5 214z" />
<glyph unicode="H" horiz-adv-x="1563" d="M131 27q0 14 7.5 29.5t21.5 15.5q102 0 149 10q29 10 45 65l279 1119q2 8 3 13t2 8.5t1 10.5q0 29 -154 29q-22 0 -22 27q0 45 37 45h504q5 0 10 -3.5t8.5 -10t3.5 -11.5q0 -16 -7.5 -31.5t-21.5 -15.5q-102 0 -149 -10q-30 -10 -45 -66l-121 -487h580l124 502q7 28 7 32 q0 29 -154 29q-22 0 -22 27q0 45 36 45h504q9 0 16 -9t7 -16q0 -16 -7.5 -31.5t-21.5 -15.5q-102 0 -149 -10q-29 -10 -46 -66l-278 -1118q-6 -18 -6 -33q0 -28 151 -28q12 0 18.5 -7.5t6.5 -17.5q0 -47 -37 -47h-504q-22 0 -22 27q0 14 7.5 29.5t20.5 15.5q103 0 150 10 q29 10 45 65l135 545h-579l-140 -559q-6 -18 -6 -33q0 -28 152 -28q11 0 17.5 -7.5t6.5 -17.5q0 -47 -37 -47h-503q-9 0 -16 9t-7 18z" />
<glyph unicode="I" horiz-adv-x="809" d="M123 27q0 14 7.5 29.5t21.5 15.5q108 0 159 12q29 11 45 63l279 1119q4 20 4 30q0 15 -4 17q-23 14 -156 14q-24 0 -24 27q0 19 9 32t28 13h522q6 0 11 -4t8 -10t3 -11q0 -47 -28 -47q-109 0 -158 -12q-34 -12 -45 -64l-279 -1118q-6 -15 -6 -31q0 -14 4 -16 q23 -14 158 -14q10 0 16.5 -8.5t6.5 -16.5q0 -47 -37 -47h-523q-22 0 -22 27z" />
<glyph unicode="J" horiz-adv-x="1102" d="M203 176q0 63 31.5 109.5t91.5 46.5q35 0 59.5 -22t24.5 -56q0 -48 -36.5 -83.5t-82.5 -35.5h-6q13 -56 61.5 -88.5t106.5 -32.5q91 0 164 94t96 193l243 971q1 5 1.5 8.5t0.5 7.5q0 22 -16 27q-55 12 -192 12q-23 0 -23 27q0 45 37 45h506q5 0 10 -3.5t8.5 -10 t3.5 -11.5q0 -47 -28 -47q-72 0 -101 -12t-45 -64l-241 -964q-22 -92 -87 -168t-155 -120t-184 -44q-100 0 -174 60.5t-74 160.5z" />
<glyph unicode="K" horiz-adv-x="1616" d="M131 27q0 14 7.5 29.5t21.5 15.5q102 0 149 10q29 10 45 65l279 1119q2 8 3 13t2 8.5t1 10.5q0 29 -154 29q-22 0 -22 27q0 45 37 45h504q5 0 10 -3.5t8.5 -10t3.5 -11.5q0 -16 -7.5 -31.5t-21.5 -15.5q-102 0 -149 -10q-30 -10 -45 -66l-160 -641l741 602q4 8 18.5 21.5 t24 28t9.5 30.5q0 35 -58 35q-22 0 -22 27q0 45 37 45h381q5 0 10 -3.5t8.5 -10t3.5 -11.5q0 -18 -7 -32.5t-22 -14.5q-77 0 -151.5 -39.5t-155.5 -105.5q-1 -2 -3 -2h-4q-2 0 -3 -2l-403 -328l284 -715q18 -32 36 -44.5t39.5 -15.5t61.5 -3q10 0 16.5 -7.5t6.5 -17.5 q0 -47 -37 -47h-426q-22 0 -22 27q0 13 7 29t21 16q113 0 113 59q0 5 -0.5 8t-1.5 6l-236 592l-295 -237l-90 -367q-6 -18 -6 -33q0 -28 152 -28q11 0 17.5 -7.5t6.5 -17.5q0 -47 -37 -47h-503q-9 0 -16 9t-7 18z" />
<glyph unicode="L" horiz-adv-x="1317" d="M131 27q0 14 7.5 29.5t21.5 15.5q102 0 149 10q30 12 45 65l279 1119q2 8 3 13t2 8.5t1 10.5q0 29 -154 29q-22 0 -22 27q0 45 37 45h551q5 0 10 -3.5t8.5 -10t3.5 -11.5q0 -18 -7 -32.5t-22 -14.5q-135 0 -196 -14l-12 -6q-22 -15 -33 -56l-279 -1118q-10 -40 -10 -47 q0 -14 59 -14h179q150 0 242 63.5t136.5 142.5t77.5 167.5t49 91.5h31q9 0 16 -9t7 -18q0 -6 -2 -10l-174 -484q-2 -6 -8.5 -11t-12.5 -5h-960q-23 0 -23 27z" />
<glyph unicode="M" horiz-adv-x="1884" d="M141 27q0 14 8 29.5t21 15.5q175 0 207 131l266 1063q2 8 3 13t2 8.5t1 10.5q0 29 -153 29q-23 0 -23 27q0 14 7.5 29.5t21.5 15.5h338q12 0 20.5 -7t9.5 -18l123 -1167l707 1167q13 25 43 25h323q12 0 18.5 -7.5t6.5 -17.5q0 -16 -7.5 -31.5t-21.5 -15.5 q-102 0 -149 -10q-30 -10 -45 -66l-279 -1118q-6 -18 -6 -33q0 -28 152 -28q11 0 17.5 -7.5t6.5 -17.5q0 -47 -37 -47h-485q-9 0 -16 9t-7 18q0 14 8 29.5t21 15.5q103 0 150 10q29 11 45 65l286 1149l-770 -1269q-13 -27 -43 -27h-16q-28 0 -31 27l-133 1251l-272 -1090 q-4 -20 -4 -34q0 -50 39.5 -66t97.5 -16q11 0 17.5 -7.5t6.5 -17.5q0 -47 -36 -47h-416q-9 0 -16 9t-7 18z" />
<glyph unicode="N" horiz-adv-x="1563" d="M131 27q0 14 7.5 29.5t21.5 15.5q175 0 207 131l278 1114q-49 10 -160 10q-22 0 -22 27q0 14 7.5 29.5t21.5 15.5h317q16 0 20 -15l406 -1081l225 907q6 16 6 35q0 51 -39 66.5t-100 15.5q-22 0 -22 27q0 45 36 45h416q9 0 16 -9t7 -16q0 -16 -7.5 -31.5t-21.5 -15.5 q-174 0 -209 -131l-293 -1178q-7 -18 -22 -18h-37q-15 0 -23 16l-456 1219l-262 -1047q-5 -17 -5 -34q0 -50 40 -66t98 -16q11 0 17.5 -7.5t6.5 -17.5q0 -47 -37 -47h-415q-9 0 -16 9t-7 18z" />
<glyph unicode="O" horiz-adv-x="1612" d="M307 489q0 164 67.5 331.5t190.5 311t278 228t322 84.5q115 0 205.5 -42.5t152 -115.5t95 -173t33.5 -208q0 -219 -119.5 -441.5t-318 -365.5t-418.5 -143q-147 0 -258.5 71t-170.5 193.5t-59 269.5zM498 434q0 -101 33.5 -196t104 -154t175.5 -59q147 0 270 96t208 245 t132 315t47 302q0 78 -19 147.5t-59 126t-100 89t-141 32.5q-72 0 -138.5 -25t-125 -67t-111.5 -96q-126 -134 -201 -347t-75 -409z" />
<glyph unicode="P" horiz-adv-x="1425" d="M135 27q0 14 7.5 29.5t21.5 15.5q102 0 149 10q29 10 45 65l279 1119q2 8 3 13t2 8.5t1 10.5q0 29 -154 29q-22 0 -22 27q0 14 7.5 29.5t21.5 15.5h661q96 0 180.5 -35.5t137.5 -105.5t53 -166q0 -129 -86.5 -233.5t-219.5 -164t-257 -59.5h-312l-125 -502q-6 -18 -6 -33 q0 -28 152 -28q11 0 17.5 -7.5t6.5 -17.5q0 -47 -36 -47h-504q-9 0 -16 9t-7 18zM664 700h268q182 0 285 103q36 38 64 98.5t43 125t15 118.5q0 67 -36 108t-91 57.5t-122 16.5h-191q-41 0 -56.5 -4.5t-24 -20t-17.5 -51.5z" />
<glyph unicode="Q" horiz-adv-x="1612" d="M307 489q0 164 67.5 331.5t190.5 311t278 228t322 84.5q115 0 205.5 -42.5t152 -115.5t95 -173t33.5 -208q0 -137 -44.5 -274.5t-125 -257.5t-188.5 -212.5t-238 -148.5q0 -211 127 -211q51 0 99 29.5t82 77.5t48 100q4 19 25 19q9 0 16.5 -8.5t7.5 -18.5v-8 q-24 -95 -65 -181.5t-108 -147t-154 -60.5q-168 0 -168 200q0 30 2.5 61.5t6 55.5t7.5 64q-96 -29 -186 -29q-147 0 -258.5 71t-170.5 193.5t-59 269.5zM487 426q0 -119 46 -223t143 -152q-6 22 -6 43q0 81 63 148t144 67q88 0 125.5 -58.5t46.5 -154.5q127 80 223.5 226.5 t147 319t50.5 327.5q0 106 -34.5 198.5t-106.5 151.5t-180 59q-103 0 -202 -54.5t-179 -141.5q-59 -65 -112.5 -158.5t-91.5 -198t-57.5 -206t-19.5 -193.5zM729 96q0 -76 82 -76t176 43q2 13 2 37q0 71 -25 110.5t-90 39.5q-36 0 -70 -22.5t-54.5 -58t-20.5 -73.5z" />
<glyph unicode="R" horiz-adv-x="1532" d="M135 27q0 14 7.5 29.5t21.5 15.5q102 0 149 10q29 10 45 65l279 1119q2 8 3 13t2 8.5t1 10.5q0 29 -154 29q-22 0 -22 27q0 14 7.5 29.5t21.5 15.5h581q76 0 149.5 -17.5t136 -54t101.5 -95t39 -138.5q0 -100 -63 -182t-160 -138t-197 -82q51 -22 86.5 -56t56.5 -80 t21 -99q0 -19 -2 -29l-16 -180q-10 -72 -10 -123q0 -48 14 -79.5t57 -31.5q57 0 97.5 59.5t56.5 127.5q4 18 22 18h31q9 0 17 -8t8 -16q0 -2 -2 -9q-15 -57 -46.5 -109t-79.5 -87t-106 -35q-112 0 -190 54.5t-78 164.5q0 36 10 84l45 178q6 31 6 58q0 80 -51 128t-131 48 h-244l-133 -537q-6 -18 -6 -33q0 -28 152 -28q11 0 17.5 -7.5t6.5 -17.5q0 -47 -37 -47h-497q-9 0 -16 9t-7 18zM670 729h215q203 0 313 107q52 54 82.5 138t30.5 165q0 106 -80 147t-197 41h-135q-41 0 -56.5 -4.5t-24 -20t-17.5 -51.5z" />
<glyph unicode="S" horiz-adv-x="1182" d="M154 -18l116 464q4 19 21 19h37q20 0 20 -27q-18 -70 -18 -131q0 -139 86 -209.5t229 -70.5q87 0 167 58t127.5 147t47.5 178q0 69 -34.5 124t-98.5 72l-238 68q-95 27 -149.5 105.5t-54.5 178.5q0 90 40 179t107 158t154.5 109t177.5 40q87 0 160.5 -33.5t113.5 -103.5 l105 129q8 8 16 8h14q21 0 21 -27l-117 -465q-4 -18 -20 -18h-37q-21 0 -21 27q10 66 13 131q0 86 -26 150.5t-81.5 100t-144.5 35.5q-85 0 -162 -49.5t-124.5 -130.5t-47.5 -164q0 -65 34.5 -116.5t96.5 -69.5l238 -66q97 -26 151.5 -110t54.5 -189q0 -125 -68 -248.5 t-182 -201.5t-241 -78q-98 0 -186 33t-140 106l-106 -131q-8 -8 -17 -8h-14q-20 0 -20 27z" />
<glyph unicode="T" horiz-adv-x="1503" d="M362 956q0 7 3 11l141 417q4 15 20 15h1137q9 0 17 -9t8 -18l-70 -424q-4 -18 -23 -18h-30q-9 0 -16 9t-7 19q3 23 11 77t11 86t3 55q0 92 -52.5 121.5t-156.5 29.5h-109q-40 0 -55.5 -4t-24.5 -19.5t-18 -52.5l-281 -1122q0 -6 -0.5 -9t-1.5 -7q0 -24 15 -27 q57 -14 215 -14q11 0 17.5 -7.5t6.5 -17.5q0 -47 -37 -47h-663q-9 0 -16 9t-7 18q0 14 8 29.5t21 15.5q73 0 128 2.5t81 7.5q49 11 65 65l279 1119q8 32 8 49q0 12 -57 12h-111q-98 0 -161.5 -26.5t-101 -75t-55.5 -94t-65 -185.5q-8 -16 -22 -16h-31q-23 0 -23 26z" />
<glyph unicode="U" horiz-adv-x="1563" d="M418 342q0 62 16 131l199 793q2 8 3 13t2 8.5t1 10.5q0 29 -154 29q-22 0 -22 27q0 45 37 45h504q5 0 10 -3.5t8.5 -10t3.5 -11.5q0 -16 -7.5 -31.5t-21.5 -15.5q-102 0 -149 -10q-30 -10 -45 -66l-199 -792q-24 -99 -24 -178q0 -109 59 -181.5t166 -72.5 q115 0 213.5 64.5t166.5 166t97 215.5l184 737q7 19 7 35q0 51 -39 66.5t-101 15.5q-22 0 -22 27q0 45 37 45h409q9 0 16 -9t7 -16q0 -16 -7.5 -31.5t-21.5 -15.5q-174 0 -209 -131l-184 -737q-23 -94 -76.5 -184.5t-128.5 -162t-165.5 -114.5t-188.5 -43q-110 0 -196.5 50 t-135.5 138t-49 199z" />
<glyph unicode="V" horiz-adv-x="1563" d="M428 1354q0 45 39 45h455q5 0 10 -3.5t8.5 -10t3.5 -11.5q0 -18 -7 -32.5t-22 -14.5q-151 0 -151 -55l113 -1069l608 1003q1 5 10.5 25t9.5 35q0 33 -27 47t-63 14q-24 0 -24 27q0 45 36 45h363q6 0 11 -4t8 -10t3 -11q0 -47 -28 -47q-136 0 -221 -137q-2 -2 -4.5 -4 t-4.5 -4l-729 -1202q-13 -25 -43 -25h-26q-28 0 -31 25l-139 1308q-8 25 -45 32t-88 7q-11 0 -18 8t-7 19z" />
<glyph unicode="W" horiz-adv-x="2099" d="M428 1354q0 45 37 45h442q10 0 16.5 -8t6.5 -17q0 -18 -7 -32.5t-22 -14.5q-60 0 -103 -10t-55 -47l52 -1026l501 909l-6 135q-8 39 -121 39q-22 0 -22 27q0 45 37 45h444q9 0 16 -9t7 -16q0 -16 -8 -31.5t-21 -15.5q-61 0 -103.5 -9.5t-54.5 -47.5v-15l52 -1011l528 960 q14 26 14 51q0 39 -34.5 55.5t-79.5 16.5q-23 0 -23 27q0 45 37 45h371q6 0 11 -4t8 -10t3 -11q0 -18 -7 -32.5t-22 -14.5q-126 0 -202 -137q-6 -6 -6 -8l-662 -1202q-13 -25 -41 -25h-29q-26 0 -26 25l-53 1038l-570 -1038q-13 -25 -41 -25h-28q-11 0 -20 7t-9 18l-66 1308 q-6 39 -118 39q-23 0 -23 27z" />
<glyph unicode="X" horiz-adv-x="1563" d="M109 27q0 13 7 29t21 16q56 0 108.5 17t98.5 47.5t86 74.5q4 4 6.5 6t5.5 4l430 484l-227 583q-19 25 -59.5 32t-96.5 7q-22 0 -22 27q0 45 37 45h463q5 0 10 -3.5t8.5 -10t3.5 -11.5q0 -15 -7.5 -31t-20.5 -16q-37 0 -74.5 -13t-46.5 -40l164 -422l319 356q1 6 14 26.5 t13 37.5q0 27 -21 41t-49 14q-10 0 -17.5 8.5t-7.5 18.5q0 19 9 32t28 13h408q5 0 10 -3.5t8.5 -10t3.5 -11.5q0 -15 -7.5 -31t-20.5 -16q-166 0 -295 -139l-4 -4l-6 -6l-357 -400l260 -667q20 -25 60 -32t96 -7q10 0 16 -7.5t6 -17.5q0 -47 -36 -47h-463q-9 0 -16 9t-7 18 q0 14 7.5 29.5t21.5 15.5q33 0 71.5 13t49.5 40l-197 506l-395 -441q0 -4 -13.5 -24t-13.5 -39q0 -27 21.5 -41t50.5 -14q10 0 16 -7.5t6 -17.5q0 -47 -36 -47h-406q-22 0 -22 27z" />
<glyph unicode="Y" horiz-adv-x="1563" d="M416 1354q0 45 37 45h467q5 0 10 -3.5t8.5 -10t3.5 -11.5q0 -18 -7 -32.5t-22 -14.5q-129 0 -129 -45l213 -623l459 549q2 9 19.5 33.5t17.5 44.5q0 41 -68 41q-24 0 -24 27q0 19 9 32t28 13h366q9 0 16 -8t7 -17q0 -16 -7.5 -31.5t-21.5 -15.5q-151 0 -264 -139 q-3 -2 -5.5 -4t-4.5 -4l-520 -621l-105 -420q-6 -18 -6 -39q0 -28 151 -28q12 0 18.5 -7.5t6.5 -17.5q0 -47 -37 -47h-497q-9 0 -16 9t-7 18q0 14 7.5 29.5t21.5 15.5q102 0 149 10q17 7 23.5 16t12.5 26.5t11 27.5l101 407l-248 729q-16 25 -56 32t-94 7q-24 0 -24 27z" />
<glyph unicode="Z" horiz-adv-x="1288" d="M166 18q0 30 12 45l1084 1264h-273q-166 0 -263 -53t-135.5 -119.5t-64.5 -143.5t-45 -81h-30q-23 0 -23 26v7l125 417q7 19 22 19h877q21 0 21 -19q0 -23 -13 -41l-1081 -1261h285q188 0 293 64.5t142.5 140.5t66 172t51.5 100h30q12 0 18.5 -7t6.5 -18q0 -4 -2 -8 l-158 -504q-7 -18 -22 -18h-904q-20 0 -20 18z" />
<glyph unicode="[" horiz-adv-x="643" d="M156 -479l499 1997q4 18 23 18h225q10 0 16.5 -7.5t6.5 -17.5q0 -56 -33 -63h-166l-467 -1872h154q10 0 16 -7.5t6 -19.5q0 -54 -33 -61h-225q-9 0 -15.5 7.5t-6.5 17.5v8z" />
<glyph unicode="\" horiz-adv-x="1079" d="M557 928q0 87 40 180t106.5 174t138.5 135q8 4 14 4q11 0 20 -11t9 -21q0 -12 -8 -17q-95 -73 -162 -169.5t-90 -205.5q38 27 82 27q41 0 68.5 -25t27.5 -65q0 -57 -43 -98t-98 -41q-53 0 -79 39t-26 94zM948 928q0 129 83.5 264t201.5 225q8 4 14 4q12 0 20.5 -10 t8.5 -22t-8 -17q-95 -73 -161 -168t-91 -207q38 27 82 27q41 0 68.5 -25t27.5 -65q0 -57 -43 -98t-98 -41q-53 0 -79 39t-26 94z" />
<glyph unicode="]" horiz-adv-x="643" d="M-27 -487q0 55 33 63h166l467 1872h-154q-22 0 -22 27q0 54 33 61h225q10 0 16 -7t6 -18v-8l-499 -1997q-4 -18 -23 -18h-225q-10 0 -16.5 7.5t-6.5 17.5z" />
<glyph unicode="^" d="M545 1133q0 10 10 20l315 264q8 4 15 4q13 0 20 -10l185 -264q6 -6 6 -14q0 -17 -17 -31.5t-32 -14.5q-14 0 -21 11l-162 198l-264 -202q-11 -7 -16 -7q-15 0 -27 15.5t-12 30.5z" />
<glyph unicode="_" horiz-adv-x="643" d="M518 1235q0 55 43 96t96 41q40 0 67.5 -25.5t27.5 -66.5q0 -55 -43 -96t-97 -41q-39 0 -66.5 26.5t-27.5 65.5z" />
<glyph unicode="`" horiz-adv-x="643" d="M422 928q0 87 40 180t106.5 174t138.5 135q8 4 14 4q11 0 20 -11t9 -21q0 -12 -9 -17q-95 -73 -161 -169.5t-91 -205.5q40 27 82 27q40 0 68.5 -25t28.5 -65q0 -57 -43 -98t-99 -41q-52 0 -78 39t-26 94z" />
<glyph unicode="a" d="M221 301q0 125 65 268.5t177 239.5t242 96q52 0 98.5 -29t73.5 -77q9 29 32.5 47t53.5 18q24 0 42.5 -16.5t18.5 -42.5v-19l-143 -569q-15 -58 -15 -102q0 -78 49 -78q28 0 52 29t41 72t29.5 92.5t17.5 68.5q2 7 7.5 12.5t12.5 5.5h37q9 0 15 -8.5t6 -17.5 q-34 -138 -79 -226t-141 -88q-66 0 -115 36.5t-67 99.5q-50 -58 -115.5 -97t-132.5 -39q-124 0 -193 97t-69 227zM373 213q0 -68 27 -122t87 -54q126 0 248 194l107 431q-8 73 -42 128.5t-100 55.5q-75 0 -137 -70.5t-98 -159.5q-17 -42 -40 -123t-37.5 -157.5t-14.5 -122.5 z" />
<glyph unicode="b" horiz-adv-x="967" d="M233 295q0 105 19 154l201 796q8 34 8 51q0 31 -129 31q-23 0 -23 27q0 13 7 29t22 16l272 22q27 0 27 -24v-8l-145 -582q105 98 210 98q85 0 144.5 -46t89 -120.5t29.5 -156.5q0 -94 -36 -199t-103 -198.5t-155 -150.5t-188 -57q-82 0 -139 46.5t-84 118.5t-27 153z M365 223q0 -70 28.5 -128t91.5 -58q76 0 139 72t95 155q30 74 62 206t32 202q0 66 -27 120t-88 54q-71 0 -133.5 -57.5t-111.5 -137.5l-54 -213q-34 -134 -34 -215z" />
<glyph unicode="c" horiz-adv-x="967" d="M223 319q0 99 42.5 203.5t117 192t171 139t202.5 51.5q89 0 158 -45t69 -131q0 -50 -30 -88.5t-79 -38.5q-30 0 -50.5 19.5t-20.5 50.5q0 38 26.5 67t63.5 35q-15 36 -54 54t-85 18q-89 0 -159.5 -62.5t-117 -157.5t-71.5 -201.5t-25 -182.5q0 -53 17 -100t52 -76t91 -29 q74 0 146 25.5t134 71.5t105 106q5 8 16 8q14 0 28.5 -14.5t14.5 -28.5q0 -7 -6 -15q-74 -103 -194 -158t-248 -55q-94 0 -166 46.5t-110 125t-38 170.5z" />
<glyph unicode="d" d="M221 301q0 125 65 268.5t177 239.5t242 96q52 0 98.5 -29t73.5 -77l112 446q8 34 8 51q0 31 -129 31q-22 0 -22 27q0 13 7 29t21 16l273 22q12 0 19.5 -6.5t7.5 -17.5v-8l-293 -1172q0 -10 -7.5 -49t-7.5 -53q0 -78 49 -78q28 0 52 29t41 72t29.5 92.5t17.5 68.5 q2 7 7.5 12.5t12.5 5.5h37q9 0 15 -8.5t6 -17.5q-34 -138 -79 -226t-141 -88q-66 0 -115 36.5t-67 99.5q-50 -58 -115.5 -97t-132.5 -39q-124 0 -193 97t-69 227zM373 213q0 -68 27 -122t87 -54q126 0 248 194l107 431q-8 73 -42 128.5t-100 55.5q-75 0 -137 -70.5 t-98 -159.5q-17 -42 -40 -123t-37.5 -157.5t-14.5 -122.5z" />
<glyph unicode="e" horiz-adv-x="967" d="M233 342q0 108 40 209t111 181.5t167.5 126.5t204.5 46q86 0 151.5 -47t65.5 -131q0 -91 -55 -146t-142 -80t-167 -30.5t-183 -5.5h-8q-31 -128 -31 -209q0 -54 15 -103t50 -82.5t89 -33.5q74 0 146 25.5t134 71.5t105 106q5 8 16 8q14 0 28.5 -14.5t14.5 -28.5 q0 -7 -6 -15q-74 -103 -194 -158t-248 -55q-98 0 -166.5 51.5t-103 135.5t-34.5 178zM434 524q112 0 205 11t167.5 55.5t74.5 138.5q0 52 -37.5 84.5t-89.5 32.5q-121 0 -202 -94.5t-118 -227.5z" />
<glyph unicode="f" horiz-adv-x="643" d="M-51 -283q0 46 30 81.5t76 35.5q30 0 51 -18.5t21 -48.5q0 -36 -21.5 -65t-54.5 -36q30 -26 76 -26q34 0 56.5 36t33.5 78q32 114 61.5 259.5t57.5 297.5l96 500h-166q-22 0 -22 27q0 13 7 29t21 16h174l25 135q23 121 50 206.5t86 152.5t155 67q43 0 84.5 -15.5 t67.5 -46.5t26 -75q0 -47 -30.5 -82t-75.5 -35q-28 0 -50 18.5t-22 48.5q0 34 22 63t54 38q-33 26 -80 26q-20 0 -40.5 -19t-31.5 -42q-19 -55 -65 -307l-27 -133h201q10 0 16 -7.5t6 -17.5q0 -18 -7 -32.5t-22 -14.5h-206l-97 -502q-22 -123 -44.5 -231t-61.5 -220.5 t-104 -195t-152 -82.5q-68 0 -121 36.5t-53 100.5z" />
<glyph unicode="g" horiz-adv-x="967" d="M111 -299q0 46 30.5 79.5t75.5 33.5q30 0 51 -18.5t21 -49.5q0 -60 -53 -90q47 -16 149 -16q62 0 115.5 33.5t90 85.5t52.5 112l55 225q-103 -96 -211 -96q-83 0 -142.5 45t-89.5 116.5t-30 155.5q0 95 36 196.5t102.5 192.5t154 145t184.5 54q53 0 98.5 -27.5 t73.5 -76.5q10 27 33 45t54 18q24 0 42.5 -16.5t18.5 -42.5v-19l-231 -923q-20 -82 -84 -147.5t-150.5 -100.5t-173.5 -35q-111 0 -191.5 21t-80.5 100zM377 231q0 -64 27.5 -118t87.5 -54q69 0 134 58t111 131l105 420q-9 68 -44 123t-98 55q-76 0 -136 -68t-97 -155 q-19 -46 -40 -120t-35.5 -150t-14.5 -122z" />
<glyph unicode="h" d="M152 37q1 5 1.5 8.5t0.5 9.5l299 1190q8 34 8 51q0 31 -129 31q-23 0 -23 27q0 13 7 29t22 16l272 22h8q19 -7 19 -24v-8l-152 -607q117 123 273 123q103 0 165 -57t62 -160q0 -85 -36 -199.5t-95 -271.5q-29 -82 -29 -127q0 -53 37 -53q126 0 193 262q2 7 7.5 12.5 t12.5 5.5h37q9 0 15 -8.5t6 -17.5q-30 -121 -99.5 -217.5t-175.5 -96.5q-69 0 -117.5 48.5t-48.5 119.5q0 45 15 80q61 162 99 282t38 210q0 52 -21 90.5t-69 38.5q-192 0 -320 -266l-133 -535q-9 -29 -32.5 -48.5t-53.5 -19.5q-25 0 -44 18t-19 42z" />
<glyph unicode="i" horiz-adv-x="643" d="M162 592q30 123 99 218t173 95q73 0 120.5 -48.5t47.5 -119.5q0 -42 -14 -80l-164 -440q-29 -82 -29 -127q0 -53 37 -53q126 0 193 262q2 7 7.5 12.5t12.5 5.5h37q10 0 15 -7.5t5 -18.5q-31 -124 -99.5 -219t-174.5 -95q-69 0 -117.5 48.5t-48.5 119.5q0 44 14 80 l164 441q29 77 29 127q0 53 -39 53q-126 0 -190 -262q-4 -19 -21 -19h-37q-20 0 -20 27zM502 1241q0 40 32.5 71t71.5 31q31 0 51.5 -19.5t20.5 -49.5q0 -40 -32.5 -71.5t-72.5 -31.5q-28 0 -49.5 20.5t-21.5 49.5z" />
<glyph unicode="j" horiz-adv-x="643" d="M-72 -297q0 44 30.5 77.5t76.5 33.5q29 0 50 -18.5t21 -49.5q0 -63 -61 -94q24 -12 55 -12q83 0 143.5 80.5t84.5 173.5l192 772q15 64 15 102q0 78 -52 78q-144 0 -245 -266q-3 -15 -19 -15h-37q-20 0 -20 27q50 128 132 220.5t193 92.5q53 0 96 -24.5t67 -67.5t24 -96 q0 -28 -6 -60l-193 -772q-14 -58 -52 -116t-90 -100t-114 -65.5t-123 -23.5q-62 0 -115 31.5t-53 91.5zM573 1241q0 26 15.5 50t39.5 38t50 14q31 0 51.5 -19.5t20.5 -49.5q0 -41 -32 -72t-73 -31q-28 0 -50 20.5t-22 49.5z" />
<glyph unicode="k" horiz-adv-x="967" d="M152 37q1 5 1.5 8.5t0.5 9.5l299 1190q8 34 8 51q0 31 -129 31q-23 0 -23 27q0 13 7 29t22 16l272 22h8q19 -7 19 -24v-8l-211 -844q68 32 172 145.5t164.5 164t155.5 50.5q56 0 92.5 -38.5t36.5 -94.5q0 -50 -29.5 -87.5t-77.5 -37.5q-30 0 -52 19.5t-22 48.5 q0 39 28 69t67 35q-17 27 -48 27q-70 0 -134 -51t-153.5 -147.5t-140.5 -133.5q112 -15 192.5 -66t80.5 -149q0 -28 -6 -55q-19 -74 -19 -127q0 -80 53 -80q36 0 64 27t45 66t29 83t22 86q2 7 7.5 12.5t13.5 5.5h37q10 0 15 -7.5t5 -18.5q-77 -314 -242 -314q-84 0 -135 59 t-51 144q0 39 8 72q6 21 6 43q0 50 -31 85.5t-77.5 54.5t-95.5 26l-105 -416q-9 -29 -32.5 -48.5t-53.5 -19.5q-25 0 -44 18t-19 42z" />
<glyph unicode="l" horiz-adv-x="537" d="M188 166q0 38 9 61l256 1018q8 34 8 51q0 31 -129 31q-23 0 -23 27q0 13 7 29t22 16l272 22q27 0 27 -24v-8l-293 -1172q0 -14 -7 -51t-7 -51q0 -78 49 -78q27 0 51 29.5t40.5 73.5t28.5 92.5t17 66.5q2 7 7.5 12.5t13.5 5.5h36q11 0 16 -7.5t5 -18.5 q-27 -101 -46.5 -157.5t-62 -106.5t-108.5 -50q-83 0 -136 53t-53 136z" />
<glyph unicode="m" horiz-adv-x="1718" d="M162 592q30 131 77 222t142 91q71 0 122.5 -42.5t61.5 -110.5q59 71 135.5 112t165.5 41t150 -43.5t74 -126.5q58 78 138.5 124t174.5 46q103 0 165 -57t62 -160q0 -85 -36 -199.5t-95 -271.5q-29 -82 -29 -127q0 -53 37 -53q126 0 193 262q2 7 7.5 12.5t12.5 5.5h37 q11 0 16 -7.5t5 -18.5q-30 -121 -99.5 -217.5t-175.5 -96.5q-69 0 -117.5 48.5t-48.5 119.5q0 45 15 80q61 162 99 282t38 210q0 52 -21 90.5t-69 38.5q-192 0 -320 -266q0 -3 -0.5 -5.5t-1.5 -5.5l-131 -522q-8 -30 -32 -50t-54 -20q-26 0 -44.5 17.5t-18.5 42.5q0 12 2 18 l131 523q19 75 22 139q0 55 -20 92t-70 37q-193 0 -321 -266l-133 -533q-8 -29 -32.5 -49.5t-53.5 -20.5q-26 0 -45 17t-19 43q0 12 2 18l154 611q14 59 14 102q0 78 -51 78q-79 0 -137 -262q-4 -19 -21 -19h-37q-20 0 -20 27z" />
<glyph unicode="n" horiz-adv-x="1182" d="M162 592q30 131 77 222t142 91q71 0 122 -41.5t62 -109.5q128 151 299 151q104 0 166 -57t62 -160q0 -85 -36 -199.5t-95 -271.5q-29 -77 -29 -127q0 -53 37 -53q128 0 192 262q2 7 7.5 12.5t13.5 5.5h37q10 0 15 -7.5t5 -18.5q-30 -121 -99.5 -217.5t-174.5 -96.5 q-70 0 -118 49t-48 119q0 44 14 80q61 162 99 282t38 210q0 55 -20 92t-70 37q-190 0 -319 -264l-133 -535q-8 -29 -32.5 -49.5t-53.5 -20.5q-26 0 -45 17t-19 43q0 12 2 18l154 611q14 59 14 102q0 78 -51 78q-79 0 -137 -262q-4 -19 -21 -19h-37q-20 0 -20 27z" />
<glyph unicode="o" d="M223 319q0 137 74.5 273.5t198.5 224.5t262 88q70 0 129 -27t99.5 -74t62.5 -108t22 -133q0 -102 -41.5 -204t-117 -190.5t-173.5 -140t-202 -51.5q-94 0 -166 46.5t-110 125t-38 170.5zM381 242q0 -53 17 -100t52 -76t91 -29q87 0 158 62t118 158.5t71.5 201.5t24.5 182 q0 53 -17 99.5t-53.5 76t-88.5 29.5q-115 0 -200 -103.5t-129 -248.5t-44 -252z" />
<glyph unicode="p" d="M27 -373q0 16 7 31.5t21 15.5q67 0 91 11.5t38 64.5l230 916q0 4 7 41.5t7 60.5q0 78 -51 78q-79 0 -137 -262q-4 -19 -21 -19h-37q-20 0 -20 27q30 131 77 222t142 91q64 0 114.5 -36.5t65.5 -98.5q123 135 250 135q84 0 143 -46t89 -120t30 -157q0 -94 -36 -199 t-102.5 -198t-155.5 -150.5t-189 -57.5q-53 0 -98.5 28.5t-73.5 78.5l-88 -348q-2 -12 -4 -21.5t-2 -15.5q0 -25 131 -25q10 0 16 -7t6 -19q0 -45 -37 -45h-391q-7 0 -14.5 8.5t-7.5 15.5zM453 221q7 -73 42 -128.5t99 -55.5q75 0 138.5 72t96.5 157q23 62 43.5 133.5 t35 145.5t14.5 125q0 68 -27 122t-88 54q-71 0 -135 -57.5t-113 -137.5z" />
<glyph unicode="q" horiz-adv-x="967" d="M221 301q0 125 65 269t175.5 239.5t240.5 95.5q58 0 106.5 -34t74.5 -87q13 25 63 73t72 48q10 0 17 -7t7 -17v-9l-284 -1136q-2 -12 -4 -21.5t-2 -15.5q0 -25 131 -25q10 0 16 -7t6 -19q0 -45 -37 -45h-434q-7 0 -14.5 8.5t-7.5 15.5q0 16 7 31.5t21 15.5q82 0 117 7 q19 4 29 13t15 20t11 36l82 326q-106 -99 -211 -99q-124 0 -193 97t-69 227zM373 211q0 -66 26.5 -120t85.5 -54q126 0 248 194l107 431q-7 71 -41.5 127.5t-98.5 56.5q-75 0 -136.5 -69.5t-98.5 -158.5q-30 -78 -61 -206t-31 -201z" />
<glyph unicode="r" horiz-adv-x="885" d="M162 592q30 131 77 222t142 91q66 0 115.5 -37.5t64.5 -99.5q49 62 113.5 99.5t136.5 37.5q78 0 142.5 -34.5t64.5 -106.5q0 -48 -29.5 -82.5t-75.5 -34.5q-30 0 -51.5 19.5t-21.5 48.5q0 33 21 61t52 39q-38 31 -106 31q-147 0 -258 -238l-141 -561q-8 -29 -32.5 -49.5 t-53.5 -20.5q-26 0 -45 17t-19 43q0 12 2 18l154 611q14 59 14 102q0 78 -51 78q-79 0 -137 -262q-4 -19 -21 -19h-37q-20 0 -20 27z" />
<glyph unicode="s" horiz-adv-x="858" d="M156 176q0 53 29.5 92t78.5 39q30 0 51 -19t21 -48q0 -40 -28 -70.5t-66 -34.5q17 -50 72.5 -74t117.5 -24q104 0 184 57.5t80 157.5q0 50 -34 84t-84 45l-103 22q-71 15 -115.5 69t-44.5 126q0 89 46.5 159t123 109t164.5 39q90 0 159 -45t69 -131q0 -45 -24.5 -80 t-70.5 -35q-27 0 -45 17t-18 43q0 33 21 57.5t53 30.5q-13 42 -56 63t-92 21q-79 0 -140 -49.5t-61 -126.5q0 -38 24.5 -65t63.5 -38l103 -22q82 -17 136 -78t54 -143q0 -77 -32 -142t-88 -110.5t-127 -70t-148 -24.5q-106 0 -190 50.5t-84 148.5z" />
<glyph unicode="t" horiz-adv-x="698" d="M182 838q0 14 7.5 29.5t21.5 15.5h203l84 329q6 30 31 50t55 20q25 0 43 -16.5t18 -42.5v-19l-82 -321h191q11 0 17.5 -7.5t6.5 -17.5q0 -15 -7.5 -31t-20.5 -16h-203l-150 -594q-14 -61 -14 -102q0 -78 51 -78q142 0 244 262q9 18 20 18h37q11 0 16 -7.5t5 -18.5 q-31 -77 -76.5 -148.5t-109 -118.5t-140.5 -47q-82 0 -135 53t-53 136q0 19 8 59l147 586h-190q-10 0 -17.5 8.5t-7.5 18.5z" />
<glyph unicode="u" horiz-adv-x="1126" d="M162 592q30 123 99 218t173 95q73 0 120.5 -48.5t47.5 -119.5q0 -42 -14 -80q-3 -10 -38 -101.5t-52 -148.5t-28 -111.5t-11 -105.5q0 -63 25 -108t83 -45q124 0 213 158q2 8 3.5 15.5t2.5 14.5l148 588q7 30 32.5 50t53.5 20q26 0 44.5 -16.5t18.5 -43.5q0 -12 -2 -18 l-147 -588q-14 -61 -14 -102q0 -78 49 -78q38 0 65.5 47t42.5 97t31 118q2 7 7.5 12.5t12.5 5.5h37q11 0 16 -7.5t5 -18.5q-34 -138 -79 -226t-140 -88q-59 0 -107 32t-69 87q-103 -119 -228 -119q-112 0 -179 65t-67 179q0 67 18.5 140t48 152.5t56.5 152.5q29 77 29 127 q0 53 -39 53q-126 0 -190 -262q-4 -19 -21 -19h-37q-20 0 -20 27z" />
<glyph unicode="v" horiz-adv-x="967" d="M162 592q30 123 99 218t173 95q73 0 120.5 -48.5t47.5 -119.5q0 -42 -14 -80q-21 -55 -45.5 -121.5t-42 -122t-28.5 -108t-11 -102.5q0 -71 32.5 -118.5t100.5 -47.5q86 0 144.5 72t97.5 172q34 84 58 167t24 144q0 55 -17 90t-42 69.5t-25 53.5q0 39 33.5 70.5 t70.5 31.5q49 0 70.5 -45t21.5 -102q0 -90 -33 -221.5t-75 -237.5q-132 -324 -332 -324q-123 0 -197 65.5t-74 186.5q0 46 12 106.5t25 100t38.5 109t45.5 121.5q29 77 29 127q0 53 -39 53q-126 0 -190 -262q-4 -19 -21 -19h-37q-20 0 -20 27z" />
<glyph unicode="w" horiz-adv-x="1397" d="M162 592q30 123 99 218t173 95q73 0 120.5 -48.5t47.5 -119.5q0 -42 -14 -80q-16 -42 -39.5 -104.5t-42.5 -122.5t-31 -116.5t-12 -104.5q0 -76 36.5 -124t110.5 -48q97 0 166 172v20q0 63 17 129l114 455q9 30 33 50t53 20q28 0 46 -16.5t18 -43.5q0 -12 -2 -18 l-115 -455q-19 -78 -22 -149q0 -69 32 -116.5t99 -47.5q75 0 123 56t83 140q29 70 61 186t32 173q0 55 -17 90t-42 69.5t-25 53.5q0 39 33.5 70.5t70.5 31.5q49 0 70.5 -45t21.5 -102q0 -91 -42 -253t-81 -257q-110 -273 -290 -273q-80 0 -146 30t-98 95q-82 -125 -197 -125 q-130 0 -208.5 65t-78.5 191q0 64 18.5 136.5t40.5 132t62 164.5q29 77 29 127q0 53 -39 53q-126 0 -190 -262q-4 -19 -21 -19h-37q-20 0 -20 27z" />
<glyph unicode="x" horiz-adv-x="969" d="M113 119q0 46 30 81.5t76 35.5q30 0 51 -18.5t21 -49.5q0 -34 -21.5 -62.5t-54.5 -37.5q34 -31 90 -31q58 0 100.5 59.5t59.5 128.5l92 367q5 23 11 49.5t9 44t3 41.5q0 48 -24 83.5t-71 35.5q-88 0 -155 -82t-90 -180q-4 -19 -21 -19h-37q-20 0 -20 27q19 77 65.5 149 t114.5 118t147 46q45 0 84.5 -15t70 -44t48.5 -70q37 57 86.5 93t108.5 36q71 0 129.5 -37t58.5 -104q0 -47 -29.5 -82t-74.5 -35q-30 0 -52 19.5t-22 48.5q0 35 22 63t56 37q-34 31 -90 31q-60 0 -102.5 -59.5t-59.5 -129.5l-92 -366q-23 -80 -23 -135q0 -49 24 -84t70 -35 q61 0 113 40.5t86.5 101.5t48.5 120q2 7 7.5 12.5t13.5 5.5h37q10 0 15 -7.5t5 -18.5q-18 -76 -65.5 -149.5t-115 -119t-147.5 -45.5q-67 0 -122 34t-82 95q-36 -57 -87 -93t-108 -36q-72 0 -130 36.5t-58 105.5z" />
<glyph unicode="y" horiz-adv-x="1020" d="M162 592q30 123 99 218t173 95q73 0 120.5 -48.5t47.5 -119.5q0 -42 -14 -80q-3 -10 -36.5 -98.5t-52 -149t-29.5 -115t-11 -106.5q0 -61 25 -106t81 -45q125 0 209 151l158 625q7 30 32.5 50t53.5 20q26 0 44.5 -16.5t18.5 -43.5q0 -12 -2 -18l-202 -809 q-25 -103 -94 -200t-167.5 -156.5t-205.5 -59.5q-83 0 -143 48t-60 128q0 54 28.5 92.5t79.5 38.5q31 0 51.5 -18.5t20.5 -48.5q0 -39 -27.5 -70t-66.5 -35q12 -36 46 -55.5t75 -19.5q89 0 155 65t105.5 154t64.5 186q-81 -68 -176 -68q-114 0 -180 64t-66 178q0 47 11 105 t26.5 105t49 138.5t36.5 98.5q29 77 29 127q0 53 -39 53q-126 0 -190 -262q-4 -19 -21 -19h-37q-20 0 -20 27z" />
<glyph unicode="z" horiz-adv-x="858" d="M121 0q0 8 4 12q54 95 124 178t123 134t185.5 175t198.5 199q-42 0 -120 30t-120 30q-48 0 -94 -25.5t-57 -70.5q-6 -19 -21 -19h-37q-20 0 -20 27q13 55 50.5 111t91.5 90t114 34q42 0 70.5 -20.5t60 -58t50.5 -53t50 -15.5t53 27t48.5 72.5t39.5 47.5h37q8 0 14.5 -6.5 t6.5 -15.5q0 -7 -4 -11q-55 -97 -125 -179t-172.5 -179.5t-182.5 -173t-153 -158.5q8 2 26 2q45 0 128.5 -29.5t125.5 -29.5q73 0 139.5 52t84.5 124q2 7 7.5 12.5t12.5 5.5h37q9 0 15 -8.5t6 -17.5q-19 -76 -66.5 -150t-115.5 -120t-146 -46q-40 0 -65.5 17.5t-56.5 54.5 t-54.5 56.5t-55.5 19.5q-43 0 -77 -30t-64 -73t-39 -45h-37q-9 0 -14.5 7t-5.5 16z" />
<glyph unicode="{" d="M188 543q0 11 7 21.5t20 10.5h920q9 0 15.5 -7t6.5 -17q0 -12 -6.5 -23.5t-17.5 -11.5h-920q-10 0 -17.5 8.5t-7.5 18.5z" />
<glyph unicode="|" horiz-adv-x="2148" d="M242 543q0 10 7.5 21t18.5 11h1886q9 0 16 -7t7 -17q0 -12 -6.5 -23.5t-18.5 -11.5h-1886q-24 0 -24 27z" />
<glyph unicode="}" d="M551 1069q0 6 2 10l186 301q30 47 74 47q29 0 48.5 -18t19.5 -45q0 -26 -23 -53l-240 -271q-10 -10 -20 -10q-16 0 -31.5 11.5t-15.5 27.5zM872 1069q0 6 2 10l187 301q28 47 74 47q28 0 47.5 -18t19.5 -45t-22 -53l-240 -271q-10 -10 -20 -10q-15 0 -31.5 11.5 t-16.5 27.5z" />
<glyph unicode="~" d="M510 1182q0 10 6 16q84 82 142.5 127t119.5 45q32 0 55.5 -17.5t47 -50t38.5 -47t37 -14.5q66 0 191 125q8 4 16 4q12 0 21.5 -9.5t9.5 -21.5q0 -11 -6 -14q-28 -27 -60 -57.5t-64 -56t-68 -43t-70 -17.5q-33 0 -55.5 17t-46 49t-39 47.5t-37.5 15.5q-62 0 -191 -123 q-6 -6 -16 -6t-20.5 9.5t-10.5 21.5z" />
<glyph unicode="&#xa1;" horiz-adv-x="1317" d="M131 27q0 14 7.5 29.5t21.5 15.5q102 0 149 10q30 12 45 65l279 1119q2 8 3 13t2 8.5t1 10.5q0 29 -154 29q-22 0 -22 27q0 14 7.5 29.5t21.5 15.5h958q9 0 17 -9t8 -18l-52 -418q-4 -24 -24 -24h-31q-8 0 -15 9t-7 19q14 131 14 172q0 91 -34.5 134t-89 53t-157.5 10 h-178q-41 0 -56.5 -4.5t-24 -20t-17.5 -51.5l-281 -1124q-2 -6 -2 -18q0 -23 15 -25q55 -12 184 -12q10 0 16 -7.5t6 -17.5q0 -47 -36 -47h-551q-9 0 -16 9t-7 18z" />
<glyph unicode="&#xa2;" horiz-adv-x="1718" d="M147 14q0 3 5 13l1013 1415q19 24 45 24h31q26 0 33 -24l305 -1417q0 -11 -8 -18t-15 -7h-1394q-15 0 -15 14zM326 150h1036l-240 1112z" />
<glyph unicode="&#xa3;" horiz-adv-x="1612" d="M307 489q0 164 67.5 331.5t190.5 311t278 228t322 84.5q115 0 205.5 -42.5t152 -115.5t95 -173t33.5 -208q0 -219 -119.5 -441.5t-318 -365.5t-418.5 -143q-147 0 -258.5 71t-170.5 193.5t-59 269.5zM483 428q0 -167 83 -288.5t243 -121.5q197 0 385 195q65 71 116.5 161 t89 192t56.5 205.5t19 197.5q0 107 -35 201.5t-108.5 154t-180.5 59.5q-105 0 -204 -54.5t-181 -143.5q-62 -68 -114.5 -160.5t-89.5 -191.5t-58 -206t-21 -200zM600 584q0 2 2 6l60 237q3 19 22 19h31q10 0 16 -7t6 -18q0 -7 -10 -45h543q3 15 6 30.5t10.5 26t20.5 13.5h30 q10 0 16.5 -7t6.5 -18v-8l-60 -238q-7 -18 -22 -18h-31q-24 0 -24 27q0 5 10 43h-543q-3 -15 -5.5 -30.5t-9 -26t-20.5 -13.5h-30q-25 0 -25 27z" />
<glyph unicode="&#xa4;" horiz-adv-x="1454" d="M123 27q0 13 7 29t22 16q65 0 117 38t85 99l8 8l676 1225q15 24 41 24h29q12 0 20.5 -7t8.5 -17l69 -1331q8 -39 121 -39q10 0 16.5 -8.5t6.5 -16.5q0 -47 -37 -47h-451q-22 0 -22 27q0 13 7 29t21 16q88 0 129 20q8 4 18.5 15.5t10.5 21.5l-55 1040l-541 -974 q-16 -34 -16 -58q0 -34 30 -49.5t66 -15.5q10 0 17.5 -8.5t7.5 -16.5q0 -47 -37 -47h-353q-22 0 -22 27z" />
<glyph unicode="&#xa5;" horiz-adv-x="1397" d="M156 29l55 288q1 6 8.5 12.5t13.5 6.5h31q12 0 18.5 -8t6.5 -19q-23 -113 -23 -153q0 -11 2 -11q43 -8 209 -8h496q172 0 217 8q15 5 33.5 55.5t38.5 116.5q7 19 22 19h31q11 0 17.5 -7t6.5 -18q0 -4 -2 -8l-88 -287q-4 -16 -20 -16h-1049q-10 0 -17 9t-7 20zM424 1112v6 l82 262q7 19 22 19h1024q10 0 17.5 -8.5t7.5 -18.5l-49 -262q-4 -25 -25 -25h-30q-9 0 -16 9.5t-7 19.5q17 110 18 129q-2 4 -2 12l-901 -2q-10 -1 -23 -29.5t-24.5 -65t-17.5 -54.5q-4 -19 -23 -19h-31q-22 0 -22 27zM469 588v8l70 278q7 19 22 19h31q11 0 17.5 -7t6.5 -18 q0 -4 -2 -8l-14 -63h594l18 77q9 19 23 19h31q11 0 17.5 -7t6.5 -18q0 -4 -2 -8l-69 -278q-3 -19 -23 -19h-31q-9 0 -15.5 7.5t-6.5 17.5v8l16 63h-594l-20 -77q-3 -19 -23 -19h-30q-10 0 -16.5 7.5t-6.5 17.5z" />
<glyph unicode="&#xa6;" horiz-adv-x="1563" d="M131 27q0 14 7.5 29.5t21.5 15.5q102 0 149 10q29 10 45 65l279 1119q2 8 3 13t2 8.5t1 10.5q0 29 -154 29q-22 0 -22 27q0 14 7.5 29.5t21.5 15.5h1263q10 0 17.5 -8.5t7.5 -16.5q0 -16 -7.5 -31.5t-21.5 -15.5q-102 0 -149 -10q-29 -10 -46 -66l-278 -1118 q-6 -18 -6 -33q0 -28 151 -28q12 0 18.5 -7.5t6.5 -17.5q0 -47 -37 -47h-504q-22 0 -22 27q0 14 7.5 29.5t20.5 15.5q103 0 150 10q29 10 45 65l278 1119l17 61h-582l-297 -1194q-6 -18 -6 -33q0 -28 152 -28q11 0 17.5 -7.5t6.5 -17.5q0 -47 -37 -47h-503q-9 0 -16 9t-7 18 z" />
<glyph unicode="&#xa7;" horiz-adv-x="1503" d="M166 27q0 8 6 14l619 590l-291 712q-2 3 -2 11q0 14 7.5 29.5t20.5 15.5h1084q10 0 17 -8t7 -19l-51 -418q-4 -24 -24 -24h-31q-9 0 -16 9t-7 19q8 86 11 129q0 99 -35.5 152t-128.5 72q-53 11 -114 13.5t-153 2.5h-378l251 -616q1 -3 2 -6.5t1 -4.5q0 -9 -7 -16 l-622 -592h420q159 0 246 10t157 46t125 114t104 213q2 6 8.5 10t12.5 4h31q10 0 17 -7t7 -17q0 -4 -2 -8l-164 -441q-4 -16 -20 -16h-1084q-24 0 -24 27z" />
<glyph unicode="&#xa8;" horiz-adv-x="1612" d="M438 1112q0 42 45 117.5t82 113.5q101 101 217 101q148 0 208.5 -103.5t60.5 -263.5q0 -64 -7 -121q35 90 82 175.5t108 155t141 113.5t173 44t144 -66t51 -161q0 -123 -45 -123h-27q-20 0 -20 18q0 4 2 6q4 30 4 43q0 39 -20 69.5t-53 47t-73 16.5q-177 0 -281.5 -179.5 t-164.5 -414.5v-8l-139 -559q-4 -16 -4 -24q0 -23 14 -25q55 -12 184 -12q10 0 16.5 -7.5t6.5 -17.5q0 -47 -37 -47h-598q-9 0 -17 9t-8 18q0 14 8 29.5t21 15.5q137 0 199 14q30 11 45 61l139 560q20 58 33.5 150t13.5 171q0 116 -44.5 191t-152.5 75q-52 0 -99 -23 t-82 -64t-46 -89q-3 -10 -12.5 -17t-20.5 -7h-26q-21 0 -21 18z" />
<glyph unicode="&#xa9;" horiz-adv-x="1503" d="M326 627q0 110 74.5 207.5t181.5 160.5q162 99 362 119l37 152q4 16 4 24q0 23 -16 25q-54 12 -183 12q-10 0 -17 8t-7 19q0 45 39 45h585q9 0 16 -8t7 -17q0 -18 -7 -32.5t-22 -14.5q-135 0 -196 -14q-30 -11 -45 -62l-33 -137q71 0 145.5 -25t136.5 -69.5t101 -109 t39 -138.5q0 -98 -61.5 -187t-157.5 -155.5t-208 -105.5t-204 -39l-37 -152q-4 -16 -4 -24q0 -23 14 -25q56 -12 185 -12q10 0 16 -7.5t6 -17.5q0 -47 -37 -47h-585q-11 0 -18 9t-7 18q0 14 7.5 29.5t21.5 15.5q137 0 198 14q30 11 45 61l33 138q-100 10 -193 51t-154.5 116 t-61.5 175zM510 580q0 -200 242 -234l176 707q-123 -15 -218.5 -78.5t-147.5 -165.5t-52 -229zM911 344q130 15 226.5 77.5t150 165.5t53.5 232q0 109 -69.5 166t-181.5 70z" />
<glyph unicode="&#xaa;" horiz-adv-x="1612" d="M434 1100q0 10 7.5 21.5t19.5 11.5h112q58 0 85.5 -42.5t27.5 -105.5q0 -59 -22 -154q-31 -113 -31 -213q0 -226 172 -270l229 918q4 16 4 24q0 23 -16 25q-53 12 -182 12q-11 0 -18 8t-7 19q0 45 39 45h586q5 0 10 -3.5t8.5 -10t3.5 -11.5q0 -47 -28 -47 q-136 0 -197 -14q-30 -11 -45 -62l-225 -901q83 21 149.5 69.5t116 118t81 146t52.5 162.5q72 287 225 287h113q10 0 16 -7.5t6 -17.5q0 -12 -6.5 -23.5t-17.5 -11.5q-120 0 -178 -242q-38 -149 -114.5 -265t-193 -190.5t-266.5 -90.5l-37 -152q-4 -16 -4 -24q0 -23 15 -25 q55 -12 184 -12q10 0 16 -7.5t6 -17.5q0 -47 -36 -47h-586q-9 0 -17 9t-8 18q0 14 8 29.5t21 15.5q137 0 199 14q30 11 45 61l35 140q-150 21 -231 115t-81 247q0 95 27 197q18 77 18 131q0 96 -65 96q-25 0 -25 27z" />
<glyph unicode="&#xad;" horiz-adv-x="1503" d="M209 29l6 278q0 9 7 16t18 7h30q23 0 23 -27v-74q0 -69 4 -88q33 -10 121 -10h119q1 5 1.5 8.5t0.5 7.5q0 78 -21.5 157t-60.5 181t-59.5 175t-20.5 149q0 135 64 252t171 203.5t235 133t259 46.5q92 0 179.5 -26t156 -79t108 -130t39.5 -175q0 -119 -58 -231.5 t-155.5 -228t-194 -229.5t-143.5 -208q-1 -1 -1.5 -2.5t-2.5 -3.5h105q121 0 143 25q30 44 82 159q9 15 22 15h31q10 0 16.5 -7.5t6.5 -17.5q0 -8 -2 -10l-133 -281q-9 -14 -21 -14h-326q-24 0 -24 27q0 2 2 6q28 114 78 206t164.5 280t166.5 313t52 249q0 135 -80 219 t-213 84q-81 0 -161.5 -31.5t-144 -84.5t-114.5 -127q-39 -60 -66 -129t-39 -140.5t-12 -146.5q0 -41 6.5 -113t14.5 -143.5t13 -123t5 -114.5q0 -69 -10.5 -147.5t-36.5 -83.5h-326q-24 0 -24 29z" />
<glyph unicode="&#xae;" horiz-adv-x="1288" d="M-51 -283q0 46 30 81.5t76 35.5q30 0 51 -18.5t21 -48.5q0 -35 -21.5 -63.5t-54.5 -37.5q30 -26 76 -26q35 0 57 36t33 78q28 100 55 227t66 330l94 500h-166q-22 0 -22 27q0 13 7 29t21 16h174l27 135q26 141 64.5 230t117 142.5t215.5 53.5q86 0 159 -31.5t73 -107.5 q0 -47 -30 -81t-77 -34q-29 0 -50 18.5t-21 48.5q0 32 18.5 59.5t48.5 39.5q-45 28 -123 28q-57 0 -109 -26t-73 -74q-19 -49 -36 -126t-29 -142l-25 -133h473l25 135q20 103 34.5 160.5t42.5 113.5q32 65 92.5 108.5t129.5 43.5q73 0 132.5 -35t59.5 -104 q0 -46 -30.5 -80.5t-75.5 -34.5q-28 0 -50 18.5t-22 48.5q0 35 20.5 62.5t51.5 38.5q-36 26 -88 26q-24 0 -47 -20t-33 -45q-16 -42 -68 -303l-24 -133h198q10 0 16.5 -7.5t6.5 -17.5q0 -18 -7 -32.5t-22 -14.5h-207l-96 -502q-19 -97 -35 -173.5t-33 -142.5t-45 -136 q-44 -110 -137 -193.5t-203 -83.5q-81 0 -147 33t-66 106q0 46 30.5 80.5t76.5 34.5q30 0 51 -18.5t21 -48.5q0 -35 -19 -61t-51 -38q37 -28 106 -28q54 0 107 46.5t74 100.5q25 60 59.5 215.5t63.5 308.5l94 500h-473l-97 -502q-22 -123 -44.5 -231t-61.5 -220.5t-104 -195 t-152 -82.5q-67 0 -120.5 37t-53.5 100z" />
<glyph unicode="&#xaf;" horiz-adv-x="1182" d="M-51 -283q0 46 30 81.5t76 35.5q30 0 51 -18.5t21 -48.5q0 -35 -21.5 -63.5t-54.5 -37.5q30 -26 76 -26q35 0 57 36t33 78q16 59 38.5 157t45.5 218t35 182l96 500h-166q-22 0 -22 27q0 13 7 29t21 16h174l25 135q30 157 80.5 248t144.5 134.5t252 43.5q66 0 133.5 -10.5 t117.5 -45.5t50 -100q0 -46 -28.5 -82.5t-75.5 -36.5q-31 0 -52.5 19t-21.5 49q0 35 22.5 63t53.5 37q-30 28 -84 37.5t-119 9.5q-98 0 -155.5 -24t-87.5 -69t-42.5 -95.5t-37.5 -179.5l-25 -133h530q21 0 21 -27l-160 -639q-14 -61 -14 -102q0 -78 49 -78q38 0 65.5 47 t42.5 97t31 118q2 7 7.5 12.5t13.5 5.5h37q10 0 15 -7.5t5 -18.5q-34 -138 -79 -226t-140 -88q-83 0 -136 53t-53 136q0 14 9 59l147 586h-405l-97 -502q-22 -123 -44.5 -231t-61.5 -220.5t-104 -195t-152 -82.5q-68 0 -121 36.5t-53 100.5z" />
<glyph unicode="&#xb0;" horiz-adv-x="1235" d="M-51 -283q0 46 30 81.5t76 35.5q30 0 51 -18.5t21 -48.5q0 -35 -21.5 -63.5t-54.5 -37.5q30 -26 76 -26q34 0 56.5 36t33.5 78q32 114 61.5 259.5t57.5 297.5l96 500h-166q-22 0 -22 27q0 13 7 29t21 16h174l25 135q22 113 49 186.5t74 128.5t122 83t185 28 q99 0 179.5 -30t80.5 -111v-9l27 109q2 7 7.5 12.5t12.5 5.5h107q20 0 20 -26l-295 -1178q-14 -61 -14 -102q0 -78 49 -78q38 0 65.5 47t42.5 97t31 118q7 18 21 18h37q10 0 15 -7.5t5 -18.5q-35 -142 -79 -228t-140 -86q-82 0 -135 53t-53 136q0 19 8 59l147 586h-458 l-97 -502q-34 -187 -68 -328t-108 -271t-186 -130q-68 0 -121 36.5t-53 100.5zM594 883h463l92 370q-13 -29 -38.5 -46t-55.5 -17q-28 0 -50 18.5t-22 48.5q0 31 18.5 58.5t47.5 38.5q-50 30 -152 30q-71 0 -129.5 -26.5t-83.5 -85.5q-32 -76 -63 -256z" />
<glyph unicode="&#xb1;" horiz-adv-x="1853" d="M-51 -283q0 46 30 81.5t76 35.5q30 0 51 -18.5t21 -48.5q0 -35 -21.5 -63.5t-54.5 -37.5q30 -26 76 -26q35 0 57 36t33 78q28 100 55 227t66 330l94 500h-166q-22 0 -22 27q0 13 7 29t21 16h174l27 135q26 141 68.5 233.5t127 142.5t228.5 50q99 0 178.5 -29t79.5 -110 q0 -46 -30.5 -80.5t-75.5 -34.5q-28 0 -50 18.5t-22 48.5q0 31 19 59t46 38q-50 30 -147 30q-70 0 -127.5 -25.5t-83.5 -84.5q-24 -61 -63 -258l-25 -133h494l26 135q23 121 56.5 198.5t91 129.5t139 75t203.5 23q315 0 315 -154q0 -49 -28 -85t-76 -36q-31 0 -52.5 19 t-21.5 49q0 35 22.5 63t53.5 37q-33 29 -88 38t-129 9q-102 0 -162.5 -23t-91.5 -68t-41.5 -87t-40.5 -190l-27 -133h559q21 0 21 -27l-160 -639q-14 -61 -14 -102q0 -78 49 -78q38 0 65.5 47t42.5 97t31 118q2 7 7.5 12.5t12.5 5.5h37q11 0 16 -7.5t5 -18.5 q-34 -138 -79 -226t-140 -88q-83 0 -136 53t-53 136q0 19 8 59l148 586h-434l-95 -502l-31 -155q-16 -80 -36 -154t-47 -143q-29 -73 -81.5 -136.5t-123 -102t-145.5 -38.5q-85 0 -154.5 32.5t-69.5 106.5q0 46 30.5 80.5t76.5 34.5q30 0 51 -18.5t21 -48.5q0 -31 -19 -59 t-49 -40q39 -28 115 -28q55 0 112.5 47.5t79.5 103.5q45 117 121 520l96 500h-495l-97 -502q-22 -123 -44.5 -231t-61.5 -220.5t-104 -195t-152 -82.5q-67 0 -120.5 37t-53.5 100z" />
<glyph unicode="&#xb2;" horiz-adv-x="1880" d="M-51 -283q0 46 30 81.5t76 35.5q30 0 51 -18.5t21 -48.5q0 -36 -21.5 -65t-54.5 -36q30 -26 76 -26q35 0 57 36t33 78q16 59 35.5 144t46.5 218t39 195l94 500h-166q-22 0 -22 27q0 13 7 29t21 16h174l27 135q26 141 64.5 230t117 142.5t215.5 53.5q86 0 159 -31.5 t73 -107.5q0 -47 -30 -81t-77 -34q-29 0 -50 18.5t-21 48.5q0 32 18.5 59.5t48.5 39.5q-45 28 -123 28q-57 0 -109 -26t-73 -74q-19 -49 -36 -126t-29 -142l-25 -133h494l26 135q22 113 49 186.5t74 128.5t122 83t185 28q99 0 179.5 -30t80.5 -111v-9l27 109q2 7 7.5 12.5 t12.5 5.5h107q20 0 20 -26l-294 -1178q-15 -58 -15 -102q0 -78 49 -78q28 0 52 29t41 72t29.5 92.5t17.5 68.5q2 7 7.5 12.5t12.5 5.5h37q10 0 15 -7.5t5 -18.5q-35 -142 -79 -228t-140 -86q-82 0 -135 53t-53 136q0 19 8 59l148 586h-461l-95 -502l-31 -155 q-16 -80 -36 -154t-47 -143q-29 -73 -81.5 -136.5t-123 -102t-145.5 -38.5q-85 0 -154.5 32.5t-69.5 106.5q0 46 30.5 80.5t76.5 34.5q30 0 51 -18.5t21 -48.5q0 -31 -19 -59t-49 -40q39 -28 115 -28q56 0 112 47t80 104q45 117 121 520l96 500h-495l-97 -502 q-22 -123 -44.5 -231t-61.5 -220.5t-104 -195t-152 -82.5q-67 0 -120.5 37t-53.5 100zM1239 883h463l92 370q-13 -29 -38.5 -46t-55.5 -17q-28 0 -50 18.5t-22 48.5q0 31 18.5 58.5t47.5 38.5q-50 30 -152 30q-71 0 -130 -27t-85 -85q-30 -77 -61 -256z" />
<glyph unicode="&#xb3;" horiz-adv-x="643" d="M162 592q30 123 99 218t173 95q73 0 120.5 -48.5t47.5 -119.5q0 -42 -14 -80l-164 -440q-29 -82 -29 -127q0 -53 37 -53q126 0 193 262q2 7 7.5 12.5t12.5 5.5h37q10 0 15 -7.5t5 -18.5q-31 -124 -99.5 -219t-174.5 -95q-69 0 -117.5 48.5t-48.5 119.5q0 44 14 80 l164 441q29 77 29 127q0 53 -39 53q-126 0 -190 -262q-4 -19 -21 -19h-37q-20 0 -20 27z" />
<glyph unicode="&#xb4;" horiz-adv-x="698" d="M-72 -297q0 44 30.5 77.5t76.5 33.5q29 0 50 -18.5t21 -49.5q0 -64 -59 -94q34 -12 72 -12q79 0 132 80t77 174l192 772q15 64 15 102q0 78 -52 78q-144 0 -245 -266q-3 -15 -19 -15h-37q-20 0 -20 27q50 128 132 220.5t193 92.5q53 0 96 -24.5t67 -67.5t24 -96 q0 -28 -6 -60l-193 -772q-32 -123 -134 -214t-226 -91q-71 0 -129 29.5t-58 93.5z" />
<glyph unicode="&#xb5;" d="M600 1339q0 22 13.5 41.5t35 32t41.5 12.5q36 0 55 -32l156 -310q4 -8 4 -12q0 -16 -17 -29.5t-34 -13.5q-10 0 -20 10l-220 262q-14 19 -14 39z" />
<glyph unicode="&#xb6;" d="M705 1071q0 12 4 16l317 314q24 24 57 24q26 0 46 -19t20 -44q0 -39 -39 -68l-350 -262q-8 -4 -15 -4q-15 0 -27.5 14t-12.5 29z" />
<glyph unicode="&#xb8;" d="M575 1313q0 101 35 108h13q10 0 16 -7.5t6 -18.5q-8 -46 -8 -66q0 -78 51 -128t129 -50q69 0 135 35t111.5 92t62.5 125q4 18 23 18h12q9 0 16 -7t7 -17v-8q-14 -59 -49.5 -118t-88.5 -108t-112 -74.5t-125 -25.5q-70 0 -123 33.5t-82 90t-29 126.5z" />
<glyph unicode="&#xb9;" d="M477 1159q0 46 31 51h649q9 0 17 -8t8 -16q0 -48 -31 -53h-649q-25 0 -25 26z" />
<glyph unicode="&#xba;" horiz-adv-x="1741" d="M987 1249q0 57 37 107.5t95 80t118 29.5q40 0 78 -17t61 -49.5t23 -74.5q0 -57 -37.5 -108t-95.5 -80t-119 -29q-65 0 -112.5 39t-47.5 102zM1061 1235q0 -68 102 -68q79 0 119.5 45t40.5 127q0 68 -100 68q-81 0 -121.5 -45t-40.5 -127z" />
<glyph unicode="&#xbb;" horiz-adv-x="967" d="M209 -373q0 12 6.5 23.5t17.5 11.5q334 0 334 121q0 37 -34.5 54.5t-75.5 17.5q-12 0 -18.5 7.5t-6.5 16.5q0 4 2 8l25 101q4 18 22 18h101q10 0 16 -7t6 -19v-7l-18 -69q129 -32 129 -119q0 -117 -146.5 -149.5t-332.5 -32.5q-27 0 -27 24z" />
<glyph unicode="&#xbc;" horiz-adv-x="1126" d="M-41 -287q0 49 29.5 85t77.5 36q29 0 50 -18.5t21 -48.5q0 -39 -24.5 -67.5t-61.5 -35.5q18 -24 53 -24q63 0 109 114q36 95 123 557l96 500h-166q-22 0 -22 27q0 13 7 29t21 16h174l25 135q23 115 51.5 190.5t78.5 128.5t126.5 80t192.5 27q71 0 137 -26.5t107.5 -80 t41.5 -127.5q0 -63 -28.5 -129t-68.5 -122.5t-97 -124.5q-47 -56 -66.5 -85t-19.5 -61q0 -23 12 -48.5t36.5 -55.5t37.5 -45q86 -102 86 -201q0 -65 -32 -131t-84 -117t-118 -82t-133 -31q-81 0 -144 40t-63 116q0 41 22.5 70.5t61.5 29.5q24 0 41 -15t17 -38 q0 -26 -16 -47.5t-42 -30.5q14 -33 50.5 -49t74.5 -16q51 0 94.5 51t70 122t26.5 118q0 65 -54 129q-57 65 -57 170q0 74 19 113.5t68 90t65 74.5q32 48 64 155.5t32 162.5q0 68 -38.5 114.5t-107.5 46.5q-91 0 -144 -27.5t-79.5 -75.5t-43 -126t-27.5 -139l-136 -707 q-27 -148 -48.5 -245.5t-64 -212t-109.5 -193t-163 -78.5q-57 0 -99 38.5t-42 94.5z" />
<glyph unicode="&#xbd;" horiz-adv-x="1503" d="M186 211q0 83 48.5 167t121.5 157t148 124q46 30 94 56.5t85.5 44.5t100 44t113.5 44q8 26 29 41.5t47 15.5q24 0 39.5 -14.5t15.5 -38.5q0 -13 -8 -45q133 98 274 98q87 0 152 -47t65 -131q0 -91 -57.5 -145.5t-149 -80t-174.5 -31t-188 -5.5h-8q-25 -114 -25 -186 q0 -96 41.5 -169t126.5 -73q97 0 185 57t149 146q5 8 16 8q14 0 28.5 -14.5t14.5 -28.5q0 -7 -6 -15q-66 -97 -171.5 -155t-219.5 -58q-69 0 -129.5 36.5t-97.5 97.5l-19 -72q-18 -62 -75 -62q-23 0 -40.5 16t-17.5 38q0 11 3 22.5t6.5 22.5t5.5 22q-115 -121 -226 -121 q-51 0 -105 15t-98 45t-69 74t-25 100zM350 156q0 -57 39 -88t98 -31q79 0 150 73t117 162l125 506q-127 -54 -249 -149t-201 -218t-79 -255zM950 524q116 0 213.5 11t176.5 55.5t79 138.5q0 52 -37.5 84.5t-91.5 32.5q-123 0 -212 -95t-128 -227z" />
<glyph unicode="&#xbe;" horiz-adv-x="1503" d="M221 297q0 129 65 274.5t177.5 243.5t243.5 98q80 0 139.5 -50t85.5 -128q73 77 168.5 123.5t193.5 46.5q87 0 152 -47t65 -131q0 -169 -164 -215.5t-397 -46.5h-8q-27 -127 -27 -195q0 -91 39 -162t123 -71q97 0 185 57t149 146q5 8 16 8q14 0 28.5 -14.5t14.5 -28.5 q0 -7 -6 -15q-66 -97 -171.5 -155t-219.5 -58q-61 0 -112.5 24t-88.5 66.5t-63 104.5q-40 -54 -91.5 -100.5t-111.5 -74.5t-125 -28q-85 0 -143.5 47.5t-87.5 122.5t-29 158zM371 207q0 -68 27 -122t87 -54q78 0 142 70t107 174.5t66 211t23 177.5q0 73 -27.5 130.5 t-93.5 57.5q-97 0 -172.5 -118t-117 -275t-41.5 -252zM958 524q115 0 211 11t173 55.5t77 138.5q0 52 -37.5 84.5t-91.5 32.5q-121 0 -207.5 -95t-124.5 -227z" />
<glyph unicode="&#xbf;" d="M137 -197q0 7 4 15l183 241q-88 93 -88 252q0 100 41 207t115.5 198t169 144t198.5 53q92 0 166 -53l178 238q7 10 20 10t23 -8t10 -21q0 -6 -4 -14l-182 -242q88 -94 88 -252q0 -135 -71.5 -276t-193.5 -233.5t-259 -92.5q-93 0 -166 54l-181 -238q-5 -10 -20 -10 q-11 0 -21 8t-10 20zM371 248q0 -61 16 -105l490 652q-48 59 -121 59q-117 0 -205 -103t-134 -248t-46 -255zM418 88q43 -57 121 -57q116 0 204.5 102.5t134.5 247t46 254.5q0 55 -17 104z" />
<glyph unicode="&#xc0;" horiz-adv-x="1855" d="M123 27q0 14 7.5 29.5t21.5 15.5q82 0 143 41q36 25 61.5 61t32.5 43l655 1108q-40 2 -122 2q-23 0 -23 27q0 13 7 29t22 16h1032q9 0 17 -9t8 -18l-52 -418q-4 -24 -24 -24h-31q-9 0 -16 9t-7 19q4 28 9.5 83t5.5 94q0 89 -33 130t-88 51.5t-147 10.5h-168 q-41 0 -56.5 -4t-24.5 -19.5t-18 -52.5l-135 -542h135q73 0 116.5 10t70 34.5t43 63.5t34.5 113q4 9 10 13.5t13 4.5h31q10 0 17 -7t7 -17q0 -4 -2 -9l-125 -499q-4 -19 -22 -19h-31q-22 0 -22 27q0 7 11 55.5t11 77.5q0 52 -44 66t-118 14h-153l-125 -504q-10 -40 -10 -47 q0 -14 59 -14h182q122 0 203.5 30.5t131 85t84.5 125t91 209.5q10 15 23 15h30q10 0 16.5 -7.5t6.5 -17.5q0 -8 -2 -10l-201 -488q-7 -14 -20 -14h-906q-22 0 -22 27q0 13 7 29t22 16q70 0 100 12.5t45 62.5l121 490h-299l-262 -442q-2 -13 -9.5 -29.5t-7.5 -30.5 q0 -33 28.5 -48t63.5 -15q10 0 16.5 -7.5t6.5 -17.5q0 -47 -37 -47h-373q-22 0 -22 27zM762 709h274l140 559q2 6 2 16q0 21 -12.5 27t-43.5 10z" />
<glyph unicode="&#xc1;" horiz-adv-x="2071" d="M336 489q0 164 67.5 331.5t190.5 311t278 228t322 84.5q42 0 91.5 -11t98 -22.5t91.5 -11.5h700q9 0 17 -9t8 -18l-52 -418q-4 -24 -24 -24h-31q-8 0 -15 9t-7 19q14 131 14 172q0 91 -35 134t-90 53t-158 10h-188q-41 0 -56.5 -4.5t-24 -20t-17.5 -51.5l-123 -489h170 q105 0 157 15t82 60.5t56 145.5q4 18 22 18h31q9 0 15.5 -7t6.5 -17v-8l-125 -500q-7 -18 -22 -18h-31q-24 0 -24 26q0 6 11 51.5t11 73.5q0 58 -53 73t-137 15h-187l-139 -557q-10 -40 -10 -47q0 -14 59 -14h203q166 0 258.5 49t139.5 130t126 271q10 15 23 15h30 q10 0 16.5 -7.5t6.5 -17.5q0 -8 -2 -10l-201 -488q-7 -14 -20 -14h-736q-32 0 -66.5 -5.5t-75 -14t-87.5 -17t-78 -8.5q-148 0 -258.5 71t-169.5 193.5t-59 269.5zM528 465q0 -171 76.5 -311t233.5 -140q99 0 157 45.5t81.5 105.5t60.5 193l172 682q30 146 30 215 q0 74 -40.5 101.5t-118.5 27.5q-100 0 -193.5 -53.5t-175.5 -138.5q-87 -93 -152 -213.5t-98 -250.5t-33 -263z" />
<glyph unicode="&#xc2;" horiz-adv-x="1612" d="M250 -96q0 6 4 14l176 201q-123 146 -123 370q0 164 67.5 331.5t190.5 311t278 228t322 84.5q188 0 320 -119l170 193q7 10 20 10q12 0 23.5 -9.5t11.5 -23.5q0 -6 -4 -14l-178 -203q63 -76 93 -171.5t30 -201.5q0 -219 -119.5 -441.5t-318 -365.5t-418.5 -143 q-190 0 -322 119l-168 -193q-7 -10 -20 -10q-11 0 -23 10t-12 23zM463 408q0 -113 41 -205l917 1048q-46 65 -116.5 99t-153.5 34q-161 0 -290 -94.5t-217.5 -244.5t-134.5 -319.5t-46 -317.5zM537 145q47 -64 118 -97.5t154 -33.5q76 0 148.5 25.5t133 66t119.5 101.5 q84 88 148 222t100.5 283.5t36.5 274.5q0 122 -41 207z" />
<glyph unicode="&#xc3;" horiz-adv-x="537" d="M180 616q0 22 17 25l491 162q4 2 6 2q16 0 21.5 -11t7.5 -32q0 -21 -16 -27l-492 -162h-6q-16 0 -21.5 11t-7.5 32z" />
<glyph unicode="&#xc4;" d="M553 1243q0 51 41 90t92 39q38 0 64 -24.5t26 -63.5q0 -51 -41.5 -90t-91.5 -39q-38 0 -64 25t-26 63zM930 1243q0 51 41 90t92 39q38 0 64 -24.5t26 -63.5q0 -51 -41.5 -90t-91.5 -39q-38 0 -64 25t-26 63z" />
<glyph unicode="&#x2000;" horiz-adv-x="768" />
<glyph unicode="&#x2001;" horiz-adv-x="1536" />
<glyph unicode="&#x2002;" horiz-adv-x="768" />
<glyph unicode="&#x2003;" horiz-adv-x="1536" />
<glyph unicode="&#x2004;" horiz-adv-x="512" />
<glyph unicode="&#x2005;" horiz-adv-x="384" />
<glyph unicode="&#x2006;" horiz-adv-x="256" />
<glyph unicode="&#x2007;" horiz-adv-x="256" />
<glyph unicode="&#x2008;" horiz-adv-x="192" />
<glyph unicode="&#x2009;" horiz-adv-x="307" />
<glyph unicode="&#x200a;" horiz-adv-x="85" />
<glyph unicode="&#x2010;" horiz-adv-x="752" d="M174 401q0 2 2 9l19 77q3 19 22 19h469q10 0 17.5 -7.5t7.5 -17.5q0 -4 -2 -8l-19 -78q-7 -18 -22 -18h-469q-12 0 -18.5 7.5t-6.5 16.5z" />
<glyph unicode="&#x2011;" horiz-adv-x="752" d="M174 401q0 2 2 9l19 77q3 19 22 19h469q10 0 17.5 -7.5t7.5 -17.5q0 -4 -2 -8l-19 -78q-7 -18 -22 -18h-469q-12 0 -18.5 7.5t-6.5 16.5z" />
<glyph unicode="&#x2012;" horiz-adv-x="752" d="M174 401q0 2 2 9l19 77q3 19 22 19h469q10 0 17.5 -7.5t7.5 -17.5q0 -4 -2 -8l-19 -78q-7 -18 -22 -18h-469q-12 0 -18.5 7.5t-6.5 16.5z" />
<glyph unicode="&#x2013;" horiz-adv-x="1239" d="M174 401q0 2 4 9l36 77q6 19 42 19h894q19 0 33.5 -7.5t14.5 -17.5q0 -4 -4 -8l-36 -78q-13 -18 -42 -18h-894q-23 0 -35.5 7.5t-12.5 16.5z" />
<glyph unicode="&#x2014;" horiz-adv-x="2263" d="M174 401q0 2 8 9l72 77q12 19 84 19h1789q38 0 66.5 -7.5t28.5 -17.5q0 -4 -8 -8l-72 -78q-27 -18 -84 -18h-1789q-45 0 -70 7.5t-25 16.5z" />
<glyph unicode="&#x202f;" horiz-adv-x="307" />
<glyph unicode="&#x205f;" horiz-adv-x="384" />
<glyph unicode="&#x2219;" d="M575 1249q0 15 15 31t31 16q8 0 16 -4l182 -141l256 143q4 2 12 2q14 0 24.5 -15t10.5 -32q0 -15 -10 -20l-299 -197q-4 -2 -12 -2q-9 0 -17 4l-198 195q-11 11 -11 20z" />
<glyph unicode="&#xe000;" horiz-adv-x="905" d="M0 905h905v-905h-905v905z" />
</font>
</defs>
</svg>
