<?xml version="1.0" standalone="no"?>
<!DOCTYPE svg PUBLIC "-//W3C//DTD SVG 1.1//EN" "http://www.w3.org/Graphics/SVG/1.1/DTD/svg11.dtd" >
<svg xmlns="http://www.w3.org/2000/svg">
<metadata>
This is a custom SVG webfont generated by Font Squirrel.
Copyright   : Copyright C 1994 Basil K Malyshev All Rights Reserved012BaKoMa Fonts Collection LevelB
</metadata>
<defs>
<font id="cmtt12Regular" horiz-adv-x="1053" >
<font-face units-per-em="2048" ascent="1638" descent="-410" />
<missing-glyph horiz-adv-x="1055" />
<glyph unicode=" "  horiz-adv-x="1055" />
<glyph unicode="&#x09;" horiz-adv-x="1055" />
<glyph unicode="&#xa0;" horiz-adv-x="1055" />
<glyph unicode="!" d="M430 96q0 39 29 68t67 29q39 0 68 -29t29 -68q0 -38 -29 -67t-68 -29q-38 0 -67 29t-29 67zM430 1176q0 42 28 71t68 29q42 0 69.5 -28.5t27.5 -69.5l-19 -768q-9 -41 -49 -48h-57q-41 8 -47 48z" />
<glyph unicode="&#x22;" d="M262 1178q0 39 24 65.5t62 26.5q39 0 63.5 -26t24.5 -66l-24 -453q-6 -45 -56 -55h-16q-49 10 -55 55zM618 1178q0 39 24 65.5t63 26.5t63.5 -26t24.5 -66l-25 -453q-6 -45 -55 -55h-17q-49 10 -55 55z" />
<glyph unicode="#" d="M70 399v11q9 52 61 61h133l37 309h-170q-52 9 -61 62v10q9 52 61 61h188l35 277q9 52 62 61h10q52 -9 61 -61v-10l-34 -267h221l35 277q9 52 61 61h10q53 -9 62 -61v-10l-35 -267h115q52 -9 61 -61v-10q-9 -53 -61 -62h-134l-36 -309h170q52 -9 61 -61v-11 q-9 -52 -61 -61h-189l-35 -277q-9 -52 -61 -61h-10q-53 9 -62 61v11l35 266h-221l-35 -277q-9 -52 -61 -61h-11q-52 9 -61 61v11l35 266h-115q-52 9 -61 61zM397 471h221l37 309h-221z" />
<glyph unicode="$" d="M117 346q0 39 24.5 65.5t63.5 26.5q35 0 60.5 -25.5t25.5 -62.5q0 -36 -27 -61q16 -70 71 -114.5t128 -55.5v473q-93 19 -171.5 60.5t-126.5 110t-48 163.5q0 91 48.5 162t128 115t169.5 57v106q6 49 55 55h17q49 -6 55 -55v-104q61 0 136.5 -32.5t117.5 -74.5 q92 -89 92 -225q0 -37 -24.5 -64.5t-61.5 -27.5q-36 0 -62 26t-26 62q0 37 24 61q-17 64 -71.5 101t-124.5 45v-424q150 -31 248 -122t98 -237q0 -92 -48 -169.5t-127.5 -127t-170.5 -61.5v-107q-6 -49 -55 -55h-17q-49 6 -55 55v107q-102 11 -179.5 56t-122 121t-44.5 177z M248 934q0 -78 63 -127.5t152 -69.5v393q-49 -4 -99 -31t-83 -70.5t-33 -94.5zM590 121q87 16 151 77t64 144q0 85 -63 145t-152 78v-444z" />
<glyph unicode="%" d="M70 1149q0 58 18.5 121t58 107t99.5 44t99.5 -44t58 -107t18.5 -121q0 -97 -44 -186t-132 -89q-86 0 -131 89t-45 186zM180 -98l2 12l563 1466q15 35 56 41h10q52 -9 61 -61v-10l-2 -13l-561 -1466q-17 -35 -57 -41h-10q-53 9 -62 61v11zM193 1149q0 -37 14 -92.5 t39 -55.5q26 0 39.5 53.5t13.5 94.5q0 15 -6.5 52.5t-18.5 65t-28 27.5q-26 0 -39.5 -55t-13.5 -90zM631 102q0 60 18 122.5t58.5 106.5t99.5 44t99.5 -44t58.5 -106.5t18 -122.5q0 -59 -18 -121.5t-58.5 -106.5t-99.5 -44t-99.5 44t-58.5 106.5t-18 121.5zM754 102 q0 -36 14 -90.5t39 -54.5q26 0 39.5 53t13.5 92q0 16 -6 53.5t-18.5 65t-28.5 27.5q-26 0 -39.5 -55.5t-13.5 -90.5z" />
<glyph unicode="&#x26;" d="M57 279q0 130 82 225l121 135q-57 171 -57 346q0 69 23.5 136t74 111t121.5 44q101 0 145.5 -88t44.5 -201q0 -99 -55 -185.5t-154 -195.5q41 -99 144 -270q33 65 65.5 147t69.5 185l33 88q-57 0 -66 55v16q10 50 56 56h225q49 -6 55 -56v-16q-6 -49 -55 -55h-84 l-49 -131q-97 -274 -172 -404q20 -26 47 -54.5t56.5 -46.5t59.5 -18q36 0 51 41.5t15 85.5q6 50 55 56h13q25 -3 40 -20.5t15 -43.5q0 -93 -49.5 -169.5t-139.5 -76.5q-122 0 -237 140q-111 -140 -250 -140q-113 0 -178.5 93t-65.5 211zM199 283q0 -61 25 -121t77 -60 q90 0 174 117q-101 154 -162 287l-65 -70q-49 -60 -49 -153zM326 985q0 -123 30 -240q60 71 96.5 129t36.5 113q-163 0 -163 -2z" />
<glyph unicode="'" d="M360 698q0 31 29 47q77 45 121.5 117.5t44.5 159.5q0 27 -2 41q-2 0 -14 -4h-13q-38 0 -67 29t-29 67q0 40 29 68t67 28q57 0 91.5 -34.5t49.5 -87.5t15 -107q0 -78 -28 -152t-79 -132.5t-122 -100.5q-10 -6 -25 -6q-23 0 -45.5 21.5t-22.5 45.5z" />
<glyph unicode="(" d="M344 627q0 158 51 307t148 274t229 205q16 8 27 8h30q22 -3 35 -17t13 -34q0 -30 -23 -43q-85 -54 -154 -130t-118 -170.5t-73 -194.5t-24 -205q0 -212 97 -401.5t272 -301.5q23 -13 23 -43q0 -20 -13 -34t-35 -17h-30q-11 0 -27 8q-132 80 -229 205t-148 274.5 t-51 309.5z" />
<glyph unicode=")" d="M176 -119q0 31 23 43q175 112 271.5 301.5t96.5 401.5q0 210 -96.5 400t-271.5 300q-23 12 -23 43q0 20 14 34t35 17h31q7 0 25 -8q132 -80 229 -205t148 -274t51 -307q0 -117 -29 -232.5t-84 -219t-135 -189.5t-180 -148q-18 -8 -25 -8h-31q-21 3 -35 17t-14 34z" />
<glyph unicode="*" d="M137 438q0 40 33 58l238 131l-238 129q-33 16 -33 57q0 27 19.5 47.5t46.5 20.5q18 0 35 -11l229 -141l-6 272q0 27 19.5 46.5t45.5 19.5q28 0 48 -19t20 -47l-8 -272l229 141q16 11 35 11q27 0 46 -20t19 -48q0 -41 -32 -57l-238 -129l238 -131q32 -18 32 -58 q0 -26 -19.5 -46.5t-45.5 -20.5q-18 0 -35 10l-229 141l8 -272q0 -28 -20 -47t-48 -19q-27 0 -47 19t-20 47l8 272l-229 -141q-18 -10 -35 -10q-26 0 -46 21t-20 46z" />
<glyph unicode="+" d="M76 621v10q9 52 61 61h324v324q9 52 61 61h10q53 -9 62 -61v-324h321q53 -9 62 -61v-10q-9 -53 -62 -62h-321v-323q-9 -53 -62 -62h-10q-52 9 -61 62v323h-324q-52 9 -61 62z" />
<glyph unicode="," d="M362 -217q0 38 37 51q62 17 106 63t54 107q-2 0 -5.5 -0.5t-9 -2t-16.5 -1.5q-50 0 -85 35t-35 86q0 49 35 84t85 35q72 0 117 -61t45 -136t-31 -141t-87 -114.5t-128 -70.5q-4 -2 -14 -2q-24 0 -46 22t-22 46z" />
<glyph unicode="-" d="M113 621v10q9 52 61 61h705q52 -9 61 -61v-10q-9 -53 -61 -62h-705q-52 9 -61 62z" />
<glyph unicode="." d="M408 121q0 47 36 83t84 36q49 0 84 -36t35 -83q0 -49 -35 -85t-84 -36q-48 0 -84 36t-36 85z" />
<glyph unicode="/" d="M117 -98q2 11 6 20l686 1458q14 35 55 41h10q53 -9 62 -61v-10q-2 -15 -4 -21l-686 -1458q-18 -35 -58 -41h-10q-52 9 -61 61v11z" />
<glyph unicode="0" d="M98 627q0 135 47.5 287t144.5 257t236 105t236 -105t144.5 -257t47.5 -287q0 -137 -47.5 -289.5t-144.5 -257.5t-236 -105t-236 105t-144.5 257.5t-47.5 289.5zM240 651q0 -103 28 -230.5t92.5 -223t165.5 -95.5t165 94.5t93 222t29 232.5q0 98 -29.5 213.5t-95 200 t-162.5 84.5q-98 0 -162.5 -84.5t-94 -200t-29.5 -213.5z" />
<glyph unicode="1" d="M211 954v17q6 49 55 55q82 0 143.5 61.5t96.5 149.5q14 32 51 39h14q50 -6 56 -55v-1094h209q49 -6 55 -55v-17q-6 -49 -55 -55h-560q-45 6 -55 55v17q6 49 55 55h209v860q-42 -39 -98 -63.5t-113 -24.5q-26 0 -43 14.5t-20 40.5z" />
<glyph unicode="2" d="M104 55v17q0 16 19 37l330 282q60 51 124 106.5t115 113t83 123.5t32 140q0 69 -27 119.5t-74.5 86t-106 52.5t-124.5 17q-51 0 -96 -21t-77.5 -58.5t-47.5 -86.5q25 -25 25 -61t-26 -62t-60 -26q-39 0 -64 27.5t-25 64.5q0 99 56.5 180t148 125.5t189.5 44.5 q118 0 222 -49t166 -141t62 -212q0 -89 -34.5 -167.5t-93 -145.5t-134 -132.5t-137.5 -117.5l-217 -184h475v37q6 49 55 55h31q49 -6 55 -55v-109q-6 -49 -55 -55h-733q-48 6 -56 55z" />
<glyph unicode="3" d="M88 285q0 37 24.5 63.5t63.5 26.5q34 0 60 -26t26 -60q0 -30 -20 -58q29 -67 115.5 -98t177.5 -31q71 0 138 33t108.5 91.5t41.5 131.5q0 74 -42 132.5t-110 90t-141 31.5h-129q-43 6 -49 50v30q6 41 49 47l138 11q89 0 158 74t69 165q0 52 -36.5 88.5t-89.5 54 t-105 17.5q-173 0 -232 -72q0 -1 4 -7t4 -7q4 -8 4 -12q4 -9 4 -25q0 -37 -24.5 -62.5t-61.5 -25.5q-39 0 -63.5 27t-24.5 65q0 131 122.5 188.5t267.5 57.5q84 0 171 -33t144 -99t57 -155q0 -93 -48 -176t-132 -133q64 -27 119.5 -75.5t87 -113t31.5 -133.5 q0 -110 -61.5 -197.5t-161 -136.5t-207.5 -49q-166 0 -306.5 78t-140.5 232z" />
<glyph unicode="4" d="M59 399v56q0 17 11 30l473 756q22 29 53 29h106q16 0 30 -8t22 -22t8 -30v-739h176q49 -6 55 -55v-17q-6 -49 -55 -55h-176v-217h149q50 -6 56 -55v-17q-6 -49 -56 -55h-422q-49 6 -55 55v17q6 49 55 55h150v217h-524q-50 6 -56 55zM207 471h432v686z" />
<glyph unicode="5" d="M104 295q0 37 24.5 63.5t64.5 26.5q34 0 60 -26t26 -60q0 -33 -23 -59q18 -43 56.5 -75.5t87 -47.5t98.5 -15q57 0 114.5 21.5t101 60.5t68.5 90t25 113q0 68 -31 135t-86.5 108.5t-128.5 41.5q-93 0 -147 -26t-97 -66t-63 -43h-23q-49 6 -55 55v604q6 49 55 55h590 q48 -6 56 -55v-16q-8 -50 -56 -56h-504v-385q103 60 244 60q82 0 154 -34t123 -90.5t80.5 -131t29.5 -156.5q0 -87 -36.5 -163t-101.5 -132.5t-147 -86.5t-165 -30q-97 0 -187 38t-148.5 110.5t-58.5 171.5z" />
<glyph unicode="6" d="M104 627q0 158 66.5 308.5t190 245.5t282.5 95q111 0 189.5 -52t78.5 -157q0 -38 -23.5 -64t-62.5 -26q-37 0 -62.5 24.5t-25.5 61.5q0 26 17 51q-33 35 -111 35t-150 -41t-126.5 -109t-85.5 -150t-31 -157q127 127 309 127q112 0 201 -57.5t138.5 -154.5t49.5 -210 q0 -118 -55.5 -214t-152 -152t-214.5 -56q-231 0 -326.5 197.5t-95.5 454.5zM264 459q0 -11 4 -31t4 -31q0 -3 -2 -10t-2 -10q17 -72 49 -133.5t85.5 -101.5t123.5 -40q80 0 144 40t100.5 108.5t36.5 146.5q0 76 -33.5 144t-95 108.5t-139.5 40.5q-66 0 -129.5 -29 t-104.5 -82t-41 -120z" />
<glyph unicode="7" d="M88 1087v140q6 49 55 55h31q11 0 31 -10q4 -3 8 -12t8 -9h688q50 -6 56 -55v-16q0 -24 -19 -39q-147 -144 -251 -319.5t-159 -373.5t-55 -403q0 -29 -19 -47t-46 -23q-32 0 -54 22t-22 54q0 144 27 288t82 285t131 265t178 235h-529v-37q-6 -49 -55 -55h-31q-49 6 -55 55 z" />
<glyph unicode="8" d="M88 356q0 114 85 200.5t202 119.5q-66 19 -125 56t-96 92t-37 120q0 101 61 176.5t155.5 115.5t192.5 40t193 -40t156 -115.5t61 -176.5q0 -64 -37 -119.5t-96 -92.5t-125 -56q116 -32 201.5 -118t85.5 -202q0 -83 -38.5 -155.5t-100 -121.5t-142 -76.5t-158.5 -27.5 t-157.5 27.5t-142 77t-100.5 121.5t-38 155zM229 356q0 -109 91 -181.5t206 -72.5q74 0 142 32t111.5 90t43.5 132t-43.5 133t-112 91t-141.5 32q-72 0 -141 -32.5t-112.5 -91t-43.5 -132.5zM258 944q0 -62 40.5 -109t104 -71.5t123.5 -24.5q61 0 124.5 24.5t104 71.5 t40.5 109t-40.5 109t-104 71.5t-124.5 24.5q-100 0 -184 -55t-84 -150z" />
<glyph unicode="9" d="M104 854q0 120 58 216t159 151t218 55q120 0 201 -60t126.5 -159t63.5 -207t18 -223q0 -113 -32.5 -226.5t-99.5 -212.5t-162 -156t-216 -57t-209 49t-88 160q0 38 25 65t63 27q36 0 61 -26t25 -62q0 -23 -14 -49q35 -37 137 -37q76 0 143.5 42.5t118 113t78 149.5 t27.5 152q-60 -60 -142 -92.5t-169 -32.5q-85 0 -155.5 32.5t-124.5 92.5t-82 136t-28 159zM246 854q0 -76 34 -144.5t95 -108.5t139 -40q65 0 129.5 29t104.5 82.5t40 122.5q0 10 -0.5 15t-1.5 12.5t-2.5 16.5t-1.5 15q1 5 1.5 9.5t0.5 10.5q-23 113 -83.5 194t-163.5 81 q-125 0 -208 -85t-83 -210z" />
<glyph unicode=":" d="M408 121q0 47 36 83t84 36q49 0 84 -36t35 -83q0 -49 -35 -85t-84 -36q-48 0 -84 36t-36 85zM408 764q0 47 36 83t84 36q49 0 84 -36t35 -83q0 -49 -35 -85t-84 -36q-48 0 -84 36t-36 85z" />
<glyph unicode=";" d="M362 -217q0 32 31 49q112 53 133 168q-50 0 -84 36t-34 85t35 84t85 35q71 0 100 -59.5t29 -137.5q0 -105 -55.5 -191t-150.5 -133q-14 -4 -21 -4q-24 0 -46 22t-22 46zM408 764q0 47 36 83t84 36q49 0 84 -36t35 -83q0 -49 -35 -85t-84 -36q-48 0 -84 36t-36 85z" />
<glyph unicode="&#x3c;" d="M113 621v10q6 33 32 53l695 440q8 5 15 7t13 4h11q53 -14 61 -62v-10q-6 -36 -33 -53l-604 -383l610 -389q23 -15 27 -48v-10q-8 -52 -61 -61h-11q-20 3 -28 8l-701 446q-23 16 -26 48z" />
<glyph unicode="=" d="M76 467v10q8 48 61 62h778q54 -14 62 -62v-10q-8 -52 -62 -61h-778q-53 9 -61 61zM76 776v10q9 50 61 62h778q53 -12 62 -62v-10q-8 -52 -62 -61h-778q-53 9 -61 61z" />
<glyph unicode="&#x3e;" d="M113 180v10q6 33 32 52l605 385l-611 387q-22 14 -26 49v10q8 48 61 62h10q2 -1 10 -3l12 -4q4 -2 7 -4l700 -444q23 -17 27 -49v-10q-6 -33 -33 -52l-694 -442q-8 -5 -29 -8h-10q-53 9 -61 61z" />
<glyph unicode="?" d="M125 1008q0 89 57.5 146.5t142.5 83.5t171 26q169 0 300.5 -56.5t131.5 -203.5q0 -80 -43 -125.5t-130.5 -106t-134.5 -121.5t-47 -162v-79q-9 -41 -49 -48h-57q-41 8 -47 48v88q0 158 135 293q62 60 131 100q56 34 78 54.5t22 58.5q0 55 -50.5 84.5t-112.5 39t-125 9.5 q-162 0 -215 -80q16 -27 16 -53q0 -35 -25.5 -60.5t-60.5 -25.5q-38 0 -63 26.5t-25 63.5zM399 96q0 39 29 68t68 29q40 0 68 -29t28 -68q0 -38 -28 -67t-68 -29q-39 0 -68 29t-29 67z" />
<glyph unicode="@" d="M88 627q0 115 35.5 227t105 206t168 149t217.5 55q217 0 284 -187.5t67 -449.5q0 -92 -33.5 -187.5t-99.5 -159t-160 -63.5q-96 0 -163 64t-99.5 159t-32.5 187q0 91 33 185.5t99.5 158t162.5 63.5q60 0 123 -37q-25 60 -72 100t-109 40q-123 0 -215 -77t-140 -196 t-48 -237q0 -117 48 -237t140 -197.5t215 -77.5q66 0 107 19t82 49.5t59 33.5h56q21 -3 34 -17t13 -34q0 -23 -13 -35q-69 -69 -155 -106t-183 -37q-120 0 -218 55.5t-167 149t-105 206.5t-36 228zM500 627q0 -58 18.5 -123.5t57 -112.5t96.5 -47q55 0 94.5 47.5t57.5 112 t18 123.5q0 94 -44 187t-126 93t-127 -93t-45 -187z" />
<glyph unicode="A" d="M55 55v17q6 49 56 55h61l250 1094q6 26 27.5 42.5t48.5 16.5h57q29 0 49.5 -16.5t26.5 -42.5l250 -1094h61q49 -6 55 -55v-17q-6 -49 -55 -55h-262q-49 6 -55 55v17q6 49 55 55h55q-30 135 -47 209h-323q-8 -32 -17.5 -74t-17.5 -78t-13 -57h56q49 -6 55 -55v-17 q-6 -49 -55 -55h-262q-50 6 -56 55zM393 463h266q-131 585 -131 647h-2q0 -62 -133 -647z" />
<glyph unicode="B" d="M49 55v17q6 49 55 55h78v997h-78q-49 6 -55 56v16q6 49 55 55h486q64 0 125 -23.5t109 -68t75 -102.5t27 -125q0 -92 -62.5 -168t-154.5 -109q72 -15 131.5 -59.5t94 -111.5t34.5 -140q0 -68 -26 -130.5t-72 -110.5t-108 -75.5t-132 -27.5h-527q-49 6 -55 55zM324 127 h266q61 0 115.5 28t88 78.5t33.5 110.5t-28 117.5t-78 92t-111 34.5h-286v-461zM324 715h223q61 0 115.5 28t88 78.5t33.5 110.5q0 51 -26.5 95.5t-70.5 70.5t-97 26h-266v-409z" />
<glyph unicode="C" d="M82 627q0 107 30.5 220.5t92 211.5t152.5 157.5t206 59.5q74 0 142.5 -27t119.5 -75l37 75q11 27 41 27h21q41 -6 47 -47v-361q-6 -43 -47 -49h-45q-42 6 -50 49q0 62 -33.5 128.5t-89.5 109.5t-122 43q-87 0 -156 -49.5t-114.5 -129t-68 -170.5t-22.5 -173 q0 -112 41.5 -235.5t124 -206.5t197.5 -83q68 0 124 37.5t87.5 98.5t31.5 129q8 41 50 47h45q21 -3 34 -18.5t13 -37.5q0 -104 -57 -193t-151.5 -139.5t-199.5 -50.5q-150 0 -259.5 100t-165.5 252.5t-56 299.5z" />
<glyph unicode="D" d="M41 55v17q6 49 55 55h68v997h-68q-49 6 -55 56v16q6 49 55 55h451q139 0 236.5 -102.5t144.5 -250.5t47 -284q0 -131 -48 -276t-144.5 -241.5t-235.5 -96.5h-451q-49 6 -55 55zM305 127h205q81 0 142.5 46.5t102 122t60 159.5t19.5 159q0 105 -35.5 224.5t-109 202.5 t-179.5 83h-205v-997z" />
<glyph unicode="E" d="M53 55v17q6 49 56 55h84v997h-84q-50 6 -56 56v16q6 49 56 55h800q50 -6 56 -55v-201q-6 -49 -56 -55h-30q-50 6 -56 55v129h-489v-411h262v55q6 49 55 55h31q49 -6 55 -55v-238q-6 -49 -55 -55h-31q-49 6 -55 55v56h-262v-459h534v160q6 49 56 55h30q50 -6 56 -55v-232 q-6 -49 -56 -55h-845q-50 6 -56 55z" />
<glyph unicode="F" d="M59 55v17q6 49 56 55h90v997h-90q-45 6 -56 56v16q6 49 56 55h813q49 -6 55 -55v-201q-6 -49 -55 -55h-31q-49 6 -55 55v129h-496v-434h270v55q8 50 56 56h30q50 -6 56 -56v-237q-6 -49 -56 -55h-30q-48 6 -56 55v55h-270v-436h125q49 -6 55 -55v-17q-6 -49 -55 -55h-356 q-45 6 -56 55z" />
<glyph unicode="G" d="M76 627q0 99 28 215t83 214.5t139.5 159t195.5 60.5q137 0 238 -96l31 65q11 31 43 31h20q41 -6 47 -47v-361q-6 -43 -47 -49h-45q-43 6 -49 49q0 61 -28 126.5t-78 110t-113 44.5q-107 0 -180 -86t-108.5 -209t-35.5 -229q0 -72 18.5 -161.5t58.5 -173.5t101 -136 t142 -52q69 0 119 53t75 131t25 142h-111q-49 6 -55 55v17q6 49 55 55h295q49 -6 55 -55v-17q-6 -49 -55 -55h-39v-379q-6 -48 -55 -57h-31q-49 10 -55 57v33q-98 -107 -238 -107q-145 0 -246 103t-150.5 255t-49.5 294z" />
<glyph unicode="H" d="M45 55v17q7 49 55 55h72v997h-72q-49 6 -55 56v16q6 49 55 55h287q46 -6 55 -55v-16q-10 -50 -55 -56h-74v-409h426v409h-71q-50 6 -56 56v16q6 49 56 55h286q47 -6 56 -55v-16q-10 -50 -56 -56h-73v-997h73q46 -6 56 -55v-17q-10 -49 -56 -55h-286q-50 6 -56 55v17 q7 49 56 55h71v461h-426v-461h74q45 -6 55 -55v-17q-10 -49 -55 -55h-287q-49 6 -55 55z" />
<glyph unicode="I" d="M166 55v17q6 49 55 55h236v997h-236q-49 6 -55 56v16q6 49 55 55h613q49 -6 55 -55v-16q-6 -50 -55 -56h-236v-997h236q49 -6 55 -55v-17q-6 -49 -55 -55h-613q-49 6 -55 55z" />
<glyph unicode="J" d="M147 205q0 38 25 64t64 26q34 0 60 -26t26 -60q0 -23 -15 -49q51 -58 176 -58q49 0 94 20.5t73 58t28 85.5v858h-184q-50 6 -56 56v16q6 49 56 55h409q49 -6 55 -55v-16q-6 -50 -55 -56h-84v-866q0 -82 -50 -147t-128 -100.5t-158 -35.5q-125 0 -230.5 56.5t-105.5 173.5 z" />
<glyph unicode="K" d="M49 55v17q6 49 55 55h68v997h-68q-49 6 -55 56v16q6 49 55 55h258q50 -6 56 -55v-16q-6 -50 -56 -56h-67v-528l414 528h-25q-49 6 -55 56v16q6 49 55 55h236q49 -6 55 -55v-16q-6 -50 -55 -56h-56l-307 -393l334 -604h47q49 -6 55 -55v-17q-6 -49 -55 -55h-209 q-49 6 -55 55v17q6 49 55 55h21l-275 500l-180 -232v-268h67q50 -6 56 -55v-17q-6 -49 -56 -55h-258q-49 6 -55 55z" />
<glyph unicode="L" d="M66 55v17q6 49 55 55h96v997h-96q-49 6 -55 56v16q6 49 55 55h371q49 -6 55 -55v-16q-6 -50 -55 -56h-134v-997h482v160q6 49 55 55h31q49 -6 55 -55v-232q-6 -49 -55 -55h-805q-49 6 -55 55z" />
<glyph unicode="M" d="M31 55v17q6 49 55 55h49v997h-49q-49 6 -55 56v16q6 49 55 55h172q27 0 50 -17t30 -42q56 -171 93 -288.5t66 -218.5t29 -126q1 26 33 136t67.5 222t88.5 275q7 25 30 42t50 17h172q49 -6 55 -55v-16q-6 -50 -55 -56h-49v-997h49q49 -6 55 -55v-17q-6 -49 -55 -55h-222 q-49 6 -55 55v17q6 49 55 55h50v983q-1 -35 -57 -219.5t-132 -413.5q-7 -25 -29.5 -42t-50.5 -17q-61 0 -80 59q-48 152 -88.5 279t-69 225.5t-30.5 128.5v-983h49q49 -6 55 -55v-17q-6 -49 -55 -55h-221q-49 6 -55 55z" />
<glyph unicode="N" d="M55 55v17q6 49 56 55h71v997h-71q-50 6 -56 56v16q6 49 56 55h192q29 0 52.5 -17t31.5 -42q358 -1007 361 -1051v983h-72q-49 6 -55 56v16q6 49 55 55h268q45 -6 55 -55v-16q-10 -50 -55 -56h-74v-1069q-6 -49 -55 -55h-65q-28 0 -51.5 16.5t-32.5 42.5 q-39 113 -109.5 312.5t-124 351t-89.5 262.5t-38 125v-983h74q45 -6 55 -55v-17q-10 -49 -55 -55h-268q-49 6 -56 55z" />
<glyph unicode="O" d="M113 627q0 204 11 339.5t54 204.5q46 69 134.5 87t213.5 18q126 0 215 -18t133 -87q44 -68 55 -204t11 -340q0 -206 -11 -342.5t-55.5 -205t-133 -86.5t-214.5 -18q-125 0 -213 18t-135 87q-22 35 -36.5 98t-20 136t-7 144t-1.5 169zM254 651q0 -82 0.5 -126.5t5 -123.5 t14 -129.5t23.5 -81.5q28 -56 86.5 -72t142.5 -16q83 0 143 16t87 72q20 42 29 114.5t11.5 154t2.5 192.5q0 101 -2.5 175t-11.5 139.5t-29 103.5q-28 53 -86 66.5t-144 13.5q-85 0 -142.5 -13.5t-86.5 -66.5q-14 -26 -23.5 -73t-14 -117t-5 -111.5t-0.5 -116.5z" />
<glyph unicode="P" d="M53 55v17q6 49 56 55h84v997h-84q-50 6 -56 56v16q6 49 56 55h483q100 0 186 -51.5t136.5 -138t50.5 -184.5q0 -99 -50.5 -187t-136.5 -139t-186 -51h-258v-373h84q49 -6 55 -55v-17q-6 -49 -55 -55h-309q-50 6 -56 55zM334 627h223q68 0 130 33t99 90.5t37 126.5 t-37.5 125.5t-99.5 89t-129 32.5h-223v-497z" />
<glyph unicode="Q" d="M113 627q0 204 11 339.5t54 204.5q46 69 134.5 87t213.5 18q126 0 215 -18t133 -87q44 -68 55 -204t11 -340q0 -206 -11 -342.5t-55 -204.5q-28 -46 -88 -72l123 -233q4 -12 4 -19q0 -17 -12 -29t-29 -12h-69q-14 0 -28 9t-19 20l-119 233q-37 -2 -111 -2q-125 0 -213 18 t-135 87q-22 35 -36.5 98t-20 136t-7 144t-1.5 169zM254 627q0 -166 7.5 -276.5t35.5 -164.5q29 -54 88 -69t141 -15h45l-94 189q-6 9 -6 18q0 17 11 29t30 12h78q17 0 24 -14l103 -195q54 45 68 185t14 301q0 105 -2.5 182.5t-11.5 147t-29 108.5q-28 54 -85.5 69 t-144.5 15q-56 0 -95.5 -4.5t-76.5 -23t-57 -56.5q-13 -26 -23 -76t-14.5 -124t-5 -116.5t-0.5 -121.5z" />
<glyph unicode="R" d="M45 55v17q7 49 55 55h72v997h-72q-49 6 -55 56v16q6 49 55 55h385q97 0 186 -44t144 -122.5t55 -177.5q0 -88 -46.5 -163.5t-123.5 -120.5q53 -39 85 -97t32 -123v-151q0 -150 55 -150q19 0 27 36t8 67q6 49 56 55h30q26 -3 41 -20.5t15 -42.5q0 -85 -47.5 -153.5 t-127.5 -68.5q-72 0 -116.5 39.5t-63 100.5t-18.5 129v151q0 77 -58 122.5t-137 45.5h-168v-436h74q45 -6 55 -55v-17q-10 -49 -55 -55h-287q-49 6 -55 55zM313 690h156q61 0 122 26.5t99.5 76t38.5 114.5t-38.5 114.5t-99.5 76t-122 26.5h-156v-434z" />
<glyph unicode="S" d="M104 25v344q8 41 50 47h45q41 -6 47 -47q0 -138 94.5 -202.5t237.5 -64.5q62 0 116 31t86.5 83t32.5 114q0 79 -50 142t-128 81l-252 59q-118 30 -198.5 119.5t-80.5 206.5q0 96 52 173.5t137 121t180 43.5q84 0 158 -24t131 -76l20 63q9 30 45 37h21q41 -6 47 -47v-344 q-6 -43 -47 -49h-45q-43 6 -49 49q-12 121 -86 192.5t-195 71.5q-90 0 -161.5 -58t-71.5 -145q0 -69 50 -123t118 -71l256 -62q62 -15 113 -48t89 -78.5t60 -105t22 -120.5q0 -97 -50 -181t-136 -133t-182 -49q-214 0 -342 99q-16 -53 -24 -72.5t-42 -26.5h-18q-43 7 -50 50 z" />
<glyph unicode="T" d="M53 995v201q6 49 56 55h835q49 -6 55 -55v-201q-6 -49 -55 -55h-31q-49 6 -55 55v129h-260v-997h125q49 -6 55 -55v-17q-6 -49 -55 -55h-391q-48 6 -56 55v17q8 49 56 55h125v997h-262v-129q-8 -49 -56 -55h-30q-50 6 -56 55z" />
<glyph unicode="U" d="M10 1180v16q6 49 56 55h309q49 -6 55 -55v-16q-6 -50 -55 -56h-84v-702q0 -73 27 -147.5t80 -123.5t128 -49q76 0 129 49t80 123.5t27 147.5v702h-84q-49 6 -55 56v16q6 49 55 55h309q49 -6 55 -55v-16q-6 -50 -55 -56h-84v-710q0 -81 -26.5 -159t-77 -141.5t-120 -101 t-153.5 -37.5q-109 0 -195.5 64t-133.5 165.5t-47 209.5v710h-84q-50 6 -56 56z" />
<glyph unicode="V" d="M37 1180v16q6 49 55 55h256q49 -6 55 -55v-16q-6 -50 -55 -56h-53q31 -122 95.5 -383.5t100 -417.5t35.5 -182q2 25 26.5 134.5t76.5 323t76 310t55 215.5h-55q-50 6 -56 56v16q6 49 56 55h256q49 -6 55 -55v-16q-6 -50 -55 -56h-56l-272 -1083q-8 -26 -29 -42.5 t-49 -16.5h-57q-27 0 -48.5 16.5t-29.5 42.5l-273 1083h-55q-49 6 -55 56z" />
<glyph unicode="W" d="M23 1180v16q6 49 55 55h217q49 -6 55 -55v-16q-6 -50 -55 -56h-74q27 -200 53 -400.5t45 -367t19 -215.5q2 125 98 551q6 27 26.5 43.5t47.5 16.5h33q27 0 47 -16t26 -44q21 -89 44.5 -202.5t38 -201t16.5 -147.5q0 42 11 143.5t29.5 255t38.5 301t37 283.5h-73 q-48 6 -56 56v16q8 49 56 55h217q49 -6 55 -55v-16q-6 -50 -55 -56h-19l-147 -1083q-3 -24 -23 -41.5t-45 -17.5h-28q-27 0 -48.5 17t-27.5 42q-17 80 -41.5 194t-36.5 174t-21.5 113t-11.5 88q0 -59 -110 -569q-6 -25 -27 -42t-49 -17h-29q-24 0 -44 17.5t-23 41.5 l-148 1083h-18q-45 6 -55 56z" />
<glyph unicode="X" d="M55 55v17q6 49 56 55h67l266 539l-241 458h-70q-49 6 -55 56v16q6 49 55 55h258q49 -6 55 -55v-16q-6 -50 -55 -56h-29l154 -295l141 295h-32q-50 6 -56 56v16q6 49 56 55h256q49 -6 55 -55v-16q-6 -50 -55 -56h-68l-227 -458l284 -539h70q49 -6 55 -55v-17 q-6 -49 -55 -55h-258q-49 6 -55 55v17q6 49 55 55h31l-197 393l-184 -393h37q45 -6 55 -55v-17q-6 -49 -55 -55h-258q-50 6 -56 55z" />
<glyph unicode="Y" d="M39 1180v16q6 49 55 55h256q48 -6 56 -55v-16q-8 -50 -56 -56h-33q209 -437 209 -483q1 25 50.5 136t158.5 347h-33q-49 6 -55 56v16q6 49 55 55h256q50 -6 56 -55v-16q-6 -50 -56 -56h-65l-295 -624v-373h74q45 -6 55 -55v-17q-10 -49 -55 -55h-287q-49 6 -55 55v17 q7 49 55 55h72v373l-297 624h-66q-49 6 -55 56z" />
<glyph unicode="Z" d="M96 59v25q0 19 10 33l668 1007h-514v-129q-6 -49 -55 -55h-31q-49 6 -55 55v201q6 49 55 55h723q25 0 42 -17t17 -42v-25q0 -19 -8 -32l-669 -1008h546v166q6 49 56 55h30q50 -6 56 -55v-238q-6 -49 -56 -55h-755q-23 0 -41.5 17.5t-18.5 41.5z" />
<glyph unicode="[" d="M446 -115v1481q8 49 56 55h413q50 -6 56 -55v-16q-6 -50 -56 -56h-327v-1337h327q50 -6 56 -55v-17q-6 -49 -56 -55h-413q-48 6 -56 55z" />
<glyph unicode="\" d="M117 1350v10q9 52 61 61h10q40 -6 58 -41l686 -1458q2 -6 4 -20v-11q-9 -52 -62 -61h-10q-41 6 -55 41l-686 1458q-4 8 -4 9t-2 12z" />
<glyph unicode="]" d="M82 -98q6 49 55 55h328v1337h-328q-49 6 -55 56v16q6 49 55 55h414q49 -6 55 -55v-1481q-6 -49 -55 -55h-414q-49 6 -55 55v17z" />
<glyph unicode="^" d="M199 1042q0 35 28 52l273 151h53l268 -149q33 -19 33 -54q0 -28 -21.5 -52.5t-50.5 -24.5q-14 0 -26 6l-230 137l-229 -137q-12 -6 -27 -6q-28 0 -49.5 24.5t-21.5 52.5z" />
<glyph unicode="_" d="M113 -119q9 53 61 62h705q52 -9 61 -62v-10q-9 -52 -61 -61h-705q-52 9 -61 61v10z" />
<glyph unicode="`" d="M371 1004q0 118 61.5 220.5t167.5 164.5q9 6 25 6q12 0 24.5 -6t21.5 -15t15 -21.5t6 -25.5q0 -31 -28 -47q-49 -27 -87.5 -70.5t-58.5 -95.5t-20 -110q0 -27 2 -41q2 0 14 4h12q39 0 68 -29t29 -68q0 -38 -29 -67t-68 -29q-81 0 -118 70.5t-37 159.5z" />
<glyph unicode="a" d="M111 264q0 114 102.5 180.5t240 91.5t257.5 25v29q0 58 -35 99.5t-89 63t-110 21.5q-92 0 -137 -8v-14q0 -34 -26 -60t-60 -26q-39 0 -63.5 26.5t-24.5 63.5q0 94 92 120t223 25q88 0 174.5 -37.5t141.5 -106t55 -159.5v-455q22 -16 145 -16q50 -6 56 -55v-17 q-6 -49 -56 -55h-30q-87 0 -146 12t-92 60q-112 -84 -313 -84q-80 0 -149.5 35t-112.5 98t-43 143zM252 264q0 -69 64 -109t137 -40q95 0 176.5 32.5t81.5 110.5v184q-78 0 -184.5 -15t-190.5 -55.5t-84 -107.5z" />
<glyph unicode="b" d="M27 1180v16q6 49 55 55h197q49 -6 55 -55v-405q53 50 123 77t145 27q84 0 156.5 -39.5t121 -104.5t75 -146.5t26.5 -162.5q0 -86 -28.5 -167t-83.5 -146.5t-130.5 -103t-163.5 -37.5q-144 0 -241 110v-43q-6 -49 -55 -55h-31q-49 6 -55 55v1069h-111q-49 6 -55 56z M334 344q20 -94 78.5 -161.5t146.5 -67.5q80 0 146 48t100.5 123t34.5 156q0 79 -31.5 154t-91.5 123.5t-137 48.5q-84 0 -152 -50.5t-94 -131.5v-242z" />
<glyph unicode="c" d="M147 442q0 119 58 225.5t159 170t222 63.5q133 0 229 -25t96 -120q0 -38 -23.5 -64t-62.5 -26q-35 0 -61.5 25.5t-26.5 60.5v14q-47 8 -149 8q-86 0 -154 -46.5t-106.5 -123t-38.5 -162.5q0 -67 25.5 -126t71.5 -104.5t105 -71t125 -25.5q63 0 112.5 34t68.5 93 q3 14 16 24t29 10h45q21 -3 34 -17t13 -34q0 -8 -4 -24q-34 -103 -131 -158t-213 -55q-121 0 -222 62.5t-159 167t-58 224.5z" />
<glyph unicode="d" d="M72 442q0 112 50.5 217.5t142.5 170.5t210 65q67 0 131.5 -25.5t112.5 -72.5v327h-111q-49 6 -55 56v16q6 49 55 55h197q49 -6 55 -55v-1069h111q49 -6 55 -55v-17q-6 -49 -55 -55h-197q-49 6 -55 55v54q-51 -57 -118.5 -89t-143.5 -32q-115 0 -202.5 66t-135 171.5 t-47.5 216.5zM213 440q0 -77 31 -152t91.5 -124t137.5 -49q93 0 158 69t88 166v238q-15 50 -47.5 91.5t-79 65t-96.5 23.5q-65 0 -116.5 -27.5t-89 -75t-57.5 -106t-20 -119.5z" />
<glyph unicode="e" d="M111 444q0 88 32 170.5t91 147.5t137.5 102t171.5 37q128 0 216 -59t131.5 -161t43.5 -226q0 -26 -14.5 -43.5t-40.5 -20.5h-623q14 -80 61.5 -142t118.5 -98t150 -36q71 0 129.5 34t81.5 97q12 30 51 37h31q23 -3 39 -19t16 -41q0 -10 -2 -14q-26 -75 -81 -124 t-126.5 -73t-153.5 -24q-91 0 -175.5 35.5t-148 97.5t-100 145t-36.5 178zM258 512h533q0 54 -17 101t-49.5 83.5t-78.5 57t-103 20.5q-107 0 -186 -77t-99 -185z" />
<glyph unicode="f" d="M86 811v16q6 50 55 56h228v125q0 58 30.5 108t78.5 82.5t105 49t115 16.5q70 0 125.5 -27.5t55.5 -91.5q0 -35 -23.5 -61.5t-60.5 -26.5q-32 0 -58 23.5t-26 56.5h-37q-39 0 -77.5 -16.5t-62.5 -48t-24 -73.5v-116h270q48 -6 56 -56v-16q-8 -49 -56 -55h-270v-629h221 q49 -6 55 -55v-17q-6 -49 -55 -55h-584q-49 6 -55 55v17q6 49 55 55h222v629h-228q-49 6 -55 55z" />
<glyph unicode="g" d="M59 -170q0 76 40 144.5t108 107.5q-51 66 -51 149q0 77 45 144q-66 89 -66 194q0 88 45.5 163.5t122.5 119t166 43.5q108 0 193 -61q98 73 219 73q53 0 98 -28t45 -80q0 -20 -9.5 -40t-27 -32t-41.5 -12q-29 0 -51 18t-27 47q-56 0 -120 -32q53 -84 53 -179 q0 -88 -45.5 -163t-122 -118.5t-164.5 -43.5q-102 0 -182 53q-15 -25 -15 -59q0 -46 26.5 -77.5t70.5 -31.5h161q195 0 329 -62t134 -237q0 -77 -45.5 -135t-116.5 -93t-152.5 -53t-152.5 -18q-98 0 -206.5 31.5t-184.5 99t-76 168.5zM184 -170q0 -62 59.5 -101.5t141 -58 t141.5 -18.5t142 18.5t141 58t59 101.5q0 114 -98.5 145t-247.5 31h-153q-74 0 -129.5 -51.5t-55.5 -124.5zM276 569q0 -81 56 -142.5t137 -61.5q52 0 96 28.5t69 75.5t25 100t-25 100.5t-69 76t-96 28.5q-40 0 -75.5 -16t-62.5 -46t-41 -66t-14 -77z" />
<glyph unicode="h" d="M27 55v17q6 49 55 55h111v997h-111q-49 6 -55 56v16q6 49 55 55h197q49 -6 55 -55v-414q108 113 264 113q67 0 117.5 -21t82 -60.5t47 -94.5t15.5 -121v-471h111q49 -6 55 -55v-17q-6 -49 -55 -55h-361q-49 6 -55 55v17q6 49 55 55h109v463q0 90 -28.5 134t-115.5 44 q-104 0 -172.5 -80.5t-68.5 -187.5v-373h110q50 -6 56 -55v-17q-6 -49 -56 -55h-362q-49 6 -55 55z" />
<glyph unicode="i" d="M164 55v17q6 49 55 55h262v629h-245q-50 6 -56 55v16q6 50 56 56h331q48 -6 56 -56v-700h229q49 -6 55 -55v-17q-6 -49 -55 -55h-633q-49 6 -55 55zM430 1157q0 40 29 68t67 28q39 0 68 -28t29 -68q0 -38 -29 -67t-68 -29q-38 0 -67 29t-29 67z" />
<glyph unicode="j" d="M96 -317q0 39 25.5 65.5t62.5 26.5q35 0 60.5 -25.5t25.5 -62.5q0 -13 -2 -17q45 -10 142 -10q62 0 105 37.5t64 97t21 117.5v844h-276q-50 6 -56 55v16q6 50 56 56h362q49 -6 55 -56v-923q0 -94 -42.5 -179.5t-119 -138.5t-171.5 -53q-132 0 -222 26.5t-90 123.5z M549 1157q0 40 29 68t67 28q40 0 68 -28t28 -68q0 -38 -28 -67t-68 -29q-38 0 -67 29t-29 67z" />
<glyph unicode="k" d="M39 55v17q10 49 55 55h121v997h-121q-45 6 -55 56v16q10 49 55 55h189q49 -6 55 -55v-737l311 297h-94q-45 6 -55 55v16q10 50 55 56h365q49 -6 55 -56v-16q-6 -49 -55 -55h-95l-243 -236l295 -393h86q49 -6 55 -55v-17q-6 -49 -55 -55h-293q-50 6 -56 55v17q6 49 56 55 h53l-231 309l-154 -147v-162h121q45 -6 55 -55v-17q-10 -49 -55 -55h-365q-45 6 -55 55z" />
<glyph unicode="l" d="M125 55v17q6 49 55 55h277v997h-277q-49 6 -55 56v16q6 49 55 55h363q49 -6 55 -55v-1069h279q45 -6 55 -55v-17q-10 -49 -55 -55h-697q-48 6 -55 55z" />
<glyph unicode="m" d="M-6 55v17q6 49 55 55h55v629h-55q-49 6 -55 55v16q6 50 55 56h123q23 -3 39 -19t16 -41q0 -2 4 -2q76 74 177 74q51 0 92 -30t61 -79q39 51 93 80t114 29q180 0 180 -297v-471h56q49 -6 55 -55v-17q-6 -49 -55 -55h-213q-50 6 -56 55v17q6 49 56 55h34v463q0 178 -73 178 q-84 0 -124 -85.5t-40 -182.5v-373h55q49 -6 55 -55v-17q-6 -49 -55 -55h-213q-49 6 -55 55v17q6 49 55 55h35v463q0 178 -74 178q-84 0 -124 -85.5t-40 -182.5v-373h56q49 -6 55 -55v-17q-6 -49 -55 -55h-234q-49 6 -55 55z" />
<glyph unicode="n" d="M27 55v17q6 49 55 55h111v629h-111q-49 6 -55 55v16q6 50 55 56h197q49 -6 55 -56v-45q108 113 264 113q67 0 117.5 -21t82 -60.5t47 -94.5t15.5 -121v-471h111q49 -6 55 -55v-17q-6 -49 -55 -55h-361q-49 6 -55 55v17q6 49 55 55h109v463q0 90 -28.5 134t-115.5 44 q-104 0 -172.5 -80.5t-68.5 -187.5v-373h110q50 -6 56 -55v-17q-6 -49 -56 -55h-362q-49 6 -55 55z" />
<glyph unicode="o" d="M115 442q0 118 52.5 223.5t146.5 170.5t212 65q90 0 166 -38t131.5 -103t85 -147.5t29.5 -170.5q0 -114 -52.5 -220t-147.5 -170t-212 -64q-116 0 -211 64t-147.5 170t-52.5 220zM256 459q0 -82 32 -161t93.5 -131t144.5 -52q123 0 197 108t74 236q0 77 -33.5 150 t-96 119t-141.5 46q-78 0 -140.5 -45.5t-96 -117.5t-33.5 -152z" />
<glyph unicode="p" d="M27 -383q6 49 55 55h111v1084h-111q-49 6 -55 55v16q6 50 55 56h197q49 -6 55 -56v-36q53 50 123 77t145 27q84 0 156.5 -39.5t121 -104.5t75 -146.5t26.5 -162.5q0 -86 -28.5 -167t-83.5 -146.5t-130.5 -103t-163.5 -37.5q-144 0 -241 110v-426h110q50 -6 56 -55v-16 q-6 -50 -56 -56h-362q-49 6 -55 56v16zM334 344q20 -94 78.5 -161.5t146.5 -67.5q80 0 146 48t100.5 123t34.5 156q0 79 -31.5 154t-91.5 123.5t-137 48.5q-84 0 -152 -50.5t-94 -131.5v-242z" />
<glyph unicode="q" d="M80 442q0 116 55 221t151.5 168.5t215.5 63.5q75 0 141 -31t117 -86v62q6 49 55 55h31q49 -6 55 -55v-1168h121q45 -6 55 -55v-16q-10 -50 -55 -56h-383q-45 6 -55 56v16q9 49 55 55h121v443q-120 -127 -281 -127q-116 0 -207 65t-141.5 169.5t-50.5 219.5zM221 440 q0 -79 34.5 -154.5t98.5 -123t144 -47.5q95 0 169 70t93 165v172q-11 62 -43 119t-82.5 92t-114.5 35q-84 0 -153 -47t-107.5 -122.5t-38.5 -158.5z" />
<glyph unicode="r" d="M68 55v17q6 49 55 55h182v629h-182q-49 6 -55 55v16q6 50 55 56h268q49 -6 55 -56v-100q63 78 152.5 123t189.5 45q44 0 88 -11.5t73.5 -38.5t29.5 -73q0 -36 -23 -61t-59 -25q-33 0 -58.5 24t-25.5 56q-8 2 -25 2q-96 0 -175 -52t-123 -138t-44 -185v-266h242 q49 -6 55 -55v-17q-6 -49 -55 -55h-565q-49 6 -55 55z" />
<glyph unicode="s" d="M145 37v268q8 41 50 47h45q32 -6 45 -37q50 -200 247 -200q100 0 180.5 30t80.5 113q0 58 -58.5 91.5t-130.5 45.5l-176 29q-74 12 -136.5 39t-104.5 75t-42 119q0 136 118.5 190t268.5 54q129 0 209 -47q13 24 22.5 34t29.5 13h20q41 -6 47 -47v-213q-6 -43 -47 -49h-45 q-43 6 -49 49q0 75 -54.5 104t-136.5 29q-94 0 -175 -23.5t-81 -93.5q0 -47 56.5 -73t120.5 -35l178 -31q119 -19 206 -85t87 -177q0 -142 -115 -205t-273 -63q-156 0 -253 82q-9 -21 -16 -38t-19 -29t-31 -15h-18q-43 6 -50 49z" />
<glyph unicode="t" d="M51 811v16q6 50 55 56h199v196q6 48 55 56h31q49 -8 55 -56v-196h355q49 -6 55 -56v-16q-6 -49 -55 -55h-355v-498q0 -143 156 -143q65 0 111.5 40t46.5 103v25q6 49 55 55h31q49 -6 55 -55v-33q0 -79 -48 -139t-121.5 -91.5t-151.5 -31.5t-141.5 31t-98.5 91t-35 140 v506h-199q-49 6 -55 55z" />
<glyph unicode="u" d="M27 811v16q6 50 55 56h197q49 -6 55 -56v-598q0 -71 43 -92.5t123 -21.5q86 0 152.5 53t66.5 137v451h-111q-49 6 -55 55v16q6 50 55 56h197q49 -6 55 -56v-700h111q49 -6 55 -55v-17q-6 -49 -55 -55h-197q-49 6 -55 55v17q-105 -84 -244 -84q-127 0 -204.5 55t-77.5 178 v535h-111q-49 6 -55 55z" />
<glyph unicode="v" d="M47 811v16q10 50 55 56h291q48 -6 56 -56v-16q-8 -49 -56 -55h-78l211 -637l211 637h-78q-49 6 -55 55v16q6 50 55 56h291q45 -6 56 -56v-16q-11 -49 -56 -55h-84l-233 -707q-9 -26 -31.5 -42.5t-50.5 -16.5h-49q-28 0 -50.5 16.5t-31.5 42.5l-234 707h-84q-46 6 -55 55z " />
<glyph unicode="w" d="M31 811v16q10 50 55 56h295q49 -6 55 -56v-16q-6 -49 -55 -55h-125q100 -571 100 -615q1 20 13.5 71t31 116.5t39.5 142.5q19 59 80 59h17q27 0 49.5 -17t29.5 -42q80 -281 80 -330q1 19 9.5 75.5t25 156.5t30.5 179t36 204h-125q-48 6 -56 55v16q8 50 56 56h295 q45 -6 55 -56v-16q-9 -49 -55 -55h-45l-125 -707q-4 -25 -23.5 -42t-46.5 -17h-39q-28 0 -50.5 17t-29.5 42q-80 274 -80 340q-2 -35 -13 -83t-32.5 -129t-33.5 -128q-7 -25 -29.5 -42t-50.5 -17h-43q-25 0 -45.5 17t-24.5 42l-125 707h-45q-45 6 -55 55z" />
<glyph unicode="x" d="M57 55v17q7 49 56 55h102l246 328l-234 301h-104q-45 6 -55 55v16q10 50 55 56h291q49 -6 55 -56v-16q-6 -49 -55 -55h-37l143 -195l142 195h-41q-50 6 -56 55v16q6 50 56 56h290q50 -6 56 -56v-16q-6 -49 -56 -55h-102l-227 -301l254 -328h104q45 -6 55 -55v-17 q-10 -49 -55 -55h-291q-49 6 -55 55v17q6 49 55 55h43l-172 244l-164 -244h45q50 -6 56 -55v-17q-6 -49 -56 -55h-288q-50 6 -56 55z" />
<glyph unicode="y" d="M53 811v16q6 50 56 56h288q50 -6 56 -56v-16q-6 -49 -56 -55h-73q39 -99 76.5 -199t67 -179t53.5 -149.5t24 -87.5q1 23 63 218.5t129 396.5h-78q-49 6 -55 55v16q6 50 55 56h289q48 -6 56 -56v-16q-8 -49 -56 -55h-82l-307 -920q-17 -52 -44 -104.5t-66 -98.5t-89 -73 t-108 -27q-66 0 -116 50t-50 116q0 37 24.5 60.5t61.5 23.5q36 0 60 -24t24 -60q0 -26 -8 -39h4q66 0 110.5 52.5t67.5 123.5l53 164l-290 756h-84q-50 6 -56 55z" />
<glyph unicode="z" d="M66 59v25q0 28 18 43l651 629h-495v-76q-6 -49 -56 -55h-30q-50 6 -56 55v147q6 50 56 56h735q24 0 41.5 -16.5t17.5 -43.5v-24q0 -28 -18 -43l-651 -629h534v98q6 48 55 56h31q49 -8 55 -56v-170q-6 -49 -55 -55h-774q-23 0 -41 18t-18 41z" />
<glyph unicode="{" d="M113 610v31q6 40 49 49q112 0 203.5 25.5t91.5 107.5v367q0 71 40.5 118.5t101.5 72t128.5 32.5t134.5 8h31q41 -6 47 -47v-31q-6 -43 -47 -49q-116 0 -205.5 -20t-89.5 -92v-367q0 -63 -35 -110t-96 -78q59 -30 95 -79.5t36 -111.5v-366q0 -113 295 -113q41 -6 47 -49 v-31q-6 -41 -47 -47h-31q-97 0 -186 18t-154 69.5t-65 143.5v367q0 81 -91.5 108t-203.5 27q-43 6 -49 47z" />
<glyph unicode="|" d="M461 -109v1469q9 52 61 61h10q53 -9 62 -61v-1469q-9 -52 -62 -61h-10q-52 9 -61 61z" />
<glyph unicode="}" d="M113 -92q6 43 49 49q295 0 295 113v366q0 63 36.5 113t94.5 78q-60 29 -95.5 77.5t-35.5 110.5v367q0 72 -90 92t-205 20q-43 6 -49 49v31q6 41 49 47h31q96 0 186 -18t154.5 -69t64.5 -144v-367q0 -133 295 -133q41 -9 47 -49v-31q-6 -41 -47 -47q-295 0 -295 -135v-367 q0 -92 -65.5 -143.5t-154.5 -69.5t-185 -18h-31q-43 6 -49 47v31z" />
<glyph unicode="~" d="M176 1069q0 31 48.5 74t112.5 75.5t97 32.5q46 0 75.5 -21.5t63 -56t50.5 -34.5q24 0 46.5 14t54.5 42t51.5 42t35.5 14q27 0 46.5 -19.5t19.5 -45.5q0 -31 -49 -75t-113 -75.5t-97 -31.5q-44 0 -73.5 21t-63.5 56t-51 35q-23 0 -48 -15.5t-56.5 -43.5t-48.5 -40.5 t-35 -12.5q-25 0 -45.5 19.5t-20.5 45.5z" />
<glyph unicode="&#xa1;" d="M66 55v17q6 49 55 55h96v997h-96q-49 6 -55 56v16q6 49 55 55h805q49 -6 55 -55v-201q-6 -49 -55 -55h-31q-49 6 -55 55v129h-482v-997h134q49 -6 55 -55v-17q-6 -49 -55 -55h-371q-49 6 -55 55z" />
<glyph unicode="&#xa2;" d="M68 45q1 4 1.5 7t0.5 7l350 1162q8 26 30 42.5t50 16.5h53q28 0 50 -16.5t30 -42.5l350 -1162q1 -3 1.5 -5.5t0.5 -8.5q0 -20 -14.5 -32.5t-32.5 -12.5h-823q-18 0 -32.5 13.5t-14.5 31.5zM242 139h569q-283 941 -285 971q0 -11 -34 -130t-78 -267.5t-84.5 -284 t-87.5 -289.5z" />
<glyph unicode="&#xa3;" d="M113 627q0 204 11 339.5t54 204.5q46 69 134.5 87t213.5 18q126 0 215 -18t133 -87q44 -68 55 -204t11 -340q0 -206 -11 -342.5t-55.5 -205t-133 -86.5t-214.5 -18q-125 0 -213 18t-135 87q-22 35 -36.5 98t-20 136t-7 144t-1.5 169zM254 627q0 -166 7.5 -276.5 t35.5 -164.5q29 -54 88 -69t141 -15q83 0 142.5 15t87.5 69q27 51 35 163t8 278q0 105 -2.5 182.5t-11.5 147t-29 108.5q-28 54 -85.5 69t-144.5 15q-56 0 -95.5 -4.5t-76.5 -23t-57 -56.5q-13 -26 -23 -76t-14.5 -124t-5 -116.5t-0.5 -121.5zM332 549v156q6 46 55 55h31 q25 -4 40 -21.5t15 -42.5h107q0 24 15.5 41.5t39.5 22.5h31q49 -10 55 -55v-156q-6 -48 -55 -55h-31q-25 3 -40 20.5t-15 42.5h-107q0 -26 -15.5 -43t-39.5 -20h-31q-49 6 -55 55z" />
<glyph unicode="&#xa4;" d="M59 55v17q6 49 56 55h55l250 1094q6 26 28 42.5t48 16.5h61q28 0 49 -16.5t27 -42.5l250 -1094h55q49 -6 55 -55v-17q-6 -49 -55 -55h-266q-48 6 -56 55v17q8 49 56 55h65q-30 132 -66 292.5t-61 272t-53.5 253t-30.5 165.5q0 -43 -57.5 -304t-153.5 -679h66 q49 -6 55 -55v-17q-6 -49 -55 -55h-266q-50 6 -56 55z" />
<glyph unicode="&#xa5;" d="M66 55v103q6 49 55 55h31q49 -6 55 -55v-37h639v37q6 49 55 55h31q49 -6 55 -55v-103q-6 -49 -55 -55h-811q-49 6 -55 55zM74 1104v92q6 49 55 55h795q49 -6 55 -55v-92q-6 -49 -55 -55h-31q-49 6 -55 55v26h-623v-26q-6 -49 -55 -55h-31q-49 6 -55 55zM219 575v150 q6 49 55 55h31q49 -6 55 -55v-14h332v14q6 49 56 55h30q48 -6 56 -55v-150q-8 -49 -56 -55h-30q-50 6 -56 55v15h-332v-15q-6 -49 -55 -55h-31q-49 6 -55 55z" />
<glyph unicode="&#xa6;" d="M45 55v17q7 49 55 55h72v997h-72q-49 6 -55 56v16q6 49 55 55h854q47 -6 56 -55v-16q-10 -50 -56 -56h-73v-997h73q46 -6 56 -55v-17q-10 -49 -56 -55h-286q-50 6 -56 55v17q7 49 56 55h71v997h-426v-997h74q45 -6 55 -55v-17q-10 -49 -55 -55h-287q-49 6 -55 55z" />
<glyph unicode="&#xa7;" d="M82 59q0 15 6 27l309 539l-309 532q-6 9 -6 23v16q6 49 55 55h778q50 -6 56 -55v-201q-6 -49 -56 -55h-30q-48 6 -56 55v129h-559l275 -471q6 -12 6 -26q0 -18 -6 -27l-269 -469h553v129q8 49 56 55h30q50 -6 56 -55v-205q-6 -49 -56 -55h-778q-23 3 -39 19t-16 40z" />
<glyph unicode="&#xa8;" d="M76 1001q0 106 65 190.5t168 84.5q107 0 154 -85t63 -212q40 297 217 297q70 0 123 -40t82 -104t29 -131q0 -24 -17.5 -41.5t-41.5 -17.5h-23q-23 0 -41 18t-18 41q0 64 -20 116t-73 52q-64 0 -97 -101.5t-40.5 -216.5t-7.5 -220v-504h94q45 -6 56 -55v-17 q-11 -49 -56 -55h-330q-45 6 -55 55v17q10 49 55 55h95v504q0 106 -7.5 220t-41 216t-99.5 102q-53 0 -72.5 -52t-19.5 -116q0 -24 -17.5 -41.5t-41.5 -17.5h-23q-23 0 -41 18t-18 41z" />
<glyph unicode="&#xa9;" d="M82 627q0 86 58 153t144.5 104.5t172.5 47.5v192h-105q-49 6 -55 56v16q6 49 55 55h350q50 -6 56 -55v-16q-6 -50 -56 -56h-104v-192q86 -10 172 -47.5t143.5 -103.5t57.5 -154q0 -89 -57.5 -156t-143.5 -104.5t-172 -47.5v-192h104q50 -6 56 -55v-17q-6 -49 -56 -55 h-350q-49 6 -55 55v17q6 49 55 55h105v192q-86 10 -172.5 47.5t-144.5 105.5t-58 155zM223 627q0 -74 74 -121t160 -60v359q-84 -11 -159 -57.5t-75 -120.5zM598 446q53 9 105.5 31.5t89 60.5t36.5 89q0 49 -36.5 87t-89.5 60t-105 31v-359z" />
<glyph unicode="&#xaa;" d="M76 915v17q6 49 55 55h31q135 0 135 -231q0 -256 160 -303v671h-95q-45 6 -55 56v16q9 48 55 55h330q45 -6 56 -55v-16q-11 -50 -56 -56h-94v-671q62 19 97 66t48 107.5t13 129.5q0 231 135 231h31q49 -6 55 -55v-17q-6 -49 -55 -55q-16 0 -20.5 -37.5t-4.5 -74.5 q0 -106 -31 -195.5t-98.5 -151.5t-169.5 -79v-195h94q45 -6 56 -55v-17q-11 -49 -56 -55h-330q-45 6 -55 55v17q10 49 55 55h95v195q-152 26 -226.5 145t-74.5 281q0 37 -4.5 74.5t-20.5 37.5q-49 6 -55 55z" />
<glyph unicode="&#xad;" d="M66 55v109q6 49 55 55h12q49 -6 55 -55v-37h115q-9 78 -38.5 151t-81.5 188.5t-76.5 196.5t-24.5 171q0 120 60 221.5t162.5 161t221.5 59.5t222 -59.5t163 -161t60 -221.5q0 -92 -26.5 -177.5t-80 -201t-79.5 -183.5t-35 -145h114v37q6 49 56 55h12q49 -6 55 -55v-109 q-6 -49 -55 -55h-258q-25 3 -40.5 20.5t-15.5 42.5q0 95 27 183t78 208.5t78.5 206t27.5 173.5q0 80 -40.5 153.5t-110.5 117.5t-152 44t-152 -44t-110.5 -117.5t-40.5 -153.5q0 -88 26 -168.5t77.5 -202.5t79.5 -213.5t28 -186.5q0 -26 -15.5 -43t-39.5 -20h-258 q-49 6 -55 55z" />
<glyph unicode="&#xae;" d="M117 881v22q7 44 47 53q72 13 132.5 48t106 90.5t72.5 124.5q18 32 53 32q31 0 54 -32q42 -107 120 -174.5t189 -88.5q40 -9 47 -53v-22q-3 -22 -19 -39t-40 -17q-60 0 -147 45t-138 93v-900q-3 -29 -22.5 -46t-47.5 -17q-53 6 -63 61v902q-50 -46 -137.5 -92t-147.5 -46 q-24 0 -40 17t-19 39z" />
<glyph unicode="&#xaf;" d="M117 348v23q3 23 19 39t40 16q60 0 147 -44.5t138 -92.5v901q3 29 22.5 45t48.5 16q53 -6 62 -61v-901q28 27 81 60t108 55t96 22q24 0 40 -16t19 -39v-23q-7 -44 -47 -53q-72 -13 -132.5 -48t-104 -88t-72.5 -126q-23 -33 -54 -33q-36 0 -53 33q-28 71 -73 125 t-105.5 89t-132.5 48q-40 9 -47 53z" />
<glyph unicode="&#xb0;" d="M440 1178q0 39 24 65.5t62 26.5q39 0 63.5 -26.5t24.5 -65.5l-24 -453q-6 -45 -55 -55h-17q-49 10 -55 55z" />
<glyph unicode="&#xb1;" d="M430 -381l21 768q6 41 47 47h57q40 -6 49 -47l19 -766q0 -41 -27.5 -70.5t-69.5 -29.5q-40 0 -68 29t-28 69zM430 700q0 39 29 68t67 29q39 0 68 -29t29 -68q0 -38 -29 -67t-68 -29q-38 0 -67 29t-29 67z" />
<glyph unicode="&#xb2;" d="M125 -207q0 75 33.5 118t110 109t114 126t37.5 161v80q6 41 47 47h57q40 -6 49 -47v-88q0 -71 -26 -138.5t-70 -127.5q-52 -67 -123 -119q-19 -15 -35.5 -27.5t-27.5 -24.5t-19 -34q-6 -15 -6 -35q0 -76 71 -104.5t159 -28.5q82 0 162 17t112 63q-16 26 -16 53 q0 37 25.5 61.5t62.5 24.5q38 0 62 -26.5t24 -63.5q0 -98 -69 -155.5t-167.5 -79t-195.5 -21.5q-95 0 -177.5 24t-138 82t-55.5 154zM399 700q0 39 29 68t68 29q40 0 68 -29t28 -68q0 -38 -28 -67t-68 -29q-39 0 -68 29t-29 67z" />
<glyph unicode="&#xb3;" d="M164 55v17q6 49 55 55h262v629h-245q-50 6 -56 55v16q6 50 56 56h331q48 -6 56 -56v-700h229q49 -6 55 -55v-17q-6 -49 -55 -55h-633q-49 6 -55 55z" />
<glyph unicode="&#xb4;" d="M96 -317q0 39 25.5 65.5t62.5 26.5q35 0 60.5 -25.5t25.5 -62.5q0 -13 -2 -17q45 -10 142 -10q62 0 105 37.5t64 97t21 117.5v844h-276q-50 6 -56 55v16q6 50 56 56h362q49 -6 55 -56v-923q0 -94 -42.5 -179.5t-119 -138.5t-171.5 -53q-132 0 -222 26.5t-90 123.5z" />
<glyph unicode="&#xb5;" d="M233 1184q4 30 23 48.5t51 18.5q25 -5 27 -6l297 -133q33 -20 33 -53q0 -29 -20 -54.5t-48 -25.5q-13 0 -27 6l-297 131q-39 28 -39 68z" />
<glyph unicode="&#xb6;" d="M389 1059q0 34 33 53l295 133q18 6 37 6q31 -3 48 -23t17 -52q-5 -36 -39 -58l-297 -133q-12 -6 -26 -6q-26 0 -47 25.5t-21 54.5z" />
<glyph unicode="&#xb8;" d="M170 1188q0 25 15 42.5t40 20.5h17q49 -6 55 -55q0 -39 225 -39h8q207 0 226 31v8q6 49 55 55h16q56 -6 56 -63q0 -74 -59 -109.5t-132.5 -44t-165.5 -8.5q-66 0 -119 3t-108.5 19t-92 49.5t-36.5 90.5z" />
<glyph unicode="&#xb9;" d="M145 1102v18q8 48 56 56h651q49 -8 55 -56v-18q-6 -49 -55 -55h-651q-48 6 -56 55z" />
<glyph unicode="&#xba;" d="M365 1147q0 58 50.5 90.5t110.5 32.5q61 0 111.5 -32.5t50.5 -90.5t-50.5 -90.5t-111.5 -32.5q-60 0 -110.5 32.5t-50.5 90.5zM446 1147q0 -25 25.5 -42.5t54.5 -17.5q30 0 55 17t25 43q0 28 -24 43.5t-56 15.5q-31 0 -55.5 -16t-24.5 -43z" />
<glyph unicode="&#xbb;" d="M324 -354q6 49 55 55q66 0 139 4.5t137 22t64 53.5q0 42 -46.5 62t-94.5 20q-50 6 -56 55v121q6 49 56 55h30q48 -6 56 -55v-57q53 -11 97.5 -37.5t71.5 -68t27 -95.5q0 -95 -78.5 -140.5t-176.5 -56t-218 -10.5q-54 0 -63 55v17z" />
<glyph unicode="&#xbc;" d="M37 55v17q6 49 55 55h129v629h-129q-49 6 -55 55v16q6 50 55 56h129v164q0 73 59 121.5t144 72t156 23.5q76 0 157.5 -22.5t140 -73.5t58.5 -126t-47 -134.5t-121 -98.5q72 -48 123 -122.5t76.5 -162t25.5 -172.5q0 -75 -28.5 -140t-80.5 -116.5t-119 -79.5t-142 -28 q-73 0 -136 39.5t-63 109.5q0 36 23 60t57 24t57 -23t23 -57q0 -12 -2 -18q19 -8 43 -8q48 0 89.5 19t72.5 52t48 77.5t17 90.5q0 72 -22 143.5t-63.5 130t-102 93.5t-136.5 35q-43 6 -49 49v31q6 41 49 47q51 0 114.5 16.5t108 52t44.5 88.5v9q-5 30 -43.5 49.5t-91 29 t-80.5 9.5q-30 0 -81.5 -10t-92.5 -29t-41 -47q0 -1 -1 -5.5t-2 -7.5v-983q-6 -49 -55 -55h-215q-49 6 -55 55z" />
<glyph unicode="&#xbd;" d="M59 244q0 91 65 149.5t158.5 84.5t182.5 26v86q0 46 -16.5 87.5t-49 69t-77.5 27.5q-46 0 -66 -2q1 -4 1.5 -8t0.5 -12q0 -34 -26 -60t-60 -26q-39 0 -63.5 26.5t-24.5 63.5q0 58 38 89.5t90.5 43.5t111.5 12q69 0 128 -38.5t93 -100.5q92 139 215 139q99 0 155.5 -73 t76.5 -172.5t20 -200.5q0 -25 -15 -43t-41 -21h-366q0 -52 26.5 -118t71 -112t98.5 -46q76 0 105 125q12 37 53 43h12q24 -3 40 -19t16 -41q0 -54 -34.5 -110t-88.5 -90.5t-109 -34.5q-131 0 -227 137q-38 -65 -114 -101t-160 -36q-66 0 -116 36.5t-77 96t-27 123.5z M182 244q0 -51 36 -90t87 -39q62 0 111 37.5t49 99.5v129q-91 0 -187 -33.5t-96 -103.5zM592 512h295q0 49 -12.5 109.5t-41.5 106.5t-73 46q-48 0 -85.5 -45.5t-57 -104.5t-25.5 -112z" />
<glyph unicode="&#xbe;" d="M37 444q0 97 31.5 203t98 180t165.5 74q74 0 133.5 -48.5t95.5 -121.5q37 76 91.5 123t125.5 47q138 0 188 -138.5t50 -307.5q0 -57 -55 -64h-334q0 -47 23 -113.5t64 -114.5t91 -48q31 0 46.5 19.5t29 59t27 62.5t40.5 27h13q23 -3 39 -19t16 -41q0 -54 -31 -109 t-81 -90.5t-107 -35.5q-76 0 -136 49.5t-98 124.5q-35 -72 -95.5 -123t-135.5 -51q-99 0 -165.5 73.5t-98 179.5t-31.5 203zM160 459q0 -106 44 -225t128 -119q83 0 126.5 119.5t43.5 224.5q0 57 -18 132t-56.5 129t-95.5 54q-83 0 -127.5 -107t-44.5 -208zM629 512h262 q0 42 -11.5 105.5t-37 110t-64.5 46.5q-40 0 -74.5 -47t-54.5 -110.5t-20 -104.5z" />
<glyph unicode="&#xbf;" d="M82 -225q0 14 6 26l164 285q-79 64 -123.5 158t-44.5 198q0 121 58.5 227t160.5 169t223 63q90 0 168 -35l160 277q16 28 49 28q27 0 47.5 -18.5t20.5 -44.5q0 -13 -6 -27l-162 -282q80 -65 123 -159.5t43 -197.5q0 -122 -58.5 -225.5t-160.5 -166t-224 -62.5 q-83 0 -166 32l-161 -280q-17 -29 -49 -29q-26 0 -47 19t-21 45zM207 442q0 -68 27.5 -131.5t78.5 -113.5l320 559q-52 18 -107 18q-88 0 -161.5 -46.5t-115.5 -122.5t-42 -163zM424 133q49 -18 102 -18q84 0 158.5 44.5t118 120t43.5 162.5q0 69 -28 134.5t-79 111.5z" />
<glyph unicode="&#xc0;" d="M45 55v17q10 49 55 55h41l199 997h-18q-50 6 -56 56v16q6 49 56 55h610q49 -6 55 -55v-201q-6 -49 -55 -55h-12q-50 6 -56 55v129h-211v-411h246q49 -6 55 -56v-16q-6 -49 -55 -55h-246v-459h228v160q6 49 55 55h12q48 -6 56 -55v-232q-8 -49 -56 -55h-440q-49 6 -55 55 v17q6 49 55 55h22v246h-215l-49 -246h35q49 -6 55 -55v-17q-6 -49 -55 -55h-201q-45 6 -55 55zM342 500h188v624h-63z" />
<glyph unicode="&#xc1;" d="M59 627q0 131 2.5 224.5t15 183.5t38.5 136q37 70 110.5 87.5t184.5 17.5q33 0 90 -12.5t88 -12.5h350q49 -6 55 -55v-201q-6 -49 -55 -55h-12q-50 6 -56 55v129h-221v-411h260q50 -6 56 -56v-16q-6 -49 -56 -55h-260v-459h238v160q6 49 55 55h12q50 -6 56 -55v-232 q-6 -49 -56 -55h-366q-35 0 -92 -12.5t-86 -12.5q-111 0 -184 17.5t-111 87.5q-19 35 -30.5 95t-17 140t-7 147t-1.5 165zM182 651q0 -375 37 -461q20 -49 73.5 -68.5t117.5 -19.5q31 0 58.5 15t37.5 43q13 36 16.5 99.5t3.5 158.5v416q0 95 -3.5 158.5t-16.5 99.5 q-10 27 -37.5 42t-58.5 15q-157 0 -191 -80q-37 -78 -37 -418z" />
<glyph unicode="&#xc2;" d="M113 627q0 204 11 339.5t54 204.5q46 69 134.5 87t213.5 18q88 0 131 -4l35 117q17 38 56 38q28 0 47.5 -18t19.5 -45q0 -10 -2 -14l-31 -103q61 -26 92 -76q44 -68 55 -204t11 -340q0 -206 -11 -342.5t-55.5 -205t-133 -86.5t-214.5 -18q-88 0 -131 5l-35 -117 q-17 -39 -55 -39q-26 0 -46.5 18t-20.5 45q0 11 2 15l30 102q-59 25 -92 76q-22 35 -36.5 98t-20 136t-7 144t-1.5 169zM236 627q0 -95 3.5 -182t20.5 -175.5t53 -122.5l305 998q-30 4 -92 4q-91 0 -151 -14.5t-92 -69.5q-21 -36 -31.5 -108.5t-13 -148.5t-2.5 -181z M434 106q31 -4 92 -4q91 0 152 14t92 70q21 36 31.5 108.5t13 149t2.5 183.5q0 156 -13.5 292t-64.5 185z" />
<glyph unicode="&#xc3;" d="M88 -227v678q0 21 13 34t34 13q20 0 32.5 -13.5t12.5 -33.5v-631h692v631q0 21 14 34t34 13q13 0 23 -6t16 -16.5t6 -24.5v-678q0 -20 -13.5 -32.5t-31.5 -12.5h-785q-20 0 -33.5 12.5t-13.5 32.5z" />
<glyph unicode="&#xc4;" d="M225 1157q0 41 29.5 68.5t67.5 27.5q40 0 68 -28t28 -68q0 -38 -28 -67t-68 -29q-38 0 -67.5 28.5t-29.5 67.5zM635 1157q0 40 29 68t67 28q39 0 67.5 -27.5t28.5 -68.5q0 -39 -28.5 -67.5t-67.5 -28.5q-38 0 -67 29t-29 67z" />
<glyph unicode="&#x2000;" horiz-adv-x="713" />
<glyph unicode="&#x2001;" horiz-adv-x="1427" />
<glyph unicode="&#x2002;" horiz-adv-x="713" />
<glyph unicode="&#x2003;" horiz-adv-x="1427" />
<glyph unicode="&#x2004;" horiz-adv-x="475" />
<glyph unicode="&#x2005;" horiz-adv-x="356" />
<glyph unicode="&#x2006;" horiz-adv-x="237" />
<glyph unicode="&#x2007;" horiz-adv-x="237" />
<glyph unicode="&#x2008;" horiz-adv-x="178" />
<glyph unicode="&#x2009;" horiz-adv-x="285" />
<glyph unicode="&#x200a;" horiz-adv-x="79" />
<glyph unicode="&#x2010;" d="M113 621v10q9 52 61 61h705q52 -9 61 -61v-10q-9 -53 -61 -62h-705q-52 9 -61 62z" />
<glyph unicode="&#x2011;" d="M113 621v10q9 52 61 61h705q52 -9 61 -61v-10q-9 -53 -61 -62h-705q-52 9 -61 62z" />
<glyph unicode="&#x2012;" d="M113 621v10q9 52 61 61h705q52 -9 61 -61v-10q-9 -53 -61 -62h-705q-52 9 -61 62z" />
<glyph unicode="&#x2013;" horiz-adv-x="1250" d="M113 621v10q11 52 76 61h872q65 -9 76 -61v-10q-11 -53 -76 -62h-872q-65 9 -76 62z" />
<glyph unicode="&#x2014;" horiz-adv-x="2274" d="M113 621v10q22 52 151 61h1746q129 -9 151 -61v-10q-22 -53 -151 -62h-1746q-129 9 -151 62z" />
<glyph unicode="&#x202f;" horiz-adv-x="285" />
<glyph unicode="&#x205f;" horiz-adv-x="356" />
<glyph unicode="&#x2219;" d="M201 1090q0 28 19.5 53.5t47.5 25.5q15 0 23 -4l235 -98l232 96q12 6 26 6q30 0 49 -25t19 -54q0 -34 -33 -54l-270 -104h-43l-268 102q-37 13 -37 56z" />
<glyph unicode="&#xe000;" horiz-adv-x="885" d="M0 885h885v-885h-885v885z" />
</font>
</defs>
</svg>
