<?xml version="1.0" standalone="no"?>
<!DOCTYPE svg PUBLIC "-//W3C//DTD SVG 1.1//EN" "http://www.w3.org/Graphics/SVG/1.1/DTD/svg11.dtd" >
<svg xmlns="http://www.w3.org/2000/svg">
<metadata>
This is a custom SVG webfont generated by Font Squirrel.
Copyright   : Copyright C 1994 1995 Basil K Malyshev All Rights Reserved012BaKoMa Fonts Collection LevelC
</metadata>
<defs>
<font id="euex7Regular" horiz-adv-x="2300" >
<font-face units-per-em="2048" ascent="1638" descent="-410" />
<missing-glyph horiz-adv-x="500" />
<glyph unicode=" "  horiz-adv-x="500" />
<glyph unicode="&#x09;" horiz-adv-x="500" />
<glyph unicode="&#xa0;" horiz-adv-x="500" />
<glyph unicode="!" d="M143 512q0 20 15.5 34.5t36.5 14.5h1773q-171 210 -242 461h101q43 -151 126.5 -280t200.5 -230q-79 -68 -142.5 -148.5t-110.5 -173t-74 -190.5h-101q71 251 242 461h-1773q-20 0 -36 15t-16 36z" />
<glyph unicode="&#x22;" horiz-adv-x="1165" d="M78 1030v100q97 26 185 67t172 100t149 124q65 -67 147 -125t170.5 -99t185.5 -67v-100q-251 65 -454 219v-1597q0 -20 -15.5 -34.5t-33.5 -14.5q-19 0 -35.5 14.5t-16.5 34.5v1597q-204 -154 -454 -219z" />
<glyph unicode="#" horiz-adv-x="1165" d="M78 -6q250 -65 454 -219v1597q0 20 15.5 34.5t36.5 14.5q20 0 34.5 -14.5t14.5 -34.5v-1597q203 154 454 219v-100q-97 -26 -185.5 -67t-170.5 -99t-147 -125q-65 65 -149 124t-172 100t-185 67v100z" />
<glyph unicode="$" d="M143 512q76 64 141 145t112.5 174t74.5 191h100q-69 -250 -241 -461h1638q-171 210 -242 461h101q43 -151 126.5 -280t200.5 -230q-79 -68 -142.5 -148.5t-110.5 -173t-74 -190.5h-101q71 251 242 461h-1638q172 -211 241 -461h-100q-27 98 -74 190.5t-112 173.5 t-142 148z" />
<glyph unicode="%" d="M143 -346q0 17 15 35l1824 1644q-268 42 -489 183l76 65q255 -160 557 -160h28q-8 -60 -8 -135q0 -242 107 -465l-74 -67q-117 238 -129 506l-1823 -1645q-15 -12 -32 -12q-20 0 -36 16t-16 35z" />
<glyph unicode="&#x26;" d="M143 1370q0 19 16 35t36 16q17 0 32 -12l1823 -1645q0 117 37 256.5t92 249.5l74 -67q-53 -111 -80 -226.5t-27 -238.5q0 -75 8 -135h-28q-302 0 -557 -160l-76 65q221 141 489 183l-1822 1642q-17 17 -17 37z" />
<glyph unicode="(" d="M143 512q230 103 406 279q195 195 301 456h100q-99 -251 -284 -461h1441q47 -7 47 -49q0 -20 -14 -34t-33 -17h-1540q-105 -96 -227 -174q118 -74 227 -176h1540q47 -7 47 -49q0 -44 -47 -51h-1441q185 -210 284 -461h-100q-48 122 -118.5 231t-161.5 204.5t-201 173.5 t-226 128z" />
<glyph unicode=")" d="M143 287q0 19 13.5 32.5t33.5 16.5h1541q109 102 227 176q-122 78 -227 174h-1541q-20 3 -33.5 16.5t-13.5 34.5q0 42 47 49h1442q-184 206 -284 461h100q106 -261 305 -461q176 -174 401 -274q-114 -50 -225 -128.5t-201.5 -173.5t-160.5 -204t-119 -231h-100 q100 255 284 461h-1442q-20 3 -33.5 16.5t-13.5 34.5z" />
<glyph unicode="*" horiz-adv-x="1544" d="M43 688v100q155 57 293.5 150t249 215.5t186.5 267.5q76 -145 186.5 -267.5t249 -215.5t293.5 -150v-100q-249 90 -452 258v-1296q-3 -19 -18 -33t-34 -14t-33.5 14t-15.5 33v1386q-99 95 -176 203q-78 -110 -174 -203v-1386q-3 -20 -17.5 -33.5t-33.5 -13.5t-33.5 14 t-15.5 33v1296q-67 -55 -142 -103t-152 -86t-161 -69z" />
<glyph unicode="+" horiz-adv-x="1544" d="M43 236v100q123 -45 236 -108.5t219 -149.5v1296q1 19 15.5 33t33.5 14t33.5 -13.5t17.5 -33.5v-1386q96 -93 174 -203q77 108 176 203v1386q1 19 15.5 33t33.5 14t34 -14t18 -33v-1296q106 87 216.5 150t235.5 108v-100q-155 -57 -293.5 -150t-249 -215.5t-186.5 -267.5 q-76 145 -186.5 267.5t-249 215.5t-293.5 150z" />
<glyph unicode="," d="M102 512q102 62 191 141t165.5 177.5t132 201.5t91.5 215h100q-24 -75 -62 -158t-84 -161t-95 -142h1216q-75 101 -137 218.5t-104 242.5h100q37 -111 93 -215.5t131.5 -201t164 -176t190.5 -142.5q-135 -84 -248 -197.5t-197.5 -251t-133.5 -288.5h-100q42 124 104 242 t137 219h-1216q49 -64 95 -142t84 -161t62 -158h-100q-49 151 -133.5 288.5t-198 251.5t-248.5 197zM272 512q96 -77 187 -176h1380q84 93 186 176q-101 83 -184 174h-1384q-90 -98 -185 -174z" />
<glyph unicode="-" d="M45 821q107 223 107 465q0 77 -9 135h29q302 0 557 160l76 -65q-223 -141 -490 -183l1823 -1642q16 -16 16 -37t-15 -36t-36 -15q-17 0 -32 12l-1823 1645q0 -83 -17.5 -171t-46.5 -175.5t-65 -159.5z" />
<glyph unicode="." d="M45 203l74 67q57 -115 90 -246t39 -260l1823 1645q15 12 32 12q21 0 36 -15t15 -36q0 -17 -14 -35l-1825 -1644q267 -42 490 -183l-76 -65q-255 160 -557 160h-29q9 58 9 135q0 122 -27 238t-80 227z" />
<glyph unicode="1" d="M143 442q0 122 60 228.5t163 169.5t226 63q98 0 190 -31.5t171 -88.5t143 -132l69 -80q105 148 244 240t301 92q122 0 224.5 -63.5t161 -169.5t58.5 -228q0 -121 -59.5 -228.5t-162 -170.5t-226.5 -63q-98 0 -190 31.5t-170.5 87.5t-143.5 132l-69 80q-65 -93 -150 -169 t-186 -119t-209 -43q-121 0 -224 63t-162 170t-59 229zM236 440q0 -92 40.5 -175.5t114.5 -136t168 -52.5q151 0 277.5 90t220.5 233l-107 125q-58 69 -118.5 123t-131 87.5t-147.5 33.5q-85 0 -159 -45.5t-116 -121.5t-42 -161zM1241 483l107 -125q61 -70 120 -123 t129.5 -86.5t147.5 -33.5q84 0 158.5 45t116.5 120.5t42 161.5q0 92 -41 176t-114.5 136.5t-167.5 52.5q-79 0 -149.5 -25t-133.5 -70t-115.5 -102t-99.5 -127z" />
<glyph unicode="8" horiz-adv-x="2048" d="M913 -934q0 151 47 289.5t134.5 261t201.5 217.5t248 160q4 4 10 4h70q8 0 15.5 -7.5t7.5 -15.5v-69q0 -12 -13 -21q-112 -61 -204 -147.5t-159 -195.5t-102.5 -232t-35.5 -248v-907q0 -8 -6.5 -15.5t-16.5 -7.5h-174q-9 0 -16 7t-7 16v911z" />
<glyph unicode="9" horiz-adv-x="2048" d="M399 -25q0 8 7.5 15.5t15.5 7.5h70q6 0 10 -4q132 -64 249 -161t202.5 -218t132.5 -259.5t47 -289.5v-911q0 -8 -6.5 -15.5t-16.5 -7.5h-174q-9 0 -16 7t-7 16v907q0 130 -35 250.5t-103 230.5t-159.5 196t-203.5 146q-13 9 -13 21v69z" />
<glyph unicode=":" horiz-adv-x="2048" d="M913 2q0 9 7 16t16 7h174q10 0 16.5 -7.5t6.5 -15.5v-909q0 -124 35.5 -246.5t102 -231t159.5 -197t204 -149.5q13 -4 13 -18v-70q0 -7 -7.5 -14.5t-15.5 -7.5h-70q-2 1 -4.5 1.5t-5.5 0.5q-137 68 -248.5 161.5t-200 216.5t-135.5 261.5t-47 288.5v913z" />
<glyph unicode=";" horiz-adv-x="2048" d="M399 -1749q0 14 13 18q125 71 227 172q131 132 202.5 300.5t71.5 351.5v909q0 9 7 16t16 7h174q10 0 16.5 -7.5t6.5 -15.5v-913q0 -150 -47 -288.5t-134 -260t-201 -217t-249 -162.5q-3 0 -5 -0.5t-5 -1.5h-70q-8 0 -15.5 7.5t-7.5 14.5v70z" />
<glyph unicode="&#x3c;" horiz-adv-x="2048" d="M399 -1808q0 14 13 18q115 69 209 168t158.5 217t99 251t34.5 267v889q0 9 7 16t16 7h174q10 0 16.5 -7.5t6.5 -15.5v-893q0 -196 -75 -378t-209 -329.5t-306 -244.5q172 -97 306.5 -245.5t209 -330t74.5 -377.5v-892q0 -7 -7 -15t-16 -8h-174q-8 0 -15.5 7.5t-7.5 15.5 v888q0 135 -34.5 268.5t-99 250.5t-159 217t-208.5 166q-13 9 -13 20v70z" />
<glyph unicode="=" horiz-adv-x="2048" d="M913 2q0 9 7 16t16 7h174q10 0 16.5 -7.5t6.5 -15.5v-889q0 -179 60 -352.5t174 -316.5t267 -234q13 -4 13 -18v-70q0 -11 -13 -20q-114 -67 -208 -166t-159 -216.5t-99.5 -251t-34.5 -268.5v-888q0 -7 -7 -15t-16 -8h-174q-8 0 -15.5 7.5t-7.5 15.5v892 q0 196 74.5 377.5t209 330t306.5 245.5q-172 97 -306 244.5t-209 329.5t-75 378v893z" />
<glyph unicode="&#x3e;" horiz-adv-x="2048" d="M913 2q0 9 7 16t16 7h174q10 0 16.5 -7.5t6.5 -15.5v-618q0 -7 -7 -15t-16 -8h-174q-8 0 -15.5 7.5t-7.5 15.5v618z" />
<glyph unicode="H" horiz-adv-x="1229" d="M125 -2075q0 50 31.5 85.5t81.5 35.5q51 0 90 -35t39 -86q0 -68 -50 -104q34 -31 76 -31q77 0 114.5 80t46.5 176.5t9 204.5v193q-145 27 -243.5 148.5t-98.5 268.5q0 75 26 144t71.5 125.5t108 96t134.5 54.5q0 185 17 333t90.5 267t226.5 119q67 0 128.5 -20t100.5 -66 t39 -115q0 -50 -30.5 -85.5t-81.5 -35.5q-52 0 -90.5 34.5t-38.5 86.5q0 70 49 105q-35 30 -76 30q-103 0 -131.5 -140.5t-28.5 -319.5v-193q98 -21 175.5 -82t122 -149.5t44.5 -188.5q0 -73 -25 -141t-71.5 -125.5t-108 -95.5t-135.5 -55q0 -166 -9 -285t-42 -209 q-39 -101 -113 -163t-178 -62q-110 0 -190 50t-80 150zM322 -1139q0 -107 67 -195t172 -118q0 59 -0.5 99t-1 81.5t-0.5 114.5q1 84 1.5 153.5t0.5 180.5q-103 -28 -171 -117.5t-68 -198.5zM737 -823q0 -90 2 -138v-157v-23q0 -219 -2 -311q106 30 173 118t67 195 q0 110 -67.5 198.5t-172.5 117.5z" />
<glyph unicode="I" horiz-adv-x="1038" d="M45 -2275q0 110 38 212.5t108 185t165.5 137.5t204.5 73q0 466 8 739q6 201 15.5 333t31.5 243q20 95 50 169.5t86.5 128.5t140.5 54q113 0 204 -51.5t91 -157.5q0 -37 -22.5 -64.5t-61.5 -27.5t-73 27.5t-34 64.5q0 41 23 68q-17 31 -51 53t-70 22q-51 0 -83 -133 t-45 -314.5t-17 -335.5t-4 -275q0 -90 1 -146.5t2 -134t2 -146t1 -116.5q146 -22 266 -109t188 -219.5t68 -279.5t-66.5 -277.5t-184 -218.5t-265.5 -113q0 -466 -8 -739q-6 -191 -14.5 -314t-30.5 -239q-79 -375 -312 -375q-113 0 -204 52t-91 155q0 39 23.5 66.5 t60.5 27.5q27 0 52 -12.5t40 -33.5t15 -48q0 -41 -23 -65q20 -33 52.5 -54.5t68.5 -21.5q64 0 102 130.5t54.5 306.5t21 336t4.5 286q0 120 -1 179.5t-2 149t-3 213.5q-146 22 -266.5 110t-188 220t-67.5 279zM145 -2275q0 -183 120.5 -327.5t299.5 -180.5q-4 302 -4 506 v321v187q-119 -24 -214 -98t-148.5 -182.5t-53.5 -225.5zM758 -1767q4 -304 4 -506v-322v-186q118 24 213 97.5t149 182t54 226.5q0 119 -55 227.5t-151 182.5t-214 98z" />
<glyph unicode="P" horiz-adv-x="2425" d="M143 -2015q0 12 9 20l798 961l-649 880q-8 8 -8 17v106q0 10 9.5 20.5t21.5 10.5h1736l-30 -166h-1479l588 -797q6 -9 6 -20q0 -10 -6 -21l-688 -825h1767l-31 -219h-2013q-14 0 -22.5 9.5t-8.5 23.5z" />
<glyph unicode="Q" horiz-adv-x="2425" d="M174 0h2077v-100q-211 0 -211 -138v-1572q0 -138 211 -138v-100h-641v100q211 0 211 138v1710h-1217v-1710q0 -138 211 -138v-100h-641v100q211 0 211 138v1572q0 138 -211 138v100z" />
<glyph unicode="R" horiz-adv-x="1229" d="M125 -2075q0 50 31.5 85.5t81.5 35.5q51 0 90 -35t39 -86q0 -68 -50 -104q34 -31 76 -31q77 0 114.5 80t46.5 176.5t9 204.5q0 182 -2 276q0 96 -0.5 164t-1.5 152q0 112 4 342q1 86 1.5 157.5t0.5 184.5q0 111 33.5 219t107 181t187.5 73q68 0 130 -20t101 -66t39 -115 q0 -50 -30.5 -85.5t-81.5 -35.5q-52 0 -90.5 34.5t-38.5 86.5q0 70 49 105q-35 30 -76 30q-103 0 -131.5 -140.5t-28.5 -319.5q1 -69 1.5 -126.5t0.5 -150.5q2 -92 2 -315v-23q0 -248 -2 -350q0 -91 -4 -311q0 -112 -35.5 -220t-112.5 -180.5t-190 -72.5q-110 0 -190 50 t-80 150z" />
<glyph unicode="X" horiz-adv-x="3308" d="M143 -2834q0 12 9 20l1155 1333l-904 1311q-8 8 -8 16v123q0 10 9.5 20.5t21.5 10.5h2390l-31 -182h-2019l811 -1174q6 -9 6 -20q0 -12 -6 -21l-1053 -1214h2577l-33 -256h-2894q-14 0 -22.5 9.5t-8.5 23.5z" />
<glyph unicode="Y" horiz-adv-x="3232" d="M143 0h2943v-125q-338 0 -338 -205v-2207q0 -205 338 -205v-125h-993v125q338 0 338 205v2412h-1632v-2412q0 -205 338 -205v-125h-994v125q338 0 338 205v2207q0 205 -338 205v125z" />
<glyph unicode="Z" horiz-adv-x="1038" d="M102 -4344q0 39 23.5 66.5t60.5 27.5q27 0 52 -12.5t40 -33.5t15 -48q0 -41 -23 -65q20 -33 52.5 -54.5t68.5 -21.5q64 0 102 130.5t54.5 306.5t21 336t4.5 286q0 89 -2 264t-4 285t-4 292t-2 308v321q0 195 0.5 409.5t3.5 400t4 218.5q6 201 15.5 333t31.5 243 q20 95 50 169.5t86.5 128.5t140.5 54q113 0 204 -51.5t91 -157.5q0 -37 -22.5 -64.5t-61.5 -27.5t-73 27.5t-34 64.5q0 41 23 68q-17 31 -51 53t-70 22q-51 0 -83 -133t-45 -314.5t-17 -335.5t-4 -275q0 -89 2 -239t4 -268.5t4 -317t2 -324.5v-322q0 -397 -1.5 -622 t-6.5 -406q-6 -191 -14.5 -314t-30.5 -239q-79 -375 -312 -375q-113 0 -204 52t-91 155z" />
<glyph unicode="`" horiz-adv-x="2425" d="M174 0h641v-100q-211 0 -211 -138v-1710h1217v1710q0 138 -211 138v100h641v-100q-211 0 -211 -138v-1572q0 -138 211 -138v-100h-2077v100q211 0 211 138v1572q0 138 -211 138v100z" />
<glyph unicode="a" horiz-adv-x="3232" d="M143 0h994v-125q-139 0 -238.5 -43t-99.5 -162v-2412h1632v2412q0 120 -99.5 162.5t-238.5 42.5v125h993v-125q-338 0 -338 -205v-2207q0 -205 338 -205v-125h-2943v125q338 0 338 205v2207q0 205 -338 205v125z" />
<glyph unicode="l" horiz-adv-x="1165" d="M78 -162q250 -65 454 -219v1786q-204 -154 -454 -219v100q287 73 506 291q65 -67 148.5 -126t170.5 -100t184 -65v-100q-251 65 -454 219v-1786q203 154 454 219v-100q-97 -24 -184 -65t-170.5 -100t-148.5 -126q-219 218 -506 291v100z" />
<glyph unicode="m" horiz-adv-x="1544" d="M43 -35v101q246 -75 455 -220v1332q-209 -145 -455 -220v101q114 34 213 83t194.5 115.5t176 147.5t145.5 172q70 -96 149 -174.5t172 -144t193.5 -115.5t214.5 -84v-101q-250 77 -452 220v-1332q65 46 141 88t152 74t159 58v-101q-106 -30 -210.5 -81t-196.5 -117 t-172.5 -145.5t-149.5 -174.5q-2 4 -8.5 14.5t-12 18.5t-8.5 8q-88 111 -199.5 205.5t-239.5 163t-261 108.5zM598 -229q106 -91 174 -166q72 80 176 166v1482q-104 86 -176 166q-68 -75 -174 -166v-1482z" />
<glyph unicode="z" horiz-adv-x="952" d="M-41 -422q1 3 1.5 5t0.5 5q74 140 175.5 254t230.5 200t273 131.5t296 45.5q6 0 12 -2.5t10.5 -8t4.5 -11.5v-174q0 -8 -7.5 -15.5t-15.5 -7.5q-178 0 -346.5 -59t-304.5 -173t-217 -270q-8 -12 -21 -12h-69q-7 0 -15 8t-8 14v70z" />
<glyph unicode="{" horiz-adv-x="952" d="M-8 23v174q0 11 8 16.5t18 5.5q152 0 297 -46t272.5 -131t230.5 -200t175 -254q1 -2 1.5 -4.5t0.5 -5.5v-70q0 -6 -7 -14t-15 -8h-70q-14 0 -18 12q-63 120 -157 214t-208.5 158t-242.5 97t-263 33q-6 0 -14 8t-8 15z" />
<glyph unicode="|" horiz-adv-x="952" d="M-41 641v70q0 8 8 15t15 7h69q13 0 21 -12q81 -155 217 -269t304.5 -173.5t346.5 -59.5q9 0 16 -6t7 -16v-174q0 -23 -27 -23q-151 0 -296.5 46t-275.5 133t-229.5 200t-173.5 252q0 3 -0.5 5.5t-1.5 4.5z" />
<glyph unicode="}" horiz-adv-x="952" d="M-8 23v174q0 9 7 15.5t15 6.5q131 0 260 33.5t245 98t210 158.5t156 212q4 12 18 12h70q8 0 15 -7t7 -15v-70q0 -3 -0.5 -5t-1.5 -5q-72 -137 -173.5 -251.5t-230 -201t-274.5 -132.5t-297 -46q-26 0 -26 23z" />
<glyph unicode="&#xa9;" horiz-adv-x="1354" d="M258 -1110q0 18 18 23q316 92 316 274v594q0 234 444 319h37q8 0 15.5 -6.5t7.5 -15.5v-37q0 -15 -17 -21q-138 -37 -227.5 -90t-89.5 -153v-594q0 -86 -52.5 -148t-128 -98.5t-169.5 -64.5q147 -41 248.5 -113.5t101.5 -196.5v-594q0 -69 49.5 -118t112.5 -74.5 t155 -50.5q17 -4 17 -21v-37q0 -7 -7.5 -14.5t-15.5 -7.5h-37q-444 87 -444 319v594q0 180 -316 275q-18 4 -18 20v37z" />
<glyph unicode="&#xaa;" horiz-adv-x="1354" d="M258 41v37q0 8 8 15t15 7h36q445 -85 445 -319v-594q0 -182 317 -274q17 -6 17 -23v-37q0 -6 -5.5 -12t-11.5 -8q-317 -94 -317 -275v-594q0 -232 -445 -319h-36q-7 0 -15 8t-8 14v37q0 17 18 21q89 25 153 51t113.5 74.5t49.5 117.5v594q0 86 52.5 148t130 99.5 t167.5 62.5q-153 47 -251.5 117t-98.5 194v594q0 100 -90 153.5t-226 89.5q-18 5 -18 21z" />
<glyph unicode="&#xad;" horiz-adv-x="1544" d="M283 -1714q0 16 18 20q72 28 139.5 68.5t123 95t87 120t31.5 144.5v895q0 94 48 175.5t128 142.5q32 23 97 59t126.5 61t100.5 33h55q8 0 15.5 -6.5t7.5 -15.5v-55q0 -17 -17 -21q-102 -35 -185.5 -83.5t-140.5 -123t-57 -170.5v-895q0 -114 -61 -206.5t-156.5 -156.5 t-210.5 -110q81 -30 156 -73t137.5 -102t98.5 -133.5t36 -162.5v-895q0 -138 111.5 -230t271.5 -147q17 -4 17 -20v-55q0 -8 -7.5 -15.5t-15.5 -7.5h-55q-63 13 -163.5 61.5t-160.5 92.5q-52 40 -91.5 89t-62 106t-22.5 122v895q0 104 -55 187t-143 142t-189 99 q-12 8 -12 21v55z" />
<glyph unicode="&#xae;" horiz-adv-x="1544" d="M283 23v55q0 8 8 15t14 7h55q42 -8 102 -33t122 -58.5t100 -61.5q79 -60 127.5 -142.5t48.5 -175.5v-895q0 -149 110.5 -256t276.5 -174q3 -1 8 -8t5 -10v-55q0 -14 -17 -23q-161 -61 -272 -168.5t-111 -257.5v-895q0 -65 -22.5 -122t-62 -106t-91.5 -89 q-62 -45 -161.5 -93.5t-162.5 -60.5h-55q-6 0 -14 8t-8 15v55q0 16 18 20q96 32 182.5 83t142.5 124.5t56 169.5v895q0 168 123 284.5t307 186.5q-183 72 -306.5 188.5t-123.5 284.5v895q0 96 -56.5 170t-140.5 123.5t-184 83.5q-18 4 -18 21z" />
<glyph unicode="&#xaf;" horiz-adv-x="1733" d="M311 -2327q0 15 13 19q94 41 173 98.5t141.5 131.5t98 163t35.5 189v1202q0 107 47 208t127 181q63 63 188.5 141t202.5 94h60q8 0 15 -7t7 -15v-60q0 -13 -14 -20q-188 -75 -316 -210t-128 -316v-1203q0 -110 -41 -205t-112.5 -174.5t-163 -142t-187.5 -104.5 q136 -60 250 -150.5t184 -213t70 -263.5v-1202q0 -92 36.5 -173.5t100.5 -149t143.5 -117.5t163.5 -84q14 -7 14 -21v-59q0 -7 -7 -15t-15 -8h-60h-4q-151 59 -276 144.5t-205 206.5t-80 272v1202q0 101 -35 189.5t-98 163.5t-143 132.5t-172 96.5q-13 7 -13 20v59z" />
<glyph unicode="&#xb0;" horiz-adv-x="1733" d="M311 18v60q0 9 7.5 15.5t15.5 6.5h59h6q154 -61 278.5 -145.5t204 -205t79.5 -273.5v-1202q0 -100 35 -188.5t97.5 -163t142.5 -132.5t171 -98q12 -4 12 -19v-59q0 -12 -12 -20q-89 -38 -170 -96t-144 -133.5t-97.5 -163.5t-34.5 -189v-1202q0 -152 -80 -273t-206 -206 t-276 -144h-6h-59q-8 0 -15.5 7.5t-7.5 15.5v59q0 17 17 21q187 74 315.5 209.5t128.5 314.5v1202q0 108 41.5 206t110.5 175t164 142t188 104q-134 58 -249 149.5t-185 213t-70 263.5v1203q0 93 -37.5 177t-99 149t-140 115t-167.5 85q-17 4 -17 20z" />
<glyph unicode="&#xb1;" horiz-adv-x="1858" d="M338 -2939q0 13 12 21q139 71 248 183t171 253t62 299v1507q0 130 47.5 250t129.5 218.5t187.5 175.5t225.5 130q2 1 4 1.5t7 0.5h65q8 0 15.5 -6.5t7.5 -15.5v-66q0 -11 -13 -20q-135 -63 -244.5 -164t-173 -231t-63.5 -277v-1507q0 -249 -153 -456.5t-392 -328.5 q237 -117 391 -325t154 -457v-1507q0 -147 63 -277t172 -231t246 -166q13 -4 13 -19v-65q0 -9 -7 -16t-16 -7h-65q-3 1 -5.5 1.5t-5.5 0.5q-122 56 -226.5 132t-187 176t-129.5 219.5t-47 247.5v1507q0 156 -62 298t-171 254t-248 183q-12 8 -12 19v65z" />
<glyph unicode="&#xb2;" horiz-adv-x="1858" d="M338 12v66q0 8 8 15t14 7h66q4 0 6 -0.5t4 -1.5q120 -52 226.5 -129.5t188 -175.5t128.5 -217.5t47 -251.5v-1507q0 -154 62 -297t172.5 -256t246.5 -182q13 -9 13 -21v-65q0 -10 -13 -19q-102 -52 -190.5 -129t-153.5 -172t-101 -207t-36 -227v-1507 q0 -131 -46.5 -249.5t-128.5 -218t-187.5 -176t-227.5 -131.5q-2 0 -4.5 -0.5t-5.5 -1.5h-66q-7 0 -14.5 7.5t-7.5 15.5v65q0 15 12 19q137 65 246 166t172 231t63 277v1507q0 124 42 243t116.5 219.5t173.5 181.5t213 138q-118 60 -214 139.5t-171.5 181.5t-117.5 221 t-42 243v1507q0 114 -36.5 214.5t-102 186.5t-155 156t-187.5 115q-12 8 -12 20z" />
<glyph unicode="&#xbb;" d="M143 461v51q131 89 216.5 222t111.5 288h100q-37 -265 -217 -461h1751q21 0 35 -14t14 -35q0 -22 -14.5 -36.5t-34.5 -14.5h-1962z" />
<glyph unicode="&#xbc;" d="M143 512v49h1962q21 0 35 -14t14 -35q0 -22 -14.5 -36.5t-34.5 -14.5h-1751q180 -196 217 -461h-100q-18 102 -62 197.5t-111.5 175t-154.5 139.5z" />
<glyph unicode="&#xbd;" d="M143 512q0 20 15.5 34.5t36.5 14.5h1749q-180 195 -218 461h101q14 -79 40 -147.5t70.5 -139t97.5 -124t119 -99.5v-51h-1959q-20 0 -36 15t-16 36z" />
<glyph unicode="&#xbe;" d="M143 512q0 20 15.5 34.5t36.5 14.5h1959v-49q-129 -87 -214.5 -221.5t-112.5 -290.5h-101q38 266 218 461h-1749q-20 0 -36 15t-16 36z" />
<glyph unicode="&#xc3;" d="M143 512q76 64 141 145t112.5 174t74.5 191h100q-69 -250 -241 -461h1775q21 0 35 -14t14 -35q0 -22 -14.5 -36.5t-34.5 -14.5h-1775q172 -211 241 -461h-100q-27 98 -74 190.5t-112 173.5t-142 148z" />
<glyph unicode="&#x2000;" horiz-adv-x="790" />
<glyph unicode="&#x2001;" horiz-adv-x="1581" />
<glyph unicode="&#x2002;" horiz-adv-x="790" />
<glyph unicode="&#x2003;" horiz-adv-x="1581" />
<glyph unicode="&#x2004;" horiz-adv-x="527" />
<glyph unicode="&#x2005;" horiz-adv-x="395" />
<glyph unicode="&#x2006;" horiz-adv-x="263" />
<glyph unicode="&#x2007;" horiz-adv-x="263" />
<glyph unicode="&#x2008;" horiz-adv-x="197" />
<glyph unicode="&#x2009;" horiz-adv-x="316" />
<glyph unicode="&#x200a;" horiz-adv-x="87" />
<glyph unicode="&#x2010;" d="M45 821q107 223 107 465q0 77 -9 135h29q302 0 557 160l76 -65q-223 -141 -490 -183l1823 -1642q16 -16 16 -37t-15 -36t-36 -15q-17 0 -32 12l-1823 1645q0 -83 -17.5 -171t-46.5 -175.5t-65 -159.5z" />
<glyph unicode="&#x2011;" d="M45 821q107 223 107 465q0 77 -9 135h29q302 0 557 160l76 -65q-223 -141 -490 -183l1823 -1642q16 -16 16 -37t-15 -36t-36 -15q-17 0 -32 12l-1823 1645q0 -83 -17.5 -171t-46.5 -175.5t-65 -159.5z" />
<glyph unicode="&#x2012;" d="M45 821q107 223 107 465q0 77 -9 135h29q302 0 557 160l76 -65q-223 -141 -490 -183l1823 -1642q16 -16 16 -37t-15 -36t-36 -15q-17 0 -32 12l-1823 1645q0 -83 -17.5 -171t-46.5 -175.5t-65 -159.5z" />
<glyph unicode="&#x2013;" horiz-adv-x="1215" d="M45 821q52 223 52 465q0 77 -4 135h14q146 0 270 160l37 -65q-108 -141 -238 -183l885 -1642q8 -16 8 -37t-7.5 -36t-17.5 -15q-8 0 -15 12l-885 1645q0 -83 -8.5 -171t-23 -175.5t-31.5 -159.5z" />
<glyph unicode="&#x2014;" horiz-adv-x="2239" d="M45 821q104 223 104 465q0 77 -9 135h28q294 0 541 160l74 -65q-217 -141 -476 -183l1770 -1642q16 -16 16 -37t-14.5 -36t-35.5 -15q-16 0 -31 12l-1770 1645q0 -83 -17 -171t-45 -175.5t-63 -159.5z" />
<glyph unicode="&#x202f;" horiz-adv-x="316" />
<glyph unicode="&#x205f;" horiz-adv-x="395" />
<glyph unicode="&#xe000;" horiz-adv-x="500" d="M0 0v0v0v0v0z" />
</font>
</defs>
</svg>
