<?xml version="1.0" standalone="no"?>
<!DOCTYPE svg PUBLIC "-//W3C//DTD SVG 1.1//EN" "http://www.w3.org/Graphics/SVG/1.1/DTD/svg11.dtd" >
<svg xmlns="http://www.w3.org/2000/svg">
<metadata>
This is a custom SVG webfont generated by Font Squirrel.
Copyright   : Copyright C 1994 1995 Basil K Malyshev All Rights Reserved012BaKoMa Fonts Collection LevelC
</metadata>
<defs>
<font id="euex9Regular" horiz-adv-x="2103" >
<font-face units-per-em="2048" ascent="1638" descent="-410" />
<missing-glyph horiz-adv-x="500" />
<glyph unicode=" "  horiz-adv-x="500" />
<glyph unicode="&#x09;" horiz-adv-x="500" />
<glyph unicode="&#xa0;" horiz-adv-x="500" />
<glyph unicode="!" d="M117 512q0 17 12 30t33 13h1667q-170 210 -238 467h88q80 -299 308 -510q-229 -215 -308 -512h-88q68 257 238 467h-1667q-19 0 -32 13t-13 32z" />
<glyph unicode="&#x22;" horiz-adv-x="1051" d="M57 1036v88q69 19 135 49.5t123.5 66t111 82t99.5 99.5q52 -59 100.5 -101t107.5 -79t125 -67t134 -50v-88q-239 66 -424 224v-1614q0 -19 -13 -31t-30 -12q-18 0 -31.5 12.5t-13.5 30.5v1614q-95 -81 -198.5 -135.5t-225.5 -88.5z" />
<glyph unicode="#" horiz-adv-x="1051" d="M57 -12q77 -21 152.5 -54t141.5 -74.5t130 -95.5v1614q0 18 12.5 30.5t32.5 12.5q19 0 31 -12t12 -31v-1614q185 158 424 224v-88q-88 -25 -173 -67.5t-160 -101.5t-134 -128q-90 106 -210.5 181.5t-258.5 115.5v88z" />
<glyph unicode="$" d="M117 512q71 65 132 148t105 173t70 189h88q-32 -123 -93.5 -243.5t-144.5 -223.5h1555q-170 210 -238 467h88q80 -299 308 -510q-229 -215 -308 -512h-88q68 257 238 467h-1555q81 -99 143 -219.5t95 -247.5h-88q-26 99 -70 189t-106 174t-131 149z" />
<glyph unicode="%" d="M117 -403q0 15 12 30l1714 1712q-82 10 -170 32t-166.5 53.5t-160.5 78.5l61 64q80 -47 169.5 -80t181 -49.5t188.5 -16.5h41v-41q0 -141 37.5 -279.5t107.5 -258.5l-64 -62q-132 232 -163 498l-1712 -1714q-18 -13 -31 -13q-20 0 -32.5 13.5t-12.5 32.5z" />
<glyph unicode="&#x26;" d="M117 1427q0 19 12.5 32.5t32.5 13.5q13 0 31 -13l1712 -1714q31 266 163 498l64 -62q-71 -121 -108 -258t-37 -280v-41h-41q-144 0 -281.5 -37t-257.5 -109l-61 64q82 47 160.5 78.5t166.5 53.5t170 32l-1714 1712q-12 15 -12 30z" />
<glyph unicode="(" d="M117 512q113 53 214 129t185 168.5t150 200t108 221.5h88q-46 -125 -119 -245t-163 -222h1368q39 -12 39 -45q0 -35 -39 -43h-1454q-97 -94 -209 -164q112 -73 209 -164h1454q39 -12 39 -45q0 -35 -39 -43h-1368q189 -212 282 -469h-88q-57 154 -154 292.5t-225 248 t-278 180.5z" />
<glyph unicode=")" d="M117 303q0 34 41 45h1452q95 91 209 164q-114 70 -209 164h-1452q-41 7 -41 43q0 34 41 45h1366q-184 205 -283 467h88q89 -235 259.5 -422t398.5 -297q-115 -55 -216 -130.5t-184.5 -167.5t-146.5 -195t-111 -228h-88q96 261 283 469h-1366q-18 3 -29.5 14.5t-11.5 28.5 z" />
<glyph unicode="*" horiz-adv-x="1403" d="M25 694v88q117 47 215.5 109.5t185 144t157 180.5t117.5 205q100 -219 275 -384.5t401 -254.5v-88q-117 46 -222.5 110t-201.5 148v-1310q-3 -16 -15.5 -27.5t-27.5 -11.5q-38 0 -45 39v1396q-94 102 -164 211q-67 -108 -163 -211v-1396q-9 -39 -43 -39q-38 0 -45 39 v1310q-187 -165 -424 -258z" />
<glyph unicode="+" horiz-adv-x="1403" d="M25 242v88q237 -93 424 -258v1310q7 39 45 39q34 0 43 -39v-1396q96 -103 163 -211q70 109 164 211v1396q7 39 45 39q17 0 28.5 -11.5t14.5 -27.5v-1310q64 56 128.5 100.5t138 84t157.5 73.5v-88q-115 -45 -214 -108t-187.5 -146.5t-157 -179.5t-117.5 -205 q-47 107 -117.5 206t-156 180t-186 145t-215.5 108z" />
<glyph unicode="," d="M72 512q193 127 332.5 313t207.5 406h88q-31 -97 -64 -170.5t-76.5 -147.5t-100.5 -149h1186q-162 210 -242 467h88q34 -108 86 -210.5t121.5 -194.5t155.5 -172.5t178 -141.5q-111 -73 -203 -164q-115 -114 -201.5 -256t-136.5 -301h-88q42 131 103 249t136 220h-1181 q161 -218 239 -469h-88q-47 154 -135 298.5t-203 258.5q-91 89 -202 164zM217 512q93 -77 170 -164h1329q73 83 170 164q-52 44 -87.5 78t-82.5 86h-1329q-87 -98 -170 -164z" />
<glyph unicode="-" d="M-29 842q72 120 109 257.5t37 280.5v41h41q97 0 188 16.5t180.5 49.5t169.5 80l62 -64q-231 -132 -498 -164l1714 -1712q13 -16 13 -30q0 -20 -13 -33t-32 -13q-15 0 -31 13l-1712 1714q-10 -82 -32 -170.5t-54.5 -169t-77.5 -158.5z" />
<glyph unicode="." d="M-29 182l64 62q132 -231 164 -498l1712 1714q16 13 31 13q13 0 23 -6t16 -16.5t6 -23.5q0 -14 -13 -30l-1714 -1712q267 -32 498 -164l-62 -64q-121 72 -257 109t-281 37h-41v41q0 145 -37 281t-109 257z" />
<glyph unicode="1" d="M117 442q0 88 30.5 171t87 149.5t134 104.5t168.5 38q136 0 258.5 -72t212.5 -188l59 -74q43 66 98.5 128t119.5 108t136 72t152 26q121 0 215.5 -66t146.5 -172t52 -225q0 -90 -30.5 -173.5t-86.5 -148.5t-134 -104t-169 -39q-136 0 -258 72t-213 189l-60 73 q-94 -146 -222 -240t-284 -94q-120 0 -214 65.5t-146.5 172.5t-52.5 227zM205 440q0 -91 35 -176t104 -139.5t160 -54.5q98 0 184 45.5t153.5 118t125.5 165.5l-105 131q-87 112 -172.5 180t-191.5 68q-67 0 -120.5 -27.5t-92 -76t-59.5 -110.5t-21 -124zM1137 483l104 -131 q55 -70 107.5 -123t118.5 -89t139 -36q64 0 119.5 28.5t94 78t58.5 110t20 121.5q0 68 -20 133.5t-57.5 119t-93.5 86t-128 32.5q-141 0 -258 -92.5t-204 -237.5z" />
<glyph unicode="8" horiz-adv-x="1870" d="M829 -930q0 191 75.5 369.5t210 322t306.5 232.5q4 4 9 4h61q7 0 13.5 -5.5t6.5 -12.5v-66q0 -6 -10 -16q-143 -86 -247.5 -218t-159 -292t-54.5 -326v-909q0 -6 -7.5 -12.5t-12.5 -6.5h-170q-4 0 -12.5 6.5t-8.5 12.5v917z" />
<glyph unicode="9" horiz-adv-x="1870" d="M358 -20q0 7 7 12.5t14 5.5h61q1 0 11 -4q125 -65 234.5 -163t188 -218t122.5 -258t44 -285v-917q0 -6 -7.5 -12.5t-12.5 -6.5h-170q-4 0 -12.5 6.5t-8.5 12.5v909q0 130 -31 251t-90 230t-144 199.5t-193 155.5q-13 9 -13 16v66z" />
<glyph unicode=":" horiz-adv-x="1870" d="M829 4q0 7 8 13t13 6h170q6 0 13 -6t7 -13v-909q0 -122 31.5 -246.5t92 -235t145.5 -201t192 -155.5q10 -5 10 -14v-66q0 -5 -7.5 -11.5t-12.5 -6.5h-61q-3 1 -5 1.5t-4 0.5q-127 67 -236 165.5t-188.5 219.5t-123.5 259t-44 282v917z" />
<glyph unicode=";" horiz-adv-x="1870" d="M358 -1757q0 10 13 14q106 65 191.5 156t145 201t90.5 231.5t31 249.5v909q0 7 8 13t13 6h170q6 0 13 -6t7 -13v-917q0 -147 -44 -285.5t-122 -257.5t-187.5 -217.5t-235.5 -165.5q-4 0 -6 -0.5t-5 -1.5h-61q-4 0 -12.5 6.5t-8.5 11.5v66z" />
<glyph unicode="&#x3c;" horiz-adv-x="1870" d="M358 -1810q0 7 17 18q113 75 196 173t142 219.5t87.5 250.5t28.5 260v893q0 7 8 13t13 6h170q6 0 13 -6t7 -13v-901q0 -142 -39 -279.5t-114.5 -264t-177 -227.5t-226.5 -175q124 -73 227 -176t177 -226t113.5 -262t39.5 -282v-901q0 -6 -7.5 -12.5t-12.5 -6.5h-170 q-4 0 -12.5 6.5t-8.5 12.5v892q0 132 -29 262.5t-86.5 249t-143.5 220t-195 172.5q-17 11 -17 18v66z" />
<glyph unicode="=" horiz-adv-x="1870" d="M829 4q0 7 8 13t13 6h170q6 0 13 -6t7 -13v-893q0 -274 119.5 -516.5t343.5 -392.5q8 -4 8 -12v-66q0 -10 -8 -14q-113 -74 -200.5 -175.5t-146 -220.5t-87.5 -247t-29 -265v-892q0 -6 -7.5 -12.5t-12.5 -6.5h-170q-4 0 -12.5 6.5t-8.5 12.5v901q0 189 70 370.5 t197.5 330.5t289.5 245q-127 76 -228.5 177.5t-176 227.5t-113.5 261.5t-39 279.5v901z" />
<glyph unicode="&#x3e;" horiz-adv-x="1870" d="M829 4q0 7 8 13t13 6h170q6 0 13 -6t7 -13v-622q0 -6 -7.5 -12.5t-12.5 -6.5h-170q-4 0 -12.5 6.5t-8.5 12.5v622z" />
<glyph unicode="H" horiz-adv-x="1110" d="M100 -2085q0 50 29 82.5t78 32.5q48 0 85.5 -32.5t37.5 -82.5q0 -69 -49 -98q31 -29 69 -29q103 0 130.5 132t27.5 302t-2 254q-90 21 -160.5 76.5t-110.5 136.5t-40 172q0 142 87 248.5t222 138.5q0 133 7 245t36.5 231.5t94 197.5t173.5 78q102 0 177 -47t75 -143 q0 -50 -29.5 -82.5t-76.5 -32.5q-49 0 -86 33t-37 82q0 69 49 98q-34 29 -70 29q-68 0 -101 -77.5t-40.5 -168t-7.5 -189.5q1 -64 1.5 -117t0.5 -137q69 -15 125.5 -50t99.5 -87t65.5 -115t22.5 -135q0 -138 -86 -244.5t-225 -140.5q0 -135 -7 -247t-36.5 -230.5t-97 -196 t-179.5 -77.5q-101 0 -176.5 47t-75.5 143zM283 -1139q0 -100 62 -182t161 -111q-1 29 -1.5 89.5t-0.5 104.5v95v45v254q-97 -27 -159 -109t-62 -186zM672 -844q0 -110 2 -166v-168v-254q63 18 114 62t79 104.5t28 126.5q0 68 -28 128.5t-79.5 104.5t-115.5 62z" />
<glyph unicode="I" horiz-adv-x="934" d="M31 -2275q0 135 62 256t172 203t241 102q0 485 8 788q0 135 7 273.5t35 290.5t91.5 257t167.5 105q65 0 128 -20.5t105 -65.5t42 -113q0 -35 -22.5 -61.5t-59.5 -26.5q-39 0 -70 26t-31 62q0 44 25 66q-17 29 -48.5 49.5t-64.5 20.5q-61 0 -90.5 -206.5t-37 -432.5 t-7.5 -404v-8q0 -149 2 -265t6 -333q99 -16 187.5 -66.5t155 -127.5t101.5 -172t35 -197q0 -104 -34.5 -197t-99 -170t-151 -126.5t-190.5 -67.5q0 -292 -1.5 -454.5t-6.5 -334.5q-8 -265 -24 -432t-66 -291q-82 -203 -244 -203q-107 0 -190.5 50.5t-83.5 148.5 q0 37 22.5 62.5t59.5 25.5q40 0 70 -25t30 -63q0 -43 -24 -66q19 -30 49.5 -49.5t62.5 -19.5q75 0 112 205t46.5 431t9.5 406v8q0 182 -8 598q-101 18 -188.5 68t-153 126t-101.5 172.5t-36 197.5zM119 -2275q0 -170 111 -305t280 -168q-4 282 -4 469v303v172 q-82 -18 -152.5 -59.5t-124 -105t-82 -141.5t-28.5 -165zM692 -1802q4 -284 4 -469v-303v-172q84 19 155.5 61.5t123.5 105.5t80 140t28 164q0 113 -50.5 213.5t-140.5 169.5t-200 90z" />
<glyph unicode="P" horiz-adv-x="2220" d="M117 -2017q0 12 6 18l747 961l-606 897q-6 6 -6 14v98q0 11 8 20t21 9h1611l-28 -156h-1374l548 -811q5 -4 5 -16t-5 -18l-653 -836h1655l-31 -211h-1870q-12 0 -20 10t-8 21z" />
<glyph unicode="Q" horiz-adv-x="2220" d="M145 0h1930v-88q-209 0 -209 -137v-1598q0 -137 209 -137v-88h-629v88q209 0 209 137v1735h-1090v-1735q0 -137 209 -137v-88h-629v88q209 0 209 137v1598q0 137 -209 137v88z" />
<glyph unicode="R" horiz-adv-x="1110" d="M100 -2085q0 50 29 82.5t78 32.5q48 0 85.5 -32.5t37.5 -82.5q0 -69 -49 -98q31 -29 69 -29q103 0 130.5 132t27.5 302q0 197 -2 297q0 101 -0.5 174.5t-1.5 163.5v45v330q1 33 1.5 89.5t1 114.5t1.5 93q0 107 29.5 215.5t98.5 182t179 73.5q102 0 177 -47t75 -143 q0 -50 -29.5 -82.5t-76.5 -32.5q-49 0 -86 33t-37 82q0 69 49 98q-34 29 -70 29q-68 0 -101 -77.5t-40.5 -168t-7.5 -189.5q0 -110 4 -340q1 -84 1.5 -154.5t0.5 -185.5q0 -231 -2 -329q0 -193 -2 -299q0 -105 -32 -214.5t-103 -182t-183 -72.5q-101 0 -176.5 47t-75.5 143z " />
<glyph unicode="X" horiz-adv-x="3039" d="M117 -2836q0 12 6 18l1079 1329l-846 1331q-6 6 -6 15v114q0 11 9 20t20 9h2222l-29 -172h-1867l753 -1186q6 -9 6 -18q0 -11 -6 -17l-995 -1226h2402l-31 -248h-2689q-12 0 -20 10t-8 21z" />
<glyph unicode="Y" horiz-adv-x="2970" d="M117 0h2734v-113q-334 0 -334 -204v-2233q0 -82 51 -128t125.5 -61.5t157.5 -15.5v-112h-979v112q334 0 334 205v2437h-1444v-2437q0 -119 98 -162t236 -43v-112h-979v112q334 0 334 205v2233q0 204 -334 204v113z" />
<glyph unicode="Z" horiz-adv-x="934" d="M80 -4352q0 37 22.5 62.5t59.5 25.5q40 0 70 -25t30 -63q0 -43 -24 -66q19 -30 49.5 -49.5t62.5 -19.5q75 0 112 205t46.5 431t9.5 406v8q0 176 -3 358.5t-6 373t-3 426.5v303v152q0 75 0.5 135.5t1 140.5t0.5 145q0 259 6 477q0 135 7 273.5t35 290.5t91.5 257 t167.5 105q65 0 128 -20.5t105 -65.5t42 -113q0 -35 -22.5 -61.5t-59.5 -26.5q-39 0 -70 26t-31 62q0 44 25 66q-17 29 -48.5 49.5t-64.5 20.5q-61 0 -90.5 -206.5t-37 -432.5t-7.5 -404v-8q0 -118 0.5 -147t2 -147.5t3.5 -240.5q4 -181 5 -287t1 -335v-303v-318 q0 -168 -0.5 -257.5t-2 -211t-5.5 -264.5q-8 -265 -24 -432t-66 -291q-82 -203 -244 -203q-107 0 -190.5 50.5t-83.5 148.5z" />
<glyph unicode="`" horiz-adv-x="2220" d="M145 0h629v-88q-209 0 -209 -137v-1735h1090v1735q0 137 -209 137v88h629v-88q-209 0 -209 -137v-1598q0 -137 209 -137v-88h-1930v88q209 0 209 137v1598q0 137 -209 137v88z" />
<glyph unicode="a" horiz-adv-x="2970" d="M117 0h979v-113q-334 0 -334 -204v-2438h1444v2438q0 204 -334 204v113h979v-113q-334 0 -334 -204v-2233q0 -82 51 -128t125.5 -61.5t157.5 -15.5v-112h-2734v112q334 0 334 205v2233q0 204 -334 204v113z" />
<glyph unicode="l" horiz-adv-x="1051" d="M57 -172q238 -66 424 -223v1814q-186 -157 -424 -223v88q88 25 175 68.5t157.5 98.5t136.5 130q63 -74 134.5 -129.5t158 -99t174.5 -68.5v-88q-239 66 -424 223v-1814q185 157 424 223v-88q-88 -25 -174.5 -68.5t-158 -99t-134.5 -129.5q-66 75 -136.5 130t-157.5 98.5 t-175 68.5v88z" />
<glyph unicode="m" horiz-adv-x="1403" d="M25 -33v88q226 -72 424 -219v1352q-198 -147 -424 -219v88q209 68 385.5 205t289.5 319q80 -126 184 -227.5t227 -176t265 -120.5v-88q-226 72 -424 219v-1352q198 147 424 219v-88q-142 -46 -265 -120.5t-227 -176t-184 -227.5q-4 8 -10 18.5t-11 18.5t-7 8 q-73 106 -176.5 202t-221.5 165t-249 112zM537 -238q85 -74 163 -172q81 100 164 172v1500q-83 72 -164 172q-78 -98 -163 -172v-1500z" />
<glyph unicode="z" horiz-adv-x="922" d="M-51 -389q1 2 1.5 3.5t0.5 2.5q72 132 175.5 241.5t229.5 188t270.5 121.5t293.5 43q9 0 16.5 -4.5t7.5 -13.5v-175q0 -5 -7.5 -11.5t-12.5 -6.5q-135 0 -263 -29.5t-242 -86.5t-209.5 -144t-160.5 -203q-10 -10 -18 -10h-62q-5 0 -12.5 6.5t-7.5 11.5v66z" />
<glyph unicode="{" horiz-adv-x="922" d="M-23 18v175q0 9 8 13.5t17 4.5q158 0 308.5 -46.5t285.5 -135.5q71 -48 146.5 -119t138 -149.5t92.5 -149.5v-66q0 -5 -7.5 -11.5t-13.5 -6.5h-61q-9 0 -17 10q-85 151 -224 255.5t-307 156t-345 51.5q-4 0 -12.5 6.5t-8.5 11.5z" />
<glyph unicode="|" horiz-adv-x="922" d="M-51 598v66q0 7 6.5 12.5t13.5 5.5h62q8 0 18 -10q125 -223 364 -342t511 -119q7 0 13.5 -5.5t6.5 -12.5v-175q0 -18 -24 -18q-106 0 -208.5 21t-199 61t-186.5 100q-110 73 -221 193t-156 223z" />
<glyph unicode="}" horiz-adv-x="922" d="M-23 18v175q0 7 7 12.5t14 5.5q178 0 346 51.5t307.5 156t222.5 253.5q7 10 17 10h61q8 0 14.5 -5.5t6.5 -12.5v-66q0 -1 -0.5 -2.5t-1.5 -3.5q-73 -133 -176 -241.5t-230.5 -187.5t-270.5 -121t-292 -42q-25 0 -25 18z" />
<glyph unicode="&#xa9;" horiz-adv-x="1227" d="M227 -1124q5 9 94.5 48t151.5 96t62 153v596q0 90 66.5 156.5t160 104.5t186.5 56h31q7 0 13.5 -5.5t6.5 -12.5v-35q0 -4 -4.5 -10.5t-9.5 -6.5q-123 -36 -207 -95.5t-84 -160.5v-596q0 -203 -336 -307q336 -99 336 -307v-596q0 -100 83 -157.5t208 -96.5q6 0 10 -5.5 t4 -10.5v-35q0 -6 -7.5 -12.5t-12.5 -6.5h-31q-160 33 -286.5 109.5t-126.5 206.5v596q0 76 -40.5 128.5t-88 79.5t-111.5 54.5t-68 36.5v35z" />
<glyph unicode="&#xaa;" horiz-adv-x="1227" d="M227 33v35q0 7 7 12.5t14 5.5h31q92 -17 187 -55.5t161.5 -105t66.5 -156.5v-596q0 -95 63.5 -154t150.5 -97t91 -46v-35q-4 -8 -66 -35.5t-109.5 -54.5t-88.5 -80t-41 -129v-596q0 -91 -66.5 -156.5t-161.5 -104t-187 -55.5h-31q-4 0 -12.5 6.5t-8.5 12.5v35 q0 5 5.5 10.5t11.5 5.5q124 38 207.5 96t83.5 158v596q0 208 333 307q-333 103 -333 307v596q0 169 -291 256q-4 0 -10.5 6.5t-6.5 10.5z" />
<glyph unicode="&#xad;" horiz-adv-x="1403" d="M248 -1731q4 9 74.5 48t133 85.5t111.5 127t49 188.5v899q0 119 69 212t174 155.5t222 101.5h4h48q7 0 13.5 -5.5t6.5 -12.5v-52q-3 -8 -72 -40.5t-132.5 -75t-114 -117t-50.5 -174.5v-899q0 -111 -58 -201t-149.5 -155.5t-199.5 -110.5q172 -70 289.5 -188.5 t117.5 -278.5v-899q0 -139 102 -235.5t253 -153.5q14 -5 14 -17v-51q0 -5 -7.5 -11.5t-12.5 -6.5h-48h-4q-117 39 -222.5 102t-174 155t-68.5 210v899q0 110 -50.5 192t-114.5 129.5t-131.5 83.5t-71.5 45v51z" />
<glyph unicode="&#xae;" horiz-adv-x="1403" d="M248 16v52q0 7 6.5 12.5t13.5 5.5h47h7q77 -25 164 -70.5t151.5 -101t105.5 -131.5t41 -166v-899q0 -109 49.5 -189t114 -128t133.5 -85t72 -47v-51q-3 -7 -71 -44.5t-133 -86t-115 -129t-50 -190.5v-899q0 -117 -67.5 -209t-173.5 -155.5t-221 -102.5h-7h-47 q-5 0 -12.5 6.5t-7.5 11.5v51q3 9 69.5 40.5t133.5 76t116 117.5t49 172v899q0 160 118 278.5t290 188.5q-85 37 -153.5 79.5t-127 101t-93 130t-34.5 156.5v899q0 96 -50 172t-132.5 131t-169.5 86q-16 11 -16 18z" />
<glyph unicode="&#xaf;" horiz-adv-x="1577" d="M274 -2343q0 12 17 16q88 45 161.5 104t130 134.5t87 163t30.5 184.5v1206q0 107 48 211t133 189q34 34 101.5 84t136 89t112.5 48h51q7 0 14 -5.5t7 -12.5v-56q0 -8 -15 -18q-83 -35 -157.5 -89t-130 -121.5t-88.5 -151.5t-33 -175v-1206q0 -106 -39.5 -201t-105 -172.5 t-152.5 -141.5t-181 -108q129 -58 237.5 -149.5t174.5 -212.5t66 -258v-1206q0 -90 32.5 -173t89.5 -153t129.5 -122.5t157.5 -90.5q15 -7 15 -16v-56q0 -6 -8 -12t-13 -6h-51q-64 12 -176.5 86t-173.5 135q-85 87 -133 190t-48 209v1207q0 191 -114.5 343t-298.5 242 q-13 11 -13 17v55z" />
<glyph unicode="&#xb0;" horiz-adv-x="1577" d="M274 12v56q0 7 7 12.5t14 5.5h51q64 -12 181 -88.5t173 -132.5q40 -38 72 -83.5t57.5 -100t37.5 -106t12 -110.5v-1206q0 -127 53.5 -240.5t147 -201t212.5 -146.5q11 -5 11 -14v-55q0 -3 -11 -17q-184 -88 -298.5 -241.5t-114.5 -343.5v-1207q0 -74 -22.5 -145.5 t-63 -135.5t-93.5 -118q-60 -60 -175 -134.5t-179 -86.5h-51q-4 0 -12.5 6.5t-8.5 11.5v56q0 12 17 16q81 35 157 91t131 122.5t88 150.5t33 175v1206q0 102 39 199t105 174.5t151 140t181 106.5q-129 60 -237.5 152.5t-173.5 212.5t-65 258v1206q0 136 -59 237t-133 161 t-152 104.5t-82 52.5z" />
<glyph unicode="&#xb1;" horiz-adv-x="1694" d="M303 -2955q0 12 12 16q134 75 232.5 190t152.5 257t54 292v1512q0 127 43 245.5t119.5 217.5t176.5 177t216 134h4h57q7 0 14 -5.5t7 -12.5v-62q0 -5 -11 -16q-96 -48 -177 -120t-141 -162.5t-92 -193t-32 -210.5v-1512q0 -121 -39 -238.5t-107.5 -216.5t-161 -181 t-202.5 -142q112 -59 203.5 -140.5t159.5 -179t107.5 -216.5t39.5 -240v-1512q0 -106 32 -209t92 -194t140.5 -162t177.5 -123q11 -5 11 -14v-62q0 -6 -8 -12t-13 -6h-57h-4q-157 76 -282.5 191.5t-199 265t-73.5 317.5v1512q0 150 -54 292t-152.5 257t-232.5 190 q-12 4 -12 14v62z" />
<glyph unicode="&#xb2;" horiz-adv-x="1694" d="M303 6v62q0 7 6.5 12.5t14.5 5.5h57h6q154 -76 279.5 -191.5t198.5 -265.5t73 -317v-1512q0 -114 30 -220t91 -207t139.5 -177.5t181.5 -134.5q11 -5 11 -16v-62q0 -8 -11 -14q-135 -76 -234 -190.5t-153.5 -255.5t-54.5 -293v-1512q0 -132 -42.5 -247.5t-118.5 -214.5 t-175 -177t-215 -135h-6h-57q-6 0 -13.5 6.5t-7.5 11.5v62q0 10 12 14q130 69 228.5 174t154.5 237.5t56 276.5v1512q0 123 38.5 239t109 216t162.5 181t202 140q-109 60 -201.5 141.5t-163.5 183t-109 216t-38 237.5v1512q0 144 -55.5 276.5t-155 237.5t-228.5 172 q-12 8 -12 16z" />
<glyph unicode="&#xbb;" d="M117 467v45q80 58 145.5 139.5t105.5 173.5t56 197h88q-36 -269 -215 -467h1647q19 0 31 -12.5t12 -30.5q0 -20 -12.5 -32.5t-30.5 -12.5h-1827z" />
<glyph unicode="&#xbc;" d="M117 512v43h1827q19 0 31 -12.5t12 -30.5q0 -20 -12.5 -32.5t-30.5 -12.5h-1647q179 -198 215 -467h-88q-16 105 -55.5 196.5t-104.5 173t-147 142.5z" />
<glyph unicode="&#xbd;" d="M117 512q0 17 12 30t33 13h1644q-57 63 -101.5 138t-73 157.5t-40.5 171.5h88q15 -101 56.5 -196t107.5 -176t144 -138v-45h-1825q-19 0 -32 13t-13 32z" />
<glyph unicode="&#xbe;" d="M117 512q0 17 12 30t33 13h1825v-43q-125 -92 -205 -225t-103 -287h-88q12 89 40.5 171.5t73 157.5t101.5 138h-1644q-19 0 -32 13t-13 32z" />
<glyph unicode="&#xc3;" d="M117 512q71 65 132 148t105 173t70 189h88q-32 -123 -93.5 -243.5t-144.5 -223.5h1670q19 0 31 -12.5t12 -30.5q0 -20 -12.5 -32.5t-30.5 -12.5h-1670q81 -99 143 -219.5t95 -247.5h-88q-26 99 -70 189t-106 174t-131 149z" />
<glyph unicode="&#x2000;" horiz-adv-x="790" />
<glyph unicode="&#x2001;" horiz-adv-x="1581" />
<glyph unicode="&#x2002;" horiz-adv-x="790" />
<glyph unicode="&#x2003;" horiz-adv-x="1581" />
<glyph unicode="&#x2004;" horiz-adv-x="527" />
<glyph unicode="&#x2005;" horiz-adv-x="395" />
<glyph unicode="&#x2006;" horiz-adv-x="263" />
<glyph unicode="&#x2007;" horiz-adv-x="263" />
<glyph unicode="&#x2008;" horiz-adv-x="197" />
<glyph unicode="&#x2009;" horiz-adv-x="316" />
<glyph unicode="&#x200a;" horiz-adv-x="87" />
<glyph unicode="&#x2010;" d="M-29 842q72 120 109 257.5t37 280.5v41h41q97 0 188 16.5t180.5 49.5t169.5 80l62 -64q-231 -132 -498 -164l1714 -1712q13 -16 13 -30q0 -20 -13 -33t-32 -13q-15 0 -31 13l-1712 1714q-10 -82 -32 -170.5t-54.5 -169t-77.5 -158.5z" />
<glyph unicode="&#x2011;" d="M-29 842q72 120 109 257.5t37 280.5v41h41q97 0 188 16.5t180.5 49.5t169.5 80l62 -64q-231 -132 -498 -164l1714 -1712q13 -16 13 -30q0 -20 -13 -33t-32 -13q-15 0 -31 13l-1712 1714q-10 -82 -32 -170.5t-54.5 -169t-77.5 -158.5z" />
<glyph unicode="&#x2012;" d="M-29 842q72 120 109 257.5t37 280.5v41h41q97 0 188 16.5t180.5 49.5t169.5 80l62 -64q-231 -132 -498 -164l1714 -1712q13 -16 13 -30q0 -20 -13 -33t-32 -13q-15 0 -31 13l-1712 1714q-10 -82 -32 -170.5t-54.5 -169t-77.5 -158.5z" />
<glyph unicode="&#x2013;" horiz-adv-x="1111" d="M-29 842q37 120 55.5 257.5t18.5 280.5v41h21q49 0 95.5 16.5t92 49.5t85.5 80l32 -64q-118 -132 -253 -164l870 -1712q7 -16 7 -30q0 -20 -6.5 -33t-16.5 -13q-7 0 -16 13l-869 1714q-5 -82 -16.5 -170.5t-28 -169t-38.5 -158.5z" />
<glyph unicode="&#x2014;" horiz-adv-x="2135" d="M-29 842q73 120 110.5 257.5t37.5 280.5v41h42q99 0 191 16.5t183 49.5t173 80l62 -64q-234 -132 -505 -164l1741 -1712q13 -16 13 -30q0 -20 -13 -33t-33 -13q-15 0 -31 13l-1739 1714q-11 -82 -33 -170.5t-55 -169t-79 -158.5z" />
<glyph unicode="&#x202f;" horiz-adv-x="316" />
<glyph unicode="&#x205f;" horiz-adv-x="395" />
<glyph unicode="&#xe000;" horiz-adv-x="500" d="M0 0v0v0v0v0z" />
</font>
</defs>
</svg>
