<?xml version="1.0" standalone="no"?>
<!DOCTYPE svg PUBLIC "-//W3C//DTD SVG 1.1//EN" "http://www.w3.org/Graphics/SVG/1.1/DTD/svg11.dtd" >
<svg xmlns="http://www.w3.org/2000/svg">
<metadata>
This is a custom SVG webfont generated by Font Squirrel.
Copyright   : Copyright C 1994 1995 Basil K Malyshev All Rights Reserved012BaKoMa Fonts Collection LevelC
</metadata>
<defs>
<font id="eufb6Regular" horiz-adv-x="1493" >
<font-face units-per-em="2048" ascent="1638" descent="-410" />
<missing-glyph horiz-adv-x="682" />
<glyph unicode=" "  horiz-adv-x="682" />
<glyph unicode="&#x09;" horiz-adv-x="682" />
<glyph unicode="&#xa0;" horiz-adv-x="682" />
<glyph unicode="!" horiz-adv-x="965" d="M334 96q0 36 22.5 62.5t58 40.5t66.5 14q54 0 99 -32.5t45 -84.5q0 -53 -44 -87t-100 -34q-55 0 -101 34t-46 87zM365 1276q0 71 29 102t100 31q46 0 71 -23.5t25 -68.5q0 -82 -15 -180l-92 -756l-41 -4l-69 780q-8 82 -8 119z" />
<glyph unicode="&#x26;" horiz-adv-x="2099" d="M195 377q0 82 30.5 144t82.5 108t101 74.5t162 87.5q-33 74 -50 131.5t-17 115.5q0 134 67.5 221t178.5 125.5t243 38.5q105 0 186 -46t81 -144q0 -74 -41.5 -133.5t-108.5 -106t-151.5 -86.5t-129.5 -61q147 -200 255 -329t241 -236q51 48 78 108t27 127 q0 108 -75 161.5t-186 53.5q-64 0 -129 -6l2 100q123 -6 246 -6q107 0 265.5 3.5t363.5 11.5l-6 -117l-305 8q-15 0 -29 -2q2 -18 7 -47t5 -45q0 -109 -47.5 -213t-134.5 -195q68 -39 119.5 -58.5t111.5 -19.5q59 0 104 35t76 88t54 109l55 -12q-30 -106 -85 -197.5 t-139 -146t-192 -54.5q-89 0 -174.5 29t-156.5 80q-248 -105 -453 -105q-123 0 -247.5 47t-204.5 139t-80 220zM446 485q0 -83 37.5 -157.5t104.5 -132t148.5 -87.5t162.5 -30q40 0 221 51q-92 84 -184 182t-172 198.5t-156 213.5q-82 -40 -122 -94.5t-40 -143.5zM707 1176 q0 -137 88 -269q108 53 163.5 118.5t55.5 174.5q0 55 -42.5 103.5t-97.5 48.5q-80 0 -123.5 -48.5t-43.5 -127.5z" />
<glyph unicode="'" horiz-adv-x="752" d="M276 1360q0 30 30 45.5t63 15.5q35 0 56 -17t21 -52q0 -17 -10 -82l-65 -379h-41l-49 393q-5 63 -5 76z" />
<glyph unicode="(" horiz-adv-x="1204" d="M393 571q0 160 17 303.5t64.5 274.5t142 227.5t239.5 130.5v-39q-140 -56 -213.5 -209.5t-95 -332t-21.5 -365.5q0 -309 45 -524q44 -201 125 -281q91 -91 160 -106v-31q-151 21 -285 162q-39 44 -62.5 88.5t-40 97t-30.5 111.5q-45 197 -45 493z" />
<glyph unicode=")" horiz-adv-x="1204" d="M332 -348q83 27 135.5 57t85.5 71.5t53.5 101t34.5 143.5q13 72 21.5 163.5t11 173t2.5 201.5q0 191 -23.5 366t-100 325.5t-220.5 205.5v43q187 -32 294 -186.5t146 -355.5t39 -404q0 -151 -11.5 -276t-41.5 -240q-23 -95 -56.5 -169t-81 -124.5t-118 -82t-170.5 -46.5 v33z" />
<glyph unicode="*" horiz-adv-x="920" d="M186 1055q134 67 220 116q-117 68 -218 115l56 47q79 -60 188 -129q0 103 -6 211h66q-13 -94 -19 -205q92 55 191 123l38 -39q-127 -61 -225 -118q120 -70 228 -121l-46 -43q-81 55 -188 123v-7q0 -34 4 -104q3 -55 12 -106h-63q2 38 6 116q2 39 2 115q-97 -56 -215 -139 z" />
<glyph unicode="+" horiz-adv-x="2146" d="M223 496l39 79h756v619l108 29v-648h795l-35 -79h-760v-625l-108 -39v664h-795z" />
<glyph unicode="," horiz-adv-x="920" d="M360 125q0 40 38.5 67t80.5 27q35 0 83.5 -62t70.5 -108q20 -41 20 -104q0 -75 -66 -157t-169 -179l-31 37q46 48 83.5 113t37.5 118q0 50 -33 84l-90 98q-25 30 -25 66z" />
<glyph unicode="-" horiz-adv-x="2146" d="M221 483l41 78h1651l-35 -78h-1657z" />
<glyph unicode="." horiz-adv-x="920" d="M328 90q0 54 42.5 86.5t96.5 32.5q56 0 103.5 -32.5t47.5 -86.5q0 -55 -47 -88t-104 -33q-54 0 -96.5 34.5t-42.5 86.5z" />
<glyph unicode="/" d="M190 -373l1006 1848l100 -19l-997 -1829h-109z" />
<glyph unicode="0" d="M190 383q0 235 169 394t423 247q129 -31 235.5 -90t174.5 -154t68 -219q0 -140 -102 -276.5t-252.5 -222t-287.5 -85.5q-83 0 -160 30.5t-139 86.5t-95.5 131t-33.5 158zM410 530q0 -94 49 -183t132.5 -143t178.5 -54q139 0 200.5 70.5t61.5 211.5q0 73 -36.5 144.5 t-95 127.5t-134 98t-141.5 56q-101 -23 -158 -119.5t-57 -208.5z" />
<glyph unicode="1" d="M219 0l2 96q115 0 174 -2q58 0 94.5 -0.5t79.5 -1.5q22 0 41 13t19 32l10 140q5 70 8.5 140t5.5 149t2 122q0 97 -28 146.5t-117 60.5l-197 27l-4 63l627 16q-20 -137 -28.5 -257.5t-8.5 -247.5v-369q0 -43 152 -43q59 1 108 1.5t129 0.5l4 -86h-1073z" />
<glyph unicode="2" d="M199 8v43l278 225q293 235 293 406q0 80 -51 129t-131 49q-85 0 -279 -84l-39 58q301 170 478 170q125 0 206.5 -49t81.5 -164q0 -128 -215 -322l-286 -256q-3 0 -3 -4q6 -12 33 -12q90 0 182 3.5t169.5 6.5t183.5 6.5t198 3.5l29 -8l-57 -205z" />
<glyph unicode="3" d="M168 -272l47 45q78 -38 158.5 -58t158.5 -20q80 0 153 21.5t128.5 64.5t87 107.5t31.5 146.5q0 67 -14.5 116.5t-44 80.5t-76.5 51.5t-115 33.5q-111 23 -281 23v78q107 0 208 21t173 79.5t72 163.5q0 43 -23.5 82t-58.5 65q-42 35 -145 35q-100 0 -252 -82l-49 39 q94 81 208.5 128.5t235.5 47.5q79 0 158.5 -24.5t132.5 -78t53 -134.5q0 -80 -49 -146.5t-122.5 -110.5t-156.5 -69l9 -24q78 0 156 -19t143 -59t105 -102t40 -146q0 -119 -58 -210.5t-151.5 -150t-206 -88.5t-223.5 -30q-230 0 -432 123z" />
<glyph unicode="4" d="M131 0v59l762 922l211 31l22 -29q0 -140 -20 -858h223l-41 -127h-182q0 -209 8 -311l-258 -90l-25 20q5 111 5 383h-705zM340 139l2 -14h494q0 135 1 219l2 170q1 84 1 219l-9 8q-67 -70 -140 -157.5t-167.5 -208t-183.5 -236.5z" />
<glyph unicode="5" d="M141 -283l37 54q154 -82 295 -82q124 0 223 48t155 138.5t56 214.5q0 148 -80 225.5t-229 77.5q-118 0 -231 -84l-60 21v653h916l-66 -190h-725q-8 -115 -10 -175q-2 -57 -2 -174l18 5q60 21 134.5 33t142.5 12q216 0 364 -87t148 -290q0 -167 -90.5 -282t-236.5 -170.5 t-310 -55.5q-255 0 -449 108z" />
<glyph unicode="6" d="M205 516q0 183 80.5 350.5t220.5 297t313 202t355 72.5q2 0 118 -17l-24 -145l-54 -4q-86 47 -190 47q-166 0 -292 -94.5t-193.5 -247t-67.5 -313.5q103 58 204.5 91t205.5 33q76 0 150.5 -23t131.5 -67.5t91 -110.5t34 -147q0 -132 -98.5 -239t-245.5 -166.5t-276 -59.5 q-107 0 -195 44.5t-147.5 121.5t-90 173.5t-30.5 201.5zM477 584q0 -115 34 -230.5t108 -194.5t190 -79q106 0 188 77t82 181q0 73 -28 131t-76.5 99t-111.5 63t-134 22q-107 0 -252 -69z" />
<glyph unicode="7" d="M219 -356q77 95 281 355.5t386.5 498t182.5 252.5q0 9 -6 13.5t-16 4.5l-793 -20l-29 22l66 209h1095v-47q-124 -143 -254.5 -313t-237 -326.5t-215.5 -335t-206 -358.5l-244 -2z" />
<glyph unicode="8" d="M201 330q0 106 57 179.5t137 117.5t205 94q-122 81 -214.5 176.5t-92.5 192.5q0 130 148 224t321 146q169 0 318 -60.5t149 -201.5q0 -80 -48.5 -154t-122 -131.5t-149.5 -97.5q134 -75 196.5 -115.5t117.5 -113t55 -164.5q0 -142 -98 -240t-243 -145t-284 -47 q-113 0 -215.5 35t-169.5 112t-67 193zM446 401q0 -81 42.5 -154.5t114.5 -117t153 -43.5q119 0 200.5 59.5t81.5 176.5q0 113 -102 192.5t-262 155.5q-117 -47 -172.5 -102.5t-55.5 -166.5zM532 1165q0 -43 52 -98.5t123 -108.5t122 -86q46 25 82 65t55 89.5t19 99.5 q0 109 -90.5 170.5t-204.5 61.5q-64 -18 -111 -73t-47 -120z" />
<glyph unicode="9" d="M166 485q0 117 44 198t113 131.5t177.5 98t191.5 82.5q132 0 243 -33.5t190.5 -100.5t124 -171t44.5 -239q0 -220 -78 -382.5t-218.5 -266.5t-320.5 -152.5t-392 -48.5l2 63q306 18 452 135q53 42 107 111.5t86.5 148t32.5 148.5l-275 -98q-52 -21 -121 -21 q-98 0 -192 56.5t-152.5 148t-58.5 192.5zM430 580q0 -133 117 -248q53 -53 107 -74.5t130 -21.5q79 0 123 16.5t64 58.5t20 123q0 216 -112 328q-46 46 -102.5 75t-112.5 29q-118 0 -176 -82t-58 -204z" />
<glyph unicode=":" horiz-adv-x="762" d="M227 815q0 33 19 61t49 43t63 15q38 0 76.5 -13.5t64 -41t25.5 -64.5q0 -55 -53 -85t-113 -30q-50 0 -90.5 32.5t-40.5 82.5zM238 84q0 53 35 92t85 39q39 0 80 -15.5t67.5 -45.5t26.5 -70q0 -53 -56 -81t-118 -28q-46 0 -83 30.5t-37 78.5z" />
<glyph unicode=";" horiz-adv-x="762" d="M223 817q0 52 42 85.5t93 33.5q39 0 75 -13.5t60.5 -40.5t24.5 -65q0 -54 -50.5 -85.5t-109.5 -31.5q-51 0 -93 33.5t-42 83.5zM268 104q0 41 31 66l-2 10q34 23 82 23q38 0 82 -43.5t73 -105.5t29 -103q0 -76 -64 -156.5t-167 -181.5l-41 25q48 51 85.5 114t37.5 117 q0 38 -35 78l-86 104q-25 30 -25 53z" />
<glyph unicode="=" horiz-adv-x="1470" d="M152 344l22 80h1143l-23 -80h-1142zM152 621l22 79h1143l-23 -79h-1142z" />
<glyph unicode="?" horiz-adv-x="1137" d="M186 1128q0 75 49 132t128.5 95t159.5 55t151 17q132 0 239 -62t107 -185q0 -87 -45 -162t-119 -129q-94 -68 -164.5 -119.5t-118.5 -85.5q-79 -60 -79 -121q0 -65 63 -108l2 -13l-149 -96q-127 42 -127 143q0 87 88 146q48 32 125 88t116 80q82 52 125 136.5t43 180.5 q0 58 -31.5 108.5t-82 78.5t-109.5 28q-72 0 -132 -31.5t-60 -95.5q0 -30 21 -65.5t48 -52.5l-164 -86q-10 5 -25.5 11.5t-23.5 14.5q-35 36 -35 98zM309 98q0 59 52.5 96t115.5 37q55 0 103.5 -32.5t48.5 -87.5q0 -62 -49 -102t-113 -40q-58 0 -108 36t-50 93z" />
<glyph unicode="A" horiz-adv-x="2048" d="M166 1028q0 103 121 199q107 85 236 131.5t272 46.5q88 0 171 -20.5t150.5 -63t109.5 -111.5t42 -159q0 -98 -36 -200.5t-95 -201.5q-41 -30 -418 -323q46 0 89.5 -13.5t84.5 -36.5t82.5 -53t77.5 -63q185 78 307 151l10 877l350 201l49 -13l-110 -104q0 -83 -3.5 -181 t-6.5 -168t-6 -153t-3 -168q0 -136 9 -235l125 -209l114 43l13 -43q-21 -13 -148 -94.5t-199 -122.5l-26 6l-160 307l-502 -317q-224 221 -348 221q-28 0 -62.5 -8.5t-74 -23.5t-70 -27.5t-78.5 -32.5l-51 32l434 260q120 73 203.5 152.5t130.5 182.5t47 237q0 95 -57 174 t-148 125.5t-184 46.5q-87 0 -152 -39.5t-65 -120.5q0 -56 109 -151q129 -103 129 -158q0 -61 -59 -119t-130.5 -100t-150.5 -78l-41 29q151 86 151 157q0 29 -86 119.5t-116.5 127t-30.5 85.5z" />
<glyph unicode="B" horiz-adv-x="2474" d="M225 1040q0 54 34.5 98.5t90.5 90.5q104 82 224.5 126t250.5 44q117 0 217.5 -59.5t157.5 -159.5q142 97 272.5 158t251.5 61q77 0 115.5 -27t52 -61.5t43.5 -136.5q18 -55 50 -99.5t75 -44.5q51 0 133 21l7 -45l-459 -215l-19 -5q78 0 180.5 -27t151.5 -67 q55 -43 84 -109.5t29 -142.5q0 -139 -96 -258l-375 -225q-115 -23 -211 -23q-159 0 -393 72q-110 35 -207.5 56.5t-186.5 21.5q-64 0 -133.5 -13t-131 -38t-116.5 -60l-32 58l303 162q90 49 154 88.5t125.5 94t74.5 105.5l27 240q0 142 -26.5 254t-104.5 188 q-107 111 -215 111q-69 0 -124 -36t-55 -101q0 -60 134 -170q48 -43 82 -82t34 -76q0 -48 -69 -108.5t-159.5 -114t-154.5 -84.5l-51 28q20 12 58 33.5t66.5 44t47.5 47t19 52.5q0 25 -24 51t-83.5 85.5t-89 104.5t-29.5 92zM874 281q123 -3 249.5 -30.5t273.5 -72.5 q64 -20 119 -34.5t111.5 -23.5t105.5 -9q83 0 124 49.5t41 134.5q0 188 -126.5 278.5t-323.5 90.5q-94 0 -209 -23q-9 -57 -51 -147zM1241 1081q10 -46 10 -147q0 -89 -8 -227l541 182q-43 22 -63.5 52t-29.5 72.5t-18 86.5q-15 74 -45 117t-96 43q-134 0 -291 -179z" />
<glyph unicode="C" horiz-adv-x="1778" d="M258 625q0 174 100 366q90 52 426 219l54 -49q62 38 130.5 72.5t143 64t158 52t162.5 32.5q23 -93 62.5 -157t113.5 -64q37 0 73 6l-20 -45q-116 -39 -279 -73q-62 0 -108 49.5t-109 146.5q-43 -12 -62.5 -38.5t-19.5 -71.5q0 -36 37 -154q39 -117 39 -176 q0 -107 -51.5 -159t-167.5 -101q-103 -45 -248 -90l-43 28q76 23 145.5 83.5t69.5 129.5q0 44 -10.5 96t-24.5 95q-10 39 -18.5 70.5t-15.5 70t-7 62.5q0 26 9 43q-69 0 -119 -34t-82.5 -91.5t-46.5 -120.5t-14 -129q0 -150 57 -275t158.5 -212t234.5 -132t279 -45 q96 0 133 17l254 110l8 -55l-361 -211q-107 -21 -186 -21q-179 0 -336.5 40t-267.5 128q-118 94 -184 233t-66 290z" />
<glyph unicode="D" horiz-adv-x="2339" d="M168 760q0 136 58.5 260t166.5 209q118 96 313.5 133t403.5 37q172 0 334.5 -31t299 -102.5t220.5 -198t84 -307.5q0 -234 -135 -449q-140 -108 -281 -199t-293 -171q-68 0 -134.5 15.5t-188.5 53.5q-104 33 -193.5 59t-175 43t-151.5 17q-81 0 -147 -41t-140 -117 l-39 39q59 78 146.5 158t191.5 162q145 0 257 25.5t112 117.5q0 62 -121 172l-35 35q-18 18 -39 43.5t-33 46t-12 39.5q0 77 121 165t241 148l56 -16q-65 -52 -103.5 -88.5t-38.5 -71.5q0 -44 125 -174q40 -42 73.5 -90t33.5 -92q0 -57 -53.5 -113.5t-122 -97.5t-142.5 -76 q46 -7 148.5 -30t215.5 -51.5t171 -43.5q94 -24 172 -24q74 0 138.5 61.5t90.5 138.5q33 92 33 213q0 244 -122 390t-319 204t-437 58q-173 0 -330.5 -45t-261 -152.5t-103.5 -282.5z" />
<glyph unicode="E" horiz-adv-x="1907" d="M260 623q0 195 90 362q94 64 197 122t223 116l94 -37q77 45 172.5 86.5t189 72.5t201.5 60q68 -238 170 -238q42 0 86 11l-12 -45l-268 -76q-12 -4 -21 -4q-22 0 -37 11t-47 46l-131 152q-77 -48 -77 -99q0 -59 38 -196q43 -136 43 -185h9l250 158q72 -122 196 -192 l-192 -111h-29q-13 0 -28 8t-54 34t-66 41t-40 15q-36 0 -56 -16q-38 -84 -173.5 -150t-282.5 -108l-48 28q80 30 145.5 79.5t65.5 109.5q0 86 -26 182q-5 20 -30.5 104.5t-25.5 116.5q0 39 15 78q-62 -10 -113 -50.5t-88.5 -100.5t-55.5 -125.5t-18 -124.5 q0 -176 103 -325.5t268.5 -236.5t339.5 -87q76 0 149 15t138.5 39.5t136.5 63.5l-2 -53l-336 -211q-129 -22 -252 -22q-108 0 -206.5 17.5t-188 53.5t-160.5 92q-120 97 -188 234t-68 285z" />
<glyph unicode="F" horiz-adv-x="1774" d="M139 346q110 57 206 91t185 34q48 0 104 -31t56 -71q0 -27 -9 -69.5t-19 -80.5q-31 -114 -40.5 -159.5t-9.5 -92.5q0 -84 52 -134t137 -50q89 0 161 33.5t114 100t42 157.5q0 54 -56 127t-149 172q-55 57 -109 119.5t-96 128t-42 114.5q0 67 61 132.5t141 115t158 84.5 q-179 75 -286.5 113.5t-180.5 38.5q-114 0 -174 -73.5t-96 -199.5l-58 37q51 198 176.5 306t323.5 108q67 0 140 -17.5t135 -40t161 -61.5q231 -92 285 -92q58 0 219 127l10 -47q-202 -192 -313 -273q-92 2 -248 45q-83 -21 -155 -65t-72 -109q0 -57 48.5 -123t113.5 -131 l325 244q114 -85 176 -174l-174 -145q-28 46 -60.5 74t-78.5 28q-29 0 -63.5 -19.5t-77.5 -50.5q116 -119 189 -211t73 -170q0 -108 -66 -198t-169.5 -153.5t-223.5 -98.5t-217 -35q-319 0 -319 270q0 19 3 46t9 63.5t8 54.5v96q0 53 -26 84t-76 31t-142 -39z" />
<glyph unicode="G" horiz-adv-x="2222" d="M264 649q0 260 103 365l405 203l74 -25q48 31 98.5 59.5t111.5 56t105 44.5l47 -25q-64 -23 -105.5 -76.5t-41.5 -120.5q0 -32 7.5 -76t21 -113t22.5 -116l387 250q-101 25 -167.5 62.5t-90.5 111.5l232 156q40 -79 97 -117.5t142 -38.5q98 0 154 41v-41 q-67 -43 -143.5 -95t-170.5 -120.5t-135 -99.5q86 0 176 -17t168 -57t126 -106t48 -160q0 -77 -27.5 -146.5t-75.5 -129t-111.5 -108.5t-129.5 -81q-85 -41 -171 -87t-132 -79q-167 -22 -231 -22q-211 0 -393 85t-291 246.5t-109 376.5zM518 799q0 -149 59 -275.5t165 -222 t241 -146.5t279 -51q111 0 201 36.5t144 113t54 186.5q0 115 -52.5 191.5t-142.5 112.5t-204 36q-52 0 -146 -12q6 -34 6 -68q0 -78 -45 -117.5t-137 -78.5q-63 -27 -211 -70l-43 29q79 22 117 53l59 117q0 36 -13.5 91t-36.5 127.5t-35.5 119t-12.5 78.5q0 62 29 110 q-49 -6 -97.5 -32.5t-89.5 -67.5q-88 -89 -88 -260z" />
<glyph unicode="H" horiz-adv-x="2054" d="M115 18q67 63 128 115.5t119.5 87.5t102.5 35q104 0 209 -109q55 64 55 138q0 54 -39.5 122t-118.5 183q-63 90 -97 165.5t-34 151.5q0 124 244 326q84 70 254 164q163 -131 270 -131q52 0 112.5 30t154.5 86l6 -49l-303 -229q-49 -12 -103 -12q-88 0 -166.5 29 t-175.5 83q-80 -68 -80 -131q0 -45 24.5 -107.5t60 -125t65.5 -111.5q87 68 176.5 120t216.5 114q31 2 92 2q286 0 367 -80q28 -28 47.5 -103t29 -156t9.5 -130q0 -97 -11.5 -182.5t-36 -172t-63.5 -166.5l-350 -204q-53 -31 -102 -31q-112 0 -211 82l131 143l32 2 q25 -46 62 -77t82 -31q86 0 129 87.5t53 193t10 225.5q0 198 -63 310.5t-248 112.5q-77 0 -155 -30.5t-166 -81.5q114 -195 114 -256q0 -94 -63 -154l-361 -315q-124 110 -209 110q-41 0 -85.5 -23.5t-96.5 -60.5z" />
<glyph unicode="I" horiz-adv-x="1628" d="M170 975q56 104 97 170t96 123.5t127 92t167 34.5q90 0 285 -70q201 -68 244 -68q104 0 252 113l18 -33q-97 -72 -208 -140.5t-218 -117.5q-74 9 -258 58q-128 32 -219 32q-109 0 -180.5 -59t-145.5 -170h-16zM184 4q116 111 336 275l21 -11q38 -72 102 -139 q43 -39 74.5 -54.5t79.5 -15.5q64 0 116.5 46t73.5 110q23 62 23 156q0 24 -27 229q-12 110 -12 164q0 53 10 121q180 178 387 297l51 -23q-73 -49 -127.5 -107.5t-54.5 -121.5q0 -79 14 -148q17 -82 27 -154t10 -143q0 -102 -36 -188.5t-111 -146.5q-119 -94 -253 -147.5 t-274 -53.5q-131 0 -280 96l-121 -72z" />
<glyph unicode="J" horiz-adv-x="1624" d="M84 158q234 147 391 147q141 0 152 -104q2 -13 2 -205q0 -81 49.5 -146t128.5 -65q64 0 113.5 29t76.5 81t27 117q0 106 -78 338q-53 178 -53 287q0 47 10 104q171 195 387 334l53 -20q-57 -47 -96 -90t-65.5 -98t-26.5 -113q0 -95 53 -258q66 -214 66 -324 q0 -139 -86 -244t-219 -161t-264 -56q-148 0 -227 53t-105 191q-4 24 -11.5 67t-21 71t-39 44.5t-70.5 16.5t-125 -33zM244 1040q58 98 122.5 175.5t148 126.5t185.5 49q82 0 246 -107q43 -27 84.5 -50.5t82 -39.5t75.5 -16q74 0 252 63v-43q-109 -49 -225 -91.5t-242 -78.5 q-45 20 -111.5 49t-70.5 31q-76 37 -135 56.5t-119 19.5q-75 0 -134 -46t-120 -126z" />
<glyph unicode="K" horiz-adv-x="1921" d="M145 66l189 174l31 2q13 -35 35.5 -67t52 -54.5t63.5 -22.5q52 0 75 38.5t23 92.5q0 73 -86 263q-32 74 -51 125t-31 107.5t-12 111.5q0 162 250 364q75 60 167 104.5t193.5 67.5t206.5 23q238 0 353 -90q25 -21 41 -39t16 -41l-41 -224l-49 -4q-46 96 -120.5 156 t-170 87.5t-203.5 27.5q-161 0 -283 -63t-122 -210q0 -108 51 -256q86 77 173.5 139t188.5 105t193 43q91 0 132 -40t73 -134q26 -67 44 -93t64 -26q26 0 103 21l-11 -49l-405 -127q5 -1 36 -7.5t73 -16t61 -13.5l98 -303q17 -50 61 -75.5t101 -25.5q64 0 145 49l15 -43 q-246 -196 -383 -196q-100 0 -146.5 66t-66.5 177q-24 149 -82 222q-23 31 -56.5 39t-89.5 8q-86 0 -223 -37q4 -42 4 -66q0 -65 -14 -118q-78 -76 -145 -132t-148 -102.5t-145 -46.5q-53 0 -89.5 11.5t-67 34t-71.5 63.5zM756 643q14 -46 45 -164l485 162q-13 11 -22 29 t-16 40t-13 40q-15 53 -53.5 93t-89.5 40q-102 0 -180.5 -65t-155.5 -175z" />
<glyph unicode="L" horiz-adv-x="1915" d="M168 -10q101 200 254 329q99 0 189.5 35.5t90.5 116.5q0 52 -131 236q-84 116 -84 213q0 82 64.5 161t155.5 152q70 56 160 92.5t188.5 54t208.5 17.5q89 0 151.5 -14.5t99.5 -60.5t37 -136q0 -39 -6 -80q-6 -37 -6 -76q0 -53 34.5 -80.5t86.5 -27.5q33 0 47 2l-18 -31 l-334 -88q-47 0 -78 28.5t-31 73.5q0 26 12.5 89.5t12.5 99.5q0 64 -40.5 107t-100 62t-125.5 19q-70 0 -131 -23.5t-98.5 -72t-37.5 -119.5q0 -55 20 -107t60 -128q90 -156 90 -265q0 -20 -2 -28l-231 -236l305 -88q172 -49 381 -49q145 0 233 64t125 198l43 -20 q-27 -101 -57.5 -181.5t-76.5 -144.5t-117.5 -102.5t-172.5 -38.5q-140 0 -278 28.5t-299 79.5q-109 36 -195 60t-133 24q-43 0 -75.5 -15t-56 -37t-58 -67t-41.5 -53z" />
<glyph unicode="M" horiz-adv-x="2898" d="M160 1028q0 82 188 238q86 67 200.5 100t242.5 33q89 0 165.5 -25.5t137 -79.5t96.5 -131q63 45 127 80t133 56.5t135 21.5q167 0 273 -143q70 57 155.5 107.5t174.5 80t182 29.5q70 0 96.5 -27.5t70.5 -110.5q29 -50 64 -86t78 -36q34 0 96 20l4 -37q-108 -45 -295 -172 q-39 -28 -38 -252q0 -169 36 -353.5t139 -184.5q26 0 132 37l6 -37l-389 -224l-175 199q0 240 2.5 404.5t12.5 236.5q116 121 219 189q-35 11 -57.5 34t-33 46.5t-34.5 80.5q-25 59 -55.5 91t-87.5 32q-75 0 -147 -41.5t-130 -105.5q10 -75 10 -178q0 -99 -6 -175 t-21.5 -153.5t-44.5 -157.5t-73 -153l-369 -338q-106 92 -178 92q-48 0 -73.5 -14t-77.5 -58l-27 41q42 44 78.5 83t77.5 74t84 57t88 22q55 0 157 -76q81 96 109.5 254.5t28.5 339.5q0 89 -21.5 191t-76 173.5t-144.5 71.5q-84 0 -180 -92q22 -101 22 -164 q0 -103 -27 -223.5t-72 -240.5t-97 -208l-478 -317q-104 108 -194 108q-52 0 -90 -21t-92 -67l-33 31q42 43 87 90t91 82.5t97.5 56.5t109.5 21q51 0 99.5 -33.5t92.5 -81.5q129 62 187 246q22 68 32.5 148t10.5 173q0 305 -133 439q-55 55 -128.5 89t-148.5 34 q-95 0 -133 -29q-57 -48 -57 -82q0 -42 63 -107l126 -130q63 -65 63 -107q0 -60 -59.5 -120.5t-137 -107t-152.5 -79.5l-38 33q157 90 157 155q0 26 -30.5 66.5t-77.5 89.5q-125 127 -125 182z" />
<glyph unicode="N" horiz-adv-x="2341" d="M158 1004q0 109 172 249q54 42 123.5 74t148.5 48t152 16q151 0 270.5 -79t171.5 -218l39 -97q47 -158 47 -313q0 -235 -98 -430l-443 -291q-55 -20 -65 -20q-74 0 -142.5 32t-136.5 84l205 203h23q30 -65 82.5 -105t117.5 -40q73 0 123.5 43t67.5 112q18 77 18 181 q0 115 -16 224t-51 202q-35 96 -98 183t-150.5 141t-190.5 54q-67 0 -119.5 -27t-52.5 -89q0 -67 144 -199q108 -96 108 -151q0 -74 -102 -152.5t-225 -142.5l-48 30q142 85 142 156q0 31 -21 55.5t-59 57.5q-137 127 -137 209zM1196 1094q144 137 272 214.5t277 77.5 q136 0 178 -65q20 -38 44 -84.5t54.5 -82.5t61.5 -36q62 0 112 19l13 -29q-186 -94 -283 -170q-29 -125 -29 -260q0 -185 23 -322q6 -32 22 -63.5t31 -51t53 -67.5q25 -31 52 -31q17 0 135 47l4 -40q-187 -114 -389 -211q-53 81 -174 223v598q96 106 221 203q-46 0 -81 34.5 t-58 83.5q-30 62 -47 92.5t-49 56t-76 25.5q-47 0 -112 -42.5t-123.5 -101.5t-92.5 -105z" />
<glyph unicode="O" horiz-adv-x="2329" d="M127 8l195 225q65 13 118 31t93 52.5t40 89.5q0 91 -149 264q-42 49 -67 81t-44 67t-20 65q77 109 167 195t193 139l35 -29q-60 -34 -99.5 -75t-39.5 -93q0 -28 33.5 -83t97 -145t99.5 -147t36 -82q0 -61 -75 -140.5t-160 -150.5h6q45 0 110 -13t107 -24t139 -38t150 -41 q119 -29 187 -41.5t140 -12.5q91 0 165 80.5t108 179.5q45 131 45 306q0 216 -79 326t-215.5 146t-355.5 36q-39 0 -115 2t-116 2q-55 0 -84 -2l-37 61l219 240l56 6q-23 -37 -23 -62q0 -51 266 -51q97 0 209 -17.5t217 -53t170 -87.5q61 -48 98.5 -120.5t52.5 -154.5 t15 -167q0 -133 -44.5 -260t-129.5 -240q-116 -88 -238 -161.5t-253.5 -122.5t-247.5 -49q-66 0 -130.5 10t-132 27t-143.5 40q-85 25 -152.5 41.5t-119.5 16.5q-126 0 -252 -111z" />
<glyph unicode="P" horiz-adv-x="2329" d="M172 1008q0 122 199 278q151 123 364 123q62 0 126.5 -17t121.5 -50.5t100.5 -80.5t67.5 -108q334 240 580 240q64 0 98.5 -15.5t50 -47t29.5 -101.5q10 -61 48 -110.5t93 -49.5q35 0 80 10l22 -35q-335 -139 -335 -233q0 -43 19.5 -82.5t61.5 -95.5q55 -72 86 -122 t31 -91q0 -80 -43.5 -146t-120.5 -143q-51 -51 -102.5 -88t-111.5 -60.5t-121 -23.5q-81 0 -150 19.5t-180 62.5q0 -166 31 -330l-312 -168l-57 31q27 77 39 165t15 170t3 197q-128 50 -186 50q-77 0 -159.5 -53.5t-149.5 -127.5l-33 39q37 52 87 119t101.5 118t113 82.5 t132.5 31.5q29 0 45 -3q13 -2 25.5 -3t23.5 -3q0 66 -2 199t-2 199q0 153 -43 262q-38 104 -122.5 179t-190.5 75q-58 0 -113 -38t-55 -91t125 -164q51 -43 94 -87.5t43 -76.5q0 -114 -358 -309l-50 31q148 85 148 170q0 26 -37 69.5t-72 75.5q-34 32 -54.5 51t-32 44 t-11.5 63zM1186 287q52 -18 118 -42.5t159.5 -54.5t155 -44.5t103.5 -14.5q47 0 75 28t28 74q0 45 -39.5 100.5t-85.5 106.5q-70 83 -102.5 127t-32.5 76q0 52 75 122.5t170 139.5q-73 10 -102.5 21.5t-41 41.5t-11.5 99q0 182 -156 182q-76 0 -129.5 -28.5t-93 -72.5 t-90.5 -116v-745z" />
<glyph unicode="Q" horiz-adv-x="2329" d="M127 8l195 225q65 13 118 31t93 52.5t40 89.5q0 91 -149 264q-42 49 -67 81t-44 67t-20 65q77 109 167 195t193 139l35 -29q-60 -34 -99.5 -75t-39.5 -93q0 -28 33.5 -83t97 -145t99.5 -147t36 -82q0 -61 -75 -140.5t-160 -150.5h6q45 0 110 -13t107 -24t139 -38t150 -41 q119 -29 187 -41.5t140 -12.5q91 0 165 80.5t108 179.5q45 131 45 306q0 216 -79 326t-215.5 146t-355.5 36q-39 0 -115 2t-116 2q-55 0 -84 -2l-37 61l219 240l56 6q-23 -37 -23 -62q0 -51 266 -51q97 0 209 -17.5t217 -53t170 -87.5q61 -48 98.5 -120.5t52.5 -154.5 t15 -167q0 -133 -44.5 -260t-129.5 -240q-96 -71 -190 -133q163 -137 256 -137q82 0 188 33v-43q-286 -135 -354 -162q-214 74 -367 170q-138 -61 -272 -61q-89 0 -174 17.5t-232 57.5q-86 27 -153 43.5t-119 16.5q-115 0 -244 -111z" />
<glyph unicode="R" horiz-adv-x="2331" d="M170 1006q0 72 45.5 132t118.5 117q87 71 194 112.5t222 41.5q74 0 144 -17t132 -50.5t110.5 -83.5t75.5 -117q115 109 243 183.5t253 74.5q104 0 149.5 -48t59.5 -151q10 -88 35.5 -123t107.5 -35q12 0 36 4t44 7l12 -29q-51 -20 -143 -57.5t-176.5 -77.5t-136.5 -70 q125 -32 207 -69q-5 -120 -5 -142q0 -114 17 -213q13 -71 55 -127q45 -54 57 -67t37.5 -24t65.5 -11q36 0 92 29l4 -48l-373 -204q-29 57 -73.5 120t-118.5 158q0 242 -6 285q-7 71 -43 102q-92 74 -252 74q-86 0 -127 -10q-34 -192 -166 -398l-481 -331q-126 114 -189 114 q-58 0 -174 -90l-35 31q70 65 135.5 121t130 95.5t107.5 39.5q62 0 191 -117q87 60 121 105t59 143q19 74 27 156.5t8 187.5q0 64 -8 118.5t-25 107.5t-45.5 102t-69.5 88q-52 55 -122.5 88t-143.5 33q-52 0 -115 -34t-63 -79q0 -26 25 -60.5t57.5 -68t58.5 -57.5 q117 -106 117 -168q0 -50 -37 -95.5t-94 -83t-125.5 -70.5t-100.5 -48l-40 33q149 79 149 155q0 56 -90 133q-125 109 -125 183zM1237 731q77 20 138.5 40t111 38t152.5 60.5t159 66.5q-72 0 -100 40.5t-43 121.5q-13 76 -35.5 120t-81.5 44q-90 0 -168.5 -72t-128.5 -168 q4 -70 4 -107q0 -60 -8 -184z" />
<glyph unicode="S" horiz-adv-x="2333" d="M281 623q0 172 78.5 308.5t210.5 231.5t289.5 153t320.5 83q54 -18 168.5 -68t173.5 -73.5t134.5 -44.5t139.5 -21q70 0 132 45t91 111l41 -41q-35 -87 -120.5 -157.5t-192 -109.5t-199.5 -39q-38 0 -70 11.5t-85 36.5l-285 137q-124 59 -193 59q-82 0 -153.5 -39.5 t-120 -105t-74.5 -145.5t-26 -160q0 -165 61.5 -297.5t174 -226t253.5 -140.5t303 -47q80 0 175.5 17.5t181 54.5t142 100.5t56.5 149.5q0 93 -63 149.5t-152.5 80t-179.5 23.5q-66 0 -111.5 -6.5t-167.5 -27.5q-105 -21 -180 -33t-90 -12q-104 0 -179 45t-75 139 q0 74 55.5 138.5t137 102t153.5 37.5l23 -20q-46 -14 -87.5 -58t-41.5 -87q0 -73 53 -94t139 -21q132 0 303 24q48 7 100 18t97.5 18t91.5 7q95 0 177.5 -32t131 -99t48.5 -166q0 -186 -220 -360q-97 -79 -223.5 -132t-264.5 -78t-286 -25q-154 0 -298 45t-256.5 133 t-177 217t-64.5 291z" />
<glyph unicode="T" horiz-adv-x="1923" d="M168 928q0 131 110.5 237t269.5 165t286 59q86 0 403 -50q185 -28 324 -28q127 0 268 92l16 -49l-270 -248q-91 -27 -201 -27q-100 0 -270 27q-56 -26 -91.5 -72t-35.5 -104q0 -77 141 -201q69 -58 122.5 -114t53.5 -99q0 -53 -67.5 -116t-171.5 -144 q129 -53 200.5 -78.5t122.5 -25.5q59 0 123 29t164 85l23 -47q-156 -134 -394 -280q-78 0 -153 19.5t-172 55.5q-87 35 -150.5 53.5t-116.5 18.5q-97 0 -156 -27t-159 -98l-12 45q215 180 413 268q132 0 195 -2q66 55 66 115q0 55 -156 184q-70 63 -111.5 109t-62.5 98 q54 97 128.5 184t166.5 160q-402 72 -486 72q-71 0 -141 -29.5t-70 -91.5q0 -102 152 -180l4 -21l-180 -139q-54 40 -89.5 90t-35.5 105z" />
<glyph unicode="U" horiz-adv-x="2054" d="M137 16l232 222q136 26 232.5 85.5t96.5 174.5q0 67 -37.5 138.5t-91.5 143.5q-13 20 -39 58.5t-46 73.5t-32 64.5t-12 51.5q0 31 4 47q170 219 381 332l52 -33q-64 -35 -115 -80t-51 -96q0 -50 19 -102t56 -117q123 -203 123 -365q0 -53 -18 -106l-254 -258 q65 -9 278 -72q178 -49 246 -49q41 0 92.5 24t88 64t36.5 84q5 103 10 211t5 201q0 120 -7.5 250t-21.5 256q53 18 130.5 50.5t156 73t121.5 64.5l36 -31q-62 -47 -93 -101.5t-44 -137.5q-16 -136 -16 -357q0 -124 2.5 -217t7.5 -155q6 -46 35 -105q20 -39 40 -72t46.5 -56 t60.5 -23q24 0 140 36l8 -38l-434 -230l-154 254l-277 -217q-13 -3 -40.5 -10.5t-46.5 -12t-31 -4.5q-63 0 -122 14.5t-159 47.5q-258 86 -358 86q-82 0 -191 -96z" />
<glyph unicode="V" horiz-adv-x="2339" d="M158 1008q0 56 64 133.5t124 124.5q84 66 190 101.5t224 35.5q94 0 179 -32.5t146 -97.5t86 -157q40 40 145.5 111t160.5 100q60 35 106 53.5t96 18.5q55 0 117.5 -23t128.5 -59q103 -60 139 -60q76 0 134 17l2 -39q-102 -57 -181.5 -137t-79.5 -170q0 -119 9 -164 l37 -195q16 -75 16 -139q0 -70 -23 -122.5t-64 -96.5t-79.5 -71t-118.5 -83q-164 -114 -305 -114q-131 0 -418 127q-251 106 -364 106q-72 0 -148.5 -34.5t-161.5 -92.5l-26 37q115 91 360 248q111 24 170.5 85.5t79 148.5t19.5 206q0 88 -20 176.5t-63 161.5t-111.5 117.5 t-164.5 44.5q-35 0 -76 -16t-70.5 -43.5t-29.5 -61.5q0 -77 117 -174q28 -24 59.5 -52t53.5 -56t22 -50q0 -58 -62.5 -117t-134 -100t-170.5 -92l-41 39q21 13 46.5 28.5t54 39.5t44 45.5t15.5 42.5q0 38 -117 145q-62 65 -89 97.5t-27 58.5zM852 354q61 -1 189 -46 t274 -103q56 -23 112.5 -43t109 -33.5t97.5 -13.5q61 0 86 31.5t25 93.5q0 37 -10 82l-49 264q-11 50 -11 125q0 61 3 91t17 58.5t44 63.5q68 68 172 153q-105 0 -238 72q-133 74 -203 74q-104 0 -272 -211q4 -58 4 -90q0 -222 -96 -387z" />
<glyph unicode="W" horiz-adv-x="2890" d="M160 1012q0 59 55 122t139 134q52 42 120 70t142 41.5t154 13.5q143 0 264.5 -66.5t175.5 -191.5q46 31 120 76.5t167.5 100.5t142.5 83l179 -250q80 65 152 116.5t155 91.5t151 40q88 0 220 -68q128 -65 213 -65q20 0 81 14l5 -35q-118 -94 -207.5 -188t-89.5 -170 q0 -26 10.5 -74.5t27.5 -116.5q46 -172 46 -262q0 -155 -60 -217l-391 -242q-83 -26 -160 -26q-84 0 -237 51q-220 69 -385 86q-151 -67 -265 -133q-14 -1 -28 -2.5t-31.5 -3.5t-26.5 -2q-74 0 -148 23t-167 65q-147 65 -215 65q-115 0 -264 -121l-29 45q76 68 156.5 126.5 t206.5 144.5q12 -2 34 -2q72 0 140 29.5t116 78.5q129 129 129 412q0 118 -43 223t-130 168.5t-207 63.5q-80 0 -149 -26t-69 -93q0 -47 125 -162q129 -116 129 -176q0 -93 -93.5 -164.5t-225.5 -136.5l-55 30q66 37 108.5 73t42.5 85q0 48 -90 127q-141 128 -141 195z M754 268q12 -4 215 -86q91 -35 145.5 -51t112.5 -16q20 0 62 16t97.5 41t75.5 33q64 51 99 136t48 181t13 189q0 153 -31 260q-26 87 -69 131t-131 86q-50 -33 -89.5 -69.5t-64.5 -80.5q2 -26 2 -82q0 -331 -190 -534zM1628 279q93 -20 402 -125q107 -37 192 -37 q58 0 79 33.5t21 93.5q0 84 -43 260q-45 194 -45 272q0 30 9 64q155 168 270 241q-16 -6 -64 -6q-22 0 -49.5 10.5t-76 33t-52.5 24.5q-65 27 -107.5 41t-84.5 14q-115 0 -234 -127q27 -105 27 -225q0 -217 -98 -418z" />
<glyph unicode="X" horiz-adv-x="2052" d="M172 43l176 166q136 -109 236 -109q77 0 192 93q70 54 107 172q37 119 37 278q-161 0 -260.5 -0.5t-194.5 -5.5l141 115q90 -4 318 -4q0 135 -27 235q-25 90 -89 147.5t-155 57.5q-58 0 -111.5 -20t-95.5 -54l-90 -78l-39 41q156 153 377 312q92 0 191 -39.5t168.5 -112 t83.5 -164.5q204 233 483 320q47 -94 89.5 -140.5t117.5 -46.5q48 0 84 8l4 -34l-285 -131q-138 46 -235 178q-232 -225 -232 -479q151 0 260.5 1.5t161.5 4.5l-139 -111h-293q0 -138 49.5 -257.5t150 -191t240.5 -71.5q48 0 101.5 16.5t144.5 50.5l-6 -53 q-92 -52 -287 -186q-135 -23 -139 -23q-85 0 -148 27t-112 76t-83.5 107.5t-72.5 146.5q-67 -59 -177.5 -143t-216.5 -147t-163 -63q-46 0 -98 25t-164 86z" />
<glyph unicode="Y" horiz-adv-x="2343" d="M176 4q108 102 182.5 166.5t161.5 122.5q15 0 23.5 -0.5t17.5 -1.5q185 0 279 94q39 40 59.5 113.5t27.5 155t7 159.5q0 75 -26 158t-73 149t-115 108t-147 42q-66 0 -120 -30t-54 -93q0 -42 31.5 -79.5t97.5 -100.5q123 -103 123 -152q0 -60 -84 -127 q-161 -122 -272 -184l-53 41q49 26 79 44.5t54 48.5t24 69q0 41 -98 122q-125 114 -125 183q0 106 172 243q173 140 432 140q76 0 146.5 -23.5t126.5 -68.5q41 -33 67.5 -80.5t55.5 -114.5q89 63 171 118t163.5 100.5t164.5 80.5q61 -62 132.5 -109.5t152.5 -85.5 q21 -138 36 -270t15 -250q0 -392 -178 -735q-112 -114 -242.5 -202.5t-279 -140.5t-297.5 -52q-218 0 -357 110l111 199l31 -6q32 -77 74 -122t101.5 -64t143.5 -19q245 0 381 136t184 341.5t48 456.5q0 188 -31 326q-26 114 -87 176.5t-173 62.5q-126 0 -238 -135 q8 -37 8 -113q0 -131 -29.5 -244.5t-101.5 -207.5q-146 -83 -291 -189q37 -6 201 -67q103 -41 182 -41q50 0 112 35t130 84l17 -43q-188 -205 -359 -293q-90 13 -170.5 38.5t-191.5 67.5q-137 51 -193 51q-139 0 -299 -137z" />
<glyph unicode="Z" horiz-adv-x="1751" d="M92 154q241 141 363 141q80 0 118.5 -30.5t47 -79t8.5 -140.5q0 -252 229 -252q105 0 203 94q108 108 108 336q0 209 -96.5 289t-304.5 80q-81 0 -193 -14l-22 18l96 139l-24 4l34 41q104 0 178 16.5t119 70.5t45 157t-88.5 155t-199.5 52q-55 0 -104.5 -10t-93.5 -29.5 t-81 -48.5q-31 -25 -45.5 -35.5t-44.5 -34.5l-39 51q170 142 320 238q126 22 243 22q105 0 198.5 -18.5t160.5 -73.5t67 -153t-59 -181.5t-152.5 -136t-187.5 -63.5v-10q152 0 278.5 -36.5t205.5 -129.5t79 -248q0 -133 -51 -248.5t-150 -194.5q-110 -88 -251 -140t-287 -52 q-160 0 -250.5 62t-112.5 216q-12 94 -32 129t-99 35q-53 0 -121 -35z" />
<glyph unicode="[" horiz-adv-x="764" d="M180 -266v1779q101 -8 412 -8v-51l-303 -24v-1618l303 -15v-41q-161 0 -412 -22z" />
<glyph unicode="]" horiz-adv-x="764" d="M133 -211l311 23v1618l-311 18v49q72 0 142 0.5t141 2.5t137 9v-1777q-159 16 -420 16v41z" />
<glyph unicode="^" horiz-adv-x="1489" d="M102 948l643 553l627 -508l-100 -55l-533 436l-577 -450z" />
<glyph unicode="a" horiz-adv-x="1516" d="M274 270q0 226 45 480q107 44 216 100t213 115q106 -41 272 -66l145 57l17 -14q-26 -96 -31.5 -184t-5.5 -226q0 -132 8 -239l111 -129l102 41l12 -37l-315 -227q-71 99 -156 170l-2 53l-405 -230q-108 84 -221 216q-5 67 -5 120zM524 473q0 -64 8 -190 q120 -112 177 -148l194 88l-6 525q-67 0 -140.5 12t-172.5 35q-38 -55 -49 -138t-11 -184z" />
<glyph unicode="b" horiz-adv-x="1489" d="M289 145q14 121 19.5 227t7 210t1.5 258q0 299 -28 518q7 5 15 9.5t15.5 7.5t12.5 3l55 -159q60 34 82 46.5t81.5 46t109 58t90.5 41.5l45 -22q-141 -75 -189.5 -176t-48.5 -271q0 -28 2 -85t2 -85l328 195q34 -16 86 -37t115 -45t102 -39q6 -102 6 -205q0 -252 -41 -444 q-93 -49 -192.5 -97.5t-198.5 -90.5t-199 -75q-180 121 -278 211zM566 548v-170t1 -108q29 -22 86 -60t107 -62t102 -37q80 150 80 401q0 101 -12 203l-213 65l-151 -69v-163z" />
<glyph unicode="c" horiz-adv-x="1214" d="M293 446q0 28 2 80t4 79t7.5 69t12.5 74l424 219q165 -28 281 -90l-168 -197h-22q-108 89 -224 123h-22l-13 -19q-26 -97 -26 -233q0 -80 12 -236q143 -120 219 -168l232 84v-41q-71 -40 -122 -69.5t-132 -76.5t-109 -62t-65 -35q-130 87 -283 233q-8 172 -8 266z" />
<glyph unicode="d" horiz-adv-x="1485" d="M100 1137q46 24 93.5 45t99 41t106 39t86.5 30q316 -68 711 -321q16 -122 16 -223q0 -277 -96 -527q-47 -36 -120.5 -82t-181 -107t-159.5 -91q-207 107 -358 233q0 39 -0.5 62t-1.5 51q0 228 31 413q125 107 338 238l47 -20q-27 -18 -131 -113q-35 -122 -35 -291 q0 -93 10 -213q136 -108 291 -166q43 65 67 147t32.5 169.5t8.5 177.5q0 92 -10 209q-159 121 -324.5 212t-293.5 91q-89 0 -185 -33z" />
<glyph unicode="e" horiz-adv-x="1233" d="M279 397q0 192 28 359q158 79 284.5 141.5t133.5 65.5q98 -78 164.5 -127t144.5 -95q-79 -64 -241.5 -177.5t-282.5 -194.5l2 -66q104 -77 258 -164q27 11 113 39t125 43l20 -33q-266 -161 -428 -245q-83 51 -157 107t-154 126q-10 123 -10 221zM508 457 q42 28 107.5 65.5t111.5 66.5t78 56q-206 120 -248 154q-49 -194 -49 -324v-18z" />
<glyph unicode="f" horiz-adv-x="1051" d="M178 727l107 90h94q-33 109 -48.5 177t-15.5 141q66 75 142.5 144.5t154.5 127.5q58 -40 96.5 -59t77.5 -19q51 0 101 33l24 -25l-188 -174q-121 0 -248 35q5 -46 24 -87.5t62 -117.5q65 -106 90 -176h250l-78 -90h-168q0 -403 -51 -782q-131 -232 -256 -398h-47l51 123 q25 60 37 143.5t14.5 167.5t2.5 203q0 250 -13 543h-215z" />
<glyph unicode="g" horiz-adv-x="1499" d="M137 -281l348 234l-182 190q-12 114 -12 232q0 69 5 133t15 123.5t27 116.5q52 30 113.5 62.5t110 58t80.5 40.5t122 58q192 -83 278 -97l189 80l26 -8q-23 -44 -40 -106t-24.5 -125t-10 -132.5t-2.5 -105.5q0 -74 14 -146.5t44 -193t40 -178.5q-205 -205 -438 -375 q-46 -4 -68 -4q-83 0 -172 20t-176 56.5t-164 79.5l-74 -39zM512 -106q138 -70 230 -109t145 -39q69 0 91.5 18t22.5 84q0 82 -69 316zM557 483q0 -112 14 -213q64 -58 100.5 -85.5t86.5 -49.5q139 66 178 94q-2 45 -2 133q0 114 12 338q-89 14 -151 34t-203 71 q-35 -150 -35 -322z" />
<glyph unicode="h" horiz-adv-x="1544" d="M295 127q33 458 33 754q0 251 -21 475l41 18l51 -155q287 160 338 186l47 -31q-202 -75 -202 -338q0 -60 -1 -96.5t-2 -74t-1 -95.5q113 59 311 193q153 -75 309 -125q6 -142 6 -285q0 -398 -49 -616q-37 -41 -82 -84.5t-113 -102.5t-103 -87.5t-105 -86.5l-80 43 q78 36 176 119q30 23 43.5 56t28.5 83q24 85 31 171t7 198q0 190 -24 442q-126 63 -221 82l-135 -61q-13 -116 -13 -242q0 -120 10 -205q41 -57 119 -139q-60 -31 -125 -77t-127 -95q-62 91 -147 176z" />
<glyph unicode="i" horiz-adv-x="926" d="M106 780q183 110 297 195q24 -19 177 -113q-11 -184 -11 -350q0 -116 6 -229q0 -25 35 -70t58 -45q2 0 20 6l115 39l10 -35q-138 -81 -352 -231q-34 45 -101 108l-59 60q23 174 23 364q0 102 -11 269l-82 43l-84 -35zM260 1253l199 150q87 -91 170 -148l-174 -153 q-74 48 -195 151z" />
<glyph unicode="j" horiz-adv-x="928" d="M61 -385q88 50 149 95t102.5 109t41.5 144q6 72 8.5 193.5t2.5 285.5q0 185 -7 226q-11 108 -102 108l-80 -35l-55 29l293 207q34 -23 98.5 -56.5t95.5 -52.5q10 -190 10 -342q0 -73 -2 -142.5t-9 -151.5t-17.5 -156t-24.5 -135q-193 -181 -420 -357zM264 1247l176 148 q23 -21 85 -70.5t87 -71.5l-174 -149q-118 87 -174 143z" />
<glyph unicode="k" horiz-adv-x="1214" d="M174 631l109 78h69q0 86 -0.5 158.5t-2.5 176t-6.5 183.5t-12.5 131l45 16l59 -153q123 88 324 174l41 -27q-80 -36 -122.5 -83t-58.5 -109t-16 -152q70 44 299 170q131 -137 131 -211q0 -45 -59 -102l-174 -172h192l-84 -78h-313q0 -81 14 -352l197 -140l217 84l18 -39 q-49 -32 -430 -235q-190 146 -280 196q4 33 8 91q1 43 3 120t4 154.5t3 120.5h-174zM602 709h70q44 0 103 66t59 116q0 70 -84 162q-65 -35 -93.5 -68.5t-42.5 -101.5q-12 -70 -12 -174z" />
<glyph unicode="l" horiz-adv-x="938" d="M322 113q13 117 17.5 233.5t4.5 280.5q0 203 -18 714l41 25l49 -152q139 90 327 179l25 -19q-67 -42 -100 -79t-54 -105q-20 -72 -24 -195q-4 -208 -4 -317q0 -276 20 -449l58 -61l116 41v-37l-321 -221z" />
<glyph unicode="m" horiz-adv-x="2208" d="M137 772l295 201q72 -63 168 -115l-8 -104q183 95 326 211q186 -86 303 -115l-9 -82l322 193q162 -67 313 -107q-32 -153 -32 -348q0 -112 10 -252q10 -14 30 -38.5t38 -41t32 -16.5q5 0 25 10l98 39l8 -47q-91 -50 -169.5 -99.5t-186.5 -121.5q-69 88 -164 182 q31 86 31 315q0 60 -0.5 77t-2 76t-3.5 113q-100 41 -207 68l-146 -53q-8 -99 -8 -225q0 -74 4 -226l123 -147l-258 -176l-129 166q23 110 23 319q0 154 -7 281q-62 22 -194 55l-164 -51q-2 -45 -2 -140q0 -158 12 -317l119 -150l-248 -169q-93 130 -143 184q16 123 16 295 q0 109 -8 313l-78 55l-100 -39z" />
<glyph unicode="n" horiz-adv-x="1626" d="M109 778l284 191q104 -73 176 -103l-2 -98q92 47 176 99.5t152 101.5q65 -32 131.5 -58t187.5 -71q-22 -195 -22 -426q0 -97 2 -146l102 -104l123 51l4 -35q-119 -69 -331 -233q-36 47 -172 192q24 129 24 310q0 88 -8 256q-87 38 -213 69l-158 -53l2 -457l133 -137 l-243 -184q-103 105 -168 155q22 71 22 240q0 131 -18 412l-49 43l-94 -43z" />
<glyph unicode="o" horiz-adv-x="1530" d="M334 258q0 111 12 232t35 251q205 100 453 244q162 -95 385 -147q2 -50 2 -148q0 -333 -54 -508q-237 -146 -514 -252q-203 115 -315 203q-4 86 -4 125zM592 487q0 -104 16 -219q82 -59 155.5 -97t158.5 -58q59 209 59 442q0 95 -8 168q-167 21 -316 76 q-40 -62 -52.5 -139.5t-12.5 -172.5z" />
<glyph unicode="p" horiz-adv-x="1518" d="M100 16q121 105 175 148t75 43q3 0 5 -4t3 -4v534q-96 104 -112 160q51 67 108.5 126t124.5 120l45 -13q-43 -43 -43 -86q0 -62 129 -168v-81l312 194q164 -79 311 -125q0 -2 -3 -3t-3 -3q4 -114 4 -168q0 -301 -66 -514q-157 -79 -327 -211q-101 69 -228 84 q0 -159 19 -375l-244 -94l-39 10l12 480q-117 0 -233 -84zM610 266q161 -22 330 -100q33 184 33 348q0 109 -15 199q-94 38 -219 71l-129 -47v-471z" />
<glyph unicode="q" horiz-adv-x="1501" d="M291 289q0 217 57 471l424 217q142 -53 272 -74l152 88l27 -12q-24 -79 -36.5 -177t-19.5 -219.5t-8.5 -232t-1.5 -266.5q0 -185 19 -432l-244 -84l-41 20q29 229 29 525v47l-410 -221l-213 211q-6 70 -6 139zM551 424q0 -82 2 -123q34 -42 72 -80t88 -76q129 39 200 80 q0 353 13 506q-143 13 -320 57q-19 -33 -30 -76.5t-16.5 -96.5t-7 -94t-1.5 -97z" />
<glyph unicode="r" horiz-adv-x="1204" d="M129 780l301 185l186 -125l2 -62l232 183q16 -22 38 -51.5t40.5 -50t41 -35.5t42.5 -15l78 18v-22q-67 -58 -224 -152l-2 -3q-2 -3 -4 -3q-25 4 -62 20t-59 33l-82 62q-49 -47 -49 -277q0 -31 2 -77.5t4 -108.5q0 -24 35 -59l135 -97l193 64l2 -43l-377 -217 q-86 80 -270 209q30 106 30 286q0 126 -12 252q-56 56 -102 82l-94 -24z" />
<glyph unicode="s" horiz-adv-x="1341" d="M51 53l273 203q72 12 112 12q90 0 359 -186q12 73 12 149t-10 168q-66 62 -125 62q-48 0 -120 -31.5t-183 -87.5q-33 29 -66 72.5t-33 72.5v285l406 209l143 -78q54 -29 125 -29q44 0 84.5 18t106.5 56l14 -45l-311 -203q-104 0 -308 138q-18 -75 -18 -148 q0 -114 55 -194q138 35 342 122q66 -28 135 -73q19 -117 19 -205q0 -135 -41 -248q-121 -40 -232 -81.5t-194 -80.5q-85 68 -168 111t-166 43q-87 0 -188 -64z" />
<glyph unicode="t" horiz-adv-x="1061" d="M197 733l2 19l100 75h84v303l340 195l49 -16l-102 -88l-25 -394h225l-2 -12l-106 -80h-127q0 -76 0.5 -148.5t2.5 -149t9 -161.5q0 -26 28.5 -51.5t75 -50.5t64.5 -35l164 74l8 -41l-387 -227q-125 112 -229 178q3 42 6 110.5t4.5 148.5t1.5 176v175h-186z" />
<glyph unicode="u" horiz-adv-x="1485" d="M123 774l291 191q3 -3 47.5 -35t120.5 -84q8 -214 8 -316q0 -220 -76 -317q82 -16 256 -86l145 55q5 103 5 193q0 142 -13 491l262 90l33 -18q-16 -91 -25 -196t-11.5 -194t-2.5 -226l88 -156l21 -4l129 45l12 -27l-344 -246l-131 201q-94 -35 -181 -82t-196 -114 q-62 43 -142 79t-171 68q62 58 87 160t25 213q0 62 -12.5 131.5t-30.5 136.5l-90 57l-75 -39z" />
<glyph unicode="v" horiz-adv-x="1520" d="M223 862q0 29 24 64t53 64t68 62.5t74 63.5l43 -8q-39 -48 -39 -86q0 -24 24.5 -56.5t58.5 -65t53 -50.5l-4 -59l317 182l303 -125q6 -99 6 -197q0 -155 -15.5 -277.5t-66.5 -209.5l-551 -221q-52 51 -121.5 102t-140.5 90q11 43 15 118t4 181q0 113 -13 291 q-50 55 -71 82.5t-21 54.5zM578 311q0 -28 8 -42.5t30 -35.5q29 -24 118.5 -71t113.5 -47q10 0 22 6.5t15 15.5q33 86 48 185t15 215q0 89 -6 176q-95 45 -215 82l-149 -58v-426z" />
<glyph unicode="w" horiz-adv-x="2200" d="M221 874l4 10q4 10 4 13q87 97 129 141t91 84l34 -6q-32 -42 -32 -96q0 -22 26.5 -53t67.5 -66t53 -45v-76q55 31 164 99.5t133 83.5q73 -39 153.5 -73.5t163.5 -64.5v-69l365 205q137 -69 297 -125q0 -218 -22.5 -418.5t-90.5 -302.5q-294 -108 -448 -183 q-112 66 -201 108.5t-186 63.5q26 85 26 375q0 70 -0.5 111t-1.5 90q-64 41 -209 90l-147 -45q-6 -88 -6 -180q0 -36 1.5 -88.5t5.5 -122.5t7 -103l111 -129l-238 -163q-59 73 -96 114t-82 68q27 64 34 139t7 184q0 142 -12 283l-80 80q-25 24 -25 67zM1206 446 q0 -167 45 -198q34 -22 141.5 -70.5t127.5 -48.5q24 0 48 92.5t31 149.5q19 132 19 315q-77 37 -232 82l-165 -63q-15 -145 -15 -259z" />
<glyph unicode="x" horiz-adv-x="1204" d="M121 -184q0 29 10 59q136 176 248 268q14 88 14 283q0 149 -8 266l-6 15l-17 22l-98 49l-86 -33l-33 25q221 152 308 193l198 -119v-74l244 184q26 -30 42.5 -49.5t40.5 -46t42.5 -44t40.5 -38.5l-152 -133q-29 4 -94.5 38.5t-95.5 57.5q-6 4 -19 4q-55 0 -55 -211 q0 -196 6 -262q11 -14 21 -30l155 -103l191 68l4 -37l-389 -227l-199 149q-59 -9 -105 -60t-46 -108q0 -123 333 -176l2 -18l-200 -113q-297 73 -297 201z" />
<glyph unicode="y" horiz-adv-x="1487" d="M233 883q0 23 25 57.5t60 70t79 76t58 52.5l39 -9q-37 -39 -37 -79q0 -44 39 -87t108 -100v-78l303 189q136 -70 307 -133q0 -95 -3.5 -205t-7 -190.5t-6.5 -176t-3 -190.5q0 -58 -33.5 -109.5t-89.5 -105.5q-119 -110 -219.5 -187.5t-208.5 -130.5l-80 47q82 36 142 64 t98.5 62t66 89.5t45.5 149.5q37 188 37 414q0 133 -14 319q-123 65 -211 86l-127 -51v-438q0 -49 16 -68q12 -13 42.5 -51.5t52.5 -60.5l-226 -166q-43 48 -95 98t-91 82q27 77 34 228t7 374q0 6 -3 12.5t-5 12.5q-47 41 -73 71.5t-26 61.5z" />
<glyph unicode="z" horiz-adv-x="1208" d="M84 -233q77 102 164.5 198t182.5 181.5t198 158.5q-47 31 -118.5 46.5t-170.5 27.5l-2 18l201 133q75 49 75 95q0 36 -31 68t-74.5 49.5t-78.5 17.5q-67 0 -186 -82l-33 31q89 73 171.5 128.5t203.5 127.5q88 -28 170 -88t82 -132q0 -28 -70 -83l-139 -121 q130 -39 258 -103q37 -158 37 -286q0 -186 -70 -363l-338 -227q-156 0 -266 42t-166 163zM324 -94q0 -50 51 -91.5t120 -64t117 -22.5h11q26 55 34.5 121t8.5 151q0 92 -15 246q-150 -116 -238.5 -196t-88.5 -144z" />
<glyph unicode="}" horiz-adv-x="758" d="M125 1341q0 80 88 80q29 0 57.5 -11t28.5 -32v-106l-53 -389h-58l-49 311q-14 86 -14 147zM430 1364q0 49 98 49q76 0 76 -39q0 -65 -4 -94l-47 -397h-53l-58 393q-12 87 -12 88z" />
<glyph unicode="&#xa2;" horiz-adv-x="1483" d="M242 1169q40 13 109 44.5t115.5 48.5t96.5 26q273 -26 645 -295q9 -128 9 -174q0 -158 -25 -309t-78 -303q-371 -214 -475 -262q-166 102 -328 229q-12 132 -12 266q0 168 23 303q68 53 151 100.5t199 106.5l33 -18l-93 -72q-63 -48 -63 -309q0 -46 1.5 -77.5t7 -72.5 t17 -72.5t31.5 -54.5q77 -72 240 -155q66 90 86 229.5t20 306.5q0 73 -8 219q-77 60 -183 125.5t-213 109.5t-188 44q-43 0 -90 -12z" />
<glyph unicode="&#xa3;" horiz-adv-x="1061" d="M182 752l99 75h110v224q0 67 13 124t49 93l59 58q20 21 38 34.5t42 24.5t72 26q110 -3 247 -70l72 39l4 -43l-231 -204q-132 88 -168 88q-51 0 -94 -24.5t-43 -70.5q0 -41 24.5 -78.5t66 -79t81.5 -80t49 -61.5h272v-14l-104 -80h-178q0 -256 -14 -477.5t-66 -323.5 l-217 -362l-56 -4q63 168 78.5 241.5t15.5 229.5v704h-215z" />
<glyph unicode="&#xa4;" horiz-adv-x="1049" d="M180 735l105 82h102q-33 97 -65 244q29 105 77 177.5t123.5 112.5t182.5 40q73 0 208 -103l-159 -166l-29 -6q-24 32 -50.5 59.5t-59 47.5t-62.5 20q-52 0 -87.5 -23.5t-35.5 -74.5q0 -47 29 -85.5t86 -88.5q106 -90 106 -154h279l6 -12l-78 -86h-211q0 -67 -14 -277 t-37 -518l-234 -366l-51 -7q11 23 23 61t24 77q33 96 41.5 243.5t8.5 335.5q0 176 -11 451h-207z" />
<glyph unicode="&#xa5;" d="M248 -291l143 201h23q49 -92 156 -138t225 -46q90 0 144 25t54 104q0 44 -8 99.5t-21 120t-24 113.5l-422 -247q-115 115 -209 188q-6 111 -6 219q0 226 31 408q106 67 405 213q121 -53 308 -92l194 79l14 -12q-39 -86 -53 -181.5t-14 -215.5q0 -275 29 -449 q14 -86 14 -108q0 -52 -21 -88l-327 -301q-125 -33 -221 -33q-76 0 -150 16.5t-138.5 46.5t-125.5 78zM532 518q0 -74 15 -192q4 -31 20.5 -57t41.5 -48t58 -44t50 -34l219 101l2 465q-175 19 -354 104q-52 -117 -52 -295z" />
<glyph unicode="&#xa6;" horiz-adv-x="1061" d="M174 737v21l113 69l39 -2q0 424 -17 529l33 20l66 -153q166 102 342 176l34 -17q-97 -45 -146.5 -132.5t-49.5 -200.5l256 145q65 -86 98 -152l-133 -131l-16 -4q-93 111 -144 111q-80 0 -80 -197h283l-80 -82h-194q0 -381 6 -473q111 -74 192 -117l137 41l7 -36 q-255 -135 -367 -207q-124 106 -258 182q20 65 25.5 223t5.5 387h-152z" />
<glyph unicode="&#xa7;" horiz-adv-x="1071" d="M203 752l94 84h80v249l252 113l24 -18l-20 -344h237v-21l-94 -80h-143q0 -89 0.5 -198.5t2 -180t3.5 -88.5q103 -96 203 -131l155 68v-47l-372 -226q-103 85 -265 172q17 156 17 357v272h-170z" />
<glyph unicode="&#xa9;" horiz-adv-x="2337" d="M170 1020q0 96 156 219q58 47 127.5 81t146.5 52.5t156 18.5q96 0 178 -33.5t142.5 -97t94.5 -152.5l3 -2q107 76 220.5 138t272.5 145q38 -35 84.5 -66t100.5 -60.5t108 -56.5q9 -84 16.5 -163.5t11.5 -125.5t9.5 -124.5t5.5 -143.5q0 -203 -39 -383t-137 -338 q-123 -104 -265 -191t-294.5 -137.5t-300.5 -50.5q-185 0 -285 80q-5 4 -20.5 16t-24 20t-16.5 20l229 223l29 -4q0 -115 93.5 -178.5t215.5 -63.5q158 0 301 115q111 88 172 286q34 109 47.5 224.5t13.5 251.5q0 154 -7.5 271t-33.5 230q-137 88 -274 136q-76 -50 -122 -85 t-89 -85q6 -43 6 -138q0 -244 -129 -407q-8 -4 -100.5 -63t-186.5 -117q149 -58 237 -86.5t138 -28.5q57 0 111.5 28.5t124.5 81.5l12 -43q-149 -154 -352 -292q-16 -4 -23 -4q-42 0 -106.5 21.5t-145.5 55.5q-215 90 -311 90q-81 0 -132 -32t-118 -105l-45 45q30 33 70 69 t95 80.5t92 72.5t79 61q148 0 239 41.5t133 130t42 235.5q0 132 -33.5 260t-114 215t-213.5 87q-58 0 -115 -31.5t-57 -85.5q0 -26 22 -60.5t57.5 -70.5t49.5 -49q44 -40 78.5 -81t34.5 -77q0 -42 -36 -85.5t-90.5 -82t-116.5 -73t-105 -58.5l-49 25q48 28 100.5 75.5 t52.5 81.5q0 26 -94 125q-127 127 -127 203z" />
<glyph unicode="&#xaa;" horiz-adv-x="1786" d="M139 -61q103 69 205.5 112t204.5 43q66 0 96.5 -27.5t30.5 -91.5q0 -27 -8 -71q-6 -27 -6 -84q0 -27 47 -37q8 -1 15.5 -2.5t16.5 -3.5t15 -2q73 0 148.5 33.5t129.5 89.5q133 132 133 419q0 68 -11.5 119.5t-47.5 79.5q-96 74 -289 74q-94 0 -233 -33l-35 27l121 166 q149 22 259.5 107t110.5 222q0 49 -51 68.5t-112 19.5q-95 0 -191 -12q-23 -2 -81 -8t-87.5 -8.5t-38.5 -3.5q-70 0 -108 24t-60 86q79 94 117.5 137t83.5 82l37 2q-8 -24 -8 -36q0 -72 108 -72q65 0 129 3l128 6q64 3 128 3q96 0 183.5 -34.5t87.5 -114.5q0 -95 -61 -181.5 t-150.5 -152.5t-184.5 -111l-2 -6l19 -4q22 2 129 2q67 0 136.5 -18t129.5 -49t115 -74q25 -23 32 -60.5t7 -91.5q0 -111 -23.5 -216t-77 -199t-135.5 -158q-108 -88 -249.5 -135.5t-293.5 -47.5q-100 0 -205.5 8t-105.5 37l2 107q0 34 -27 57t-61 23q-63 0 -139 -41z" />
<glyph unicode="&#xad;" horiz-adv-x="2146" d="M221 483l41 78h1651l-35 -78h-1657z" />
<glyph unicode="&#xb5;" horiz-adv-x="758" d="M217 1104q0 65 78 160.5t168 183.5l33 -29q-125 -168 -125 -239q0 -48 35 -93l81 -102q25 -27 25 -55q0 -31 -39 -61.5t-72 -30.5q-40 0 -82.5 47.5t-72 112t-29.5 106.5z" />
<glyph unicode="&#xb6;" horiz-adv-x="758" d="M229 1327q0 38 35.5 63t71.5 25q38 0 81 -48.5t73 -112.5t30 -103q0 -45 -22.5 -90t-58.5 -90.5t-89 -102t-57 -61.5l-43 22q70 94 97.5 139.5t27.5 104.5q0 34 -33 80l-92 115q-21 27 -21 59z" />
<glyph unicode="&#xc4;" horiz-adv-x="1384" d="M264 1214v64l619 178q4 1 7 1.5t7 0.5q14 0 25.5 -9.5t11.5 -23.5q-9 -97 -20 -251t-16 -312t-5 -282q0 -182 1.5 -305t6.5 -209l-244 -84l-49 28q13 104 23.5 230t15 244t4.5 251q0 207 -12 410q0 22 -22.5 45.5t-43.5 23.5h-309z" />
<glyph unicode="&#x2000;" horiz-adv-x="756" />
<glyph unicode="&#x2001;" horiz-adv-x="1513" />
<glyph unicode="&#x2002;" horiz-adv-x="756" />
<glyph unicode="&#x2003;" horiz-adv-x="1513" />
<glyph unicode="&#x2004;" horiz-adv-x="504" />
<glyph unicode="&#x2005;" horiz-adv-x="378" />
<glyph unicode="&#x2006;" horiz-adv-x="252" />
<glyph unicode="&#x2007;" horiz-adv-x="252" />
<glyph unicode="&#x2008;" horiz-adv-x="189" />
<glyph unicode="&#x2009;" horiz-adv-x="302" />
<glyph unicode="&#x200a;" horiz-adv-x="84" />
<glyph unicode="&#x2010;" horiz-adv-x="2146" d="M221 483l41 78h1651l-35 -78h-1657z" />
<glyph unicode="&#x2011;" horiz-adv-x="2146" d="M221 483l41 78h1651l-35 -78h-1657z" />
<glyph unicode="&#x2012;" horiz-adv-x="2146" d="M221 483l41 78h1651l-35 -78h-1657z" />
<glyph unicode="&#x2013;" horiz-adv-x="1478" d="M221 483l25 78h999l-21 -78h-1003z" />
<glyph unicode="&#x2014;" horiz-adv-x="2502" d="M221 483l50 78h1998l-42 -78h-2006z" />
<glyph unicode="&#x202f;" horiz-adv-x="302" />
<glyph unicode="&#x205f;" horiz-adv-x="378" />
<glyph unicode="&#xe000;" horiz-adv-x="965" d="M0 965h965v-965h-965v965z" />
</font>
</defs>
</svg>
