<?xml version="1.0" standalone="no"?>
<!DOCTYPE svg PUBLIC "-//W3C//DTD SVG 1.1//EN" "http://www.w3.org/Graphics/SVG/1.1/DTD/svg11.dtd" >
<svg xmlns="http://www.w3.org/2000/svg">
<metadata>
This is a custom SVG webfont generated by Font Squirrel.
Copyright   : Copyright C 1994 1995 Basil K Malyshev All Rights Reserved012BaKoMa Fonts Collection LevelC
</metadata>
<defs>
<font id="eufb10Regular" horiz-adv-x="1212" >
<font-face units-per-em="2048" ascent="1638" descent="-410" />
<missing-glyph horiz-adv-x="682" />
<glyph unicode=" "  horiz-adv-x="682" />
<glyph unicode="&#x09;" horiz-adv-x="682" />
<glyph unicode="&#xa0;" horiz-adv-x="682" />
<glyph unicode="!" horiz-adv-x="715" d="M217 96q0 51 43.5 84t95.5 33q53 0 94.5 -32.5t41.5 -84.5t-42 -86.5t-94 -34.5q-51 0 -95 35t-44 86zM246 1278q0 70 26 102.5t95 32.5q42 0 66 -25.5t24 -68.5q0 -70 -13 -180l-88 -758l-39 -4l-65 782q-2 42 -4 72.5t-2 46.5z" />
<glyph unicode="&#x26;" horiz-adv-x="1784" d="M88 377q0 84 28.5 145t79 108.5t97 75.5t149.5 87q-31 74 -47 130t-16 117q0 101 36 174.5t99 119.5t147 68.5t179 22.5q103 0 176.5 -47t73.5 -143q0 -73 -38 -132t-98.5 -105t-117.5 -75.5t-152 -74.5q43 -62 105.5 -150t122.5 -163t119 -138t122 -116q49 48 73.5 107 t24.5 128q0 106 -68.5 160.5t-176.5 54.5q-61 0 -123 -6l2 100q117 -6 233 -6q291 0 594 17l-6 -117l-289 8q-6 0 -26 -4q2 -18 7 -47t5 -45q0 -109 -45 -212.5t-127 -195.5q64 -39 113 -58.5t106 -19.5q81 0 130 66t89 166l51 -12q-29 -108 -78 -196t-128.5 -145 t-184.5 -57q-169 0 -311 109q-63 -29 -135 -53t-146.5 -38t-146.5 -14q-120 0 -237.5 48.5t-191 140.5t-73.5 217zM326 485q0 -81 35 -155.5t96.5 -131.5t138.5 -88.5t156 -31.5q14 0 49 7.5t58 13.5t54 15.5t48 14.5q-148 144 -261 282.5t-223 313.5q-79 -42 -115 -96.5 t-36 -143.5zM569 1178q0 -139 84 -269q102 54 153.5 120.5t51.5 172.5q0 35 -18 70.5t-48 58.5t-65 23q-76 0 -117 -49.5t-41 -126.5z" />
<glyph unicode="'" horiz-adv-x="512" d="M164 1362q0 19 13 33t33.5 21t39.5 7q33 0 53.5 -18t20.5 -51q0 -11 -3.5 -35.5t-7.5 -46.5l-61 -379h-39l-45 393q-4 54 -4 76z" />
<glyph unicode="(" horiz-adv-x="938" d="M272 573q0 209 30.5 399t128 340.5t278.5 196.5v-36q-101 -44 -165.5 -149t-96.5 -240t-41 -260t-9 -263q0 -306 43 -524q23 -105 54 -176q26 -67 87.5 -131.5t127.5 -81.5v-29q-150 22 -269 162q-37 43 -59 88t-36 92t-30 117q-17 86 -26 162.5t-13 158.5t-4 174z" />
<glyph unicode=")" horiz-adv-x="938" d="M213 -350q105 38 161.5 83t84.5 111t47 181q21 118 27 238t6 300q0 183 -21.5 360.5t-94.5 330t-210 208.5v43q138 -24 230.5 -125.5t141.5 -243t66 -289.5t17 -290q0 -298 -50 -516q-31 -132 -75.5 -215.5t-122 -135.5t-207.5 -73v33z" />
<glyph unicode="*" horiz-adv-x="670" d="M80 1057q105 55 207 117q-112 68 -207 114l53 47q80 -63 178 -129q0 107 -6 211h62q-14 -105 -17 -203q90 57 178 123l37 -41q-123 -62 -211 -118q104 -66 213 -121l-43 -43q-95 69 -176 121v-5q0 -34 4 -104q3 -58 13 -106h-62q2 38 6 116q2 39 2 117 q-111 -72 -202 -141z" />
<glyph unicode="+" horiz-adv-x="1827" d="M115 498l35 80h714v618l103 29v-647h747l-33 -80h-714v-627l-103 -41v668h-749z" />
<glyph unicode="," horiz-adv-x="670" d="M242 127q0 39 36.5 65.5t75.5 26.5q34 0 79.5 -61.5t64.5 -108.5q20 -41 20 -104q0 -53 -35.5 -113.5t-74.5 -104t-113 -120.5l-27 39q27 31 53 71.5t43 82t17 75.5q0 51 -31 86l-84 98q-24 31 -24 68z" />
<glyph unicode="-" horiz-adv-x="1827" d="M111 483l39 80h1558l-33 -80h-1564z" />
<glyph unicode="." horiz-adv-x="670" d="M211 90q0 52 40 85.5t93 33.5q54 0 97.5 -33t43.5 -86t-43.5 -87t-97.5 -34q-53 0 -93 34.5t-40 86.5z" />
<glyph unicode="/" d="M82 -373l950 1852l94 -19l-940 -1833h-104z" />
<glyph unicode="0" d="M84 381q0 121 44.5 222.5t123.5 183t176.5 139.5t212.5 100q86 -19 168.5 -59.5t146 -98t100 -136t36.5 -171.5q0 -136 -94 -273.5t-236.5 -225t-274.5 -87.5q-111 0 -203.5 55t-146 149t-53.5 202zM291 530q0 -92 44.5 -180t123.5 -144t172 -56q133 0 189.5 72.5 t56.5 209.5q0 74 -33.5 144t-87 125.5t-125.5 98t-137 58.5q-65 -16 -112 -68.5t-69 -122t-22 -137.5z" />
<glyph unicode="1" d="M111 0l2 96q108 0 163 -2q56 0 90 -0.5t74 -1.5q20 0 39 13t19 32q24 370 24 551q0 95 -26.5 145.5t-110.5 61.5l-186 27l-4 63l591 16q-15 -115 -24.5 -246.5t-9.5 -258.5v-369q0 -43 141 -43q57 1 104 1.5t121 0.5l4 -86h-1011z" />
<glyph unicode="2" d="M90 8v43l262 225q112 96 194.5 201t82.5 207q0 78 -47 128t-125 50q-48 0 -110 -21.5t-152 -62.5l-37 56q130 77 240 124.5t210 47.5q118 0 194.5 -50.5t76.5 -162.5q0 -78 -58.5 -159.5t-144.5 -162.5l-268 -256v-3l-2 -3q5 -12 30 -12q100 0 222.5 5t244.5 10t223 5 l27 -8l-53 -205z" />
<glyph unicode="3" d="M61 -272l45 43q154 -76 300 -76q105 0 190 39.5t134.5 117t49.5 183.5q0 131 -52.5 193.5t-182.5 88.5q-104 23 -264 23v78q102 0 199.5 22t164 81.5t66.5 162.5q0 68 -62 133q-49 49 -153 49q-92 0 -240 -82l-47 37q59 53 124.5 93t140.5 62.5t155 22.5q75 0 151 -25.5 t125 -79t49 -132.5q0 -117 -93 -202t-218 -124l8 -24q101 0 199 -37t159.5 -112t61.5 -179q0 -150 -88.5 -259t-228.5 -164.5t-285 -55.5q-107 0 -211.5 32t-196.5 91z" />
<glyph unicode="4" d="M27 0v59l716 924l199 31l21 -29q0 -178 -19 -860h213l-39 -127h-174q0 -174 8 -313l-243 -88l-23 20q4 111 4 383h-663zM225 125h465q0 135 1 219l2 170q1 84 1 219l-8 8q-41 -43 -110 -130t-119 -153.5t-116.5 -158t-115.5 -160.5v-14z" />
<glyph unicode="5" d="M37 -283l35 54q147 -82 278 -82q89 0 166.5 28.5t131 81t83 126t29.5 165.5q0 94 -33 163.5t-98.5 105.5t-159.5 36q-110 0 -219 -84l-55 21v653h862l-62 -190h-684q-8 -115 -10 -174q-2 -58 -2 -175l18 5q123 45 261 45q96 0 183.5 -21t154 -63.5t106 -117.5t39.5 -177 q0 -123 -48.5 -219.5t-133 -160t-193 -96t-225.5 -32.5q-239 0 -424 108z" />
<glyph unicode="6" d="M98 518q0 176 74 343.5t201.5 297.5t294.5 206.5t342 76.5q17 0 112 -17l-22 -145l-51 -4q-82 47 -181 47q-161 0 -279 -97.5t-179.5 -250.5t-61.5 -309q97 58 191.5 91.5t193.5 33.5q102 0 191 -43.5t141.5 -123.5t52.5 -182q0 -130 -90.5 -237.5t-228 -168.5 t-264.5 -61q-139 0 -239 78.5t-149 204t-49 260.5zM354 586q0 -110 30.5 -226t101 -198t180.5 -82q66 0 125 36t94 96t35 126q0 70 -26 128t-70 100t-104.5 65.5t-129.5 23.5q-57 0 -114 -18.5t-122 -50.5z" />
<glyph unicode="7" d="M111 -356q12 16 116.5 156t288 390t289.5 400t106 160q0 18 -20 18l-748 -20l-26 22l61 211h1032v-47q-113 -140 -233 -304.5t-234.5 -343.5t-208 -343t-184.5 -344l-231 -2z" />
<glyph unicode="8" d="M92 330q0 105 53.5 178.5t130 119t193.5 95.5q-68 48 -132.5 106t-110.5 127.5t-46 135.5q0 91 71.5 164.5t171.5 123t200 82.5q94 0 195.5 -24.5t172 -83.5t70.5 -156q0 -116 -90 -215.5t-211 -167.5q133 -78 190 -118t108.5 -111.5t51.5 -163.5q0 -106 -53 -187.5 t-143 -137t-193.5 -81.5t-200.5 -26q-78 0 -153.5 20t-139 63t-99.5 107.5t-36 149.5zM326 401q0 -78 38.5 -151t105.5 -118.5t146 -45.5q116 0 191.5 61.5t75.5 174.5q0 81 -54 146t-116.5 105t-173.5 99q-112 -49 -162.5 -105.5t-50.5 -165.5zM408 1167q0 -95 278 -293 q66 38 105.5 107.5t39.5 146.5q0 72 -39.5 124.5t-102.5 80t-134 27.5q-63 -20 -105 -74t-42 -119z" />
<glyph unicode="9" d="M59 487q0 114 40.5 195t107 133t173.5 101.5t175 80.5q129 0 234.5 -35t180 -104.5t114.5 -171.5t40 -233q0 -214 -70.5 -375t-199 -267t-301 -158t-381.5 -52l2 63q79 5 158 19.5t147 43t121 72.5q86 70 149.5 186.5t63.5 221.5l-258 -98q-52 -21 -115 -21 q-97 0 -185 58t-142 151t-54 190zM309 582q0 -71 32.5 -139t88.5 -124q48 -45 97.5 -64t115.5 -19q112 0 153.5 42.5t41.5 157.5q0 97 -27 186t-86 148q-39 41 -91.5 69.5t-105.5 28.5q-111 0 -165 -84.5t-54 -201.5z" />
<glyph unicode=":" horiz-adv-x="522" d="M117 815q0 50 37.5 85.5t87.5 35.5q57 0 106 -33t49 -88q0 -36 -24.5 -62.5t-60 -39.5t-70.5 -13q-47 0 -86 34t-39 81zM127 84q0 53 32 92t83 39q61 0 112.5 -36t51.5 -95q0 -53 -52.5 -81t-111.5 -28q-46 0 -80.5 32t-34.5 77z" />
<glyph unicode=";" horiz-adv-x="522" d="M115 819q0 51 39 85t90 34q55 0 102 -32.5t47 -86.5q0 -36 -23 -63t-57 -40.5t-69 -13.5q-51 0 -90 33t-39 84zM158 104q0 43 26 66v10q32 23 76 23q38 0 79 -44.5t68 -106t27 -101.5q0 -76 -59 -156t-158 -184l-39 27q115 133 115 231q0 40 -31 78l-84 104 q-20 28 -20 53z" />
<glyph unicode="=" horiz-adv-x="1190" d="M45 344l23 80h1077l-21 -80h-1079zM45 623l23 79h1077l-21 -79h-1079z" />
<glyph unicode="?" horiz-adv-x="877" d="M80 1130q0 95 75.5 163.5t182.5 102.5t201 34q129 0 228 -63.5t99 -184.5q0 -84 -41.5 -161t-111.5 -130q-196 -153 -269 -207q-75 -57 -75 -121q0 -62 59 -108l4 -11l-143 -96q-119 40 -119 144q0 85 82 143q22 16 102.5 78t126.5 92q77 52 117.5 135.5t40.5 181.5 q0 58 -28.5 107t-77 78.5t-105.5 29.5q-70 0 -125 -31.5t-55 -95.5q0 -50 41 -94q8 -8 13.5 -14.5t10.5 -9.5l-153 -86q-8 4 -23 10t-22 12q-35 38 -35 102zM195 100q0 59 48.5 96t108.5 37q35 0 68 -15t54.5 -42t21.5 -63q0 -60 -46 -101t-106 -41q-57 0 -103 36.5 t-46 92.5z" />
<glyph unicode="A" horiz-adv-x="1735" d="M57 1030q0 100 115 199q100 85 222 131.5t257 46.5q113 0 215.5 -39t167 -119.5t64.5 -195.5q0 -187 -123 -404q-6 -4 -127 -102.5t-270 -220.5q138 0 315 -164q169 72 291 151l8 877l330 201l47 -11l-105 -106q0 -134 -9 -361t-9 -311q0 -130 8 -235l119 -207l108 43 l11 -45q-54 -36 -153 -104.5t-173 -112.5l-25 6l-149 307l-475 -317q-207 221 -328 221q-47 0 -103.5 -22t-164.5 -70l-49 32l409 262q178 113 269.5 246t91.5 326q0 72 -31 134.5t-82 109t-119.5 74.5t-134.5 28q-53 0 -99.5 -17t-76 -53.5t-29.5 -89.5q0 -61 103 -151 q121 -108 121 -158q0 -61 -55 -119.5t-125 -102.5t-140 -77l-39 31q51 28 96 71t45 84q0 35 -104 144q-35 37 -56.5 63.5t-40 61t-18.5 65.5z" />
<glyph unicode="B" horiz-adv-x="2136" d="M113 1042q0 52 33 98t85 91q97 81 210.5 125.5t236.5 44.5q74 0 142 -27.5t123 -77.5t89 -114q134 96 257.5 158.5t236.5 62.5q73 0 110.5 -27.5t51.5 -67.5t38 -132q18 -57 47 -100.5t72 -43.5q47 0 125 21l4 -45l-430 -217l-24 -5q73 0 172.5 -26t146.5 -68 q107 -91 107 -252q0 -141 -93 -258l-352 -225q-107 -23 -198 -23q-89 0 -176 19t-197 53q-103 35 -195 56.5t-176 21.5q-99 0 -191 -29.5t-167 -83.5l-31 60l285 162q33 19 92.5 55.5t108.5 72.5t87 77.5t48 82.5l24 240q0 148 -25.5 261t-103.5 189q-105 103 -199 103 q-65 0 -116.5 -37t-51.5 -100q0 -56 127 -170q109 -103 109 -156q0 -69 -118 -155t-242 -152l-48 26q18 12 53.5 34t62.5 43.5t45 47t18 52.5q0 30 -73 108t-106.5 121t-33.5 106zM725 281q116 -3 237 -31t257 -72q207 -67 315 -67q80 0 119 50.5t39 133.5 q0 184 -118.5 276.5t-307.5 92.5q-81 0 -197 -21q-6 -54 -49 -149zM1071 1081q10 -42 10 -145q0 -89 -8 -227l510 182q-35 20 -51 39.5t-25 44t-16 64.5t-12 63q-13 72 -40.5 116t-92.5 44q-130 0 -275 -181z" />
<glyph unicode="C" horiz-adv-x="1481" d="M145 627q0 176 95 366q36 23 187.5 105t213.5 114l49 -49q130 84 271 141.5t290 79.5q50 -221 164 -221q34 0 72 6l-21 -45q-110 -39 -262 -73q-42 0 -80 31.5t-62.5 67t-60.5 97.5q-79 -21 -79 -110q0 -39 36 -154q37 -124 37 -174q0 -77 -24 -124t-67 -76.5t-116 -61.5 q-92 -43 -233 -90l-43 28q44 14 93 47t80.5 76t31.5 90q0 77 -33 191q-5 21 -15 60.5t-17 79t-7 63.5q0 25 6 45q-87 0 -142 -59.5t-79 -147.5t-24 -170q0 -194 89.5 -346.5t245.5 -235t351 -82.5q92 0 127 17l239 108l6 -55l-340 -211q-100 -21 -174 -21q-169 0 -317 40.5 t-252 127.5q-114 98 -175 236t-61 289z" />
<glyph unicode="D" horiz-adv-x="2009" d="M59 762q0 136 55.5 259t157.5 210q112 96 294.5 133t379.5 37q229 0 429 -60.5t329 -204.5t129 -376q0 -117 -33.5 -230.5t-95.5 -216.5q-79 -67 -166 -131.5t-187.5 -128.5t-187.5 -112q-96 0 -305 69q-154 52 -276 85.5t-213 33.5q-80 0 -137.5 -39t-133.5 -119l-37 39 q96 133 318 320q86 0 159 7.5t132 39.5t59 96q0 40 -28.5 78t-88 98.5t-86 94.5t-26.5 67q0 77 113.5 164.5t230.5 148.5l51 -16q-60 -51 -96.5 -89t-36.5 -71q0 -27 30.5 -69t86.5 -105q102 -112 102 -182q0 -81 -92.5 -156.5t-206.5 -132.5q53 -8 116.5 -23t98 -24 t141.5 -37.5t148 -40.5q91 -24 162 -24q72 0 132 63t85 137q30 95 30 215q0 184 -65 310.5t-178.5 201t-260.5 107.5t-323 33q-170 0 -317.5 -46t-242.5 -153.5t-95 -280.5z" />
<glyph unicode="E" horiz-adv-x="1602" d="M147 625q0 193 84 362q168 123 398 238l86 -37q214 129 532 219q65 -238 160 -238q32 0 82 11l-12 -45l-252 -76q-12 -4 -21 -4q-15 0 -29 8t-25 20t-26 29l-123 152q-71 -51 -71 -99q0 -55 37 -196q41 -154 41 -185h8l237 158q73 -127 189 -192l-185 -111h-26 q-14 0 -44 18.5t-51 34t-47.5 30.5t-39.5 15q-31 0 -52 -14q-37 -85 -161.5 -149.5t-268.5 -110.5l-45 29q73 28 136 79.5t63 110.5q0 82 -25 180q-4 15 -28.5 103.5t-24.5 117.5q0 42 14 78q-79 -14 -138 -79.5t-89.5 -153.5t-30.5 -168q0 -169 94.5 -319.5t250 -240 t325.5 -89.5q204 0 397 118v-55l-317 -211q-123 -22 -238 -22q-155 0 -294 45.5t-245 134.5t-165.5 216.5t-59.5 287.5z" />
<glyph unicode="F" horiz-adv-x="1477" d="M33 346q222 125 370 125q27 0 62 -14.5t60.5 -38t25.5 -49.5q0 -62 -27 -150q-24 -102 -34.5 -152t-10.5 -100q0 -81 47.5 -133.5t128.5 -52.5q133 0 217 78.5t84 212.5q0 54 -51.5 126.5t-140.5 174.5q-91 102 -162.5 199t-71.5 163q0 96 108.5 185.5t229.5 148.5 q-93 42 -143 63.5t-101 41t-102.5 33.5t-93.5 14q-109 0 -165 -73.5t-89 -199.5l-55 37q48 195 164.5 305.5t306.5 110.5q87 0 193 -35t218 -84q39 -16 97 -39.5t102.5 -38t69.5 -14.5q31 0 76 29t131 96l10 -47q-243 -233 -295 -273q-88 2 -236 45q-81 -24 -146 -66.5 t-65 -107.5q0 -94 152 -254l305 244q52 -41 94.5 -84t71.5 -90l-162 -145q-31 48 -59 75t-72 27q-29 0 -59 -18.5t-74 -53.5q59 -61 111 -124t93.5 -134t41.5 -123q0 -138 -101.5 -250t-252 -174.5t-283.5 -62.5q-301 0 -301 270q0 29 8 84t10 82q2 12 2 96q0 51 -23.5 83 t-74.5 32q-45 0 -133 -39z" />
<glyph unicode="G" horiz-adv-x="1898" d="M150 649q0 264 96 367l383 203l71 -25q72 50 147 90t148 70l45 -23q-60 -26 -99.5 -79.5t-39.5 -118.5q0 -59 49 -306l365 250q-96 25 -158.5 63t-85.5 111l219 158q27 -55 56.5 -88.5t70.5 -51.5t99 -18q92 0 145 41v-41q-111 -75 -226 -161.5t-198 -153.5 q118 0 230 -34t185.5 -110.5t73.5 -197.5q0 -147 -92 -270t-233 -195q-198 -99 -285 -166q-24 -3 -103.5 -12.5t-115.5 -9.5q-154 0 -289.5 50t-239.5 144.5t-161 226.5t-57 287zM389 801q0 -190 95 -351t256.5 -253.5t351.5 -92.5q108 0 192.5 38t134 115t49.5 183 q0 170 -102.5 256t-273.5 86q-46 0 -140 -12q6 -33 6 -68q0 -79 -41.5 -118.5t-130.5 -77.5q-54 -25 -198 -70l-41 29q74 22 110 53l56 117q0 58 -46 213t-46 203q0 61 28 110q-91 -11 -172 -96q-88 -89 -88 -264z" />
<glyph unicode="H" horiz-adv-x="1741" d="M10 18l62 62q45 45 93 86t93 66.5t80 25.5q100 0 199 -108q51 64 51 137q0 53 -38.5 124.5t-109.5 180.5q-58 89 -90.5 165.5t-32.5 151.5q0 43 26 91.5t57.5 86t76.5 82.5q105 106 309 230q154 -131 254 -131q46 0 99 27.5t151 90.5l6 -51l-284 -229q-46 -12 -97 -12 q-55 0 -110 15t-106 39t-105 58q-76 -72 -76 -131q0 -66 38.5 -151t100.5 -193q45 39 105 79.5t125 77.5t139 77q29 2 86 2q65 0 137.5 -8t138.5 -31.5t82 -63.5q68 -162 68 -368q0 -291 -104 -521l-328 -204q-53 -31 -96 -31q-105 0 -197 82l121 143l31 2q21 -44 56 -76 t79 -32q115 0 147.5 157t32.5 351q0 125 -20.5 215.5t-85 149.5t-185.5 59q-72 0 -147 -32.5t-156 -82.5q47 -80 78 -145.5t31 -110.5q0 -95 -56 -148l-344 -321q-120 110 -196 110q-64 0 -172 -84z" />
<glyph unicode="I" horiz-adv-x="1339" d="M61 977q80 151 128.5 226t133 134.5t199.5 59.5q80 0 269 -70q186 -67 227 -67q104 0 237 112l19 -33q-219 -171 -402 -260q-61 8 -243 60q-121 32 -207 32q-104 0 -171 -58.5t-134 -170.5h-17zM76 4q43 43 95.5 91t108 94t111.5 90l21 -11q36 -74 106 -147 q24 -24 42.5 -36t40.5 -18t52 -6q40 0 77.5 22t64.5 59t39 75q20 64 20 156q0 18 -25 229q-10 92 -10 164q0 66 8 121q163 174 363 297l51 -23q-174 -122 -174 -229q0 -78 14 -148q35 -202 35 -299q0 -100 -33.5 -187t-105.5 -148q-109 -93 -236.5 -147t-261.5 -54 q-124 0 -262 96l-115 -72z" />
<glyph unicode="J" horiz-adv-x="1335" d="M-18 158q215 147 368 147q130 0 144 -104v-207q0 -79 46.5 -145t121.5 -66q95 0 149.5 65.5t54.5 161.5q0 66 -17 138.5t-54 201.5q-52 169 -52 287q0 42 11 104q156 193 364 336l49 -20q-78 -67 -128 -142t-50 -159q0 -58 12.5 -116t36.5 -144q31 -96 47.5 -172.5 t16.5 -151.5q0 -104 -46 -188.5t-123 -146t-174 -95t-194 -33.5q-141 0 -214.5 54.5t-96.5 191.5q-6 35 -12 73.5t-17.5 64.5t-37.5 44.5t-68 18.5q-26 0 -46 -7t-73 -28zM131 1042q60 104 116 177t137 123.5t177 50.5q49 0 109 -31.5t125 -75.5q20 -12 50.5 -32t63.5 -37.5 t60 -27t53 -9.5q42 0 95 15.5t143 47.5l-3 -43q-218 -105 -440 -170q-29 14 -61.5 29t-63.5 29.5t-45 19.5q-148 78 -239 78q-40 0 -76 -15.5t-63 -38t-49 -49.5t-52 -69z" />
<glyph unicode="K" horiz-adv-x="1616" d="M39 68l176 172l29 2q21 -53 59.5 -98.5t83.5 -45.5q49 0 70.5 39t21.5 92q0 47 -21 110t-59 153q-43 109 -65.5 188.5t-22.5 157.5q0 163 236 364q70 59 157 104t182.5 68t194.5 23q225 0 334 -90q20 -16 35.5 -36.5t15.5 -43.5l-36 -223l-48 -5q-42 94 -111.5 154 t-159.5 88.5t-193 28.5q-97 0 -183.5 -26t-143 -87.5t-56.5 -159.5q0 -61 12 -121.5t35 -134.5q301 287 518 287q87 0 123 -40.5t67 -133.5q26 -70 41.5 -94.5t61.5 -24.5q35 0 94 21l-10 -51l-379 -127q17 -3 159 -35l91 -305q16 -50 57 -75.5t94 -25.5q61 0 135 49l15 -43 q-225 -196 -357 -196q-93 0 -136 67t-62 176q-27 155 -76 222q-20 31 -51.5 39t-83.5 8q-79 0 -209 -35q4 -46 4 -66q0 -67 -14 -120q-113 -115 -218 -198t-194 -83q-70 0 -113 24.5t-100 86.5zM612 643q23 -71 43 -162l453 160q-29 29 -47 111q-15 51 -50.5 92t-84.5 41 q-66 0 -124.5 -35.5t-99 -83.5t-90.5 -123z" />
<glyph unicode="L" horiz-adv-x="1610" d="M59 -10q45 92 105 176.5t135 152.5q95 0 180.5 36t85.5 118q0 48 -125 236q-78 118 -78 211q0 57 31 114.5t75 105.5t99 95q53 44 113.5 74.5t123 49.5t139.5 29.5t149 10.5q137 0 205.5 -42.5t68.5 -168.5q0 -39 -6 -80q-6 -37 -6 -76q0 -50 31.5 -79t82.5 -29 q29 0 43 2l-18 -31l-313 -88q-29 0 -53 13t-37 37t-13 52q0 19 11.5 88.5t11.5 100.5q0 64 -37 106.5t-94 62t-119 19.5q-66 0 -123.5 -25t-92 -73t-34.5 -117q0 -55 20 -109.5t56 -125.5q39 -75 61.5 -139.5t22.5 -125.5q0 -20 -2 -30l-219 -236l286 -88q164 -49 361 -49 q95 0 161 29t109.5 87t67.5 148l41 -22q-25 -95 -53.5 -176t-70.5 -145.5t-111 -105t-165 -40.5q-94 0 -184 14t-183 39t-180 55q-240 84 -307 84q-38 0 -69 -14t-55 -37t-48.5 -57t-46.5 -64z" />
<glyph unicode="M" horiz-adv-x="2537" d="M53 1030q0 90 178 238q79 66 187.5 99.5t228.5 33.5q131 0 227 -59.5t148 -176.5q56 43 118.5 79t128 57.5t126.5 21.5q55 0 101.5 -16.5t85 -48t71.5 -78.5q258 217 483 217q67 0 93 -29t65 -108q61 -123 135 -123q30 0 88 20l4 -35q-100 -46 -276 -174 q-37 -28 -37 -252q0 -55 6 -145t23 -179.5t50 -152.5t87 -63q22 0 123 37l6 -37l-367 -224l-164 199q0 537 13 643q113 122 206 189q-24 8 -41.5 23t-31 37.5t-23.5 49t-20 51.5q-25 60 -54 91.5t-82 31.5q-73 0 -141 -41.5t-121 -105.5q0 -177 -7 -308.5t-35.5 -272.5 t-84.5 -238l-346 -338q-101 92 -168 92q-34 0 -57 -8.5t-41 -22.5t-47 -41l-25 41q52 57 100.5 109.5t102 89.5t107.5 37q51 0 149 -76q129 163 129 596q0 68 -9.5 139.5t-34 138.5t-70 112.5t-113.5 45.5q-45 0 -89.5 -27t-82.5 -67q22 -97 22 -164q0 -77 -15 -165.5 t-40.5 -179t-59 -175t-71.5 -152.5l-449 -317q-95 108 -184 108q-50 0 -86 -20.5t-86 -67.5l-31 31q50 56 88.5 98t79 75.5t90.5 56t105 22.5q74 0 184 -115q119 62 174 246q41 138 41 322q0 137 -29 254.5t-102 189.5q-49 52 -117 84.5t-137 32.5q-92 0 -127 -29 q-53 -48 -53 -82q0 -33 32 -74t89 -98q116 -116 116 -172q0 -86 -103 -167.5t-226 -141.5l-37 35q55 31 102 73t47 82q0 26 -30.5 68.5t-71.5 87.5q-61 68 -89 108.5t-28 73.5z" />
<glyph unicode="N" horiz-adv-x="2011" d="M51 1006q0 111 162 247q49 42 114 74.5t140.5 49t144.5 16.5q95 0 179.5 -36t146 -104t92.5 -159l37 -97q43 -162 43 -313q0 -236 -92 -430l-418 -291q-50 -20 -61 -20q-126 0 -263 116l193 205l23 -2q25 -62 75.5 -103.5t112.5 -41.5q68 0 116 43.5t64 111.5 q17 85 17 181q0 238 -64 426q-33 96 -91 183t-139.5 142.5t-181.5 55.5q-66 0 -113.5 -28.5t-47.5 -90.5q0 -39 31 -81t88 -100t86.5 -96t29.5 -73q0 -75 -96 -152t-213 -143l-45 32q133 81 133 154q0 28 -27.5 62.5t-75 84t-74 91.5t-26.5 86zM1030 1094q84 86 160 149 t165.5 104.5t188.5 41.5q130 0 168 -66l40 -83q24 -50 52.5 -85t59.5 -35q56 0 104 19l10 -29q-177 -98 -264 -170q-26 -124 -26 -260q0 -90 5.5 -173.5t16.5 -148.5q6 -27 14 -47t22.5 -45.5t32 -48t31.5 -41.5q23 -33 48 -33q22 0 129 47l4 -40q-78 -50 -127.5 -79.5 t-102.5 -58.5t-137 -73q-64 101 -166 223v598q90 107 207 205q-73 0 -131 118q-36 85 -68.5 129.5t-93.5 44.5q-66 0 -155.5 -82.5t-149.5 -166.5z" />
<glyph unicode="O" horiz-adv-x="1999" d="M23 8l182 225q105 26 171 61.5t66 113.5q0 57 -41 124t-100 140q-123 145 -125 213q158 233 342 336l33 -31q-133 -79 -133 -168q0 -27 26.5 -74.5t90 -143.5t99.5 -156t36 -83q0 -95 -221 -293h6q51 0 137 -20.5t205 -55t135 -38.5q193 -56 309 -56q86 0 156 82.5 t100 177.5q22 65 32.5 141.5t10.5 164.5q0 161 -40.5 262t-117 154t-186 73.5t-270.5 20.5q-36 0 -108 2t-109 2q-54 0 -80 -2l-33 61l205 242l53 4q-23 -36 -23 -62q0 -51 252 -51q92 0 198.5 -17.5t206.5 -53.5t159 -86q61 -51 94.5 -123.5t47 -152.5t13.5 -169 q0 -133 -41.5 -259.5t-122.5 -240.5q-181 -143 -359 -238t-339 -95q-138 0 -381 77q-84 26 -146 42t-112 16q-120 0 -238 -111z" />
<glyph unicode="P" horiz-adv-x="2001" d="M63 1010q0 125 189 278q142 123 344 123q79 0 159 -32t141 -90t89 -134q62 47 128 89.5t136.5 76.5t142 54t140.5 20q63 0 95.5 -16.5t46.5 -50.5t26 -97q11 -62 45.5 -111t87.5 -49q34 0 76 10l20 -34q-119 -53 -217 -113.5t-98 -120.5q0 -73 76 -180 q49 -66 79.5 -118.5t30.5 -94.5q0 -80 -46.5 -154t-123.5 -151q-66 -68 -144 -112t-157 -44q-118 0 -309 84q0 -163 29 -332l-293 -168l-54 29q54 164 54 534q-126 50 -176 50q-76 0 -154 -54.5t-139 -126.5l-31 39q86 128 130.5 187t117.5 112.5t162 53.5q20 0 90 -9 q0 134 -2 199q0 67 -0.5 108.5t-1.5 90.5q0 147 -41 262q-22 62 -66 122t-102.5 96t-126.5 36q-35 0 -72.5 -17.5t-61.5 -47.5t-24 -64q0 -33 28.5 -68.5t92.5 -97.5t94.5 -97t30.5 -65q0 -72 -106 -154.5t-232 -154.5l-47 29q139 86 139 170q0 31 -94 139q-30 30 -53 52.5 t-35.5 47.5t-12.5 66zM1020 287q14 -5 92.5 -35.5t169.5 -61.5t147 -45t97 -14q45 0 70.5 29t25.5 73q0 67 -117 207q-66 81 -97.5 126t-31.5 77q0 55 74 128t158 136q-66 9 -96 21.5t-40 42t-10 98.5q0 182 -147 182q-71 0 -123 -29.5t-84 -68.5t-88 -119v-747z" />
<glyph unicode="Q" horiz-adv-x="1999" d="M23 8l182 225q105 26 171 61.5t66 113.5q0 57 -41 124t-100 140q-123 145 -125 213q158 233 342 336l33 -31q-133 -79 -133 -168q0 -27 26.5 -74.5t90 -143.5t99.5 -156t36 -83q0 -95 -221 -293h6q51 0 137 -20.5t205 -55t135 -38.5q193 -56 309 -56q86 0 156 82.5 t100 177.5q22 65 32.5 141.5t10.5 164.5q0 161 -40.5 262t-117 154t-186 73.5t-270.5 20.5q-36 0 -108 2t-109 2q-54 0 -80 -2l-33 61l205 242l53 4q-23 -36 -23 -62q0 -51 252 -51q92 0 198.5 -17.5t206.5 -53.5t159 -86q61 -51 94.5 -123.5t47 -152.5t13.5 -169 q0 -133 -41.5 -259.5t-122.5 -240.5q-103 -81 -180 -133q79 -66 135 -101.5t107 -35.5q80 0 176 33l2 -43q-27 -13 -68.5 -34t-94 -47t-96.5 -46.5t-75 -34.5q-202 74 -346 170q-132 -61 -258 -61q-138 0 -381 77q-84 26 -146 42t-112 16q-116 0 -229 -111z" />
<glyph unicode="R" horiz-adv-x="2001" d="M61 1008q0 120 156 249q82 71 183 112.5t206 41.5q90 0 178.5 -31.5t158 -92t101.5 -144.5q111 111 231 185.5t236 74.5q100 0 142 -49.5t55 -151.5q5 -53 15.5 -87t38.5 -52.5t81 -18.5q7 0 76 11l12 -27q-144 -61 -243.5 -107.5t-188.5 -99.5q107 -28 197 -69 q0 -47 -0.5 -76.5t-1.5 -65.5q0 -131 14 -215q13 -71 53 -127q35 -48 49 -64t37 -27t64 -11q34 0 86 29l4 -48l-350 -204q-45 89 -183 278q0 242 -6 285q-8 74 -41 102q-83 74 -237 74q-69 0 -121 -8q-13 -73 -34 -138.5t-51.5 -130t-70.5 -131.5l-452 -331 q-120 114 -179 114q-38 0 -74.5 -24t-88.5 -66l-35 31q58 56 124 116.5t126 100t102 39.5q55 0 178 -117q85 61 116 105.5t54 142.5q33 141 33 344q0 127 -34.5 238.5t-112.5 189.5q-51 51 -114.5 81t-129.5 30q-31 0 -70 -15.5t-67.5 -41.5t-28.5 -56q0 -33 28 -68.5 t87.5 -95t94 -105.5t34.5 -85q0 -50 -34.5 -96t-87 -82.5t-115 -68t-99.5 -50.5l-39 31q141 80 141 155q0 35 -25.5 68.5t-76 84t-76 87.5t-25.5 78zM1067 733q136 38 261 89t267 116q-48 0 -75.5 21.5t-38.5 54t-21 86.5q-12 78 -32 122t-78 44q-86 0 -159 -73t-120 -169 q2 -37 2 -106q0 -92 -6 -185z" />
<glyph unicode="S" horiz-adv-x="2003" d="M166 625q0 167 72.5 303.5t193.5 232t270 155.5t312 87q47 -17 132 -56.5t165.5 -74.5t151 -56.5t130.5 -21.5q71 0 128 45.5t85 112.5l37 -43q-33 -87 -112.5 -156t-179 -109t-191.5 -40q-32 0 -66 11.5t-80 35.5l-268 137q-43 24 -89.5 41.5t-92.5 17.5 q-105 0 -186.5 -68.5t-123.5 -174t-42 -207.5q0 -212 97.5 -374.5t268.5 -250.5t381 -88q67 0 100 126.5t41.5 256t8.5 192.5q-76 0 -265 -34q-220 -45 -253 -45q-97 0 -168.5 46.5t-71.5 139.5q0 72 51.5 136.5t129.5 103t147 38.5l20 -20q-44 -13 -83.5 -58t-39.5 -89 q0 -70 49.5 -92.5t130.5 -22.5q124 0 289 24q47 8 94 18.5t90.5 17.5t86.5 7q147 0 242 -76.5t95 -220.5q0 -187 -204 -360q-94 -79 -213 -132t-249.5 -78t-268.5 -25q-207 0 -378.5 83t-272.5 240t-101 365z" />
<glyph unicode="T" horiz-adv-x="1616" d="M59 930q0 98 61.5 183.5t159.5 148t207 96t201 33.5q77 0 379 -50q175 -28 307 -28q119 0 252 92l14 -49l-256 -248q-88 -27 -188 -27q-59 0 -114.5 6.5t-139.5 20.5q-53 -24 -87 -72t-34 -104q0 -49 35.5 -95t97.5 -106q67 -59 117.5 -114t50.5 -99q0 -52 -60 -112 t-165 -148q127 -57 190.5 -81.5t114.5 -24.5q90 0 268 116l23 -49q-148 -134 -371 -280q-73 0 -142 19t-165 56q-81 34 -139.5 53t-110.5 19q-90 0 -145.5 -26.5t-153.5 -98.5l-10 45q91 80 192 151t199 117h180q64 53 64 117q0 52 -148 182q-14 14 -46.5 46t-51 54 t-38.5 51t-29 56q106 202 280 344q-134 27 -275 49.5t-184 22.5q-70 0 -134 -30t-64 -91q0 -99 143 -180l4 -21l-170 -141q-119 96 -119 197z" />
<glyph unicode="U" horiz-adv-x="1741" d="M31 16l217 222q130 26 220.5 86t90.5 174q0 64 -33.5 134t-87.5 150q-63 97 -93 152t-30 96q0 31 4 47q162 222 361 332l47 -33q-65 -41 -110.5 -82.5t-45.5 -93.5q0 -53 19 -104t53 -115q115 -206 115 -365q0 -61 -19 -108l-237 -258q40 -6 112 -26.5t150 -45.5 q73 -22 130.5 -35.5t98.5 -13.5q42 0 91 25t82.5 65.5t33.5 81.5q14 240 14 412q0 233 -26 506q172 62 383 188l37 -31q-61 -48 -91.5 -105.5t-39.5 -133.5q-17 -135 -17 -357q0 -124 2.5 -217t7.5 -155q6 -46 33 -105q8 -13 24.5 -44.5t32 -54t36.5 -37.5t46 -15 q18 0 134 36l6 -38l-410 -230l-147 254l-258 -217q-12 -3 -38.5 -10.5t-45 -12t-29.5 -4.5q-59 0 -115 14.5t-149 47.5q-240 86 -338 86q-78 0 -178 -96z" />
<glyph unicode="V" horiz-adv-x="2009" d="M49 1008q0 56 58 132.5t120 127.5q80 66 180 101.5t211 35.5q94 0 173.5 -33.5t135.5 -97.5t79 -156q44 44 138.5 113t191.5 119.5t151 50.5q88 0 229 -82q101 -59 133 -59q73 0 125 16l2 -39q-96 -56 -170.5 -138t-74.5 -169q0 -119 8 -166l35 -195q16 -94 16 -139 q0 -91 -35.5 -154.5t-82 -103t-152.5 -117.5q-49 -37 -93.5 -61t-94 -38.5t-101.5 -14.5q-124 0 -393 127q-91 40 -134.5 57.5t-102.5 34t-107 16.5q-122 0 -291 -127l-27 37q118 96 340 248q157 37 206.5 147.5t49.5 292.5q0 144 -39 254q-35 105 -115 176.5t-186 71.5 q-52 0 -109 -36.5t-57 -84.5q0 -73 111 -174q42 -35 84.5 -80t42.5 -78q0 -58 -58 -117t-131 -103.5t-155 -88.5l-41 37q70 47 110.5 82t40.5 74q0 32 -106 143q-115 115 -115 158zM705 356q37 -1 107 -24t175.5 -65t153.5 -62q108 -45 175 -67.5t128 -22.5q58 0 80 32 t22 93q0 28 -8 82l-47 264q-8 41 -8 125q0 145 24 176q60 69 195 190q-102 0 -223 74q-61 35 -104 54.5t-87 19.5q-95 0 -256 -211q4 -62 4 -90q0 -225 -92 -387z" />
<glyph unicode="W" horiz-adv-x="2529" d="M51 1014q0 99 185 256q51 43 113 71.5t131.5 42t146.5 13.5q89 0 171.5 -29.5t146.5 -88.5t97 -140q147 102 404 260l170 -252q284 250 432 250q50 0 100.5 -19t106.5 -51q120 -65 201 -65q21 0 77 14l4 -35q-104 -87 -192 -186.5t-88 -173.5q0 -52 37 -191 q22 -86 32.5 -142.5t10.5 -117.5q0 -71 -11 -126.5t-45 -92.5l-370 -242q-80 -26 -150 -26q-74 0 -225 51q-205 68 -362 86q-142 -67 -250 -133q-13 -1 -26.5 -2.5t-29.5 -3.5t-24 -2q-117 0 -297 88q-74 33 -117.5 49t-85.5 16q-108 0 -250 -121l-26 45q43 41 95.5 84 t102.5 81t144 106q10 -2 32 -2q114 0 201.5 73.5t124.5 184.5q37 118 37 264q0 116 -39 220.5t-121 170.5t-199 66q-75 0 -139.5 -26t-64.5 -93q0 -31 26.5 -63.5t86 -92.5t93 -104t33.5 -80q0 -92 -87 -163.5t-214 -137.5l-53 31q46 27 72.5 45t48.5 47t22 63 q0 31 -29 68.5t-82 90.5t-80.5 91.5t-27.5 73.5zM612 268q30 -9 203 -84q74 -33 128.5 -50t115.5 -17q19 0 59 16.5t86 39t74 34.5q152 128 152 508q0 147 -29 258q-23 85 -64 131t-125 88q-108 -81 -145 -152q2 -26 2 -82q0 -332 -180 -536zM1436 279q82 -18 379 -125 q100 -37 180 -37q56 0 76 33.5t20 93.5q0 62 -41 262q-41 191 -41 270q0 37 6 66q153 173 254 241q-12 -6 -59 -6q-19 0 -47.5 11t-64 29t-54.5 28q-30 13 -63 26t-61 21t-58 8q-113 0 -222 -125q25 -112 25 -227q0 -224 -92 -418z" />
<glyph unicode="X" horiz-adv-x="1739" d="M63 43l166 166q61 -49 115 -78t109 -29q76 0 182 93q66 56 98 172q35 109 35 278q-322 0 -428 -6l133 115q84 -4 299 -4q0 131 -24 235q-22 86 -83 144.5t-149 58.5q-105 0 -194 -72l-84 -78l-37 41q76 79 165 156.5t191 155.5q66 0 138.5 -24t129.5 -63.5t99.5 -101 t50.5 -127.5q59 72 131.5 135.5t155 110t168.5 74.5q29 -60 52 -97t58.5 -63.5t85.5 -26.5q45 0 80 9l2 -35l-268 -131q-130 45 -221 178q-101 -99 -160.5 -223t-59.5 -256q301 0 400 8l-133 -115h-275q0 -214 106 -367t310 -153q44 0 98 17.5t133 49.5l-6 -53 q-61 -36 -131.5 -85.5t-138.5 -100.5q-129 -23 -133 -23q-105 0 -179 48.5t-122 125t-90 183.5q-37 -34 -113.5 -97.5t-152 -118.5t-148 -95t-113.5 -40q-67 0 -248 109z" />
<glyph unicode="Y" horiz-adv-x="2013" d="M68 4q115 115 181.5 175.5t143.5 113.5h39q154 0 248 80q32 30 47.5 67t28.5 90q26 112 26 285q0 69 -14 131.5t-45 120.5t-78 104q-99 101 -203 101q-64 0 -113.5 -30.5t-49.5 -92.5q0 -39 28 -76.5t90 -99.5q56 -51 87.5 -88t31.5 -68q0 -63 -110 -152.5t-226 -158.5 l-51 39q74 42 112 75t38 89q0 27 -23 52.5t-82 84.5q-53 53 -79.5 90t-26.5 78q0 106 161 243q53 46 119.5 77.5t138.5 47t150 15.5q103 0 171.5 -34t114.5 -95.5t87 -159.5q132 102 245.5 177t227.5 124q99 -114 268 -195q47 -356 47 -522q0 -395 -168 -735 q-79 -86 -166.5 -156.5t-183 -123t-204 -84t-218.5 -31.5q-207 0 -336 110l103 199l30 -6q29 -74 68 -119t95 -65.5t138 -20.5q180 0 298 85.5t177.5 221t81 292t21.5 335.5q0 191 -29 326q-25 112 -81 175.5t-167 63.5q-119 0 -223 -133q8 -37 8 -115q0 -280 -122 -452 q-147 -85 -275 -189q21 -2 189 -67q107 -41 172 -41q77 0 229 119l12 -43q-83 -98 -162 -170t-174 -123q-83 13 -156.5 37.5t-185.5 68.5q-126 51 -180 51q-136 0 -285 -137z" />
<glyph unicode="Z" horiz-adv-x="1454" d="M-12 154q220 141 340 141q113 0 139.5 -59.5t26.5 -192.5q0 -252 217 -252q87 0 159 65.5t101 151.5q33 96 33 215q0 136 -39.5 217.5t-121.5 116.5t-218 35q-76 0 -181 -14l-20 18l90 139l-22 4l30 41q106 0 174.5 18t109 73t40.5 155q0 69 -41 116t-103.5 69t-128.5 22 q-158 0 -262 -88q-17 -15 -42.5 -34.5t-43.5 -35.5l-37 51q150 132 301 238q119 22 232 22q164 0 282.5 -52.5t118.5 -194.5q0 -97 -54 -180t-142.5 -137t-180.5 -64v-10q151 0 269.5 -38.5t190 -131.5t71.5 -246q0 -129 -47.5 -245.5t-141.5 -197.5q-106 -89 -238 -140.5 t-269 -51.5q-102 0 -173 27t-113 87.5t-56 163.5q-10 90 -29 128t-94 38q-51 0 -115 -35z" />
<glyph unicode="[" horiz-adv-x="524" d="M74 -266v1782q94 -9 389 -9v-51l-287 -24v-1622l287 -15v-39q-152 0 -389 -22z" />
<glyph unicode="]" horiz-adv-x="524" d="M29 -211l295 23v1620l-295 18v49q282 0 397 12v-1781q-152 16 -397 16v43z" />
<glyph unicode="^" horiz-adv-x="1208" d="M0 950l606 553l590 -508l-92 -55l-504 438l-545 -452z" />
<glyph unicode="a" horiz-adv-x="1233" d="M160 270q0 220 41 482q101 43 207.5 101t197.5 114q103 -41 258 -66l135 57l17 -14q-23 -89 -29 -180.5t-6 -228.5q0 -135 8 -242l105 -129l96 41l12 -37l-299 -227q-70 104 -145 170l-2 53l-383 -230q-102 84 -209 216q-4 80 -4 120zM395 475q0 -66 8 -192 q27 -26 55.5 -53.5t53 -49t59.5 -45.5l183 90l-6 525q-124 0 -297 45q-36 -54 -46 -137t-10 -183z" />
<glyph unicode="b" horiz-adv-x="1208" d="M174 145q13 106 18.5 220t7 218.5t1.5 258.5q0 57 -2.5 159.5t-9 192t-15.5 168.5q2 1 17 9.5t24 8.5l51 -159q253 153 342 194l41 -22q-133 -75 -177 -177.5t-44 -271.5q1 -42 1.5 -77.5t0.5 -92.5l309 195q65 -32 285 -121q6 -105 6 -207q0 -246 -39 -444 q-98 -55 -184.5 -100t-181 -87t-189.5 -76q-164 114 -262 211zM434 550q0 -79 0.5 -171.5t1.5 -108.5q77 -60 143 -100t134 -59q29 60 46 126.5t23 136t6 138.5q0 103 -12 205l-201 65l-141 -69v-163z" />
<glyph unicode="c" horiz-adv-x="948" d="M176 449q0 182 25 299l401 221q152 -28 266 -90l-161 -197l-21 -2q-102 92 -211 125h-20l-13 -19q-24 -100 -24 -233q0 -82 12 -238q126 -112 207 -168l217 84v-41q-72 -44 -98.5 -60.5t-120 -73.5t-137.5 -82t-47 -27q-124 90 -267 233q-8 172 -8 269z" />
<glyph unicode="d" horiz-adv-x="1204" d="M-4 1139q52 29 108 53.5t125.5 51.5t130.5 50q112 -25 230.5 -75t220.5 -108.5t219 -137.5q14 -106 14 -223q0 -277 -88 -529q-44 -35 -114 -81t-172 -108l-152 -91q-103 57 -181.5 111.5t-156.5 121.5q0 39 -0.5 63t-1.5 52q0 225 29 411q73 67 150 123.5t167 116.5 l45 -20q-51 -41 -123 -113q-32 -128 -32 -291q0 -95 10 -215q123 -104 276 -166q103 169 103 494q0 94 -10 211q-377 303 -584 303q-83 0 -174 -33z" />
<glyph unicode="e" horiz-adv-x="967" d="M164 397q0 187 26 359q340 183 394 209q78 -66 149 -122.5t144 -101.5q-127 -106 -494 -370l2 -66q38 -30 87 -64t155 -102q30 13 109 40t116 42l18 -33q-249 -160 -403 -245q-78 51 -148 107t-145 126q-10 123 -10 221zM381 459q23 16 65 42t78.5 48t71 45.5t66.5 50.5 q-203 130 -236 156q-45 -213 -45 -326v-16z" />
<glyph unicode="f" horiz-adv-x="795" d="M70 727l100 90h90q-31 109 -45 177.5t-14 142.5q124 151 278 272q53 -39 89.5 -58.5t74.5 -19.5q46 0 94 33l25 -25l-178 -174q-114 0 -232 35q4 -47 21 -87.5t59 -117.5q69 -131 84 -178h236l-74 -90h-160q0 -418 -49 -782q-115 -226 -240 -400l-43 2l47 121 q34 86 43 209.5t9 306.5q0 209 -13 543h-202z" />
<glyph unicode="g" horiz-adv-x="1217" d="M31 -283l327 236l-172 190q-12 114 -12 232q0 207 45 375q80 47 188 106.5t216 112.5q92 -41 151.5 -65t110.5 -34l176 82l26 -8q-73 -149 -73 -471q0 -79 14 -153t40.5 -185t37.5 -180q-98 -105 -199.5 -198t-214.5 -179q-40 -4 -63 -4q-82 0 -164 20.5t-160.5 55 t-157.5 82.5l-71 -41zM383 -106q136 -73 218.5 -111.5t135.5 -38.5q66 0 87.5 18.5t21.5 85.5q0 77 -66 316zM426 483q0 -105 12 -213q103 -101 178 -135q122 61 168 94q-2 45 -2 133q0 164 11 340q-79 12 -145 33.5t-189 69.5q-33 -154 -33 -322z" />
<glyph unicode="h" horiz-adv-x="1260" d="M180 127q31 460 31 754q0 240 -18 477l36 18l50 -155q223 135 319 186l43 -31q-67 -26 -110 -77.5t-61.5 -117.5t-18.5 -143q0 -66 -2.5 -144t-2.5 -124q42 24 84 51t81 53.5t72 50t56 40.5q168 -83 291 -125q6 -145 6 -285q0 -191 -9.5 -341.5t-37.5 -276.5 q-62 -72 -115 -123t-126 -116t-138 -122l-75 43q57 26 165 117q26 24 39 55t29 86q23 82 30 170t7 199q0 199 -25 444q-122 64 -207 80l-127 -59q-12 -123 -12 -244q0 -92 10 -205q39 -57 113 -139q-90 -50 -238 -172q-65 99 -139 176z" />
<glyph unicode="i" horiz-adv-x="678" d="M2 782q191 123 279 195q10 -8 74.5 -51.5t93.5 -63.5q-11 -179 -11 -348q0 -115 6 -231q0 -23 32 -69t56 -46q1 0 19 6l106 41l11 -37q-78 -46 -149 -96t-183 -135q-26 38 -152 168q23 189 23 366q0 117 -10 269l-78 43l-80 -35zM147 1255l187 150q73 -79 160 -148 l-164 -153q-70 48 -183 151z" />
<glyph unicode="j" horiz-adv-x="678" d="M-41 -387q130 79 203.5 156.5t73.5 193.5q10 141 10 481q0 183 -6 226q-14 108 -97 108l-75 -35l-52 29l275 207q34 -24 94 -57t90 -52q10 -190 10 -344q0 -73 -2 -142.5t-8.5 -148t-16.5 -154t-24 -140.5q-171 -171 -395 -359zM150 1249l165 148q41 -38 164 -140 l-166 -151q-95 75 -163 143z" />
<glyph unicode="k" horiz-adv-x="950" d="M66 631l102 78h65q0 151 -1 253.5t-6 213.5t-15 186l45 16l55 -155q64 50 142.5 93.5t162.5 80.5l39 -25q-75 -36 -116 -85.5t-55.5 -111t-14.5 -151.5q41 30 120 77.5t163 94.5q122 -133 122 -211q0 -29 -17 -55t-46 -56l-158 -165h183l-78 -78h-295q0 -55 5 -176 t9 -176l182 -140l205 84l19 -39q-30 -20 -150.5 -89.5t-255.5 -145.5q-175 144 -264 196q8 41 8 91q4 99 6 214.5t4 180.5h-165zM469 709h66q42 0 96.5 66t54.5 116q0 74 -80 162q-47 -29 -67.5 -48t-34.5 -47.5t-23 -74.5q-12 -70 -12 -174z" />
<glyph unicode="l" horiz-adv-x="688" d="M203 113q10 95 14 171t6 178t2 167q0 257 -16 717l37 22l47 -151q133 90 309 178l25 -19q-66 -45 -96 -80t-50 -104q-24 -85 -24 -197q-4 -204 -4 -315q0 -278 20 -451l53 -59l111 39v-37l-303 -221z" />
<glyph unicode="m" horiz-adv-x="1886" d="M31 774l278 201q56 -56 158 -115l-8 -104q178 99 307 211q175 -86 285 -115l-7 -82l304 193q154 -67 294 -107q-30 -157 -30 -348q0 -114 10 -254q17 -24 30.5 -41.5t32 -36t31.5 -18.5q8 0 23 10l94 41l8 -49q-140 -80 -336 -221q-72 97 -153 182q28 88 28 315 q0 60 -0.5 77t-2 76t-3.5 113q-96 44 -196 68l-138 -51q-6 -76 -6 -225q0 -57 1 -114t1 -114l117 -147l-244 -176l-123 166q23 107 23 319q0 63 -0.5 81t-2 80t-3.5 120q-59 26 -185 57l-153 -51q-1 -16 -1.5 -47t-0.5 -51v-44q0 -142 10 -315l113 -152l-234 -169 q-88 129 -135 184q16 123 16 297q0 109 -8 313l-73 55l-95 -38z" />
<glyph unicode="n" horiz-adv-x="1337" d="M4 780l268 189q107 -76 166 -103l-2 -96q155 83 309 201q81 -45 302 -129q-12 -118 -17.5 -218.5t-5.5 -207.5q1 -37 1.5 -67.5t0.5 -78.5l96 -106l117 51l4 -35q-68 -43 -114 -76.5t-87 -66t-112 -90.5q-44 64 -164 192q25 137 25 310q0 67 -9 256q-82 40 -200 71 l-148 -55l2 -457l127 -137l-231 -184q-83 93 -158 155q21 78 21 240q0 151 -17 412l-47 45l-90 -43z" />
<glyph unicode="o" horiz-adv-x="1247" d="M215 258q0 236 45 483q109 58 215.5 119.5t210.5 126.5q83 -49 174 -85.5t191 -61.5q2 -49 2 -150q0 -158 -10 -277.5t-42 -230.5q-64 -41 -123 -75t-110 -60.5t-112.5 -55.5t-137.5 -61q-182 107 -299 203q-4 86 -4 125zM459 487q0 -89 14 -219q77 -58 147 -96.5 t150 -58.5q57 212 57 442q0 94 -8 170q-162 19 -299 76q-26 -45 -39.5 -97t-17.5 -105t-4 -112z" />
<glyph unicode="p" horiz-adv-x="1235" d="M-6 16q105 97 161 145t74 48q3 0 5.5 -3.5t3.5 -6.5v536q-32 36 -50.5 59.5t-33.5 47t-23 51.5q78 112 221 248l43 -13q-41 -45 -41 -86q0 -22 11.5 -43.5t28.5 -42.5t41 -43.5t40 -38.5v-83l295 196q137 -73 293 -125q0 -2 -3 -4.5t-3 -3.5q4 -110 4 -168 q0 -146 -13.5 -268.5t-48.5 -245.5q-150 -79 -309 -211q-93 69 -215 84q0 -159 19 -375l-230 -94l-37 10l13 480q-111 0 -222 -84zM475 266q147 -21 311 -98q31 188 31 348q0 100 -12 199q-129 49 -207 71l-123 -49v-471z" />
<glyph unicode="q" horiz-adv-x="1219" d="M176 291q0 211 53 469l400 219q131 -53 256 -74l143 88l25 -12q-22 -77 -35 -184.5t-18.5 -222t-7 -224.5t-1.5 -266q0 -184 19 -434l-234 -82l-37 18q27 207 27 527v47l-383 -221l-201 211q-6 70 -6 141zM422 426q0 -82 2 -123q55 -79 147 -156q96 27 189 78 q0 355 12 508q-142 14 -299 58q-22 -41 -33.5 -103.5t-14.5 -124t-3 -137.5z" />
<glyph unicode="r" horiz-adv-x="940" d="M23 782l284 185l174 -125l2 -62l217 183q18 -26 45.5 -65t54 -64t52.5 -25l74 20v-22q-69 -63 -209 -152l-1 -3q0 -1 -2 -3t-3 -2q-23 4 -57 20t-58 33l-76 62q-47 -45 -47 -277q0 -30 2 -77t4 -107q2 -27 33 -61l129 -97l180 64l2 -43l-356 -217q-82 80 -254 209 q29 107 29 286q0 133 -13 254q-49 54 -96 82l-88 -26z" />
<glyph unicode="s" horiz-adv-x="1069" d="M-51 53l258 203q70 12 106 12q83 0 336 -186q13 80 13 149q0 67 -11 168q-60 62 -116 62q-32 0 -83 -20.5t-104.5 -48t-97.5 -50.5q-31 27 -61.5 71t-30.5 74v285l381 209l137 -78q48 -29 115 -29q43 0 78 16.5t102 57.5l14 -45l-293 -203q-60 0 -135.5 39.5t-153.5 94.5 q-18 -72 -18 -144q0 -113 51 -192q121 30 322 120q66 -30 127 -73q18 -122 18 -205q0 -140 -39 -248q-119 -42 -221 -82.5t-180 -79.5q-81 68 -160 111t-156 43q-81 0 -176 -64z" />
<glyph unicode="t" horiz-adv-x="805" d="M86 735l2 19l94 75h80v304l320 194l45 -16l-97 -88l-22 -394h213v-12l-103 -80h-118v-149t2.5 -149.5t9.5 -159.5q0 -21 17.5 -42.5t42 -39t54 -33t44.5 -23.5l153 72l8 -41l-364 -227q-104 103 -215 178q10 151 10 612h-176z" />
<glyph unicode="u" horiz-adv-x="1204" d="M16 774l275 193q8 -6 39.5 -29.5t67 -50t53.5 -39.5q8 -214 8 -318q0 -220 -70 -317q74 -16 240 -86l135 55q2 62 2 193q0 81 -0.5 143t-1.5 103.5t-3 123.5t-3 121l246 92l30 -18q-8 -54 -16.5 -130t-13.5 -177.5t-6 -154t-1 -154.5l84 -158l19 -4l123 45l12 -27 l-326 -246l-123 201q-140 -55 -354 -196q-106 76 -297 147q62 66 84.5 161.5t22.5 211.5q0 94 -39 270l-86 55l-72 -36z" />
<glyph unicode="v" horiz-adv-x="1237" d="M113 862q0 30 22 65t52.5 67t72 70t59.5 54l41 -8q-38 -47 -38 -86q0 -24 23 -56t58.5 -68t47.5 -48l-5 -59l299 182l285 -125q6 -99 6 -197q0 -347 -78 -489l-518 -221q-99 101 -247 192q18 76 18 299q0 97 -12 293q-27 29 -44.5 50.5t-29.5 43t-12 41.5zM446 311 q0 -28 7 -41.5t30 -36.5q24 -21 109.5 -69.5t105.5 -48.5q31 0 37 22q60 172 60 400q0 94 -7 178q-74 39 -200 82l-142 -58v-428z" />
<glyph unicode="w" horiz-adv-x="1878" d="M111 877q0 2 4 11t4 11q124 154 207 225l32 -6q-30 -42 -30 -96q0 -22 24.5 -53t62 -65.5t52.5 -47.5v-76q98 59 281 185q116 -70 296 -138v-69l345 203q146 -76 278 -123q0 -216 -20.5 -417.5t-85.5 -305.5q-265 -102 -422 -183q-100 61 -138.5 82.5t-103 48.5 t-123.5 41q25 86 25 375q0 71 -0.5 112t-1.5 89q-72 51 -197 90l-137 -43q-6 -91 -6 -182q0 -36 1.5 -88.5t5.5 -122.5t7 -103l104 -129l-225 -163q-53 70 -88.5 111.5t-79.5 70.5q25 63 32 139t7 186q0 95 -12 283l-76 80q-22 25 -22 68zM1038 446q0 -165 41 -198 q43 -26 137.5 -72.5t116.5 -46.5q25 0 47 92t29 150q16 141 16 317q-78 41 -217 82l-157 -65q-13 -126 -13 -259z" />
<glyph unicode="x" horiz-adv-x="938" d="M14 -184q0 31 11 59q125 174 235 268q12 88 12 283q0 148 -8 268l-4 15l-16 22l-92 49l-82 -32l-31 24q198 146 289 193l188 -119v-74l232 184q72 -96 155 -178l-143 -135q-28 4 -92 39.5t-88 58.5q-7 4 -19 4q-51 0 -51 -213q0 -196 6 -262q11 -17 19 -30l147 -101 l178 66l4 -37l-366 -227l-187 149q-37 -6 -69.5 -32t-53 -62.5t-20.5 -73.5q0 -127 315 -176l2 -18l-190 -113q-281 76 -281 201z" />
<glyph unicode="y" horiz-adv-x="1206" d="M121 885q0 29 38 77.5t86.5 96t84.5 82.5l37 -8q-35 -42 -35 -80q0 -23 13 -48t37 -53t48 -49.5t41 -36.5v-78l287 189q119 -66 289 -133q0 -127 -9.5 -398t-9.5 -366q0 -102 -115 -215q-67 -66 -132 -124t-135.5 -108.5t-137.5 -85.5l-76 45q63 30 129 63.5t101 66.5 t60.5 90t41.5 147q35 200 35 414q0 142 -15 319q-101 62 -198 86l-119 -49v-440q0 -49 16 -68q12 -13 42 -54t46 -58l-213 -166q-100 115 -176 180q25 74 32 227t7 375q0 8 -3 14.5t-5 12.5q-41 39 -66.5 69.5t-25.5 63.5z" />
<glyph unicode="z" horiz-adv-x="944" d="M-18 -236q219 319 512 541q-44 31 -112 46.5t-161 27.5l-2 18l189 133q38 31 54.5 49t16.5 46q0 52 -58.5 93.5t-113.5 41.5q-66 0 -176 -82l-31 31q140 123 353 256q80 -26 158.5 -87.5t78.5 -132.5q0 -24 -65 -83l-131 -123q124 -36 243 -101q35 -143 35 -286 q0 -194 -65 -363l-318 -227q-148 0 -251.5 43t-155.5 159zM207 -94q0 -72 95.5 -126t174.5 -54l10 2q41 95 41 272q0 102 -14 246q-29 -24 -86 -71.5t-105 -94t-82 -94.5t-34 -80z" />
<glyph unicode="}" horiz-adv-x="518" d="M20 1346q0 77 84 77q27 0 53.5 -11t26.5 -32v-104l-51 -391h-53l-47 311q-13 106 -13 150zM309 1366q0 51 94 51q25 0 47.5 -10t22.5 -31q0 -65 -4 -94l-45 -397h-49l-56 393q-10 72 -10 88z" />
<glyph unicode="&#xa2;" horiz-adv-x="1202" d="M129 1171q41 15 139.5 61t163.5 58q102 -11 208.5 -55t209.5 -108.5t190 -131.5q7 -103 7 -174q0 -107 -10.5 -210t-31.5 -204.5t-55 -199.5q-112 -70 -239.5 -146.5t-206.5 -117.5q-106 74 -183 132t-126 99q-13 163 -13 266q0 167 23 305q105 86 330 207l32 -18 l-88 -72q-37 -33 -49 -124t-12 -185q0 -100 10.5 -170t48.5 -113q65 -64 221 -151q42 59 64.5 153t29.5 189.5t7 193.5q0 123 -8 222q-128 104 -281.5 191t-267.5 87q-41 0 -86 -12z" />
<glyph unicode="&#xa3;" horiz-adv-x="805" d="M74 752l92 77h104v224q0 158 58 217q69 75 97 97t101 46q101 -2 236 -70l65 41l7 -43l-220 -204q-129 86 -159 86q-48 0 -88.5 -25t-40.5 -70q0 -53 36.5 -100.5t99 -109.5t73.5 -89h256l2 -14l-99 -80h-168q0 -645 -75 -803l-205 -364l-51 -2q39 114 56 173t24.5 125.5 t7.5 172.5v704h-205z" />
<glyph unicode="&#xa4;" horiz-adv-x="793" d="M72 737l98 82h96q-30 93 -63 246q41 157 126 243.5t236 86.5q63 0 199 -103l-152 -168l-28 -6q-91 129 -162 129q-50 0 -83.5 -25t-33.5 -73q0 -80 109 -174q102 -92 102 -156h262l6 -12l-73 -86h-199q0 -145 -49 -797l-219 -368l-49 -5q9 23 22.5 67.5t22.5 70.5 q21 63 31.5 166.5t13 199.5t2.5 215q0 100 -1 151.5t-4 138t-6 161.5h-194z" />
<glyph unicode="&#xa5;" d="M135 -293l135 203h21q47 -92 146.5 -138t213.5 -46q85 0 136 26t51 103q0 84 -52 333l-395 -247q-127 131 -196 188q-7 104 -7 219q0 212 29 408q127 84 383 213q98 -48 287 -90l184 79l14 -12q-40 -89 -52.5 -183t-12.5 -214q0 -277 29 -451q14 -86 14 -108 q0 -51 -21 -90l-309 -301q-123 -35 -207 -35q-220 0 -391 143zM406 520q0 -96 12 -194q6 -55 41 -88.5t119 -94.5l204 101l4 467q-164 19 -333 104q-47 -111 -47 -295z" />
<glyph unicode="&#xa6;" horiz-adv-x="805" d="M66 737v23l106 69l37 -2q0 126 -1 220t-4 173.5t-11 137.5l30 20l62 -155q142 93 321 178l35 -17q-94 -48 -140 -136t-46 -199l241 147q60 -84 95 -154l-127 -131l-17 -4q-78 111 -135 111q-47 0 -60.5 -60t-13.5 -137h267l-76 -84h-185q0 -85 0.5 -189t1.5 -165t5 -117 q130 -91 182 -119l131 41l4 -36q-250 -141 -344 -207q-127 112 -246 182q20 65 25.5 223t5.5 387h-143z" />
<glyph unicode="&#xa7;" horiz-adv-x="813" d="M92 754l88 84h76v249l238 113l24 -18l-20 -346h223v-19l-88 -82h-135q0 -181 1.5 -310t4.5 -155q48 -48 90.5 -79t101.5 -54l146 68v-47l-350 -226q-94 82 -250 172q16 190 16 359v272h-162z" />
<glyph unicode="&#xa9;" horiz-adv-x="2007" d="M61 1022q0 97 148 219q83 71 188 111.5t217 40.5q92 0 169.5 -34t134.5 -98.5t90 -150.5l2 -2q63 48 138.5 95.5t164 98t162.5 89.5q50 -50 109.5 -88.5t164.5 -96.5q19 -195 30 -328.5t11 -228.5q0 -435 -166 -723q-88 -78 -179 -143.5t-200.5 -121t-217.5 -85 t-214 -29.5q-172 0 -268 82q-3 2 -18 14t-24.5 20.5t-15.5 19.5l218 225l24 -4q0 -114 87 -179t206 -65q88 0 161 32.5t127.5 87t94 126.5t63.5 157q31 106 44.5 224t13.5 252q0 152 -8.5 276.5t-30.5 226.5q-132 89 -258 136q-64 -45 -111 -82.5t-88 -87.5q6 -43 6 -138 q0 -245 -121 -409q-37 -20 -272 -180q275 -113 354 -113q96 0 222 113l12 -45q-126 -143 -332 -295q-16 -4 -20 -4q-27 0 -69.5 12t-72 23.5t-96.5 41.5q-42 19 -98.5 41.5t-105 35.5t-91.5 13q-78 0 -125.5 -31.5t-111.5 -105.5l-41 45q20 23 62.5 64.5t91 83.5t100.5 85 t61 50q212 0 301.5 98t89.5 312q0 89 -15 183t-53.5 182t-105.5 142t-166 54q-55 0 -108.5 -32.5t-53.5 -84.5q0 -38 27 -74t84 -94t87 -96t30 -74q0 -44 -34 -86.5t-86 -81.5t-117.5 -77.5t-90.5 -53.5l-47 25q44 26 94.5 74t50.5 83q0 19 -25.5 51.5t-62.5 71.5 q-59 67 -90 112t-31 93z" />
<glyph unicode="&#xaa;" horiz-adv-x="1487" d="M33 -61q216 155 387 155q64 0 92.5 -28t28.5 -91q0 -31 -9 -71q-6 -27 -6 -84q0 -27 45 -37q8 -1 15.5 -2.5t16 -3.5t13.5 -2q68 0 136 32.5t120 83.5q73 75 102.5 189t29.5 239q0 145 -58 199q-90 74 -272 74q-94 0 -221 -33l-33 27l115 166q90 15 169.5 57t129 112 t49.5 160q0 49 -47 68.5t-107 19.5q-91 0 -180 -12q-220 -20 -195 -20q-67 0 -102.5 24t-54.5 86q129 160 190 219l35 2q-8 -16 -8 -36q0 -72 102 -72q59 0 120.5 3t122 6t120.5 3q94 0 174 -34.5t80 -114.5q0 -93 -56 -179t-141 -153t-176 -113l-2 -6l18 -4q21 2 121 2 q191 0 360 -141q37 -37 37 -152q0 -106 -19 -203.5t-62.5 -188t-108.5 -155.5q-69 -69 -158 -116.5t-189.5 -71t-197.5 -23.5q-293 0 -293 45l2 107q0 33 -25 56.5t-59 23.5q-58 0 -131 -41z" />
<glyph unicode="&#xad;" horiz-adv-x="1827" d="M111 483l39 80h1558l-33 -80h-1564z" />
<glyph unicode="&#xb5;" horiz-adv-x="518" d="M109 1106q0 44 40 109.5t90 124.5t101 110l31 -29q-117 -171 -117 -239q0 -51 33 -92l78 -103q20 -27 20 -55q0 -30 -34 -61t-68 -31q-55 0 -114.5 100t-59.5 166z" />
<glyph unicode="&#xb6;" horiz-adv-x="518" d="M119 1329q0 38 32.5 63t69.5 25q35 0 75.5 -48.5t69.5 -114t29 -101.5q0 -44 -21 -89.5t-54 -88t-77 -92.5t-65 -76l-39 24q61 85 89 135t28 109q0 39 -31 80l-86 115q-20 30 -20 59z" />
<glyph unicode="&#xc4;" horiz-adv-x="1110" d="M152 1219l2 63l583 176q4 2 13 2q14 0 24 -10t10 -23q-39 -423 -39 -845q0 -385 9 -516l-232 -84l-45 28q41 342 41 727q0 206 -12 412q0 20 -21 45t-41 25h-292z" />
<glyph unicode="&#x2000;" horiz-adv-x="758" />
<glyph unicode="&#x2001;" horiz-adv-x="1516" />
<glyph unicode="&#x2002;" horiz-adv-x="758" />
<glyph unicode="&#x2003;" horiz-adv-x="1516" />
<glyph unicode="&#x2004;" horiz-adv-x="505" />
<glyph unicode="&#x2005;" horiz-adv-x="379" />
<glyph unicode="&#x2006;" horiz-adv-x="252" />
<glyph unicode="&#x2007;" horiz-adv-x="252" />
<glyph unicode="&#x2008;" horiz-adv-x="189" />
<glyph unicode="&#x2009;" horiz-adv-x="303" />
<glyph unicode="&#x200a;" horiz-adv-x="84" />
<glyph unicode="&#x2010;" horiz-adv-x="1827" d="M111 483l39 80h1558l-33 -80h-1564z" />
<glyph unicode="&#x2011;" horiz-adv-x="1827" d="M111 483l39 80h1558l-33 -80h-1564z" />
<glyph unicode="&#x2012;" horiz-adv-x="1827" d="M111 483l39 80h1558l-33 -80h-1564z" />
<glyph unicode="&#x2013;" horiz-adv-x="1254" d="M111 483l25 80h999l-21 -80h-1003z" />
<glyph unicode="&#x2014;" horiz-adv-x="2278" d="M111 483l50 80h1998l-42 -80h-2006z" />
<glyph unicode="&#x202f;" horiz-adv-x="303" />
<glyph unicode="&#x205f;" horiz-adv-x="379" />
<glyph unicode="&#xe000;" horiz-adv-x="965" d="M0 965h965v-965h-965v965z" />
</font>
</defs>
</svg>
