<?xml version="1.0" standalone="no"?>
<!DOCTYPE svg PUBLIC "-//W3C//DTD SVG 1.1//EN" "http://www.w3.org/Graphics/SVG/1.1/DTD/svg11.dtd" >
<svg xmlns="http://www.w3.org/2000/svg">
<metadata>
This is a custom SVG webfont generated by Font Squirrel.
Copyright   : Copyright C 1994 1995 Basil K Malyshev All Rights Reserved012BaKoMa Fonts Collection LevelC
</metadata>
<defs>
<font id="eufb9Regular" horiz-adv-x="1212" >
<font-face units-per-em="2048" ascent="1638" descent="-410" />
<missing-glyph horiz-adv-x="682" />
<glyph unicode=" "  horiz-adv-x="682" />
<glyph unicode="&#x09;" horiz-adv-x="682" />
<glyph unicode="&#xa0;" horiz-adv-x="682" />
<glyph unicode="!" horiz-adv-x="715" d="M217 96q0 51 43.5 84t95.5 33q53 0 94.5 -32.5t41.5 -84.5t-42 -86.5t-94 -34.5q-51 0 -95 35t-44 86zM244 1276q0 69 26 101t95 32q42 0 66 -25t24 -67q0 -70 -13 -180l-86 -756l-39 -4l-65 780q-8 82 -8 119z" />
<glyph unicode="&#x26;" horiz-adv-x="1782" d="M88 377q0 84 28.5 144.5t79 108t104.5 80.5t142 81q-31 74 -47 130t-16 117q0 101 36 174.5t99 119.5t147 68.5t179 22.5q103 0 176.5 -46.5t73.5 -143.5q0 -73 -38 -132t-96.5 -103.5t-139 -85t-132.5 -66.5q70 -100 124 -175t109 -143t114 -131t122 -116 q49 48 73.5 107t24.5 128q0 106 -68.5 160.5t-176.5 54.5q-61 0 -123 -6l2 100q117 -6 233 -6q75 1 162 2t148 2.5t123.5 4t160.5 6.5l-6 -117l-289 8q-12 0 -26 -2q2 -18 7 -47t5 -45q0 -109 -45 -212.5t-127 -195.5q64 -39 113 -58.5t106 -19.5q80 0 128 64.5t89 167.5 l53 -12q-29 -108 -78 -196t-128.5 -145t-184.5 -57q-169 0 -311 109q-63 -29 -135 -53t-146.5 -38t-146.5 -14q-120 0 -237.5 48.5t-191 140.5t-73.5 217zM326 485q0 -81 35 -155.5t96.5 -131.5t138.5 -88.5t156 -31.5q14 0 49 7.5t58 13.5t54 15.5t48 14.5 q-92 88 -176.5 184t-159 195.5t-148.5 214.5q-78 -40 -114.5 -95t-36.5 -143zM569 1176q0 -136 84 -269q102 54 153.5 120.5t51.5 172.5q0 35 -18 70.5t-48 58.5t-65 23q-76 0 -117 -49.5t-41 -126.5z" />
<glyph unicode="'" horiz-adv-x="512" d="M164 1360q0 19 13 33t33.5 21t39.5 7q33 0 53.5 -18t20.5 -51q0 -10 -11 -82l-61 -379h-39l-45 393q-4 50 -4 76z" />
<glyph unicode="(" horiz-adv-x="938" d="M272 571q0 209 30.5 399t128 340.5t278.5 196.5v-39q-102 -42 -166.5 -147t-96 -239.5t-40.5 -259t-9 -261.5q0 -306 43 -524q23 -105 54 -176q27 -66 88.5 -130.5t126.5 -80.5v-31q-146 22 -269 162q-50 60 -76 128.5t-49 168.5q-43 205 -43 493z" />
<glyph unicode=")" horiz-adv-x="938" d="M213 -348q104 36 161 81t85 111t47 181q21 118 27 238t6 300q0 182 -21.5 359t-95 329.5t-209.5 208.5v43q138 -24 229 -124t140.5 -243t66.5 -290.5t17 -288.5q0 -96 -4 -177t-15.5 -168.5t-30.5 -170.5q-45 -195 -130.5 -294t-272.5 -128v33z" />
<glyph unicode="*" horiz-adv-x="670" d="M80 1055q118 63 207 116q-123 74 -207 115l53 47q73 -60 176 -129q0 107 -6 211h64q-12 -92 -19 -205q102 64 180 123l37 -39q-139 -72 -211 -118q104 -66 213 -121l-43 -43q-122 88 -178 123v-7q0 -34 4 -104q3 -55 12 -106h-61q2 38 6 116q2 37 2 115 q-107 -67 -200 -139z" />
<glyph unicode="+" horiz-adv-x="1827" d="M115 496l35 79h712v619l103 29v-648h749l-33 -79h-716v-625l-103 -39v664h-747z" />
<glyph unicode="," horiz-adv-x="670" d="M240 125q0 39 36.5 66.5t75.5 27.5q34 0 80.5 -63.5t63.5 -106.5q20 -41 20 -104q0 -76 -62 -156.5t-161 -179.5l-27 37q45 50 79 114.5t34 116.5q0 49 -31 84l-84 98q-24 28 -24 66z" />
<glyph unicode="-" horiz-adv-x="1827" d="M111 483l39 78h1556l-33 -78h-1562z" />
<glyph unicode="." horiz-adv-x="670" d="M211 90q0 52 40 85.5t93 33.5q54 0 97.5 -33t43.5 -86t-43.5 -87t-97.5 -34q-53 0 -93 34.5t-40 86.5z" />
<glyph unicode="/" d="M82 -373l950 1848l92 -19l-938 -1829h-104z" />
<glyph unicode="0" d="M84 383q0 157 76 283.5t199.5 213t281.5 144.5q88 -20 169.5 -60.5t144.5 -97t100 -135t37 -170.5q0 -134 -94 -272t-235.5 -225t-275.5 -87q-109 0 -202 54.5t-147 148t-54 203.5zM291 530q0 -92 44.5 -180t123.5 -144t172 -56q133 0 189.5 72.5t56.5 209.5 q0 74 -33.5 144t-87 125.5t-125.5 98t-137 58.5q-65 -16 -112 -68.5t-69 -122t-22 -137.5z" />
<glyph unicode="1" d="M111 0l2 96q108 0 163 -2q56 0 90 -0.5t74 -1.5q20 0 39 13t19 32q24 370 24 551q0 95 -26.5 145.5t-110.5 61.5l-186 27l-4 63l589 16q-32 -267 -32 -505v-369q0 -43 141 -43q57 1 104 1.5t121 0.5l4 -86h-1011z" />
<glyph unicode="2" d="M90 8v43l262 225q74 64 132.5 125.5t101.5 137t43 143.5q0 77 -47.5 127.5t-124.5 50.5q-81 0 -262 -84l-37 58q130 75 240 122.5t210 47.5q118 0 194.5 -50.5t76.5 -162.5q0 -76 -57.5 -156t-145.5 -166l-268 -254v-3l-2 -3q5 -12 30 -12q100 0 222.5 5t244.5 10t223 5 l27 -8l-53 -205z" />
<glyph unicode="3" d="M61 -272l45 45q151 -78 300 -78q105 0 190 39.5t134.5 117t49.5 183.5q0 131 -52.5 193.5t-182.5 88.5q-104 23 -264 23v78q101 0 198.5 22t164.5 80.5t67 161.5q0 71 -62 133q-49 49 -153 49q-92 0 -240 -82l-47 39q197 176 420 176q78 0 152.5 -25t123.5 -78.5 t49 -133.5q0 -79 -45 -144.5t-114 -109.5t-152 -72l8 -24q100 0 198 -37t160 -110.5t62 -178.5q0 -150 -88.5 -259t-228.5 -164.5t-285 -55.5q-107 0 -211.5 32t-196.5 91z" />
<glyph unicode="4" d="M27 0v59l716 922l199 31l21 -29q0 -119 -4.5 -313t-14.5 -545h213l-41 -127h-172q0 -175 8 -311l-243 -90l-23 20q4 111 4 383h-663zM225 125h465q0 135 1 219l2 170q1 84 1 219l-8 8q-61 -67 -136 -162.5t-158 -208t-167 -231.5v-14z" />
<glyph unicode="5" d="M37 -283l35 54q147 -82 278 -82q90 0 166 28.5t131 81t84 125.5t29 166t-33 162t-98.5 105t-159.5 36q-110 0 -219 -84l-55 21v653h862l-62 -190h-684q-8 -115 -10 -175q-2 -57 -2 -174l18 5q123 45 261 45q96 0 183.5 -21t153.5 -63.5t106 -117t40 -175.5 q0 -123 -48.5 -219.5t-133 -160t-193 -96t-225.5 -32.5q-239 0 -424 108z" />
<glyph unicode="6" d="M96 516q0 177 75 344.5t203 297t294 205t340 75.5q7 0 112 -17l-22 -145l-51 -4q-82 47 -179 47q-122 0 -220.5 -58t-164.5 -153t-100.5 -211t-34.5 -233q97 58 192.5 91t192.5 33q78 0 147.5 -24t123 -69.5t84 -110t30.5 -144.5q0 -130 -91.5 -237t-229.5 -167.5 t-265 -60.5q-105 0 -187.5 45.5t-138.5 125.5t-83 174.5t-27 195.5zM352 584q0 -109 30.5 -225.5t102 -197.5t181.5 -81q65 0 124 36t94.5 95.5t35.5 126.5q0 91 -44 163t-119.5 112t-166.5 40q-100 0 -238 -69z" />
<glyph unicode="7" d="M109 -356q81 108 229 308.5t271.5 370t211.5 293t88 134.5q0 18 -20 18l-748 -20l-26 22l61 209h1032v-47q-111 -136 -235 -306t-235.5 -344.5t-205 -338.5t-184.5 -344l-231 -2z" />
<glyph unicode="8" d="M92 330q0 150 97 232t278 159q-68 48 -132.5 106t-110.5 127.5t-46 135.5q0 91 71.5 164.5t171.5 123t200 82.5q95 0 197 -24t172.5 -83t70.5 -155q0 -117 -89 -215.5t-212 -167.5q128 -76 187.5 -117.5t111 -113t51.5 -162.5q0 -106 -53 -187.5t-143 -137t-193.5 -81.5 t-200.5 -26q-110 0 -208 37t-159 113.5t-61 189.5zM324 401q0 -79 38.5 -152t105.5 -118t146 -45q115 0 192 61.5t77 174.5q0 80 -53.5 144.5t-116.5 104.5t-174 99q-111 -47 -163 -104.5t-52 -164.5zM406 1165q0 -60 85 -137t193 -156q69 40 108 108.5t39 145.5 q0 70 -39.5 123.5t-103.5 81t-135 27.5q-63 -20 -105 -73.5t-42 -119.5z" />
<glyph unicode="9" d="M59 485q0 114 40.5 195.5t105.5 132.5t173.5 101t176.5 81q129 0 234.5 -35t180 -104.5t114.5 -171.5t40 -233q0 -213 -70.5 -373.5t-199 -266.5t-301 -158t-381.5 -52l2 63q79 5 158 19.5t147 43t121 72.5q84 70 148.5 186.5t64.5 221.5l-258 -98q-52 -21 -115 -21 q-96 0 -184.5 57.5t-142.5 149.5t-54 190zM309 580q0 -140 121 -261q48 -45 97.5 -64t115.5 -19q76 0 117.5 18.5t59.5 60t18 119.5q0 99 -27 187t-86 147q-39 41 -91.5 69.5t-105.5 28.5q-111 0 -165 -84.5t-54 -201.5z" />
<glyph unicode=":" horiz-adv-x="522" d="M117 815q0 50 37.5 84.5t87.5 34.5q56 0 105.5 -32.5t49.5 -86.5q0 -36 -24.5 -62.5t-60 -39.5t-70.5 -13q-49 0 -87 33.5t-38 81.5zM127 84q0 53 32 92t83 39q61 0 112.5 -36t51.5 -95q0 -53 -52.5 -81t-111.5 -28q-46 0 -80.5 32t-34.5 77z" />
<glyph unicode=";" horiz-adv-x="522" d="M115 817q0 51 39 85t90 34q55 0 102 -32.5t47 -86.5q0 -36 -23 -63t-57 -40.5t-69 -13.5q-51 0 -90 33t-39 84zM158 104q0 43 26 66v10q32 23 76 23q38 0 79 -44.5t68 -106t27 -101.5q0 -77 -59 -155.5t-158 -182.5l-39 25q115 133 115 231q0 40 -31 78l-84 104 q-20 28 -20 53z" />
<glyph unicode="=" horiz-adv-x="1190" d="M45 344l23 80h1077l-21 -80h-1079zM45 621l23 79h1077l-21 -79h-1079z" />
<glyph unicode="?" horiz-adv-x="874" d="M80 1128q0 95 75.5 162.5t182.5 102t201 34.5q129 0 228 -63t99 -184q0 -85 -41.5 -160.5t-111.5 -130.5q-33 -25 -83.5 -63.5t-95.5 -73t-90 -68.5q-75 -57 -75 -121q0 -62 59 -108l4 -13l-143 -96q-119 44 -119 143q0 85 82 146q44 32 117.5 87.5t111.5 80.5 q77 52 117.5 135.5t40.5 181.5q0 58 -28.5 107t-77 78.5t-105.5 29.5q-67 0 -123.5 -31.5t-56.5 -95.5q0 -50 41 -94q8 -8 13.5 -14.5t10.5 -9.5l-153 -86q-8 4 -23 10t-22 12q-35 38 -35 102zM195 98q0 59 48.5 96t108.5 37q35 0 68 -15t54.5 -42t21.5 -63q0 -60 -46 -101 t-106 -41q-57 0 -103 36.5t-46 92.5z" />
<glyph unicode="A" horiz-adv-x="1733" d="M57 1028q0 102 113 199q102 85 224.5 131.5t254.5 46.5q113 0 215.5 -39t167 -119.5t64.5 -195.5q0 -185 -123 -402q-46 -36 -395 -323q136 0 315 -166q175 79 289 151l10 877l330 201l47 -13l-105 -104q0 -83 -2 -167t-6 -168t-7 -167t-3 -168q0 -132 8 -235l119 -209 l108 43l11 -43q-54 -36 -153 -104.5t-173 -112.5l-25 6l-149 307l-475 -317q-207 221 -328 221q-47 0 -103.5 -22t-164.5 -70l-47 32l407 260q91 59 153.5 115t109.5 124.5t71.5 151.5t24.5 181q0 72 -31 134.5t-82 109t-119.5 74.5t-134.5 28q-53 0 -99 -17t-75 -52.5 t-29 -90.5q0 -61 103 -151q121 -108 121 -158q0 -59 -54.5 -118t-126 -103t-139.5 -76l-39 29q141 86 141 157q0 22 -29.5 59.5t-74.5 84.5q-115 120 -115 188z" />
<glyph unicode="B" horiz-adv-x="2136" d="M113 1040q0 52 33 98t85 91q97 81 210.5 125.5t236.5 44.5q74 0 142 -27.5t123 -77.5t89 -114q135 97 258.5 158t235.5 61q72 0 109.5 -28t52 -66t38.5 -131q18 -57 47 -100.5t72 -43.5q47 0 125 21l4 -45l-430 -215l-18 -5q44 0 105 -12t119 -34.5t87 -47.5 q107 -91 107 -252q0 -141 -93 -258l-352 -225q-103 -23 -199 -23q-150 0 -370 72q-106 35 -197 56.5t-174 21.5q-199 0 -358 -111l-31 58l285 162q33 19 92.5 55.5t108.5 72.5t87 77.5t48 82.5l24 240q0 148 -25.5 261t-103.5 189q-105 103 -199 103q-65 0 -116.5 -37 t-51.5 -100q0 -56 127 -170q45 -42 77 -82t32 -76q0 -48 -65 -108.5t-149 -113.5t-146 -85l-48 28q18 12 53.5 34t62.5 43.5t45 47t18 52.5q0 29 -72 105.5t-106.5 120.5t-34.5 107zM725 281q116 -3 236.5 -31t255.5 -72q207 -67 315 -67q81 0 119.5 51t38.5 133 q0 92 -32 162.5t-89.5 117t-134 68t-168.5 21.5q-89 0 -197 -23q-7 -57 -49 -147zM1071 1081q10 -46 10 -147q0 -89 -8 -227l510 182q-35 20 -51 39.5t-25 44t-16 64.5t-12 63q-13 72 -40.5 116t-92.5 44q-128 0 -275 -179z" />
<glyph unicode="C" horiz-adv-x="1479" d="M145 625q0 94 24.5 183.5t70.5 182.5q36 23 166.5 94t232.5 125l51 -49q284 181 561 221q50 -221 164 -221q35 0 70 6l-19 -45q-111 -39 -262 -73q-42 0 -79.5 30.5t-69 76.5t-56.5 89q-77 -22 -77 -110q0 -30 34 -154q37 -124 37 -176q0 -108 -48 -159.5t-159 -100.5 q-101 -47 -233 -90l-41 28q44 14 93 47t80.5 76t31.5 90q0 77 -33 191q-5 21 -15 60.5t-17 79t-7 63.5q0 26 6 43q-87 0 -142 -59t-79 -147t-24 -169q0 -197 89 -348t245 -233.5t352 -82.5q92 0 127 17l237 110l8 -55l-340 -211q-100 -21 -174 -21q-371 0 -569 168 q-74 62 -128.5 148t-81 180.5t-26.5 194.5z" />
<glyph unicode="D" horiz-adv-x="2009" d="M59 760q0 136 55.5 259t157.5 210q112 96 294 133t380 37q229 0 429 -60.5t328 -204.5t128 -374q0 -232 -127 -449q-41 -34 -120 -94t-143 -104t-139 -90.5t-139 -81.5q-42 0 -94.5 10t-102 24.5t-108.5 34.5q-154 52 -276 85.5t-213 33.5q-79 0 -138 -40t-133 -118 l-37 39q96 133 318 320q86 0 159 7.5t132 39.5t59 96q0 40 -31 81.5t-87.5 98t-82.5 90.5t-26 66q0 55 60.5 116t137.5 111t144 86l51 -16q-60 -51 -96.5 -89t-36.5 -71q0 -27 30.5 -69t86.5 -105q102 -112 102 -182q0 -81 -92.5 -155.5t-206.5 -131.5q83 -15 232 -53 t270 -72q91 -24 162 -24q72 0 132 62.5t85 137.5q30 95 30 213q0 185 -65 311.5t-178.5 201t-261.5 107t-322 32.5q-170 0 -317.5 -46t-242.5 -153.5t-95 -280.5z" />
<glyph unicode="E" horiz-adv-x="1602" d="M145 623q0 195 84 362q93 66 195 126.5t203 111.5l88 -37q214 129 532 219q65 -238 160 -238q40 0 82 11l-12 -45l-252 -76q-12 -4 -21 -4q-11 0 -21 4.5t-23 15.5t-20.5 19.5t-15.5 17.5l-123 152q-73 -49 -73 -99q0 -63 39 -196q41 -154 41 -185h8l239 158 q37 -64 85 -111.5t106 -80.5l-186 -111h-27q-14 0 -35.5 12.5t-51.5 34t-55.5 36.5t-39.5 15q-34 0 -54 -16q-37 -83 -163 -148t-269 -110l-45 28q74 30 137.5 80.5t63.5 108.5q0 84 -25 182q0 1 -19.5 68.5t-26.5 98.5t-7 54q0 39 12 78q-78 -14 -137 -79.5t-90 -152.5 t-31 -169q0 -170 94.5 -320t250.5 -239.5t325 -89.5q105 0 203 31t196 87l-2 -53l-315 -211q-123 -22 -240 -22q-155 0 -293.5 45.5t-244.5 133t-166 215.5t-60 288z" />
<glyph unicode="F" horiz-adv-x="1477" d="M33 346q222 125 370 125q27 0 62.5 -14t60.5 -37.5t25 -50.5q0 -62 -27 -150q-45 -185 -45 -252q0 -80 48 -132t128 -52q134 0 216.5 78.5t82.5 212.5q0 53 -51.5 125t-140.5 174q-71 80 -111.5 129t-81.5 117.5t-41 115.5q0 96 110.5 187t229.5 145q-149 68 -260 110 t-180 42q-109 0 -165 -73.5t-89 -199.5l-55 37q31 127 91.5 219t156 143.5t223.5 51.5q85 0 190 -34.5t221 -84.5q39 -16 97 -39.5t102.5 -38t69.5 -14.5q33 0 78.5 30.5t128.5 96.5l10 -47q-210 -208 -297 -273q-86 2 -234 45q-83 -24 -148 -66.5t-65 -107.5q0 -57 43 -119 t109 -135l305 244q52 -41 94.5 -84t71.5 -90l-162 -145q-31 48 -59 75t-72 27q-45 0 -133 -70q104 -112 175 -208.5t71 -172.5q0 -136 -101.5 -248t-252 -174.5t-283.5 -62.5q-299 0 -299 270q0 28 8 83.5t10 80.5q2 12 2 96q0 52 -23.5 83.5t-74.5 31.5q-45 0 -133 -39z " />
<glyph unicode="G" horiz-adv-x="1896" d="M150 649q0 262 96 365l383 203l69 -25q141 95 297 160l45 -25q-61 -25 -100 -78t-39 -119q0 -58 49 -305l365 250q-97 25 -159 63t-85 111l219 156q38 -80 90.5 -118t135.5 -38q92 0 145 41v-41q-200 -135 -424 -315q119 0 230.5 -34t185 -110.5t73.5 -195.5 q0 -97 -43.5 -187.5t-117 -160.5t-164.5 -117q-214 -111 -285 -166q-24 -3 -103.5 -12.5t-115.5 -9.5q-153 0 -290 50.5t-240 145t-160 225.5t-57 287zM389 799q0 -190 95 -350.5t257 -252.5t351 -92q108 0 192.5 37.5t134 114.5t49.5 184q0 168 -102.5 254t-273.5 86 q-50 0 -140 -12q6 -34 6 -68q0 -79 -41.5 -118t-130.5 -78q-54 -25 -198 -70l-41 29q76 22 110 53l56 117q0 35 -13.5 94t-29 109t-32.5 116.5t-17 96.5q0 61 28 110q-91 -11 -172 -96q-88 -89 -88 -264z" />
<glyph unicode="H" horiz-adv-x="1741" d="M10 18q56 56 109.5 106.5t113.5 91t105 40.5q101 0 199 -109q51 65 51 138q0 53 -38.5 124.5t-109.5 180.5q-58 89 -90.5 165.5t-32.5 151.5q0 100 162 262q103 104 307 228q154 -131 254 -131q48 0 104 29t146 87l6 -49l-284 -229q-46 -12 -97 -12q-55 0 -110 15 t-106 39t-105 58q-76 -72 -76 -131q0 -46 22.5 -108t50.5 -115t66 -121q81 68 165 119.5t204 114.5q29 2 86 2q65 0 137.5 -8t138.5 -31.5t82 -63.5q68 -159 68 -366q0 -142 -24.5 -271.5t-79.5 -249.5l-328 -204q-53 -31 -96 -31q-105 0 -197 82l121 143l31 2 q21 -44 56 -76t79 -32q82 0 121.5 89.5t49 195.5t9.5 221q0 126 -20.5 215.5t-85 148.5t-185.5 59q-69 0 -142.5 -30t-160.5 -82q109 -195 109 -256q0 -95 -56 -148l-344 -321q-120 110 -196 110q-39 0 -79.5 -22.5t-92.5 -61.5z" />
<glyph unicode="I" horiz-adv-x="1339" d="M61 975q72 137 101.5 185t79.5 105.5t119.5 93.5t158.5 36q82 0 271 -70q184 -68 227 -68q98 0 237 113l19 -33q-222 -170 -402 -258q-74 9 -243 58q-121 32 -207 32q-104 0 -171 -58.5t-134 -170.5h-17zM76 4q43 43 95.5 91t108 94t111.5 90l21 -11q39 -82 108 -151 q23 -23 41.5 -34.5t40.5 -17.5t51 -6q40 0 77.5 22t64.5 59t39 75q20 64 20 156q0 18 -25 229q-10 92 -10 164q0 66 8 121q163 174 363 297l51 -23q-174 -122 -174 -229q0 -79 14 -148q35 -202 35 -297q0 -217 -139 -335q-109 -93 -236.5 -147t-261.5 -54q-124 0 -262 96 l-115 -72z" />
<glyph unicode="J" horiz-adv-x="1333" d="M-18 158q95 64 186.5 105.5t181.5 41.5q130 0 142 -104q2 -13 2 -205q0 -81 46 -146t122 -65q95 0 149.5 65.5t54.5 161.5q0 65 -17.5 140t-53.5 198q-52 169 -52 287q0 62 11 104q157 192 364 334l49 -20q-78 -67 -128 -142t-50 -159q0 -82 49 -258q31 -96 47.5 -172.5 t16.5 -151.5q0 -103 -46 -188.5t-123.5 -145.5t-173.5 -93.5t-194 -33.5q-139 0 -213.5 54t-97.5 190q-13 78 -20 111t-33.5 60.5t-81.5 27.5q-39 0 -119 -33zM131 1040q60 104 116 177t137 123.5t177 50.5q49 0 109 -31.5t125 -75.5q20 -12 50.5 -32t63.5 -37.5t60 -27 t53 -9.5q72 0 235 63v-43q-218 -105 -440 -170q-34 17 -99.5 47t-70.5 33q-72 37 -128 56.5t-111 19.5q-40 0 -76 -15.5t-63 -38t-49 -49.5t-52 -69z" />
<glyph unicode="K" horiz-adv-x="1614" d="M39 66l176 174l29 2q21 -53 59.5 -98.5t83.5 -45.5q49 0 70.5 39t21.5 92q0 47 -21 110t-59 153q-45 108 -67.5 186.5t-22.5 157.5q0 163 236 364q51 44 112 80t131 62t142 39.5t149 13.5q225 0 334 -90q53 -45 53 -80l-39 -224l-47 -4q-42 94 -111.5 154t-159.5 88.5 t-194 28.5q-96 0 -183 -26t-143.5 -87t-56.5 -160q0 -107 48 -256q126 119 262.5 203t263.5 84q62 0 97.5 -20.5t55 -55t41.5 -98.5q26 -70 41.5 -94.5t61.5 -24.5q19 0 96 21l-10 -49l-383 -127q34 -8 73.5 -17t86.5 -20l92 -303q15 -50 57 -75.5t96 -25.5q61 0 138 49 l14 -43q-230 -196 -360 -196q-97 0 -140.5 66t-62.5 177q-27 155 -76 222q-22 30 -53.5 38.5t-85.5 8.5q-83 0 -211 -37q4 -42 4 -66q0 -65 -14 -118q-113 -115 -218 -198t-194 -83q-70 0 -113 24.5t-100 84.5zM612 643q19 -62 41 -164l461 162q-18 18 -27 39.5t-22 69.5 q-14 53 -50.5 93t-84.5 40q-98 0 -173 -66.5t-145 -173.5z" />
<glyph unicode="L" horiz-adv-x="1610" d="M59 -10q45 92 105 176.5t135 152.5q94 0 180 36t86 116q0 53 -125 236q-78 118 -78 213q0 79 60 159.5t145 153.5q67 56 151.5 92.5t177.5 54t196 17.5q137 0 204.5 -42t67.5 -169q0 -39 -6 -80q-6 -37 -6 -76q0 -50 31.5 -79t82.5 -29q31 0 45 2l-18 -31l-315 -88 q-29 0 -53 13t-37 37t-13 52q0 19 11.5 88.5t11.5 100.5q0 94 -73.5 141t-174.5 47q-67 0 -124.5 -25t-91.5 -73.5t-34 -116.5q0 -56 19 -107.5t57 -127.5q39 -75 61.5 -138.5t22.5 -126.5q0 -20 -2 -28l-221 -236l288 -88q161 -49 361 -49q137 0 220 65t116 197l41 -20 q-28 -107 -54.5 -182t-68.5 -139.5t-111 -105t-166 -40.5q-131 0 -260 28.5t-285 79.5q-240 84 -309 84q-37 0 -68 -14t-54.5 -37.5t-48 -57t-46.5 -63.5z" />
<glyph unicode="M" horiz-adv-x="2535" d="M53 1028q0 90 178 238q79 66 186.5 99.5t229.5 33.5q130 0 226 -59.5t149 -176.5q59 46 118.5 80.5t125.5 56t129 21.5q159 0 258 -143q116 97 237.5 157t247.5 60q38 0 62 -10.5t38.5 -27t24 -35t33.5 -65.5q21 -45 57.5 -83.5t75.5 -38.5q32 0 90 20l4 -35 q-60 -26 -125 -68t-155 -106q-37 -28 -37 -252q0 -95 11.5 -215t48 -221.5t106.5 -101.5q23 0 122 37l9 -37l-369 -224l-164 199q0 535 12 641q108 118 209 189q-33 11 -53.5 35t-35.5 60.5t-27 65.5q-25 60 -54 91.5t-82 31.5q-73 0 -141 -41.5t-121 -105.5q11 -73 11 -178 q0 -397 -138 -639l-348 -338q-97 92 -168 92q-46 0 -71 -14.5t-72 -57.5l-25 41q14 15 57.5 64.5t83 86t83 61t86.5 24.5q51 0 149 -76q129 163 129 594q0 68 -9.5 137.5t-34.5 138.5t-71.5 114.5t-113.5 45.5q-76 0 -172 -92q22 -101 22 -164q0 -95 -25 -218.5t-67.5 -243 t-91.5 -210.5l-451 -317q-36 46 -84 77t-98 31q-51 0 -86.5 -20.5t-85.5 -67.5l-31 31q39 43 81 89.5t84.5 82t92 57t105.5 21.5q77 0 182 -115q63 33 107.5 100.5t66.5 145.5q41 129 41 321q0 138 -28.5 255.5t-102.5 191.5q-50 50 -117.5 82.5t-136.5 32.5q-90 0 -125 -29 q-23 -21 -38 -40t-15 -42q0 -33 32 -74t89 -98q116 -116 116 -172q0 -85 -103.5 -166t-225.5 -141l-37 33q55 31 102 73t47 82q0 26 -30.5 68.5t-71.5 87.5q-40 45 -61 70.5t-38.5 56t-17.5 55.5z" />
<glyph unicode="N" horiz-adv-x="2011" d="M51 1004q0 108 162 249q80 67 182.5 102.5t216.5 35.5q144 0 257 -80.5t159 -216.5q90 90 163.5 150t164.5 101t188 41q130 0 168 -65q13 -26 39.5 -79.5t55 -88.5t57.5 -35q58 0 106 19l10 -29q-175 -95 -266 -170q-26 -124 -26 -260q0 -191 22 -322q6 -36 20 -64.5 t36 -59t42 -58.5q29 -31 50 -31q17 0 129 47l4 -40q-175 -111 -369 -211q-60 98 -164 223v598q95 110 209 203q-42 0 -74.5 34t-56.5 84q-40 87 -71.5 130.5t-92.5 43.5q-67 0 -156.5 -82t-150.5 -167l43 -322q0 -236 -92 -430l-418 -291q-45 -20 -59 -20q-126 0 -263 116 l193 203h20q27 -63 77 -104t112 -41q68 0 116 43.5t64 111.5q16 80 16 181q0 236 -61 426q-52 151 -160.5 264.5t-251.5 113.5q-66 0 -113.5 -28t-47.5 -88q0 -40 31 -82t88 -100t86.5 -96t29.5 -72q0 -76 -99 -155.5t-210 -139.5l-45 30q133 81 133 156q0 28 -25.5 60 t-75 83.5t-76 93t-26.5 85.5z" />
<glyph unicode="O" horiz-adv-x="1999" d="M23 8l182 225q101 22 169 59t68 114q0 59 -41 125t-100 139q-65 82 -94.5 128t-30.5 85q158 233 340 334l33 -29q-57 -37 -94 -77t-37 -91q0 -27 23.5 -69.5t90 -143t102.5 -161.5t36 -83q0 -59 -66.5 -135t-154.5 -156h6q51 0 137.5 -21t167 -44.5t170.5 -50.5 q118 -30 179.5 -42t129.5 -12q86 0 156 82.5t100 177.5q22 65 32.5 141.5t10.5 164.5q0 161 -40.5 262t-118.5 154.5t-185.5 72.5t-267.5 19q-35 0 -108 2t-109 2q-54 0 -80 -2l-35 61l207 240l53 6q-23 -40 -23 -62q0 -32 85 -41.5t167 -9.5q92 0 197.5 -17.5t204.5 -53 t160 -87.5q86 -72 120.5 -189.5t34.5 -252.5q0 -133 -41.5 -259.5t-122.5 -240.5q-177 -141 -356 -237t-340 -96q-86 0 -164 17.5t-219 59.5q-195 58 -256 58q-120 0 -238 -111z" />
<glyph unicode="P" horiz-adv-x="1999" d="M63 1008q0 123 187 278q70 59 159 91t185 32q82 0 162 -32t140.5 -90t88.5 -134q62 47 128 89.5t136.5 76.5t142 54t140.5 20q60 0 94 -16.5t48 -50.5t26 -97q11 -60 46 -110t87 -50q34 0 76 10l20 -35q-125 -56 -220 -114t-95 -119q0 -45 19 -83.5t57 -94.5 q49 -66 79.5 -118.5t30.5 -94.5q0 -81 -45.5 -153.5t-122.5 -151.5q-68 -68 -146 -112t-157 -44q-46 0 -99.5 11t-106.5 30.5t-103 40.5q0 -161 29 -330l-293 -168l-54 31q24 74 36 162.5t15 171.5t3 198q-126 50 -176 50q-76 0 -154 -54.5t-139 -126.5l-31 39 q86 128 130.5 186.5t118 111.5t161.5 53q20 0 90 -9q0 133 -2 199q0 67 -0.5 108.5t-1.5 90.5q0 147 -41 262q-22 62 -66 122t-102.5 96t-126.5 36q-35 0 -72.5 -17.5t-61.5 -47.5t-24 -64q0 -54 117 -164q129 -115 129 -164q0 -69 -104 -150.5t-234 -158.5l-47 31 q139 86 139 170q0 33 -94 137q-30 30 -53 52.5t-35.5 47.5t-12.5 66zM1020 287q14 -5 92.5 -35.5t169.5 -61.5t147 -45t97 -14q44 0 70 29.5t26 72.5q0 45 -38.5 102.5t-80.5 104.5q-60 74 -93.5 123t-33.5 80q0 84 232 262q-68 11 -97 23.5t-39 41.5t-10 97q0 182 -147 182 q-71 0 -123 -29.5t-84 -68.5t-88 -119v-745z" />
<glyph unicode="Q" horiz-adv-x="1999" d="M23 8l182 225q101 22 169 59t68 114q0 59 -41 125t-100 139q-65 82 -94.5 128t-30.5 85q158 233 340 334l33 -29q-57 -37 -94 -77t-37 -91q0 -27 23.5 -69.5t90 -143t102.5 -161.5t36 -83q0 -59 -66.5 -135t-154.5 -156h6q51 0 137.5 -21t167 -44.5t170.5 -50.5 q118 -30 179.5 -42t129.5 -12q86 0 156 82.5t100 177.5q22 65 32.5 141.5t10.5 164.5q0 161 -40.5 262t-118.5 154.5t-185.5 72.5t-267.5 19q-35 0 -108 2t-109 2q-54 0 -80 -2l-35 61l207 240l53 6q-23 -40 -23 -62q0 -32 85 -41.5t167 -9.5q92 0 197.5 -17.5t204.5 -53 t160 -87.5q86 -72 120.5 -189.5t34.5 -252.5q0 -133 -41.5 -259.5t-122.5 -240.5q-100 -79 -178 -133q156 -137 240 -137q80 0 176 33l2 -43q-27 -13 -68.5 -34t-94 -47t-96.5 -46.5t-75 -34.5q-205 75 -346 170q-132 -61 -256 -61q-86 0 -162.5 17t-220.5 58 q-187 60 -256 60q-110 0 -229 -111z" />
<glyph unicode="R" horiz-adv-x="2001" d="M61 1006q0 124 156 249q82 71 183 112.5t206 41.5q140 0 264.5 -72.5t173.5 -195.5q258 258 467 258q102 0 144 -49t53 -150q7 -57 17 -89t38 -50.5t80 -18.5q9 0 22 1.5t28.5 5t25.5 4.5l12 -29q-119 -49 -229.5 -99.5t-200.5 -105.5q115 -31 193 -69q0 -48 -0.5 -77 t-1.5 -65q0 -131 14 -213q13 -74 53 -127q35 -48 49 -64t37.5 -27t63.5 -11q34 0 86 29l4 -48l-350 -204q-45 89 -183 278q0 242 -6 285q-8 74 -41 102q-83 74 -237 74q-80 0 -119 -10q-16 -100 -56.5 -200t-99.5 -198l-452 -331q-120 114 -179 114q-38 0 -74.5 -24 t-88.5 -66l-35 31q58 56 124 116.5t126 100t102 39.5q55 0 178 -117q85 61 116 105.5t54 142.5q33 138 33 344q0 278 -147 426q-51 51 -114.5 81t-129.5 30q-31 0 -70 -15.5t-67.5 -41.5t-28.5 -56q0 -33 28 -68.5t87.5 -95t94 -105.5t34.5 -85q0 -49 -34.5 -95t-86.5 -82.5 t-115 -68.5t-100 -51l-39 33q141 80 141 155q0 35 -25.5 68.5t-76 84t-76 86.5t-25.5 77zM1067 731q136 38 260 88.5t266 116.5q-47 0 -74 21.5t-38 54t-21 86.5q-15 79 -34 121.5t-76 42.5q-87 0 -160 -73t-119 -167q2 -35 2 -107q0 -91 -6 -184z" />
<glyph unicode="S" horiz-adv-x="2001" d="M164 623q0 221 121.5 384t315.5 259t411 133q56 -21 165 -70.5t160 -71t123 -43.5t133 -22q70 0 126 44.5t85 111.5l39 -41q-32 -86 -112.5 -156t-180 -110t-190.5 -40q-58 0 -146 48l-270 137q-116 59 -180 59q-108 0 -189 -68.5t-123 -173.5t-42 -208q0 -160 56 -291.5 t157.5 -225.5t237.5 -144t296 -50q107 0 230 32.5t208.5 105t85.5 184.5q0 71 -34.5 120t-88 77.5t-121 42t-128.5 13.5q-76 0 -265 -34q-84 -18 -161.5 -31.5t-91.5 -13.5q-99 0 -169.5 46t-70.5 138q0 72 52 136.5t129.5 103t146.5 38.5l20 -20q-25 -7 -54.5 -30.5 t-49 -54.5t-19.5 -60q0 -71 50.5 -93t129.5 -22q124 0 289 24q47 8 94 18.5t90.5 17.5t86.5 7q147 0 242 -76.5t95 -220.5q0 -68 -27.5 -133.5t-73.5 -121.5t-105 -105q-92 -79 -211.5 -132t-250 -78t-270.5 -25q-205 0 -377.5 83t-273 240t-100.5 363z" />
<glyph unicode="T" horiz-adv-x="1616" d="M59 928q0 98 61 183.5t159 148t207 96t200 33.5q79 0 381 -50q175 -28 305 -28q122 0 252 92l16 -49l-256 -248q-84 -27 -188 -27q-59 0 -114.5 6.5t-141.5 20.5q-53 -25 -86 -72.5t-33 -103.5q0 -49 35.5 -95t97.5 -106q67 -59 117.5 -114t50.5 -99q0 -54 -60 -113 t-165 -147q226 -104 305 -104q93 0 268 114l23 -47q-148 -134 -371 -280q-73 0 -142 19t-165 56q-81 34 -139.5 53t-110.5 19q-90 0 -145.5 -26.5t-153.5 -98.5l-10 45q91 80 192 151t199 117q123 0 180 -2q64 53 64 115q0 37 -45.5 86t-102.5 98q-14 14 -46.5 46t-51 54 t-38.5 51t-29 56q106 202 280 344q-380 72 -459 72q-70 0 -134 -30t-64 -91q0 -99 143 -180l4 -21l-170 -139q-119 92 -119 195z" />
<glyph unicode="U" horiz-adv-x="1741" d="M31 16l217 222q130 26 220.5 86t90.5 174q0 107 -121 282q-63 97 -93 152t-30 96q0 31 4 47q76 104 166.5 188.5t194.5 143.5l47 -33q-65 -41 -110.5 -82.5t-45.5 -93.5q0 -53 19 -104t53 -115q115 -202 115 -365q0 -62 -19 -106l-237 -258q40 -6 112 -26.5t150 -45.5 q73 -22 130.5 -35.5t98.5 -13.5q42 0 91 25t82.5 65.5t33.5 81.5q14 240 14 412q0 233 -26 506q92 34 185 80t198 108l35 -31q-58 -47 -89 -105t-40 -134q-17 -135 -17 -357q0 -124 2.5 -217t7.5 -155q6 -46 33 -105q8 -13 24.5 -44.5t32 -54t36.5 -37.5t46 -15q21 0 132 36 l6 -38l-408 -230l-145 254l-260 -217q-12 -3 -38.5 -10.5t-45 -12t-29.5 -4.5q-59 0 -115 14.5t-149 47.5q-98 36 -186.5 61t-151.5 25q-73 0 -178 -96z" />
<glyph unicode="V" horiz-adv-x="2009" d="M49 1008q0 57 56 129t122 129q79 66 179 101.5t212 35.5q91 0 171 -34t136.5 -100.5t78.5 -152.5q52 49 144 116t187 117t150 50q90 0 231 -82q103 -60 133 -60q69 0 127 17v-39q-96 -56 -170.5 -138t-74.5 -169q0 -119 8 -164l35 -195q16 -94 16 -139 q0 -90 -35.5 -153.5t-82 -102.5t-152.5 -117q-49 -37 -93.5 -61t-94 -38.5t-101.5 -14.5q-124 0 -393 127q-239 106 -344 106q-124 0 -293 -127l-25 37q99 83 340 248q155 37 204.5 148t49.5 292q0 141 -39 254q-35 101 -115 173.5t-184 72.5q-54 0 -110 -36t-56 -85 q0 -73 111 -174q46 -39 86.5 -81.5t40.5 -76.5q0 -45 -35 -90t-91.5 -86t-120.5 -77.5t-97 -55.5l-41 39q48 32 73.5 50.5t51.5 48.5t26 57q0 30 -106 141q-67 72 -91 103t-24 57zM705 354q57 -1 173.5 -44.5t262.5 -104.5q108 -45 175 -67.5t128 -22.5q58 0 80 32t22 93 q0 28 -8 82l-47 264q-8 41 -8 125q0 76 3.5 106.5t20 58t62.5 76.5q57 57 135 125q-101 0 -225 72q-127 74 -191 74q-97 0 -258 -211q4 -58 4 -90q0 -225 -92 -387z" />
<glyph unicode="W" horiz-adv-x="2527" d="M51 1012q0 99 185 256q50 42 112.5 70t132 41.5t146.5 13.5q89 0 171 -29.5t145.5 -88t98.5 -140.5q147 102 404 260l170 -250q282 248 432 248q83 0 207 -68q120 -65 201 -65q21 0 77 14l4 -35q-104 -87 -192 -185.5t-88 -172.5q0 -52 37 -191q43 -168 43 -262 q0 -158 -56 -217l-370 -242q-80 -26 -150 -26q-74 0 -225 51q-205 68 -362 86q-142 -67 -250 -133q-13 -1 -26.5 -2.5t-29.5 -3.5t-24 -2q-117 0 -297 88q-74 33 -117.5 49t-85.5 16q-108 0 -250 -121l-26 45q43 41 95.5 84t102.5 81t144 106q10 -2 32 -2q114 0 201.5 72.5 t124.5 185.5q37 115 37 262q0 114 -39 219t-121 170.5t-199 65.5q-75 0 -139.5 -26t-64.5 -93q0 -31 22.5 -59.5t89.5 -96.5t97 -107.5t30 -74.5q0 -63 -47.5 -119.5t-108 -96t-145.5 -85.5l-53 30q66 38 104.5 73t38.5 85q0 31 -29.5 68t-82 90t-80 91t-27.5 73zM612 268 q41 -16 203 -86q83 -35 135.5 -51t108.5 -16q19 0 59 16.5t86 39t74 34.5q152 128 152 506q0 147 -29 260q-22 84 -63.5 129.5t-125.5 87.5q-110 -82 -145 -150q2 -26 2 -82q0 -330 -180 -534zM1436 279q82 -18 379 -125q100 -37 180 -37q56 0 76 33.5t20 93.5q0 64 -41 260 t-41 272q0 35 6 64q78 88 134.5 144t119.5 97q-14 -6 -59 -6q-19 0 -48 11q-28 10 -63 28l-57 29q-67 29 -105 42t-75 13q-111 0 -222 -127q25 -109 25 -225q0 -224 -92 -418z" />
<glyph unicode="X" horiz-adv-x="1737" d="M63 43l166 166q128 -109 224 -109q76 0 182 93q66 56 98 172q35 109 35 278q-322 0 -428 -6l133 115q84 -4 299 -4q0 131 -24 235q-22 88 -83 146.5t-149 58.5q-110 0 -194 -74l-84 -78l-37 41q76 79 165 156.5t191 155.5q66 0 138.5 -24t129.5 -63.5t99.5 -101 t50.5 -127.5q59 72 131.5 135.5t155 110t168.5 74.5q29 -60 52 -97t58.5 -63.5t85.5 -26.5q44 0 80 8l2 -34l-268 -131q-130 45 -221 178q-101 -99 -160.5 -223t-59.5 -256q142 0 246 1.5t154 4.5l-133 -111h-275q0 -214 106 -367t310 -153q44 0 98 17.5t133 49.5l-6 -53 q-93 -57 -270 -186q-129 -23 -133 -23q-104 0 -178.5 48t-122.5 125.5t-90 183.5q-37 -34 -115 -99t-151.5 -118.5t-147 -94.5t-115.5 -41q-41 0 -96 27.5t-150 83.5z" />
<glyph unicode="Y" horiz-adv-x="2013" d="M66 4q29 28 74.5 71.5t86 81.5t84.5 74t82 62q13 0 21 -0.5t18 -1.5q151 0 248 82q47 45 76 155q26 112 26 285q0 69 -14 131.5t-45 120.5t-78 104q-99 101 -203 101q-64 0 -113.5 -30.5t-49.5 -92.5q0 -40 28 -77t90 -99q64 -60 91.5 -92.5t27.5 -63.5 q0 -63 -110 -152.5t-226 -158.5l-51 41q75 42 112.5 74.5t37.5 87.5q0 26 -26.5 56.5t-78.5 80.5q-53 53 -79.5 90t-26.5 78q0 106 161 243q53 46 119.5 77.5t138.5 47t150 15.5q101 0 170 -33.5t114.5 -94t88.5 -159.5q74 56 126 93.5t107 74t116 71t122 60.5 q103 -116 268 -195q8 -57 21 -166.5t19.5 -196.5t6.5 -157q0 -395 -168 -735q-159 -175 -358 -285t-412 -110q-207 0 -336 110l103 199l28 -6q31 -75 69.5 -119.5t94 -65t137.5 -20.5q180 0 298 85.5t177.5 221.5t81 292.5t21.5 334.5q0 191 -29 326q-25 111 -81.5 175 t-164.5 64q-118 0 -223 -135q8 -37 8 -113q0 -280 -122 -452q-148 -88 -275 -189q31 -6 189 -67q98 -41 172 -41q77 0 229 119l12 -43q-83 -98 -162 -170t-174 -123q-83 13 -156.5 37.5t-185.5 68.5q-126 51 -182 51q-130 0 -283 -137z" />
<glyph unicode="Z" horiz-adv-x="1454" d="M-12 154q220 141 340 141q113 0 139.5 -59t26.5 -191q0 -252 217 -252q87 0 159 65.5t101 151.5q33 96 33 213q0 137 -39.5 218.5t-121.5 116t-218 34.5q-76 0 -181 -14l-20 18l90 139l-25 4l33 41q159 0 241.5 49t82.5 195q0 69 -41 116t-103.5 69t-128.5 22 q-158 0 -262 -88q-22 -17 -48 -37.5t-38 -32.5l-37 51q150 132 301 238q119 22 232 22q163 0 282 -52t119 -193q0 -97 -54 -180t-142.5 -137t-180.5 -64v-10q151 0 269.5 -38.5t190 -131t71.5 -244.5q0 -130 -47 -245.5t-142 -197.5q-106 -89 -238 -140.5t-269 -51.5 q-102 0 -173 27t-113 87.5t-56 163.5q-10 90 -29 127t-94 37q-51 0 -115 -35z" />
<glyph unicode="[" horiz-adv-x="524" d="M74 -266v1779q94 -8 389 -8v-51l-287 -24v-1618l287 -15v-41q-152 0 -389 -22z" />
<glyph unicode="]" horiz-adv-x="524" d="M29 -211l293 23v1618l-293 18v49q282 0 397 12v-1777q-152 16 -397 16v41z" />
<glyph unicode="^" horiz-adv-x="1206" d="M0 948l604 553l592 -508l-94 -55l-502 436l-545 -450z" />
<glyph unicode="a" horiz-adv-x="1233" d="M160 270q0 115 10 227t31 253q101 43 207.5 101t197.5 114q103 -41 258 -66l135 57l17 -14q-23 -89 -29 -180.5t-6 -229.5q0 -132 8 -239l105 -129l96 41l10 -37l-297 -227q-70 104 -145 170l-2 53l-383 -230q-102 84 -209 216q-4 80 -4 120zM395 473q0 -64 8 -190 q27 -26 55.5 -53.5t53 -49t59.5 -45.5l183 88l-6 525q-64 0 -134 12t-163 35q-56 -87 -56 -322z" />
<glyph unicode="b" horiz-adv-x="1206" d="M174 145q13 106 18.5 219.5t7 217.5t1.5 258q0 57 -2.5 159.5t-9 192.5t-15.5 166q7 5 14.5 9.5t15 7.5t11.5 3l51 -159q94 57 186.5 111t155.5 81l41 -22q-94 -54 -141 -116.5t-63.5 -139.5t-16.5 -191q1 -42 1.5 -77.5t0.5 -92.5l309 195q65 -32 285 -121 q6 -102 6 -205q0 -249 -39 -444q-98 -55 -184.5 -100t-181 -87t-189.5 -76q-164 114 -262 211zM434 548q0 -78 0.5 -170t1.5 -108q77 -60 143 -100t134 -59q29 60 46 126.5t23 136t6 138.5q0 101 -12 203l-201 65l-141 -69v-163z" />
<glyph unicode="c" horiz-adv-x="948" d="M176 446q0 182 25 302l401 219q153 -28 264 -90l-159 -197h-21q-99 89 -211 123h-20l-13 -19q-24 -100 -24 -233q0 -80 12 -236q135 -120 207 -168l217 84v-41q-72 -44 -98.5 -60.5t-120 -73.5t-137.5 -82t-47 -27q-118 84 -267 233q-8 172 -8 266z" />
<glyph unicode="d" horiz-adv-x="1204" d="M-4 1137q52 29 108 53.5t125.5 51.5t130.5 50q112 -25 230.5 -75t220.5 -108.5t219 -137.5q14 -106 14 -223q0 -275 -88 -527q-44 -35 -114 -81t-172 -108l-152 -91q-103 57 -181.5 111.5t-156.5 121.5q0 39 -0.5 62t-1.5 51q0 224 29 413q112 102 317 238l45 -20 q-41 -31 -123 -113q-32 -125 -32 -291q0 -93 10 -213q123 -104 276 -166q61 100 82 223.5t21 270.5q0 92 -10 209q-377 303 -584 303q-83 0 -174 -33z" />
<glyph unicode="e" horiz-adv-x="965" d="M164 397q0 90 7.5 188t18.5 171q73 38 144 76t144 76t106 55q82 -70 148 -121.5t145 -100.5q-143 -121 -494 -372l2 -66q101 -78 242 -164q24 10 68 25.5t84.5 29.5t70.5 27l20 -33q-249 -160 -403 -245q-78 51 -148 107t-145 126q-10 123 -10 221zM381 457 q41 29 135.5 86.5t145.5 101.5q-85 53 -143.5 91t-92.5 63q-45 -209 -45 -324v-18z" />
<glyph unicode="f" horiz-adv-x="795" d="M70 727l100 90h88q-59 200 -59 318q124 151 278 272q59 -42 93.5 -60t72.5 -18q49 0 94 33l23 -25l-178 -174q-113 0 -234 35q4 -46 21.5 -87.5t58.5 -117.5q66 -114 86 -176h238l-74 -90h-160q0 -418 -49 -782q-37 -72 -76 -140.5t-80 -134t-84 -123.5h-43l47 123 q34 85 43 208.5t9 305.5q0 209 -13 543h-202z" />
<glyph unicode="g" horiz-adv-x="1217" d="M31 -281l327 234l-172 190q-12 114 -12 232q0 205 45 373q220 129 402 219q70 -32 109 -48t80.5 -30t74.5 -19l176 80l24 -8q-43 -90 -57 -209t-14 -260q0 -75 13.5 -151t40 -185.5t38.5 -181.5q-197 -209 -414 -375q-40 -4 -63 -4q-215 0 -482 156l-71 -39zM383 -106 q125 -68 214 -108t140 -40q66 0 87.5 18.5t21.5 83.5q0 77 -66 316zM426 483q0 -105 12 -213q103 -101 178 -135q122 61 168 94q-2 45 -2 133q0 162 11 338q-49 8 -81.5 17t-69.5 21t-96.5 34.5t-86.5 32.5q-33 -154 -33 -322z" />
<glyph unicode="h" horiz-adv-x="1260" d="M180 127q6 88 14 223t12.5 291.5t4.5 239.5q0 235 -18 475l36 18l50 -155q224 136 317 186l43 -31q-98 -39 -143 -130t-45 -208q0 -66 -2.5 -144t-2.5 -122q112 62 293 193q88 -44 152 -71.5t139 -53.5q6 -142 6 -285q0 -189 -9.5 -339.5t-37.5 -276.5q-39 -46 -79 -86.5 t-104 -99.5t-105 -95t-91 -80l-75 43q68 33 165 119q27 23 39.5 53.5t28.5 85.5q23 82 30 170t7 199q0 117 -6.5 225t-18.5 217q-110 61 -207 82l-127 -61q-12 -120 -12 -242q0 -92 10 -205q39 -57 113 -139q-90 -50 -238 -172q-65 99 -139 176z" />
<glyph unicode="i" horiz-adv-x="678" d="M2 780q191 123 279 195q14 -11 168 -113q-11 -184 -11 -350q0 -116 6 -229q0 -24 32.5 -69.5t55.5 -45.5q1 0 19 6l106 39l11 -35q-50 -31 -115 -75t-123.5 -86.5t-93.5 -69.5q-26 38 -152 168q23 186 23 364q0 117 -10 269l-78 43l-80 -35zM147 1253l187 150 q77 -87 160 -148l-164 -153q-70 48 -183 151z" />
<glyph unicode="j" horiz-adv-x="678" d="M-41 -385q88 53 143.5 97t94.5 107.5t39 143.5q10 141 10 479q0 185 -6 226q-14 108 -97 108l-75 -35l-52 29l275 207q34 -24 94 -57t90 -52q10 -190 10 -342q0 -73 -2 -142.5t-8.5 -148t-16.5 -154t-24 -140.5q-83 -83 -190.5 -180t-204.5 -177zM150 1247l165 148 q13 -13 164 -142l-166 -149q-95 75 -163 143z" />
<glyph unicode="k" horiz-adv-x="948" d="M66 631l102 78h65q0 86 -0.5 158.5t-2.5 176t-6.5 183.5t-12.5 131l45 16l55 -153q64 50 142.5 93.5t162.5 80.5l39 -27q-110 -53 -148 -132.5t-38 -211.5q69 48 281 170q122 -133 122 -211q0 -48 -63 -111l-156 -163h183l-78 -78h-295q0 -55 5 -176t9 -176l182 -140 l205 84l19 -39q-30 -20 -150.5 -89.5t-255.5 -145.5q-175 144 -264 196q8 41 8 91q4 99 6 214.5t4 180.5h-165zM469 709h66q42 0 96.5 65t54.5 117q0 74 -80 162q-61 -36 -86 -69t-39 -101q-12 -70 -12 -174z" />
<glyph unicode="l" horiz-adv-x="688" d="M203 113q13 117 17.5 233.5t4.5 280.5q0 260 -16 714l37 25l47 -152q131 90 309 179l23 -19q-64 -45 -94 -80.5t-50 -103.5q-24 -85 -24 -195q-4 -208 -4 -317q0 -276 20 -449l53 -61l111 41v-37l-303 -221z" />
<glyph unicode="m" horiz-adv-x="1884" d="M31 772l278 201q62 -60 158 -115l-8 -104q178 99 307 211q175 -86 285 -115l-7 -82l302 193q164 -70 294 -107q-30 -157 -30 -348q0 -112 10 -252q17 -24 30.5 -41.5t32 -36t31.5 -18.5q5 0 25 10l92 39l8 -47q-140 -80 -336 -221q-72 97 -153 182q28 88 28 315 q0 60 -0.5 77t-2 76t-3.5 113q-42 19 -92 36.5t-102 31.5l-138 -53q-6 -74 -6 -225q0 -150 2 -226l117 -147l-244 -176l-123 166q23 104 23 319q0 63 -1 94.5t-2 79t-3 107.5q-62 24 -185 55l-153 -51q-2 -45 -2 -140q0 -140 10 -317l113 -150l-234 -169q-88 129 -135 184 q16 123 16 295q0 109 -8 313l-73 55l-95 -39z" />
<glyph unicode="n" horiz-adv-x="1337" d="M4 778l268 191q93 -70 166 -103l-2 -98q155 83 309 201q93 -50 302 -129q-23 -218 -23 -426q0 -48 4 -146l94 -104l117 51l4 -35q-68 -43 -114 -76.5t-87 -66t-112 -90.5q-28 41 -74 92.5t-90 99.5q25 135 25 310q0 67 -9 256q-73 36 -200 69l-148 -53l2 -457l127 -137 l-231 -184q-83 93 -158 155q21 78 21 240q0 146 -17 412l-47 43l-90 -43z" />
<glyph unicode="o" horiz-adv-x="1245" d="M215 258q0 236 45 483q199 104 426 244q83 -49 174 -85.5t191 -61.5q2 -50 2 -148q0 -159 -10 -279t-42 -229q-64 -41 -123 -75t-110 -60.5t-112.5 -55.5t-137.5 -61q-182 107 -299 203q-4 86 -4 125zM459 487q0 -93 14 -219q77 -58 147 -96.5t150 -58.5q57 212 57 442 q0 95 -8 168q-163 22 -299 76q-61 -100 -61 -312z" />
<glyph unicode="p" horiz-adv-x="1235" d="M-6 16q104 96 160 143.5t75 47.5q2 0 5 -3t4 -5v534q-56 67 -76.5 95t-30.5 65q79 111 221 246l43 -13q-41 -45 -41 -86q0 -22 11.5 -43.5t28.5 -42.5t41 -43.5t40 -38.5v-81l293 194q160 -80 295 -125q0 -2 -3 -3t-3 -3q4 -114 4 -168q0 -147 -13.5 -269t-48.5 -245 q-150 -79 -309 -211q-93 69 -215 84q0 -159 19 -375l-232 -94l-35 10l13 480q-111 0 -222 -84zM475 266q151 -22 311 -100q31 191 31 348q0 100 -12 199q-101 41 -207 71l-123 -47v-471z" />
<glyph unicode="q" horiz-adv-x="1219" d="M176 289q0 213 53 471l400 217q131 -53 256 -74l143 88l25 -12q-22 -76 -35 -183.5t-18.5 -221t-7 -224t-1.5 -266.5q0 -185 19 -432l-234 -84l-37 20q27 204 27 525v47l-383 -221l-201 211q-6 70 -6 139zM422 424q0 -82 2 -123q54 -74 147 -156q116 36 189 80 q0 65 0.5 129.5t1.5 119t4 136t6 121.5q-139 14 -299 57q-18 -35 -28 -77.5t-15 -87t-6.5 -94t-1.5 -105.5z" />
<glyph unicode="r" horiz-adv-x="940" d="M23 780l284 185l174 -125l2 -62l217 183q10 -12 25 -35t41 -54.5t46 -47t40 -15.5l74 18v-22q-69 -63 -209 -152l-3 -3q-2 -3 -3 -3q-23 4 -57 20t-58 33l-76 62q-47 -47 -47 -277q0 -31 2 -77.5t4 -108.5q2 -24 33 -59l127 -97l182 64l2 -43l-356 -217q-82 80 -254 209 q29 107 29 286q0 131 -13 252q-49 54 -96 82l-88 -24z" />
<glyph unicode="s" horiz-adv-x="1069" d="M-51 53l258 203q70 12 106 12q83 0 336 -186q13 80 13 149q0 67 -11 168q-60 62 -116 62q-32 0 -83 -20.5t-104.5 -48t-97.5 -50.5q-31 27 -61.5 71t-30.5 74v285l381 209l137 -78q48 -29 115 -29q43 0 78 16.5t102 57.5l12 -45l-291 -203q-100 0 -289 138 q-18 -75 -18 -148q0 -113 51 -194q75 20 151 50t171 72q66 -30 127 -73q18 -122 18 -205q0 -140 -39 -248q-119 -42 -221 -82.5t-180 -79.5q-83 69 -160.5 111.5t-155.5 42.5q-81 0 -176 -64z" />
<glyph unicode="t" horiz-adv-x="805" d="M86 733l2 19l94 75h80v303l320 195l45 -16l-97 -88l-22 -394h213v-12l-103 -80h-118v-148.5t2.5 -149t9.5 -161.5q0 -27 28 -52.5t63 -46.5t67 -38l153 74l8 -41l-364 -227q-116 111 -215 178q7 111 8.5 252t1.5 358h-176z" />
<glyph unicode="u" horiz-adv-x="1204" d="M16 774l275 191q8 -6 39.5 -29.5t67 -50t53.5 -39.5q8 -214 8 -316q0 -222 -70 -317q74 -16 240 -86l135 55q2 62 2 193q0 169 -8 491l246 90l30 -18q-37 -230 -37 -616l82 -156l21 -4l123 45l12 -27l-326 -246l-123 201q-140 -55 -354 -196q-106 76 -297 147 q62 66 84.5 161.5t22.5 211.5q0 58 -9.5 119t-29.5 149l-86 57l-72 -39z" />
<glyph unicode="v" horiz-adv-x="1237" d="M113 862q0 29 22.5 64t52.5 66.5t71.5 69.5t59.5 54l41 -8q-38 -47 -38 -86q0 -24 23 -56t58.5 -68t47.5 -48l-5 -59l299 182l285 -125q6 -99 6 -197q0 -345 -78 -487l-518 -221q-99 101 -247 192q18 76 18 299q0 99 -12 291q-49 56 -67.5 83.5t-18.5 53.5zM446 311 q0 -29 7 -42t30 -36q24 -21 109.5 -69.5t105.5 -48.5q31 0 37 22q60 172 60 400q0 95 -7 176q-81 41 -200 82l-142 -58v-426z" />
<glyph unicode="w" horiz-adv-x="1878" d="M109 874l4 10q4 10 4 13q124 154 207 225l32 -6q-30 -43 -30 -96q0 -22 24 -52t61 -63.5t54 -48.5v-76q59 34 280 183q134 -76 299 -138v-69l345 205q55 -30 128.5 -63.5t149.5 -61.5q0 -215 -20.5 -416t-85.5 -305q-265 -102 -422 -183q-100 61 -138.5 82.5t-103 48.5 t-123.5 41q25 86 25 375q0 70 -0.5 111t-1.5 90q-62 42 -197 90l-139 -45q-6 -88 -6 -180q0 -36 1.5 -88.5t5.5 -122.5t7 -103l104 -129l-225 -163q-53 70 -88.5 111.5t-79.5 70.5q25 63 32 138.5t7 184.5q0 95 -12 283l-76 80q-22 25 -22 67zM1038 446q0 -167 41 -198 q43 -26 137.5 -72.5t116.5 -46.5q25 0 47 92.5t29 149.5q16 139 16 315q-69 36 -217 82l-157 -63q-13 -126 -13 -259z" />
<glyph unicode="x" horiz-adv-x="938" d="M14 -184q0 31 11 59q125 174 235 268q12 88 12 283q0 149 -8 266l-4 15l-16 22l-92 49l-82 -33l-31 25q198 146 289 193l188 -119v-74l232 184q58 -73 81.5 -100.5t71.5 -77.5l-141 -133q-28 4 -92.5 40t-87.5 56q-7 4 -19 4q-51 0 -51 -211q0 -196 6 -262q11 -17 19 -30 l147 -103l178 68l4 -37l-366 -227l-187 149q-37 -6 -69.5 -32t-53 -62.5t-20.5 -73.5q0 -127 315 -176l2 -18l-190 -113q-281 76 -281 201z" />
<glyph unicode="y" horiz-adv-x="1204" d="M121 883q0 29 38 77.5t86.5 96t84.5 82.5l37 -9q-35 -40 -35 -79q0 -71 139 -187v-78l287 189q119 -66 289 -133q0 -127 -9.5 -397t-9.5 -365q0 -104 -117 -215q-111 -109 -207.5 -187.5t-195.5 -130.5l-76 47q58 28 125.5 61.5t104 67.5t61.5 90t41 146q35 200 35 414 q0 142 -15 319q-112 64 -198 86l-119 -51v-438q0 -49 16 -68q12 -13 42 -54t46 -58l-213 -166q-100 115 -176 180q25 74 32 226.5t7 375.5q0 6 -3 12.5t-5 12.5q-12 12 -27.5 28t-32 36t-24.5 37t-8 32z" />
<glyph unicode="z" horiz-adv-x="942" d="M-18 -233q73 104 153 197.5t171.5 180.5t187.5 160q-44 31 -112 46.5t-161 27.5l-2 18l189 133q38 31 54.5 49t16.5 46q0 52 -58.5 93.5t-113.5 41.5q-66 0 -176 -82l-31 31q140 123 353 256q80 -26 158.5 -87.5t78.5 -132.5q0 -24 -65 -83l-131 -121q117 -37 243 -103 q33 -148 33 -286q0 -196 -63 -363l-318 -227q-149 0 -251.5 42.5t-155.5 162.5zM207 -94q0 -50 47 -91t112 -64t111 -23h10q41 95 41 272q0 102 -14 246q-29 -24 -86 -71.5t-105 -94t-82 -94.5t-34 -80z" />
<glyph unicode="}" horiz-adv-x="518" d="M20 1341q0 80 84 80q27 0 53.5 -11t26.5 -32v-106l-51 -389h-53l-47 311q-13 106 -13 147zM309 1364q0 49 94 49q24 0 47 -9.5t23 -29.5q0 -65 -4 -94l-45 -397h-49l-56 393q-10 72 -10 88z" />
<glyph unicode="&#xa2;" horiz-adv-x="1202" d="M129 1169q41 15 139.5 61t163.5 58q263 -29 608 -295q7 -100 7 -174q0 -161 -24 -313.5t-73 -298.5q-112 -70 -246 -149.5t-200 -112.5q-171 113 -309 229q-13 163 -13 266q0 168 23 303q105 86 330 207l30 -18l-88 -72q-59 -53 -59 -309q0 -99 10.5 -168.5t48.5 -114.5 q70 -65 221 -149q62 89 81.5 229.5t19.5 306.5q0 122 -8 219q-119 99 -277 189t-272 90q-41 0 -86 -12z" />
<glyph unicode="&#xa3;" horiz-adv-x="805" d="M74 752l92 75h104v224q0 157 58 217q23 25 49 51.5t42 39.5t40 25.5t67 26.5q103 -2 234 -70l67 39l4 -43l-219 -204q-120 88 -157 88q-48 0 -88.5 -25t-40.5 -70q0 -53 36.5 -100.5t99 -109.5t73.5 -89h256v-14l-97 -80h-168q0 -256 -14 -479t-61 -322l-205 -362l-51 -4 q39 114 56 173t24.5 125.5t7.5 172.5v704h-205z" />
<glyph unicode="&#xa4;" horiz-adv-x="793" d="M72 735l98 82h96q-29 89 -63 244q41 157 126 243.5t236 86.5q66 0 197 -103l-150 -166l-28 -6q-89 127 -162 127q-49 0 -83 -25.5t-34 -72.5q0 -80 109 -174q102 -87 102 -154h262l6 -12l-73 -86h-201q0 -35 -5 -137t-15 -250.5t-13.5 -196.5t-15.5 -211l-219 -366 l-49 -7q9 23 22.5 67.5t22.5 70.5q30 92 38.5 241.5t8.5 337.5q0 215 -11 451h-192z" />
<glyph unicode="&#xa5;" d="M135 -291l135 201h21q47 -92 146.5 -138t213.5 -46q85 0 136 26t51 103q0 84 -52 333l-395 -247q-127 131 -196 188q-7 104 -7 219q0 212 29 408q46 31 116 71t158 85.5t109 56.5q106 -52 287 -92l184 79l14 -12q-40 -89 -52.5 -183t-12.5 -214q0 -275 29 -449 q1 -14 4.5 -37t6.5 -42.5t3 -28.5q0 -46 -21 -88l-309 -301q-116 -33 -209 -33q-107 0 -208.5 37.5t-180.5 103.5zM406 518q0 -97 12 -192q4 -30 19 -56t35.5 -45.5t46 -38.5t59.5 -43l204 101l4 465q-164 19 -333 104q-27 -65 -37 -136.5t-10 -158.5z" />
<glyph unicode="&#xa6;" horiz-adv-x="805" d="M66 737v21l106 69l37 -2q0 194 -2.5 327.5t-13.5 201.5l30 20l62 -153q164 105 321 176l35 -17q-95 -47 -140.5 -134.5t-45.5 -198.5l241 145q63 -89 95 -152l-127 -131l-17 -4q-78 111 -135 111q-47 0 -60.5 -60t-13.5 -137h267l-76 -82h-185q0 -381 7 -473 q117 -81 182 -117l129 41l6 -36q-136 -76 -205.5 -117t-138.5 -90q-127 112 -246 182q20 65 25.5 223t5.5 387h-143z" />
<glyph unicode="&#xa7;" horiz-adv-x="813" d="M92 752l88 84h76v249l238 113l24 -18l-20 -344h223v-21l-88 -80h-135q0 -89 0.5 -198.5t2 -180t3.5 -88.5q95 -95 192 -131l144 68v-47l-351 -226q-89 80 -247 172q16 190 16 357v272h-162z" />
<glyph unicode="&#xa9;" horiz-adv-x="2007" d="M61 1020q0 97 148 219q83 70 187.5 111t215.5 41q140 0 242.5 -75t151.5 -208l2 -2q100 74 207 137t258 146q49 -48 112.5 -88.5t163.5 -94.5q41 -424 41 -557q0 -433 -166 -721q-183 -166 -393 -272.5t-418 -106.5q-174 0 -268 80q-49 39 -58 56l215 223l27 -4 q0 -112 88 -177t203 -65q171 0 284.5 113t163.5 288q31 106 44.5 224t13.5 252q0 316 -39 501q-62 42 -127.5 77t-130.5 59q-138 -93 -201 -170q6 -43 6 -138q0 -246 -121 -407q-9 -5 -117 -77.5t-153 -102.5q135 -56 219.5 -85.5t132.5 -29.5q56 0 108.5 29.5t113.5 80.5 l12 -43q-142 -155 -332 -292q-12 -4 -20 -4q-66 0 -238 77q-51 23 -103 43.5t-99.5 33.5t-90.5 13q-79 0 -124 -31t-113 -106l-41 45q20 23 62.5 64.5t91 83.5t100.5 85t61 50q212 0 300.5 97t88.5 310q0 90 -15.5 186t-53.5 182.5t-104.5 140t-164.5 53.5 q-36 0 -73.5 -13.5t-63 -41t-25.5 -62.5q0 -38 27 -74t84 -94t87 -96t30 -74q0 -44 -34 -86.5t-86 -81.5t-117.5 -77.5t-90.5 -53.5l-47 25q41 24 93 73.5t52 83.5q0 19 -25 51t-63 74q-59 67 -90 112t-31 91z" />
<glyph unicode="&#xaa;" horiz-adv-x="1487" d="M33 -61q92 67 191 111t196 44q63 0 91 -28t28 -91q0 -31 -9 -71q-6 -27 -6 -84q0 -27 45 -37q8 -1 15.5 -2.5t16 -3.5t13.5 -2q68 0 136 32.5t120 83.5q71 73 101 185.5t30 240.5q0 66 -11 117.5t-44 81.5q-93 74 -272 74q-89 0 -219 -33l-35 27l115 166q90 15 169.5 57 t129 112t49.5 160q0 49 -47 68.5t-107 19.5q-91 0 -180 -12q-220 -20 -195 -20q-67 0 -102.5 24t-54.5 86q40 50 70 86.5t60 71t58 61.5l37 2q-8 -16 -8 -36q0 -72 102 -72q59 0 120.5 3t122 6t120.5 3q94 0 174 -34.5t80 -114.5q0 -93 -56 -179t-141 -153t-176 -113l-2 -6 l18 -4q21 2 119 2q191 0 360 -141q37 -37 37 -152q0 -105 -19 -202.5t-62.5 -187.5t-108.5 -155q-67 -69 -156.5 -116.5t-190 -71t-196.5 -23.5t-194.5 8t-98.5 37l2 107q0 33 -25 56.5t-59 23.5q-58 0 -131 -41z" />
<glyph unicode="&#xad;" horiz-adv-x="1827" d="M111 483l39 78h1556l-33 -78h-1562z" />
<glyph unicode="&#xb5;" horiz-adv-x="518" d="M109 1104q0 102 229 344l33 -29q-117 -171 -117 -239q0 -51 33 -93l78 -102q20 -27 20 -55q0 -31 -34.5 -61.5t-67.5 -30.5q-55 0 -114.5 100t-59.5 166z" />
<glyph unicode="&#xb6;" horiz-adv-x="518" d="M119 1327q0 37 32 62.5t70 25.5q35 0 75.5 -48.5t69.5 -114t29 -101.5q0 -44 -21 -89.5t-55.5 -90.5t-76.5 -91t-64 -73l-39 22q61 85 89 135t28 109q0 39 -31 80l-86 115q-20 26 -20 59z" />
<glyph unicode="&#xc4;" horiz-adv-x="1108" d="M152 1214l2 64l583 178q3 1 5.5 1.5t7.5 0.5q14 0 24 -10t10 -23q-39 -423 -39 -845q0 -182 1 -295t8 -219l-232 -84l-45 28q41 342 41 725q0 207 -12 410q0 19 -21 44t-41 25h-292z" />
<glyph unicode="&#x2000;" horiz-adv-x="756" />
<glyph unicode="&#x2001;" horiz-adv-x="1513" />
<glyph unicode="&#x2002;" horiz-adv-x="756" />
<glyph unicode="&#x2003;" horiz-adv-x="1513" />
<glyph unicode="&#x2004;" horiz-adv-x="504" />
<glyph unicode="&#x2005;" horiz-adv-x="378" />
<glyph unicode="&#x2006;" horiz-adv-x="252" />
<glyph unicode="&#x2007;" horiz-adv-x="252" />
<glyph unicode="&#x2008;" horiz-adv-x="189" />
<glyph unicode="&#x2009;" horiz-adv-x="302" />
<glyph unicode="&#x200a;" horiz-adv-x="84" />
<glyph unicode="&#x2010;" horiz-adv-x="1827" d="M111 483l39 78h1556l-33 -78h-1562z" />
<glyph unicode="&#x2011;" horiz-adv-x="1827" d="M111 483l39 78h1556l-33 -78h-1562z" />
<glyph unicode="&#x2012;" horiz-adv-x="1827" d="M111 483l39 78h1556l-33 -78h-1562z" />
<glyph unicode="&#x2013;" horiz-adv-x="1256" d="M111 483l25 78h999l-21 -78h-1003z" />
<glyph unicode="&#x2014;" horiz-adv-x="2280" d="M111 483l50 78h1998l-42 -78h-2006z" />
<glyph unicode="&#x202f;" horiz-adv-x="302" />
<glyph unicode="&#x205f;" horiz-adv-x="378" />
<glyph unicode="&#xe000;" horiz-adv-x="965" d="M0 965h965v-965h-965v965z" />
</font>
</defs>
</svg>
