<?xml version="1.0" standalone="no"?>
<!DOCTYPE svg PUBLIC "-//W3C//DTD SVG 1.1//EN" "http://www.w3.org/Graphics/SVG/1.1/DTD/svg11.dtd" >
<svg xmlns="http://www.w3.org/2000/svg">
<metadata>
This is a custom SVG webfont generated by Font Squirrel.
Copyright   : Copyright C 1994 1995 Basil K Malyshev All Rights Reserved012BaKoMa Fonts Collection LevelC
</metadata>
<defs>
<font id="eufm6Regular" horiz-adv-x="1360" >
<font-face units-per-em="2048" ascent="1638" descent="-410" />
<missing-glyph horiz-adv-x="682" />
<glyph unicode=" "  horiz-adv-x="682" />
<glyph unicode="&#x09;" horiz-adv-x="682" />
<glyph unicode="&#xa0;" horiz-adv-x="682" />
<glyph unicode="!" horiz-adv-x="879" d="M305 96q0 51 41.5 84t93.5 33q50 0 89.5 -33t39.5 -84t-39 -86t-90 -35q-52 0 -93.5 35t-41.5 86zM332 1276q0 68 25 100.5t92 32.5q42 0 65 -25.5t23 -66.5q0 -52 -13 -180l-84 -756l-37 -4l-65 780q-2 42 -4 72.5t-2 46.5z" />
<glyph unicode="&#x26;" horiz-adv-x="1911" d="M209 399q0 81 32 144t85.5 111t105 78t146.5 81q-64 138 -64 250q0 105 51 188.5t138 129.5t192 46q43 0 85 -13t77 -36t56.5 -58.5t21.5 -80.5q0 -95 -53.5 -168t-126.5 -122t-185 -109q-8 -3 -18 -11q81 -158 190 -295t246 -260q96 123 96 271q0 78 -67 147 q-30 29 -63.5 37t-90.5 8q-75 0 -160 -10l2 88q67 -3 186.5 -4.5t280.5 -1.5q295 0 363 6l-6 -98q-95 14 -343 14q21 -69 21 -129q0 -96 -46 -185.5t-126 -183.5q138 -124 250 -124t177 80.5t91 199.5l53 -12q-24 -114 -71 -203.5t-126.5 -143t-193.5 -53.5q-158 0 -307 123 q-198 -116 -367 -116q-114 0 -216 27t-173 87q-67 59 -105 137.5t-38 163.5zM389 444q0 -104 53 -191.5t143 -137t193 -49.5q132 0 273 86q-119 113 -246.5 284.5t-198.5 315.5q-77 -45 -121.5 -82t-70 -90.5t-25.5 -135.5zM657 1143q0 -108 66 -254q97 54 140.5 84.5 t73.5 83t30 133.5q0 36 -21 69t-54 52.5t-71 19.5q-83 0 -123.5 -52t-40.5 -136z" />
<glyph unicode="'" horiz-adv-x="682" d="M252 1360q0 30 26.5 45.5t57.5 15.5q34 0 53 -18t19 -51q0 -10 -11 -82l-59 -379h-37l-45 393q-4 50 -4 76z" />
<glyph unicode="(" horiz-adv-x="1096" d="M358 571q0 143 14.5 287.5t57 279t128 234t222.5 135.5v-39q-98 -42 -161.5 -147.5t-93 -236t-39 -260t-9.5 -263.5q0 -147 8.5 -271t32.5 -253q18 -91 51 -176q19 -44 51.5 -88.5t75 -78.5t84.5 -44v-31q-161 26 -252 152t-129 307q-41 208 -41 493z" />
<glyph unicode=")" horiz-adv-x="1096" d="M301 -348q82 30 128.5 60.5t76.5 73.5t47.5 99t30.5 140q30 191 30 538q0 765 -313 897v43q174 -32 272 -191.5t131 -358.5t33 -396q0 -151 -11 -277t-36 -239q-42 -192 -125 -293t-264 -129v33z" />
<glyph unicode="*" horiz-adv-x="836" d="M170 1055q115 63 201 116q-100 64 -199 115l49 47q77 -63 172 -129q0 107 -6 211h62q-17 -128 -19 -205q108 71 174 123l35 -39q-116 -61 -203 -118q103 -67 205 -121l-41 -43q-110 82 -172 123v-7q0 -34 4 -104q2 -39 10 -106h-57q6 57 6 116q2 37 2 115 q-87 -56 -194 -139z" />
<glyph unicode="+" horiz-adv-x="1952" d="M205 496l35 79h688v619l98 29v-648h723l-33 -79h-690v-625l-98 -39v664h-723z" />
<glyph unicode="," horiz-adv-x="836" d="M328 125q0 40 34.5 67t73.5 27q22 0 50 -30.5t52.5 -71t36.5 -68.5q19 -42 19 -104q0 -52 -33.5 -112t-77.5 -111t-104 -113l-27 37q43 48 76 113t33 118q0 51 -29 84l-82 98q-22 30 -22 66z" />
<glyph unicode="-" horiz-adv-x="1952" d="M201 483l39 78h1501l-31 -78h-1509z" />
<glyph unicode="." horiz-adv-x="836" d="M299 90q0 51 38 85t89 34q53 0 95 -33t42 -86q0 -52 -42 -86.5t-95 -34.5q-51 0 -89 35t-38 86z" />
<glyph unicode="/" d="M174 -373l916 1848l90 -19l-908 -1829h-98z" />
<glyph unicode="0" d="M190 403q0 132 75 249.5t190.5 205t246.5 150.5q113 -31 217 -99t171 -166.5t67 -212.5q0 -97 -49 -197t-134.5 -183t-185.5 -130t-198 -47q-91 0 -165.5 33.5t-126.5 92.5t-80 138.5t-28 165.5zM371 508q0 -101 40.5 -190t117 -143t178.5 -54q135 0 205.5 86.5 t70.5 224.5q0 105 -49.5 193t-136.5 145t-189 76q-99 -57 -144 -91.5t-69 -90.5t-24 -156z" />
<glyph unicode="1" d="M203 -4v92h334q26 0 36.5 12.5t10.5 38.5q4 37 4 391q0 209 -17 269q-7 27 -34 44.5t-61.5 25t-85 12t-54.5 4.5v55q100 0 168.5 2t153.5 6.5t133 9.5l22 -16q-27 -191 -27 -473q0 -189 9 -332q0 -32 32 -40.5t82 -8.5q129 0 258 6l-2 -96q-51 3 -158.5 7t-189.5 5.5 t-135 1.5q-120 0 -239.5 -5.5t-239.5 -10.5z" />
<glyph unicode="2" d="M233 35l232 190q350 293 350 455q0 36 -17 67.5t-44.5 53.5t-61.5 34.5t-69 12.5q-72 0 -263 -98l-24 36q109 83 212 133t204 50q58 0 113.5 -26.5t90.5 -75t35 -105.5q0 -71 -68.5 -170t-157 -191t-175 -172t-86.5 -82q0 -14 33 -14l665 17l23 -13l-58 -135h-931z" />
<glyph unicode="3" d="M184 -289l35 56q83 -35 145 -53.5t125 -18.5q111 0 200.5 43t140.5 126t51 195q0 124 -57 187.5t-147.5 83.5t-217.5 20q-23 0 -37 -0.5t-31 -1.5v70q82 0 179 26t167 81.5t70 140.5q0 61 -31 105.5t-83.5 67.5t-110.5 23q-72 0 -191 -76l-47 27q194 156 367 156 q53 0 104 -12.5t89.5 -38t62.5 -68t24 -98.5q0 -77 -44 -141t-110.5 -108.5t-146.5 -72.5l6 -18q168 0 284 -83.5t116 -244.5q0 -140 -87.5 -244.5t-223.5 -158.5t-269 -54q-166 0 -332 84z" />
<glyph unicode="4" d="M119 47l672 873l188 53l12 -6q-3 -86 -6.5 -230.5t-3.5 -271.5q0 -214 8 -383q155 4 230 10l-21 -94q-50 1 -92.5 1.5t-108.5 0.5q0 -258 4 -328l-182 -63l-26 20q16 164 16 371h-688zM279 86h530q0 152 -1 264.5t-5 219t-12 175.5h-29q-90 -99 -175 -207.5 t-159.5 -217.5t-148.5 -234z" />
<glyph unicode="5" d="M205 -326l26 54q115 -43 228 -43q111 0 206 41.5t152 125t57 195.5q0 139 -80 219t-219 80q-134 0 -249 -113l-43 23v680h792l-55 -164h-604q-39 0 -39 -24v-359l20 -8q151 59 299 59q115 0 212 -38.5t154.5 -118t57.5 -197.5q0 -126 -58.5 -216.5t-157 -145t-213.5 -78 t-232 -23.5q-58 0 -121.5 13.5t-132.5 37.5z" />
<glyph unicode="6" d="M199 485q0 179 68.5 350t199.5 302q125 125 283 209t313 84q37 0 104 -21l-20 -115l-19 -10q-67 25 -139 25q-111 0 -220.5 -51.5t-193.5 -137.5q-64 -63 -103.5 -142.5t-57 -166t-19.5 -184.5l17 -2q96 67 206.5 106t223.5 39q94 0 175.5 -43.5t129 -121.5t47.5 -173 q0 -128 -83.5 -233.5t-211.5 -165.5t-254 -60q-108 0 -193.5 40.5t-140.5 110t-83.5 162.5t-28.5 199zM403 537q0 -73 17.5 -152t55 -154t96.5 -120t135 -45q88 0 157 33t107.5 97.5t38.5 153.5q0 84 -44 151t-118.5 103.5t-157.5 36.5q-134 0 -287 -104z" />
<glyph unicode="7" d="M180 -342q294 356 838 1112l-14 10h-775l76 176q106 -12 233.5 -16t247.5 -4h469v-33q-126 -156 -249 -315t-239.5 -321t-218 -318.5t-192.5 -319.5h-168z" />
<glyph unicode="8" d="M186 322q0 105 54 179t122.5 116t204.5 110q-87 68 -137 112.5t-89.5 107t-39.5 134.5q0 101 56.5 170t137 110.5t191.5 80.5q168 0 295 -66.5t127 -216.5q0 -57 -26.5 -110.5t-73.5 -101t-97 -82.5t-106 -66q51 -31 120 -73t122.5 -87.5t87.5 -103.5t34 -132 q0 -134 -86 -230.5t-216 -144.5t-261 -48q-112 0 -208 35.5t-154 113.5t-58 193zM381 362q0 -85 35 -149.5t99 -101.5t149 -37q89 0 157 29t107 90t39 151q0 68 -30.5 118.5t-76 86t-107.5 69.5t-110 60q-130 -60 -196 -128t-66 -188zM479 1149q0 -82 77 -159.5t175 -139.5 q78 47 129 113.5t51 146.5q0 81 -41 132.5t-107.5 73t-146.5 21.5q-52 -33 -70 -45t-34 -29t-24.5 -43.5t-8.5 -70.5z" />
<glyph unicode="9" d="M158 479q0 109 39 186t105 127.5t172 96.5t167 72q137 0 239 -35t170.5 -105t102 -172t33.5 -239q0 -163 -71 -314.5t-195 -261.5q-85 -73 -191 -118.5t-222.5 -66t-244.5 -20.5v58q136 0 247.5 28t192.5 86.5t139 155.5t87 229l-13 7q-189 -89 -346 -123 q-117 0 -211.5 52t-147 145.5t-52.5 211.5zM365 539q0 -86 37.5 -167t107 -130t158.5 -49q121 0 204.5 54t83.5 169q0 117 -40 216t-122.5 158.5t-201.5 59.5q-74 0 -125 -47t-76.5 -120t-25.5 -144z" />
<glyph unicode=":" horiz-adv-x="692" d="M209 815q0 50 35.5 84.5t85.5 34.5q55 0 102 -32.5t47 -86.5q0 -36 -23 -62t-57 -39.5t-69 -13.5q-47 0 -84 33.5t-37 81.5zM217 84q0 29 13 60.5t38.5 51t59.5 19.5q60 0 108.5 -36t48.5 -95q0 -53 -50.5 -81t-106.5 -28q-44 0 -77.5 32.5t-33.5 76.5z" />
<glyph unicode=";" horiz-adv-x="692" d="M205 817q0 50 36 84.5t87 34.5q55 0 100 -33t45 -86t-44.5 -85t-100.5 -32q-48 0 -85.5 34t-37.5 83zM246 104q0 43 26 66v10q32 23 72 23t78 -44t64 -105.5t26 -102.5q0 -77 -57.5 -157t-151.5 -181l-37 25q45 52 78 114.5t33 116.5q0 40 -31 78l-80 104q-20 28 -20 53z " />
<glyph unicode="=" horiz-adv-x="1952" d="M221 268l21 80h1544l-21 -80h-1544zM221 672l21 80h1544l-21 -80h-1544z" />
<glyph unicode="?" horiz-adv-x="1034" d="M201 1137q0 86 71.5 150t171 96t183.5 32q85 0 153.5 -29t109 -88t40.5 -145q0 -184 -268 -387q-83 -61 -139 -112.5t-56 -96.5q0 -73 78 -115l-109 -65q-47 17 -80.5 52t-33.5 81q0 89 237 268q205 153 205 336q0 44 -18 83t-51 70.5t-74.5 48.5t-85.5 17 q-70 0 -129.5 -32.5t-59.5 -98.5q0 -71 76 -125l-146 -76q-75 52 -75 136zM346 98q0 47 36 80t85 33q50 0 91.5 -28.5t41.5 -78.5q0 -49 -35.5 -86.5t-87.5 -37.5q-33 0 -63 15t-49 42t-19 61z" />
<glyph unicode="A" horiz-adv-x="1862" d="M143 1034q0 100 125 205q59 53 133 90t155.5 55.5t170.5 18.5q183 0 296.5 -85t113.5 -263q0 -206 -113 -402l-397 -338q89 0 186 -86l111 -98l336 184v652q0 71 -13 262l299 196l37 -22q-33 -27 -59 -48t-44 -45.5t-22 -58.5q-7 -61 -9 -142.5t-2.5 -166.5t-0.5 -170 q0 -125 12 -371q4 -48 12 -65q5 -10 30.5 -61.5t48 -85t40.5 -33.5t31 8q38 14 60 21.5t53 21.5l12 -33l-336 -229l-149 305l-472 -305q-145 219 -311 219q-108 0 -272 -88l-37 20q152 106 260 176q247 162 383 297q55 54 85 105.5t42 111t12 140.5q0 107 -53.5 190.5 t-145 130.5t-198.5 47q-56 0 -117 -25t-102 -69.5t-41 -101.5q0 -47 98 -129q51 -45 88 -88.5t37 -85.5q0 -58 -43 -112t-105.5 -94t-123.5 -67l-39 21q149 78 149 164q0 28 -31.5 64t-66.5 67q-113 97 -113 196z" />
<glyph unicode="B" horiz-adv-x="2251" d="M205 1032q0 96 86 184.5t207 142.5t217 54q114 0 215 -58.5t170 -158.5q101 88 224.5 147.5t234.5 59.5q81 0 120.5 -23t53.5 -61t36 -135q19 -75 38 -113.5t67 -38.5q54 0 119 23l12 -43q-174 -63 -248 -111q-27 -18 -101.5 -59t-109.5 -62q157 0 229 -73.5t88.5 -187 t16.5 -314.5q-303 -212 -383 -240q-70 -20 -149 -20t-153.5 16t-170.5 49q-106 40 -193 64t-155 24q-81 0 -157.5 -29.5t-164.5 -80.5l-37 55q82 44 285 152q206 109 299 229q49 63 49 305q0 144 -34 264.5t-119.5 199.5t-231.5 79q-45 0 -90.5 -18t-76.5 -52.5t-31 -81.5 q0 -56 100 -153q41 -41 76 -88t35 -86q0 -90 -86.5 -159t-198.5 -112l-37 21q147 75 147 164q0 15 -19 42.5t-54 67t-37 41.5q-44 54 -66 92.5t-22 81.5zM801 240q92 0 187.5 -23t209.5 -65q32 -11 67.5 -22.5t92.5 -27.5t86 -21t53 -5q78 0 136.5 38t91 101.5t32.5 140.5 q0 83 -35.5 147.5t-96.5 106.5t-134.5 62t-155.5 20q-111 0 -184 -28q-16 -135 -76 -240q-92 -62 -149 -100t-125 -84zM1149 1075q12 -55 12 -260q0 -57 -2 -86q212 64 262 84l248 111q-33 8 -52 58.5t-34 115.5q-13 72 -25 108.5t-43.5 62t-93.5 25.5q-98 0 -166.5 -60 t-105.5 -159z" />
<glyph unicode="C" horiz-adv-x="1618" d="M229 653q0 193 101 369q212 140 385 207l73 -33q180 110 486 205q52 -137 65 -164q26 -61 68 -61q22 0 102 20v-43q-154 -64 -262 -76q-25 15 -49 37.5t-47.5 51t-51 67t-38.5 51.5q-55 -16 -77.5 -50t-22.5 -93q0 -37 11.5 -86t23 -88t20 -76.5t8.5 -73.5 q0 -106 -57.5 -173.5t-146 -101.5t-199.5 -48l-31 32q93 18 174 86q25 24 31 57.5t6 84.5q0 35 -12.5 86.5t-36.5 128.5q-21 63 -21 121q0 36 8 63q-106 0 -180 -60t-108.5 -155t-34.5 -199q0 -157 53.5 -279t151 -203.5t228.5 -122t281 -40.5q31 0 93 4l274 119v-53 q-219 -122 -336 -197q-87 -16 -196 -16q-167 0 -302 45t-232.5 135t-149.5 222t-52 300z" />
<glyph unicode="D" horiz-adv-x="2128" d="M156 772q0 223 111.5 365t292.5 204t403 62q158 0 307 -25.5t277 -88.5t207 -174t79 -277q0 -287 -137 -566q-123 -106 -201 -168t-162 -110.5t-147 -48.5q-43 0 -238 65q-70 24 -163.5 52t-183.5 47.5t-150 19.5q-73 0 -137 -45.5t-113 -116.5l-37 33q89 155 248 272 q69 0 157.5 19.5t153.5 64t65 113.5q0 75 -73 152q-21 21 -54 55t-58 67.5t-25 53.5q0 99 124.5 197.5t247.5 152.5l37 -23q-57 -33 -128 -103t-71 -116q0 -29 99 -153q52 -65 82 -110.5t30 -74.5q0 -65 -53.5 -125.5t-126.5 -105.5t-145 -76q140 -25 299 -76 q264 -88 311 -88q141 0 275 176q58 75 79 173.5t21 218.5q0 207 -105.5 339.5t-276 190t-376.5 57.5q-133 0 -252 -27t-211 -84.5t-153 -155t-80 -234.5z" />
<glyph unicode="E" horiz-adv-x="1735" d="M293 653q0 190 98 369q212 140 385 207l74 -33q105 63 225.5 112.5t259.5 92.5q12 -26 31.5 -77.5t34.5 -86.5q14 -30 29 -45.5t38 -15.5q20 0 103 20v-43q-150 -64 -260 -76q-24 13 -52 38.5t-55 60t-50 66.5t-30 42q-54 -16 -77 -49.5t-23 -91.5q0 -44 14 -109 q49 -219 49 -280l236 129q87 -105 199 -162l-174 -86q-2 1 -77 48.5t-97 47.5q-48 0 -87 -33q-34 -115 -148 -171.5t-261 -75.5l-39 32q79 10 186 76q39 35 39 129q0 123 -51 281q-20 65 -20 121q0 36 8 63q-107 0 -179.5 -60t-107.5 -155.5t-35 -198.5q0 -158 53.5 -279 t149.5 -202t228 -122.5t284 -41.5q30 0 92 4l273 119v-53q-227 -126 -336 -197q-85 -16 -195 -16q-222 0 -388.5 81t-256.5 238.5t-90 382.5z" />
<glyph unicode="F" horiz-adv-x="1614" d="M119 338q183 111 307 111q63 0 91 -59t28 -130q0 -59 -17 -119q-18 -77 -18 -129q0 -64 26 -123.5t75.5 -94t115.5 -34.5q83 0 154 43t113 116.5t42 156.5q0 101 -211 358q-82 102 -134 180.5t-52 135.5q0 97 107.5 190.5t240.5 169.5q-121 64 -232 108t-202 44 q-211 0 -287 -316l-37 21q15 132 73 231t156 152t232 53q97 0 221.5 -50.5t262.5 -123.5q84 -43 149 -43q20 0 46 13t50.5 31.5t46 36.5t56.5 48v-53q-56 -66 -99.5 -113t-99 -87t-100.5 -40q-71 0 -148 43q-55 -11 -117 -40t-103.5 -75t-41.5 -102q0 -85 137 -250l285 240 q92 -85 125 -164l-100 -119q-54 86 -123 86q-37 0 -162 -86q248 -287 248 -403q0 -138 -97.5 -245t-244 -164.5t-279.5 -57.5q-91 0 -151 37.5t-88.5 105.5t-28.5 156q0 62 8 114q8 62 8 92q0 66 -15.5 104t-70.5 38q-60 0 -133 -39z" />
<glyph unicode="G" horiz-adv-x="2021" d="M242 651q0 257 112 381l373 197l61 -33l273 152l24 -21q-54 -43 -88 -87.5t-34 -98.5q0 -83 49 -283q216 117 360 240q-163 65 -223 186l160 129q43 -73 104.5 -123.5t132.5 -50.5q51 0 86 33l13 -43l-398 -305q29 2 86 2q89 0 164 -14.5t123 -57.5q55 -47 92 -107.5 t37 -128.5q0 -118 -60 -230t-155 -193q-272 -155 -360 -218q-105 -32 -224 -32q-161 0 -291.5 49.5t-224 143.5t-143 223.5t-49.5 289.5zM428 750q0 -135 41.5 -254.5t130.5 -210.5q97 -94 221.5 -146.5t253.5 -52.5q94 0 181 31t152 88.5t101.5 137t36.5 179.5 q0 77 -34 133t-92 92.5t-127 54t-142 17.5q-55 0 -127 -14q2 -17 2 -49q0 -109 -53.5 -175t-139 -98t-194.5 -49l-37 33q95 22 150 81t55 150q0 89 -31 193q-28 100 -28 170q0 58 16 102q-176 -34 -256 -133.5t-80 -279.5z" />
<glyph unicode="H" horiz-adv-x="1870" d="M94 0q100 100 164 153.5t121 53.5q89 0 186 -86q38 32 62 70t24 81q0 56 -73 174q-82 130 -140.5 243.5t-58.5 191.5q0 120 145.5 249.5t313.5 231.5q144 -123 299 -123q23 0 65 21.5t83.5 49.5t74.5 50v-45q-67 -59 -124.5 -105.5t-111.5 -79t-88 -32.5q-70 0 -139 22.5 t-197 75.5q-55 -57 -92 -115.5t-37 -113.5q0 -38 17.5 -86.5t39 -92t60.5 -114.5q174 159 424 282q259 0 422 -108q61 -193 61 -359q0 -95 -7.5 -186t-29.5 -176t-61 -160q-126 -103 -226 -171t-159 -68q-103 0 -162 53l111 131q23 -35 59.5 -55.5t77.5 -20.5q81 0 125 89.5 t57 189.5q17 102 17 276q0 200 -68 317t-256 117q-100 0 -190 -69t-156 -168q66 -147 66 -248q0 -43 -17 -78q-48 -54 -101.5 -114.5t-95.5 -104t-102 -96.5q-114 119 -196 119q-44 0 -162 -99z" />
<glyph unicode="I" horiz-adv-x="1483" d="M164 967q58 149 101.5 231.5t124.5 143.5t200 61q102 0 360 -109q78 -32 125 -32q49 0 102 28t134 80l24 -33q-78 -64 -168 -121.5t-192 -105.5q-143 50 -257 84.5t-177 34.5q-214 0 -336 -283zM180 -2q105 127 248 242q22 28 37 28q18 0 28 -30t29.5 -81.5t60.5 -82.5 t119 -31q93 0 183 86q90 88 90 295q0 95 -25 260q-18 137 -18 186q0 40 6 76q159 156 311 240l37 -12q-40 -34 -75 -69t-61 -76.5t-26 -82.5q2 -22 3 -40t3.5 -44t6.5 -47q37 -214 37 -315q0 -104 -32.5 -194.5t-103.5 -153.5q-70 -62 -149 -108t-169 -72.5t-179 -26.5 q-58 0 -111.5 26t-112.5 72l-124 -76z" />
<glyph unicode="J" horiz-adv-x="1477" d="M70 162q178 131 297 131q92 0 119.5 -43t27.5 -141q0 -66 7 -119t31.5 -96t70 -66t114.5 -23q118 0 184 76.5t66 194.5q0 73 -14.5 139.5t-48.5 187.5q-36 130 -51 199.5t-15 134.5q0 39 4 58q46 55 100 106.5t108 96t116 89.5l37 -22q-71 -71 -122.5 -144t-51.5 -139 q0 -47 12 -111t26 -128q74 -337 74 -369q0 -118 -77 -224.5t-196 -169.5t-237 -63q-97 0 -159 20.5t-99.5 72.5t-50.5 145q-16 112 -34.5 159.5t-90.5 47.5q-58 0 -133 -33zM217 1032q40 86 98.5 171t136 142.5t162.5 57.5q93 0 275 -129q111 -88 186 -88q56 0 108 16.5 t128 48.5v-43q-288 -129 -373 -153q-50 7 -87 26.5t-99 61.5q-124 86 -211 86q-82 0 -156.5 -65.5t-128.5 -151.5z" />
<glyph unicode="K" horiz-adv-x="1747" d="M131 63l150 154q24 -59 65 -100t94 -41q88 0 125 61t37 156q0 129 -61 305q-38 113 -56 177.5t-18 117.5v10q44 108 117 198t169 156t205 101t228 35q117 0 213 -35q70 -28 112 -68q17 -17 21 -27t4 -38q0 -93 -39 -203l-37 -10q0 104 -62 164.5t-153 84t-196 23.5 q-169 0 -279.5 -83.5t-110.5 -246.5q0 -96 43 -204q289 272 484 272q82 0 120 -54t66 -153q13 -37 49 -60.5t76 -23.5q28 0 49 8l-12 -43l-360 -141q44 0 112 -33q46 -69 98 -272q16 -56 51.5 -98.5t86.5 -42.5q96 0 161 43v-43q-181 -164 -299 -164q-68 0 -112.5 68 t-61.5 149q-21 128 -35 178t-61 88.5t-139 38.5q-104 0 -211 -43q0 -100 -12 -164q-87 -116 -194 -200t-228 -115q-116 14 -199 118zM715 664q25 -62 49 -187l498 174q-26 22 -41.5 52.5t-32.5 78.5q-18 49 -58 79t-92 30q-91 0 -174.5 -66t-148.5 -161z" />
<glyph unicode="L" horiz-adv-x="1743" d="M168 0q48 96 84.5 157t89.5 115q336 43 336 207q0 44 -98 207q-113 169 -113 270q0 49 26 99t64 91.5t84 82.5q98 86 226.5 130t269.5 44q142 0 215 -49t73 -185q0 -23 -4 -71q-12 -111 -12 -113q0 -41 38 -51t99 -10v-43l-250 -56q-54 23 -74 46.5t-20 72.5q0 40 8 100 q4 42 4 66q0 116 -59.5 155.5t-179.5 39.5q-117 0 -219.5 -64.5t-102.5 -175.5q0 -97 101 -270q40 -73 63 -135.5t23 -124.5v-23q-43 -44 -87 -84.5t-92.5 -82.5t-95.5 -83h37q83 -31 184.5 -63t198 -51t189.5 -19q110 0 182 24.5t120 84t83 163.5l36 -20 q-26 -125 -57 -218.5t-82 -144.5q-49 -45 -111.5 -59t-146.5 -14q-137 0 -297 45t-360 119q-84 32 -150 32q-41 0 -84.5 -51t-101.5 -135z" />
<glyph unicode="M" horiz-adv-x="2638" d="M156 0q60 86 130.5 151.5t141.5 65.5q90 0 211 -108q104 50 158.5 119t79.5 178q36 144 36 344q0 138 -38.5 256.5t-128.5 192t-230 73.5q-66 0 -132.5 -41t-66.5 -101q0 -19 9.5 -40.5t32.5 -52.5t41.5 -50.5t27.5 -30.5q113 -113 113 -184q0 -83 -88.5 -153 t-196.5 -119l-51 32q63 28 112.5 70.5t49.5 93.5q0 36 -86 129q-125 131 -125 197q0 110 137 229q81 70 184.5 111t212.5 41q91 0 171.5 -32t135.5 -89q67 -65 91 -158.5t24 -210.5q0 -407 -174 -663l-397 -305q-123 108 -199 108q-87 0 -162 -86zM987 10q25 30 71 82 t89 86.5t76 34.5q43 0 72.5 -14.5t101.5 -57.5q89 69 113 235t24 374q0 149 -18 260q-20 110 -66.5 164.5t-151.5 54.5q-64 0 -116 -45t-82 -109l-25 88q74 83 176 134t209 51q211 0 260 -261q25 -125 25 -196q0 -326 -150 -631l-284 -305q-115 88 -162 88q-45 0 -137 -76z M1696 1180q45 53 124.5 107t168 90t153.5 36q73 0 108.5 -40.5t65.5 -121.5q25 -61 47 -83.5t72 -22.5q42 0 105 18l-297 -164q-27 5 -46.5 29t-32.5 57t-22 56q-29 78 -52.5 109.5t-84.5 31.5q-88 0 -163.5 -56t-121.5 -139zM2017 164v391q0 57 9.5 115.5t27.5 144.5 q40 52 89.5 100.5t99.5 83.5l297 164v-33q-141 -58 -263 -163q-32 -59 -47.5 -123t-20.5 -134t-5 -145q0 -103 4 -171.5t20 -110.5q18 -40 49 -85.5t54 -45.5q20 0 68.5 17.5t90.5 37.5v-43l-336 -219z" />
<glyph unicode="N" horiz-adv-x="2130" d="M156 1012q0 119 161 260q73 63 162 97t187 34q76 0 142 -21t120 -60t95 -97t64 -127l130 157q65 70 150 109t179 39q76 0 119 -10t73 -42t56 -100q9 -22 18.5 -45t20.5 -39t29 -26.5t45 -10.5q47 0 98 23v-33q-42 -26 -97.5 -61t-99.5 -71t-51 -64q-37 -157 -37 -363 q0 -140 33 -256q18 -59 51.5 -114.5t77.5 -55.5q55 0 135 53v-43q-69 -46 -309 -196q-3 4 -78.5 111.5t-75.5 123.5q0 5 2.5 15.5t2.5 19.5q0 70 -6.5 173t-6.5 159q0 121 3.5 170t21.5 87t43 63.5t131 127.5q-59 0 -76 13q-22 22 -61 141q-17 55 -55.5 93t-92.5 38 q-115 0 -198 -86t-150 -219q25 -134 25 -262q0 -138 -20 -252.5t-79 -214.5q-31 -50 -37 -55q-22 -16 -83 -61t-123.5 -85.5t-116 -67t-88.5 -26.5q-56 0 -107 26t-92 72l150 164q15 -58 59.5 -94.5t101.5 -36.5t105.5 30.5t81.5 80.5t49 106q27 105 27 240q0 219 -56 395 q-21 67 -53.5 126.5t-79.5 110.5t-105.5 80t-129.5 29q-77 0 -150.5 -46.5t-73.5 -117.5q0 -58 101 -164q48 -48 85.5 -95.5t37.5 -78.5q0 -62 -46 -112.5t-98 -81.5t-141 -78l-39 33q137 65 137 141q0 47 -98 154q-100 105 -100 174z" />
<glyph unicode="O" horiz-adv-x="2118" d="M119 0q108 126 211 217q83 25 140.5 78.5t57.5 128.5q0 76 -100 194q-4 5 -48.5 59t-71.5 96t-27 65q0 111 93 207.5t216 160.5l49 -20q-160 -111 -160 -197q0 -40 17.5 -82t42 -79.5t53.5 -77.5q49 -69 79.5 -122.5t30.5 -95.5q0 -130 -223 -305q24 0 66.5 -10t70 -19.5 t74 -26t86.5 -30.5q202 -65 373 -65q124 0 236.5 61t166.5 168q41 82 55.5 172t14.5 197q0 189 -51.5 309.5t-166.5 178t-304 57.5q-22 0 -60.5 -1.5t-77.5 -3.5t-61 -2q-60 0 -123 22.5t-63 70.5q0 37 25.5 66.5t73 65t63.5 52.5h36q-22 -29 -22 -51q0 -47 143.5 -65.5 t239.5 -18.5q64 0 144 -16.5t154.5 -49.5t119.5 -78q75 -75 108 -176.5t33 -218.5q0 -179 -47.5 -338t-163.5 -250q-162 -123 -317.5 -202.5t-303.5 -79.5q-183 0 -372 65q-105 39 -148.5 52.5t-101.5 13.5q-63 0 -123 -29t-100 -80z" />
<glyph unicode="P" horiz-adv-x="2120" d="M156 1012q0 76 48 150.5t124 130.5t161 88t162 32q318 0 385 -293q110 126 255 209.5t292 83.5q102 0 136.5 -57t49.5 -172q10 -57 29.5 -79t73.5 -22q33 0 84 15l12 -33q-52 -23 -120.5 -64.5t-123.5 -93.5t-55 -92t21 -76t67 -98q41 -53 64.5 -103.5t23.5 -103.5 q0 -108 -66.5 -214.5t-171 -174.5t-210.5 -68q-35 0 -97.5 18t-145.5 46.5t-105 34.5q0 -190 24 -381q-18 -12 -101.5 -64t-121.5 -77l-51 22q23 39 37 144t20 231.5t6 177.5q-127 35 -186 35q-80 0 -140 -49t-145 -148l-24 43q41 70 74 117.5t80.5 93t104.5 70t126 24.5 q38 0 110 -14v537q0 121 -34 223.5t-112 167.5t-200 65q-48 0 -98 -22.5t-81.5 -62t-31.5 -89.5q0 -48 101 -151q60 -69 91 -109.5t31 -64.5q0 -65 -43.5 -120.5t-101.5 -94.5t-127 -70l-51 22q149 87 149 164q0 34 -98 142q-100 110 -100 174zM1049 250q9 -3 86.5 -27.5 t154 -46t137.5 -34.5t95 -13q76 0 137 45t61 119q0 50 -33.5 107t-76.5 110q-60 75 -86.5 117t-26.5 80q0 59 64 125.5t135 113.5q-36 6 -90 58q-26 25 -35 126q0 86 -33 125t-117 39q-101 0 -204 -95.5t-168 -209.5v-739z" />
<glyph unicode="Q" horiz-adv-x="2118" d="M119 0q106 127 211 217q83 25 140.5 78.5t57.5 128.5q0 76 -100 194q-4 5 -48.5 59t-71.5 96t-27 65q0 111 93 207.5t216 160.5l49 -20q-160 -111 -160 -197q0 -40 17.5 -82t42 -79.5t53.5 -77.5q49 -69 79.5 -122.5t30.5 -95.5q0 -130 -223 -305q24 0 66.5 -10t70 -19.5 t74 -26t86.5 -30.5q202 -65 373 -65q124 0 236.5 61t166.5 168q41 82 55.5 172t14.5 197q0 189 -51.5 309.5t-166.5 178t-304 57.5q-22 0 -60.5 -1.5t-77.5 -3.5t-61 -2q-60 0 -123 22.5t-63 70.5q0 27 58 83.5t104 100.5h36q-22 -29 -22 -51q0 -47 143.5 -65.5t239.5 -18.5 q64 0 144 -16.5t154.5 -49.5t119.5 -78q75 -75 108 -176.5t33 -218.5q0 -156 -55.5 -306t-155.5 -282q-104 -76 -123 -88q149 -151 246 -151q80 0 174 55v-55q-43 -24 -136 -65t-138 -64q-115 34 -200.5 69.5t-156.5 89.5q-164 -73 -287 -73q-183 0 -372 65 q-105 39 -148.5 52.5t-101.5 13.5q-63 0 -122.5 -28t-100.5 -79z" />
<glyph unicode="R" horiz-adv-x="2120" d="M156 0q186 217 311 217q57 0 172 -121q124 66 184 164.5t75 209.5t15 280q0 289 -133 421q-49 50 -116.5 81.5t-135.5 31.5q-50 0 -101.5 -19.5t-86.5 -56.5t-35 -88q0 -46 56 -109.5t111.5 -127t55.5 -111.5q0 -77 -78.5 -146t-183.5 -126l-49 32q59 29 98 70t39 94 q0 24 -98 142q-50 59 -75 96t-25 67q0 105 83.5 198.5t207.5 148.5t231 55q89 0 169.5 -35t141.5 -100t90 -144l8 19q75 78 145 134t152 91t175 35t133 -49.5t53 -147.5q5 -39 9 -70t13.5 -49t35 -28t67.5 -10q36 0 74 6l24 -33q-252 -82 -459 -229q111 0 211 -76 q15 -343 37 -402q11 -28 30 -69.5t44 -73t51 -31.5q16 0 137 43v-32l-311 -207l-149 239q6 93 6 185q0 86 -8.5 154t-40.5 100q-74 73 -205 73q-28 0 -65 -5t-70 -11.5t-76 -15.5l-6 2q-44 -275 -168 -439q-65 -46 -168.5 -122t-216.5 -160q-61 52 -101.5 80t-72.5 28 q-49 0 -93.5 -23.5t-80.5 -62.5zM1100 717l223 76q342 149 346 153q-49 0 -74 23.5t-32.5 55t-16.5 95.5q-26 164 -137 164q-65 0 -120 -42t-89.5 -90.5t-87.5 -139.5l-4 -6q4 -54 4 -82q0 -103 -12 -207z" />
<glyph unicode="S" horiz-adv-x="2122" d="M246 631q0 331 238 525t591 257q79 -38 185 -86.5t206 -84.5t156 -36q155 0 203 156l33 -25q-36 -117 -123 -182t-226 -113q-48 5 -113.5 33.5t-183.5 87.5q-93 46 -182.5 82.5t-152.5 36.5q-170 0 -322 -152q-139 -139 -139 -360q0 -154 54 -286t155 -230t234.5 -149.5 t289.5 -51.5q213 0 366.5 88.5t153.5 286.5q0 123 -80.5 195.5t-204.5 72.5q-63 0 -260 -32q-175 -33 -272 -33q-90 0 -156.5 39t-66.5 123q0 64 38 114.5t94.5 82t121.5 46.5l30 -24q-49 -12 -80.5 -51.5t-31.5 -90.5q0 -62 43 -91t106 -29q60 0 273 45q131 24 188 33.5 t111 9.5q66 0 122.5 -17t101 -50.5t71 -86.5t26.5 -119q0 -214 -133.5 -354t-336 -203t-410.5 -63q-214 0 -376 81t-251.5 235.5t-89.5 369.5z" />
<glyph unicode="T" horiz-adv-x="1749" d="M168 967q0 156 162 295q80 70 189 105.5t233 35.5q66 0 132 -6t144 -18t121 -19q175 -33 272 -33q71 0 136 30t112 79v-43l-160 -185q-61 -32 -188 -32q-107 0 -234 20q-210 -124 -210 -248q0 -64 98 -162q174 -174 174 -260q0 -68 -78.5 -149.5t-181.5 -163.5 q116 -49 183.5 -71.5t125.5 -22.5q76 0 151 41.5t160 111.5l25 -32q-100 -102 -196 -176.5t-201 -118.5q-65 8 -123 29t-164 69q-107 55 -211 55q-112 0 -285 -121l-24 33q108 101 284 230q18 1 33 1.5t39 0.5q65 0 127 -6q69 37 121.5 86.5t52.5 105.5q0 41 -31 82t-79 92 q-68 68 -116.5 125.5t-58.5 101.5q27 105 101.5 200t183.5 190q-175 53 -373 53q-77 0 -156.5 -21t-135.5 -70t-56 -126q0 -60 44.5 -106.5t105.5 -67.5l-150 -131q-98 68 -98 217z" />
<glyph unicode="U" horiz-adv-x="1696" d="M31 23l186 184q56 0 174 108q76 77 76 195q0 86 -113 262q-64 99 -94.5 157.5t-30.5 102.5q0 61 66.5 140.5t156 150t150.5 102.5l25 -32q-89 -61 -144 -123t-55 -140q0 -42 22.5 -91.5t65.5 -125.5q52 -91 82.5 -165.5t30.5 -149.5q0 -84 -37 -152l-225 -229 q71 0 223 -55q52 -18 90.5 -31t80 -24t64.5 -11q68 0 130.5 43.5t127.5 110.5q55 64 66.5 110.5t11.5 149.5q0 158 -1.5 253.5t-7 217.5t-15.5 238l297 184l39 -23q-64 -56 -94.5 -122.5t-37 -134t-6.5 -177.5v-414q0 -108 44 -239t128 -131q58 0 138 45v-43l-334 -219 l-150 282l-272 -239q-62 -43 -137 -43q-122 0 -297 65q-82 29 -151 47.5t-124 18.5q-28 0 -53.5 -21t-71.5 -67z" />
<glyph unicode="V" horiz-adv-x="2128" d="M156 1012q0 119 161 260q151 131 373 131q100 0 181 -29t138 -90t85 -158l118 103q197 174 334 174q108 0 223 -76q98 -65 189 -65q36 0 61 10v-33q-101 -58 -169 -151t-68 -197q0 -48 6 -91.5t18 -115.5q37 -197 37 -240q0 -81 -42.5 -171.5t-106.5 -131.5 q-30 -20 -62 -40.5t-91.5 -58t-119.5 -75.5q-20 -14 -49.5 -18t-75.5 -4q-79 0 -157.5 27.5t-188.5 80.5q-98 51 -195.5 91t-164.5 40q-157 0 -285 -131l-24 33q66 68 139.5 125.5t157.5 103.5q74 0 144.5 35t117.5 96q46 62 59.5 164.5t13.5 227.5t-42 226t-129.5 160.5 t-213.5 59.5q-69 0 -140 -39.5t-71 -101.5q0 -24 10.5 -47.5t31.5 -53.5t43.5 -55t37.5 -41q101 -96 101 -164q0 -77 -90 -148.5t-195 -123.5l-39 33q55 25 102.5 67t47.5 86q0 28 -22.5 58t-63.5 71q-125 125 -125 187zM776 305q26 0 64 -13.5t78 -33t82.5 -42t60.5 -32.5 q113 -57 192.5 -89t143.5 -32q102 0 154 50.5t66.5 127t14.5 181.5q0 58 -12 176q-12 136 -12 207q0 70 24 141l174 174q-80 0 -184 66q-66 38 -113.5 57t-97.5 19q-79 0 -165.5 -91t-133.5 -182q0 -290 -137 -532z" />
<glyph unicode="W" horiz-adv-x="2630" d="M168 10q43 46 156 143t135 97h4q54 0 109.5 14t105.5 41.5t88 65.5q135 134 135 467q0 238 -100 338q-117 108 -248 108q-88 0 -155.5 -41t-67.5 -123q0 -53 53 -111t105.5 -116.5t52.5 -110.5q0 -53 -45 -107.5t-110 -99.5t-120 -65l-49 33q71 31 110.5 63.5t39.5 89.5 q0 30 -21 59.5t-53 59.5q-62 64 -93.5 108.5t-31.5 88.5q0 119 149 250q78 68 181 104.5t217 36.5q130 0 221.5 -64.5t138.5 -185.5q47 46 95.5 85.5t109 83t119.5 81.5q44 -41 92.5 -86.5t92.5 -92t63 -81.5q108 101 220.5 180.5t200.5 79.5q100 0 261 -98q61 -37 135 -37 q49 0 88 16l-12 -45q-121 -76 -172.5 -150t-51.5 -200q0 -52 13 -139q24 -180 24 -316q0 -179 -86 -250q-146 -119 -323 -219q-74 -16 -136 -16q-107 0 -213 39q-112 43 -191.5 65.5t-154.5 22.5q-177 -73 -274 -131q-12 0 -20 -0.5t-17 -1.5q-73 0 -151 21t-148 59 q-143 75 -199 75q-57 0 -115 -37.5t-120 -93.5zM653 217q43 -29 83.5 -52t89 -41.5t95.5 -28t91 -9.5q102 0 198.5 40.5t173.5 111.5q74 73 99.5 208.5t25.5 292.5q0 69 -13.5 146.5t-42 144.5t-77.5 120.5t-114 78.5q-113 -87 -175 -174q0 -438 -174 -664zM1436 205 q64 0 166 -35t219 -84q53 -23 123 -23q52 0 98 27t76 72q28 42 34.5 94.5t6.5 128.5q0 69 -17 233q-12 116 -12 173q0 77 10 119.5t29.5 68t64.5 65t82 76.5q-18 0 -46.5 11t-64 30.5t-63.5 34.5q-111 66 -198 66q-71 0 -141.5 -61.5t-131.5 -145.5q8 -128 8 -189 q0 -259 -69 -465q-25 -21 -44 -40.5t-44.5 -49.5t-48.5 -59.5t-37 -46.5z" />
<glyph unicode="X" horiz-adv-x="1866" d="M156 63l137 144q29 -52 79 -81.5t107 -29.5q66 0 128.5 32t113.5 85q156 156 156 471q-245 0 -410 -22l86 88h324q0 145 -13 217q-17 109 -75.5 185.5t-159.5 76.5q-58 0 -116.5 -25.5t-109 -68.5t-86.5 -91l-43 31l347 328q180 -10 280 -98q46 -43 75 -107.5t50 -142.5 q70 124 183 213t257 139q23 -45 47.5 -92.5t57.5 -81t76 -33.5q22 0 100 33v-37l-238 -119q-57 24 -128 78.5t-91 99.5q-74 -44 -132 -128.5t-89 -184.5t-31 -192h410l-88 -88q-172 19 -322 22q0 -102 18.5 -199t64 -184t120 -139.5t180.5 -52.5q61 0 114.5 21t133.5 65v-43 l-258 -185q-86 -22 -113 -22q-101 0 -176.5 51.5t-124.5 136.5t-71 180l-99 -86q-114 -99 -248 -185.5t-225 -86.5q-115 0 -198 108z" />
<glyph unicode="Y" horiz-adv-x="2132" d="M156 1012q0 111 174 260q149 131 372 131q87 0 153 -17t116 -67q65 -65 97 -150.5t32 -179.5q0 -106 -14.5 -202.5t-50.5 -190t-97 -172.5l-260 -197l-250 23q166 0 275.5 73t159.5 200.5t50 291.5q0 191 -90 330t-270 139q-83 0 -153 -38.5t-70 -115.5q0 -75 86 -161 q125 -125 125 -187q0 -74 -85.5 -145.5t-189.5 -126.5l-37 33q52 32 101 79t49 85q0 28 -113 141q-110 110 -110 164zM180 10q50 66 112.5 124.5t135.5 115.5q74 0 145.5 -6.5t137 -23.5t129.5 -46q73 -32 109 -43.5t77 -11.5q99 0 199 98l20 -33q-54 -62 -94.5 -106 t-92.5 -83.5t-95 -39.5q-44 0 -104 18.5t-132 46.5q-89 38 -162 63.5t-110 25.5q-75 0 -139 -37.5t-111 -104.5zM627 -305l174 164q10 -59 45.5 -106t88.5 -74t114 -27q97 0 186.5 42.5t164 115.5t122.5 157q67 120 88.5 293t21.5 381q0 131 -12 236t-49 200 q-58 56 -106.5 93.5t-104.5 58.5q-94 -52 -153 -103.5t-107 -136.5l-13 121q225 196 447 293q84 -91 248 -184q25 -109 31 -227.5t6 -295.5q0 -133 -12.5 -260t-46 -248t-91.5 -221q-62 -81 -146 -154t-184 -131.5t-203 -93t-198 -34.5q-98 0 -186.5 32.5t-124.5 108.5z" />
<glyph unicode="Z" horiz-adv-x="1593" d="M119 -53q188 129 321 129q54 0 78.5 -18t29.5 -49.5t5 -94.5q0 -74 25 -102.5t98 -28.5q145 0 247.5 76t151.5 199t49 268q0 325 -372 325q-115 0 -211 -43l-25 23l98 129q82 0 170 51t145.5 132.5t57.5 164.5q0 60 -54 90.5t-120 30.5q-37 0 -105 -5.5t-136 -11.5 t-105 -6q-162 0 -162 86l162 197h37q-19 -22 -19 -47q0 -72 191 -72q63 0 125 6q86 4 125 4q260 0 260 -161q0 -138 -119.5 -256t-278.5 -203q92 12 138 12q112 0 212.5 -33t159.5 -108q37 -110 37 -230q0 -130 -49 -256.5t-137 -242.5q-126 -90 -271.5 -137.5t-299.5 -47.5 q-113 0 -224 21q0 98 -15.5 163.5t-72.5 65.5q-45 0 -123 -53z" />
<glyph unicode="[" horiz-adv-x="836" d="M369 -266v1779q90 -8 374 -8v-51l-276 -24v-1618l276 -15v-41q-145 0 -374 -22z" />
<glyph unicode="]" horiz-adv-x="836" d="M86 -211l283 23v1618l-283 18v49q272 0 381 12v-1777q-145 16 -381 16v41z" />
<glyph unicode="^" horiz-adv-x="1354" d="M94 948l584 553l571 -508l-90 -55l-485 436l-527 -450z" />
<glyph unicode="a" horiz-adv-x="1356" d="M244 324q0 240 49 421l393 218q101 -64 215 -82l156 69l18 -12q-43 -245 -43 -416q0 -46 4 -126.5t6 -151.5l84 -92l115 49l10 -31l-286 -225l-101 149q0 21 -1 31t-2 25.5t-3 35.5l-405 -260q-48 44 -93.5 89.5t-109.5 115.5q-6 99 -6 193zM432 410q0 -82 6 -162 q21 -21 52 -51.5t60.5 -56t35.5 -25.5q16 0 28 6q41 22 102.5 53.5t141.5 75.5l-2 495q-74 0 -137 12.5t-191 43.5q-43 -41 -63.5 -108t-26.5 -138t-6 -145z" />
<glyph unicode="b" horiz-adv-x="1386" d="M295 145q20 94 25.5 207t5.5 277q0 456 -17 735l41 8l37 -155l21 6l278 178l41 -25l-70 -55q-66 -51 -100 -120.5t-43.5 -145.5t-9.5 -178q0 -46 4 -132l12 -4q206 153 328 220q128 -70 272 -125q6 -96 6 -191q0 -117 -12 -233.5t-35 -212.5q-302 -172 -528 -262 q-177 135 -256 208zM506 680l2 -430q86 -75 147 -119.5t101 -44.5q58 0 100.5 53t58.5 117q25 89 25 209q0 125 -12 248q-32 15 -197 75q-151 -62 -225 -108z" />
<glyph unicode="c" horiz-adv-x="1098" d="M260 434q0 183 31 307l383 211q101 -7 252 -90l-121 -162l-23 -6q-132 103 -274 103q-35 -57 -45 -139t-10 -183q0 -62 8 -180q49 -49 205 -176q83 20 243 104l21 -35l-400 -247q-101 72 -258 229q-12 176 -12 264z" />
<glyph unicode="d" horiz-adv-x="1352" d="M123 1108q123 63 311 139q117 -29 228.5 -77t213 -107t211.5 -135q5 -56 5 -170q0 -167 -15 -302.5t-65 -244.5l-420 -279q-76 44 -124 74.5t-103 73.5t-97 86q-6 91 -6 184q0 155 14 289q0 4 -1.5 11t-3 12.5t-1.5 9.5q0 17 136 116.5t180 124.5l43 -8 q-96 -83 -152 -196q-31 -70 -31 -193q0 -80 17 -242q38 -38 147.5 -107t145.5 -69q47 0 89.5 120t53.5 202q8 55 8 125q0 133 -28 270q-139 126 -284 213.5t-280 87.5q-47 0 -55 -2l-106 -37z" />
<glyph unicode="e" horiz-adv-x="1122" d="M256 397q0 186 33 351l377 206q105 -117 276 -223q-13 -11 -118.5 -97t-157 -127.5t-111.5 -87.5t-111 -81q0 -25 5 -55q114 -106 239 -160q12 2 19.5 3t13.5 3l194 82l13 -33q-63 -43 -129 -85t-126 -78.5t-138 -77.5q-103 83 -156 129t-109 108q-14 104 -14 223z M440 430q66 35 117.5 66t101.5 67t93 76q-139 76 -250 172q-39 0 -50.5 -131t-11.5 -250z" />
<glyph unicode="f" horiz-adv-x="950" d="M162 717l82 71h149q-7 24 -33 111t-39.5 143t-13.5 93q77 107 236 258q26 -18 53.5 -34t55.5 -25t55 -9q41 0 90 27l16 -19l-141 -137q-105 0 -228 25q0 -93 52 -195q34 -74 51.5 -124t17.5 -101l283 -13l-68 -71h-215v-633q0 -136 -30 -225l-185 -310l-55 5l88 274 q10 98 10 178v711h-231z" />
<glyph unicode="g" horiz-adv-x="1364" d="M131 -268l303 227l-160 174q-8 91 -8 205q0 194 35 414q62 38 155.5 90.5t221.5 118.5q51 -31 113 -52.5t153 -42.5l168 84l14 -12q-35 -83 -44 -256.5t-9 -374.5q0 -33 13.5 -91.5t40 -150.5t28.5 -102q-227 -246 -381 -375q-77 -16 -84 -16q-207 0 -452 172l-82 -39z M438 -117q55 -47 107 -81t112 -56t123 -22q164 0 164 163q0 44 -57 303q-246 -153 -449 -307zM453 530q0 -166 12 -276q79 -82 162 -148l258 146q0 253 22 465q-230 27 -399 78q-33 -55 -44 -120t-11 -145z" />
<glyph unicode="h" horiz-adv-x="1405" d="M270 133q27 391 27 739q0 282 -16 506l28 4l58 -155l280 182l39 -25q-94 -74 -152.5 -163t-58.5 -193v-270q26 18 344 219q95 -77 273 -125q14 -205 14 -350q0 -379 -62 -565q-119 -141 -366 -357l-60 45l156 111q67 48 100 166t40.5 237t7.5 254q0 14 -2 51.5t-10 139 t-11 137.5q-113 76 -205 76q-28 0 -83 -28t-136 -73v-448q15 -26 115 -148l-193 -153q-103 159 -127 186z" />
<glyph unicode="i" horiz-adv-x="840" d="M125 780q104 75 246 189q81 -73 139 -111q-29 -230 -29 -383q0 -120 16 -192t81 -129q6 0 11.5 4.5t8.5 5.5l104 43l15 -37q-129 -107 -287 -213l-125 156q19 146 19 280q0 161 -23 357q-31 36 -49 49q-16 -5 -39 -16t-57 -27zM260 1262q45 36 79 62t62 54q26 -28 47 -49 t38.5 -36.5t41.5 -32.5l-133 -125q-57 45 -135 127z" />
<glyph unicode="j" horiz-adv-x="844" d="M70 -375q105 66 169 119t89 121q27 72 34 209.5t7 341.5q0 111 -4 188t-19 115q-8 21 -34 49.5t-44 28.5l-84 -47l-32 26l245 195q50 -45 152 -109q2 -96 2 -293q0 -315 -14 -516q-10 -101 -52 -141l-348 -338zM258 1260l143 116q55 -68 117 -121l-133 -122 q-55 42 -127 127z" />
<glyph unicode="k" horiz-adv-x="1098" d="M147 633l64 67h100l-18 670l33 4l57 -147q184 133 283 180l51 -16q-88 -72 -132 -115.5t-73 -106.5t-29 -153q55 37 157 93t153 85q139 -115 139 -209q0 -55 -39 -94l-207 -191h215l-63 -67h-332v-371q111 -96 180 -139l227 98l25 -26q-33 -26 -79.5 -57t-114.5 -73 t-115.5 -70t-81.5 -48l-248 194q16 64 16 201q0 96 -2 145q0 50 -0.5 80t-1.5 66h-164zM483 700q61 0 127 26.5t110 75.5t44 109q0 64 -109 148q-78 -36 -115 -86.5t-47 -112.5t-10 -160z" />
<glyph unicode="l" horiz-adv-x="840" d="M319 115q10 137 16.5 316t6.5 343q0 291 -18 584l32 16l58 -155q158 104 297 182l26 -25q-67 -50 -116 -101t-75.5 -103t-39 -119t-12.5 -154q0 -93 4.5 -203t9 -220.5t4.5 -203.5v-34q26 -35 98 -84l107 49l12 -31l-291 -213z" />
<glyph unicode="m" horiz-adv-x="1976" d="M111 774l258 191l116 -107v-90l295 203q142 -76 281 -117v-80q202 123 299 195q43 -20 82 -37.5t76 -33t69.5 -27t57.5 -17.5q-17 -153 -17 -350q0 -123 6 -246q48 -63 84 -96q71 24 117 51l16 -35l-288 -217q-24 41 -127 162q37 160 37 317q0 127 -25 258 q-8 36 -80 59.5t-154 39.5q-104 -49 -153 -80v-443q0 -32 8 -43l109 -135l-201 -149q-43 74 -113 147q31 112 31 279q0 140 -23 336q-37 29 -91.5 48t-129.5 36l-166 -84v-398q0 -82 13 -94l102 -119l-194 -143l-105 160q14 94 14 200q0 73 -8 215q-8 144 -8 215l-61 54 l-101 -49z" />
<glyph unicode="n" horiz-adv-x="1417" d="M135 776l242 185q29 -27 127 -93v-118l336 221q115 -69 264 -119q-12 -108 -12 -344v-78q0 -36 1 -90t1 -80q10 -15 26.5 -39.5t33 -38.5t32.5 -14q2 0 22 10l78 41l6 -39l-278 -219l-131 172q20 92 20 268q0 70 -10 330q-98 43 -223 53l-166 -88v-424q0 -49 6 -55 l92 -111l-201 -153q-45 72 -114 141q24 120 24 326q0 117 -8 325l-55 48l-82 -41z" />
<glyph unicode="o" horiz-adv-x="1329" d="M250 137v64q0 81 5 182t16.5 202.5t19.5 157.5q186 94 409 240q175 -105 344 -135q13 -113 13 -234q0 -224 -49 -426q-142 -78 -266.5 -137t-262.5 -108q-161 118 -229 194zM426 483q0 -104 25 -231q66 -64 138 -114t130 -50q12 0 55 43q41 40 57.5 87.5t30.5 125.5 q17 105 17 221q0 88 -7 162q-50 3 -105 15.5t-99.5 25.5t-145.5 45q-96 -106 -96 -330z" />
<glyph unicode="p" horiz-adv-x="1356" d="M121 78q169 134 174 137v504l-92 115q-13 17 -13 28q0 39 69.5 118.5t125.5 127.5l31 -21q-41 -43 -41 -88t27 -82.5t79 -89.5l-4 -69q108 65 332 221q114 -79 274 -133q13 -133 13 -279q0 -91 -3 -153.5t-15 -129t-36 -126.5l-313 -226q-127 96 -252 115q0 -87 1 -142 t2.5 -121t6.5 -132l-178 -84l-33 18q7 127 14 282.5t7 227.5q-87 0 -152 -47zM479 193q42 0 89.5 -9t93 -25t90 -35.5t86.5 -39.5q43 77 56 166.5t13 212.5q0 107 -14 254q-52 24 -205 74q-105 -32 -209 -105v-493z" />
<glyph unicode="q" horiz-adv-x="1329" d="M233 317q0 235 52 437q259 123 385 211q126 -66 217 -82l162 98l20 -16q-21 -111 -31.5 -272t-13 -306t-2.5 -336q0 -69 1.5 -112.5t3.5 -96.5t5.5 -104.5t7.5 -104.5l-176 -79l-45 32q21 227 25 609q-158 -116 -410 -254l-194 192q-7 108 -7 184zM418 408 q0 -129 14 -152q50 -46 83 -77t69 -62l254 137q-2 45 -2 137q0 90 4.5 195t9.5 164q-145 7 -350 63q-34 -53 -52 -121.5t-24 -136.5t-6 -147z" />
<glyph unicode="r" horiz-adv-x="1096" d="M129 778q146 130 233 191q50 -43 156 -125v-64l254 178q36 -57 76 -101t78 -44q9 0 23.5 4.5t24.5 9t19 7.5l4 -29q-31 -27 -62.5 -51t-62.5 -49q-22 -21 -75 -21q-62 0 -181 92l-98 -82v-385q0 -43 50 -90t118 -96l207 86l8 -41l-342 -211q-102 70 -240 197 q21 132 21 252q0 38 -10 253q0 44 -7.5 63.5t-19 27.5t-59.5 41l-88 -33z" />
<glyph unicode="s" horiz-adv-x="1221" d="M51 47q67 67 103 99t88 56.5t114 24.5q90 0 166 -45l191 -110q6 -6 14 -6q29 0 42 80.5t13 140.5q0 116 -26 143q-17 17 -38 32t-44 15q-54 0 -94 -20l-238 -115q-34 38 -90 127v57v95q0 100 4 149l354 209q28 -17 65 -35t66 -34t52 -36q18 -18 67 -18q33 0 73.5 22 t98.5 62l10 -39l-215 -160q-173 9 -372 82q-29 -39 -29 -137q0 -53 17.5 -122.5t58.5 -69.5q26 0 39 4l286 116q53 -17 129 -77q9 -97 9 -162q0 -153 -37 -273q-224 -82 -373 -163q-190 157 -299 157q-86 0 -184 -76z" />
<glyph unicode="t" horiz-adv-x="965" d="M154 721l84 74h124q0 42 2.5 113.5t2.5 133.5q0 64 -2 97l260 170l30 -27l-63 -55q-41 -41 -41 -432h246l-70 -74h-178q0 -375 4 -469q27 -23 61 -49.5t66.5 -45t56.5 -18.5h13l149 64l8 -45l-319 -201l-234 170l6 594h-206z" />
<glyph unicode="u" horiz-adv-x="1395" d="M111 788l260 181q71 -79 121 -109q1 -35 1.5 -64.5t0.5 -78.5q0 -321 -62 -506l230 -94l212 102q11 126 11 309q0 114 -8 338l198 90l15 -14q-37 -257 -37 -483q0 -289 100 -289q32 0 123 41l14 -31q-151 -106 -282 -217l-21 4q-47 109 -117 191q-91 -38 -170 -83.5 t-145 -103.5q-22 -18 -37 -18q-11 0 -29 12q-68 47 -133.5 82.5t-134.5 50.5q105 104 105 443q0 82 -19.5 156.5t-70.5 111.5l-91 -41z" />
<glyph unicode="v" horiz-adv-x="1382" d="M223 850q0 33 24.5 73.5t63 85.5t64.5 74l39 -6q-33 -47 -33 -82q0 -78 106 -166l5 -71l342 217q133 -78 268 -125q6 -102 6 -205q0 -101 -4 -175t-18.5 -154.5t-43.5 -139.5l-501 -233q-105 98 -232 186q10 107 10 258q0 85 -2 155.5t-8 182.5q-86 107 -86 125zM494 385 q0 -76 14.5 -118t69.5 -79l88 -57q45 -31 92 -31q41 0 78 37.5t55 83.5q41 98 41 273q0 99 -19 237q-73 57 -200 78q-106 -38 -211 -107q-8 -200 -8 -317z" />
<glyph unicode="w" horiz-adv-x="1993" d="M197 872q0 24 71.5 102t114.5 113l31 -6q-37 -49 -37 -96q0 -30 35 -74t73 -77l2 -66q181 111 285 199q24 -14 60 -33t92 -44t82.5 -36t64.5 -27l-4 -75l332 211q135 -72 293 -136q6 -82 6 -163q0 -297 -86 -517l-436 -204q-79 42 -120.5 63t-98.5 47t-93 41 q21 192 21 357q0 129 -13 245q-65 41 -116.5 70t-87.5 29q-24 0 -43 -11q-104 -50 -144 -73q-4 -70 -4 -387q0 -111 111 -226l-176 -153q-70 106 -136 161q23 127 23 316q0 291 -27 328q-40 46 -57.5 70t-17.5 52zM1061 483q0 -97 9.5 -169.5t45.5 -114.5q43 -41 120 -75 t136 -34q20 0 60 37q37 41 53 133q12 61 16 123.5t4 155.5q0 41 -18 172q-89 48 -219 75l-201 -88q-6 -106 -6 -215z" />
<glyph unicode="x" horiz-adv-x="1096" d="M115 -199q0 47 39.5 109t82.5 109.5t109 113.5q14 100 14 260q0 154 -16 328q-75 67 -94 67q-11 0 -27 -8l-67 -28l-31 18q90 82 242 195q129 -102 178 -134l-4 -63l256 182q73 -107 143 -151l-141 -105q-18 6 -30.5 18.5t-29 33t-31.5 33t-32 12.5q-19 0 -63.5 -36 t-65.5 -59q-15 -66 -15 -161q0 -111 15 -295q48 -45 98.5 -82t77.5 -37q15 0 33 10l168 76l6 -43l-348 -215q-78 77 -197 151q-141 -117 -141 -211q0 -85 75.5 -122t190.5 -58l2 -20l-133 -74q-264 57 -264 186z" />
<glyph unicode="y" horiz-adv-x="1352" d="M199 838q49 108 157 241l39 -8q-33 -49 -33 -88q0 -29 23.5 -59.5t87.5 -100.5v-78l344 222q169 -88 268 -121q13 -251 13 -408q0 -116 -5.5 -215.5t-30.5 -199.5t-75 -148l-377 -321l-90 34q86 36 146 72t106.5 88t77.5 129q37 92 48 216t11 294q0 145 -24 342 q-93 47 -180 70q-130 -49 -232 -113v-459l123 -135l-199 -145q-54 82 -133 172q22 75 28.5 169.5t6.5 231.5q0 88 -6 174l-10 23q-55 70 -84 121z" />
<glyph unicode="z" horiz-adv-x="1100" d="M76 -238q57 91 137 184t171 181t191 174q-146 60 -256 68v22l170 137q40 33 60 57.5t20 57.5q0 34 -23 69.5t-60 58t-70 22.5q-43 0 -90.5 -28t-122.5 -81l-27 25q175 150 340 254q83 -35 161.5 -91t78.5 -116q0 -39 -35 -74l-174 -182q151 -45 244 -94q32 -112 32 -275 q0 -85 -15.5 -170t-39.5 -164l-319 -235q-117 0 -235 52.5t-138 147.5zM260 -150q0 -46 44 -83.5t105.5 -58.5t108.5 -21q86 0 109.5 110t23.5 244q0 127 -39 225q-135 -102 -243.5 -213.5t-108.5 -202.5z" />
<glyph unicode="}" horiz-adv-x="690" d="M115 1341q0 80 80 80q26 0 51.5 -10.5t25.5 -32.5v-106l-49 -389h-51l-45 311q-12 98 -12 147zM393 1364q0 49 90 49q24 0 46 -9.5t22 -29.5q0 -65 -4 -94l-43 -397h-47l-54 393q-10 72 -10 88z" />
<glyph unicode="&#xa1;" horiz-adv-x="1350" d="M268 356q0 191 29 353l229 161q-130 46 -194 84t-64 125q0 91 50.5 170.5t134.5 147.5l28 -19q-71 -68 -71 -159q0 -147 226 -222.5t454 -99.5q6 -76 6 -154q0 -283 -86 -540l-412 -271q-201 122 -324 234q-6 94 -6 190zM451 322q0 -46 16 -62q118 -92 201 -131 q50 -25 75 -25q77 0 127 195q33 136 33 334q0 43 -12 125l-316 96q-118 -120 -118 -393q0 -16 -1.5 -42.5t-3 -53.5t-1.5 -43z" />
<glyph unicode="&#xa2;" horiz-adv-x="1352" d="M176 1161q133 61 285 99q408 -110 635 -324q4 -114 4 -174q0 -100 -8 -194t-29.5 -189.5t-52.5 -171.5q-100 -70 -213.5 -137.5t-227.5 -130.5q-156 104 -295 229q-6 88 -6 178q0 181 29 389q119 98 297 205l43 -20l-139 -125q-41 -84 -41 -260q0 -77 7.5 -168.5 t29.5 -114.5q24 -22 57 -46t64.5 -42.5t71.5 -42t56 -33.5q92 92 125 239.5t33 315.5q0 64 -8 186q-266 239 -567 324l-142 -27z" />
<glyph unicode="&#xa3;" horiz-adv-x="967" d="M160 723l71 63h150q-19 221 -19 277q0 69 40.5 146t107 129.5t133.5 52.5q40 0 79 -16t79 -44q12 -8 20 -8q11 0 21 7t23 17.5t14 10.5l6 -31l-168 -170q-66 70 -142 70q-54 0 -99.5 -32.5t-45.5 -84.5q0 -68 45 -151t111 -173h264l-62 -63h-194q0 -557 -53 -866 l-181 -297l-55 2q59 134 80 245t21 265q0 82 -2.5 151t-7.5 162.5t-8 175t-3 162.5h-225z" />
<glyph unicode="&#xa4;" horiz-adv-x="956" d="M158 727l90 66h121l-33 133q-31 132 -31 153q0 63 35 120.5t86.5 103t114.5 83.5q14 3 43 3q70 0 136 -21.5t109 -60.5l-110 -189l-23 -2q-30 57 -76.5 97t-103.5 40q-46 0 -81.5 -29t-35.5 -73q0 -32 45 -111l117 -196q19 -32 23 -51h250l-52 -66h-209q0 -71 -4 -215 t-4 -217q0 -218 -21.5 -342t-109.5 -260l-104 -150l-43 15q33 95 52.5 179t27 154t10 154.5t2.5 216.5l-4 184q-1 37 -1.5 73.5t-1.5 73.5t-1.5 70t-1.5 64h-211z" />
<glyph unicode="&#xa5;" horiz-adv-x="1362" d="M213 -293l90 197h25q20 -72 76.5 -119t132.5 -69.5t149 -22.5q58 0 117.5 22t98 66.5t38.5 103.5q0 43 -12 106.5t-43 209.5l-422 -264l-193 194q-8 152 -8 227q0 104 8.5 203.5t30.5 186.5q55 34 107 65t86 50.5t99.5 56t82.5 43.5q102 -58 272 -99l180 86l13 -18 q-40 -73 -55 -174t-15 -211l-4 -273q49 -278 49 -311q0 -31 -18 -72l-293 -284q-75 -45 -187 -45q-74 0 -148 17t-138.5 48.5t-118.5 79.5zM459 461q0 -73 8 -211q65 -68 145 -129l275 139l16 465q-98 6 -193.5 25.5t-199.5 50.5q-32 -63 -41.5 -149.5t-9.5 -190.5z" />
<glyph unicode="&#xa6;" horiz-adv-x="965" d="M152 725l110 72h45q0 397 -22 561l28 12l62 -149q49 32 109.5 70t100.5 61.5t91 50.5l39 -14q-86 -60 -132 -104.5t-71 -107t-25 -153.5l244 166q66 -91 96 -160l-84 -112q-41 47 -78.5 81.5t-64.5 34.5q-46 0 -74.5 -40t-39.5 -96.5t-11 -100.5h268l-57 -72h-203 q0 -81 4.5 -229.5t4.5 -257.5l133 -99q16 -8 26 -8q6 0 31 10l135 62l2 -49l-321 -195q-116 101 -213 164q10 37 10 602h-143z" />
<glyph unicode="&#xa7;" horiz-adv-x="969" d="M160 723l84 78h125q0 192 -4 289l190 92l25 -11q-16 -84 -21.5 -175t-5.5 -195h289l-62 -78h-225q0 -139 1 -306t1 -165q17 -12 58 -42.5t73.5 -51.5t46.5 -21q15 0 27 6l129 64l12 -37l-319 -211l-222 166q6 50 7.5 209.5t1.5 388.5h-211z" />
<glyph unicode="&#xa8;" horiz-adv-x="1356" d="M117 788l254 183q55 -65 121 -109q4 -108 4 -325q0 -165 -66 -328q138 -40 227 -90l222 92v-53q-79 -33 -161.5 -81t-164.5 -108q-21 -14 -43 -14q-10 0 -14 4q-56 37 -99 63.5t-87.5 47t-82.5 24.5q63 45 82 174t19 271q0 53 -6.5 102.5t-24.5 94t-51 69.5l-96 -41z M879 211q10 81 10 244q0 86 -10 409l196 94l17 -16q-37 -204 -37 -483q0 -91 16 -193q6 -26 30.5 -62t45.5 -36q12 0 29 6l104 37l12 -31q-141 -101 -276 -221l-23 10q-49 107 -110 189z" />
<glyph unicode="&#xad;" horiz-adv-x="1952" d="M201 483l39 78h1501l-31 -78h-1509z" />
<glyph unicode="&#xb5;" horiz-adv-x="690" d="M199 1104q0 33 23.5 80.5t59.5 97t74.5 93.5t65.5 73l31 -29q-115 -168 -115 -239q0 -51 33 -93l73 -102q23 -28 23 -55q0 -31 -33 -61.5t-67 -30.5q-36 0 -75 47.5t-66 113t-27 105.5z" />
<glyph unicode="&#xb6;" horiz-adv-x="690" d="M209 1327q0 38 31 63t67 25q35 0 74 -49.5t66.5 -113.5t27.5 -101q0 -58 -33.5 -116.5t-96.5 -132.5t-79 -95l-37 22q63 95 88 139t25 105q0 39 -31 80l-82 115q-20 26 -20 59z" />
<glyph unicode="&#xc4;" horiz-adv-x="1071" d="M221 1227v47l451 164l14 -15q-18 -419 -18 -561q0 -284 3 -472.5t17 -354.5l-201 -55l-20 16q1 72 3 196.5t3 213.5t1.5 196t0.5 250q0 209 -12 309q-3 27 -25.5 46.5t-52.5 19.5h-164z" />
<glyph unicode="&#x2000;" horiz-adv-x="756" />
<glyph unicode="&#x2001;" horiz-adv-x="1513" />
<glyph unicode="&#x2002;" horiz-adv-x="756" />
<glyph unicode="&#x2003;" horiz-adv-x="1513" />
<glyph unicode="&#x2004;" horiz-adv-x="504" />
<glyph unicode="&#x2005;" horiz-adv-x="378" />
<glyph unicode="&#x2006;" horiz-adv-x="252" />
<glyph unicode="&#x2007;" horiz-adv-x="252" />
<glyph unicode="&#x2008;" horiz-adv-x="189" />
<glyph unicode="&#x2009;" horiz-adv-x="302" />
<glyph unicode="&#x200a;" horiz-adv-x="84" />
<glyph unicode="&#x2010;" horiz-adv-x="1952" d="M201 483l39 78h1501l-31 -78h-1509z" />
<glyph unicode="&#x2011;" horiz-adv-x="1952" d="M201 483l39 78h1501l-31 -78h-1509z" />
<glyph unicode="&#x2012;" horiz-adv-x="1952" d="M201 483l39 78h1501l-31 -78h-1509z" />
<glyph unicode="&#x2013;" horiz-adv-x="1436" d="M201 483l26 78h998l-21 -78h-1003z" />
<glyph unicode="&#x2014;" horiz-adv-x="2460" d="M201 483l52 78h1996l-41 -78h-2007z" />
<glyph unicode="&#x202f;" horiz-adv-x="302" />
<glyph unicode="&#x205f;" horiz-adv-x="378" />
<glyph unicode="&#xe000;" horiz-adv-x="965" d="M0 965h965v-965h-965v965z" />
</font>
</defs>
</svg>
