<?xml version="1.0" standalone="no"?>
<!DOCTYPE svg PUBLIC "-//W3C//DTD SVG 1.1//EN" "http://www.w3.org/Graphics/SVG/1.1/DTD/svg11.dtd" >
<svg xmlns="http://www.w3.org/2000/svg">
<metadata>
This is a custom SVG webfont generated by Font Squirrel.
Copyright   : Copyright C 1994 1995 Basil K Malyshev All Rights Reserved012BaKoMa Fonts Collection LevelC
</metadata>
<defs>
<font id="eurb9Regular" horiz-adv-x="1149" >
<font-face units-per-em="2048" ascent="1638" descent="-410" />
<missing-glyph horiz-adv-x="682" />
<glyph unicode=" "  horiz-adv-x="682" />
<glyph unicode="&#x09;" horiz-adv-x="682" />
<glyph unicode="&#xa0;" horiz-adv-x="682" />
<glyph unicode="!" horiz-adv-x="2032" d="M164 403q0 222 102.5 390t304.5 221l37 -41q-120 -67 -178.5 -170.5t-58.5 -241.5q0 -100 37 -196.5t110.5 -157t177.5 -60.5q85 0 154 66q53 53 53 209v332q0 -3 -3 43.5t-4 85.5l-3 65l223 66l23 -21q-23 -219 -23 -430q0 -188 54.5 -304t220.5 -116q91 0 156 44.5 t96.5 119.5t31.5 166q0 109 -44.5 206.5t-127.5 164.5l-8 39l150 135l47 -6q85 -50 123 -150.5t38 -218.5q0 -123 -43 -241t-122 -212.5t-188.5 -149t-233.5 -54.5q-135 0 -204.5 35.5t-125.5 148.5q-209 -188 -408 -188q-115 0 -197.5 57.5t-124.5 155t-42 208.5z" />
<glyph unicode="&#x22;" horiz-adv-x="1110" d="M223 240q0 54 24.5 103.5t63.5 80.5l33 33q14 14 31 18q38 9 84 12q-84 16 -137.5 69.5t-53.5 133.5q0 82 109 182q53 45 121.5 68t140.5 23q173 0 274 -91l-90 -153l-22 2q-41 79 -92 123.5t-134 44.5q-53 0 -101 -33t-48 -84q0 -100 105 -143t221 -43l-68 -133 q-76 15 -158 24q-106 -20 -106 -135q0 -106 87 -160.5t198 -54.5q142 0 303 111l32 -41q-75 -66 -157.5 -117.5t-174 -82t-182.5 -30.5q-84 0 -154 32t-109.5 94t-39.5 147z" />
<glyph unicode="#" horiz-adv-x="1335" d="M-14 592q124 82 200 124t133 42q83 0 104 -75.5t21 -197.5q0 -350 238 -350q159 0 216.5 155t57.5 349q-142 18 -260.5 51t-189.5 96q-63 55 -102 127t-39 150q0 72 26 131.5t74 101.5t109.5 63t134.5 21q150 0 247.5 -86.5t143 -221.5t45.5 -281q0 -31 -4 -97h18 q39 0 121 -4v-49q-37 -2 -67 -5t-78 -7q-42 -288 -217 -467q-182 -178 -377 -178q-129 0 -199 57.5t-94.5 151t-24.5 223.5q0 79 -16.5 128.5t-79.5 49.5q-48 0 -104 -41zM514 1176q0 -108 65.5 -207t169.5 -167t209 -89v57q0 79 -15.5 167t-50 169t-95.5 133.5t-144 52.5 q-53 0 -96 -31.5t-43 -84.5z" />
<glyph unicode="$" horiz-adv-x="1948" d="M174 330q0 111 53.5 202t141.5 153.5t196 92.5l21 -28l-2 -7q-92 -40 -149.5 -119.5t-57.5 -177.5q0 -82 33 -154t96 -115.5t145 -43.5q76 0 121 23.5t67 66.5t27.5 96t5.5 127v41l7 -20q-3 91 -9 174l197 66l31 -33q0 -33 -5.5 -106t-5.5 -91q4 -62 9 -99.5t18 -78.5 q24 -72 78 -124t121 -52q92 0 164.5 46.5t111.5 125t39 168.5q0 155 -65.5 255t-172 153.5t-235.5 74.5t-281 21q-194 0 -362 -44.5t-276 -156.5l-39 22q17 19 47.5 55t52.5 56q113 102 299 156q181 53 416 53q156 0 290 -20t249 -74t185 -157t70 -263q0 -125 -45 -235 t-128.5 -197.5t-195.5 -136t-235 -48.5q-97 0 -181.5 46.5t-109.5 132.5q-55 -53 -115.5 -92.5t-127 -63t-136.5 -23.5q-107 0 -188 44t-125.5 124.5t-44.5 184.5z" />
<glyph unicode="'" horiz-adv-x="1706" d="M176 463q0 138 65 241.5t175.5 167.5t247.5 91l30 -48q-138 -37 -207 -133.5t-69 -238.5q0 -103 26 -201t86 -170.5t158 -95.5v53q0 141 -2 211q0 70 -0.5 114t-1.5 97q0 83 43.5 158t116 131t158 86t165.5 30q179 0 276 -109t97 -290q0 -171 -90.5 -301.5t-239.5 -200 t-321 -69.5q2 -110 3.5 -176t6.5 -148l-197 -63l-28 8q9 258 12 389q-155 16 -268.5 65t-177.5 146.5t-64 255.5zM883 522q1 -26 1.5 -71t1 -90.5t1.5 -71.5q1 -59 1.5 -108.5t0.5 -127.5h26q120 0 259 133q112 112 112 334q0 78 -21.5 155.5t-72 131t-131.5 53.5 q-110 0 -144 -100t-34 -238z" />
<glyph unicode="0" d="M84 584q0 193 60 365t186 298q163 163 340 211q101 -50 159.5 -95t101.5 -109t79 -164q63 -168 63 -385q0 -173 -62.5 -342t-186.5 -280.5t-300 -111.5q-117 0 -201.5 53.5t-138.5 146.5t-77 198t-23 215zM279 786q0 -192 53 -340q47 -124 129.5 -216.5t189.5 -92.5 q149 0 204.5 127.5t55.5 296.5q0 347 -149 547q-112 156 -230 168q-87 -19 -144.5 -101t-83 -188.5t-25.5 -200.5z" />
<glyph unicode="1" d="M145 1214v66l555 176q4 1 6.5 1.5t6.5 0.5q12 0 22 -10t10 -23q-36 -423 -36 -845q0 -182 1.5 -305t6.5 -209l-219 -84l-43 28q39 363 39 725q0 114 -3.5 212t-9.5 200q0 20 -20 43.5t-39 23.5h-277z" />
<glyph unicode="2" d="M33 8v43q282 229 500.5 488t218.5 489q0 81 -26 144.5t-83 100t-137 36.5q-74 0 -152 -35t-157 -88l-47 39q116 102 245 168.5t260 66.5q96 0 181.5 -33t137.5 -100t52 -164q0 -153 -113 -321q-48 -72 -110.5 -147t-136.5 -154t-154.5 -164.5t-124.5 -136.5q0 -19 12 -19 h707l-62 -213h-1011z" />
<glyph unicode="3" d="M53 109l119 217l39 -4q19 -64 50 -120.5t79.5 -93t112.5 -36.5q153 0 235 93t82 247q0 133 -71 204t-178 94t-242 23v62q101 0 199 34t163.5 105.5t65.5 173.5q0 99 -62.5 153t-165.5 54q-111 0 -293 -113l-45 45q72 54 150 99t162.5 73.5t162.5 28.5q82 0 159.5 -28 t127 -87t49.5 -143q0 -145 -107.5 -242.5t-264.5 -148.5l6 -15q107 0 211.5 -33.5t171.5 -107t67 -186.5q0 -150 -86.5 -257.5t-225 -161.5t-284.5 -54q-70 0 -140.5 14t-132.5 42t-114 69z" />
<glyph unicode="4" d="M4 375v108l625 903l219 60l18 -21l-20 -915l231 -4l10 -6l-63 -125h-176q0 -166 14 -309l-225 -91l-29 23q21 202 21 377h-625zM172 532l10 -10l447 -8l-2 655l-9 17l-14 -8q-111 -119 -206.5 -263t-217.5 -352z" />
<glyph unicode="5" d="M29 106l112 216h37q43 -127 105 -191.5t180 -64.5q107 0 175 58t98 148.5t30 196.5q0 338 -299 338q-74 0 -141.5 -29t-112.5 -84l-41 17v706h821l11 -6l-78 -203h-641v-360l32 -2q127 65 279 65q94 0 173.5 -23.5t138.5 -72t92.5 -123t33.5 -170.5q0 -164 -81 -288.5 t-217.5 -191.5t-297.5 -67q-97 0 -156.5 11.5t-113 38t-139.5 81.5z" />
<glyph unicode="6" d="M92 516q0 170 69 337t190.5 299.5t280 209t329.5 76.5q7 0 106 -17l-20 -145l-50 -4q-77 47 -172 47q-154 0 -267.5 -99.5t-170.5 -252t-57 -303.5q92 59 183.5 91.5t184.5 32.5q100 0 184.5 -44t133.5 -123.5t49 -180.5q0 -128 -85 -235t-215 -168.5t-257 -61.5 q-135 0 -229.5 80t-140.5 203.5t-46 257.5zM336 584q0 -107 28.5 -223t95.5 -198.5t175 -82.5q48 0 92.5 21.5t78.5 59t52.5 83.5t18.5 94q0 68 -23 124.5t-67 100.5t-101 67t-125 23q-94 0 -225 -69z" />
<glyph unicode="7" d="M104 981v440q308 -6 1039 -6v-35q-123 -171 -221.5 -322t-190.5 -323.5t-148.5 -347.5t-56.5 -332l-80 -65h-163l-29 65q37 151 107.5 300t161 288t162.5 233.5t243 313.5q8 8 8 14q0 15 -29 15q-99 0 -198.5 -1t-199.5 -2l-200 -2q-67 0 -86 -51q-4 -8 -22 -91t-21 -95z " />
<glyph unicode="8" d="M88 330q0 81 29 141t81 106.5t112.5 78.5t135.5 65q-109 82 -191.5 178.5t-82.5 190.5q0 129 130 223t290 147q96 0 191 -24.5t161 -83.5t66 -154q0 -116 -85 -215.5t-202 -167.5q161 -98 246.5 -180.5t85.5 -212.5q0 -136 -84 -234.5t-214.5 -148t-260.5 -49.5 q-108 0 -201 38t-150 115t-57 187zM309 401q0 -76 36.5 -150t100 -119.5t140.5 -45.5q73 0 131 27.5t90.5 81.5t32.5 127q0 113 -90.5 191.5t-237.5 156.5q-105 -48 -154 -106t-49 -163zM387 1165q0 -43 46.5 -98.5t103 -103t114.5 -91.5q65 40 102.5 108.5t37.5 145.5 q0 70 -36.5 123t-97.5 81t-131 28q-59 -19 -99 -74.5t-40 -118.5z" />
<glyph unicode="9" d="M100 948q0 153 128.5 282.5t297.5 213.5q166 0 273 -25q110 -20 172 -80q104 -101 104 -213q0 -72 -36 -162.5t-86.5 -175t-110.5 -170.5q-60 -84 -129.5 -187.5t-129.5 -209t-91 -188.5l-224 -53l-30 24q24 45 62.5 96.5t74.5 98.5q10 12 59 70.5t103.5 124t116.5 139 t124 149.5l-18 23l-262 -82q-43 -5 -49 -5q-86 0 -167 45.5t-131.5 122t-50.5 162.5zM324 1069q0 -71 20.5 -126.5t61.5 -96t97.5 -61.5t127.5 -21q86 0 172 49q35 95 35 148q0 51 -13 98t-38 89t-62 79q-87 86 -287 86q-114 -112 -114 -244z" />
<glyph unicode=":" horiz-adv-x="639" d="M201 90q0 50 37.5 84.5t87.5 34.5q55 0 100 -32.5t45 -86.5t-45 -87.5t-100 -33.5q-49 0 -87 35.5t-38 85.5z" />
<glyph unicode=";" horiz-adv-x="639" d="M229 125q0 37 34 65.5t73 28.5q32 0 75 -61t62 -109q19 -45 19 -104q0 -75 -61.5 -159t-151.5 -177l-25 37q41 50 73.5 115.5t32.5 115.5q0 48 -30 84l-78 98q-23 27 -23 66z" />
<glyph unicode="&#x3c;" horiz-adv-x="758" d="M39 502l596 467l49 -43l-489 -412l514 -455l-88 -79z" />
<glyph unicode="=" horiz-adv-x="1153" d="M78 -373l905 1848l88 -19l-895 -1829h-98z" />
<glyph unicode="&#x3e;" horiz-adv-x="754" d="M72 893l82 70l534 -469l-532 -508l-56 37l459 450z" />
<glyph unicode="@" horiz-adv-x="1343" d="M180 459q0 164 70 280t195.5 175t289.5 59q33 0 99 -8q-34 81 -85.5 150.5t-121.5 115t-150 45.5q-164 0 -239 -184l-54 12q66 166 157 241.5t259 75.5q110 0 209 -64.5t171 -162.5t114 -207q71 -188 71 -418q0 -125 -31 -233.5t-95.5 -193t-163 -132t-226.5 -47.5 q-66 0 -129.5 18.5t-119 51t-103.5 78.5q-62 61 -89.5 154t-27.5 194zM428 489q0 -97 22.5 -197.5t80.5 -172.5t155 -72q149 0 195.5 148.5t46.5 339.5q0 88 -18.5 177.5t-51.5 168.5q-66 16 -100 16q-179 0 -254.5 -110.5t-75.5 -297.5z" />
<glyph unicode="A" horiz-adv-x="1733" d="M6 18q438 634 774 1266l-6 16q-107 18 -196 27l2 76h467q27 -114 64.5 -237t83 -261.5t85.5 -263.5q45 -142 79 -235t94 -186t128 -93q43 0 121 16l12 -57q-127 -55 -214 -85t-163 -30q-83 0 -129 56t-73 149q-41 139 -107 371h-524q-34 -59 -59 -111.5t-56.5 -127.5 t-71 -174t-45.5 -114l-262 -22zM573 655l9 -4h14q66 1 121 1.5t143 0.5t131 -2q-122 398 -155 479l-17 -2q-79 -131 -246 -473z" />
<glyph unicode="B" horiz-adv-x="1516" d="M84 1370v33v33h655q107 0 195 -10t169.5 -40t134 -95.5t52.5 -166.5q0 -75 -36.5 -136.5t-97.5 -104t-131 -67t-144 -34.5v-30q82 0 195.5 -34t168.5 -83q94 -86 94 -213q0 -162 -89.5 -257.5t-226.5 -132t-302 -36.5h-506l-4 31q42 31 53.5 58t11.5 85v985 q0 119 -30 152q-69 63 -162 63zM555 238q0 -74 13.5 -115t64.5 -41q176 0 289.5 86.5t113.5 257.5q0 103 -68.5 169.5t-172.5 88.5q-108 25 -240 25v-471zM555 786q118 0 220 28t166.5 99t64.5 195q0 95 -48.5 149.5t-124 73.5t-171.5 19q-54 0 -75.5 -8t-26.5 -30t-5 -79 v-447z" />
<glyph unicode="C" horiz-adv-x="1649" d="M178 676q0 78 13 155t40 151.5t69.5 139t96.5 111.5q121 107 277.5 164t331.5 57q156 0 272 -33q103 -29 168.5 -81t124.5 -146l-197 -174l-35 4q-27 106 -76 180.5t-127 115t-186 40.5q-121 0 -210 -55.5t-144 -145t-82 -201t-27 -223.5q0 -171 62.5 -319t187 -238 t297.5 -90q82 0 163.5 17t157 45t154.5 67l43 -53q-85 -59 -187 -105t-207.5 -70t-211.5 -24q-233 0 -406 78t-267.5 238t-94.5 395z" />
<glyph unicode="D" horiz-adv-x="1880" d="M90 1366v61h881q237 0 405 -60t261.5 -203t93.5 -378q0 -198 -70 -348t-194 -247t-290.5 -145t-359.5 -48h-590v29q35 45 43 82l9 108v877q0 111 -9 157.5t-48 73t-132 41.5zM561 377q0 -132 14 -215q6 -35 34.5 -52t60.5 -20.5t75 -3.5q222 0 370 79.5t221 233t73 373.5 q0 224 -75 348t-216.5 171.5t-367.5 47.5q-105 0 -138.5 -7t-42 -36.5t-8.5 -119.5v-799z" />
<glyph unicode="E" horiz-adv-x="1337" d="M23 1362v61q181 0 302 0.5t263.5 3.5t267 10t209.5 17v-143l-27 -23l-483 29q-43 0 -56.5 -25.5t-13.5 -74.5v-367q0 -18 13 -36.5t28 -18.5q21 0 99 4.5t96 5.5t108.5 7.5t155.5 10.5q1 0 3 2.5t3 3.5l27 -16v-119q-144 6 -473 6q-30 0 -45 -12t-15 -43q0 -90 1 -152 t4.5 -121.5t13.5 -119.5q10 -69 44 -97t105 -27h25l565 30l23 -17l-56 -157q-60 4 -149 7.5t-208 5.5t-193 2.5t-164 0.5q-168 0 -201 8q-43 43 -68 96v877q0 233 -8 270q-13 60 -61.5 80t-134.5 31z" />
<glyph unicode="F" horiz-adv-x="1098" d="M25 1370v57q139 0 281.5 0.5t274.5 1.5t258.5 4.5t194.5 8.5v-139l-16 -17l-447 29q-7 1 -13.5 1.5t-16.5 0.5q-54 0 -54 -33q0 -4 2.5 -14.5t2.5 -20.5v-4v-397q0 -53 34 -53q66 0 129.5 5t175 15.5t162.5 13.5l27 -24v-111q-103 5 -206 5.5t-269 0.5q-32 0 -42.5 -12 t-10.5 -43l6 -598l-267 -72l-26 17q8 172 12.5 351.5t7 344.5t2.5 336q0 180 -16 254q-11 47 -68 69.5t-118 22.5z" />
<glyph unicode="G" horiz-adv-x="1765" d="M186 684q0 186 64.5 331.5t180.5 241.5t270 143.5t335 47.5q87 0 167.5 -10.5t152 -38.5t130.5 -79t99 -126l-201 -182l-38 16q-52 155 -139 238.5t-236 83.5q-167 0 -274.5 -89.5t-155 -232t-47.5 -307.5q0 -185 64 -331t193 -228t318 -82q87 0 122 4.5t52 23t21 57.5 t4 134q0 85 -10.5 148t-51.5 75l-375 21v75l711 27q-10 -97 -10 -235q0 -57 5 -169t9 -167q-222 -53 -359.5 -77t-275.5 -24q-225 0 -387.5 83t-250 244t-87.5 384z" />
<glyph unicode="H" horiz-adv-x="1790" d="M84 1358v63l489 4q-4 -75 -8 -153l-8 -156q-8 -208 -8 -291q25 -23 41 -27.5t55 -4.5h531q46 0 72 9t26 42l2 547l289 61l20 -20q-9 -76 -18.5 -208.5t-13 -254.5t-3.5 -240v-207q0 -102 0.5 -213t1.5 -119q0 -59 54 -91.5t114 -32.5v-64l-428 -16l-49 43 q16 145 22.5 295t6.5 313q0 34 -18.5 44.5t-57.5 10.5h-584q-59 0 -59 -57q0 -287 12 -574l-280 -73l-15 18q11 296 11 727v258v258q0 73 -197 109z" />
<glyph unicode="I" horiz-adv-x="963" d="M98 2v57l150 33q25 6 42 27t17 47q4 88 4 594q0 346 -12 510q0 29 -35 47t-81.5 27t-80.5 16l-2 61h695v-63q-26 -5 -71.5 -15t-84.5 -18q-23 -5 -37 -22.5t-14 -40.5q0 -170 -0.5 -277t-1.5 -235q0 -196 1.5 -336.5t4.5 -196.5q0 -44 24.5 -81t65.5 -46l127 -29v-59 h-711z" />
<glyph unicode="J" horiz-adv-x="954" d="M92 -301q133 61 193.5 155.5t74 201t13.5 280.5v807q0 149 -25 182q-45 45 -196 45v72h708v-68l-141 -28q-50 -19 -64 -103.5t-14 -193.5v-510q0 -121 -3.5 -200t-18 -157.5t-49.5 -157t-93 -145.5q-45 -45 -103.5 -90t-121.5 -81t-117 -52z" />
<glyph unicode="K" horiz-adv-x="1563" d="M96 1360v61l496 13q-18 -178 -25.5 -336t-7.5 -310v-178q0 -91 1 -136.5t3 -114.5t6.5 -137.5t12.5 -160.5l-287 -86l-21 21q11 282 11 694v208q0 100 -1.5 215.5t-2.5 141.5q0 35 -31 55t-76 31.5t-78 18.5zM561 662v129h25l618 632l221 13v-33l-637 -576q0 -30 3 -34 q363 -331 731 -650v-32l-289 -121q-93 103 -202.5 221t-211.5 220.5t-237 230.5h-21z" />
<glyph unicode="L" horiz-adv-x="1296" d="M88 1372v62h649v-70q-82 -12 -118.5 -23.5t-54 -35t-21.5 -62.5t-4 -133v-592q0 -81 1 -145.5t3.5 -115.5t9.5 -87q7 -41 41.5 -51t89.5 -10q27 0 39 2l479 43l27 -17l-43 -147q-191 10 -977 10v35q38 53 46.5 89t8.5 120v911q0 124 -29.5 170.5t-146.5 46.5z" />
<glyph unicode="M" horiz-adv-x="2419" d="M182 6l156 729q38 179 59 296.5t21 205.5q0 49 -33 78t-81.5 40t-94.5 11v66h487q58 -156 122.5 -317.5t117.5 -282t107.5 -236.5t125.5 -254l359 569q81 147 141 273.5t96 240.5l338 5l13 -17q-2 -3 -18 -26.5t-27 -34.5q-17 -15 -17 -56q1 -20 1.5 -36.5t0.5 -45.5 v-296q0 -257 27 -543q14 -197 53 -236q31 -28 117 -28q28 0 90 8l8 -56l-289 -77q-67 -19 -120 -19q-56 0 -89.5 28.5t-33.5 82.5q0 170 -3.5 350.5t-11 354.5t-18.5 327h-21q-69 -112 -142.5 -238.5t-174.5 -312.5t-150 -279.5t-147 -281.5h-170q-251 683 -444 1108l-25 -2 l-127 -1051l-174 -57z" />
<glyph unicode="N" horiz-adv-x="1925" d="M106 1368v62h433q138 -166 288 -335.5t304.5 -334.5t324.5 -338l25 4l-35 977l168 53l41 -29q-17 -191 -24 -292t-16.5 -275.5t-12.5 -263.5q-1 -47 -4 -141t-3 -142q0 -144 11 -303h-156l-1001 1086l-25 -9l57 -1019l-172 -74l-26 16q14 252 21.5 424.5t12.5 359.5 t5 355q0 101 -13.5 139.5t-55.5 53.5t-147 26z" />
<glyph unicode="O" horiz-adv-x="1841" d="M150 674q0 256 111.5 435.5t310.5 270t450 90.5q157 0 285 -43.5t220 -129t141.5 -211.5t49.5 -287q0 -271 -113 -458t-318 -279.5t-474 -92.5q-159 0 -283.5 50t-209 143.5t-127.5 223.5t-43 288zM438 748q0 -116 30.5 -238.5t94 -224.5t160 -162t225.5 -60 q165 0 271 83t153 218.5t47 299.5q0 124 -24.5 250.5t-80 234t-150.5 174t-230 66.5q-167 0 -279 -92t-164.5 -239.5t-52.5 -309.5z" />
<glyph unicode="P" horiz-adv-x="1389" d="M102 1366v31v30h738q127 0 226 -26.5t161.5 -99t62.5 -197.5q0 -328 -309 -430q-116 -35 -250 -45q-170 0 -170 -54l12 -514l-280 -73l-25 20q17 404 17 930q0 270 -11 334q-7 51 -59.5 72.5t-112.5 21.5zM559 1309l4 -572q0 -19 17.5 -30t37.5 -11q164 0 268.5 103.5 t104.5 267.5q0 90 -35 155t-101.5 99.5t-156.5 34.5q-58 0 -98.5 -8.5t-40.5 -38.5z" />
<glyph unicode="Q" horiz-adv-x="1919" d="M178 649q0 191 63.5 343t179 255.5t275 157t346.5 53.5q161 0 292.5 -46.5t222.5 -135.5t139.5 -218t48.5 -292q0 -161 -42.5 -307t-141.5 -246q-89 -87 -203 -145t-236 -78q80 -128 171.5 -215.5t199.5 -87.5q129 0 231 30l9 -65q-172 -51 -387 -51q-183 0 -312 112 q-149 135 -241 246q-145 0 -261.5 54t-194.5 148.5t-118.5 220t-40.5 267.5zM475 719q0 -111 31 -229.5t93.5 -217.5t157.5 -159t214 -60q185 0 293 90.5t149 237t41 330.5q0 122 -26 238t-83 210t-152 150.5t-228 56.5q-131 0 -226 -54.5t-153.5 -147t-84.5 -207 t-26 -238.5z" />
<glyph unicode="R" horiz-adv-x="1491" d="M100 1370v33v31h680q215 0 356.5 -60.5t141.5 -245.5q0 -169 -107 -268q-67 -61 -153.5 -95.5t-186.5 -39.5q50 -57 124 -142t158.5 -180t130 -144t95.5 -101q31 -31 43 -41l7 -33l-246 -104l-39 4l-524 675l-29 5l22 -580l-282 -100l-21 18q14 223 21.5 459.5t7.5 490.5 q0 279 -6 322q-9 53 -67 74.5t-126 21.5zM549 748q180 0 306 87.5t126 260.5q0 137 -84.5 197.5t-226.5 60.5q-45 0 -75 -8.5t-30 -38.5z" />
<glyph unicode="S" horiz-adv-x="1366" d="M168 178l205 223l39 -14q0 -83 38.5 -155.5t107 -116t153.5 -43.5q68 0 129.5 34t99 91t37.5 127q0 107 -95 180.5t-247 150.5q-150 77 -257.5 178t-107.5 230q0 111 46 192.5t122.5 130t172 71t204.5 22.5q101 0 179.5 -15t139.5 -59.5t101 -132.5l-199 -154l-35 12 q-16 120 -89 194.5t-191 74.5q-97 0 -157 -56t-60 -151q0 -82 48 -145.5t115 -105t167 -91.5q83 -41 147 -77t121.5 -83.5t93 -111.5t35.5 -144q0 -106 -61 -194t-158 -147.5t-208.5 -90.5t-211.5 -31q-131 0 -237.5 51.5t-186.5 155.5z" />
<glyph unicode="T" horiz-adv-x="1135" d="M45 1341v107q0 6 6 6q103 -2 308 -10t305 -8q54 0 145.5 3.5t169.5 6.5q177 10 313 10q8 0 14.5 -4.5t6.5 -13.5v-101q0 -20 -21 -20q-112 0 -223 6q-152 4 -225 4q-24 0 -33.5 -4.5t-9.5 -22.5q-4 -59 -4 -286q0 -462 34 -953l-292 -84l-21 25q4 115 9.5 317.5t7.5 392 t2 300.5q0 92 -0.5 149.5t-1.5 126.5l-13 29l-37 4q-131 -7 -252 -12t-182 -6q-6 0 -6 38z" />
<glyph unicode="U" horiz-adv-x="1792" d="M57 1368v64l512 6q-16 -138 -26 -272.5t-14.5 -270t-4.5 -289.5q0 -229 97.5 -363t318.5 -134q166 0 277 61v302q0 140 -2 358t-4.5 338t-8.5 202l297 94l31 -16q-17 -155 -24.5 -257.5t-14 -260t-7.5 -270.5t-1 -293q0 -181 33 -213q26 -25 106 -25q47 0 125 8l4 -53 l-356 -94q-38 -10 -72 -10q-51 0 -81 30t-30 80q-143 -52 -254.5 -79t-220.5 -27q-182 0 -287 62.5t-147.5 181t-42.5 302.5q0 119 14 539q1 14 1.5 25.5t0.5 29.5q0 98 -14.5 147.5t-60 73t-144.5 23.5z" />
<glyph unicode="V" horiz-adv-x="1556" d="M55 1436q111 0 240 4.5t203 9.5q55 -197 111 -381.5t120 -357.5t143 -346l15 -15l24 23q44 99 115.5 244.5t134.5 275.5q86 174 277 532l243 29l5 -29q-122 -156 -231.5 -318t-212.5 -343t-187 -361.5t-148 -351.5l-205 -61l-22 12q-25 80 -74.5 231t-104 310t-101 295.5 t-76.5 224.5q-1 2 -23 68.5t-39 105.5t-42.5 72.5t-53.5 38.5l-109 20z" />
<glyph unicode="W" horiz-adv-x="2351" d="M27 1432h432q29 -162 69.5 -339.5t87.5 -360t101 -376.5l16 -22l6 10q88 170 145 284.5t116.5 241.5t114.5 259.5t99 254.5l216 46l14 -11q42 -208 69 -331.5t51 -225.5t61 -256t77 -315l14 -15l13 5q70 155 127.5 283.5t127 286t132 308.5t94.5 236l252 35v-31 q-134 -209 -252.5 -422.5t-233.5 -442.5t-239 -495l-219 -72l-29 25q-14 65 -59 264t-73.5 325t-61.5 264t-58 240l-12 13l-17 -11q-41 -91 -114 -251.5t-121 -271.5t-97.5 -229t-119.5 -294l-209 -66l-31 21l-276 1137q-49 193 -103 208l-108 29z" />
<glyph unicode="X" horiz-adv-x="1540" d="M59 -2v53l584 641q-138 219 -377 582q-37 54 -207 88v65l437 13q64 -118 88.5 -161t66.5 -113t84 -137l84 -134l418 502l238 35v-58q-82 -72 -167.5 -148.5t-162.5 -150t-144 -145.5t-118 -139q165 -267 306 -452.5t286 -254.5v-37l-353 -74q-32 42 -79.5 109t-133.5 199 t-118 182.5t-76 118.5q-56 -54 -113 -121.5t-97 -119t-111.5 -149t-114.5 -153.5z" />
<glyph unicode="Y" horiz-adv-x="1219" d="M57 1366v72h400q6 -14 62 -123.5t137 -266.5t116 -225q5 -12 27 -12q17 0 22 8l391 592l211 35l4 -25l-585 -745v-121q0 -124 3.5 -269.5t6.5 -228.5l-252 -65l-39 18l12 627l-286 541q-11 22 -39 64t-41 63t-38 32.5t-52.5 16.5t-59.5 12z" />
<glyph unicode="Z" horiz-adv-x="1532" d="M59 0v49q140 171 320 398.5t334 430.5t309 412l8 25q-263 -6 -478.5 -13.5t-299.5 -13.5l-16 17v131l18 14q509 -29 844 -29q88 0 268 4v-28q-101 -125 -207 -271t-265 -379.5t-225.5 -331t-172.5 -243.5q-2 -4 -2 -10q0 -15 12.5 -24t28.5 -8q210 1 408 8.5t495 23.5 l30 -27l-55 -160q-74 8 -268.5 14.5t-393.5 8t-354 2t-338 0.5z" />
<glyph unicode="`" horiz-adv-x="856" d="M31 311l149 119q-4 35 -4 145q0 333 91.5 603t357.5 270q49 0 110 -57q49 -51 49 -193q0 -129 -53 -255t-139 -235.5t-195 -207.5q0 -66 21.5 -151t66 -149.5t107.5 -64.5q37 0 95.5 45.5t88.5 85.5l39 -20q-41 -75 -96.5 -140t-127 -106t-149.5 -41q-82 0 -131.5 47 t-79.5 133q-28 84 -41 223l-106 -77zM385 739q0 -51 4 -149q74 66 133.5 171t93 225t33.5 220q0 68 -14 116t-66 48q-82 0 -123 -120t-51 -253.5t-10 -257.5z" />
<glyph unicode="a" horiz-adv-x="1389" d="M205 430q0 179 51.5 310t165 204.5t293.5 73.5q143 0 311 -84l127 78l27 -19q-31 -297 -31 -549q0 -58 4 -170q0 -124 64 -124q35 0 67.5 23t77.5 63l41 -43q-182 -218 -348 -218q-70 0 -99 39.5t-43 120.5q-78 -53 -139 -87t-130.5 -56.5t-141.5 -22.5 q-160 0 -228.5 140t-68.5 321zM440 492q0 -148 48 -256.5t176 -108.5q73 0 139.5 38t101.5 99q17 233 17 414q0 73 -16.5 131t-58.5 94.5t-116 36.5q-104 0 -169.5 -70t-93.5 -172.5t-28 -205.5z" />
<glyph unicode="b" horiz-adv-x="1405" d="M59 1321l2 61l441 62l-15 -590l23 -6q65 51 124 84.5t128 54.5t139 21q85 0 148 -32.5t104 -90t59.5 -128.5t18.5 -151q0 -89 -22 -173t-68 -157.5t-111 -128.5q-212 -176 -446 -176q-107 0 -173 39.5t-99.5 107t-44.5 150.5t-11 187q0 45 2 69q1 18 1.5 32.5t0.5 37.5 q0 38 3 115.5t5.5 137t4 119t1.5 97.5q0 110 -10.5 159t-55 74t-149.5 25zM475 461q0 -48 1 -80t7 -75t17 -76.5t32 -61.5q71 -90 154 -90q104 0 170.5 59.5t95.5 152t29 195.5q0 74 -10 138.5t-35.5 116t-76 84t-128.5 32.5q-100 0 -237 -104q-19 -171 -19 -291z" />
<glyph unicode="c" horiz-adv-x="1147" d="M186 393q0 135 35 249t106.5 198t178 128t246.5 44q174 0 254 -74q30 -29 50.5 -73.5t20.5 -90.5l-207 -121l-20 13q0 47 -16.5 109t-49.5 105.5t-84 43.5q-90 0 -150.5 -67.5t-88 -165.5t-27.5 -185q0 -93 29.5 -182.5t93.5 -147t162 -57.5q152 0 344 141l45 -35 q-75 -74 -159.5 -128t-182.5 -85.5t-197 -31.5q-122 0 -209 52t-130.5 145t-43.5 216z" />
<glyph unicode="d" horiz-adv-x="1405" d="M176 395q0 128 33 239t102 197.5t169.5 133.5t234.5 47q34 0 104 -4q14 -1 103 -11v189q0 80 -55.5 105.5t-149.5 25.5v33v30l467 50q-29 -582 -29 -781q0 -86 -2 -129q0 -43 -0.5 -69.5t-1.5 -59.5q0 -237 72 -237q34 0 66.5 19t80.5 56l35 -47q-205 -205 -354 -205 q-59 0 -96 46.5t-37 107.5q-104 -69 -204 -110t-198 -41q-85 0 -150 34t-107.5 93.5t-62.5 134t-20 153.5zM432 483q0 -141 55.5 -247.5t182.5 -106.5q141 0 250 119v491q0 108 -31.5 150.5t-134.5 42.5q-108 0 -181 -67t-107 -171.5t-34 -210.5z" />
<glyph unicode="e" horiz-adv-x="1282" d="M182 416q0 133 40.5 243.5t117.5 189.5t185 120t241 41q173 0 286 -67.5t113 -229.5q0 -32 -14 -49t-45 -27l-674 -203q0 -88 39 -164t108.5 -120t161.5 -44q134 0 340 107l27 -47q-64 -48 -146 -95.5t-164.5 -75.5t-162.5 -28q-145 0 -246.5 51t-154 152.5t-52.5 245.5z M432 520l418 127q21 5 40 20.5t19 34.5q0 93 -50 160.5t-140 67.5q-79 0 -133.5 -36t-89 -96.5t-49.5 -131.5t-15 -146z" />
<glyph unicode="f" horiz-adv-x="899" d="M41 817l33 90h239q0 92 13 163.5t47.5 141t89.5 127.5q61 63 112 85t138 22q49 0 114 -27l-67 -194l-31 -6q-55 43 -115 43q-78 0 -129 -40.5t-51 -115.5q0 -130 109.5 -164.5t283.5 -34.5l-34 -90h-256l28 -780l-235 -57l-27 18l4 819h-266z" />
<glyph unicode="g" horiz-adv-x="1374" d="M197 399q0 142 26.5 270t95.5 197q151 148 371 148q163 0 318 -51l104 51l27 -8q-2 -23 -2 -80q0 -144 18 -504q4 -78 4 -117q0 -158 -30 -301.5t-111 -224.5q-97 -93 -228 -144t-266 -51q-202 0 -313 111l117 186l53 -8q54 -88 111.5 -139t140.5 -51q146 0 213 112 t67 268q0 46 -2 68q-103 -76 -206.5 -124t-198.5 -48q-88 0 -147.5 38.5t-95.5 104t-51 140.5t-15 157zM428 543q0 -418 244 -418q73 0 138.5 33t98.5 94l-22 512q0 81 -42.5 127.5t-123.5 46.5q-79 0 -137 -33t-92 -90t-49 -125.5t-15 -146.5z" />
<glyph unicode="h" horiz-adv-x="1389" d="M61 1309v69l439 45l-19 -563q277 156 426 156q133 0 177 -82.5t44 -228.5q0 -54 -2 -80q-12 -160 -12 -248q0 -75 17 -134t73 -59q68 0 148 68l45 -33q-73 -90 -157 -162.5t-159 -72.5q-67 0 -105.5 30.5t-56.5 80.5t-22 102t-4 129q0 34 2 80.5t4 111.5q4 70 4 113 q0 123 -32.5 182t-145.5 59q-97 0 -236 -96l9 -725l-222 -65l-26 22q6 144 7.5 235t2 201.5t0.5 219.5q0 538 -8 569q-14 49 -65 62.5t-126 13.5z" />
<glyph unicode="i" horiz-adv-x="766" d="M20 838q96 73 183 121.5t162 48.5q86 0 108.5 -54t22.5 -157q0 -43 -0.5 -69t-1.5 -58q-5 -108 -5 -129q0 -236 3 -256q0 -51 20.5 -94.5t67.5 -43.5q50 0 143 99l49 -43q-74 -95 -160 -162.5t-176 -67.5q-77 0 -119.5 53.5t-42.5 133.5q0 -1 -1 125.5t-1 232.5v240 q0 39 -18.5 69.5t-52.5 30.5q-59 0 -138 -65zM233 1272q0 55 45.5 91t100.5 36q52 0 93.5 -36.5t41.5 -88.5q0 -56 -47 -91.5t-105 -35.5q-51 0 -90 37.5t-39 87.5z" />
<glyph unicode="j" horiz-adv-x="758" d="M10 -346q125 83 228 211q28 36 38 76t19 106q3 33 6 81t4.5 103t1.5 120v120q0 231 -4 270q-15 113 -76 113q-49 0 -143 -72l-45 47q90 70 181.5 122.5t158.5 52.5q72 0 101.5 -34.5t37.5 -111.5q6 -49 6 -336q0 -134 -5 -235t-26 -203t-65 -172q-75 -93 -170.5 -165 t-216.5 -142zM260 1274q0 56 38.5 95.5t94.5 39.5q36 0 68.5 -15.5t53 -45t20.5 -64.5q0 -57 -44.5 -96t-103.5 -39q-53 0 -90 37t-37 88z" />
<glyph unicode="k" horiz-adv-x="1276" d="M61 1319v70l457 38l-22 -825h49v-14q0 -19 2 -29v43q73 59 147.5 125.5t135 120.5t130 110t130.5 95l122 -76l-4 -25q-102 -53 -187 -102.5t-169.5 -105.5t-155.5 -109q20 -26 74 -98t93.5 -124t83 -105.5t81.5 -92.5q27 -23 41 -31t37 -8q36 0 70 21t84 61l40 -53 q-220 -201 -239.5 -205t-28.5 -4q-60 0 -128 60t-131.5 147.5t-134 198t-91.5 135.5l-1 -1q0 -1 -1 -1h-49q2 -105 4 -173l2 -136q2 -68 4 -175l-215 -63l-33 18q2 65 3.5 181t2 270.5t0.5 283.5q0 90 2 136v133q0 153 -12 227q-11 52 -55 68q-19 3 -138 14z" />
<glyph unicode="l" horiz-adv-x="770" d="M57 1325l2 61l435 39l-17 -952q0 -28 -0.5 -47.5t-1.5 -42.5q0 -227 80 -227q65 0 162 102l51 -39q-72 -95 -160 -164t-180 -69q-83 0 -121.5 37t-47.5 92.5t-9 148.5q0 40 2 102.5t4 149.5q4 148 4 229q0 116 -4 332q0 114 -9 160t-50.5 67t-139.5 21z" />
<glyph unicode="m" horiz-adv-x="2064" d="M8 842q95 71 179 117.5t157 46.5q74 0 116 -34.5t42 -107.5l8 -88v-723l-209 -69l-37 16q17 558 17 592q0 94 -5.5 156t-25.5 81q-30 33 -51 33q-49 0 -150 -69zM502 864l12 2q110 69 205 107.5t188 38.5q189 0 236 -166l-4 -92v-701l-203 -71l-29 16q6 295 6 594 q0 126 -26.5 209.5t-120.5 83.5q-91 0 -256 -109zM1139 754l4 88q114 71 222.5 119.5t197.5 48.5q113 0 176 -60q27 -25 39.5 -90t15 -136.5t2.5 -170.5q0 -33 -4 -107q-4 -68 -4 -106q0 -63 16.5 -109.5t69.5 -46.5q68 0 154 58l26 -41q-221 -215 -336 -215 q-70 0 -102.5 43t-40.5 100t-8 137q1 40 1.5 72.5t0.5 85.5q2 51 2 156q0 82 -8 144t-40.5 109.5t-101.5 47.5q-60 0 -133 -38t-149 -89z" />
<glyph unicode="n" horiz-adv-x="1401" d="M-10 842q229 174 348 174q73 0 110 -39t37 -115h19q116 69 213.5 108.5t200.5 39.5q86 0 139 -40.5t63 -125.5q6 -58 6 -287q0 -63 -2 -96q0 -33 -0.5 -53.5t-1.5 -45.5q0 -80 16 -132t74 -52q43 0 78.5 18t79.5 50l27 -45q-51 -58 -102 -104.5t-110.5 -81.5t-113.5 -35 q-78 0 -114 40t-44 119q-4 31 -4 350q0 85 -2.5 146t-15 117t-35.5 79q-40 35 -121 35q-67 0 -246 -94l11 -715l-226 -65l-24 14l14 600q0 258 -82 258q-19 0 -38.5 -6t-36.5 -15t-32.5 -19.5t-37.5 -26.5z" />
<glyph unicode="o" horiz-adv-x="1405" d="M164 477q0 158 74 275t201 179t284 62q223 0 366.5 -108.5t143.5 -325.5q0 -183 -64 -313.5t-191.5 -199.5t-309.5 -69q-170 0 -281.5 54t-167 165.5t-55.5 280.5zM434 477q0 -119 31 -213q28 -82 86.5 -142.5t132.5 -60.5q110 0 165.5 50t84.5 161q29 119 29 275 q0 151 -58 257.5t-196 106.5q-101 0 -162.5 -68t-87 -166t-25.5 -200z" />
<glyph unicode="p" horiz-adv-x="1382" d="M37 836q83 64 169.5 111.5t162.5 47.5q137 0 137 -145q230 145 381 145q184 0 269 -113t85 -302q0 -271 -143 -414q-79 -79 -184.5 -122.5t-217.5 -43.5q-118 0 -207 53v-401l-229 -60l-20 19l39 995q0 238 -80 238q-12 0 -28 -4.5t-32.5 -12.5t-26 -13.5t-34.5 -20.5z M500 319q0 -110 49.5 -171.5t155.5 -61.5q151 0 217.5 113t66.5 272q0 167 -49 271t-195 104q-97 0 -245 -98v-429z" />
<glyph unicode="q" horiz-adv-x="1403" d="M213 412q0 129 33 238t99 188.5t167 123.5t233 44q72 0 136 -14.5t114 -43.5l121 150l49 -4q-6 -105 -9.5 -209.5t-5 -194t-1.5 -229.5q0 -178 5 -389.5t9 -411.5l-227 -68l-31 13l15 528q-110 -72 -214.5 -116t-207.5 -44q-122 0 -184 63t-81.5 158t-19.5 218zM451 481 q0 -88 19 -167.5t69 -134t137 -54.5q72 0 136.5 34t107.5 93v461q0 101 -48 159t-147 58q-100 0 -161.5 -72.5t-87 -177t-25.5 -199.5z" />
<glyph unicode="r" horiz-adv-x="1036" d="M29 831q205 166 329 166q83 0 110.5 -46.5t27.5 -135.5l24 -4q173 182 314 182q82 0 122.5 -50.5t40.5 -133.5l-155 -117l-27 15q-10 48 -41 80t-78 32q-64 0 -139 -69q-61 -62 -61 -226q0 -45 2 -69l30 -387l-223 -80l-35 10l9 604q0 91 -5.5 153t-25.5 79 q-15 14 -55 14q-53 0 -123 -64z" />
<glyph unicode="s" horiz-adv-x="1040" d="M72 109l133 188h31q20 -77 48 -130.5t77.5 -87.5t119.5 -34q71 0 121.5 40t50.5 110q0 66 -56 101.5t-179 92.5q-114 54 -192.5 124t-78.5 163q0 116 56 190t151 108t209 34q115 0 192.5 -27t121.5 -111l-154 -151l-31 8q-7 54 -34 103t-70.5 76.5t-100.5 27.5 q-70 0 -105.5 -38t-35.5 -110q0 -79 72.5 -129.5t193.5 -103.5q100 -43 148 -68t87.5 -75t39.5 -127q0 -108 -69.5 -178.5t-174 -103t-209.5 -32.5q-114 0 -204 32t-158 108z" />
<glyph unicode="t" horiz-adv-x="913" d="M49 801l31 84h225l-8 315l233 74l31 -14l-26 -375h321l-39 -84h-282v-324q0 -126 19.5 -226.5t86.5 -100.5q44 0 82.5 21.5t95.5 64.5l37 -35q-72 -93 -161 -157t-183 -64q-95 0 -139.5 51t-55 122.5t-10.5 180.5v467h-258z" />
<glyph unicode="u" horiz-adv-x="1399" d="M4 854q89 66 173 113t149 47q100 0 131.5 -44.5t31.5 -148.5q0 -42 -4 -117t-8 -150.5t-4 -117.5q0 -101 10 -160.5t52.5 -100t132.5 -40.5q70 0 131.5 34t107.5 93q1 65 1.5 118.5t0.5 139.5q0 260 -12 432l227 72l27 -20q-4 -81 -6 -161.5t-3 -148.5t-1 -174v-76 q0 -260 84 -260q49 0 153 64l17 -43q-215 -221 -338 -221q-78 0 -111.5 39.5t-48.5 121.5q-139 -78 -229.5 -119.5t-163.5 -41.5q-116 0 -179.5 46.5t-76.5 155.5q-3 27 -4.5 92t-1.5 166v150q0 197 -21 237q-15 27 -59 27q-23 0 -42.5 -8t-44.5 -22.5t-38 -22.5z" />
<glyph unicode="v" horiz-adv-x="1141" d="M-55 840q82 58 173.5 106.5t155.5 48.5q55 0 84 -26q37 -37 73.5 -146.5t70.5 -244.5q12 -49 30 -130t31 -122q6 -24 28 -59.5t38 -35.5q27 0 70 40t79.5 87.5t57.5 83.5q47 79 47 174q0 113 -84 218l-2 38q68 82 176 129q51 -30 80.5 -87t29.5 -119q0 -95 -42 -187.5 t-117 -191.5q-38 -51 -136 -162.5t-186.5 -196t-120.5 -84.5q-34 0 -65 59.5t-60.5 161.5t-50.5 195t-26 111q-14 53 -24 95.5t-21 86t-19 66.5q-27 94 -94 94q-31 0 -137 -54z" />
<glyph unicode="w" horiz-adv-x="1919" d="M-18 831q220 170 342 170q63 0 118 -53q13 -13 20 -42.5t11.5 -64.5t7.5 -61l74 -489l23 -6q55 81 105.5 158.5t102 160t105 176t90.5 166.5l113 62l26 -4q86 -433 228 -756q13 -25 20 -25q32 0 91.5 61.5t107.5 123.5q82 110 82 208q0 92 -90 230l4 41q52 50 95 80.5 t95 40.5q109 -115 109 -217q0 -65 -29 -133.5t-73 -134t-93 -124.5q-140 -167 -229 -260q-71 -71 -121 -112t-92 -41q-43 0 -76 102l-197 604h-20q-59 -99 -112.5 -187t-99.5 -163.5t-88 -146.5t-108 -187l-141 -35l-25 13q-6 113 -17.5 226.5t-27.5 223.5 q-18 145 -38.5 245.5t-55.5 133.5q-19 19 -57 19q-67 0 -137 -41z" />
<glyph unicode="x" d="M-47 838q70 65 149.5 114t153.5 49q80 0 117.5 -34t87.5 -119q45 -78 112 -225q106 121 194 211t177 163h27l88 -84q-68 -45 -121 -85.5t-112 -91t-106 -94.5t-104 -101q89 -166 159.5 -274.5t137.5 -108.5q68 0 152 80l45 -27q-167 -236 -313 -236q-43 0 -78 20.5 t-61.5 51.5t-51.5 72q-29 46 -145 258q-180 -200 -260 -383l-35 -8l-107 53q47 73 103.5 143.5t116.5 134t137 136.5q-125 241 -150 278q-30 54 -60 88.5t-73 34.5q-36 0 -137 -61z" />
<glyph unicode="y" horiz-adv-x="1399" d="M16 836q204 161 349 161q86 0 108.5 -56t22.5 -159q0 -39 -0.5 -64.5t-1.5 -55.5q-5 -98 -5 -121q0 -209 9 -267q9 -77 51.5 -112t122.5 -35q70 0 135 32t113 87q16 179 16 338q0 190 -23 348l215 74l39 -9q0 -164 -5 -418t-5 -317q0 -314 -176 -493q-86 -86 -199 -133.5 t-231 -47.5q-113 0 -193.5 28t-146.5 101l127 172l39 5q41 -100 99.5 -151.5t156.5 -51.5q99 0 188 82q88 87 88 317v41q-73 -46 -139 -78.5t-139 -54t-139 -21.5q-108 0 -158.5 52t-62 128t-11.5 201q0 27 2 66.5t4 91.5q6 76 6 156q0 79 -16 129.5t-76 50.5 q-29 0 -56 -16.5t-65 -47.5z" />
<glyph unicode="z" horiz-adv-x="1137" d="M55 18q133 178 422 451q139 139 273 301q-17 0 -27 -0.5t-23 -1.5q-48 0 -112 6.5t-99 11.5q-123 23 -180 23q-61 0 -153 -111l-54 25l144 233q31 50 106 50q26 0 53 -4t56.5 -10t75.5 -17q158 -37 249 -37q133 0 207 49l21 -39q-56 -68 -128.5 -150t-143.5 -158.5 t-144 -150.5q-111 -111 -258 -272h31q75 0 219 -16q65 -8 196 -8q84 0 144 41t112 116l52 -33l-95 -176q-33 -61 -59 -93.5t-64 -48t-104 -15.5q-154 0 -301 24q-158 27 -266 27q-56 0 -107 -49z" />
<glyph unicode="{" horiz-adv-x="766" d="M20 838q96 73 183 121.5t162 48.5q86 0 108.5 -54t22.5 -157q0 -43 -0.5 -69t-1.5 -58q-5 -108 -5 -129q0 -236 3 -256q0 -51 20.5 -94.5t67.5 -43.5q50 0 143 99l49 -43q-74 -95 -160 -162.5t-176 -67.5q-77 0 -119.5 53.5t-42.5 133.5q0 -1 -1 125.5t-1 232.5v240 q0 39 -18.5 69.5t-52.5 30.5q-59 0 -138 -65z" />
<glyph unicode="|" horiz-adv-x="766" d="M10 -346q125 83 228 211q28 36 38 76t19 106q3 33 6 81t4.5 103t1.5 120v120q0 231 -4 270q-15 113 -76 113q-49 0 -143 -72l-45 47q90 70 181.5 122.5t158.5 52.5q72 0 101.5 -34.5t37.5 -111.5q6 -49 6 -336q0 -134 -5 -235t-26 -203t-65 -172q-75 -93 -170.5 -165 t-216.5 -142z" />
<glyph unicode="}" horiz-adv-x="1409" d="M100 -156q0 131 55 270.5t144 282.5q-46 74 -68 119t-22 98q0 101 73 198t181 183l41 -22q-58 -60 -92.5 -113.5t-34.5 -114.5q0 -18 6.5 -42t13.5 -40t16.5 -34t18.5 -35q53 70 121 141.5t145 128.5t164 93t170 36q102 0 166.5 -45.5t94.5 -123t30 -175.5 q0 -142 -58.5 -274t-164.5 -240q-153 -153 -289 -153q-60 0 -113 24q0 -100 -42 -197t-121.5 -159t-180.5 -62q-69 0 -128 35t-92.5 93.5t-33.5 127.5zM223 -29q0 -67 21.5 -131t67 -106.5t112.5 -42.5q83 0 122.5 69.5t39.5 159.5q0 108 -199 354l-25 32q-10 13 -16 22 q-57 -101 -90 -187.5t-33 -169.5zM471 526q19 -32 47 -71q135 -204 168 -334l102 110q13 -48 47 -82t80 -34q125 0 172.5 129.5t47.5 279.5q0 78 -25 151t-77.5 120t-131.5 47q-118 0 -231 -95t-199 -221z" />
<glyph unicode="&#xa1;" horiz-adv-x="1120" d="M113 1378l6 35h672q368 0 385 2l32 -373l-55 -4l-86 158q-28 44 -85 65t-118.5 26t-140.5 5q-250 0 -250 -53q-4 -78 -4 -389q0 -174 1 -295.5t5 -250t12 -243.5l-241 -79l-35 24q5 215 6.5 392t1.5 460q1 31 1.5 56t0.5 65q2 39 2 119q0 75 -7 130.5t-34 86.5z" />
<glyph unicode="&#xa2;" horiz-adv-x="1634" d="M47 70q256 410 442.5 723t315.5 573l260 61q51 -184 97.5 -338t109.5 -329t137 -338.5t158 -308.5l4 -23l-258 -104q-103 11 -205 13.5t-256 2.5q-735 0 -799 -4zM311 137l873 -24l18 12l2 27q-44 108 -100.5 263.5t-92.5 261.5t-78 230t-91 256l-29 -12 q-46 -99 -97.5 -204.5t-144 -287.5t-149 -295.5t-111.5 -226.5z" />
<glyph unicode="&#xa3;" horiz-adv-x="2021" d="M160 655q0 203 73.5 352t201.5 241t293.5 135.5t361.5 43.5q167 0 299.5 -36.5t230.5 -114t150.5 -201.5t52.5 -293q0 -281 -118 -462.5t-325 -265t-485 -83.5q-221 0 -387.5 76.5t-257 230.5t-90.5 377zM451 711q0 -178 66.5 -325t197 -232.5t311.5 -85.5 q104 0 201.5 39.5t173.5 111.5q79 80 110 198.5t31 258.5q0 303 -134.5 482t-428.5 179q-226 0 -344 -118q-96 -96 -140 -227.5t-44 -280.5zM645 467v500h53l27 -103q8 -28 324 -28q200 0 221 41l33 90h43v-498h-54l-30 113q-13 36 -211 36q-179 0 -258 -2q-57 0 -68 -36 l-41 -111z" />
<glyph unicode="&#xa4;" horiz-adv-x="1769" d="M37 33q441 649 805 1339l219 47q96 -376 168 -598q55 -160 88 -250t78 -186q36 -79 64.5 -129.5t74 -89.5t108.5 -39q32 0 60 8l4 -55l-391 -107q-44 17 -75.5 47t-47.5 72q-4 11 -68.5 205t-137 418t-126.5 387l-18 24q-101 -177 -192.5 -353.5t-183.5 -368.5t-171 -363 l-234 -49z" />
<glyph unicode="&#xa5;" horiz-adv-x="1362" d="M53 1032l41 398q380 -23 643 -23q414 0 512 12l45 -387h-47l-45 86q-39 76 -201 76q-176 1 -323.5 1.5t-382.5 0.5q-95 0 -119 -47l-61 -117h-62zM59 379l56 4l35 -104q21 -64 116 -64h826q88 0 108 55l43 115l57 -4l-43 -410q-35 3 -118.5 10.5t-139 12t-61.5 4.5h-535 q-131 0 -299 -10q-38 277 -45 391zM246 629l63 215h742l8 -15l-64 -200q-93 -1 -256.5 -1t-306.5 -3q-99 0 -172 -9z" />
<glyph unicode="&#xa6;" horiz-adv-x="1763" d="M59 1348v61q222 -6 445 -6h846q82 0 132.5 -0.5t110.5 -1.5h105l-2 -68l-123 -26q-33 -6 -55.5 -32.5t-22.5 -60.5q-4 -168 -4 -253q0 -181 1.5 -314.5t4.5 -210.5l16 -397l-266 -68l-30 23l10 397q4 133 4 756q0 106 -17 127h-618q-25 0 -47.5 -12.5t-26.5 -36.5 q-5 -40 -7.5 -198t-2.5 -380q0 -277 16 -592l-258 -73l-30 20q4 137 5 207.5t2 176.5t1 245q0 102 -0.5 178t-1.5 139t-1.5 126t-0.5 163q0 51 -43 68z" />
<glyph unicode="&#xa7;" horiz-adv-x="1487" d="M57 2l41 137l322 338q42 42 96.5 114.5t54.5 106.5q0 32 -24 68l-365 520v19l164 104q122 0 244 0.5t302.5 4t224 4.5t204.5 9l20 -16l-79 -139q-184 8 -730 8l-8 -16q120 -142 205.5 -255.5t85.5 -174.5q0 -23 -27 -62l-403 -516l1001 18l-77 -276q-35 0 -96.5 1.5 t-123.5 3t-98 1.5q-311 0 -505.5 -0.5t-428.5 -1.5z" />
<glyph unicode="&#xa8;" horiz-adv-x="1659" d="M59 1094q17 166 101 249q92 91 252 91q152 0 235 -73.5t127 -225.5q15 -49 23.5 -94.5t15 -89.5t9.5 -86.5t5 -106.5l17 -4q38 177 91 323t152.5 256.5t245.5 110.5q109 0 167 -43.5t76.5 -117.5t18.5 -187l-53 -6q-11 74 -46.5 111.5t-109.5 37.5q-62 0 -118.5 -36.5 t-101 -92t-79 -121.5t-55.5 -123q-67 -193 -67 -436q0 -84 6.5 -196t11.5 -179l-256 -67l-41 16q10 135 10 406q0 159 -36 350.5t-128 333t-245 141.5q-135 0 -185 -154z" />
<glyph unicode="&#xa9;" horiz-adv-x="2034" d="M160 700q0 181 102.5 293.5t260.5 159.5t337 47v-59q-125 0 -215.5 -57.5t-137 -157t-46.5 -221.5q0 -218 119 -336q58 -58 130.5 -92.5t149.5 -34.5l8 -56q-136 0 -261.5 24.5t-226 83t-160.5 159.5t-60 247zM666 1399h675v-49l-151 -29q-20 -4 -32.5 -16.5t-12.5 -28.5 v-1165q4 -14 57 -23l158 -31l4 -57h-696l2 55l168 31q24 6 24 35v63l-2 58v1020q0 18 -11 34t-30 19l-151 31zM1145 180v53q140 0 231.5 68t133.5 182t42 248q0 140 -43.5 229.5t-134.5 132t-229 42.5v65q315 0 508.5 -87.5t193.5 -362.5q0 -201 -94 -329t-251.5 -184.5 t-356.5 -56.5z" />
<glyph unicode="&#xaa;" horiz-adv-x="1632" d="M-68 1356l379 82q57 0 84.5 -31t34 -75.5t6.5 -117.5v-120q0 -138 34.5 -252.5t117.5 -198.5q16 -16 35.5 -29t38.5 -23t34 -20q0 298 -1.5 499t-8.5 292l248 63l31 -24q-9 -264 -9 -832q14 6 39.5 15t44 18t35.5 25q77 77 92 178l60 381q11 97 55 151q182 53 324 68 l-9 -53q-73 -28 -96 -144l-76 -354q-36 -158 -102 -219q-96 -88 -371 -121q3 -193 23 -360q7 -50 45 -58l158 -41v-57h-695l4 59l148 33q51 10 51 62v354q-86 11 -150.5 23t-131 35.5t-105.5 60.5q-123 123 -123 379q0 112 -7 186t-34 100q-36 35 -96 35q-47 0 -88 -20z" />
<glyph unicode="&#xad;" horiz-adv-x="2005" d="M53 29l60 194q322 -28 555 -28l-2 12q-128 37 -235 122t-167.5 202.5t-60.5 254.5q0 89 23.5 173t70.5 159.5t113 134.5q109 98 271 137.5t349 39.5q760 0 760 -623q0 -262 -156 -418q-71 -71 -160.5 -120t-179.5 -60l-2 -19q489 25 647 25l-75 -223q-317 20 -381 20 q-258 0 -430 -12l53 195q213 49 301 199t88 380q0 121 -29 225.5t-88.5 182.5t-151 122t-216.5 44q-260 0 -383 -158.5t-123 -427.5q0 -123 44.5 -241t130.5 -204.5t204 -121.5l-68 -189q-156 10 -379 10q-165 0 -368 -10z" />
<glyph unicode="&#xae;" horiz-adv-x="1493" d="M188 342q0 122 43 235t120.5 201t184 138.5t228.5 50.5q75 0 130.5 -21t93.5 -60.5t65.5 -93.5t52.5 -120q43 63 101 157t89 144l140 -74l-281 -369q13 -35 47 -143t53 -158q20 -48 40.5 -73t56.5 -25q27 0 129 72l26 -41q-196 -199 -303 -199q-59 0 -92 33 q-18 19 -32.5 49.5t-32.5 82.5t-33.5 104.5t-26.5 84.5q-1 6 -1.5 10.5t-2.5 10.5q-116 -123 -185 -189.5t-167.5 -122t-200.5 -55.5q-130 0 -186 112t-56 259zM412 442q0 -108 41.5 -202.5t136.5 -94.5q51 0 100 31t93 77.5t87 105t70 96.5l4 3l2 3q-23 74 -45.5 134 t-57 118t-82 95.5t-112.5 37.5q-137 0 -187 -122t-50 -282z" />
<glyph unicode="&#xaf;" horiz-adv-x="1462" d="M223 -377q4 94 6.5 218.5t3 242t0.5 281.5v301q0 190 55.5 352t181 262t321.5 100q184 0 270 -75q86 -84 86 -177q0 -134 -92 -226t-230 -130q0 -10 -2 -10q109 0 215 -37t176 -114t70 -189q0 -154 -75 -254t-199 -145.5t-277 -45.5q-184 0 -233 93l125 153l26 -6 q12 -63 52 -112.5t98 -49.5q83 0 132.5 52.5t70 131.5t20.5 158q0 68 -26.5 128t-75.5 106q-68 61 -344 61l4 68q98 0 178 39t128 113t48 171q0 58 -35 105t-90 72.5t-111 25.5q-89 0 -172 -72q-38 -36 -57 -122q-20 -92 -20 -226l20 -1177l-219 -86z" />
<glyph unicode="&#xb0;" horiz-adv-x="1348" d="M-6 797q82 74 178 119t199 45q225 0 308 -194.5t83 -455.5v-37l2 -34q66 107 111 189t82.5 159t75.5 171t67 187l41 23l166 -62l-11 -28q-87 -126 -207.5 -296.5t-193 -277t-127.5 -192.5l-4 -445l-121 -74l-2 -4q-2 0 -4 2l-150 97q18 92 45.5 174t71.5 184 q0 90 -21 220t-66 261t-116.5 218.5t-167.5 87.5q-95 0 -192 -76z" />
<glyph unicode="&#xb1;" horiz-adv-x="1219" d="M170 332q0 149 87 281t224 227q-159 141 -159 219q0 118 120 227q99 88 363 88q45 0 139 -8l-41 -92q-47 2 -227 2q-87 0 -147 -16.5t-60 -79.5q0 -27 29.5 -63t82 -82t90.5 -74t77 -56q77 -57 142.5 -119t114 -138t48.5 -148q0 -108 -44 -203.5t-121.5 -167.5t-177 -112 t-206.5 -40q-112 0 -186 42.5t-111 123t-37 189.5zM383 483q0 -78 31 -164t90 -142t141 -56q64 0 120.5 28t90 79.5t33.5 117.5q0 64 -47.5 138t-114 139t-129.5 116q-31 25 -86 72l25 -25q-75 -47 -114.5 -129.5t-39.5 -173.5z" />
<glyph unicode="&#xb2;" horiz-adv-x="1227" d="M174 422q0 155 73 278.5t200.5 192t283.5 68.5q103 0 196 -35.5t163 -102.5l-113 -129l-31 4q-44 85 -102 132t-146 47q-87 0 -152.5 -46t-99.5 -121t-34 -163v-8q80 -4 243 -4h83q38 0 98 0.5t90 1.5l-35 -91h-53q-99 0 -160.5 -0.5t-136.5 -1.5q-7 0 -121 -4 q26 -165 117.5 -246t253.5 -81q82 0 160 26.5t143 73.5l32 -49q-73 -59 -154 -97.5t-175 -59.5t-187 -21q-436 0 -436 436z" />
<glyph unicode="&#xb3;" horiz-adv-x="1094" d="M166 340q0 119 53.5 242.5t140 236t188.5 209t208 170.5q-91 0 -215 20.5t-179 57.5l99 104q69 -52 199.5 -85t232.5 -33q64 0 129 12q0 -26 -0.5 -34.5t-1.5 -14.5q-160 -40 -303 -160t-228.5 -283t-85.5 -327q0 -147 57.5 -227.5t198.5 -80.5q27 0 115 5q58 6 125 6 q62 0 115 -23.5t53 -77.5q0 -94 -178 -319l-47 26q30 46 44.5 77.5t14.5 66.5q0 50 -39.5 70t-93.5 20q-22 0 -28.5 -0.5t-28 -2t-43.5 -3.5q-113 -10 -144 -10q-174 0 -266 92t-92 266z" />
<glyph unicode="&#xb4;" horiz-adv-x="1360" d="M18 797q188 164 326 164q65 0 93.5 -39.5t37.5 -110.5q68 41 136 73.5t139 53t141 20.5q84 0 162 -71q42 -39 49 -131q8 -64 8 -359q0 -159 1 -269t5 -226.5t12 -220.5l-225 -84l-29 24q13 217 13 754q0 219 -10 289q-9 77 -46 116t-114 39q-116 0 -238 -76v-18 q1 -95 2 -195.5t2 -217.5t2 -175.5t2 -73.5l-215 -77l-22 20q0 103 8 310t8 311q0 75 -14 128.5t-66 53.5q-25 0 -52.5 -13t-78.5 -42z" />
<glyph unicode="&#xb5;" horiz-adv-x="1354" d="M176 633q0 110 18 214.5t62.5 201.5t114.5 165q77 80 183.5 124t219.5 44q151 0 241 -82.5t126.5 -209.5t36.5 -277q0 -123 -18.5 -246t-64 -233t-126.5 -191q-52 -50 -116.5 -89.5t-136.5 -61t-143 -21.5q-157 0 -246 103.5t-120 250.5t-31 308zM371 741q192 -4 284 -4 q79 0 303 11q-9 109 -36 217q-87 307 -287 307q-112 0 -170.5 -74t-76 -174.5t-17.5 -222.5v-60zM377 645q0 -66 21.5 -156.5t65 -179.5t103.5 -144.5t133 -55.5q168 0 217.5 125t49.5 321q0 55 -2 82q-206 12 -308 12q-92 0 -280 -4z" />
<glyph unicode="&#xb6;" horiz-adv-x="739" d="M240 893l213 65l26 -16q-14 -284 -14 -604q0 -81 14.5 -140t69.5 -59q41 0 73.5 21.5t69.5 58.5l35 -31q-72 -96 -150 -153.5t-171 -57.5q-69 0 -102.5 49t-41.5 113t-8 146q0 253 -14 608z" />
<glyph unicode="&#xb8;" horiz-adv-x="1245" d="M59 14q60 115 103 190t129 216t171.5 283t108.5 182q-20 51 -47.5 120.5t-62 130.5t-80 101.5t-102.5 40.5t-138 -18l-28 43q63 26 113.5 43.5t102.5 28.5t109 11q96 0 157.5 -48t102.5 -140q25 -54 49 -114t54 -138.5t51 -132.5q153 -381 340 -752l-240 -84l-26 5 q-65 177 -149.5 394.5t-162.5 403.5q-107 -206 -148.5 -289t-97 -210.5t-89.5 -239.5l-201 -53z" />
<glyph unicode="&#xb9;" horiz-adv-x="1350" d="M197 -371q22 257 22 351q0 123 4.5 268.5t7.5 283.5q-2 118 -14 361l221 74l29 -17q-12 -214 -12 -432q0 -143 18 -229q12 -60 29.5 -91.5t49.5 -43t93 -11.5q110 0 227 97q0 30 2 85.5t3.5 111t1.5 85.5q0 98 -9 379l207 68l27 -15q-8 -364 -8 -546q0 -236 80 -236 q46 0 135 61l28 -36q-196 -217 -313 -217q-35 0 -58.5 5t-39.5 21q-47 47 -56 144q-237 -164 -383 -164q-47 0 -88.5 15.5t-72.5 49.5q-2 -37 -2 -106q0 -153 53 -279l-148 -65z" />
<glyph unicode="&#xba;" horiz-adv-x="1333" d="M-4 786q65 65 116.5 102.5t113.5 55t149 17.5q98 0 158 -32t95 -88.5t74 -160.5q37 -97 64.5 -202t54.5 -238q105 232 163 391t58 301l52 31l168 -58q-17 -54 -60 -143q-28 -56 -84.5 -162t-89 -166t-90.5 -170q-58 -109 -113 -223l-151 -53l-23 10q-32 147 -66.5 278.5 t-74.5 237.5q-47 131 -112.5 222t-172.5 91q-89 0 -190 -75z" />
<glyph unicode="&#xbb;" horiz-adv-x="1227" d="M152 297q0 89 64.5 168t160 137t182.5 88q-126 25 -201 72.5t-75 155.5q0 194 376 319q-296 0 -374 63l88 107l16 -4q38 -61 126 -84t183 -23q68 0 246 13l8 -60h-16q-103 -14 -183 -36.5t-130 -67.5q-101 -90 -101 -168q0 -99 53 -149t132.5 -64t183.5 -14l2 -54h-6h4 q-259 -19 -375 -123q-115 -103 -115 -198q0 -128 64.5 -172.5t198.5 -44.5q25 0 163 10q112 12 166 12q94 0 152.5 -21.5t58.5 -99.5q0 -77 -51 -156t-131 -161l-45 33q72 100 72 131q0 96 -152 96q-62 0 -180 -8q-120 -8 -176 -8q-112 0 -199 29t-138.5 98.5t-51.5 183.5z " />
<glyph unicode="&#xbc;" horiz-adv-x="1386" d="M37 594q55 287 123 356q45 41 196 41h779q178 0 262 78l28 -33q-11 -23 -45 -90.5t-69 -111t-66 -43.5h-162q-20 -178 -20 -265q0 -89 8 -163.5t42 -135.5t104 -61q53 0 122 65l25 -55q-157 -174 -303 -174q-93 0 -137.5 34t-63.5 122q-16 81 -16 215q0 198 33 418h-285 q-21 -104 -49.5 -222.5t-61.5 -224.5q-20 -68 -72 -201t-73 -153l-168 24q-14 5 -14 15q0 2 18 32q53 72 108.5 176.5t104.5 211.5q40 81 94 342q-106 0 -157.5 -4.5t-91 -23.5t-70.5 -65t-64 -129z" />
<glyph unicode="&#xbd;" horiz-adv-x="1276" d="M217 330q0 66 6 138t18 133.5t39 123t66 100.5q55 50 117 80.5t133.5 46t142.5 15.5q141 0 240.5 -44t152 -137t52.5 -235q0 -119 -24 -217.5t-78.5 -173.5t-142 -115.5t-212.5 -40.5q-86 0 -161.5 27.5t-121.5 85.5q-2 -19 -2 -56q0 -88 13.5 -182t40.5 -211l-213 -69 q-1 1 -26.5 9.5t-25.5 20.5q-14 409 -14 701zM444 453q0 -148 48.5 -246t181.5 -98q84 0 143 59.5t78 144.5q23 100 23 236q0 346 -195 346q-159 0 -219 -131.5t-60 -310.5z" />
<glyph unicode="&#xbe;" horiz-adv-x="1462" d="M178 459q0 165 61 274t177 162t280 53q311 0 503.5 3t207.5 18l16 -8l-49 -175q-70 12 -153.5 23t-150 20t-140.5 23h-6q-10 0 -23 -23l12 5q124 -47 177 -136.5t53 -224.5q0 -142 -59 -255.5t-168.5 -177t-249.5 -63.5q-246 0 -367 118.5t-121 363.5zM442 467 q0 -158 47.5 -279.5t180.5 -121.5q79 0 140 59t83 139q27 94 27 213q0 157 -45 270t-177 113q-79 0 -130 -34.5t-78 -91.5t-37.5 -123t-10.5 -144z" />
<glyph unicode="&#xbf;" horiz-adv-x="1212" d="M63 565q4 17 19.5 89t21 98t13.5 47q24 78 78 109.5t141 31.5h616q146 0 244 76l18 -17q-5 -35 -35 -93t-68.5 -102t-68.5 -44q-190 0 -284 -2q-21 -136 -21 -254q0 -144 29 -252.5t129 -108.5q69 0 123 54l14 -54q-75 -71 -150 -114t-151 -43q-53 0 -87 6.5t-62 32.5 q-74 70 -74 233q0 62 6 121q3 42 11 122t13 129t13 128h-174q-87 0 -132.5 -20.5t-70 -61.5t-55.5 -129z" />
<glyph unicode="&#xc0;" horiz-adv-x="1298" d="M4 795q116 76 195.5 121t132.5 45q83 0 112 -55t29 -148v-269q0 -153 62.5 -254.5t207.5 -101.5q135 0 203 97.5t68 238.5q0 186 -160 346l-6 25l174 125q58 -17 96 -79t55 -141.5t17 -142.5q0 -155 -81 -295t-217 -225.5t-290 -85.5q-156 0 -231 67q-50 49 -80.5 109.5 t-30.5 124.5q0 108 -4 326q0 66 -18.5 121t-71.5 55q-36 0 -129 -41z" />
<glyph unicode="&#xc1;" horiz-adv-x="1825" d="M178 461q0 161 69.5 272.5t191.5 168t282 56.5h61q-2 57 -4 120.5t-3.5 114.5t-2.5 107l217 72l17 -18q-4 -49 -4.5 -132.5t-2.5 -263.5h64q266 0 427 -92.5t161 -337.5q0 -176 -80 -298.5t-218.5 -183t-314.5 -60.5h-37q0 -207 3 -312l-207 -75l-27 22q8 119 16 365h-36 q-269 0 -420.5 108t-151.5 367zM442 483q2 -107 32 -202t98.5 -159.5t175.5 -64.5h40q3 82 3 244v242q0 116 -3 174q0 60 -4 174h-32q-113 0 -222 -105q-49 -49 -68.5 -131t-19.5 -172zM999 57h43q119 0 195 64.5t111.5 167.5t35.5 219q0 183 -73 283t-250 100h-62v-322 v-512z" />
<glyph unicode="&#xc2;" horiz-adv-x="1227" d="M-10 786q80 70 153 114t146 44q62 0 98 -40t76 -118q5 -7 168 -350q45 61 97.5 133.5t100.5 135t106.5 133t113.5 129.5l135 -82l-13 -17q-45 -55 -109 -125t-131 -137.5t-133 -136.5t-120 -129q52 -112 102 -210t105 -186.5t98 -131.5q65 -62 145 -62q41 0 111 12 l10 -45q-214 -112 -309 -112q-56 0 -100.5 28.5t-74.5 70t-65 103.5q-24 44 -75 148.5t-99 202.5q-64 -77 -122.5 -169t-101.5 -184t-81 -196l-28 -12l-175 73q49 80 97.5 147.5t112 145t137.5 162.5t114 131q-28 64 -67.5 149t-85.5 171.5t-97 150.5t-94 64q-15 0 -31 -6 t-47.5 -20t-33.5 -15z" />
<glyph unicode="&#xc3;" horiz-adv-x="1716" d="M-6 795q220 168 330 168q89 0 112 -67t23 -181q0 -39 -0.5 -64.5t-1.5 -56.5q-4 -82 -4 -121q0 -107 26.5 -201.5t92.5 -154.5t178 -60h16q2 82 2 244v242q0 126 -2.5 233.5t-7.5 253t-8 270.5l217 72l16 -18q-2 -37 -3.5 -155.5t-2 -299.5t-0.5 -330v-245v-248 q126 25 209 77t124.5 139.5t41.5 215.5q0 54 -18.5 107t-53 100t-76.5 82v28l156 140q56 -44 99.5 -103t67 -125t23.5 -135q0 -127 -42.5 -227t-120.5 -174.5t-181.5 -121.5t-226.5 -69q0 -84 0.5 -168t1.5 -168l-207 -75l-26 22q8 123 16 369h-23q-169 0 -278 28 t-171.5 114.5t-62.5 254.5q0 35 4 109q1 27 2 58t1 50q0 86 -17 139.5t-84 53.5q-37 0 -117 -39z" />
<glyph unicode="&#xc4;" horiz-adv-x="0" />
<glyph unicode="&#x2000;" horiz-adv-x="739" />
<glyph unicode="&#x2001;" horiz-adv-x="1479" />
<glyph unicode="&#x2002;" horiz-adv-x="739" />
<glyph unicode="&#x2003;" horiz-adv-x="1479" />
<glyph unicode="&#x2004;" horiz-adv-x="493" />
<glyph unicode="&#x2005;" horiz-adv-x="369" />
<glyph unicode="&#x2006;" horiz-adv-x="246" />
<glyph unicode="&#x2007;" horiz-adv-x="246" />
<glyph unicode="&#x2008;" horiz-adv-x="184" />
<glyph unicode="&#x2009;" horiz-adv-x="295" />
<glyph unicode="&#x200a;" horiz-adv-x="82" />
<glyph unicode="&#x202f;" horiz-adv-x="295" />
<glyph unicode="&#x205f;" horiz-adv-x="369" />
<glyph unicode="&#x2219;" horiz-adv-x="1217" d="M231 893l222 70l22 -25q-16 -371 -16 -428q69 65 145 132.5t138.5 117.5t129 98t146.5 96l156 -61v-21q-166 -83 -296.5 -155.5t-240.5 -147.5q160 -168 248 -245q51 -46 127 -107t145 -117l2 -18l-223 -107q-84 72 -163 147.5t-158 157.5t-156 162q0 -197 6 -391 l-203 -65l-24 12q0 77 0.5 125t1.5 97t1.5 107t0.5 136q0 23 -0.5 61.5t-3 117.5t-4 146.5t-3.5 104.5z" />
<glyph unicode="&#xe000;" horiz-adv-x="1000" d="M0 1000h1000v-1000h-1000v1000z" />
</font>
</defs>
</svg>
