<?xml version="1.0" standalone="no"?>
<!DOCTYPE svg PUBLIC "-//W3C//DTD SVG 1.1//EN" "http://www.w3.org/Graphics/SVG/1.1/DTD/svg11.dtd" >
<svg xmlns="http://www.w3.org/2000/svg">
<metadata>
This is a custom SVG webfont generated by Font Squirrel.
Copyright   : Copyright C 1994 1995 Basil K Malyshev All Rights Reserved012BaKoMa Fonts Collection LevelC
</metadata>
<defs>
<font id="eusb6Regular" horiz-adv-x="0" >
<font-face units-per-em="2048" ascent="1638" descent="-410" />
<missing-glyph horiz-adv-x="682" />
<glyph unicode=" "  horiz-adv-x="682" />
<glyph unicode="&#x09;" horiz-adv-x="682" />
<glyph unicode="&#xa0;" horiz-adv-x="682" />
<glyph unicode="0" />
<glyph unicode=":" horiz-adv-x="1948" d="M168 717v121h1530v-418l-107 4l-37 252q-8 41 -106 41h-1280z" />
<glyph unicode="&#x3c;" horiz-adv-x="2314" d="M168 1040q0 70 46 131t118 117q57 46 123.5 81t138 54t147.5 19q148 0 278 -70t185 -198q271 260 490 260q104 0 149.5 -49t57.5 -150q10 -87 36 -123.5t105 -36.5q30 0 80 12l14 -28q-166 -66 -266.5 -111t-188.5 -96q127 -32 207 -70q-4 -94 -4 -141q0 -119 17 -213 q12 -70 55 -127q26 -36 46.5 -58.5t46 -33t65.5 -10.5q30 0 92 28l2 -47l-369 -205q-49 95 -190 279q0 108 -1.5 185.5t-5.5 99.5q-7 70 -43 104q-93 72 -251 72q-84 0 -125 -10q-34 -189 -164 -398l-477 -332q-127 115 -189 115q-61 0 -172 -90l-35 31q130 120 218 188 t151 68q38 0 89 -36t101 -81q89 61 121.5 105t57.5 143q34 136 34 344q0 80 -14.5 154.5t-46.5 142t-86 121.5q-53 53 -122.5 85.5t-141.5 32.5q-52 0 -114 -33t-62 -79q0 -60 141 -187q115 -107 115 -168q0 -50 -37.5 -95t-92.5 -81.5t-118.5 -67.5t-106.5 -52l-39 32 q64 38 106 74.5t42 81.5q0 53 -90 133q-59 57 -91 97.5t-32 86.5zM1227 764q87 23 183.5 56.5t187.5 70.5t186 80q-37 0 -62.5 12t-41 34t-22 42t-18.5 74q-14 77 -34 120t-80 43q-63 0 -120 -36t-99.5 -88t-75.5 -117q4 -70 4 -107q0 -62 -8 -184z" />
<glyph unicode="=" horiz-adv-x="1616" d="M168 1008q80 145 134.5 224.5t141.5 137t207 57.5q93 0 285 -69q196 -68 240 -68q107 0 249 113l19 -33q-229 -168 -422 -258q-70 8 -256 57q-125 33 -217 33q-109 0 -180.5 -58.5t-143.5 -170.5h-16zM182 37q143 136 334 274l21 -10q38 -75 104 -141q39 -37 69.5 -52.5 t80.5 -15.5q62 0 114.5 46t73.5 110q22 62 22 155q0 14 -6.5 73t-19.5 157q-10 92 -10 164q0 66 8 121q91 91 187 165.5t196 130.5l53 -20q-70 -48 -126 -108t-56 -123q0 -79 14 -148q37 -191 37 -297q0 -100 -36.5 -188.5t-108.5 -147.5q-253 -200 -525 -200 q-131 0 -276 96l-121 -72z" />
<glyph unicode="@" horiz-adv-x="2177" d="M301 1004v403h78q9 -67 45.5 -127.5t87.5 -107t119 -91.5l639 -411v49q0 67 19.5 135.5t58 126.5t92.5 102q-96 0 -154.5 18.5t-58.5 90.5v217h61q18 -53 52.5 -66.5t97.5 -13.5h305q42 0 76 -21.5t34 -60.5v-200l-38 -13q-51 58 -111 58h-156q-81 -29 -111 -159 t-30 -255q0 -89 80 -152q56 -43 97.5 -70t91 -57.5t90.5 -54t89 -51.5l-53 -291h-55q-502 402 -1024 692l-21 -4q-149 -118 -149 -207q0 -105 55 -159t137 -70t193 -16l-45 -236h-551l76 213q0 80 2.5 138.5t12 111t30.5 78.5q94 124 188 200q-81 54 -111.5 76t-70.5 53 t-89.5 70.5t-78.5 61.5z" />
<glyph unicode="A" horiz-adv-x="2202" d="M127 154q0 56 43.5 86t101.5 30q87 0 113 -98q11 -34 17.5 -47.5t22.5 -23t44 -9.5q50 0 96.5 58.5t82 140.5t60 156.5t46.5 152.5q83 267 178.5 442.5t260.5 282.5t419 107q33 0 62 -5t100 -18l-91 -76v-911q0 -183 6 -242t30 -73.5t98 -14.5q52 0 103 37t83 86l35 -37 q-34 -56 -93.5 -105.5t-131 -78.5t-134.5 -29q-122 0 -183.5 75.5t-78 179t-16.5 241.5h-488q-119 -211 -248.5 -346t-299.5 -135q-99 0 -168.5 41t-69.5 133zM952 563h449v758q-85 -16 -136.5 -47t-83.5 -80.5t-67 -132.5q-61 -152 -162 -498z" />
<glyph unicode="B" horiz-adv-x="2152" d="M186 997q0 63 39 119t99 105q98 77 226.5 123.5t274.5 66.5l240 57l2 -51q252 0 424 -31q147 -27 232 -80t85 -178q0 -81 -42.5 -149.5t-111 -115t-149.5 -72.5l-2 -7l6 -8q68 0 133.5 -17t121.5 -53t90 -89.5t34 -124.5q0 -77 -34 -135.5t-84 -99.5t-112.5 -78.5 t-139.5 -84.5q-72 -44 -135 -70t-126 -26h-1011l61 90l60 90q101 0 194 22.5t139 78.5q101 122 101 501v551q-129 -18 -249 -77.5t-120 -159.5q0 -31 4 -45q10 -45 10 -82q0 -49 -42 -73t-97 -24q-57 0 -89 34.5t-32 92.5zM690 178l651 -2q138 0 215.5 52.5t77.5 183.5 q0 111 -67 178t-167 92t-212 25q-139 0 -139 -17q-16 -76 -32.5 -129t-45.5 -103.5t-74 -92.5zM1061 807q0 -16 29 -16q124 0 222.5 14.5t172.5 70.5t74 168q0 84 -29.5 139t-83.5 87t-137 53q-120 27 -248 27v-543z" />
<glyph unicode="C" horiz-adv-x="1739" d="M236 666q0 193 62.5 341t177.5 246.5t271 146.5t345 48q195 0 327.5 -63.5t132.5 -239.5q0 -121 -67.5 -203.5t-174 -121t-223.5 -38.5q-94 0 -171 15.5t-130 58.5q-65 52 -65 109q0 59 40 94t99 35q28 0 54.5 -8t45.5 -27t19 -47v-41l-12 -64q4 -31 43 -45t80 -14 q67 0 121.5 40.5t85 105.5t30.5 130q0 90 -42 145.5t-112.5 80t-158.5 24.5q-138 0 -237 -56.5t-158 -154t-85 -218t-26 -249.5q0 -168 57.5 -316.5t176.5 -238.5t292 -90q81 0 151.5 32.5t112 94.5t41.5 144l33 14l152 -125q-59 -86 -157.5 -140.5t-212 -78t-230.5 -23.5 q-220 0 -374.5 81.5t-234 238.5t-79.5 377z" />
<glyph unicode="D" horiz-adv-x="2320" d="M182 991q0 126 98.5 217.5t239 138t264.5 46.5l258 75v-53q152 0 283 -10.5t244 -32.5q115 -23 204.5 -59t153.5 -101q156 -155 156 -419q0 -148 -59.5 -277t-174.5 -223q-159 -127 -329 -210t-334 -83h-948l112 180q137 0 221 17.5t131 64t64.5 128t17.5 222.5v719 q-125 0 -238.5 -52.5t-113.5 -166.5q0 -19 7 -63t7 -68q0 -57 -38.5 -85t-98.5 -28q-68 0 -97.5 28t-29.5 95zM721 180h641q98 0 193 29.5t154.5 89t79 161.5t19.5 218q0 74 -12.5 148.5t-37.5 143t-66.5 129t-98.5 105.5q-92 76 -240 104.5t-311 28.5v-516q0 -152 -26 -275 t-105 -198z" />
<glyph unicode="E" horiz-adv-x="1753" d="M240 336q0 134 67.5 226.5t176.5 144t243 69.5q-142 34 -231.5 106t-89.5 199q0 140 89.5 221.5t220.5 112.5t269 31q149 0 280.5 -45t131.5 -164q0 -64 -44.5 -111t-107.5 -47q-45 0 -85 22.5t-40 61.5q0 25 19 58q18 36 18 61q0 100 -172 100q-85 0 -156 -38 t-113 -106.5t-42 -152.5q0 -124 83.5 -185t194.5 -76t248 -15v-59q-140 0 -242.5 -8.5t-203.5 -43t-165.5 -110t-64.5 -199.5q0 -104 59 -180t153.5 -116t197.5 -40q148 0 264 92q67 54 86 193l51 18l181 -139q-66 -124 -245 -182t-356 -58q-184 0 -327 27q-88 20 -143 45.5 t-103 73.5q-102 102 -102 213z" />
<glyph unicode="F" horiz-adv-x="1907" d="M170 160q0 56 47 88.5t105 32.5q57 0 89.5 -31.5t57.5 -87.5q19 -42 33 -61.5t37.5 -29.5t66.5 -10q67 0 135 31t119 82q58 56 81.5 149.5t23.5 194.5v180l-398 -10l74 109h326v514q-21 4 -54 11.5t-59.5 11t-44.5 3.5q-156 0 -248 -71q-102 -81 -102 -158q0 -23 14 -71 t14 -60q0 -53 -44.5 -81t-102.5 -28q-61 0 -93 32.5t-32 94.5q0 147 184 291q166 135 488 135q80 0 143 -8l203 68v-80l403 -78q42 -8 64 -8q51 0 78 26l84 93l49 -25q-17 -35 -65.5 -99t-101.5 -110.5t-93 -46.5q-46 0 -117 21l-301 83v-460h381l-86 -101h-295 q0 -104 -17 -198.5t-60.5 -180t-113.5 -141.5q-114 -92 -255.5 -147.5t-274.5 -55.5q-123 0 -232.5 41.5t-109.5 145.5z" />
<glyph unicode="G" horiz-adv-x="1745" d="M219 -63q0 63 40 93.5t103 30.5q68 0 100.5 -23t41.5 -85q10 -70 41 -103t76 -43t118 -10q94 0 184 35.5t154 99.5q113 113 113 342v277q-170 -86 -375 -86q-154 0 -285 49.5t-209.5 155t-78.5 262.5q0 186 114.5 301.5t285.5 163t355 47.5q102 0 207 -17t182.5 -70 t77.5 -151q0 -65 -42 -119.5t-106 -85t-126 -30.5q-29 0 -172 20l12 43q105 0 152 27t47 123q0 45 -7.5 72.5t-31.5 46.5q-80 63 -242 63q-132 0 -226.5 -50t-145 -144.5t-50.5 -225.5q0 -110 46.5 -203.5t132.5 -148.5t196 -55q145 0 232 71q57 45 57 160l256 57v-419 q0 -157 -46 -294.5t-153 -224.5q-102 -83 -242 -127.5t-290 -44.5q-197 0 -346.5 40t-149.5 180z" />
<glyph unicode="H" horiz-adv-x="2458" d="M168 125q0 52 37.5 80t91.5 28q53 0 73 -22t42 -80q11 -29 46.5 -46t67.5 -17q96 0 154 72t84.5 179t33.5 208t7 214v607q-118 0 -205 -21q-42 -8 -89.5 -30.5t-80.5 -57.5t-33 -78q0 -37 29 -86q31 -62 31 -90q0 -36 -21 -64.5t-53 -43.5t-70 -15q-61 0 -97 50.5 t-36 115.5q0 137 119 228.5t270 127.5q157 41 367 41q19 0 91.5 -4.5t119.5 -7.5l-68 -65v-555h494q25 158 104.5 305.5t209 242.5t288.5 95q57 0 108.5 -26t51.5 -75q0 -44 -39.5 -80t-83.5 -36q-78 0 -101 55q-10 30 -22 36.5t-49 6.5q-215 0 -215 -715q0 -121 11 -227.5 t56 -194.5t140 -88q49 0 104.5 41t91.5 90l45 -35q-12 -15 -33 -46t-36 -44q-152 -123 -338 -123q-139 0 -206 120.5t-83 269.5t-16 327h-482q0 -145 -46 -277.5t-144 -230.5q-94 -96 -220 -151.5t-257 -55.5q-81 0 -162.5 39t-81.5 109z" />
<glyph unicode="I" horiz-adv-x="1475" d="M164 156q0 114 151 114q62 0 92.5 -33t55.5 -96q24 -51 51 -68.5t84 -17.5q163 0 218.5 160.5t55.5 364.5v774q-217 0 -323 -82q-43 -36 -43 -125q0 -15 22 -55q27 -56 27 -95q0 -59 -48.5 -94t-111.5 -35q-64 0 -100.5 46.5t-36.5 113.5q0 97 61 172.5t151 123t187 71.5 q171 39 377 39q57 0 197 -17l-76 -74v-399q0 -404 -84 -592q-79 -179 -238 -284t-352 -105q-58 0 -133.5 23t-129.5 67t-54 103z" />
<glyph unicode="J" horiz-adv-x="1493" d="M170 -23q0 112 70 227t182.5 215t237 172.5t227.5 102.5v633q-43 0 -106.5 -20t-123 -54t-99.5 -79.5t-40 -94.5q0 -16 7 -52.5t7 -53.5q0 -52 -46 -84.5t-101 -32.5q-127 0 -127 113q0 117 156 237q96 79 220.5 129.5t261 73.5t282.5 23q73 0 139 -7l-6 -32l-140 -66 l-4 -756q0 -198 -39.5 -376t-144.5 -281q-90 -91 -225 -143t-266 -52q-138 0 -230 62.5t-92 195.5zM362 0q0 -58 27 -104t74 -70.5t108 -24.5q42 0 83.5 21.5t93.5 60.5q66 54 102 187q37 124 37 321v230q-34 0 -105.5 -38.5t-141.5 -90.5t-97 -80q-58 -58 -99 -125.5 t-61.5 -139t-20.5 -147.5z" />
<glyph unicode="K" horiz-adv-x="2300" d="M162 131q0 57 41.5 83t103.5 26q47 0 67.5 -21.5t47.5 -73.5q25 -46 46 -58.5t73 -12.5q35 0 79 27t74 57q55 55 88 166q37 130 37 313v704q-116 0 -201 -18q-75 -18 -142.5 -65t-67.5 -111q0 -25 26 -68q31 -44 31 -82q0 -59 -46 -96t-108 -37q-61 0 -102 54.5 t-41 117.5q0 72 46.5 134t117.5 118q83 68 243 105q169 37 365 37q34 0 108.5 -9t90.5 -10l-60 -70v-575h33l563 555q158 129 269 129q66 0 124 -36t58 -99q0 -37 -21 -71t-56 -54.5t-71 -20.5q-46 0 -74.5 8.5t-37.5 43.5q-5 21 -20.5 36t-37.5 15q-31 0 -71.5 -25 t-79.5 -58t-72 -63l-268 -282l196 -312q102 -159 199 -258q61 -57 100 -81.5t99 -24.5q45 0 94 41t84 90l45 -33q-58 -92 -101 -147.5t-107.5 -96t-145.5 -40.5q-119 0 -205.5 61.5t-161.5 175.5l-301 461h-33q0 -131 -51.5 -255.5t-145.5 -225.5t-214.5 -158t-253.5 -57 q-85 0 -168.5 36.5t-83.5 110.5z" />
<glyph unicode="L" horiz-adv-x="2028" d="M160 27q9 88 31 144.5t61.5 99.5t114.5 98q95 68 127 141.5t32 204.5q0 15 -0.5 25t-1.5 22q0 20 -0.5 33.5t-1.5 29.5q0 210 64 348.5t198.5 207.5t341.5 69q81 0 155.5 -16t128.5 -60t54 -121q0 -52 -38 -86t-91 -34t-82 10t-47 34.5t-32 73.5q-19 62 -51 89.5 t-97 27.5q-91 0 -122.5 -30.5t-54 -123.5t-26.5 -235q-7 -176 -37 -285q-26 -106 -77 -157q-41 -38 -102 -81.5t-115 -80.5q126 0 436 -99q91 -27 167 -47.5t148.5 -33.5t145.5 -13q94 0 157.5 33t100 95t57.5 157l22 100h66l-6 -139q0 -91 -43.5 -174.5t-115 -145.5 t-161 -97.5t-176.5 -35.5q-62 0 -148.5 22t-174.5 53.5t-176 66.5q-100 40 -186.5 66t-158.5 26q-103 0 -147 -48t-80 -159z" />
<glyph unicode="M" horiz-adv-x="2705" d="M162 1108q0 119 54 196.5t147 111.5t210 34q157 0 287.5 -102t226 -258t162 -322t121.5 -338q65 183 152.5 352t213.5 320t284.5 242.5t342.5 91.5q62 0 120.5 -21.5t58.5 -73.5q0 -42 -38 -73t-83 -31q-28 0 -56 20t-34 46q-5 22 -21.5 38.5t-38.5 16.5q-51 0 -76 -75 t-31.5 -162.5t-6.5 -168.5q0 -392 20 -622q7 -85 27 -154q16 -50 38.5 -74t69.5 -24q33 0 86.5 41.5t91.5 83.5l41 -31q-43 -63 -94.5 -108t-116.5 -72t-135 -27q-111 0 -166.5 42.5t-85.5 150.5q-29 109 -32 258q-11 323 -11 450q0 151 11 305q-108 -108 -189.5 -234 t-143 -272t-98 -286t-61.5 -307l-10 -25l-207 -72q-28 297 -186 719q-27 74 -55 135t-65.5 120t-84.5 106v-455q0 -182 -51 -319q-49 -134 -154 -221t-240 -87q-42 0 -88 15.5t-75 47t-29 77.5q0 48 42.5 77t94.5 29q44 0 65.5 -17t39.5 -61q19 -49 59 -49q127 0 176 141.5 t49 298.5v627q-138 146 -274 146q-77 0 -131.5 -62t-67.5 -145z" />
<glyph unicode="N" horiz-adv-x="2175" d="M158 1092q0 126 46 202t131.5 109t211.5 33q79 0 152.5 -29t136 -78.5t127.5 -114.5q155 -153 354 -421l344 -465v712q0 236 88 326q42 42 100 65t117 23q5 0 6.5 -76t1.5 -127q-25 0 -47 12t-29 33q-6 29 -14 41.5t-31 12.5q-94 0 -94 -369q-2 -76 -4 -123.5t-4 -103.5 q0 -76 -0.5 -123.5t-1.5 -104.5q0 -117 4.5 -254.5t9.5 -216.5l-182 -82q-111 166 -158 235t-117.5 167.5t-160.5 214.5q-144 185 -389 465v-221q0 -857 -400 -857q-66 0 -125 29t-59 88q0 123 123 123q46 0 70 -14.5t47 -52.5q28 -46 63 -46q72 0 106.5 68t49.5 158 q8 57 12 135t5 159t1 193v348q-122 113 -243 113q-60 0 -97 -22.5t-57 -63t-33 -98.5z" />
<glyph unicode="O" horiz-adv-x="2007" d="M203 705q0 147 47 279t140.5 232.5t230.5 153.5l32 -22q-105 -85 -143.5 -252.5t-38.5 -358.5q0 -168 49.5 -326t162 -261t286.5 -103q510 0 510 655q0 147 -30.5 294t-113.5 251.5t-227 104.5q-83 0 -167.5 -46t-84.5 -122q0 -50 70 -99q94 -59 94 -104q0 -57 -42 -94 t-99 -37q-79 0 -125.5 61t-46.5 144q0 131 79 220t200 130t251 41q186 0 304.5 -95.5t170 -249.5t51.5 -339q0 -194 -57.5 -345t-167.5 -253t-264 -153.5t-344 -51.5q-173 0 -311 51t-230 146.5t-139 235t-47 313.5z" />
<glyph unicode="P" horiz-adv-x="1886" d="M172 1028q0 129 137 242q178 143 533 143l205 43v-47q198 0 342 -35q161 -36 237 -105.5t76 -226.5q0 -153 -100 -258t-253 -154.5t-300 -49.5q-21 -173 -98.5 -311.5t-209.5 -217t-309 -78.5q-90 0 -173 38t-83 118q0 46 53 79.5t103 33.5q40 0 68.5 -27t43.5 -68 q16 -37 42 -62.5t61 -25.5q146 0 207 222q32 126 32 311v737q-114 0 -198 -18q-66 -13 -130.5 -56t-64.5 -100q0 -33 39 -98q9 -17 19 -36t10 -24q0 -67 -40 -101t-108 -34q-79 0 -110 42t-31 124zM1047 647q183 20 281.5 102.5t98.5 254.5q0 81 -30 144.5t-80.5 102.5 t-120 58.5t-149.5 19.5v-682z" />
<glyph unicode="Q" horiz-adv-x="1929" d="M199 866q0 213 118.5 341.5t301 180.5t391.5 52q148 0 269.5 -29t211.5 -96t140 -175.5t50 -262.5q0 -147 -40.5 -257.5t-117.5 -189.5t-183.5 -130.5t-249.5 -84.5q84 -16 150.5 -23.5t139.5 -7.5q105 0 186.5 49t121.5 142l47 -13q-166 -389 -426 -389q-57 0 -138 11 t-239 39q-62 11 -126 21t-127 16t-126 6q-88 0 -138.5 -35t-103.5 -117l-53 25q55 136 145 227q58 58 112 76t144 18q104 0 310 -20q159 23 253 112t132.5 221.5t38.5 292.5q0 107 -22.5 198t-71.5 161t-130.5 110.5t-191.5 40.5q-124 0 -217.5 -35t-156.5 -102.5 t-94.5 -164.5t-31.5 -216q0 -252 96 -348q42 -41 104.5 -59t153.5 -31v-47q-119 0 -231.5 27.5t-204.5 88.5t-144 155t-52 222z" />
<glyph unicode="R" horiz-adv-x="2046" d="M166 137q0 47 35 78t84 31t88.5 -19.5t50.5 -64.5q12 -44 39.5 -65t73.5 -21q88 0 151.5 74.5t99.5 173.5q50 138 50 313v702h-23q-80 0 -171 -15.5t-159.5 -59t-68.5 -119.5q0 -30 22 -60q39 -53 39 -84q0 -63 -36 -98t-99 -35q-70 0 -115 50.5t-45 121.5q0 117 137 228 q100 80 241 113.5t310 33.5l226 45v-45q223 0 374 -31q148 -29 230 -90.5t82 -193.5q0 -153 -96 -247.5t-261 -154.5q47 -105 105 -218.5t131.5 -210.5t136.5 -97t156 98l43 -30q-45 -68 -96.5 -126.5t-114 -98.5t-129.5 -40q-87 0 -135.5 44.5t-98.5 140.5l-231 454l-96 17 q-40 -276 -207 -441q-93 -93 -217 -151.5t-248 -58.5q-85 0 -171.5 41.5t-86.5 115.5zM1096 682q149 0 282 104q105 85 105 275q0 163 -104.5 220.5t-282.5 57.5v-657z" />
<glyph unicode="S" horiz-adv-x="1554" d="M117 287q0 311 415 311q81 0 147 -34.5t66 -108.5q0 -41 -43.5 -68t-87.5 -27q-38 0 -58 18t-32 56q-10 43 -28 64.5t-58 21.5q-59 0 -94 -52t-35 -114q0 -101 53 -171t139 -103t187 -33q91 0 183 31t154 95.5t62 156.5q0 134 -103.5 212.5t-274.5 149.5 q-173 70 -306 174q-102 85 -102 258q0 141 88 215.5t211.5 97.5t273.5 23q89 0 181.5 -19.5t159.5 -69.5t67 -134q0 -58 -46.5 -102.5t-111.5 -67.5t-123 -23q-38 0 -96 7l-6 39q158 24 158 135q0 55 -37 89.5t-90.5 50t-108.5 15.5q-142 0 -209 -53q-86 -67 -86 -145 q0 -68 50.5 -127t121 -101t148.5 -77q49 -21 96.5 -41t96 -42t101 -49t81.5 -51q62 -48 94.5 -122t32.5 -154q0 -88 -47.5 -166.5t-126.5 -142.5q-182 -146 -556 -146q-115 0 -230 31t-193 104t-78 189z" />
<glyph unicode="T" horiz-adv-x="1679" d="M160 1038q0 95 55 169.5t143.5 124.5t187 74t183.5 24q80 0 165 -17.5t261 -60.5q207 -56 330 -56q95 0 178 76l59 55l52 -20l-52 -74q-43 -64 -151.5 -146.5t-173.5 -82.5q-17 0 -242 45v-520q0 -128 -47.5 -246t-144.5 -215q-18 -18 -39 -36.5t-23 -18.5q-1 0 -3 2 t-5 2q-84 -67 -190.5 -103.5t-221.5 -36.5q-105 0 -175 40.5t-70 136.5q0 51 47.5 77.5t99.5 26.5q58 0 84 -23t45 -79q15 -47 37.5 -63.5t71.5 -16.5q57 0 110.5 32.5t77.5 86.5q98 211 98 354v653l-28 6q-101 39 -192.5 61.5t-178.5 22.5q-65 0 -120.5 -31.5t-55.5 -91.5 q0 -24 13 -40.5t46 -47.5q58 -52 58 -94q0 -34 -20.5 -61t-52.5 -42.5t-67 -15.5q-71 0 -110 48.5t-39 121.5z" />
<glyph unicode="U" horiz-adv-x="2005" d="M123 1137q0 149 83.5 226t231.5 77q143 0 215 -76.5t72 -220.5q0 -86 -14.5 -171t-46.5 -243q-15 -64 -25.5 -118.5t-17.5 -104.5t-7 -92q0 -131 60.5 -222.5t187.5 -91.5q67 0 132.5 29t124.5 76.5t112 103.5q0 223 15.5 460.5t49.5 490.5q185 92 410 188l59 -29 q-95 -48 -139.5 -118.5t-69.5 -188.5q-53 -259 -53 -532q0 -93 11 -195.5t49 -188t112 -85.5q46 0 84.5 36t93.5 105l41 -39q-29 -36 -69.5 -86t-77 -80t-87 -47.5t-114.5 -17.5q-122 0 -172 38q-98 82 -121 183q-287 -230 -538 -230q-117 0 -198 37t-123 113.5t-42 193.5 q0 106 16.5 202t55.5 278q37 174 37 282q0 75 -30 129t-99 54q-72 0 -103.5 -45.5t-31.5 -120.5q0 -21 14 -82l-57 -19q-31 86 -31 142z" />
<glyph unicode="V" horiz-adv-x="1896" d="M162 1096q0 155 110 264q75 74 201 74q160 0 241.5 -158t129.5 -379l147 -655l258 321q224 282 224 500q0 91 -58.5 147t-150.5 56q-84 0 -166 -111l-49 10q22 82 77.5 141.5t132.5 91.5t160 32q69 0 138 -22.5t114 -71t45 -122.5q0 -81 -62 -202.5t-147 -243.5 t-155 -211q-158 -210 -240.5 -327t-112.5 -195l-192 -68h-31q-10 60 -28 162.5t-36.5 202t-36.5 182.5t-40 168q-70 293 -107 387q-64 182 -170 182q-59 0 -88 -42t-55 -117z" />
<glyph unicode="W" horiz-adv-x="2724" d="M162 1094q0 146 98 245t244 99q169 0 267 -134t134.5 -318.5t36.5 -356.5l10 -340l240 407q83 139 129.5 302t75.5 358l180 80l27 -13q0 -99 13.5 -192.5t40 -187.5t66 -182t93.5 -175q68 -107 115 -190.5t73 -161.5q126 200 215.5 376.5t89.5 299.5q0 67 -22.5 133.5 t-70.5 109.5t-118 43q-74 0 -143 -49l-39 27q16 19 32 38.5t33 33.5q61 49 137.5 76.5t153.5 27.5q89 0 147 -36t85.5 -100t27.5 -153q0 -102 -81 -252.5t-197 -326.5q-166 -251 -287 -525l-166 -63l-20 6q-7 80 -26 159t-44 153.5t-63.5 158.5t-75.5 150q-122 218 -160 313 q-264 -460 -473 -901l-201 -49l-26 22l-4 232q0 110 -12 274.5t-45 335.5t-97.5 290t-167.5 119q-64 0 -108 -45.5t-62 -113.5z" />
<glyph unicode="X" horiz-adv-x="2030" d="M162 1159q0 86 108 174q76 60 177 90.5t212 30.5q151 0 243.5 -45t144.5 -133t100 -240q92 142 149.5 217.5t146.5 138t195 62.5q205 0 205 -139q0 -47 -30 -83.5t-76 -43.5q-57 0 -90 15.5t-41 62.5q-11 65 -74 65q-67 0 -136.5 -91t-119.5 -195.5t-94 -215.5 q34 -246 102 -421q51 -126 106.5 -196.5t151.5 -70.5q145 0 209 205l59 -10q-20 -81 -53.5 -146.5t-81.5 -111.5t-113 -71t-151 -25q-88 0 -148.5 25.5t-104 75t-83.5 130.5q-58 113 -86 266q-86 -153 -159 -256.5t-179.5 -175.5t-247.5 -72q-84 0 -159.5 44t-75.5 122 q0 46 43 81.5t90 35.5q66 0 93 -26t40 -93q5 -26 22 -46.5t42 -20.5q138 0 259 187t187 378q-35 258 -102 440q-28 79 -65 143.5t-93.5 106t-134.5 41.5q-45 0 -81 -29.5t-36 -74.5q0 -17 7 -59t7 -62q0 -45 -49 -79t-96 -34q-55 0 -97 38.5t-42 90.5z" />
<glyph unicode="Y" horiz-adv-x="1739" d="M92 1186q85 122 162 192t182 70q77 0 119.5 -32t52.5 -105q8 -58 8 -250q0 -90 7.5 -164.5t39 -135.5t97.5 -61q83 0 181 61t224 159v419l254 95l23 -4v-801q0 -128 -21.5 -255t-72.5 -240.5t-136 -196.5q-101 -103 -247 -158t-297 -55q-126 0 -202.5 40t-76.5 154 q0 149 129 286.5t302.5 236.5t344.5 167v209q-160 -109 -298.5 -180.5t-254.5 -71.5q-124 0 -213 78q-41 53 -41 315v209q-3 36 -22.5 64.5t-50.5 28.5q-28 0 -61 -27t-95 -84zM612 -2q0 -89 38 -135.5t124 -46.5q128 0 217 77t131.5 195.5t42.5 243.5v200 q-120 -47 -246 -126t-216.5 -186t-90.5 -222z" />
<glyph unicode="Z" horiz-adv-x="1878" d="M229 1061q0 109 74.5 196t186.5 135t221 48q65 0 143.5 -38t167.5 -95q61 -38 99 -56t79 -18q67 0 115 51t74 123l30 6l72 -49l2 -18q-160 -146 -264 -269l-635 -735l16 -16q110 32 189 32q125 0 354 -110q106 -50 172 -74t123 -24q51 0 97 30.5t46 81.5q0 44 -28.5 60 t-83.5 24q-154 21 -154 107q0 61 58 94t124 33q64 0 110.5 -27t68.5 -75.5t22 -115.5q0 -119 -53 -207t-148.5 -136t-210.5 -48q-65 0 -149 29t-213 84q-95 41 -180.5 67.5t-159.5 26.5q-172 0 -264 -176l-99 47l899 1049q-26 -15 -98 -15q-60 0 -121 25t-141 70 q-185 106 -260 106q-50 0 -85.5 -24.5t-35.5 -69.5q0 -23 9 -39.5t23 -27.5t36 -25q29 -16 48 -36.5t19 -51.5q0 -32 -21 -58.5t-52 -41.5t-64 -15q-45 0 -81 22t-56.5 60.5t-20.5 83.5z" />
<glyph unicode="^" horiz-adv-x="2179" d="M131 20l977 1438l22 -2l926 -1452l-182 -22l-774 1278l-781 -1256l-159 -6z" />
<glyph unicode="_" horiz-adv-x="2179" d="M119 1382l176 23l776 -1251l784 1251h160l10 -8l-952 -1422h-37z" />
<glyph unicode="f" horiz-adv-x="1020" d="M94 530l27 54q78 0 124.5 8.5t78.5 43t43 105.5q10 72 10 308q0 131 12 225.5t55 152.5q53 42 160.5 53t241.5 11v-37q-101 0 -175 -11.5t-112 -58.5q-53 -77 -53 -325q0 -113 -5 -183.5t-31 -140t-83 -115t-154 -61.5q110 -19 165.5 -72.5t80.5 -160.5q27 -113 27 -265 q0 -107 10.5 -192t48.5 -131q42 -42 111.5 -54t169.5 -12v-34q-185 0 -265 9t-125 46.5t-60 120t-15 254.5q0 159 -10.5 266t-48.5 145q-34 32 -92 41.5t-136 9.5z" />
<glyph unicode="g" horiz-adv-x="1020" d="M156 -326q129 0 199.5 15t102 55t39 105.5t7.5 211.5q0 165 24 271q18 75 49 119.5t80 69t129 38.5q-129 26 -191.5 96t-80.5 165t-18 241q0 116 -12.5 212.5t-55.5 137.5q-57 53 -272 53v35q331 0 401 -65q44 -48 56 -147t12 -222q0 -106 1.5 -183t4.5 -110 q8 -74 35 -111t96 -57q66 -18 158 -18l-35 -49q-76 0 -120.5 -9t-74.5 -42.5t-41 -102.5q-8 -61 -8 -315q0 -171 -18.5 -254t-67.5 -120.5t-131.5 -46.5t-267.5 -9v36z" />
<glyph unicode="j" horiz-adv-x="748" d="M322 -350v1818l88 39v-1833z" />
<glyph unicode="n" horiz-adv-x="1483" d="M199 1448l90 35l989 -1833l-82 -45z" />
<glyph unicode="x" horiz-adv-x="1516" d="M244 47l198 62q0 -128 77.5 -193.5t207.5 -65.5q75 0 140.5 29t104 85.5t38.5 133.5q0 96 -97 148t-264 112q-58 22 -128 50.5t-122.5 65t-84 89.5t-31.5 127q0 120 125 256q-27 65 -27 125q0 112 61 195t160.5 124.5t208.5 41.5q68 0 141 -13q39 -9 74.5 -28.5 t60.5 -50.5t25 -70q0 -4 -16 -76l-150 -41l-37 21q0 192 -174 192q-90 0 -150.5 -64.5t-60.5 -154.5q0 -55 30.5 -98t84.5 -68q60 -27 112.5 -49.5t116.5 -50.5q70 -29 131.5 -53t117 -55t94 -78.5t38.5 -112.5q0 -80 -34 -151.5t-97 -123.5l-12 12q57 -62 57 -167 q0 -114 -68 -197.5t-175 -128.5t-215 -45q-175 0 -308 58.5t-153 207.5zM381 762q0 -49 35.5 -91.5t89 -73t107.5 -51.5t110 -42q292 -108 360 -164q54 60 54 135q0 96 -95.5 153t-242.5 109q-74 28 -142 54.5t-121.5 52.5t-74.5 47q-38 -36 -59 -65t-21 -64z" />
<glyph unicode="&#xa1;" horiz-adv-x="2130" d="M219 483l41 78h1641l-35 -78h-1647z" />
<glyph unicode="&#xbb;" horiz-adv-x="1610" d="M158 492q139 217 319 217q76 0 162 -33.5t178 -81.5l187 -94q110 -54 188 -54q68 0 132 40.5t81 101.5l47 -25q-45 -86 -121.5 -143.5t-165.5 -57.5q-120 0 -268 74l-250 129q-111 58 -203 58q-63 0 -103 -15t-68 -44.5t-66 -88.5z" />
<glyph unicode="&#x2000;" horiz-adv-x="753" />
<glyph unicode="&#x2001;" horiz-adv-x="1507" />
<glyph unicode="&#x2002;" horiz-adv-x="753" />
<glyph unicode="&#x2003;" horiz-adv-x="1507" />
<glyph unicode="&#x2004;" horiz-adv-x="502" />
<glyph unicode="&#x2005;" horiz-adv-x="376" />
<glyph unicode="&#x2006;" horiz-adv-x="251" />
<glyph unicode="&#x2007;" horiz-adv-x="251" />
<glyph unicode="&#x2008;" horiz-adv-x="188" />
<glyph unicode="&#x2009;" horiz-adv-x="301" />
<glyph unicode="&#x200a;" horiz-adv-x="83" />
<glyph unicode="&#x202f;" horiz-adv-x="301" />
<glyph unicode="&#x205f;" horiz-adv-x="376" />
<glyph unicode="&#xe000;" horiz-adv-x="1430" d="M0 1430h1430v-1430h-1430v1430z" />
</font>
</defs>
</svg>
