<?xml version="1.0" standalone="no"?>
<!DOCTYPE svg PUBLIC "-//W3C//DTD SVG 1.1//EN" "http://www.w3.org/Graphics/SVG/1.1/DTD/svg11.dtd" >
<svg xmlns="http://www.w3.org/2000/svg">
<metadata>
This is a custom SVG webfont generated by Font Squirrel.
Copyright   : Copyright C 1994 1995 Basil K Malyshev All Rights Reserved012BaKoMa Fonts Collection LevelC
</metadata>
<defs>
<font id="eusb5Regular" horiz-adv-x="0" >
<font-face units-per-em="2048" ascent="1638" descent="-410" />
<missing-glyph horiz-adv-x="682" />
<glyph unicode=" "  horiz-adv-x="682" />
<glyph unicode="&#x09;" horiz-adv-x="682" />
<glyph unicode="&#xa0;" horiz-adv-x="682" />
<glyph unicode="0" />
<glyph unicode=":" horiz-adv-x="2212" d="M279 721v123h1570v-422l-108 4l-39 254q-8 41 -109 41h-1314z" />
<glyph unicode="&#x3c;" horiz-adv-x="2589" d="M276 1047q0 118 168 251q58 46 126.5 81t144 54t153.5 19q151 0 285 -71t188 -199q118 111 249 186.5t257 75.5q106 0 152 -47.5t59 -153.5q14 -91 39.5 -125.5t108.5 -34.5q8 0 82 11l14 -29q-129 -48 -245.5 -97.5t-221.5 -109.5q127 -32 211 -70q-4 -94 -4 -141 q0 -122 16 -215q12 -71 58 -129q45 -54 57 -67.5t37.5 -24t66.5 -10.5q33 0 95 28l2 -47l-377 -207q-50 93 -197 281q0 242 -6 287q-8 75 -45 102q-96 74 -258 74q-88 0 -129 -8q-34 -195 -170 -402l-490 -334q-127 115 -192 115q-64 0 -176 -92l-37 33q143 129 229.5 193.5 t149.5 64.5q40 0 94 -38.5t100 -80.5q91 62 125 106.5t60 145.5q20 82 27.5 167t7.5 179q0 76 -15.5 153t-48.5 144.5t-86 120.5q-55 55 -126.5 89t-147.5 34q-51 0 -116 -34t-65 -81q0 -58 146 -186q42 -36 80.5 -83.5t38.5 -86.5q0 -49 -38.5 -96t-97 -85t-95.5 -56 t-132 -62l-41 32q67 40 109.5 76.5t42.5 81.5q0 49 -92 133q-130 112 -130 185zM1366 770q79 20 147.5 42t149.5 52.5t132.5 51.5t143.5 61q-72 0 -101 40.5t-44 123.5q-16 80 -38 123t-83 43q-63 0 -121 -36t-104.5 -93t-77.5 -117q4 -70 4 -107q0 -62 -8 -184z" />
<glyph unicode="=" horiz-adv-x="1872" d="M279 1016q79 143 136 225t147.5 140.5t213.5 58.5q52 0 128 -20t163 -50q193 -70 246 -70q110 0 258 113l18 -33q-108 -78 -214 -143.5t-218 -116.5q-69 8 -264 60q-132 32 -223 32q-112 0 -185.5 -59.5t-146.5 -171.5h-19zM295 37q127 120 342 276l20 -10 q46 -80 101 -135q32 -30 52.5 -44.5t47.5 -22t62 -7.5q75 0 143 68q74 74 74 246q0 26 -27 231q-12 110 -12 164q0 72 10 121q87 89 185 163.5t206 135.5l53 -21q-186 -127 -186 -231q0 -64 14 -150q17 -74 28 -148.5t11 -150.5q0 -66 -16 -127.5t-49.5 -116t-83.5 -94.5 q-258 -202 -539 -202q-73 0 -144.5 26t-140.5 72l-122 -72z" />
<glyph unicode="@" horiz-adv-x="2447" d="M414 1012v405h80q23 -181 260 -327l657 -416v49q0 106 46 204.5t128 164.5q-98 0 -158.5 18.5t-60.5 89.5v219h64q16 -53 52.5 -66.5t100.5 -13.5h313q44 0 79.5 -21.5t35.5 -60.5v-204l-41 -11q-54 58 -115 58h-159q-56 -20 -89 -94t-44 -161t-11 -161q0 -91 80 -154 q81 -61 167 -113t210 -122l-53 -293h-55q-162 128 -338 251.5t-357.5 237t-357.5 209.5l-23 -4q-151 -119 -151 -209q0 -106 57.5 -160.5t141 -70.5t194.5 -16l-45 -238h-565l78 213q0 81 2.5 140t12.5 113t30 81q102 129 194 201q-65 40 -118 78t-118.5 88.5t-123.5 95.5z " />
<glyph unicode="A" horiz-adv-x="2474" d="M236 152q0 58 44.5 88t104.5 30q52 0 77.5 -25t39.5 -73q12 -44 29 -63t57 -19q96 0 160.5 148t132.5 366q62 197 130.5 344.5t167 259t241 174t343.5 62.5q51 0 166 -23l-92 -78v-917q0 -74 2.5 -128t13 -104t31.5 -71q35 -29 90 -29q53 0 105 37t86 86l35 -37 q-34 -58 -96 -107.5t-134 -78.5t-139 -29q-96 0 -154.5 45.5t-87 122t-36 154t-7.5 176.5h-502q-59 -101 -112.5 -179t-121 -147.5t-153 -114.5t-176.5 -45q-100 0 -172.5 41t-72.5 134zM1085 567h461v762q-86 -14 -139 -44t-85.5 -79.5t-70.5 -138.5q-58 -136 -166 -500z " />
<glyph unicode="B" horiz-adv-x="2423" d="M297 1004q0 109 141 225q187 144 516 192l246 58l2 -52q260 0 436 -32q100 -18 167 -42t113 -75.5t46 -140.5q0 -121 -92 -210t-221 -130l-2 -6l8 -7q88 0 178 -31.5t150.5 -98t60.5 -156.5q0 -77 -34.5 -136t-90 -103.5t-145 -96.5t-111.5 -66q-157 -96 -268 -96h-1039 l125 178q104 0 195 22t145 81q64 73 84.5 210.5t20.5 294.5v555q-70 -9 -160.5 -38.5t-154.5 -80.5t-64 -120q0 -17 4 -45q12 -54 12 -82q0 -51 -44.5 -73.5t-98.5 -22.5q-59 0 -92 33t-33 92zM815 178h670q92 0 158 20.5t104.5 73t38.5 142.5q0 89 -42.5 148t-108.5 90.5 t-144.5 45t-163.5 13.5q-143 0 -143 -15q-25 -118 -56.5 -191.5t-99.5 -137.5zM1196 813q0 -18 29 -18q126 0 227.5 14.5t178.5 71t77 170.5q0 85 -30.5 140t-87 87t-140.5 53q-113 29 -254 29v-547z" />
<glyph unicode="C" horiz-adv-x="1999" d="M348 670q0 196 65.5 346.5t183 248.5t278.5 146.5t352 48.5q200 0 336.5 -64.5t136.5 -242.5q0 -92 -40.5 -162t-111 -115.5t-156 -66.5t-169.5 -21q-99 0 -177.5 16t-134.5 58q-65 55 -65 111q0 60 41 94.5t102 34.5q45 0 84 -20t39 -62v-41l-12 -64q4 -33 45 -47 t80 -14q67 0 123.5 40t88 105t31.5 134q0 91 -43 147t-116.5 80t-161.5 24q-185 0 -301 -96t-166.5 -251t-50.5 -337q0 -125 33 -243t101 -209t170.5 -144t235.5 -53q80 0 153.5 32t117 94t43.5 147l33 14l155 -125q-93 -130 -259.5 -187t-356.5 -57q-224 0 -382.5 80.5 t-241.5 238t-83 382.5z" />
<glyph unicode="D" horiz-adv-x="2595" d="M293 999q0 128 101.5 220t245.5 139t271 47l267 78v-56q156 0 290 -10.5t250 -32.5q119 -23 210.5 -58.5t162.5 -106.5q156 -156 156 -420q0 -99 -28.5 -191t-82 -172t-129.5 -139q-162 -129 -337.5 -213t-344.5 -84h-975l115 182q143 0 227 17t132.5 62.5t67.5 127.5 t19 227v725q-74 0 -158 -21.5t-143 -71t-59 -128.5q0 -19 7 -63.5t7 -69.5q0 -40 -18.5 -65t-50 -36.5t-72.5 -11.5q-70 0 -100.5 28.5t-30.5 96.5zM848 182h657q101 0 199.5 30t159.5 91q100 98 100 381q0 102 -23 199.5t-73 184t-125 146.5q-49 40 -119 67.5t-143.5 41 t-148 19.5t-154.5 6v-521q0 -147 -28 -276.5t-108 -198.5z" />
<glyph unicode="E" horiz-adv-x="2013" d="M350 338q0 199 145 308.5t359 135.5q-332 81 -332 310q0 108 55.5 181t145 112.5t193 56t202.5 16.5q154 0 288 -45t134 -166q0 -44 -21 -80.5t-56 -58t-79 -21.5q-46 0 -87.5 22.5t-41.5 64.5q0 21 19 57q18 30 18 63q0 58 -52 79.5t-122 21.5q-84 0 -158 -38.5 t-117.5 -106t-43.5 -154.5q0 -127 86 -189t196.5 -77t257.5 -15v-59q-194 0 -336 -19.5t-251 -100t-109 -243.5q0 -105 61.5 -183t159 -117.5t201.5 -39.5q75 0 145.5 24.5t124.5 67.5q70 55 90 195l52 18l186 -141q-47 -85 -153.5 -139.5t-230 -77.5t-232.5 -23 q-193 0 -338 29q-47 8 -95.5 23.5t-88 39t-74.5 58.5q-101 103 -101 211z" />
<glyph unicode="F" horiz-adv-x="2171" d="M281 162q0 55 48 88t107 33q58 0 91 -30.5t61 -90.5q14 -29 25.5 -47t26 -30.5t37.5 -18t52 -5.5q68 0 140.5 32t121.5 83q107 107 107 346v180l-410 -10l78 111h332v520q-40 9 -82 18t-80 9q-161 0 -254 -72q-48 -38 -77.5 -77t-29.5 -85q0 -20 15.5 -69.5t15.5 -61.5 q0 -55 -46 -81.5t-105 -26.5q-61 0 -95 32t-34 95q0 146 188 294q93 73 221.5 104.5t280.5 31.5q84 0 147 -9l209 66v-80l414 -78q40 -8 65 -8q54 0 82 27l86 92l52 -25q-27 -45 -73.5 -105t-102 -106.5t-95.5 -46.5q-22 0 -38 3t-38.5 9t-42.5 11l-307 84l-2 -465h391 l-88 -101h-303q0 -163 -44.5 -302t-149.5 -224q-119 -92 -264.5 -147.5t-282.5 -55.5q-124 0 -237 42.5t-113 146.5z" />
<glyph unicode="G" horiz-adv-x="2003" d="M330 -63q0 63 40.5 93.5t106.5 30.5q67 0 102.5 -23t43.5 -85q10 -69 42.5 -102.5t78.5 -43.5t120 -10q97 0 191 37t159 103q115 111 115 339v279q-177 -86 -387 -86q-117 0 -221.5 27t-187.5 84.5t-131 147.5t-48 212q0 145 71.5 246.5t187 160t247 83t270.5 24.5 q183 0 331.5 -49t148.5 -191q0 -67 -43.5 -121t-109.5 -84t-128 -30q-30 0 -178 20l12 43q72 0 114.5 9t66.5 41.5t24 99.5q0 45 -7.5 74t-31.5 47q-81 63 -248 63q-133 0 -230.5 -49.5t-149.5 -144.5t-52 -228q0 -112 48 -206.5t136.5 -149.5t200.5 -55q146 0 236 71 q59 47 59 162l264 58v-422q0 -103 -19.5 -198.5t-65.5 -181.5t-119 -145q-72 -56 -160.5 -94t-188.5 -58t-200 -20q-201 0 -355.5 41t-154.5 181z" />
<glyph unicode="H" horiz-adv-x="2736" d="M279 125q0 53 37.5 82t93.5 29q53 0 73.5 -22t44.5 -81q13 -28 49 -45.5t68 -17.5q127 0 191 118t80 263t16 297v610q-125 0 -209 -21q-75 -15 -141 -58.5t-66 -109.5q0 -37 27 -86q32 -56 32 -90q0 -56 -44 -89.5t-103 -33.5q-64 0 -100.5 48.5t-36.5 115.5 q0 141 121.5 233t277.5 128q165 41 377 41q33 0 101 -5t116 -8l-70 -65v-559h508q20 123 70.5 235t131 206.5t187.5 150t230 55.5q23 0 51.5 -5.5t54 -18.5t42 -33t16.5 -46q0 -43 -41.5 -79.5t-85.5 -36.5q-33 0 -61.5 14t-41.5 43q-11 30 -23.5 36.5t-49.5 6.5 q-141 0 -180.5 -232.5t-39.5 -488.5q0 -123 11 -229.5t57.5 -195.5t142.5 -89q50 0 107 41.5t94 91.5l47 -37q-3 -4 -26.5 -39t-44.5 -51q-155 -125 -349 -125q-141 0 -210 122t-85 271.5t-16 331.5h-496q0 -147 -45.5 -278t-144.5 -230t-229 -156t-265 -57q-83 0 -167 38.5 t-84 109.5z" />
<glyph unicode="I" horiz-adv-x="1726" d="M274 158q0 114 154 114q64 0 96 -33t58 -96q21 -51 50.5 -68.5t88.5 -17.5q165 0 222.5 162t57.5 367v778q-102 0 -186 -18.5t-143 -65.5q-43 -34 -43 -125q0 -10 20 -55q29 -53 29 -96q0 -39 -24 -69.5t-62.5 -45.5t-77.5 -15q-66 0 -103.5 48t-37.5 114q0 74 37 137.5 t99 109.5t134 77t139 47q168 39 387 39q22 0 201 -16l-76 -76l-2 -404q0 -181 -16 -328.5t-70 -265.5t-146 -206.5t-211.5 -136.5t-248.5 -48q-59 0 -136.5 22.5t-133.5 66.5t-56 104z" />
<glyph unicode="J" horiz-adv-x="1747" d="M281 -23q0 112 72 228t188 217.5t242.5 173t234.5 104.5v637q-44 0 -108.5 -19.5t-126 -54t-103 -81.5t-41.5 -95q0 -21 8 -57t8 -51q0 -51 -49 -84t-104 -33q-131 0 -131 113q0 69 43.5 126.5t115.5 115.5q99 77 227.5 128t269.5 74t290 23q70 0 141 -6l-6 -33l-143 -66 l-2 -762q0 -127 -15.5 -244.5t-57 -229.5t-114.5 -185q-61 -61 -146.5 -106.5t-181 -69t-182.5 -23.5q-143 0 -236 61.5t-93 198.5zM477 0q0 -93 61 -147t154 -54q77 0 180 82q74 58 107 189q39 133 39 323v232q-37 0 -109 -38.5t-141.5 -88t-110.5 -88.5q-88 -88 -134 -193 t-46 -217z" />
<glyph unicode="K" horiz-adv-x="2574" d="M272 133q0 57 43.5 83t106.5 26q46 0 68.5 -22.5t48.5 -72.5q25 -48 46.5 -60.5t76.5 -12.5q36 0 80.5 27t76.5 59q55 55 88 166q39 131 39 315v711q-119 0 -205 -19q-78 -18 -147.5 -65.5t-69.5 -110.5q0 -8 4 -21t10.5 -25.5t12.5 -23.5q33 -44 33 -81 q0 -61 -46.5 -97.5t-111.5 -36.5q-61 0 -104 54.5t-43 117.5q0 73 47 135t120 119q92 71 250 107q169 37 377 37q35 0 110.5 -9t92.5 -10l-59 -71v-580h32l578 559q165 129 274 129q41 0 86 -16t74 -46.5t29 -72.5q0 -38 -21.5 -71.5t-58 -54.5t-72.5 -21q-31 0 -52 2.5 t-39.5 14.5t-23.5 36q-16 51 -59 51q-45 0 -114.5 -50t-116.5 -99l-273 -283l201 -315q58 -88 98.5 -141t98.5 -111q30 -31 62.5 -58.5t68 -42t79.5 -14.5q47 0 95 39.5t90 93.5l45 -33q-61 -95 -104.5 -149.5t-110.5 -95.5t-150 -41t-150.5 30t-121 82t-105.5 127l-307 463 h-35q0 -133 -53.5 -260t-150.5 -227.5t-221 -156.5t-259 -56q-86 0 -172 36.5t-86 112.5z" />
<glyph unicode="L" horiz-adv-x="2294" d="M270 27q11 91 33.5 146.5t63 98.5t118.5 99q67 47 102.5 95.5t48.5 108.5t13 148q0 14 -0.5 23t-1.5 20q0 20 -0.5 33t-1.5 28q0 161 37 279.5t114 197.5t194 118.5t278 39.5q80 0 158 -15.5t133 -60t55 -122.5q0 -56 -39 -89.5t-94 -33.5q-77 0 -111 23.5t-55 97.5 q-18 63 -52 89.5t-100 26.5q-61 0 -95 -13t-51 -44t-34 -96q-22 -94 -29 -240q-7 -174 -36 -285q-32 -111 -82 -161q-65 -58 -224 -162q54 0 125 -13t149 -34t175 -51q59 -17 128.5 -36.5t115 -30t111 -19.5t118.5 -9q72 0 128.5 19.5t93.5 55.5t63 90.5t41 121.5l22 100h68 l-6 -139q0 -123 -77 -228t-196.5 -167t-238.5 -62q-63 0 -151.5 22t-178 53t-184.5 67q-248 94 -353 94q-71 0 -115 -24.5t-69 -68.5t-49 -116z" />
<glyph unicode="M" horiz-adv-x="2992" d="M272 1116q0 181 117.5 262.5t306.5 81.5q160 0 293.5 -102t231 -257t167 -325t125.5 -344q91 254 230.5 481t343 380t446.5 153q64 0 124.5 -21t60.5 -73q0 -43 -40 -74t-85 -31q-27 0 -56.5 19.5t-35.5 46.5q-7 23 -23.5 39t-38.5 16q-76 0 -96.5 -132t-20.5 -278 q0 -155 3.5 -311.5t17.5 -314.5q12 -105 29 -154q15 -51 39 -75.5t71 -24.5q35 0 87.5 41t94.5 86l41 -31q-62 -94 -155 -151.5t-199 -57.5q-78 0 -127 18.5t-80.5 60.5t-50.5 114q-19 67 -26.5 131.5t-8.5 128.5q-2 75 -6 227t-4 227q0 142 10 310q-208 -208 -332 -496.5 t-170 -613.5l-12 -25l-213 -72q-7 88 -25 178t-44 183.5t-55 177.5t-68 184q-40 109 -90 202.5t-121 162.5v-459q0 -181 -51 -321q-52 -136 -159 -223t-247 -87q-74 0 -135.5 36.5t-61.5 105.5q0 48 43.5 77t96.5 29q48 0 69.5 -17.5t38.5 -62.5q20 -49 62 -49q90 0 142 75 t70.5 176.5t18.5 193.5v630q-140 148 -283 148q-79 0 -134 -62.5t-68 -144.5z" />
<glyph unicode="N" horiz-adv-x="2447" d="M268 1100q0 126 48.5 203.5t136.5 110t215 32.5t230.5 -63t211.5 -175q173 -173 348 -409l354 -469v719q0 234 91 325q44 44 103.5 67t119.5 23q26 0 62.5 -12t61.5 -34.5t25 -51.5q0 -50 -43 -78t-98 -28q-26 0 -49 11t-29 34q-6 30 -14 42.5t-33 12.5q-61 0 -78.5 -122 t-17.5 -249q-2 -76 -4 -124t-4 -105q0 -76 -0.5 -124t-1.5 -106q0 -264 16 -475l-188 -82q-72 106 -113.5 166.5t-96 137t-118.5 163t-119 154.5q-157 195 -401 469v-223q0 -206 -25.5 -391t-117 -328.5t-269.5 -143.5q-68 0 -128 29t-60 90q0 123 127 123q46 0 69.5 -14.5 t48.5 -52.5q34 -46 66 -46q75 0 111.5 68.5t48.5 157.5q13 82 16.5 200t3.5 291v353q-127 112 -252 112q-89 0 -130.5 -46t-61.5 -140z" />
<glyph unicode="O" horiz-adv-x="2273" d="M313 709q0 112 28 215.5t81 191t135.5 156.5t185.5 108l35 -22q-76 -61 -117.5 -166t-56 -219t-14.5 -230q0 -127 28.5 -249.5t88.5 -224t159 -162t234 -60.5q148 0 252 51t162.5 140t84 208t25.5 261q0 112 -15.5 220t-56.5 207.5t-118.5 163.5t-190.5 64 q-49 0 -111 -19t-105.5 -58t-43.5 -93q0 -51 74 -98q96 -61 96 -107q0 -58 -43 -94.5t-102 -36.5q-82 0 -129.5 61t-47.5 144q0 103 50 180t127.5 123t176 69t191.5 23q145 0 251 -56t169 -151.5t92 -217t29 -263.5q0 -199 -59 -350t-172.5 -254t-271 -154t-353.5 -51 q-180 0 -318 49.5t-235 146t-146 236.5t-49 318z" />
<glyph unicode="P" horiz-adv-x="2150" d="M283 1036q0 71 40 134t101 108q65 52 154 85.5t190 46.5t203 13l211 43v-47q204 0 350 -35q165 -36 244 -105.5t79 -227.5q0 -156 -104 -261.5t-259 -155.5t-310 -50q-15 -129 -63.5 -241.5t-130 -196.5t-191 -128.5t-246.5 -44.5q-55 0 -116 15t-104.5 51t-43.5 92 q0 46 55 79.5t107 33.5q41 0 70 -27t44 -67q16 -40 43.5 -65.5t63.5 -25.5q83 0 135 66.5t76 157.5q32 126 32 313v743q-118 0 -202 -18q-70 -14 -135.5 -56.5t-65.5 -101.5q0 -37 41 -98q6 -12 17.5 -33t11.5 -26q0 -45 -18.5 -76.5t-53 -46.5t-80.5 -15q-81 0 -113 42 t-32 126zM1182 651q188 20 282 97q109 84 109 262q0 110 -52.5 184t-141.5 109.5t-197 35.5v-688z" />
<glyph unicode="Q" horiz-adv-x="2193" d="M309 874q0 216 122.5 345t311 181t400.5 52q203 0 357 -54t243.5 -182t89.5 -333q0 -148 -42 -260t-122 -192t-190 -131.5t-254 -84.5q98 -16 167 -23.5t132 -7.5q107 0 191 49.5t124 143.5l49 -12q-74 -169 -179.5 -280.5t-258.5 -111.5q-59 0 -143.5 11.5t-243.5 38.5 q-126 22 -213.5 32.5t-177.5 10.5q-88 0 -141 -35t-107 -117l-55 25q57 133 145 225q61 60 118.5 79t149.5 19q104 0 318 -20q163 23 259 112.5t136.5 223.5t40.5 296q0 228 -103.5 370t-322.5 142q-248 0 -381 -136t-133 -386t96 -348q42 -41 107.5 -60t158.5 -32v-47 q-167 0 -315.5 51t-241 163t-92.5 283z" />
<glyph unicode="R" horiz-adv-x="2312" d="M276 139q0 48 36.5 78.5t84.5 30.5q35 0 64 -8.5t51.5 -28t30.5 -47.5q12 -46 39.5 -67t74.5 -21q89 0 155 75t103 175q26 69 38 149.5t12 167.5v707h-23q-144 0 -277 -42.5t-133 -154.5q0 -29 23 -59q41 -55 41 -84q0 -34 -5 -55.5t-22 -36.5q-53 -44 -112 -44 q-71 0 -117.5 51.5t-46.5 123.5q0 121 141 229q99 79 246.5 113t320.5 34l230 48v-48q229 0 385 -30q150 -28 235.5 -90t85.5 -197q0 -155 -98.5 -249.5t-267.5 -156.5q241 -528 383 -528q69 0 162 98l43 -30q-42 -61 -96.5 -122.5t-119.5 -102t-133 -40.5 q-89 0 -138.5 43.5t-102.5 141.5l-240 456l-98 17q-35 -270 -205 -438q-101 -99 -227 -158t-258 -59q-51 0 -113.5 17t-107 53.5t-44.5 88.5zM1231 686q78 0 154.5 28.5t136.5 76.5q108 84 108 278q0 166 -108 223.5t-291 57.5v-664z" />
<glyph unicode="S" horiz-adv-x="1808" d="M225 289q0 174 121 243.5t307 69.5q84 0 151.5 -34.5t67.5 -110.5q0 -41 -44.5 -68t-88.5 -27q-41 0 -62.5 19t-31.5 57q-21 86 -88 86q-60 0 -96.5 -53.5t-36.5 -114.5q0 -103 55 -173t144.5 -103t189.5 -33q93 0 188 31.5t158.5 96t63.5 157.5q0 96 -59 164.5t-134 109 t-196 90.5q-184 75 -312 176q-106 82 -106 261q0 141 91.5 216t217.5 98t279 23q89 0 183.5 -19.5t164 -69.5t69.5 -136q0 -59 -47.5 -102t-115 -66.5t-125.5 -23.5q-47 0 -97 6l-6 39q160 25 160 135q0 55 -37.5 90.5t-93.5 51.5t-111 16q-143 0 -213 -54q-88 -66 -88 -145 q0 -101 94.5 -173t233.5 -136q18 -7 94.5 -39t117 -49.5t92.5 -44.5t81 -50q64 -49 97.5 -123t33.5 -157q0 -61 -24.5 -118.5t-64.5 -105t-89 -85.5q-70 -56 -167 -89.5t-198.5 -46t-206.5 -12.5q-124 0 -237 32t-195 97q-84 65 -84 197z" />
<glyph unicode="T" horiz-adv-x="1935" d="M268 1047q0 125 95.5 214t233 134t257.5 45q81 0 192 -22t246 -56q112 -28 187.5 -41.5t150.5 -13.5q101 0 185 75l61 58l51 -21l-51 -76q-28 -40 -90.5 -95.5t-132 -95.5t-113.5 -40q-34 0 -248 47v-526q0 -84 -21.5 -165.5t-65 -156.5t-107.5 -139q-59 -59 -68 -59 q-1 0 -3 2t-5 2q-57 -43 -123 -74.5t-143 -48.5t-154 -17q-254 0 -254 179q0 34 24 58t58.5 35t69.5 11q59 0 85.5 -24t45.5 -80q16 -48 38.5 -64t73.5 -16q62 0 116 32t79 87q100 219 100 358v659l-30 7q-103 40 -198 62t-185 22q-66 0 -123.5 -32t-57.5 -93 q0 -24 14 -41.5t48 -46.5q26 -22 42.5 -45t16.5 -52q0 -51 -45.5 -85t-97.5 -34q-74 0 -114 48.5t-40 124.5z" />
<glyph unicode="U" horiz-adv-x="2273" d="M231 1145q0 152 86.5 228.5t239.5 76.5q146 0 221.5 -76.5t75.5 -222.5q0 -56 -8 -119.5t-26 -152t-29 -146.5q-52 -216 -52 -317q0 -88 26 -158.5t82.5 -114t143.5 -43.5q101 0 198.5 60t180.5 151q0 478 68 959q76 37 135 64t148 65.5t137 58.5l63 -28 q-97 -49 -143 -120t-72 -190q-55 -251 -55 -536q0 -164 36 -318.5t142 -154.5q46 0 88 39.5t94 103.5l41 -39q-81 -99 -115 -136.5t-93 -67t-150 -29.5q-126 0 -174 41q-105 79 -127 182q-130 -103 -270 -167.5t-283 -64.5q-178 0 -274.5 86t-96.5 260q0 75 10 152.5t26 156 t38 175.5q39 167 39 284q0 78 -30.5 131.5t-102.5 53.5q-75 0 -108.5 -46.5t-33.5 -121.5q0 -24 15 -82l-58 -18q-33 86 -33 141z" />
<glyph unicode="V" horiz-adv-x="2161" d="M272 1104q0 154 111 262q75 78 209 78q116 0 193 -87t115.5 -197.5t72.5 -256.5l153 -661l265 327q48 60 84.5 114t71 120t54 133t19.5 135q0 95 -59.5 150t-155.5 55q-90 0 -170 -111l-51 9q24 82 81 142.5t137 92t163 31.5q69 0 140.5 -23t118 -71.5t46.5 -122.5 q0 -82 -65 -205.5t-150 -242.5t-160 -214q-85 -111 -125.5 -162.5t-90 -121t-90 -134.5t-56.5 -108l-199 -70l-31 2q-15 91 -32.5 187t-38.5 200t-37.5 182t-36.5 152q-78 309 -109 389q-68 185 -174 185q-62 0 -94.5 -44t-54.5 -118z" />
<glyph unicode="W" horiz-adv-x="3011" d="M272 1102q0 97 46.5 176t128 124.5t178.5 45.5q172 0 273 -133.5t139 -318t38 -363.5l10 -342l246 409q58 96 98.5 205.5t64.5 217.5t46 245l186 80l27 -12q0 -129 24 -256.5t74 -251.5t121 -236q144 -222 193 -356q124 190 218.5 373t94.5 307q0 51 -14 105t-38.5 93.5 t-67 66t-97.5 26.5q-74 0 -145 -50l-41 27q54 62 67 72q59 48 139 77t160 29q134 0 200 -78.5t66 -214.5q0 -68 -48.5 -177.5t-106 -203t-129.5 -202.5q-172 -254 -295 -529l-170 -65l-23 6q-31 307 -213 627q-135 238 -166 317q-74 -127 -165 -292t-170.5 -319.5 t-149.5 -297.5l-207 -49l-26 22l-4 234q0 116 -11 273.5t-45.5 334.5t-102.5 297.5t-171 120.5q-65 0 -111.5 -46.5t-64.5 -113.5z" />
<glyph unicode="X" horiz-adv-x="2298" d="M272 1167q0 88 111 174q52 42 115 69t135.5 40.5t150.5 13.5q159 0 251 -44.5t144.5 -130.5t104.5 -247q59 92 109 161t108 128t130.5 97t158.5 38q209 0 209 -141q0 -47 -31.5 -84t-79.5 -43q-57 0 -91 15.5t-42 62.5q-13 65 -76 65q-68 0 -140 -92t-127.5 -206 t-92.5 -207q39 -258 106 -424q53 -129 109.5 -199t157.5 -70q80 0 133 59t82 146l59 -10q-43 -169 -143.5 -262.5t-268.5 -93.5q-88 0 -150 25.5t-106 74t-88 131.5q-54 109 -88 268q-76 -129 -124 -201.5t-118 -144t-159.5 -115t-198.5 -43.5q-89 0 -166 43t-77 123 q0 45 45 81t92 36q67 0 96 -26t41 -93q5 -27 21.5 -47t43.5 -20q142 0 267.5 189t191.5 380q-39 267 -104 442q-33 86 -69 148.5t-94 103.5t-138 41q-46 0 -83.5 -30t-37.5 -76q0 -17 7 -59t7 -62q0 -30 -25 -56t-59.5 -41.5t-64.5 -15.5q-57 0 -100.5 38t-43.5 91z" />
<glyph unicode="Y" horiz-adv-x="1999" d="M201 1194q66 91 109 139.5t107 86.5t138 38q78 0 121 -32.5t55 -106.5q8 -57 8 -250q0 -92 7.5 -166.5t39.5 -136t99 -61.5q88 0 193 64t227 157v422l260 96l22 -4v-807q0 -129 -21.5 -254.5t-74.5 -240.5t-135 -197q-106 -106 -256 -161.5t-309 -55.5q-128 0 -206.5 40 t-78.5 154q0 202 278 420q100 80 231 147.5t290 128.5v209q-99 -66 -193 -121.5t-193 -94t-182 -38.5q-56 0 -118.5 20.5t-102.5 57.5q-41 53 -41 318v211q-4 37 -23.5 64.5t-52.5 27.5q-29 0 -66 -29.5t-93 -81.5zM735 0q0 -89 38.5 -136.5t127.5 -47.5q129 0 221.5 76 t137.5 195.5t45 246.5v203q-126 -50 -254.5 -128.5t-222 -186t-93.5 -222.5z" />
<glyph unicode="Z" horiz-adv-x="2140" d="M342 1069q0 84 45.5 154.5t121 122t160.5 78t167 26.5q100 0 319 -133q64 -39 102.5 -57.5t81.5 -18.5q69 0 118 50.5t75 123.5l33 6l71 -49l4 -18q-180 -164 -272 -271l-653 -741l18 -14q121 34 195 34q54 0 115.5 -16t114.5 -38t132 -58q213 -100 303 -100 q53 0 100.5 30.5t47.5 81.5q0 48 -30 63t-85 23q-160 21 -160 107q0 63 60 96t129 33q101 0 154 -58t53 -161q0 -121 -55.5 -210t-151 -136.5t-215.5 -47.5q-69 0 -150 27t-225 86q-98 43 -184.5 69.5t-163.5 26.5q-174 0 -273 -180l-100 47l924 1057q-29 -14 -101 -14 q-64 0 -129.5 26.5t-140.5 69.5q-83 48 -149 78t-119 30q-51 0 -87 -23.5t-36 -72.5q0 -32 18.5 -52.5t50.5 -39.5t50 -38.5t18 -49.5q0 -49 -45 -82t-94 -33q-69 0 -115.5 48.5t-46.5 117.5z" />
<glyph unicode="^" horiz-adv-x="2449" d="M240 20l1003 1450l25 -2l950 -1464l-186 -22l-795 1288l-803 -1266l-164 -6z" />
<glyph unicode="_" horiz-adv-x="2449" d="M227 1393l181 22l798 -1259l805 1259h166l10 -8l-979 -1432h-39z" />
<glyph unicode="f" horiz-adv-x="1260" d="M203 532l26 56q81 0 129.5 9t80.5 43.5t42 107.5q13 71 13 309q0 84 3.5 149t18.5 129t47 105q52 40 162.5 51.5t249.5 11.5v-37q-103 0 -179.5 -11.5t-113.5 -57.5q-36 -52 -45.5 -135.5t-9.5 -194.5q0 -153 -14 -246.5t-74.5 -165.5t-192.5 -92q113 -20 170 -73 t82 -162q27 -119 27 -267q0 -254 61 -323q45 -45 116.5 -56.5t172.5 -11.5v-35q-187 0 -269 9t-129.5 47.5t-64 123.5t-16.5 255q0 102 -3 177t-17.5 142.5t-41.5 93.5q-53 49 -231 49z" />
<glyph unicode="g" horiz-adv-x="1260" d="M266 -328q131 0 203 15.5t104 53.5t41 109.5t9 212.5q0 80 6 146.5t20 124.5q17 74 49.5 120t83 70.5t131.5 38.5q-130 25 -196 95.5t-84.5 166.5t-18.5 246q0 116 -13 213.5t-54 138.5q-40 36 -113.5 45t-167.5 9v34q340 0 412 -65q70 -76 70 -373q0 -107 1.5 -184.5 t4.5 -110.5q9 -78 36.5 -114t98.5 -56q66 -18 162 -18l-37 -49q-115 0 -170.5 -27.5t-71.5 -126.5q-8 -63 -8 -319q0 -167 -20 -253.5t-70.5 -124t-135.5 -46.5t-272 -9v37z" />
<glyph unicode="j" horiz-adv-x="981" d="M436 -352v1831l90 39v-1846z" />
<glyph unicode="n" horiz-adv-x="1735" d="M311 1460l92 35l1016 -1847l-86 -47z" />
<glyph unicode="x" horiz-adv-x="1769" d="M356 47l205 62q0 -88 37.5 -146.5t102.5 -85.5t153 -27q74 0 141 29t107.5 85.5t40.5 135.5q0 52 -40.5 96.5t-100 75t-127.5 54.5t-101 36q-114 42 -158 59.5t-99 55t-87.5 90t-32.5 129.5q0 120 127 258q-26 67 -26 127q0 114 63.5 197t164 124.5t214.5 41.5 q79 0 145 -14q62 -12 113 -52t51 -98q0 -9 -16 -76l-154 -43l-39 21q0 194 -178 194q-93 0 -155 -64t-62 -157q0 -111 117 -168q62 -27 132.5 -56t102.5 -44q72 -28 135.5 -52t121 -56t96.5 -79t39 -114q0 -80 -36.5 -153t-99.5 -124l-10 10q57 -65 57 -165q0 -113 -71 -198 t-181 -130t-219 -45q-176 0 -313.5 58.5t-159.5 207.5zM498 768q0 -50 37 -92.5t88 -71.5t114.5 -53.5t110.5 -42.5q114 -40 220 -85.5t149 -80.5q55 60 55 135q0 97 -97 154.5t-249 111.5q-297 108 -346 156q-39 -36 -60.5 -65t-21.5 -66z" />
<glyph unicode="&#xa1;" horiz-adv-x="2400" d="M332 485l41 82h1683l-35 -82h-1689z" />
<glyph unicode="&#xbb;" horiz-adv-x="1866" d="M268 494q142 221 328 221q77 0 165 -33.5t185 -81.5l191 -94q105 -55 194 -55q67 0 133.5 40t83.5 103l49 -27q-46 -85 -125 -142.5t-169 -57.5q-125 0 -275 73l-258 129q-111 58 -209 58q-64 0 -104.5 -15t-69.5 -45t-68 -88z" />
<glyph unicode="&#x2000;" horiz-adv-x="759" />
<glyph unicode="&#x2001;" horiz-adv-x="1518" />
<glyph unicode="&#x2002;" horiz-adv-x="759" />
<glyph unicode="&#x2003;" horiz-adv-x="1518" />
<glyph unicode="&#x2004;" horiz-adv-x="506" />
<glyph unicode="&#x2005;" horiz-adv-x="379" />
<glyph unicode="&#x2006;" horiz-adv-x="253" />
<glyph unicode="&#x2007;" horiz-adv-x="253" />
<glyph unicode="&#x2008;" horiz-adv-x="189" />
<glyph unicode="&#x2009;" horiz-adv-x="303" />
<glyph unicode="&#x200a;" horiz-adv-x="84" />
<glyph unicode="&#x202f;" horiz-adv-x="303" />
<glyph unicode="&#x205f;" horiz-adv-x="379" />
<glyph unicode="&#xe000;" horiz-adv-x="1445" d="M0 1445h1445v-1445h-1445v1445z" />
</font>
</defs>
</svg>
