<?xml version="1.0" standalone="no"?>
<!DOCTYPE svg PUBLIC "-//W3C//DTD SVG 1.1//EN" "http://www.w3.org/Graphics/SVG/1.1/DTD/svg11.dtd" >
<svg xmlns="http://www.w3.org/2000/svg">
<metadata>
This is a custom SVG webfont generated by Font Squirrel.
Copyright   : Copyright C 1994 1995 Basil K Malyshev All Rights Reserved012BaKoMa Fonts Collection LevelC
</metadata>
<defs>
<font id="eusb9Regular" horiz-adv-x="0" >
<font-face units-per-em="2048" ascent="1638" descent="-410" />
<missing-glyph horiz-adv-x="682" />
<glyph unicode=" "  horiz-adv-x="682" />
<glyph unicode="&#x09;" horiz-adv-x="682" />
<glyph unicode="&#xa0;" horiz-adv-x="682" />
<glyph unicode="0" />
<glyph unicode=":" horiz-adv-x="1610" d="M61 717v121h1414v-418l-99 4l-35 252q-4 28 -29 34.5t-69 6.5h-1182z" />
<glyph unicode="&#x3c;" horiz-adv-x="1948" d="M61 1040q0 119 152 248q175 154 379 154q90 0 176 -32t152 -92t100 -144q110 112 224.5 186t228.5 74q67 0 107 -24t58 -67t25 -108q11 -87 33.5 -123.5t99.5 -36.5q24 0 74 12l12 -28q-288 -123 -420 -207q113 -31 189 -70q0 -47 -0.5 -76t-1.5 -65q0 -53 4.5 -115 t9.5 -98q8 -63 51 -127q32 -45 46 -61.5t37.5 -28.5t62.5 -12q30 0 84 28l4 -47l-340 -205q-26 57 -73.5 129.5t-102.5 149.5q0 242 -5 285q-11 74 -41 104q-85 72 -233 72q-78 0 -117 -10q-30 -191 -151 -398l-441 -332q-112 115 -174 115q-53 0 -159 -90l-33 31 q26 27 73 74t95.5 88t93.5 67.5t80 26.5q57 0 174 -117q82 60 113 105t53 143q33 142 33 344q0 140 -43 260q-44 115 -134.5 195.5t-203.5 80.5q-48 0 -105 -34t-57 -78q0 -19 13 -43.5t30 -46t42.5 -50t43.5 -47.5q106 -98 106 -168q0 -64 -54 -119.5t-115 -91.5t-156 -85 l-37 32q137 83 137 156q0 35 -25 68t-74.5 83.5t-74.5 87.5t-25 78zM1040 764q133 38 253.5 88.5t260.5 118.5q-47 0 -73 21.5t-37 54t-21 86.5q-12 76 -31.5 119.5t-74.5 43.5q-86 0 -157.5 -74t-115.5 -167q3 -35 3 -107q0 -77 -7 -184z" />
<glyph unicode="=" horiz-adv-x="1305" d="M61 1008q25 48 74 138t99.5 149.5t118.5 95.5t155 36q86 0 262 -69q186 -68 223 -68q96 0 232 113l16 -33q-210 -167 -389 -258q-64 8 -238 57q-113 33 -200 33q-72 0 -125.5 -31t-93 -80t-80.5 -118h-17zM76 37q126 128 307 274l18 -10q47 -93 113 -156q33 -31 59 -42 t66 -11q61 0 108.5 46.5t65.5 109.5q21 67 21 155q0 14 -9.5 97.5t-15.5 132.5q-10 92 -10 164q0 66 8 121q45 51 102 104t117.5 100t132.5 92l49 -20q-168 -128 -168 -231q0 -77 13 -148q34 -185 34 -297q0 -101 -33.5 -189.5t-101.5 -146.5q-67 -60 -144.5 -104.5 t-163 -70t-175.5 -25.5q-122 0 -256 96l-111 -72z" />
<glyph unicode="@" horiz-adv-x="1821" d="M184 1004v403h72q20 -175 233 -326l592 -411v49q0 106 40 201.5t116 162.5q-94 0 -146.5 18.5t-52.5 90.5v217h58q15 -52 46.5 -66t92.5 -14h283q38 0 70 -22.5t32 -59.5v-200l-37 -13q-19 26 -45 42t-57 16h-146q-73 -29 -100 -159.5t-27 -254.5q0 -83 72 -152 q42 -37 62 -51.5t81.5 -55.5t103 -67.5t93.5 -58.5l-49 -291h-51q-459 398 -947 692l-18 -4q-137 -117 -137 -207q0 -103 48.5 -156.5t124.5 -71t181 -17.5l-41 -236h-510l72 213q0 80 2.5 140t11 111t27.5 77q87 124 174 200q-112 77 -324 261z" />
<glyph unicode="A" horiz-adv-x="1843" d="M20 154q0 54 39.5 85t96.5 31q80 0 104 -98q11 -41 26 -60.5t52 -19.5q47 0 90 60t76.5 144.5t54.5 157t41 146.5q60 199 115 333.5t143.5 250t220 182t316.5 66.5q36 0 149 -23l-84 -76v-911q0 -118 7.5 -194.5t37.5 -108.5q27 -27 78 -27q49 0 95 37t77 86l33 -37 q-29 -54 -84 -103.5t-120.5 -79.5t-127.5 -30q-115 0 -172.5 78.5t-71.5 182.5t-14 235h-450q-65 -126 -134.5 -228t-165 -177.5t-206.5 -75.5q-96 0 -159 41.5t-63 132.5zM784 563h414v756q-115 -22 -165 -76.5t-99 -181.5q-35 -92 -63.5 -189.5t-86.5 -308.5z" />
<glyph unicode="B" horiz-adv-x="1798" d="M78 997q0 109 127 224q62 52 135.5 89.5t154.5 61.5t175 39l221 57l2 -51q118 0 214.5 -7.5t176.5 -23.5q89 -18 151.5 -44t102 -78.5t39.5 -135.5q0 -118 -81 -206.5t-200 -130.5l-2 -7l6 -8q64 0 126.5 -18.5t112.5 -54.5t81 -90t31 -121q0 -99 -49 -166t-131 -122.5 t-162 -109.5q-143 -96 -242 -96h-934l57 90l56 90q94 0 178 22.5t127 78.5q59 75 76.5 207.5t17.5 293.5v551q-66 -8 -146.5 -38t-137 -80.5t-56.5 -118.5q0 -17 4 -45q10 -45 10 -82q0 -48 -39.5 -72.5t-89.5 -24.5q-54 0 -83 35t-29 92zM545 178l602 -2q87 0 146.5 22 t91.5 74t32 140q0 159 -119 227t-292 68q-132 0 -132 -17q-21 -113 -49 -188t-88 -135zM887 807q0 -16 26 -16q85 0 154 7t136 32.5t106 77.5t39 136q0 118 -56.5 182t-175.5 97q-111 27 -229 27v-543z" />
<glyph unicode="C" horiz-adv-x="1417" d="M123 666q0 183 53.5 329t158 248t250.5 153.5t330 51.5q426 0 426 -303q0 -116 -59.5 -198.5t-157.5 -123.5t-213 -41q-123 0 -231.5 40.5t-108.5 142.5q0 58 36.5 93.5t92.5 35.5q43 0 77 -21t34 -61v-41l-12 -64q4 -31 39.5 -45t74.5 -14q63 0 114.5 41.5t78.5 106 t27 128.5q0 129 -78.5 189.5t-210.5 60.5q-173 0 -278.5 -100.5t-148 -254t-42.5 -323.5q0 -258 122 -451.5t365 -193.5q121 0 202 75t81 196l31 14l139 -125q-81 -126 -231.5 -184t-323.5 -58q-158 0 -279.5 49.5t-201 142.5t-118 221.5t-38.5 283.5z" />
<glyph unicode="D" horiz-adv-x="1954" d="M74 991q0 93 52.5 168.5t139 128.5t183.5 79t182 26l239 75v-53q590 0 781 -166q94 -81 138 -200.5t44 -255.5q0 -145 -55 -276.5t-162 -223.5q-341 -293 -612 -293h-879l104 180q99 0 186.5 15t135.5 59q80 80 80 358v719q-75 0 -149.5 -22.5t-125.5 -71.5t-51 -125 q0 -19 7 -63t7 -68q0 -56 -34.5 -84.5t-91.5 -28.5q-45 0 -71 13t-37 39.5t-11 70.5zM573 180h592q92 0 175.5 28.5t142.5 84.5q96 96 96 385q0 150 -41.5 282t-134.5 222q-61 61 -149.5 95.5t-186 47t-197.5 12.5v-516q0 -145 -23.5 -272t-92.5 -197z" />
<glyph unicode="E" horiz-adv-x="1430" d="M127 336q0 98 35.5 175.5t98 131.5t144 87.5t175.5 45.5q-135 36 -217 108.5t-82 196.5q0 104 48 176t127 113.5t170 58.5t191 17q86 0 171 -17t147.5 -63.5t62.5 -128.5q0 -60 -39 -109t-100 -49q-42 0 -79.5 22.5t-37.5 61.5q0 28 16 58q17 31 17 61q0 39 -24 61.5 t-60 30.5t-74 8q-122 0 -204.5 -87.5t-82.5 -209.5t74 -182.5t175.5 -77t236.5 -16.5v-59q-173 0 -305 -21t-227 -101t-95 -239q0 -100 53 -177t139.5 -118t186.5 -41q137 0 244 92q38 35 54.5 83.5t25.5 109.5l47 18l168 -139q-31 -62 -94.5 -109.5t-141 -75.5 t-163.5 -41.5t-156 -13.5q-171 0 -303 27q-70 17 -121 40.5t-92 64.5q-109 104 -109 227z" />
<glyph unicode="F" horiz-adv-x="1571" d="M63 160q0 54 43 87.5t99 33.5q53 0 83 -32t52 -87q26 -59 48 -80t79 -21q115 0 229 107q103 103 103 350v180l-369 -10l70 109h299v514q-36 9 -76 17.5t-70 8.5q-145 0 -227 -71q-96 -80 -96 -158q0 -19 13 -66.5t13 -64.5q0 -53 -39 -81t-96 -28t-87 34.5t-30 92.5 q0 59 23.5 110t60.5 94.5t86 86.5q153 135 451 135q76 0 133 -8l189 68v-80l370 -78q42 -8 60 -8q47 0 73 26l78 93l45 -25q-33 -71 -110 -163.5t-131 -92.5q-42 0 -109 21l-276 83v-460h352l-80 -101h-272q0 -156 -40 -296t-137 -224q-101 -89 -233.5 -146t-257.5 -57 q-70 0 -142 16.5t-123 58.5t-51 112z" />
<glyph unicode="G" horiz-adv-x="1421" d="M109 -63q0 62 35.5 93t97.5 31q64 0 93 -24t36 -84q9 -66 37 -100t71.5 -45t110.5 -11q56 0 110 15t103 43t92 69q111 114 111 350v277q-155 -86 -347 -86q-149 0 -270 51.5t-190.5 157t-69.5 258.5q0 138 60.5 239t160.5 160t225.5 86t251.5 27q101 0 196.5 -18 t166 -71.5t70.5 -148.5q0 -61 -37.5 -116t-96 -87t-120.5 -32q-27 0 -160 20l12 43q66 0 105 10t59 42.5t20 97.5q0 86 -34 119q-75 63 -226 63q-125 0 -213 -52.5t-132 -147t-44 -220.5q0 -104 41.5 -198t120 -151.5t184.5 -57.5q267 0 267 231l237 57v-419 q0 -335 -162 -500q-95 -94 -232 -142.5t-282 -48.5q-73 0 -146.5 6t-146 28t-119 67.5t-46.5 118.5z" />
<glyph unicode="H" horiz-adv-x="2081" d="M61 125q0 48 34.5 78t84.5 30q49 0 69 -24.5t38 -77.5q10 -28 41 -45.5t63 -17.5q258 0 258 673v607q-109 0 -186 -21q-72 -17 -129.5 -60.5t-57.5 -105.5q0 -38 25 -86q29 -58 29 -90q0 -52 -40 -87.5t-91 -35.5q-60 0 -92.5 50.5t-32.5 115.5q0 135 107 226.5 t251 129.5q147 41 338 41q17 0 85 -4.5t112 -7.5l-64 -65v-555h457q23 151 94.5 299.5t191 246t271.5 97.5q51 0 99 -27t48 -74q0 -43 -35.5 -79.5t-78.5 -36.5q-73 0 -90 55q-9 28 -21 35.5t-47 7.5q-88 0 -133 -134.5t-55.5 -287.5t-11.5 -293q0 -116 10.5 -222.5 t52.5 -197t129 -90.5q46 0 97.5 41.5t84.5 89.5l41 -35q-11 -15 -30 -46t-33 -44q-142 -123 -314 -123q-98 0 -157.5 76.5t-85.5 190.5t-32.5 221t-6.5 229h-445q0 -332 -192 -524q-55 -57 -124.5 -100t-147 -67t-152.5 -24t-150.5 39t-75.5 109z" />
<glyph unicode="I" horiz-adv-x="1171" d="M57 156q0 60 39 87t101 27q58 0 86.5 -33t50.5 -96q19 -48 45.5 -67t79.5 -19q105 0 162.5 89t74.5 203t17 233v774q-201 0 -297 -82q-41 -37 -41 -125q0 -10 20 -55q25 -60 25 -95q0 -58 -45.5 -93.5t-102.5 -35.5q-63 0 -95 47t-32 113q0 94 54 169t137.5 124t177.5 74 q157 39 348 39q52 0 182 -17l-69 -74v-399q0 -96 -2 -162t-10.5 -146.5t-24.5 -151.5t-41 -132q-48 -116 -128 -203t-187.5 -136.5t-229.5 -49.5q-60 0 -128.5 23t-117.5 67t-49 103z" />
<glyph unicode="J" horiz-adv-x="1190" d="M63 -23q0 107 63.5 221.5t162.5 212.5t218 174t220 109v633q-70 -10 -149.5 -43t-135 -85.5t-55.5 -119.5q0 -16 7 -52.5t7 -53.5q0 -50 -43.5 -83.5t-93.5 -33.5q-119 0 -119 113q0 116 144 237q88 78 204 129t242 74t260 23q70 0 127 -7l-6 -32l-127 -66l-2 -756 q0 -123 -15 -246.5t-54.5 -236.5t-110.5 -186q-86 -85 -205.5 -134t-241.5 -49q-63 0 -117 15t-94.5 46.5t-63 80.5t-22.5 116zM242 0q0 -87 52.5 -143t139.5 -56q79 0 174 93q32 34 50.5 75.5t33.5 100.5q13 52 21 108t11 107.5t3 105.5v230q-45 0 -145.5 -68t-155.5 -121 q-88 -88 -136 -200t-48 -232z" />
<glyph unicode="K" horiz-adv-x="1935" d="M55 131q0 56 38 82.5t97 26.5q43 0 64 -23.5t41 -71.5q24 -46 43 -58.5t68 -12.5t135 76q56 56 88 174q35 137 35 313v704q-108 0 -185 -18q-44 -10 -89.5 -35t-76 -62t-30.5 -79q0 -22 24 -68q29 -41 29 -82q0 -58 -41 -95.5t-100 -37.5q-57 0 -95.5 55.5t-38.5 116.5 q0 123 152 252q79 68 225 105q155 37 338 37q31 0 100.5 -9t81.5 -10l-53 -70v-575h31l520 555q150 129 248 129q64 0 117 -37t53 -98q0 -54 -42 -100t-95 -46q-41 0 -68.5 9.5t-36.5 42.5q-12 51 -53 51q-66 0 -209 -150l-244 -278l181 -312q51 -84 102 -155.5t107 -128.5 q43 -41 76 -60.5t81 -19.5q72 0 166 131l41 -33q-35 -60 -65.5 -107.5t-68.5 -87.5t-87.5 -64.5t-106.5 -24.5q-110 0 -190 62t-150 175l-276 461h-31q0 -127 -46.5 -251t-130.5 -224.5t-198 -160.5t-241 -60q-51 0 -105 15.5t-91.5 48.5t-37.5 83z" />
<glyph unicode="L" horiz-adv-x="1681" d="M53 27q0 112 46.5 189t142.5 153q86 68 113.5 138.5t27.5 194.5q0 39 -2 60q0 26 -0.5 43t-1.5 37q0 147 30.5 259t95.5 189.5t169.5 118.5t255.5 41q74 0 144.5 -17t119.5 -61.5t49 -120.5q0 -52 -33 -85t-86 -33q-70 0 -99.5 24.5t-49.5 93.5q-17 60 -46.5 88.5 t-90.5 28.5q-58 0 -89.5 -15t-46.5 -46.5t-26 -92.5q-21 -112 -21 -235q-3 -163 -30 -285q-13 -64 -37.5 -108t-57 -76.5t-73.5 -62t-101 -72.5q73 0 173.5 -27t232.5 -72q167 -53 250 -73.5t176 -20.5q132 0 197.5 74.5t91.5 210.5l18 100h61l-2 -69l-2 -70 q0 -88 -36.5 -170t-101 -146.5t-146.5 -100.5t-168 -36q-57 0 -137.5 22t-168 55.5t-159.5 64.5q-98 41 -177.5 66.5t-142.5 25.5q-67 0 -106 -25.5t-59.5 -68t-40.5 -113.5z" />
<glyph unicode="M" horiz-adv-x="2310" d="M55 1108q0 88 27.5 154t78 107.5t119.5 61t156 19.5q147 0 268.5 -105t211 -265t151.5 -328.5t107 -321.5q59 179 138.5 346.5t192.5 319t262 246t322 94.5q59 0 113.5 -22t54.5 -73q0 -40 -35 -72t-78 -32q-25 0 -51.5 19.5t-32.5 46.5q-13 55 -55 55q-104 0 -104 -406 q0 -156 4 -326.5t14 -295.5q7 -94 25 -154q14 -49 35 -73.5t65 -24.5q28 0 80 43t84 82l37 -31q-58 -92 -139 -149.5t-179 -57.5q-106 0 -157 44t-76 149q-28 111 -31 258q-8 294 -8 450q0 174 8 305q-103 -112 -177 -238t-128.5 -265.5t-91 -292.5t-56.5 -303l-10 -25 l-192 -72q-13 159 -59.5 343t-112.5 376q-84 248 -189 361v-455q0 -182 -47 -319q-28 -85 -79 -154t-124 -111.5t-161 -42.5q-70 0 -124.5 37t-54.5 103q0 46 39 76t88 30q44 0 63.5 -18t33.5 -60q16 -49 55 -49q64 0 106 45.5t64.5 117.5t30.5 146t8 131v627 q-57 66 -120 106t-134 40q-75 0 -123 -62t-62 -145z" />
<glyph unicode="N" horiz-adv-x="1821" d="M53 1092q0 119 40 195.5t120.5 112.5t200.5 36q92 0 176.5 -47t148 -111t148.5 -166q113 -138 237 -319l318 -465v712q0 244 86 330q91 84 196 84q28 0 59.5 -12t54 -33.5t22.5 -50.5q0 -50 -38 -78.5t-89 -28.5q-22 0 -44 12t-26 33q-7 29 -13 41.5t-30 12.5 q-54 0 -70 -122.5t-16 -246.5q-2 -76 -4 -123.5t-4 -103.5q0 -76 -0.5 -123.5t-1.5 -104.5q0 -117 4 -254.5t10 -216.5l-168 -82q-96 157 -205.5 326.5t-197.5 290.5q-57 79 -178 234t-183 231v-221q0 -136 -9 -267.5t-44.5 -269.5t-113 -229t-203.5 -91q-63 0 -116.5 30 t-53.5 87q0 123 114 123q42 0 64 -15.5t43 -51.5q16 -23 27.5 -34.5t31.5 -11.5q114 0 143 226q12 72 15.5 194t3.5 293v348q-117 113 -227 113q-81 0 -117.5 -47.5t-54.5 -136.5z" />
<glyph unicode="O" horiz-adv-x="1663" d="M94 705q0 142 41.5 273t129 234t214.5 158l31 -22q-168 -146 -168 -611q0 -114 23 -234t76.5 -224t143.5 -168t218 -64q140 0 233.5 54t145.5 147.5t72 206t20 247.5q0 142 -27 288.5t-103 254t-214 107.5q-80 0 -158 -47t-78 -121q0 -52 68 -99q29 -18 57.5 -47.5 t28.5 -56.5q0 -55 -38 -93t-91 -38q-76 0 -118 61.5t-42 143.5q0 127 70.5 215.5t183.5 132t236 43.5q179 0 288 -99.5t154 -253t45 -331.5q0 -187 -50 -335t-146.5 -252.5t-242.5 -160t-331 -55.5q-172 0 -299.5 54.5t-209.5 152.5t-122.5 236t-40.5 303z" />
<glyph unicode="P" horiz-adv-x="1552" d="M66 1028q0 130 127 242q164 143 491 143l190 43v-47q86 0 169.5 -9t146.5 -26q153 -38 222 -110t69 -222q0 -115 -53.5 -202t-142 -144.5t-195.5 -86.5t-216 -29q-12 -121 -54 -232.5t-111.5 -194.5t-171 -131.5t-230.5 -48.5q-54 0 -108 15.5t-91.5 51t-37.5 89.5 q0 46 47.5 79.5t97.5 33.5q70 0 102 -95q14 -36 38.5 -62t56.5 -26q76 0 122.5 66.5t67.5 155.5q31 126 31 311v737q-106 0 -182 -18q-65 -14 -123 -56t-58 -100q0 -32 35 -98q27 -57 27 -60q0 -65 -35.5 -100t-101.5 -35q-76 0 -102.5 43t-26.5 123zM874 647 q173 20 263 104.5t90 252.5q0 104 -45 177t-124 110.5t-184 37.5v-682z" />
<glyph unicode="Q" horiz-adv-x="1593" d="M88 866q0 206 105 335t274.5 184t372.5 55q193 0 331.5 -58t213.5 -184.5t75 -320.5q0 -140 -34.5 -249t-104.5 -190t-172.5 -135.5t-237.5 -87.5q155 -31 271 -31q96 0 173 51t111 140l43 -13q-151 -389 -393 -389q-96 0 -350 50q-112 22 -190 32.5t-160 10.5 t-128.5 -36t-94.5 -116l-50 25q57 151 150 243q48 48 97.5 63t123.5 15q95 0 287 -20q149 22 236.5 115.5t121 225.5t33.5 285q0 136 -36 252t-122 187t-225 71q-157 0 -260.5 -65t-153 -181t-49.5 -272q0 -71 7 -135t27.5 -122t59.5 -95q42 -38 98 -56t136 -30v-47 q-160 0 -293.5 54t-213 166t-79.5 273z" />
<glyph unicode="R" horiz-adv-x="1700" d="M59 137q0 45 33 77t78 32t81.5 -20t47.5 -64q10 -43 34.5 -64.5t69.5 -21.5q82 0 140.5 76t91.5 172q45 139 45 313v702h-21q-133 0 -251.5 -42t-118.5 -152q0 -28 20 -60q37 -51 37 -84q0 -62 -32.5 -97.5t-92.5 -35.5q-66 0 -106.5 52t-40.5 120q0 120 127 228 q60 53 143 86.5t176 47t191 13.5l209 45v-45q206 0 346 -31q139 -29 213.5 -91t74.5 -193q0 -150 -88 -246.5t-241 -155.5q46 -109 97 -219t120 -208.5t127 -98.5q31 0 76 33.5t69 64.5l39 -30q-65 -107 -145 -186t-168 -79q-59 0 -98 24.5t-63.5 60.5t-55.5 100l-215 454 l-88 17q-40 -290 -209 -459q-86 -86 -194 -139t-220 -53q-49 0 -104.5 17t-94.5 53.5t-39 86.5zM920 682q141 0 260 104q98 83 98 275q0 160 -94 219t-264 59v-657z" />
<glyph unicode="S" horiz-adv-x="1245" d="M14 287q0 113 50.5 182.5t136 99t196.5 29.5q49 0 94.5 -15t75 -47t29.5 -81q0 -39 -40.5 -67t-80.5 -28q-38 0 -57 19t-27 55q-9 41 -25 63.5t-55 22.5q-54 0 -86 -54t-32 -112q0 -147 100.5 -227t249.5 -80q88 0 173 32.5t140 96.5t55 154q0 133 -94 211t-256 151 q-164 72 -280 174q-97 82 -97 258q0 198 152 267t379 69q58 0 123.5 -11t122.5 -35t94 -69t37 -108q0 -57 -42 -101.5t-104 -68t-115 -23.5q-37 0 -88 7l-6 39q146 27 146 135q0 77 -67.5 116t-149.5 39q-105 0 -189 -50t-84 -148q0 -164 295 -305q68 -31 165.5 -76 t159 -89.5t101 -116.5t39.5 -177q0 -86 -44 -165.5t-116 -143.5q-93 -80 -228 -113t-286 -33q-182 0 -323.5 79t-141.5 245z" />
<glyph unicode="T" horiz-adv-x="1360" d="M53 1038q0 120 82.5 209t206 136t238.5 47q73 0 150.5 -17t242.5 -61q100 -28 169 -42t136 -14q90 0 166 76l55 55l47 -20l-47 -74q-25 -39 -81 -94.5t-117.5 -95t-104.5 -39.5q-15 0 -223 45v-520q0 -91 -22 -176t-65 -161.5t-110 -144.5q-34 -34 -37 -34l-3 2 q-3 2 -5 2q-52 -44 -111.5 -75t-128.5 -48t-139 -17q-101 0 -165 42t-64 135q0 48 43.5 76t93.5 28q55 0 79 -24.5t40 -77.5q16 -47 35 -63.5t65 -16.5q57 0 106 33t70 86q90 205 90 354v653l-28 6q-93 40 -178 62t-166 22q-60 0 -111 -32.5t-51 -90.5q0 -24 12.5 -42 t42.5 -48q53 -51 53 -92q0 -48 -39.5 -83.5t-89.5 -35.5q-69 0 -103 50t-34 120z" />
<glyph unicode="U" horiz-adv-x="1663" d="M20 1137q0 143 75 223t216 80q137 0 202 -78.5t65 -218.5q0 -82 -15.5 -182t-42.5 -232q-45 -234 -45 -315q0 -128 53 -221t174 -93q92 0 181.5 62t160.5 147q0 246 15 472t47 479q178 97 377 188l55 -29q-64 -36 -100.5 -79.5t-55.5 -93.5t-36 -134q-50 -251 -50 -532 q0 -161 32 -315t128 -154q40 0 78 38t86 103l37 -39q-55 -75 -76 -103.5t-56 -59.5t-81.5 -49.5t-108.5 -18.5q-59 0 -100.5 12t-79.5 47q-73 76 -90 162q-69 -61 -152.5 -114.5t-171 -84.5t-176.5 -31q-334 0 -334 344q0 68 9 146q10 78 26 166l31 168q35 164 35 282 q0 74 -26.5 128.5t-92.5 54.5q-68 0 -96.5 -47.5t-28.5 -118.5q0 -30 12 -82l-51 -19q-29 85 -29 142z" />
<glyph unicode="V" horiz-adv-x="1563" d="M55 1096q0 78 28.5 148t84.5 126q61 64 176 64q103 0 173.5 -89t106.5 -203.5t62 -244.5l137 -655l238 321q93 130 150 254t57 246q0 57 -23.5 103.5t-68 73t-101.5 26.5q-44 0 -85 -34t-68 -77l-45 10q19 78 69.5 138.5t122.5 93.5t150 33q69 0 131.5 -24t102.5 -73.5 t40 -118.5q0 -82 -57 -202t-127 -230t-152 -225q-142 -201 -220.5 -320t-107.5 -202l-178 -68h-26q-34 212 -67 397.5t-64 317.5q-64 287 -99 387q-27 78 -62.5 130t-94.5 52q-57 0 -84.5 -44t-49.5 -115z" />
<glyph unicode="W" horiz-adv-x="2327" d="M55 1094q0 92 40 170.5t113 126t165 47.5q158 0 249 -136.5t123.5 -319.5t32.5 -353l8 -340l222 407q76 141 119.5 304t70.5 356l166 80l25 -13q0 -400 196 -737q44 -76 73.5 -130t54.5 -107t46 -115q283 469 283 676q0 62 -20 129t-64.5 112t-110.5 45q-70 0 -133 -49 l-37 27q20 24 31.5 38.5t30.5 33.5q121 104 270 104q86 0 139.5 -38.5t77 -103.5t23.5 -147q0 -101 -75.5 -252.5t-180.5 -326.5q-56 -90 -101.5 -174t-85.5 -169.5t-80 -181.5l-153 -63l-19 6q-27 293 -192 621q-116 224 -150 313q-52 -99 -102.5 -198t-123.5 -249 t-116 -244t-94 -210l-186 -49l-25 22l-4 232q0 120 -11 281t-40.5 329t-90 288.5t-155.5 120.5q-60 0 -100.5 -46.5t-57.5 -112.5z" />
<glyph unicode="X" horiz-adv-x="1686" d="M57 1159q0 87 101 174q68 60 162.5 90.5t195.5 30.5q147 0 232 -48t130.5 -135t88.5 -235q81 137 133.5 212.5t136 140.5t184.5 65q189 0 189 -139q0 -45 -27.5 -82.5t-71.5 -44.5q-52 0 -82.5 17t-37.5 61q-12 65 -68 65q-139 0 -324 -502q34 -253 95 -421 q31 -83 56.5 -135t72 -92t110.5 -40q75 0 122 60.5t71 144.5l55 -10q-27 -108 -71 -185t-119.5 -123t-180.5 -46q-118 0 -186.5 56t-122.5 175q-50 102 -80 266q-55 -107 -101 -185.5t-110.5 -154t-146.5 -120t-182 -44.5q-81 0 -150.5 45t-69.5 121q0 44 40 80.5t83 36.5 q60 0 85.5 -28t37.5 -91q13 -67 60 -67q90 0 173.5 99.5t143.5 227t96 238.5q-37 272 -94 440q-41 126 -102 208.5t-168 82.5q-43 0 -76 -30.5t-33 -73.5q0 -17 7.5 -61.5t7.5 -59.5q0 -43 -46 -78t-92 -35q-50 0 -88.5 39.5t-38.5 89.5z" />
<glyph unicode="Y" horiz-adv-x="1417" d="M-8 1186q81 126 148.5 194t168.5 68q72 0 110.5 -33.5t47.5 -103.5q8 -58 8 -250q0 -86 7 -161.5t36 -137.5t90 -62q53 0 122 36t120.5 75.5t134.5 108.5v419l234 95l20 -4v-801q0 -98 -12 -198.5t-37 -189t-70 -173.5t-108 -148q-92 -92 -222 -144t-268 -52 q-73 0 -130.5 16t-91.5 58.5t-34 119.5q0 148 117.5 284t277 235.5t324.5 170.5v209q-88 -64 -172 -118.5t-173.5 -94t-166.5 -39.5q-108 0 -190 72q-29 27 -37 90q-8 55 -8 231v209q0 31 -19 62t-49 31q-43 0 -143 -111zM473 -2q0 -84 33.5 -133t116.5 -49q121 0 203.5 80 t120.5 198t38 238v200q-120 -52 -235.5 -131.5t-196 -184t-80.5 -218.5z" />
<glyph unicode="Z" horiz-adv-x="1544" d="M119 1061q0 105 66 192t170.5 137t207.5 50q94 0 287 -133q63 -41 95.5 -57.5t70.5 -16.5q64 0 107.5 52.5t64.5 121.5l31 6l65 -49l2 -18q-71 -71 -138.5 -145.5t-105.5 -123.5l-587 -735l16 -16q101 32 174 32q69 0 152 -31t176 -79q95 -49 157 -73.5t115 -24.5 q49 0 91 32t42 80q0 44 -25.5 60t-78.5 24q-144 19 -144 107q0 60 53.5 93.5t116.5 33.5q96 0 141.5 -60t45.5 -158q0 -114 -47 -202.5t-133.5 -138.5t-200.5 -50q-99 0 -336 113q-205 94 -315 94q-156 0 -244 -176l-90 47l829 1049q-24 -15 -90 -15q-56 0 -113.5 25 t-128.5 70q-65 42 -129.5 74t-111.5 32q-46 0 -78.5 -24.5t-32.5 -69.5q0 -31 16 -51.5t46 -40.5q30 -22 45.5 -39.5t15.5 -48.5q0 -46 -39.5 -80.5t-85.5 -34.5q-64 0 -104.5 50t-40.5 116z" />
<glyph unicode="^" horiz-adv-x="1823" d="M27 20l903 1438l20 -2l856 -1452l-168 -22l-716 1278l-721 -1256l-148 -6z" />
<glyph unicode="_" horiz-adv-x="1823" d="M14 1382l164 23l717 -1251l725 1251h147l11 -8l-881 -1422h-35z" />
<glyph unicode="f" horiz-adv-x="752" d="M-8 530l24 54q78 0 121.5 10t70 42.5t36.5 104.5t10 308q0 177 10 257.5t49 121.5t117 52t256 11v-37q-94 0 -160.5 -11.5t-101.5 -58.5q-49 -77 -49 -325q0 -144 -12.5 -237.5t-68 -168t-173.5 -94.5q102 -19 154 -74.5t73 -158.5q25 -105 25 -265q0 -97 10 -186.5 t45 -136.5q36 -42 101 -54t157 -12v-34q-170 0 -248.5 10.5t-118 49.5t-51.5 121t-12 249q0 104 -2.5 178t-15 141t-39.5 94q-49 49 -207 49z" />
<glyph unicode="g" horiz-adv-x="752" d="M49 -326q54 0 101.5 3t93 13.5t67.5 33.5q39 39 49.5 124t10.5 213q0 163 22 271q17 73 44.5 117.5t73.5 69.5t122 40q-121 27 -180.5 99.5t-75 166t-15.5 236.5q0 72 -3.5 135t-18 126.5t-43.5 92.5q-53 49 -248 49v35q307 0 371 -65q41 -42 52 -135.5t11 -233.5 q0 -106 1.5 -183t4.5 -110q9 -80 42 -120.5t85.5 -53t139.5 -12.5l-33 -49q-106 0 -154.5 -28.5t-60.5 -125.5q-8 -61 -8 -315q0 -169 -14 -250.5t-59 -121t-126 -49t-252 -9.5v36z" />
<glyph unicode="j" horiz-adv-x="502" d="M203 -350v1818l82 39v-1833z" />
<glyph unicode="n" horiz-adv-x="1180" d="M90 1448l82 35l915 -1833l-77 -45z" />
<glyph unicode="x" horiz-adv-x="1210" d="M131 47l184 62q0 -125 70.5 -192t194.5 -67q112 0 186 68.5t74 179.5q0 52 -33.5 93.5t-82 70t-115.5 55.5t-103 41q-125 52 -184 82.5t-106.5 92.5t-47.5 157q0 122 113 256q-25 68 -25 125q0 108 54 191t146.5 126.5t198.5 43.5q61 0 131 -13q58 -14 103 -54t45 -95 q0 -13 -14 -76l-140 -41l-35 21q0 90 -36 141t-123 51t-142 -65.5t-55 -153.5q0 -74 47.5 -120.5t118 -78t152.5 -67.5q25 -12 105.5 -46t129.5 -63t84 -76.5t35 -113.5q0 -79 -32 -150t-89 -125l-12 12q53 -64 53 -167q0 -106 -61 -192t-159.5 -132.5t-203.5 -46.5 q-101 0 -193 24t-156 83.5t-77 158.5zM258 762q0 -50 31.5 -91t82.5 -73t97 -51t106 -43q271 -111 332 -164q49 58 49 135q0 96 -89 153.5t-224 108.5q-49 19 -110 43.5t-118.5 54t-84.5 56.5q-72 -76 -72 -129z" />
<glyph unicode="&#xa1;" horiz-adv-x="1778" d="M109 483l36 78h1516l-31 -78h-1521z" />
<glyph unicode="&#xbb;" horiz-adv-x="1296" d="M51 492q58 95 129.5 156t165.5 61q70 0 153 -34.5t163 -80.5l172 -94q54 -28 91.5 -41t82.5 -13q63 0 121.5 41.5t74.5 100.5l43 -25q-42 -84 -110.5 -142.5t-153.5 -58.5q-65 0 -122.5 19t-125.5 55l-233 129q-98 58 -187 58q-84 0 -125.5 -32t-93.5 -116z" />
<glyph unicode="&#x2000;" horiz-adv-x="753" />
<glyph unicode="&#x2001;" horiz-adv-x="1507" />
<glyph unicode="&#x2002;" horiz-adv-x="753" />
<glyph unicode="&#x2003;" horiz-adv-x="1507" />
<glyph unicode="&#x2004;" horiz-adv-x="502" />
<glyph unicode="&#x2005;" horiz-adv-x="376" />
<glyph unicode="&#x2006;" horiz-adv-x="251" />
<glyph unicode="&#x2007;" horiz-adv-x="251" />
<glyph unicode="&#x2008;" horiz-adv-x="188" />
<glyph unicode="&#x2009;" horiz-adv-x="301" />
<glyph unicode="&#x200a;" horiz-adv-x="83" />
<glyph unicode="&#x202f;" horiz-adv-x="301" />
<glyph unicode="&#x205f;" horiz-adv-x="376" />
<glyph unicode="&#xe000;" horiz-adv-x="1430" d="M0 1430h1430v-1430h-1430v1430z" />
</font>
</defs>
</svg>
