<?xml version="1.0" standalone="no"?>
<!DOCTYPE svg PUBLIC "-//W3C//DTD SVG 1.1//EN" "http://www.w3.org/Graphics/SVG/1.1/DTD/svg11.dtd" >
<svg xmlns="http://www.w3.org/2000/svg">
<metadata>
This is a custom SVG webfont generated by Font Squirrel.
Copyright   : Copyright C 1994 1995 Basil K Malyshev All Rights Reserved012BaKoMa Fonts Collection LevelC
</metadata>
<defs>
<font id="eusm9Regular" horiz-adv-x="682" >
<font-face units-per-em="2048" ascent="1638" descent="-410" />
<missing-glyph horiz-adv-x="500" />
<glyph unicode=" " />
<glyph unicode="0" horiz-adv-x="0" />
<glyph unicode=":" horiz-adv-x="1460" d="M53 752v84h1286v-414l-69 -2l-33 301q-3 20 -19.5 25.5t-46.5 5.5h-1118z" />
<glyph unicode="&#x3c;" horiz-adv-x="1765" d="M57 33q171 217 285 217q52 0 160 -121q115 66 169.5 167.5t67.5 209t13 276.5q0 140 -37 260q-34 115 -119.5 195t-198.5 80q-77 0 -140.5 -46t-63.5 -118q0 -38 24.5 -75.5t77.5 -98.5q102 -107 102 -174q0 -131 -237 -273l-45 33q125 68 125 164q0 22 -90 141 q-93 118 -93 164q0 104 75.5 197t186.5 149t216 56q123 0 224.5 -79t141.5 -200l8 19q106 121 207 190.5t223 69.5q88 0 124 -51t48 -146q5 -37 8 -66t12.5 -49t31.5 -31.5t63 -11.5q34 0 66 6l22 -32q-234 -84 -420 -228q99 0 193 -77q6 -147 13 -255t22 -147 q57 -174 112 -174q15 0 125 43v-33l-282 -207l-138 240q1 21 2.5 51.5t3 66.5t1.5 66q0 112 -12.5 179t-63.5 108t-158 41q-53 0 -192 -33l-5 2q-39 -271 -153 -438q-90 -68 -352 -283q-54 51 -91 80t-69 29q-47 0 -87.5 -23.5t-70.5 -62.5zM922 752l202 75q38 18 97.5 46 t118.5 56.5t73.5 35.5t28.5 14q-37 4 -58.5 18.5t-31.5 38t-14.5 56.5t-8.5 61q-23 164 -125 164q-62 0 -113.5 -44t-81.5 -92t-77 -137l-4 -6q4 -52 4 -82q0 -92 -10 -204z" />
<glyph unicode="=" horiz-adv-x="1182" d="M63 999q50 141 90.5 225.5t115 148t186.5 63.5q93 0 329 -109q76 -33 113 -33q69 0 217 109l23 -33q-165 -144 -330 -227q-53 20 -90 33t-105 37t-117.5 36.5t-84.5 12.5q-78 0 -136.5 -40t-100 -103.5t-71.5 -139.5zM80 33q93 125 227 239q16 29 33 29t25 -28.5 t26 -81.5t56 -84t110 -31q78 0 140 58t85 138q25 79 25 185q0 108 -23 260q-16 122 -16 186q0 26 4 76q149 156 285 240l35 -11q-150 -137 -150 -229q2 -21 4 -54t6 -77q12 -70 23.5 -157.5t11.5 -158.5q0 -228 -125 -348q-216 -207 -452 -207q-39 0 -74.5 13.5t-63 32.5 t-67.5 53l-113 -76z" />
<glyph unicode="@" horiz-adv-x="1653" d="M166 1004v403h65q20 -179 211 -326l539 -411v49q0 104 35.5 199.5t105.5 164.5q-89 0 -134.5 18t-45.5 91v217h51q14 -50 42 -65t83 -15h256q37 0 65.5 -23.5t28.5 -58.5v-200l-32 -13q-43 58 -95 58h-131q-65 -28 -89.5 -158.5t-24.5 -255.5q0 -90 65 -152 q36 -35 76.5 -66.5t75 -56.5t71.5 -51t84 -59l-43 -291h-45q-93 89 -200.5 184t-219.5 185.5t-223 172t-217 150.5l-18 -4q-51 -51 -87 -103.5t-36 -103.5q0 -144 94 -200q73 -45 227 -45l-36 -236h-463l65 213q0 153 9 224.5t48.5 140.5t135.5 163q-107 81 -293 261z" />
<glyph unicode="A" horiz-adv-x="1645" d="M-18 172q0 45 27 70.5t71 25.5q30 0 55 -18.5t25 -46.5q0 -13 -4 -33q-6 -24 -6 -51q0 -24 24 -40t51 -16q59 0 104.5 58.5t84.5 138.5q26 58 176 422q21 50 70 159t85.5 179.5t83 142t91.5 115.5q125 125 401 125l4 -12q-53 -45 -53 -82q-8 -101 -8 -615q0 -53 0.5 -107 t1.5 -108q3 -109 12 -217q0 -57 24 -103t74 -46q72 0 172 96l25 -41q-210 -199 -328 -199q-121 0 -121 189v161v162h-479q-28 -52 -82.5 -154.5t-109.5 -176t-125.5 -122t-155.5 -48.5q-80 0 -135 56t-55 136zM690 569h432l-6 740l-8 16q-49 -14 -88 -42.5t-68.5 -68 t-49.5 -79t-48 -103.5q-66 -151 -164 -463z" />
<glyph unicode="B" horiz-adv-x="1624" d="M88 977q0 89 50 163.5t126.5 125.5t170.5 83.5t175 43.5l148 67l8 -59q38 0 104 -2.5t124 -9t106 -15.5q121 -22 188.5 -76t67.5 -168q0 -76 -34 -142.5t-91 -118.5t-129 -87l6 -14q143 0 245.5 -78.5t102.5 -218.5q0 -114 -59.5 -204t-159 -151t-214.5 -91.5t-220 -30.5 h-633l29 53l28 53q145 0 275 125q35 34 53.5 80.5t30.5 102.5q30 130 30 319v596q-73 0 -162.5 -33t-152.5 -92.5t-63 -132.5q0 -26 12 -68q12 -44 12 -57q0 -43 -25.5 -69.5t-68.5 -26.5q-42 0 -61 42.5t-19 90.5zM496 100h168q42 -1 83 -1.5t82 -0.5q147 0 249 25t161 101 t59 222q0 104 -58.5 165t-146 84.5t-192.5 23.5q-94 0 -143 -6q-17 -130 -46 -235t-82.5 -201.5t-133.5 -176.5zM766 803q0 -27 53 -27q155 0 271 75t116 226q0 113 -65.5 169.5t-160.5 72.5t-214 16v-532z" />
<glyph unicode="C" horiz-adv-x="1284" d="M147 641q0 361 162 576t510 215q176 0 276.5 -66.5t100.5 -232.5q0 -105 -46.5 -185.5t-130.5 -125t-185 -44.5q-112 0 -192.5 42.5t-80.5 142.5q0 98 90 98q32 0 57 -16t25 -48q0 -20 -6 -43q-4 -24 -4 -34q0 -47 27 -63.5t75 -16.5q109 0 166.5 78t57.5 190 q0 128 -71 194t-198 66q-141 0 -234.5 -57t-146 -154.5t-72.5 -213t-20 -251.5q0 -107 23.5 -218.5t76.5 -212t137.5 -161.5t198.5 -61q122 0 197.5 68.5t101.5 189.5l23 14l98 -96q-45 -91 -117 -145t-163.5 -77.5t-192.5 -23.5q-182 0 -304.5 93t-180.5 245.5t-58 333.5z " />
<glyph unicode="D" horiz-adv-x="1772" d="M102 1001q0 126 90 218t223 139t255 47l123 63l8 -12v-43q486 0 684 -190q78 -77 111.5 -185.5t33.5 -236.5q0 -166 -65.5 -312t-182 -254t-266.5 -167.5t-315 -59.5h-623l60 101q91 0 176.5 36.5t150.5 100.5q90 90 90 463v632q-81 0 -173.5 -26t-160 -80t-67.5 -135 q0 -22 8 -68q8 -40 8 -67q0 -41 -23 -71t-61 -30q-84 0 -84 137zM512 109h289q350 0 512 164t162 515q0 302 -179.5 426.5t-494.5 124.5v-477q0 -457 -195 -657z" />
<glyph unicode="E" horiz-adv-x="1296" d="M147 352q0 116 56 205.5t151.5 145.5t208.5 71v21q-121 40 -182.5 113t-61.5 194q0 60 161 89t325 36t244 8q0 -56 -38.5 -109t-90.5 -53q-78 0 -78 64q0 22 26 61q27 38 27 70q0 59 -56 84.5t-122 25.5q-76 0 -135 -42.5t-90 -111.5t-31 -147q0 -113 63 -176t157 -84.5 t210 -21.5v-52q-169 0 -289 -28q-131 -31 -207 -116t-76 -216q0 -116 46.5 -190.5t130.5 -109t200 -34.5q71 0 140 34.5t116.5 93.5t61.5 130l24 8l95 -98q-10 -18 -15.5 -29t-14 -25t-18.5 -24q-84 -79 -195.5 -121.5t-227.5 -42.5q-218 0 -366.5 86.5t-148.5 290.5z" />
<glyph unicode="F" horiz-adv-x="1384" d="M80 168q0 38 31 64t69 26q33 0 49 -18t33 -56q18 -43 47 -72.5t68.5 -45t85.5 -15.5q62 0 117.5 33t109.5 86q115 115 115 360v170h-350l41 62h309v547q-90 22 -152 22q-61 0 -124 -15.5t-117 -46t-88.5 -77.5t-34.5 -109q0 -45 8 -84q4 -11 8.5 -23.5t7 -22t2.5 -21.5 q0 -36 -24 -65t-60 -29q-47 0 -73.5 35.5t-26.5 87.5q0 147 85.5 245t219 143.5t273.5 45.5q47 0 96 -11l149 52v-70q39 -8 80.5 -17.5t102 -22.5t117.5 -22.5t89 -9.5q47 0 80 47l47 72l37 -16l-86 -152q-39 -69 -94 -69q-33 0 -143 30t-230 68v-510h308l-60 -64h-248v-92 q0 -133 -35.5 -252t-117.5 -198q-94 -90 -210.5 -139.5t-242.5 -49.5q-90 0 -179 57.5t-89 141.5z" />
<glyph unicode="G" horiz-adv-x="1288" d="M154 -29q0 45 31 68.5t77 23.5q41 0 59 -25.5t27 -72.5q19 -86 76 -120.5t149 -34.5q103 0 180 44t123 115t68.5 163.5t22.5 186.5v31l-4 189q-121 -84 -304 -84q-149 0 -256 56t-165 163.5t-58 255.5q0 97 42.5 191t115.5 165q149 141 442 141q145 0 241.5 -53 t96.5 -186q0 -59 -31.5 -111t-83.5 -82t-112 -30q-13 0 -98 16l4 35q91 0 133.5 33.5t42.5 119.5q0 60 -36.5 103.5t-94 65.5t-115.5 22q-115 0 -204 -58t-137 -156.5t-48 -213.5q0 -110 36.5 -204t113.5 -153t188 -59q140 0 223.5 61.5t110.5 194.5l106 27q0 -88 -0.5 -143 t-1.5 -121q0 -462 -151 -613q-64 -62 -140.5 -104.5t-163.5 -65t-172 -22.5q-130 0 -231.5 61t-101.5 180z" />
<glyph unicode="H" horiz-adv-x="1886" d="M70 143q0 32 24 53t58 21q41 0 59.5 -12t34.5 -49q20 -48 50 -68t81 -20q134 0 201 118t85.5 265.5t18.5 306.5v573q-132 0 -221 -20q-56 -14 -99 -38.5t-72.5 -64.5t-29.5 -92q0 -44 8 -80l19 -80q0 -38 -24.5 -66t-61.5 -28q-88 0 -88 176q0 118 120 236 q146 137 449 137q61 0 134.5 -3.5t113.5 -4.5l-4 -27l-103 -45v-540h488q27 146 78.5 286.5t142.5 242t225 101.5q28 0 54.5 -8t43.5 -27t17 -49q0 -32 -25 -62t-57 -30q-22 0 -49 25q-37 35 -82 35q-101 0 -152 -150t-64 -318.5t-13 -326.5q0 -69 6.5 -141t19.5 -131 q20 -90 49 -134.5t99 -44.5q32 0 85.5 57.5t75.5 98.5l37 -33q-54 -83 -82 -118.5t-77 -63t-121 -27.5q-142 0 -189 151t-47 339q0 19 1 42t5.5 98t7.5 112h-477q0 -172 -41 -321t-141 -249q-77 -76 -167 -122t-187 -46q-77 0 -147 46.5t-70 119.5z" />
<glyph unicode="I" horiz-adv-x="918" d="M57 139q0 47 16.5 69.5t59.5 22.5q35 0 49.5 -23.5t24.5 -64.5q10 -46 36.5 -66t73.5 -20q93 0 155.5 76.5t88.5 177.5q31 120 31 297v729q-139 0 -266 -43t-127 -153q0 -24 6 -45q18 -56 18 -72q0 -32 -21 -58t-52 -26q-43 0 -65 43t-22 88q0 197 190 268.5t425 71.5 q29 0 89 -5t89 -7l-29 -39l-100 -23v-714q0 -342 -180 -523q-62 -61 -130.5 -95t-140.5 -34q-83 0 -151 44.5t-68 123.5z" />
<glyph unicode="J" horiz-adv-x="1079" d="M59 -35q0 88 34 177.5t91.5 169.5t126.5 149q162 159 414 254v626q-163 -19 -270 -94.5t-107 -224.5q0 -96 -24 -121q-39 -37 -60 -37q-41 0 -64.5 33.5t-23.5 77.5q0 122 119 235q73 72 165.5 120t193.5 71.5t208 23.5h127l6 -24l-133 -43v-905q0 -158 -36 -298.5 t-126 -230.5q-84 -82 -179 -135t-193 -53q-118 0 -193.5 57t-75.5 172zM203 39q0 -104 44 -158.5t146 -54.5q110 0 188 77.5t111 188.5q33 114 33 268q0 48 -0.5 78t-1.5 66q-4 94 -4 141q-95 -35 -188 -93.5t-167 -136.5t-117.5 -175t-43.5 -201z" />
<glyph unicode="K" horiz-adv-x="1755" d="M61 141q0 34 24 57t56 23q37 0 53.5 -11t36.5 -44q59 -94 134 -94q97 0 168.5 73t101.5 174q33 110 33 250v764q-106 0 -196.5 -26t-156.5 -88q-55 -61 -55 -111q0 -34 10 -76q9 -54 9 -65q0 -103 -86 -103q-93 0 -93 148q0 107 63 185t163 125t212.5 69t211.5 22 q27 0 172 -10l-15 -27l-94 -43v-612h37l321 420q57 72 115 132.5t128 107t134 46.5q36 0 71.5 -17.5t58 -46.5t22.5 -65q0 -41 -33.5 -71.5t-75.5 -30.5q-37 0 -57 45q-21 47 -68 47q-99 0 -235 -178l-252 -330l-10 -14l4 -37l196 -356q30 -54 76 -118.5t102.5 -116.5 t100.5 -52q39 0 69 16.5t50.5 45.5t38.5 67l39 -33q-30 -87 -100 -147t-156 -60q-91 0 -149.5 47.5t-109.5 139.5l-266 500h-57q0 -102 -20 -196.5t-62.5 -180t-112.5 -156.5q-148 -145 -323 -145q-86 0 -157 39.5t-71 117.5z" />
<glyph unicode="L" horiz-adv-x="1526" d="M66 51q0 206 145 303q42 28 84 74q36 43 48 145.5t19 272.5q0 130 34 260.5t104 210.5q99 108 299 108q65 0 119.5 -22t87 -68t32.5 -114q0 -32 -25.5 -59t-56.5 -27q-48 0 -67 20.5t-27 69.5q-6 34 -27.5 63.5t-53.5 46.5t-68 17q-81 0 -118 -51t-54 -140 q-20 -107 -23 -252q-2 -80 -6.5 -145.5t-17.5 -138.5q-13 -67 -33.5 -111t-55.5 -78t-94 -76l64 -2q33 0 92.5 -21t143 -57.5t100.5 -43.5q105 -44 190.5 -67.5t167.5 -23.5q78 0 162 84q38 38 49.5 93t11.5 129q0 61 -6 86l43 10q3 -14 10 -47t10 -53t3 -35 q-2 -69 -11.5 -121t-31.5 -100.5t-62 -88.5q-120 -116 -239 -116q-49 0 -114.5 20t-118.5 43.5t-140 65.5q-252 127 -332 127v4l-2 4q-85 0 -129 -72t-55 -172l-49 23z" />
<glyph unicode="M" horiz-adv-x="2095" d="M55 117q0 36 25.5 63t58.5 27q28 0 49.5 -16t32.5 -41q29 -56 88 -56q65 0 110.5 65.5t67.5 143.5q29 106 29 256v676q-33 36 -79 59t-93 23q-88 0 -137.5 -66t-69.5 -164h-43q22 151 95 247t214 96q57 0 110.5 -23t95.5 -51.5t40 -28.5q91 -89 163.5 -202t124.5 -237 t86 -255.5t54 -263.5l10 -9q44 161 113.5 334t169 336.5t232.5 272t282 108.5q44 0 87.5 -24t43.5 -66q0 -36 -26.5 -60t-63.5 -24q-32 0 -45.5 11.5t-26.5 35.5q-9 23 -21 35t-40 12q-29 0 -50 -17.5t-32.5 -45t-11.5 -54.5v-661q0 -100 7 -208t38.5 -204t93.5 -96 q80 0 172 141l39 -30q-52 -77 -127.5 -143t-146.5 -66q-101 0 -145.5 71t-55.5 181q-8 77 -8 553q0 100 -2 151q0 50 -0.5 81.5t-1.5 68.5q0 86 2 127q-103 -101 -181.5 -237.5t-131.5 -286t-87 -299.5t-59 -320l-94 -72l-19 15q-112 903 -395 1177v-461q0 -143 -28.5 -309 t-109.5 -289t-222 -123q-57 0 -119 43t-62 99z" />
<glyph unicode="N" horiz-adv-x="1651" d="M59 102q0 35 24.5 66t57.5 31q34 0 50.5 -13.5t37.5 -48.5q18 -28 62 -28q83 0 132.5 73t68.5 166q26 122 26 311v529q-130 125 -219 125q-92 0 -131 -55t-62 -160l-47 -11q0 164 70 254.5t231 90.5q136 0 248.5 -117t245.5 -311q50 -72 124 -187.5t197.5 -312.5 t155.5 -250l6 25q0 110 -0.5 165t-1.5 136t-2.5 177t-1.5 177q0 104 5.5 179.5t30.5 153.5t80 126.5t146 48.5q44 0 80.5 -28.5t36.5 -72.5t-16 -51l-70 -30q-30 0 -46 10.5t-28 40.5q-16 35 -45 35q-43 0 -61.5 -37t-24.5 -92q-5 -40 -10 -318q-2 -166 -2.5 -270.5 t-2.5 -229.5q1 -92 2 -168.5t1 -199.5l-94 -60q-61 117 -155 280.5t-175 293t-183 277t-196 268.5v-318q0 -249 -47 -426q-34 -142 -122 -253t-218 -111q-57 0 -107.5 33.5t-50.5 86.5z" />
<glyph unicode="O" horiz-adv-x="1509" d="M150 635q0 504 342 717l28 -27q-117 -114 -170 -272.5t-53 -337.5q0 -193 41 -336q29 -99 82.5 -174.5t133.5 -120.5t179 -45q257 0 360 216.5t103 506.5q0 86 -10.5 180t-40.5 184.5t-87.5 149.5t-146.5 59q-91 0 -165 -53t-74 -141q0 -64 49 -121q24 -28 36.5 -49 t12.5 -53q0 -31 -26.5 -50.5t-59.5 -19.5q-66 0 -96.5 56.5t-30.5 125.5q0 104 49 190t133.5 133.5t190.5 47.5q160 0 253 -95.5t128 -239t35 -302.5q0 -172 -37.5 -315.5t-117.5 -254.5t-208.5 -174t-306.5 -63q-188 0 -350 162q-62 62 -102 148t-57 180t-17 188z" />
<glyph unicode="P" horiz-adv-x="1409" d="M90 1008q0 139 84 230.5t213.5 134t265.5 42.5l135 53v-55q163 0 302 -35q94 -25 153 -64.5t88 -103.5t29 -157q0 -113 -48.5 -201t-129.5 -145t-182.5 -86t-211.5 -29v-121q0 -217 -99.5 -355.5t-307.5 -138.5q-63 0 -114 22.5t-82 66.5t-31 106q0 92 94 92 q38 0 55.5 -13t22 -35t4.5 -64q0 -109 102 -109q75 0 127.5 66t69.5 147q24 96 24 244v848q-115 0 -209 -25q-85 -21 -149 -81.5t-64 -143.5q0 -23 15.5 -76t15.5 -66q0 -36 -23 -64t-61 -28q-88 0 -88 144zM788 653q127 0 224 40.5t149.5 126.5t52.5 216q0 170 -123 241 t-303 71v-695z" />
<glyph unicode="Q" horiz-adv-x="1413" d="M154 836q0 145 41.5 257.5t120.5 188.5t192 115t256 39q506 0 506 -590q0 -115 -29 -223t-85.5 -200.5t-142.5 -161t-194 -101.5l209 -62q50 -12 80 -12q36 0 69.5 29.5t58 69.5t40.5 81l37 -18q-14 -60 -45 -122.5t-78.5 -105.5t-102.5 -43q-86 0 -126 11l-408 84 q-72 16 -135 16q-78 0 -122.5 -32.5t-68.5 -108.5l-45 20q33 91 64 141.5t84 78.5t141 28q70 0 100 -4q86 -12 134 -12q140 0 237 89.5t137 229.5q39 135 39 326q0 240 -78 383t-297 143q-199 0 -297 -96q-149 -150 -149 -455q0 -103 29 -194t94 -156q38 -35 82.5 -54 t109.5 -34l-18 -43q-130 0 -231 69.5t-155 184t-54 244.5z" />
<glyph unicode="R" horiz-adv-x="1542" d="M63 143q0 35 24.5 60.5t59.5 25.5q42 0 91 -75q16 -31 32 -47t37 -21.5t60 -5.5q116 0 182.5 80.5t90.5 195t24 230.5v751q-81 0 -175 -26t-162.5 -80t-68.5 -133q0 -27 12.5 -72.5t12.5 -64.5q0 -34 -27 -63.5t-61 -29.5q-44 0 -69.5 43t-25.5 88q0 131 88 223 t219 138.5t259 46.5l143 66v-60q178 0 307 -27q138 -28 201 -99.5t63 -211.5q0 -162 -95.5 -267.5t-260.5 -156.5l86 -205q31 -69 72 -141t95 -131t101 -59q37 0 66.5 36t42.5 76l29 -22q-26 -84 -79 -151.5t-128 -67.5q-74 0 -115 41q-70 70 -102 141l-201 453l-82 8 q-17 -101 -39.5 -187.5t-60 -169t-88.5 -133.5q-164 -155 -340 -155q-82 0 -150 41.5t-68 117.5zM809 692q12 0 18.5 -0.5t18.5 -1.5t26 -2.5t25 -1.5q103 0 178 49t113.5 132t38.5 184q0 133 -53 195.5t-135.5 76.5t-229.5 14v-645z" />
<glyph unicode="S" horiz-adv-x="1155" d="M100 287q0 149 75 221t224 72q70 0 127.5 -26t57.5 -87q0 -33 -21.5 -55.5t-54.5 -22.5q-57 0 -74 64q-9 36 -27.5 50.5t-56.5 14.5q-68 0 -99.5 -45t-31.5 -115q0 -124 86 -221.5t209 -97.5q88 0 170.5 40t134 112.5t51.5 162.5q0 72 -14.5 126t-52.5 89 q-100 97 -217 144q-116 47 -197.5 96t-136.5 126t-55 185q0 171 128 248.5t308 77.5q142 0 233.5 -48.5t91.5 -178.5q0 -50 -30.5 -91.5t-79 -64.5t-96.5 -23q-26 0 -78 13l4 28q55 0 97 39.5t42 93.5t-32 90t-81 53t-100 17q-108 0 -187 -54.5t-79 -158.5q0 -79 49 -144.5 t116.5 -108.5t162.5 -85q171 -75 265.5 -160t94.5 -235q0 -109 -46.5 -196.5t-125.5 -147t-176.5 -89.5t-202.5 -30q-96 0 -182.5 38.5t-139.5 113t-53 170.5z" />
<glyph unicode="T" horiz-adv-x="1251" d="M55 1030q0 82 41 153t108 120.5t148 76.5t162 27q46 0 116 -14t206 -45q244 -60 356 -60q50 0 99.5 40t82.5 93l43 -22q-34 -67 -72 -119.5t-91 -87.5t-119 -35q-48 0 -248 39v-549q0 -203 -41 -338q-42 -148 -140 -240t-245 -92q-101 0 -159 48.5t-58 146.5 q0 35 31 64.5t65 29.5q31 0 55.5 -19.5t24.5 -49.5q0 -21 -2 -29q-2 -10 -2 -29q0 -43 26 -67.5t72 -24.5q140 0 181.5 141.5t41.5 333.5v709q-36 8 -109 27.5t-127 29.5t-104 10q-215 0 -215 -188q0 -27 21.5 -52t43 -49.5t21.5 -52.5q0 -27 -33.5 -58.5t-60.5 -31.5 q-52 0 -85.5 54t-33.5 110z" />
<glyph unicode="U" horiz-adv-x="1524" d="M53 1143q0 83 27 145.5t82 99.5t137 37q130 0 174.5 -86t44.5 -231q0 -168 -57 -424q-10 -50 -20.5 -108.5t-15.5 -99.5t-5 -89q0 -133 48.5 -232.5t170.5 -99.5q65 0 131.5 37t120.5 90t106 117q0 122 5 226t18 268t26 288.5t21 206.5q55 35 128 74t140 65l35 -22 q-81 -45 -117.5 -111.5t-60.5 -175.5q-53 -253 -53 -624q0 -143 22 -238q17 -64 47.5 -118t75.5 -54q50 0 87 40t67 99l32 -26q-50 -108 -107.5 -169t-154.5 -61q-147 0 -204 248q-112 -116 -219 -181t-238 -65q-55 0 -109.5 23.5t-99.5 66.5q-66 65 -66 238q0 93 12 183.5 t35 199.5q54 228 54 397q0 82 -31.5 158t-101.5 76q-61 0 -93 -56t-32 -122q0 -20 4.5 -55t5.5 -64l-59 -19q-13 71 -13 148z" />
<glyph unicode="V" horiz-adv-x="1417" d="M57 1096q43 348 262 348q67 0 113.5 -44.5t76.5 -113t48.5 -145t28.5 -135.5l145 -781l25 6l268 414q186 289 186 500q0 79 -43.5 133.5t-122.5 54.5q-87 0 -128 -53.5t-62 -149.5l-47 7q16 90 53 158.5t101.5 110.5t152.5 42q109 0 178.5 -64.5t69.5 -171.5 q0 -108 -88 -273t-217 -368q-139 -221 -200.5 -324.5t-113.5 -217.5l-110 -58l-15 19q-6 106 -19.5 205.5t-34 220.5t-40.5 229q-23 121 -40 202.5t-49.5 189.5t-80 185.5t-104.5 77.5q-73 0 -97 -53.5t-44 -156.5z" />
<glyph unicode="W" horiz-adv-x="2109" d="M53 1096q0 87 25 164t82 126.5t145 49.5q223 0 291 -390t68 -788h18l174 336q258 496 258 782l119 68l24 -17q-18 -88 -18 -180q0 -133 40.5 -271.5t109.5 -281.5q116 -237 172 -446q76 131 122.5 216.5t98.5 197t86.5 224t34.5 193.5q0 145 -52 199q-63 61 -116 61 q-80 0 -146 -77l-39 16q1 1 20 28t32 40q109 102 231 102q66 0 116.5 -41.5t77.5 -107t27 -130.5q0 -77 -40 -187t-93 -216t-106 -201q-165 -298 -250 -530l-101 -47l-18 10q-19 269 -164 582q-86 185 -166 411q-132 -253 -211 -444q-43 -107 -109 -251t-126 -261 q-5 -8 -27 -19t-45 -19.5t-39 -14.5l-24 16q0 263 -10.5 460t-43.5 382q-24 146 -86.5 301t-158.5 155q-62 0 -89.5 -56.5t-44.5 -145.5z" />
<glyph unicode="X" horiz-adv-x="1528" d="M102 131q0 37 23 65.5t59 28.5q35 0 57.5 -25t30.5 -61q9 -32 36.5 -50.5t58.5 -18.5q88 0 167.5 97.5t133.5 220.5t88 233q-15 111 -25.5 178.5t-27 146t-39.5 156.5q-35 127 -84.5 204.5t-149.5 77.5q-66 0 -119 -28t-53 -88q0 -17 5.5 -42t11 -42.5t9 -29t3.5 -24.5 q0 -32 -25.5 -54.5t-56.5 -22.5q-84 0 -84 129q0 90 55 151.5t139 91t170 29.5q89 0 145 -25t91.5 -76.5t64.5 -135.5q42 -126 66 -302q205 537 461 537q60 0 113 -31.5t53 -89.5q0 -33 -26.5 -65.5t-57.5 -32.5q-24 0 -36.5 10.5t-25.5 38.5q-10 25 -36.5 41t-57.5 16 q-91 0 -167 -112t-123.5 -250t-71.5 -252q34 -226 90 -389q24 -69 48.5 -122t66 -90.5t100.5 -37.5q48 0 90.5 42.5t68 102.5t25.5 107l47 -8q0 -81 -41 -163t-111.5 -133.5t-154.5 -51.5q-72 0 -117 23t-72.5 64.5t-56.5 114.5q-49 122 -88 281q-81 -211 -193 -350.5 t-288 -139.5q-69 0 -129 43.5t-60 112.5z" />
<glyph unicode="Y" horiz-adv-x="1270" d="M51 1223q43 62 77.5 103.5t82 75.5t100.5 34q60 0 78.5 -44.5t18.5 -115.5q0 -99 -7 -182q-2 -60 -4 -106t-2 -77q0 -110 34 -183t132 -73q41 0 97.5 25.5t114.5 70t98 94.5t44 89q1 108 2 233.5t1 196.5l116 66l29 -21q-3 -100 -5.5 -223t-5 -241t-4 -227t-1.5 -210 q0 -96 -11.5 -180t-38.5 -168t-70.5 -157.5t-105.5 -135.5q-68 -68 -150.5 -109t-170.5 -41q-89 0 -155 52.5t-66 140.5q0 68 36.5 140t86 132t114.5 125q55 51 144 106.5t255 151.5v232q-86 -107 -199.5 -173.5t-238.5 -66.5q-84 0 -160 76q-38 39 -49.5 88.5t-11.5 116.5 q0 51 4 153q1 39 1.5 70.5t0.5 81.5q0 16 2 46t2 46q0 27 -8.5 41t-34.5 14q-36 0 -129 -88zM418 -39q0 -84 35 -129t120 -45q104 0 179.5 99.5t109.5 219.5q45 158 45 375q-78 -30 -163.5 -81.5t-161 -121.5t-120 -150t-44.5 -167z" />
<glyph unicode="Z" horiz-adv-x="1401" d="M125 66l737 968q54 66 72 101q-12 -5 -57 -5q-56 0 -232 121q-106 70 -176 70q-64 0 -121 -44.5t-57 -109.5q0 -20 24 -73l31 -76q0 -32 -25 -58t-59 -26q-55 0 -74.5 35.5t-19.5 93.5q0 81 56.5 168.5t144 144t168.5 56.5q84 0 227 -99l75 -50q36 -24 79 -47.5t69 -23.5 q29 0 50 28t41.5 72t25.5 46l18 4l17 -4l32 -29l11 -12l2 -17q-2 0 -10 -7.5t-17 -18.5l-72 -74l-731 -952q117 35 181 35q55 0 106 -18.5t119 -53.5l237 -123q73 -33 99 -33q61 0 110 49q17 17 17 64q0 29 -33 76q-7 12 -15 25t-13 26t-5 24q0 31 25.5 51.5t56.5 20.5 q46 0 77.5 -39.5t31.5 -87.5q0 -133 -113.5 -215t-251.5 -82q-55 0 -115 31l-153 80q-88 46 -162.5 75t-138.5 29q-109 0 -154 -65l-61 -101l-27 -4l-37 25z" />
<glyph unicode="^" horiz-adv-x="1653" d="M25 20l817 1438l20 -2l776 -1452l-151 -22l-649 1278l-656 -1256l-135 -6z" />
<glyph unicode="_" horiz-adv-x="1653" d="M12 1382l150 23l649 -1251l657 1251h136l8 -8l-799 -1422h-31z" />
<glyph unicode="f" d="M-6 530l22 54q104 0 149 29t56 128q10 72 10 308q0 126 9.5 221.5t46.5 154.5q44 44 131.5 55t204.5 11v-37q-87 0 -147 -11.5t-91 -58.5q-45 -79 -45 -325q0 -101 -4.5 -171.5t-26 -141t-68.5 -120.5t-130 -67q65 -15 105.5 -44.5t63 -74t35.5 -114.5q23 -107 23 -265 q0 -254 49 -323q33 -42 92 -54t144 -12v-34q-113 0 -198 10.5t-132 48.5q-39 48 -50.5 147.5t-11.5 223.5q0 104 -2.5 179.5t-14.5 142.5t-36 91q-45 49 -184 49z" />
<glyph unicode="g" d="M45 -326q80 0 140.5 7.5t95.5 37.5q27 27 39.5 82.5t15 115t2.5 144.5q0 161 20 271q14 70 37.5 113.5t67 71.5t110.5 42q-85 21 -135.5 71t-73.5 119t-28.5 138t-5.5 174q0 150 -17 237q-19 115 -75 140.5t-193 25.5v35q154 0 231.5 -17t112 -61t42 -117t7.5 -239 q0 -106 1.5 -183t4.5 -110q0 -75 31 -115.5t83 -55.5t128 -15l-31 -49q-99 0 -141.5 -30t-52.5 -124q-8 -61 -8 -315q0 -310 -66 -377q-46 -35 -137.5 -44t-204.5 -9v36z" />
<glyph unicode="j" horiz-adv-x="455" d="M184 -350v1818l74 39v-1833z" />
<glyph unicode="n" horiz-adv-x="1069" d="M82 1448l74 35l829 -1833l-70 -45z" />
<glyph unicode="x" horiz-adv-x="1098" d="M119 47l166 62q0 -122 60.5 -190.5t178.5 -68.5q108 0 173 70.5t65 177.5q0 52 -29.5 92t-75 70.5t-107.5 57.5t-91 40q-110 49 -168 83t-98.5 94t-40.5 155q0 117 104 256q-23 67 -23 125q0 103 46.5 185.5t129 129t185.5 46.5q97 0 174.5 -36.5t77.5 -125.5 q0 -6 -4.5 -31.5t-7.5 -44.5l-127 -41l-31 21q0 192 -146 192q-79 0 -127.5 -67t-48.5 -152q0 -74 41.5 -119.5t102.5 -76t143 -70.5q23 -12 96.5 -47t118.5 -65t75 -76t30 -111q0 -80 -28 -151t-81 -124l-8 6q47 -60 47 -161t-53 -186t-142.5 -135t-189.5 -50 q-96 0 -180 25.5t-140.5 86t-66.5 154.5zM233 762q0 -50 27.5 -89.5t71.5 -70.5t101.5 -58t86.5 -40q241 -106 301 -164q45 57 45 135q0 64 -43.5 113.5t-96 79t-142.5 69.5q-41 18 -98 43t-108 53t-79 58q-33 -40 -49.5 -67.5t-16.5 -61.5z" />
<glyph unicode="&#xa0;" />
<glyph unicode="&#xa1;" horiz-adv-x="1614" d="M98 483l35 78h1374l-28 -78h-1381z" />
<glyph unicode="&#xbb;" horiz-adv-x="1176" d="M47 492q117 217 266 217q45 0 95 -17.5t95.5 -42t96.5 -55.5l156 -94q91 -54 157 -54q59 0 112.5 42.5t66.5 99.5l38 -25q-37 -82 -98.5 -141.5t-140.5 -59.5q-102 0 -223 74l-211 129q-95 58 -170 58q-79 0 -114.5 -31.5t-84.5 -116.5z" />
<glyph unicode="&#x2000;" horiz-adv-x="753" />
<glyph unicode="&#x2001;" horiz-adv-x="1507" />
<glyph unicode="&#x2002;" horiz-adv-x="753" />
<glyph unicode="&#x2003;" horiz-adv-x="1507" />
<glyph unicode="&#x2004;" horiz-adv-x="502" />
<glyph unicode="&#x2005;" horiz-adv-x="376" />
<glyph unicode="&#x2006;" horiz-adv-x="251" />
<glyph unicode="&#x2007;" horiz-adv-x="251" />
<glyph unicode="&#x2008;" horiz-adv-x="188" />
<glyph unicode="&#x2009;" horiz-adv-x="301" />
<glyph unicode="&#x200a;" horiz-adv-x="83" />
<glyph unicode="&#x202f;" horiz-adv-x="301" />
<glyph unicode="&#x205f;" horiz-adv-x="376" />
<glyph unicode="&#xe000;" horiz-adv-x="1430" d="M0 1430h1430v-1430h-1430v1430z" />
</font>
</defs>
</svg>
