<?xml version="1.0" standalone="no"?>
<!DOCTYPE svg PUBLIC "-//W3C//DTD SVG 1.1//EN" "http://www.w3.org/Graphics/SVG/1.1/DTD/svg11.dtd" >
<svg xmlns="http://www.w3.org/2000/svg">
<metadata>
This is a custom SVG webfont generated by Font Squirrel.
Copyright   : Copyright C 1994 1995 Basil K Malyshev All Rights Reserved012BaKoMa Fonts Collection LevelC
</metadata>
<defs>
<font id="msam10Regular" horiz-adv-x="1591" >
<font-face units-per-em="2048" ascent="1638" descent="-410" />
<missing-glyph horiz-adv-x="500" />
<glyph unicode=" "  horiz-adv-x="500" />
<glyph unicode="&#x09;" horiz-adv-x="500" />
<glyph unicode="&#xa0;" horiz-adv-x="500" />
<glyph unicode="!" horiz-adv-x="2843" d="M115 512q104 53 184.5 143t120.5 199h72q-19 -52 -51 -108.5t-70.5 -104t-83.5 -88.5h280l156 158q12 12 31 12q18 0 30 -12l303 -310l304 310q12 12 30 12q19 0 31 -12l303 -310l303 310q12 12 31 12q22 0 31 -12l155 -158h281q-45 41 -83.5 88.5t-70.5 104t-51 108.5 h72q43 -112 121.5 -199.5t183.5 -142.5q-105 -55 -184 -143t-121 -199h-72q33 88 85 163.5t120 137.5h-299q-17 0 -33 16l-135 136l-303 -310q-12 -12 -31 -12q-17 0 -31 12l-303 310l-303 -310q-12 -12 -31 -12q-18 0 -30 12l-303 310l-136 -136q-16 -16 -32 -16h-299 q71 -65 123 -141.5t82 -159.5h-72q-39 108 -120 198.5t-185 143.5z" />
<glyph unicode="&#x22;" horiz-adv-x="2048" d="M115 512q104 53 184.5 143t120.5 199h72q-19 -52 -51 -108.5t-70.5 -104t-83.5 -88.5h987v45q0 183 17.5 300t94 199.5t238.5 82.5q176 0 262 -89t86 -266q0 -127 -46.5 -200t-126 -106.5t-166.5 -40.5t-224 -7h-53v-520q0 -16 -13 -26.5t-28 -10.5q-17 0 -29 10.5 t-12 26.5v520h-987q71 -65 123 -141.5t82 -159.5h-72q-39 108 -120 198.5t-185 143.5zM1356 553q213 0 317 14q79 14 126 44.5t69 83t22 130.5q0 144 -62.5 208.5t-203.5 64.5q-92 0 -151 -33t-87 -113q-19 -71 -24.5 -153t-5.5 -201v-6v-39z" />
<glyph unicode="#" horiz-adv-x="2048" d="M74 825q0 119 38 197t115.5 118t196.5 40q161 0 237.5 -83t93.5 -199.5t17 -299.5v-45h987q-45 41 -83.5 88.5t-70.5 104t-51 108.5h72q43 -112 121.5 -199.5t183.5 -142.5q-105 -55 -184 -143t-121 -199h-72q33 88 85 163.5t120 137.5h-987v-520q0 -16 -12 -26.5 t-29 -10.5q-15 0 -28 10.5t-13 26.5v520h-53q-136 0 -223 7t-166.5 40.5t-126.5 106.5t-47 200zM156 825q0 -126 68.5 -185.5t165 -73t247.5 -13.5h53v45q0 119 -5.5 201.5t-25.5 152.5q-27 80 -86 113t-151 33q-141 0 -203.5 -64.5t-62.5 -208.5z" />
<glyph unicode="$" d="M115 313q0 17 11 29t28 12h1286q15 0 26 -12t11 -29q0 -15 -11 -28t-26 -13h-1286q-17 0 -28 13t-11 28zM115 711q0 15 11 28t28 13h1286q15 0 26 -13t11 -28q0 -17 -11 -29t-26 -12h-1286q-17 0 -28 12t-11 29zM571 1251q0 60 31 112t83 83t112 31q90 0 156.5 -66.5 t66.5 -159.5q0 -60 -30.5 -111t-81.5 -81.5t-111 -30.5t-112 30.5t-83 81.5t-31 111zM653 1251q0 -76 33 -108.5t111 -32.5q76 0 108.5 32.5t32.5 108.5q0 79 -32.5 111.5t-108.5 32.5q-78 0 -111 -32.5t-33 -111.5z" />
<glyph unicode="%" d="M115 -399q0 99 41 195t118.5 157t180.5 61q95 0 172 -47t175.5 -135.5t171.5 -134t163 -45.5q81 0 145.5 43.5t100.5 116t36 151.5q6 51 29 51t29 -51v-12q0 -99 -41.5 -195.5t-118.5 -157.5t-180 -61q-93 0 -168 45.5t-173 134t-174.5 136t-166.5 47.5q-80 0 -145.5 -44 t-101.5 -116.5t-36 -151.5q-6 -51 -29 -51q-22 0 -28 51v13zM170 358q17 165 113 278t238 176t313 93q-618 111 -664 551q0 17 11 30t30 13q17 0 28.5 -10.5t12.5 -26.5q23 -225 211.5 -339t424 -145.5t496.5 -31.5q16 0 26.5 -12t10.5 -29q0 -15 -10.5 -28t-26.5 -13 q-194 0 -364 -14t-340.5 -63.5t-290 -156t-137.5 -278.5q-1 -16 -12.5 -27.5t-28.5 -11.5q-19 0 -30 13.5t-11 31.5z" />
<glyph unicode="&#x26;" d="M115 -399q0 99 41 195t118.5 157t180.5 61q95 0 172 -47t175.5 -135.5t171.5 -134t163 -45.5q81 0 145.5 43.5t100.5 116t36 151.5q6 51 29 51t29 -51v-12q0 -99 -41.5 -195.5t-118.5 -157.5t-180 -61q-93 0 -168 45.5t-173 134t-174.5 136t-166.5 47.5q-80 0 -145.5 -44 t-101.5 -116.5t-36 -151.5q-6 -51 -29 -51q-22 0 -28 51v13zM170 354q0 26 27 39l1087 514l-1094 516q-20 10 -20 35q0 17 11 29t30 12q10 0 16 -2l1176 -555q18 -9 18 -35q0 -24 -24 -39l-1170 -551q-6 -4 -16 -4q-17 0 -29 13t-12 28z" />
<glyph unicode="'" d="M115 -47q0 92 46 168.5t124.5 121t169.5 44.5q110 0 226.5 -70.5t231.5 -141.5t224 -71q104 0 193 65.5t89 166.5q6 51 29 51t29 -51v-13q0 -92 -46 -168.5t-125 -121t-169 -44.5q-86 0 -161.5 35.5t-177 104t-180.5 106t-163 37.5q-65 0 -132 -29.5t-109 -81.5t-42 -120 q-6 -52 -29 -52q-22 0 -28 52v12zM115 -524q0 92 46 168.5t124.5 121t169.5 44.5q110 0 226.5 -70.5t231.5 -141.5t224 -71q104 0 193 65.5t89 165.5q6 52 29 52t29 -52v-12q0 -92 -46 -168.5t-125 -121t-169 -44.5q-86 0 -161.5 35.5t-177 104t-180.5 106t-163 37.5 q-65 0 -132 -29.5t-109 -82t-42 -120.5q-6 -51 -29 -51q-22 0 -28 51v13zM170 539q0 25 27 39l1077 452l-1077 453q-27 10 -27 37q0 15 12 28t29 13q10 0 16 -2l1170 -492q24 -10 24 -37q0 -29 -24 -39l-1170 -489q-6 -4 -16 -4q-17 0 -29 12t-12 29z" />
<glyph unicode="(" horiz-adv-x="2275" d="M115 512q0 15 10.5 28t26.5 13h1359q10 80 56 145t117.5 102.5t150.5 37.5q65 0 124.5 -25t104 -70t70 -105t25.5 -126t-25 -125t-70 -104t-104.5 -71t-124.5 -26q-123 0 -215.5 82t-108.5 203h-1359q-16 0 -26.5 13t-10.5 28zM1591 512q0 -65 33 -121.5t89.5 -89.5 t121.5 -33q64 0 120 33t89 89.5t33 121.5t-33 121.5t-89 89.5t-120 33q-65 0 -121.5 -33t-89.5 -89.5t-33 -121.5z" />
<glyph unicode=")" horiz-adv-x="1364" d="M57 -45q0 47 33 80t80 33q30 0 56 -15.5t41.5 -41.5t15.5 -56q0 -47 -33 -80t-80 -33t-80 33t-33 80zM569 842q0 47 33.5 79.5t79.5 32.5q29 0 55 -15t42 -41.5t16 -55.5q0 -30 -16 -56.5t-42 -41.5t-55 -15q-46 0 -79.5 33.5t-33.5 79.5zM1081 -45q0 47 33 80t80 33 q30 0 56 -15.5t41.5 -41.5t15.5 -56q0 -47 -33 -80t-80 -33t-80 33t-33 80z" />
<glyph unicode="*" horiz-adv-x="1364" d="M57 842q0 47 33.5 79.5t79.5 32.5q29 0 55 -15t42 -41.5t16 -55.5q0 -30 -16 -56.5t-42 -41.5t-55 -15q-46 0 -79.5 33.5t-33.5 79.5zM569 -45q0 47 33 80t80 33q30 0 56 -15.5t41.5 -41.5t15.5 -56q0 -47 -33 -80t-80 -33t-80 33t-33 80zM1081 842q0 47 33.5 79.5 t79.5 32.5q29 0 55 -15t42 -41.5t16 -55.5q0 -30 -16 -56.5t-42 -41.5t-55 -15q-46 0 -79.5 33.5t-33.5 79.5z" />
<glyph unicode="+" d="M115 313q0 17 11 29t28 12h1286q15 0 26 -12t11 -29q0 -15 -11 -28t-26 -13h-1286q-17 0 -28 13t-11 28zM115 711q0 15 11 28t28 13h1286q15 0 26 -13t11 -28q0 -17 -11 -29t-26 -12h-1286q-17 0 -28 12t-11 29zM676 -84q0 49 36 85t85 36q47 0 82.5 -36.5t35.5 -84.5 t-35.5 -84.5t-82.5 -36.5q-49 0 -85 36t-36 85zM676 1108q0 49 36 85t85 36q47 0 82.5 -36.5t35.5 -84.5t-35.5 -84.5t-82.5 -36.5q-49 0 -85 36t-36 85z" />
<glyph unicode="," d="M115 313q0 17 11 29t28 12h1288q15 0 26 -12t11 -29q0 -15 -11 -28t-26 -13h-1288q-17 0 -28 13t-11 28zM115 711q0 15 11 28t28 13h1288q15 0 26 -13t11 -28q0 -17 -11 -29t-26 -12h-1288q-17 0 -28 12t-11 29zM358 1028q0 10 7 23l397 688q10 20 35 20q24 0 34 -20 l398 -688q6 -13 6 -23q0 -15 -10.5 -28t-26.5 -13h-803q-15 0 -26 13t-11 28zM469 1069h655l-327 567z" />
<glyph unicode="-" d="M115 -399q0 99 41 195t118.5 157t180.5 61q95 0 172 -47t175.5 -135.5t171.5 -134t163 -45.5q81 0 145.5 43.5t100.5 116t36 151.5q6 51 29 51t29 -51v-12q0 -99 -41.5 -195.5t-118.5 -157.5t-180 -61q-93 0 -168 45.5t-173 134t-174.5 136t-166.5 47.5q-80 0 -145.5 -44 t-101.5 -116.5t-36 -151.5q-6 -51 -29 -51q-22 0 -28 51v13zM170 905q0 17 11 29t28 12q183 0 359.5 15t347 65t288.5 156.5t135 279.5q1 16 12.5 26.5t28.5 10.5q19 0 30 -13t11 -30q-46 -440 -663 -551q269 -47 453.5 -176.5t209.5 -370.5q0 -18 -11 -31.5t-30 -13.5 q-17 0 -28 11t-13 28q-17 171 -137 278t-289.5 156t-339.5 63.5t-364 14.5q-17 0 -28 13t-11 28z" />
<glyph unicode="." d="M115 -399q0 99 41 195t118.5 157t180.5 61q95 0 172 -47t175.5 -135.5t171.5 -134t163 -45.5q81 0 145.5 43.5t100.5 116t36 151.5q6 51 29 51t29 -51v-12q0 -99 -41.5 -195.5t-118.5 -157.5t-180 -61q-93 0 -168 45.5t-173 134t-174.5 136t-166.5 47.5q-80 0 -145.5 -44 t-101.5 -116.5t-36 -151.5q-6 -51 -29 -51q-22 0 -28 51v13zM170 907q0 27 27 37l1169 553q4 2 14 2q18 0 29.5 -11t11.5 -30q0 -27 -24 -37l-1090 -514l1096 -518q18 -9 18 -35q0 -17 -12 -29t-29 -12q-10 0 -14 4l-1176 555q-20 7 -20 35z" />
<glyph unicode="/" d="M115 -47q0 92 46 168.5t124.5 121t169.5 44.5q110 0 226.5 -70.5t231.5 -141.5t224 -71q104 0 193 65.5t89 166.5q6 51 29 51t29 -51v-13q0 -92 -46 -168.5t-125 -121t-169 -44.5q-86 0 -161.5 35.5t-177 104t-180.5 106t-163 37.5q-65 0 -132 -29.5t-109 -81.5t-42 -120 q-6 -52 -29 -52q-22 0 -28 52v12zM115 -524q0 92 46 168.5t124.5 121t169.5 44.5q110 0 226.5 -70.5t231.5 -141.5t224 -71q104 0 193 65.5t89 165.5q6 52 29 52t29 -52v-12q0 -92 -46 -168.5t-125 -121t-169 -44.5q-86 0 -161.5 35.5t-177 104t-180.5 106t-163 37.5 q-65 0 -132 -29.5t-109 -82t-42 -120.5q-6 -51 -29 -51q-22 0 -28 51v13zM170 1030q0 27 27 37l1169 492q4 2 14 2q17 0 29 -12t12 -29q0 -27 -24 -37l-1080 -453l1080 -452q24 -15 24 -39q0 -18 -12 -29.5t-29 -11.5q-10 0 -14 4l-1169 489q-27 10 -27 39z" />
<glyph unicode="0" d="M170 313q0 27 27 37l1169 553q4 2 14 2q18 0 29.5 -11t11.5 -30q0 -25 -24 -37l-1090 -514l1096 -518q18 -9 18 -35q0 -17 -12 -29t-29 -12q-10 0 -14 5l-1176 555q-20 6 -20 34zM170 711q0 25 20 34l1176 555q4 3 14 3q17 0 29 -12t12 -29q0 -26 -18 -35l-1176 -555 q-6 -2 -16 -2q-17 0 -29 12t-12 29z" />
<glyph unicode="1" d="M170 -240q0 26 27 39l1087 514l-1094 516q-20 10 -20 35q0 17 11 29t30 12q10 0 16 -2l1176 -555q18 -9 18 -35q0 -24 -24 -39l-1170 -550q-6 -5 -16 -5q-17 0 -29 13t-12 28zM170 1262q0 15 12 28t29 13q10 0 16 -3l1170 -552q24 -12 24 -37q0 -18 -12 -29.5t-29 -11.5 q-10 0 -14 2l-1169 553q-27 10 -27 37z" />
<glyph unicode="2" d="M170 594q0 14 11.5 27.5t27.5 13.5q434 0 765.5 97.5t364.5 416.5q1 14 12.5 25.5t28.5 11.5q19 0 30 -13t11 -30q-46 -440 -663 -549q270 -48 454 -177.5t209 -371.5q0 -19 -11 -32t-30 -13q-17 0 -28 11t-13 28q-17 172 -135.5 278t-288.5 156t-346.5 65t-359.5 15 q-17 0 -28 12t-11 29zM170 909q0 15 11 28t28 13q144 0 291 24.5t282 82.5t225.5 159.5t104.5 247.5q1 16 12.5 26.5t28.5 10.5q19 0 30 -13t11 -30q-16 -164 -112.5 -280.5t-242.5 -184.5t-306.5 -96.5t-317.5 -28.5q-19 0 -32 11t-13 30z" />
<glyph unicode="3" d="M170 45q26 242 209.5 371t454.5 178q-618 109 -664 549q0 17 11 30t30 13q17 0 28.5 -11.5t12.5 -25.5q22 -223 211 -337.5t424.5 -145.5t496.5 -31q15 0 26 -13.5t11 -27.5q0 -17 -10.5 -29t-26.5 -12q-262 0 -497.5 -32t-423.5 -145.5t-211 -336.5q-1 -16 -12.5 -27.5 t-28.5 -11.5q-19 0 -30 13t-11 32zM397 1458q0 17 12 30t29 13t28 -10t13 -27q16 -146 106 -247.5t225.5 -160t282.5 -82.5t291 -24q16 0 26.5 -13t10.5 -28q0 -19 -13 -30t-30 -11q-157 0 -317.5 28.5t-306 96.5t-243 184.5t-114.5 280.5z" />
<glyph unicode="4" d="M170 279q0 18 13 29t32 11q157 0 318.5 -29t307 -97.5t241.5 -184.5t112 -280q0 -17 -11 -30t-30 -13q-17 0 -28 10.5t-13 25.5q-14 147 -106 250t-226.5 161t-280.5 82t-290 24q-17 0 -28 12t-11 29zM170 594q0 14 11.5 27.5t27.5 13.5q434 0 765.5 97.5t364.5 416.5 q1 14 12.5 25.5t28.5 11.5q19 0 30 -13t11 -30q-46 -440 -663 -549q270 -48 454 -177.5t209 -371.5q0 -19 -11 -32t-30 -13q-17 0 -28 11t-13 28q-17 172 -135.5 278t-288.5 156t-346.5 65t-359.5 15q-17 0 -28 12t-11 29z" />
<glyph unicode="5" d="M170 82q0 15 11 28t28 13h1175q16 0 26.5 -13t10.5 -28q0 -17 -10.5 -29t-26.5 -12h-1175q-17 0 -28 12t-11 29zM170 -315q0 15 11 28t28 13h1175q16 0 26.5 -13t10.5 -28q0 -17 -10.5 -29t-26.5 -12h-1175q-17 0 -28 12t-11 29zM170 950q0 27 27 37l1169 553q4 2 14 2 q18 0 29.5 -11t11.5 -30q0 -27 -24 -37l-1090 -514l1096 -518q18 -9 18 -35q0 -17 -12 -29t-29 -12q-10 0 -14 4l-1176 555q-20 7 -20 35z" />
<glyph unicode="6" d="M170 311q0 17 11 29t30 12q10 0 16 -2l1170 -553q24 -10 24 -37q0 -17 -12 -29t-29 -12q-10 0 -14 2l-1169 553q-27 11 -27 37zM170 711q0 26 27 37l1169 552q4 3 14 3q17 0 29 -12t12 -29q0 -27 -24 -37l-1090 -514l1096 -518q18 -10 18 -35q0 -18 -12 -29.5t-29 -11.5 q-10 0 -14 4l-1176 555q-20 6 -20 35z" />
<glyph unicode="7" d="M88 -473q0 29 27 39l1228 452l-1228 453q-27 10 -27 39q0 14 11.5 27.5t29.5 13.5q4 0 16 -4l1332 -490q26 -10 26 -39q0 -28 -26 -38l-1338 -492q-4 -2 -10 -2q-18 0 -29.5 12.5t-11.5 28.5zM88 864q0 27 27 37l1337 494h10q17 0 29 -12t12 -29q0 -30 -26 -37 l-1229 -453l1229 -452q26 -10 26 -39q0 -18 -12 -29.5t-29 -11.5q-4 0 -16 4l-1331 489q-27 10 -27 39z" />
<glyph unicode="8" horiz-adv-x="563" d="M25 1034q0 47 37 79t83 32q38 0 67 -23t40 -61l250 -926v-6q0 -15 -13 -18q-13 -5 -19 -8t-15 -7t-15.5 -6t-15.5 -2q-11 0 -18 14l-371 885q-10 23 -10 47z" />
<glyph unicode="9" horiz-adv-x="1024" d="M170 512q0 15 11 28t28 13h608q16 0 26.5 -13t10.5 -28t-10.5 -28t-26.5 -13h-608q-17 0 -28 13t-11 28z" />
<glyph unicode=":" d="M43 -84q0 29 15 55t41.5 42t56.5 16q29 0 55.5 -16t41.5 -42t15 -55q0 -46 -32.5 -79.5t-79.5 -33.5q-46 0 -79.5 33.5t-33.5 79.5zM115 313q0 17 11 29t28 12h1286q15 0 26 -12t11 -29q0 -15 -11 -28t-26 -13h-1286q-17 0 -28 13t-11 28zM115 711q0 15 11 28t28 13h1286 q15 0 26 -13t11 -28q0 -17 -11 -29t-26 -12h-1286q-17 0 -28 12t-11 29zM1323 1108q0 29 15 55t41.5 42t56.5 16q29 0 55.5 -16t41.5 -42t15 -55q0 -46 -32.5 -79.5t-79.5 -33.5q-46 0 -79.5 33.5t-33.5 79.5z" />
<glyph unicode=";" d="M43 1108q0 29 15 55t41.5 42t56.5 16q29 0 55.5 -16t41.5 -42t15 -55q0 -46 -32.5 -79.5t-79.5 -33.5q-46 0 -79.5 33.5t-33.5 79.5zM115 313q0 17 11 29t28 12h1286q15 0 26 -12t11 -29q0 -15 -11 -28t-26 -13h-1286q-17 0 -28 13t-11 28zM115 711q0 15 11 28t28 13 h1286q15 0 26 -13t11 -28q0 -17 -11 -29t-26 -12h-1286q-17 0 -28 12t-11 29zM1323 -84q0 29 15 55t41.5 42t56.5 16q29 0 55.5 -16t41.5 -42t15 -55q0 -46 -32.5 -79.5t-79.5 -33.5q-46 0 -79.5 33.5t-33.5 79.5z" />
<glyph unicode="&#x3c;" d="M170 45q26 242 209.5 371t454.5 178q-618 109 -664 549q0 17 11 30t30 13q17 0 28.5 -11.5t12.5 -25.5q22 -223 211 -337.5t424.5 -145.5t496.5 -31q15 0 26 -13.5t11 -27.5q0 -17 -10.5 -29t-26.5 -12q-262 0 -497.5 -32t-423.5 -145.5t-211 -336.5q-1 -16 -12.5 -27.5 t-28.5 -11.5q-19 0 -30 13t-11 32zM397 -272q17 164 113.5 280t242 184.5t307 97.5t318.5 29q17 0 30 -11t13 -29q0 -17 -10.5 -29t-26.5 -12q-144 0 -290 -24t-281.5 -82t-226.5 -161t-107 -250q-2 -16 -13 -26t-28 -10t-29 13t-12 30z" />
<glyph unicode="=" d="M170 82q0 15 11 28t28 13h1175q16 0 26.5 -13t10.5 -28q0 -17 -10.5 -29t-26.5 -12h-1175q-17 0 -28 12t-11 29zM170 -315q0 15 11 28t28 13h1175q16 0 26.5 -13t10.5 -28q0 -17 -10.5 -29t-26.5 -12h-1175q-17 0 -28 12t-11 29zM170 397q0 26 27 39l1087 514l-1094 516 q-20 10 -20 35q0 17 11 29t30 12q10 0 16 -2l1176 -555q18 -9 18 -35q0 -24 -24 -39l-1170 -551q-6 -4 -16 -4q-17 0 -29 13t-12 28z" />
<glyph unicode="&#x3e;" d="M170 158q0 25 27 39l1087 514l-1094 516q-20 9 -20 35q0 15 12 28t29 13q10 0 16 -3l1176 -555q18 -9 18 -34t-24 -39l-1170 -551q-6 -4 -16 -4q-17 0 -29 12t-12 29zM170 -240q0 26 20 35l1176 555q4 2 14 2q18 0 29.5 -11t11.5 -30q0 -24 -18 -35l-1176 -555 q-6 -2 -16 -2q-17 0 -29 13t-12 28z" />
<glyph unicode="?" d="M170 18q0 27 27 37l1169 492q4 2 14 2q17 0 29 -12t12 -29q0 -27 -24 -37l-1080 -453l1080 -452q24 -14 24 -39q0 -18 -12 -29.5t-29 -11.5q-10 0 -14 4l-1169 490q-27 10 -27 38zM170 373q0 25 27 39l1077 452l-1077 453q-27 10 -27 37q0 15 12 28t29 13q10 0 16 -2 l1170 -492q24 -10 24 -37q0 -29 -24 -39l-1170 -489q-6 -4 -16 -4q-17 0 -29 12t-12 29z" />
<glyph unicode="@" d="M170 -45v1112q0 13 12 25t27 12h1175q16 0 26.5 -13t10.5 -28q0 -17 -10.5 -29t-26.5 -12h-1132v-1022h1132q16 0 26.5 -12t10.5 -29q0 -15 -10.5 -28t-26.5 -13h-1175q-15 0 -27 12t-12 25z" />
<glyph unicode="A" d="M129 -41q0 17 11 29t28 12h1212v1022h-1212q-17 0 -28 12t-11 29q0 15 11 28t28 13h1257q14 0 25.5 -11.5t11.5 -25.5v-1112q0 -14 -11.5 -25.5t-25.5 -11.5h-1257q-17 0 -28 13t-11 28z" />
<glyph unicode="B" d="M170 -45v1112q0 15 12 26t29 11q10 0 16 -2l1170 -553q24 -10 24 -37q0 -29 -18 -35l-1176 -557q-6 -2 -16 -2q-17 0 -29 10.5t-12 26.5zM252 23l1032 489l-1032 487v-976z" />
<glyph unicode="C" d="M170 512q0 26 20 35l1176 555q4 2 14 2q17 0 29 -11t12 -26v-1112q0 -16 -12 -26.5t-29 -10.5q-10 0 -14 2l-1169 553q-27 13 -27 39zM307 512l1032 -489v976z" />
<glyph unicode="D" d="M170 156v1112q0 15 12 26t29 11q10 0 16 -2l1170 -553q24 -12 24 -37q0 -29 -18 -35l-1176 -557q-6 -2 -16 -2q-17 0 -29 10.5t-12 26.5zM170 -240q0 17 11 29t28 12h1175q16 0 26.5 -12t10.5 -29q0 -15 -10.5 -28t-26.5 -13h-1175q-17 0 -28 13t-11 28zM252 221 l1032 490l-1032 487v-977z" />
<glyph unicode="E" d="M170 -240q0 17 11 29t28 12h1175q16 0 26.5 -12t10.5 -29q0 -15 -10.5 -28t-26.5 -13h-1175q-17 0 -28 13t-11 28zM170 711q0 25 20 34l1176 555q4 3 14 3q17 0 29 -11t12 -26v-1112q0 -16 -12 -26.5t-29 -10.5q-10 0 -14 2l-1169 553q-27 13 -27 39zM307 711l1032 -490 v977z" />
<glyph unicode="F" horiz-adv-x="1933" d="M100 786q0 7 7 15t14 8h631l192 594q7 18 23 18q15 0 22 -18l193 -594h630q8 0 14.5 -7t6.5 -16q0 -10 -8 -18l-510 -369l196 -600q0 -26 -22 -26q-8 0 -12 2l-510 370l-508 -368q-8 -4 -15 -4q-22 0 -22 26l196 600l-509 369q-9 7 -9 18z" />
<glyph unicode="G" horiz-adv-x="1024" d="M152 512q0 215 81.5 415t231.5 361q-114 117 -252 195q-12 6 -12 22q0 11 9 21t21 10q29 0 132.5 -79t148.5 -122q47 44 149 122.5t130 78.5q13 0 21.5 -9t8.5 -22q0 -16 -12 -22q-138 -78 -252 -195q98 -106 168.5 -232t107.5 -264.5t37 -279.5t-37 -279.5 t-107.5 -264.5t-168.5 -232q114 -117 252 -195q12 -6 12 -22q0 -13 -9 -22t-21 -9q-28 0 -121.5 72t-157.5 129q-60 -54 -156 -127.5t-125 -73.5q-10 0 -20 10t-10 21q0 16 12 22q138 78 252 195q-98 106 -168.5 232t-107.5 264.5t-37 279.5zM252 512q0 -130 30 -259.5 t87.5 -246t142.5 -217.5q83 100 141.5 218.5t87.5 246.5t29 258t-29 258t-87.5 246.5t-141.5 218.5q-126 -148 -193 -337t-67 -386z" />
<glyph unicode="H" horiz-adv-x="1479" d="M170 1139q0 15 11 28t28 13h1059q17 0 28 -13t11 -28q0 -7 -4 -15l-527 -1140q-10 -25 -37 -25t-39 25l-526 1140q-4 8 -4 15z" />
<glyph unicode="I" d="M170 -45v1112q0 15 12 26t29 11q10 0 16 -2l1170 -553q24 -10 24 -37q0 -29 -18 -35l-1176 -557q-6 -2 -16 -2q-17 0 -29 10.5t-12 26.5z" />
<glyph unicode="J" d="M170 512q0 26 20 35l1176 555q4 2 14 2q17 0 29 -11t12 -26v-1112q0 -16 -12 -26.5t-29 -10.5q-10 0 -14 2l-1169 553q-27 13 -27 39z" />
<glyph unicode="K" horiz-adv-x="1024" d="M119 510q0 21 12.5 35.5t36.5 17.5h403q-44 48 -110 148.5t-66 142.5q0 14 11.5 27.5t25.5 13.5h78q28 0 35 -27q41 -106 115.5 -188t175.5 -133q18 -9 18 -35t-18 -35q-97 -48 -174 -132.5t-117 -188.5q-7 -27 -35 -27h-78q-14 0 -25.5 13.5t-11.5 27.5q0 42 66.5 144 t109.5 147h-405q-41 6 -47 49z" />
<glyph unicode="L" horiz-adv-x="1024" d="M129 512q0 27 21 35q99 51 174 134.5t114 186.5q7 27 35 27h78q14 0 25.5 -13.5t11.5 -27.5q0 -42 -65.5 -143t-110.5 -148h405q41 -6 47 -47q0 -49 -47 -55h-405q22 -22 67 -84.5t77 -119.5t32 -87q0 -14 -11.5 -27.5t-25.5 -13.5h-78q-28 0 -35 27q-38 101 -115 187 t-173 134q-21 8 -21 35z" />
<glyph unicode="M" horiz-adv-x="1479" d="M170 0q0 4 4 16l526 1139q12 25 39 25q26 0 37 -25l527 -1139q4 -12 4 -16q0 -15 -11 -28t-28 -13h-1059q-17 0 -28 13t-11 28zM276 41h924l-461 1001z" />
<glyph unicode="N" horiz-adv-x="1479" d="M170 0q0 4 4 16l526 1139q12 25 39 25q26 0 37 -25l527 -1139q4 -12 4 -16q0 -15 -11 -28t-28 -13h-1059q-17 0 -28 13t-11 28z" />
<glyph unicode="O" horiz-adv-x="1479" d="M170 1139q0 15 11 28t28 13h1059q17 0 28 -13t11 -28q0 -7 -4 -15l-527 -1140q-10 -25 -37 -25t-39 25l-526 1140q-4 8 -4 15zM276 1098l463 -1000l461 1000h-924z" />
<glyph unicode="P" d="M115 313q0 17 11 29t28 12h487q-66 66 -66 158t66 158h-487q-17 0 -28 12t-11 29q0 15 11 28t28 13h1286q15 0 26 -13t11 -28q0 -17 -11 -29t-26 -12h-490q68 -68 68 -158t-68 -158h490q15 0 26 -12t11 -29q0 -15 -11 -28t-26 -13h-1286q-17 0 -28 13t-11 28zM621 512 q0 -49 25.5 -93t70.5 -65h157q44 22 70.5 65t26.5 93q0 49 -27 94t-70 64h-157q-45 -21 -70.5 -64.5t-25.5 -93.5z" />
<glyph unicode="Q" d="M170 115q0 15 12 28t29 13q6 0 9 -0.5t7 -1.5l1129 -435q10 -3 17 -13t7 -23q0 -29 -24 -39l-1129 -432q-2 0 -7 -1t-9 -2q-17 0 -29 13t-12 28q0 31 27 37l1028 396l-1028 395q-27 6 -27 37zM170 512q0 15 11 28t28 13h1134q16 0 26.5 -13t10.5 -28t-10.5 -28t-26.5 -13 h-1134q-17 0 -28 13t-11 28zM170 1341q0 29 27 39l1128 432q3 1 7.5 2t6.5 1q17 0 29 -12t12 -29q0 -30 -24 -37l-1030 -396l1030 -393q24 -10 24 -39q0 -17 -12 -29t-29 -12q-6 0 -14 4l-1128 433q-27 6 -27 36z" />
<glyph unicode="R" d="M170 -319q0 28 27 38l1128 433q3 1 6 1.5t8 0.5q17 0 29 -12t12 -29q0 -30 -24 -37l-1030 -395l1030 -394q24 -10 24 -39q0 -17 -12 -29t-29 -12q-7 0 -14 5l-1128 432q-27 6 -27 37zM170 512q0 15 11 28t28 13h1134q16 0 26.5 -13t10.5 -28t-10.5 -28t-26.5 -13h-1134 q-17 0 -28 13t-11 28zM170 909q0 31 27 37l1028 395l-1028 396q-27 6 -27 37q0 15 12 28t29 13q4 0 8 -1l8 -2l1129 -434q24 -7 24 -37q0 -28 -24 -38l-1129 -433q-5 0 -8.5 -0.5t-7.5 -1.5q-17 0 -29 13t-12 28z" />
<glyph unicode="S" d="M170 -43q0 17 11 29t30 12q4 0 16 -4l1170 -432q24 -7 24 -37q0 -29 -24 -39l-1170 -432q-5 0 -8.5 -0.5t-7.5 -1.5q-17 0 -29 12t-12 29q0 31 27 37l1065 395l-1065 393q-27 10 -27 39zM170 354q0 17 11 29t28 12h1175q16 0 26.5 -12t10.5 -29q0 -15 -10.5 -28 t-26.5 -13h-1175q-17 0 -28 13t-11 28zM170 752q0 15 11 28t28 13h1175q16 0 26.5 -13t10.5 -28q0 -17 -10.5 -29t-26.5 -12h-1175q-17 0 -28 12t-11 29zM170 1581q0 29 27 39l1169 432q3 1 6 1.5t8 0.5q18 0 29.5 -11t11.5 -30q0 -30 -24 -37l-1067 -395l1067 -393 q24 -10 24 -39q0 -18 -12 -29.5t-29 -11.5q-6 0 -14 4l-1169 432q-27 6 -27 37z" />
<glyph unicode="T" d="M170 354q0 17 11 29t28 12h1175q16 0 26.5 -12t10.5 -29q0 -15 -10.5 -28t-26.5 -13h-1175q-17 0 -28 13t-11 28zM170 -477q0 29 27 39l1169 432q3 1 6 1.5t8 0.5q17 0 29 -12t12 -29q0 -30 -24 -37l-1067 -395l1067 -393q24 -12 24 -39q0 -18 -12 -29.5t-29 -11.5 q-6 0 -14 4l-1169 432q-27 6 -27 37zM170 752q0 15 11 28t28 13h1175q16 0 26.5 -13t10.5 -28q0 -17 -10.5 -29t-26.5 -12h-1175q-17 0 -28 12t-11 29zM170 1149q0 31 27 37l1065 395l-1065 393q-27 10 -27 39q0 17 11 29t30 12q4 0 16 -4l1170 -432q24 -7 24 -37 q0 -29 -24 -39l-1170 -432q-5 0 -8.5 -0.5t-7.5 -1.5q-17 0 -29 12t-12 29z" />
<glyph unicode="U" horiz-adv-x="1536" d="M23 1327v72q29 1 79 -1l100 -4q50 -2 79 -1q33 -1 93 1l120 4q60 2 92 1v-72q-142 0 -142 -47q0 -6 5 -16l229 -371h295l196 315q11 20 11 43q0 41 -35 58.5t-80 17.5v72q26 0 75 -1.5t96.5 -3t76.5 -1.5q26 1 55 2t54 2t41 1.5t48 0.5v-72q-80 0 -149 -28.5t-109 -88.5 l-196 -317h319q8 0 16.5 -8.5t8.5 -16.5v-12q0 -6 -9 -14t-16 -8h-354l-170 -275v-63h524q7 0 16 -9t9 -16v-12q0 -8 -8.5 -15.5t-16.5 -7.5h-524v-299q0 -65 211 -65v-72q-32 0 -90 1.5t-116.5 3t-90.5 1.5t-90 -1.5t-116.5 -3t-90.5 -1.5v72q211 0 211 65v299h-522 q-9 0 -17 8t-8 15v12q0 6 8.5 15.5t16.5 9.5h522v63l-168 275h-354q-8 0 -16.5 8.5t-8.5 13.5v12q0 7 8 16t17 9h317l-229 373q-32 41 -86 51t-137 10zM715 834l110 -183l113 183h-223z" />
<glyph unicode="V" horiz-adv-x="2048" d="M115 115q0 15 10.5 28t26.5 13h1206q145 189 328 315h-1530q-18 0 -29.5 11.5t-11.5 29.5t10.5 29.5t30.5 11.5h1530q-183 126 -328 315h-1206q-16 0 -26.5 13t-10.5 28q0 17 10.5 29t26.5 12h1148q-88 140 -147 301h109q56 -158 147.5 -296t215.5 -252t265 -191 q-113 -63 -206.5 -139.5t-175.5 -173.5t-142.5 -201t-103.5 -225h-109q59 161 147 301h-1148q-16 0 -26.5 12t-10.5 29z" />
<glyph unicode="W" horiz-adv-x="2048" d="M156 512q104 57 204.5 139.5t178 173t141.5 201t104 225.5h109q-60 -163 -148 -301h1149q16 0 26.5 -12t10.5 -29q0 -15 -10.5 -28t-26.5 -13h-1206q-145 -189 -328 -315h1530q18 0 29.5 -11t11.5 -30q0 -18 -12 -29.5t-29 -11.5h-1530q183 -126 328 -315h1206 q16 0 26.5 -13t10.5 -28q0 -17 -10.5 -29t-26.5 -12h-1149q88 -138 148 -301h-109q-40 116 -103 224.5t-142 201.5t-176 173t-207 140z" />
<glyph unicode="X" horiz-adv-x="1706" d="M170 467q0 33 59 67.5t99 38.5h10q10 -6 12 -8l199 -334q120 360 350 666q54 73 177.5 205.5t242 230t190.5 105.5h11q6 -4 8.5 -5.5t4 -4.5t1.5 -7q0 -8 -8 -20q-10 -15 -38.5 -39t-60 -48t-59.5 -46q-78 -70 -115 -107q-142 -145 -264 -323q-245 -365 -330 -797 q-11 -35 -62.5 -66t-94.5 -36h-10q-12 7 -13 8l-307 514q-2 4 -2 6z" />
<glyph unicode="Y" horiz-adv-x="1251" d="M115 41q0 15 11 28t28 13h944q15 0 26 -13t11 -28q0 -17 -11 -29t-26 -12h-944q-17 0 -28 12t-11 29zM115 1425q0 17 11 29t30 12q24 0 39 -24l430 -910l434 916q9 18 35 18q17 0 29 -12t12 -29q0 -10 -2 -14l-474 -993q-4 -9 -14 -15t-20 -6q-27 0 -37 27l-469 987 q-4 4 -4 14z" />
<glyph unicode="Z" horiz-adv-x="1251" d="M115 41q0 10 4 16l471 994q9 18 35 18q24 0 39 -25l469 -987q2 -6 2 -16q0 -17 -13 -29t-28 -12q-27 0 -37 27l-432 907l-435 -914q-10 -20 -34 -20q-17 0 -29 12t-12 29zM115 1425q0 17 11 29t28 12h944q15 0 26 -12t11 -29q0 -15 -11 -28t-26 -13h-944q-17 0 -28 13 t-11 28z" />
<glyph unicode="[" horiz-adv-x="1251" d="M115 -158q0 11 4 17l471 993q9 18 35 18q24 0 39 -24l469 -987q2 -6 2 -17q0 -15 -13 -28t-28 -13q-27 0 -37 27l-432 907l-435 -913q-4 -9 -14 -15t-20 -6q-17 0 -29 13t-12 28zM115 1227q0 15 11 28t28 13h944q15 0 26 -13t11 -28q0 -17 -11 -29t-26 -12h-944 q-17 0 -28 12t-11 29zM115 1624q0 17 11 29t28 12h944q15 0 26 -12t11 -29q0 -15 -11 -28t-26 -13h-944q-17 0 -28 13t-11 28z" />
<glyph unicode="\" horiz-adv-x="1479" d="M115 41q0 14 10 29l1165 1339q12 12 31 12q17 0 29 -12t12 -29q0 -16 -10 -26l-1106 -1272h1079q16 0 26.5 -13t10.5 -28q0 -17 -10.5 -29t-26.5 -12h-1171q-17 0 -28 12t-11 29z" />
<glyph unicode="]" horiz-adv-x="1479" d="M115 41q0 14 10 29l1165 1380q9 12 31 12q17 0 29 -12t12 -29q0 -16 -10 -26l-678 -805q51 -59 102 -149t83 -184.5t32 -174.5h434q16 0 26.5 -13t10.5 -28q0 -17 -10.5 -29t-26.5 -12h-430q0 -18 -12 -29.5t-29 -11.5q-36 0 -43 41h-657q-17 0 -28 12t-11 29zM244 82 h565q-12 122 -62 238t-129 206z" />
<glyph unicode="^" horiz-adv-x="1479" d="M115 512q0 26 20 35l1172 579q4 2 14 2q17 0 29 -12t12 -29q0 -25 -19 -34l-266 -131q44 -97 65 -200t21 -210q0 -106 -21 -208.5t-65 -201.5l260 -129q25 -10 25 -36q0 -17 -13 -29t-28 -12q-10 0 -14 2l-1166 577q-26 10 -26 37zM248 512l756 -373q77 177 77 373 t-77 373z" />
<glyph unicode="_" d="M115 512q0 91 35.5 175t98 146.5t146 98t174.5 35.5q99 0 187 -40.5t152.5 -113.5t92.5 -166q23 72 65 129.5t99 100.5t125.5 66.5t143.5 23.5q18 0 30.5 -11.5t12.5 -29.5q0 -17 -11 -29t-26 -12q-77 0 -146 -29t-121 -80t-81 -120t-29 -144q0 -100 50.5 -186.5 t137.5 -136.5t189 -50q15 0 26 -12t11 -29t-13 -29t-30 -12q-148 0 -268 90t-165 230q-42 -141 -163.5 -230.5t-268.5 -89.5q-91 0 -173 35t-146 98t-99.5 147t-35.5 175zM197 512q0 -98 50.5 -184.5t137 -137.5t184.5 -51t184.5 51t136.5 137.5t50 184.5t-50 184.5 t-136.5 137.5t-184.5 51t-184.5 -51t-137 -137.5t-50.5 -184.5z" />
<glyph unicode="`" d="M115 733q0 17 11 29t30 12q23 0 34 -18q45 -84 108.5 -154t144.5 -122t170.5 -79.5t183.5 -27.5q123 0 240.5 48.5t209 133.5t154.5 201q11 18 35 18q17 0 29 -12t12 -29q0 -12 -7 -20q-65 -124 -169.5 -219.5t-234.5 -149t-269 -53.5q-209 0 -392 116.5t-284 305.5 q-6 9 -6 20z" />
<glyph unicode="a" d="M115 291q0 10 4 16q52 103 120 186.5t156 147.5t190 98.5t212 34.5t212 -35t189 -98.5t157 -148.5t120 -185q2 -6 2 -16q0 -17 -13 -29t-28 -12q-25 0 -35 20q-43 88 -105.5 166t-140.5 135t-168.5 89t-189.5 32q-98 0 -189.5 -31.5t-170 -89.5t-140 -134.5 t-107.5 -166.5q-10 -20 -34 -20q-17 0 -29 12t-12 29z" />
<glyph unicode="b" d="M170 512q0 165 86 301.5t230 214.5t307 78h591q16 0 26.5 -13t10.5 -28q0 -17 -10.5 -29t-26.5 -12h-585q-107 0 -205.5 -38t-176.5 -108t-121.5 -163t-43.5 -203t43.5 -202.5t122 -163.5t176.5 -108.5t205 -37.5h585q16 0 26.5 -12t10.5 -29q0 -15 -10.5 -28t-26.5 -13 h-591q-163 0 -307 78t-230 214.5t-86 301.5zM485 512q0 74 38 138.5t102.5 102.5t138.5 38h18q11 0 17 -3h585q16 0 26.5 -12.5t10.5 -27.5q0 -17 -10.5 -29t-26.5 -12h-591q-5 2 -15 2h-14q-80 0 -138.5 -59.5t-58.5 -137.5t58.5 -137.5t138.5 -59.5h14q4 1 7 1.5t8 0.5 h591q16 0 26.5 -12t10.5 -29q0 -16 -10.5 -28t-26.5 -12h-585q-3 0 -8 -1t-9 -2h-18q-74 0 -138.5 38t-102.5 102.5t-38 138.5z" />
<glyph unicode="c" d="M170 -41q0 17 11 29t28 12h584q104 0 203.5 37.5t178 108t121.5 164t43 202.5q0 111 -44 205t-121 163.5t-174.5 106.5t-206.5 37h-584q-17 0 -28 12t-11 29q0 15 11 28t28 13h590q123 0 234.5 -44t200 -125.5t138 -190.5t49.5 -234q0 -165 -86 -301.5t-229 -214.5 t-307 -78h-590q-17 0 -28 13t-11 28zM170 276q0 17 11 29t28 12h590q6 0 8.5 -0.5t5.5 -1.5h14q52 0 97 26.5t72.5 72.5t27.5 98t-27.5 98t-72.5 72.5t-97 26.5h-14q-8 0 -14 -2h-590q-17 0 -28 12t-11 29q0 15 11.5 27.5t27.5 12.5h584q6 3 18 3h16q56 0 108 -23 t88.5 -59.5t59.5 -88.5t23 -108q0 -74 -38 -138.5t-102.5 -102.5t-138.5 -38h-16q-4 1 -9.5 2t-8.5 1h-584q-17 0 -28 12t-11 28z" />
<glyph unicode="d" horiz-adv-x="1364" d="M115 389v799q0 15 12 26t29 11q15 0 28 -11t13 -26v-793q0 -89 43.5 -156t115 -111.5t158.5 -67.5t168 -23q82 0 169 22.5t157.5 66.5t114.5 112t44 157v793q0 15 13 26t28 11q17 0 29 -11t12 -26v-799q0 -104 -51 -187t-134.5 -138t-184.5 -82t-197 -27t-197 27 t-184.5 82t-134.5 138t-51 187zM430 502v686q0 15 13 26t28 11q17 0 29 -11t12 -26v-680q0 -65 52 -110.5t118 -45.5q45 0 84 21t62.5 57t23.5 80v678q0 15 12 26t29 11q15 0 28 -11t13 -26v-684q0 -65 -35.5 -118.5t-94.5 -84.5t-122 -31q-97 0 -174.5 68t-77.5 164z" />
<glyph unicode="e" horiz-adv-x="1364" d="M115 -8v799q0 136 85 235t218 149t264 50q97 0 196.5 -26.5t184 -82t135.5 -138.5t51 -187v-799q0 -16 -12 -26.5t-29 -10.5q-15 0 -28 10.5t-13 26.5v792q0 90 -44.5 158.5t-114 111.5t-156.5 66t-170 23q-114 0 -225.5 -40t-185.5 -121t-74 -198v-792q0 -16 -13 -26.5 t-28 -10.5q-17 0 -29 10.5t-12 26.5zM430 -8v684q0 99 76.5 166t175.5 67q63 0 121.5 -30.5t94.5 -84t36 -116.5v-686q0 -16 -13 -26.5t-28 -10.5q-17 0 -29 10.5t-12 26.5v680q0 67 -50.5 111t-119.5 44q-68 0 -119 -45.5t-51 -111.5v-678q0 -16 -12 -26.5t-29 -10.5 q-15 0 -28 10.5t-13 26.5z" />
<glyph unicode="f" horiz-adv-x="1556" d="M170 -4q0 16 11.5 27.5t27.5 13.5q171 18 280 133.5t161 280.5t69.5 343t17.5 353q0 15 13 26t28 11q17 0 29 -11t12 -26q0 -249 35.5 -484.5t153 -419t338.5 -206.5q16 -2 27 -13t11 -28q0 -19 -13 -30t-32 -11q-244 26 -377 214t-184 462q-49 -274 -182.5 -462 t-380.5 -214q-19 0 -32 11t-13 30z" />
<glyph unicode="g" horiz-adv-x="1556" d="M170 1143q0 18 12.5 29.5t32.5 11.5q247 -25 381 -214.5t182 -461.5q31 168 97.5 315.5t182 245.5t281.5 115q20 0 32.5 -11.5t12.5 -29.5q0 -17 -11 -28t-27 -13q-221 -22 -338.5 -205.5t-153 -419.5t-35.5 -485q0 -16 -12 -26.5t-29 -10.5q-15 0 -28 10.5t-13 26.5 q0 175 -17.5 352.5t-69.5 343.5t-161 281.5t-280 132.5q-16 2 -27.5 13.5t-11.5 27.5z" />
<glyph unicode="h" d="M115 -4q0 18 10 29l614 663l-614 666q-10 7 -10 26q0 17 11 29t30 12q18 0 30 -12l1280 -1384q11 -11 11 -29q0 -17 -13 -29t-28 -12q-19 0 -31 12l-608 660l-611 -660q-12 -12 -30 -12q-17 0 -29 12t-12 29z" />
<glyph unicode="i" d="M115 -4q0 18 10 29l1280 1384q12 12 31 12q17 0 29 -12t12 -29q0 -19 -11 -26l-614 -666l614 -663q11 -11 11 -29q0 -17 -13 -29t-28 -12q-19 0 -31 12l-608 660l-611 -660q-12 -12 -30 -12q-17 0 -29 12t-12 29z" />
<glyph unicode="j" d="M170 0q0 15 11 28t28 13h1175q16 0 26.5 -13t10.5 -28t-10.5 -28t-26.5 -13h-1175q-17 0 -28 13t-11 28zM170 -397q0 15 11 28t28 13h1175q16 0 26.5 -13t10.5 -28q0 -17 -10.5 -29t-26.5 -12h-1175q-17 0 -28 12t-11 29zM170 950q0 164 86 299.5t230 214t307 78.5h591 q16 0 26.5 -12t10.5 -29q0 -15 -10.5 -28t-26.5 -13h-585q-107 0 -205 -37t-176.5 -107.5t-122 -163t-43.5 -202.5t43.5 -202.5t122 -163.5t176.5 -108.5t205 -37.5h585q16 0 26.5 -12t10.5 -29q0 -15 -10.5 -28t-26.5 -13h-591q-163 0 -307 78t-230 214t-86 302z" />
<glyph unicode="k" d="M170 0q0 15 11 28t28 13h1175q16 0 26.5 -13t10.5 -28t-10.5 -28t-26.5 -13h-1175q-17 0 -28 13t-11 28zM170 -397q0 15 11 28t28 13h1175q16 0 26.5 -13t10.5 -28q0 -17 -10.5 -29t-26.5 -12h-1175q-17 0 -28 12t-11 29zM170 397q0 17 11 29t28 12h584q144 0 269 66 t201 184.5t76 261.5q0 110 -44 203.5t-121 163t-174.5 106.5t-206.5 37h-584q-17 0 -28 13t-11 28q0 17 11 29t28 12h590q123 0 235.5 -44.5t200.5 -125.5t137 -189t49 -233q0 -165 -86 -301.5t-229 -214.5t-307 -78h-590q-17 0 -28 13t-11 28z" />
<glyph unicode="l" d="M115 313q0 17 11 29t28 12h1286q15 0 26 -12t11 -29q0 -15 -11 -28t-26 -13h-1286q-17 0 -28 13t-11 28zM115 711q0 15 11 28t28 13h348q11 73 53 131.5t105 91.5t137 33q55 0 103 -18.5t88.5 -53t67.5 -82.5t34 -102h350q15 0 26 -13t11 -28q0 -17 -11 -29t-26 -12h-391 q-14 0 -25.5 12.5t-11.5 26.5q0 55 -29 106t-79 81t-107 30q-90 0 -152.5 -65t-62.5 -152q0 -16 -12.5 -27.5t-26.5 -11.5h-389q-17 0 -28 12t-11 29z" />
<glyph unicode="m" d="M115 313q0 17 11 29t28 12h389q15 0 27 -11t12 -26q0 -89 62.5 -154t152.5 -65q57 0 107 30t79 81.5t29 107.5q0 13 11 25t26 12h391q15 0 26 -12t11 -29q0 -15 -11 -28t-26 -13h-350q-15 -108 -99.5 -182t-193.5 -74q-111 0 -195.5 74t-99.5 182h-348q-17 0 -28 13 t-11 28zM115 711q0 15 11 28t28 13h348q11 73 53 131.5t105 91.5t137 33q55 0 103 -18.5t88.5 -53t67.5 -82.5t34 -102h350q15 0 26 -13t11 -28q0 -17 -11 -29t-26 -12h-391q-14 0 -25.5 12.5t-11.5 26.5q0 55 -29 106t-79 81t-107 30q-90 0 -152.5 -65t-62.5 -152 q0 -16 -12.5 -27.5t-26.5 -11.5h-389q-17 0 -28 12t-11 29z" />
<glyph unicode="n" horiz-adv-x="2730" d="M115 512q0 25 20 35l1110 608q18 6 21 6q16 0 28.5 -12.5t12.5 -28.5q0 -22 -19 -35l-1046 -573l1046 -573q19 -13 19 -35q0 -16 -12.5 -28.5t-28.5 -12.5q-4 0 -9.5 2t-11.5 4l-1110 608q-20 10 -20 35zM768 512q0 25 20 35l1110 608q4 2 8 3.5t6 2t7 0.5 q18 0 29.5 -11.5t11.5 -29.5q0 -22 -18 -35l-1047 -573l1047 -573q18 -13 18 -35q0 -17 -11.5 -29t-29.5 -12q-3 0 -9 2l-12 4l-1110 608q-20 10 -20 35zM1421 512q0 24 21 35l1110 608q18 6 20 6q18 0 29.5 -11.5t11.5 -29.5q0 -22 -18 -35l-1047 -573l1047 -573 q18 -13 18 -35q0 -17 -11.5 -29t-29.5 -12q-3 0 -8.5 2t-11.5 4l-1110 608q-21 10 -21 35z" />
<glyph unicode="o" horiz-adv-x="2730" d="M115 -96q0 23 20 35l1086 573l-1086 573q-20 12 -20 35q0 16 11.5 28.5t29.5 12.5q5 0 11 -2t11 -4l1151 -608q19 -9 19 -35q0 -25 -19 -35l-1157 -610q-12 -4 -16 -4q-18 0 -29.5 12.5t-11.5 28.5zM748 -96q0 23 20 35l1085 573l-1085 573q-20 12 -20 35q0 16 11.5 28.5 t28.5 12.5q4 0 11 -2t12 -4l1151 -608q18 -9 18 -35t-18 -35l-1157 -610q-12 -4 -17 -4q-17 0 -28.5 12.5t-11.5 28.5zM1380 -96q0 23 21 35l1085 573l-1085 573q-21 12 -21 35q0 16 12.5 28.5t28.5 12.5q4 0 11 -2t12 -4l1151 -608q18 -9 18 -35t-18 -35l-1157 -610 q-12 -4 -17 -4q-16 0 -28.5 12.5t-12.5 28.5z" />
<glyph unicode="p" horiz-adv-x="1024" d="M115 666v718q0 13 11 25t26 12h718q16 0 26.5 -12t10.5 -29q0 -15 -10.5 -28t-26.5 -13h-673v-673q0 -16 -13.5 -27.5t-27.5 -11.5q-17 0 -29 11t-12 28z" />
<glyph unicode="q" horiz-adv-x="1024" d="M115 1380q0 17 10.5 29t26.5 12h718q15 0 26 -11t11 -26v-718q0 -17 -12 -28t-29 -11q-14 0 -27.5 11.5t-13.5 27.5v673h-673q-16 0 -26.5 13t-10.5 28z" />
<glyph unicode="r" horiz-adv-x="1937" d="M63 547q0 245 122 453.5t331.5 331t454.5 122.5q243 0 452 -122t331 -331t122 -454q0 -244 -122 -453t-330.5 -331.5t-452.5 -122.5q-246 0 -455 122.5t-331 331.5t-122 453zM145 547q0 -167 63.5 -317t178.5 -265.5t265.5 -179.5t318.5 -64q222 0 412 112.5t300.5 302 t110.5 411.5t-111 412t-301 301.5t-411 111.5q-223 0 -413 -111.5t-301.5 -301.5t-111.5 -412zM430 0v59q48 0 78 4t50 21t20 53v778q0 53 -37.5 65.5t-110.5 12.5v60h494q89 0 189.5 -30.5t171.5 -94t71 -154.5q0 -94 -78 -158.5t-184 -95.5q65 -26 112 -75t60 -115 l28 -135q8 -43 18 -79.5t32 -63.5t59 -27q45 0 69.5 39.5t24.5 89.5q0 7 6.5 12.5t14.5 5.5h18q20 0 20 -27q0 -66 -44 -120t-109 -54q-119 0 -206 52t-87 163v136q0 76 -56 127t-132 51h-195v-363q0 -36 20 -53t49.5 -21t77.5 -4v-59q-25 0 -67.5 1.5t-86 3t-67.5 1.5 q-37 0 -55.5 -0.5t-47 -1.5t-60.5 -2.5t-60 -1.5zM727 553h174q86 0 145 19t92 68t33 134t-33 133.5t-93 67t-144 18.5h-100q-47 0 -60.5 -14.5t-13.5 -63.5v-362z" />
<glyph unicode="s" horiz-adv-x="1847" d="M16 547q0 246 122.5 454t332 330.5t453.5 122.5q243 0 452.5 -122.5t332 -330.5t122.5 -454q0 -245 -122.5 -453.5t-331.5 -331t-453 -122.5q-245 0 -454 122.5t-331.5 331t-122.5 453.5zM98 547q0 -167 64 -317.5t179 -265.5t265.5 -179t317.5 -64t317 64t265 179 t179 265.5t64 317.5q0 223 -111.5 412.5t-302 301t-411.5 111.5q-222 0 -412 -111t-302 -301t-112 -413zM559 -12v344q0 16 19 16h24q6 0 11 -5t5 -11q0 -149 99 -225t252 -76q56 0 103 28t75.5 75t28.5 104q0 71 -44.5 128t-113.5 74l-223 52q-66 17 -119 58.5t-85 102.5 t-32 127q0 83 45.5 152.5t118 109t156.5 39.5q75 0 139.5 -24t114.5 -74l67 92q6 6 14 6h11q6 0 11 -5t5 -11v-342q0 -18 -16 -18h-25q-18 0 -18 18q-14 136 -92 220.5t-211 84.5q-52 0 -100 -24.5t-77.5 -67.5t-29.5 -96q0 -65 43.5 -115.5t109.5 -69.5l222 -51 q105 -25 173 -113t68 -198q0 -85 -43 -159.5t-116.5 -118.5t-159.5 -44q-191 0 -301 99l-68 -93q-6 -6 -12 -6h-10q-7 0 -13 6t-6 11z" />
<glyph unicode="t" horiz-adv-x="1364" d="M115 -8v704q0 93 49.5 166.5t128 121.5t173 72.5t177.5 24.5v389q0 16 13 26.5t28 10.5q17 0 29 -10.5t12 -26.5v-389q86 0 177.5 -24t171.5 -73t128.5 -121.5t48.5 -166.5v-704q0 -16 -12 -26.5t-29 -10.5q-15 0 -28 10.5t-13 26.5v698q0 100 -69.5 169.5t-172.5 103.5 t-202 34v-1005q0 -16 -12 -26.5t-29 -10.5q-15 0 -28 10.5t-13 26.5v1007q-99 0 -202.5 -34.5t-173.5 -104.5t-70 -170v-698q0 -16 -13 -26.5t-28 -10.5q-17 0 -29 10.5t-12 26.5z" />
<glyph unicode="u" d="M115 512q0 15 11 28t28 13h602v627q0 15 12 26t29 11q15 0 28 -11t13 -26v-627h604q15 0 26 -13t11 -28t-11 -28t-26 -13h-604v-627q0 -15 -13 -26t-28 -11q-17 0 -29 11t-12 26v627h-602q-17 0 -28 13t-11 28zM694 1460v13q4 39 30.5 65.5t66.5 30.5h12 q27 -3 47.5 -15.5t33 -33t15.5 -47.5v-13q-4 -39 -30.5 -65.5t-65.5 -30.5h-12q-40 4 -66.5 30.5t-30.5 65.5z" />
<glyph unicode="v" d="M115 688v12q6 52 28 52q23 0 29 -52q0 -79 36.5 -152t101 -117t145.5 -44q90 0 163 45.5t174.5 137t177.5 137t169 45.5q103 0 180 -61.5t118.5 -158.5t41.5 -196v-12q-6 -52 -29 -52t-29 52q0 79 -36.5 152t-100.5 117t-145 44q-90 0 -163 -45.5t-174.5 -137t-177 -137 t-169.5 -45.5q-103 0 -180 61.5t-118.5 158.5t-41.5 196z" />
<glyph unicode="w" d="M115 115q0 15 11 28t28 13h1288q15 0 26 -13t11 -28q0 -17 -11 -29t-26 -12h-1288q-17 0 -28 12t-11 29zM115 887v12q6 51 28 51q23 0 29 -51q0 -110 85 -191t198 -81q88 0 161.5 40.5t175.5 120t179 121t168 41.5q146 0 243 -113t97 -262v-12q-6 -51 -29 -51t-29 51 q0 74 -39.5 136.5t-104.5 99.5t-138 37q-90 0 -164.5 -41.5t-178.5 -122.5t-176.5 -120.5t-164.5 -39.5q-98 0 -175.5 52.5t-121 138.5t-43.5 184z" />
<glyph unicode="x" horiz-adv-x="1024" d="M115 -8v719q0 17 12 28t29 11q14 0 27.5 -11.5t13.5 -27.5v-674h673q16 0 26.5 -13t10.5 -28q0 -17 -10.5 -29t-26.5 -12h-718q-13 0 -25 12t-12 25z" />
<glyph unicode="y" horiz-adv-x="1024" d="M115 -4q0 15 10.5 28t26.5 13h673v674q0 16 13.5 27.5t27.5 11.5q17 0 29 -11t12 -28v-719q0 -15 -12 -26t-25 -11h-718q-16 0 -26.5 12t-10.5 29z" />
<glyph unicode="z" horiz-adv-x="1706" d="M98 274v873q0 8 7 13t14 5q11 0 18 -10q232 -424 694 -424q0 157 -48 286.5t-141.5 231.5t-231.5 178q-13 9 -13 19q0 8 5 14t14 6h874q8 0 13.5 -6t5.5 -14q0 -10 -13 -19q-138 -76 -232 -178.5t-142 -231.5t-48 -286q462 0 697 424q3 10 18 10q6 0 13.5 -5t7.5 -13 v-873q0 -7 -7.5 -12.5t-13.5 -5.5q-15 0 -18 10q-234 424 -697 424q0 -157 48 -286t142 -231.5t232 -178.5q13 -7 13 -19q0 -8 -6 -14t-13 -6h-874q-7 0 -13 6t-6 14q0 12 13 19q138 76 231.5 178t141.5 231.5t48 286.5q-233 0 -406.5 -107.5t-287.5 -316.5q-7 -10 -18 -10 q-21 0 -21 18z" />
<glyph unicode="{" horiz-adv-x="1024" d="M115 236v1220q0 94 61 157.5t154 92.5t182 29q65 0 135 -15.5t129.5 -49t96 -88t36.5 -126.5v-244q-5 -32 -27 -52.5t-55 -20.5q-31 0 -52.5 19.5t-29.5 53.5v230q0 70 -74 99.5t-159 29.5t-159 -29.5t-74 -99.5v-1192q0 -72 74 -101.5t159 -29.5t159 29.5t74 101.5v227 q8 33 29 53.5t53 20.5q34 0 55.5 -21t26.5 -53v-241q0 -95 -60.5 -158t-153.5 -93t-183 -30t-183 30t-153.5 93t-60.5 158z" />
<glyph unicode="|" horiz-adv-x="1137" d="M115 795v14q4 30 25.5 50.5t52.5 23.5h753q33 -3 53.5 -23.5t24.5 -50.5v-14q-4 -31 -24.5 -52t-53.5 -24h-295v-1081q-7 -33 -28 -53.5t-54 -20.5q-66 0 -82 74v1081h-294q-68 6 -78 76z" />
<glyph unicode="}" d="M115 512q0 140 53 263t147.5 218.5t219 148t262.5 52.5t263 -53t219 -147.5t147 -218t53 -263.5q0 -138 -53.5 -263t-147 -218.5t-218.5 -147t-263 -53.5t-262.5 53.5t-218.5 147.5t-147.5 218.5t-53.5 262.5zM174 512q0 -124 49 -237.5t136 -200.5t200.5 -136t237.5 -49 q125 0 239.5 49.5t199.5 134.5t134 199t49 240q0 128 -49.5 242t-134 199t-199 133.5t-239.5 48.5q-124 0 -237.5 -48t-200 -134.5t-136 -201t-49.5 -239.5zM512 512q0 76 39 141.5t104.5 104.5t141.5 39q75 0 141 -39.5t104.5 -104.5t38.5 -141t-38.5 -141t-104.5 -104.5 t-141 -39.5q-76 0 -141.5 39t-104.5 104.5t-39 141.5zM594 512q0 -55 27.5 -101.5t74 -74t101.5 -27.5q54 0 100.5 27.5t74 74t27.5 101.5t-27.5 101.5t-74 74t-100.5 27.5q-55 0 -101.5 -27.5t-74 -74t-27.5 -101.5z" />
<glyph unicode="~" d="M115 512q0 140 53 263t147.5 218.5t219 148t262.5 52.5t263 -53t219 -147.5t147 -218t53 -263.5q0 -138 -53.5 -263t-147 -218.5t-218.5 -147t-263 -53.5t-262.5 53.5t-218.5 147.5t-147.5 218.5t-53.5 262.5zM174 512q0 -124 49 -237.5t136 -200.5t200.5 -136t237.5 -49 q125 0 239.5 49.5t199.5 134.5t134 199t49 240q0 128 -49.5 242t-134 199t-199 133.5t-239.5 48.5q-124 0 -237.5 -48t-200 -134.5t-136 -201t-49.5 -239.5zM418 324q0 32 28 49l295 139l-295 139q-28 17 -28 49q0 24 17 43t42 19q19 0 29 -10l262 -191l-31 334v6 q0 22 18.5 37.5t41.5 15.5t41 -15.5t18 -37.5v-6l-31 -334l262 191q11 10 29 10q26 0 43 -18.5t17 -43.5q0 -31 -29 -49l-295 -139l295 -139q29 -18 29 -49q0 -25 -17 -43.5t-43 -18.5q-18 0 -29 10l-262 191l31 -334v-4q0 -22 -18.5 -37.5t-40.5 -15.5q-21 0 -40.5 15.5 t-19.5 37.5v4l31 334l-262 -191q-10 -10 -29 -10q-25 0 -42 19t-17 43z" />
<glyph unicode="&#xa1;" d="M115 39v1331q0 14 11.5 25.5t27.5 11.5h1286q14 0 25.5 -11.5t11.5 -25.5v-1331q0 -15 -12 -27t-25 -12h-1286q-15 0 -27 12t-12 27zM197 82h1198v1243h-1198v-1243zM684 705q0 46 34 79t79 33q28 0 55 -15t42 -42t15 -55q0 -45 -33 -79t-79 -34q-45 0 -79 34t-34 79z " />
<glyph unicode="&#xa2;" d="M115 39v1331q0 14 11.5 25.5t27.5 11.5h1286q14 0 25.5 -11.5t11.5 -25.5v-1331q0 -15 -12 -27t-25 -12h-1286q-15 0 -27 12t-12 27zM197 82h559v582h-559v-582zM197 745h559v580h-559v-580zM838 82h557v582h-557v-582zM838 745h557v580h-557v-580z" />
<glyph unicode="&#xa3;" d="M115 39v1331q0 14 11.5 25.5t27.5 11.5h1286q14 0 25.5 -11.5t11.5 -25.5v-1331q0 -15 -12 -27t-25 -12h-1286q-15 0 -27 12t-12 27zM197 143l540 562l-540 559v-1121zM252 82h1087l-542 561zM252 1325l545 -561l542 561h-1087zM854 705l541 -562v1121z" />
<glyph unicode="&#xa4;" d="M115 39v1331q0 14 11.5 25.5t27.5 11.5h1286q14 0 25.5 -11.5t11.5 -25.5v-1331q0 -15 -12 -27t-25 -12h-1286q-15 0 -27 12t-12 27zM197 82h1198v1243h-1198v-1243z" />
<glyph unicode="&#xa5;" d="M115 39v1331q0 14 11.5 25.5t27.5 11.5h1286q14 0 25.5 -11.5t11.5 -25.5v-1331q0 -15 -12 -27t-25 -12h-1286q-15 0 -27 12t-12 27z" />
<glyph unicode="&#xa6;" horiz-adv-x="567" d="M115 39v307q0 14 11.5 25.5t27.5 11.5h262q14 0 25.5 -11.5t11.5 -25.5v-307q0 -15 -12 -27t-25 -12h-262q-15 0 -27 12t-12 27z" />
<glyph unicode="&#xa7;" horiz-adv-x="1364" d="M115 598q0 11 6 20l526 830q14 18 35 18q22 0 31 -12l530 -836q6 -9 6 -20q0 -12 -6 -23l-526 -829q-14 -18 -35 -18q-22 0 -31 12l-530 835q-6 10 -6 23zM205 598l477 -754l477 754l-477 752z" />
<glyph unicode="&#xa8;" horiz-adv-x="1364" d="M115 598q0 11 6 20l526 830q14 18 35 18q22 0 31 -12l530 -836q6 -9 6 -20q0 -12 -6 -23l-526 -829q-14 -18 -35 -18q-22 0 -31 12l-530 835q-6 10 -6 23z" />
<glyph unicode="&#xa9;" d="M115 512q0 141 58 273t162.5 229t239.5 143q-116 55 -217 162l68 20q101 -115 250 -155q65 10 119 10q13 0 21.5 -7.5t8.5 -21.5q0 -11 -7.5 -20.5t-18.5 -9.5q-31 0 -45 -2q-46 -37 -83.5 -88t-61.5 -109t-34 -117l-69 -18q24 146 112 270l-10 35 q-126 -40 -224.5 -128.5t-154 -211.5t-55.5 -254q0 -123 48.5 -238.5t135 -201.5t201 -134.5t238.5 -48.5t238 48.5t200 134.5t134 199.5t48 240.5q0 91 -25 175t-70.5 157.5t-111 133t-143.5 95.5q-16 6 -16 27q0 12 8 20t20 8q8 0 15 -2q116 -56 202.5 -151t133.5 -216 t47 -247q0 -137 -53 -262.5t-146.5 -219t-217.5 -147t-263 -53.5q-140 0 -263 53t-218.5 147.5t-148 219t-52.5 262.5z" />
<glyph unicode="&#xaa;" d="M115 512q0 130 47.5 250t134.5 214.5t203 149.5q4 2 12 2q13 0 22 -8t9 -20q0 -19 -17 -27q-107 -51 -186.5 -137.5t-122.5 -197t-43 -226.5q0 -123 48.5 -238.5t135 -201.5t201 -134.5t238.5 -48.5t238 48.5t200 134.5t134 199.5t48 240.5q0 131 -55.5 254t-154 211.5 t-224.5 128.5l-10 -35q88 -124 112 -270l-69 18q-10 59 -34 117t-61 108.5t-83 88.5q-15 2 -43 2q-12 0 -20.5 9.5t-8.5 20.5q0 12 9.5 20.5t23.5 8.5q53 0 116 -10q151 40 250 155l68 -20q-102 -109 -217 -162q101 -34 186.5 -98t147 -150t94.5 -188.5t33 -208.5 q0 -137 -53 -262.5t-146.5 -219t-217.5 -147t-263 -53.5q-140 0 -263 53t-218.5 147.5t-148 219t-52.5 262.5z" />
<glyph unicode="&#xad;" horiz-adv-x="2048" d="M115 313v41h1775q18 0 29.5 -11t11.5 -30q0 -17 -12 -29t-29 -12h-1589q43 -38 81 -86.5t66 -104t44 -110.5h-72q-39 110 -120 201t-185 141zM115 711q0 15 12 28t29 13h1589q-43 38 -81 86.5t-66 104t-44 110.5h72q40 -111 119.5 -200t185.5 -142v-41h-1775 q-17 0 -29 12t-12 29z" />
<glyph unicode="&#xae;" horiz-adv-x="2048" d="M115 313q0 17 11 29t30 12h1775v-41q-104 -50 -184.5 -140.5t-120.5 -201.5h-72q25 87 75 165.5t116 135.5h-1589q-17 0 -29 13t-12 28zM115 670v41q107 53 186.5 142.5t118.5 199.5h72q-23 -84 -72.5 -161.5t-118.5 -139.5h1589q17 0 29 -12t12 -29q0 -18 -12 -29.5 t-29 -11.5h-1775z" />
<glyph unicode="&#xaf;" d="M115 39v1331q0 14 11.5 25.5t27.5 11.5h1286q14 0 25.5 -11.5t11.5 -25.5v-1331q0 -15 -12 -27t-25 -12h-1286q-15 0 -27 12t-12 27zM197 82h1198v582h-1198v-582zM197 745h1198v580h-1198v-580z" />
<glyph unicode="&#xb0;" horiz-adv-x="1479" d="M115 39v1345q0 16 12 26.5t29 10.5q15 0 28 -10.5t13 -26.5v-1345q0 -17 -13 -28t-28 -11q-17 0 -29 11t-12 28zM512 39v1345q0 16 12 26.5t29 10.5q15 0 28 -10.5t13 -26.5v-632h731q16 0 26.5 -13t10.5 -28q0 -17 -10.5 -29t-26.5 -12h-731v-631q0 -17 -13 -28t-28 -11 q-17 0 -29 11t-12 28z" />
<glyph unicode="&#xb1;" horiz-adv-x="1819" d="M115 39v1345q0 16 12 26.5t29 10.5q15 0 28 -10.5t13 -26.5v-1345q0 -17 -13 -28t-28 -11q-17 0 -29 11t-12 28zM485 39v1345q0 16 13 26.5t28 10.5q17 0 29 -10.5t12 -26.5v-1345q0 -17 -12 -28t-29 -11q-15 0 -28 11t-13 28zM856 39v1345q0 16 13 26.5t28 10.5 q17 0 29 -10.5t12 -26.5v-632h729q16 0 26.5 -13t10.5 -28q0 -17 -10.5 -29t-26.5 -12h-729v-631q0 -17 -12 -28t-29 -11q-15 0 -28 11t-13 28z" />
<glyph unicode="&#xb2;" horiz-adv-x="1251" d="M115 39v1345q0 16 12 26.5t29 10.5q15 0 28 -10.5t13 -26.5v-434h901q15 0 26 -12t11 -29q0 -15 -11 -28t-26 -13h-901v-315h901q15 0 26 -13t11 -28t-11 -28t-26 -13h-901v-432q0 -17 -13 -28t-28 -11q-17 0 -29 11t-12 28z" />
<glyph unicode="&#xb3;" horiz-adv-x="2048" d="M115 512q0 17 11 29t30 12h1224q-66 60 -117.5 137.5t-84.5 163.5h71q67 -184 236 -301h274q-45 41 -83.5 88.5t-70.5 104t-51 108.5h72q43 -112 121.5 -199.5t183.5 -142.5q-105 -55 -184 -143t-121 -199h-72q33 88 85 163.5t120 137.5h-274q-169 -117 -236 -301h-71 q32 84 82.5 161t119.5 140h-1224q-17 0 -29 12t-12 29z" />
<glyph unicode="&#xb4;" horiz-adv-x="2048" d="M115 512q104 53 184.5 143t120.5 199h72q-19 -52 -51 -108.5t-70.5 -104t-83.5 -88.5h274q78 54 141 133t95 168h71q-66 -177 -202 -301h1224q18 0 29.5 -11t11.5 -30q0 -18 -12 -29.5t-29 -11.5h-1224q136 -124 202 -301h-71q-31 87 -93 166t-143 135h-274 q71 -65 123 -141.5t82 -159.5h-72q-39 108 -120 198.5t-185 143.5z" />
<glyph unicode="&#xb5;" horiz-adv-x="2048" d="M115 170q104 53 184.5 143t120.5 199q-39 108 -120 198.5t-185 143.5q72 37 129.5 88t103.5 117t72 135h72q-64 -170 -205 -299h1603q18 0 29.5 -11t11.5 -30t-11.5 -30t-29.5 -11h-1603q142 -133 205 -301q-63 -168 -205 -301h1603q18 0 29.5 -10.5t11.5 -30.5 q0 -18 -12 -29.5t-29 -11.5h-1603q141 -129 205 -299h-72q-40 108 -120.5 197.5t-184.5 142.5z" />
<glyph unicode="&#xb6;" horiz-adv-x="2048" d="M115 170q0 18 11.5 29.5t29.5 11.5h1603q-142 133 -205 301q63 168 205 301h-1603q-18 0 -29.5 11.5t-11.5 29.5q0 17 11 29t30 12h1603q-141 129 -205 299h72q43 -110 121.5 -197.5t183.5 -142.5q-105 -55 -184 -143t-121 -199q43 -112 121.5 -199.5t183.5 -142.5 q-105 -55 -183.5 -142t-121.5 -198h-72q64 170 205 299h-1603q-17 0 -29 12t-12 29z" />
<glyph unicode="&#xb8;" horiz-adv-x="1706" d="M170 -20q172 -65 299 -205v1605q0 17 11 29t30 12t30 -11.5t11 -29.5v-1605q133 142 301 205q168 -63 301 -205v1605q0 18 10.5 29.5t30.5 11.5q18 0 29.5 -11t11.5 -30v-1605q127 140 299 205v-72q-69 -26 -135 -72t-117 -103.5t-88 -129.5q-53 104 -143.5 185 t-198.5 120q-109 -40 -199 -120.5t-143 -184.5q-53 104 -142.5 184.5t-197.5 120.5v72z" />
<glyph unicode="&#xb9;" horiz-adv-x="852" d="M385 -356v1777h41q52 -105 142 -184.5t200 -120.5v-72q-89 26 -165.5 75t-135.5 116v-1591q0 -18 -12 -29.5t-29 -11.5t-29 12t-12 29z" />
<glyph unicode="&#xba;" horiz-adv-x="852" d="M385 -397v1777q0 17 11 29t30 12q18 0 29.5 -11t11.5 -30v-1591q62 70 139 119t162 72v-72q-109 -39 -199.5 -119.5t-142.5 -185.5h-41z" />
<glyph unicode="&#xbb;" horiz-adv-x="852" d="M86 1044v72q112 41 201 120.5t141 184.5h41v-1777q0 -18 -12 -29.5t-29 -11.5q-15 0 -28 12t-13 29v1591q-59 -67 -136 -116.5t-165 -74.5z" />
<glyph unicode="&#xbc;" horiz-adv-x="852" d="M86 -20q84 -23 161.5 -72t139.5 -119v1591q0 17 12 29t29 12q18 0 29.5 -11t11.5 -30v-1777h-41q-52 105 -141.5 185.5t-200.5 119.5v72z" />
<glyph unicode="&#xbd;" horiz-adv-x="2275" d="M147 170q66 176 203 301v82q-137 125 -203 301h72q67 -184 236 -301h1532q-139 126 -205 301h71q42 -110 122 -199.5t184 -142.5q-104 -53 -184.5 -143t-121.5 -199h-71q66 175 205 301h-1532q-169 -117 -236 -301h-72z" />
<glyph unicode="&#xbe;" horiz-adv-x="2275" d="M115 512q104 53 184.5 143t120.5 199h72q-19 -52 -51 -108.5t-70.5 -104t-83.5 -88.5h1532q81 57 142 134.5t93 166.5h72q-66 -176 -203 -301v-82q137 -125 203 -301h-72q-31 87 -91 165t-144 136h-1532q71 -65 123 -141.5t82 -159.5h-72q-39 108 -120 198.5t-185 143.5z " />
<glyph unicode="&#xbf;" horiz-adv-x="2048" d="M115 342q0 17 11 29t30 12h1603q-140 127 -205 299h72q43 -110 121.5 -197.5t183.5 -142.5q-105 -55 -184 -143t-121 -199h-72q33 88 85 163.5t120 137.5h-1603q-18 0 -29.5 11.5t-11.5 29.5zM115 1024q104 53 184.5 143t120.5 199h72q-19 -52 -51 -108.5t-70.5 -104 t-83.5 -88.5h1603q18 0 29.5 -11t11.5 -30q0 -18 -12 -29.5t-29 -11.5h-1603q71 -65 123 -141.5t82 -159.5h-72q-39 108 -120 198.5t-185 143.5z" />
<glyph unicode="&#xc0;" horiz-adv-x="2048" d="M115 342q72 37 129.5 88t103.5 117t72 135h72q-65 -172 -205 -299h1603q18 0 29.5 -11t11.5 -30t-11.5 -30t-29.5 -11h-1603q71 -65 123 -141.5t82 -159.5h-72q-39 108 -120 198.5t-185 143.5zM115 1024q0 17 11 29t30 12h1603q-140 127 -205 299h72 q43 -110 121.5 -197.5t183.5 -142.5q-105 -55 -184 -143t-121 -199h-72q33 88 85 163.5t120 137.5h-1603q-18 0 -29.5 11.5t-11.5 29.5z" />
<glyph unicode="&#xc1;" horiz-adv-x="1024" d="M115 1137q105 54 185 143t120 199h72q-63 -168 -205 -301h579q17 0 29 -12t12 -29v-1096q0 -18 -12 -29.5t-29 -11.5q-15 0 -28 12t-13 29v1055h-538q139 -126 205 -299h-72q-40 108 -120.5 197.5t-184.5 142.5z" />
<glyph unicode="&#xc2;" horiz-adv-x="1024" d="M115 41v1096q0 15 12 28t29 13h579q-142 133 -205 301h72q43 -113 120.5 -199.5t184.5 -142.5q-105 -55 -183.5 -142t-121.5 -198h-72q66 173 205 299h-538v-1055q0 -17 -13 -29t-28 -12q-17 0 -29 12t-12 29z" />
<glyph unicode="&#xc3;" horiz-adv-x="2048" d="M113 512q0 14 10 29l190 170q13 12 31 12q16 0 31 -12l348 -314l348 314q15 12 31 12q17 0 31 -12l176 -158h450q-45 41 -83.5 88.5t-70.5 104t-51 108.5h72q43 -112 121.5 -199.5t183.5 -142.5q-105 -55 -184 -143t-121 -199h-72q33 88 85 163.5t120 137.5h-467 q-14 0 -32 14l-158 142l-348 -314q-13 -12 -31 -12q-19 0 -31 12l-348 314l-160 -142q-14 -14 -30 -14q-17 0 -29 12t-12 29z" />
<glyph unicode="&#xc4;" d="M115 512q0 140 53 263t147.5 218.5t219 148t262.5 52.5t263 -53t219 -147.5t147 -218t53 -263.5q0 -138 -53.5 -263t-147 -218.5t-218.5 -147t-263 -53.5t-262.5 53.5t-218.5 147.5t-147.5 218.5t-53.5 262.5zM174 512q0 -124 49 -237.5t136 -200.5t200.5 -136t237.5 -49 q125 0 239.5 49.5t199.5 134.5t134 199t49 240q0 128 -49.5 242t-134 199t-199 133.5t-239.5 48.5q-124 0 -237.5 -48t-200 -134.5t-136 -201t-49.5 -239.5zM457 514q0 10 8.5 19.5t17.5 9.5h627q10 0 18.5 -9.5t8.5 -19.5q0 -12 -8.5 -21.5t-18.5 -9.5h-627q-9 0 -17.5 9.5 t-8.5 21.5z" />
<glyph unicode="&#x2000;" horiz-adv-x="1027" />
<glyph unicode="&#x2001;" horiz-adv-x="2054" />
<glyph unicode="&#x2002;" horiz-adv-x="1027" />
<glyph unicode="&#x2003;" horiz-adv-x="2054" />
<glyph unicode="&#x2004;" horiz-adv-x="684" />
<glyph unicode="&#x2005;" horiz-adv-x="513" />
<glyph unicode="&#x2006;" horiz-adv-x="342" />
<glyph unicode="&#x2007;" horiz-adv-x="342" />
<glyph unicode="&#x2008;" horiz-adv-x="256" />
<glyph unicode="&#x2009;" horiz-adv-x="410" />
<glyph unicode="&#x200a;" horiz-adv-x="114" />
<glyph unicode="&#x2010;" d="M115 -399q0 99 41 195t118.5 157t180.5 61q95 0 172 -47t175.5 -135.5t171.5 -134t163 -45.5q81 0 145.5 43.5t100.5 116t36 151.5q6 51 29 51t29 -51v-12q0 -99 -41.5 -195.5t-118.5 -157.5t-180 -61q-93 0 -168 45.5t-173 134t-174.5 136t-166.5 47.5q-80 0 -145.5 -44 t-101.5 -116.5t-36 -151.5q-6 -51 -29 -51q-22 0 -28 51v13zM170 905q0 17 11 29t28 12q183 0 359.5 15t347 65t288.5 156.5t135 279.5q1 16 12.5 26.5t28.5 10.5q19 0 30 -13t11 -30q-46 -440 -663 -551q269 -47 453.5 -176.5t209.5 -370.5q0 -18 -11 -31.5t-30 -13.5 q-17 0 -28 11t-13 28q-17 171 -137 278t-289.5 156t-339.5 63.5t-364 14.5q-17 0 -28 13t-11 28z" />
<glyph unicode="&#x2011;" d="M115 -399q0 99 41 195t118.5 157t180.5 61q95 0 172 -47t175.5 -135.5t171.5 -134t163 -45.5q81 0 145.5 43.5t100.5 116t36 151.5q6 51 29 51t29 -51v-12q0 -99 -41.5 -195.5t-118.5 -157.5t-180 -61q-93 0 -168 45.5t-173 134t-174.5 136t-166.5 47.5q-80 0 -145.5 -44 t-101.5 -116.5t-36 -151.5q-6 -51 -29 -51q-22 0 -28 51v13zM170 905q0 17 11 29t28 12q183 0 359.5 15t347 65t288.5 156.5t135 279.5q1 16 12.5 26.5t28.5 10.5q19 0 30 -13t11 -30q-46 -440 -663 -551q269 -47 453.5 -176.5t209.5 -370.5q0 -18 -11 -31.5t-30 -13.5 q-17 0 -28 11t-13 28q-17 171 -137 278t-289.5 156t-339.5 63.5t-364 14.5q-17 0 -28 13t-11 28z" />
<glyph unicode="&#x2012;" d="M115 -399q0 99 41 195t118.5 157t180.5 61q95 0 172 -47t175.5 -135.5t171.5 -134t163 -45.5q81 0 145.5 43.5t100.5 116t36 151.5q6 51 29 51t29 -51v-12q0 -99 -41.5 -195.5t-118.5 -157.5t-180 -61q-93 0 -168 45.5t-173 134t-174.5 136t-166.5 47.5q-80 0 -145.5 -44 t-101.5 -116.5t-36 -151.5q-6 -51 -29 -51q-22 0 -28 51v13zM170 905q0 17 11 29t28 12q183 0 359.5 15t347 65t288.5 156.5t135 279.5q1 16 12.5 26.5t28.5 10.5q19 0 30 -13t11 -30q-46 -440 -663 -551q269 -47 453.5 -176.5t209.5 -370.5q0 -18 -11 -31.5t-30 -13.5 q-17 0 -28 11t-13 28q-17 171 -137 278t-289.5 156t-339.5 63.5t-364 14.5q-17 0 -28 13t-11 28z" />
<glyph unicode="&#x2013;" horiz-adv-x="1253" d="M115 -399q0 99 31 195t89 157t136 61q71 0 129 -47t132 -135.5t129 -134t122 -45.5q61 0 109.5 43.5t75.5 116t27 151.5q5 51 22 51t22 -51v-12q0 -99 -31 -195.5t-89 -157.5t-136 -61q-70 0 -126 45.5t-130 134t-131.5 136t-124.5 47.5q-61 0 -110 -44t-76 -116.5 t-27 -151.5q-5 -51 -22 -51q-16 0 -21 51v13zM156 905q0 17 8.5 29t21.5 12q137 0 270 15t261 65t216.5 156.5t101.5 279.5q1 16 9.5 26.5t21.5 10.5q14 0 22.5 -13t8.5 -30q-35 -440 -499 -551q203 -47 341.5 -176.5t157.5 -370.5q0 -18 -8.5 -31.5t-22.5 -13.5 q-13 0 -21 11t-10 28q-13 171 -103 278t-217.5 156t-255 63.5t-273.5 14.5q-13 0 -21.5 13t-8.5 28z" />
<glyph unicode="&#x2014;" horiz-adv-x="2277" d="M115 -399q0 99 61.5 195t178 157t271.5 61q143 0 259 -47t264 -135.5t257.5 -134t245.5 -45.5q122 0 219 43.5t151 116t54 151.5q9 51 43 51q35 0 44 -51v-12q0 -99 -62.5 -195.5t-178 -157.5t-270.5 -61q-140 0 -253 45.5t-260 134t-262 136t-251 47.5 q-120 0 -218.5 -44t-152.5 -116.5t-54 -151.5q-9 -51 -44 -51q-33 0 -42 51v13zM198 905q0 17 16.5 29t41.5 12q276 0 541 15t521.5 65t434 156.5t202.5 279.5q2 16 19.5 26.5t42.5 10.5q29 0 45.5 -13t16.5 -30q-69 -440 -997 -551q404 -47 681.5 -176.5t315.5 -370.5 q0 -18 -16.5 -31.5t-45.5 -13.5q-25 0 -41.5 11t-20.5 28q-25 171 -205.5 278t-435.5 156t-510.5 63.5t-547.5 14.5q-25 0 -41.5 13t-16.5 28z" />
<glyph unicode="&#x202f;" horiz-adv-x="410" />
<glyph unicode="&#x205f;" horiz-adv-x="513" />
<glyph unicode="&#x2219;" horiz-adv-x="1706" d="M170 1044v72q111 43 198 121.5t142 183.5q55 -105 142.5 -183.5t199.5 -121.5q111 42 199 121t143 184q55 -105 142.5 -183.5t197.5 -121.5v-72q-172 65 -299 205v-1605q0 -18 -12 -29.5t-29 -11.5q-18 0 -29.5 11.5t-11.5 29.5v1605q-133 -142 -301 -205 q-168 63 -301 205v-1605q0 -18 -11.5 -29.5t-29.5 -11.5q-17 0 -29 12t-12 29v1605q-127 -140 -299 -205z" />
<glyph unicode="&#xe000;" horiz-adv-x="750" d="M0 750h750v-750h-750v750z" />
</font>
</defs>
</svg>
