<?xml version="1.0" standalone="no"?>
<!DOCTYPE svg PUBLIC "-//W3C//DTD SVG 1.1//EN" "http://www.w3.org/Graphics/SVG/1.1/DTD/svg11.dtd" >
<svg xmlns="http://www.w3.org/2000/svg">
<metadata>
This is a custom SVG webfont generated by Font Squirrel.
Copyright   : Copyright C 1994 1995 Basil K Malyshev All Rights Reserved012BaKoMa Fonts Collection LevelC
</metadata>
<defs>
<font id="msam9Regular" horiz-adv-x="1636" >
<font-face units-per-em="2048" ascent="1638" descent="-410" />
<missing-glyph horiz-adv-x="500" />
<glyph unicode=" "  horiz-adv-x="500" />
<glyph unicode="&#x09;" horiz-adv-x="500" />
<glyph unicode="&#xa0;" horiz-adv-x="500" />
<glyph unicode="!" horiz-adv-x="2922" d="M117 512q73 36 132.5 86.5t105.5 114t77 139.5h72q-21 -53 -52.5 -106.5t-71 -102.5t-83.5 -88h285l159 158q13 12 31 12q19 0 31 -12l313 -310l314 310q12 12 30 12q19 0 31 -12l313 -310l314 310q12 12 30 12q19 0 31 -12l160 -158h284q-138 125 -206 297h71 q29 -71 76.5 -137.5t108 -117.5t131.5 -85q-73 -37 -132.5 -87.5t-107 -117t-76.5 -137.5h-71q68 172 206 297h-305q-18 0 -32 18l-138 133l-313 -309q-12 -12 -31 -12q-18 0 -30 12l-314 309l-313 -309q-12 -12 -31 -12q-17 0 -31 12l-313 309l-137 -133q-14 -18 -31 -18 h-307q71 -64 123.5 -140.5t83.5 -156.5h-72q-31 76 -77 139.5t-104.5 113.5t-133.5 89z" />
<glyph unicode="&#x22;" horiz-adv-x="2103" d="M117 512q73 36 132.5 86.5t105.5 114t77 139.5h72q-21 -53 -52.5 -106.5t-71 -102.5t-83.5 -88h1012q0 145 7 239.5t41.5 187.5t109.5 147.5t202 54.5q363 0 363 -359q0 -125 -45 -199t-119.5 -107t-166 -42.5t-216.5 -9.5h-88v-516q-11 -41 -45 -41q-36 0 -43 41v516 h-1012q71 -64 123.5 -140.5t83.5 -156.5h-72q-31 76 -77 139.5t-104.5 113.5t-133.5 89zM1397 555h86q112 0 185 6.5t136 31t100.5 80.5t37.5 152q0 144 -64 206.5t-209 62.5q-111 0 -171 -46t-83 -153q-8 -42 -12 -92.5t-5 -106t-1 -141.5z" />
<glyph unicode="#" horiz-adv-x="2103" d="M74 825q0 359 360 359q129 0 205 -55t110 -145t41 -187t7 -242h1009q-137 125 -207 297h72q29 -71 76.5 -137.5t108 -117.5t131.5 -85q-73 -37 -132.5 -87.5t-107 -117t-76.5 -137.5h-72q70 172 207 297h-1009v-516q-11 -41 -45 -41q-36 0 -43 41v516h-88 q-175 0 -286.5 19.5t-186 97.5t-74.5 241zM162 825q0 -95 38 -151.5t100.5 -81t135.5 -31t185 -6.5h88q-4 255 -21 338q-20 108 -80.5 154.5t-173.5 46.5q-144 0 -208 -63.5t-64 -205.5z" />
<glyph unicode="$" d="M117 303q0 34 41 45h1321q39 -12 39 -45q0 -35 -39 -43h-1321q-18 3 -29.5 14.5t-11.5 28.5zM117 719q0 34 41 45h1321q39 -12 39 -45q0 -35 -39 -43h-1321q-41 7 -41 43zM584 1284q0 62 32 117.5t85.5 87t115.5 31.5q61 0 115.5 -32t86.5 -87t32 -117t-31.5 -115.5 t-86.5 -85.5t-116 -32q-62 0 -116 31.5t-85.5 85.5t-31.5 116zM672 1284q0 -79 33 -112t112 -33q80 0 113 33t33 112q0 82 -33 115t-113 33q-79 0 -112 -33t-33 -115z" />
<glyph unicode="%" d="M117 -434q0 78 23.5 153.5t70 138t112 99.5t144.5 37q101 0 176.5 -47t183 -143t178 -140.5t162.5 -44.5q85 0 150.5 45.5t102 120.5t36.5 156q6 53 31 53t31 -53v-17q0 -103 -42.5 -202.5t-122.5 -162.5t-186 -63q-96 0 -173.5 47t-180 139.5t-177 140.5t-169.5 48 q-84 0 -150 -45.5t-102.5 -120.5t-36.5 -156q-7 -53 -31 -53q-23 0 -30 53v17zM176 354q26 250 212.5 382.5t465.5 187.5q-280 53 -466 185.5t-212 383.5q0 19 12 33t33 14q17 0 28.5 -11.5t14.5 -27.5q18 -176 138.5 -286t295 -163t353 -69t368.5 -16q16 -3 27.5 -14 t11.5 -29q0 -38 -39 -45q-191 0 -365.5 -15t-352 -67.5t-298.5 -163t-139 -287.5q-3 -16 -15.5 -28.5t-27.5 -12.5q-20 0 -32.5 14t-12.5 35z" />
<glyph unicode="&#x26;" d="M117 -434q0 78 23.5 153.5t70 138t112 99.5t144.5 37q101 0 176.5 -47t183 -143t178 -140.5t162.5 -44.5q85 0 150.5 45.5t102 120.5t36.5 156q6 53 31 53t31 -53v-17q0 -103 -42.5 -202.5t-122.5 -162.5t-186 -63q-96 0 -173.5 47t-180 139.5t-177 140.5t-169.5 48 q-84 0 -150 -45.5t-102.5 -120.5t-36.5 -156q-7 -53 -31 -53q-23 0 -30 53v17zM176 350q0 27 29 41l1108 533l-1114 534q-23 9 -23 39q0 17 14 30t31 13q10 0 17 -2l1200 -577q20 -12 20 -37q0 -30 -26 -41l-1194 -574q-7 -4 -17 -4q-17 0 -31 14t-14 31z" />
<glyph unicode="'" d="M117 -72q0 72 27 135.5t76.5 111.5t112 73.5t134.5 25.5q92 0 170.5 -37.5t189.5 -112t181 -108.5t159 -34q69 0 136 29.5t110 84.5t43 125q6 53 31 53t31 -53v-16q0 -97 -47.5 -176t-128.5 -124.5t-175 -45.5q-91 0 -165 35.5t-184.5 110t-186 111t-164.5 36.5 q-68 0 -135.5 -30t-110.5 -84t-43 -126q-7 -53 -31 -53q-23 0 -30 53v16zM117 -569q0 96 46.5 175t128 125t175.5 46q92 0 168 -36.5t189.5 -112.5t183.5 -110t159 -34q69 0 136 29.5t110 85.5t43 125q6 53 31 53t31 -53v-17q0 -96 -47.5 -175t-128.5 -125t-175 -46 q-91 0 -165 35.5t-184.5 110t-186 111t-164.5 36.5q-110 0 -199.5 -67t-89.5 -173q-7 -53 -31 -53q-23 0 -30 53v17zM176 543q0 27 29 41l1098 469l-1098 469q-29 9 -29 41q0 17 14 30t31 13q10 0 17 -2l1194 -510q26 -15 26 -41q0 -31 -26 -41l-1194 -510q-7 -4 -17 -4 q-17 0 -31 13t-14 32z" />
<glyph unicode="(" horiz-adv-x="2339" d="M117 512q0 15 11.5 27.5t29.5 15.5h1390q12 81 60.5 148.5t120.5 106t155 38.5q69 0 130 -26.5t107 -72.5t72.5 -107t26.5 -130q0 -90 -45.5 -167.5t-123.5 -124t-167 -46.5q-83 0 -155 38.5t-120.5 106t-60.5 148.5h-1390q-41 7 -41 45zM1634 512q0 -65 34.5 -123 t92.5 -92.5t123 -34.5q64 0 122.5 34.5t92 93t33.5 122.5q0 50 -20 96t-53 79t-79 53t-96 20q-64 0 -122.5 -33.5t-93 -92t-34.5 -122.5z" />
<glyph unicode=")" horiz-adv-x="1403" d="M61 -45q0 46 33.5 80.5t81.5 34.5t81.5 -34.5t33.5 -80.5q0 -48 -34.5 -81.5t-80.5 -33.5t-80.5 33.5t-34.5 81.5zM586 862q0 46 33.5 80.5t80.5 34.5q30 0 56.5 -16t42.5 -42.5t16 -56.5q0 -47 -34.5 -80.5t-80.5 -33.5t-80 34t-34 80zM1110 -45q0 45 33 80t82 35 q47 0 80.5 -34.5t33.5 -80.5q0 -31 -16 -57.5t-42.5 -42t-55.5 -15.5q-47 0 -81 34t-34 81z" />
<glyph unicode="*" horiz-adv-x="1403" d="M61 862q0 47 34 81t81 34q30 0 56.5 -16t42.5 -42.5t16 -56.5q0 -47 -34.5 -80.5t-80.5 -33.5t-80.5 33.5t-34.5 80.5zM586 -45q0 45 33 80t81 35t81.5 -34.5t33.5 -80.5q0 -48 -34.5 -81.5t-80.5 -33.5t-80 34t-34 81zM1110 862q0 46 33.5 80.5t81.5 34.5q30 0 56 -16 t42 -42.5t16 -56.5q0 -31 -16 -57t-42.5 -41.5t-55.5 -15.5q-47 0 -81 34t-34 80z" />
<glyph unicode="+" d="M117 303q0 34 41 45h1321q39 -12 39 -45q0 -35 -39 -43h-1321q-18 3 -29.5 14.5t-11.5 28.5zM117 719q0 34 41 45h1321q39 -12 39 -45q0 -35 -39 -43h-1321q-41 7 -41 43zM692 -113q0 34 17.5 62.5t46 45.5t61.5 17q34 0 62.5 -17t45.5 -45.5t17 -62.5q0 -33 -17 -61.5 t-45.5 -46t-62.5 -17.5q-49 0 -87 38t-38 87zM692 1135q0 33 17.5 61.5t46 46t61.5 17.5q34 0 62.5 -17.5t45.5 -46t17 -61.5q0 -51 -37 -88t-88 -37t-88 38t-37 87z" />
<glyph unicode="," d="M117 303q0 34 41 45h1323q39 -12 39 -45q0 -35 -39 -43h-1323q-18 3 -29.5 14.5t-11.5 28.5zM117 719q0 34 41 45h1323q39 -12 39 -45q0 -35 -39 -43h-1323q-41 7 -41 43zM365 1051q0 13 6 22l409 711q13 20 39 20q24 0 37 -20l410 -711q6 -9 6 -22q0 -15 -12.5 -27.5 t-28.5 -15.5h-825q-18 3 -29.5 15.5t-11.5 27.5zM485 1096h666l-332 577z" />
<glyph unicode="-" d="M117 -424q0 74 25 149t72 134.5t111 93t142 33.5q98 0 174 -44.5t184.5 -136t178.5 -134t163 -42.5q80 0 146.5 42.5t104.5 112.5t38 148q6 54 31 54t31 -54v-16q0 -76 -24.5 -150t-71 -132.5t-111 -93t-144.5 -34.5q-97 0 -169.5 42.5t-180.5 134t-182 136t-168 44.5 q-79 0 -145.5 -42.5t-105 -112t-38.5 -148.5q-6 -54 -31 -54q-24 0 -30 54v16zM176 915q0 15 12.5 27.5t28.5 15.5q191 0 369.5 16t352.5 69t294 163.5t137 286.5q3 17 16 28t29 11q19 0 31 -14t12 -33q-17 -171 -114.5 -288t-241 -182.5t-322.5 -99.5q277 -52 465 -185.5 t213 -383.5q0 -21 -12.5 -35t-30.5 -14q-16 0 -29 11t-16 30q-17 177 -138 287t-294 162t-353 67.5t-368 15.5q-17 3 -29 16t-12 29z" />
<glyph unicode="." d="M117 -424q0 74 25 149t72 134.5t111 93t142 33.5q98 0 174 -44.5t184.5 -136t178.5 -134t163 -42.5q80 0 146.5 42.5t104.5 112.5t38 148q6 54 31 54t31 -54v-16q0 -76 -24.5 -150t-71 -132.5t-111 -93t-144.5 -34.5q-97 0 -169.5 42.5t-180.5 134t-182 136t-168 44.5 q-79 0 -145.5 -42.5t-105 -112t-38.5 -148.5q-6 -54 -31 -54q-24 0 -30 54v16zM176 915q0 27 29 41l1194 574q4 2 16 2q17 0 30 -13t13 -30q0 -30 -26 -41l-1110 -533l1116 -536q20 -10 20 -37q0 -19 -13 -32t-30 -13q-12 0 -16 4l-1200 576q-23 9 -23 38z" />
<glyph unicode="/" d="M117 -72q0 72 27 135.5t76.5 111.5t112 73.5t134.5 25.5q92 0 170.5 -37.5t189.5 -112t181 -108.5t159 -34q69 0 136 29.5t110 84.5t43 125q6 53 31 53t31 -53v-16q0 -97 -47.5 -176t-128.5 -124.5t-175 -45.5q-91 0 -165 35.5t-184.5 110t-186 111t-164.5 36.5 q-68 0 -135.5 -30t-110.5 -84t-43 -126q-7 -53 -31 -53q-23 0 -30 53v16zM117 -569q0 96 46.5 175t128 125t175.5 46q92 0 168 -36.5t189.5 -112.5t183.5 -110t159 -34q69 0 136 29.5t110 85.5t43 125q6 53 31 53t31 -53v-17q0 -96 -47.5 -175t-128.5 -125t-175 -46 q-91 0 -165 35.5t-184.5 110t-186 111t-164.5 36.5q-110 0 -199.5 -67t-89.5 -173q-7 -53 -31 -53q-23 0 -30 53v17zM176 1053q0 27 29 41l1194 510q4 2 16 2q17 0 30 -13t13 -30q0 -31 -26 -41l-1100 -469l1100 -469q26 -15 26 -41q0 -19 -13 -32t-30 -13q-12 0 -16 4 l-1194 510q-29 9 -29 41z" />
<glyph unicode="0" d="M176 303q0 27 29 41l1194 574q4 2 16 2q17 0 30 -13t13 -30q0 -30 -26 -41l-1110 -533l1116 -536q20 -12 20 -37q0 -19 -13 -32t-30 -13q-12 0 -16 4l-1200 575q-23 9 -23 39zM176 719q0 28 23 37l1200 577q4 2 16 2q17 0 30 -13t13 -30q0 -27 -20 -39l-1200 -575 q-7 -4 -17 -4q-17 0 -31 13t-14 32z" />
<glyph unicode="1" d="M176 -272q0 26 29 41l1108 532l-1114 535q-23 9 -23 38q0 18 14 31t31 13q10 0 17 -3l1200 -577q20 -10 20 -37q0 -30 -26 -41l-1194 -573q-7 -4 -17 -4q-17 0 -31 13t-14 32zM176 1292q0 17 14 30t31 13q10 0 17 -2l1194 -573q26 -15 26 -41q0 -19 -13 -32t-30 -13 q-12 0 -16 4l-1194 573q-29 10 -29 41z" />
<glyph unicode="2" d="M176 618q0 15 13 28t28 16q190 0 366 16t352.5 69t297 163.5t137.5 285.5q7 39 45 39q19 0 31 -14t12 -33q-13 -130 -73.5 -229t-153.5 -165.5t-207 -108.5t-246 -67q279 -52 467 -185.5t213 -383.5q0 -20 -12 -34.5t-31 -14.5q-16 0 -29 11t-16 30q-17 176 -138 286 t-298.5 163t-352 68t-364.5 15q-41 9 -41 45zM176 946q0 15 12.5 27.5t28.5 15.5q144 0 295 26t288 86t230 166.5t107 256.5q8 39 43 39q20 0 32.5 -13.5t12.5 -33.5q-17 -169 -115.5 -290t-244 -191t-313.5 -102t-327 -32q-20 0 -34.5 12.5t-14.5 32.5z" />
<glyph unicode="3" d="M176 49q26 250 214 383.5t466 185.5q-132 25 -245 66.5t-206.5 109t-154 165.5t-74.5 229q0 20 12.5 33.5t32.5 13.5q17 0 28.5 -11.5t14.5 -27.5q18 -175 138.5 -285t297 -163.5t353 -69.5t366.5 -16q15 -3 27 -15t12 -29q0 -36 -39 -45q-190 0 -364.5 -15t-352.5 -68 t-299 -163t-139 -286q-3 -18 -15.5 -29.5t-27.5 -11.5q-20 0 -32.5 14t-12.5 35zM410 1516q0 20 12 33.5t33 13.5q35 0 43 -39q16 -151 108.5 -257t229 -166t288 -86t295.5 -26q16 -3 27.5 -14.5t11.5 -28.5q0 -21 -13.5 -33t-33.5 -12q-159 0 -326.5 31.5t-314 102 t-244 191t-116.5 290.5z" />
<glyph unicode="4" d="M176 291q0 19 14 31t35 12q159 0 327 -32t313.5 -102t244 -191t115.5 -290q0 -19 -13 -33t-32 -14q-35 0 -43 39q-14 149 -106 255.5t-230.5 168t-289 86.5t-294.5 25q-17 3 -29 15t-12 30zM176 618q0 15 13 28t28 16q190 0 366 16t352.5 69t297 163.5t137.5 285.5 q7 39 45 39q19 0 31 -14t12 -33q-13 -130 -73.5 -229t-153.5 -165.5t-207 -108.5t-246 -67q279 -52 467 -185.5t213 -383.5q0 -20 -12 -34.5t-31 -14.5q-16 0 -29 11t-16 30q-17 176 -138 286t-298.5 163t-352 68t-364.5 15q-41 9 -41 45z" />
<glyph unicode="5" d="M176 66q0 36 41 45h1202q39 -9 39 -45q0 -17 -11.5 -28.5t-27.5 -14.5h-1202q-16 3 -28.5 15.5t-12.5 27.5zM176 -350q0 16 12 29t29 16h1202q39 -7 39 -45q0 -17 -11.5 -28.5t-27.5 -14.5h-1202q-16 3 -28.5 15.5t-12.5 27.5zM176 969q0 26 29 41l1194 573q4 2 16 2 q17 0 30 -13t13 -30q0 -30 -26 -41l-1110 -532l1116 -537q20 -10 20 -37q0 -17 -13 -31t-30 -14q-12 0 -16 4l-1200 576q-23 9 -23 39z" />
<glyph unicode="6" d="M176 303q0 17 14 30t31 13q10 0 17 -2l1194 -573q26 -17 26 -41q0 -19 -13 -32t-30 -13q-12 0 -16 4l-1194 573q-29 10 -29 41zM176 719q0 27 29 41l1194 573q4 2 16 2q17 0 30 -13t13 -30q0 -30 -26 -41l-1110 -532l1116 -537q20 -10 20 -37q0 -17 -13 -31t-30 -14 q-12 0 -16 4l-1200 576q-23 9 -23 39z" />
<glyph unicode="7" d="M88 -510q0 31 27 41l1261 471l-1261 469q-27 10 -27 41q0 16 12.5 29.5t30.5 13.5q6 0 9.5 -0.5t6.5 -1.5l1373 -510q26 -13 26 -41q0 -30 -26 -43l-1375 -510q-4 -2 -14 -2q-18 0 -30.5 13.5t-12.5 29.5zM88 883q0 27 27 41l1374 510q4 2 14 2q18 0 30.5 -12.5 t12.5 -30.5q0 -31 -26 -41l-1262 -469l1262 -469q26 -13 26 -41q0 -20 -12.5 -32.5t-30.5 -12.5q-8 0 -16 4l-1372 510q-27 10 -27 41z" />
<glyph unicode="8" horiz-adv-x="571" d="M25 1034q0 47 37 79t83 32q41 0 69.5 -24t39.5 -62l254 -926q0 -18 -14 -27l-60 -20h-6q-13 0 -20 10l-373 889q-10 27 -10 49z" />
<glyph unicode="9" horiz-adv-x="1051" d="M176 512q0 15 12.5 27.5t28.5 15.5h621q39 -8 39 -43q0 -37 -39 -45h-621q-17 3 -29 15t-12 30z" />
<glyph unicode=":" d="M47 -113q0 46 33.5 80.5t81.5 34.5q30 0 56 -16t42 -42.5t16 -56.5q0 -31 -16 -57t-42.5 -41.5t-55.5 -15.5q-47 0 -81 34t-34 80zM117 303q0 34 41 45h1321q39 -12 39 -45q0 -35 -39 -43h-1321q-18 3 -29.5 14.5t-11.5 28.5zM117 719q0 34 41 45h1321q39 -12 39 -45 q0 -35 -39 -43h-1321q-41 7 -41 43zM1360 1135q0 29 15.5 55.5t42 42.5t57.5 16q30 0 56 -16t42 -42t16 -56q0 -31 -16 -57.5t-42.5 -42t-55.5 -15.5q-47 0 -81 34t-34 81z" />
<glyph unicode=";" d="M47 1135q0 29 15.5 55.5t42 42.5t57.5 16q30 0 56 -16t42 -42t16 -56q0 -31 -16 -57.5t-42.5 -42t-55.5 -15.5q-47 0 -81 34t-34 81zM117 303q0 34 41 45h1321q39 -12 39 -45q0 -35 -39 -43h-1321q-18 3 -29.5 14.5t-11.5 28.5zM117 719q0 34 41 45h1321q39 -12 39 -45 q0 -35 -39 -43h-1321q-41 7 -41 43zM1360 -113q0 46 33.5 80.5t81.5 34.5q30 0 56 -16t42 -42.5t16 -56.5q0 -31 -16 -57t-42.5 -41.5t-55.5 -15.5q-47 0 -81 34t-34 80z" />
<glyph unicode="&#x3c;" d="M176 49q26 250 214 383.5t466 185.5q-132 25 -245 66.5t-206.5 109t-154 165.5t-74.5 229q0 20 12.5 33.5t32.5 13.5q17 0 28.5 -11.5t14.5 -27.5q18 -175 138.5 -285t297 -163.5t353 -69.5t366.5 -16q15 -3 27 -15t12 -29q0 -36 -39 -45q-190 0 -364.5 -15t-352.5 -68 t-299 -163t-139 -286q-3 -18 -15.5 -29.5t-27.5 -11.5q-20 0 -32.5 14t-12.5 35zM410 -281q22 222 180 360t377 196.5t444 58.5q19 0 33 -11.5t14 -31.5q0 -38 -39 -45q-144 0 -295 -25t-289 -86.5t-229.5 -167t-107.5 -256.5q-8 -39 -43 -39q-21 0 -33 13.5t-12 33.5z" />
<glyph unicode="=" d="M176 66q0 36 41 45h1202q39 -9 39 -45q0 -17 -11.5 -28.5t-27.5 -14.5h-1202q-16 3 -28.5 15.5t-12.5 27.5zM176 -350q0 16 12 29t29 16h1202q39 -7 39 -45q0 -17 -11.5 -28.5t-27.5 -14.5h-1202q-16 3 -28.5 15.5t-12.5 27.5zM176 395q0 27 29 41l1108 533l-1114 534 q-23 9 -23 39q0 17 14 30t31 13q10 0 17 -2l1200 -577q20 -12 20 -37q0 -30 -26 -41l-1194 -574q-7 -4 -17 -4q-17 0 -31 14t-14 31z" />
<glyph unicode="&#x3e;" d="M176 145q0 27 29 41l1108 533l-1114 534q-23 11 -23 39q0 17 14 30t31 13q10 0 17 -2l1200 -577q20 -10 20 -37q0 -30 -26 -41l-1194 -574q-7 -4 -17 -4q-17 0 -31 14t-14 31zM176 -272q0 27 23 36l1200 578q4 2 16 2q17 0 30 -13t13 -30q0 -29 -20 -39l-1200 -575 q-7 -4 -17 -4q-17 0 -31 13t-14 32z" />
<glyph unicode="?" d="M176 0q0 29 29 41l1194 510q4 2 16 2q17 0 30 -13t13 -30q0 -31 -26 -41l-1100 -469l1100 -469q26 -13 26 -41q0 -19 -13 -32t-30 -13q-12 0 -16 4l-1194 510q-29 9 -29 41zM176 373q0 29 29 41l1098 469l-1098 469q-29 9 -29 41q0 17 14 30t31 13q10 0 17 -2l1194 -510 q26 -15 26 -41q0 -31 -26 -41l-1194 -510q-7 -4 -17 -4q-17 0 -31 13t-14 32z" />
<glyph unicode="@" d="M176 -68v1158q0 15 12 25t29 13h1202q18 -3 29.5 -14.5t11.5 -28.5q0 -18 -11 -30t-30 -15h-1155v-1058h1155q41 -9 41 -45q0 -17 -11.5 -28.5t-29.5 -14.5h-1202q-15 0 -26.5 12.5t-14.5 25.5z" />
<glyph unicode="A" d="M133 -63q0 36 39 45h1243v1058h-1243q-39 7 -39 45q0 36 39 43h1290q28 0 41 -38v-1158q0 -14 -13 -24.5t-28 -13.5h-1290q-39 7 -39 43z" />
<glyph unicode="B" d="M176 -68v1158q3 17 15.5 27.5t29.5 10.5q10 0 17 -2l1194 -573q28 -14 28 -41q0 -30 -22 -39l-1200 -577q-7 -2 -17 -2q-37 0 -45 38zM264 8l1049 504l-1049 502v-1006z" />
<glyph unicode="C" d="M178 512q0 29 21 37l1200 577q4 2 16 2q16 0 28 -11t15 -27v-1158q-8 -38 -43 -38q-12 0 -16 2l-1194 575q-27 10 -27 41zM324 512l1046 -504v1006z" />
<glyph unicode="D" d="M176 141v1157q7 39 45 39q10 0 17 -2l1194 -573q28 -14 28 -41q0 -30 -22 -39l-1200 -578q-7 -2 -17 -2q-16 0 -29 11t-16 28zM176 -272q0 16 12 29t29 16h1202q19 -3 30 -15t11 -30q0 -17 -11.5 -28.5t-29.5 -14.5h-1202q-16 3 -28.5 15.5t-12.5 27.5zM264 215l1049 504 l-1049 502v-1006z" />
<glyph unicode="E" d="M178 -272q0 38 39 45h1202q39 -7 39 -45q0 -17 -11.5 -28.5t-27.5 -14.5h-1202q-39 7 -39 43zM178 719q0 29 21 37l1200 577q4 2 16 2q17 0 28.5 -11.5t14.5 -27.5v-1157q-8 -39 -43 -39q-12 0 -16 2l-1194 576q-27 10 -27 41zM324 719l1046 -504v1006z" />
<glyph unicode="F" horiz-adv-x="1937" d="M102 786q0 10 7.5 17.5t17.5 7.5h625l192 592q4 18 25 18q8 0 14 -3.5t8 -10.5l193 -596h624q12 0 18.5 -7t6.5 -18q0 -13 -10 -20l-504 -367l192 -594v-6q0 -26 -24 -26q-8 0 -12 4l-506 366l-504 -364q-9 -6 -16 -6q-25 0 -25 26v6l192 594l-503 367q-11 6 -11 20z" />
<glyph unicode="G" horiz-adv-x="1051" d="M154 512q0 142 38 280.5t110 264t173 229.5q-114 111 -252 189q-16 10 -16 28q0 13 10 23t25 10q36 -7 139 -83t145 -116q40 38 147 118.5t138 80.5q14 0 23.5 -9.5t9.5 -23.5q0 -19 -17 -28q-138 -77 -249 -189q73 -76 133.5 -168t101.5 -189t62.5 -201.5t21.5 -215.5 q0 -142 -38 -280.5t-110.5 -264.5t-170.5 -229q0 -4 4 -4q107 -108 245 -185q17 -9 17 -28q0 -13 -10 -23t-25 -10q-24 4 -84.5 44.5t-113.5 82.5t-85 72q-51 -46 -154 -122.5t-132 -76.5q-13 0 -23 10t-10 23q0 18 16 28q135 75 252 189q-101 104 -173 229.5t-110 264 t-38 280.5zM260 512q0 -134 30.5 -260t90 -242.5t145.5 -216.5q59 69 111 157t85.5 179t51 187.5t17.5 195.5q0 134 -30.5 260t-89.5 242t-145 217q-86 -100 -145.5 -216.5t-90 -242.5t-30.5 -260z" />
<glyph unicode="H" horiz-adv-x="1487" d="M176 1139q0 34 39 45h1057q39 -11 39 -45q0 -13 -2 -17l-525 -1138q-14 -29 -41 -29q-26 0 -41 29l-524 1138q-2 4 -2 17z" />
<glyph unicode="I" d="M176 -68v1158q3 17 15.5 27.5t29.5 10.5q10 0 17 -2l1194 -573q28 -14 28 -41q0 -30 -22 -39l-1200 -577q-7 -2 -17 -2q-37 0 -45 38z" />
<glyph unicode="J" d="M178 512q0 29 21 37l1200 577q4 2 16 2q16 0 28 -11t15 -27v-1158q-8 -38 -43 -38q-12 0 -16 2l-1194 575q-27 10 -27 41z" />
<glyph unicode="K" horiz-adv-x="1051" d="M121 512q0 20 14.5 36.5t36.5 16.5h406q-47 49 -112 147t-65 140q0 34 41 45h80q29 -7 37 -29q83 -213 297 -319q8 -4 14.5 -14.5t6.5 -22.5q0 -28 -21 -39q-214 -106 -297 -319q-6 -13 -17 -21t-20 -8h-80q-41 11 -41 45q0 42 67 143t110 144h-406q-21 0 -36 17t-15 38z " />
<glyph unicode="L" horiz-adv-x="1051" d="M133 512q0 29 21 37q66 32 123.5 80t101.5 109t72 130q3 12 13 20.5t23 8.5h80q39 -10 39 -45q0 -42 -63.5 -139t-110.5 -148h406q21 0 35 -16t14 -37t-15 -38t-34 -17h-406q43 -45 108.5 -145t65.5 -142q0 -35 -39 -45h-80q-28 7 -36 29q-42 107 -119 188.5t-178 130.5 q-21 8 -21 39z" />
<glyph unicode="M" horiz-adv-x="1487" d="M176 0q0 12 2 16l524 1139q16 29 41 29q26 0 41 -29l525 -1139q2 -4 2 -16q0 -34 -39 -45h-1057q-39 11 -39 45zM289 45h909l-455 989z" />
<glyph unicode="N" horiz-adv-x="1487" d="M176 0q0 12 2 16l524 1139q16 29 41 29q26 0 41 -29l525 -1139q2 -4 2 -16q0 -34 -39 -45h-1057q-39 11 -39 45z" />
<glyph unicode="O" horiz-adv-x="1487" d="M176 1139q0 34 39 45h1057q39 -11 39 -45q0 -13 -2 -17l-525 -1138q-14 -29 -41 -29q-26 0 -41 29l-524 1138q-2 4 -2 17zM289 1096l454 -992l455 992h-909z" />
<glyph unicode="P" d="M117 303q0 34 41 45h493q-67 67 -67 164q0 94 67 164h-493q-41 7 -41 43q0 34 41 45h1321q39 -12 39 -45q0 -35 -39 -43h-496q33 -33 50.5 -76t17.5 -88q0 -96 -68 -164h496q39 -12 39 -45q0 -35 -39 -43h-1321q-18 3 -29.5 14.5t-11.5 28.5zM635 512q0 -53 27.5 -96.5 t74.5 -67.5h160q46 22 74 66.5t28 97.5q0 51 -28.5 96.5t-73.5 67.5h-160q-46 -23 -74 -68t-28 -96z" />
<glyph unicode="Q" d="M176 94q0 17 14 30t31 13q10 0 17 -2l1148 -450q29 -12 29 -41q0 -31 -29 -41l-1153 -451q-4 -2 -12 -2q-17 0 -31 13t-14 30q0 32 29 41l1044 410l-1044 409q-29 9 -29 41zM176 510q0 16 12 28t29 15h1157q19 -3 30 -14t11 -29q0 -38 -41 -45h-1157q-17 3 -29 15t-12 30 zM176 1374q0 32 29 41l1153 451q4 2 12 2q19 0 32 -13t13 -30q0 -31 -29 -41l-1044 -410l1044 -407q29 -15 29 -41q0 -19 -13 -32t-32 -13q-10 0 -16 4l-1149 448q-29 9 -29 41z" />
<glyph unicode="R" d="M176 -356q0 30 29 41l1153 450q4 2 12 2q19 0 32 -13t13 -30q0 -14 -8 -25.5t-21 -15.5l-1044 -409l1044 -408q29 -14 29 -41q0 -17 -13 -31t-32 -14q-10 0 -16 4l-1149 449q-29 9 -29 41zM176 510q0 16 12 28t29 15h1157q19 -3 30 -14t11 -29q0 -38 -41 -45h-1157 q-17 3 -29 15t-12 30zM176 926q0 32 29 41l1044 409l-1044 410q-29 9 -29 41q0 17 14 30t31 13q10 0 17 -2l1148 -451q29 -10 29 -41q0 -14 -8 -25.5t-21 -15.5l-1153 -450q-4 -2 -12 -2q-17 0 -31 13t-14 30z" />
<glyph unicode="S" d="M176 -70q0 19 14 32t31 13q3 0 17 -4l1194 -448q26 -10 26 -41t-26 -41l-1199 -451q-4 -2 -12 -2q-17 0 -31 13t-14 30q0 32 29 41l1083 410l-1083 407q-29 14 -29 41zM176 346q0 18 12 30t29 15h1202q39 -7 39 -45q0 -17 -11 -28.5t-28 -14.5h-1202q-17 3 -29 15t-12 28 zM176 762q0 16 12 29t29 16h1202q39 -7 39 -45q0 -17 -11.5 -28.5t-27.5 -14.5h-1202q-16 3 -28.5 15.5t-12.5 27.5zM176 1628q0 32 29 41l1196 451q4 2 14 2q17 0 30 -13t13 -30q0 -31 -26 -41l-1086 -410l1086 -407q26 -15 26 -41q0 -19 -13 -32t-30 -13q-8 0 -16 4 l-1194 448q-29 9 -29 41z" />
<glyph unicode="T" d="M176 346q0 18 12 30t29 15h1202q39 -7 39 -45q0 -17 -11 -28.5t-28 -14.5h-1202q-17 3 -29 15t-12 28zM176 -518q0 32 29 41l1196 450q4 2 14 2q17 0 30 -13t13 -30q0 -30 -26 -41l-1086 -409l1086 -408q26 -13 26 -41q0 -17 -13 -31t-30 -14q-8 0 -16 4l-1194 449 q-29 9 -29 41zM176 762q0 16 12 29t29 16h1202q39 -7 39 -45q0 -17 -11.5 -28.5t-27.5 -14.5h-1202q-16 3 -28.5 15.5t-12.5 27.5zM176 1180q0 30 29 41l1083 409l-1083 408q-29 12 -29 41q0 18 13.5 31.5t31.5 13.5q3 0 17 -4l1194 -449q26 -10 26 -41t-26 -41l-1199 -450 q-4 -2 -12 -2q-17 0 -31 13t-14 30z" />
<glyph unicode="U" horiz-adv-x="1577" d="M27 1327v72q43 0 65 -0.5t54.5 -1.5t70 -2.5t70.5 -1.5q34 0 94 1.5t119.5 3t93.5 1.5v-72q-137 0 -137 -47q0 -11 6 -20l223 -349h332l186 291q17 29 17 49q0 40 -34 58t-77 18v72q26 0 73.5 -1.5t96 -3t74.5 -1.5q26 1 54 2t52.5 2t41 1.5t48.5 0.5v-72 q-81 0 -150 -30.5t-110 -94.5l-188 -291h319q7 0 17 -9t10 -17v-13q0 -8 -10 -17t-17 -9h-360l-182 -287v-63h542q8 0 17.5 -9.5t9.5 -17.5v-12q0 -9 -10 -18t-17 -9h-542v-291q0 -67 208 -67v-72q-33 0 -91 2l-116 2q-58 2 -92 2q-49 0 -73 -0.5t-61 -1.5t-81 -2.5 t-81 -1.5v72q208 0 208 67v291h-544q-7 0 -17 9t-10 18v12q0 8 9.5 17.5t17.5 9.5h544v63l-182 287h-362q-7 0 -17 9t-10 17v13q0 8 10 17t17 9h319l-223 349q-32 43 -85.5 55t-139.5 12zM729 846l123 -195l123 195h-246z" />
<glyph unicode="V" horiz-adv-x="2103" d="M117 96q0 15 11.5 27.5t29.5 15.5h1235q48 65 103 123.5t115 110t122 94.5h-1571q-19 0 -32 13t-13 32q0 17 12 30t33 13h1571q-102 71 -185.5 152t-154.5 176h-1235q-41 7 -41 45q0 16 11 28t30 15h1173q-89 144 -143 297h106q57 -160 152 -302.5t221 -257t277 -196.5 q-227 -124 -394.5 -319.5t-255.5 -438.5h-106q54 153 143 297h-1173q-19 3 -30 16t-11 29z" />
<glyph unicode="W" horiz-adv-x="2103" d="M162 512q116 63 214 143t179.5 176t146 205.5t107.5 231.5h106q-51 -148 -143 -297h1176q39 -8 39 -43q0 -37 -39 -45h-1237q-71 -95 -156.5 -177.5t-183.5 -150.5h1573q19 0 31 -12.5t12 -30.5q0 -20 -12.5 -32.5t-30.5 -12.5h-1573q62 -43 122 -94.5t111 -105.5 t107 -128h1237q39 -8 39 -43q0 -16 -11 -29t-28 -16h-1176q92 -149 143 -297h-106q-41 119 -106 230.5t-146.5 207t-182 177.5t-212.5 143z" />
<glyph unicode="X" horiz-adv-x="1753" d="M176 465q0 33 60.5 67.5t101.5 40.5h10q1 -1 6 -3.5t6 -4.5l205 -334q46 134 101.5 249.5t128.5 232.5t153 217q49 59 124 139t165.5 163t174 141t138.5 65h11q14 -7 14 -17q0 -14 -25 -39q-26 -23 -77 -61t-74 -57q-70 -58 -137 -125q-52 -52 -104 -112t-98 -123 t-93 -138q-211 -333 -289 -721q-9 -38 -62 -69.5t-100 -36.5h-10q-10 3 -12 8l-316 514q-2 0 -2 4z" />
<glyph unicode="Y" horiz-adv-x="1286" d="M117 45q0 15 11.5 27.5t29.5 15.5h970q16 -3 27.5 -14.5t11.5 -28.5q0 -38 -39 -45h-970q-41 7 -41 45zM117 1423q0 17 13 30t32 13q27 0 37 -20l444 -887l442 887q12 20 39 20q17 0 30 -13t13 -30q0 -12 -2 -16l-483 -969q-13 -22 -39 -22q-28 0 -37 22l-485 969 q-4 4 -4 16z" />
<glyph unicode="Z" horiz-adv-x="1286" d="M117 45q0 9 6 23l483 962q4 7 14.5 14t22.5 7q26 0 41 -27l481 -963q2 -6 2 -16q0 -19 -13 -32t-30 -13q-29 0 -41 29l-440 880l-444 -886q-9 -23 -37 -23q-19 0 -32 13t-13 32zM117 1423q0 15 11.5 27.5t29.5 15.5h970q16 -3 27.5 -14.5t11.5 -28.5q0 -38 -39 -45h-970 q-19 3 -30 16t-11 29z" />
<glyph unicode="[" horiz-adv-x="1286" d="M117 -164q0 9 6 23l483 962q10 21 37 21q26 0 41 -27l481 -962q2 -7 2 -17q0 -17 -13 -31t-30 -14q-29 0 -41 29l-440 880l-444 -886q-9 -23 -37 -23q-19 0 -32 14t-13 31zM117 1217q0 16 12 28t29 15h970q39 -9 39 -43q0 -37 -39 -46h-970q-41 9 -41 46zM117 1632 q0 15 11.5 27.5t29.5 15.5h970q16 -3 27.5 -14.5t11.5 -28.5q0 -38 -39 -45h-970q-19 3 -30 16t-11 29z" />
<glyph unicode="\" horiz-adv-x="1520" d="M117 45q0 16 12 31l1198 1333q9 12 31 12q17 0 30 -13t13 -30q0 -18 -12 -30l-1129 -1260h1102q39 -8 39 -43q0 -37 -39 -45h-1204q-41 7 -41 45z" />
<glyph unicode="]" horiz-adv-x="1520" d="M117 45q0 16 12 31l1198 1378q9 12 31 12q17 0 30 -13t13 -32q0 -18 -12 -30l-689 -793q55 -64 104.5 -152t81.5 -183t32 -175h444q39 -8 39 -43q0 -37 -39 -45h-440q0 -20 -13.5 -32.5t-31.5 -12.5q-34 0 -46 45h-673q-41 7 -41 45zM258 88h569q-6 61 -21 120 t-37.5 113.5t-54.5 107t-73 101.5z" />
<glyph unicode="^" horiz-adv-x="1520" d="M117 512q0 28 22 37l1202 579q5 2 17 2q18 0 30.5 -12.5t12.5 -30.5q0 -28 -21 -38l-266 -127q84 -197 84 -410q0 -215 -84 -412l260 -125q27 -14 27 -41q0 -17 -13 -30t-30 -13q-12 0 -17 3l-1196 577q-28 10 -28 41zM262 512l772 -373q76 174 76 373q0 197 -76 371z " />
<glyph unicode="_" d="M117 512q0 126 63 233t171 169.5t233 62.5q98 0 189.5 -41t158.5 -115.5t96 -167.5q22 69 67 131t101.5 103t126.5 65.5t145 24.5q21 0 35.5 -12t14.5 -31q0 -34 -41 -45q-103 0 -191.5 -50.5t-140 -137t-51.5 -189.5q0 -104 51.5 -191t139.5 -137.5t192 -50.5 q41 -11 41 -45q0 -19 -14.5 -31t-35.5 -12q-146 0 -270.5 91.5t-169.5 232.5q-45 -142 -169 -233t-275 -91q-125 0 -233 62.5t-171 170t-63 234.5zM205 512q0 -102 51.5 -189t138.5 -138.5t189 -51.5t189 51.5t138.5 138.5t51.5 189q0 100 -51.5 187t-138.5 138.5t-189 51.5 t-189 -51.5t-138.5 -138.5t-51.5 -187z" />
<glyph unicode="`" d="M117 731q0 19 13 32t32 13q23 0 37 -22q94 -170 261 -272.5t357 -102.5q93 0 185.5 27t173.5 76t148.5 119.5t111.5 152.5q13 22 39 22q17 0 30 -13t13 -32q0 -14 -7 -22q-103 -189 -291.5 -303.5t-402.5 -114.5q-104 0 -207.5 30t-195 85.5t-166 133t-125.5 169.5 q-6 9 -6 22z" />
<glyph unicode="a" d="M117 291q0 8 8 24q51 101 121 183t162 146t195 98t214 34q144 0 279.5 -60t241.5 -165t171 -236q9 -18 9 -24q0 -18 -13.5 -30.5t-29.5 -12.5q-28 0 -41 22q-61 121 -153.5 215t-212 148.5t-251.5 54.5t-251.5 -54.5t-211.5 -148.5t-153 -215q-13 -22 -39 -22 q-18 0 -31.5 12.5t-13.5 30.5z" />
<glyph unicode="b" d="M176 512q0 125 51 240t139 198t205 130.5t242 47.5h606q16 -3 27.5 -14.5t11.5 -28.5q0 -38 -39 -45h-598q-146 0 -275 -69t-205.5 -190.5t-76.5 -268.5q0 -148 76.5 -270t205.5 -191t275 -69h598q39 -9 39 -45q0 -17 -11.5 -28.5t-27.5 -14.5h-606q-168 0 -315.5 82.5 t-234.5 225.5t-87 310zM504 512q0 79 39.5 145.5t107 106t144.5 39.5h14q8 0 12 -2h598q16 -3 27.5 -14t11.5 -29q0 -38 -39 -45h-606q-2 2 -8 2h-10q-55 0 -101.5 -28t-74 -74.5t-27.5 -100.5q0 -55 27.5 -102.5t74 -75t101.5 -27.5h10q2 1 4 1.5t4 0.5h606 q16 -3 27.5 -14.5t11.5 -28.5q0 -38 -39 -45h-598q-4 0 -6.5 -0.5t-5.5 -1.5h-14q-77 0 -144.5 39.5t-107 107t-39.5 146.5z" />
<glyph unicode="c" d="M176 -63q0 36 41 45h596q146 0 275 69t205.5 191t76.5 270q0 147 -76.5 268.5t-205.5 190.5t-275 69h-596q-17 3 -29 16t-12 29q0 15 12.5 27.5t28.5 15.5h604q125 0 243 -47.5t205.5 -131.5t138 -196.5t50.5 -240.5q0 -167 -87 -310t-234.5 -225.5t-315.5 -82.5h-604 q-16 3 -28.5 15.5t-12.5 27.5zM176 266q0 15 12.5 27.5t28.5 15.5h604q4 0 6 -0.5t4 -1.5h11q53 0 99 27.5t73.5 75t27.5 102.5q0 54 -27.5 101t-73.5 74.5t-99 27.5h-11q-6 0 -10 -2h-604q-17 3 -29 15t-12 30q0 16 12 28t29 15h596q4 2 14 2h13q76 0 143.5 -39.5t107 -106 t39.5 -145.5t-39.5 -146.5t-107 -107t-143.5 -39.5h-13q-4 1 -7 1.5t-7 0.5h-596q-17 3 -29 16t-12 29z" />
<glyph unicode="d" horiz-adv-x="1403" d="M117 391v799q8 39 45 39q35 0 43 -39v-791q0 -118 76 -199t189 -119t230 -38q114 0 228.5 37.5t191 117.5t76.5 199v793q3 17 16 28t29 11q35 0 43 -39v-801q0 -140 -88.5 -238.5t-224.5 -147t-271 -48.5q-136 0 -271.5 48.5t-223.5 147t-88 240.5zM444 508v682 q10 39 45 39t43 -39v-674q0 -65 50.5 -105t117.5 -40q66 0 117 40.5t51 104.5v674q3 17 16 28t29 11q35 0 43 -39v-682q0 -97 -78.5 -161t-177.5 -64q-97 0 -176.5 64t-79.5 161z" />
<glyph unicode="e" horiz-adv-x="1403" d="M117 -6v801q0 140 88 238t224 147t271 49q104 0 205 -26.5t187 -80.5t139 -136t53 -191v-801q-3 -16 -15.5 -27.5t-27.5 -11.5q-38 0 -45 39v792q0 119 -75.5 198.5t-189.5 118t-231 38.5q-116 0 -229.5 -38.5t-189.5 -118t-76 -198.5v-792q-3 -17 -15 -28t-28 -11 q-38 0 -45 39zM444 -6v682q0 66 36.5 116.5t96.5 79.5t123 29t123 -29t96.5 -79.5t36.5 -116.5v-682q-3 -16 -15.5 -27.5t-27.5 -11.5q-38 0 -45 39v674q0 64 -51 104.5t-117 40.5q-67 0 -117.5 -40t-50.5 -105v-674q-3 -16 -15.5 -27.5t-27.5 -11.5q-36 0 -45 39z" />
<glyph unicode="f" horiz-adv-x="1614" d="M176 -2q0 38 39 45q171 18 282 132t168.5 279.5t77 342t19.5 348.5q8 39 45 39q35 0 43 -39q0 -172 19.5 -347.5t76.5 -342t168.5 -280.5t282.5 -132q39 -7 39 -45q0 -19 -14 -31t-33 -12q-249 26 -387.5 216.5t-194.5 467.5q-58 -277 -196.5 -467.5t-387.5 -216.5 q-19 0 -33 12.5t-14 30.5z" />
<glyph unicode="g" horiz-adv-x="1614" d="M176 1141q0 19 13.5 31t33.5 12q247 -25 387 -216.5t197 -467.5q56 277 195 468t387 216q20 0 33.5 -12t13.5 -31q0 -38 -39 -45q-171 -17 -282 -130.5t-168.5 -281.5t-77 -343t-19.5 -347q-3 -17 -15 -28t-28 -11q-38 0 -45 39q0 172 -19.5 348t-77.5 343t-168.5 280.5 t-281.5 130.5q-39 7 -39 45z" />
<glyph unicode="h" d="M117 -2q0 16 12 33l627 657l-627 660q-12 12 -12 30q0 17 13 30t32 13q17 0 31 -12l1312 -1378q13 -18 13 -33q0 -18 -13.5 -30.5t-31.5 -12.5q-19 0 -31 12l-625 658l-624 -658q-13 -12 -31 -12q-19 0 -32 13t-13 30z" />
<glyph unicode="i" d="M117 -2q0 16 12 33l1313 1378q12 12 31 12q18 0 31.5 -12.5t13.5 -30.5q0 -17 -13 -30l-626 -660l626 -657q13 -18 13 -33q0 -18 -13.5 -30.5t-31.5 -12.5q-19 0 -31 12l-625 658l-624 -658q-13 -12 -31 -12q-19 0 -32 13t-13 30z" />
<glyph unicode="j" d="M176 -23q0 18 12.5 30.5t28.5 15.5h1202q39 -9 39 -46q0 -34 -39 -43h-1202q-17 5 -29 17t-12 26zM176 -438q0 16 12 29t29 16h1202q39 -7 39 -45q0 -17 -11.5 -28.5t-27.5 -14.5h-1202q-16 3 -28.5 15.5t-12.5 27.5zM176 969q0 125 51 240t139 198t205 130.5t242 47.5 h606q16 -3 27.5 -14.5t11.5 -28.5q0 -38 -39 -45h-598q-146 0 -275 -69t-205.5 -190.5t-76.5 -268.5q0 -148 76.5 -270t205.5 -191.5t275 -69.5h598q16 -3 27.5 -14.5t11.5 -28.5q0 -38 -39 -45h-606q-169 0 -316 82.5t-234 225.5t-87 311z" />
<glyph unicode="k" d="M176 -23q0 18 12.5 30.5t28.5 15.5h1202q39 -9 39 -46q0 -34 -39 -43h-1202q-17 5 -29 17t-12 26zM176 395q0 15 12.5 27.5t28.5 15.5h596q146 0 275 69.5t205.5 191.5t76.5 270q0 147 -76.5 268.5t-205.5 190.5t-275 69h-596q-17 3 -29 16t-12 29q0 15 12.5 27.5 t28.5 15.5h604q125 0 243 -47.5t205.5 -131.5t138 -196.5t50.5 -240.5t-49.5 -240.5t-139.5 -198.5t-206 -133t-242 -47h-604q-17 3 -29 16t-12 29zM176 -438q0 16 12 29t29 16h1202q39 -7 39 -45q0 -17 -11.5 -28.5t-27.5 -14.5h-1202q-16 3 -28.5 15.5t-12.5 27.5z" />
<glyph unicode="l" d="M117 303q0 34 41 45h1321q39 -12 39 -45q0 -35 -39 -43h-1321q-18 3 -29.5 14.5t-11.5 28.5zM117 719q0 34 41 45h356q18 111 104.5 186.5t198.5 75.5q73 0 139.5 -35t110 -95t53.5 -132h359q39 -12 39 -45q0 -35 -39 -43h-404q-31 0 -39 39q0 91 -63.5 157t-155.5 66 t-155.5 -66t-63.5 -157q0 -31 -39 -39h-401q-41 7 -41 43z" />
<glyph unicode="m" d="M117 303q0 34 41 45h401q30 0 39 -41q0 -58 29.5 -110t79 -82.5t110.5 -30.5q90 0 154.5 66t64.5 157q0 28 39 41h404q39 -12 39 -45q0 -35 -39 -43h-359q-10 -73 -53.5 -134t-110 -95.5t-139.5 -34.5t-139 34.5t-109 95t-55 134.5h-356q-18 3 -29.5 14.5t-11.5 28.5z M117 719q0 34 41 45h356q18 111 104.5 186.5t198.5 75.5q73 0 139.5 -35t110 -95t53.5 -132h359q39 -12 39 -45q0 -35 -39 -43h-404q-31 0 -39 39q0 91 -63.5 157t-155.5 66t-155.5 -66t-63.5 -157q0 -31 -39 -39h-401q-41 7 -41 43z" />
<glyph unicode="n" horiz-adv-x="2806" d="M117 512q0 24 22 37l1141 633q18 6 23 6q18 0 30.5 -13.5t12.5 -31.5q0 -26 -21 -37l-1073 -594l1073 -596q9 -4 15 -14.5t6 -22.5q0 -17 -13 -31t-30 -14q-5 0 -23 6l-1141 633q-22 13 -22 39zM786 512q0 24 23 37l1141 633q18 6 22 6q18 0 30.5 -13.5t12.5 -31.5 q0 -27 -20 -37l-1073 -594l1073 -596q20 -10 20 -37q0 -17 -13 -31t-30 -14q-4 0 -9 1.5t-13 4.5l-1141 633q-23 13 -23 39zM1458 512q0 25 23 37l1140 633q21 6 23 6q18 0 30.5 -13.5t12.5 -31.5q0 -27 -21 -37l-1073 -594l1073 -596q21 -10 21 -37q0 -17 -13 -31t-30 -14 q-4 0 -10.5 2t-12.5 4l-1140 633q-23 12 -23 39z" />
<glyph unicode="o" horiz-adv-x="2806" d="M117 -121q0 28 22 37l1112 596l-1112 594q-22 9 -22 37q0 18 12.5 31.5t32.5 13.5q5 0 11 -2t11 -4l1184 -633q21 -14 21 -37q0 -25 -21 -39l-1190 -635q-12 -4 -16 -4q-19 0 -32 14t-13 31zM766 -121q0 28 22 37l1113 596l-1113 594q-22 9 -22 37q0 18 12.5 31.5 t32.5 13.5q5 0 11 -2l12 -4l1183 -633q21 -13 21 -37q0 -26 -21 -39l-1190 -635q-12 -4 -16 -4q-19 0 -32 14t-13 31zM1415 -121q0 28 23 37l1112 596l-1112 594q-23 9 -23 37q0 18 13.5 31.5t31.5 13.5q5 0 11 -2l12 -4l1183 -633q21 -13 21 -37q0 -26 -21 -39l-1189 -635 q-14 -4 -17 -4q-17 0 -31 14t-14 31z" />
<glyph unicode="p" horiz-adv-x="1051" d="M117 645v737q0 31 41 39h735q16 -3 28.5 -15.5t12.5 -27.5q0 -16 -12 -29t-29 -16h-688v-688q-3 -17 -15 -29t-28 -12q-34 0 -45 41z" />
<glyph unicode="q" horiz-adv-x="1051" d="M117 1378q0 15 11.5 27.5t29.5 15.5h735q15 0 26.5 -12.5t14.5 -26.5v-737q-3 -17 -16 -29t-29 -12q-15 0 -27.5 12.5t-15.5 28.5v688h-688q-19 3 -30 16t-11 29z" />
<glyph unicode="r" horiz-adv-x="1968" d="M59 561q0 248 124.5 461.5t338 338t461.5 124.5q187 0 357 -72.5t296 -198.5t198.5 -296t72.5 -357t-72 -356t-200 -296.5t-296.5 -199t-355.5 -71.5t-354.5 71.5t-297 200t-201 296.5t-71.5 355zM147 561q0 -168 65.5 -321.5t182.5 -269.5t269 -180t319 -64 q168 0 320.5 64t269.5 181t181.5 267.5t64.5 322.5t-64.5 323t-181 267.5t-267.5 181t-323 64.5q-224 0 -417 -113t-306 -306t-113 -417zM442 0v63q73 0 109.5 12.5t36.5 63.5v799q0 51 -36.5 63.5t-109.5 12.5v63h496q91 0 192 -31.5t170.5 -96t69.5 -156.5q0 -94 -77 -162 t-179 -96q143 -65 166 -193l33 -160q12 -69 31.5 -110t70.5 -41q44 0 68 39.5t24 85.5q0 9 8.5 16.5t16.5 7.5h18q23 0 23 -28q0 -71 -44.5 -126t-113.5 -55q-120 0 -205.5 55t-85.5 169v137q0 77 -56.5 127.5t-131.5 50.5h-197v-371q0 -51 37 -63.5t109 -12.5v-63 q-24 0 -67.5 1.5t-86 3t-67.5 1.5q-24 0 -68 -2l-86 -2q-44 -2 -68 -2zM739 569h174q134 0 203.5 48.5t69.5 175.5q0 126 -69.5 173.5t-203.5 47.5h-102q-44 0 -58 -14.5t-14 -61.5v-369z" />
<glyph unicode="s" horiz-adv-x="1876" d="M14 561q0 248 124.5 461.5t338 338t461.5 124.5q187 0 357 -72.5t296 -198.5t198.5 -296t72.5 -357t-72 -356t-200 -296.5t-296.5 -199t-355.5 -71.5t-354.5 71.5t-297 200t-201 296.5t-71.5 355zM102 561q0 -168 65.5 -321.5t182.5 -269.5t269 -180t319 -64 q168 0 320.5 64t269.5 181t181.5 267.5t64.5 322.5t-64.5 323t-181 267.5t-267.5 181t-323 64.5q-224 0 -417 -113t-306 -306t-113 -417zM573 -10v348q0 7 7 12.5t14 5.5h24q8 0 14.5 -5.5t6.5 -12.5q0 -148 96 -225.5t248 -77.5q58 0 105 29.5t74.5 78.5t27.5 105 q0 50 -21 93t-56.5 73t-84.5 43l-215 49q-65 16 -121 59.5t-87.5 105.5t-31.5 130q0 83 44 153t118.5 111t157.5 41q155 0 254 -98l65 90q7 8 21 8q9 0 16.5 -5t7.5 -14v-348q0 -5 -7.5 -11.5t-12.5 -6.5h-25q-5 0 -12.5 6.5t-7.5 11.5q0 56 -28 125t-68 109q-80 76 -203 76 q-83 0 -145 -57t-62 -138q0 -67 46 -120t112 -68l213 -52q108 -24 177 -114t69 -203q0 -85 -43 -161t-117 -120.5t-160 -44.5q-186 0 -299 99l-66 -90q-5 -9 -20 -9q-6 0 -15.5 5t-9.5 14z" />
<glyph unicode="t" horiz-adv-x="1403" d="M117 -6v702q0 96 49.5 169t132 122t175 72.5t183.5 23.5v387q9 41 45 41q17 0 28.5 -11.5t14.5 -29.5v-387q91 0 184 -23.5t174 -72t131 -122t50 -169.5v-702q-3 -16 -15.5 -27.5t-27.5 -11.5q-38 0 -45 39v694q0 79 -42.5 137.5t-110.5 95.5t-145.5 54.5t-152.5 17.5 v-999q-3 -16 -15.5 -27.5t-27.5 -11.5q-36 0 -45 39v999q-75 0 -153 -17.5t-145 -54t-110.5 -95.5t-43.5 -138v-694q-3 -17 -15 -28t-28 -11q-38 0 -45 39z" />
<glyph unicode="u" d="M117 512q0 15 11.5 27.5t29.5 15.5h616v633q3 17 16 29t29 12q15 0 27.5 -12.5t15.5 -28.5v-633h617q39 -8 39 -43q0 -37 -39 -45h-617v-633q-3 -16 -15.5 -28.5t-27.5 -12.5q-16 0 -29 12t-16 29v633h-616q-41 7 -41 45zM709 1493q0 43 33 77t77 34q45 0 78 -34t33 -77 q0 -44 -33.5 -77.5t-77.5 -33.5q-45 0 -77.5 33.5t-32.5 77.5z" />
<glyph unicode="v" d="M117 692v17q7 53 30 53q24 0 31 -53q0 -81 36.5 -156.5t103.5 -121.5t149 -46q92 0 168 48t175.5 139.5t178.5 140.5t178 49q82 0 148 -37t110.5 -100t68.5 -140.5t24 -152.5v-17q-7 -53 -31 -53t-31 53q0 81 -36.5 156.5t-103.5 121.5t-149 46q-94 0 -167.5 -47 t-177 -141.5t-180.5 -141.5t-175 -47q-108 0 -186.5 63.5t-121 163.5t-42.5 203z" />
<glyph unicode="w" d="M117 94q0 34 41 45h1321q39 -12 39 -45q0 -35 -39 -43h-1321q-18 3 -29.5 14.5t-11.5 28.5zM117 899v16q6 54 30 54q25 0 31 -54q0 -75 40.5 -141t107 -103.5t141.5 -37.5q91 0 167.5 43t180.5 126t181.5 125t170.5 42q100 0 180 -55t125.5 -144.5t45.5 -189.5v-17 q-7 -53 -31 -53t-31 53q0 75 -40 141t-107 104t-142 38q-90 0 -165 -42t-179 -125t-182.5 -126t-173.5 -43q-99 0 -179.5 54.5t-125.5 145.5t-45 189z" />
<glyph unicode="x" horiz-adv-x="1051" d="M117 -6v737q7 41 45 41q17 0 28.5 -11t14.5 -30v-688h688q17 -3 29 -15t12 -30q0 -15 -12.5 -27.5t-28.5 -15.5h-735q-33 0 -41 39z" />
<glyph unicode="y" horiz-adv-x="1051" d="M117 -2q0 38 41 45h688v688q3 18 14.5 29.5t28.5 11.5q18 0 30 -11t15 -30v-737q0 -15 -13 -25.5t-28 -13.5h-735q-18 3 -29.5 15.5t-11.5 27.5z" />
<glyph unicode="z" horiz-adv-x="1753" d="M121 266v889q0 19 22 23q8 0 19 -11q225 -434 690 -434q0 465 -432 692q-7 9 -10 19q0 8 8 15t14 7h887q18 0 22 -22q0 -6 -10 -19q-432 -227 -432 -692q464 0 692 434q8 9 19 11q9 0 15.5 -7.5t6.5 -15.5v-889q0 -18 -22 -22q-14 0 -19 10q-227 434 -692 434 q0 -465 432 -692q7 -7 10 -19q0 -6 -7 -14t-15 -8h-887q-18 0 -22 22q0 9 10 19q432 227 432 692q-466 0 -690 -434q-11 -8 -19 -10q-22 0 -22 22z" />
<glyph unicode="{" horiz-adv-x="1051" d="M117 248v1194q0 74 37 130.5t96.5 92t129 53t140.5 17.5h10q72 0 142 -17.5t130 -53t96 -92t36 -130.5v-244q-10 -74 -84 -84h-10q-34 5 -55.5 26.5t-26.5 57.5v234q0 68 -75 97.5t-157 29.5q-151 0 -215 -72q-7 -7 -14 -23q0 -3 -1.5 -8t-2.5 -8v-16v-1174q0 -46 39 -75 t93.5 -40.5t100.5 -11.5q150 0 213 72q8 8 15 22q0 2 1.5 8t2.5 9v16v234q9 73 82 83h10q75 -10 84 -83v-244q0 -74 -36 -130t-98 -92.5t-133 -53.5t-137 -17h-10q-97 0 -188.5 31.5t-153 98t-61.5 163.5z" />
<glyph unicode="|" horiz-adv-x="1169" d="M117 791v10q5 35 26.5 56t57.5 26h766q35 -4 57.5 -26.5t26.5 -55.5v-10q-11 -75 -84 -84h-295v-1061q-5 -35 -26 -57t-56 -25h-10q-74 6 -84 82v1061h-295q-75 10 -84 84z" />
<glyph unicode="}" d="M117 512q0 187 94 349.5t255 257.5t351 95q189 0 350.5 -94.5t256 -257.5t94.5 -350q0 -188 -94.5 -351.5t-256 -258.5t-350.5 -95q-190 0 -351 95.5t-255 258.5t-94 351zM182 512q0 -173 85 -319.5t232.5 -233t317.5 -86.5t317.5 86.5t232.5 233t85 319.5 q0 127 -49.5 244.5t-136 205t-204 137.5t-245.5 50q-170 0 -317 -86t-232.5 -232.5t-85.5 -318.5zM526 512q0 119 86 205t205 86q76 0 144 -39.5t107.5 -107.5t39.5 -144q0 -119 -86 -205t-205 -86t-205 86t-86 205zM614 512q0 -55 28 -102t74.5 -74t100.5 -27 q55 0 101.5 27.5t74 74t27.5 101.5t-27.5 101.5t-74 74t-101.5 27.5q-54 0 -100.5 -27t-74.5 -74t-28 -102z" />
<glyph unicode="~" d="M115 512q0 188 94.5 349.5t257 256t350.5 94.5t350.5 -94t257.5 -255.5t95 -350.5t-95 -351.5t-257.5 -256.5t-350.5 -94q-141 0 -268.5 54t-226.5 153t-153 226.5t-54 268.5zM180 512q0 -171 86 -318.5t233 -233t318 -85.5q128 0 244 49t204 136t138.5 205t50.5 247 q0 128 -50.5 246.5t-137 204t-204 135t-245.5 49.5q-171 0 -317.5 -85t-233 -232.5t-86.5 -317.5zM428 324q0 35 31 51l295 137l-295 135q-31 16 -31 51q0 26 19 46t42 20q18 0 31 -10l266 -189l-30 326v4q0 26 17 41.5t44 15.5q26 0 44 -15.5t18 -41.5v-4l-31 -326l266 189 q13 10 31 10q25 0 43 -20t18 -46q0 -15 -8 -29t-22 -22l-295 -135l295 -137q14 -8 22 -22t8 -29q0 -26 -18 -46t-43 -20q-18 0 -31 10l-266 189l31 -326v-4q0 -26 -18.5 -41.5t-43.5 -15.5t-43 15.5t-18 41.5v4l30 326l-266 -189q-13 -10 -31 -10q-23 0 -42 20t-19 46z" />
<glyph unicode="&#xa1;" d="M117 41v1366q0 15 11.5 25t29.5 14h1321q28 0 39 -39v-1366q0 -32 -39 -41h-1321q-17 0 -27.5 12t-13.5 29zM205 88h1225v1270h-1225v-1270zM705 725q0 45 33 80t81 35t81.5 -34.5t33.5 -80.5q0 -47 -34 -81t-81 -34t-80.5 34.5t-33.5 80.5z" />
<glyph unicode="&#xa2;" d="M117 41v1366q9 39 41 39h1321q15 -3 27 -13.5t12 -25.5v-1366q-10 -41 -39 -41h-1321q-17 3 -29 13.5t-12 27.5zM205 88h569v592h-569v-592zM205 768h569v590h-569v-590zM862 88h568v592h-568v-592zM862 768h568v590h-568v-590z" />
<glyph unicode="&#xa3;" d="M117 41v1366q0 15 11.5 25t29.5 14h1321q28 0 39 -39v-1366q0 -32 -39 -41h-1321q-17 0 -27.5 12t-13.5 29zM205 154l551 569l-551 569v-1138zM264 88h1106l-553 571zM264 1358l553 -572l553 572h-1106zM879 723l551 -569v1138z" />
<glyph unicode="&#xa4;" d="M117 41v1366q0 15 11.5 25t29.5 14h1321q28 0 39 -39v-1366q0 -32 -39 -41h-1321q-17 0 -27.5 12t-13.5 29zM205 88h1225v1270h-1225v-1270z" />
<glyph unicode="&#xa5;" d="M117 41v1366q0 15 11.5 25t29.5 14h1321q28 0 39 -39v-1366q0 -32 -39 -41h-1321q-17 0 -27.5 12t-13.5 29z" />
<glyph unicode="&#xa6;" horiz-adv-x="584" d="M117 41v313q0 31 41 39h268q31 0 39 -39v-313q0 -32 -39 -41h-268q-17 0 -27.5 12t-13.5 29z" />
<glyph unicode="&#xa7;" horiz-adv-x="1403" d="M117 594q0 13 6 22l539 830q18 22 38 22q24 0 37 -20l541 -832q6 -9 6 -22q0 -12 -6 -23l-539 -827q-16 -23 -39 -23q-24 0 -34 19l-543 831q-6 10 -6 23zM213 594l487 -748l488 748l-488 749z" />
<glyph unicode="&#xa8;" horiz-adv-x="1403" d="M117 594q0 13 6 22l539 830q18 22 38 22q24 0 37 -20l541 -832q6 -9 6 -22q0 -12 -6 -23l-539 -827q-16 -23 -39 -23q-24 0 -34 19l-543 831q-6 10 -6 23z" />
<glyph unicode="&#xa9;" d="M117 512q0 144 59 279.5t166.5 236t245.5 148.5q-112 51 -217 159l69 19q94 -108 246 -152q61 12 129 12q35 0 35 -32q0 -13 -8 -23t-21 -10q-35 0 -51 -2q-70 -58 -117.5 -141t-62.5 -170l-70 -21q26 149 113 268l-10 35q-127 -41 -228.5 -132.5t-157 -215.5t-55.5 -258 q0 -173 85 -319.5t232.5 -233t317.5 -86.5t317.5 86.5t232.5 233t85 319.5q0 117 -44 231t-126 202t-190 140q-17 11 -17 29q0 14 9.5 23.5t23.5 9.5q4 0 16 -4q88 -41 162.5 -109.5t125 -149.5t78.5 -176t28 -196q0 -188 -94.5 -351.5t-256 -258.5t-350.5 -95 q-190 0 -351 95.5t-255 258.5t-94 351z" />
<glyph unicode="&#xaa;" d="M117 512q0 130 48 254t137 222.5t208 154.5q8 4 16 4q15 0 24 -9t9 -24q0 -18 -16 -29q-108 -52 -189.5 -139.5t-126.5 -201t-45 -232.5q0 -173 85 -319.5t232.5 -233t317.5 -86.5t317.5 86.5t232.5 233t85 319.5q0 102 -32.5 199t-90 176t-139 139.5t-178.5 91.5 l-11 -35q89 -121 113 -268l-70 21q-15 91 -62.5 172t-117.5 139q-16 2 -49 2q-14 0 -22.5 9.5t-8.5 23.5q0 15 11 23.5t26 8.5q65 0 127 -12q149 43 246 152l70 -19q-107 -109 -217 -159q136 -47 244 -147.5t167.5 -236.5t59.5 -280q0 -188 -94.5 -351.5t-256 -258.5 t-350.5 -95q-190 0 -351 95.5t-255 258.5t-94 351z" />
<glyph unicode="&#xad;" horiz-adv-x="2103" d="M117 303v45h1827q19 0 31 -13t12 -32q0 -18 -12.5 -30.5t-30.5 -12.5h-1635q141 -123 195 -299h-72q-31 79 -77 142t-105.5 113.5t-132.5 86.5zM117 719q0 17 12 31t33 14h1632q-141 120 -195 297h72q30 -74 76.5 -139.5t107.5 -117t132 -85.5v-43h-1825q-19 0 -32 13 t-13 30z" />
<glyph unicode="&#xae;" horiz-adv-x="2103" d="M117 303q0 18 12.5 31.5t32.5 13.5h1825v-45q-71 -34 -131.5 -85t-107.5 -117t-77 -140h-72q54 176 195 299h-1632q-19 0 -32 13t-13 30zM117 676v43q73 36 133.5 87.5t105.5 113.5t76 141h72q-54 -177 -195 -297h1635q19 0 31 -13.5t12 -31.5t-12.5 -30.5t-30.5 -12.5 h-1827z" />
<glyph unicode="&#xaf;" d="M117 41v1366q0 15 11.5 25t29.5 14h1321q28 0 39 -39v-1366q0 -32 -39 -41h-1321q-17 0 -27.5 12t-13.5 29zM205 88h1225v592h-1225v-592zM205 768h1225v590h-1225v-590z" />
<glyph unicode="&#xb0;" horiz-adv-x="1520" d="M117 41v1341q7 39 45 39q17 0 28.5 -11t14.5 -28v-1341q-3 -19 -15 -30t-28 -11q-38 0 -45 41zM532 41v1341q9 39 46 39q34 0 43 -39v-626h741q39 -8 39 -43q0 -37 -39 -45h-741v-627q-3 -17 -15 -29t-28 -12q-37 0 -46 41z" />
<glyph unicode="&#xb1;" horiz-adv-x="1870" d="M117 41v1341q7 39 45 39q17 0 28.5 -11t14.5 -28v-1341q-3 -19 -15 -30t-28 -11q-38 0 -45 41zM506 41v1341q7 39 45 39q17 0 28.5 -11t14.5 -28v-1341q-3 -19 -15 -30t-28 -11q-38 0 -45 41zM895 41v1341q7 39 45 39q17 0 28.5 -11.5t14.5 -27.5v-626h731 q16 -3 27.5 -14t11.5 -29q0 -38 -39 -45h-731v-627q-3 -18 -15.5 -29.5t-27.5 -11.5q-38 0 -45 41z" />
<glyph unicode="&#xb2;" horiz-adv-x="1286" d="M117 41v1341q7 39 45 39q17 0 28.5 -11t14.5 -28v-417h923q16 -3 27.5 -14t11.5 -29q0 -38 -39 -45h-923v-328h923q16 -3 27.5 -14t11.5 -29q0 -38 -39 -45h-923v-420q-3 -19 -15 -30t-28 -11q-38 0 -45 41z" />
<glyph unicode="&#xb3;" horiz-adv-x="2103" d="M117 512q0 17 12 30t33 13h1257q-44 39 -83.5 88t-71 102.5t-52.5 106.5h72q75 -186 240 -297h282q-137 125 -207 297h72q29 -71 76.5 -137.5t108 -117.5t131.5 -85q-73 -37 -132.5 -87.5t-107 -117t-76.5 -137.5h-72q70 172 207 297h-282q-165 -111 -240 -297h-72 q21 53 52.5 106.5t71 102.5t83.5 88h-1257q-19 0 -32 13t-13 32z" />
<glyph unicode="&#xb4;" horiz-adv-x="2103" d="M117 512q73 36 132.5 86.5t105.5 114t77 139.5h72q-21 -53 -52.5 -106.5t-71 -102.5t-83.5 -88h283q163 108 239 297h72q-21 -53 -52.5 -106.5t-71 -102.5t-83.5 -88h1260q19 0 31 -12.5t12 -30.5q0 -20 -12.5 -32.5t-30.5 -12.5h-1260q71 -64 123.5 -140.5t83.5 -156.5 h-72q-76 189 -239 297h-283q71 -64 123.5 -140.5t83.5 -156.5h-72q-31 76 -77 139.5t-104.5 113.5t-133.5 89z" />
<glyph unicode="&#xb5;" horiz-adv-x="2103" d="M117 170q73 36 132.5 86.5t105.5 113.5t77 142q-31 76 -77 139.5t-105.5 114t-132.5 86.5q73 36 132.5 86.5t105.5 113.5t77 142h72q-32 -84 -85 -160t-122 -137h1647q19 0 31 -13t12 -32q0 -18 -12.5 -30.5t-30.5 -12.5h-1647q71 -64 123.5 -140.5t83.5 -156.5 q-67 -172 -207 -299h1647q19 0 31 -12.5t12 -30.5q0 -19 -12 -32t-31 -13h-1647q47 -42 84.5 -87.5t69 -99.5t53.5 -110h-72q-20 55 -52.5 106t-72.5 94.5t-89 80t-101 61.5z" />
<glyph unicode="&#xb6;" horiz-adv-x="2103" d="M117 170q0 17 12 30t33 13h1644q-138 125 -207 299q70 172 207 297h-1644q-19 0 -32 13t-13 30q0 18 12.5 31.5t32.5 13.5h1644q-137 122 -207 297h72q30 -74 77 -140t107.5 -117t131.5 -85q-71 -34 -131.5 -85t-108 -117.5t-76.5 -137.5q30 -74 77 -140t107.5 -117 t131.5 -85q-71 -34 -132 -86t-107.5 -118t-76.5 -138h-72q70 175 207 297h-1644q-20 0 -32.5 13.5t-12.5 31.5z" />
<glyph unicode="&#xb8;" horiz-adv-x="1753" d="M150 -20q0 11 8 16.5t18 5.5h8q183 -70 299 -221v1601q0 17 13 28t30 11q16 0 29.5 -11t13.5 -28v-1601q55 73 134 130.5t165 90.5h17q184 -70 299 -221v1601q0 16 13.5 27.5t29.5 11.5q17 0 31 -11.5t14 -27.5v-1601q115 151 299 221h8q8 0 16.5 -5.5t8.5 -16.5v-23 q0 -16 -17 -20q-112 -42 -200.5 -126t-135.5 -192q-6 -16 -24 -16q-17 0 -23 16q-32 72 -81 133.5t-113 107.5t-133 72q-72 -27 -135 -72.5t-112 -107.5t-79 -133q-6 -16 -25 -16q-18 0 -24 16q-31 70 -82 133t-114.5 109.5t-139.5 75.5q-16 4 -16 20v23z" />
<glyph unicode="&#xb9;" horiz-adv-x="877" d="M393 -354v1775h45q51 -106 140.5 -188t199.5 -127v-72q-174 53 -297 195v-1583q0 -19 -13 -31t-30 -12q-18 0 -31.5 12.5t-13.5 30.5z" />
<glyph unicode="&#xba;" horiz-adv-x="877" d="M393 -397v1775q0 18 12.5 30.5t32.5 12.5q19 0 31 -12t12 -31v-1583q123 142 297 195v-72q-75 -31 -139.5 -77t-114 -104.5t-86.5 -133.5h-45z" />
<glyph unicode="&#xbb;" horiz-adv-x="877" d="M98 1034v72q111 45 201.5 128t140.5 187h43v-1775q0 -19 -13 -31t-30 -12q-18 0 -31.5 12.5t-13.5 30.5v1583q-61 -70 -135 -119t-162 -76z" />
<glyph unicode="&#xbc;" horiz-adv-x="877" d="M98 -10q84 -25 160 -75t137 -120v1583q0 18 12.5 30.5t32.5 12.5q19 0 31 -12t12 -31v-1775h-43q-50 106 -140.5 189t-201.5 126v72z" />
<glyph unicode="&#xbd;" horiz-adv-x="2339" d="M152 170q70 176 206 297v88q-136 121 -206 297h71q72 -185 238 -297h1579q-44 39 -83.5 88t-71 102.5t-52.5 106.5h72q46 -111 127 -199t188 -141q-75 -39 -133.5 -89t-104.5 -113.5t-77 -139.5h-72q21 53 52.5 106.5t71 102.5t83.5 88h-1579q-166 -112 -238 -297h-71z " />
<glyph unicode="&#xbe;" horiz-adv-x="2339" d="M117 512q73 36 132.5 86.5t105.5 114t77 139.5h72q-21 -53 -52.5 -106.5t-71 -102.5t-83.5 -88h1579q165 112 238 297h71q-70 -176 -207 -297v-88q137 -121 207 -297h-71q-73 185 -238 297h-1579q71 -64 123.5 -140.5t83.5 -156.5h-72q-31 76 -77 139.5t-104.5 113.5 t-133.5 89z" />
<glyph unicode="&#xbf;" horiz-adv-x="2103" d="M117 340q0 17 12 30t33 13h1644q-137 125 -207 297h72q22 -54 55 -105.5t72 -93.5t85 -77t104 -64q-71 -34 -132 -86t-107.5 -118t-76.5 -138h-72q70 175 207 297h-1644q-20 0 -32.5 13.5t-12.5 31.5zM117 1022q73 36 132.5 86.5t105.5 113.5t77 142h72q-32 -84 -85 -160 t-122 -137h1647q19 0 31 -13t12 -32q0 -18 -12.5 -30.5t-30.5 -12.5h-1647q140 -127 207 -299h-72q-20 55 -52.5 106t-72.5 94.5t-89 80t-101 61.5z" />
<glyph unicode="&#xc0;" horiz-adv-x="2103" d="M117 340q73 36 132.5 86.5t105.5 113.5t77 142h72q-32 -84 -85 -160t-122 -137h1647q19 0 31 -13t12 -32q0 -18 -12.5 -30.5t-30.5 -12.5h-1647q140 -127 207 -299h-72q-20 55 -52.5 106t-72.5 94.5t-89 80t-101 61.5zM117 1024q0 17 12 30t33 13h1644q-137 125 -207 297 h72q29 -71 76.5 -137.5t108 -117.5t131.5 -85q-71 -34 -132 -86t-107.5 -118t-76.5 -138h-72q70 175 207 297h-1644q-20 0 -32.5 13.5t-12.5 31.5z" />
<glyph unicode="&#xc1;" horiz-adv-x="1051" d="M117 1137q73 36 133.5 87.5t105.5 113.5t76 141h72q-32 -84 -85 -160t-122 -137h594q18 0 30.5 -13.5t12.5 -31.5v-1092q0 -20 -12.5 -32.5t-30.5 -12.5q-19 0 -32 13t-13 32v1049h-549q138 -126 207 -297h-72q-31 76 -77 139.5t-105.5 114t-132.5 86.5z" />
<glyph unicode="&#xc2;" horiz-adv-x="1051" d="M117 45v1092q0 18 12.5 31.5t32.5 13.5h592q-65 57 -118 132.5t-89 164.5h71q45 -113 127 -201t189 -141q-107 -53 -189 -141t-127 -199h-71q69 171 207 297h-549v-1049q0 -20 -12.5 -32.5t-30.5 -12.5q-19 0 -32 13t-13 32z" />
<glyph unicode="&#xc3;" horiz-adv-x="2103" d="M117 512q0 19 12 31l197 170q12 12 30 12q16 0 31 -12l358 -314l359 314q15 12 31 12q18 0 30 -12l183 -158h458q-137 125 -207 297h72q29 -71 76.5 -137.5t108 -117.5t131.5 -85q-73 -37 -132.5 -87.5t-107 -117t-76.5 -137.5h-72q70 172 207 297h-479q-13 0 -31 16 l-161 140l-359 -314q-12 -12 -31 -12q-18 0 -30 12l-359 314l-163 -144q-16 -12 -31 -12q-19 0 -32 13t-13 32z" />
<glyph unicode="&#xc4;" d="M117 512q0 187 94 349.5t255 257.5t351 95q189 0 350.5 -94.5t256 -257.5t94.5 -350q0 -188 -94.5 -351.5t-256 -258.5t-350.5 -95q-190 0 -351 95.5t-255 258.5t-94 351zM182 512q0 -173 85 -319.5t232.5 -233t317.5 -86.5t317.5 86.5t232.5 233t85 319.5 q0 127 -49.5 244.5t-136 205t-204 137.5t-245.5 50q-170 0 -317 -86t-232.5 -232.5t-85.5 -318.5zM467 512q0 11 9 22t22 11h639q13 0 21.5 -10t8.5 -23q0 -12 -8.5 -22.5t-21.5 -10.5h-639q-12 0 -21.5 11.5t-9.5 21.5z" />
<glyph unicode="&#x2000;" horiz-adv-x="1062" />
<glyph unicode="&#x2001;" horiz-adv-x="2124" />
<glyph unicode="&#x2002;" horiz-adv-x="1062" />
<glyph unicode="&#x2003;" horiz-adv-x="2124" />
<glyph unicode="&#x2004;" horiz-adv-x="708" />
<glyph unicode="&#x2005;" horiz-adv-x="531" />
<glyph unicode="&#x2006;" horiz-adv-x="354" />
<glyph unicode="&#x2007;" horiz-adv-x="354" />
<glyph unicode="&#x2008;" horiz-adv-x="265" />
<glyph unicode="&#x2009;" horiz-adv-x="424" />
<glyph unicode="&#x200a;" horiz-adv-x="118" />
<glyph unicode="&#x2010;" d="M117 -424q0 74 25 149t72 134.5t111 93t142 33.5q98 0 174 -44.5t184.5 -136t178.5 -134t163 -42.5q80 0 146.5 42.5t104.5 112.5t38 148q6 54 31 54t31 -54v-16q0 -76 -24.5 -150t-71 -132.5t-111 -93t-144.5 -34.5q-97 0 -169.5 42.5t-180.5 134t-182 136t-168 44.5 q-79 0 -145.5 -42.5t-105 -112t-38.5 -148.5q-6 -54 -31 -54q-24 0 -30 54v16zM176 915q0 15 12.5 27.5t28.5 15.5q191 0 369.5 16t352.5 69t294 163.5t137 286.5q3 17 16 28t29 11q19 0 31 -14t12 -33q-17 -171 -114.5 -288t-241 -182.5t-322.5 -99.5q277 -52 465 -185.5 t213 -383.5q0 -21 -12.5 -35t-30.5 -14q-16 0 -29 11t-16 30q-17 177 -138 287t-294 162t-353 67.5t-368 15.5q-17 3 -29 16t-12 29z" />
<glyph unicode="&#x2011;" d="M117 -424q0 74 25 149t72 134.5t111 93t142 33.5q98 0 174 -44.5t184.5 -136t178.5 -134t163 -42.5q80 0 146.5 42.5t104.5 112.5t38 148q6 54 31 54t31 -54v-16q0 -76 -24.5 -150t-71 -132.5t-111 -93t-144.5 -34.5q-97 0 -169.5 42.5t-180.5 134t-182 136t-168 44.5 q-79 0 -145.5 -42.5t-105 -112t-38.5 -148.5q-6 -54 -31 -54q-24 0 -30 54v16zM176 915q0 15 12.5 27.5t28.5 15.5q191 0 369.5 16t352.5 69t294 163.5t137 286.5q3 17 16 28t29 11q19 0 31 -14t12 -33q-17 -171 -114.5 -288t-241 -182.5t-322.5 -99.5q277 -52 465 -185.5 t213 -383.5q0 -21 -12.5 -35t-30.5 -14q-16 0 -29 11t-16 30q-17 177 -138 287t-294 162t-353 67.5t-368 15.5q-17 3 -29 16t-12 29z" />
<glyph unicode="&#x2012;" d="M117 -424q0 74 25 149t72 134.5t111 93t142 33.5q98 0 174 -44.5t184.5 -136t178.5 -134t163 -42.5q80 0 146.5 42.5t104.5 112.5t38 148q6 54 31 54t31 -54v-16q0 -76 -24.5 -150t-71 -132.5t-111 -93t-144.5 -34.5q-97 0 -169.5 42.5t-180.5 134t-182 136t-168 44.5 q-79 0 -145.5 -42.5t-105 -112t-38.5 -148.5q-6 -54 -31 -54q-24 0 -30 54v16zM176 915q0 15 12.5 27.5t28.5 15.5q191 0 369.5 16t352.5 69t294 163.5t137 286.5q3 17 16 28t29 11q19 0 31 -14t12 -33q-17 -171 -114.5 -288t-241 -182.5t-322.5 -99.5q277 -52 465 -185.5 t213 -383.5q0 -21 -12.5 -35t-30.5 -14q-16 0 -29 11t-16 30q-17 177 -138 287t-294 162t-353 67.5t-368 15.5q-17 3 -29 16t-12 29z" />
<glyph unicode="&#x2013;" horiz-adv-x="1259" d="M117 -424q0 74 18.5 149t52.5 134.5t81 93t104 33.5q71 0 127 -44.5t135 -136t130 -134t119 -42.5q59 0 107.5 42.5t76.5 112.5t28 148q4 54 22 54q19 0 23 -54v-16q0 -76 -18 -150t-52 -132.5t-81 -93t-106 -34.5q-70 0 -123 42.5t-132 134t-133 136t-123 44.5 q-58 0 -106.5 -42.5t-76.5 -112t-28 -148.5q-5 -54 -23 -54t-22 54v16zM160 915q0 15 9 27.5t21 15.5q140 0 270.5 16t257.5 69t214.5 163.5t100.5 286.5q2 17 11.5 28t21.5 11q14 0 22.5 -14t8.5 -33q-12 -171 -83.5 -288t-176.5 -182.5t-235 -99.5q202 -52 339.5 -185.5 t155.5 -383.5q0 -21 -9 -35t-22 -14q-12 0 -21.5 11t-11.5 30q-13 177 -101 287t-214.5 162t-258 67.5t-269.5 15.5q-12 3 -21 16t-9 29z" />
<glyph unicode="&#x2014;" horiz-adv-x="2283" d="M117 -424q0 74 36.5 149t105.5 134.5t162.5 93t207.5 33.5q143 0 254 -44.5t269.5 -136t261 -134t238.5 -42.5q117 0 214 42.5t152.5 112.5t55.5 148q9 54 46 54q36 0 45 -54v-16q0 -76 -36 -150t-104 -132.5t-162 -93t-211 -34.5q-142 0 -248 42.5t-264 134t-266 136 t-245 44.5q-116 0 -213 -42.5t-153.5 -112t-56.5 -148.5q-9 -54 -45 -54q-35 0 -44 54v16zM203 915q0 15 18.5 27.5t41.5 15.5q279 0 540 16t515.5 69t430 163.5t200.5 286.5q4 17 23 28t42 11q28 0 45.5 -14t17.5 -33q-25 -171 -167.5 -288t-352 -182.5t-471.5 -99.5 q405 -52 680 -185.5t311 -383.5q0 -21 -18 -35t-45 -14q-23 0 -42 11t-23 30q-25 177 -202 287t-430 162t-516 67.5t-538 15.5q-25 3 -42.5 16t-17.5 29z" />
<glyph unicode="&#x202f;" horiz-adv-x="424" />
<glyph unicode="&#x205f;" horiz-adv-x="531" />
<glyph unicode="&#x2219;" horiz-adv-x="1753" d="M150 1044v23q0 16 16 20q113 42 200.5 125.5t135.5 192.5q6 16 24 16q15 0 25 -16q47 -108 131.5 -189.5t194.5 -123.5q111 43 195.5 124t131.5 189q6 16 23 16q18 0 24 -16q48 -109 136 -192.5t200 -125.5q17 -4 17 -20v-23q0 -9 -8 -15.5t-17 -6.5h-8q-184 70 -299 221 v-1601q0 -16 -14 -27.5t-31 -11.5q-16 0 -29.5 11.5t-13.5 27.5v1601q-115 -151 -299 -221h-17q-90 36 -167 92t-132 129v-1601q0 -17 -13.5 -28t-29.5 -11q-17 0 -30 11t-13 28v1601q-116 -151 -299 -221h-8q-26 0 -26 22z" />
<glyph unicode="&#xe000;" horiz-adv-x="770" d="M0 770h770v-770h-770v770z" />
</font>
</defs>
</svg>
