<?xml version="1.0" standalone="no"?>
<!DOCTYPE svg PUBLIC "-//W3C//DTD SVG 1.1//EN" "http://www.w3.org/Graphics/SVG/1.1/DTD/svg11.dtd" >
<svg xmlns="http://www.w3.org/2000/svg">
<metadata>
This is a custom SVG webfont generated by Font Squirrel.
Copyright   : Copyright C 1994 1995 Basil K Malyshev All Rights Reserved012BaKoMa Fonts Collection LevelC
</metadata>
<defs>
<font id="msam7Regular" horiz-adv-x="1827" >
<font-face units-per-em="2048" ascent="1638" descent="-410" />
<missing-glyph horiz-adv-x="500" />
<glyph unicode=" "  horiz-adv-x="500" />
<glyph unicode="&#x09;" horiz-adv-x="500" />
<glyph unicode="&#xa0;" horiz-adv-x="500" />
<glyph unicode="!" horiz-adv-x="3213" d="M160 512q75 33 139.5 83t114.5 115t84 142h82q-74 -171 -209 -291h284l174 160q11 10 31 10q23 0 33 -10l340 -313l342 313q10 10 31 10q19 0 32 -10l340 -313l340 313q18 10 33 10q21 0 31 -10l174 -160h285q-137 120 -209 291h82q35 -80 84 -143t112.5 -113t141.5 -84 q-81 -37 -143 -86.5t-111 -112.5t-84 -143h-82q72 171 209 291h-306q-16 0 -38 18l-146 135l-342 -313q-10 -10 -31 -10q-22 0 -32 10l-340 313l-340 -313q-11 -10 -33 -10q-21 0 -31 10l-342 313l-145 -135q-23 -18 -39 -18h-305q135 -120 209 -291h-82q-49 114 -136 202.5 t-202 139.5z" />
<glyph unicode="&#x22;" horiz-adv-x="2331" d="M160 512q75 33 139.5 83t114.5 115t84 142h82q-74 -171 -209 -291h1067q0 138 9.5 240.5t45.5 192t118 143t218 53.5q393 0 393 -365q0 -121 -39 -194.5t-108 -111.5t-153.5 -50t-205.5 -12q-29 0 -89 2t-89 2v-506q-3 -19 -18 -33t-33 -14t-33 14.5t-16 32.5v506h-1067 q135 -120 209 -291h-82q-49 114 -136 202.5t-202 139.5zM1538 561q128 -4 178 -4q139 0 219 13.5t133.5 71.5t53.5 183q0 145 -72.5 205t-220.5 60q-114 0 -175 -45t-91 -152q-25 -109 -25 -332z" />
<glyph unicode="#" horiz-adv-x="2331" d="M111 825q0 187 100 276t291 89q137 0 218.5 -54t118.5 -143.5t45.5 -185.5t8.5 -246h1067q-138 122 -209 291h82q35 -80 84 -143t112.5 -113t141.5 -84q-81 -37 -143 -86.5t-111 -112.5t-84 -143h-82q71 169 209 291h-1065v-506q-3 -19 -18 -33t-33 -14t-33 14.5 t-16 32.5v506q-31 0 -91 -2t-90 -2q-159 0 -265.5 25t-172 105.5t-65.5 237.5zM211 825q0 -125 53 -183.5t132 -71.5t218 -13q51 0 179 4q0 223 -25 332q-28 106 -90.5 151.5t-175.5 45.5q-149 0 -220 -59.5t-71 -205.5z" />
<glyph unicode="$" d="M160 287q0 42 47 49h1413q47 -7 47 -49q0 -44 -47 -51h-1413q-47 7 -47 51zM160 737q0 42 47 49h1413q47 -7 47 -49q0 -20 -14 -34t-33 -17h-1413q-19 3 -33 17t-14 34zM655 1356q0 69 35 128.5t94.5 94.5t128.5 35q68 0 128 -34.5t95 -94.5t35 -129q0 -68 -35 -128 t-95 -95t-128 -35q-69 0 -129 35t-94.5 95t-34.5 128zM756 1356q0 -57 15 -92t49.5 -50.5t92.5 -15.5q57 0 92.5 15t50.5 50.5t15 92.5t-15.5 92t-49 50t-93.5 15q-61 0 -94 -15t-48 -49.5t-15 -92.5z" />
<glyph unicode="%" d="M160 -502q0 112 46 218.5t132 174.5t199 68q104 0 187 -50t197 -151t192.5 -149.5t176.5 -48.5q90 0 160 47.5t108.5 125t38.5 165.5q5 54 35 61q30 -7 35 -61v-21q0 -173 -105 -316t-272 -143q-104 0 -188 51t-193 149t-191 149t-181 51q-89 0 -159.5 -47t-109.5 -126.5 t-39 -166.5q-5 -52 -34 -60q-30 8 -35 60v20zM221 342q19 143 83 248.5t160.5 176.5t218.5 116.5t257 70.5q-150 31 -265.5 75t-212.5 116.5t-160.5 178.5t-80.5 247q0 21 14 37t37 16q41 0 50 -47q24 -189 152.5 -306.5t314.5 -174t374 -73.5t396 -17q47 -9 47 -50 q0 -21 -13.5 -34.5t-33.5 -16.5q-141 0 -277.5 -7.5t-267 -29.5t-246.5 -61q-194 -63 -309 -176q-50 -50 -78 -105q-28 -49 -47 -118q-4 -19 -6.5 -37.5t-6 -34.5t-8.5 -25q-13 -22 -41 -22q-23 0 -37 15t-14 38z" />
<glyph unicode="&#x26;" d="M160 -502q0 112 46 218.5t132 174.5t199 68q104 0 187 -50t197 -151t192.5 -149.5t176.5 -48.5q90 0 160 47.5t108.5 125t38.5 165.5q5 54 35 61q30 -7 35 -61v-21q0 -173 -105 -316t-272 -143q-104 0 -188 51t-193 149t-191 149t-181 51q-89 0 -159.5 -47t-109.5 -126.5 t-39 -166.5q-5 -52 -34 -60q-30 8 -35 60v20zM221 340q0 30 27 43l1192 573l-1192 574q-27 13 -27 45q0 20 14.5 34.5t36.5 14.5q13 0 25 -6l1284 -617q10 -5 17.5 -19t7.5 -26q0 -11 -7 -24t-18 -19l-1284 -618q-12 -6 -25 -6q-21 0 -36 15t-15 36z" />
<glyph unicode="'" d="M160 -121q0 102 51 187.5t139 134.5t187 49q97 0 181 -39.5t204.5 -118.5t196.5 -115t171 -36q72 0 143.5 30.5t117.5 86.5t46 130q5 55 35 62q30 -7 35 -62v-20q0 -156 -110.5 -262.5t-266.5 -106.5q-94 0 -173.5 37t-199.5 115.5t-202.5 118t-177.5 39.5 q-53 0 -108 -17.5t-99.5 -49t-72.5 -79t-28 -104.5q-5 -53 -34 -60q-30 7 -35 60v20zM160 -662q0 102 51 187.5t139 134.5t187 49q97 0 181 -39.5t204.5 -118.5t196.5 -115t171 -36q115 0 211 69t96 179q5 54 35 61q30 -7 35 -61v-21q0 -155 -110.5 -261.5t-266.5 -106.5 q-96 0 -174.5 36.5t-198.5 115t-202.5 118t-177.5 39.5q-72 0 -144 -30.5t-118 -88t-46 -131.5q-5 -52 -34 -59q-30 7 -35 59v20zM221 553q0 29 33 47l1173 502l-1179 504q-27 10 -27 45q0 19 15 34t36 15q11 0 17 -2l1292 -553q9 -4 17 -18t8 -25q0 -32 -33 -47l-1284 -549 q-6 -4 -17 -4q-21 0 -36 15t-15 36z" />
<glyph unicode="(" horiz-adv-x="2583" d="M160 512q0 42 47 49h1489l2 4q12 84 64 156.5t131 114t165 41.5q75 0 140.5 -28t117 -79.5t79.5 -117t28 -140.5t-27.5 -140.5t-79.5 -117.5t-119 -80.5t-139 -28.5q-134 0 -238 91t-122 225h-1491q-47 7 -47 51zM1794 512q0 -109 78.5 -187.5t185.5 -78.5 q109 0 186.5 78.5t77.5 187.5q0 71 -35.5 131t-96.5 96.5t-132 36.5t-131.5 -36t-96.5 -96.5t-36 -131.5z" />
<glyph unicode=")" horiz-adv-x="1575" d="M100 -41q0 49 37 85t86 36t85 -36t36 -85q0 -51 -36 -87t-85 -36t-86 36t-37 87zM666 940q0 49 36 85t86 36q49 0 85 -36t36 -85q0 -51 -36 -87t-85 -36q-50 0 -86 36t-36 87zM1233 -41q0 49 36 85t87 36q49 0 85 -36t36 -85q0 -51 -36 -87t-85 -36q-51 0 -87 36t-36 87z " />
<glyph unicode="*" horiz-adv-x="1575" d="M100 940q0 49 37 85t86 36t85 -36t36 -85q0 -51 -36 -87t-85 -36t-86 36t-37 87zM666 -41q0 49 36 85t86 36q49 0 85 -36t36 -85q0 -51 -36 -87t-85 -36q-50 0 -86 36t-36 87zM1233 940q0 49 36 85t87 36q49 0 85 -36t36 -85q0 -51 -36 -87t-85 -36q-51 0 -87 36t-36 87z " />
<glyph unicode="+" d="M160 287q0 42 47 49h1413q47 -7 47 -49q0 -44 -47 -51h-1413q-47 7 -47 51zM160 737q0 42 47 49h1413q47 -7 47 -49q0 -20 -14 -34t-33 -17h-1413q-19 3 -33 17t-14 34zM776 -166q0 56 40.5 96.5t96.5 40.5q57 0 97.5 -40.5t40.5 -96.5q0 -36 -19 -67t-51.5 -49.5 t-67.5 -18.5q-34 0 -67 18.5t-51.5 49.5t-18.5 67zM776 1188q0 56 40.5 96.5t96.5 40.5q57 0 97.5 -40.5t40.5 -96.5q0 -36 -19 -67t-51.5 -49.5t-67.5 -18.5q-34 0 -67 18.5t-51.5 49.5t-18.5 67z" />
<glyph unicode="," horiz-adv-x="1763" d="M127 287q0 42 47 49h1415q47 -7 47 -49q0 -44 -47 -51h-1415q-47 7 -47 51zM127 737q0 42 47 49h1415q47 -7 47 -49q0 -20 -14 -34t-33 -17h-1415q-19 3 -33 17t-14 34zM391 1098q0 10 2 18l447 772q12 23 43 23q27 0 41 -23l440 -764q8 -11 8 -26q0 -44 -47 -51h-887 q-20 3 -33.5 16.5t-13.5 34.5zM528 1147h707l-352 612z" />
<glyph unicode="-" d="M160 -473q0 105 49 198t136 149t192 56q100 0 184 -43.5t202 -130.5t195.5 -127.5t171.5 -40.5q79 0 150 36.5t114 100t43 144.5q5 54 35 61q30 -7 35 -61v-21q0 -78 -29 -152t-78 -128t-120 -87.5t-150 -33.5q-97 0 -178 42t-197.5 127.5t-198 129t-179.5 43.5 q-78 0 -150 -36.5t-115 -102t-43 -144.5q-5 -52 -34 -59q-30 7 -35 59v21zM221 928q0 19 13.5 32.5t33.5 16.5q142 0 278.5 7.5t266.5 29.5t246 61q195 64 309 176q43 46 78 105q27 47 47 119q5 30 9.5 58.5t10.5 39.5q14 22 43 22q22 0 36 -15t14 -38q-17 -139 -80.5 -246 t-161 -180t-213.5 -116.5t-264 -73.5q144 -28 261.5 -72t216 -116t162 -178t79.5 -247q0 -21 -14 -37t-36 -16q-21 0 -34.5 13.5t-16.5 33.5q-23 190 -152.5 307t-315.5 173.5t-374 73t-395 16.5q-20 3 -33.5 16.5t-13.5 34.5z" />
<glyph unicode="." d="M160 -473q0 105 49 198t136 149t192 56q100 0 184 -43.5t202 -130.5t195.5 -127.5t171.5 -40.5q79 0 150 36.5t114 100t43 144.5q5 54 35 61q30 -7 35 -61v-21q0 -78 -29 -152t-78 -128t-120 -87.5t-150 -33.5q-97 0 -178 42t-197.5 127.5t-198 129t-179.5 43.5 q-78 0 -150 -36.5t-115 -102t-43 -144.5q-5 -52 -34 -59q-30 7 -35 59v21zM221 928q0 32 27 45l1284 616q9 6 24 6q21 0 35.5 -14.5t14.5 -34.5q0 -31 -25 -45l-1194 -573l1194 -574q25 -14 25 -43q0 -21 -15 -36t-35 -15q-15 0 -24 6l-1284 619q-27 10 -27 43z" />
<glyph unicode="/" d="M160 -121q0 102 51 187.5t139 134.5t187 49q97 0 181 -39.5t204.5 -118.5t196.5 -115t171 -36q72 0 143.5 30.5t117.5 86.5t46 130q5 55 35 62q30 -7 35 -62v-20q0 -156 -110.5 -262.5t-266.5 -106.5q-94 0 -173.5 37t-199.5 115.5t-202.5 118t-177.5 39.5 q-53 0 -108 -17.5t-99.5 -49t-72.5 -79t-28 -104.5q-5 -53 -34 -60q-30 7 -35 60v20zM160 -662q0 102 51 187.5t139 134.5t187 49q97 0 181 -39.5t204.5 -118.5t196.5 -115t171 -36q115 0 211 69t96 179q5 54 35 61q30 -7 35 -61v-21q0 -155 -110.5 -261.5t-266.5 -106.5 q-96 0 -174.5 36.5t-198.5 115t-202.5 118t-177.5 39.5q-72 0 -144 -30.5t-118 -88t-46 -131.5q-5 -52 -34 -59q-30 7 -35 59v20zM221 1102q0 29 33 47l1284 549q6 2 18 2q20 0 35 -15t15 -34q0 -32 -33 -47l-1174 -502l1182 -506q9 -4 17 -18t8 -25q0 -21 -15 -36t-35 -15 q-12 0 -18 4l-1290 551q-27 10 -27 45z" />
<glyph unicode="0" d="M221 285q0 32 27 45l1284 616q9 6 24 6q21 0 35.5 -14.5t14.5 -34.5q0 -31 -25 -45l-1194 -573l1194 -574q25 -14 25 -43q0 -21 -15 -36t-35 -15q-15 0 -24 6l-1284 619q-27 10 -27 43zM221 735q0 32 27 45l1284 617q9 6 24 6q20 0 35 -15t15 -34q0 -31 -25 -45 l-1284 -617q-12 -6 -25 -6q-21 0 -36 15t-15 34z" />
<glyph unicode="1" d="M221 -334q0 30 27 43l1192 574l-1192 573q-27 13 -27 45q0 20 14.5 34.5t36.5 14.5q13 0 25 -6l1284 -616q25 -16 25 -45q0 -12 -8.5 -25.5t-16.5 -17.5l-1284 -619q-12 -6 -25 -6q-21 0 -36 15t-15 36zM221 1354q0 19 15 34t36 15q13 0 25 -6l1284 -617q10 -5 17.5 -19 t7.5 -26q0 -19 -15 -34t-35 -15q-15 0 -24 6l-1284 617q-27 13 -27 45z" />
<glyph unicode="2" d="M221 668q0 22 13 35t34 16q205 0 395 17t374 72.5t315 173.5t153 306q3 19 17 33t34 14q22 0 36 -15t14 -38q-23 -187 -123.5 -311.5t-252.5 -195.5t-343 -107q139 -27 259.5 -72t218 -117t161 -179t80.5 -247q0 -21 -14 -37t-36 -16q-29 0 -43 23q-6 10 -9 27t-5 34.5 t-6 36.5q-18 66 -47 119q-34 58 -80 104q-109 107 -305 176q-116 39 -247 61t-267.5 29.5t-278.5 7.5q-21 3 -34 16t-13 34zM221 1018q0 21 12.5 34.5t34.5 16.5q160 0 318.5 27t305 92t244.5 176.5t117 273.5q3 21 16.5 34.5t33.5 13.5q23 0 37 -16t14 -38 q-23 -184 -127.5 -313.5t-262 -206.5t-333.5 -110t-357 -33q-21 0 -37 13t-16 36z" />
<glyph unicode="3" d="M221 53q19 143 81.5 248.5t160 177.5t218 117t259.5 72q-144 28 -262.5 72.5t-215.5 117t-160.5 178.5t-80.5 246q0 23 14 38t37 15q41 0 50 -47q24 -189 153 -306t315 -173t375 -73t394 -17q21 -3 34 -16t13 -35q0 -21 -13 -34t-34 -16q-238 0 -427.5 -20t-365.5 -78 q-195 -68 -307 -178q-40 -40 -78 -102q-27 -48 -47 -119q-4 -19 -6.5 -38t-6 -35t-8.5 -25q-12 -23 -41 -23q-23 0 -37 16t-14 37zM473 1632q0 22 14 38t37 16q28 0 41 -23q5 -9 8.5 -25t6 -35t6.5 -36q25 -99 86 -178q53 -69 125.5 -120.5t163.5 -92.5q251 -107 598 -107 q22 -3 34.5 -16.5t12.5 -34.5q0 -23 -16 -36t-38 -13q-181 0 -356.5 33t-333 110t-261.5 206.5t-128 313.5z" />
<glyph unicode="4" d="M221 317q0 24 16 38t37 14q183 0 358.5 -33t331.5 -110t261.5 -208t128.5 -315q0 -23 -14 -38t-37 -15q-28 0 -41 22q-5 9 -8.5 25t-6 34.5t-6.5 37.5q-25 99 -86 178q-54 70 -129.5 123.5t-159.5 89.5q-254 108 -598 108q-21 2 -34 14.5t-13 34.5zM221 668q0 22 13 35 t34 16q205 0 395 17t374 72.5t315 173.5t153 306q3 19 17 33t34 14q22 0 36 -15t14 -38q-23 -187 -123.5 -311.5t-252.5 -195.5t-343 -107q139 -27 259.5 -72t218 -117t161 -179t80.5 -247q0 -21 -14 -37t-36 -16q-29 0 -43 23q-6 10 -9 27t-5 34.5t-6 36.5q-18 66 -47 119 q-34 58 -80 104q-109 107 -305 176q-116 39 -247 61t-267.5 29.5t-278.5 7.5q-21 3 -34 16t-13 34z" />
<glyph unicode="5" d="M221 43q0 21 12.5 34.5t34.5 16.5h1291q22 -3 34.5 -16.5t12.5 -34.5q0 -42 -47 -49h-1291q-47 7 -47 49zM221 -408q0 23 13 36t34 16h1291q21 -3 34 -16t13 -36q0 -19 -13.5 -32.5t-33.5 -16.5h-1291q-20 3 -33.5 16.5t-13.5 32.5zM221 1012q0 32 27 45l1284 616 q9 6 24 6q21 0 35.5 -14.5t14.5 -34.5q0 -31 -25 -45l-1194 -573l1194 -574q25 -14 25 -43q0 -21 -15 -36t-35 -15q-15 0 -24 6l-1284 619q-27 10 -27 43z" />
<glyph unicode="6" d="M221 287q0 19 15 34t36 15q13 0 25 -6l1284 -617q10 -5 17.5 -19t7.5 -26q0 -19 -15 -34t-35 -15q-15 0 -24 6l-1284 617q-27 13 -27 45zM221 735q0 32 27 45l1284 617q9 6 24 6q20 0 35 -15t15 -34q0 -31 -25 -45l-1194 -574l1194 -573q25 -14 25 -43q0 -21 -15 -36 t-35 -15q-15 0 -24 6l-1284 618q-27 10 -27 43z" />
<glyph unicode="7" d="M121 510q0 20 14.5 34.5t36.5 14.5q12 0 16 -2l1485 -549q33 -14 33 -49q0 -33 -33 -47l-1487 -549q-4 -2 -14 -2q-21 0 -36 15t-15 34q0 37 33 47l1357 502l-1357 504q-33 10 -33 47zM121 918q0 31 33 47l1486 548q5 3 15 3q21 0 36 -15t15 -35q0 -16 -9 -29.5 t-24 -17.5l-1358 -501l1358 -502q33 -14 33 -47q0 -20 -15 -36t-36 -16q-13 0 -17 5l-1484 548q-33 12 -33 48z" />
<glyph unicode="8" horiz-adv-x="674" d="M59 1028q0 48 37.5 82.5t87.5 34.5q41 0 70 -23t43 -63l274 -922q2 -4 2 -6q0 -16 -12 -22l-67 -25q-5 -2 -9 -2q-17 0 -20 12l-393 879q-13 39 -13 55z" />
<glyph unicode="9" horiz-adv-x="1133" d="M188 512q0 42 48 49h663q47 -7 47 -49q0 -44 -47 -51h-663q-19 3 -33.5 16.5t-14.5 34.5z" />
<glyph unicode=":" d="M88 -166q0 51 36 87t87 36q49 0 85 -36t36 -87q0 -49 -36 -85t-85 -36q-51 0 -87 36t-36 85zM160 287q0 42 47 49h1413q47 -7 47 -49q0 -44 -47 -51h-1413q-47 7 -47 51zM160 737q0 42 47 49h1413q47 -7 47 -49q0 -20 -14 -34t-33 -17h-1413q-19 3 -33 17t-14 34z M1495 1188q0 49 36 86t87 37q49 0 85 -37t36 -86t-36 -85t-85 -36q-51 0 -87 36t-36 85z" />
<glyph unicode=";" d="M88 1188q0 49 36 86t87 37q49 0 85 -37t36 -86t-36 -85t-85 -36q-51 0 -87 36t-36 85zM160 287q0 42 47 49h1413q47 -7 47 -49q0 -44 -47 -51h-1413q-47 7 -47 51zM160 737q0 42 47 49h1413q47 -7 47 -49q0 -20 -14 -34t-33 -17h-1413q-19 3 -33 17t-14 34zM1495 -166 q0 51 36 87t87 36q49 0 85 -36t36 -87q0 -49 -36 -85t-85 -36q-51 0 -87 36t-36 85z" />
<glyph unicode="&#x3c;" d="M221 53q19 143 81.5 248.5t160 177.5t218 117t259.5 72q-144 28 -262.5 72.5t-215.5 117t-160.5 178.5t-80.5 246q0 23 14 38t37 15q41 0 50 -47q24 -189 153 -306t315 -173t375 -73t394 -17q21 -3 34 -16t13 -35q0 -21 -13 -34t-34 -16q-238 0 -427.5 -20t-365.5 -78 q-195 -68 -307 -178q-40 -40 -78 -102q-27 -48 -47 -119q-4 -19 -6.5 -38t-6 -35t-8.5 -25q-12 -23 -41 -23q-23 0 -37 16t-14 37zM473 -297q23 184 128 314.5t261.5 208t333 110.5t356.5 33q22 0 38 -14t16 -38q0 -22 -13 -34.5t-34 -14.5q-159 0 -318.5 -27t-305.5 -92.5 t-244 -177t-118 -274.5q-7 -47 -49 -47q-23 0 -37 15t-14 38z" />
<glyph unicode="=" d="M221 43q0 21 12.5 34.5t34.5 16.5h1291q22 -3 34.5 -16.5t12.5 -34.5q0 -42 -47 -49h-1291q-47 7 -47 49zM221 395q0 30 27 43l1192 574l-1192 573q-27 13 -27 45q0 20 14.5 34.5t36.5 14.5q13 0 25 -6l1284 -616q10 -6 17.5 -20t7.5 -25q0 -12 -8.5 -25.5t-16.5 -17.5 l-1284 -619q-12 -6 -25 -6q-21 0 -36 15t-15 36zM221 -408q0 23 13 36t34 16h1291q21 -3 34 -16t13 -36q0 -19 -13.5 -32.5t-33.5 -16.5h-1291q-20 3 -33.5 16.5t-13.5 32.5z" />
<glyph unicode="&#x3e;" d="M221 119q0 30 27 43l1192 573l-1192 574q-27 13 -27 45q0 19 15 34t36 15q13 0 25 -6l1284 -617q10 -5 17.5 -19t7.5 -26q0 -11 -8 -25t-17 -18l-1284 -618q-12 -6 -25 -6q-21 0 -36 15t-15 36zM221 -334q0 32 27 45l1284 617q9 6 24 6q20 0 35 -15t15 -34q0 -31 -25 -45 l-1284 -617q-12 -6 -25 -6q-21 0 -36 15t-15 34z" />
<glyph unicode="?" d="M221 -39q0 29 33 47l1284 549q6 2 18 2q21 0 35.5 -14.5t14.5 -34.5q0 -32 -33 -47l-1174 -502l1182 -506q10 -4 17.5 -17.5t7.5 -25.5q0 -21 -15 -36t-35 -15q-12 0 -18 4l-1290 551q-27 10 -27 45zM221 369q0 29 33 47l1173 502l-1179 503q-27 10 -27 45q0 20 15 35 t36 15q11 0 17 -3l1292 -552q9 -4 17 -18t8 -25q0 -31 -33 -48l-1284 -548q-6 -5 -17 -5q-21 0 -36 16t-15 36z" />
<glyph unicode="@" d="M221 -109v1242q6 41 47 47h1293q19 -3 33 -17t14 -33q0 -20 -14 -34t-33 -17h-1239v-1134h1239q20 -3 33.5 -16.5t13.5 -34.5q0 -19 -14 -33t-33 -17h-1293q-41 6 -47 47z" />
<glyph unicode="A" d="M172 -106q0 22 13 35t34 16h1337v1134h-1337q-20 3 -33.5 16.5t-13.5 34.5q0 20 13.5 33.5t33.5 16.5h1391q41 -7 47 -47v-1242q-6 -40 -47 -47h-1391q-20 3 -33.5 16.5t-13.5 33.5z" />
<glyph unicode="B" d="M221 -109v1242q3 20 16.5 33.5t34.5 13.5q13 0 25 -6l1284 -617q27 -13 27 -45q0 -33 -27 -43l-1284 -619q-12 -6 -25 -6q-21 0 -34.5 13.5t-16.5 33.5zM322 -25l1118 537l-1118 537v-1074z" />
<glyph unicode="C" d="M223 512q0 33 25 45l1284 617q9 6 24 6q20 0 33.5 -13.5t16.5 -33.5v-1242q-3 -20 -16.5 -33.5t-33.5 -13.5q-15 0 -24 6l-1284 619q-12 5 -18.5 17.5t-6.5 25.5zM389 512l1116 -537v1074z" />
<glyph unicode="D" d="M221 115v1241q3 20 16.5 33.5t34.5 13.5q13 0 25 -6l1284 -617q27 -13 27 -45q0 -33 -27 -43l-1284 -618q-12 -6 -25 -6q-20 0 -34 14t-17 33zM221 -334q0 21 12.5 34.5t34.5 16.5h1293q47 -8 47 -51q0 -18 -14 -32t-33 -17h-1293q-20 3 -33.5 16.5t-13.5 32.5zM322 199 l1118 536l-1118 537v-1073z" />
<glyph unicode="E" d="M223 -334q0 21 12.5 34.5t34.5 16.5h1289q22 -3 34.5 -16.5t12.5 -34.5q0 -19 -13.5 -32.5t-33.5 -16.5h-1289q-20 3 -33.5 16.5t-13.5 32.5zM223 735q0 33 25 45l1284 617q9 6 24 6q20 0 33.5 -13.5t16.5 -33.5v-1241q-7 -47 -50 -47q-15 0 -24 6l-1284 618 q-12 5 -18.5 17.5t-6.5 25.5zM389 735l1116 -536v1073z" />
<glyph unicode="F" horiz-adv-x="2011" d="M139 784q0 22 27 29h620l193 592q6 16 27 16q16 0 26 -16l193 -592h620q27 -6 27 -29q0 -15 -12 -24l-500 -363l190 -585q2 -11 2 -13q0 -12 -8 -20t-20 -8q-11 0 -17 6l-501 362l-502 -362q-6 -6 -17 -6q-12 0 -20 8t-8 20q0 2 2 13l190 585l-499 363q-13 9 -13 24z" />
<glyph unicode="G" horiz-adv-x="1198" d="M197 512q0 105 23.5 209.5t69.5 206.5t106.5 188t140.5 166q-60 55 -126 101t-135 79q-20 9 -20 35q0 16 10.5 27.5t28.5 11.5q6 0 18 -4q159 -82 285 -193q27 23 91 71t126.5 87t85.5 39q17 0 28 -11.5t11 -27.5q0 -26 -20 -35q-72 -35 -139 -82t-122 -98 q159 -154 249.5 -354.5t90.5 -415.5q0 -110 -24 -215.5t-68 -202t-105.5 -184t-142.5 -168.5q55 -51 122 -97t139 -83q20 -9 20 -35q0 -16 -11.5 -27.5t-27.5 -11.5q-6 0 -18 4q-159 82 -285 193q-56 -48 -164 -122.5t-139 -74.5q-16 0 -27.5 11.5t-11.5 27.5q0 26 20 35 q68 34 134.5 79.5t126.5 100.5q-81 83 -141.5 168.5t-106 186.5t-69 206.5t-23.5 208.5zM313 512q0 -96 19.5 -191.5t57 -187.5t89 -173.5t119.5 -156.5q136 148 210.5 331.5t74.5 377.5t-75 379t-210 330q-67 -73 -119 -155t-89.5 -174.5t-57 -187.5t-19.5 -192z" />
<glyph unicode="H" horiz-adv-x="1579" d="M221 1139q0 20 14 34t33 17h1043q20 -3 33.5 -16.5t13.5 -34.5q0 -7 -4 -19l-516 -1138q-23 -33 -47 -33q-29 0 -48 33l-518 1138q-4 12 -4 19z" />
<glyph unicode="I" d="M221 -109v1242q3 20 16.5 33.5t34.5 13.5q13 0 25 -6l1284 -617q27 -13 27 -45q0 -33 -27 -43l-1284 -619q-12 -6 -25 -6q-21 0 -34.5 13.5t-16.5 33.5z" />
<glyph unicode="J" d="M223 512q0 33 25 45l1284 617q9 6 24 6q20 0 33.5 -13.5t16.5 -33.5v-1242q-3 -20 -16.5 -33.5t-33.5 -13.5q-15 0 -24 6l-1284 619q-12 5 -18.5 17.5t-6.5 25.5z" />
<glyph unicode="K" horiz-adv-x="1133" d="M125 508q0 28 17 45t44 20h414q-21 22 -67 84t-76.5 114t-30.5 81q0 43 47 51h88q28 0 39 -22q32 -58 46.5 -84.5t33.5 -53.5t53 -61q83 -80 189 -127q10 -4 17 -16.5t7 -26.5q0 -16 -7 -28.5t-17 -16.5q-109 -47 -189 -127q-35 -37 -56 -66t-41.5 -67.5t-35.5 -65.5 q-11 -22 -39 -22h-88q-47 8 -47 51q0 39 63 133t111 146h-418q-51 6 -57 59z" />
<glyph unicode="L" horiz-adv-x="1133" d="M139 512q0 13 6.5 25.5t18.5 17.5q105 47 188 127q26 27 45 52t29 42t25 45t32 60q5 10 16.5 16t22.5 6h88q47 -7 47 -51q0 -29 -30.5 -81t-76.5 -114t-67 -84h418q51 -6 57 -59q0 -58 -59 -65h-416q21 -22 67 -84t76.5 -114t30.5 -81q0 -44 -47 -51h-88q-28 0 -39 22 q-23 44 -41 78t-40 63.5t-52 59.5q-81 78 -186 125q-25 9 -25 45z" />
<glyph unicode="M" horiz-adv-x="1579" d="M221 0q0 6 4 18l518 1139q19 33 48 33q24 0 47 -33l516 -1139q4 -12 4 -18q0 -43 -47 -51h-1043q-47 8 -47 51zM350 51h879l-438 965z" />
<glyph unicode="N" horiz-adv-x="1579" d="M221 0q0 6 4 18l518 1139q19 33 48 33q24 0 47 -33l516 -1139q4 -12 4 -18q0 -43 -47 -51h-1043q-47 8 -47 51z" />
<glyph unicode="O" horiz-adv-x="1579" d="M221 1139q0 20 14 34t33 17h1043q20 -3 33.5 -16.5t13.5 -34.5q0 -7 -4 -19l-516 -1138q-23 -33 -47 -33q-29 0 -48 33l-518 1138q-4 12 -4 19zM350 1090l441 -967l438 967h-879z" />
<glyph unicode="P" d="M160 287q0 42 47 49h522q-70 73 -70 176q0 101 70 174h-522q-19 3 -33 17t-14 34q0 42 47 49h1413q47 -7 47 -49q0 -20 -14 -34t-33 -17h-522q34 -34 51.5 -80t17.5 -94q0 -50 -17 -95t-52 -81h522q47 -7 47 -49q0 -44 -47 -51h-1413q-47 7 -47 51zM717 512 q0 -55 28.5 -102t77.5 -74h181q48 25 77 73t29 103q0 52 -30 101.5t-76 72.5h-181q-33 -17 -56 -44t-36.5 -62t-13.5 -68z" />
<glyph unicode="Q" d="M221 59q0 20 15 35t36 15q11 0 17 -3l1235 -485q32 -14 32 -47t-32 -47l-1237 -485q-6 -3 -15 -3q-21 0 -36 15t-15 35q0 38 33 47l1114 438l-1114 438q-33 9 -33 47zM221 510q0 42 47 49h1241q20 -3 33.5 -15.5t13.5 -33.5q0 -43 -47 -51h-1241q-20 3 -33.5 16.5 t-13.5 34.5zM221 1444q0 34 33 47l1237 485q4 2 14 2q20 0 35.5 -14.5t15.5 -34.5q0 -16 -9 -29t-23 -18l-1114 -438l1114 -436q32 -16 32 -47q0 -20 -16 -36t-35 -16q-12 0 -16 4l-1235 484q-33 13 -33 47z" />
<glyph unicode="R" d="M221 -426q0 34 33 47l1237 485q4 3 14 3q19 0 35 -15t16 -35q0 -16 -9 -29t-23 -18l-1114 -438l1114 -436q32 -14 32 -47q0 -20 -16 -36t-35 -16q-12 0 -16 5l-1235 483q-33 13 -33 47zM221 510q0 42 47 49h1241q20 -3 33.5 -15.5t13.5 -33.5q0 -43 -47 -51h-1241 q-20 3 -33.5 16.5t-13.5 34.5zM221 961q0 36 33 47l1114 438l-1114 438q-33 9 -33 47q0 20 14.5 34.5t36.5 14.5q11 0 17 -2l1235 -485q32 -14 32 -47t-32 -47l-1237 -486q-6 -2 -15 -2q-21 0 -36 15t-15 35z" />
<glyph unicode="S" d="M221 -115q0 20 14.5 34.5t36.5 14.5q11 0 17 -2l1284 -485q33 -10 33 -47q0 -34 -33 -47l-1286 -486q-6 0 -8.5 -0.5t-6.5 -1.5q-22 0 -36.5 16.5t-14.5 35.5q0 34 33 47l1159 436l-1159 438q-33 13 -33 47zM221 334q0 22 13 35t34 16h1291q21 -3 34 -16t13 -35 q0 -42 -47 -49h-1291q-47 7 -47 49zM221 786q0 23 13 36t34 16h1291q21 -3 34 -16t13 -36q0 -19 -13.5 -32.5t-33.5 -16.5h-1291q-20 3 -33.5 16.5t-13.5 32.5zM221 1722q0 34 33 47l1288 486q3 1 6 1.5t8 0.5q21 0 35.5 -15.5t14.5 -35.5q0 -34 -33 -47l-1159 -437 l1159 -438q14 -6 23.5 -18.5t9.5 -28.5q0 -20 -15.5 -34.5t-34.5 -14.5q-12 0 -18 2l-1284 485q-33 9 -33 47z" />
<glyph unicode="T" d="M221 336q0 21 12.5 34.5t34.5 16.5h1291q22 -3 34.5 -16.5t12.5 -34.5q0 -42 -47 -49h-1291q-47 7 -47 49zM221 -600q0 34 33 47l1288 485q3 1 6 1.5t8 0.5q20 0 35 -16t15 -35q0 -16 -9.5 -28.5t-23.5 -18.5l-1159 -436l1159 -438q33 -15 33 -47q0 -20 -15 -35t-35 -15 q-12 0 -18 2l-1284 486q-33 9 -33 47zM221 786q0 23 13 36t34 16h1291q21 -3 34 -16t13 -36q0 -19 -13.5 -32.5t-33.5 -16.5h-1291q-20 3 -33.5 16.5t-13.5 32.5zM221 1237q0 34 33 47l1159 436l-1159 439q-33 13 -33 47q0 19 15 34t36 15q11 0 17 -2l1284 -486 q33 -10 33 -47q0 -16 -9.5 -28.5t-23.5 -18.5l-1286 -485q-6 0 -8.5 -0.5t-6.5 -1.5q-21 0 -36 16t-15 35z" />
<glyph unicode="U" horiz-adv-x="1759" d="M66 1317v82q44 0 134 -4t136 -4q55 0 161 4t158 4v-82q-131 0 -131 -41q0 -10 6 -21l218 -309h395l178 254q16 22 16 49q0 36 -30 52t-72 16v82q42 0 126 -4t126 -4q35 0 103 4t102 4v-82q-189 0 -271 -117l-178 -254h324q10 0 20 -10t10 -21v-12q0 -11 -10 -21t-20 -10 h-375l-219 -313v-63h594q6 0 13 -5t12 -12t5 -14v-12q0 -11 -10 -21t-20 -10h-594v-279q0 -61 213 -61v-82q-52 0 -154 4t-153 4t-154 -4t-154 -4v82q211 0 211 61v279h-592q-9 0 -19.5 10.5t-10.5 20.5v12q0 10 10.5 20.5t19.5 10.5h592v63l-217 313h-375q-9 0 -19.5 10.5 t-10.5 20.5v12q0 10 10.5 20.5t19.5 10.5h324l-217 309q-34 42 -90.5 52t-140.5 10zM799 872l145 -210l148 210h-293z" />
<glyph unicode="V" horiz-adv-x="2331" d="M160 61q0 41 47 50h1306q47 62 106 125.5t121 117.5t138 107h-1669q-22 0 -35.5 14.5t-13.5 36.5q0 21 13 35t36 14h1669q-76 53 -138 107t-121 117.5t-106 125.5h-1306q-47 7 -47 52q0 42 47 49h1239q-47 75 -81 146t-62 145h122q64 -171 165.5 -320t236.5 -269 t295 -202q-163 -85 -296.5 -204.5t-235 -268.5t-165.5 -320h-122q25 69 60.5 142.5t82.5 148.5h-1239q-19 3 -33 17t-14 34z" />
<glyph unicode="W" horiz-adv-x="2331" d="M211 512q157 82 292 201.5t236.5 269t165.5 320.5h123q-61 -162 -143 -291h1239q20 -3 33.5 -16.5t13.5 -32.5q0 -45 -47 -52h-1307q-156 -206 -364 -350h1669q20 0 34.5 -14.5t14.5 -34.5q0 -21 -15 -36t-34 -15h-1669q76 -53 138 -107t118.5 -114.5t107.5 -128.5h1307 q47 -9 47 -50q0 -21 -13.5 -34.5t-33.5 -16.5h-1239q82 -129 143 -291h-123q-64 171 -165.5 320.5t-235 268.5t-293.5 204z" />
<glyph unicode="X" horiz-adv-x="1954" d="M221 457v14q10 26 39.5 50.5t67.5 40.5t65 16q17 0 21 -7l227 -342q40 108 83.5 199t96.5 182t116.5 179t133.5 167q47 54 128 133.5t166 151.5t171.5 130t140.5 73q18 4 29 4q6 0 15.5 -3.5t9.5 -10.5v-13q-12 -31 -58 -63q-178 -120 -327 -262.5t-264 -307t-194 -348 t-128 -399.5q-15 -40 -71.5 -74.5t-98.5 -34.5q-18 0 -23 9z" />
<glyph unicode="Y" horiz-adv-x="1450" d="M160 51q0 42 47 49h1034q47 -7 47 -49q0 -20 -14 -34t-33 -17h-1034q-19 3 -33 17t-14 34zM160 1413q0 20 14.5 34.5t36.5 14.5q28 0 41 -22l473 -838l471 838q13 22 43 22q21 0 35 -14t14 -35q0 -11 -8 -29l-512 -911q-13 -22 -43 -22q-32 0 -41 22l-520 922 q-4 12 -4 18z" />
<glyph unicode="Z" horiz-adv-x="1450" d="M160 51q0 11 8 27l516 911q9 23 41 23q31 0 43 -23l518 -919q1 -5 1.5 -9t0.5 -10q0 -22 -14.5 -36.5t-34.5 -14.5q-31 0 -43 23l-471 837l-473 -837q-12 -23 -41 -23q-21 0 -36 15t-15 36zM160 1413q0 42 47 49h1034q47 -7 47 -49q0 -44 -47 -51h-1034q-47 7 -47 51z " />
<glyph unicode="[" horiz-adv-x="1450" d="M160 -176q0 10 8 26l516 912q9 22 41 22q30 0 43 -22l518 -920q1 -5 1.5 -8.5t0.5 -9.5q0 -22 -14.5 -36.5t-34.5 -14.5q-30 0 -43 22l-471 838l-473 -838q-13 -22 -41 -22q-21 0 -36 15t-15 36zM160 1188q0 42 47 49h1034q47 -7 47 -49q0 -44 -47 -51h-1034 q-47 7 -47 51zM160 1638q0 41 47 50h1034q47 -9 47 -50q0 -20 -14 -34t-33 -17h-1034q-19 3 -33 17t-14 34z" />
<glyph unicode="\" horiz-adv-x="1702" d="M160 51q0 19 12 31l1286 1329q13 10 33 10q21 0 35 -14t14 -35q0 -18 -10 -33l-1202 -1239h1165q47 -7 47 -49q0 -20 -14 -34t-33 -17h-1286q-19 3 -33 17t-14 34z" />
<glyph unicode="]" horiz-adv-x="1702" d="M160 51q0 19 12 31l1280 1372q19 19 39 19q21 0 35 -15t14 -37q0 -17 -10 -30l-719 -770q91 -113 144.5 -246t66.5 -275h471q47 -7 47 -49q0 -20 -14 -34t-33 -17h-465q0 -21 -15 -36t-36 -15q-42 0 -49 51h-721q-19 3 -33 17t-14 34zM326 100h596q-5 54 -21 115.5 t-38 117.5t-53 110.5t-69 103.5z" />
<glyph unicode="^" horiz-adv-x="1702" d="M160 512q0 30 26 43l1280 575q10 7 25 7q20 0 34.5 -14.5t14.5 -35.5q0 -30 -24 -45l-265 -116q80 -194 80 -414q0 -222 -80 -416l265 -116q24 -15 24 -46q0 -20 -14.5 -34.5t-34.5 -14.5q-12 0 -18 2l-1287 580q-26 13 -26 45zM332 512l827 -373q72 182 72 371 q0 191 -72 373z" />
<glyph unicode="_" d="M160 512q0 135 67.5 250.5t183.5 183.5t251 68q102 0 200.5 -43.5t171 -121.5t107.5 -179q33 100 104 177.5t168 122t201 44.5q21 0 37 -14t16 -35q0 -43 -47 -52q-82 0 -156 -30.5t-130 -86t-88 -130t-32 -154.5q0 -111 55 -203.5t149 -146t202 -53.5q47 -9 47 -52 q0 -21 -16 -35t-37 -14q-104 0 -201 44.5t-168 122t-104 177.5q-35 -101 -107.5 -179t-171 -121.5t-200.5 -43.5q-101 0 -192.5 39t-161.5 108.5t-109 162t-39 194.5zM260 512q0 -108 54.5 -201t147 -147.5t200.5 -54.5t201 54.5t147.5 147.5t54.5 201q0 107 -54.5 199.5 t-147.5 147t-201 54.5t-200.5 -54.5t-147 -147t-54.5 -199.5z" />
<glyph unicode="`" d="M160 731q0 19 15 35t36 16q26 0 41 -22q67 -115 171.5 -198t230 -127t259.5 -44q97 0 194 24t185 72.5t160.5 118t122.5 154.5q6 9 18 15.5t25 6.5q20 0 34.5 -15.5t14.5 -35.5q0 -6 -0.5 -9.5t-1.5 -8.5q-55 -98 -137 -177t-182.5 -134t-212 -83t-220.5 -28 q-229 0 -434 112.5t-315 309.5q-4 12 -4 18z" />
<glyph unicode="a" d="M160 291q0 6 4 18q117 218 313 345.5t436 127.5q160 0 302.5 -58.5t257 -165t192.5 -249.5q1 -4 1.5 -8t0.5 -10q0 -21 -15 -35t-34 -14q-32 0 -43 22q-49 91 -120.5 169.5t-155 133t-182.5 85t-204 30.5q-104 0 -202 -30.5t-183.5 -86.5t-154 -131t-121.5 -170 q-11 -22 -41 -22q-20 0 -35.5 14.5t-15.5 34.5z" />
<glyph unicode="b" d="M221 512q0 139 55 261.5t150.5 213t220 142t262.5 51.5h650q20 -3 33.5 -16.5t13.5 -33.5q0 -21 -13.5 -34.5t-33.5 -16.5h-644q-117 0 -224.5 -42.5t-190 -119t-130.5 -182t-48 -223.5q0 -119 47 -223t132.5 -183t192 -121t224.5 -42h641q21 -3 34 -16t13 -36 q0 -19 -13.5 -32.5t-33.5 -16.5h-648q-183 0 -342 89t-253.5 243t-94.5 338zM571 512q0 64 24.5 120.5t70.5 102.5t103 70t120 24h14q4 -2 15 -2h641q47 -7 47 -49q0 -21 -13.5 -34.5t-33.5 -16.5h-648q-8 0 -10 2h-12q-57 0 -107.5 -29.5t-80 -80t-29.5 -107.5 q0 -44 18 -84.5t47.5 -70t69 -47t82.5 -17.5q8 0 12 2h10h648q20 -3 33.5 -16.5t13.5 -32.5q0 -21 -13.5 -34.5t-33.5 -16.5h-641h-15q-4 -2 -14 -2q-129 0 -223.5 94.5t-94.5 224.5z" />
<glyph unicode="c" d="M221 -109q0 23 13 36t34 16h643q118 0 225.5 42.5t190.5 119.5t130.5 181.5t47.5 225.5q0 120 -47.5 224.5t-129 180.5t-190 119t-227.5 43h-643q-20 3 -33.5 16.5t-13.5 34.5q0 20 13.5 33.5t33.5 16.5h650q138 0 262 -50.5t221 -143t151 -214t54 -260.5 q0 -184 -94.5 -338t-253 -243t-340.5 -89h-650q-20 3 -33.5 16.5t-13.5 32.5zM221 246q0 19 13.5 32.5t33.5 16.5h650h10q2 -2 10 -2q57 0 107.5 30.5t80 80.5t29.5 108q0 57 -29.5 107.5t-79.5 80t-108 29.5h-10q-4 -2 -10 -2h-650q-20 3 -33.5 16.5t-13.5 34.5q0 42 47 49 h641q11 0 15 2h14q63 0 120 -24t103 -70t70 -103t24 -120q0 -131 -94 -225t-223 -94q-10 0 -14 2h-15h-641q-20 3 -33.5 16.5t-13.5 34.5z" />
<glyph unicode="d" horiz-adv-x="1575" d="M160 397v787q3 20 16.5 33.5t34.5 13.5q42 0 49 -47v-781q0 -174 168 -259t360 -85q81 0 172.5 18.5t173.5 59.5t131.5 108t49.5 158v781q3 20 16.5 33.5t34.5 13.5q42 0 49 -47v-787q0 -112 -57.5 -197t-152 -138t-204.5 -78t-213 -25q-101 0 -212 25t-205.5 78 t-152.5 137.5t-58 197.5zM510 522v662q3 20 16.5 33.5t34.5 13.5q42 0 49 -47v-656q0 -59 56.5 -88.5t121.5 -29.5q64 0 120.5 29.5t56.5 88.5v656q3 20 16.5 33.5t34.5 13.5q19 0 32.5 -13.5t16.5 -33.5v-662q0 -67 -41.5 -115.5t-107 -73t-128.5 -24.5q-64 0 -129.5 24.5 t-107 73t-41.5 115.5z" />
<glyph unicode="e" horiz-adv-x="1575" d="M160 6v787q0 148 97 247t241 145t290 46q145 0 289 -46t241 -145t97 -247v-787q-7 -47 -49 -47q-21 0 -34.5 13.5t-16.5 33.5v780q0 91 -49.5 158t-131 108.5t-171 59.5t-175.5 18q-119 0 -240.5 -34.5t-204.5 -112t-83 -197.5v-780q-7 -47 -49 -47q-21 0 -34.5 13.5 t-16.5 33.5zM510 6v662q0 67 41.5 115.5t107 73t129.5 24.5q63 0 128.5 -24.5t107 -73t41.5 -115.5v-662q-3 -20 -16.5 -33.5t-32.5 -13.5q-21 0 -34.5 13.5t-16.5 33.5v656q0 41 -27.5 67.5t-68 38.5t-81.5 12q-68 0 -123 -28.5t-55 -89.5v-656q-7 -47 -49 -47 q-21 0 -34.5 13.5t-16.5 33.5z" />
<glyph unicode="f" horiz-adv-x="1802" d="M221 10q0 16 12 30t29 19q176 23 294.5 131.5t182.5 267t88.5 330t24.5 345.5q3 20 16.5 33.5t34.5 13.5q42 0 49 -47q0 -172 24.5 -343.5t90 -333t180 -269t287.5 -128.5q20 -3 33.5 -15.5t13.5 -33.5q0 -23 -16 -37t-37 -14q-178 21 -304.5 117.5t-203 242 t-119.5 330.5q-31 -137 -80.5 -253t-124.5 -208t-180.5 -152t-241.5 -77q-21 0 -37 14t-16 37z" />
<glyph unicode="g" horiz-adv-x="1802" d="M221 1130q0 22 16 36t37 14q134 -16 242 -78t182.5 -155.5t123.5 -208.5t79 -249q43 185 119 330t202.5 241.5t305.5 119.5q21 0 37 -14t16 -36q0 -18 -11.5 -32t-29.5 -17q-173 -21 -291 -129t-183 -269t-89.5 -331t-24.5 -346q-7 -47 -49 -47q-21 0 -34.5 13.5 t-16.5 33.5q0 172 -24.5 344t-88.5 331t-181 268.5t-290 129.5q-18 3 -32.5 17.5t-14.5 33.5z" />
<glyph unicode="h" d="M160 10q0 21 10 31l672 649l-664 643q-18 15 -18 39q0 19 14 34t35 15q18 0 33 -10l1407 -1362q18 -18 18 -39q0 -22 -14.5 -36.5t-34.5 -14.5t-33 10l-672 652l-671 -652q-15 -10 -33 -10q-20 0 -34.5 15.5t-14.5 35.5z" />
<glyph unicode="i" d="M160 10q0 21 18 39l1407 1362q13 10 33 10q21 0 35 -14t14 -35q0 -24 -18 -39l-664 -643l672 -649q10 -10 10 -31q0 -22 -14.5 -36.5t-34.5 -14.5t-33 10l-672 652l-671 -652q-15 -10 -33 -10q-20 0 -34.5 15.5t-14.5 35.5z" />
<glyph unicode="j" d="M221 -57q0 22 13 35t34 16h1291q21 -3 34 -16t13 -35q0 -42 -47 -49h-1291q-47 7 -47 49zM221 -508q0 21 12.5 34.5t34.5 16.5h1291q22 -3 34.5 -16.5t12.5 -34.5q0 -42 -47 -49h-1291q-47 7 -47 49zM221 1012q0 182 94.5 335.5t253.5 242.5t342 89h648q47 -7 47 -49 q0 -21 -13.5 -34.5t-33.5 -16.5h-641q-156 0 -294 -74.5t-220 -204.5t-82 -288q0 -157 82 -288t220 -205.5t294 -74.5h641q47 -7 47 -49q0 -21 -13.5 -34.5t-33.5 -16.5h-648q-137 0 -262 51t-221.5 143t-151.5 214t-55 260z" />
<glyph unicode="k" d="M221 -57q0 22 13 35t34 16h1291q21 -3 34 -16t13 -35q0 -42 -47 -49h-1291q-47 7 -47 49zM221 395q0 42 47 49h641q157 0 294.5 75t219.5 206t82 287q0 158 -82 288t-219 204.5t-293 74.5h-643q-20 3 -33.5 16.5t-13.5 34.5q0 42 47 49h650q182 0 340.5 -89t253 -242.5 t94.5 -335.5q0 -138 -53.5 -259t-150 -213.5t-223 -144t-264.5 -51.5h-647q-20 3 -33.5 16.5t-13.5 34.5zM221 -508q0 21 12.5 34.5t34.5 16.5h1291q22 -3 34.5 -16.5t12.5 -34.5q0 -42 -47 -49h-1291q-47 7 -47 49z" />
<glyph unicode="l" d="M160 287q0 42 47 49h1413q47 -7 47 -49q0 -44 -47 -51h-1413q-47 7 -47 51zM160 737q0 42 47 49h379q0 43 30.5 97.5t65.5 91.5q45 45 105 68.5t124 23.5q128 0 217 -78t113 -203h379q47 -7 47 -49q0 -20 -14 -34t-33 -17h-428q-41 6 -47 47q0 63 -31 117t-84.5 85.5 t-116.5 31.5t-116 -31.5t-84 -85.5t-31 -117q-6 -41 -47 -47h-428q-19 3 -33 17t-14 34z" />
<glyph unicode="m" d="M160 287q0 42 47 49h428q41 -6 47 -47q0 -63 31 -117t84 -85.5t116 -31.5t116.5 31.5t84.5 85.5t31 117q6 41 47 47h428q47 -7 47 -49q0 -44 -47 -51h-379q-10 -79 -57.5 -142.5t-119 -101t-151.5 -37.5q-79 0 -150.5 37.5t-119 101t-57.5 142.5h-379q-47 7 -47 51z M160 737q0 42 47 49h379q0 43 30.5 97.5t65.5 91.5q45 45 105 68.5t124 23.5q128 0 217 -78t113 -203h379q47 -7 47 -49q0 -20 -14 -34t-33 -17h-428q-41 6 -47 47q0 63 -31 117t-84.5 85.5t-116.5 31.5t-116 -31.5t-84 -85.5t-31 -117q-6 -41 -47 -47h-428q-19 3 -33 17 t-14 34z" />
<glyph unicode="n" horiz-adv-x="3086" d="M160 512q0 30 26 43l1221 680q9 6 25 6q20 0 34.5 -14.5t14.5 -34.5q0 -31 -25 -45l-1143 -635l1143 -637q25 -14 25 -45q0 -20 -15.5 -34.5t-33.5 -14.5q-16 0 -25 6l-1221 680q-26 13 -26 45zM883 512q0 30 26 43l1221 680q9 6 24 6q21 0 35.5 -14.5t14.5 -34.5 q0 -31 -25 -45l-1143 -635l1143 -637q25 -14 25 -45q0 -20 -15.5 -34.5t-34.5 -14.5q-15 0 -24 6l-1221 680q-26 13 -26 45zM1606 512q0 30 26 43l1221 680q9 6 24 6q21 0 35.5 -14.5t14.5 -34.5q0 -31 -25 -45l-1143 -635l1143 -637q25 -14 25 -45q0 -20 -15.5 -34.5 t-34.5 -14.5q-15 0 -24 6l-1221 680q-26 13 -26 45z" />
<glyph unicode="o" horiz-adv-x="3086" d="M160 -170q0 32 26 45l1188 637l-1188 635q-26 13 -26 45q0 20 14.5 34.5t36.5 14.5q11 0 25 -6l1269 -680q27 -13 27 -43q0 -32 -27 -45l-1269 -680q-13 -6 -25 -6q-20 0 -35.5 14.5t-15.5 34.5zM858 -170q0 32 27 45l1188 637l-1188 635q-27 13 -27 45q0 20 14.5 34.5 t36.5 14.5q13 0 25 -6l1270 -680q13 -6 19.5 -17.5t6.5 -25.5q0 -32 -26 -45l-1270 -680q-12 -6 -25 -6q-20 0 -35.5 14.5t-15.5 34.5zM1554 -170q0 31 27 45l1188 637l-1188 635q-27 13 -27 45q0 20 15.5 34.5t36.5 14.5q12 0 24 -6l1270 -680q27 -13 27 -43q0 -31 -27 -45 l-1270 -680q-12 -6 -24 -6q-19 0 -35.5 14.5t-16.5 34.5z" />
<glyph unicode="p" horiz-adv-x="1198" d="M160 590v784q3 40 47 47h782q47 -7 47 -49q0 -44 -47 -51h-729v-731q-3 -20 -17.5 -33.5t-33.5 -13.5t-33.5 14t-15.5 33z" />
<glyph unicode="q" horiz-adv-x="1198" d="M160 1372q0 42 47 49h782q44 -7 47 -47v-784q-2 -21 -16 -34t-33 -13t-33.5 13.5t-17.5 33.5v731h-729q-47 7 -47 51z" />
<glyph unicode="r" horiz-adv-x="2028" d="M123 502q0 180 70 343.5t193.5 287t285.5 192t342 68.5t342 -69t286 -193.5t192.5 -286.5t68.5 -342q0 -179 -68.5 -341t-193 -286.5t-286 -193t-341.5 -68.5t-341.5 68.5t-285.5 191.5t-194 286.5t-70 342.5zM223 502q0 -213 107 -394.5t288.5 -288t395.5 -106.5 q212 0 393.5 106.5t288 288.5t106.5 394q0 160 -61.5 305.5t-170 254t-253 169.5t-303.5 61q-214 0 -395.5 -106.5t-288.5 -288t-107 -395.5zM475 0v70q68 0 102.5 12t34.5 61v680q0 50 -34.5 62t-102.5 12v70h492q65 0 140 -15t142.5 -45t112.5 -81t45 -119q0 -82 -73 -141 t-169 -89q53 -23 94 -64.5t56 -97.5l31 -131q18 -70 37.5 -108.5t66.5 -38.5q40 0 63 33.5t23 74.5q6 22 27 27h26q25 -9 25 -33q0 -67 -48 -117.5t-114 -50.5q-121 0 -207 48t-86 159v121q0 48 -29 82.5t-74.5 52t-92.5 17.5h-201v-308q0 -49 34.5 -61t102.5 -12v-70 q-33 0 -104 4t-107 4t-108 -4t-105 -4zM762 516h180q83 0 142.5 13t98 55.5t38.5 122.5q0 81 -38.5 122.5t-98 54.5t-142.5 13h-111q-46 0 -57.5 -13.5t-11.5 -60.5v-307z" />
<glyph unicode="s" horiz-adv-x="1933" d="M76 502q0 180 70 343.5t193.5 287t285.5 192t342 68.5t342 -69t285 -192.5t192 -286.5t69 -343q0 -179 -69 -342t-192.5 -286.5t-285 -192t-341.5 -68.5t-341.5 68.5t-285.5 191.5t-194 286.5t-70 342.5zM176 502q0 -213 106.5 -394.5t288.5 -288t396 -106.5 q212 0 393.5 106.5t288 288.5t106.5 394q0 160 -61.5 305.5t-170 254t-253 169.5t-303.5 61q-214 0 -396 -106.5t-288.5 -288t-106.5 -395.5zM594 -6v303q0 8 8 15t14 7h33q8 0 15.5 -6.5t7.5 -15.5q0 -133 98 -194.5t242 -61.5q54 0 106 23.5t84.5 66.5t32.5 98 q0 69 -51 120t-121 65l-225 45q-62 13 -119 50t-91 92.5t-34 121.5q0 79 47.5 142t123 96.5t155.5 33.5q74 0 140.5 -20t119.5 -66l63 78q8 8 17 8h10q8 0 15 -7t7 -15v-303q0 -7 -7 -15t-15 -8h-33q-17 0 -23 23q-9 83 -47 142t-102 90.5t-145 31.5q-82 0 -153 -46.5 t-71 -125.5q0 -64 50 -109.5t118 -58.5l223 -47q67 -13 125 -54t91.5 -102t33.5 -129q0 -81 -46 -148.5t-121 -105t-158 -37.5q-197 0 -305 86l-64 -77q-7 -9 -16 -9h-11q-7 0 -14.5 7.5t-7.5 15.5z" />
<glyph unicode="t" horiz-adv-x="1575" d="M160 6v690q0 102 54.5 177t142.5 121.5t186 68.5t194 22v381q8 47 51 47q20 0 33.5 -14.5t16.5 -32.5v-381q98 0 196.5 -22t185 -67.5t141 -121t54.5 -178.5v-690q-7 -47 -49 -47q-21 0 -34.5 13.5t-16.5 33.5v684q0 79 -46.5 137t-120 92t-154 49t-156.5 15v-977 q-3 -20 -16.5 -33.5t-33.5 -13.5q-21 0 -34.5 13.5t-16.5 33.5v977q-75 0 -155 -15t-154 -49.5t-121 -92t-47 -136.5v-684q-7 -47 -49 -47q-21 0 -34.5 13.5t-16.5 33.5z" />
<glyph unicode="u" d="M160 512q0 42 47 49h657v662q3 19 17 33t34 14q19 0 33 -14t17 -33v-662h655q47 -7 47 -49q0 -44 -47 -51h-655v-662q-3 -18 -17.5 -32.5t-32.5 -14.5q-19 0 -33.5 14.5t-17.5 32.5v662h-657q-47 7 -47 51zM788 1561q0 49 38 88t89 39q55 0 87.5 -37t37.5 -90 q0 -51 -37 -88t-88 -37q-53 0 -87 35.5t-40 89.5z" />
<glyph unicode="v" d="M160 707v20q5 52 35 59q29 -7 34 -59q0 -89 38.5 -169t109 -129.5t160.5 -49.5q99 0 176 48.5t192 152.5t197 155t188 51q114 0 200.5 -69.5t131.5 -178t45 -219.5v-20q-5 -54 -35 -61q-30 7 -35 61q0 88 -38.5 168t-108.5 129t-160 49q-101 0 -178.5 -50t-192.5 -153.5 t-196 -153.5t-186 -50q-114 0 -200.5 69.5t-131.5 178.5t-45 221z" />
<glyph unicode="w" d="M160 61q0 41 47 50h1413q47 -9 47 -50q0 -20 -14 -34t-33 -17h-1413q-19 3 -33 17t-14 34zM160 932v20q5 53 35 60q29 -7 34 -60q0 -82 42.5 -151.5t114 -109.5t151.5 -40q96 0 179 46t192 133.5t194.5 134.5t187.5 47q107 0 193.5 -60t135 -157t48.5 -203v-21 q-5 -54 -35 -61q-30 7 -35 61q0 81 -42 149.5t-113.5 109t-151.5 40.5q-99 0 -179 -45t-192 -134t-197 -135t-185 -46q-81 0 -150 34.5t-120.5 95.5t-79 138t-27.5 154z" />
<glyph unicode="x" horiz-adv-x="1198" d="M160 6v785q1 19 15 33t34 14t34 -13t17 -34v-732h729q47 -7 47 -49q0 -20 -14 -34t-33 -17h-782q-44 7 -47 47z" />
<glyph unicode="y" horiz-adv-x="1198" d="M160 10q0 42 47 49h729v732q3 21 17 34t34 13t33.5 -13t15.5 -34v-785q-3 -40 -47 -47h-782q-19 3 -33 17t-14 34z" />
<glyph unicode="z" horiz-adv-x="1954" d="M225 233v955q0 8 8 16t17 8q18 -4 22 -14q99 -224 270.5 -342.5t407.5 -118.5q0 123 -30.5 225t-89.5 186.5t-146 152.5t-197 114q-14 5 -14 23q8 24 27 24h952q9 0 18 -8t9 -16q-4 -20 -15 -23q-108 -46 -194.5 -113t-146.5 -152.5t-91 -190t-31 -222.5q157 0 288.5 54 t229 157.5t160.5 249.5q7 14 23 14q27 -4 27 -24v-955q0 -7 -9.5 -15.5t-17.5 -8.5q-19 4 -23 14q-63 146 -160.5 249.5t-229 157.5t-288.5 54q0 -159 54 -289.5t156.5 -226t252.5 -160.5q15 -10 15 -24q-8 -25 -27 -25h-952q-10 0 -18.5 7.5t-8.5 17.5q4 19 14 24 q150 65 252.5 160.5t156.5 226t54 289.5q-122 0 -224.5 -30.5t-187.5 -90t-151.5 -145t-114.5 -195.5q-7 -14 -22 -14q-25 4 -25 24z" />
<glyph unicode="{" horiz-adv-x="1198" d="M160 281v1128q0 82 39 143t103.5 101t140.5 59t151 19h10q75 0 151 -19t139.5 -59t102.5 -101t39 -143v-262q-3 -40 -29 -66t-65 -30h-10q-39 4 -65.5 30.5t-30.5 65.5v252q0 49 -39.5 78t-94 41t-104.5 12q-82 0 -160 -30.5t-78 -100.5v-1108q0 -69 78 -100t160 -31 q83 0 160.5 31t77.5 100v252q4 39 30.5 65.5t65.5 30.5h10q39 -4 65 -30t29 -66v-262q0 -81 -39 -142t-103 -101.5t-139.5 -59.5t-150.5 -19h-10q-101 0 -201.5 35t-166.5 108t-66 179z" />
<glyph unicode="|" horiz-adv-x="1323" d="M160 778v10q3 39 28.5 64.5t65.5 30.5h815q39 -4 65 -30t29 -65v-10q-3 -40 -29 -66t-65 -30h-307v-1024q-5 -40 -29.5 -65.5t-64.5 -28.5h-11q-40 3 -65.5 28.5t-30.5 65.5v1024h-307q-40 5 -65.5 30.5t-28.5 65.5z" />
<glyph unicode="}" d="M160 512q0 203 101.5 377.5t275.5 276.5t376 102q155 0 291.5 -58t241 -162.5t163 -243.5t58.5 -292t-58.5 -292t-163 -243.5t-243 -163.5t-289.5 -59q-202 0 -376 102t-275.5 277t-101.5 379zM238 512q0 -137 53.5 -262t145.5 -218t215 -146.5t261 -53.5q140 0 262 53 t216 148t146 218.5t52 260.5t-52 260.5t-145.5 218t-216 147t-262.5 52.5q-138 0 -261 -52.5t-215.5 -146t-145.5 -218t-53 -261.5zM600 512q0 84 42.5 156t114.5 114.5t156 42.5t156 -42t115 -114.5t43 -156.5t-43 -156.5t-115 -114.5t-156 -42t-156 42.5t-114.5 114.5 t-42.5 156zM700 512q0 -89 63 -151t150 -62q89 0 151 62t62 151t-62 151t-151 62q-87 0 -150 -62t-63 -151z" />
<glyph unicode="~" d="M158 512q0 204 102 378t276.5 276t376.5 102q203 0 377.5 -102t276.5 -276t102 -378q0 -205 -102 -379.5t-276.5 -276.5t-377.5 -102q-202 0 -376.5 102t-276.5 276.5t-102 379.5zM236 512q0 -137 53 -261t147 -218.5t216.5 -147.5t260.5 -53q139 0 262 53t216 146 t146.5 218.5t53.5 262.5t-53.5 262t-146 218t-216 145.5t-262.5 52.5q-138 0 -260.5 -52.5t-216.5 -146.5t-147 -218t-53 -261zM496 324q0 42 34 57l310 131l-310 129q-34 15 -34 57q0 28 19 49t48 21q18 0 31 -10l285 -191l-33 320v4q0 26 20.5 43.5t46.5 17.5 q27 0 47.5 -17t20.5 -44v-4l-33 -320l285 191q12 10 31 10q29 0 48 -21t19 -49q0 -42 -35 -57l-309 -129l309 -131q35 -15 35 -57q0 -28 -19 -49t-48 -21q-18 0 -31 10l-285 189l33 -316v-6q0 -27 -20.5 -44t-47.5 -17q-26 0 -46.5 17t-20.5 44v6l33 316l-285 -189 q-12 -10 -31 -10q-29 0 -48 21t-19 49z" />
<glyph unicode="&#xa1;" d="M160 47v1454q6 41 47 47h1413q41 -6 47 -47v-1454q-6 -41 -47 -47h-1413q-41 6 -47 47zM260 100h1307v1348h-1307v-1348zM793 776q0 49 36 85t86 36q49 0 85 -36t36 -85t-36 -86t-85 -37q-50 0 -86 37t-36 86z" />
<glyph unicode="&#xa2;" d="M160 47v1454q6 41 47 47h1413q41 -6 47 -47v-1454q-6 -41 -47 -47h-1413q-41 6 -47 47zM260 100h604v625h-604v-625zM260 825h604v623h-604v-623zM965 100h602v625h-602v-625zM965 825h602v623h-602v-623z" />
<glyph unicode="&#xa3;" d="M160 47v1454q6 41 47 47h1413q41 -6 47 -47v-1454q-6 -41 -47 -47h-1413q-41 6 -47 47zM260 174l584 600l-584 600v-1200zM328 100h1171l-586 602zM328 1448l585 -602l586 602h-1171zM983 774l584 -600v1200z" />
<glyph unicode="&#xa4;" d="M160 47v1454q6 41 47 47h1413q41 -6 47 -47v-1454q-6 -41 -47 -47h-1413q-41 6 -47 47zM260 100h1307v1348h-1307v-1348z" />
<glyph unicode="&#xa5;" d="M160 47v1454q6 41 47 47h1413q41 -6 47 -47v-1454q-6 -41 -47 -47h-1413q-41 6 -47 47z" />
<glyph unicode="&#xa6;" horiz-adv-x="694" d="M160 47v320q6 41 47 47h278q41 -6 47 -47v-320q-6 -41 -47 -47h-278q-41 6 -47 47z" />
<glyph unicode="&#xa7;" horiz-adv-x="1575" d="M160 586q0 10 8 26l577 830q20 22 43 22q17 0 39 -18l580 -834q8 -16 8 -26q0 -9 -8 -29l-578 -827q-15 -23 -41 -23q-21 0 -38 19l-582 831q-8 20 -8 29zM270 586l518 -742l517 742l-517 739z" />
<glyph unicode="&#xa8;" horiz-adv-x="1575" d="M160 586q0 10 8 26l577 830q20 22 43 22q17 0 39 -18l580 -834q8 -16 8 -26q0 -9 -8 -29l-578 -827q-15 -23 -41 -23q-21 0 -38 19l-582 831q-8 20 -8 29z" />
<glyph unicode="&#xa9;" d="M160 512q0 114 35.5 225.5t100 205.5t158 167t199.5 111q-115 50 -217 151l80 23q99 -102 238 -144q79 17 157 17q17 0 29 -10.5t12 -28.5q0 -14 -10 -26.5t-24 -12.5q-44 0 -64 -2q-150 -125 -190 -311l-78 -23q31 144 114 262l-10 37q-101 -36 -183.5 -100.5 t-142 -148.5t-93 -186.5t-33.5 -205.5q0 -137 53.5 -262t145.5 -218t215 -146.5t261 -53.5q140 0 262 53t216 148t146 218.5t52 260.5q0 98 -26 188t-78 172t-122.5 145.5t-154.5 104.5q-20 10 -20 33q0 16 11.5 27.5t27.5 11.5q10 0 16 -2q130 -65 225.5 -169t147 -236 t51.5 -275q0 -153 -58.5 -292t-163 -243.5t-243 -163.5t-289.5 -59q-202 0 -376 102t-275.5 277t-101.5 379z" />
<glyph unicode="&#xaa;" d="M160 512q0 143 51.5 275t147 236t225.5 169q6 2 16 2q16 0 27.5 -10.5t11.5 -28.5q0 -23 -21 -33q-84 -41 -153.5 -104t-122 -146t-78.5 -172.5t-26 -187.5q0 -137 53.5 -262t145.5 -218t215 -146.5t261 -53.5q140 0 262 53t216 148t146 218.5t52 260.5 q0 108 -32.5 207.5t-92.5 184.5t-143 149t-184 100l-11 -37q84 -117 115 -262l-78 23q-20 93 -69 172t-121 139q-21 2 -62 2q-14 0 -25.5 12.5t-11.5 26.5q0 18 13.5 28.5t30.5 10.5q76 0 155 -17q137 41 240 144l78 -23q-101 -99 -217 -151q105 -37 199 -110.5 t158.5 -167.5t100 -203t35.5 -228q0 -153 -58.5 -292t-163 -243.5t-243 -163.5t-289.5 -59q-202 0 -376 102t-275.5 277t-101.5 379z" />
<glyph unicode="&#xad;" horiz-adv-x="2331" d="M160 287v49h1962q19 0 34 -15t15 -34q0 -21 -15 -36t-34 -15h-1737q135 -120 195 -291h-82q-51 113 -138.5 201.5t-199.5 140.5zM160 737q0 20 14.5 34.5t36.5 14.5h1735q-135 120 -195 291h82q51 -112 139.5 -201t198.5 -139v-51h-1960q-21 0 -36 15t-15 36z" />
<glyph unicode="&#xae;" horiz-adv-x="2331" d="M160 287q0 19 15 34t36 15h1960v-49q-111 -52 -199 -141t-139 -201h-82q60 171 195 291h-1735q-21 0 -36 15t-15 36zM160 686v51q111 50 198.5 138.5t139.5 201.5h82q-60 -171 -195 -291h1737q20 0 34.5 -14.5t14.5 -34.5q0 -21 -15 -36t-34 -15h-1962z" />
<glyph unicode="&#xaf;" d="M160 47v1454q6 41 47 47h1413q41 -6 47 -47v-1454q-6 -41 -47 -47h-1413q-41 6 -47 47zM260 100h1307v625h-1307v-625zM260 825h1307v623h-1307v-623z" />
<glyph unicode="&#xb0;" horiz-adv-x="1702" d="M160 47v1327q7 47 51 47q42 0 49 -47v-1327q-7 -47 -49 -47q-44 0 -51 47zM610 47v1327q7 47 52 47q42 0 49 -47v-612h782q47 -7 47 -49q0 -44 -47 -51h-782v-615q-7 -47 -49 -47q-45 0 -52 47z" />
<glyph unicode="&#xb1;" horiz-adv-x="2079" d="M160 47v1327q7 47 51 47q42 0 49 -47v-1327q-7 -47 -49 -47q-44 0 -51 47zM584 47v1327q7 47 51 47q42 0 49 -47v-1327q-7 -47 -49 -47q-44 0 -51 47zM1008 47v1327q7 47 51 47q42 0 49 -47v-612h764q20 -3 33.5 -16.5t13.5 -32.5q0 -21 -13.5 -34.5t-33.5 -16.5h-764 v-615q-7 -47 -49 -47q-44 0 -51 47z" />
<glyph unicode="&#xb2;" horiz-adv-x="1450" d="M160 47v1327q7 47 51 47q42 0 49 -47v-385h981q47 -7 47 -51q0 -46 -47 -49h-981v-350h981q20 -3 33.5 -16.5t13.5 -35.5q0 -21 -13.5 -34.5t-33.5 -14.5h-981v-391q-7 -47 -49 -47q-44 0 -51 47z" />
<glyph unicode="&#xb3;" horiz-adv-x="2331" d="M160 512q0 20 14.5 34.5t36.5 14.5h1331q-138 122 -209 291h82q75 -183 244 -291h301q-138 122 -209 291h82q35 -80 84 -143t112.5 -113t141.5 -84q-81 -37 -143 -86.5t-111 -112.5t-84 -143h-82q71 169 209 291h-301q-169 -108 -244 -291h-82q71 169 209 291h-1331 q-21 0 -36 15t-15 36z" />
<glyph unicode="&#xb4;" horiz-adv-x="2331" d="M160 512q75 33 139.5 83t114.5 115t84 142h82q-74 -171 -209 -291h301q168 109 243 291h82q-72 -171 -209 -291h1334q20 0 34.5 -14.5t14.5 -34.5q0 -21 -15 -36t-34 -15h-1334q137 -120 209 -291h-82q-75 182 -243 291h-301q135 -120 209 -291h-82q-49 114 -136 202.5 t-202 139.5z" />
<glyph unicode="&#xb5;" horiz-adv-x="2331" d="M160 170q75 33 140 84t115 116t83 142q-50 115 -137 202.5t-201 137.5q112 49 200.5 138.5t137.5 203.5h82q-36 -83 -90 -158t-119 -133h1751q20 0 34.5 -15t14.5 -36q0 -22 -14.5 -35.5t-34.5 -13.5h-1751q137 -125 209 -291q-73 -172 -209 -293h1751q20 0 34.5 -13.5 t14.5 -35.5q0 -21 -15 -36t-34 -15h-1751q68 -61 121.5 -135.5t87.5 -155.5h-82q-49 114 -136 203t-202 139z" />
<glyph unicode="&#xb6;" horiz-adv-x="2331" d="M160 170q0 22 14.5 35.5t36.5 13.5h1749q-138 123 -209 293q69 164 209 291h-1749q-22 0 -36.5 13.5t-14.5 35.5q0 21 14 36t37 15h1749q-140 124 -209 291h82q50 -116 138.5 -205t199.5 -137q-78 -34 -141.5 -84t-112.5 -113t-84 -143q50 -116 137.5 -204.5 t200.5 -137.5q-79 -35 -142 -84.5t-112 -113.5t-84 -144h-82q69 167 209 291h-1749q-21 0 -36 15t-15 36z" />
<glyph unicode="&#xb8;" horiz-adv-x="1954" d="M195 -12q0 11 8.5 18.5t17.5 7.5q4 0 8 -2q190 -66 320 -213v1575q7 47 51 47q42 0 49 -47v-1575q130 147 320 213h16q190 -66 320 -213v1575q7 47 51 47q42 0 49 -47v-1575q63 71 145.5 126.5t173.5 86.5q5 2 9 2q11 0 19.5 -7t8.5 -19v-35q0 -15 -20 -23 q-53 -18 -110.5 -51.5t-101 -72t-82 -85.5t-71.5 -108q-2 -10 -20 -10t-23 10q-39 73 -93 134t-121.5 107t-141.5 72q-111 -39 -205 -122t-151 -191q-4 -10 -21 -10t-22 10q-56 110 -152.5 193.5t-212.5 123.5q-18 7 -18 23v35z" />
<glyph unicode="&#xb9;" horiz-adv-x="1010" d="M455 -348v1769h51q25 -54 61 -105.5t76.5 -92t93 -77.5t109.5 -63v-82q-89 32 -161.5 81t-129.5 114v-1544q0 -20 -15.5 -34.5t-33.5 -14.5q-20 0 -35.5 14.5t-15.5 34.5z" />
<glyph unicode="&#xba;" horiz-adv-x="1010" d="M455 -397v1769q0 20 14.5 34.5t36.5 14.5q20 0 34.5 -14.5t14.5 -34.5v-1544q57 65 132 115.5t159 79.5v-82q-113 -51 -201 -138t-139 -200h-51z" />
<glyph unicode="&#xbb;" horiz-adv-x="1010" d="M164 1001v82q113 51 201 138t141 200h49v-1769q0 -20 -15.5 -34.5t-33.5 -14.5q-20 0 -35.5 14.5t-15.5 34.5v1544q-120 -135 -291 -195z" />
<glyph unicode="&#xbc;" horiz-adv-x="1010" d="M164 23q171 -60 291 -195v1544q0 20 14.5 34.5t36.5 14.5q20 0 34.5 -14.5t14.5 -34.5v-1769h-49q-51 112 -140 199.5t-202 138.5v82z" />
<glyph unicode="&#xbd;" horiz-adv-x="2583" d="M197 170q72 171 209 291v100q-137 120 -209 291h82q75 -182 243 -291h1690q-138 122 -209 291h82q35 -80 84 -143t112.5 -113t141.5 -84q-81 -37 -143 -86.5t-111 -112.5t-84 -143h-82q71 169 209 291h-1690q-168 -109 -243 -291h-82z" />
<glyph unicode="&#xbe;" horiz-adv-x="2583" d="M160 512q75 33 139.5 83t114.5 115t84 142h82q-74 -171 -209 -291h1689q169 108 244 291h82q-71 -169 -209 -291v-100q138 -122 209 -291h-82q-75 183 -244 291h-1689q135 -120 209 -291h-82q-49 114 -136 202.5t-202 139.5z" />
<glyph unicode="&#xbf;" horiz-adv-x="2331" d="M160 340q0 22 14.5 35.5t36.5 13.5h1749q-138 122 -209 291h82q35 -80 84 -143t112.5 -113t141.5 -84q-79 -35 -142 -84.5t-112 -113.5t-84 -144h-82q71 169 209 291h-1749q-21 0 -36 15t-15 36zM160 1022q75 33 139 83t114.5 116t84.5 143h82q-36 -83 -90 -158 t-119 -133h1751q20 0 34.5 -15t14.5 -36q0 -22 -14.5 -35.5t-34.5 -13.5h-1751q67 -61 121 -136.5t88 -156.5h-82q-49 114 -137.5 203.5t-200.5 138.5z" />
<glyph unicode="&#xc0;" horiz-adv-x="2331" d="M160 340q112 49 200.5 138.5t137.5 203.5h82q-36 -83 -90 -158t-119 -133h1751q20 0 34.5 -15t14.5 -36q0 -22 -14.5 -35.5t-34.5 -13.5h-1751q67 -61 121 -136.5t88 -156.5h-82q-49 114 -136 203t-202 139zM160 1024q0 22 14.5 35.5t36.5 13.5h1749q-138 122 -209 291 h82q35 -80 84 -143t112.5 -113t141.5 -84q-79 -35 -142 -84.5t-112 -113.5t-84 -144h-82q71 169 209 291h-1749q-21 0 -36 15t-15 36z" />
<glyph unicode="&#xc1;" horiz-adv-x="1198" d="M160 1137q75 33 139 83t114.5 116t84.5 143h82q-74 -171 -209 -291h616q20 0 34.5 -14.5t14.5 -36.5v-1086q0 -22 -14.5 -36.5t-34.5 -14.5q-21 0 -36 15t-15 36v1036h-565q134 -117 209 -290h-82q-33 75 -83.5 140.5t-114.5 116t-140 83.5z" />
<glyph unicode="&#xc2;" horiz-adv-x="1198" d="M160 51v1086q0 21 15 36t36 15h614q-135 120 -209 291h82q49 -113 137 -202.5t201 -139.5q-76 -33 -140 -83.5t-114.5 -116t-83.5 -140.5h-82q75 173 209 290h-565v-1036q0 -22 -14.5 -36.5t-34.5 -14.5q-21 0 -36 15t-15 36z" />
<glyph unicode="&#xc3;" horiz-adv-x="2331" d="M158 512q0 17 18 39l211 170q13 10 31 10q17 0 28 -8l394 -317l387 315q17 10 33 10q18 0 26 -8l201 -162h473q-138 122 -209 291h82q35 -80 84 -143t112.5 -113t141.5 -84q-81 -37 -143 -86.5t-111 -112.5t-84 -143h-82q71 169 209 291h-490q-19 0 -38 16l-172 139 l-390 -315q-13 -10 -30 -10q-18 0 -29 8l-393 317l-178 -143q-13 -12 -31 -12q-21 0 -36 15t-15 36z" />
<glyph unicode="&#xc4;" d="M160 512q0 203 101.5 377.5t275.5 276.5t376 102q155 0 291.5 -58t241 -162.5t163 -243.5t58.5 -292t-58.5 -292t-163 -243.5t-243 -163.5t-289.5 -59q-202 0 -376 102t-275.5 277t-101.5 379zM238 512q0 -137 53.5 -262t145.5 -218t215 -146.5t261 -53.5q140 0 262 53 t216 148t146 218.5t52 260.5t-52 260.5t-145.5 218t-216 147t-262.5 52.5q-138 0 -261 -52.5t-215.5 -146t-145.5 -218t-53 -261.5zM539 512q0 14 10 26.5t24 12.5h680q15 0 25 -11.5t10 -27.5t-10 -27.5t-25 -11.5h-680q-14 0 -24 12.5t-10 26.5z" />
<glyph unicode="&#x2000;" horiz-adv-x="1128" />
<glyph unicode="&#x2001;" horiz-adv-x="2257" />
<glyph unicode="&#x2002;" horiz-adv-x="1128" />
<glyph unicode="&#x2003;" horiz-adv-x="2257" />
<glyph unicode="&#x2004;" horiz-adv-x="752" />
<glyph unicode="&#x2005;" horiz-adv-x="564" />
<glyph unicode="&#x2006;" horiz-adv-x="376" />
<glyph unicode="&#x2007;" horiz-adv-x="376" />
<glyph unicode="&#x2008;" horiz-adv-x="282" />
<glyph unicode="&#x2009;" horiz-adv-x="451" />
<glyph unicode="&#x200a;" horiz-adv-x="125" />
<glyph unicode="&#x2010;" d="M160 -473q0 105 49 198t136 149t192 56q100 0 184 -43.5t202 -130.5t195.5 -127.5t171.5 -40.5q79 0 150 36.5t114 100t43 144.5q5 54 35 61q30 -7 35 -61v-21q0 -78 -29 -152t-78 -128t-120 -87.5t-150 -33.5q-97 0 -178 42t-197.5 127.5t-198 129t-179.5 43.5 q-78 0 -150 -36.5t-115 -102t-43 -144.5q-5 -52 -34 -59q-30 7 -35 59v21zM221 928q0 19 13.5 32.5t33.5 16.5q142 0 278.5 7.5t266.5 29.5t246 61q195 64 309 176q43 46 78 105q27 47 47 119q5 30 9.5 58.5t10.5 39.5q14 22 43 22q22 0 36 -15t14 -38q-17 -139 -80.5 -246 t-161 -180t-213.5 -116.5t-264 -73.5q144 -28 261.5 -72t216 -116t162 -178t79.5 -247q0 -21 -14 -37t-36 -16q-21 0 -34.5 13.5t-16.5 33.5q-23 190 -152.5 307t-315.5 173.5t-374 73t-395 16.5q-20 3 -33.5 16.5t-13.5 34.5z" />
<glyph unicode="&#x2011;" d="M160 -473q0 105 49 198t136 149t192 56q100 0 184 -43.5t202 -130.5t195.5 -127.5t171.5 -40.5q79 0 150 36.5t114 100t43 144.5q5 54 35 61q30 -7 35 -61v-21q0 -78 -29 -152t-78 -128t-120 -87.5t-150 -33.5q-97 0 -178 42t-197.5 127.5t-198 129t-179.5 43.5 q-78 0 -150 -36.5t-115 -102t-43 -144.5q-5 -52 -34 -59q-30 7 -35 59v21zM221 928q0 19 13.5 32.5t33.5 16.5q142 0 278.5 7.5t266.5 29.5t246 61q195 64 309 176q43 46 78 105q27 47 47 119q5 30 9.5 58.5t10.5 39.5q14 22 43 22q22 0 36 -15t14 -38q-17 -139 -80.5 -246 t-161 -180t-213.5 -116.5t-264 -73.5q144 -28 261.5 -72t216 -116t162 -178t79.5 -247q0 -21 -14 -37t-36 -16q-21 0 -34.5 13.5t-16.5 33.5q-23 190 -152.5 307t-315.5 173.5t-374 73t-395 16.5q-20 3 -33.5 16.5t-13.5 34.5z" />
<glyph unicode="&#x2012;" d="M160 -473q0 105 49 198t136 149t192 56q100 0 184 -43.5t202 -130.5t195.5 -127.5t171.5 -40.5q79 0 150 36.5t114 100t43 144.5q5 54 35 61q30 -7 35 -61v-21q0 -78 -29 -152t-78 -128t-120 -87.5t-150 -33.5q-97 0 -178 42t-197.5 127.5t-198 129t-179.5 43.5 q-78 0 -150 -36.5t-115 -102t-43 -144.5q-5 -52 -34 -59q-30 7 -35 59v21zM221 928q0 19 13.5 32.5t33.5 16.5q142 0 278.5 7.5t266.5 29.5t246 61q195 64 309 176q43 46 78 105q27 47 47 119q5 30 9.5 58.5t10.5 39.5q14 22 43 22q22 0 36 -15t14 -38q-17 -139 -80.5 -246 t-161 -180t-213.5 -116.5t-264 -73.5q144 -28 261.5 -72t216 -116t162 -178t79.5 -247q0 -21 -14 -37t-36 -16q-21 0 -34.5 13.5t-16.5 33.5q-23 190 -152.5 307t-315.5 173.5t-374 73t-395 16.5q-20 3 -33.5 16.5t-13.5 34.5z" />
<glyph unicode="&#x2013;" horiz-adv-x="1344" d="M160 -473q0 105 33.5 198t92.5 149t130 56q68 0 125 -43.5t137.5 -130.5t133 -127.5t116.5 -40.5q54 0 102 36.5t77 100t29 144.5q4 54 24 61q21 -7 24 -61v-21q0 -78 -19.5 -152t-53 -128t-81.5 -87.5t-102 -33.5q-66 0 -121 42t-134 127.5t-134.5 129t-122.5 43.5 q-53 0 -102 -36.5t-78 -102t-29 -144.5q-4 -52 -23 -59q-21 7 -24 59v21zM201 928q0 19 9.5 32.5t22.5 16.5q97 0 189.5 7.5t181 29.5t167.5 61q132 64 210 176q29 46 53 105q18 47 32 119q3 30 6 58.5t7 39.5q10 22 30 22q15 0 24.5 -15t9.5 -38q-12 -139 -55 -246 t-109.5 -180t-145 -116.5t-179.5 -73.5q98 -28 178 -72t146.5 -116t110 -178t54.5 -247q0 -21 -9.5 -37t-24.5 -16t-24 13.5t-11 33.5q-16 190 -104 307t-214 173.5t-254 73t-269 16.5q-13 3 -22.5 16.5t-9.5 34.5z" />
<glyph unicode="&#x2014;" horiz-adv-x="2368" d="M160 -473q0 105 66.5 198t185 149t260.5 56q136 0 250.5 -43.5t274.5 -130.5t265.5 -127.5t233.5 -40.5q107 0 203.5 36.5t155 100t58.5 144.5q7 54 47 61q41 -7 48 -61v-21q0 -78 -39.5 -152t-106 -128t-163 -87.5t-203.5 -33.5q-132 0 -242 42t-268.5 127.5t-269 129 t-244.5 43.5q-106 0 -203.5 -36.5t-156 -102t-58.5 -144.5q-7 -52 -46 -59q-41 7 -48 59v21zM243 928q0 19 18.5 32.5t45.5 16.5q193 0 378.5 7.5t362 29.5t334.5 61q265 64 420 176q58 46 106 105q36 47 64 119q6 30 12.5 58.5t14.5 39.5q19 22 58 22q30 0 49 -15t19 -38 q-23 -139 -109.5 -246t-219 -180t-290 -116.5t-358.5 -73.5q196 -28 355.5 -72t293.5 -116t220 -178t108 -247q0 -21 -19 -37t-49 -16q-28 0 -46.5 13.5t-22.5 33.5q-31 190 -207 307t-429 173.5t-508.5 73t-536.5 16.5q-27 3 -45.5 16.5t-18.5 34.5z" />
<glyph unicode="&#x202f;" horiz-adv-x="451" />
<glyph unicode="&#x205f;" horiz-adv-x="564" />
<glyph unicode="&#x2219;" horiz-adv-x="1954" d="M195 1036v35q0 16 18 23q119 42 213 124t152 193q5 10 22 10t21 -10q59 -111 150 -191t206 -122q116 42 207 123t149 190q5 10 23 10q17 0 20 -10q60 -112 153.5 -193t211.5 -124q20 -8 20 -23v-35q0 -10 -8.5 -18t-19.5 -8q-4 0 -9 2q-91 33 -172 86t-147 127v-1575 q-7 -47 -49 -47q-44 0 -51 47v1575q-130 -147 -320 -213h-16q-190 66 -320 213v-1575q-7 -47 -49 -47q-44 0 -51 47v1575q-130 -147 -320 -213q-4 -2 -8 -2q-9 0 -17.5 8.5t-8.5 17.5z" />
<glyph unicode="&#xe000;" horiz-adv-x="840" d="M0 840h840v-840h-840v840z" />
</font>
</defs>
</svg>
