<?xml version="1.0" standalone="no"?>
<!DOCTYPE svg PUBLIC "-//W3C//DTD SVG 1.1//EN" "http://www.w3.org/Graphics/SVG/1.1/DTD/svg11.dtd" >
<svg xmlns="http://www.w3.org/2000/svg">
<metadata>
This is a custom SVG webfont generated by Font Squirrel.
Copyright   : Copyright C 1994 1995 Basil K Malyshev All Rights Reserved012BaKoMa Fonts Collection LevelC
</metadata>
<defs>
<font id="msam6Regular" horiz-adv-x="1972" >
<font-face units-per-em="2048" ascent="1638" descent="-410" />
<missing-glyph horiz-adv-x="500" />
<glyph unicode=" "  horiz-adv-x="500" />
<glyph unicode="&#x09;" horiz-adv-x="500" />
<glyph unicode="&#xa0;" horiz-adv-x="500" />
<glyph unicode="!" horiz-adv-x="3430" d="M190 512q245 98 355 342h88q-72 -164 -213 -289h293l184 160q13 10 33 10q21 0 39 -16l354 -307l360 313q15 10 33 10q20 0 39 -16l352 -307l361 313q13 10 33 10t41 -16l176 -154h293q-67 59 -120 130t-93 159h88q53 -118 144 -206t210 -136q-117 -46 -209 -135 t-145 -207h-88q38 86 90.5 156.5t122.5 132.5h-320q-7 0 -17.5 6t-19.5 12l-153 135l-361 -313q-13 -10 -33 -10q-18 0 -39 16l-352 307l-360 -313q-17 -10 -33 -10q-22 0 -41 16l-352 307l-154 -135q-8 -6 -13 -9.5t-11 -6t-15 -2.5h-317q141 -125 213 -289h-88 q-53 119 -145.5 207.5t-209.5 134.5z" />
<glyph unicode="&#x22;" horiz-adv-x="2503" d="M190 512q245 98 355 342h88q-72 -164 -213 -289h1116q0 135 12.5 240.5t53.5 194.5t125.5 140.5t222.5 51.5q128 0 220.5 -36.5t142.5 -117.5t50 -213q0 -153 -60.5 -235t-163 -109.5t-257.5 -27.5q-29 1 -54 1.5t-65 0.5q-41 2 -121 2v-504q-3 -21 -18 -35t-35 -14 q-18 0 -34 14t-19 35v506h-1116q141 -125 213 -289h-88q-53 119 -145.5 207.5t-209.5 134.5zM1642 563q84 0 125 -2q39 0 63 -0.5t52 -1.5q129 0 205 15t123 72.5t47 178.5q0 100 -36 158t-103.5 80t-167.5 22q-107 0 -171.5 -38t-97.5 -134q-13 -39 -20 -76.5t-12 -95 t-6 -88.5t-1 -90z" />
<glyph unicode="#" horiz-adv-x="2503" d="M137 825q0 132 50 213t142.5 117.5t221.5 36.5q138 0 223.5 -52.5t125.5 -138.5t52.5 -193.5t12.5 -242.5h1116q-141 125 -213 289h88q53 -118 144 -206t210 -136q-117 -46 -209 -135t-145 -207h-88q72 164 213 289h-1116v-506q-3 -22 -18.5 -35.5t-35.5 -13.5 q-18 0 -34 14t-19 35v504q-80 0 -119 -2q-40 0 -65 -0.5t-56 -1.5q-155 0 -257.5 27.5t-163 109.5t-60.5 235zM244 825q0 -121 47 -178.5t123 -72.5t204 -15q29 1 52.5 1.5t62.5 0.5q41 2 125 2q0 119 -7.5 199t-31.5 151q-31 96 -96 134t-172 38q-101 0 -168 -22.5 t-103 -80t-36 -157.5z" />
<glyph unicode="$" d="M190 279q0 42 50 53h1491q21 -5 35 -19t14 -34q0 -22 -14.5 -36.5t-34.5 -17.5h-1491q-50 7 -50 54zM190 748q0 42 50 53h1491q21 -5 35 -19t14 -34q0 -22 -14.5 -36.5t-34.5 -17.5h-1491q-50 7 -50 54zM713 1395q0 72 37 135t100 100t135 37q73 0 135 -37t99.5 -100.5 t37.5 -134.5q0 -72 -37 -135t-99.5 -100.5t-135.5 -37.5q-72 0 -135 38t-100 100t-37 135zM819 1395q0 -92 37 -129t129 -37t129 37t37 129t-37 129t-129 37t-129 -37t-37 -129z" />
<glyph unicode="%" d="M190 -537q0 115 49.5 225t140 179.5t208.5 69.5q109 0 198 -52.5t210 -157t202.5 -153.5t183.5 -49q91 0 165.5 48.5t116.5 130.5t42 171q7 62 37 62t37 -62v-25q0 -114 -49 -225t-140.5 -180.5t-208.5 -69.5q-107 0 -194.5 51.5t-204.5 153.5t-204 154.5t-191 52.5 q-93 0 -166.5 -48t-115.5 -129t-42 -171q-7 -64 -37 -64q-27 0 -37 64v24zM256 336q51 497 743 635q-305 61 -509.5 211t-233.5 426q0 23 14.5 40t38.5 17q21 0 35.5 -14.5t17.5 -34.5q39 -366 422.5 -479t880.5 -113q22 -3 35.5 -17.5t13.5 -35.5q0 -22 -14 -36t-35 -17 q-304 0 -573 -36t-485.5 -166.5t-244.5 -387.5q-3 -21 -18 -35t-35 -14q-24 0 -38.5 16.5t-14.5 40.5z" />
<glyph unicode="&#x26;" d="M190 -537q0 115 49.5 225t140 179.5t208.5 69.5q109 0 198 -52.5t210 -157t202.5 -153.5t183.5 -49q91 0 165.5 48.5t116.5 130.5t42 171q7 62 37 62t37 -62v-25q0 -114 -49 -225t-140.5 -180.5t-208.5 -69.5q-107 0 -194.5 51.5t-204.5 153.5t-204 154.5t-191 52.5 q-93 0 -166.5 -48t-115.5 -129t-42 -171q-7 -64 -37 -64q-27 0 -37 64v24zM256 332q0 32 33 49l1247 592l-1253 594q-27 10 -27 45q0 21 16 37t37 16q9 0 21 -4l1358 -643q13 -6 19.5 -18.5t6.5 -26.5q0 -35 -33 -49l-1351 -641q-12 -4 -21 -4q-21 0 -37 15t-16 38z" />
<glyph unicode="'" d="M190 -141q0 105 55 193t147 138t196 50q102 0 190.5 -40.5t210.5 -120t208 -119.5t185 -40q120 0 222 71.5t102 186.5q7 62 37 62t37 -62v-24q0 -109 -54 -196t-146.5 -137t-197.5 -50q-100 0 -184.5 38.5t-213 120.5t-213 121t-183.5 39q-76 0 -150.5 -30.5t-124 -89.5 t-49.5 -136q-7 -63 -37 -63q-26 0 -37 63v25zM190 -702q0 105 55.5 193.5t147.5 137.5t195 49q102 0 190.5 -40.5t213.5 -121t208 -119t182 -38.5q120 0 222 71.5t102 186.5q7 61 37 61t37 -61v-25q0 -107 -54 -195t-146.5 -138t-197.5 -50q-100 0 -187.5 40t-213 121 t-210 120t-183.5 39q-76 0 -150.5 -30.5t-124 -89.5t-49.5 -136q-7 -64 -37 -64q-26 0 -37 64v25zM256 557q0 32 33 49l1235 520l-1235 519q-33 17 -33 49q0 21 16 37t37 16q9 0 21 -4l1351 -567q33 -19 33 -50q0 -35 -33 -49l-1351 -569q-12 -4 -21 -4q-21 0 -37 15t-16 38 z" />
<glyph unicode="(" horiz-adv-x="2767" d="M190 512q0 21 14.5 35.5t35.5 17.5h1570q12 73 46 134.5t84 105t115 68t136 24.5q104 0 193 -51.5t140.5 -140.5t51.5 -193t-51.5 -193t-140.5 -140.5t-193 -51.5q-145 0 -251.5 94t-129.5 238h-1570q-21 3 -35.5 17.5t-14.5 35.5zM1913 512q0 -74 38 -138.5t102 -102.5 t138 -38t138.5 38t102.5 102.5t38 138.5q0 56 -23 108t-59.5 88.5t-88.5 59.5t-108 23q-74 0 -138 -38t-102 -102.5t-38 -138.5z" />
<glyph unicode=")" horiz-adv-x="1706" d="M129 -43q0 35 17 64t46 46t64 17t64 -17t46 -46t17 -64t-17 -64t-46 -46t-64 -17t-64 17t-46 46t-17 64zM725 989q0 35 17 64t46 46t64 17t64 -17t46 -46t17 -64q0 -52 -37.5 -89.5t-89.5 -37.5t-89.5 37.5t-37.5 89.5zM1321 -43q0 35 17 64t46 46t64 17t64 -17t46 -46 t17 -64t-17 -64t-46 -46t-64 -17t-64 17t-46 46t-17 64z" />
<glyph unicode="*" horiz-adv-x="1706" d="M129 989q0 35 17 64t46 46t64 17t64 -17t46 -46t17 -64q0 -52 -37.5 -89.5t-89.5 -37.5t-89.5 37.5t-37.5 89.5zM725 -43q0 35 17 64t46 46t64 17t64 -17t46 -46t17 -64t-17 -64t-46 -46t-64 -17t-64 17t-46 46t-17 64zM1321 989q0 35 17 64t46 46t64 17t64 -17t46 -46 t17 -64q0 -52 -37.5 -89.5t-89.5 -37.5t-89.5 37.5t-37.5 89.5z" />
<glyph unicode="+" d="M190 279q0 42 50 53h1491q21 -5 35 -19t14 -34q0 -22 -14.5 -36.5t-34.5 -17.5h-1491q-50 7 -50 54zM190 748q0 42 50 53h1491q21 -5 35 -19t14 -34q0 -22 -14.5 -36.5t-34.5 -17.5h-1491q-50 7 -50 54zM842 -193q0 61 41.5 103.5t101.5 42.5t101.5 -42.5t41.5 -103.5 q0 -58 -42.5 -100.5t-100.5 -42.5t-100.5 42.5t-42.5 100.5zM842 1217q0 60 41.5 102.5t101.5 42.5t101.5 -42.5t41.5 -102.5q0 -59 -42.5 -101.5t-100.5 -42.5t-100.5 42.5t-42.5 101.5z" />
<glyph unicode="," horiz-adv-x="1858" d="M133 279q0 20 14 34t35 19h1493q49 -11 49 -53q0 -23 -14 -37t-35 -17h-1493q-20 3 -34.5 17.5t-14.5 36.5zM133 748q0 20 14 34t35 19h1493q49 -11 49 -53q0 -23 -14 -37t-35 -17h-1493q-20 3 -34.5 17.5t-14.5 36.5zM412 1122q0 15 6 27l465 805q19 26 47 26 q26 0 45 -26l465 -805q6 -12 6 -27q0 -20 -14 -35t-35 -18h-936q-23 3 -36 18t-13 35zM557 1176h743l-370 645z" />
<glyph unicode="-" d="M190 -498q0 107 53.5 198.5t145 144.5t199.5 53q64 0 128 -20t119.5 -50.5t122.5 -75.5l74 -49q104 -69 182.5 -104t167.5 -35q121 0 222.5 77t101.5 195q7 62 37 62t37 -62v-24q0 -108 -54 -200t-145.5 -145t-198.5 -53q-93 0 -182 39.5t-188 106.5l-74 49 q-94 63 -177 101t-173 38q-78 0 -153 -33t-123 -95.5t-48 -141.5q-7 -64 -37 -64q-27 0 -37 64v24zM256 932q0 21 14.5 35.5t34.5 17.5q497 0 880.5 113t422.5 479q3 21 17 35t36 14q24 0 38.5 -17t14.5 -40q-28 -275 -232 -425.5t-511 -211.5q692 -138 743 -635 q0 -24 -14.5 -40.5t-38.5 -16.5q-20 0 -35 14t-18 35q-26 257 -243.5 387.5t-486.5 166.5t-573 36q-20 3 -34.5 17.5t-14.5 35.5z" />
<glyph unicode="." d="M190 -498q0 107 53.5 198.5t145 144.5t199.5 53q64 0 128 -20t119.5 -50.5t122.5 -75.5l74 -49q104 -69 182.5 -104t167.5 -35q121 0 222.5 77t101.5 195q7 62 37 62t37 -62v-24q0 -108 -54 -200t-145.5 -145t-198.5 -53q-93 0 -182 39.5t-188 106.5l-74 49 q-94 63 -177 101t-173 38q-78 0 -153 -33t-123 -95.5t-48 -141.5q-7 -64 -37 -64q-27 0 -37 64v24zM256 934q0 32 33 49l1351 639q14 4 21 4q23 0 38 -15t15 -38q0 -32 -33 -49l-1247 -590l1254 -594q13 -6 19.5 -18.5t6.5 -28.5q0 -23 -15 -38t-38 -15q-7 0 -21 4 l-1357 643q-27 13 -27 47z" />
<glyph unicode="/" d="M190 -141q0 105 55 193t147 138t196 50q102 0 190.5 -40.5t210.5 -120t208 -119.5t185 -40q120 0 222 71.5t102 186.5q7 62 37 62t37 -62v-24q0 -109 -54 -196t-146.5 -137t-197.5 -50q-100 0 -184.5 38.5t-213 120.5t-213 121t-183.5 39q-76 0 -150.5 -30.5t-124 -89.5 t-49.5 -136q-7 -63 -37 -63q-26 0 -37 63v25zM190 -702q0 105 55.5 193.5t147.5 137.5t195 49q102 0 190.5 -40.5t213.5 -121t208 -119t182 -38.5q120 0 222 71.5t102 186.5q7 61 37 61t37 -61v-25q0 -107 -54 -195t-146.5 -138t-197.5 -50q-100 0 -187.5 40t-213 121 t-210 120t-183.5 39q-76 0 -150.5 -30.5t-124 -89.5t-49.5 -136q-7 -64 -37 -64q-26 0 -37 64v25zM256 1126q0 31 33 50l1351 567q14 4 21 4q23 0 38 -16t15 -37q0 -32 -33 -49l-1235 -519l1235 -520q33 -17 33 -49q0 -23 -15 -38t-38 -15q-7 0 -21 4l-1351 569 q-33 14 -33 49z" />
<glyph unicode="0" d="M256 276q0 31 33 50l1351 639q14 4 21 4q23 0 38 -16t15 -38q0 -30 -33 -49l-1247 -590l1254 -593q26 -15 26 -48q0 -21 -15 -37t-38 -16q-7 0 -21 4l-1357 643q-27 14 -27 47zM256 745q0 32 27 46l1357 643q14 4 21 4q23 0 38 -16t15 -38q0 -14 -6.5 -26t-19.5 -19 l-1358 -643q-6 -4 -21 -4q-20 0 -36.5 15.5t-16.5 37.5z" />
<glyph unicode="1" d="M256 -365q0 31 33 50l1247 591l-1253 594q-27 11 -27 45q0 22 16 38t37 16q9 0 21 -4l1358 -643q26 -15 26 -46q0 -33 -33 -49l-1351 -641q-12 -4 -21 -4q-21 0 -37 16t-16 37zM256 1384q0 22 16 38t37 16q9 0 21 -4l1351 -639q33 -19 33 -50q0 -22 -15.5 -37.5 t-37.5 -15.5q-14 0 -21 4l-1351 639q-33 19 -33 49z" />
<glyph unicode="2" d="M256 694q0 41 49 54q224 0 419 14t392 68.5t334 176.5t158 322q0 24 14 40.5t39 16.5t39 -16.5t14 -40.5q-28 -274 -232.5 -425t-510.5 -210q304 -59 509.5 -210.5t233.5 -426.5q0 -23 -14.5 -40t-38.5 -17q-21 0 -35.5 14.5t-17.5 34.5q-39 368 -422.5 480t-880.5 112 q-20 3 -34.5 17.5t-14.5 35.5zM256 1057q0 20 14 34t35 19q164 0 334.5 28.5t323.5 94.5t257 182.5t121 284.5q13 49 54 49q23 0 38 -16.5t15 -40.5q-18 -190 -130 -325t-279.5 -214.5t-356.5 -114t-369 -34.5q-23 0 -40 14.5t-17 38.5z" />
<glyph unicode="3" d="M256 57q16 146 81.5 255t168.5 184t225.5 122.5t267.5 75.5q-304 59 -509 209.5t-234 425.5q0 24 14 40.5t39 16.5q22 0 36 -14t17 -35q26 -257 243.5 -387.5t486.5 -166t573 -35.5q49 -13 49 -54q0 -22 -14 -36t-35 -17q-305 0 -573.5 -36.5t-486 -168t-243.5 -387.5 q-3 -20 -17.5 -34.5t-35.5 -14.5q-24 0 -38.5 17t-14.5 40zM522 1692q0 23 15.5 40t37.5 17q21 0 35 -14t19 -35q19 -170 123 -286t256.5 -181.5t323.5 -94t333 -28.5q49 -11 49 -53q0 -25 -16.5 -39t-40.5 -14q-253 0 -503 65t-427.5 218.5t-204.5 404.5z" />
<glyph unicode="4" d="M256 332q0 21 17.5 37t39.5 16q188 0 374 -34.5t352 -113.5t278.5 -215.5t130.5 -326.5q0 -25 -15 -41t-38 -16q-41 0 -54 49q-17 169 -121 285.5t-257.5 183.5t-322.5 95t-335 28q-19 3 -34 17t-15 36zM256 694q0 41 49 54q224 0 419 14t392 68.5t334 176.5t158 322 q0 24 14 40.5t39 16.5t39 -16.5t14 -40.5q-28 -274 -232.5 -425t-510.5 -210q304 -59 509.5 -210.5t233.5 -426.5q0 -23 -14.5 -40t-38.5 -17q-21 0 -35.5 14.5t-17.5 34.5q-39 368 -422.5 480t-880.5 112q-20 3 -34.5 17.5t-14.5 35.5z" />
<glyph unicode="5" d="M256 29q0 20 14 35t35 18h1360q22 -3 35.5 -17.5t13.5 -35.5q0 -22 -13.5 -35.5t-35.5 -18.5h-1360q-21 5 -35 19t-14 35zM256 -440q0 20 14 35t35 18h1360q22 -3 35.5 -17.5t13.5 -35.5q0 -22 -13.5 -35.5t-35.5 -18.5h-1360q-21 5 -35 19t-14 35zM256 1032q0 32 33 49 l1351 639q14 4 21 4q23 0 38 -15t15 -38q0 -32 -33 -49l-1247 -590l1254 -594q13 -6 19.5 -19t6.5 -28q0 -23 -15 -38t-38 -15q-7 0 -21 4l-1357 643q-27 13 -27 47z" />
<glyph unicode="6" d="M256 276q0 22 16 38t37 16q9 0 21 -4l1351 -639q33 -19 33 -49q0 -23 -15.5 -38.5t-37.5 -15.5q-14 0 -21 4l-1351 639q-33 19 -33 49zM256 745q0 31 33 50l1351 639q14 4 21 4q23 0 38 -16t15 -38q0 -30 -33 -49l-1247 -590l1254 -593q26 -15 26 -48q0 -21 -15 -37 t-38 -16q-7 0 -21 4l-1357 643q-27 14 -27 47z" />
<glyph unicode="7" d="M150 512q0 23 15 38t38 15q8 0 20 -4l1565 -569q33 -18 33 -49t-33 -49l-1571 -572q-4 0 -7 -0.5t-7 -1.5q-23 0 -38 16t-15 37q0 35 32 49l1430 521l-1430 520q-32 14 -32 49zM150 936q0 31 32 49l1571 569q4 2 14 2q22 0 38 -15t16 -38q0 -31 -33 -49l-1430 -518 l1430 -520q33 -18 33 -49q0 -22 -16 -38t-38 -16q-8 0 -20 4l-1565 570q-32 14 -32 49z" />
<glyph unicode="8" horiz-adv-x="748" d="M86 1026q0 50 39.5 84.5t89.5 34.5q39 0 70 -23t43 -61l293 -920q2 -8 2 -10q0 -19 -19 -27l-61 -24q-11 -2 -13 -2q-16 0 -26 16l-406 877q-12 24 -12 55z" />
<glyph unicode="9" horiz-adv-x="1194" d="M199 512q0 20 14 35t35 18h698q21 -3 35 -17t14 -36t-14 -36t-35 -17h-698q-21 3 -35 18t-14 35z" />
<glyph unicode=":" d="M117 -193q0 35 17 64t46 46t64 17q52 0 89.5 -36.5t37.5 -90.5q0 -52 -38 -89t-89 -37q-52 0 -89.5 37.5t-37.5 88.5zM190 279q0 42 50 53h1491q21 -5 35 -19t14 -34q0 -22 -14.5 -36.5t-34.5 -17.5h-1491q-50 7 -50 54zM190 748q0 42 50 53h1491q21 -5 35 -19t14 -34 q0 -22 -14.5 -36.5t-34.5 -17.5h-1491q-50 7 -50 54zM1599 1217q0 51 37.5 88.5t89.5 37.5q53 0 90 -37t37 -89t-37.5 -89.5t-89.5 -37.5q-51 0 -89 38t-38 89z" />
<glyph unicode=";" d="M117 1217q0 52 37 89t90 37q52 0 89.5 -36.5t37.5 -89.5t-38 -90t-89 -37q-52 0 -89.5 37.5t-37.5 89.5zM190 279q0 42 50 53h1491q21 -5 35 -19t14 -34q0 -22 -14.5 -36.5t-34.5 -17.5h-1491q-50 7 -50 54zM190 748q0 42 50 53h1491q21 -5 35 -19t14 -34 q0 -22 -14.5 -36.5t-34.5 -17.5h-1491q-50 7 -50 54zM1599 -193q0 52 37.5 89.5t89.5 37.5q35 0 64 -17t46 -46t17 -64q0 -51 -37.5 -88.5t-89.5 -37.5q-51 0 -89 38t-38 88z" />
<glyph unicode="&#x3c;" d="M256 57q16 146 81.5 255t168.5 184t225.5 122.5t267.5 75.5q-304 59 -509 209.5t-234 425.5q0 24 14 40.5t39 16.5q22 0 36 -14t17 -35q26 -257 243.5 -387.5t486.5 -166t573 -35.5q49 -13 49 -54q0 -22 -14 -36t-35 -17q-305 0 -573.5 -36.5t-486 -168t-243.5 -387.5 q-3 -20 -17.5 -34.5t-35.5 -14.5q-24 0 -38.5 17t-14.5 40zM522 -305q27 251 205 405.5t427.5 219.5t502.5 65q23 0 40 -15t17 -38t-14.5 -36.5t-34.5 -16.5q-165 0 -334 -28t-322 -94.5t-257 -182.5t-123 -287q-5 -22 -19.5 -35.5t-34.5 -13.5q-22 0 -37.5 16.5t-15.5 40.5 z" />
<glyph unicode="=" d="M256 29q0 20 14 35t35 18h1360q22 -3 35.5 -17.5t13.5 -35.5q0 -22 -13.5 -35.5t-35.5 -18.5h-1360q-21 5 -35 19t-14 35zM256 391q0 32 33 49l1247 592l-1253 594q-27 10 -27 45q0 23 16 38t37 15q9 0 21 -4l1358 -643q26 -13 26 -45q0 -35 -33 -49l-1351 -641 q-12 -4 -21 -4q-21 0 -37 15t-16 38zM256 -440q0 20 14 35t35 18h1360q22 -3 35.5 -17.5t13.5 -35.5q0 -22 -13.5 -35.5t-35.5 -18.5h-1360q-21 5 -35 19t-14 35z" />
<glyph unicode="&#x3e;" d="M256 104q0 31 33 50l1247 591l-1253 594q-27 11 -27 45q0 22 16 38t37 16q9 0 21 -4l1358 -643q26 -15 26 -46q0 -33 -33 -49l-1351 -641q-12 -4 -21 -4q-21 0 -37 16t-16 37zM256 -365q0 32 27 46l1357 643q14 4 21 4q23 0 38 -16t15 -38q0 -14 -6.5 -26t-19.5 -19 l-1358 -643q-6 -4 -21 -4q-20 0 -36.5 15.5t-16.5 37.5z" />
<glyph unicode="?" d="M256 -57q0 32 33 49l1351 567q14 4 21 4q23 0 38 -15t15 -38q0 -32 -33 -49l-1235 -518l1235 -521q33 -17 33 -49q0 -21 -15 -37t-38 -16q-7 0 -21 4l-1351 570q-33 14 -33 49zM256 367q0 32 33 49l1235 520l-1235 518q-33 17 -33 49q0 23 16 38t37 15q9 0 21 -4 l1351 -567q33 -17 33 -49q0 -35 -33 -49l-1351 -570q-12 -4 -21 -4q-21 0 -37 16t-16 38z" />
<glyph unicode="@" d="M256 -133v1288q6 42 49 49h1360q21 -3 35 -17t14 -36t-14 -36t-35 -17h-1303v-1174h1303q21 -3 35 -17t14 -36t-14 -36t-35 -17h-1360q-43 7 -49 49z" />
<glyph unicode="A" d="M203 -129q0 20 14 35t35 18h1409v1174h-1409q-21 3 -35 18t-14 35t14 35t35 18h1466q43 -6 49 -49v-1288q-6 -43 -49 -49h-1466q-21 3 -35 18t-14 35z" />
<glyph unicode="B" d="M256 -133v1288q3 21 18 35t35 14q9 0 21 -4l1351 -639q33 -17 33 -49q0 -16 -6.5 -28t-19.5 -19l-1358 -643q-12 -4 -21 -4q-18 0 -34 14t-19 35zM362 -45l1174 557l-1174 555v-1112z" />
<glyph unicode="C" d="M256 512q0 32 27 45l1357 643q14 4 21 4q22 0 36 -14t17 -35v-1288q-3 -21 -18 -35t-35 -14q-7 0 -21 4l-1351 641q-33 14 -33 49zM434 512l1174 -557v1112z" />
<glyph unicode="D" d="M256 100v1289q3 20 18.5 34.5t34.5 14.5q9 0 21 -4l1351 -639q33 -19 33 -50q0 -32 -26 -47l-1358 -643q-12 -4 -21 -4q-19 0 -34.5 14.5t-18.5 34.5zM256 -365q0 21 14 36t35 18h1360q22 -3 35.5 -17.5t13.5 -36.5q0 -20 -14 -35t-35 -18h-1360q-20 3 -34.5 18.5 t-14.5 34.5zM362 188l1174 557l-1174 555v-1112z" />
<glyph unicode="E" d="M256 -365q0 21 14 36t35 18h1360q22 -3 35.5 -17.5t13.5 -36.5q0 -20 -14 -35t-35 -18h-1360q-20 3 -34.5 18.5t-14.5 34.5zM256 745q0 32 27 46l1357 643q14 4 21 4q21 0 35.5 -14.5t17.5 -34.5v-1289q-3 -20 -17.5 -34.5t-35.5 -14.5q-7 0 -21 4l-1351 641 q-33 16 -33 49zM434 745l1174 -557v1112z" />
<glyph unicode="F" horiz-adv-x="2066" d="M166 784q0 11 8 21t21 10h618l191 588q7 18 28 18q22 0 29 -18l190 -588h619q12 0 20 -10t8 -21q0 -15 -12 -24l-500 -363l191 -585q2 -7 2 -11q0 -12 -10 -21t-21 -9q-10 0 -14 4l-502 364l-497 -362q-10 -6 -19 -6q-11 0 -21 10t-10 20q0 4 2 11l191 585l-500 363 q-12 9 -12 24z" />
<glyph unicode="G" horiz-adv-x="1307" d="M227 512q0 110 25.5 214.5t72.5 203t113.5 188t145.5 162.5q-117 102 -269 176q-24 10 -24 37q0 17 11 30t30 13q24 0 86.5 -37t139 -90t95.5 -70q19 17 95.5 70t139.5 90t87 37q16 0 28.5 -13.5t12.5 -29.5q0 -27 -25 -37q-152 -74 -268 -176q79 -72 146 -163 t114 -189.5t71.5 -202t24.5 -213.5q0 -109 -24.5 -213t-71.5 -203t-113.5 -188.5t-146.5 -163.5q116 -102 268 -176q25 -10 25 -37q0 -17 -13 -30t-28 -13q-34 0 -144 71t-178 126q-19 -17 -95.5 -70t-139 -90t-86.5 -37q-18 0 -29.5 13.5t-11.5 29.5q0 27 24 37 q152 74 269 176q-167 158 -262 355t-95 413zM352 512q0 -195 81 -378t220 -324q141 141 221 324t80 378q0 99 -21 195.5t-59.5 184.5t-94.5 170.5t-126 151.5q-141 -142 -221 -324.5t-80 -377.5z" />
<glyph unicode="H" horiz-adv-x="1649" d="M256 1139q0 20 14 35t35 18h1038q22 -3 36 -18t14 -35q0 -9 -4 -21l-515 -1138q-17 -33 -49 -33q-35 0 -49 33l-516 1138q-4 12 -4 21z" />
<glyph unicode="I" d="M256 -133v1288q3 21 18 35t35 14q9 0 21 -4l1351 -639q33 -17 33 -49q0 -16 -6.5 -28t-19.5 -19l-1358 -643q-12 -4 -21 -4q-18 0 -34 14t-19 35z" />
<glyph unicode="J" d="M256 512q0 32 27 45l1357 643q14 4 21 4q22 0 36 -14t17 -35v-1288q-3 -21 -18 -35t-35 -14q-7 0 -21 4l-1351 641q-33 14 -33 49z" />
<glyph unicode="K" horiz-adv-x="1194" d="M133 508q0 28 17 50t45 22h426q-51 56 -113 145.5t-62 128.5q0 42 50 53h96q12 0 37 -18q12 -19 27 -49.5t28 -53.5q56 -71 80 -94q77 -80 199 -131q32 -18 32 -49t-32 -49q-122 -51 -199 -131q-24 -23 -80 -94q-7 -10 -23 -43t-32 -60q-25 -18 -37 -18h-96 q-50 11 -50 53q0 39 65 133t110 143h-428q-54 11 -60 62z" />
<glyph unicode="L" horiz-adv-x="1194" d="M145 512q0 31 33 49q122 51 199 131q24 23 80 94q16 27 32 60t23 43q22 18 37 18h96q49 -11 49 -53q0 -39 -64 -132.5t-110 -141.5h426q26 0 45 -20.5t19 -47.5q0 -26 -18.5 -46t-45.5 -20h-426q42 -43 108 -140t66 -136q0 -42 -49 -53h-96q-14 0 -37 18q-13 23 -28 53.5 t-27 49.5q-56 71 -80 94q-77 80 -199 131q-33 18 -33 49z" />
<glyph unicode="M" horiz-adv-x="1649" d="M256 0q0 8 4 20l516 1139q14 33 49 33q32 0 49 -33l515 -1139q4 -12 4 -20q0 -21 -14.5 -35.5t-35.5 -17.5h-1038q-20 3 -34.5 17.5t-14.5 35.5zM391 53h866l-432 957z" />
<glyph unicode="N" horiz-adv-x="1649" d="M256 0q0 8 4 20l516 1139q14 33 49 33q32 0 49 -33l515 -1139q4 -12 4 -20q0 -21 -14.5 -35.5t-35.5 -17.5h-1038q-20 3 -34.5 17.5t-14.5 35.5z" />
<glyph unicode="O" horiz-adv-x="1649" d="M256 1139q0 20 14 35t35 18h1038q22 -3 36 -18t14 -35q0 -9 -4 -21l-515 -1138q-17 -33 -49 -33q-35 0 -49 33l-516 1138q-4 12 -4 21zM391 1085l434 -956l432 956h-866z" />
<glyph unicode="P" d="M190 279q0 42 50 53h553q-35 35 -53.5 81.5t-18.5 98.5q0 108 72 182h-553q-50 7 -50 54q0 42 50 53h1491q21 -5 35 -19t14 -34q0 -22 -14.5 -36.5t-34.5 -17.5h-553q35 -35 54 -82t19 -100q0 -107 -73 -180h553q21 -5 35 -19t14 -34q0 -22 -14.5 -36.5t-34.5 -17.5 h-1491q-50 7 -50 54zM782 512q0 -56 29.5 -104.5t79.5 -75.5h188q33 18 58 46t38 63t13 71q0 55 -30 105t-79 77h-188q-49 -27 -79 -77t-30 -105z" />
<glyph unicode="Q" d="M256 39q0 23 16 38t37 15q9 0 21 -4l1298 -502q33 -17 33 -49t-33 -49l-1298 -502q-12 -4 -21 -4q-21 0 -37 16t-16 37q0 31 33 50l1171 452l-1171 453q-33 17 -33 49zM256 508q0 21 14.5 35.5t34.5 17.5h1307q20 -3 34.5 -17.5t14.5 -35.5t-14.5 -35.5t-34.5 -17.5 h-1307q-20 3 -34.5 17.5t-14.5 35.5zM256 1479q0 32 33 49l1298 502q12 4 21 4q21 0 37 -16t16 -38q0 -30 -33 -49l-1171 -452l1171 -453q33 -17 33 -49q0 -23 -16 -38t-37 -15q-9 0 -21 4l-1298 502q-33 17 -33 49z" />
<glyph unicode="R" d="M256 -463q0 32 33 49l1298 502q12 4 21 4q21 0 37 -15t16 -38q0 -32 -33 -49l-1171 -453l1171 -452q33 -19 33 -50q0 -21 -16 -37t-37 -16q-9 0 -21 4l-1298 502q-33 17 -33 49zM256 508q0 21 14.5 35.5t34.5 17.5h1307q20 -3 34.5 -17.5t14.5 -35.5t-14.5 -35.5 t-34.5 -17.5h-1307q-20 3 -34.5 17.5t-14.5 35.5zM256 977q0 32 33 49l1171 453l-1171 452q-33 19 -33 49q0 22 16 38t37 16q9 0 21 -4l1298 -502q33 -17 33 -49t-33 -49l-1298 -502q-12 -4 -21 -4q-21 0 -37 15t-16 38z" />
<glyph unicode="S" d="M256 -139q0 22 16.5 37.5t36.5 15.5q15 0 21 -4l1351 -502q33 -14 33 -49q0 -32 -33 -49l-1351 -502q-12 -4 -21 -4q-21 0 -37 16t-16 37q0 35 33 49l1218 453l-1218 453q-33 17 -33 49zM256 330q0 20 14 35t35 18h1360q22 -3 35.5 -17.5t13.5 -35.5q0 -22 -13.5 -35.5 t-35.5 -18.5h-1360q-21 5 -35 19t-14 35zM256 801q0 20 14 35t35 18h1360q22 -3 35.5 -17.5t13.5 -35.5q0 -22 -14 -36t-35 -17h-1360q-20 3 -34.5 17.5t-14.5 35.5zM256 1772q0 30 33 49l1351 501q18 5 21 5q23 0 38 -16t15 -38q0 -35 -33 -49l-1218 -452l1218 -453 q33 -17 33 -49q0 -24 -15.5 -38.5t-37.5 -14.5q-14 0 -21 4l-1351 501q-33 16 -33 50z" />
<glyph unicode="T" d="M256 332q0 20 14 35t35 18h1360q22 -3 35.5 -17.5t13.5 -35.5q0 -22 -14 -36t-35 -17h-1360q-20 3 -34.5 17.5t-14.5 35.5zM256 -641q0 32 33 49l1351 502q14 4 21 4q23 0 38 -16t15 -37q0 -35 -33 -49l-1218 -453l1218 -453q33 -17 33 -49q0 -24 -15.5 -38.5 t-37.5 -14.5q-14 0 -21 4l-1351 502q-33 14 -33 49zM256 801q0 20 14 35t35 18h1360q22 -3 35.5 -17.5t13.5 -35.5q0 -22 -14 -36t-35 -17h-1360q-20 3 -34.5 17.5t-14.5 35.5zM256 1270q0 35 33 49l1218 453l-1218 452q-33 17 -33 49q0 23 16.5 38.5t36.5 15.5q15 0 21 -5 l1351 -501q33 -16 33 -49q0 -31 -33 -50l-1351 -501q-12 -4 -21 -4q-21 0 -37 15t-16 38z" />
<glyph unicode="U" horiz-adv-x="1892" d="M94 1311v88q47 0 142 -4t141 -4q54 0 165 4t167 4v-88q-134 0 -134 -39q0 -7 7 -19l213 -288h438l172 233q18 25 18 47q0 35 -31.5 50.5t-70.5 15.5v88q44 0 131 -4t131 -4q36 0 107 4t106 4v-88q-199 0 -280 -113l-173 -233h322q16 0 27.5 -13.5t11.5 -27.5 q0 -17 -11 -29t-28 -12h-383l-238 -324v-63h621q16 0 27.5 -13.5t11.5 -27.5q0 -17 -11 -29t-28 -12h-621v-269q0 -57 220 -57v-88q-53 0 -159 4t-159 4t-159 -4t-158 -4v88q217 0 217 57v269h-621q-17 0 -28 12t-11 29q0 14 11.5 27.5t27.5 13.5h621v63l-238 324h-383 q-17 0 -28 12t-11 29q0 14 11.5 27.5t27.5 13.5h324l-215 288q-33 39 -93.5 48.5t-146.5 9.5zM856 883l158 -217l160 217h-318z" />
<glyph unicode="V" horiz-adv-x="2503" d="M190 43q0 21 14.5 35.5t35.5 17.5h1370q50 68 113.5 135t128.5 122t141 106h-1749q-22 0 -38 15t-16 38t15 38t39 15h1749q-76 51 -141 106t-128.5 122t-113.5 135h-1370q-21 3 -35.5 17.5t-14.5 35.5t14.5 35.5t35.5 17.5h1298q-89 141 -143 289h131q52 -134 124 -251.5 t167 -222.5t206.5 -190t233.5 -147q-122 -62 -233.5 -147t-206.5 -190t-167 -222t-124 -252h-131q54 148 143 289h-1298q-21 3 -35.5 17.5t-14.5 35.5z" />
<glyph unicode="W" horiz-adv-x="2503" d="M244 512q168 84 309 207t249 278t173 326h131q-54 -148 -143 -289h1298q21 -3 35 -17t14 -36t-14 -36t-35 -17h-1370q-161 -213 -383 -363h1749q24 0 38.5 -14t14.5 -39q0 -24 -15 -38.5t-38 -14.5h-1749q222 -150 383 -363h1370q21 -3 35 -17t14 -36t-14 -36t-35 -17 h-1298q89 -141 143 -289h-131q-50 133 -122.5 251t-166 222t-205.5 189.5t-237 148.5z" />
<glyph unicode="X" horiz-adv-x="2103" d="M256 463q0 38 66 78.5t108 40.5h12q8 -2 17 -11l241 -342q49 129 114 251.5t145.5 239t170.5 218.5q72 80 194.5 190t244.5 196.5t209 117.5q36 6 39 6h12q18 -7 18 -21q0 -13 -10 -26q-17 -23 -45.5 -44t-72 -47t-58.5 -36q-74 -48 -164 -121q-168 -143 -311 -328 q-127 -170 -220 -370.5t-143 -413.5q-13 -40 -71 -75.5t-103 -35.5h-12q-10 3 -14 11l-363 512q-4 4 -4 10z" />
<glyph unicode="Y" horiz-adv-x="1573" d="M190 53q0 21 14.5 35.5t35.5 17.5h1093q21 -3 35 -17t14 -36q0 -20 -14 -35t-35 -18h-1093q-21 3 -35.5 18.5t-14.5 34.5zM190 1411q0 23 16 38t38 15q27 0 47 -26l495 -813l498 813q16 26 45 26q23 0 38 -15t15 -38q0 -13 -6 -27l-542 -888q-21 -27 -48 -27 q-28 0 -45 27l-542 888q-9 13 -9 27z" />
<glyph unicode="Z" horiz-adv-x="1573" d="M190 53q0 15 9 27l542 889q18 26 45 26t48 -26l542 -889q6 -12 6 -27q0 -21 -15 -37t-38 -16q-29 0 -45 27l-498 813l-495 -813q-19 -27 -47 -27q-22 0 -38 16t-16 37zM190 1411q0 21 14.5 35.5t35.5 17.5h1093q21 -3 35 -17t14 -36t-14 -36t-35 -17h-1093 q-21 3 -35.5 17.5t-14.5 35.5z" />
<glyph unicode="[" horiz-adv-x="1573" d="M190 -182q0 14 9 26l542 889q17 27 45 27q27 0 48 -27l542 -889q6 -12 6 -26q0 -22 -15 -38t-38 -16q-28 0 -45 27l-498 813l-495 -813q-20 -27 -47 -27q-22 0 -38 16t-16 38zM190 1178q0 20 14 35t36 18h1093q22 -3 35.5 -17.5t13.5 -35.5q0 -22 -13.5 -36.5 t-35.5 -17.5h-1093q-22 3 -36 18t-14 36zM190 1647q0 20 14 35t36 18h1093q22 -3 35.5 -17.5t13.5 -35.5q0 -22 -13.5 -36.5t-35.5 -17.5h-1093q-22 3 -36 18t-14 36z" />
<glyph unicode="\" horiz-adv-x="1839" d="M190 53q0 14 15 37l1349 1315q22 16 39 16q22 0 38 -15t16 -38q0 -13 -13 -35l-1259 -1227h1222q21 -3 35.5 -17.5t14.5 -35.5q0 -19 -14.5 -34.5t-35.5 -18.5h-1357q-21 3 -35.5 18.5t-14.5 34.5z" />
<glyph unicode="]" horiz-adv-x="1839" d="M190 53q0 14 15 37l1349 1368q23 17 39 17q22 0 38 -16t16 -38q0 -11 -13 -35l-741 -751q177 -237 209 -529h495q21 -3 35.5 -17.5t14.5 -35.5q0 -19 -14.5 -34.5t-35.5 -18.5h-491q0 -23 -16 -38t-37 -15q-45 0 -54 53h-759q-21 3 -35.5 18.5t-14.5 34.5zM371 106h622 q-28 249 -176 451z" />
<glyph unicode="^" horiz-adv-x="1839" d="M190 512q0 31 33 49l1350 576q6 4 20 4q22 0 38 -16t16 -38q0 -29 -33 -49l-264 -112q75 -201 75 -414t-75 -414l264 -112q33 -20 33 -49q0 -22 -16 -38t-38 -16q-14 0 -20 4l-1350 576q-33 18 -33 49zM379 512l872 -373q68 180 68 373t-68 373z" />
<glyph unicode="_" d="M190 512q0 144 71.5 266t193 193t266.5 71q86 0 164.5 -26.5t144 -74.5t116 -114.5t77.5 -148.5q36 106 110.5 188.5t176.5 129t212 46.5q24 0 41 -15t17 -38q0 -19 -14.5 -34.5t-34.5 -18.5q-84 0 -163 -32t-138.5 -91t-93 -136.5t-33.5 -164.5q0 -116 58 -213t157 -154 t213 -57q21 -3 35 -18t14 -35q0 -23 -17.5 -38t-40.5 -15q-167 0 -306 102t-193 262q-36 -106 -110.5 -189t-176.5 -129t-215 -46q-145 0 -266.5 71t-193 193t-71.5 266zM297 512q0 -113 57 -211.5t154 -155.5t213 -57q85 0 161.5 32.5t136 92.5t92 137.5t32.5 161.5 q0 85 -33 163t-90.5 136.5t-135.5 91.5t-163 33q-86 0 -163 -32.5t-136.5 -92t-92 -136.5t-32.5 -163z" />
<glyph unicode="`" d="M190 733q0 23 16 38t38 15q15 0 41 -16q62 -93 135 -160t164 -115t191.5 -73t209.5 -25q217 0 400.5 96t302.5 277q20 16 38 16q22 0 38 -15t16 -38q0 -14 -6 -26q-132 -199 -339 -307.5t-450 -108.5q-162 0 -308.5 48t-269 142t-208.5 226q-9 12 -9 26z" />
<glyph unicode="a" d="M190 291q0 14 9 26q61 109 144 194t186 147t218 95t238 33q158 0 310.5 -58t276.5 -165t202 -246q6 -12 6 -26q0 -23 -16 -38t-38 -15q-20 0 -38 18q-75 112 -127.5 171.5t-141.5 119.5q-196 133 -434 133q-115 0 -226.5 -34.5t-207.5 -98.5q-64 -44 -107.5 -85.5 t-75 -84.5t-83.5 -121q-23 -18 -41 -18q-22 0 -38 15t-16 38z" />
<glyph unicode="b" d="M256 512q0 143 58 270t160.5 223.5t234 148.5t272.5 52h684q21 -3 35 -17t14 -36t-14 -36t-35 -17h-676q-122 0 -234.5 -43t-202 -123.5t-140 -189.5t-50.5 -232t50.5 -231.5t139.5 -188.5t204 -124t233 -44h676q21 -3 35 -17t14 -36t-14 -36t-35 -17h-684 q-142 0 -272.5 52.5t-234 149.5t-161 223.5t-57.5 268.5zM618 512q0 88 45.5 165.5t122.5 123t164 45.5q15 0 21 -2q7 0 11 -0.5t9 -1.5h674q22 -3 35.5 -17.5t13.5 -36.5q0 -20 -14 -35t-35 -18h-684q-3 1 -6 1.5t-8 0.5q-6 2 -17 2q-93 0 -159 -68.5t-66 -158.5 q0 -61 30.5 -112.5t83 -83t111.5 -31.5q4 1 7.5 1.5t9.5 0.5q4 2 14 2h684q22 -3 35.5 -17.5t13.5 -35.5q0 -22 -13.5 -36.5t-35.5 -17.5h-674q-6 0 -10.5 -0.5t-10 -2t-20.5 -1.5q-87 0 -164 45.5t-122.5 123t-45.5 165.5z" />
<glyph unicode="c" d="M256 -129q0 21 14.5 35.5t34.5 17.5h676q120 0 234.5 44t203 124t139 188.5t50.5 231.5t-50.5 232t-139.5 189.5t-201 123.5t-236 43h-676q-20 3 -34.5 17.5t-14.5 35.5t14.5 35.5t34.5 17.5h684q141 0 273.5 -53.5t234 -147.5t159.5 -221.5t58 -271.5t-58 -271.5 t-159.5 -221.5t-234 -147.5t-273.5 -53.5h-684q-20 3 -34.5 17.5t-14.5 35.5zM256 236q0 20 14 35t35 18h684q10 0 17 -2q5 0 8 -0.5t6 -1.5q59 0 111.5 31.5t83 83t30.5 112.5t-30.5 112.5t-83 83t-111.5 31.5q-10 0 -14 -2q-6 0 -9.5 -0.5t-7.5 -1.5h-684 q-20 3 -34.5 18.5t-14.5 34.5q0 21 14 36t35 18h674q8 2 20 2q7 2 21 2q68 0 129 -26.5t106 -72.5t71 -106.5t26 -128.5q0 -88 -45.5 -165.5t-122.5 -123t-164 -45.5q-5 1 -9.5 1.5t-11.5 0.5q-6 2 -20 2h-674q-21 3 -35 18t-14 36z" />
<glyph unicode="d" horiz-adv-x="1706" d="M190 397v789q5 21 19 35t35 14q20 0 35 -14t18 -35v-780q0 -94 54.5 -162.5t139.5 -107.5t180.5 -56t180.5 -17q86 0 181.5 17t181 56.5t139 106.5t53.5 163v780q3 20 18.5 34.5t34.5 14.5q21 0 35.5 -14.5t17.5 -34.5v-789q0 -152 -103.5 -252t-256 -144t-301.5 -44 t-301.5 44t-256.5 143.5t-104 252.5zM553 528v658q3 20 18.5 34.5t34.5 14.5q21 0 35.5 -14.5t17.5 -34.5v-649q0 -58 62.5 -84.5t130.5 -26.5q69 0 130.5 26.5t61.5 86.5v647q5 21 19 35t35 14q20 0 35 -14t18 -35v-656q0 -105 -94.5 -158t-204.5 -53q-69 0 -138 22 t-115 69.5t-46 117.5z" />
<glyph unicode="e" horiz-adv-x="1706" d="M190 6v789q0 117 61.5 202.5t163.5 138.5t216.5 76t220.5 23q149 0 301.5 -44t256 -144t103.5 -252v-789q-3 -20 -17.5 -34.5t-35.5 -14.5q-19 0 -34.5 14.5t-18.5 34.5v780q0 97 -52.5 163t-139 106t-179.5 56.5t-184 16.5q-90 0 -183 -16.5t-179 -56t-139.5 -107 t-53.5 -162.5v-780q-3 -21 -18 -35t-35 -14q-21 0 -35 14t-19 35zM553 6v656q0 71 46 118.5t115 69.5t138 22q112 0 205.5 -52t93.5 -156v-658q-3 -21 -18 -35t-35 -14q-21 0 -35 14t-19 35v649q0 60 -61.5 85.5t-130.5 25.5t-131 -27t-62 -86v-647q-3 -20 -17.5 -34.5 t-35.5 -14.5q-19 0 -34.5 14.5t-18.5 34.5z" />
<glyph unicode="f" horiz-adv-x="1923" d="M256 10q0 21 14.5 35.5t34.5 17.5q173 18 293 126t187 266t94.5 334t27.5 344q3 21 18 35t36 14q20 0 35 -14t18 -35q0 -167 27 -340.5t95 -334.5t187 -268.5t293 -126.5q20 -3 34.5 -17.5t14.5 -35.5q0 -24 -17 -38.5t-40 -14.5q-259 28 -419 220t-228 474 q-32 -134 -85 -250t-131.5 -211t-188.5 -157t-243 -76q-23 0 -40 14.5t-17 38.5z" />
<glyph unicode="g" horiz-adv-x="1923" d="M256 1128q0 24 16.5 39t40.5 15q133 -13 243.5 -75.5t188 -156.5t131 -212t85.5 -251q68 282 228.5 475.5t418.5 219.5q23 0 40 -15t17 -39q0 -19 -14.5 -34.5t-34.5 -18.5q-171 -17 -291.5 -125t-188.5 -269t-95 -333.5t-27 -341.5q-3 -21 -18 -35t-35 -14q-21 0 -36 14 t-18 35q0 167 -27.5 343.5t-94 334t-186 266t-294.5 125.5q-20 3 -34.5 18.5t-14.5 34.5z" />
<glyph unicode="h" d="M190 10q0 11 13 37l702 643l-702 643q-13 22 -13 35q0 23 16 38t38 15q17 0 39 -16l1484 -1358q13 -22 13 -37q0 -21 -16 -37t-38 -16q-18 0 -38 16l-703 643l-702 -643q-22 -16 -39 -16q-22 0 -38 16t-16 37z" />
<glyph unicode="i" d="M190 10q0 11 13 37l1485 1358q20 16 38 16q22 0 38 -15t16 -38q0 -16 -13 -35l-702 -643l702 -643q13 -22 13 -37q0 -21 -16 -37t-38 -16q-18 0 -38 16l-703 643l-702 -643q-22 -16 -39 -16q-22 0 -38 16t-16 37z" />
<glyph unicode="j" d="M256 -78q0 21 14.5 35.5t34.5 17.5h1360q21 -3 35 -17t14 -36q0 -20 -14 -35t-35 -18h-1360q-20 3 -34.5 18.5t-14.5 34.5zM256 -547q0 21 14.5 35.5t34.5 17.5h1360q21 -3 35 -17t14 -36q0 -20 -14 -35t-35 -18h-1360q-20 3 -34.5 18.5t-14.5 34.5zM256 1032 q0 193 100 351t267.5 249.5t357.5 91.5h684q21 -3 35 -17t14 -36t-14 -36t-35 -17h-676q-125 0 -237.5 -43.5t-200 -122t-138.5 -188t-51 -232.5q0 -124 51 -233.5t138 -187.5t202 -122.5t236 -44.5h676q21 -3 35 -17t14 -36t-14 -36t-35 -17h-684q-190 0 -357.5 91.5 t-267.5 250t-100 352.5z" />
<glyph unicode="k" d="M256 -78q0 21 14.5 35.5t34.5 17.5h1360q21 -3 35 -17t14 -36q0 -20 -14 -35t-35 -18h-1360q-20 3 -34.5 18.5t-14.5 34.5zM256 391q0 21 14.5 35.5t34.5 17.5h676q121 0 236.5 44t203 123.5t137.5 187t50 233.5q0 125 -50 232.5t-138 187t-201 123t-238 43.5h-676 q-20 3 -34.5 17.5t-14.5 35.5t14.5 35.5t34.5 17.5h684q142 0 274.5 -52.5t233.5 -146t159 -221t58 -272.5t-58.5 -273t-159 -222t-233 -146.5t-274.5 -52.5h-684q-20 3 -34.5 17.5t-14.5 35.5zM256 -547q0 21 14.5 35.5t34.5 17.5h1360q21 -3 35 -17t14 -36q0 -20 -14 -35 t-35 -18h-1360q-20 3 -34.5 18.5t-14.5 34.5z" />
<glyph unicode="l" d="M190 279q0 42 50 53h1491q21 -5 35 -19t14 -34q0 -22 -14.5 -36.5t-34.5 -17.5h-1491q-50 7 -50 54zM190 748q0 42 50 53h399q15 84 64 151t123.5 105.5t158.5 38.5t158.5 -38.5t124.5 -107t63 -149.5h400q21 -5 35 -19t14 -34q0 -22 -14.5 -36.5t-34.5 -17.5h-453 q-43 6 -49 49q0 102 -71 174t-173 72q-100 0 -172 -72t-72 -174q-6 -43 -49 -49h-452q-50 7 -50 54z" />
<glyph unicode="m" d="M190 279q0 42 50 53h452q43 -9 49 -49q0 -102 72 -175t172 -73q102 0 173 73t71 175q6 39 49 49h453q21 -5 35 -19t14 -34q0 -22 -14.5 -36.5t-34.5 -17.5h-400q-13 -82 -63.5 -151t-124.5 -107.5t-158 -38.5t-158 38.5t-123.5 106t-64.5 152.5h-399q-50 7 -50 54z M190 748q0 42 50 53h399q15 84 64 151t123.5 105.5t158.5 38.5t158.5 -38.5t124.5 -107t63 -149.5h400q21 -5 35 -19t14 -34q0 -22 -14.5 -36.5t-34.5 -17.5h-453q-43 6 -49 49q0 102 -71 174t-173 72q-100 0 -172 -72t-72 -174q-6 -43 -49 -49h-452q-50 7 -50 54z" />
<glyph unicode="n" horiz-adv-x="3299" d="M190 512q0 30 27 47l1286 705q12 6 27 6q23 0 38 -16t15 -37q0 -32 -27 -46l-1202 -659l1202 -659q27 -14 27 -46q0 -21 -15 -37t-38 -16q-15 0 -27 6l-1286 707q-27 13 -27 45zM952 512q0 30 27 47l1286 705q12 6 27 6q21 0 37 -16t16 -37q0 -32 -27 -46l-1202 -659 l1202 -659q27 -14 27 -46q0 -21 -16 -37t-37 -16q-15 0 -27 6l-1286 707q-27 13 -27 45zM1714 512q0 31 27 47l1286 705q12 6 27 6q21 0 37 -16t16 -37q0 -32 -27 -46l-1202 -659l1202 -659q27 -14 27 -46q0 -21 -16 -37t-37 -16q-15 0 -27 6l-1286 707q-27 13 -27 45z" />
<glyph unicode="o" horiz-adv-x="3299" d="M190 -193q0 31 27 46l1251 659l-1251 659q-27 15 -27 46q0 21 16 37t38 16q14 0 26 -6l1340 -705q26 -16 26 -47q0 -32 -26 -45l-1346 -709q-6 -4 -20 -4q-22 0 -38 16t-16 37zM926 -193q0 31 26 46l1252 659l-1252 659q-26 15 -26 46q0 21 15 37t38 16q13 0 27 -6 l1339 -705q27 -17 27 -47q0 -31 -27 -45l-1346 -709q-6 -4 -20 -4q-23 0 -38 16t-15 37zM1661 -193q0 32 27 46l1251 659l-1251 659q-27 14 -27 46q0 21 16 37t37 16q15 0 27 -6l1339 -705q27 -16 27 -47q0 -32 -27 -45l-1345 -709q-6 -4 -21 -4q-21 0 -37 16t-16 37z" />
<glyph unicode="p" horiz-adv-x="1307" d="M190 545v827q8 43 50 49h827q21 -3 35 -17t14 -36t-14 -36t-35 -17h-770v-770q-3 -23 -17.5 -36t-35.5 -13q-46 0 -54 49z" />
<glyph unicode="q" horiz-adv-x="1307" d="M190 1368q0 21 14.5 35.5t35.5 17.5h827q43 -6 49 -49v-827q-7 -49 -53 -49t-53 49v770h-770q-21 3 -35.5 17.5t-14.5 35.5z" />
<glyph unicode="r" horiz-adv-x="2066" d="M123 518q0 245 123 456t332.5 333.5t455.5 122.5q245 0 454.5 -123t332.5 -333.5t123 -455.5q0 -246 -122.5 -455.5t-332.5 -332.5t-455 -123q-246 0 -456 122.5t-332.5 332.5t-122.5 456zM229 518q0 -217 108.5 -402.5t294 -294t402.5 -108.5q162 0 308.5 62.5t258 174 t174 258t62.5 310.5q0 165 -62.5 311.5t-174 258t-257 173.5t-309.5 62t-310.5 -62.5t-257.5 -173.5t-174 -258.5t-63 -310.5zM494 0v76q66 0 99.5 11t33.5 58v705q0 48 -33.5 59t-99.5 11v75h491q67 0 143.5 -15.5t146.5 -47t115.5 -83t45.5 -122.5q0 -86 -72 -146 t-168 -89q115 -61 147 -177l29 -125q14 -65 35.5 -105t69.5 -40q41 0 62.5 32.5t21.5 74.5q0 11 9 18.5t19 7.5h27q13 0 21 -11t8 -24q0 -46 -23 -85.5t-61.5 -63t-81.5 -23.5q-78 0 -143.5 20t-108.5 68t-43 123v125q0 50 -30 84.5t-76 52t-95 17.5h-205v-316 q0 -47 33.5 -58t99.5 -11v-76q-33 0 -103 4t-106 4q-35 0 -105 -4t-103 -4zM778 535h185q85 0 145.5 12.5t99.5 55.5t39 124t-39 124t-99.5 56t-145.5 13h-119q-42 0 -54 -13t-12 -57v-315z" />
<glyph unicode="s" horiz-adv-x="1970" d="M76 518q0 245 123 456t332.5 333.5t455.5 122.5t454.5 -122.5t331.5 -333.5t123 -456q0 -246 -122.5 -456t-331.5 -332.5t-455 -122.5t-456 122.5t-332.5 332.5t-122.5 456zM182 518q0 -217 108.5 -402.5t294 -294t402.5 -108.5q161 0 309 63t258 174t173 258.5t63 309.5 q0 163 -63 310.5t-173 258.5t-257 173.5t-310 62.5q-164 0 -310.5 -62.5t-257.5 -173.5t-174 -258.5t-63 -310.5zM606 -4v309q6 20 27 25h33q18 -5 24 -25q0 -136 99 -197t243 -61q57 0 112.5 25t89.5 69.5t34 102.5q0 47 -24 86.5t-63.5 66t-86.5 37.5l-234 49 q-110 27 -182 95t-72 172q0 83 49 145t126 95.5t157 33.5q77 0 144.5 -21t119.5 -65l62 78q3 3 18 8h12q20 -5 25 -25v-307q-5 -21 -25 -26h-32q-22 5 -27 26q-9 83 -48 141.5t-103.5 89.5t-145.5 31q-52 0 -106.5 -21t-90.5 -62t-36 -97q0 -64 50 -109.5t119 -62.5l234 -49 q70 -17 129.5 -56t94 -98.5t34.5 -132.5q0 -85 -47.5 -153t-124.5 -105t-160 -37q-201 0 -311 86l-61 -77q-4 -4 -19 -9h-10q-21 5 -27 25z" />
<glyph unicode="t" horiz-adv-x="1706" d="M190 6v694q0 138 96.5 226.5t236.5 127t278 38.5v376q3 21 17.5 35.5t35.5 14.5t35.5 -14.5t17.5 -35.5v-376q99 0 203 -20.5t197 -66.5t151 -123t58 -182v-694q-3 -19 -18 -34t-36 -15q-19 0 -34.5 14.5t-18.5 34.5v686q0 82 -50 140t-127.5 90.5t-164 46.5t-160.5 14 v-977q-3 -20 -17.5 -34.5t-35.5 -14.5t-35.5 14.5t-17.5 34.5v977q-109 0 -224.5 -26.5t-197.5 -92t-82 -172.5v-686q-3 -21 -18 -35t-35 -14q-21 0 -35 14t-19 35z" />
<glyph unicode="u" d="M190 512q0 21 14.5 35.5t35.5 17.5h694v695q3 20 17.5 34.5t35.5 14.5t35.5 -14.5t17.5 -34.5v-695h693q20 -3 34.5 -17.5t14.5 -35.5t-14.5 -35.5t-34.5 -17.5h-693v-695q-3 -20 -17.5 -34.5t-35.5 -14.5t-35.5 14.5t-17.5 34.5v695h-694q-21 3 -35.5 17.5t-14.5 35.5z M854 1614v10q0 51 37 86.5t90 40.5h12q53 -5 90 -40.5t37 -86.5v-10q0 -53 -37 -88.5t-90 -40.5h-12q-53 5 -90 40.5t-37 88.5z" />
<glyph unicode="v" d="M190 713v24q10 62 37 62q30 0 37 -62q0 -93 41 -176.5t115 -134.5t168 -51q104 0 188 52t202 158t206.5 160t199.5 54q119 0 210 -72t139.5 -184.5t48.5 -229.5v-24q-6 -64 -37 -64t-37 64q0 92 -41 175t-115 134t-168 51q-106 0 -186.5 -51t-202 -159t-209.5 -161 t-198 -53q-119 0 -210 72t-139.5 185t-48.5 231z" />
<glyph unicode="w" d="M190 43q0 42 50 53h1493q49 -11 49 -53q0 -22 -15 -36t-34 -17h-1493q-50 7 -50 53zM190 946v25q10 61 37 61q30 0 37 -61q0 -85 44.5 -156t121 -112t160.5 -41q102 0 187 46.5t204 138t208 138.5t195 47q112 0 203 -60.5t143 -160t52 -211.5v-25q-6 -63 -37 -63t-37 63 q0 86 -44.5 156t-121 111t-160.5 41q-101 0 -186.5 -47t-204.5 -138t-207.5 -138.5t-195.5 -47.5q-112 0 -203 60.5t-143 161t-52 212.5z" />
<glyph unicode="x" horiz-adv-x="1307" d="M190 6v828q5 22 18.5 35.5t35.5 13.5q21 0 35.5 -13.5t17.5 -35.5v-771h770q21 -3 35 -17t14 -36q0 -20 -14 -35t-35 -18h-827q-42 6 -50 49z" />
<glyph unicode="y" horiz-adv-x="1307" d="M190 10q0 21 14.5 35.5t35.5 17.5h770v771q3 21 17 35t36 14t36 -14t17 -35v-828q-7 -43 -49 -49h-827q-21 3 -35.5 18.5t-14.5 34.5z" />
<glyph unicode="z" horiz-adv-x="2103" d="M299 203v1016q0 5 3.5 10.5t10 8.5t13.5 3q18 0 24 -16q46 -119 108 -205.5t148 -151t192 -98t228 -33.5q0 125 -33 229.5t-96.5 190t-153 149.5t-204.5 107q-17 6 -17 25q0 9 6.5 17.5t16.5 8.5h1016q10 0 16 -7.5t6 -18.5q0 -19 -16 -25q-117 -44 -205 -107 t-151.5 -147.5t-97.5 -192t-34 -229.5q122 0 229.5 34t192 97.5t147.5 151.5t107 205q6 16 25 16q10 0 18 -6t8 -16v-1016q0 -10 -8.5 -16.5t-17.5 -6.5q-19 0 -25 17q-43 115 -106.5 204.5t-149.5 153t-190.5 96.5t-229.5 33q0 -122 33.5 -228t98 -192t151 -148t205.5 -108 q16 -6 16 -24q0 -10 -6.5 -18.5t-15.5 -8.5h-1016q-9 0 -16 9t-7 18q0 18 17 24q117 45 205 108t152.5 149.5t97 190t32.5 228.5q-125 0 -228.5 -32.5t-190 -97t-149.5 -152.5t-108 -205q-6 -17 -24 -17q-9 0 -18 7t-9 16z" />
<glyph unicode="{" horiz-adv-x="1307" d="M190 297v1096q0 111 69.5 188t175.5 114.5t214 37.5h10q81 0 161 -20.5t148 -62t109 -106.5t41 -151v-277q-5 -42 -31.5 -69.5t-68.5 -30.5h-10q-43 3 -70.5 30.5t-32.5 69.5v277q0 65 -84.5 96t-165.5 31q-88 0 -170 -32.5t-82 -105.5v-1085q0 -66 85.5 -96.5 t166.5 -30.5q87 0 168.5 32.5t81.5 104.5v266q5 43 32.5 70.5t70.5 30.5h10q42 -3 68.5 -30.5t31.5 -70.5v-276q0 -85 -40.5 -149.5t-111.5 -107.5t-151.5 -63t-155.5 -20h-10q-108 0 -214 37.5t-175.5 114.5t-69.5 188z" />
<glyph unicode="|" horiz-adv-x="1440" d="M190 772v10q6 44 32.5 70t68.5 31h860q42 -5 68.5 -31.5t31.5 -69.5v-10q-5 -43 -31.5 -70t-68.5 -32h-324v-1006q-5 -42 -31.5 -69.5t-68.5 -30.5h-10q-43 3 -70 30.5t-33 69.5v1006h-323q-42 5 -68.5 32t-32.5 70z" />
<glyph unicode="}" d="M190 512q0 162 62 308t173 256.5t254.5 171.5t307.5 61q163 0 307 -61.5t254.5 -172t172 -255.5t61.5 -308t-61.5 -307t-171 -254.5t-256.5 -173t-306 -62.5q-160 0 -306.5 62.5t-256.5 172.5t-172 255t-62 307zM274 512q0 -193 96.5 -357t259.5 -260t357 -96 q145 0 274 55.5t228 154.5t154 229t55 274q0 145 -55.5 275.5t-153.5 229t-228 153.5t-274 55q-194 0 -357 -96t-259.5 -260t-96.5 -357zM655 514q0 86 45 162.5t122.5 122t164.5 45.5q67 0 126 -25.5t105.5 -72t72.5 -106t26 -126.5q0 -87 -45.5 -164.5t-122 -122.5 t-162.5 -45q-87 0 -164 45.5t-122.5 122.5t-45.5 164zM762 514q0 -60 30.5 -112t82.5 -82.5t112 -30.5q89 0 156 66t67 159q0 60 -30.5 111t-81.5 81.5t-111 30.5q-93 0 -159 -67t-66 -156z" />
<glyph unicode="~" d="M190 512q0 162 62 308t173 256.5t254.5 171.5t307.5 61q163 0 307 -61.5t254.5 -172t172 -255.5t61.5 -308t-61.5 -307t-171 -254.5t-256.5 -173t-306 -62.5q-160 0 -306.5 62.5t-256.5 172.5t-172 255t-62 307zM274 512q0 -193 96.5 -357t259.5 -260t357 -96 q145 0 274 55.5t228 154.5t154 229t55 274q0 145 -55.5 275.5t-153.5 229t-228 153.5t-274 55q-194 0 -357 -96t-259.5 -260t-96.5 -357zM547 326q0 45 39 61l313 125l-313 125q-39 16 -39 61q0 28 21 51t50 23q20 0 33 -10l295 -187l-31 308v6q0 28 21.5 46.5t50.5 18.5 q28 0 49 -18.5t21 -46.5v-6l-31 -308l297 187q10 10 31 10q29 0 50 -23t21 -51q0 -45 -39 -61l-313 -125l313 -125q39 -16 39 -61q0 -28 -21 -51t-50 -23q-21 0 -31 10l-297 187l31 -308v-6q0 -26 -21.5 -44.5t-48.5 -18.5t-49.5 18.5t-22.5 44.5v6l31 308l-295 -187 q-12 -10 -33 -10q-29 0 -50 23t-21 51z" />
<glyph unicode="&#xa1;" d="M190 49v1534q8 43 50 49h1491q43 -7 49 -49v-1534q-7 -42 -49 -49h-1491q-42 6 -50 49zM297 106h1376v1420h-1376v-1420zM858 817q0 35 17 64t46 46t64 17t64 -17t46 -46t17 -64q0 -52 -37.5 -89.5t-89.5 -37.5t-89.5 37.5t-37.5 89.5z" />
<glyph unicode="&#xa2;" d="M190 49v1534q8 43 50 49h1491q43 -7 49 -49v-1534q-7 -42 -49 -49h-1491q-42 6 -50 49zM297 106h635v658h-635v-658zM297 870h635v656h-635v-656zM1038 106h635v658h-635v-658zM1038 870h635v656h-635v-656z" />
<glyph unicode="&#xa3;" d="M190 49v1534q8 43 50 49h1491q43 -7 49 -49v-1534q-7 -42 -49 -49h-1491q-42 6 -50 49zM297 184l612 633l-612 631v-1264zM371 106h1228l-614 633zM371 1526l614 -633l614 633h-1228zM1061 817l612 -633v1264z" />
<glyph unicode="&#xa4;" d="M190 49v1534q8 43 50 49h1491q43 -7 49 -49v-1534q-7 -42 -49 -49h-1491q-42 6 -50 49zM297 106h1376v1420h-1376v-1420z" />
<glyph unicode="&#xa5;" d="M190 49v1534q8 43 50 49h1491q43 -7 49 -49v-1534q-7 -42 -49 -49h-1491q-42 6 -50 49z" />
<glyph unicode="&#xa6;" horiz-adv-x="776" d="M190 49v340q8 43 50 49h297q43 -7 49 -49v-340q-7 -42 -49 -49h-297q-42 6 -50 49z" />
<glyph unicode="&#xa7;" horiz-adv-x="1706" d="M190 578q0 13 15 36l608 834q20 16 39 16q17 0 41 -16l608 -834q12 -24 12 -36q0 -15 -12 -35l-608 -836q-24 -16 -41 -16q-19 0 -39 16l-608 836q-15 19 -15 35zM309 578l543 -744l543 744l-543 743z" />
<glyph unicode="&#xa8;" horiz-adv-x="1706" d="M190 578q0 13 15 36l608 834q20 16 39 16q17 0 41 -16l608 -834q12 -24 12 -36q0 -15 -12 -35l-608 -836q-24 -16 -41 -16q-19 0 -39 16l-608 836q-15 19 -15 35z" />
<glyph unicode="&#xa9;" d="M190 512q0 121 37.5 238t105 215t162.5 173.5t207 118.5q-124 55 -217 148l84 25q100 -100 240 -142q77 21 174 21q19 0 32 -11.5t13 -29.5q0 -36 -39 -43q-25 0 -69 -4q-76 -59 -127.5 -139t-73.5 -173l-84 -24q33 140 119 260l-11 37q-137 -51 -244.5 -152.5t-166 -237 t-58.5 -280.5q0 -144 54.5 -273t155.5 -230t228.5 -155.5t272.5 -54.5t274 55.5t228 154.5t154 229t55 274q0 102 -28 198.5t-79.5 179t-123.5 149.5t-162 110q-29 14 -29 41q0 16 11.5 29.5t29.5 13.5q8 0 24 -8q132 -65 232.5 -176.5t154.5 -250t54 -286.5 q0 -162 -61.5 -306t-171.5 -255t-256.5 -173.5t-305.5 -62.5t-305 62t-256 173t-172 256t-62 306z" />
<glyph unicode="&#xaa;" d="M190 512q0 148 54 286.5t154.5 250t232.5 176.5q16 8 24 8q18 0 29.5 -12.5t11.5 -30.5q0 -27 -28 -41q-119 -59 -208 -158t-137.5 -223.5t-48.5 -255.5q0 -144 54.5 -273t155.5 -230t228.5 -155.5t272.5 -54.5t274 55.5t228 154.5t154 229t55 274q0 145 -58.5 280.5 t-166 237t-244.5 152.5l-10 -37q29 -42 50.5 -82t39.5 -88t28 -90l-84 24q-21 91 -72.5 172t-127.5 140q-46 4 -68 4q-39 7 -39 43q0 18 13 29.5t32 11.5q95 0 172 -21q140 42 240 142l84 -25q-94 -94 -217 -148q113 -43 208.5 -119t163 -175.5t104 -214.5t36.5 -236 q0 -162 -61.5 -306t-171.5 -255t-256.5 -173.5t-305.5 -62.5t-305 62t-256 173t-172 256t-62 306z" />
<glyph unicode="&#xad;" horiz-adv-x="2503" d="M190 279v53h2067q24 0 38.5 -15.5t14.5 -37.5q0 -24 -15 -39t-38 -15h-1823q135 -117 199 -288h-88q-36 75 -89 140t-120.5 116t-145.5 86zM190 748q0 20 15.5 36.5t38.5 16.5h1822q-133 113 -198 286h88q55 -114 147 -202t207 -137v-54h-2066q-22 0 -38 16t-16 38z" />
<glyph unicode="&#xae;" horiz-adv-x="2503" d="M190 279q0 20 15.5 36.5t38.5 16.5h2066v-53q-115 -50 -208 -140t-146 -202h-88q64 172 198 288h-1822q-22 0 -38 16t-16 38zM190 694v54q117 49 208.5 137t146.5 202h88q-28 -78 -79.5 -153t-119.5 -133h1823q24 0 38.5 -15.5t14.5 -37.5q0 -24 -15 -39t-38 -15h-2067z " />
<glyph unicode="&#xaf;" d="M190 49v1534q8 43 50 49h1491q43 -7 49 -49v-1534q-7 -42 -49 -49h-1491q-42 6 -50 49zM297 106h1376v658h-1376v-658zM297 870h1376v656h-1376v-656z" />
<glyph unicode="&#xb0;" horiz-adv-x="1839" d="M190 49v1323q5 22 18.5 35.5t35.5 13.5q21 0 35.5 -13.5t17.5 -35.5v-1323q-3 -21 -18 -35t-35 -14q-21 0 -35 14t-19 35zM659 49v1323q5 22 18.5 35.5t35.5 13.5q21 0 35.5 -13.5t17.5 -35.5v-608h831q22 -3 36 -18t14 -35q0 -21 -14 -35t-36 -19h-831v-608 q-3 -21 -18 -35t-35 -14q-21 0 -35 14t-19 35z" />
<glyph unicode="&#xb1;" horiz-adv-x="2236" d="M190 49v1323q5 22 18.5 35.5t35.5 13.5q21 0 35.5 -13.5t17.5 -35.5v-1323q-3 -21 -18 -35t-35 -14q-21 0 -35 14t-19 35zM633 49v1323q3 21 17 35t36 14t36 -14t17 -35v-1323q-3 -20 -17.5 -34.5t-35.5 -14.5t-35.5 14.5t-17.5 34.5zM1075 49v1323q3 21 18 35t35 14 q22 0 36.5 -13.5t17.5 -35.5v-608h815q21 -3 35 -18t14 -35q0 -21 -14 -35t-35 -19h-815v-608q-3 -21 -18 -35t-36 -14q-19 0 -34.5 14.5t-18.5 34.5z" />
<glyph unicode="&#xb2;" horiz-adv-x="1573" d="M190 49v1323q5 22 18.5 35.5t35.5 13.5q21 0 35.5 -13.5t17.5 -35.5v-373h1036q49 -11 49 -53q0 -23 -14.5 -36.5t-34.5 -16.5h-1036v-363h1036q49 -11 49 -53q0 -23 -14.5 -36.5t-34.5 -16.5h-1036v-375q-3 -21 -18 -35t-35 -14q-21 0 -35 14t-19 35z" />
<glyph unicode="&#xb3;" horiz-adv-x="2503" d="M190 512q0 23 15 38t39 15h1394q-47 42 -86 88t-70.5 96.5t-56.5 104.5h88q40 -87 105 -162t145 -127h318q-141 125 -213 289h88q53 -118 144 -206t210 -136q-117 -46 -209 -135t-145 -207h-88q72 164 213 289h-318q-83 -54 -147.5 -129t-102.5 -160h-88 q36 80 89.5 153.5t123.5 135.5h-1394q-22 0 -38 15t-16 38z" />
<glyph unicode="&#xb4;" horiz-adv-x="2503" d="M190 512q245 98 355 342h88q-72 -164 -213 -289h317q170 109 250 289h88q-72 -164 -213 -289h1395q24 0 38.5 -14t14.5 -39q0 -24 -15 -38.5t-38 -14.5h-1395q141 -125 213 -289h-88q-80 180 -250 289h-317q141 -125 213 -289h-88q-53 119 -145.5 207.5t-209.5 134.5z " />
<glyph unicode="&#xb5;" horiz-adv-x="2503" d="M190 170q118 48 209.5 136t145.5 206q-54 118 -145.5 207t-209.5 135q118 46 209.5 134t145.5 206h88q-23 -54 -55.5 -104.5t-72.5 -97t-85 -85.5h1837q24 0 38.5 -14.5t14.5 -38.5t-15 -38.5t-38 -14.5h-1837q141 -125 213 -289q-72 -164 -213 -289h1837q24 0 38.5 -14 t14.5 -39q0 -23 -14.5 -38t-38.5 -15h-1837q68 -59 123 -132.5t90 -154.5h-88q-54 118 -146.5 207t-208.5 133z" />
<glyph unicode="&#xb6;" horiz-adv-x="2503" d="M190 170q0 23 15 38t39 15h1837q-141 125 -213 289q72 164 213 289h-1837q-22 0 -38 15t-16 38q0 22 15.5 37.5t38.5 15.5h1837q-68 59 -120.5 129t-92.5 158h88q53 -117 144.5 -205.5t209.5 -134.5q-118 -46 -209.5 -135.5t-144.5 -206.5q53 -117 144.5 -205.5 t209.5 -136.5q-116 -44 -208.5 -133.5t-145.5 -206.5h-88q38 86 91.5 157t121.5 130h-1837q-23 0 -38.5 15.5t-15.5 37.5z" />
<glyph unicode="&#xb8;" horiz-adv-x="2103" d="M256 -12q188 -60 346 -199v1579q0 23 15 38t38 15t38.5 -14.5t15.5 -38.5v-1579q155 139 344 199q94 -29 180.5 -79.5t163.5 -119.5v1579q0 24 14.5 38.5t38.5 14.5t38.5 -14t14.5 -39v-1579q161 140 346 199v-88q-124 -42 -227 -119t-172 -178q-45 67 -107 124.5 t-134.5 101t-155.5 71.5q-83 -28 -154.5 -70.5t-134 -100.5t-109.5 -126q-71 104 -172.5 179.5t-226.5 117.5v88z" />
<glyph unicode="&#xb9;" horiz-adv-x="1108" d="M502 -344v1765h53q50 -117 138.5 -208.5t203.5 -145.5v-88q-172 62 -289 199v-1522q0 -24 -15 -38.5t-38 -14.5t-38 15t-15 38z" />
<glyph unicode="&#xba;" horiz-adv-x="1108" d="M502 -397v1765q0 23 14 38t39 15q24 0 38.5 -14t14.5 -39v-1522q117 137 289 199v-88q-115 -54 -204 -146t-138 -208h-53z" />
<glyph unicode="&#xbb;" horiz-adv-x="1108" d="M213 979v88q115 54 203.5 145.5t138.5 208.5h53v-1765q0 -24 -15 -38.5t-38 -14.5t-38 15t-15 38v1522q-117 -137 -289 -199z" />
<glyph unicode="&#xbc;" horiz-adv-x="1108" d="M213 -43v88q172 -62 289 -199v1522q0 23 14 38t39 15q24 0 38.5 -14t14.5 -39v-1765h-53q-34 78 -85 146t-115.5 120t-141.5 88z" />
<glyph unicode="&#xbd;" horiz-adv-x="2767" d="M231 170q36 80 89.5 153.5t123.5 135.5v106q-47 42 -86 88t-70.5 96.5t-56.5 104.5h88q82 -181 252 -289h1778q-139 121 -213 289h88q51 -118 142.5 -205.5t211.5 -136.5q-118 -47 -210.5 -135.5t-143.5 -206.5h-88q74 168 213 289h-1778q-168 -104 -252 -289h-88z" />
<glyph unicode="&#xbe;" horiz-adv-x="2767" d="M188 512q83 33 148.5 82t118.5 115t88 145h88q-74 -168 -213 -289h1777q171 108 252 289h88q-23 -54 -55.5 -105t-71.5 -96.5t-86 -87.5v-106q71 -62 124.5 -135t88.5 -154h-88q-82 185 -252 289h-1777q139 -121 213 -289h-88q-35 79 -88 145t-118.5 115t-148.5 82z" />
<glyph unicode="&#xbf;" horiz-adv-x="2503" d="M190 342q0 23 15 38t39 15h1837q-138 119 -213 287h88q53 -116 145 -204.5t209 -135.5q-117 -46 -209 -135t-145 -207h-88q72 164 213 289h-1837q-22 0 -38 15t-16 38zM190 1024q245 98 355 342h88q-72 -164 -213 -289h1837q24 0 38.5 -14t14.5 -39q0 -24 -15 -38.5 t-38 -14.5h-1837q141 -125 213 -289h-88q-53 119 -145.5 207.5t-209.5 134.5z" />
<glyph unicode="&#xc0;" horiz-adv-x="2503" d="M190 342q118 48 210 136.5t145 205.5h88q-72 -164 -213 -289h1837q24 0 38.5 -14t14.5 -39q0 -24 -15 -38.5t-38 -14.5h-1837q141 -125 213 -289h-88q-53 119 -145.5 207.5t-209.5 134.5zM190 1024q0 23 15 38t39 15h1837q-138 119 -213 287h88q53 -116 144 -204 t210 -136q-117 -46 -209 -135t-145 -207h-88q72 164 213 289h-1837q-22 0 -38 15t-16 38z" />
<glyph unicode="&#xc1;" horiz-adv-x="1307" d="M190 1137q245 98 355 342h88q-72 -164 -213 -289h643q23 0 38 -16t15 -37v-1084q0 -23 -15 -38t-38 -15t-38 16t-15 37v1030h-590q136 -116 213 -286h-88q-53 117 -145 204.5t-210 135.5z" />
<glyph unicode="&#xc2;" horiz-adv-x="1307" d="M190 53v1084q0 21 16 37t38 16h643q-141 125 -213 289h88q53 -118 144 -206t210 -136q-118 -48 -209.5 -135.5t-144.5 -204.5h-88q77 170 213 286h-590v-1030q0 -21 -16 -37t-37 -16q-22 0 -38 16t-16 37z" />
<glyph unicode="&#xc3;" horiz-adv-x="2503" d="M190 512q0 22 21 43l221 170q17 10 33 10q15 0 33 -10l409 -315l410 315q17 10 33 10q15 0 32 -10l207 -160h492q-141 125 -213 289h88q53 -118 144 -206t210 -136q-117 -46 -209 -135t-145 -207h-88q72 164 213 289h-514q-13 0 -37 16l-180 139l-410 -315 q-17 -10 -33 -10q-15 0 -33 10l-409 315l-189 -143q-15 -12 -32 -12q-22 0 -38 15t-16 38z" />
<glyph unicode="&#xc4;" d="M190 512q0 162 62 308t173 256.5t254.5 171.5t307.5 61q163 0 307 -61.5t254.5 -172t172 -255.5t61.5 -308t-61.5 -307t-171 -254.5t-256.5 -173t-306 -62.5q-160 0 -306.5 62.5t-256.5 172.5t-172 255t-62 307zM274 512q0 -193 96.5 -357t259.5 -260t357 -96 q145 0 274 55.5t228 154.5t154 229t55 274q0 145 -55.5 275.5t-153.5 229t-228 153.5t-274 55q-194 0 -357 -96t-259.5 -260t-96.5 -357zM588 514q0 34 39 41h719q17 -3 27.5 -13.5t10.5 -27.5q0 -35 -38 -43h-719q-39 7 -39 43z" />
<glyph unicode="&#x2000;" horiz-adv-x="1163" />
<glyph unicode="&#x2001;" horiz-adv-x="2327" />
<glyph unicode="&#x2002;" horiz-adv-x="1163" />
<glyph unicode="&#x2003;" horiz-adv-x="2327" />
<glyph unicode="&#x2004;" horiz-adv-x="775" />
<glyph unicode="&#x2005;" horiz-adv-x="581" />
<glyph unicode="&#x2006;" horiz-adv-x="387" />
<glyph unicode="&#x2007;" horiz-adv-x="387" />
<glyph unicode="&#x2008;" horiz-adv-x="290" />
<glyph unicode="&#x2009;" horiz-adv-x="465" />
<glyph unicode="&#x200a;" horiz-adv-x="129" />
<glyph unicode="&#x2010;" d="M190 -498q0 107 53.5 198.5t145 144.5t199.5 53q64 0 128 -20t119.5 -50.5t122.5 -75.5l74 -49q104 -69 182.5 -104t167.5 -35q121 0 222.5 77t101.5 195q7 62 37 62t37 -62v-24q0 -108 -54 -200t-145.5 -145t-198.5 -53q-93 0 -182 39.5t-188 106.5l-74 49 q-94 63 -177 101t-173 38q-78 0 -153 -33t-123 -95.5t-48 -141.5q-7 -64 -37 -64q-27 0 -37 64v24zM256 932q0 21 14.5 35.5t34.5 17.5q497 0 880.5 113t422.5 479q3 21 17 35t36 14q24 0 38.5 -17t14.5 -40q-28 -275 -232 -425.5t-511 -211.5q692 -138 743 -635 q0 -24 -14.5 -40.5t-38.5 -16.5q-20 0 -35 14t-18 35q-26 257 -243.5 387.5t-486.5 166.5t-573 36q-20 3 -34.5 17.5t-14.5 35.5z" />
<glyph unicode="&#x2011;" d="M190 -498q0 107 53.5 198.5t145 144.5t199.5 53q64 0 128 -20t119.5 -50.5t122.5 -75.5l74 -49q104 -69 182.5 -104t167.5 -35q121 0 222.5 77t101.5 195q7 62 37 62t37 -62v-24q0 -108 -54 -200t-145.5 -145t-198.5 -53q-93 0 -182 39.5t-188 106.5l-74 49 q-94 63 -177 101t-173 38q-78 0 -153 -33t-123 -95.5t-48 -141.5q-7 -64 -37 -64q-27 0 -37 64v24zM256 932q0 21 14.5 35.5t34.5 17.5q497 0 880.5 113t422.5 479q3 21 17 35t36 14q24 0 38.5 -17t14.5 -40q-28 -275 -232 -425.5t-511 -211.5q692 -138 743 -635 q0 -24 -14.5 -40.5t-38.5 -16.5q-20 0 -35 14t-18 35q-26 257 -243.5 387.5t-486.5 166.5t-573 36q-20 3 -34.5 17.5t-14.5 35.5z" />
<glyph unicode="&#x2012;" d="M190 -498q0 107 53.5 198.5t145 144.5t199.5 53q64 0 128 -20t119.5 -50.5t122.5 -75.5l74 -49q104 -69 182.5 -104t167.5 -35q121 0 222.5 77t101.5 195q7 62 37 62t37 -62v-24q0 -108 -54 -200t-145.5 -145t-198.5 -53q-93 0 -182 39.5t-188 106.5l-74 49 q-94 63 -177 101t-173 38q-78 0 -153 -33t-123 -95.5t-48 -141.5q-7 -64 -37 -64q-27 0 -37 64v24zM256 932q0 21 14.5 35.5t34.5 17.5q497 0 880.5 113t422.5 479q3 21 17 35t36 14q24 0 38.5 -17t14.5 -40q-28 -275 -232 -425.5t-511 -211.5q692 -138 743 -635 q0 -24 -14.5 -40.5t-38.5 -16.5q-20 0 -35 14t-18 35q-26 257 -243.5 387.5t-486.5 166.5t-573 36q-20 3 -34.5 17.5t-14.5 35.5z" />
<glyph unicode="&#x2013;" horiz-adv-x="1406" d="M190 -498q0 107 34.5 198.5t93.5 144.5t128 53q42 0 83 -20t76.5 -50.5t79.5 -75.5l47 -49q67 -69 117.5 -104t108.5 -35q78 0 143 77t65 195q5 62 24 62t24 -62v-24q0 -108 -35 -200t-93.5 -145t-127.5 -53q-60 0 -117.5 39.5t-121.5 106.5l-47 49q-61 63 -114.5 101 t-111.5 38q-50 0 -98.5 -33t-79 -95.5t-30.5 -141.5q-5 -64 -24 -64q-18 0 -24 64v24zM233 932q0 21 9 35.5t22 17.5q320 0 567 113t272 479q2 21 11 35t23 14q16 0 25 -17t9 -40q-18 -275 -149 -425.5t-329 -211.5q446 -138 478 -635q0 -24 -9 -40.5t-25 -16.5 q-13 0 -22.5 14t-11.5 35q-17 257 -157 387.5t-313 166.5t-369 36q-13 3 -22 17.5t-9 35.5z" />
<glyph unicode="&#x2014;" horiz-adv-x="2430" d="M190 -498q0 107 69 198.5t187 144.5t257 53q82 0 164.5 -20t154 -50.5t157.5 -75.5l96 -49q133 -69 234.5 -104t215.5 -35q156 0 287 77t131 195q9 62 47 62q39 0 48 -62v-24q0 -108 -69.5 -200t-187.5 -145t-256 -53q-119 0 -234 39.5t-242 106.5l-96 49 q-121 63 -227.5 101t-222.5 38q-101 0 -197.5 -33t-158.5 -95.5t-62 -141.5q-9 -64 -47 -64q-35 0 -48 64v24zM275 932q0 21 18.5 35.5t44.5 17.5q640 0 1134 113t544 479q4 21 22 35t47 14q31 0 49.5 -17t18.5 -40q-36 -275 -299 -425.5t-658 -211.5q891 -138 957 -635 q0 -24 -18.5 -40.5t-49.5 -16.5q-26 0 -45.5 14t-23.5 35q-33 257 -313 387.5t-626.5 166.5t-738.5 36q-26 3 -44.5 17.5t-18.5 35.5z" />
<glyph unicode="&#x202f;" horiz-adv-x="465" />
<glyph unicode="&#x205f;" horiz-adv-x="581" />
<glyph unicode="&#x2219;" horiz-adv-x="2103" d="M256 1036v88q121 40 223.5 116t175.5 181q75 -105 177.5 -181t220.5 -116q118 40 222 116.5t175 180.5q71 -103 175 -180t224 -117v-88q-185 59 -346 199v-1579q0 -24 -15 -38.5t-38 -14.5q-22 0 -37.5 14.5t-15.5 38.5v1579q-73 -65 -159 -116t-185 -83 q-189 60 -344 199v-1579q0 -24 -16.5 -38.5t-37.5 -14.5t-37 15t-16 38v1579q-158 -139 -346 -199z" />
<glyph unicode="&#xe000;" horiz-adv-x="885" d="M0 885h885v-885h-885v885z" />
</font>
</defs>
</svg>
