<?xml version="1.0" standalone="no"?>
<!DOCTYPE svg PUBLIC "-//W3C//DTD SVG 1.1//EN" "http://www.w3.org/Graphics/SVG/1.1/DTD/svg11.dtd" >
<svg xmlns="http://www.w3.org/2000/svg">
<metadata>
This is a custom SVG webfont generated by Font Squirrel.
Copyright   : Copyright C 1994 1995 Basil K Malyshev All Rights Reserved012BaKoMa Fonts Collection LevelC
</metadata>
<defs>
<font id="msbm10Regular" horiz-adv-x="1591" >
<font-face units-per-em="2048" ascent="1638" descent="-410" />
<missing-glyph horiz-adv-x="614" />
<glyph unicode=" "  horiz-adv-x="614" />
<glyph unicode="&#x09;" horiz-adv-x="614" />
<glyph unicode="&#xa0;" horiz-adv-x="614" />
<glyph unicode="!" d="M170 158q0 15 11 28t28 13h397l144 215q9 12 30 12q18 0 29.5 -11t11.5 -30q0 -11 -6 -20l-110 -166h88q144 0 269 66t201 184.5t76 261.5q0 110 -44 203.5t-121 163t-174.5 106.5t-206.5 37h-584q-17 0 -28 12t-11 29q0 15 11 28t28 13h590q123 0 235.5 -44.5 t200.5 -125.5t137 -189t49 -233q0 -165 -86 -301.5t-229 -214.5t-307 -78h-150l-209 -316h903q16 0 26.5 -12t10.5 -29q0 -15 -10.5 -28t-26.5 -13h-958l-143 -215q-9 -12 -31 -12q-17 0 -29 13t-12 28q0 10 6 21l111 165h-78q-17 0 -28 13t-11 28q0 17 11 29t28 12h131 l211 316h-342q-17 0 -28 12t-11 29z" />
<glyph unicode="&#x22;" d="M170 0q0 15 11 28t28 13h332l145 326q-105 18 -199.5 69t-166.5 131t-111 177t-39 206q0 164 86 299.5t230 214t307 78.5h417l60 129q10 27 37 27q15 0 28 -13t13 -28q0 -12 -2 -17l-46 -98h84q16 0 26.5 -12t10.5 -29q0 -15 -10.5 -28t-26.5 -13h-120l-457 -1022h577 q16 0 26.5 -12t10.5 -29q0 -15 -10.5 -28t-26.5 -13h-614l-139 -315h753q16 0 26.5 -13t10.5 -28t-10.5 -28t-26.5 -13h-790l-141 -315h931q16 0 26.5 -13t10.5 -28q0 -17 -10.5 -29t-26.5 -12h-968l-94 -209q-11 -27 -37 -27q-17 0 -29 13t-12 28q0 12 2 17l80 178h-117 q-17 0 -28 12t-11 29q0 15 11 28t28 13h153l142 315h-295q-17 0 -28 13t-11 28zM252 950q0 -129 63 -239.5t172 -181.5t234 -87l455 1018h-377q-107 0 -205 -37t-176.5 -107.5t-122 -163t-43.5 -202.5z" />
<glyph unicode="#" d="M170 0q0 15 11 28t28 13h332l141 315h-473q-17 0 -28 13t-11 28q0 17 11 29t28 12h510l409 916q-146 106 -335 106h-584q-17 0 -28 13t-11 28q0 17 11 29t28 12h590q193 0 362 -110l109 239q10 27 37 27q15 0 28 -13t13 -28q0 -12 -2 -17l-117 -262q61 -54 103.5 -122 t65.5 -147.5t23 -158.5q0 -165 -86 -301.5t-229 -214.5t-307 -78h-29l-139 -315h753q16 0 26.5 -13t10.5 -28t-10.5 -28t-26.5 -13h-790l-141 -315h931q16 0 26.5 -13t10.5 -28q0 -17 -10.5 -29t-26.5 -12h-968l-94 -209q-11 -27 -37 -27q-17 0 -29 13t-12 28q0 12 2 17 l80 178h-117q-17 0 -28 12t-11 29q0 15 11 28t28 13h153l142 315h-295q-17 0 -28 13t-11 28zM807 438q104 0 200.5 40t171 109.5t117.5 164t43 198.5q0 97 -38 187t-109 161z" />
<glyph unicode="$" d="M170 -66q0 17 11 29t28 12h737l217 250q8 15 31 15q17 0 29 -12t12 -29q0 -16 -10 -29l-168 -195h327q16 0 26.5 -12t10.5 -29q0 -16 -10.5 -28t-26.5 -12h-399l-270 -316h669q16 0 26.5 -12t10.5 -29q0 -15 -10.5 -28t-26.5 -13h-739l-217 -252q-9 -12 -31 -12 q-15 0 -28 12t-13 29q0 16 11 27l168 196h-326q-17 0 -28 13t-11 28q0 17 11 29t28 12h397l271 316h-668q-17 0 -28 12t-11 28zM170 1016q0 164 86 299.5t230 214t307 78.5h591q16 0 26.5 -13t10.5 -28q0 -17 -10.5 -29t-26.5 -12h-585q-107 0 -205 -37t-176.5 -107.5 t-122 -163t-43.5 -202.5t43.5 -202.5t122 -163.5t176.5 -108.5t205 -37.5h585q16 0 26.5 -13t10.5 -28q0 -17 -10.5 -29t-26.5 -12h-591q-163 0 -307 78t-230 214t-86 302z" />
<glyph unicode="%" d="M170 -66q0 17 11 29t28 12h737l217 250q8 15 31 15q17 0 29 -12t12 -29q0 -16 -10 -29l-168 -195h327q16 0 26.5 -12t10.5 -29q0 -16 -10.5 -28t-26.5 -12h-399l-270 -316h669q16 0 26.5 -12t10.5 -29q0 -15 -10.5 -28t-26.5 -13h-739l-217 -252q-9 -12 -31 -12 q-15 0 -28 12t-13 29q0 16 11 27l168 196h-326q-17 0 -28 13t-11 28q0 17 11 29t28 12h397l271 316h-668q-17 0 -28 12t-11 28zM170 463q0 15 11 28t28 13h584q144 0 269 66t201 184.5t76 261.5q0 110 -44 203.5t-121 163t-174.5 106.5t-206.5 37h-584q-17 0 -28 12t-11 29 q0 15 11 28t28 13h590q123 0 235.5 -44.5t200.5 -125.5t137 -189t49 -233q0 -165 -86 -301.5t-229 -214.5t-307 -78h-590q-17 0 -28 12t-11 29z" />
<glyph unicode="&#x26;" d="M170 0q0 15 11 28t28 13h674l202 315h-292q-163 0 -307 78t-230 214t-86 302q0 164 86 299.5t230 214t307 78.5h591q16 0 26.5 -12t10.5 -29q0 -15 -10.5 -28t-26.5 -13h-585q-107 0 -205 -37t-176.5 -107.5t-122 -163t-43.5 -202.5t43.5 -202.5t122 -163.5t176.5 -108.5 t205 -37.5h340l137 215q9 13 31 13q15 0 28 -13t13 -28q0 -13 -7 -21l-106 -166h149q16 0 26.5 -12t10.5 -29q0 -15 -10.5 -28t-26.5 -13h-200l-203 -315h403q16 0 26.5 -13t10.5 -28t-10.5 -28t-26.5 -13h-456l-203 -315h659q16 0 26.5 -13t10.5 -28q0 -17 -10.5 -29 t-26.5 -12h-712l-137 -215q-10 -13 -31 -13q-17 0 -29 13t-12 28q0 12 6 21l106 166h-366q-17 0 -28 12t-11 29q0 15 11 28t28 13h418l202 315h-620q-17 0 -28 13t-11 28z" />
<glyph unicode="'" d="M170 0q0 15 11 28t28 13h303l129 315h-432q-17 0 -28 13t-11 28q0 17 11 29t28 12h467l82 203q11 25 39 25q14 0 27.5 -12.5t13.5 -28.5q0 -7 -4 -15l-70 -172h29q144 0 269 66t201 184.5t76 261.5q0 110 -44 203.5t-121 163t-174.5 106.5t-206.5 37h-584q-17 0 -28 13 t-11 28q0 17 11 29t28 12h590q123 0 235.5 -44.5t200.5 -125.5t137 -189t49 -233q0 -165 -86 -301.5t-229 -214.5t-307 -78h-70l-129 -315h784q16 0 26.5 -13t10.5 -28t-10.5 -28t-26.5 -13h-817l-129 -315h946q16 0 26.5 -13t10.5 -28q0 -17 -10.5 -29t-26.5 -12h-978 l-84 -203q-12 -25 -37 -25q-17 0 -29 13t-12 28q0 11 2 15l71 172h-108q-17 0 -28 12t-11 29q0 15 11 28t28 13h141l129 315h-270q-17 0 -28 13t-11 28z" />
<glyph unicode="(" d="M170 711q0 164 86 299.5t230 214t307 78.5h591q16 0 26.5 -13t10.5 -28q0 -17 -10.5 -29t-26.5 -12h-585q-107 0 -205 -37t-176.5 -107.5t-122 -163t-43.5 -202.5t43.5 -202.5t122 -163.5t176.5 -108.5t205 -37.5h585q16 0 26.5 -13t10.5 -28q0 -17 -10.5 -29t-26.5 -12 h-591q-163 0 -307 78t-230 214t-86 302zM211 -240q0 17 11 29t28 12h530l205 185q14 14 31 14q16 0 28.5 -11.5t12.5 -29.5q0 -14 -10 -29l-146 -129h483q16 0 26.5 -12t10.5 -29q0 -15 -10.5 -28t-26.5 -13h-573l-203 -186q-20 -12 -30 -12q-17 0 -29 12t-12 29q0 18 10 26 l143 131h-440q-17 0 -28 13t-11 28z" />
<glyph unicode=")" d="M170 158q0 15 11 28t28 13h584q144 0 269 66t201 184.5t76 261.5q0 110 -44 203.5t-121 163t-174.5 106.5t-206.5 37h-584q-17 0 -28 12t-11 29q0 15 11 28t28 13h590q123 0 235.5 -44.5t200.5 -125.5t137 -189t49 -233q0 -165 -86 -301.5t-229 -214.5t-307 -78h-590 q-17 0 -28 12t-11 29zM170 -240q0 17 11 29t28 12h567l168 185q8 14 31 14q16 0 28.5 -11.5t12.5 -29.5q0 -14 -10 -29l-117 -129h454q16 0 26.5 -12t10.5 -29q0 -15 -10.5 -28t-26.5 -13h-528l-166 -186q-12 -12 -31 -12q-16 0 -28 12t-12 29q0 18 10 26l114 131h-493 q-17 0 -28 13t-11 28z" />
<glyph unicode="*" d="M170 711q0 164 86 299.5t230 214t307 78.5h288l131 317q12 25 37 25q17 0 29 -12t12 -29q0 -11 -2 -15l-119 -286h215q16 0 26.5 -13t10.5 -28q0 -17 -10.5 -29t-26.5 -12h-249l-422 -1016q42 -6 86 -6h585q16 0 26.5 -13t10.5 -28q0 -17 -10.5 -29t-26.5 -12h-591 q-51 0 -113 10l-135 -326h839q16 0 26.5 -12t10.5 -29q0 -15 -10.5 -28t-26.5 -13h-874l-131 -315q-11 -25 -37 -25q-17 0 -29 13t-12 28q0 11 2 15l119 284h-172q-17 0 -28 13t-11 28q0 17 11 29t28 12h205l145 346q-125 39 -223 121.5t-152.5 197.5t-54.5 245zM252 711 q0 -112 50 -212.5t136.5 -172.5t192.5 -103l416 998h-248q-107 0 -205 -37t-176.5 -107.5t-122 -163t-43.5 -202.5z" />
<glyph unicode="+" d="M170 158q0 15 11 28t28 13h412l405 975q-116 47 -233 47h-584q-17 0 -28 12t-11 29q0 15 11 28t28 13h590q137 0 258 -56l155 373q12 25 37 25q17 0 29 -12t12 -29q0 -11 -2 -15l-158 -379q89 -53 154 -130t101 -173.5t36 -195.5q0 -165 -86 -301.5t-229 -214.5t-307 -78 h-123l-131 -316h798q16 0 26.5 -12t10.5 -29q0 -15 -10.5 -28t-26.5 -13h-833l-131 -315q-11 -25 -37 -25q-17 0 -29 13t-12 28q0 11 2 15l119 284h-213q-17 0 -28 13t-11 28q0 17 11 29t28 12h246l133 316h-379q-17 0 -28 12t-11 29zM709 199h84q144 0 269 66t201 184.5 t76 261.5q0 63 -17 125.5t-48.5 118t-74.5 100.5t-99 80z" />
<glyph unicode="," horiz-adv-x="1024" d="M-41 0q0 14 10 29l303 301v1169q0 16 13 26.5t28 10.5t28 -10.5t13 -26.5v-1087l316 317v770q0 16 12 26.5t29 10.5q14 0 27.5 -10.5t13.5 -26.5v-688l239 242q16 12 31 12q17 0 29 -12t12 -29q0 -15 -10 -27l-301 -303v-1169q0 -15 -13.5 -26t-27.5 -11q-17 0 -29 10.5 t-12 26.5v1087l-316 -317v-770q0 -16 -13 -26.5t-28 -10.5t-28 10.5t-13 26.5v688l-241 -242q-16 -12 -31 -12q-17 0 -29 12t-12 29z" />
<glyph unicode="-" horiz-adv-x="567" d="M-41 512q0 14 10 29l275 245v713q0 16 12 26.5t29 10.5q15 0 28 -10.5t13 -26.5v-637l211 191q16 12 30 12q18 0 29.5 -11t11.5 -30q0 -15 -10 -27l-272 -247v-1225q0 -16 -13 -26.5t-28 -10.5q-17 0 -29 10.5t-12 26.5v1151l-213 -191q-14 -14 -31 -14t-29 12t-12 29z " />
<glyph unicode="." horiz-adv-x="455" d="M-41 279q0 16 10 26l217 225v316q0 15 13 26t28 11q17 0 29 -11t12 -26v-232l154 160q12 12 31 12q17 0 29 -12t12 -29q0 -15 -11 -26l-215 -223v-504q0 -16 -12 -26.5t-29 -10.5q-15 0 -28 10.5t-13 26.5v420l-155 -162q-12 -12 -31 -12q-17 0 -29 12t-12 29z" />
<glyph unicode="/" horiz-adv-x="795" d="M-41 279q0 22 16 32l140 82v453q0 15 12 26t29 11q14 0 27.5 -11.5t13.5 -25.5v-406l401 238v168q0 14 13.5 25.5t27.5 11.5q15 0 28 -11t13 -26v-119l94 53q9 6 21 6q17 0 29 -12t12 -29q0 -22 -17 -32l-139 -82v-639q0 -16 -13 -26.5t-28 -10.5q-14 0 -27.5 10.5 t-13.5 26.5v592l-401 -238v-354q0 -15 -13.5 -26t-27.5 -11q-17 0 -29 10.5t-12 26.5v305l-92 -53q-13 -6 -23 -6q-17 0 -29 12t-12 29z" />
<glyph unicode="0" horiz-adv-x="1251" d="M-115 41q0 15 11 29l219 249v1065q0 16 12 26.5t29 10.5q15 0 28 -10.5t13 -26.5v-632h295l571 657q12 12 31 12q17 0 29 -12t12 -29q0 -19 -11 -26l-522 -602h496q15 0 26 -13t11 -28q0 -17 -11 -29t-26 -12h-568l-333 -383v-248q0 -17 -13 -28t-28 -11q-17 0 -29 11 t-12 28v154l-158 -179q-8 -14 -31 -14q-14 0 -27.5 11.5t-13.5 29.5zM197 414l223 256h-223v-256z" />
<glyph unicode="1" horiz-adv-x="1479" d="M-115 41q0 15 11 29l219 209v1105q0 16 12 26.5t29 10.5q15 0 28 -10.5t13 -26.5v-1028l315 303v725q0 16 12 26.5t29 10.5q15 0 28 -10.5t13 -26.5v-632h14l682 657q20 12 31 12q17 0 29 -12t12 -29q0 -18 -10 -26l-625 -602h598q16 0 26.5 -13t10.5 -28 q0 -17 -10.5 -29t-26.5 -12h-684l-47 -45v-586q0 -17 -13 -28t-28 -11q-17 0 -29 11t-12 28v506l-315 -303v-203q0 -17 -13 -28t-28 -11q-17 0 -29 11t-12 28v125l-158 -150q-14 -14 -31 -14q-14 0 -27.5 11.5t-13.5 29.5z" />
<glyph unicode="2" horiz-adv-x="1251" d="M-115 41q0 15 11 29l219 249v1065q0 16 12 26.5t29 10.5q15 0 28 -10.5t13 -26.5v-434h469l397 459q12 12 31 12q17 0 29 -12t12 -29q0 -19 -11 -26l-350 -404h324q15 0 26 -12t11 -29q0 -15 -11 -28t-26 -13h-396l-274 -315h670q15 0 26 -13t11 -28t-11 -28t-26 -13 h-742l-159 -184v-248q0 -17 -13 -28t-28 -11q-17 0 -29 11t-12 28v154l-158 -179q-8 -14 -31 -14q-14 0 -27.5 11.5t-13.5 29.5zM197 414l51 57h-51v-57zM197 553h122l275 315h-397v-315z" />
<glyph unicode="3" horiz-adv-x="1479" d="M-115 41q0 15 11 29l219 209v1105q0 16 12 26.5t29 10.5q15 0 28 -10.5t13 -26.5v-1028l315 303v725q0 16 12 26.5t29 10.5q15 0 28 -10.5t13 -26.5v-434h221l475 459q20 12 31 12q17 0 29 -12t12 -29q0 -18 -10 -26l-418 -404h391q16 0 26.5 -12t10.5 -29 q0 -15 -10.5 -28t-26.5 -13h-477l-254 -243v-72h731q16 0 26.5 -13t10.5 -28t-10.5 -28t-26.5 -13h-731v-432q0 -17 -13 -28t-28 -11q-17 0 -29 11t-12 28v506l-315 -303v-203q0 -17 -13 -28t-28 -11q-17 0 -29 11t-12 28v125l-158 -150q-14 -14 -31 -14q-14 0 -27.5 11.5 t-13.5 29.5zM594 739l135 129h-135v-129z" />
<glyph unicode="4" d="M170 156v1110q0 15 12 26t29 11q10 0 16 -3l693 -327l235 647q11 25 39 25q17 0 29 -12t12 -29q0 -7 -2 -9l-240 -657l404 -190q24 -12 24 -37q0 -26 -18 -35l-608 -287l-215 -588h804q16 0 26.5 -12t10.5 -29q0 -14 -10.5 -27.5t-26.5 -13.5h-833l-115 -315 q-11 -25 -39 -25q-15 0 -28 13t-13 28q0 7 2 9l105 290h-254q-16 0 -27.5 13.5t-11.5 27.5q0 17 11 29t28 12h285l194 537l-461 -217q-12 -4 -16 -4q-17 0 -29 11t-12 28zM252 223l477 226l164 446l-641 303v-975zM834 498l450 213l-317 149z" />
<glyph unicode="5" d="M170 -240q0 17 11 29t28 12h285l227 623l-524 248q-27 13 -27 39q0 25 20 34l781 369l184 506q11 25 39 25q17 0 29 -12t12 -29q0 -7 -2 -9l-156 -432l289 137q4 3 14 3q17 0 29 -11t12 -26v-1110q0 -17 -12 -28t-29 -11q-6 0 -14 4l-571 268l-215 -588h804 q16 0 26.5 -12t10.5 -29q0 -14 -10.5 -27.5t-26.5 -13.5h-833l-115 -315q-11 -25 -39 -25q-15 0 -28 13t-13 28q0 7 2 9l105 290h-254q-16 0 -27.5 13.5t-11.5 27.5zM307 711l441 -209l184 504zM823 467l516 -244v975l-303 -143z" />
<glyph unicode="6" d="M170 512q0 26 20 35l730 344l235 530q13 25 39 25q17 0 29 -12t12 -29q0 -6 -4 -14l-197 -447l332 158q4 2 14 2q17 0 29 -11t12 -26v-1110q0 -17 -12 -28t-29 -11q-6 0 -14 4l-651 307l-279 -626q-13 -25 -39 -25q-15 0 -28 13t-13 28q0 6 4 14l281 631l-444 209 q-27 13 -27 39zM307 512l367 -174l194 438zM748 303l591 -278v974l-356 -168z" />
<glyph unicode="7" d="M170 -43v1110q0 15 12 26t29 11q10 0 16 -2l650 -307l278 626q13 25 39 25q17 0 29 -12t12 -29q0 -6 -4 -14l-281 -631l447 -211q24 -10 24 -37q0 -26 -18 -35l-731 -346l-236 -528q-13 -25 -39 -25q-15 0 -28 13t-13 28q0 6 4 14l197 445l-330 -156q-12 -4 -16 -4 q-17 0 -29 11t-12 28zM252 25l356 168l236 528l-592 278v-974zM721 246l563 266l-366 172z" />
<glyph unicode="8" horiz-adv-x="2048" d="M115 512q104 53 184.5 143t120.5 199h72q-19 -52 -51 -108.5t-70.5 -104t-83.5 -88.5h714l220 328q3 7 12 10.5t18 3.5q18 0 29.5 -11t11.5 -30q0 -12 -6 -23l-186 -278h790q18 0 29.5 -11t11.5 -30q0 -18 -12 -29.5t-29 -11.5h-846l-219 -328q-7 -14 -30 -14 q-18 0 -29.5 13.5t-11.5 27.5q0 12 6 23l186 278h-659q71 -65 123 -141.5t82 -159.5h-72q-39 108 -120 198.5t-185 143.5z" />
<glyph unicode="9" horiz-adv-x="2048" d="M115 512q0 17 11 29t30 12h845l220 328q3 7 12 10.5t18 3.5q18 0 29.5 -11t11.5 -30q0 -12 -6 -23l-186 -278h659q-45 41 -83.5 88.5t-70.5 104t-51 108.5h72q43 -112 121.5 -199.5t183.5 -142.5q-105 -55 -184 -143t-121 -199h-72q33 88 85 163.5t120 137.5h-715 l-219 -328q-7 -14 -30 -14q-18 0 -29.5 13.5t-11.5 27.5q0 12 6 23l186 278h-790q-17 0 -29 12t-12 29z" />
<glyph unicode=":" horiz-adv-x="2048" d="M115 512q102 29 199.5 82t179.5 122t148 153t114 184h82q-42 -87 -92.5 -160t-116.5 -141h641l133 315q10 27 39 27q15 0 28 -13t13 -28q0 -9 -4 -17l-121 -284h536q16 0 26.5 -13t10.5 -28q0 -17 -10.5 -29t-26.5 -12h-569l-133 -316h702q16 0 26.5 -12t10.5 -29 q0 -15 -10.5 -28t-26.5 -13h-737l-133 -315q-10 -27 -39 -27q-15 0 -28 13t-13 28q0 9 4 17l121 284h-440q66 -68 117.5 -142.5t91.5 -158.5h-82q-46 98 -113 184t-150.5 155.5t-177.5 120.5t-200 81zM301 512q132 -66 242 -158h559l133 316h-692q-110 -92 -242 -158z" />
<glyph unicode=";" horiz-adv-x="2048" d="M115 313q0 17 11 29t28 12h567l133 316h-700q-17 0 -28 12t-11 29q0 15 11 28t28 13h735l133 315q10 27 39 27q15 0 28 -13t13 -28q0 -9 -4 -17l-121 -284h440q-130 137 -209 301h82q49 -100 114.5 -184t147.5 -153t180.5 -122t198.5 -82q-105 -30 -199.5 -81 t-178 -120.5t-150 -155.5t-113.5 -184h-82q79 164 209 301h-641l-133 -315q-10 -27 -39 -27q-15 0 -28 13t-13 28q0 9 4 17l121 284h-534q-17 0 -28 13t-11 28zM811 354h692q110 92 242 158q-132 66 -242 158h-559z" />
<glyph unicode="&#x3c;" horiz-adv-x="2048" d="M70 512q178 75 316 216.5t212 324.5h82q-66 -163 -178 -301h555l98 315q10 27 39 27q17 0 29 -12t12 -29q0 -6 -2 -11l-92 -290h403q-53 64 -98 140.5t-80 160.5h82q74 -183 211.5 -323.5t316.5 -217.5q-179 -77 -316.5 -217.5t-211.5 -323.5h-82q33 81 77.5 157 t100.5 144h-555l-98 -315q-10 -27 -39 -27q-17 0 -29 13t-12 28q0 6 2 11l92 290h-403q112 -138 178 -301h-82q-74 183 -212 324.5t-316 216.5zM229 512q108 -68 197 -158h504l100 316h-604q-89 -90 -197 -158zM1016 354h604q89 90 197 158q-108 68 -197 158h-504z" />
<glyph unicode="=" horiz-adv-x="2048" d="M115 512q104 53 184.5 143t120.5 199h72q-19 -52 -51 -108.5t-70.5 -104t-83.5 -88.5h714l220 328q3 7 12 10.5t18 3.5q18 0 29.5 -11t11.5 -30q0 -12 -6 -23l-186 -278h659q-45 41 -83.5 88.5t-70.5 104t-51 108.5h72q43 -112 121.5 -199.5t183.5 -142.5 q-105 -55 -184 -143t-121 -199h-72q33 88 85 163.5t120 137.5h-715l-219 -328q-7 -14 -30 -14q-18 0 -29.5 13.5t-11.5 27.5q0 12 6 23l186 278h-659q71 -65 123 -141.5t82 -159.5h-72q-39 108 -120 198.5t-185 143.5z" />
<glyph unicode="&#x3e;" d="M115 512q0 15 11 28t28 13h542l-385 385q-10 10 -10 27q0 15 12 28t29 13q14 0 31 -13l424 -424l422 424q17 13 30 13q17 0 29 -12t12 -29t-10 -27l-385 -385h545q15 0 26 -13t11 -28t-11 -28t-26 -13h-545l385 -383q10 -13 10 -29q0 -17 -12 -29t-29 -12q-15 0 -30 15 l-422 422l-424 -422q-15 -15 -31 -15q-17 0 -29 13t-12 28q0 16 10 29l385 383h-542q-17 0 -28 13t-11 28zM643 70q0 62 45.5 107.5t108.5 45.5q40 0 76 -20.5t56.5 -56.5t20.5 -76q0 -63 -45.5 -108.5t-107.5 -45.5t-108 46t-46 108zM643 954q0 63 45.5 108.5t108.5 45.5 q40 0 76 -21t56.5 -57t20.5 -76q0 -63 -45 -108t-108 -45t-108.5 45.5t-45.5 107.5z" />
<glyph unicode="?" d="M115 37q0 18 10 26l192 168q-122 162 -122 367q0 123 46 231.5t131 193.5t193.5 131t231.5 46q79 0 154 -20.5t143.5 -60t126.5 -95.5l184 162q17 14 31 14q16 0 28.5 -12.5t12.5 -28.5q0 -20 -11 -29l-192 -167q125 -164 125 -365q0 -163 -81 -302t-220.5 -220.5 t-300.5 -81.5q-119 0 -231 47t-195 129l-185 -162q-17 -14 -30 -14q-18 0 -29.5 13.5t-11.5 29.5zM276 598q0 -178 103 -311l780 682q-71 70 -167.5 109.5t-194.5 39.5q-141 0 -261 -70.5t-190 -190t-70 -259.5zM432 225q49 -47 107.5 -80t124.5 -50t133 -17q139 0 259 70 t190.5 189.5t70.5 260.5q0 85 -27 164t-78 145z" />
<glyph unicode="@" horiz-adv-x="1137" d="M115 41q0 15 11 28t28 13h231l133 588h-338q-15 0 -26 12t-11 29q0 15 11 28t26 13h355l133 587h-514q-17 0 -28 13t-11 28q0 17 11 29t28 12h532l70 310q3 14 13.5 23t25.5 9q17 0 29 -12t12 -29v-10l-66 -291h215q15 0 26 -11t11 -26v-1345q0 -16 -11.5 -27.5 t-25.5 -11.5h-534l-70 -309q-3 -15 -15 -24t-24 -9q-17 0 -29 12t-12 29v10l66 291h-213q-17 0 -28 12t-11 29zM469 82h471v588h-338zM621 752h319v587h-188z" />
<glyph unicode="A" horiz-adv-x="1479" d="M35 37q0 12 9.5 23.5t23.5 11.5q43 0 77.5 25t49.5 65l483 1259q6 21 33 21q22 0 32 -21l531 -1216q18 -41 33.5 -67t41.5 -46t58 -20q14 -3 23.5 -12.5t9.5 -22.5q0 -14 -10.5 -25.5t-22.5 -11.5h-606q-33 7 -33 37q0 12 9.5 23.5t23.5 11.5q30 0 80.5 20t50.5 43 q0 44 -23 118t-53 150h-450q-29 -126 -29 -200q0 -60 18.5 -95.5t73.5 -35.5q33 -8 33 -35q0 -15 -11 -26t-22 -11h-401q-33 7 -33 37zM223 72h111q-29 52 -29 131q0 10 2 27t2 26l-47 -121q-19 -42 -39 -63zM424 475h405q-34 88 -93.5 229.5t-129.5 299.5 q-33 -90 -67.5 -184.5t-66 -189t-48.5 -155.5zM637 1114q44 -87 135.5 -305t161.5 -414t70 -260q0 -36 -27 -63h293q-29 32 -62 104l-495 1135z" />
<glyph unicode="B" horiz-adv-x="1364" d="M18 37q0 13 9.5 22.5t23.5 12.5h6q70 0 99.5 5.5t44 30.5t14.5 85v1017q0 59 -15.5 84.5t-46 31t-102.5 5.5q-13 0 -23 12t-10 25t9.5 22.5t23.5 12.5h641q140 0 251.5 -27.5t181 -106.5t69.5 -222q0 -95 -66 -170.5t-163 -124.5q140 -39 223.5 -136t83.5 -235 q0 -104 -54.5 -178.5t-143.5 -119.5t-189.5 -64t-192.5 -19h-641q-12 0 -22.5 11.5t-10.5 25.5zM268 72h224q-27 35 -27 78v1103q0 43 27 78h-224q19 -41 19 -117v-1026q0 -79 -19 -116zM537 154q0 -39 35.5 -60.5t78.5 -21.5q141 0 205 83t64 226q0 105 -23.5 172t-83 102 t-164.5 35h-112v-536zM537 762q164 0 241.5 63t77.5 222q0 69 -20 134t-66 107.5t-119 42.5q-43 0 -78.5 -20.5t-35.5 -61.5v-487zM836 1323q49 -51 70.5 -124.5t21.5 -151.5q0 -176 -84 -261q105 25 191.5 96t86.5 165q0 134 -73 197t-213 79zM879 698q112 -87 112 -317 q0 -190 -92 -287q129 32 215 101t86 186q0 88 -43 155.5t-115.5 107.5t-162.5 54z" />
<glyph unicode="C" horiz-adv-x="1479" d="M76 702q0 162 51.5 299.5t148 236t230.5 151.5t297 53q120 0 229 -49q97 -45 182 -45q25 0 42.5 17.5t17.5 43.5q0 12 11.5 22.5t25.5 10.5q13 0 24 -10t11 -23v-410q0 -14 -11 -24t-24 -10q-32 0 -35 26q-14 65 -62.5 133.5t-117.5 124t-146 88.5t-147 33 q-106 0 -178 -66.5t-114 -172.5t-58.5 -218t-16.5 -213q0 -258 84 -449.5t309 -191.5q144 0 278 62.5t224 171.5q18 14 29 14q17 0 30 -12t13 -29q0 -13 -6 -22q-111 -135 -266 -209t-328 -74q-163 0 -298.5 54t-231 152.5t-146.5 236t-51 298.5zM147 702q0 -233 109.5 -402 t327.5 -237q-127 95 -173 265.5t-46 373.5q0 88 9 172.5t29.5 165t56.5 156t91 133.5q-200 -72 -302 -239.5t-102 -387.5zM1169 1278q66 -59 105 -117v129q-9 -5 -23 -10q-24 -4 -34 -4q-31 0 -48 2z" />
<glyph unicode="D" horiz-adv-x="1479" d="M33 37q0 8 8 24q12 9 25 13q66 0 92 5.5t36.5 30t10.5 83.5v1015q0 59 -10.5 83.5t-36.5 30t-92 5.5q-13 5 -25 12q-8 18 -8 25t8 25q12 7 25 12h634q204 0 365.5 -81.5t252.5 -234.5t91 -356q0 -159 -49.5 -293.5t-142 -232t-224.5 -150.5t-293 -53h-634q-13 5 -25 12 q-8 16 -8 25zM262 74h232q-27 35 -27 78v1097q0 43 27 78h-232q17 -45 17 -110v-1033q0 -65 -17 -110zM541 160q0 -41 35.5 -63.5t78.5 -22.5q159 0 246.5 100.5t117.5 248t30 304.5q0 135 -35 272.5t-120 232.5t-222 95q-31 0 -60 -8t-50 -27t-21 -51v-1081zM938 1290 q68 -63 109 -157t58 -199.5t17 -204.5q0 -437 -172 -610q98 37 172 98.5t121 140.5t69.5 172.5t22.5 198.5q0 102 -25 189.5t-73 157.5t-120.5 124.5t-168.5 87.5q-2 1 -4 1.5t-6 0.5z" />
<glyph unicode="E" horiz-adv-x="1364" d="M25 37q0 8 8 24q13 9 24 13q69 0 96.5 5.5t39.5 29.5t12 84v1024q0 77 -28 93.5t-120 16.5q-12 5 -24 12q-8 18 -8 25t8 25q12 8 24 12h1123q12 -5 24 -12q5 -11 8 -21v-336q-3 -9 -8 -20q-22 -13 -28 -13q-7 0 -29 13q-5 11 -8 20q0 145 -131 220t-291 75h-131 q-62 0 -62 -119v-450q101 0 176 30.5t116.5 96.5t41.5 168q4 9 4.5 11t3.5 9q22 12 29 12q11 0 29 -12q5 -11 8 -20v-623q-3 -9 -8 -20q-17 -13 -29 -13q-9 0 -29 13q-3 7 -3.5 9t-4.5 11q0 254 -334 254v-491q0 -119 62 -119h151q166 0 318 131q106 99 147 178q12 23 25 75 t18 62q20 12 29 12q7 0 29 -12q8 -16 8 -26l-58 -461q-2 -9 -8 -21q-12 -8 -24 -12h-1164q-12 5 -24 12q-8 16 -8 25zM262 74h213q-24 55 -24 110v533q2 -9 8 -21q20 -12 28 -12h37v74h-37q-9 0 -28 -13q-5 -11 -8 -20v492q0 54 24 110h-213q17 -45 17 -110v-1033 q0 -65 -17 -110zM997 74h187l22 178q-82 -103 -209 -178z" />
<glyph unicode="F" horiz-adv-x="1251" d="M29 37q0 28 32 35h7q67 0 93 5.5t37 30.5t11 85v1021q0 57 -12.5 81.5t-40.5 30t-95 5.5q-32 7 -32 37q0 12 9.5 23.5t22.5 11.5h1100q33 -8 33 -33v-334q0 -16 -11.5 -25.5t-23.5 -9.5q-13 0 -25 10t-12 25q0 95 -61.5 162.5t-155 100t-186.5 32.5h-127 q-35 0 -48.5 -38.5t-13.5 -82.5v-448q146 0 226 75t80 220q0 13 11 24t25 11q13 0 24 -10t11 -25v-621q0 -14 -11.5 -23.5t-23.5 -9.5q-13 0 -24.5 10.5t-11.5 22.5q0 134 -83.5 193t-222.5 59v-495q0 -51 9.5 -78t46.5 -35q41 -8 139 -8q14 -3 23.5 -12.5t9.5 -22.5 q0 -14 -10.5 -25.5t-22.5 -11.5h-664q-32 7 -32 37zM262 72h217q-20 41 -20 116v1026q0 61 24 117h-221q19 -41 19 -117v-1026q0 -75 -19 -116zM725 729q64 -27 111 -80v168q-39 -53 -111 -88zM1010 1331q68 -38 112 -98v98h-112z" />
<glyph unicode="G" d="M76 702q0 162 51.5 299.5t148 236t230.5 151.5t297 53q121 0 227 -49q95 -45 182 -45q25 0 42.5 17.5t17.5 43.5q0 12 11.5 22.5t25.5 10.5q13 0 23.5 -9.5t10.5 -23.5v-410q0 -15 -10.5 -24.5t-23.5 -9.5q-32 0 -35 26q-14 66 -61.5 134t-116.5 123.5t-146 88.5t-147 33 q-137 0 -219 -111.5t-115 -264.5t-33 -294q0 -159 26.5 -306t108.5 -254t232 -107q96 0 171 17t75 79v236q0 67 -54 112t-123 45q-12 0 -22 12t-10 23q0 30 32 37h629q13 0 23 -12.5t10 -24.5q0 -31 -33 -35q-39 0 -71 -22.5t-49 -60t-17 -74.5v-240q0 -22 -18 -29 q-264 -135 -543 -135q-163 0 -298.5 54t-231 152.5t-146.5 236t-51 298.5zM147 702q0 -137 40.5 -258.5t125 -214.5t211.5 -145q-64 73 -99.5 177t-47.5 210.5t-12 230.5q0 88 9 172.5t29.5 165t56.5 156t91 133.5q-200 -72 -302 -239.5t-102 -387.5zM1053 522 q67 -67 67 -153v-244q0 -19 -8 -47q89 26 180 69v222q0 87 54 153h-293zM1169 1278q65 -62 103 -115v127q-9 -5 -23 -10q-24 -4 -35 -4q-30 0 -45 2z" />
<glyph unicode="H" d="M35 37q0 28 33 35h6q67 0 93 5.5t37 30.5t11 85v1021q0 57 -12.5 81.5t-40 30t-94.5 5.5q-33 7 -33 37q0 12 9.5 23.5t23.5 11.5h628q33 -7 33 -35q0 -30 -33 -37h-6q-67 0 -93.5 -5.5t-37 -31t-10.5 -84.5v-452h495v456q0 56 -12 81t-40 30.5t-95 5.5q-33 7 -33 37 q0 13 10 24t23 11h629q14 -3 23.5 -12.5t9.5 -22.5q0 -30 -33 -37h-6q-68 0 -94 -5.5t-37 -30.5t-11 -85v-1022q0 -56 12.5 -80.5t40.5 -30t95 -5.5q14 -3 23.5 -12.5t9.5 -22.5q0 -14 -10.5 -25.5t-22.5 -11.5h-629q-33 7 -33 37q0 13 9.5 22.5t23.5 12.5h6q67 0 93.5 5.5 t37 31t10.5 84.5v471h-495v-476q0 -56 12.5 -80.5t40 -30t94.5 -5.5q33 -7 33 -35q0 -15 -10 -26t-23 -11h-628q-33 7 -33 37zM268 72h228q-19 41 -19 116v1026q0 76 19 117h-228q19 -41 19 -117v-1026q0 -75 -19 -116zM1098 72h227q-18 42 -18 116v1026q0 75 18 117h-227 q18 -42 18 -117v-1026q0 -74 -18 -116z" />
<glyph unicode="I" horiz-adv-x="795" d="M41 37q0 12 9.5 23.5t23.5 11.5q71 0 100.5 5.5t43 30.5t13.5 85v1021q0 56 -14.5 81t-44 30.5t-98.5 5.5q-33 7 -33 37q0 12 9.5 23.5t23.5 11.5h649q14 -3 23.5 -12.5t9.5 -22.5t-10 -25t-23 -12q-71 0 -100.5 -5.5t-43.5 -30.5t-14 -85v-1017q0 -60 14 -85t43.5 -30.5 t100.5 -5.5q14 -3 23.5 -12.5t9.5 -22.5q0 -14 -10.5 -25.5t-22.5 -11.5h-649q-33 7 -33 37zM285 72h227q-18 37 -18 116v1026q0 75 18 117h-227q18 -37 18 -117v-1026q0 -74 -18 -116z" />
<glyph unicode="J" horiz-adv-x="1024" d="M12 76q0 38 20 70.5t55 51.5t73 19t72.5 -19t54.5 -51.5t20 -70.5q0 -36 -12 -59.5t-28.5 -45.5t-16.5 -32q0 -21 84 -21q50 0 88.5 36t38.5 87v1173q0 56 -19 81t-52.5 30.5t-104.5 5.5q-33 7 -33 37q0 12 9.5 23.5t23.5 11.5h657q33 -7 33 -35q0 -30 -33 -37h-6 q-67 0 -93.5 -5.5t-37 -31t-10.5 -84.5v-983q0 -131 -60 -217t-162 -125t-231 -39q-75 0 -151.5 24t-127.5 76t-51 130zM84 76q0 -84 94 -125q4 27 31 61.5t27 63.5q0 30 -22.5 49.5t-53.5 19.5q-29 0 -52.5 -19.5t-23.5 -49.5zM502 -63q109 28 165 103.5t56 190.5v983 q0 75 18 117h-229q20 -41 20 -117v-1177q0 -53 -30 -100z" />
<glyph unicode="K" d="M49 37q0 28 33 35h6q67 0 93.5 5.5t37 31t10.5 84.5v1021q0 56 -12 81t-40 30.5t-95 5.5q-14 0 -23.5 12.5t-9.5 24.5q0 28 33 35h629q13 0 22.5 -10.5t9.5 -24.5q0 -30 -32 -37h-6q-68 0 -94 -5.5t-37 -30.5t-11 -85v-510l445 428q45 47 45 103q0 40 -25 70t-65 30 q-14 0 -23.5 12.5t-9.5 24.5q0 28 33 35h501q14 0 23.5 -10.5t9.5 -24.5q0 -30 -33 -37q-61 0 -131 -42t-123.5 -89t-138.5 -129l-225 -217l534 -641q35 -44 57.5 -70t51.5 -48.5t53 -22.5q14 0 23.5 -10.5t9.5 -24.5q0 -30 -33 -37h-526q-13 0 -23 12t-10 25q0 28 33 35 q53 0 53 12q0 22 -57 86l-391 467l-58 -55v-394q0 -56 12.5 -80.5t40.5 -30t95 -5.5q13 0 22.5 -10.5t9.5 -24.5q0 -30 -32 -37h-629q-13 0 -23 12t-10 25zM283 72h227q-18 42 -18 116v1026q0 75 18 117h-227q18 -42 18 -117v-1026q0 -74 -18 -116zM674 688l395 -475 q35 -39 53.5 -67.5t18.5 -61.5v-12h268q-42 43 -86 98l-528 635zM1094 1331q30 -46 30 -100q0 -4 -0.5 -7t-1.5 -7q79 70 144 114h-172z" />
<glyph unicode="L" horiz-adv-x="1364" d="M29 37q0 28 32 35h7q67 0 93 5.5t37 30.5t11 85v1021q0 57 -12.5 81.5t-40.5 30t-95 5.5q-13 0 -22.5 12.5t-9.5 24.5q0 28 32 35h611q13 0 23 -11t10 -24q0 -30 -33 -37h-6q-65 0 -89 -5.5t-33 -30.5t-9 -85v-1017q0 -44 13 -82.5t48 -38.5h141q103 0 214 47 t191.5 129.5t96.5 183.5q3 27 35 27q14 0 24.5 -11.5t10.5 -25.5l-58 -395q-5 -23 -32 -27h-1158q-12 0 -22 12t-10 25zM262 72h225q-24 55 -24 116v1026q0 80 16 117h-217q19 -41 19 -117v-1026q0 -75 -19 -116zM1018 72h166l22 141q-75 -80 -188 -141z" />
<glyph unicode="M" horiz-adv-x="1933" d="M35 37q0 28 33 35q56 0 100.5 33t44.5 88v1118q-56 20 -139 20q-14 0 -23.5 12.5t-9.5 24.5q0 28 33 35h452q21 0 29 -21l399 -952l400 952q5 17 28 21h467q14 0 23.5 -10.5t9.5 -24.5q0 -30 -33 -37q-56 0 -100.5 -33t-44.5 -88v-1017q0 -56 49 -88.5t109 -32.5 q13 0 22.5 -10.5t9.5 -24.5q0 -30 -32 -37h-619q-12 0 -22.5 11.5t-10.5 25.5q0 13 9.5 22.5t23.5 12.5q57 0 101.5 33t44.5 88v1050l-512 -1220q-11 -23 -33 -23q-24 0 -33 23l-508 1212l-4 6v-1048q0 -56 49 -88.5t109 -32.5q13 0 22.5 -10.5t9.5 -24.5q0 -30 -32 -37 h-389q-13 0 -23 12t-10 25zM319 1331q31 -30 50 -67l475 -1135l92 219l-14 2l-7 4q-9 6 -14 17l-403 960h-179zM1413 72h268q-49 49 -49 116v1026q0 68 47 117h-219v-1143q0 -71 -47 -116z" />
<glyph unicode="N" horiz-adv-x="1479" d="M51 37q0 13 9.5 22.5t23.5 12.5q64 0 95 13t40.5 46.5t9.5 97.5v1024q0 3 2 8t2 7q-54 63 -124 63q-14 0 -23.5 12.5t-9.5 24.5q0 28 33 35h428q10 0 24 -14l631 -850v635q0 98 -29.5 127.5t-128.5 29.5q-13 0 -23 12t-10 25t9.5 22.5t23.5 12.5h371q13 0 23 -11t10 -24 q0 -30 -33 -37q-88 0 -107.5 -32t-19.5 -125v-1180q0 -15 -12 -24t-23 -9q-13 0 -29 14l-899 1186v-936q0 -67 13 -98t46.5 -43t98.5 -12q14 0 23.5 -10.5t9.5 -24.5q0 -30 -33 -37h-389q-12 0 -22.5 11.5t-10.5 25.5zM272 1331q1 0 7 -8q20 -20 30 -33l897 -1186v295 l-690 932h-244z" />
<glyph unicode="O" d="M68 702q0 163 52 300.5t147.5 235.5t231.5 151t298 53q163 0 299 -53.5t231 -151t147 -235t52 -300.5t-52 -300.5t-147 -235.5t-231 -151.5t-299 -53.5q-162 0 -298 53t-232 152t-147.5 236t-51.5 300zM139 702q0 -137 41.5 -259t125.5 -213.5t212 -143.5 q-94 105 -128 267.5t-34 348.5q0 111 12.5 224t47.5 215t102 176q-126 -51 -211 -143.5t-126.5 -213t-41.5 -258.5zM428 702q0 -154 27 -304.5t109.5 -257.5t232.5 -107t232 107t109 256t27 304t-27 305.5t-109 257.5t-232 107t-232.5 -107t-109.5 -255.5t-27 -302.5v-3z M1075 86q128 52 212 143.5t125.5 213.5t41.5 259q0 138 -41.5 258.5t-126.5 213t-211 143.5q94 -103 128 -265.5t34 -349.5q0 -437 -162 -616z" />
<glyph unicode="P" horiz-adv-x="1251" d="M33 37q0 28 33 35h6q65 0 89 6t33 30t9 85v1021q0 59 -10.5 82.5t-36 29t-90.5 5.5q-14 0 -23.5 12.5t-9.5 24.5q0 28 33 35h626q140 0 260 -35t197.5 -122t77.5 -230q0 -102 -47 -176t-128 -121t-175.5 -68.5t-188.5 -21.5q-51 0 -76 2h-75v-443q0 -56 13 -80.5t41 -30 t95 -5.5q14 0 23.5 -10.5t9.5 -24.5q0 -30 -33 -37h-620q-13 0 -23 12t-10 25zM258 72h225q-18 42 -18 116v1065q0 43 27 78h-234q16 -37 16 -117v-1026q0 -79 -16 -116zM537 702h112q95 0 144.5 41.5t65 109t15.5 163.5q0 108 -13 172t-61 103.5t-149 39.5q-41 0 -77.5 -21 t-36.5 -61v-547zM872 721q125 32 204 105.5t79 189.5q0 236 -272 297q38 -52 50.5 -126t12.5 -171q0 -203 -74 -295z" />
<glyph unicode="Q" d="M68 702q0 163 52 300.5t147.5 235.5t231.5 151t298 53q163 0 299 -53.5t231 -151t147 -235t52 -300.5q0 -133 -35 -251.5t-104.5 -213.5t-171.5 -160t-236 -95q48 -101 144 -161.5t208 -60.5q18 0 71 9.5t62 9.5q14 0 24.5 -11.5t10.5 -25.5q0 -33 -78 -58t-170 -38 t-135 -13q-115 0 -223.5 44.5t-191.5 125.5t-130 189q-164 46 -277 148t-169.5 247t-56.5 315zM139 702q0 -137 41.5 -259t125.5 -213.5t212 -143.5q-94 105 -128 267.5t-34 348.5q0 111 12.5 224t47.5 215t102 176q-126 -51 -211 -143.5t-126.5 -213t-41.5 -258.5zM428 702 q0 -154 27 -304.5t109.5 -257.5t232.5 -107t232 107t109 256t27 304t-27 305.5t-109 257.5t-232 107t-232.5 -107t-109.5 -255.5t-27 -302.5v-3zM662 -29q66 -121 190 -193.5t264 -72.5q26 0 76 4q-96 30 -170.5 98t-114.5 160q-55 -6 -110 -6q-60 0 -135 10zM1075 86 q128 52 212 143.5t125.5 213.5t41.5 259q0 138 -41.5 258.5t-126.5 213t-211 143.5q94 -103 128 -265.5t34 -349.5q0 -437 -162 -616z" />
<glyph unicode="R" horiz-adv-x="1479" d="M33 37q0 28 33 35h6q67 0 93.5 5.5t38 30.5t11.5 85v1021q0 57 -13 81.5t-41 30t-95 5.5q-14 0 -23.5 12.5t-9.5 24.5q0 28 33 35h677q127 0 253.5 -38.5t209 -124t82.5 -218.5q0 -109 -45 -182t-125 -114t-190 -60q80 -125 160 -245.5t175.5 -234.5t143.5 -114 q13 0 23 -11t10 -24q0 -30 -33 -37h-354q-11 0 -25 14l-405 629h-74v-455q0 -56 13 -80.5t41 -30t95 -5.5q14 0 23.5 -10.5t9.5 -24.5q0 -30 -33 -37h-632q-13 0 -23 12t-10 25zM268 72h228q-19 41 -19 116v1065q0 43 27 78h-236q19 -41 19 -117v-1026q0 -75 -19 -116z M549 715q126 0 190 7.5t108.5 35t66.5 90t22 174.5q0 162 -57.5 235.5t-212.5 73.5q-45 0 -81 -20.5t-36 -61.5v-534zM707 645l368 -573h199q-70 68 -140.5 161t-122 172t-161.5 250q-88 -8 -143 -10zM928 1311q80 -93 80 -289q0 -97 -11 -163t-55 -118q86 18 146.5 50 t94.5 88.5t34 142.5q0 117 -83 188.5t-206 100.5z" />
<glyph unicode="S" horiz-adv-x="1137" d="M59 1024q0 209 128.5 313.5t342.5 104.5q88 0 166 -31q69 -27 129 -27q40 0 79 29t48 29q12 0 23.5 -9.5t11.5 -23.5v-379q0 -16 -11.5 -25.5t-23.5 -9.5q-10 0 -21.5 7.5t-12.5 19.5q-9 60 -46 122.5t-93 114t-120.5 81.5t-128.5 30q-100 0 -163.5 -57t-63.5 -156 q0 -54 43 -102t104.5 -83t140 -67t116.5 -47q103 -40 189 -107.5t138.5 -158.5t52.5 -199t-48.5 -188t-129.5 -130.5t-178.5 -75t-200.5 -24.5q-83 0 -165 31q-62 27 -127 27q-42 0 -81 -29t-44 -29q-14 0 -25.5 10.5t-11.5 24.5v414v16q0 52 37 52q15 0 24.5 -11t9.5 -26 v-17q0 -64 34 -133.5t90.5 -127.5t125.5 -94t135 -36q91 0 150 20t92 71.5t33 140.5q0 120 -102 198.5t-252 138.5q-79 32 -146.5 69.5t-122.5 85.5t-90 112.5t-35 140.5zM131 1024q0 -84 52.5 -148.5t124 -107t169.5 -84.5q178 -74 290 -166.5t112 -238.5q0 -93 -33 -160 q81 46 125.5 116t44.5 158q0 136 -96 239t-238 159q-134 51 -220 91.5t-158.5 110.5t-72.5 164q0 84 43 156q-74 -43 -108.5 -120t-34.5 -169zM147 84q48 20 91 20h6q-56 53 -97 115v-135zM825 1313q52 -49 90 -103v123q-47 -20 -90 -20z" />
<glyph unicode="T" horiz-adv-x="1364" d="M68 1018v352q0 26 32 33h1168q11 0 21.5 -11.5t10.5 -21.5v-352q0 -16 -11.5 -25.5t-24.5 -9.5q-35 0 -35 35q0 89 -57.5 160.5t-146 111t-175.5 39.5v-1141q0 -57 16.5 -81t48 -29.5t101.5 -5.5q13 0 23 -11t10 -24q0 -30 -33 -37h-666q-12 0 -22.5 11.5t-10.5 25.5 q0 13 9.5 22.5t23.5 12.5q72 0 103.5 5.5t47 31t15.5 84.5v1136q-87 0 -175.5 -39.5t-145 -111t-56.5 -160.5l-8 -21q-14 -14 -29 -14q-34 0 -34 35zM139 1223q50 65 125 108h-125v-108zM569 72h228q-19 41 -19 116v1143h-190v-1143q0 -79 -19 -116zM1102 1331 q73 -42 127 -108v108h-127z" />
<glyph unicode="U" horiz-adv-x="1479" d="M33 1368q0 28 33 35h620q14 0 23.5 -10.5t9.5 -24.5q0 -30 -33 -37q-71 0 -100.5 -5.5t-43.5 -30.5t-14 -85v-749q0 -117 18 -207t77 -148.5t174 -58.5q205 0 296 128.5t91 342.5v541q0 99 -32 185.5t-116 86.5q-13 0 -22.5 12.5t-9.5 24.5q0 28 32 35h381 q14 0 23.5 -10.5t9.5 -24.5q0 -30 -33 -37q-83 0 -115 -86.5t-32 -185.5v-545q0 -258 -136.5 -405.5t-394.5 -147.5q-161 0 -282.5 55t-187.5 166t-66 275v757q0 59 -10.5 82.5t-36 29t-90.5 5.5q-14 0 -23.5 12.5t-9.5 24.5zM258 1331q16 -37 16 -117v-753 q0 -162 74.5 -268.5t229.5 -143.5q-37 36 -62.5 85.5t-37.5 102t-16.5 107t-4.5 113.5v757q0 80 18 117h-217zM1182 1331q29 -35 45 -84q17 52 45 84h-90z" />
<glyph unicode="V" horiz-adv-x="1479" d="M0 1368q0 13 10 24t23 11h608q14 -3 23.5 -12.5t9.5 -22.5t-10 -25t-23 -12q-71 0 -129 -55q0 -4 -2 -6q0 -84 107.5 -339.5t242.5 -551.5q121 285 193.5 488.5t72.5 346.5q0 54 -17.5 85.5t-66.5 31.5q-32 7 -32 37q0 12 9.5 23.5t22.5 11.5h400q14 -3 23.5 -12.5 t9.5 -22.5t-10 -25t-23 -12q-44 0 -79.5 -26.5t-53.5 -67.5l-523 -1255q-6 -21 -32 -21q-23 0 -33 21l-553 1216q-27 59 -57 96t-78 37q-33 8 -33 37zM172 1331q32 -37 61 -104l521 -1141l75 186q-50 100 -143.5 312.5t-170.5 416.5t-77 269q0 32 29 61h-295zM1174 1331 q24 -42 24 -117q0 -25 -4 -69l49 121q22 43 41 65h-110z" />
<glyph unicode="W" horiz-adv-x="2048" d="M16 1368q0 13 10 24t23 11h506q14 -3 23.5 -12.5t9.5 -22.5t-10 -25t-23 -12q-42 0 -82 -43v-6q0 -53 30 -163t76 -248t90 -263t76 -215l267 615l-78 204q-48 119 -117 119q-33 7 -33 37q0 13 10 24t23 11h565q33 -7 33 -35q0 -14 -9.5 -25.5t-23.5 -11.5 q-26 0 -67 -17.5t-41 -39.5q0 -63 48 -220.5t125.5 -365t92.5 -246.5q53 147 93.5 268.5t71 253t30.5 224.5q0 143 -97 143q-32 7 -32 37q0 12 9.5 23.5t22.5 11.5h361q14 -3 23.5 -12.5t9.5 -22.5t-10 -25t-23 -12q-51 0 -84 -88l-447 -1255q-11 -27 -34 -27q-24 0 -35 27 l-348 919l-404 -925q-10 -21 -33 -21t-34 27l-433 1216q-21 62 -39.5 94.5t-58.5 32.5q-33 7 -33 37zM168 1331q27 -41 49 -108l401 -1129l87 199q-23 65 -70.5 196.5t-106.5 306t-93 300.5t-34 186q0 23 5 31q1 4 4.5 9.5t5.5 8.5h-248zM950 1331q30 -37 51 -94l431 -1137 l79 222q0 1 -2 4t-2 4q-48 121 -121.5 316t-128.5 373t-55 255q0 37 21 57h-273zM1776 1331q30 -50 30 -143v-35l39 109q12 36 33 69h-102z" />
<glyph unicode="X" horiz-adv-x="1479" d="M37 37q0 27 33 35q40 0 97.5 44.5t99 89.5t106.5 120l258 292q-20 33 -23 37q-140 212 -273 404.5t-185 245.5q-28 26 -72 26q-14 0 -23.5 12.5t-9.5 24.5q0 28 33 35h598q13 0 23 -11t10 -24q0 -30 -33 -37q-81 0 -117 -24q11 -38 52.5 -110t81 -133.5t95.5 -143.5 l154 202q41 54 41 111q0 41 -20 69.5t-58 28.5q-13 0 -23 12t-10 25t9.5 22.5t23.5 12.5h481q13 0 23 -11t10 -24q0 -29 -33 -37q-107 0 -194 -69t-174 -183l-180 -235q14 -22 27 -41.5t30 -44.5q387 -583 465 -668q22 -18 51 -18q14 0 23.5 -10.5t9.5 -24.5q0 -30 -33 -37 h-618q-12 0 -22.5 11.5t-10.5 25.5q0 27 33 35q108 0 149 28q-15 64 -87 178t-175 267l-229 -262q-45 -52 -45 -109q0 -41 24 -71.5t64 -30.5q13 0 22.5 -10.5t9.5 -24.5q0 -30 -32 -37h-424q-12 0 -22.5 11.5t-10.5 25.5zM223 1331q62 -73 268 -372t365.5 -557t159.5 -308 q0 -10 -2 -14q0 -3 -0.5 -4.5t-1.5 -3.5h270q-57 74 -176.5 246t-272 401.5t-250.5 395.5t-98 202q1 5 1.5 8.5t0.5 5.5h-264zM227 72h135q-28 47 -28 102q-61 -65 -107 -102zM1030 1331q25 -41 25 -96q51 56 110 96h-135z" />
<glyph unicode="Y" horiz-adv-x="1479" d="M39 1368q0 28 33 35h524q13 0 23 -11t10 -24q0 -30 -33 -37q-39 0 -57 -4q-5 0 -13 -4q-2 0 -3.5 -0.5t-2.5 -1.5q0 -13 6 -28.5t13 -28.5t20 -33l305 -545l269 432q22 36 22 78q0 56 -38.5 95.5t-94.5 39.5q-13 0 -23 12t-10 25t9.5 22.5t23.5 12.5h385q13 0 23 -11 t10 -24q0 -30 -33 -37q-24 0 -53 -27.5t-62 -72t-55.5 -81t-42.5 -69.5l-287 -460v-396q0 -59 5.5 -87.5t21 -42.5t46 -18.5t85.5 -4.5q13 0 23 -11t10 -24q0 -30 -33 -37h-649q-13 0 -23 12t-10 25q0 28 33 35h6q72 0 102.5 9.5t39.5 40t9 107.5v310l-366 655 q-20 34 -38.5 64.5t-23.5 37.5q-15 23 -27.5 29t-45.5 6q-14 0 -23.5 12.5t-9.5 24.5zM209 1331q37 -57 59 -100l373 -666q4 -8 4 -16v-324q0 -108 -24 -153h239q-24 45 -24 153v367q0 1 -2.5 3t-2.5 3l-333 596q-18 30 -26 45.5t-15.5 36t-7.5 41.5q1 5 1.5 8.5t0.5 5.5 h-242zM1178 1331q26 -32 41 -80q31 48 63 80h-104z" />
<glyph unicode="Z" horiz-adv-x="1364" d="M57 37q0 9 6 18l783 1276h-160q-82 0 -161.5 -15t-151 -51t-117 -93.5t-57.5 -143.5q-3 -11 -14 -19t-21 -8q-16 0 -26.5 11.5t-10.5 27.5l37 330q3 27 33 33h1009q14 0 23.5 -10.5t9.5 -24.5q0 -10 -4 -18l-784 -1278h297q87 0 169.5 28t148 80t109 125t56.5 160 q1 13 12 23t25 10t24.5 -11.5t10.5 -25.5l-58 -426q-3 -29 -33 -35h-1122q-12 0 -22.5 11.5t-10.5 25.5zM158 72h209l772 1259h-209zM221 1237q56 59 125 94h-115zM1032 72h146l18 139q-65 -87 -164 -139z" />
<glyph unicode="[" horiz-adv-x="0" d="M-8 1270l1941 465l1942 -465l-17 -70l-1925 397l-1925 -397z" />
<glyph unicode="\" horiz-adv-x="0" d="M-6 1270l2394 465l2394 -465l-12 -70l-2382 397l-2382 -397z" />
<glyph unicode="]" horiz-adv-x="0" d="M0 1368q50 30 84 39q885 283 1339 283q179 0 296.5 -36.5t253 -106t251.5 -105t293 -35.5q101 0 235.5 15.5t296 49t363 88t444.5 130.5l11 -80q-44 -27 -84 -39q-885 -283 -1340 -283q-177 0 -291 35t-251.5 105t-255.5 106.5t-295 36.5q-108 0 -233 -14.5t-289.5 -47.5 t-368 -88t-449.5 -133z" />
<glyph unicode="^" horiz-adv-x="0" d="M0 1460q45 28 84 39q396 121 719.5 199t554 111.5t409.5 33.5q226 0 361 -43t297 -129t299.5 -129t357.5 -43q181 0 411 33.5t553.5 111.5t719.5 199l10 -80q-46 -27 -84 -39q-396 -121 -719.5 -199t-554 -111.5t-409.5 -33.5q-219 0 -356 42.5t-300.5 129t-299 129.5 t-359.5 43q-181 0 -411 -33.5t-553.5 -111.5t-719.5 -199z" />
<glyph unicode="`" horiz-adv-x="1137" d="M115 41q0 15 11 28t28 13h786v588h-481q-16 0 -26.5 12t-10.5 29q0 15 10.5 28t26.5 13h481v632q0 16 13 26.5t28 10.5t28 -10.5t13 -26.5v-1345q0 -16 -11.5 -27.5t-25.5 -11.5h-831q-17 0 -28 12t-11 29z" />
<glyph unicode="a" horiz-adv-x="1307" d="M80 92v504q0 13 12 25t27 12h354q16 0 26.5 -13t10.5 -28q0 -17 -10.5 -29t-26.5 -12h-311v-453q0 -40 117.5 -50.5t228.5 -10.5q129 0 239.5 55t188.5 148t121 214.5t43 245.5q0 123 -42.5 243.5t-121 215t-187.5 149t-239 54.5q-185 0 -350 -92q-12 -6 -23 -6 q-15 0 -28 12t-13 29q0 24 21 34q184 105 393 105q146 0 272 -62.5t215 -168t137 -239t48 -274.5t-48 -274t-138 -240t-215 -169t-271 -62q-158 0 -294 24.5t-136 112.5z" />
<glyph unicode="f" horiz-adv-x="1479" d="M90 1067l68 332h362q21 0 21 -27q0 -109 -28 -211.5t-81.5 -246t-81 -243.5t-28.5 -204q0 -126 50.5 -231t145.5 -166.5t221 -61.5q96 0 173 36t131 98.5t83 148t29 176.5q0 106 -28 205t-84 252t-81.5 249t-25.5 199q0 27 20 27h363l67 -332h-59q-11 57 -19.5 104.5 t-22 64.5t-47 23.5t-108.5 6.5h-126q23 -90 93 -207.5t127.5 -205.5t97.5 -184t40 -202q0 -152 -92 -270t-237.5 -180t-293.5 -62q-149 0 -294.5 62t-237.5 179t-92 271q0 106 38.5 198t127 229t129.5 208.5t63 163.5h-127q-74 0 -106.5 -6t-46 -23.5t-23 -65t-20.5 -104.5 h-60z" />
<glyph unicode="g" horiz-adv-x="1137" d="M86 451q0 130 58.5 243.5t164.5 180.5t238 67q108 0 192.5 -65.5t126.5 -165.5q0 110 -24 210.5t-77 188.5t-134 150l-406 -185q-16 -8 -41 -8h-12q-13 0 -32 5t-19 13v181q0 9 18.5 14.5t32.5 5.5h12q15 0 33.5 -5.5t18.5 -14.5v-119l337 153q-171 107 -397 107 q-16 0 -16 18v25q0 16 20 16q126 0 249.5 -32t232.5 -93l251 115q22 8 39 8h13q14 0 32.5 -5.5t18.5 -14.5v-180q0 -9 -19 -14t-32 -5h-13q-13 0 -32 5t-19 14v118l-178 -79q74 -51 133 -115t103 -141t68 -161t24 -175q0 -145 -20.5 -267.5t-72.5 -226.5q-38 -77 -96 -137 t-133 -92.5t-160 -32.5q-135 0 -246.5 66.5t-174 181t-62.5 248.5zM270 451q0 -109 10.5 -179.5t53.5 -130.5q82 -121 233 -121q80 0 136 39t91 102t50.5 133.5t15.5 147.5q0 4 -0.5 6t-1.5 5q2 16 2 51q0 70 -18.5 136.5t-57 122.5t-96.5 91t-131 35q-165 0 -246 -156 q-28 -62 -34.5 -123.5t-6.5 -158.5z" />
<glyph unicode="h" d="M115 125v12q0 74 24.5 143.5t70 126.5t108 89t137.5 32q92 0 170 -44.5t179 -128.5t172 -125.5t161 -41.5q56 0 108 23.5t90.5 63t61 93.5t22.5 109q6 51 29 51t29 -51v-12q0 -73 -24.5 -143.5t-69.5 -126t-108.5 -88.5t-137.5 -33q-92 0 -166 42.5t-175 126.5 t-176 127.5t-165 43.5q-75 0 -141 -40t-104 -107t-38 -142q-6 -51 -29 -51q-22 0 -28 51zM115 909q0 17 11 29t28 12h1286q15 0 26 -12t11 -29q0 -15 -11 -28t-26 -13h-1286q-17 0 -28 13t-11 28z" />
<glyph unicode="i" horiz-adv-x="1364" d="M-16 0q0 18 10 29l178 178q19 14 29 14h966v928q0 31 -27.5 47t-62.5 16h-796q-74 0 -110.5 37t-46 92t-9.5 132v53q0 15 12 26t29 11q21 0 39.5 -35t33 -50.5t58.5 -15.5h796q108 0 137 -67.5t29 -192.5v-981h94q16 0 26.5 -13t10.5 -28q0 -20 -10 -28l-178 -181 q-16 -12 -29 -12h-1143q-15 0 -25.5 13t-10.5 28z" />
<glyph unicode="j" horiz-adv-x="909" d="M-16 0q0 18 10 29l178 178q19 14 29 14h438v991h-358q-74 0 -110.5 37t-46 92t-9.5 132v53q0 15 12 26t29 11q21 0 39.5 -35t33 -50.5t58.5 -15.5h395q37 0 70 -16t53 -45t20 -64q0 -44 -29.5 -77.5t-74.5 -42.5q0 -102 7 -204.5t30 -322.5q9 -87 17 -167t14 -177t6 -186 q0 -51 -4.5 -102.5t-23 -97.5t-58.5 -46q-32 0 -39 31q-19 68 -25 141l-115 -115q-12 -12 -26 -12h-484q-15 0 -25.5 13t-10.5 28z" />
<glyph unicode="k" horiz-adv-x="1364" d="M115 1473v53q0 15 12 26t29 11q21 0 39.5 -35t33 -50.5t58.5 -15.5h852q36 0 69 -16t53.5 -45t20.5 -64q0 -44 -29.5 -77.5t-74.5 -42.5q3 -123 12 -237.5t25.5 -274.5t26 -288.5t9.5 -254.5q0 -50 -4 -101.5t-23.5 -99t-58.5 -47.5q-32 0 -39 31q-30 129 -30 260v1007 h-815q-74 0 -110.5 37t-46 92t-9.5 132z" />
<glyph unicode="l" d="M170 512q0 27 27 37l1169 553q4 2 14 2q17 0 29 -12t12 -29q0 -27 -24 -37l-1090 -514l1096 -518q18 -9 18 -35q0 -17 -12 -29t-29 -12q-10 0 -14 4l-1176 555q-20 6 -20 35zM954 512q0 55 39 95t94 40q56 0 96 -39t40 -96q0 -56 -40.5 -94.5t-95.5 -38.5 q-54 0 -93.5 39.5t-39.5 93.5z" />
<glyph unicode="m" d="M170 -41q0 26 27 39l1087 514l-1094 516q-20 9 -20 35q0 15 12 28t29 13q10 0 16 -2l1176 -555q18 -9 18 -35q0 -25 -24 -39l-1170 -551q-6 -4 -16 -4q-17 0 -29 13t-12 28zM369 512q0 56 39.5 95.5t93.5 39.5q55 0 95 -39t40 -96q0 -56 -40.5 -94.5t-94.5 -38.5 q-53 0 -93 39t-40 94z" />
<glyph unicode="n" d="M301 57v912q0 15 13 26t28 11q14 0 31 -13l424 -424l422 424q17 13 30 13q17 0 29 -12t12 -29t-10 -27l-426 -426l426 -424q10 -13 10 -29q0 -17 -12 -29t-29 -12q-15 0 -30 15l-422 422l-424 -422q-15 -15 -31 -15q-15 0 -28 11t-13 28zM383 158l354 354l-354 354v-708z " />
<glyph unicode="o" d="M301 59q0 16 10 29l426 424l-426 426q-10 10 -10 27q0 15 12 28t29 13q14 0 31 -13l424 -424l422 424q17 13 30 13q17 0 29 -11t12 -26v-912q0 -17 -12 -28t-29 -11q-15 0 -30 15l-422 422l-424 -422q-15 -15 -31 -15q-17 0 -29 13t-12 28zM854 512l354 -354v708z" />
<glyph unicode="p" horiz-adv-x="455" d="M186 -8v854q0 15 13 26t28 11q17 0 29 -11t12 -26v-854q0 -16 -12 -26.5t-29 -10.5q-15 0 -28 10.5t-13 26.5z" />
<glyph unicode="q" horiz-adv-x="795" d="M115 -8v854q0 15 12 26t29 11q15 0 28 -11t13 -26v-854q0 -16 -13 -26.5t-28 -10.5q-17 0 -29 10.5t-12 26.5zM598 -8v854q0 15 12 26t29 11q15 0 28 -11t13 -26v-854q0 -16 -13 -26.5t-28 -10.5q-17 0 -29 10.5t-12 26.5z" />
<glyph unicode="r" d="M186 842q0 15 13 28t28 13q14 0 23 -6l1139 -848q16 -14 16 -33q0 -17 -13 -29t-28 -12q-12 0 -23 6l-1138 848q-17 14 -17 33z" />
<glyph unicode="s" d="M115 342v14q0 99 42 190.5t119.5 148.5t178.5 57q92 0 166 -40.5t182 -124.5t177.5 -122.5t156.5 -38.5q69 0 132 34t102.5 93t39.5 129q0 61 33 70q17 -4 25 -26.5t8 -43.5v-14q0 -99 -42 -190.5t-119.5 -148.5t-178.5 -57q-89 0 -162 39.5t-180.5 123.5t-178.5 123.5 t-161 39.5q-70 0 -133 -34t-102.5 -93t-39.5 -129q0 -61 -33 -70q-32 9 -32 70z" />
<glyph unicode="t" d="M115 184v15q0 95 46 166t123.5 109t170.5 38q85 0 163 -32t188 -93.5t179 -90t152 -28.5q87 0 180.5 49t93.5 125q0 63 33 70q17 -4 25 -25.5t8 -44.5v-14q0 -95 -46.5 -166t-124 -109t-169.5 -38q-85 0 -158 29.5t-179.5 89.5t-183 92t-161.5 32q-87 0 -181 -48 t-94 -126q0 -62 -33 -69q-32 7 -32 69zM115 662v14q0 95 46 166t123.5 109t170.5 38q85 0 163 -32t188 -93.5t179 -90t152 -28.5q50 0 115.5 21t112 61t46.5 93q0 62 33 69q17 -4 25 -25.5t8 -43.5v-15q0 -95 -46.5 -166t-124 -109t-169.5 -38q-85 0 -154.5 28.5t-179.5 90 t-186.5 93.5t-161.5 32q-50 0 -116 -21t-112.5 -60.5t-46.5 -92.5q0 -63 -33 -70q-32 7 -32 70z" />
<glyph unicode="u" d="M102 -27q0 17 11 29t28 12h1311q16 0 26.5 -12t10.5 -29q0 -15 -10.5 -28t-26.5 -13h-1311q-17 0 -28 13t-11 28zM115 365v12q0 92 45.5 169t124.5 121t170 44q110 0 226.5 -70.5t231.5 -141.5t224 -71q105 0 193.5 65t88.5 166q6 52 29 52t29 -52v-12q0 -92 -45.5 -169 t-124.5 -121t-170 -44q-86 0 -161.5 35.5t-177 104t-180.5 106t-163 37.5q-65 0 -132 -29t-109 -81.5t-42 -120.5q-6 -52 -29 -52q-22 0 -28 52zM115 842v12q0 92 45.5 169t124.5 121t170 44q110 0 226.5 -70.5t231.5 -141.5t224 -71q105 0 193.5 65t88.5 167q6 51 29 51 t29 -51v-13q0 -92 -46 -169t-124.5 -120.5t-169.5 -43.5q-86 0 -161.5 35.5t-177 104t-178.5 105.5t-165 37q-65 0 -132 -29t-109 -81.5t-42 -120.5q-6 -51 -29 -51q-22 0 -28 51z" />
<glyph unicode="v" d="M115 -47q0 92 45.5 169t124.5 121t170 44q110 0 226.5 -70.5t231.5 -141.5t224 -71q105 0 193.5 65t88.5 167q6 51 29 51t29 -51v-13q0 -92 -45.5 -169t-124.5 -121t-170 -44q-86 0 -161.5 35.5t-177 104t-180.5 106t-163 37.5q-65 0 -132 -29t-109 -81.5t-42 -120.5 q-6 -52 -29 -52q-22 0 -28 52v12zM115 -524q0 92 45.5 169t124.5 121t170 44q110 0 226.5 -70.5t231.5 -141.5t224 -71q105 0 193.5 65t88.5 166q6 52 29 52t29 -52v-12q0 -92 -45.5 -169t-124.5 -121t-170 -44q-86 0 -161.5 35.5t-177 104t-180.5 106t-163 37.5 q-65 0 -132 -29t-109 -82.5t-42 -120.5q-6 -51 -29 -51q-22 0 -28 51v13zM170 543q26 216 182 330t393 157q-115 22 -208.5 56t-171.5 90.5t-129 142t-66 199.5q0 17 11 30t30 13q17 0 28.5 -11.5t12.5 -25.5q20 -158 142 -254t296.5 -138t334.5 -51t359 -10q16 0 26.5 -13 t10.5 -28t-10.5 -28t-26.5 -13q-275 0 -501 -23.5t-416 -123.5t-215 -305q-1 -16 -12.5 -27.5t-28.5 -11.5q-19 0 -30 13t-11 32z" />
<glyph unicode="w" d="M115 -47q0 92 45.5 169t124.5 121t170 44q110 0 226.5 -70.5t231.5 -141.5t224 -71q105 0 193.5 65t88.5 167q6 51 29 51t29 -51v-13q0 -92 -45.5 -169t-124.5 -121t-170 -44q-86 0 -161.5 35.5t-177 104t-180.5 106t-163 37.5q-65 0 -132 -29t-109 -81.5t-42 -120.5 q-6 -52 -29 -52q-22 0 -28 52v12zM115 -524q0 92 45.5 169t124.5 121t170 44q110 0 226.5 -70.5t231.5 -141.5t224 -71q105 0 193.5 65t88.5 166q6 52 29 52t29 -52v-12q0 -92 -45.5 -169t-124.5 -121t-170 -44q-86 0 -161.5 35.5t-177 104t-180.5 106t-163 37.5 q-65 0 -132 -29t-109 -82.5t-42 -120.5q-6 -51 -29 -51q-22 0 -28 51v13zM170 1030q0 15 11 28t28 13q274 0 499.5 23.5t415.5 123.5t215 306q1 14 12.5 25.5t28.5 11.5q19 0 30 -13t11 -30q-13 -113 -64 -198t-128.5 -141.5t-173.5 -92t-209 -56.5q239 -43 394.5 -157.5 t180.5 -329.5q0 -19 -11 -32t-30 -13q-17 0 -28 11t-13 28q-25 205 -216 305.5t-415.5 123.5t-498.5 23q-17 0 -28 13t-11 28z" />
<glyph unicode="x" horiz-adv-x="2048" d="M57 305v72q84 -30 160 -82.5t139 -120.5q0 216 110.5 399.5t297.5 289.5t401 106q240 0 425 -140.5t283.5 -364t98.5 -460.5q0 -19 -10.5 -32t-30.5 -13q-14 0 -27.5 10.5t-13.5 26.5q0 160 -49 320t-141.5 288.5t-228.5 205.5t-306 77q-192 0 -360.5 -96t-267.5 -261 t-99 -358q132 141 301 205v-72q-106 -40 -196.5 -120.5t-145.5 -184.5q-51 103 -142 184t-198 121z" />
<glyph unicode="y" horiz-adv-x="2048" d="M74 4q0 237 98.5 460.5t284 364t426.5 140.5q215 0 401 -106t297 -289.5t111 -399.5q63 68 138 119.5t161 83.5v-72q-107 -40 -196.5 -120t-143.5 -185q-55 104 -145 184.5t-197 120.5v72q169 -64 301 -205q0 147 -57 278t-158 229.5t-234 153t-278 54.5 q-222 0 -387.5 -130.5t-252.5 -335.5t-87 -425q0 -15 -13.5 -26t-27.5 -11q-19 0 -30 13.5t-11 31.5z" />
<glyph unicode="z" d="M115 -150l342 1371q9 18 90 18h839q23 0 57 -5t34 -15q0 -11 -34 -16t-57 -5h-731l-159 -643h393q23 0 56.5 -5t33.5 -15q0 -11 -34 -16t-56 -5h-404l-166 -666q-11 -18 -90 -18h-24q-23 0 -56.5 5t-33.5 15z" />
<glyph unicode="{" horiz-adv-x="1364" d="M109 33q0 37 38 61l318 221q69 127 127 347q14 72 22 75q-43 0 -101.5 -7t-106.5 -23.5t-56 -44.5h-59q17 69 76 119t134.5 76t147.5 26q25 0 25 -64q0 -75 -21 -158t-56 -160.5t-79 -148.5l733 506q69 49 144 49q70 0 80 -57q0 -31 -37 -62l-318 -221 q-69 -126 -127 -346q-15 -74 -22 -76q75 0 164 18.5t98 57.5h59q-17 -69 -74.5 -119t-134 -76t-149.5 -26q-23 0 -23 63q0 108 45 236t111 231l-733 -505q-71 -50 -144 -50q-31 0 -54 14.5t-27 43.5z" />
<glyph unicode="|" horiz-adv-x="1137" d="M41 37q0 12 9.5 23.5t23.5 11.5q34 0 47.5 38t13.5 83v1017q0 45 -13.5 83t-47.5 38q-33 7 -33 37q0 12 9.5 23.5t23.5 11.5h309q33 -8 33 -33v-868l231 209q53 48 53 108q0 24 -10.5 41t-34.5 17q-32 7 -32 36q0 11 9 23t23 12h373q33 -7 33 -35q0 -14 -10 -25t-23 -11 q-59 0 -144 -65t-188 -159l-65 -59l303 -381q100 -141 135 -141q14 -3 23.5 -12.5t9.5 -22.5q0 -14 -10.5 -25.5t-22.5 -11.5h-434q-33 7 -33 37q0 12 9.5 23.5t23.5 11.5q47 0 55 12q0 11 -8 25.5t-22 33t-21 27.5l-201 250l-22 -21v-206q0 -45 12.5 -83t48.5 -38 q33 -8 33 -35q0 -14 -10.5 -25.5t-22.5 -11.5h-403q-33 7 -33 37zM182 72h185q-23 46 -23 116v1143h-162q25 -51 25 -117v-1026q0 -62 -25 -116zM492 469l204 -256q31 -40 48.5 -68.5t17.5 -60.5v-12h192q-21 25 -77 98l-299 375zM762 872q5 -9 8 -26q1 -6 1.5 -11.5 t0.5 -15.5v-6q42 36 82 64h-92v-5z" />
<glyph unicode="}" horiz-adv-x="1106" d="M109 37q0 12 2 18l241 963l-168 -51q-4 -2 -8 -2q-10 0 -19.5 9.5t-9.5 20.5q0 22 21 29l201 59l41 166q2 8 2 23q0 55 -152 55l16 72l324 22q-6 -22 -6 -24l-66 -264l459 139q4 2 8 2q13 0 22 -9t9 -22q0 -21 -22 -29l-492 -149l-78 -309q126 149 299 149 q72 0 124.5 -25t82 -75.5t29.5 -120.5q0 -84 -37.5 -203t-93.5 -266q-29 -67 -29 -123q0 -61 47 -61q80 0 133.5 85.5t75.5 184.5q4 12 16 12h25q8 0 13 -5.5t5 -12.5q0 -2 -2 -6q-18 -74 -53.5 -145.5t-89.5 -119t-127 -47.5q-72 0 -123 49.5t-51 120.5q0 38 16 80 q58 154 96.5 275t38.5 213q0 59 -23 98t-77 39q-110 0 -192 -67.5t-142 -178.5l-139 -559q-8 -31 -31 -50.5t-53 -19.5q-26 0 -44.5 17.5t-18.5 42.5z" />
<glyph unicode="~" horiz-adv-x="1106" d="M109 37q0 12 2 18l266 1067h-164q-10 0 -18.5 9.5t-8.5 19.5q0 11 8 21t19 10h180l17 67q2 8 2 23q0 55 -152 55l16 72l324 22q-6 -22 -6 -24l-53 -215h405q11 0 19 -10t8 -21q0 -10 -8.5 -19.5t-18.5 -9.5h-422l-90 -366q126 149 299 149q72 0 124.5 -25t82 -75.5 t29.5 -120.5q0 -84 -37.5 -203t-93.5 -266q-29 -67 -29 -123q0 -61 47 -61q80 0 133.5 85.5t75.5 184.5q4 12 16 12h25q8 0 13 -5.5t5 -12.5q0 -2 -2 -6q-18 -74 -53.5 -145.5t-89.5 -119t-127 -47.5q-72 0 -123 49.5t-51 120.5q0 38 16 80q58 154 96.5 275t38.5 213 q0 59 -23 98t-77 39q-110 0 -192 -67.5t-142 -178.5l-139 -559q-8 -31 -31 -50.5t-53 -19.5q-26 0 -44.5 17.5t-18.5 42.5z" />
<glyph unicode="&#xa1;" d="M170 82q0 15 11 28t28 13h547v172q0 17 12 28t29 11q14 0 27.5 -11.5t13.5 -27.5v-172h546q16 0 26.5 -13t10.5 -28q0 -17 -10.5 -29t-26.5 -12h-546v-315h546q16 0 26.5 -13t10.5 -28q0 -17 -10.5 -29t-26.5 -12h-546v-172q0 -16 -13.5 -27.5t-27.5 -11.5q-17 0 -29 11 t-12 28v172h-547q-17 0 -28 12t-11 29q0 15 11 28t28 13h547v315h-547q-17 0 -28 12t-11 29zM170 950q0 27 27 37l1169 553q4 2 14 2q18 0 29.5 -11t11.5 -30q0 -27 -24 -37l-1090 -514l1096 -518q18 -9 18 -35q0 -17 -12 -29t-29 -12q-10 0 -14 4l-1176 555q-20 7 -20 35z " />
<glyph unicode="&#xa2;" d="M170 82q0 15 11 28t28 13h547v172q0 17 12 28t29 11q14 0 27.5 -11.5t13.5 -27.5v-172h546q16 0 26.5 -13t10.5 -28q0 -17 -10.5 -29t-26.5 -12h-546v-315h546q16 0 26.5 -13t10.5 -28q0 -17 -10.5 -29t-26.5 -12h-546v-172q0 -16 -13.5 -27.5t-27.5 -11.5q-17 0 -29 11 t-12 28v172h-547q-17 0 -28 12t-11 29q0 15 11 28t28 13h547v315h-547q-17 0 -28 12t-11 29zM170 397q0 26 27 39l1087 514l-1094 516q-20 10 -20 35q0 17 11 29t30 12q10 0 16 -2l1176 -555q18 -9 18 -35q0 -24 -24 -39l-1170 -551q-6 -4 -16 -4q-17 0 -29 13t-12 28z" />
<glyph unicode="&#xa3;" d="M170 -240q0 17 11 29t28 12h248l260 625l-527 250q-20 9 -20 35t27 37l813 385l202 487q12 25 37 25q17 0 29 -12t12 -29q0 -11 -2 -15l-168 -405l246 116q4 3 14 3q17 0 29 -12t12 -29q0 -27 -24 -37l-324 -154l-252 -604l582 -274q18 -10 18 -35q0 -18 -12 -29.5 t-29 -11.5q-6 0 -14 4l-575 270l-246 -590h839q16 0 26.5 -12t10.5 -29q0 -14 -10.5 -27.5t-26.5 -13.5h-874l-131 -315q-11 -25 -37 -25q-17 0 -29 13t-12 28q0 11 2 15l119 284h-213q-16 0 -27.5 13.5t-11.5 27.5zM307 711l441 -209l215 518z" />
<glyph unicode="&#xa4;" d="M170 158q0 25 20 35l533 253l184 443l-710 336q-27 10 -27 37q0 15 12 28t29 13q10 0 16 -3l713 -335l272 655q12 25 37 25q17 0 29 -12t12 -29q0 -11 -2 -15l-274 -661l383 -180q24 -12 24 -37q0 -26 -18 -35l-617 -291l-241 -584h839q16 0 26.5 -12t10.5 -29 q0 -14 -10.5 -27.5t-26.5 -13.5h-874l-131 -315q-11 -25 -37 -25q-17 0 -29 13t-12 28q0 11 2 15l119 284h-213q-16 0 -27.5 13.5t-11.5 27.5q0 17 11 29t28 12h248l221 533l-451 -213q-12 -4 -16 -4q-17 0 -29 12t-12 29zM834 498l450 213l-303 143z" />
<glyph unicode="&#xa5;" d="M170 512q0 26 20 35l760 358l264 522q10 19 35 19q17 0 29 -12t12 -29q0 -10 -2 -14l-217 -428l295 139q8 4 14 4q18 0 29.5 -12.5t11.5 -28.5q0 -29 -18 -35l-393 -186l-273 -535l660 -311q24 -14 24 -39q0 -16 -11.5 -28.5t-29.5 -12.5q-6 0 -14 4l-666 314l-323 -639 q-9 -19 -35 -19q-17 0 -29 13t-12 28q0 10 2 14l324 637l-430 205q-27 10 -27 37zM307 512l357 -168l227 442z" />
<glyph unicode="&#xa6;" d="M170 -41q0 26 27 39l385 182l272 535l-664 315q-20 6 -20 35q0 14 11.5 27.5t29.5 13.5q4 0 16 -4l664 -314l323 639q10 19 35 19q17 0 29 -12t12 -29q0 -10 -6 -21l-319 -630l438 -207q18 -9 18 -35q0 -27 -24 -37l-756 -356l-264 -522q-9 -19 -35 -19q-17 0 -29 13 t-12 28q0 10 6 21l213 421l-293 -139q-12 -4 -16 -4q-18 0 -29.5 13.5t-11.5 27.5zM700 238l584 274l-356 168z" />
<glyph unicode="&#xa7;" d="M170 512q0 15 11 28t28 13q357 0 588 49l417 825q12 19 35 19q17 0 29 -12t12 -29q0 -10 -2 -14l-387 -762q121 36 213 92t153 143.5t72 202.5q1 14 12.5 25.5t28.5 11.5q19 0 30 -13t11 -30q-41 -405 -569 -529l-18 -34q245 -57 405 -184.5t182 -350.5q0 -18 -11 -31.5 t-30 -13.5q-17 0 -28 11t-13 28q-13 135 -91 229.5t-195.5 150t-257.5 85.5l-418 -825q-10 -19 -35 -19q-17 0 -29 13t-12 28q0 10 2 14l410 803q-210 35 -504 35q-17 0 -28 13t-11 28z" />
<glyph unicode="&#xa8;" d="M170 -37q13 116 62 204t126 151t175.5 106.5t205.5 67.5l19 36q-152 34 -279.5 99t-210 173t-98.5 261q0 17 11 30t30 13q17 0 28.5 -11.5t12.5 -25.5q22 -199 171.5 -307.5t373.5 -157.5l417 825q12 19 35 19q17 0 29 -12t12 -29q0 -10 -2 -14l-407 -803 q206 -35 503 -35q16 0 26.5 -13t10.5 -28t-10.5 -28t-26.5 -13q-360 0 -589 -49l-418 -825q-10 -19 -35 -19q-17 0 -29 13t-12 28q0 10 2 14l387 762q-121 -36 -213 -92t-153 -143.5t-72 -202.5q-1 -16 -12.5 -27.5t-28.5 -11.5q-19 0 -30 13.5t-11 31.5z" />
<glyph unicode="&#xa9;" d="M170 82q0 15 11 28t28 13h758l188 196q13 15 31 15q15 0 28 -13t13 -28q0 -16 -10 -29l-136 -141h303q16 0 26.5 -13t10.5 -28q0 -17 -10.5 -29t-26.5 -12h-380l-302 -315h682q16 0 26.5 -13t10.5 -28q0 -17 -10.5 -29t-26.5 -12h-759l-189 -197q-14 -14 -30 -14 q-17 0 -29 12t-12 29q0 15 10 28l135 142h-301q-17 0 -28 12t-11 29q0 15 11 28t28 13h379l301 315h-680q-17 0 -28 12t-11 29zM170 950q0 27 27 37l1169 553q4 2 14 2q18 0 29.5 -11t11.5 -30q0 -27 -24 -37l-1090 -514l1096 -518q18 -9 18 -35q0 -17 -12 -29t-29 -12 q-10 0 -14 4l-1176 555q-20 7 -20 35z" />
<glyph unicode="&#xaa;" d="M170 82q0 15 11 28t28 13h758l188 196q13 15 31 15q15 0 28 -13t13 -28q0 -16 -10 -29l-136 -141h303q16 0 26.5 -13t10.5 -28q0 -17 -10.5 -29t-26.5 -12h-380l-302 -315h682q16 0 26.5 -13t10.5 -28q0 -17 -10.5 -29t-26.5 -12h-759l-189 -197q-14 -14 -30 -14 q-17 0 -29 12t-12 29q0 15 10 28l135 142h-301q-17 0 -28 12t-11 29q0 15 11 28t28 13h379l301 315h-680q-17 0 -28 12t-11 29zM170 397q0 26 27 39l1087 514l-1094 516q-20 10 -20 35q0 17 11 29t30 12q10 0 16 -2l1176 -555q18 -9 18 -35q0 -24 -24 -39l-1170 -551 q-6 -4 -16 -4q-17 0 -29 13t-12 28z" />
<glyph unicode="&#xad;" d="M170 313q0 17 11 29t30 12q4 0 16 -4l381 -180l109 256l-527 250q-20 9 -20 35t27 37l813 385l202 487q12 25 37 25q17 0 29 -12t12 -29q0 -11 -2 -15l-168 -405l246 116q4 3 14 3q17 0 29 -12t12 -29q0 -27 -24 -37l-324 -154l-252 -604l582 -274q18 -10 18 -35 q0 -18 -12 -29.5t-29 -11.5q-6 0 -14 4l-575 270l-107 -256l719 -340q18 -9 18 -35q0 -17 -12 -29t-29 -12q-7 0 -14 5l-715 335l-272 -655q-11 -25 -37 -25q-17 0 -29 13t-12 28q0 11 2 15l275 659l-388 185q-20 9 -20 34zM307 711l441 -209l215 518z" />
<glyph unicode="&#xae;" d="M170 158q0 25 20 35l533 253l184 443l-710 336q-27 10 -27 37q0 15 12 28t29 13q10 0 16 -3l713 -335l272 655q12 25 37 25q17 0 29 -12t12 -29q0 -11 -2 -15l-274 -661l383 -180q24 -12 24 -37q0 -26 -18 -35l-617 -291l-157 -381l737 346q8 4 14 4q18 0 29.5 -11 t11.5 -30q0 -25 -18 -34l-821 -388l-203 -487q-11 -25 -37 -25q-17 0 -29 13t-12 28q0 11 2 15l168 403l-244 -114q-10 -5 -16 -5q-17 0 -29 13t-12 28q0 26 20 35l328 156l160 383l-451 -213q-12 -4 -16 -4q-17 0 -29 12t-12 29zM834 498l450 213l-303 143z" />
<glyph unicode="&#xaf;" d="M170 -240q0 17 11 29t28 12h569l187 185q10 14 30 14q17 0 29 -11.5t12 -29.5q0 -14 -10 -29l-131 -129h489q16 0 26.5 -12t10.5 -29q0 -15 -10.5 -28t-26.5 -13h-571l-184 -186q-16 -12 -31 -12q-17 0 -29 12t-12 29q0 18 10 26l129 131h-487q-17 0 -28 13t-11 28z M170 711q0 26 27 37l1169 552q4 3 14 3q17 0 29 -12t12 -29q0 -27 -24 -37l-1090 -514l1096 -518q18 -10 18 -35q0 -18 -12 -29.5t-29 -11.5q-10 0 -14 4l-1176 555q-20 6 -20 35z" />
<glyph unicode="&#xb0;" d="M170 158q0 25 27 39l1087 514l-1094 516q-20 9 -20 35q0 15 12 28t29 13q10 0 16 -3l1176 -555q18 -9 18 -34t-24 -39l-1170 -551q-6 -4 -16 -4q-17 0 -29 12t-12 29zM170 -240q0 17 11 29t28 12h569l187 185q10 14 30 14q17 0 29 -11.5t12 -29.5q0 -14 -10 -29 l-131 -129h489q16 0 26.5 -12t10.5 -29q0 -15 -10.5 -28t-26.5 -13h-571l-184 -186q-16 -12 -31 -12q-17 0 -29 12t-12 29q0 18 10 26l129 131h-487q-17 0 -28 13t-11 28z" />
<glyph unicode="&#xb1;" d="M170 -240q0 17 11 29t28 12h246l342 820q-231 49 -588 49q-17 0 -28 12t-11 29q0 15 11 28t28 13q130 0 239 5.5t217.5 20.5t215.5 45l331 797q12 25 37 25q17 0 29 -12t12 -29q0 -11 -2 -15l-305 -733q326 126 356 410q1 14 12.5 25.5t28.5 11.5q19 0 30 -13t11 -30 q-20 -195 -149.5 -318.5t-331.5 -185.5l-31 -80q99 -27 189 -72t158 -106.5t111.5 -145t53.5 -190.5q0 -19 -11 -32t-30 -13q-16 0 -27.5 11.5t-13.5 27.5q-9 91 -49.5 165t-102.5 127t-139.5 90t-170.5 62l-332 -799h839q16 0 26.5 -12t10.5 -29q0 -15 -10.5 -28t-26.5 -13 h-874l-131 -315q-11 -25 -37 -25q-17 0 -29 13t-12 28q0 11 2 15l119 284h-213q-17 0 -28 13t-11 28zM758 711q36 -6 69 -15l15 31q-62 -13 -84 -16z" />
<glyph unicode="&#xb2;" d="M170 162q17 165 113.5 278.5t237 176t313.5 94.5q-171 30 -312.5 93t-238 176t-113.5 280q0 17 11 30t30 13q17 0 28.5 -11.5t12.5 -25.5q13 -115 69 -197.5t141 -137.5t188 -89t216 -54l346 832q12 25 37 25q17 0 29 -12t12 -29q0 -11 -2 -15l-338 -813q187 -24 434 -24 q16 0 26.5 -13t10.5 -28q0 -17 -10.5 -29t-26.5 -12q-282 0 -491 -33l-348 -836h839q16 0 26.5 -12t10.5 -29q0 -15 -10.5 -28t-26.5 -13h-874l-131 -315q-11 -25 -37 -25q-17 0 -29 13t-12 28q0 11 2 15l119 284h-213q-17 0 -28 13t-11 28q0 17 11 29t28 12h246l342 820 q-224 -49 -373.5 -158t-171.5 -307q-2 -16 -13.5 -27.5t-27.5 -11.5q-19 0 -30 13t-11 32z" />
<glyph unicode="&#xb3;" d="M115 -399q0 99 41 195t118.5 157t180.5 61q63 0 121 -24t105.5 -58.5t106.5 -85.5l218 398q9 18 34 18q18 0 29.5 -11t11.5 -30q0 -11 -6 -20l-225 -410q74 -65 142.5 -102t144.5 -37q81 0 145.5 43.5t100.5 116t36 151.5q6 51 29 51t29 -51v-12q0 -99 -41.5 -195.5 t-118.5 -157.5t-180 -61q-86 0 -164.5 44t-169.5 124l-217 -397q-9 -19 -35 -19q-17 0 -29 13t-12 28q0 12 6 21l225 409q-76 67 -143 103.5t-143 36.5q-80 0 -145.5 -44t-101.5 -116.5t-36 -151.5q-6 -51 -29 -51q-22 0 -28 51v13zM170 905q0 17 11 29t28 12 q183 0 359.5 15t347 65t288.5 156.5t135 279.5q1 16 12.5 26.5t28.5 10.5q19 0 30 -13t11 -30q-46 -440 -663 -551q269 -47 453.5 -176.5t209.5 -370.5q0 -18 -11 -31.5t-30 -13.5q-17 0 -28 11t-13 28q-17 171 -137 278t-289.5 156t-339.5 63.5t-364 14.5q-17 0 -28 13 t-11 28z" />
<glyph unicode="&#xb4;" d="M115 -399q0 99 41 195t118.5 157t180.5 61q63 0 121 -24t105.5 -58.5t106.5 -85.5l218 398q9 18 34 18q18 0 29.5 -11t11.5 -30q0 -11 -6 -20l-225 -410q74 -65 142.5 -102t144.5 -37q81 0 145.5 43.5t100.5 116t36 151.5q6 51 29 51t29 -51v-12q0 -99 -41.5 -195.5 t-118.5 -157.5t-180 -61q-86 0 -164.5 44t-169.5 124l-217 -397q-9 -19 -35 -19q-17 0 -29 13t-12 28q0 12 6 21l225 409q-76 67 -143 103.5t-143 36.5q-80 0 -145.5 -44t-101.5 -116.5t-36 -151.5q-6 -51 -29 -51q-22 0 -28 51v13zM170 358q17 165 113 278t238 176t313 93 q-618 111 -664 551q0 17 11 30t30 13q17 0 28.5 -10.5t12.5 -26.5q23 -225 211.5 -339t424 -145.5t496.5 -31.5q16 0 26.5 -12t10.5 -29q0 -15 -10.5 -28t-26.5 -13q-194 0 -364 -14t-340.5 -63.5t-290 -156t-137.5 -278.5q-1 -16 -12.5 -27.5t-28.5 -11.5q-19 0 -30 13.5 t-11 31.5z" />
<glyph unicode="&#xb5;" d="M115 -399q0 99 41 195t118.5 157t180.5 61q63 0 121 -24t105.5 -58.5t106.5 -85.5l218 398q9 18 34 18q18 0 29.5 -11t11.5 -30q0 -11 -6 -20l-225 -410q74 -65 142.5 -102t144.5 -37q81 0 145.5 43.5t100.5 116t36 151.5q6 51 29 51t29 -51v-12q0 -99 -41.5 -195.5 t-118.5 -157.5t-180 -61q-86 0 -164.5 44t-169.5 124l-217 -397q-9 -19 -35 -19q-17 0 -29 13t-12 28q0 12 6 21l225 409q-76 67 -143 103.5t-143 36.5q-80 0 -145.5 -44t-101.5 -116.5t-36 -151.5q-6 -51 -29 -51q-22 0 -28 51v13zM170 907q0 27 27 37l1169 553q4 2 14 2 q18 0 29.5 -11t11.5 -30q0 -27 -24 -37l-1090 -514l1096 -518q18 -9 18 -35q0 -17 -12 -29t-29 -12q-10 0 -14 4l-1176 555q-20 7 -20 35z" />
<glyph unicode="&#xb6;" d="M115 -399q0 99 41 195t118.5 157t180.5 61q63 0 121 -24t105.5 -58.5t106.5 -85.5l218 398q9 18 34 18q18 0 29.5 -11t11.5 -30q0 -11 -6 -20l-225 -410q74 -65 142.5 -102t144.5 -37q81 0 145.5 43.5t100.5 116t36 151.5q6 51 29 51t29 -51v-12q0 -99 -41.5 -195.5 t-118.5 -157.5t-180 -61q-86 0 -164.5 44t-169.5 124l-217 -397q-9 -19 -35 -19q-17 0 -29 13t-12 28q0 12 6 21l225 409q-76 67 -143 103.5t-143 36.5q-80 0 -145.5 -44t-101.5 -116.5t-36 -151.5q-6 -51 -29 -51q-22 0 -28 51v13zM170 354q0 26 27 39l1087 514l-1094 516 q-20 10 -20 35q0 17 11 29t30 12q10 0 16 -2l1176 -555q18 -9 18 -35q0 -24 -24 -39l-1170 -551q-6 -4 -16 -4q-17 0 -29 13t-12 28z" />
<glyph unicode="&#xb8;" d="M170 82q0 15 11 28t28 13h412l172 504l-566 -267q-12 -4 -16 -4q-17 0 -29 13t-12 28q0 26 27 39l632 299l125 371l-764 360q-20 10 -20 35q0 17 11 29t30 12q10 0 16 -2l754 -356l231 676q9 24 37 24q18 0 29.5 -11t11.5 -30q0 -10 -2 -14l-231 -680l346 -164 q18 -9 18 -35q0 -24 -24 -39l-502 -235l-188 -553h677q16 0 26.5 -13t10.5 -28t-11 -28t-26 -13h-706l-107 -315h813q16 0 26.5 -13t10.5 -28t-11 -28t-26 -13h-841l-164 -480q-3 -10 -15 -17t-22 -7q-17 0 -29 12t-12 29q0 10 2 14l154 449h-248q-15 0 -27 13t-12 28t11 28 t28 13h276l107 315h-383q-15 0 -27 13t-12 28zM932 782l352 168l-254 121z" />
<glyph unicode="&#xb9;" d="M170 82q0 15 11 28t28 13h758l188 196q13 15 31 15q15 0 28 -13t13 -28q0 -16 -10 -29l-136 -141h303q16 0 26.5 -13t10.5 -28q0 -17 -10.5 -29t-26.5 -12h-380l-302 -315h682q16 0 26.5 -13t10.5 -28q0 -17 -10.5 -29t-26.5 -12h-759l-189 -197q-14 -14 -30 -14 q-17 0 -29 12t-12 29q0 15 10 28l135 142h-301q-17 0 -28 12t-11 29q0 15 11 28t28 13h379l301 315h-680q-17 0 -28 12t-11 29zM170 950q0 15 11 28t28 13q183 0 359 15t346 65t289 156.5t136 277.5q1 16 12.5 26.5t28.5 10.5q19 0 30 -13t11 -30q-25 -243 -208 -371.5 t-455 -177.5q272 -49 455 -177.5t208 -371.5q0 -18 -11 -31.5t-30 -13.5q-17 0 -28 11t-13 28q-17 172 -135.5 279t-291 157t-340.5 64t-363 14q-17 0 -28 13t-11 28z" />
<glyph unicode="&#xba;" d="M170 82q0 15 11 28t28 13h758l188 196q13 15 31 15q15 0 28 -13t13 -28q0 -16 -10 -29l-136 -141h303q16 0 26.5 -13t10.5 -28q0 -17 -10.5 -29t-26.5 -12h-380l-302 -315h682q16 0 26.5 -13t10.5 -28q0 -17 -10.5 -29t-26.5 -12h-759l-189 -197q-14 -14 -30 -14 q-17 0 -29 12t-12 29q0 15 10 28l135 142h-301q-17 0 -28 12t-11 29q0 15 11 28t28 13h379l301 315h-680q-17 0 -28 12t-11 29zM170 401q26 243 208.5 371.5t455.5 177.5q-273 49 -455.5 177.5t-208.5 371.5q0 17 11 30t30 13q17 0 28.5 -10.5t12.5 -26.5q22 -223 210 -337 t424.5 -145.5t497.5 -31.5q16 0 26.5 -13t10.5 -28t-10.5 -28t-26.5 -13q-262 0 -496.5 -31.5t-423.5 -145.5t-212 -337q-1 -16 -12.5 -27.5t-28.5 -11.5q-19 0 -30 13.5t-11 31.5z" />
<glyph unicode="&#xbb;" d="M115 -47q0 92 45.5 169t124.5 121t170 44q56 0 113 -18t100 -41.5t106.5 -65.5t99.5 -66l132 258q9 19 34 19q17 0 29 -12t12 -29q0 -10 -4 -15l-131 -262q102 -51 191 -51q105 0 193.5 65t88.5 167q6 51 29 51t29 -51v-13q0 -92 -45.5 -169t-124.5 -121t-170 -44 q-108 0 -238 74l-137 -270q58 -38 94 -61.5t86 -50t98.5 -40.5t96.5 -14q105 0 193.5 65t88.5 166q6 52 29 52t29 -52v-12q0 -92 -45.5 -169t-124.5 -121t-170 -44q-74 0 -141.5 27t-131.5 68t-147 96l-131 -258q-9 -19 -35 -19q-17 0 -29 13t-12 28q0 10 4 15l131 262 q-100 51 -190 51q-65 0 -132 -29t-109 -82.5t-42 -120.5q-6 -51 -29 -51q-22 0 -28 51v13q0 92 45.5 169t124.5 121t170 44q109 0 237 -74l137 270q-42 28 -87.5 58.5t-92 55t-95.5 38.5t-99 14q-65 0 -132 -29t-109 -81.5t-42 -120.5q-6 -52 -29 -52q-22 0 -28 52v12z M170 1030q0 15 11 28t28 13q274 0 499.5 23.5t415.5 123.5t215 306q1 14 12.5 25.5t28.5 11.5q19 0 30 -13t11 -30q-13 -113 -64 -198t-128.5 -141.5t-173.5 -92t-209 -56.5q239 -43 394.5 -157.5t180.5 -329.5q0 -19 -11 -32t-30 -13q-17 0 -28 11t-13 28 q-25 205 -216 305.5t-415.5 123.5t-498.5 23q-17 0 -28 13t-11 28z" />
<glyph unicode="&#xbc;" d="M115 -47q0 92 45.5 169t124.5 121t170 44q56 0 113 -18t100 -41.5t106.5 -65.5t99.5 -66l132 258q9 19 34 19q17 0 29 -12t12 -29q0 -10 -4 -15l-131 -262q102 -51 191 -51q105 0 193.5 65t88.5 167q6 51 29 51t29 -51v-13q0 -92 -45.5 -169t-124.5 -121t-170 -44 q-108 0 -238 74l-137 -270q58 -38 94 -61.5t86 -50t98.5 -40.5t96.5 -14q105 0 193.5 65t88.5 166q6 52 29 52t29 -52v-12q0 -92 -45.5 -169t-124.5 -121t-170 -44q-74 0 -141.5 27t-131.5 68t-147 96l-131 -258q-9 -19 -35 -19q-17 0 -29 13t-12 28q0 10 4 15l131 262 q-100 51 -190 51q-65 0 -132 -29t-109 -82.5t-42 -120.5q-6 -51 -29 -51q-22 0 -28 51v13q0 92 45.5 169t124.5 121t170 44q109 0 237 -74l137 270q-42 28 -87.5 58.5t-92 55t-95.5 38.5t-99 14q-65 0 -132 -29t-109 -81.5t-42 -120.5q-6 -52 -29 -52q-22 0 -28 52v12z M170 543q26 216 182 330t393 157q-115 22 -208.5 56t-171.5 90.5t-129 142t-66 199.5q0 17 11 30t30 13q17 0 28.5 -11.5t12.5 -25.5q20 -158 142 -254t296.5 -138t334.5 -51.5t359 -9.5q16 0 26.5 -13t10.5 -28t-10.5 -28t-26.5 -13q-275 0 -501 -23.5t-416 -123.5 t-215 -305q-1 -16 -12.5 -27.5t-28.5 -11.5q-19 0 -30 13t-11 32z" />
<glyph unicode="&#xbd;" d="M115 -47q0 92 46 168.5t124.5 121t169.5 44.5q56 0 109 -16.5t100.5 -41.5t105.5 -64t88 -59l143 345q15 26 39 26q18 0 29.5 -11t11.5 -30q0 -4 -4 -16l-147 -357q109 -59 207 -59q104 0 193 65.5t89 166.5q6 51 29 51t29 -51v-13q0 -92 -46 -168.5t-125 -121 t-169 -44.5q-62 0 -121 20t-127 58l-117 -280q32 -21 78 -51t97 -56.5t97 -39.5t93 -13q104 0 193 65.5t89 165.5q6 52 29 52t29 -52v-12q0 -92 -46 -168.5t-125 -121t-169 -44.5q-71 0 -138.5 26.5t-141 73.5t-124.5 80l-143 -344q-13 -26 -39 -26q-17 0 -29 12t-12 29 q0 4 4 16l148 356q-110 60 -207 60q-65 0 -132 -29.5t-109 -82t-42 -120.5q-6 -51 -29 -51q-22 0 -28 51v13q0 92 46 168.5t124.5 121t169.5 44.5q111 0 247 -78l117 280q-135 89 -204.5 124.5t-159.5 35.5q-65 0 -132 -29.5t-109 -81.5t-42 -120q-6 -52 -29 -52 q-22 0 -28 52v12zM170 1030q0 27 27 37l1169 492q4 2 14 2q17 0 29 -12t12 -29q0 -27 -24 -37l-1080 -453l1080 -452q24 -15 24 -39q0 -18 -12 -29.5t-29 -11.5q-10 0 -14 4l-1169 489q-27 10 -27 39z" />
<glyph unicode="&#xbe;" d="M115 -47q0 92 46 168.5t124.5 121t169.5 44.5q56 0 109 -16.5t100.5 -41.5t105.5 -64t88 -59l143 345q15 26 39 26q18 0 29.5 -11t11.5 -30q0 -4 -4 -16l-147 -357q109 -59 207 -59q104 0 193 65.5t89 166.5q6 51 29 51t29 -51v-13q0 -92 -46 -168.5t-125 -121 t-169 -44.5q-62 0 -121 20t-127 58l-117 -280q32 -21 78 -51t97 -56.5t97 -39.5t93 -13q104 0 193 65.5t89 165.5q6 52 29 52t29 -52v-12q0 -92 -46 -168.5t-125 -121t-169 -44.5q-71 0 -138.5 26.5t-141 73.5t-124.5 80l-143 -344q-13 -26 -39 -26q-17 0 -29 12t-12 29 q0 4 4 16l148 356q-110 60 -207 60q-65 0 -132 -29.5t-109 -82t-42 -120.5q-6 -51 -29 -51q-22 0 -28 51v13q0 92 46 168.5t124.5 121t169.5 44.5q111 0 247 -78l117 280q-135 89 -204.5 124.5t-159.5 35.5q-65 0 -132 -29.5t-109 -81.5t-42 -120q-6 -52 -29 -52 q-22 0 -28 52v12zM170 539q0 25 27 39l1077 452l-1077 453q-27 10 -27 37q0 15 12 28t29 13q10 0 16 -2l1170 -492q24 -10 24 -37q0 -29 -24 -39l-1170 -489q-6 -4 -16 -4q-17 0 -29 12t-12 29z" />
<glyph unicode="&#xbf;" d="M115 342v14q0 99 42 190.5t119.5 148.5t178.5 57q65 0 123.5 -23t110.5 -58t116 -85l301 360q9 12 31 12q17 0 29 -12t12 -28q0 -18 -11 -27l-297 -354q67 -52 132.5 -81.5t134.5 -29.5t132 34t102.5 93t39.5 129q0 61 33 70q17 -4 25 -26.5t8 -43.5v-14 q0 -99 -42 -190.5t-119.5 -148.5t-178.5 -57q-65 0 -124 23t-111 58t-116 85l-301 -360q-9 -12 -30 -12q-17 0 -29 12t-12 28q0 17 10 27l297 354q-144 111 -266 111q-70 0 -133 -34t-102.5 -93t-39.5 -129q0 -61 -33 -70q-32 9 -32 70z" />
<glyph unicode="&#xc0;" d="M115 55q0 15 11 28t28 13h356l180 316h-536q-17 0 -28 12t-11 29q0 14 11.5 27.5t27.5 13.5h583l201 350q-50 26 -125.5 76.5t-124.5 80.5t-107 52t-126 22q-65 0 -132 -29t-109 -81.5t-42 -120.5q-6 -51 -29 -51q-22 0 -28 51v12q0 93 45.5 170t124.5 120.5t170 43.5 q92 0 170.5 -38.5t187.5 -111.5t178 -102l223 389q17 19 35 19q17 0 29 -12t12 -29q0 -12 -6 -21l-211 -371q31 -6 64 -6q105 0 193.5 65t88.5 167q7 51 29 51t29 -51v-13q0 -92 -46 -169t-124.5 -120.5t-169.5 -43.5q-65 0 -121 20l-185 -319h609q14 0 25.5 -13.5 t11.5 -27.5q0 -17 -11 -29t-26 -12h-656l-180 -316h836q15 0 26 -13t11 -28t-11 -28t-26 -13h-883l-180 -317q-15 -19 -35 -19q-17 0 -29 13t-12 28q0 12 6 21l156 274h-309q-17 0 -28 13t-11 28z" />
<glyph unicode="&#xc1;" horiz-adv-x="1819" d="M0 -356q0 16 10 26l1680 1739q12 12 30 12t29.5 -11t11.5 -30q0 -16 -10 -26l-1679 -1739q-13 -12 -31 -12q-17 0 -29 12t-12 29z" />
<glyph unicode="&#xc2;" horiz-adv-x="1819" d="M0 1380q0 17 11 29t30 12q17 0 31 -12l1679 -1739q10 -10 10 -26q0 -18 -12 -29.5t-29 -11.5q-18 0 -30 12l-1680 1739q-10 10 -10 26z" />
<glyph unicode="&#xc3;" d="M170 711q0 164 86 299.5t230 214t307 78.5h591q16 0 26.5 -13t10.5 -28q0 -17 -10.5 -29t-26.5 -12h-585q-107 0 -205 -37t-176.5 -107.5t-122 -163t-43.5 -202.5t43.5 -202.5t122 -163.5t176.5 -108.5t205 -37.5h143l180 215q9 12 31 12q18 0 29.5 -11t11.5 -30 q0 -15 -10 -27l-133 -159h333q16 0 26.5 -13t10.5 -28q0 -17 -10.5 -29t-26.5 -12h-403l-264 -316h667q16 0 26.5 -12t10.5 -29q0 -15 -10.5 -28t-26.5 -13h-735l-180 -215q-9 -12 -31 -12q-15 0 -28 13t-13 28q0 18 11 27l133 159h-291q-17 0 -28 13t-11 28q0 17 11 29 t28 12h360l264 316h-81q-163 0 -307 78t-230 214t-86 302z" />
<glyph unicode="&#xc4;" horiz-adv-x="879" d="M231 31q0 14 11.5 27.5t27.5 13.5h113q62 0 116 21.5t95 59t72 91t47 108.5h-363q-13 0 -22 9t-9 22q0 14 11.5 27.5t27.5 13.5h373q12 60 17.5 97.5t5.5 72.5q0 69 -25 128t-75 94.5t-119 35.5q-46 0 -98 -20t-96.5 -44t-45.5 -24q-10 0 -17.5 11.5t-7.5 25.5q0 11 9 14 q56 41 123 65.5t135 24.5q108 0 195 -50.5t134 -139.5t47 -197q0 -104 -42.5 -199t-118 -167.5t-171.5 -112t-202 -39.5h-117q-11 0 -21 10t-10 21z" />
<glyph unicode="&#x2000;" horiz-adv-x="942" />
<glyph unicode="&#x2001;" horiz-adv-x="1884" />
<glyph unicode="&#x2002;" horiz-adv-x="942" />
<glyph unicode="&#x2003;" horiz-adv-x="1884" />
<glyph unicode="&#x2004;" horiz-adv-x="628" />
<glyph unicode="&#x2005;" horiz-adv-x="471" />
<glyph unicode="&#x2006;" horiz-adv-x="314" />
<glyph unicode="&#x2007;" horiz-adv-x="314" />
<glyph unicode="&#x2008;" horiz-adv-x="235" />
<glyph unicode="&#x2009;" horiz-adv-x="376" />
<glyph unicode="&#x200a;" horiz-adv-x="104" />
<glyph unicode="&#x2010;" horiz-adv-x="567" d="M-41 512q0 14 10 29l275 245v713q0 16 12 26.5t29 10.5q15 0 28 -10.5t13 -26.5v-637l211 191q16 12 30 12q18 0 29.5 -11t11.5 -30q0 -15 -10 -27l-272 -247v-1225q0 -16 -13 -26.5t-28 -10.5q-17 0 -29 10.5t-12 26.5v1151l-213 -191q-14 -14 -31 -14t-29 12t-12 29z " />
<glyph unicode="&#x2011;" horiz-adv-x="567" d="M-41 512q0 14 10 29l275 245v713q0 16 12 26.5t29 10.5q15 0 28 -10.5t13 -26.5v-637l211 191q16 12 30 12q18 0 29.5 -11t11.5 -30q0 -15 -10 -27l-272 -247v-1225q0 -16 -13 -26.5t-28 -10.5q-17 0 -29 10.5t-12 26.5v1151l-213 -191q-14 -14 -31 -14t-29 12t-12 29z " />
<glyph unicode="&#x2012;" horiz-adv-x="567" d="M-41 512q0 14 10 29l275 245v713q0 16 12 26.5t29 10.5q15 0 28 -10.5t13 -26.5v-637l211 191q16 12 30 12q18 0 29.5 -11t11.5 -30q0 -15 -10 -27l-272 -247v-1225q0 -16 -13 -26.5t-28 -10.5q-17 0 -29 10.5t-12 26.5v1151l-213 -191q-14 -14 -31 -14t-29 12t-12 29z " />
<glyph unicode="&#x2013;" horiz-adv-x="942" d="M-41 512q0 14 16 29l434 245v713q0 16 19 26.5t45 10.5q24 0 44.5 -10.5t20.5 -26.5v-637l333 191q25 12 47 12q29 0 47 -11t18 -30q0 -15 -16 -27l-429 -247v-1225q0 -16 -20.5 -26.5t-44.5 -10.5q-26 0 -45 10.5t-19 26.5v1151l-336 -191q-22 -14 -49 -14t-46 12 t-19 29z" />
<glyph unicode="&#x2014;" horiz-adv-x="1966" d="M-41 512q0 14 32 29l867 245v713q0 16 38 26.5t92 10.5q47 0 88 -10.5t41 -26.5v-637l666 191q50 12 95 12q56 0 92.5 -11t36.5 -30q0 -15 -32 -27l-858 -247v-1225q0 -16 -41 -26.5t-88 -10.5q-54 0 -92 10.5t-38 26.5v1151l-672 -191q-44 -14 -98 -14q-53 0 -91 12 t-38 29z" />
<glyph unicode="&#x202f;" horiz-adv-x="376" />
<glyph unicode="&#x205f;" horiz-adv-x="471" />
<glyph unicode="&#x2219;" d="M170 82q0 15 11 28t28 13h412l172 508l-603 284q-20 10 -20 35q0 27 27 37l856 406l159 467q9 24 37 24q18 0 29.5 -11t11.5 -30q0 -10 -2 -14l-133 -387l211 98q4 2 14 2q18 0 29.5 -11t11.5 -30q0 -27 -24 -37l-279 -131l-225 -659l510 -242q18 -9 18 -35 q0 -17 -12 -29t-29 -12q-6 0 -14 4l-500 236l-159 -473h677q16 0 26.5 -13t10.5 -28t-11 -28t-26 -13h-706l-107 -315h813q16 0 26.5 -13t10.5 -28t-11 -28t-26 -13h-841l-164 -480q-3 -10 -15 -17t-22 -7q-17 0 -29 12t-12 29q0 10 2 14l154 449h-248q-15 0 -27 13t-12 28 t11 28t28 13h276l107 315h-383q-15 0 -27 13t-12 28zM307 950l512 -241l197 575z" />
<glyph unicode="&#xe000;" horiz-adv-x="970" d="M0 970h970v-970h-970v970z" />
</font>
</defs>
</svg>
