<?xml version="1.0" standalone="no"?>
<!DOCTYPE svg PUBLIC "-//W3C//DTD SVG 1.1//EN" "http://www.w3.org/Graphics/SVG/1.1/DTD/svg11.dtd" >
<svg xmlns="http://www.w3.org/2000/svg">
<metadata>
This is a custom SVG webfont generated by Font Squirrel.
Copyright   : Copyright C 1994 1995 Basil K Malyshev All Rights Reserved012BaKoMa Fonts Collection LevelC
</metadata>
<defs>
<font id="msbm7Regular" horiz-adv-x="1827" >
<font-face units-per-em="2048" ascent="1638" descent="-410" />
<missing-glyph horiz-adv-x="614" />
<glyph unicode=" "  horiz-adv-x="614" />
<glyph unicode="&#x09;" horiz-adv-x="614" />
<glyph unicode="&#xa0;" horiz-adv-x="614" />
<glyph unicode="!" d="M221 119q0 19 13.5 32.5t33.5 16.5h441l151 229q12 23 41 23q19 0 35 -15t16 -34q0 -13 -8 -29l-117 -174h82q157 0 295 75t219.5 205.5t81.5 286.5q0 121 -47.5 225.5t-130.5 181.5t-190 119t-226 42h-643q-20 3 -33.5 16.5t-13.5 34.5q0 19 13.5 32.5t33.5 16.5h650 q138 0 262 -50.5t221 -143t151 -214t54 -260.5q0 -184 -94.5 -337t-253.5 -241.5t-343 -88.5h-153l-232 -351h979q47 -8 47 -51q0 -13 -6.5 -23.5t-17 -17t-23.5 -8.5h-1044l-152 -229q-15 -23 -41 -23q-21 0 -36 15t-15 34q0 13 8 29l115 174h-76q-20 3 -33.5 16.5 t-13.5 32.5q0 21 12.5 34.5t34.5 16.5h142l231 351h-373q-20 3 -33.5 16.5t-13.5 34.5z" />
<glyph unicode="&#x22;" d="M221 -57q0 22 13 35t34 16h363l157 360q-117 21 -221 80t-182.5 149t-121 200.5t-42.5 228.5q0 182 94.5 335.5t253.5 242.5t342 89h457l64 146q17 30 47 30q22 0 36.5 -14.5t14.5 -34.5q0 -6 -4 -18l-47 -109h80q47 -7 47 -49q0 -21 -13.5 -34.5t-33.5 -16.5h-123 l-496 -1135h619q47 -7 47 -49q0 -21 -13.5 -34.5t-33.5 -16.5h-664l-154 -350h818q21 -3 34 -16t13 -35q0 -42 -47 -49h-861l-153 -351h1014q22 -3 34.5 -16.5t12.5 -34.5q0 -42 -47 -49h-1057l-107 -244q-17 -30 -47 -30q-20 0 -35.5 14.5t-15.5 34.5q0 6 4 18l90 207h-123 q-47 7 -47 49q0 21 12.5 34.5t34.5 16.5h166l154 351h-320q-47 7 -47 49zM322 1012q0 -141 67.5 -263t184.5 -201t257 -97l494 1128h-407q-156 0 -294 -74.5t-220 -204.5t-82 -288z" />
<glyph unicode="#" d="M221 -57q0 22 13 35t34 16h363l153 350h-516q-20 3 -33.5 16.5t-13.5 34.5q0 42 47 49h561l445 1018q-165 117 -363 117h-643q-20 3 -33.5 16.5t-13.5 34.5q0 42 47 49h650q217 0 397 -123l117 269q17 30 47 30q22 0 36.5 -14.5t14.5 -34.5q0 -6 -4 -18l-129 -297 q98 -92 153.5 -217t55.5 -262q0 -138 -53.5 -259t-150 -213.5t-223 -144t-264.5 -51.5h-20l-154 -350h818q21 -3 34 -16t13 -35q0 -42 -47 -49h-861l-153 -351h1014q22 -3 34.5 -16.5t12.5 -34.5q0 -42 -47 -49h-1057l-107 -244q-17 -30 -47 -30q-20 0 -35.5 14.5 t-15.5 34.5q0 6 4 18l90 207h-123q-47 7 -47 49q0 21 12.5 34.5t34.5 16.5h166l154 351h-320q-47 7 -47 49zM940 444q148 0 278.5 78.5t208.5 210t78 279.5q0 70 -17.5 137.5t-53 130.5t-80.5 111z" />
<glyph unicode="$" d="M221 -133q0 21 12.5 34.5t34.5 16.5h809l238 283q18 18 39 18t36 -14.5t15 -36.5q0 -19 -12 -31l-185 -219h351q22 -3 34.5 -16.5t12.5 -34.5q0 -42 -47 -49h-435l-293 -350h728q47 -9 47 -52q0 -19 -13.5 -32.5t-33.5 -16.5h-811l-236 -280q-17 -19 -39 -19 q-20 0 -34.5 15.5t-14.5 35.5q0 21 10 31l182 217h-348q-20 3 -33.5 16.5t-13.5 32.5q0 43 47 52h432l293 350h-725q-47 7 -47 49zM221 1085q0 139 55 261.5t152 214t220.5 142t262.5 50.5h648q47 -7 47 -49q0 -21 -13.5 -34.5t-33.5 -16.5h-641q-118 0 -225 -41.5 t-191.5 -120t-132 -183t-47.5 -223.5q0 -158 82 -288t220 -204.5t294 -74.5h641q47 -7 47 -49q0 -21 -13.5 -34.5t-33.5 -16.5h-648q-137 0 -262 51t-221.5 142t-151.5 213.5t-55 260.5z" />
<glyph unicode="%" d="M221 -133q0 21 12.5 34.5t34.5 16.5h809l238 283q18 18 39 18t36 -14.5t15 -36.5q0 -19 -12 -31l-185 -219h351q22 -3 34.5 -16.5t12.5 -34.5q0 -42 -47 -49h-435l-293 -350h728q47 -9 47 -52q0 -19 -13.5 -32.5t-33.5 -16.5h-811l-236 -280q-17 -19 -39 -19 q-20 0 -34.5 15.5t-14.5 35.5q0 21 10 31l182 217h-348q-20 3 -33.5 16.5t-13.5 32.5q0 43 47 52h432l293 350h-725q-47 7 -47 49zM221 469q0 42 47 49h641q157 0 295 75t219.5 205.5t81.5 286.5q0 121 -47.5 225.5t-130.5 181.5t-190 119t-226 42h-643q-20 3 -33.5 16.5 t-13.5 34.5q0 42 47 49h650q138 0 262 -50.5t221 -143t151 -214t54 -260.5q0 -138 -54 -259.5t-150 -213t-222.5 -143t-264.5 -51.5h-647q-20 3 -33.5 16.5t-13.5 34.5z" />
<glyph unicode="&#x26;" d="M221 -57q0 22 13 35t34 16h740l221 350h-318q-137 0 -262 51t-221.5 143t-151.5 214t-55 260q0 182 94.5 335.5t253.5 242.5t342 89h648q47 -7 47 -49q0 -21 -13.5 -34.5t-33.5 -16.5h-641q-156 0 -294 -74.5t-220 -204.5t-82 -288q0 -157 82 -288t220 -205.5t294 -74.5 h374l146 230q13 22 41 22q22 0 36.5 -14.5t14.5 -34.5q0 -11 -8 -29l-111 -174h148q47 -7 47 -49q0 -21 -13.5 -34.5t-33.5 -16.5h-211l-222 -350h433q21 -3 34 -16t13 -35q0 -42 -47 -49h-496l-221 -351h717q22 -3 34.5 -16.5t12.5 -34.5q0 -42 -47 -49h-781l-143 -229 q-15 -23 -43 -23q-20 0 -34.5 15.5t-14.5 33.5t8 29l108 174h-391q-47 7 -47 49q0 21 12.5 34.5t34.5 16.5h455l221 351h-676q-47 7 -47 49z" />
<glyph unicode="'" d="M221 -57q0 22 13 35t34 16h328l141 350h-469q-20 3 -33.5 16.5t-13.5 34.5q0 42 47 49h510l88 222q18 30 47 30q22 0 37 -14t15 -35q0 -6 -4 -18l-74 -185h22q157 0 294.5 75t219.5 206t82 287q0 158 -82 288t-219 204.5t-293 74.5h-643q-20 3 -33.5 16.5t-13.5 34.5 q0 42 47 49h650q182 0 340.5 -89t253 -242.5t94.5 -335.5q0 -138 -53.5 -259t-150 -213.5t-223 -144t-264.5 -51.5h-69l-141 -350h854q21 -3 34 -16t13 -35q0 -42 -47 -49h-893l-142 -351h1035q22 -3 34.5 -16.5t12.5 -34.5q0 -42 -47 -49h-1076l-88 -221q-16 -31 -47 -31 q-21 0 -36 15t-15 34q0 5 4 19l74 184h-107q-47 7 -47 49q0 21 12.5 34.5t34.5 16.5h148l139 351h-287q-47 7 -47 49z" />
<glyph unicode="(" d="M221 735q0 139 55 261.5t152 214t220.5 142t262.5 50.5h648q20 -3 33.5 -16.5t13.5 -32.5q0 -21 -13.5 -34.5t-33.5 -16.5h-641q-118 0 -225 -41.5t-191.5 -120t-132 -183t-47.5 -223.5q0 -158 82 -288t220 -204.5t294 -74.5h641q20 -3 33.5 -16.5t13.5 -32.5 q0 -21 -13.5 -34.5t-33.5 -16.5h-648q-183 0 -342 88.5t-253.5 241.5t-94.5 337zM272 -334q0 21 12.5 34.5t34.5 16.5h576l238 213q12 13 30 13q21 0 36 -14t15 -38q0 -16 -18 -38l-152 -136h515q22 -3 34.5 -16.5t12.5 -34.5q0 -19 -13.5 -32.5t-33.5 -16.5h-627l-238 -215 q-13 -10 -30 -10q-19 0 -35.5 14.5t-16.5 34.5t19 39l151 137h-463q-20 3 -33.5 16.5t-13.5 32.5z" />
<glyph unicode=")" d="M221 119q0 19 13.5 32.5t33.5 16.5h641q157 0 295 75t219.5 205.5t81.5 286.5q0 121 -47.5 225.5t-130.5 181.5t-190 119t-226 42h-643q-20 3 -33.5 16.5t-13.5 34.5q0 19 13.5 32.5t33.5 16.5h650q138 0 262 -50.5t221 -143t151 -214t54 -260.5q0 -184 -94.5 -337 t-253.5 -241.5t-343 -88.5h-647q-20 3 -33.5 16.5t-13.5 34.5zM221 -334q0 21 12.5 34.5t34.5 16.5h623l184 207q19 19 39 19t34.5 -14.5t14.5 -37.5q0 -20 -10 -30l-127 -144h483q47 -8 47 -51q0 -13 -6.5 -23.5t-17 -17t-23.5 -8.5h-573l-184 -207q-20 -18 -39 -18t-34 15 t-15 34q0 22 10 33l127 143h-533q-20 3 -33.5 16.5t-13.5 32.5z" />
<glyph unicode="*" d="M221 735q0 139 55 261.5t152 214t220.5 142t262.5 50.5h316l141 348q17 31 47 31q21 0 36 -14t15 -35q0 -7 -4 -19l-127 -311h224q20 -3 33.5 -16.5t13.5 -32.5q0 -21 -13.5 -34.5t-33.5 -16.5h-265l-465 -1129q43 -6 89 -6h641q20 -3 33.5 -16.5t13.5 -32.5 q0 -21 -13.5 -34.5t-33.5 -16.5h-648q-55 0 -123 10l-147 -361h918q22 -3 34.5 -16.5t12.5 -34.5q0 -19 -13.5 -32.5t-33.5 -16.5h-959l-141 -344q-17 -31 -47 -31q-20 0 -36 15t-16 34q0 9 5 19l124 307h-170q-20 3 -33.5 16.5t-13.5 32.5q0 21 12.5 34.5t34.5 16.5h211 l160 385q-135 44 -241.5 138.5t-167 224.5t-60.5 270zM322 735q0 -121 52 -231.5t144.5 -190.5t210.5 -116l455 1106h-266q-118 0 -225 -41.5t-191.5 -120t-132 -183t-47.5 -223.5z" />
<glyph unicode="+" d="M221 119q0 19 13.5 32.5t33.5 16.5h449l446 1081q-57 27 -121 40.5t-131 13.5h-643q-20 3 -33.5 16.5t-13.5 34.5q0 19 13.5 32.5t33.5 16.5h650q147 0 282 -60l168 408q17 31 47 31q21 0 36 -14t15 -35q0 -7 -4 -19l-172 -420q96 -60 167.5 -147.5t110 -194t38.5 -217.5 q0 -184 -94.5 -337t-253.5 -241.5t-343 -88.5h-131l-143 -351h868q47 -8 47 -51q0 -13 -6.5 -23.5t-17 -17t-23.5 -8.5h-909l-141 -344q-17 -31 -47 -31q-20 0 -36 15t-16 34q0 9 5 19l124 307h-221q-20 3 -33.5 16.5t-13.5 32.5q0 21 12.5 34.5t34.5 16.5h262l146 351h-408 q-20 3 -33.5 16.5t-13.5 34.5zM825 168h84q157 0 295 75t219.5 205.5t81.5 286.5q0 69 -17.5 137t-50 127.5t-80 112t-106.5 88.5z" />
<glyph unicode="," horiz-adv-x="1198" d="M-18 0q0 22 20 39l322 291v1159q1 19 15.5 33t33.5 14t33.5 -13.5t17.5 -33.5v-1067l350 315v752q1 19 15.5 33t33.5 14t33.5 -13.5t17.5 -33.5v-660l259 234q12 12 30 12q19 0 35 -16t16 -35q0 -21 -18 -39l-322 -291v-1161q-3 -20 -17.5 -33.5t-33.5 -13.5t-33.5 14 t-15.5 33v1069l-350 -315v-754q-3 -20 -17.5 -33.5t-33.5 -13.5t-33.5 14t-15.5 33v662l-258 -234q-16 -12 -33 -12q-19 0 -35 16t-16 35z" />
<glyph unicode="-" horiz-adv-x="694" d="M-18 512q0 22 20 39l295 242v696q7 47 51 47q42 0 49 -47v-615l232 189q12 12 30 12q21 0 36.5 -15.5t15.5 -35.5t-19 -39l-295 -240v-1210q-7 -47 -49 -47q-44 0 -51 47v1129l-231 -191q-14 -10 -33 -10q-18 0 -34.5 14.5t-16.5 34.5z" />
<glyph unicode="." horiz-adv-x="567" d="M-18 231q0 18 12 33l242 268v304q1 19 15 33t34 14t34 -13t17 -34v-191l160 178q15 19 39 19q20 0 35.5 -14.5t15.5 -34.5q0 -19 -13 -33l-237 -266v-488q-3 -21 -17 -34t-34 -13t-33.5 13.5t-15.5 33.5v375l-164 -180q-16 -19 -39 -19q-19 0 -35 15t-16 34z" />
<glyph unicode="/" horiz-adv-x="946" d="M-18 231q0 26 24 43l154 99v463q1 19 15 33t34 14t34 -13t17 -34v-400l424 273v127q3 21 17 34t34 13t33.5 -13t15.5 -34v-64l103 64q9 6 24 6q21 0 36.5 -14.5t15.5 -34.5q0 -24 -23 -43l-156 -99v-645q-2 -21 -15.5 -34t-33.5 -13t-34 13t-17 34v582l-424 -273v-309 q-3 -21 -17 -34t-34 -13t-33.5 13.5t-15.5 33.5v246l-103 -64q-9 -6 -24 -6q-19 0 -35 15t-16 34z" />
<glyph unicode="0" horiz-adv-x="1450" d="M-94 51q0 19 12 31l242 250v1042q7 47 51 47q42 0 49 -47v-612h318l628 649q13 10 33 10q21 0 35 -14t14 -35q0 -22 -10 -33l-561 -577h524q47 -7 47 -51q0 -46 -47 -49h-623l-358 -371v-244q-7 -47 -49 -47q-44 0 -51 47v139l-172 -174q-9 -12 -31 -12q-19 0 -35 15 t-16 36zM260 434l219 228h-219v-228z" />
<glyph unicode="1" horiz-adv-x="1702" d="M-94 51q0 17 18 39l236 201v1083q7 47 51 47q42 0 49 -47v-997l350 303v694q7 47 52 47q42 0 49 -47v-608l747 645q17 10 33 10q21 0 35 -14t14 -35q0 -24 -18 -39l-662 -571h633q47 -7 47 -49q0 -44 -47 -51h-750l-32 -29v-586q-7 -47 -49 -47q-45 0 -52 47v500 l-350 -301v-199q-7 -47 -49 -47q-44 0 -51 47v111l-172 -146q-12 -12 -31 -12t-35 15t-16 36z" />
<glyph unicode="2" horiz-adv-x="1450" d="M-94 51q0 19 12 31l242 250v1042q7 47 51 47q42 0 49 -47v-385h537l403 414q18 18 39 18t35 -14t14 -35q0 -22 -10 -33l-340 -350h303q47 -7 47 -51q0 -46 -47 -49h-401l-340 -350h741q20 -3 33.5 -16.5t13.5 -35.5q0 -21 -13.5 -34.5t-33.5 -14.5h-840l-141 -147v-244 q-7 -47 -49 -47q-44 0 -51 47v139l-164 -168q-18 -18 -39 -18q-19 0 -35 15t-16 36zM260 539h100l340 350h-440v-350z" />
<glyph unicode="3" horiz-adv-x="1702" d="M-94 51q0 17 18 39l236 201v1083q7 47 51 47q42 0 49 -47v-997l350 303v694q7 47 52 47q42 0 49 -47v-387h258l489 424q17 10 33 10q21 0 35 -14t14 -35q0 -24 -18 -39l-400 -346h371q47 -7 47 -49q0 -44 -47 -51h-487l-295 -254v-96h782q47 -9 47 -50q0 -20 -14 -34 t-33 -17h-782v-389q-7 -47 -49 -47q-45 0 -52 47v500l-350 -301v-199q-7 -47 -49 -47q-44 0 -51 47v111l-172 -146q-12 -12 -31 -12t-35 15t-16 36zM711 766l141 121h-141v-121z" />
<glyph unicode="4" d="M221 115v1241q3 20 16.5 33.5t34.5 13.5q13 0 25 -6l752 -361l258 715q17 31 47 31q20 0 35.5 -14.5t15.5 -34.5q0 -7 -4 -19l-260 -723l440 -211q27 -13 27 -45q0 -29 -27 -43l-663 -319l-238 -656h881q20 -2 33.5 -15.5t13.5 -33.5t-14 -34t-33 -17h-916l-125 -344 q-17 -31 -47 -31q-20 0 -34.5 15.5t-14.5 33.5q0 13 2 19l111 307h-269q-20 3 -33.5 16.5t-13.5 34.5t13 34t34 15h305l213 594l-489 -237q-8 -2 -14 -4t-11 -2q-43 0 -51 47zM322 199l514 247l178 494l-692 334v-1075zM967 508l473 227l-334 162z" />
<glyph unicode="5" d="M223 -332q0 21 13 34t34 15h303l252 697l-577 278q-25 12 -25 43q0 33 25 45l858 414l201 557q17 31 47 31q20 0 35.5 -14.5t15.5 -34.5q0 -7 -4 -19l-166 -459l297 142q9 6 24 6q20 0 33.5 -13.5t16.5 -33.5v-1241q-3 -18 -17.5 -32.5t-32.5 -14.5q-6 0 -24 6l-617 297 l-235 -654h879q21 -2 34 -15t13 -34t-13.5 -34.5t-33.5 -16.5h-914l-125 -344q-17 -31 -47 -31q-20 0 -34.5 15.5t-14.5 33.5q0 13 2 19l111 307h-267q-20 3 -33.5 16.5t-13.5 34.5zM389 735l469 -225l199 549zM950 465l555 -266v1075l-317 -154z" />
<glyph unicode="6" d="M223 510q0 33 25 45l801 385l258 586q17 30 47 30q21 0 36 -14t15 -35q0 -6 -4 -18l-213 -481l344 163q8 7 24 7q13 0 24 -6.5t17.5 -17t8.5 -24.5v-1241q-3 -18 -17.5 -32.5t-32.5 -14.5q-6 0 -24 6l-707 340l-305 -690q-17 -30 -47 -30q-19 0 -34 15t-15 34q0 12 2 18 l309 698l-487 234q-25 12 -25 43zM389 510l387 -184l209 473zM866 281l639 -308v1076l-381 -183z" />
<glyph unicode="7" d="M221 -111v1241q3 21 16.5 34.5t34.5 13.5q14 0 25 -7l704 -337l306 692q17 30 47 30q21 0 36 -14t15 -35q0 -6 -4 -18l-309 -698l489 -236q27 -13 27 -45q0 -29 -27 -43l-803 -385l-258 -584q-17 -30 -47 -30q-19 0 -34 15t-15 34q0 12 2 18l211 479l-340 -166 q-8 -2 -14 -4t-11 -2q-19 0 -33.5 14.5t-17.5 32.5zM322 -27l378 183l261 585l-639 308v-1076zM840 223l600 287l-389 188z" />
<glyph unicode="8" horiz-adv-x="2331" d="M160 512q75 33 139.5 83t114.5 115t84 142h82q-74 -171 -209 -291h768l239 324q20 18 39 18q21 0 36 -15t15 -36q0 -9 -8 -27l-196 -264h858q20 0 34.5 -14.5t14.5 -34.5q0 -21 -15 -36t-34 -15h-932l-238 -322q-18 -18 -39 -18q-20 0 -35.5 14.5t-15.5 36.5q0 9 8 27 l195 262h-694q135 -120 209 -291h-82q-49 114 -136 202.5t-202 139.5z" />
<glyph unicode="9" horiz-adv-x="2331" d="M160 512q0 20 14.5 34.5t36.5 14.5h928l239 324q20 18 39 18q21 0 36 -15t15 -36q0 -9 -8 -27l-196 -264h696q-138 122 -209 291h82q35 -80 84 -143t112.5 -113t141.5 -84q-81 -37 -143 -86.5t-111 -112.5t-84 -143h-82q71 169 209 291h-770l-238 -322q-18 -18 -39 -18 q-20 0 -35.5 14.5t-15.5 36.5q0 9 8 27l195 262h-854q-21 0 -36 15t-15 36z" />
<glyph unicode=":" horiz-adv-x="2331" d="M160 512q150 39 284.5 118.5t243.5 195.5t178 251h101q-43 -82 -94 -154t-111 -137h680l137 310q18 32 47 32q21 0 35 -14.5t14 -36.5q0 -12 -2 -18l-121 -273h572q47 -7 47 -49q0 -21 -13.5 -34.5t-33.5 -16.5h-617l-155 -350h772q20 -3 33.5 -16.5t13.5 -32.5 q0 -21 -13.5 -34.5t-33.5 -16.5h-817l-138 -310q-17 -30 -47 -30q-20 0 -35.5 14.5t-15.5 34.5q0 6 4 18l121 273h-434q60 -64 111 -136.5t94 -154.5h-101q-69 135 -177 250.5t-242.5 195.5t-286.5 121zM387 512q146 -70 270 -176h584l156 350h-742q-118 -100 -268 -174z " />
<glyph unicode=";" horiz-adv-x="2331" d="M160 287q0 42 47 49h616l156 350h-772q-19 3 -33 17t-14 34q0 42 47 49h817l137 310q18 32 47 32q23 0 37.5 -15t14.5 -36q0 -3 -5 -18l-120 -273h434q-122 131 -205 291h100q56 -108 127 -194t165.5 -161.5t196.5 -127t218 -82.5q-151 -40 -286 -120.5t-241.5 -193.5 t-179.5 -253h-100q83 160 205 291h-680l-137 -310q-18 -30 -47 -30q-19 0 -34.5 14.5t-15.5 34.5q0 12 2 18l121 273h-571q-47 7 -47 51zM934 336h739q125 107 271 176q-151 73 -269 174h-585z" />
<glyph unicode="&#x3c;" horiz-adv-x="2331" d="M119 512q130 51 241 134t197 192.5t141 238.5h101q-67 -154 -174 -291h579l103 310q18 32 47 32q22 0 36.5 -15t14.5 -36q0 -6 -4 -18l-90 -273h395q-105 133 -174 291h100q83 -193 233.5 -340.5t346.5 -224.5q-133 -54 -242.5 -137t-197 -194t-140.5 -236h-100 q39 88 81 158.5t93 132.5h-580l-102 -308q-18 -32 -47 -32q-21 0 -36 15t-15 36q0 6 4 18l90 271h-395q51 -62 96 -137t78 -154h-101q-55 129 -141 238.5t-195.5 192t-242.5 136.5zM315 512q59 -37 116 -82t104 -94h518l116 350h-634q-58 -56 -107 -95t-113 -79zM1159 336 h637q96 98 219 176q-112 69 -219 174h-520z" />
<glyph unicode="=" horiz-adv-x="2331" d="M160 512q75 33 139.5 83t114.5 115t84 142h82q-74 -171 -209 -291h768l239 324q20 18 39 18q21 0 36 -15t15 -36q0 -9 -8 -27l-196 -264h696q-138 122 -209 291h82q35 -80 84 -143t112.5 -113t141.5 -84q-81 -37 -143 -86.5t-111 -112.5t-84 -143h-82q71 169 209 291 h-770l-238 -322q-18 -18 -39 -18q-20 0 -35.5 14.5t-15.5 36.5q0 9 8 27l195 262h-694q135 -120 209 -291h-82q-49 114 -136 202.5t-202 139.5z" />
<glyph unicode="&#x3e;" d="M160 512q0 42 47 49h586l-416 418q-12 12 -12 33q0 19 15 34t36 15q17 0 30 -10l467 -469l461 460q17 19 39 19q20 0 34.5 -14.5t14.5 -34.5t-10 -33l-418 -418h586q47 -7 47 -49q0 -44 -47 -51h-586l418 -418q10 -13 10 -31q0 -22 -14.5 -36.5t-34.5 -14.5q-18 0 -33 10 l-467 469l-458 -460q-22 -19 -39 -19q-21 0 -36 15t-15 36q0 19 12 31l416 418h-586q-47 7 -47 51zM743 18q0 70 51 121t121 51q71 0 121.5 -50.5t50.5 -121.5q0 -69 -50.5 -121.5t-121.5 -52.5q-72 0 -122 52t-50 122zM743 1006q0 68 51 120t121 52q71 0 121.5 -51.5 t50.5 -120.5q0 -70 -50.5 -122.5t-121.5 -52.5q-72 0 -122 52t-50 123z" />
<glyph unicode="?" d="M160 59q0 21 18 39l221 181q-110 157 -110 356q0 123 48 238t135.5 203t201 136t239.5 48q130 0 248 -51t203 -142l221 182q18 11 33 11q20 0 34.5 -14.5t14.5 -35.5q0 -22 -18 -39l-222 -182q55 -77 84 -169t29 -185q0 -126 -49 -241t-135.5 -201.5t-201.5 -135.5 t-241 -49q-125 0 -242.5 50t-207.5 143l-221 -181q-16 -12 -33 -12q-20 0 -34.5 15.5t-14.5 35.5zM389 635q0 -77 23 -152.5t65 -140.5l809 662q-75 75 -171 115t-202 40q-142 0 -262.5 -71t-191 -191.5t-70.5 -261.5zM541 264q75 -75 171 -115t201 -40q142 0 263 71 t192.5 192t71.5 263q0 77 -23.5 152t-66.5 139z" />
<glyph unicode="@" horiz-adv-x="1323" d="M160 51q0 42 47 49h256l135 562h-360q-19 2 -33.5 15.5t-14.5 33.5q0 21 14.5 34.5t33.5 16.5h385l135 559h-551q-47 7 -47 51q0 42 47 49h575l82 346q17 33 47 33q22 0 37 -16t15 -35q0 -6 -2 -10l-76 -318h231q41 -6 47 -47v-1327q-6 -41 -47 -47h-575l-82 -346 q-17 -33 -47 -33q-21 0 -36.5 15.5t-15.5 35.5q0 6 2 11l76 317h-231q-19 3 -33 17t-14 34zM565 100h498v562h-363zM725 762h338v559h-203z" />
<glyph unicode="A" horiz-adv-x="1479" d="M35 37q0 12 9.5 23.5t23.5 11.5q43 0 77.5 25t49.5 65l483 1259q6 21 33 21q22 0 32 -21l531 -1216q18 -41 33.5 -67t41.5 -46t58 -20q14 -3 23.5 -12.5t9.5 -22.5q0 -14 -10.5 -25.5t-22.5 -11.5h-606q-33 7 -33 37q0 12 9.5 23.5t23.5 11.5q30 0 80.5 20t50.5 43 q0 44 -23 118t-53 150h-450q-29 -126 -29 -200q0 -60 18.5 -95.5t73.5 -35.5q33 -8 33 -35q0 -15 -11 -26t-22 -11h-401q-33 7 -33 37zM223 72h111q-29 52 -29 131q0 10 2 27t2 26l-47 -121q-19 -42 -39 -63zM424 475h405q-34 88 -93.5 229.5t-129.5 299.5 q-33 -90 -67.5 -184.5t-66 -189t-48.5 -155.5zM637 1114q44 -87 135.5 -305t161.5 -414t70 -260q0 -36 -27 -63h293q-29 32 -62 104l-495 1135z" />
<glyph unicode="B" horiz-adv-x="1364" d="M18 37q0 13 9.5 22.5t23.5 12.5h6q70 0 99.5 5.5t44 30.5t14.5 85v1017q0 59 -15.5 84.5t-46 31t-102.5 5.5q-13 0 -23 12t-10 25t9.5 22.5t23.5 12.5h641q140 0 251.5 -27.5t181 -106.5t69.5 -222q0 -95 -66 -170.5t-163 -124.5q140 -39 223.5 -136t83.5 -235 q0 -104 -54.5 -178.5t-143.5 -119.5t-189.5 -64t-192.5 -19h-641q-12 0 -22.5 11.5t-10.5 25.5zM268 72h224q-27 35 -27 78v1103q0 43 27 78h-224q19 -41 19 -117v-1026q0 -79 -19 -116zM537 154q0 -39 35.5 -60.5t78.5 -21.5q141 0 205 83t64 226q0 105 -23.5 172t-83 102 t-164.5 35h-112v-536zM537 762q164 0 241.5 63t77.5 222q0 69 -20 134t-66 107.5t-119 42.5q-43 0 -78.5 -20.5t-35.5 -61.5v-487zM836 1323q49 -51 70.5 -124.5t21.5 -151.5q0 -176 -84 -261q105 25 191.5 96t86.5 165q0 134 -73 197t-213 79zM879 698q112 -87 112 -317 q0 -190 -92 -287q129 32 215 101t86 186q0 88 -43 155.5t-115.5 107.5t-162.5 54z" />
<glyph unicode="C" horiz-adv-x="1479" d="M76 702q0 162 51.5 299.5t148 236t230.5 151.5t297 53q120 0 229 -49q97 -45 182 -45q25 0 42.5 17.5t17.5 43.5q0 12 11.5 22.5t25.5 10.5q13 0 24 -10t11 -23v-410q0 -14 -11 -24t-24 -10q-32 0 -35 26q-14 65 -62.5 133.5t-117.5 124t-146 88.5t-147 33 q-106 0 -178 -66.5t-114 -172.5t-58.5 -218t-16.5 -213q0 -258 84 -449.5t309 -191.5q144 0 278 62.5t224 171.5q18 14 29 14q17 0 30 -12t13 -29q0 -13 -6 -22q-111 -135 -266 -209t-328 -74q-163 0 -298.5 54t-231 152.5t-146.5 236t-51 298.5zM147 702q0 -233 109.5 -402 t327.5 -237q-127 95 -173 265.5t-46 373.5q0 88 9 172.5t29.5 165t56.5 156t91 133.5q-200 -72 -302 -239.5t-102 -387.5zM1169 1278q66 -59 105 -117v129q-9 -5 -23 -10q-24 -4 -34 -4q-31 0 -48 2z" />
<glyph unicode="D" horiz-adv-x="1479" d="M33 37q0 8 8 24q12 9 25 13q66 0 92 5.5t36.5 30t10.5 83.5v1015q0 59 -10.5 83.5t-36.5 30t-92 5.5q-13 5 -25 12q-8 18 -8 25t8 25q12 7 25 12h634q204 0 365.5 -81.5t252.5 -234.5t91 -356q0 -159 -49.5 -293.5t-142 -232t-224.5 -150.5t-293 -53h-634q-13 5 -25 12 q-8 16 -8 25zM262 74h232q-27 35 -27 78v1097q0 43 27 78h-232q17 -45 17 -110v-1033q0 -65 -17 -110zM541 160q0 -41 35.5 -63.5t78.5 -22.5q159 0 246.5 100.5t117.5 248t30 304.5q0 135 -35 272.5t-120 232.5t-222 95q-31 0 -60 -8t-50 -27t-21 -51v-1081zM938 1290 q68 -63 109 -157t58 -199.5t17 -204.5q0 -437 -172 -610q98 37 172 98.5t121 140.5t69.5 172.5t22.5 198.5q0 102 -25 189.5t-73 157.5t-120.5 124.5t-168.5 87.5q-2 1 -4 1.5t-6 0.5z" />
<glyph unicode="E" horiz-adv-x="1364" d="M25 37q0 8 8 24q13 9 24 13q69 0 96.5 5.5t39.5 29.5t12 84v1024q0 77 -28 93.5t-120 16.5q-12 5 -24 12q-8 18 -8 25t8 25q12 8 24 12h1123q12 -5 24 -12q5 -11 8 -21v-336q-3 -9 -8 -20q-22 -13 -28 -13q-7 0 -29 13q-5 11 -8 20q0 145 -131 220t-291 75h-131 q-62 0 -62 -119v-450q101 0 176 30.5t116.5 96.5t41.5 168q4 9 4.5 11t3.5 9q22 12 29 12q11 0 29 -12q5 -11 8 -20v-623q-3 -9 -8 -20q-17 -13 -29 -13q-9 0 -29 13q-3 7 -3.5 9t-4.5 11q0 254 -334 254v-491q0 -119 62 -119h151q166 0 318 131q106 99 147 178q12 23 25 75 t18 62q20 12 29 12q7 0 29 -12q8 -16 8 -26l-58 -461q-2 -9 -8 -21q-12 -8 -24 -12h-1164q-12 5 -24 12q-8 16 -8 25zM262 74h213q-24 55 -24 110v533q2 -9 8 -21q20 -12 28 -12h37v74h-37q-9 0 -28 -13q-5 -11 -8 -20v492q0 54 24 110h-213q17 -45 17 -110v-1033 q0 -65 -17 -110zM997 74h187l22 178q-82 -103 -209 -178z" />
<glyph unicode="F" horiz-adv-x="1251" d="M29 37q0 28 32 35h7q67 0 93 5.5t37 30.5t11 85v1021q0 57 -12.5 81.5t-40.5 30t-95 5.5q-32 7 -32 37q0 12 9.5 23.5t22.5 11.5h1100q33 -8 33 -33v-334q0 -16 -11.5 -25.5t-23.5 -9.5q-13 0 -25 10t-12 25q0 95 -61.5 162.5t-155 100t-186.5 32.5h-127 q-35 0 -48.5 -38.5t-13.5 -82.5v-448q146 0 226 75t80 220q0 13 11 24t25 11q13 0 24 -10t11 -25v-621q0 -14 -11.5 -23.5t-23.5 -9.5q-13 0 -24.5 10.5t-11.5 22.5q0 134 -83.5 193t-222.5 59v-495q0 -51 9.5 -78t46.5 -35q41 -8 139 -8q14 -3 23.5 -12.5t9.5 -22.5 q0 -14 -10.5 -25.5t-22.5 -11.5h-664q-32 7 -32 37zM262 72h217q-20 41 -20 116v1026q0 61 24 117h-221q19 -41 19 -117v-1026q0 -75 -19 -116zM725 729q64 -27 111 -80v168q-39 -53 -111 -88zM1010 1331q68 -38 112 -98v98h-112z" />
<glyph unicode="G" horiz-adv-x="1591" d="M76 702q0 162 51.5 299.5t148 236t230.5 151.5t297 53q121 0 227 -49q95 -45 182 -45q25 0 42.5 17.5t17.5 43.5q0 12 11.5 22.5t25.5 10.5q13 0 23.5 -9.5t10.5 -23.5v-410q0 -15 -10.5 -24.5t-23.5 -9.5q-32 0 -35 26q-14 66 -61.5 134t-116.5 123.5t-146 88.5t-147 33 q-137 0 -219 -111.5t-115 -264.5t-33 -294q0 -159 26.5 -306t108.5 -254t232 -107q96 0 171 17t75 79v236q0 67 -54 112t-123 45q-12 0 -22 12t-10 23q0 30 32 37h629q13 0 23 -12.5t10 -24.5q0 -31 -33 -35q-39 0 -71 -22.5t-49 -60t-17 -74.5v-240q0 -22 -18 -29 q-264 -135 -543 -135q-163 0 -298.5 54t-231 152.5t-146.5 236t-51 298.5zM147 702q0 -137 40.5 -258.5t125 -214.5t211.5 -145q-64 73 -99.5 177t-47.5 210.5t-12 230.5q0 88 9 172.5t29.5 165t56.5 156t91 133.5q-200 -72 -302 -239.5t-102 -387.5zM1053 522 q67 -67 67 -153v-244q0 -19 -8 -47q89 26 180 69v222q0 87 54 153h-293zM1169 1278q65 -62 103 -115v127q-9 -5 -23 -10q-24 -4 -35 -4q-30 0 -45 2z" />
<glyph unicode="H" horiz-adv-x="1591" d="M35 37q0 28 33 35h6q67 0 93 5.5t37 30.5t11 85v1021q0 57 -12.5 81.5t-40 30t-94.5 5.5q-14 0 -23.5 12.5t-9.5 24.5q0 28 33 35h628q14 0 23.5 -10.5t9.5 -24.5q0 -30 -33 -37h-6q-67 0 -93.5 -5.5t-37 -31t-10.5 -84.5v-452h495v456q0 56 -12 81t-40 30.5t-95 5.5 q-13 0 -23 12t-10 25t9.5 22.5t23.5 12.5h629q13 0 23 -11t10 -24q0 -30 -33 -37h-6q-68 0 -94 -5.5t-37 -30.5t-11 -85v-1022q0 -56 12.5 -80.5t40.5 -30t95 -5.5q13 0 23 -11t10 -24q0 -30 -33 -37h-629q-12 0 -22.5 11.5t-10.5 25.5q0 13 9.5 22.5t23.5 12.5h6 q67 0 93.5 5.5t37 31t10.5 84.5v471h-495v-476q0 -56 12.5 -80.5t40 -30t94.5 -5.5q14 0 23.5 -10.5t9.5 -24.5q0 -30 -33 -37h-628q-13 0 -23 12t-10 25zM268 72h228q-19 41 -19 116v1026q0 76 19 117h-228q19 -41 19 -117v-1026q0 -75 -19 -116zM1098 72h227 q-18 42 -18 116v1026q0 75 18 117h-227q18 -42 18 -117v-1026q0 -74 -18 -116z" />
<glyph unicode="I" horiz-adv-x="795" d="M41 37q0 12 9.5 23.5t23.5 11.5q71 0 100.5 5.5t43 30.5t13.5 85v1017q0 60 -13.5 85t-43 30.5t-100.5 5.5q-33 7 -33 37q0 12 9.5 23.5t23.5 11.5h649q14 -3 23.5 -12.5t9.5 -22.5t-10 -25t-23 -12q-71 0 -100.5 -5.5t-43.5 -30.5t-14 -85v-1017q0 -60 14 -85 t43.5 -30.5t100.5 -5.5q14 -3 23.5 -12.5t9.5 -22.5q0 -14 -10.5 -25.5t-22.5 -11.5h-649q-33 7 -33 37zM285 72h227q-18 37 -18 116v1026q0 75 18 117h-227q18 -37 18 -117v-1026q0 -74 -18 -116z" />
<glyph unicode="J" horiz-adv-x="1024" d="M12 76q0 38 20 70.5t55 51.5t73 19t72.5 -19t54.5 -51.5t20 -70.5q0 -36 -12 -59.5t-28.5 -45.5t-16.5 -32q0 -21 84 -21q50 0 88.5 36t38.5 87v1173q0 56 -19 81t-52.5 30.5t-104.5 5.5q-33 7 -33 37q0 12 9.5 23.5t23.5 11.5h657q33 -7 33 -35q0 -30 -33 -37h-6 q-67 0 -93.5 -5.5t-37 -31t-10.5 -84.5v-983q0 -131 -60 -217t-162 -125t-231 -39q-75 0 -151.5 24t-127.5 76t-51 130zM84 76q0 -84 94 -125q4 27 31 61.5t27 63.5q0 30 -22.5 49.5t-53.5 19.5q-29 0 -52.5 -19.5t-23.5 -49.5zM502 -63q109 28 165 103.5t56 190.5v983 q0 75 18 117h-229q20 -41 20 -117v-1177q0 -53 -30 -100z" />
<glyph unicode="K" horiz-adv-x="1591" d="M49 37q0 28 33 35h6q67 0 93.5 5.5t37 31t10.5 84.5v1021q0 56 -12 81t-40 30.5t-95 5.5q-14 0 -23.5 12.5t-9.5 24.5q0 28 33 35h629q13 0 22.5 -10.5t9.5 -24.5q0 -30 -32 -37h-6q-68 0 -94 -5.5t-37 -30.5t-11 -85v-510l445 428q45 47 45 103q0 40 -25 70t-65 30 q-14 0 -23.5 12.5t-9.5 24.5q0 28 33 35h501q14 0 23.5 -10.5t9.5 -24.5q0 -30 -33 -37q-61 0 -131 -42t-123.5 -89t-138.5 -129l-225 -217l534 -641q35 -44 57.5 -70t51.5 -48.5t53 -22.5q14 0 23.5 -10.5t9.5 -24.5q0 -30 -33 -37h-526q-13 0 -23 12t-10 25q0 28 33 35 q53 0 53 12q0 22 -57 86l-391 467l-58 -55v-394q0 -56 12.5 -80.5t40.5 -30t95 -5.5q13 0 22.5 -10.5t9.5 -24.5q0 -30 -32 -37h-629q-13 0 -23 12t-10 25zM283 72h227q-18 42 -18 116v1026q0 75 18 117h-227q18 -42 18 -117v-1026q0 -74 -18 -116zM674 688l395 -475 q35 -39 53.5 -67.5t18.5 -61.5v-12h268q-42 43 -86 98l-528 635zM1094 1331q30 -46 30 -100q0 -4 -0.5 -7t-1.5 -7q79 70 144 114h-172z" />
<glyph unicode="L" horiz-adv-x="1364" d="M29 37q0 28 32 35h7q67 0 93 5.5t37 30.5t11 85v1021q0 57 -12.5 81.5t-40.5 30t-95 5.5q-13 0 -22.5 12.5t-9.5 24.5q0 28 32 35h611q13 0 23 -11t10 -24q0 -30 -33 -37h-6q-65 0 -89 -5.5t-33 -30.5t-9 -85v-1017q0 -44 13 -82.5t48 -38.5h141q103 0 214 47 t191.5 129.5t96.5 183.5q3 27 35 27q14 0 24.5 -11.5t10.5 -25.5l-58 -395q-5 -23 -32 -27h-1158q-12 0 -22 12t-10 25zM262 72h225q-24 55 -24 116v1026q0 80 16 117h-217q19 -41 19 -117v-1026q0 -75 -19 -116zM1018 72h166l22 141q-75 -80 -188 -141z" />
<glyph unicode="M" horiz-adv-x="1933" d="M35 37q0 28 33 35q56 0 100.5 33t44.5 88v1118q-56 20 -139 20q-14 0 -23.5 12.5t-9.5 24.5q0 28 33 35h452q21 0 29 -21l399 -952l400 952q5 17 28 21h467q14 0 23.5 -10.5t9.5 -24.5q0 -30 -33 -37q-56 0 -100.5 -33t-44.5 -88v-1017q0 -56 49 -88.5t109 -32.5 q13 0 22.5 -10.5t9.5 -24.5q0 -30 -32 -37h-619q-12 0 -22.5 11.5t-10.5 25.5q0 13 9.5 22.5t23.5 12.5q57 0 101.5 33t44.5 88v1050l-512 -1220q-11 -23 -33 -23q-24 0 -33 23l-508 1212l-4 6v-1048q0 -56 49 -88.5t109 -32.5q13 0 22.5 -10.5t9.5 -24.5q0 -30 -32 -37 h-389q-13 0 -23 12t-10 25zM319 1331q31 -30 50 -67l475 -1135l92 219l-14 2l-7 4q-9 6 -14 17l-403 960h-179zM1413 72h268q-49 49 -49 116v1026q0 68 47 117h-219v-1143q0 -71 -47 -116z" />
<glyph unicode="N" horiz-adv-x="1479" d="M51 37q0 13 9.5 22.5t23.5 12.5q64 0 95 13t40.5 46.5t9.5 97.5v1024q0 3 2 8t2 7q-54 63 -124 63q-14 0 -23.5 12.5t-9.5 24.5q0 28 33 35h428q10 0 24 -14l631 -850v639q0 67 -13 98t-46.5 43t-98.5 12q-13 0 -23 12t-10 25t9.5 22.5t23.5 12.5h371q13 0 23 -11t10 -24 q0 -30 -33 -37q-88 0 -107.5 -32t-19.5 -125v-1180q0 -15 -12 -24t-23 -9q-13 0 -29 14l-899 1186v-936q0 -67 13 -98t46.5 -43t98.5 -12q14 0 23.5 -10.5t9.5 -24.5q0 -30 -33 -37h-389q-12 0 -22.5 11.5t-10.5 25.5zM272 1331q1 0 7 -8q20 -20 30 -33l897 -1186v295 l-690 932h-244z" />
<glyph unicode="O" horiz-adv-x="1591" d="M68 702q0 163 52 300.5t147.5 235.5t231.5 151t298 53q163 0 299 -53.5t231 -151t147 -235t52 -300.5t-52 -300.5t-147 -235.5t-231 -151.5t-299 -53.5q-162 0 -298 53t-232 152t-147.5 236t-51.5 300zM139 702q0 -137 41.5 -259t125.5 -213.5t212 -143.5 q-94 105 -128 267.5t-34 348.5q0 111 12.5 224t47.5 215t102 176q-126 -51 -211 -143.5t-126.5 -213t-41.5 -258.5zM428 702q0 -154 27 -304.5t109.5 -257.5t232.5 -107t232 107t109 256t27 304t-27 305.5t-109 257.5t-232 107t-232.5 -107t-109.5 -255.5t-27 -302.5v-3z M1075 86q128 52 212 143.5t125.5 213.5t41.5 259q0 138 -41.5 258.5t-126.5 213t-211 143.5q94 -103 128 -265.5t34 -349.5q0 -437 -162 -616z" />
<glyph unicode="P" horiz-adv-x="1251" d="M33 37q0 28 33 35h6q65 0 89 6t33 30t9 85v1021q0 59 -10.5 82.5t-36 29t-90.5 5.5q-14 0 -23.5 12.5t-9.5 24.5q0 28 33 35h626q140 0 260 -35t197.5 -122t77.5 -230q0 -102 -47 -176t-128 -121t-175.5 -68.5t-188.5 -21.5q-51 0 -76 2h-75v-443q0 -56 13 -80.5t41 -30 t95 -5.5q14 0 23.5 -10.5t9.5 -24.5q0 -30 -33 -37h-620q-13 0 -23 12t-10 25zM258 72h225q-18 42 -18 116v1065q0 43 27 78h-234q16 -37 16 -117v-1026q0 -79 -16 -116zM537 702h112q95 0 144.5 41.5t65 109t15.5 163.5q0 108 -13 172t-61 103.5t-149 39.5q-41 0 -77.5 -21 t-36.5 -61v-547zM872 721q125 32 204 105.5t79 189.5q0 236 -272 297q38 -52 50.5 -126t12.5 -171q0 -203 -74 -295z" />
<glyph unicode="Q" horiz-adv-x="1591" d="M68 702q0 163 52 300.5t147.5 235.5t231.5 151t298 53q163 0 299 -53.5t231 -151t147 -235t52 -300.5q0 -133 -35 -251.5t-104.5 -213.5t-171.5 -160t-236 -95q48 -101 144 -161.5t208 -60.5q18 0 71 9.5t62 9.5q14 0 24.5 -11.5t10.5 -25.5q0 -33 -78 -58t-170 -38 t-135 -13q-115 0 -223.5 44.5t-191.5 125.5t-130 189q-164 46 -277 148t-169.5 247t-56.5 315zM139 702q0 -137 41.5 -259t125.5 -213.5t212 -143.5q-94 105 -128 267.5t-34 348.5q0 111 12.5 224t47.5 215t102 176q-126 -51 -211 -143.5t-126.5 -213t-41.5 -258.5zM428 702 q0 -154 27 -304.5t109.5 -257.5t232.5 -107t232 107t109 256t27 304t-27 305.5t-109 257.5t-232 107t-232.5 -107t-109.5 -255.5t-27 -302.5v-3zM662 -29q66 -121 190 -193.5t264 -72.5q26 0 76 4q-96 30 -170.5 98t-114.5 160q-55 -6 -110 -6q-60 0 -135 10zM1075 86 q128 52 212 143.5t125.5 213.5t41.5 259q0 138 -41.5 258.5t-126.5 213t-211 143.5q94 -103 128 -265.5t34 -349.5q0 -437 -162 -616z" />
<glyph unicode="R" horiz-adv-x="1479" d="M33 37q0 28 33 35h6q67 0 93.5 5.5t38 30.5t11.5 85v1021q0 57 -13 81.5t-41 30t-95 5.5q-14 0 -23.5 12.5t-9.5 24.5q0 28 33 35h677q127 0 253.5 -38.5t209 -124t82.5 -218.5q0 -109 -45 -182t-125 -114t-190 -60q80 -125 160 -245.5t175.5 -234.5t143.5 -114 q13 0 23 -11t10 -24q0 -30 -33 -37h-354q-11 0 -25 14l-405 629h-74v-455q0 -56 13 -80.5t41 -30t95 -5.5q14 0 23.5 -10.5t9.5 -24.5q0 -30 -33 -37h-632q-13 0 -23 12t-10 25zM268 72h228q-19 41 -19 116v1065q0 43 27 78h-236q19 -41 19 -117v-1026q0 -75 -19 -116z M549 715q126 0 190 7.5t108.5 35t66.5 90t22 174.5q0 162 -57.5 235.5t-212.5 73.5q-45 0 -81 -20.5t-36 -61.5v-534zM707 645l368 -573h199q-70 68 -140.5 161t-122 172t-161.5 250q-88 -8 -143 -10zM928 1311q80 -93 80 -289q0 -97 -11 -163t-55 -118q86 18 146.5 50 t94.5 88.5t34 142.5q0 117 -83 188.5t-206 100.5z" />
<glyph unicode="S" horiz-adv-x="1137" d="M59 1024q0 209 128.5 313.5t342.5 104.5q88 0 166 -31q69 -27 129 -27q40 0 79 29t48 29q12 0 23.5 -9.5t11.5 -23.5v-379q0 -16 -11.5 -25.5t-23.5 -9.5q-10 0 -21.5 7.5t-12.5 19.5q-9 60 -46 122.5t-93 114t-120.5 81.5t-128.5 30q-100 0 -163.5 -57t-63.5 -156 q0 -54 43 -102t104.5 -83t140 -67t116.5 -47q103 -40 189 -107.5t138.5 -158.5t52.5 -199t-48.5 -188t-129.5 -130.5t-178.5 -75t-200.5 -24.5q-83 0 -165 31q-62 27 -127 27q-42 0 -81 -29t-44 -29q-14 0 -25.5 10.5t-11.5 24.5v414v16q0 52 37 52q15 0 24.5 -11t9.5 -26 v-17q0 -64 34 -133.5t90.5 -127.5t125.5 -94t135 -36q91 0 150 20t92 71.5t33 140.5q0 120 -102 198.5t-252 138.5q-79 32 -146.5 69.5t-122.5 85.5t-90 112.5t-35 140.5zM131 1024q0 -84 52.5 -148.5t124 -107t169.5 -84.5q178 -74 290 -166.5t112 -238.5q0 -93 -33 -160 q81 46 125.5 116t44.5 158q0 136 -96 239t-238 159q-134 51 -220 91.5t-158.5 110.5t-72.5 164q0 84 43 156q-74 -43 -108.5 -120t-34.5 -169zM147 84q48 20 91 20h6q-56 53 -97 115v-135zM825 1313q52 -49 90 -103v123q-47 -20 -90 -20z" />
<glyph unicode="T" horiz-adv-x="1364" d="M68 1018v352q0 26 32 33h1168q11 0 21.5 -11.5t10.5 -21.5v-352q0 -16 -11.5 -25.5t-24.5 -9.5q-35 0 -35 35q0 89 -57.5 160.5t-146 111t-175.5 39.5v-1141q0 -57 16.5 -81t48 -29.5t101.5 -5.5q13 0 23 -11t10 -24q0 -30 -33 -37h-666q-12 0 -22.5 11.5t-10.5 25.5 q0 13 9.5 22.5t23.5 12.5q72 0 103.5 5.5t47 31t15.5 84.5v1136q-87 0 -175.5 -39.5t-145 -111t-56.5 -160.5l-8 -21q-14 -14 -29 -14q-34 0 -34 35zM139 1223q50 65 125 108h-125v-108zM569 72h228q-19 41 -19 116v1143h-190v-1143q0 -79 -19 -116zM1102 1331 q73 -42 127 -108v108h-127z" />
<glyph unicode="U" horiz-adv-x="1479" d="M33 1368q0 28 33 35h620q14 0 23.5 -10.5t9.5 -24.5q0 -30 -33 -37q-71 0 -100.5 -5.5t-43.5 -30.5t-14 -85v-749q0 -117 18 -207t77 -148.5t174 -58.5q205 0 296 128.5t91 342.5v541q0 99 -32 185.5t-116 86.5q-13 0 -22.5 12.5t-9.5 24.5q0 28 32 35h381 q14 0 23.5 -10.5t9.5 -24.5q0 -30 -33 -37q-83 0 -115 -86.5t-32 -185.5v-545q0 -258 -136.5 -405.5t-394.5 -147.5q-161 0 -282.5 55t-187.5 166t-66 275v757q0 59 -10.5 82.5t-36 29t-90.5 5.5q-14 0 -23.5 12.5t-9.5 24.5zM258 1331q16 -37 16 -117v-753 q0 -162 74.5 -268.5t229.5 -143.5q-37 36 -62.5 85.5t-37.5 102t-16.5 107t-4.5 113.5v757q0 80 18 117h-217zM1182 1331q29 -35 45 -84q17 52 45 84h-90z" />
<glyph unicode="V" horiz-adv-x="1479" d="M0 1368q0 13 10 24t23 11h608q14 -3 23.5 -12.5t9.5 -22.5t-10 -25t-23 -12q-74 0 -129 -55q0 -4 -2 -6q0 -84 107.5 -339.5t242.5 -551.5q121 285 193.5 488.5t72.5 346.5q0 54 -17.5 85.5t-66.5 31.5q-32 7 -32 37q0 12 9.5 23.5t22.5 11.5h400q14 -3 23.5 -12.5 t9.5 -22.5t-10 -25t-23 -12q-44 0 -79.5 -26.5t-53.5 -67.5l-523 -1255q-6 -21 -32 -21q-23 0 -33 21l-553 1216q-27 59 -57 96t-78 37q-33 8 -33 37zM172 1331q32 -37 61 -104l521 -1141l75 186q-50 100 -143.5 312.5t-170.5 416.5t-77 269q0 32 29 61h-295zM1174 1331 q24 -42 24 -117q0 -25 -4 -69l49 121q22 43 41 65h-110z" />
<glyph unicode="W" horiz-adv-x="2048" d="M16 1368q0 13 10 24t23 11h506q14 -3 23.5 -12.5t9.5 -22.5t-10 -25t-23 -12q-42 0 -82 -43v-6q0 -53 30 -163t76 -248t90 -263t76 -215l267 615l-78 204q-48 119 -117 119q-33 7 -33 37q0 13 10 24t23 11h565q33 -7 33 -35q0 -14 -9.5 -25.5t-23.5 -11.5 q-26 0 -67 -17.5t-41 -39.5q0 -63 48 -220.5t125.5 -365t92.5 -246.5q53 147 93.5 268.5t71 253t30.5 224.5q0 143 -97 143q-32 7 -32 37q0 12 9.5 23.5t22.5 11.5h361q14 -3 23.5 -12.5t9.5 -22.5t-10 -25t-23 -12q-51 0 -84 -88l-447 -1255q-11 -27 -34 -27q-24 0 -35 27 l-348 919l-404 -925q-10 -21 -33 -21t-34 27l-433 1216q-21 62 -39.5 94.5t-58.5 32.5q-33 7 -33 37zM168 1331q27 -41 49 -108l401 -1129l87 199q-23 65 -70.5 196.5t-106.5 306t-93 300.5t-34 186q0 23 5 31q1 4 4.5 9.5t5.5 8.5h-248zM950 1331q30 -37 51 -94l431 -1137 l79 222q0 1 -2 4t-2 4q-48 121 -121.5 316t-128.5 373t-55 255q0 37 21 57h-273zM1776 1331q30 -50 30 -143v-35l39 109q12 36 33 69h-102z" />
<glyph unicode="X" horiz-adv-x="1479" d="M37 37q0 27 33 35q40 0 97.5 44.5t99 89.5t106.5 120l258 292q-20 33 -23 37q-140 212 -273 404.5t-185 245.5q-28 26 -72 26q-14 0 -23.5 12.5t-9.5 24.5q0 28 33 35h598q13 0 23 -11t10 -24q0 -30 -33 -37q-81 0 -117 -24q11 -38 52.5 -110t81 -133.5t95.5 -143.5 l154 202q41 54 41 111q0 41 -20 69.5t-58 28.5q-13 0 -23 12t-10 25t9.5 22.5t23.5 12.5h481q13 0 23 -11t10 -24q0 -29 -33 -37q-107 0 -194 -69t-174 -183l-180 -235q14 -22 27 -41.5t30 -44.5q387 -583 465 -668q22 -18 51 -18q14 0 23.5 -10.5t9.5 -24.5q0 -30 -33 -37 h-618q-12 0 -22.5 11.5t-10.5 25.5q0 27 33 35q108 0 149 28q-16 64 -91.5 184t-170.5 261l-229 -262q-45 -52 -45 -109q0 -41 24 -71.5t64 -30.5q13 0 22.5 -10.5t9.5 -24.5q0 -30 -32 -37h-424q-12 0 -22.5 11.5t-10.5 25.5zM223 1331q62 -73 268 -372t365.5 -557 t159.5 -308q0 -10 -2 -14q0 -3 -0.5 -4.5t-1.5 -3.5h270q-57 74 -176.5 246t-272 401.5t-250.5 395.5t-98 202q1 5 1.5 8.5t0.5 5.5h-264zM227 72h135q-28 47 -28 102q-61 -65 -107 -102zM1030 1331q25 -41 25 -96q51 56 110 96h-135z" />
<glyph unicode="Y" horiz-adv-x="1479" d="M39 1368q0 28 33 35h524q13 0 23 -11t10 -24q0 -30 -33 -37h-6q-35 0 -51 -4q-5 0 -13 -4q-2 0 -3.5 -0.5t-2.5 -1.5q0 -13 6 -28.5t13 -28.5t20 -33l305 -545l269 432q22 36 22 78q0 56 -38.5 95.5t-94.5 39.5q-13 0 -23 12t-10 25t9.5 22.5t23.5 12.5h385q13 0 23 -11 t10 -24q0 -30 -33 -37q-24 0 -53 -27.5t-62 -72t-55.5 -81t-42.5 -69.5l-287 -460v-396q0 -59 5.5 -87.5t21 -42.5t46 -18.5t85.5 -4.5q13 0 23 -11t10 -24q0 -30 -33 -37h-649q-13 0 -23 12t-10 25q0 28 33 35h6q72 0 102.5 9.5t39.5 40t9 107.5v310l-366 655 q-20 34 -38.5 64.5t-23.5 37.5q-15 24 -27.5 29.5t-45.5 5.5q-14 0 -23.5 12.5t-9.5 24.5zM209 1331q37 -57 59 -100l373 -666q4 -8 4 -16v-324q0 -108 -24 -153h239q-24 45 -24 153v367q0 1 -2.5 3t-2.5 3l-333 596q-18 30 -26 45.5t-15.5 36t-7.5 41.5q1 5 1.5 8.5 t0.5 5.5h-242zM1178 1331q26 -32 41 -80q31 48 63 80h-104z" />
<glyph unicode="Z" horiz-adv-x="1364" d="M57 37q0 9 6 18l783 1276h-160q-82 0 -161.5 -15t-151 -51t-117 -93.5t-57.5 -143.5q-3 -11 -14 -19t-21 -8q-16 0 -26.5 11.5t-10.5 27.5l37 330q3 27 33 33h1009q14 0 23.5 -10.5t9.5 -24.5q0 -10 -4 -18l-784 -1278h297q87 0 169.5 28t148 80t109 125t56.5 160 q1 13 12 23t25 10t24.5 -11.5t10.5 -25.5l-58 -426q-3 -29 -33 -35h-1122q-12 0 -22.5 11.5t-10.5 25.5zM158 72h209l772 1259h-209zM221 1237q56 59 125 94h-115zM1032 72h146l18 139q-65 -87 -164 -139z" />
<glyph unicode="[" horiz-adv-x="4348" d="M25 1276l2148 455l2148 -455l-16 -92l-2132 393l-2132 -393z" />
<glyph unicode="\" horiz-adv-x="0" d="M25 1276l2652 455l2652 -455l-16 -92l-2636 393l-2636 -393z" />
<glyph unicode="]" horiz-adv-x="4348" d="M33 1368q40 28 100 45q337 97 615.5 159.5t486 90t362.5 27.5q203 0 331.5 -34.5t291.5 -105t290 -104t329 -33.5q108 0 247.5 14t323.5 47.5t394 83.5t499 132l10 -99q-58 -34 -100 -45q-264 -75 -483 -128t-400 -86t-320.5 -47.5t-261.5 -14.5q-202 0 -328 33.5 t-286 102.5t-292 104.5t-335 35.5q-151 0 -356.5 -26.5t-488 -89.5t-619.5 -160z" />
<glyph unicode="^" horiz-adv-x="0" d="M33 1460q50 32 100 43q445 124 791 199t602.5 108t451.5 33q248 0 407 -43.5t344.5 -128.5t337.5 -126.5t398 -41.5q196 0 451.5 33.5t596 107.5t797.5 199l11 -98q-52 -32 -101 -43q-333 -93 -608 -157.5t-511 -106t-407 -59t-319 -17.5q-247 0 -398 41.5t-339 127 t-345 128.5t-405 43q-146 0 -321 -17.5t-394 -56.5t-501.5 -104.5t-628.5 -161.5z" />
<glyph unicode="`" horiz-adv-x="1323" d="M160 51q0 42 47 49h856v562h-516q-47 3 -47 49q0 44 47 51h516v612q7 47 51 47q42 0 49 -47v-1327q-6 -41 -47 -47h-909q-19 3 -33 17t-14 34z" />
<glyph unicode="a" horiz-adv-x="1513" d="M121 104v482q6 41 47 47h383q47 -7 47 -49q0 -43 -47 -52h-330v-421q0 -33 128.5 -42.5t246.5 -9.5q172 0 320 86t234.5 234t86.5 321q0 171 -86.5 319t-233.5 234t-319 86q-209 0 -383 -92q-12 -6 -25 -6q-21 0 -36 15t-15 36q0 34 54.5 61.5t133.5 46.5t155.5 29.5 t115.5 10.5q148 0 285.5 -58.5t237.5 -159.5t158 -237t58 -285t-57.5 -285t-158 -237.5t-237 -160t-286.5 -58.5q-175 0 -326 26t-151 119z" />
<glyph unicode="f" horiz-adv-x="1702" d="M133 1051l74 348h405q25 -6 25 -31q0 -109 -31 -206.5t-96 -246.5t-96 -245t-31 -203q0 -130 62 -230.5t168.5 -156t236.5 -55.5t236.5 55.5t168.5 156t62 230.5q0 107 -32 207t-97 250.5t-95 242.5t-30 201q0 25 27 31h403l74 -348h-78q-13 63 -23 109t-25 62.5 t-47 21.5t-116 5h-131q29 -93 65 -147.5t139.5 -197t146 -236t42.5 -201.5q0 -122 -63 -218.5t-166 -160t-226 -96.5t-235 -33t-234.5 33t-225.5 96.5t-166.5 160.5t-63.5 218q0 108 42.5 200.5t146.5 236.5t140.5 200t63.5 145h-131q-83 0 -114.5 -5t-47 -21.5t-25 -57 t-24.5 -114.5h-78z" />
<glyph unicode="g" horiz-adv-x="1323" d="M127 451q0 139 68 249.5t186 174t254 63.5q75 0 145.5 -28t125 -78t89.5 -119q0 113 -29.5 213t-90.5 183.5t-150 143.5l-446 -202q-22 -9 -52 -9q-63 0 -69 25v199q6 26 69 26t72 -26v-125l348 159q-189 95 -422 95q-6 0 -14 8t-8 14v23q0 11 8 16.5t18 5.5 q284 0 519 -116l296 137q34 8 52 8q62 0 71 -27v-198q-9 -25 -71 -25q-64 0 -70 25v127l-199 -93q164 -99 266.5 -253t102.5 -334q0 -143 -26.5 -274t-87 -239.5t-166 -174.5t-254.5 -66q-106 0 -202 35t-172 101.5t-118.5 157.5t-42.5 198zM328 451q0 -98 11 -165.5 t52 -125.5q54 -67 118.5 -97t152.5 -30q106 0 179 58.5t109.5 151t36.5 197.5q0 4 -0.5 7t-1.5 6q2 16 2.5 26.5t1.5 22.5q0 94 -44 180t-122 138t-174 52q-162 0 -256 -122q-44 -61 -54.5 -127t-10.5 -172z" />
<glyph unicode="h" d="M160 74v20q0 108 47 210t133 166.5t197 64.5q103 0 185.5 -47.5t199 -145.5t194 -143t174.5 -45q85 0 155 43.5t111 117.5t41 158q5 54 35 62q30 -8 35 -62v-20q0 -108 -47 -210t-133 -166.5t-197 -64.5q-100 0 -180 45.5t-196 143t-196.5 145t-180.5 47.5 q-82 0 -154 -44.5t-113 -118t-41 -156.5q-5 -55 -34 -62q-30 7 -35 62zM160 963q0 42 47 49h1413q47 -7 47 -49q0 -45 -47 -52h-1413q-47 7 -47 52z" />
<glyph unicode="i" horiz-adv-x="1575" d="M14 0q0 20 11 33l196 194q13 13 29 13h1065v913q0 25 -29 35t-61 10h-881q-65 0 -103 27t-55.5 73.5t-21.5 93.5t-4 117q0 22 13.5 38t35.5 16t46 -31.5t38.5 -45t56.5 -13.5h881q85 0 125.5 -46.5t49.5 -109.5t9 -158v-919h98q22 -3 35 -16t13 -36q0 -19 -11 -30 l-196 -197q-12 -12 -29 -12h-1264q-20 3 -33.5 16.5t-13.5 34.5z" />
<glyph unicode="j" horiz-adv-x="1071" d="M14 0q0 20 11 33l196 194q13 13 29 13h485v958h-391q-65 0 -103 27t-55.5 73.5t-21.5 93.5t-4 117q0 22 13.5 38t35.5 16t46 -31.5t38.5 -45t56.5 -13.5h438q64 0 111 -38t47 -100q0 -49 -30 -83t-78 -48q0 -180 43 -487q41 -340 41 -496q0 -313 -103 -313q-28 0 -41 22 q-9 18 -15 44.5t-11 57.5t-7 44l-114 -115q-16 -12 -29 -12h-541q-20 3 -33.5 16.5t-13.5 34.5z" />
<glyph unicode="k" horiz-adv-x="1575" d="M160 1509q0 22 13.5 38t35.5 16t46 -31.5t38.5 -45t56.5 -13.5h942q64 0 111 -38t47 -100q0 -49 -31 -83t-78 -48q0 -110 10.5 -216.5t32.5 -270.5q19 -147 30 -264t11 -232q0 -114 -18 -213.5t-84 -99.5q-28 0 -41 22q-19 37 -31 134.5t-12 156.5v977h-895 q-65 0 -103 27t-55.5 73.5t-21.5 93.5t-4 117z" />
<glyph unicode="l" d="M221 510q0 32 27 45l1284 616q8 7 24 7q20 0 35 -15t15 -35q0 -29 -25 -45l-1194 -573l1194 -573q25 -16 25 -43q0 -20 -15 -36t-35 -16q-15 0 -24 6l-1284 619q-27 10 -27 43zM1087 512q0 60 43.5 103.5t104.5 43.5q41 0 74 -20t53 -53t20 -74q0 -62 -42.5 -104.5 t-104.5 -42.5t-105 43t-43 104z" />
<glyph unicode="m" d="M221 -106q0 29 27 43l1192 573l-1192 573q-27 14 -27 45q0 20 15 35t36 15q14 0 25 -7l1284 -616q10 -6 17.5 -20t7.5 -25t-8 -25t-17 -18l-1284 -619q-12 -6 -25 -6q-21 0 -36 16t-15 36zM444 512q0 60 43.5 103.5t104.5 43.5q41 0 74 -20t53 -53t20 -74 q0 -62 -42.5 -104.5t-104.5 -42.5t-105 43t-43 104z" />
<glyph unicode="n" d="M365 8v1006q3 20 16.5 33.5t34.5 13.5q17 0 30 -10l467 -469l461 460q17 19 39 19q20 0 34.5 -14.5t14.5 -34.5t-10 -33l-469 -467l469 -469q10 -13 10 -31q0 -22 -14.5 -36.5t-34.5 -14.5q-18 0 -33 10l-467 469l-458 -460q-22 -19 -39 -19q-21 0 -34.5 13.5t-16.5 33.5 zM465 133l379 379l-379 377v-756z" />
<glyph unicode="o" d="M365 12q0 19 12 31l467 469l-467 467q-12 12 -12 33q0 19 15 34t36 15q17 0 30 -10l467 -469l461 460q17 19 39 19q42 0 49 -47v-1006q-7 -47 -49 -47q-18 0 -33 10l-467 469l-458 -460q-22 -19 -39 -19q-21 0 -36 15t-15 36zM983 512l379 -379v756z" />
<glyph unicode="p" horiz-adv-x="567" d="M236 6v830q1 19 15 33t34 14t34 -13t17 -34v-830q-3 -21 -17 -34t-34 -13t-33.5 13.5t-15.5 33.5z" />
<glyph unicode="q" horiz-adv-x="946" d="M160 6v830q1 19 15 33t34 14t34 -13t17 -34v-830q-3 -21 -17 -34t-34 -13t-33.5 13.5t-15.5 33.5zM684 6v830q1 19 15 33t34 14t34 -13t17 -34v-830q-3 -21 -17 -34t-34 -13t-33.5 13.5t-15.5 33.5z" />
<glyph unicode="r" d="M236 834q0 18 14.5 33.5t34.5 15.5q15 0 24 -6l1258 -824q24 -15 24 -43q0 -22 -14.5 -36.5t-34.5 -14.5q-15 0 -24 6l-1258 823q-24 16 -24 46z" />
<glyph unicode="s" d="M160 322v22q0 82 26 160.5t76.5 143.5t119.5 101.5t155 36.5q103 0 186.5 -46t195.5 -135t194 -134t177 -45q75 0 143.5 37t111 101t42.5 141q0 26 9.5 51.5t31.5 29.5q20 -4 29.5 -29t9.5 -52v-23q0 -81 -25.5 -161t-75 -143.5t-120 -101.5t-156.5 -38q-99 0 -184 46 t-196 134t-192.5 134t-180.5 46q-75 0 -143.5 -37t-111 -100.5t-42.5 -138.5q0 -27 -9.5 -53.5t-29.5 -30.5q-22 4 -31.5 30t-9.5 54z" />
<glyph unicode="t" d="M160 150v22q0 104 51 182.5t137 120t189 41.5q94 0 177.5 -33t207 -100.5t201.5 -98t167 -30.5q54 0 125 21t121.5 61.5t50.5 97.5q0 27 9.5 52.5t31.5 29.5q20 -4 29.5 -29t9.5 -53v-22q0 -104 -51 -183.5t-137 -121t-189 -41.5q-90 0 -168 30.5t-201.5 98t-207 100.5 t-176.5 33q-54 0 -124 -21t-121.5 -61.5t-51.5 -95.5q0 -27 -9.5 -53.5t-29.5 -30.5q-22 4 -31.5 30t-9.5 54zM160 690v23q0 104 51 182.5t137 120t189 41.5q94 0 177.5 -33t207 -100.5t201.5 -98t167 -30.5q54 0 125 21t121.5 61.5t50.5 97.5q0 25 9.5 51.5t31.5 30.5 q20 -4 29.5 -30t9.5 -52v-23q0 -104 -51 -183.5t-137 -121t-189 -41.5q-90 0 -168 30.5t-201.5 98t-207 100.5t-176.5 33q-54 0 -125 -21t-121.5 -62t-50.5 -95q0 -26 -9.5 -53t-29.5 -31q-22 4 -31.5 30.5t-9.5 53.5z" />
<glyph unicode="u" d="M145 -90q0 21 13.5 34.5t34.5 16.5h1443q47 -8 47 -51q0 -14 -6.5 -24t-17.5 -17t-23 -8h-1443q-48 7 -48 49zM160 352v21q0 101 51 186t139 133.5t187 48.5q97 0 181 -39.5t204.5 -118.5t196.5 -115t171 -36q115 0 211 70t96 180q5 52 35 59q30 -7 35 -59v-20 q0 -156 -110.5 -263.5t-266.5 -107.5q-96 0 -174.5 36.5t-198.5 115t-202.5 118t-177.5 39.5q-72 0 -144 -30.5t-118 -87.5t-46 -130q-5 -54 -34 -61q-30 7 -35 61zM160 893v20q0 101 51 186t139 134t187 49q97 0 181 -39.5t204.5 -118.5t196.5 -115t171 -36q115 0 211 70 t96 180q5 52 35 59q30 -7 35 -59v-21q0 -156 -110.5 -263.5t-266.5 -107.5q-94 0 -173.5 37t-199.5 115.5t-202.5 118t-177.5 39.5q-72 0 -144 -30.5t-118 -87.5t-46 -130q-5 -54 -34 -62q-30 8 -35 62z" />
<glyph unicode="v" d="M160 -119q0 101 51 186t139 134t187 49q97 0 181 -39.5t204.5 -118.5t196.5 -115t171 -36q115 0 211 69t96 180q5 53 35 60q30 -7 35 -60v-20q0 -156 -110.5 -263.5t-266.5 -107.5q-94 0 -173.5 37t-199.5 115.5t-202.5 118t-177.5 39.5q-73 0 -145 -31t-117.5 -88 t-45.5 -129q-5 -55 -34 -62q-30 7 -35 62v20zM160 -659q0 102 51 186t139 133t187 49q97 0 181 -39.5t204.5 -118.5t196.5 -115t171 -36q115 0 211 70t96 180q5 52 35 59q30 -7 35 -59v-21q0 -102 -51 -187.5t-139 -134t-187 -48.5q-96 0 -174.5 36.5t-198.5 115t-202.5 118 t-177.5 39.5q-72 0 -144 -30.5t-118 -87.5t-46 -130q-5 -54 -34 -61q-30 7 -35 61v21zM221 555q17 126 72.5 220.5t138 157.5t184 102.5t230.5 66.5q-127 26 -229.5 65t-186 102.5t-137.5 157.5t-72 220q0 21 14 37t37 16q29 0 41 -23q6 -10 9 -24t5 -30.5t5 -31.5 q14 -58 43 -108q48 -83 121 -135q60 -45 134 -77t163 -54q163 -42 344 -54t422 -12q20 -3 33.5 -16.5t13.5 -32.5q0 -21 -13.5 -34.5t-33.5 -16.5q-303 0 -547.5 -25.5t-452 -136.5t-237.5 -340q-9 -47 -50 -47q-23 0 -37 15t-14 38z" />
<glyph unicode="w" d="M160 -119q0 101 51 186t139 134t187 49q97 0 181 -39.5t204.5 -118.5t196.5 -115t171 -36q115 0 211 69t96 180q5 53 35 60q30 -7 35 -60v-20q0 -156 -110.5 -263.5t-266.5 -107.5q-94 0 -173.5 37t-199.5 115.5t-202.5 118t-177.5 39.5q-73 0 -145 -31t-117.5 -88 t-45.5 -129q-5 -55 -34 -62q-30 7 -35 62v20zM160 -659q0 102 51 186t139 133t187 49q97 0 181 -39.5t204.5 -118.5t196.5 -115t171 -36q115 0 211 70t96 180q5 52 35 59q30 -7 35 -59v-21q0 -102 -51 -187.5t-139 -134t-187 -48.5q-96 0 -174.5 36.5t-198.5 115t-202.5 118 t-177.5 39.5q-72 0 -144 -30.5t-118 -87.5t-46 -130q-5 -54 -34 -61q-30 7 -35 61v21zM221 1102q0 19 13.5 32.5t33.5 16.5q240 0 421.5 12t344.5 54q186 46 299 131q71 55 119 133q31 60 43 110q3 12 7 42.5t11 43.5q14 23 43 23q22 0 36 -16t14 -37q-16 -125 -70 -218.5 t-138 -158t-187.5 -104t-229.5 -64.5q129 -27 231 -67t185.5 -103.5t138 -157t70.5 -219.5q0 -23 -14 -38t-36 -15q-20 0 -34 14t-17 33q-30 229 -238 340t-452 136.5t-547 25.5q-20 3 -33.5 16.5t-13.5 34.5z" />
<glyph unicode="x" horiz-adv-x="2331" d="M96 301v82q90 -31 173 -81.5t155 -117.5q0 176 75 322t204.5 251t290 161.5t329.5 56.5q192 0 358 -79t287 -216t187.5 -312t66.5 -364q0 -23 -14 -39t-37 -16q-19 0 -32.5 14.5t-16.5 32.5q0 170 -58.5 329t-165 282t-255 195t-320.5 72q-198 0 -383 -86t-300.5 -245.5 t-115.5 -360.5q137 134 328 201v-82q-76 -26 -147.5 -71.5t-130 -103.5t-101.5 -126q-137 216 -377 301z" />
<glyph unicode="y" horiz-adv-x="2331" d="M109 4q0 185 67.5 362.5t189 314t287 215.5t357.5 79q170 0 331 -57t289 -160.5t203.5 -250.5t75.5 -323q143 134 327 199v-82q-239 -85 -376 -301q-65 103 -165.5 182.5t-213.5 118.5v82q189 -66 327 -201q0 155 -67 283t-182.5 220t-258 140.5t-290.5 48.5 q-171 0 -319.5 -72t-256.5 -196.5t-166.5 -283.5t-58.5 -326q-3 -18 -17.5 -32.5t-31.5 -14.5q-22 0 -36.5 16.5t-14.5 38.5z" />
<glyph unicode="z" d="M160 -219l375 1503q12 25 124 25h883q113 0 125 -25q-12 -27 -125 -27h-762l-176 -698h397q114 0 127 -27q-14 -24 -127 -24h-409l-180 -727q-15 -25 -127 -25q-113 0 -125 25z" />
<glyph unicode="{" horiz-adv-x="1575" d="M145 47q0 41 54 76l342 209q70 128 123 330q2 12 10 36q1 1 2.5 4.5t3 6.5t2.5 4q-78 0 -173 -11t-101 -40h-78q17 70 83 119.5t151.5 73.5t160.5 24q35 0 35 -86q0 -67 -20 -141t-51.5 -141t-74.5 -134l768 471q89 53 177 53q36 0 62 -15t30 -50q0 -42 -54 -76 l-342 -209q-41 -76 -69.5 -156t-52.5 -174l-7 -19q-3 -11 -6 -18q-6 -12 -8 -14q70 0 169.5 11t107.5 40h77q-17 -70 -83 -119.5t-151.5 -73.5t-160.5 -24q-35 0 -35 86q0 70 19.5 142.5t51.5 140.5t75 133l-768 -471q-45 -26 -89 -39.5t-87 -13.5q-84 0 -93 65z" />
<glyph unicode="|" horiz-adv-x="1137" d="M41 37q0 12 9.5 23.5t23.5 11.5q34 0 47.5 38t13.5 83v1017q0 45 -13.5 83t-47.5 38q-33 7 -33 37q0 12 9.5 23.5t23.5 11.5h309q33 -8 33 -33v-868l231 209q53 48 53 108q0 24 -10.5 41t-34.5 17q-32 7 -32 36q0 11 9 23t23 12h373q33 -7 33 -35q0 -14 -10 -25t-23 -11 q-59 0 -144 -65t-188 -159l-65 -59l303 -381q100 -141 135 -141q14 -3 23.5 -12.5t9.5 -22.5q0 -14 -10.5 -25.5t-22.5 -11.5h-434q-33 7 -33 37q0 12 9.5 23.5t23.5 11.5q47 0 55 12q0 11 -8 25.5t-22 33t-21 27.5l-201 250l-22 -21v-206q0 -45 12.5 -83t48.5 -38 q33 -8 33 -35q0 -14 -10.5 -25.5t-22.5 -11.5h-403q-33 7 -33 37zM182 72h185q-23 46 -23 116v1143h-162q25 -51 25 -117v-1026q0 -62 -25 -116zM492 469l204 -256q31 -40 48.5 -68.5t17.5 -60.5v-12h192q-21 25 -77 98l-299 375zM762 872q5 -9 8 -26q1 -6 1.5 -11.5 t0.5 -15.5v-6q42 36 82 64h-92v-5z" />
<glyph unicode="}" horiz-adv-x="1294" d="M154 47q0 12 2 19l233 938l-162 -48h-10q-16 0 -27.5 11.5t-11.5 27.5q0 30 31 37l203 58l34 145q5 17 5 27q0 55 -154 55l20 82l345 22q-9 -28 -9 -30l-61 -250l500 141h10q16 0 27.5 -11.5t11.5 -27.5q0 -30 -31 -37l-541 -153l-77 -314q66 77 149 120.5t176 43.5 q122 0 196 -57.5t74 -173.5q0 -132 -133 -459q-22 -57 -22 -100q0 -68 49 -68q81 0 137.5 81t79.5 175q7 18 23 18h32q10 0 16.5 -7.5t6.5 -16.5q0 -4 -2 -8q-18 -73 -59 -143.5t-102.5 -117t-135.5 -46.5q-83 0 -142 47.5t-59 126.5q0 36 15 73q60 152 98.5 270.5 t38.5 202.5q0 61 -28 99.5t-87 38.5q-123 0 -215 -84t-156 -211l-123 -492q-9 -30 -36.5 -50.5t-57.5 -20.5t-50.5 19t-20.5 48z" />
<glyph unicode="~" horiz-adv-x="1294" d="M154 47q0 12 2 19l260 1046h-162q-16 0 -26.5 12t-10.5 27t10.5 27t26.5 12h182q15 55 15 72q0 55 -154 55l20 82l345 22q-9 -28 -9 -30l-49 -201h438q16 0 26.5 -12t10.5 -27t-10.5 -27t-26.5 -12h-458l-92 -373q66 77 149 120.5t176 43.5q122 0 196 -57.5t74 -173.5 q0 -132 -133 -459q-22 -57 -22 -100q0 -68 49 -68q81 0 137.5 81t79.5 175q7 18 23 18h32q10 0 16.5 -7.5t6.5 -16.5q0 -4 -2 -8q-18 -73 -59 -143.5t-102.5 -117t-135.5 -46.5q-83 0 -142 47.5t-59 126.5q0 36 15 73q60 152 98.5 270.5t38.5 202.5q0 61 -28 99.5t-87 38.5 q-123 0 -215 -84t-156 -211l-123 -492q-9 -30 -36.5 -50.5t-57.5 -20.5t-50.5 19t-20.5 48z" />
<glyph unicode="&#xa1;" d="M221 45q0 42 47 49h596v187q1 19 15 33t34 14q21 0 35 -13t17 -34v-187h594q47 -7 47 -49q0 -21 -13.5 -34.5t-33.5 -16.5h-594v-350h594q21 -3 34 -16t13 -36q0 -19 -13.5 -32.5t-33.5 -16.5h-594v-186q-3 -20 -17.5 -33.5t-34.5 -13.5q-19 0 -33.5 14t-15.5 33v186 h-596q-20 3 -33.5 16.5t-13.5 32.5q0 23 13 36t34 16h596v350h-596q-20 3 -33.5 16.5t-13.5 34.5zM221 1012q0 32 27 45l1284 616q9 6 24 6q21 0 35.5 -14.5t14.5 -34.5q0 -31 -25 -45l-1194 -573l1194 -574q25 -14 25 -43q0 -21 -15 -36t-35 -15q-15 0 -24 6l-1284 619 q-27 10 -27 43z" />
<glyph unicode="&#xa2;" d="M221 45q0 42 47 49h596v187q1 19 15 33t34 14q21 0 35 -13t17 -34v-187h594q47 -7 47 -49q0 -21 -13.5 -34.5t-33.5 -16.5h-594v-350h594q21 -3 34 -16t13 -36q0 -19 -13.5 -32.5t-33.5 -16.5h-594v-186q-3 -20 -17.5 -33.5t-34.5 -13.5q-19 0 -33.5 14t-15.5 33v186 h-596q-20 3 -33.5 16.5t-13.5 32.5q0 23 13 36t34 16h596v350h-596q-20 3 -33.5 16.5t-13.5 34.5zM221 395q0 30 27 43l1192 574l-1192 573q-27 13 -27 45q0 20 14.5 34.5t36.5 14.5q13 0 25 -6l1284 -616q10 -6 17.5 -20t7.5 -25q0 -12 -8.5 -25.5t-16.5 -17.5l-1284 -619 q-12 -6 -25 -6q-21 0 -36 15t-15 36z" />
<glyph unicode="&#xa3;" d="M221 -332q0 21 13 34t34 15h264l287 701l-571 274q-27 13 -27 43q0 32 27 45l901 434l219 537q17 31 47 31q21 0 36 -14t15 -35q0 -7 -4 -19l-178 -434l248 117q9 6 24 6q20 0 35 -15t15 -34q0 -12 -7.5 -26t-17.5 -19l-354 -168l-279 -674l633 -305q9 -4 17 -18t8 -25 q0 -19 -15 -35t-35 -16q-6 0 -24 6l-621 299l-270 -656h918q21 -2 34 -15t13 -34t-13.5 -34.5t-33.5 -16.5h-959l-141 -344q-17 -31 -47 -31q-20 0 -36 15t-16 34q0 9 5 19l124 307h-221q-20 3 -33.5 16.5t-13.5 34.5zM387 735l471 -225l232 565z" />
<glyph unicode="&#xa4;" d="M221 119q0 33 27 43l581 282l203 488l-784 377q-27 13 -27 45q0 19 15 34t36 15q13 0 25 -6l774 -371l297 725q17 31 47 31q21 0 36 -14t15 -35q0 -7 -4 -19l-301 -733l420 -201q25 -14 25 -45q0 -29 -25 -43l-672 -321l-268 -654h918q21 -2 34 -15t13 -34t-13.5 -34.5 t-33.5 -16.5h-959l-141 -344q-17 -31 -47 -31q-20 0 -36 15t-16 34q0 9 5 19l124 307h-221q-20 3 -33.5 16.5t-13.5 34.5t13 34t34 15h264l240 586l-475 -229q-8 -2 -14 -4t-11 -2q-21 0 -36 16t-15 35zM967 510l473 225l-318 154z" />
<glyph unicode="&#xa5;" d="M221 512q0 30 27 43l833 401l287 570q17 30 47 30q22 0 36.5 -13.5t14.5 -35.5q0 -6 -4 -18l-231 -461l301 146q18 6 24 6q21 0 35.5 -15.5t14.5 -36.5q0 -11 -7 -24t-18 -19l-424 -204l-301 -594l725 -350q9 -4 17 -18t8 -25q0 -19 -14.5 -35.5t-35.5 -16.5q-6 0 -24 6 l-721 349l-352 -699q-17 -30 -47 -30q-19 0 -35.5 14.5t-16.5 34.5q0 8 5 18l354 705l-471 227q-27 13 -27 45zM387 512l377 -182l244 479z" />
<glyph unicode="&#xa6;" d="M221 -106q0 32 27 43l422 204l301 596l-723 348q-27 11 -27 43q0 21 14.5 36.5t36.5 15.5q1 0 25 -6l719 -349l352 701q17 30 47 30q22 0 36.5 -13.5t14.5 -35.5q0 -6 -4 -18l-356 -707l475 -227q25 -14 25 -43q0 -31 -25 -45l-838 -401l-284 -568q-19 -30 -47 -30 q-19 0 -35.5 14.5t-16.5 34.5q0 8 5 18l229 459l-297 -146q-8 -2 -14 -4t-11 -2q-22 0 -36.5 16.5t-14.5 35.5zM819 213l621 299l-379 180z" />
<glyph unicode="&#xa7;" d="M221 512q0 42 47 49q176 0 332.5 11.5t310.5 45.5l457 908q17 30 47 30q22 0 36.5 -13.5t14.5 -35.5q0 -6 -4 -18l-422 -836q198 62 320.5 176.5t144.5 300.5q3 21 16.5 34.5t34.5 13.5q22 0 36 -16t14 -38q-32 -266 -238 -419q-78 -59 -186 -107q-74 -29 -95 -35 q-48 -17 -106 -31q-7 -2 -7.5 -8t-12.5 -28q127 -31 238 -79t195 -116.5t140 -170t72 -234.5q0 -22 -14 -38t-36 -16q-29 0 -43 23q-6 10 -9 27t-5 34.5t-6 36.5q-18 66 -47 119q-52 90 -139 156q-144 107 -392 165l-456 -905q-17 -30 -47 -30q-19 0 -35.5 14.5t-16.5 34.5 q0 8 5 18l446 887q-224 39 -543 39q-20 3 -33.5 16.5t-13.5 34.5z" />
<glyph unicode="&#xa8;" d="M221 -104q18 132 70 229t136 168.5t188.5 118.5t230.5 77l18 39q-125 29 -235 77.5t-196 119.5t-141 169.5t-71 229.5q0 22 14 38t37 16q41 0 50 -48q19 -150 102.5 -253t207.5 -163t279 -93l457 905q17 30 47 30q22 0 36.5 -13.5t14.5 -35.5q0 -6 -4 -18l-448 -889 q90 -15 180 -23.5t182 -12t183 -3.5q47 -7 47 -49q0 -21 -13.5 -34.5t-33.5 -16.5q-389 0 -644 -58l-456 -905q-17 -30 -47 -30q-19 0 -35.5 14.5t-16.5 34.5q0 8 5 18l419 834q-208 -69 -325 -183q-43 -41 -78 -104q-26 -43 -47 -119q-4 -19 -6.5 -38t-6 -35t-8.5 -25 q-12 -23 -41 -23q-23 0 -37 16t-14 38z" />
<glyph unicode="&#xa9;" d="M221 45q0 42 47 49h834l201 215q19 19 38 19q21 0 36.5 -14.5t15.5 -34.5q0 -21 -13 -33l-141 -152h320q47 -7 47 -49q0 -21 -13.5 -34.5t-33.5 -16.5h-414l-326 -350h740q21 -3 34 -16t13 -36q0 -19 -13.5 -32.5t-33.5 -16.5h-834l-201 -215q-18 -18 -39 -18 q-18 0 -33.5 14.5t-15.5 34.5q0 23 10 33l142 151h-320q-20 3 -33.5 16.5t-13.5 32.5q0 23 13 36t34 16h414l326 350h-740q-20 3 -33.5 16.5t-13.5 34.5zM221 1012q0 32 27 45l1284 616q9 6 24 6q21 0 35.5 -14.5t14.5 -34.5q0 -31 -25 -45l-1194 -573l1194 -574 q25 -14 25 -43q0 -21 -15 -36t-35 -15q-15 0 -24 6l-1284 619q-27 10 -27 43z" />
<glyph unicode="&#xaa;" d="M221 45q0 42 47 49h834l201 215q19 19 38 19q21 0 36.5 -14.5t15.5 -34.5q0 -21 -13 -33l-141 -152h320q47 -7 47 -49q0 -21 -13.5 -34.5t-33.5 -16.5h-414l-326 -350h740q21 -3 34 -16t13 -36q0 -19 -13.5 -32.5t-33.5 -16.5h-834l-201 -215q-18 -18 -39 -18 q-18 0 -33.5 14.5t-15.5 34.5q0 23 10 33l142 151h-320q-20 3 -33.5 16.5t-13.5 32.5q0 23 13 36t34 16h414l326 350h-740q-20 3 -33.5 16.5t-13.5 34.5zM221 395q0 30 27 43l1192 574l-1192 573q-27 13 -27 45q0 20 14.5 34.5t36.5 14.5q13 0 25 -6l1284 -616 q10 -6 17.5 -20t7.5 -25q0 -12 -8.5 -25.5t-16.5 -17.5l-1284 -619q-12 -6 -25 -6q-21 0 -36 15t-15 36z" />
<glyph unicode="&#xad;" d="M221 285q0 21 15 36t36 15q13 0 25 -6l405 -197l117 285l-571 274q-27 13 -27 43q0 32 27 45l901 434l219 537q17 31 47 31q21 0 36 -14t15 -35q0 -7 -4 -19l-178 -434l248 117q9 6 24 6q20 0 35 -15t15 -34q0 -12 -7.5 -26t-17.5 -19l-354 -168l-279 -674l633 -305 q9 -4 17 -18t8 -25q0 -19 -15 -35t-35 -16q-6 0 -24 6l-621 299l-116 -283l786 -379q10 -4 17.5 -17.5t7.5 -25.5q0 -21 -15 -36t-35 -15q-6 0 -24 6l-776 373l-297 -723q-17 -31 -47 -31q-20 0 -36 15t-16 34q0 9 5 19l299 731l-416 201q-27 13 -27 43zM387 735l471 -225 l232 565z" />
<glyph unicode="&#xae;" d="M221 119q0 33 27 43l581 282l203 488l-784 377q-27 13 -27 45q0 19 15 34t36 15q13 0 25 -6l774 -371l297 725q17 31 47 31q21 0 36 -14t15 -35q0 -7 -4 -19l-301 -733l420 -201q25 -14 25 -45q0 -29 -25 -43l-672 -321l-174 -424l797 383q9 6 24 6q20 0 35 -15t15 -36 q0 -29 -25 -43l-903 -435l-219 -534q-17 -31 -47 -31q-20 0 -36 15t-16 34q0 9 5 19l176 432l-244 -119q-8 -2 -14 -4t-11 -2q-21 0 -36 15t-15 36q0 33 27 43l350 170l174 422l-475 -229q-8 -2 -14 -4t-11 -2q-21 0 -36 16t-15 35zM967 510l473 225l-318 154z" />
<glyph unicode="&#xaf;" d="M221 -334q0 21 12.5 34.5t34.5 16.5h625l215 213q9 13 31 13q20 0 35.5 -14.5t15.5 -37.5q0 -18 -12 -30l-144 -144h525q22 -3 34.5 -16.5t12.5 -34.5q0 -19 -13.5 -32.5t-33.5 -16.5h-625l-213 -215q-13 -10 -33 -10q-18 0 -33.5 14.5t-15.5 34.5q0 22 10 33l144 143 h-525q-20 3 -33.5 16.5t-13.5 32.5zM221 735q0 32 27 45l1284 617q9 6 24 6q20 0 35 -15t15 -34q0 -31 -25 -45l-1194 -574l1194 -573q25 -14 25 -43q0 -21 -15 -36t-35 -15q-15 0 -24 6l-1284 618q-27 10 -27 43z" />
<glyph unicode="&#xb0;" d="M221 119q0 30 27 43l1192 573l-1192 574q-27 13 -27 45q0 19 15 34t36 15q13 0 25 -6l1284 -617q10 -5 17.5 -19t7.5 -26q0 -11 -8 -25t-17 -18l-1284 -618q-12 -6 -25 -6q-21 0 -36 15t-15 36zM221 -334q0 21 12.5 34.5t34.5 16.5h625l215 213q9 13 31 13 q20 0 35.5 -14.5t15.5 -37.5q0 -18 -12 -30l-144 -144h525q22 -3 34.5 -16.5t12.5 -34.5q0 -19 -13.5 -32.5t-33.5 -16.5h-625l-213 -215q-13 -10 -33 -10q-18 0 -33.5 14.5t-15.5 34.5q0 22 10 33l144 143h-525q-20 3 -33.5 16.5t-13.5 32.5z" />
<glyph unicode="&#xb1;" d="M221 -334q0 21 12.5 34.5t34.5 16.5h262l377 912q-142 33 -295.5 45t-343.5 12q-20 3 -33.5 16.5t-13.5 34.5q0 42 47 49q217 0 394 17t344 65l362 883q17 31 47 31q21 0 36 -14t15 -35q0 -7 -4 -19l-329 -803q185 78 278 201q56 73 82 172q4 19 6 36.5t5 33t9 26.5 q12 23 43 23q22 0 36 -16t14 -37q-19 -149 -88.5 -259.5t-178 -183t-258.5 -121.5l-37 -88q241 -71 388 -209.5t174 -367.5q0 -23 -14 -38t-36 -15q-43 0 -51 47q-11 102 -53.5 181t-110 138.5t-152.5 100.5t-183 69l-365 -887h918q22 -3 34.5 -16.5t12.5 -34.5 q0 -19 -13.5 -32.5t-33.5 -16.5h-959l-141 -344q-17 -31 -47 -31q-20 0 -36 15t-16 34q0 9 5 19l124 307h-221q-20 3 -33.5 16.5t-13.5 32.5zM887 737q37 -7 59 -14l12 29q-25 -7 -71 -15z" />
<glyph unicode="&#xb2;" d="M221 121q17 142 81 248t160 178t214 116.5t264 73.5q-144 28 -262 72t-215.5 116t-160 177t-81.5 248q0 21 14 37t37 16q30 0 41 -23q5 -9 8.5 -24t6 -34t6.5 -38q20 -71 47 -119q22 -38 47 -68t52.5 -55.5t66.5 -52.5q60 -39 131.5 -70t146 -51.5t164.5 -38.5l379 922 q17 31 47 31q21 0 36 -14t15 -35q0 -7 -4 -19l-370 -901q114 -15 231.5 -21t235.5 -6q47 -7 47 -49q0 -21 -13.5 -34.5t-33.5 -16.5q-310 0 -535 -37l-383 -932h918q22 -3 34.5 -16.5t12.5 -34.5q0 -19 -13.5 -32.5t-33.5 -16.5h-959l-141 -344q-17 -31 -47 -31 q-20 0 -36 15t-16 34q0 9 5 19l124 307h-221q-20 3 -33.5 16.5t-13.5 32.5q0 21 12.5 34.5t34.5 16.5h262l375 910q-153 -35 -276.5 -96t-205.5 -164t-101 -252q-3 -19 -17 -33t-33 -14q-23 0 -37 15t-14 38z" />
<glyph unicode="&#xb3;" d="M160 -473q0 105 49 198t136 149t192 56q93 0 180.5 -43.5t185.5 -115.5l238 417q12 23 43 23q19 0 34 -15t15 -36q0 -6 -0.5 -10t-1.5 -9l-246 -430q56 -39 102.5 -64.5t98.5 -42t104 -16.5q79 0 150 36.5t114 100t43 144.5q5 54 35 61q30 -7 35 -61v-21q0 -78 -29 -152 t-78 -128t-120 -87.5t-150 -33.5q-65 0 -127 22t-120.5 57.5t-118.5 80.5l-238 -418q-13 -23 -43 -23q-20 0 -34.5 16t-14.5 36q1 5 1.5 8.5t0.5 9.5l246 430q-82 58 -154.5 90.5t-150.5 32.5t-150 -36.5t-115 -102t-43 -144.5q-5 -52 -34 -59q-30 7 -35 59v21zM221 928 q0 19 13.5 32.5t33.5 16.5q142 0 278.5 7.5t266.5 29.5t246 61q195 64 309 176q43 46 78 105q27 47 47 119q5 30 9.5 58.5t10.5 39.5q14 22 43 22q22 0 36 -15t14 -38q-17 -139 -80.5 -246t-161 -180t-213.5 -116.5t-264 -73.5q144 -28 261.5 -72t216 -116t162 -178 t79.5 -247q0 -21 -14 -37t-36 -16q-21 0 -34.5 13.5t-16.5 33.5q-23 190 -152.5 307t-315.5 173.5t-374 73t-395 16.5q-20 3 -33.5 16.5t-13.5 34.5z" />
<glyph unicode="&#xb4;" d="M160 -502q0 112 46 218.5t132 174.5t199 68q99 0 181.5 -48t184.5 -136l238 442q13 23 43 23q19 0 34 -15t15 -37q0 -6 -0.5 -9.5t-1.5 -8.5l-250 -463q80 -69 153.5 -108t155.5 -39q90 0 160 47.5t108.5 125t38.5 165.5q5 54 35 61q30 -7 35 -61v-21q0 -173 -105 -316 t-272 -143q-69 0 -132.5 26.5t-113.5 62.5t-120 96l-238 -443q-13 -22 -43 -22q-20 0 -34.5 15.5t-14.5 35.5q1 5 1.5 8.5t0.5 9.5l250 463q-80 69 -154 108.5t-155 39.5q-89 0 -159.5 -47t-109.5 -126.5t-39 -166.5q-5 -52 -34 -60q-30 8 -35 60v20zM221 342 q19 143 83 248.5t160.5 176.5t218.5 116.5t257 70.5q-150 31 -265.5 75t-212.5 116.5t-160.5 178.5t-80.5 247q0 21 14 37t37 16q41 0 50 -47q24 -189 152.5 -306.5t314.5 -174t374 -73.5t396 -17q47 -9 47 -50q0 -21 -13.5 -34.5t-33.5 -16.5q-141 0 -277.5 -7.5 t-267 -29.5t-246.5 -61q-194 -63 -309 -176q-50 -50 -78 -105q-28 -49 -47 -118q-4 -19 -6.5 -37.5t-6 -34.5t-8.5 -25q-13 -22 -41 -22q-23 0 -37 15t-14 38z" />
<glyph unicode="&#xb5;" d="M160 -473q0 105 49 198t136 149t192 56q93 0 180.5 -43.5t185.5 -115.5l238 417q12 23 43 23q19 0 34 -15t15 -36q0 -6 -0.5 -10t-1.5 -9l-246 -430q56 -39 102.5 -64.5t98.5 -42t104 -16.5q79 0 150 36.5t114 100t43 144.5q5 54 35 61q30 -7 35 -61v-21q0 -78 -29 -152 t-78 -128t-120 -87.5t-150 -33.5q-65 0 -127 22t-120.5 57.5t-118.5 80.5l-238 -418q-13 -23 -43 -23q-20 0 -34.5 16t-14.5 36q1 5 1.5 8.5t0.5 9.5l246 430q-82 58 -154.5 90.5t-150.5 32.5t-150 -36.5t-115 -102t-43 -144.5q-5 -52 -34 -59q-30 7 -35 59v21zM221 928 q0 32 27 45l1284 616q9 6 24 6q21 0 35.5 -14.5t14.5 -34.5q0 -31 -25 -45l-1194 -573l1194 -574q25 -14 25 -43q0 -21 -15 -36t-35 -15q-15 0 -24 6l-1284 619q-27 10 -27 43z" />
<glyph unicode="&#xb6;" d="M160 -502q0 112 46 218.5t132 174.5t199 68q99 0 181.5 -48t184.5 -136l238 442q13 23 43 23q19 0 34 -15t15 -37q0 -6 -0.5 -9.5t-1.5 -8.5l-250 -463q80 -69 153.5 -108t155.5 -39q90 0 160 47.5t108.5 125t38.5 165.5q5 54 35 61q30 -7 35 -61v-21q0 -173 -105 -316 t-272 -143q-69 0 -132.5 26.5t-113.5 62.5t-120 96l-238 -443q-13 -22 -43 -22q-20 0 -34.5 15.5t-14.5 35.5q1 5 1.5 8.5t0.5 9.5l250 463q-80 69 -154 108.5t-155 39.5q-89 0 -159.5 -47t-109.5 -126.5t-39 -166.5q-5 -52 -34 -60q-30 8 -35 60v20zM221 340q0 30 27 43 l1192 573l-1192 574q-27 13 -27 45q0 20 14.5 34.5t36.5 14.5q13 0 25 -6l1284 -617q10 -5 17.5 -19t7.5 -26q0 -11 -7 -24t-18 -19l-1284 -618q-12 -6 -25 -6q-21 0 -36 15t-15 36z" />
<glyph unicode="&#xb8;" d="M221 43q0 21 13 34t34 15h451l184 549l-606 -293q-8 -2 -14 -4t-11 -2q-22 0 -36.5 15.5t-14.5 35.5q0 33 27 43l700 338l137 408l-837 401q-27 13 -27 45q0 20 14.5 34.5t36.5 14.5q13 0 25 -6l821 -393l250 747q16 31 47 31q22 0 36.5 -13.5t14.5 -35.5q0 -6 -4 -18 l-254 -756l373 -178q25 -14 25 -45q0 -29 -25 -43l-551 -265l-205 -610h734q21 -2 34 -15t13 -34t-13.5 -34.5t-33.5 -16.5h-766l-119 -350h885q21 -2 34 -14.5t13 -35.5q0 -21 -13.5 -34.5t-33.5 -16.5h-918l-182 -542q-16 -31 -47 -31q-19 0 -35.5 14.5t-16.5 34.5 q0 8 5 18l170 506h-267q-20 3 -33.5 16.5t-13.5 34.5q0 23 13 35.5t34 14.5h299l119 350h-418q-20 3 -33.5 16.5t-13.5 34.5zM1075 836l365 174l-262 127z" />
<glyph unicode="&#xb9;" d="M221 45q0 42 47 49h834l201 215q19 19 38 19q21 0 36.5 -14.5t15.5 -34.5q0 -21 -13 -33l-141 -152h320q47 -7 47 -49q0 -21 -13.5 -34.5t-33.5 -16.5h-414l-326 -350h740q21 -3 34 -16t13 -36q0 -19 -13.5 -32.5t-33.5 -16.5h-834l-201 -215q-18 -18 -39 -18 q-18 0 -33.5 14.5t-15.5 34.5q0 23 10 33l142 151h-320q-20 3 -33.5 16.5t-13.5 32.5q0 23 13 36t34 16h414l326 350h-740q-20 3 -33.5 16.5t-13.5 34.5zM221 1012q0 22 13 35t34 16q205 0 395 17t374 72.5t315 173.5t153 306q3 19 17 33t34 14q22 0 36 -15t14 -38 q-16 -140 -79 -245t-162 -179t-217.5 -118.5t-260.5 -71.5q139 -27 259.5 -72t218 -117t161 -179t80.5 -247q0 -21 -14 -37t-36 -16q-29 0 -43 23q-6 10 -9 27t-5 34.5t-6 36.5q-18 66 -47 119q-34 58 -80 104q-109 107 -305 176q-116 39 -248 61t-267.5 30t-277.5 8 q-21 2 -34 15t-13 34z" />
<glyph unicode="&#xba;" d="M221 45q0 42 47 49h834l201 215q19 19 38 19q21 0 36.5 -14.5t15.5 -34.5q0 -21 -13 -33l-141 -152h320q47 -7 47 -49q0 -21 -13.5 -34.5t-33.5 -16.5h-414l-326 -350h740q21 -3 34 -16t13 -36q0 -19 -13.5 -32.5t-33.5 -16.5h-834l-201 -215q-18 -18 -39 -18 q-18 0 -33.5 14.5t-15.5 34.5q0 23 10 33l142 151h-320q-20 3 -33.5 16.5t-13.5 32.5q0 23 13 36t34 16h414l326 350h-740q-20 3 -33.5 16.5t-13.5 34.5zM221 397q19 143 81.5 248.5t160 177.5t218 117t259.5 72q-144 28 -262.5 72.5t-215.5 117t-160.5 178.5t-80.5 246 q0 23 14 38t37 15q41 0 50 -47q24 -189 153 -306t315 -173t375 -73t394 -17q21 -3 34 -16t13 -35q0 -21 -13 -34t-34 -15q-229 0 -423 -20.5t-370 -78.5q-195 -68 -307 -178q-43 -43 -78 -102q-27 -48 -47 -119q-4 -19 -6.5 -38t-6 -35t-8.5 -25q-12 -23 -41 -23 q-23 0 -37 16t-14 37z" />
<glyph unicode="&#xbb;" d="M160 -121q0 102 51 187.5t139 134.5t187 49q80 0 155.5 -30t157 -81.5t149.5 -95.5l138 279q18 32 47 32q20 0 34.5 -15t14.5 -36q0 -6 -0.5 -9.5t-1.5 -8.5l-144 -291q109 -53 203 -53q115 0 211 69t96 180q5 53 35 60q30 -7 35 -60v-20q0 -156 -110.5 -263.5 t-266.5 -107.5q-118 0 -260 80l-147 -301q48 -31 94.5 -61t101.5 -58.5t105.5 -43.5t105.5 -15q115 0 211 69t96 179q5 54 35 61q30 -7 35 -61v-21q0 -155 -110.5 -261.5t-266.5 -106.5q-59 0 -121.5 19t-111 45.5t-103.5 61t-127 80.5l-137 -278q-18 -33 -47 -33 q-20 0 -34.5 15.5t-14.5 35.5q1 5 1.5 9t0.5 10l143 291q-111 53 -202 53q-72 0 -144 -30.5t-118 -88t-46 -131.5q-5 -52 -34 -59q-30 7 -35 59v20q0 102 51 187.5t139 134.5t187 49q118 0 260 -80l147 301q-56 37 -107 69.5t-94 55t-96.5 38.5t-109.5 16q-53 0 -108 -17.5 t-99.5 -49t-72.5 -79t-28 -104.5q-5 -53 -34 -60q-30 7 -35 60v20zM221 1102q0 19 13.5 32.5t33.5 16.5q240 0 421.5 12t344.5 54q186 46 299 131q71 55 119 133q31 60 43 110q3 12 7 42.5t11 43.5q14 23 43 23q22 0 36 -16t14 -37q-16 -125 -70 -218.5t-138 -158 t-187.5 -104t-229.5 -64.5q129 -27 231 -67t185.5 -103.5t138 -157t70.5 -219.5q0 -23 -14 -38t-36 -15q-20 0 -34 14t-17 33q-30 229 -238 340t-452 136.5t-547 25.5q-20 3 -33.5 16.5t-13.5 34.5z" />
<glyph unicode="&#xbc;" d="M160 -121q0 102 51 187.5t139 134.5t187 49q80 0 155.5 -30t157 -81.5t149.5 -95.5l138 279q18 32 47 32q20 0 34.5 -15t14.5 -36q0 -6 -0.5 -9.5t-1.5 -8.5l-144 -291q109 -53 203 -53q115 0 211 69t96 180q5 53 35 60q30 -7 35 -60v-20q0 -156 -110.5 -263.5 t-266.5 -107.5q-118 0 -260 80l-147 -301q48 -31 94.5 -61t101.5 -58.5t105.5 -43.5t105.5 -15q115 0 211 69t96 179q5 54 35 61q30 -7 35 -61v-21q0 -155 -110.5 -261.5t-266.5 -106.5q-59 0 -121.5 19t-111 45.5t-103.5 61t-127 80.5l-137 -278q-18 -33 -47 -33 q-20 0 -34.5 15.5t-14.5 35.5q1 5 1.5 9t0.5 10l143 291q-111 53 -202 53q-72 0 -144 -30.5t-118 -88t-46 -131.5q-5 -52 -34 -59q-30 7 -35 59v20q0 102 51 187.5t139 134.5t187 49q118 0 260 -80l147 301q-56 37 -107 69.5t-94 55t-96.5 38.5t-109.5 16q-53 0 -108 -17.5 t-99.5 -49t-72.5 -79t-28 -104.5q-5 -53 -34 -60q-30 7 -35 60v20zM221 555q17 126 72.5 220.5t138 157.5t184 102.5t230.5 66.5q-127 26 -229.5 65t-186 102.5t-137.5 157.5t-72 220q0 21 14 37t37 16q29 0 41 -23q6 -10 9 -24t5 -30.5t5 -31.5q14 -58 43 -108 q48 -83 121 -135q60 -45 134 -77t163 -54q163 -42 344 -54t422 -12q20 -3 33.5 -16.5t13.5 -32.5q0 -21 -13.5 -34.5t-33.5 -16.5q-303 0 -547.5 -25.5t-452 -136.5t-237.5 -340q-9 -47 -50 -47q-23 0 -37 15t-14 38z" />
<glyph unicode="&#xbd;" d="M160 -121q0 102 51 187.5t139 134.5t187 49q57 0 116.5 -17.5t106.5 -42t95 -54.5t124 -81l158 391q16 31 47 31q20 0 34.5 -14.5t14.5 -34.5q0 -6 -0.5 -9.5t-1.5 -8.5l-164 -406q119 -63 223 -63q115 0 211 69t96 180q5 53 35 60q30 -7 35 -60v-20 q0 -156 -110.5 -263.5t-266.5 -107.5q-123 0 -270 84l-125 -313q98 -64 145.5 -92.5t113 -53t136.5 -24.5q115 0 211 69t96 179q5 54 35 61q30 -7 35 -61v-21q0 -155 -110.5 -261.5t-266.5 -106.5q-57 0 -116.5 17.5t-111.5 45t-105 61.5t-109 70l-158 -391q-17 -31 -47 -31 q-20 0 -34.5 15.5t-14.5 33.5q1 5 1.5 9t0.5 10l164 405q-121 64 -223 64q-72 0 -144 -30.5t-118 -88t-46 -131.5q-5 -52 -34 -59q-30 7 -35 59v20q0 102 51 187.5t139 134.5t187 49q123 0 270 -84l125 314q-128 84 -212 127t-183 43q-53 0 -108 -17.5t-99.5 -49t-72.5 -79 t-28 -104.5q-5 -53 -34 -60q-30 7 -35 60v20zM221 1102q0 29 33 47l1284 549q6 2 18 2q20 0 35 -15t15 -34q0 -32 -33 -47l-1174 -502l1182 -506q9 -4 17 -18t8 -25q0 -21 -15 -36t-35 -15q-12 0 -18 4l-1290 551q-27 10 -27 45z" />
<glyph unicode="&#xbe;" d="M160 -121q0 102 51 187.5t139 134.5t187 49q57 0 116.5 -17.5t106.5 -42t95 -54.5t124 -81l158 391q16 31 47 31q20 0 34.5 -14.5t14.5 -34.5q0 -6 -0.5 -9.5t-1.5 -8.5l-164 -406q119 -63 223 -63q115 0 211 69t96 180q5 53 35 60q30 -7 35 -60v-20 q0 -156 -110.5 -263.5t-266.5 -107.5q-123 0 -270 84l-125 -313q98 -64 145.5 -92.5t113 -53t136.5 -24.5q115 0 211 69t96 179q5 54 35 61q30 -7 35 -61v-21q0 -155 -110.5 -261.5t-266.5 -106.5q-57 0 -116.5 17.5t-111.5 45t-105 61.5t-109 70l-158 -391q-17 -31 -47 -31 q-20 0 -34.5 15.5t-14.5 33.5q1 5 1.5 9t0.5 10l164 405q-121 64 -223 64q-72 0 -144 -30.5t-118 -88t-46 -131.5q-5 -52 -34 -59q-30 7 -35 59v20q0 102 51 187.5t139 134.5t187 49q123 0 270 -84l125 314q-128 84 -212 127t-183 43q-53 0 -108 -17.5t-99.5 -49t-72.5 -79 t-28 -104.5q-5 -53 -34 -60q-30 7 -35 60v20zM221 553q0 29 33 47l1173 502l-1179 504q-27 10 -27 45q0 19 15 34t36 15q11 0 17 -2l1292 -553q9 -4 17 -18t8 -25q0 -32 -33 -47l-1284 -549q-6 -4 -17 -4q-21 0 -36 15t-15 36z" />
<glyph unicode="&#xbf;" d="M160 322v22q0 82 26 160.5t76.5 143.5t119.5 101.5t155 36.5q68 0 134 -25.5t116.5 -59.5t136.5 -99l327 391q19 19 39 19t34.5 -14.5t14.5 -34.5q0 -23 -10 -33l-325 -389q154 -115 286 -115q75 0 143.5 37t111 101t42.5 141q0 26 9.5 51.5t31.5 29.5q20 -4 29.5 -29 t9.5 -52v-23q0 -81 -25.5 -161t-75 -143.5t-120 -101.5t-156.5 -38q-52 0 -103.5 15.5t-100.5 42.5t-94 60t-89 66l-328 -391q-17 -19 -38 -19q-20 0 -35 15t-15 34q0 23 11 33l325 389q-42 31 -90 58t-97 42t-99 15q-75 0 -143.5 -37t-111 -100.5t-42.5 -138.5 q0 -27 -9.5 -53.5t-29.5 -30.5q-22 4 -31.5 30t-9.5 54z" />
<glyph unicode="&#xc0;" d="M160 4q0 44 47 51h393l197 351h-590q-47 7 -47 49q0 44 47 51h645l217 387q-56 29 -114 67t-133.5 86t-144 73.5t-140.5 25.5t-144 -30.5t-118 -88t-46 -131.5q-5 -52 -34 -59q-30 7 -35 59v20q0 102 51 187.5t139 134.5t187 49q81 0 154.5 -28t154 -79.5t153 -97.5 t136.5 -71l239 428q13 22 41 22q22 0 36.5 -13.5t14.5 -35.5q0 -11 -8 -29l-225 -401q36 -4 57 -4q115 0 211 69t96 179q5 54 35 61q30 -7 35 -61v-21q0 -155 -110.5 -261.5t-266.5 -106.5q-59 0 -127 20l-196 -350h653q47 -7 47 -51q0 -42 -47 -49h-709l-196 -351h905 q47 -7 47 -51q0 -42 -47 -49h-961l-206 -369q-14 -22 -41 -22q-19 0 -35.5 14.5t-16.5 34.5q0 9 9 29l176 313h-338q-47 7 -47 49z" />
<glyph unicode="&#xc1;" horiz-adv-x="2079" d="M33 -348q0 19 12 33l1645 1716q18 18 39 18q20 0 34.5 -14.5t14.5 -34.5q0 -22 -11 -33l-1644 -1716q-22 -18 -39 -18q-20 0 -35.5 14.5t-15.5 34.5z" />
<glyph unicode="&#xc2;" horiz-adv-x="2079" d="M33 1370q0 20 14.5 34.5t36.5 14.5q17 0 39 -18l1644 -1716q11 -11 11 -33q0 -20 -15.5 -34.5t-33.5 -14.5q-21 0 -39 18l-1645 1716q-12 13 -12 33z" />
<glyph unicode="&#xc3;" d="M221 735q0 139 55 261.5t152 214t220.5 142t262.5 50.5h648q20 -3 33.5 -16.5t13.5 -32.5q0 -21 -13.5 -34.5t-33.5 -16.5h-641q-118 0 -225 -41.5t-191.5 -120t-132 -183t-47.5 -223.5q0 -158 82 -288t220 -204.5t294 -74.5h155l191 233q21 19 39 19q21 0 36 -15t15 -34 t-13 -33l-137 -170h355q20 -3 33.5 -16.5t13.5 -32.5q0 -21 -13.5 -34.5t-33.5 -16.5h-437l-286 -351h723q22 -3 34.5 -16.5t12.5 -34.5q0 -19 -13.5 -32.5t-33.5 -16.5h-805l-191 -233q-21 -19 -39 -19q-21 0 -36 15t-15 34q0 18 12 33l138 170h-304q-20 3 -33.5 16.5 t-13.5 32.5q0 21 12.5 34.5t34.5 16.5h386l286 351h-80q-183 0 -342 88.5t-253.5 241.5t-94.5 337z" />
<glyph unicode="&#xc4;" horiz-adv-x="1038" d="M311 37q0 18 13.5 30.5t31.5 14.5h125q127 0 220.5 70.5t132.5 193.5h-400q-15 0 -25 12t-10 25q0 17 12 31t31 14h414q18 85 18 143q0 120 -68 193.5t-183 73.5q-110 0 -248 -93q-4 -2 -13 -2q-15 0 -23.5 17t-8.5 33q0 39 119 74.5t178 35.5q86 0 165 -28.5t138 -82 t91 -127t32 -163.5q0 -111 -49.5 -204t-131 -158.5t-186.5 -102.5t-209 -37h-129q-15 0 -26 10t-11 27z" />
<glyph unicode="&#x2000;" horiz-adv-x="1028" />
<glyph unicode="&#x2001;" horiz-adv-x="2056" />
<glyph unicode="&#x2002;" horiz-adv-x="1028" />
<glyph unicode="&#x2003;" horiz-adv-x="2056" />
<glyph unicode="&#x2004;" horiz-adv-x="685" />
<glyph unicode="&#x2005;" horiz-adv-x="514" />
<glyph unicode="&#x2006;" horiz-adv-x="342" />
<glyph unicode="&#x2007;" horiz-adv-x="342" />
<glyph unicode="&#x2008;" horiz-adv-x="257" />
<glyph unicode="&#x2009;" horiz-adv-x="411" />
<glyph unicode="&#x200a;" horiz-adv-x="114" />
<glyph unicode="&#x2010;" horiz-adv-x="694" d="M-18 512q0 22 20 39l295 242v696q7 47 51 47q42 0 49 -47v-615l232 189q12 12 30 12q21 0 36.5 -15.5t15.5 -35.5t-19 -39l-295 -240v-1210q-7 -47 -49 -47q-44 0 -51 47v1129l-231 -191q-14 -10 -33 -10q-18 0 -34.5 14.5t-16.5 34.5z" />
<glyph unicode="&#x2011;" horiz-adv-x="694" d="M-18 512q0 22 20 39l295 242v696q7 47 51 47q42 0 49 -47v-615l232 189q12 12 30 12q21 0 36.5 -15.5t15.5 -35.5t-19 -39l-295 -240v-1210q-7 -47 -49 -47q-44 0 -51 47v1129l-231 -191q-14 -10 -33 -10q-18 0 -34.5 14.5t-16.5 34.5z" />
<glyph unicode="&#x2012;" horiz-adv-x="694" d="M-18 512q0 22 20 39l295 242v696q7 47 51 47q42 0 49 -47v-615l232 189q12 12 30 12q21 0 36.5 -15.5t15.5 -35.5t-19 -39l-295 -240v-1210q-7 -47 -49 -47q-44 0 -51 47v1129l-231 -191q-14 -10 -33 -10q-18 0 -34.5 14.5t-16.5 34.5z" />
<glyph unicode="&#x2013;" horiz-adv-x="989" d="M-18 512q0 22 28 39l414 242v696q10 47 72 47q59 0 69 -47v-615l326 189q17 12 42 12q29 0 51 -15.5t22 -35.5t-27 -39l-414 -240v-1210q-10 -47 -69 -47q-62 0 -72 47v1129l-324 -191q-20 -10 -46 -10t-49 14.5t-23 34.5z" />
<glyph unicode="&#x2014;" horiz-adv-x="2013" d="M-18 512q0 22 56 39l829 242v696q20 47 143 47q118 0 138 -47v-615l652 189q33 12 84 12q59 0 102.5 -15.5t43.5 -35.5t-53 -39l-829 -240v-1210q-20 -47 -138 -47q-123 0 -143 47v1129l-649 -191q-39 -10 -93 -10q-50 0 -96.5 14.5t-46.5 34.5z" />
<glyph unicode="&#x202f;" horiz-adv-x="411" />
<glyph unicode="&#x205f;" horiz-adv-x="514" />
<glyph unicode="&#x2219;" d="M221 43q0 21 13 34t34 15h451l188 557l-659 318q-27 13 -27 43q0 32 27 45l948 456l172 514q16 31 47 31q22 0 36.5 -13.5t14.5 -35.5q0 -6 -4 -18l-139 -416l209 98q9 6 24 6q21 0 35.5 -14.5t14.5 -34.5q0 -10 -7.5 -25t-17.5 -20l-303 -143l-248 -738l551 -266 q10 -4 17.5 -17.5t7.5 -25.5q0 -20 -14.5 -35.5t-35.5 -15.5q-6 0 -24 6l-535 258l-172 -514h734q21 -2 34 -15t13 -34t-13.5 -34.5t-33.5 -16.5h-766l-119 -350h885q21 -2 34 -14.5t13 -35.5q0 -21 -13.5 -34.5t-33.5 -16.5h-918l-182 -542q-16 -31 -47 -31 q-19 0 -35.5 14.5t-16.5 34.5q0 8 5 18l170 506h-267q-20 3 -33.5 16.5t-13.5 34.5q0 23 13 35.5t34 14.5h299l119 350h-418q-20 3 -33.5 16.5t-13.5 34.5zM387 1010l551 -265l213 633z" />
<glyph unicode="&#xe000;" horiz-adv-x="975" d="M0 975h975v-975h-975v975z" />
</font>
</defs>
</svg>
